/* XPM */
static const char * arrow_s_xpm[] = {
"16 16 2 1",
" 	c None",
".	c #000000",
"                ",
"                ",
"                ",
"  ........      ",
"  ........      ",
"  ........      ",
"  ........      ",
"  ..............",
"  ........      ",
"  ........      ",
"  ........      ",
"  ........      ",
"                ",
"                ",
"                ",
"                "};
