/* XPM */
static const char * folder_xpm[] = {
"16 16 111 2",
"  	c None",
". 	c #7A7A7A",
"+ 	c #797979",
"@ 	c #787878",
"# 	c #C9C9C9",
"$ 	c #C7C7C7",
"% 	c #C5C5C5",
"& 	c #C4C4C4",
"* 	c #B4B4B4",
"= 	c #747474",
"- 	c #737373",
"; 	c #B0B0B0",
"> 	c #ADADAD",
", 	c #ABABAB",
"' 	c #AAAAAA",
") 	c #ACACAC",
"! 	c #8D8D8D",
"~ 	c #8C8C8C",
"{ 	c #808080",
"] 	c #6C6C6C",
"^ 	c #6E6E6E",
"/ 	c #C1C1C0",
"( 	c #A7A7A7",
"_ 	c #A5A5A5",
": 	c #A4A4A4",
"< 	c #B6B6B6",
"[ 	c #B9B9B9",
"} 	c #BBBBBB",
"| 	c #A2A2A2",
"1 	c #6A6A6A",
"2 	c #BDBDBD",
"3 	c #416DA6",
"4 	c #3666A5",
"5 	c #3566A4",
"6 	c #3465A4",
"7 	c #3768A6",
"8 	c #656565",
"9 	c #B7B7B7",
"0 	c #3566A5",
"a 	c #BED3EA",
"b 	c #BFD4EA",
"c 	c #BED4EA",
"d 	c #BED3E9",
"e 	c #B8CFE8",
"f 	c #3465A5",
"g 	c #5F5F5F",
"h 	c #B3B3B3",
"i 	c #C1D5EA",
"j 	c #91B4DB",
"k 	c #91B5DB",
"l 	c #92B5DB",
"m 	c #96B8DC",
"n 	c #B7CFE7",
"o 	c #3466A4",
"p 	c #5B5B5B",
"q 	c #AEAEAE",
"r 	c #3667A5",
"s 	c #C4D7EB",
"t 	c #94B7DC",
"u 	c #91B4DA",
"v 	c #B6CDE6",
"w 	c #565656",
"x 	c #A9A9A9",
"y 	c #3666A4",
"z 	c #C6D8EC",
"A 	c #99BADD",
"B 	c #95B7DC",
"C 	c #8EB2DA",
"D 	c #8BB0D9",
"E 	c #B8CFE7",
"F 	c #515151",
"G 	c #A5A5A4",
"H 	c #3767A5",
"I 	c #BED2E9",
"J 	c #9BBADD",
"K 	c #99B9DD",
"L 	c #95B6DC",
"M 	c #90B3DA",
"N 	c #8EB2D9",
"O 	c #89AED8",
"P 	c #87ADD7",
"Q 	c #8BB0D8",
"R 	c #B1C9E5",
"S 	c #4C4C4C",
"T 	c #A1A1A1",
"U 	c #3868A5",
"V 	c #A9C4E2",
"W 	c #81A8D5",
"X 	c #7AA4D3",
"Y 	c #7EA7D4",
"Z 	c #9CBADD",
"` 	c #484848",
" .	c #9B9B9B",
"..	c #3867A4",
"+.	c #85ABD5",
"@.	c #6E9CCE",
"#.	c #6D9CCE",
"$.	c #709ECF",
"%.	c #84ABD5",
"&.	c #494949",
"*.	c #999999",
"=.	c #3968A5",
"-.	c #7EA6D3",
";.	c #78A3D2",
">.	c #79A4D3",
",.	c #7AA5D1",
"'.	c #788697",
").	c #3A69A5",
"!.	c #5083BA",
"~.	c #4578B2",
"{.	c #464D53",
"                                ",
". + + + + + +                   ",
"@ # $ % & & * =                 ",
"- % ; > , ' ) ! ! ~ ~ ~ { ]     ",
"^ / ) ' ( _ : : ) < [ } | 1     ",
"1 2 3 4 4 4 4 4 5 5 5 5 6 6 6 7 ",
"8 9 0 a b b c c c d d d d d e f ",
"g h 5 i j j k k l l l l l m n o ",
"p q r s t t t t t t t t t u v 0 ",
"w x y z A A A A A A A B C D E 0 ",
"F G H I J K L l M N O P P Q R 0 ",
"S T U V W X X X X X X X X Y Z 0 ",
"`  ...+.@.#.#.#.#.#.#.#.#.$.%.0 ",
"&.*.=.-.;.;.;.;.;.;.;.;.;.>.,.0 ",
"` '.).!.!.!.!.!.!.!.!.!.!.!.~.4 ",
"{.6 6 6 6 6 6 6 6 6 6 6 6 6 5   "};
