/* XPM */
static const char * mark_df_xpm[] = {
"16 16 2 1",
" 	c None",
".	c #000000",
"       ..       ",
"      ....      ",
"     ......     ",
"    ........    ",
"   ..........   ",
"  ............  ",
" .............. ",
"................",
"................",
" .............. ",
"  ............  ",
"   ..........   ",
"    ........    ",
"     ......     ",
"      ....      ",
"       ..       "};
