/* XPM */
static const char * next_xpm[] = {
"16 16 2 1",
" 	c #E7E7E7",
".	c #0000FF",
"                ",
"                ",
"                ",
"  .             ",
"  ...           ",
"  .....         ",
"  .......       ",
"  .........     ",
"  ...........   ",
"  ...........   ",
"  .........     ",
"  .......       ",
"  .....         ",
"  ...           ",
"  .             ",
"                "};
