/* XPM */
static const char * other_xpm[] = {
"16 16 98 2",
"  	c None",
". 	c #FFFFFF",
"+ 	c #00CAFF",
"@ 	c #00ADFF",
"# 	c #0000EB",
"$ 	c #00007F",
"% 	c #0000B4",
"& 	c #0000B9",
"* 	c #00D1FF",
"= 	c #73FF8B",
"- 	c #68FF96",
"; 	c #00BFFF",
"> 	c #0000C3",
", 	c #0000C7",
"' 	c #01DDFD",
") 	c #0041FF",
"! 	c #0DFBF1",
"~ 	c #3EFFC0",
"{ 	c #00EEFF",
"] 	c #0024FF",
"^ 	c #000082",
"/ 	c #000083",
"( 	c #2EFFD0",
"_ 	c #00E9FF",
": 	c #0001EA",
"< 	c #0074FF",
"[ 	c #009CFF",
"} 	c #0058FF",
"| 	c #0000D5",
"1 	c #009FFF",
"2 	c #63FF9B",
"3 	c #0000C1",
"4 	c #00009D",
"5 	c #0000F7",
"6 	c #0042FF",
"7 	c #0030FF",
"8 	c #0000DC",
"9 	c #000080",
"0 	c #0017FE",
"a 	c #00E0FF",
"b 	c #0000F6",
"c 	c #0075FF",
"d 	c #0094FF",
"e 	c #0044FF",
"f 	c #0000BE",
"g 	c #000086",
"h 	c #000BFE",
"i 	c #004FFF",
"j 	c #0000AC",
"k 	c #006EFF",
"l 	c #10FEEE",
"m 	c #35FFC9",
"n 	c #0000C9",
"o 	c #0083FF",
"p 	c #0031FF",
"q 	c #000090",
"r 	c #0007F9",
"s 	c #0BF9F3",
"t 	c #7EFF80",
"u 	c #58FFA6",
"v 	c #007DFF",
"w 	c #000085",
"x 	c #1FFFDF",
"y 	c #000081",
"z 	c #0039FF",
"A 	c #00DBFF",
"B 	c #01BDFD",
"C 	c #0AFEF4",
"D 	c #0000AA",
"E 	c #00009A",
"F 	c #001BFC",
"G 	c #00C9FE",
"H 	c #4BFFB3",
"I 	c #0006F7",
"J 	c #008FFF",
"K 	c #6FFF8F",
"L 	c #F5FF09",
"M 	c #FFDB00",
"N 	c #F1FB0D",
"O 	c #0021FF",
"P 	c #0000EA",
"Q 	c #13FCEB",
"R 	c #F0FF0E",
"S 	c #FF8700",
"T 	c #FF5B00",
"U 	c #EDFC11",
"V 	c #12FDEC",
"W 	c #0003E9",
"X 	c #00B7FF",
"Y 	c #98FF66",
"Z 	c #FFDF00",
"` 	c #FFB300",
" .	c #00B8FF",
"..	c #0067FF",
"+.	c #04E9FA",
"@.	c #1DFCE1",
"#.	c #00EDFF",
"$.	c #000088",
"            + @ # $ $ %         ",
"      & * = - ; > $ $ , '       ",
"  $ $ ) ! ~ { ] ^ $ $ / ( _     ",
"  $ $ : < [ } | $ $ $ $ 1 2 3   ",
"  $ $ 4 5 6 7 8 9 $ $ $ 0 a 7 $ ",
"  $ $ / b c d e f $ $ g h i 8 $ ",
"  $ $ j k l m * # $ $ n o p q $ ",
"  $ $ r s t u v w $ $ j x 1 y $ ",
"  $ $ z A B $ $ $ $ $ $ C ~ D $ ",
"  $ $ $ $ E F [ G [ 0 E $ H I $ ",
"  $ $ $ D J K L M N K J D $ O $ ",
"    $ $ P Q R S T S U V W $ $ $ ",
"      $ f X Y Z ` Z Y  .f $ $ $ ",
"        $ > ..+.@.#...> $ $     ",
"          $ $ y $.^ $           ",
"            $ $ $               "};
