/* XPM */
static const char * table_xpm[] = {
"16 16 4 1",
" 	c None",
"#	c #000000",
"o	c #777777",
".	c #FFFFFF",
"                ",
" ###############",
" #ooo#oooo#oooo#",
" #ooo#oooo#oooo#",
" ###############",
" #ooo#....#....#",
" #ooo#....#....#",
" ###############",
" #ooo#....#....#",
" #ooo#....#....#",
" ###############",
" #ooo#....#....#",
" #ooo#....#....#",
" ###############",
"                ",
"                "};

