/* XPM */
static const char * tiles_xpm[] = {
"16 16 113 2",
"  	c None",
". 	c #00D9FB",
"+ 	c #00FEC7",
"@ 	c #7DFF1E",
"# 	c #DBDF08",
"$ 	c #EAC004",
"% 	c #E5D403",
"& 	c #FF5D00",
"* 	c #FC1600",
"= 	c #FC2500",
"- 	c #00EAE9",
"; 	c #00E9CA",
"> 	c #05F1B1",
", 	c #03F8B5",
"' 	c #00FFC7",
") 	c #00FFD6",
"! 	c #FF5900",
"~ 	c #FD0600",
"{ 	c #FA0000",
"] 	c #FF2600",
"^ 	c #00A1FF",
"/ 	c #00CEFF",
"( 	c #00FEE9",
"_ 	c #00FF71",
": 	c #80FF12",
"< 	c #CFFF07",
"[ 	c #FF7000",
"} 	c #FF5800",
"| 	c #FE7200",
"1 	c #F9B100",
"2 	c #00EDF2",
"3 	c #1AFF56",
"4 	c #C1FA00",
"5 	c #FDD600",
"6 	c #FFA700",
"7 	c #FF9200",
"8 	c #F3D400",
"9 	c #A0FD21",
"0 	c #21F996",
"a 	c #ECF100",
"b 	c #FFC900",
"c 	c #FF9B00",
"d 	c #FF9300",
"e 	c #FDA700",
"f 	c #AEFF05",
"g 	c #00F9C7",
"h 	c #00AAFF",
"i 	c #0052FF",
"j 	c #FDCA00",
"k 	c #E6DE00",
"l 	c #FCA900",
"m 	c #ADFF00",
"n 	c #00FCC3",
"o 	c #00C8FF",
"p 	c #0089FF",
"q 	c #0079FE",
"r 	c #0094FF",
"s 	c #00CDFF",
"t 	c #93E71F",
"u 	c #6BF55F",
"v 	c #57FA76",
"w 	c #3EFF80",
"x 	c #1BFF89",
"y 	c #00FF84",
"z 	c #00FF95",
"A 	c #F52C00",
"B 	c #F03200",
"C 	c #F23E00",
"D 	c #FB5B00",
"E 	c #F39E00",
"F 	c #D4EA00",
"G 	c #3BFF31",
"H 	c #00FCD9",
"I 	c #00C2FF",
"J 	c #FE5500",
"K 	c #E70200",
"L 	c #B30000",
"M 	c #9C0000",
"N 	c #A30000",
"O 	c #C30000",
"P 	c #F61400",
"Q 	c #FF9600",
"R 	c #99FD04",
"S 	c #01FDD5",
"T 	c #00A6FF",
"U 	c #0054FF",
"V 	c #0037FF",
"W 	c #EC0400",
"X 	c #BD0000",
"Y 	c #A20000",
"Z 	c #A00000",
"` 	c #B70000",
" .	c #EA0100",
"..	c #FF5600",
"+.	c #EDE300",
"@.	c #0CF5CC",
"#.	c #06D2E4",
"$.	c #09CEE0",
"%.	c #18E5C1",
"&.	c #4AFF6C",
"*.	c #C1EB09",
"=.	c #FF7200",
"-.	c #FE4F00",
";.	c #F73E00",
">.	c #F03A00",
",.	c #F03800",
"'.	c #F63A00",
").	c #E2BD00",
"!.	c #D0C10A",
"~.	c #CDC110",
"{.	c #DFBB02",
"].	c #F7B100",
"^.	c #FF9C00",
"                                ",
"                                ",
"            . + @ # $ %         ",
"& * =           - ; > , ' )     ",
"! ~ { ]             ^ / ( _ : < ",
"[ } | 1               2 3 4 5 6 ",
"7 8 9 0                 a b c d ",
"e f g h i                   j k ",
"l m n o p q r s                 ",
"      t u v w x y z             ",
"    A B C D E F G H I           ",
"J K L M N O P Q R S T U V       ",
"} W X Y Z `  ...+.  @.#.$.%.&.*.",
"=.-.;.>.,.'.        ).!.~.{.].^.",
"                                ",
"                                "};
