/* XPM */
static const char *udav_xpm[]={
"64 64 349 2",
"Qt c None",
"#n c #000080",
"#h c #010180",
"#y c #010181",
"#s c #020281",
"#c c #020282",
"dg c #030382",
".8 c #030383",
"#r c #040483",
"#m c #040484",
"#g c #050584",
"#M c #050585",
"#q c #060685",
"a. c #060686",
"#p c #070786",
"ck c #070787",
"aj c #080887",
"bm c #080888",
"aK c #090988",
"a4 c #090989",
"aJ c #0a0a89",
"## c #0a0a8a",
"#G c #0b0b8a",
"cx c #0b0b8b",
"b7 c #0c0c8b",
"#z c #0c0c8c",
"b6 c #0d0d8c",
"b8 c #0d0d8d",
"#l c #0e0e8d",
"cj c #0e0e8e",
"b5 c #0f0f8e",
"#S c #0f0f8f",
"ci c #10108f",
"bE c #101090",
"b4 c #111190",
"c2 c #111191",
"#W c #121291",
"b9 c #121292",
"#b c #131392",
"b3 c #131393",
"ak c #141493",
"aD c #141494",
"bG c #151594",
"aq c #151595",
"bF c #161695",
"#i c #161696",
"aE c #171796",
"ae c #171797",
".5 c #181897",
"cq c #181898",
"#L c #191998",
"bU c #191999",
"b2 c #1a1a99",
"aL c #1a1a9a",
"ds c #1b1b9a",
"#A c #1b1b9b",
"#k c #1c1c9b",
"#f c #1c1c9c",
"cG c #1d1d9c",
"bM c #1d1d9d",
"bN c #1e1e9d",
"ch c #1e1e9e",
"bL c #1f1f9e",
"b1 c #1f1f9f",
"#j c #20209f",
"bO c #2020a0",
"cS c #2121a0",
"bY c #2121a1",
"db c #2222a1",
"bK c #2222a2",
"bn c #2323a2",
"a# c #2323a3",
"bH c #2424a4",
"bJ c #2525a4",
"a3 c #2525a5",
"#o c #2626a5",
"df c #2626a6",
"#. c #2727a6",
"bP c #2727a7",
"ai c #2828a7",
"cF c #2828a8",
"cf c #2929a9",
"b0 c #2a2aa9",
"#x c #2a2aaa",
".7 c #2b2baa",
"bI c #2b2bab",
"cy c #2c2cab",
"a5 c #2c2cac",
"aI c #2d2dac",
"#d c #2d2dad",
"cp c #2e2ead",
"bo c #2e2eae",
"ap c #2f2fae",
"#1 c #3030b0",
"cg c #3131b1",
"bZ c #3232b1",
"de c #3333b2",
"dw c #3333b3",
"bQ c #3434b4",
"bp c #3535b5",
"c3 c #3636b5",
"#R c #3636b6",
"cC c #3737b7",
"aC c #3838b7",
"#t c #3838b8",
"#T c #3939b8",
"#F c #3939b9",
"bq c #3a3ab9",
"#6 c #3a3aba",
"aM c #3c3cbb",
"#B c #3d3dbc",
"cr c #3d3dbd",
"#N c #3e3ebd",
"dA c #3e3ebe",
"ar c #3f3fbe",
"bA c #3f3fbf",
"bR c #4040c0",
"bS c #4141c0",
"dh c #4141c1",
"ce c #4242c1",
"da c #4343c3",
"br c #4444c3",
"#X c #4545c4",
"a6 c #4545c5",
"cM c #4646c5",
"bw c #4646c6",
"#e c #4747c6",
"bs c #4747c7",
"bv c #4848c7",
"aB c #4848c8",
"bt c #4949c8",
"bu c #4949c9",
"bx c #4a4ac9",
"as c #4a4aca",
"cs c #4b4bca",
"ct c #4b4bcb",
"#u c #4c4ccb",
"bl c #4c4ccc",
"dz c #5050cf",
"c6 c #5151d0",
"a7 c #5151d1",
"by c #5252d1",
"#H c #5353d2",
"dx c #5454d3",
"d# c #5454d4",
"at c #5555d5",
"aA c #5656d5",
"cw c #5656d6",
"dy c #5757d6",
"bz c #5858d8",
"#a c #5959d9",
"cE c #5a5ad9",
"cL c #5b5bdb",
"a8 c #5c5cdb",
"aN c #5c5cdc",
".6 c #5d5ddd",
"c5 c #5e5edd",
"bk c #5e5ede",
"dt c #5f5fde",
"cT c #6060df",
"al c #6262e1",
"au c #6262e2",
"az c #6464e4",
"af c #6565e4",
"cD c #6565e5",
"#2 c #6666e6",
"d. c #6767e7",
"co c #6868e7",
".9 c #6868e8",
"av c #6969e8",
"cN c #6a6aea",
"a2 c #6b6bea",
"c. c #6b6beb",
"dk c #6c6ceb",
"aO c #6c6cec",
"ay c #6d6dec",
"ad c #6e6eee",
"ax c #6f6fef",
"bD c #7070f0",
"#w c #7171f0",
"aw c #7171f1",
"cu c #7272f1",
"c7 c #7272f2",
"a9 c #7373f2",
"aF c #7373f3",
"dn c #7474f4",
"b. c #7878f7",
"#C c #7979f8",
".4 c #7979f9",
"aP c #7a7af9",
"aa c #7b7bfa",
"b# c #7c7cfb",
"cd c #7e7efd",
"bX c #7f7ffe",
".3 c #800000",
".1 c #800101",
"ba c #8080ff",
".2 c #810101",
".X c #810202",
"dp c #8181ff",
".W c #820202",
".Y c #820303",
"#5 c #8282ff",
".Z c #830303",
"aH c #8383ff",
".R c #840505",
"#v c #8484ff",
".S c #850606",
"bb c #8585ff",
".T c #860707",
"#K c #8686ff",
".U c #870808",
".V c #880808",
"aQ c #8888ff",
".Q c #890a0a",
"dr c #8989ff",
".K c #8a0a0a",
"cz c #8a8aff",
".j c #8b0b0b",
"cK c #8b8bff",
"bc c #8c8cff",
"cU c #8d8dff",
".B c #8e0e0e",
".P c #8e0f0f",
"ao c #8e8eff",
".L c #8f0f0f",
"cH c #9090ff",
"bd c #9292ff",
".C c #931414",
"aR c #9393ff",
".O c #941414",
"#D c #9494ff",
"#O c #9595ff",
"cV c #9696ff",
".M c #981818",
"#E c #9898ff",
".c c #991a1a",
"cO c #9999ff",
".N c #9a1b1b",
".s c #9b1b1b",
".J c #9d1e1e",
"be c #9d9dff",
"aS c #9e9eff",
"dd c #9f9fff",
"c8 c #a1a1ff",
".D c #a32424",
"#7 c #a3a3ff",
"#I c #a5a5ff",
".r c #a72828",
"aT c #a7a7ff",
"do c #a8a8ff",
"cn c #a9a9ff",
".# c #ab2c2c",
"c9 c #ababff",
".A c #ac2c2c",
"cW c #adadff",
"#Y c #aeaeff",
".I c #af2f2f",
"du c #b0b0ff",
"#0 c #b1b1ff",
"c4 c #b2b2ff",
"bf c #b3b3ff",
".E c #b43535",
"cA c #b4b4ff",
"#Q c #b5b5ff",
"dv c #b6b6ff",
"cl c #b7b7ff",
"cX c #b8b8ff",
"aU c #b9b9ff",
"cc c #babaff",
".i c #bc3c3c",
"bW c #bcbcff",
"dm c #bdbdff",
".H c #be3f3f",
"aZ c #bebeff",
"bB c #bfbfff",
"aV c #c0c0ff",
".b c #c14141",
".t c #c14242",
"bg c #c1c1ff",
"#V c #c2c2ff",
".F c #c34343",
"#9 c #c3c3ff",
"cY c #c4c4ff",
"#J c #c5c5ff",
"cP c #c6c6ff",
"aW c #c7c7ff",
"aY c #c8c8ff",
".a c #c94949",
"bC c #c9c9ff",
".k c #ca4a4a",
"c1 c #cacaff",
".G c #cb4b4b",
"aX c #cbcbff",
"di c #ccccff",
"dj c #cdcdff",
"bh c #ceceff",
"a1 c #d0d0ff",
"c# c #d1d1ff",
"c0 c #d2d2ff",
"cR c #d3d3ff",
".z c #d45555",
"cZ c #d4d4ff",
"bT c #d6d6ff",
"dl c #d8d8ff",
"#3 c #dadaff",
"am c #dbdbff",
"bi c #dcdcff",
"ag c #ddddff",
"#P c #dfdfff",
"cI c #e1e1ff",
"bV c #e4e4ff",
".q c #e66666",
"dc c #e6e6ff",
"aG c #e7e7ff",
".d c #e86969",
"cb c #e8e8ff",
"cJ c #eaeaff",
"ab c #ececff",
".u c #ed6d6d",
"bj c #ededff",
"cB c #efefff",
"#U c #f0f0ff",
"cQ c #f1f1ff",
"cv c #f2f2ff",
"dq c #f4f4ff",
"cm c #f5f5ff",
"ca c #f6f6ff",
"a0 c #f7f7ff",
"an c #f9f9ff",
"ah c #fafaff",
"#Z c #fbfbff",
"ac c #fcfcff",
"#8 c #fdfdff",
"#4 c #fefeff",
".y c #ff7f7f",
".h c #ff8686",
".v c #ff9292",
".l c #ff9595",
".x c #ff9d9d",
".w c #ffa5a5",
".p c #ffb0b0",
".e c #ffb3b3",
".g c #ffbfbf",
".f c #ffcece",
".m c #ffd9d9",
".o c #ffe8e8",
".n c #fff8f8",
".0 c #ffff00",
"QtQtQtQtQtQtQtQtQtQtQtQtQtQtQtQtQtQtQtQtQtQtQtQtQtQtQtQtQtQtQtQtQtQtQtQtQtQtQtQtQtQtQtQtQtQtQtQtQtQtQtQtQtQtQtQtQtQtQtQtQtQtQtQt",
"QtQtQtQtQtQtQtQtQtQtQtQtQtQtQtQtQtQtQtQtQtQtQtQtQtQtQtQtQtQtQtQtQtQtQtQtQtQtQtQtQtQtQtQtQtQtQtQtQtQtQtQtQtQtQtQtQtQtQtQtQtQtQtQt",
"QtQtQtQtQtQtQtQtQtQtQtQtQtQtQtQtQtQtQtQtQtQtQtQtQtQtQtQtQtQtQtQtQtQtQtQtQtQtQtQtQtQtQtQtQtQtQtQtQtQtQtQtQtQtQtQtQtQtQtQtQtQtQtQt",
"QtQtQtQtQtQtQtQtQtQtQtQtQtQtQtQtQtQtQtQtQtQtQtQtQtQtQtQtQtQtQtQtQtQtQtQtQtQtQtQtQtQtQtQtQtQtQtQtQtQtQtQtQtQtQtQtQtQtQtQtQtQtQtQt",
"QtQtQtQtQtQtQtQtQtQtQtQtQtQtQtQtQtQtQtQtQtQtQtQtQtQtQtQtQtQtQtQtQtQtQtQtQtQtQtQtQtQtQtQtQtQtQtQtQtQtQtQtQtQtQtQtQtQtQtQtQtQtQtQt",
"QtQtQtQtQtQtQtQtQtQtQtQtQtQtQtQtQtQtQtQtQtQtQtQtQtQtQtQtQtQtQtQtQtQtQtQtQtQtQtQtQtQtQtQtQtQtQtQtQtQtQtQtQtQtQtQtQtQtQtQtQtQtQtQt",
"QtQtQtQtQtQtQtQtQtQtQtQtQtQtQtQtQtQtQtQtQtQtQtQtQtQtQtQtQtQtQtQtQtQtQtQtQtQtQtQtQtQtQtQtQtQtQtQtQtQtQtQtQtQtQtQtQtQtQtQtQtQtQtQt",
"QtQtQtQtQtQtQtQtQtQtQtQtQtQtQtQtQtQtQtQtQtQtQtQtQtQtQtQtQtQtQt.#.a.b.cQtQtQtQtQtQtQtQtQtQtQtQtQtQtQtQtQtQtQtQtQtQtQtQtQtQtQtQtQt",
"QtQtQtQtQtQtQtQtQtQtQtQtQtQtQtQtQtQtQtQtQtQtQtQtQtQtQtQtQt.c.d.e.f.g.h.iQtQtQtQtQtQtQtQtQtQtQtQtQtQtQtQtQtQtQtQtQtQtQtQtQtQtQtQt",
"QtQtQtQtQtQtQtQtQtQtQtQtQtQtQtQtQtQtQtQtQtQtQtQtQtQtQtQt.j.k.l.m.n.o.p.q.rQtQtQtQtQtQtQtQtQtQtQtQtQtQtQtQtQtQtQtQtQtQtQtQtQtQtQt",
"QtQtQtQtQtQtQtQtQtQtQtQtQtQtQtQtQtQtQtQtQtQtQtQtQtQtQtQt.s.t.u.v.w.x.y.z.A.BQtQtQtQtQtQtQtQtQtQtQtQtQtQtQtQtQtQtQtQtQtQtQtQtQtQt",
"QtQtQtQtQtQtQtQtQtQtQtQtQtQtQtQtQtQtQtQtQtQtQtQtQtQtQtQt.C.D.E.F.G.a.H.I.J.BQtQtQtQtQtQtQtQtQtQtQtQtQtQtQtQtQtQtQtQtQtQtQtQtQtQt",
"QtQtQtQtQtQtQtQtQtQtQtQtQtQtQtQtQtQtQtQtQtQtQtQtQtQtQtQt.K.L.C.M.N.N.M.O.P.QQtQtQtQtQtQtQtQtQtQtQtQtQtQtQtQtQtQtQtQtQtQtQtQtQtQt",
"QtQtQtQtQtQtQtQtQtQtQtQtQtQtQtQtQtQtQtQtQtQtQtQtQtQtQtQt.R.S.T.U.V.V.V.U.T.SQtQtQtQtQtQtQtQtQtQtQtQtQtQtQtQtQtQtQtQtQtQtQtQtQtQt",
"QtQtQtQtQtQtQtQtQtQtQtQtQtQtQtQtQtQtQtQtQtQtQtQtQtQtQtQt.W.X.W.W.W.W.Y.Y.Z.RQtQtQtQtQtQtQtQtQtQtQtQtQtQtQtQtQtQtQtQtQtQtQtQtQtQt",
"QtQtQtQtQtQtQtQtQtQtQtQtQtQtQtQtQtQtQtQtQtQtQtQtQt.0.0.0.0.1.1.1.1.1.1.2.W.0.0QtQtQtQtQtQtQtQtQtQtQtQtQtQtQtQtQtQtQtQtQtQtQtQtQt",
"QtQtQtQtQtQtQtQtQtQtQtQtQtQtQtQtQtQtQtQtQtQtQt.0.0.0.0.0.0.0.3.3.3.3.3.2.0.0.0.0.0QtQtQtQtQtQtQtQtQtQtQtQtQtQtQtQtQtQtQtQtQtQtQt",
"QtQtQtQtQtQtQtQtQtQtQtQtQtQtQtQtQtQtQtQtQtQt.0.0.0.0.0.0.0.0.0.4.5.2.0.0.0.0.0.0.0.0QtQtQtQtQtQtQtQtQtQtQtQtQtQtQtQtQtQtQtQtQtQt",
"QtQtQtQtQtQtQtQtQtQtQtQtQtQtQtQtQtQtQtQt.0.0.0.0.0.0.0.0.0.0.6.7.8.0.0.0.0.0.0.0.0.0.0.0QtQtQtQtQtQtQtQtQtQtQtQtQtQtQtQtQtQtQtQt",
"QtQtQtQtQtQtQtQtQtQtQtQtQtQtQtQtQtQtQt.0.0.0.0.0.0.0.0.0.0.9#..8.0.0.0.0.0.0.0.0.0.0.0.0.0QtQtQtQtQtQtQtQtQtQtQtQtQtQtQtQtQtQtQt",
"QtQtQtQtQtQtQtQtQtQtQtQtQtQtQtQtQtQtQt.0.0.0.0.0.0.0.0###a#b#c.0.0.0.0.0.0.0.0.0.0.0.0.0.0QtQtQtQtQtQtQtQtQtQtQtQtQtQtQtQtQtQtQt",
"QtQtQtQtQtQtQtQtQtQtQtQtQtQtQtQtQtQt.0.0.0.0.0.0.0#d#e#f#g#h.0.0.0.0.0.0.0.0.0.0.0.0.0.0.0.0QtQtQtQtQtQtQtQtQtQtQtQtQtQtQtQtQtQt",
"QtQtQtQtQtQtQtQtQtQtQtQtQtQtQtQtQt.0.0.0.0.0#i#j#k#l#m#h#n#o.0.0.0.0.0.0.0.0.0.0.0.0.0.0.0.0.0QtQtQtQtQtQtQtQtQtQtQtQtQtQtQtQtQt",
"QtQtQtQtQtQtQtQtQtQtQtQtQtQtQtQtQt.0.0.0.0#p#q#r#s#n#n#m#t#u#v#w#x.0.0.0.0.0.0.0.0.0.0.0.0.0.0QtQtQtQtQtQtQtQtQtQtQtQtQtQtQtQtQt",
"QtQtQtQtQtQtQtQtQtQtQtQtQtQtQtQt.0.0.0.0.0.0#y#h#n#m#r#q#z#A#B#C#D#E#F.0.0.0.0.0.0.0.0.0.0.0.0.0QtQtQtQtQtQtQtQtQtQtQtQtQtQtQtQt",
"QtQtQtQtQtQtQtQtQtQtQtQtQtQtQtQt.0.0.0.0.0.0.0#r#s#h#h#h#y#r#G#j#H#I#J#K#L.0.0.0.0.0.0.0.0.0.0.0QtQtQtQtQtQtQtQtQtQtQtQtQtQtQtQt",
"QtQtQtQtQtQtQtQtQtQtQtQtQtQtQtQt.0.0.0.0.0.0.0.0.0.0.0#n#n#n#y#M#b#N#O#P#Q#R.0.0.0.0.0.0.0.0.0.0QtQtQtQtQtQtQtQtQtQtQtQtQtQtQtQt",
"QtQtQtQtQtQtQtQtQtQtQtQtQtQtQt.0.0.0.0.0.0.0.0.0.0.0.0.0.0#h#n#h#r#S#T#E#U#V#N.0.0.0.0.0.0.0.0.0.0QtQtQtQtQtQtQtQtQtQtQtQtQtQtQt",
"QtQtQtQtQtQtQtQtQtQtQtQtQtQtQt.0.0.0.0.0.0.0.0.0.0.0.0.0.0.0.0#h#h#r#W#X#Y#Z#0#1.0.0.0.0.0.0.0.0.0QtQtQtQtQtQtQtQtQtQtQtQtQtQtQt",
"QtQtQtQtQtQtQtQtQtQtQtQtQtQtQt.0.0.0.0.0.0.0.0.0.0.0.0.0.0.0.0.0.0#y#q#k#2#3#4#5.5.0.0.0.0.0.0.0.0QtQtQtQtQtQtQtQtQtQtQtQtQtQtQt",
"QtQtQtQtQtQtQtQtQtQtQtQtQtQtQt.0.0.0.0.0.0.0.0.0.0.0.0.0.0.0.0.0.0.0#c#z#6#7#8#9#X#q.0.0.0.0.0.0.0QtQtQtQtQtQtQtQtQtQtQtQtQtQtQt",
"QtQtQtQtQtQtQtQtQtQtQtQtQtQtQt.0.0.0.0.0.0.0.0.0.0.0.0.0.0.0.0.0.0.0.0a.a#aaabacadae.0.0.0.0.0.0.0QtQtQtQtQtQtQtQtQtQtQtQtQtQtQt",
"QtQtQtQtQtQtQtQtQtQtQtQtQtQtQt.0.0.0.0.0.0.0.0.0.0.0.0.0.0.0.0.0.0.0.0#m.5afagah#Kai.0.0.0.0.0.0.0QtQtQtQtQtQtQtQtQtQtQtQtQtQtQt",
"QtQtQtQtQtQtQtQtQtQtQtQtQtQtQt.0.0.0.0.0.0.0.0.0.0#gaj.0.0.0.0.0.0.0.0.0akalamanaoapaj.0.0.0.0.0.0QtQtQtQtQtQtQtQtQtQtQtQtQtQtQt",
"QtQtQtQtQtQtQtQtQtQtQtQtQtQtQt.0.0a.aqa#aparasatauavadawaxayazaAaBaCa#aDaEaFaGanaHaIaJ.0.0.0.0.0.0QtQtQtQtQtQtQtQtQtQtQtQtQtQtQt",
"QtQtQtQtQtQtQtQtQtQtQtQtQtQtaKaL#xaM#uaNaOaPaQaRaSaT#0aUaVaWaXaXaYaZ#Y#E#.aSa0a1a2a3a4.0.0.0.0.0QtQtQtQtQtQtQtQtQtQtQtQtQtQtQtQt",
"QtQtQtQtQtQtQtQtQtQtQtQt###fa5#Ta6a7a8afaOa9b.b#babbbcbdbeaTbfbgbhbiaGbjbk#3#Z#IblaLajbm.0.0.0.0QtQtQtQtQtQtQtQtQtQtQtQtQtQtQtQt",
"QtQtQtQtQtQtQtQtQtQtQtaDbnbobpbqarbrbsbtbuaBbvbw#e#ebx#ubybzaladaaao#7bAbB#8bCbDapbEa.aObqbF.0.0QtQtQtQtQtQtQtQtQtQtQtQtQtQtQtQt",
"QtQtQtQtQtQtQtQtQtQtbGbH#dbobI#x.7a5a5#xaibJbK#jbLbMbNbNbObnbP#dbQbRbSaZ#4bTbbarbUa4#ZbVbWbXbr#LQtQtQtQtQtQtQtQtQtQtQtQtQtQtQtQt",
"QtQtQtQtQtQtQtQtQt#SbYapbZb0b1b2b2aLbUaEb3b4b5b6b7#G#####Gb7b8#Sb9c.bT#4c#bbbrbL#z#q#Pca#8cbcccdcebFQtQtQtQtQtQtQtQtQtQtQtQtQtQt",
"QtQtQtQtQtQtQtQtQt#icf#taMcgchcicj#Scjb7a4ck#q#g#m#r.8.8.8.8#rblclca#ZaUaF#NbMb8a.#MaQ#0amcmah#Pcncocpa4QtQtQtQtQtQtQtQtQtQtQtQt",
"QtQtQtQtQtQtQtQt#Gcq.7crcsctcra3b6aJbma.#m.8#c#s#y#y#y#hbJcu#Vcvcvcaaocw#1.5cx#q#rcybSalczcA#PcacBaYaQa6aEQtQtQtQtQtQtQtQtQtQtQt",
"QtQtQtQtQtQtQtQt###ka#cCctaNcDazcEbt#tcFch.5cGb0bRazcHbBcIbjbVcJcKcLaCbLbEbm#m.8##bE#AaIcMcNcOcPcbcQcR#EatcSQtQtQtQtQtQtQtQtQtQt",
"QtQtQtQtQtQtQtQtajcj#L#dcCcscTcu#5cUcVbe#IcWcXcYbhcZc0c1cRcUaycsbZbNc2aJ#M.8#ca..8#q##b9bLc3aAbXc4biab#3#7c5#o#pQtQtQtQtQtQtQtQt",
"QtQtQtQtQtQtQtQt#qaKb8bGchbSaBc6cE#2c7bX#KbccVc8c9#Qd.d#da#1db#i#laK#M.8#s#sa.#h#y#c#r#pb8cqb0btaF#7a1dccZdda8#o#MQtQtQtQtQtQtQt",
"QtQtQtQtQtQtQtQt#g#g#paJb8b9.5chbJbI#1c3cC#t#Rde#ddf#jcqb9b6aK#q#r#c#s#y#y.0#h#n#n#h#ydg#M##ak#odhc.dddi#PdjcVd#dbQtQtQtQtQtQtQt",
"QtQtQtQtQtQtQtQtQt.8.8#m#M#paK###zcj#SbEbEbE#S#lb7aJaj#q#m.8#c#s#y#h#h#s.0.0.0Qt#m#h#h#y#c#maKb9bndhdkbeaXdldm#vbw#LQtQtQtQtQtQt",
"QtQtQtQtQtQtQtQtQtQt#c#c#cdgdg.8#r#m#m#m#m#m#r.8dg#c#s#y#h#h#h#n#h#y.0.0QtQtQtQtQtQtQt#y#y#s#maK#ba3brdndodia1aU#Obyb4QtQtQtQtQt",
"QtQtQtQtQtQtQtQtQtQtQt#s#y#y#y#y#y#y#y#y#y#h#h#h#h#n#n#n#n#n#n#yQtQtQtQtQtQtQtQtQtQtQtQtQt#y#c#maJaDbIa7dpaZdqaha1drbAb3QtQtQtQt",
"QtQtQtQtQtQtQtQtQtQtQtQtdg#y#h#h#n#n#n#n#n#n#n#n#n#n#n#n#hdgQtQtQtQtQtQtQtQtQtQtQtQtQtQtQtQt#s#c#Mcxdsc3dtaodudvaScudhdsQtQtQtQt",
"QtQtQtQtQtQtQtQtQtQtQtQtQtQtQtdg#y#h#h#h#n#n#n#h#y#cQtQtQtQtQtQtQtQtQtQtQtQtQtQtQtQtQtQtQtQtQtQtdg#pbEb1dwbwdxdydzdA#xaEQtQtQtQt",
"QtQtQtQtQtQtQtQtQtQtQtQtQtQtQtQtQtQtQtQtQtQtQtQtQtQtQtQtQtQtQtQtQtQtQtQtQtQtQtQtQtQtQtQtQtQtQtQtQt#maJb5bGdsbLbOchaLakb8ckQtQtQt",
"QtQtQtQtQtQtQtQtQtQtQtQtQtQtQtQtQtQtQtQtQtQtQtQtQtQtQtQtQtQtQtQtQtQtQtQtQtQtQtQtQtQtQtQtQtQtQtQtQtQt#q#qckaKaJ####a4bm#p#pQtQtQt",
"QtQtQtQtQtQtQtQtQtQtQtQtQtQtQtQtQtQtQtQtQtQtQtQtQtQtQtQtQtQtQtQtQtQtQtQtQtQtQtQtQtQtQtQtQtQtQtQtQtQt#m#c#cdgdgdg.8.8.8#rQtQtQtQt",
"QtQtQtQtQtQtQtQtQtQtQtQtQtQtQtQtQtQtQtQtQtQtQtQtQtQtQtQtQtQtQtQtQtQtQtQtQtQtQtQtQtQtQtQtQtQtQtQtQtQtQt#y#h#h#h#h#h#y#s#rQtQtQtQt",
"QtQtQtQtQtQtQtQtQtQtQtQtQtQtQtQtQtQtQtQtQtQtQtQtQtQtQtQtQtQtQtQtQtQtQtQtQtQtQtQtQtQtQtQtQtQtQtQtQtQtQtQt#h#n#n#n#n#h#cQtQtQtQtQt",
"QtQtQtQtQtQtQtQtQtQtQtQtQtQtQtQtQtQtQtQtQtQtQtQtQtQtQtQtQtQtQtQtQtQtQtQtQtQtQtQtQtQtQtQtQtQtQtQtQtQtQtQtQtQt#h#h#yQtQtQtQtQtQtQt",
"QtQtQtQtQtQtQtQtQtQtQtQtQtQtQtQtQtQtQtQtQtQtQtQtQtQtQtQtQtQtQtQtQtQtQtQtQtQtQtQtQtQtQtQtQtQtQtQtQtQtQtQtQtQtQtQtQtQtQtQtQtQtQtQt",
"QtQtQtQtQtQtQtQtQtQtQtQtQtQtQtQtQtQtQtQtQtQtQtQtQtQtQtQtQtQtQtQtQtQtQtQtQtQtQtQtQtQtQtQtQtQtQtQtQtQtQtQtQtQtQtQtQtQtQtQtQtQtQtQt",
"QtQtQtQtQtQtQtQtQtQtQtQtQtQtQtQtQtQtQtQtQtQtQtQtQtQtQtQtQtQtQtQtQtQtQtQtQtQtQtQtQtQtQtQtQtQtQtQtQtQtQtQtQtQtQtQtQtQtQtQtQtQtQtQt",
"QtQtQtQtQtQtQtQtQtQtQtQtQtQtQtQtQtQtQtQtQtQtQtQtQtQtQtQtQtQtQtQtQtQtQtQtQtQtQtQtQtQtQtQtQtQtQtQtQtQtQtQtQtQtQtQtQtQtQtQtQtQtQtQt",
"QtQtQtQtQtQtQtQtQtQtQtQtQtQtQtQtQtQtQtQtQtQtQtQtQtQtQtQtQtQtQtQtQtQtQtQtQtQtQtQtQtQtQtQtQtQtQtQtQtQtQtQtQtQtQtQtQtQtQtQtQtQtQtQt",
"QtQtQtQtQtQtQtQtQtQtQtQtQtQtQtQtQtQtQtQtQtQtQtQtQtQtQtQtQtQtQtQtQtQtQtQtQtQtQtQtQtQtQtQtQtQtQtQtQtQtQtQtQtQtQtQtQtQtQtQtQtQtQtQt",
"QtQtQtQtQtQtQtQtQtQtQtQtQtQtQtQtQtQtQtQtQtQtQtQtQtQtQtQtQtQtQtQtQtQtQtQtQtQtQtQtQtQtQtQtQtQtQtQtQtQtQtQtQtQtQtQtQtQtQtQtQtQtQtQt"};
