/* XPM */
static const char * vect_xpm[] = {
"16 16 41 1",
" 	c None",
".	c #B3FF00",
"+	c #AEF900",
"@	c #FBF400",
"#	c #FEF700",
"$	c #FFDA00",
"%	c #AFFB00",
"&	c #FDF600",
"*	c #FDF500",
"=	c #FD9600",
"-	c #FD9000",
";	c #FA8F00",
">	c #FEAB00",
",	c #FD9500",
"'	c #FB9400",
")	c #FE9100",
"!	c #FBAA00",
"~	c #FCA900",
"{	c #FF9700",
"]	c #FF9200",
"^	c #FDA900",
"/	c #FDAB00",
"(	c #FB9D00",
"_	c #FC0B00",
":	c #FF0A00",
"<	c #FF4400",
"[	c #FB4200",
"}	c #FC9E00",
"|	c #FE9F00",
"1	c #FD4400",
"2	c #FC4400",
"3	c #FFA000",
"4	c #FB1600",
"5	c #FCAD00",
"6	c #D00000",
"7	c #D20000",
"8	c #FD1500",
"9	c #FA1500",
"0	c #FEAF00",
"a	c #D10000",
"b	c #FDAE00",
" .+    @#     $ ",
" %     &@     $ ",
".      &        ",
"      *         ",
"  =     -;     >",
" ,'     )     !~",
"{      ]      ^ ",
"      ]      /  ",
"               (",
" _:     <[    }|",
" _     12     3 ",
"      <      |  ",
"                ",
"         4     5",
" 67     89    50",
"a     8      b  "};
