/* XPM */
static const char * window_xpm[] = {
"16 16 10 1",
" 	c None",
".	c #000000",
"+	c #333377",
"@	c #FFFFFF",
"#	c #777777",
"$	c #00007F",
"%	c #4444FF",
"&	c #FF0000",
"*	c #007F00",
"=	c #7F0000",
"                ",
"                ",
"..............  ",
".++++++++++++.  ",
".@@@@@#@@@@@@.  ",
".@$.............",
".@@.%%%%%%%%%%%.",
".@$.@@@@@#@@@@@.",
".@@.@$$@@#@@@@@.",
".@$.@@@@@#@@@@@.",
".@@.@$&*@#@@@@@.",
"....@@@@@#@@@@@.",
"   .@$&=@#@@@@@.",
"   .@@@@@#@@@@@.",
"   .............",
"                "};
