/* XPM */
static const char * zoom_out_xpm[] = {
"16 16 111 2",
"  	c None",
". 	c #878B87",
"+ 	c #868C8A",
"@ 	c #888B89",
"# 	c #ACB6BF",
"$ 	c #CDD6DD",
"% 	c #E4E7E9",
"& 	c #929594",
"* 	c #CFD8E0",
"= 	c #D3DDE5",
"- 	c #A4BFDC",
"; 	c #99B9DA",
"> 	c #9AB9DA",
", 	c #A4BFDD",
"' 	c #CFDAE5",
") 	c #B4C9DF",
"! 	c #9DBDDD",
"~ 	c #B5CDE6",
"{ 	c #5C84B8",
"] 	c #5B84B8",
"^ 	c #B0CAE4",
"/ 	c #9ABADD",
"( 	c #98B9DC",
"_ 	c #BCD1E8",
": 	c #5F87B9",
"< 	c #FFFFFF",
"[ 	c #5A84B7",
"} 	c #ABC6E2",
"| 	c #91B4DA",
"1 	c #868C8B",
"2 	c #9DBBDA",
"3 	c #B6CDE6",
"4 	c #5D85B8",
"5 	c #5982B7",
"6 	c #A7C3E1",
"7 	c #9FBDDE",
"8 	c #9EBBDA",
"9 	c #878B88",
"0 	c #8EB2D6",
"a 	c #5A83B7",
"b 	c #5681B6",
"c 	c #9EBDDE",
"d 	c #86ACD4",
"e 	c #89AED4",
"f 	c #8AAFD7",
"g 	c #94B6DB",
"h 	c #547FB5",
"i 	c #507DB4",
"j 	c #85ACD5",
"k 	c #7BA5D2",
"l 	c #878C8B",
"m 	c #CFD8DE",
"n 	c #A7C1DD",
"o 	c #86ADD6",
"p 	c #89AED6",
"q 	c #4E7BB3",
"r 	c #4F7CB3",
"s 	c #8BB0D7",
"t 	c #A9C3DE",
"u 	c #D0D8DE",
"v 	c #888B87",
"w 	c #B1BAC1",
"x 	c #D9E1E8",
"y 	c #94B6DA",
"z 	c #96B7DB",
"A 	c #527EB5",
"B 	c #537EB5",
"C 	c #97B8DB",
"D 	c #DAE2E8",
"E 	c #B2BBC1",
"F 	c #8A8C8A",
"G 	c #D7DDE2",
"H 	c #CAD8E6",
"I 	c #A4C0DF",
"J 	c #A6C2E0",
"K 	c #5781B6",
"L 	c #D8DEE3",
"M 	c #949895",
"N 	c #DADFE3",
"O 	c #E1E6EA",
"P 	c #C7D7E8",
"Q 	c #BDD2E6",
"R 	c #BED2E6",
"S 	c #C8D8E8",
"T 	c #DFE5EA",
"U 	c #DBE0E4",
"V 	c #959896",
"W 	c #9DA09B",
"X 	c #60625F",
"Y 	c #8A8D8A",
"Z 	c #BCC1C4",
"` 	c #DCE0E2",
" .	c #E9EBEB",
"..	c #BDC2C5",
"+.	c #898C88",
"@.	c #878A84",
"#.	c #B9BCB6",
"$.	c #BDBFBC",
"%.	c #61635F",
"&.	c #8A8C88",
"*.	c #8D918D",
"=.	c #8B8D89",
"-.	c #8E918D",
";.	c #575955",
">.	c #7A7B78",
",.	c #B7B8B6",
"'.	c #595B57",
").	c #555753",
"!.	c #767873",
"~.	c #A0A29F",
"{.	c #565854",
"        . + . . + .             ",
"      @ # $ % % $ # @           ",
"    & * = - ; > , ' * &         ",
"  @ * ) ! ~ { ] ^ / ) * @       ",
". # ' ( _ : < < [ } | ' # .     ",
"1 $ 2 3 4 < < < 5 6 7 8 $ +     ",
"9 % 0 ^ [ a < < b c | d % .     ",
"9 % e f g h < < i j k e % .     ",
"l m n o p q < < r s p t u l     ",
"v w x y z A < < B ( C D E v     ",
"  F G H I J K K 6 J H L .       ",
"    M N O P Q R S T U V W X     ",
"      Y Z `  . .` ..+.@.#.$.%.  ",
"        &.*.=.=.-.&.  ;.>.@.,.'.",
"                        ).!.~.'.",
"                          ).{.  "};
