/* XPM */
static const char *accessories_calculator_xpm[] = {
/* columns rows colors chars-per-pixel */
"16 16 81 1 ",
"  c #313131",
". c #313231",
"X c gray21",
"o c #363736",
"O c gray22",
"+ c gray23",
"@ c #3C3C3C",
"# c gray24",
"$ c #3E3E3E",
"% c #414141",
"& c #424342",
"* c gray27",
"= c gray28",
"- c #494B48",
"; c #4B4B4B",
": c #4D4D4C",
"> c gray30",
", c #656565",
"< c gray40",
"1 c #676965",
"2 c #686A67",
"3 c DimGray",
"4 c #6C6C6C",
"5 c #6D6D6D",
"6 c #727371",
"7 c #747674",
"8 c #757774",
"9 c #767676",
"0 c #777777",
"q c #797979",
"w c gray48",
"e c #7C7C7C",
"r c #9BAB90",
"t c #9DAD92",
"y c gray72",
"u c gray",
"i c #B3C2A9",
"p c #BDCAB5",
"a c #BFCBB7",
"s c #C0CCB7",
"d c #C1C1C1",
"f c gray76",
"g c #C3C3C3",
"h c gray77",
"j c #C6C6C6",
"k c gray78",
"l c #C8C8C8",
"z c #CACACA",
"x c gray80",
"c c #CECECE",
"v c gray81",
"b c gray82",
"n c LightGray",
"m c gray83",
"M c #D5D5D5",
"N c gray84",
"B c #D7D7D7",
"V c #D8D8D8",
"C c gray85",
"Z c #DADADA",
"A c gray86",
"S c gainsboro",
"D c gray87",
"F c #DFDFDF",
"G c gray88",
"H c #E1E1E1",
"J c #E2E2E2",
"K c gray89",
"L c #E4E4E4",
"P c gray90",
"I c #E6E6E6",
"U c #E7E7E7",
"Y c gray91",
"T c #EAEAEA",
"R c gray92",
"E c #ECECEC",
"W c gray93",
"Q c #EEEEEE",
"! c gray94",
"~ c gray95",
"^ c None",
/* pixels */
"^^^*qeqq8080>^^^",
"^^^c068873->g^^^",
"^^^n3spsitr1g^^^",
"^^^c;>&o  @$u^^^",
"^^^GhlhgggghI^^^",
"^^^F$$W$OG$$R^^^",
"^^^AW~RIIRR~R^^^",
"^^^B$$I$OA$$G^^^",
"^^^nWWGGGGYEG^^^",
"^^^n$$G$$A$$G^^^",
"^^^cIGFAFFIYG^^^",
"^^^c$$A$OB&$F^^^",
"^^^lABBBnAXOA^^^",
"^^^l$OB$OB  B^^^",
"^^^ynBBBBAGFc^^^",
"^^^-,,,,,344*^^^"
};
