/* XPM */
static const char * alpha_xpm[] = {
"16 16 107 2",
"  	c None",
". 	c #395155",
"+ 	c #3A5155",
"@ 	c #384F54",
"# 	c #4C6A71",
"$ 	c #68929C",
"% 	c #B8FFFF",
"& 	c #B1F9FF",
"* 	c #B7FFFF",
"= 	c #6B939C",
"- 	c #113F4A",
"; 	c #7CADB9",
"> 	c #B4FCFF",
", 	c #84BAC8",
"' 	c #51585B",
") 	c #78888C",
"! 	c #79898D",
"~ 	c #4D4D4D",
"{ 	c #17B0D6",
"] 	c #2CE0FF",
"^ 	c #1D99B8",
"/ 	c #1F282B",
"( 	c #A1E2F3",
"_ 	c #ABF0FF",
": 	c #ACF2FF",
"< 	c #658187",
"[ 	c #E1FFFF",
"} 	c #D7F8FF",
"| 	c #D7F9FF",
"1 	c #D7F7FF",
"2 	c #428494",
"3 	c #28D6FF",
"4 	c #2AD6FF",
"5 	c #26C3EA",
"6 	c #1A88A2",
"7 	c #346974",
"8 	c #7BB8C6",
"9 	c #9FDEEE",
"0 	c #97D4E3",
"a 	c #C2E2E9",
"b 	c #D6F8FF",
"c 	c #C5E6ED",
"d 	c #2DB7DA",
"e 	c #2AD1FB",
"f 	c #23BFE6",
"g 	c #0B6A81",
"h 	c #42B0CC",
"i 	c #4DB0C8",
"j 	c #3A575C",
"k 	c #7B878A",
"l 	c #7D8A8E",
"m 	c #7D8A8D",
"n 	c #3B4A4E",
"o 	c #0586A5",
"p 	c #00BEED",
"q 	c #005A70",
"r 	c #317F93",
"s 	c #56DFFF",
"t 	c #47AEC7",
"u 	c #7ADDF6",
"v 	c #81ECFF",
"w 	c #84F0FF",
"x 	c #2F7E90",
"y 	c #00DBFF",
"z 	c #0094B9",
"A 	c #3FA4BC",
"B 	c #4CC5E4",
"C 	c #72D1E7",
"D 	c #7FE4FE",
"E 	c #80E5FF",
"F 	c #78D1E8",
"G 	c #0EABD1",
"H 	c #00BBEA",
"I 	c #51D4F4",
"J 	c #3A7888",
"K 	c #85EEFF",
"L 	c #60C0D8",
"M 	c #00B7E6",
"N 	c #0096BB",
"O 	c #215764",
"P 	c #3FA7C0",
"Q 	c #70C6DC",
"R 	c #83ECFF",
"S 	c #378599",
"T 	c #00B1DE",
"U 	c #4AC5E4",
"V 	c #447B89",
"W 	c #82E8FF",
"X 	c #84E4FD",
"Y 	c #007696",
"Z 	c #00556A",
"` 	c #0A1A1E",
" .	c #4FC5E2",
"..	c #75D1E8",
"+.	c #81E7FF",
"@.	c #598B98",
"#.	c #00B1DF",
"$.	c #235C69",
"%.	c #6BC4DA",
"&.	c #82E6FF",
"*.	c #148099",
"=.	c #2C5B65",
"-.	c #74D6F0",
";.	c #074F61",
">.	c #13353F",
",.	c #67B8C9",
"'.	c #0E191C",
"            . + + @             ",
"        # $ % & & * = -         ",
"      ; > , ' ) ! ~ { ] ^       ",
"  / ( _ : < [ } | 1 2 3 4 5 6   ",
"  7 8 9 0 a b } } b c d e f g   ",
"    h i j k l l l l m n o p q   ",
"    r s t u v v v v w x y z     ",
"      A B C D E E E F G H       ",
"        I J K D E E L M N       ",
"        O P Q E E R S T         ",
"          U V W E X Y Z         ",
"          `  ...+.@.#.          ",
"            $.%.&.*.            ",
"              =.-.;.            ",
"              >.,.              ",
"                '.              "};
