/* XPM */
static const char *arrow_right_double_xpm[] = {
/* columns rows colors chars-per-pixel */
"16 16 106 2 ",
"   c #004E00",
".  c #035C03",
"X  c #085408",
"o  c #0F5F0F",
"O  c #016F01",
"+  c #0D650E",
"@  c #007B00",
"#  c #097B09",
"$  c #0D7F0F",
"%  c #166917",
"&  c #1F6E1F",
"*  c #0E7610",
"=  c #117911",
"-  c #137D13",
";  c #1B7B1B",
":  c #2C682C",
">  c #237723",
",  c #277F27",
"<  c #2D752D",
"1  c #337133",
"2  c #397539",
"3  c #3C733C",
"4  c #3D7C3D",
"5  c #018001",
"6  c #008500",
"7  c #008700",
"8  c #068206",
"9  c #008900",
"0  c #008A00",
"q  c #008C00",
"w  c #038E06",
"e  c #09800A",
"r  c #09820C",
"t  c #0C870D",
"y  c #009000",
"u  c #009202",
"i  c #039406",
"p  c #009900",
"a  c #009A00",
"s  c #009D00",
"d  c #009E00",
"f  c #0F8B11",
"g  c #158915",
"h  c #138D15",
"j  c #168B18",
"k  c #109411",
"l  c #189618",
"z  c #18961C",
"x  c #1B9D1B",
"c  c #1A9C1E",
"v  c #00A000",
"b  c #00A300",
"n  c #00A500",
"m  c #00A502",
"M  c #00AB00",
"N  c #00AE00",
"B  c #00B600",
"V  c #00B700",
"C  c #00B800",
"Z  c #00BB00",
"A  c #01BA01",
"S  c #07B807",
"D  c #19A21B",
"F  c #1FA11F",
"G  c #1EA31F",
"H  c #16AA18",
"J  c #17B619",
"K  c #2B8D2B",
"L  c #28942B",
"P  c #2B9C2B",
"I  c #348B34",
"U  c #3A833A",
"Y  c #398539",
"T  c #309530",
"R  c #309730",
"E  c #349E34",
"W  c #25A125",
"Q  c #28A42B",
"!  c #3AA23A",
"~  c #3EA33E",
"^  c #00CC00",
"/  c #07CA07",
"(  c #00D000",
")  c #408240",
"_  c #458145",
"`  c #458345",
"'  c #408840",
"]  c #469246",
"[  c #449444",
"{  c #479C47",
"}  c #499049",
"|  c #499C49",
" . c #529452",
".. c #509950",
"X. c #589658",
"o. c #5D9F5D",
"O. c #43A043",
"+. c #4EA34E",
"@. c #52A752",
"#. c #57A957",
"$. c #5BA95B",
"%. c #6BB26B",
"&. c #70A670",
"*. c #70B570",
"=. c #83C183",
"-. c None",
/* pixels */
"-.-.-.-.-.-.-.-.-.-.-.-.-.-.-.-.",
"-.-.  -.-.-.  -.-.-.-.-.-.-.-.-.",
"-.-.3 : -.-._ 1 -.-.-.-.-.-.-.-.",
"-.-.2 &.4 -.) =._ -.-.-.-.-.-.-.",
"-.-.< X.o.} Y %.*. .X -.-.-.-.-.",
"-.-.> ' [ | +.@.$.$...o -.-.-.-.",
"-.-.; , K R E ! ~ O.{ ] % -.-.-.",
"-.-.- = g l x F W P R I Y & -.-.",
"-.-.# @ q a b n s y 5 O . + -.-.",
"-.-.t 6 a M B Z N s 0 # * -.-.-.",
"-.-.f 0 s B / ^ Z n k $ -.-.-.-.",
"-.-.h 0 s m J ( Z D r -.-.-.-.-.",
"-.-.j 8 y -.H S F -.-.-.-.-.-.-.",
"-.-.L z -.-.Q c -.-.-.-.-.-.-.-.",
"-.-.i -.-.-.w -.-.-.-.-.-.-.-.-.",
"-.-.-.-.-.-.-.-.-.-.-.-.-.-.-.-."
};
