/* XPM */
static const char *arrow_down_xpm[] = {
/* columns rows colors chars-per-pixel */
"16 16 63 1 ",
"  c #004D00",
". c #055205",
"X c #045D04",
"o c #0D5D0D",
"O c #0B620C",
"+ c #057005",
"@ c #077A07",
"# c #0C760E",
"$ c #0B7F0D",
"% c #156716",
"& c #1D6A1E",
"* c #327032",
"= c #068206",
"- c #008A00",
"; c #008D03",
": c #09810C",
"> c #009001",
", c #029102",
"< c #009D00",
"1 c #009E01",
"2 c #0D920E",
"3 c #178F17",
"4 c #16981A",
"5 c #00A300",
"6 c #00A500",
"7 c #00A902",
"8 c #00AB02",
"9 c #00AE00",
"0 c #00B800",
"q c #00BA00",
"w c #05B805",
"e c #15A017",
"r c #18A11B",
"t c #16AA18",
"y c ForestGreen",
"u c #2D882D",
"i c #2F942F",
"p c #2D9D2D",
"a c #348C34",
"s c #388238",
"d c #3A853A",
"f c #25A425",
"g c #25A328",
"h c #2AA22A",
"j c #3AA23A",
"k c #3EA33E",
"l c #00CC00",
"z c #00D000",
"x c #418141",
"c c #458545",
"v c #4A844A",
"b c #469246",
"n c #479C47",
"m c #4D904D",
"M c #4E974E",
"N c #43A043",
"B c #52A752",
"V c #57A957",
"C c #5BA95B",
"Z c #6BB26B",
"A c #70B670",
"S c #83C183",
"D c None",
/* pixels */
"DDDDDDDDDDDDDDDD",
"DDDDDDDDDDDDDDDD",
"DDDDDDDDDDDDDDDD",
"DDDDDDDDDDDDDDDD",
"D vcduy3;<88tg;D",
"DD*SZBjf60lzw4DD",
"DDDxAVkh<9qqrDDD",
"DDDDmCNp,<6eDDDD",
"DDDD.Mni=-2:DDDD",
"DDDDDoba+@$DDDDD",
"DDDDDD%sX#DDDDDD",
"DDDDDDD&ODDDDDDD",
"DDDDDDDDDDDDDDDD",
"DDDDDDDDDDDDDDDD",
"DDDDDDDDDDDDDDDD",
"DDDDDDDDDDDDDDDD"
};
