/* XPM */
static const char *arrow_up_double_xpm[] = {
/* columns rows colors chars-per-pixel */
"16 16 110 2 ",
"   c #0B4C0B",
".  c #045304",
"X  c #0A5D0A",
"o  c #185D18",
"O  c #1A5D1A",
"+  c #036103",
"@  c #0C600C",
"#  c #007300",
"$  c #0B720B",
"%  c #097E09",
"&  c #146315",
"*  c #106B11",
"=  c #127D14",
"-  c #256426",
";  c #276927",
":  c #296B29",
">  c #2F6B2F",
",  c #267C26",
"<  c #277829",
"1  c #357235",
"2  c #307930",
"3  c #367836",
"4  c #347D34",
"5  c #3A793A",
"6  c #3C783C",
"7  c #008800",
"8  c #008900",
"9  c #008E00",
"0  c #048608",
"q  c #0A820A",
"w  c #088609",
"e  c #048D08",
"r  c #009600",
"t  c #009700",
"y  c #009A00",
"u  c #009D00",
"i  c #009F00",
"p  c #099109",
"a  c #0B900C",
"s  c #0A910C",
"d  c #089C08",
"f  c #0C8A10",
"g  c #108613",
"h  c #168416",
"j  c #1C801C",
"k  c #198919",
"l  c #0F9610",
"z  c #119412",
"x  c #129714",
"c  c #159617",
"v  c #15971A",
"b  c #1D951D",
"n  c #159D1A",
"m  c #00A000",
"M  c #00A400",
"N  c #00A500",
"B  c #00A700",
"V  c #04A004",
"C  c #00AA00",
"Z  c #00B000",
"A  c #00B200",
"S  c #00B300",
"D  c #00B400",
"F  c #00B700",
"G  c #00B800",
"H  c #00BC00",
"J  c #15AD17",
"K  c #1BA21C",
"L  c #17AD18",
"P  c #1E9421",
"I  c #1E9D21",
"U  c #2D8A2D",
"Y  c #239E23",
"T  c #249F24",
"R  c #279D27",
"E  c #2B992B",
"W  c #358B35",
"Q  c #388138",
"!  c #3A833A",
"~  c #309230",
"^  c #319431",
"/  c #379C37",
"(  c #3B9F3B",
")  c #1EA421",
"_  c #21A124",
"`  c #00C500",
"'  c #00C700",
"]  c #0DC60E",
"[  c #1AC11B",
"{  c #408340",
"}  c #438343",
"|  c #418541",
" . c #469246",
".. c #449F44",
"X. c #4E974E",
"o. c #499B49",
"O. c #4A9B4A",
"+. c #5F9F5F",
"@. c #40A040",
"#. c #4FA04F",
"$. c #50A350",
"%. c #58A758",
"&. c #5DA85D",
"*. c #64A764",
"=. c #63A863",
"-. c #72A872",
";. c #72B572",
":. c #75B475",
">. c #80BA80",
",. c None",
/* pixels */
",.,.,.,.,.,.,.,.,.,.,.,.,.,.,.,.",
",.,.,.,.,.,.,.,.< ,.,.,.,.,.,.,.",
",.,.,.,.,.,.,.& - ,.,.,.,.,.,.,.",
",.,.,.,.,.,.X 5   * ,.,.,.,.,.,.",
",.,.,.,.,.. | ! @ + = ,.,.,.,.,.",
",.,.,.,.,.{ X.W $ # % g ,.,.,.,.",
",.,.,.,.3 =.o.~ q 7 9 z f ,.,.,.",
",.,.,.: :.&...E p y N N K 0 ,.,.",
",.,.O >.;.%.@.R d C G H S _ ,.,.",
",.,.1 | ! #.( T V S ' [ J ) v ,.",
",.,.,.,.4 #./ Y u S ` ] s ,.,.,.",
",.,.,.; *.O.^ b r N D D L e ,.,.",
",.,.O -.+. .U k 7 r m m r I ,.,.",
",.,.> 6 2 , j h w s l x c P n ,.",
",.,.,.,.,.,.,.,.,.,.,.,.,.,.,.,.",
",.,.,.,.,.,.,.,.,.,.,.,.,.,.,.,."
};
