/* XPM */
static const char *arrow_left_xpm[] = {
/* columns rows colors chars-per-pixel */
"16 16 64 1 ",
"  c #034703",
". c #004E00",
"X c #075307",
"o c #015B01",
"O c #0D5C0E",
"+ c #0F5C0F",
"@ c #026F02",
"# c #096809",
"$ c #007500",
"% c #007F00",
"& c #0D7D0F",
"* c #186619",
"= c #1F671F",
"- c #0E7010",
"; c #327032",
": c #337E33",
"> c #397639",
", c #008A00",
"< c #008F00",
"1 c #038E06",
"2 c #09820C",
"3 c #009000",
"4 c #009D00",
"5 c #09960A",
"6 c #108211",
"7 c #19971B",
"8 c #1C931C",
"9 c #1A9A1E",
"0 c #1E9D1F",
"q c #00A500",
"w c #01A401",
"e c #00AE00",
"r c #07AD07",
"t c #0CA40D",
"y c #00BA00",
"u c #00BB00",
"i c #16AB18",
"p c #0FB011",
"a c #13B415",
"s c #248D24",
"d c #2F872F",
"f c #2D892D",
"g c #239E23",
"h c #279927",
"j c #2D922D",
"k c #3A853A",
"l c #3A9F3A",
"z c #3E9D3E",
"x c #29A52C",
"c c #438143",
"v c #458545",
"b c #468746",
"n c #4A844A",
"m c #4F8E4F",
"M c #479447",
"N c #439943",
"B c #4F934F",
"V c #52A552",
"C c #57A557",
"Z c #5BA45B",
"A c #6BB16B",
"S c #70B370",
"D c #83C083",
"F c None",
/* pixels */
"FFFFFFFFFFFFFFFF",
"FFFFFFFFFFF.FFFF",
"FFFFFFFFFF;nFFFF",
"FFFFFFFFFcDbFFFF",
"FFFFFFFXmSAkFFFF",
"FFFFFF+BZCVfFFFF",
"FFFFF*bMNzlsFFFF",
"FFFF=>:djhg8FFFF",
"FFFF+ o@%345FFFF",
"FFFFF-#$,4etFFFF",
"FFFFFF&6<wupFFFF",
"FFFFFFF27wuaFFFF",
"FFFFFFFFF0riFFFF",
"FFFFFFFFFF9xFFFF",
"FFFFFFFFFFF1FFFF",
"FFFFFFFFFFFFFFFF"
};
