/* XPM */
static const char *arrow_left_double_xpm[] = {
/* columns rows colors chars-per-pixel */
"16 16 106 2 ",
"   c #034703",
".  c #004E00",
"X  c #015B01",
"o  c #085408",
"O  c #0D5C0E",
"+  c #0F5C0F",
"@  c #016E01",
"#  c #096809",
"$  c #007500",
"%  c #007F00",
"&  c #0D7D0F",
"*  c #166517",
"=  c #1F671F",
"-  c #0E7010",
";  c #2C6A2C",
":  c #237D23",
">  c #2D792D",
",  c #337133",
"<  c #347F34",
"1  c #3A773A",
"2  c #3C743C",
"3  c #397939",
"4  c #3D7E3D",
"5  c #008A00",
"6  c #008C00",
"7  c #008F00",
"8  c #038E06",
"9  c #09820C",
"0  c #09890A",
"q  c #009000",
"w  c #039406",
"e  c #069706",
"r  c #009900",
"t  c #009A00",
"y  c #009A02",
"u  c #009D00",
"i  c #009E00",
"p  c #0C920D",
"a  c #108211",
"s  c #118611",
"d  c #138513",
"f  c #1B811B",
"g  c #0F9611",
"h  c #159315",
"j  c #139815",
"k  c #169518",
"l  c #19971B",
"z  c #189B18",
"x  c #1B9E1B",
"c  c #189B1C",
"v  c #1A9A1E",
"b  c #1E9D1F",
"n  c #1F9D1F",
"m  c #00A000",
"M  c #00A300",
"N  c #00A500",
"B  c #01A401",
"V  c #00AB00",
"C  c #00AE00",
"Z  c #07AD07",
"A  c #00B302",
"S  c #00B500",
"D  c #00B600",
"F  c #00B700",
"G  c #00B800",
"H  c #00BA00",
"J  c #00BB00",
"K  c #16AB18",
"L  c #17B819",
"P  c #278927",
"I  c #259825",
"U  c #2B922B",
"Y  c #2B942B",
"T  c #299C2C",
"R  c #308830",
"E  c #398539",
"W  c #309B30",
"Q  c #349F34",
"!  c #3A9F3A",
"~  c #3E9D3E",
"^  c #29A52C",
"/  c #00C900",
"(  c #07CD07",
")  c #408240",
"_  c #458145",
"`  c #458245",
"'  c #468746",
"]  c #409040",
"[  c #479447",
"{  c #439943",
"}  c #449944",
"|  c #499149",
" . c #499F49",
".. c #509350",
"X. c #529052",
"o. c #589B58",
"O. c #4EA44E",
"+. c #52A552",
"@. c #57A557",
"#. c #5BA45B",
"$. c #5DA35D",
"%. c #6BB16B",
"&. c #70AA70",
"*. c #70B370",
"=. c #83C083",
"-. c None",
/* pixels */
"-.-.-.-.-.-.-.-.-.-.-.-.-.-.-.-.",
"-.-.-.-.-.-.-.-.-.. -.-.-.. -.-.",
"-.-.-.-.-.-.-.-., _ -.-.; 2 -.-.",
"-.-.-.-.-.-.-._ =.) -.4 &.3 -.-.",
"-.-.-.-.-.o ..*.%.E | $.o.> -.-.",
"-.-.-.-.+ ..#.@.+.O. .} ] : -.-.",
"-.-.-.* ' [ { ~ ! Q W Y P f -.-.",
"-.-.= 1 < R U I I x z h s d -.-.",
"-.-.+   X @ 5 q m N N t 6 0 -.-.",
"-.-.-.- # $ 5 i C G A C t p -.-.",
"-.-.-.-.& & 6 N G ( / G m g -.-.",
"-.-.-.-.-.& l N J L A A i j -.-.",
"-.-.-.-.-.-.-.n Z K -.t e k -.-.",
"-.-.-.-.-.-.-.-.c ^ -.-.c T -.-.",
"-.-.-.-.-.-.-.-.-.8 -.-.-.w -.-.",
"-.-.-.-.-.-.-.-.-.-.-.-.-.-.-.-."
};
