/* XPM */
static const char *arrow_down_double_xpm[] = {
/* columns rows colors chars-per-pixel */
"16 16 107 2 ",
"   c #045304",
".  c #0A5E0A",
"X  c #185C18",
"o  c #1A5D1A",
"O  c #0B600B",
"+  c #037503",
"@  c #007800",
"#  c #007801",
"$  c #007F01",
"%  c #0C720C",
"&  c #146715",
"*  c #166417",
"=  c #107411",
"-  c #117A11",
";  c #1A781A",
":  c #197C19",
">  c #276827",
",  c #296C29",
"<  c #2F6A2F",
"1  c #267626",
"2  c #307430",
"3  c #357235",
"4  c #347B34",
"5  c #367B36",
"6  c #3C743C",
"7  c #008100",
"8  c #008300",
"9  c #008201",
"0  c #008202",
"q  c #008800",
"w  c #008900",
"e  c #008C05",
"r  c #048608",
"t  c #0B830B",
"y  c #048D08",
"u  c #009600",
"i  c #009105",
"p  c #009A00",
"a  c #009F00",
"s  c #049F04",
"d  c #099109",
"f  c #0A910A",
"g  c #099C09",
"h  c #0A9B0C",
"j  c #0C8A10",
"k  c #128414",
"l  c #108A13",
"z  c #158C17",
"x  c #1D8B1D",
"c  c #00A000",
"v  c #00A400",
"b  c #00A700",
"n  c #00AA00",
"m  c #08A208",
"M  c #00B200",
"N  c #00B300",
"B  c #00B400",
"V  c #00B800",
"C  c #00BC00",
"Z  c #00BE00",
"A  c #0DB40E",
"S  c #11A612",
"D  c #15AC17",
"F  c #17A118",
"G  c #1BAE1C",
"H  c #1ABE1B",
"J  c #1E8B21",
"K  c #1E9521",
"L  c #2D812D",
"P  c #239823",
"I  c #249F24",
"U  c #318E31",
"Y  c #388138",
"T  c #3A853A",
"R  c #3A8F3A",
"E  c #359635",
"W  c #309C30",
"Q  c #379837",
"!  c #3B9F3B",
"~  c #1EA321",
"^  c #27A127",
"/  c #21A424",
"(  c #2BA02B",
")  c #00C500",
"_  c #00C700",
"`  c #00D300",
"'  c #438343",
"]  c #408840",
"[  c #418D41",
"{  c #468B46",
"}  c #4A964A",
"|  c #4E9F4E",
" . c #5F9B5F",
".. c #40A240",
"X. c #44A344",
"o. c #49A249",
"O. c #4FA04F",
"+. c #50A050",
"@. c #58A958",
"#. c #5DAB5D",
"$. c #64A464",
"%. c #63AD63",
"&. c #72A572",
"*. c #72B672",
"=. c #75B675",
"-. c #80BA80",
";. c None",
/* pixels */
";.;.;.;.;.;.;.;.;.;.;.;.;.;.;.;.",
";.;.;.;.;.;.;.;.;.;.;.;.;.;.;.;.",
";.;.< 6 2 1 ; - # 7 7 7 z J i ;.",
";.;.X &. .{ L : # 8 w w 7 K ;.;.",
";.;.;.> $.} U x w u c c F y ;.;.",
";.;.;.;.5 +.E P u b B A h ;.;.;.",
";.;.3 ' Y O.! ^ s M ) H D ~ e ;.",
";.;.X -.*.@...^ m M _ ` Z / ;.;.",
";.;.;., =.#.X.( g n B Z G r ;.;.",
";.;.;.;.5 %.o.W f p b S j ;.;.;.",
";.;.;.;.;.] | E t w f l ;.;.;.;.",
";.;.;.;.;.  [ R % + k ;.;.;.;.;.",
";.;.;.;.;.;.. T O = ;.;.;.;.;.;.",
";.;.;.;.;.;.;.& * ;.;.;.;.;.;.;.",
";.;.;.;.;.;.;.;.;.;.;.;.;.;.;.;.",
";.;.;.;.;.;.;.;.;.;.;.;.;.;.;.;."
};
