/* XPM */
static const char *arrow_up_xpm[] = {
/* columns rows colors chars-per-pixel */
"16 16 64 1 ",
"  c #004D00",
". c #044804",
"X c #055205",
"o c #055D05",
"O c #0D5A0D",
"+ c #076707",
"@ c #007500",
"# c #067106",
"$ c #0C710E",
"% c #0B7D0D",
"& c #156216",
"* c #1A661B",
"= c #1D631E",
"- c #327032",
"; c #347F34",
": c #387638",
"> c #028002",
", c #008A00",
"< c #008F00",
"1 c #008E03",
"2 c #038E06",
"3 c #09810C",
"4 c #0D810E",
"5 c #009000",
"6 c #009D00",
"7 c #09960A",
"8 c #159517",
"9 c #16961A",
"0 c #1C931C",
"q c #00A400",
"w c #00A500",
"e c #00AE00",
"r c #05AC05",
"t c #0CA40D",
"y c #00BA00",
"u c #00BB00",
"i c #16AB18",
"p c #0FB011",
"a c #13B415",
"s c #258D25",
"d c #2F872F",
"f c #2D892D",
"g c #259F25",
"h c #2D932D",
"j c #2A9A2A",
"k c #3A853A",
"l c #3A9F3A",
"z c #3E9D3E",
"x c #27A429",
"c c #418041",
"v c #458545",
"b c #468946",
"n c #4A844A",
"m c #4D8C4D",
"M c #479447",
"N c #439943",
"B c #4E924E",
"V c #52A552",
"C c #57A557",
"Z c #5BA45B",
"A c #6BB16B",
"S c #70B370",
"D c #83C083",
"F c None",
/* pixels */
"FFFFFFFFFFFFFFFF",
"FFFFFFFFFFFFFFFF",
"FFFFFFFFFFFFFFFF",
"FFFFFFFFFFFFFFFF",
"FFFFFFF=*FFFFFFF",
"FFFFFF&:.$FFFFFF",
"FFFFFOb;o+%FFFFF",
"FFFFXBMd#@43FFFF",
"FFFFmZNh>,<8FFFF",
"FFFcSCzj56qq<FFF",
"FF-DAVlg6euur9FF",
"F nvkfs07tpaix2F",
"FFFFFFFFFFFFFFFF",
"FFFFFFFFFFFFFFFF",
"FFFFFFFFFFFFFFFF",
"FFFFFFFFFFFFFFFF"
};
