/* XPM */
static const char *arrow_right_xpm[] = {
/* columns rows colors chars-per-pixel */
"16 16 70 1 ",
"  c #004E00",
". c #005700",
"X c #055905",
"o c #0D570D",
"O c #0A5C0A",
"+ c #195F19",
"@ c #006200",
"# c #006300",
"$ c #026C03",
"% c #086608",
"& c #0C630D",
"* c #066F08",
"= c #047405",
"- c #037803",
"; c #007F00",
": c #007E02",
"> c #067C07",
", c #117A12",
"< c #236B23",
"1 c #2D782D",
"2 c #327A32",
"3 c #327F32",
"4 c #018801",
"5 c #09820C",
"6 c #0B880E",
"7 c #0C8D0F",
"8 c #009400",
"9 c #009700",
"0 c #059B05",
"q c #0C8F11",
"w c #0F9213",
"e c #129115",
"r c #149216",
"t c #119615",
"y c #00A100",
"u c #00A600",
"i c #04A604",
"p c #00B000",
"a c #00B400",
"s c #06BB06",
"d c #0CB00C",
"f c #0BBC0B",
"g c #16B117",
"h c #2E992E",
"j c #368836",
"k c #319031",
"l c #25A325",
"z c #2AA02A",
"x c #2AA52A",
"c c #2CA92E",
"v c #3CA23C",
"b c #3EA43E",
"n c #00C400",
"m c #00C500",
"M c #08D008",
"N c #09D509",
"B c #459E45",
"V c #499A49",
"C c #40A240",
"Z c #55A855",
"A c #55A955",
"S c #5CA75C",
"D c #59A959",
"F c #6BAF6B",
"G c #6DB36D",
"H c #6DB46D",
"J c #70AC70",
"K c #7BAD7B",
"L c #85C185",
"P c None",
/* pixels */
"PPPPPPPPPPPPPPPP",
"PPPPPPPPPPPPPPPP",
"PPPP KoPPPPPPPPP",
"PPPP LJ+PPPPPPPP",
"PPPP.GHG<PPPPPPP",
"PPPP@ZZDS1PPPPPP",
"PPPP$bvCBV3XPPPP",
"PPPP=xlzhkj2&PPP",
"PPPP>iy84-@O%PPP",
"PPPP5sau8;,*PPPP",
"PPPP6Mmp0;PPPPPP",
"PPPPqNmdrPPPPPPP",
"PPPPwfgePPPPPPPP",
"PPPPtcqPPPPPPPPP",
"PPPPPPPPPPPPPPPP",
"PPPPPPPPPPPPPPPP"
};
