/* XPM */
static const char * cons_xpm[] = {
"16 16 4 1",
" 	c None",
".	c #000000",
"+	c #0000FF",
"@	c #FF0000",
"                ",
" .............. ",
" .            . ",
" . . . . . . .. ",
" .            . ",
" . . . . . . .. ",
" .............. ",
"                ",
"  +++++++++++++ ",
"    +++++++++   ",
"      +++++     ",
"        +       ",
" @@@@@@@@@@@@@@ ",
" @ @ @ @ @ @ @@ ",
" @@@@@@@@@@@@@@ ",
"                "};
