/* XPM */
static const char * dash_l_xpm[] = {
"16 16 2 1",
" 	c None",
".	c #000000",
"                ",
"                ",
"                ",
"                ",
"                ",
"                ",
"                ",
"....    ....    ",
"                ",
"                ",
"                ",
"                ",
"                ",
"                ",
"                ",
"                "};
