/* XPM */
static const char *dialog_information_xpm[] = {
/* columns rows colors chars-per-pixel */
"16 16 116 2 ",
"   c gray19",
".  c #393936",
"X  c #5E5E3E",
"o  c #3A4A77",
"O  c #3A4B77",
"+  c #3B4B77",
"@  c #3D4C76",
"#  c #3D4D76",
"$  c #384978",
"%  c #384A79",
"&  c #394A79",
"*  c #394B7A",
"=  c #3A4B7A",
"-  c #3B4C78",
";  c #3C4D78",
":  c #3E4E79",
">  c #464646",
",  c #435177",
"<  c #40507A",
"1  c #41517B",
"2  c #45547E",
"3  c #46557F",
"4  c #4A577A",
"5  c #80805C",
"6  c #8A8B66",
"7  c #475780",
"8  c #485883",
"9  c #4B5B83",
"0  c #495985",
"q  c #4A5A86",
"w  c #546083",
"e  c #586383",
"r  c #5E6880",
"t  c #4B7EB2",
"y  c #5E8DBA",
"u  c #608EBC",
"i  c #7E91B1",
"p  c #7E90B2",
"a  c #779DC5",
"s  c #789DC4",
"d  c #A8AA84",
"f  c #A6AC98",
"g  c #A7AD98",
"h  c #ABB198",
"j  c #8C9BB8",
"k  c #8D9CB8",
"l  c #98A4BD",
"z  c #9AA5BE",
"x  c #DDDFAB",
"c  c #D3D5B0",
"v  c #E3E6BA",
"b  c #87A8CC",
"n  c #91AECD",
"m  c #9BAEC8",
"M  c #9DB9D6",
"N  c #A4ADC3",
"B  c #A5BED8",
"V  c #A6BED8",
"C  c #A9C0D9",
"Z  c #AAC1D9",
"A  c #B7C2D5",
"S  c #B9C4D6",
"D  c #B5C6DA",
"F  c #B5C7DB",
"G  c #B5CAE0",
"H  c #C1CCD7",
"J  c #EBEDC1",
"K  c #F3F6C9",
"L  c #F5F8CA",
"P  c #C2D0E0",
"I  c #C0D0E3",
"U  c #C5D2E1",
"Y  c #C1D2E4",
"T  c #C2D3E4",
"R  c #C3D3E4",
"E  c #C5D5E5",
"W  c #C7D6E5",
"Q  c #C9D6E7",
"!  c #C8D7E8",
"~  c #CBD9E8",
"^  c #CCD9E8",
"/  c #CEDBE9",
"(  c #D0D5E0",
")  c #D2DAE2",
"_  c #D0DDEB",
"`  c #D3DFEB",
"'  c #D4E0EC",
"]  c #D4E0ED",
"[  c #D6E1ED",
"{  c #D8E2ED",
"}  c #D9E3EE",
"|  c #DEE7F1",
" . c #DFE7F2",
".. c #DFE8F2",
"X. c #E0E5ED",
"o. c #E0E6EC",
"O. c #E2E7EF",
"+. c #E0E9F2",
"@. c #E2EAF3",
"#. c #E8EFF4",
"$. c #E8EFF5",
"%. c #EDEFF4",
"&. c #EBF0F5",
"*. c #EBF0F6",
"=. c #ECF1F7",
"-. c #EFF3F7",
";. c #EEF3F8",
":. c #F3F7FA",
">. c #F4F7FA",
",. c #F5F8FA",
"<. c #F7F9FB",
"1. c #FAFBFD",
"2. c #FAFCFD",
"3. c #FCFCFD",
"4. c white",
"5. c None",
/* pixels */
"5.5.5.5.5.= o $ $ o # 5.5.5.5.5.",
"5.5.5.5.- N %.4.,.X.z ; 5.5.5.5.",
"5.5.5.; ( ,.&.@.} ` [ S 1 5.5.5.",
"5.5.# N ,.;.:.&.+.[ R E k , 5.5.",
"5.5.; &.&.>.2.&.| ` Y s U 7 5.5.",
"5.5.= 1.+.;.4.4.4.4.H 5./ - 5.5.",
"5.5.= >.[ | 4.&.} ) n 5.Q = 5.5.",
"5.5.2 X.^ ! 4.I F B 5.y F 0 5.5.",
"5.5.4 l ' C 4.V b 5.t Z p w 5.5.",
"5.5.5.9 A I a 4.5.y Z m 0 5.5.5.",
"5.5.5.5.2 k I ^ E F p 0 5.5.5.5.",
"5.5.5.5.5.e 9 g g h r 5.5.5.5.5.",
"5.5.5.5.5.5.X J L x X 5.5.5.5.5.",
"5.5.5.5.5.5.X 5 d 6 X 5.5.5.5.5.",
"5.5.5.5.5.5.X v K c X 5.5.5.5.5.",
"5.5.5.5.5.5.5.. >   5.5.5.5.5.5."
};
