/* XPM */
static const char *document_open_folder_xpm[] = {
/* columns rows colors chars-per-pixel */
"16 16 157 2 ",
"   c #00112F",
".  c #001230",
"X  c #142E4B",
"o  c #0A2D56",
"O  c #0C305A",
"+  c #0C315A",
"@  c #0D315B",
"#  c #0E335D",
"$  c #0F335D",
"%  c #10335E",
"&  c #123763",
"*  c #1B3F6C",
"=  c #203E61",
"-  c #274466",
";  c #25456A",
":  c #26456A",
">  c #2B4A71",
",  c #2B4C73",
"<  c #2F5179",
"1  c #2F517A",
"2  c #485D78",
"3  c #495F7B",
"4  c #4A5F7C",
"5  c #2F598B",
"6  c #335F92",
"7  c #326092",
"8  c #346092",
"9  c #3D6392",
"0  c #366498",
"q  c #39679B",
"w  c #3B689E",
"e  c #3B699E",
"r  c #3A689F",
"t  c #3B689F",
"y  c #3C699F",
"u  c #3D6AA0",
"i  c #3D6CA5",
"p  c #3D6DA5",
"a  c #3F6DA5",
"s  c #3F6EA5",
"d  c #3F74B0",
"f  c #455F80",
"g  c #506481",
"h  c #4F779F",
"j  c #4371A7",
"k  c #4972A6",
"l  c #4A75A7",
"z  c #4976AD",
"x  c #5079A9",
"c  c #517AAA",
"v  c #587FAD",
"b  c #4074B0",
"n  c #4776B2",
"m  c #4076B4",
"M  c #4B79B1",
"N  c #4878B3",
"B  c #4978B3",
"V  c #4878B4",
"C  c #4978B4",
"Z  c #4A78B4",
"A  c #4B78B4",
"S  c #4A79B4",
"D  c #437AB9",
"F  c #4E7FBF",
"G  c #507DB1",
"H  c #517FB7",
"J  c #527FB7",
"K  c #547FB5",
"L  c #527EB8",
"P  c #4F81BF",
"I  c #5180B7",
"U  c #5180BA",
"Y  c #5380BA",
"T  c #5381BA",
"R  c #5382BA",
"E  c #5481BB",
"W  c #5482BA",
"Q  c #5684BB",
"!  c #5081BF",
"~  c #5182BF",
"^  c #6788AA",
"/  c #5181C0",
"(  c #5082C0",
")  c #5182C0",
"_  c #5082C1",
"`  c #5182C1",
"'  c #5484C1",
"]  c #5887C2",
"[  c #5B88C0",
"{  c #568CCD",
"}  c #588CCF",
"|  c #6390C5",
" . c #6D99D0",
".. c #76A1D4",
"X. c #7CA3D6",
"o. c #7DA3D6",
"O. c #7EA3D6",
"+. c #7FA6D7",
"@. c #79A3D8",
"#. c #78A3D9",
"$. c #79A3D9",
"%. c #7AA3D9",
"&. c #7CA3D9",
"*. c #7DA3D9",
"=. c #7EA3D8",
"-. c #7EA4D9",
";. c #7CA7DB",
":. c #7DA8DD",
">. c #7CA8DF",
",. c #93B1CB",
"<. c #80A6D7",
"1. c #81A6D7",
"2. c #81A6D8",
"3. c #80A7D8",
"4. c #81A7D8",
"5. c #82A7D8",
"6. c #83A9DA",
"7. c #83A9DB",
"8. c #84A9DA",
"9. c #85A9DA",
"0. c #84A9DB",
"q. c #85A9DB",
"w. c #86A9DA",
"e. c #86A9DB",
"r. c #87A9DB",
"t. c #85ABDA",
"y. c #81A8DD",
"u. c #80A9DD",
"i. c #83A9DC",
"p. c #82ABDE",
"a. c #84ACDE",
"s. c #86ADDF",
"d. c #87ADDF",
"f. c #86AFDF",
"g. c #8AAFDF",
"h. c #81A9E0",
"j. c #87ADE1",
"k. c #87AEE1",
"l. c #86AFE1",
"z. c #8AAEE0",
"x. c #8AB0E3",
"c. c #89B1E4",
"v. c #8EB6EA",
"b. c #8FB9EF",
"n. c #90B8EB",
"m. c #93BBEF",
"M. c #AFD1ED",
"N. c #B7D9F4",
"B. c #B8DAF5",
"V. c #B8DBF5",
"C. c #B9DBF6",
"Z. c #BADBF6",
"A. c #B9DCF6",
"S. c #BBDCF6",
"D. c #BDE0FB",
"F. c #BFE1FB",
"G. c None",
/* pixels */
"G.G.G.G.G.G.G.G.G.G.G.G.G.G.G.G.",
"K I J J I Q G.G.G.G.G.G.G.G.G.G.",
"k b.v.v.m.B I U E L U U E E [ G.",
"9 l.{ } @.g.s.s.s.p.p.:.:.>.z G.",
"1 ..! ' ( ! P ( ( ( ( ( P  .1 G.",
"> | n n B B B A V V A V n [ , G.",
": G p j p p u e u u e u e j : G.",
"= 0 8 7 6 5 * % $ $ $ $ $ # & G.",
"X # + + @ o ^ S.B.B.A.A.B.A.D.,.",
"h D.N.N.A.N.M.0.2.2.1.1.1.1.j.2 ",
"c 7.O.O.O.O.O.1.2.2.-.5.5.5.j.3 ",
"c g.0.0.0.0.w.0.0.7.0.0.0.0.c.4 ",
"q n d d b d b d b b d d d d D - ",
"I r.t.0.0.0.0.0.0.0.0.0.0.0.x.4 ",
"l p.o.-.=.#.=.-.2.=.@.@.-.-.j.f ",
"G.G.G.G.. . .       . . G.G.G.G."
};
