/* XPM */
static const char *document_import_xpm[] = {
/* columns rows colors chars-per-pixel */
"16 16 175 2 ",
"   c #001230",
".  c #001431",
"X  c #001E45",
"o  c #0E2A4A",
"O  c #11345E",
"+  c #18395B",
"@  c #224164",
"#  c #274466",
"$  c #25466A",
"%  c #21436D",
"&  c #2B4B71",
"*  c #2A4B73",
"=  c #284C76",
"-  c #2F527A",
";  c #30527B",
":  c #485D78",
">  c #495F7B",
",  c #4A5F7C",
"<  c #C00000",
"1  c #C40100",
"2  c #DE1900",
"3  c #DE1A00",
"4  c #E00600",
"5  c #ED1C00",
"6  c #F32E00",
"7  c #F42F00",
"8  c #FF3F00",
"9  c #FA6201",
"0  c #FF6200",
"q  c #FB6801",
"w  c #FB7E01",
"e  c #FF8400",
"r  c #FAA302",
"t  c #F9A502",
"y  c #FAA205",
"u  c #F5A10A",
"i  c #F1B50D",
"p  c #E0A31C",
"a  c #CCB833",
"s  c #F5CE09",
"d  c #EDDE11",
"f  c #E6DE18",
"g  c #DFE11A",
"h  c #DDE31D",
"j  c #EDEC10",
"k  c #E5E019",
"l  c #E1FF1B",
"z  c #C6FB38",
"x  c #B3DD4C",
"c  c #BFE240",
"v  c #B7F047",
"b  c #91F96D",
"n  c #91FF6C",
"m  c #8CFF72",
"M  c #83FC7B",
"N  c #85FF79",
"B  c #0030BE",
"V  c #3E5E87",
"C  c #3D6492",
"Z  c #39679B",
"A  c #3F74B0",
"S  c #455F80",
"D  c #506481",
"F  c #4A6A90",
"G  c #4F769F",
"H  c #51729B",
"J  c #4A73A7",
"K  c #4A75A6",
"L  c #4976AD",
"P  c #5079A9",
"I  c #517AAA",
"U  c #587FAD",
"Y  c #4074B0",
"T  c #4076B4",
"R  c #437AB9",
"E  c #547FB5",
"W  c #0032C9",
"Q  c #004EE6",
"!  c #0051EC",
"~  c #0041FF",
"^  c #0043FF",
"/  c #004CFC",
"(  c #004DFF",
")  c #0062FD",
"_  c #0064FF",
"`  c #0066FF",
"'  c #0374F4",
"]  c #047CF5",
"[  c #0070FF",
"{  c #0170FF",
"}  c #0279F8",
"|  c #7EFF81",
" . c #73F18B",
".. c #60EA9E",
"X. c #61F29D",
"o. c #65FA99",
"O. c #5AE5A4",
"+. c #5CFEA1",
"@. c #59FCA5",
"#. c #58FFA6",
"$. c #56FAA8",
"%. c #43FFBB",
"&. c #0297FD",
"*. c #0195FF",
"=. c #059FF9",
"-. c #049DFB",
";. c #10BFEE",
":. c #0AA6F5",
">. c #08A6F7",
",. c #0FB6F0",
"<. c #5887C2",
"1. c #7CA3D6",
"2. c #7DA3D6",
"3. c #7EA3D6",
"4. c #7FA6D7",
"5. c #78A3D9",
"6. c #79A3D9",
"7. c #7AA3D8",
"8. c #7CA3D8",
"9. c #7DA3D8",
"0. c #7CA3D9",
"q. c #7EA3D8",
"w. c #7EA3D9",
"e. c #7EA4D8",
"r. c #7EA4D9",
"t. c #2CE1D3",
"y. c #27F0D6",
"u. c #2DFFD0",
"i. c #2CFFD1",
"p. c #08C2F6",
"a. c #0EC8F0",
"s. c #07C2F8",
"d. c #0AD3F4",
"f. c #0DDEF1",
"g. c #0FE8EF",
"h. c #87A2BE",
"j. c #93B1CB",
"k. c #80A6D7",
"l. c #82A6D7",
"z. c #81A6D8",
"x. c #80A7D8",
"c. c #81A7D8",
"v. c #82A7D8",
"b. c #83A9DA",
"n. c #83A9DB",
"m. c #84A9DA",
"M. c #85A9DA",
"N. c #84A9DB",
"B. c #85A9DB",
"V. c #86A9DA",
"C. c #86A9DB",
"Z. c #87A9DB",
"A. c #85ABDA",
"S. c #81A8DD",
"D. c #83A9DC",
"F. c #87ADDF",
"G. c #81A9E0",
"H. c #87ADE1",
"J. c #87AEE1",
"K. c #8AAEE0",
"L. c #8AB0E3",
"P. c #89B1E4",
"I. c #A6CBE9",
"U. c #A6CCEA",
"Y. c #A7CCEA",
"T. c #A7CDEB",
"R. c #A8CDEA",
"E. c #A8CDEB",
"W. c #A9CDEB",
"Q. c #A8CEEB",
"!. c #AACEEA",
"~. c #AACEEB",
"^. c #BCE0FB",
"/. c #BCE0FC",
"(. c None",
/* pixels */
"(.(.(.(.(.(.(.(.(.(.(.(.(.(.(.(.",
"E = q 8 0 d #.s.[ ` *.d.i.+.(.(.",
"J H r i c X.;.` ~ { a.#.z s <.(.",
"C F g $.>.Q W ~ &.y.n l j k L (.",
"- V h $.,.] ' -.g.%.| m o.t.; (.",
"& - t u p a x M u.f.=.} ) ( & (.",
"$ % 9 4 < 1 5 y N p.( B ! >.o (.",
"@ O w 6 3 3 7 e f b ..O. .v . (.",
"+ X w 6 3 3 h.T.R.R.T.R.E.R./.j.",
"G ^.U.T.T.!.R.B.l.l.l.l.x.l.H.: ",
"P D.3.3.3.3.3.l.l.x.x.x.l.b.H.> ",
"I K.b.b.B.b.B.B.b.b.C.D.B.B.P.> ",
"Z A A A A A A A Y A A A A A R # ",
"U F.b.C.B.B.B.b.B.B.B.B.B.b.L.D ",
"K D.r.r.w.5.w.r.3.r.6.6.r.w.D.S ",
"(.(.(.(.(.(.(.    (.(.(.(.(.(.(."
};
