/* XPM */
static const char *document_export_xpm[] = {
/* columns rows colors chars-per-pixel */
"16 16 147 2 ",
"   c #4E6A7D",
".  c #58787A",
"X  c #667173",
"o  c #627075",
"O  c #B30000",
"+  c #B60000",
"@  c #BB0000",
"#  c #E60000",
"$  c #EE1200",
"%  c #E21D00",
"&  c #E92400",
"*  c #EA2400",
"=  c #FF3500",
"-  c #FE3C00",
";  c #F94100",
":  c #FA4200",
">  c #FB4D00",
",  c #FC5500",
"<  c #FE5F00",
"1  c #F86B00",
"2  c #F97200",
"3  c #FF7400",
"4  c #FE7E00",
"5  c #F88F01",
"6  c #EF9800",
"7  c #FF9100",
"8  c #F89A00",
"9  c #F99A00",
"0  c #FF9A00",
"q  c #ECA307",
"w  c #FDB701",
"e  c #FDA917",
"r  c #BDFB3F",
"t  c #F2C505",
"y  c #FAC004",
"u  c #F0CA07",
"i  c #F8C805",
"p  c #F2D10B",
"a  c #DDE01B",
"s  c #DDFE1F",
"d  c #ECEA10",
"f  c #E3FF18",
"g  c #D2EA2B",
"h  c #C7FF34",
"j  c #E4E822",
"k  c #BDD552",
"l  c #AFFA4D",
"z  c #B7F746",
"x  c #BBFF41",
"c  c #B2FA4B",
"v  c #AAFF53",
"b  c #94FB69",
"n  c #8BFF72",
"m  c #85FE79",
"M  c #80F87D",
"N  c #A0FE7E",
"B  c #0024B3",
"V  c #38678B",
"C  c #37698D",
"Z  c #3D698A",
"A  c #3B6B8F",
"S  c #3D6B8E",
"D  c #3F6C8E",
"F  c #4A6D85",
"G  c #436E88",
"H  c #4A7180",
"J  c #41749A",
"K  c #44789F",
"L  c #547D9B",
"P  c #6B7F88",
"I  c #0029CA",
"U  c #0037E9",
"Y  c #0037EC",
"T  c #0035F2",
"R  c #0039FF",
"E  c #003DFE",
"W  c #0041FF",
"Q  c #0045FC",
"!  c #0057FF",
"~  c #006CFF",
"^  c #006DFF",
"/  c #0074F6",
"(  c #5186AF",
")  c #5892BD",
"_  c #688BA0",
"`  c #6E99B6",
"'  c #7798B0",
"]  c #719FBF",
"[  c #6EF18E",
"{  c #75F389",
"}  c #59FEA3",
"|  c #51FFAC",
" . c #49FEB4",
".. c #43FABA",
"X. c #53F8BE",
"o. c #0082FF",
"O. c #009FFF",
"+. c #328AFE",
"@. c #02ABF0",
"#. c #00AEFF",
"$. c #03BDFB",
"%. c #739FC0",
"&. c #79A7CA",
"*. c #21CBDE",
"=. c #1CFFDF",
"-. c #2FE6CE",
";. c #3DF5C0",
":. c #32FFCA",
">. c #2BECD2",
",. c #28FFD3",
"<. c #17CDE7",
"1. c #13DBEB",
"2. c #0ED7F0",
"3. c #08D3F4",
"4. c #0BDAF2",
"5. c #3BC4F1",
"6. c #16FFE5",
"7. c #13FFE9",
"8. c #0BEBF1",
"9. c #8BA4AF",
"0. c #92A6AC",
"q. c #95A9AF",
"w. c #9AAEB4",
"e. c #9DE4A5",
"r. c #CAC6AC",
"t. c #8FB3CE",
"y. c #92B7D3",
"u. c #96BBD8",
"i. c #9EBFD9",
"p. c #98BFDC",
"a. c #ACBCC3",
"s. c #AABCD1",
"d. c #9BC2DF",
"f. c #ABC8DF",
"g. c #8CFDCB",
"h. c #9EDEE9",
"j. c #ABCBE2",
"k. c #ACCBE3",
"l. c #B1CEE6",
"z. c #BFE6E5",
"x. c #BBF8EA",
"c. c #C1D9EB",
"v. c #C5DBEC",
"b. c #D5DFE5",
"n. c #D0DFEF",
"m. c #EEEEEE",
"M. c None",
/* pixels */
"M.M.M.V V V Z H . M.M.M.M.M.M.M.",
"M.M.M.l.n.v.d._ G M.M.M.M.M.M.M.",
"P X o F J K i.c.(   M.M.M.M.M.M.",
"M.M.M.M.M.` V j.y.L b.M.M.M.M.M.",
"M.M.M.M.M.' V &.t.S a.M.M.M.M.M.",
"M.M.M.V V V V &.) V V V V M.M.M.",
"M.6 q k V p.] ] ] %.u.V q.@./ M.",
"M.2 - = r.V p.%.%.f.V 0.z.=.:.M.",
"M.9 3 e j e.C k.p.A 9.h.g.x d M.",
"M.t c X.5.+.s.D V w.x.N m.y w M.",
"M.a  .#.R B I ! $.,.m f s h n M.",
"M.u l } -.*.<.1.7.6...;.>.3.O.M.",
"M.9 < > , 4 i r | 4.o.Q Y E W M.",
"M.1 # + O @ $ 0 v 8.~ T U ~ 2.M.",
"M.5 : * % * : 7 p z M [ { b g M.",
"M.M.M.M.M.M.M.M.M.M.M.M.M.M.M.M."
};
