/* XPM */
static const char *document_open_xpm[] = {
/* columns rows colors chars-per-pixel */
"16 16 146 2 ",
"   c #001230",
".  c #001431",
"X  c #2A2A29",
"o  c #001E45",
"O  c #0E2A4A",
"+  c #11345E",
"@  c #18395B",
"#  c #224164",
"$  c #274466",
"%  c #25466A",
"&  c #21436D",
"*  c #374F6D",
"=  c #3B516A",
"-  c #2B4B71",
";  c #2A4B73",
":  c #284C76",
">  c #2F527A",
",  c #30527B",
"<  c #465D79",
"1  c #485D78",
"2  c #495F7B",
"3  c #4A5F7C",
"4  c #4E6177",
"5  c #3E5E87",
"6  c #3D6492",
"7  c #39679B",
"8  c #3F74B0",
"9  c #455F80",
"0  c #506481",
"q  c #4A6A90",
"w  c #4F769F",
"e  c #51729B",
"r  c #4A73A7",
"t  c #4A75A6",
"y  c #4976AD",
"u  c #5079A9",
"i  c #517AAA",
"p  c #587FAD",
"a  c #4074B0",
"s  c #4076B4",
"d  c #437AB9",
"f  c #547FB5",
"g  c #517EB8",
"h  c #5481BB",
"j  c #5483BC",
"k  c #5887C2",
"l  c #6894CD",
"z  c #78A2D7",
"x  c #7CA3D6",
"c  c #7DA3D6",
"v  c #7EA3D6",
"b  c #7FA6D7",
"n  c #78A3D9",
"m  c #79A3D9",
"M  c #7AA3D8",
"N  c #7CA3D8",
"B  c #7DA3D8",
"V  c #7CA3D9",
"C  c #7EA3D8",
"Z  c #7EA3D9",
"A  c #7EA4D8",
"S  c #7EA4D9",
"D  c #7CA9E1",
"F  c #9A9A9A",
"G  c #87A2BE",
"H  c #A0A0A0",
"J  c #A1A0A0",
"K  c #ADACAC",
"L  c #B2B0B0",
"P  c #B4B3B3",
"I  c gray72",
"U  c #93B1CB",
"Y  c #80A6D7",
"T  c #82A6D7",
"R  c #81A6D8",
"E  c #80A7D8",
"W  c #81A7D8",
"Q  c #82A7D8",
"!  c #83A9DA",
"~  c #83A9DB",
"^  c #84A9DA",
"/  c #85A9DA",
"(  c #84A9DB",
")  c #85A9DB",
"_  c #86A9DA",
"`  c #86A9DB",
"'  c #87A9DB",
"]  c #85ABDA",
"[  c #81A8DD",
"{  c #83A9DC",
"}  c #87ADDF",
"|  c #B5BBC3",
" . c #81A9E0",
".. c #87ADE1",
"X. c #87AEE1",
"o. c #8AAEE0",
"O. c #8AB0E3",
"+. c #89B1E4",
"@. c #A6CBE9",
"#. c #A6CCEA",
"$. c #A7CCEA",
"%. c #A7CDEB",
"&. c #A8CDEA",
"*. c #A8CDEB",
"=. c #A9CDEB",
"-. c #A8CEEB",
";. c #AACEEA",
":. c #AACEEB",
">. c #BCE0FB",
",. c #BCE0FC",
"<. c gray77",
"1. c #C1C4CA",
"2. c #C6C8CE",
"3. c #C9CDD1",
"4. c #CCCFD5",
"5. c #CED1D5",
"6. c #CED2D6",
"7. c #CFD3D8",
"8. c #D0D2D6",
"9. c #E1DDDB",
"0. c #E4E1DE",
"q. c #DFE1E5",
"w. c #E0E2E5",
"e. c #E8E7E7",
"r. c #E8E8EA",
"t. c gray92",
"y. c #EFEEEE",
"u. c #F1EFEF",
"i. c gray95",
"p. c #F4F2F0",
"a. c #F5F4F4",
"s. c gray96",
"d. c #F6F6F6",
"f. c gray97",
"g. c #F8F7F7",
"h. c #F8F8F8",
"j. c #F9F8F8",
"k. c #F9F9F9",
"l. c #FAF9F9",
"z. c #FAF9FA",
"x. c #FBFAFA",
"c. c #FBFBFA",
"v. c #FFFCFA",
"b. c #FFFFFE",
"n. c white",
"m. c None",
/* pixels */
"m.m.m.m.m.m.m.m.m.m.m.m.m.m.m.m.",
"f : n.n.n.n.n.n.e.X m.m.m.m.m.m.",
"r e n.d.h.h.a.t.<.n.= g j h k m.",
"6 q n.h.h.h.d.y.H n.0.4 z D y m.",
"> 5 n.g.h.h.h.i.F n.u.9.* l , m.",
"- > n.h.h.h.h.d.H n.n.n.v.< - m.",
"% & n.d.h.h.v.h.t.I P K L p.O m.",
"# + n.h.n.h.q.7.6.4.3.2.1.w.. m.",
"@ o e.5.8.| G &.&.&.&.&.-.&.,.U ",
"w >.%.@.%.;.&.( T R b T R b o.1 ",
"u { v v b v v T R ~ b T ~ R X.2 ",
"u o.~ ~ ( ~ _ ( ( ~ ( ~ ( ( +.2 ",
"7 s 8 8 8 8 a 8 a a 8 8 8 8 d $ ",
"p } ( ( ( ( ( ( ( ( ( ( ( ( O.3 ",
"t { v A Z n Z A T v m m A Z ..9 ",
"m.m.m.m.m.m.m.    m.m.m.m.m.m.m."
};
