/* XPM */
static const char *document_revert_xpm[] = {
/* columns rows colors chars-per-pixel */
"16 16 142 2 ",
"   c #7D5718",
".  c #7A561E",
"X  c #7C581C",
"o  c #8D6416",
"O  c #8D6719",
"+  c #8E661E",
"@  c #906A1A",
"#  c #947217",
"$  c #94711F",
"%  c #95731E",
"&  c #A36C0E",
"*  c #B4740A",
"=  c #B67E0E",
"-  c #836126",
";  c #926C25",
":  c #936E26",
">  c #906A2F",
",  c #976F2F",
"<  c #957027",
"1  c #97732B",
"2  c #876833",
"3  c #8E6C31",
"4  c #886835",
"5  c #8B6C39",
"6  c #8C6F3D",
"7  c #8E6E3E",
"8  c #95793F",
"9  c #AA8413",
"0  c #B18F3B",
"q  c #BC953B",
"w  c #CE850A",
"e  c #D98E0B",
"r  c #D69D10",
"t  c #D6AD0E",
"y  c #E1A02D",
"u  c #E7B236",
"i  c #E4BD3B",
"p  c #DFC81E",
"a  c #E2C139",
"s  c #9F865C",
"d  c #AA8345",
"f  c #B99741",
"g  c #BC9940",
"h  c #8B8477",
"j  c #848279",
"k  c #86847B",
"l  c #8B877B",
"z  c #A6906B",
"x  c #AD9978",
"c  c #CCA055",
"v  c #DABC59",
"b  c #EBBF46",
"n  c #E8B64A",
"m  c #E9B948",
"M  c #E9B849",
"N  c #E9B850",
"B  c #E9BE55",
"V  c #DDC058",
"C  c #E5CD41",
"Z  c #E5C249",
"A  c #ECC151",
"S  c #ECC156",
"D  c #E7CD52",
"F  c #E1C759",
"G  c #E4C45A",
"H  c #E1C85C",
"J  c #EACC5C",
"K  c #F0CD5F",
"L  c #EBD05D",
"P  c #EFD263",
"I  c #EED463",
"U  c #EED563",
"Y  c #F1D363",
"T  c #F2D462",
"R  c #F4DA65",
"E  c #F3DC67",
"W  c #F0D769",
"Q  c #F3DA68",
"!  c #F1DF69",
"~  c #F7E667",
"^  c #F2E068",
"/  c #F7E669",
"(  c #F7E66A",
")  c #FAEF74",
"_  c #B8A68A",
"`  c #B9A78A",
"'  c #BDAA8D",
"]  c #C5B290",
"[  c #C2B195",
"{  c #C2B298",
"}  c #C6B69E",
"|  c #D3C2A6",
" . c #CEC5B7",
".. c #CEC7BC",
"X. c #D2C7B5",
"o. c #D2C8B5",
"O. c #E8D9B9",
"+. c #DBD2C5",
"@. c #E1DBD1",
"#. c #EEE8DE",
"$. c #E8E9E9",
"%. c #E8E9EA",
"&. c #EAEAEA",
"*. c #EAEBEB",
"=. c #EBECEC",
"-. c #ECEDED",
";. c #EDEEEE",
":. c #EEEFEF",
">. c #F1EFEB",
",. c #F2EFEB",
"<. c #F3F0EC",
"1. c #F1F0EE",
"2. c #EFF0F0",
"3. c #F0F1F1",
"4. c #F1F1F1",
"5. c #F1F2F2",
"6. c gray95",
"7. c #F3F3F3",
"8. c #F4F3F1",
"9. c #F6F5F2",
"0. c #F3F4F4",
"q. c #F4F4F4",
"w. c #F4F5F5",
"e. c gray96",
"r. c #F6F6F4",
"t. c #F6F6F5",
"y. c #F7F6F5",
"u. c #F6F6F6",
"i. c #F6F7F7",
"p. c gray97",
"a. c #F8F7F3",
"s. c #F8F7F4",
"d. c #F8F9F9",
"f. c #F9F9F9",
"g. c #FAFAF9",
"h. c #FBFAF9",
"j. c gray98",
"k. c #FBFBFB",
"l. c gray99",
"z. c #FDFDFD",
"x. c #FEFEFE",
"c. c None",
/* pixels */
"c.c.c.c.c.c.c.c.c.c.c.c.c.c.c.c.",
"c.c.c.&.$.&.;.;.;.2.2.4.4.0.0.c.",
"c.c.c.&.$.&.-.;.2.2.4.4.4.q.q.c.",
"c.c.c.*.-.-.2.2.4.4.0.q.q.q.q.c.",
"c.c.c.:. .z 2 . 5 ` @.i.d.i.d.c.",
"4 c.c.6 0 H ^ ) ^ F f s s.k.k.c.",
"1 q - v ( ~ ~ ~ ( ~ ( V 3 >.k.c.",
"1 Q W Q E Y A u Z Y R R G 7 k.c.",
"< U U Q i r = & * e m K K q { c.",
"; J L a t O ` +.x > w m S B X c.",
"+ Z D a p 9 X.h.h.<.d y N n , c.",
"  o @ < % # 8 ,.z.x.' c ] o.h c.",
"c.c.c.1.8.d.h.l.x.x.} [ x.l c.c.",
"c.c.c.q.a.d.l.l.l.a.| ..k c.c.c.",
"c.c.c.s.a.h.d.x.d.#.O.k c.c.c.c.",
"c.c.c.c.c.c.c.c.c.c.c.c.c.c.c.c."
};
