/* XPM */
static const char *document_new_xpm[] = {
/* columns rows colors chars-per-pixel */
"16 16 75 1 ",
"  c #007500",
". c #009300",
"X c #009B00",
"o c #099509",
"O c #03A000",
"+ c #00A800",
"@ c #03AD00",
"# c #02AD02",
"$ c #0AAF0A",
"% c #1AA300",
"& c #00B300",
"* c #1DB61D",
"= c #34A000",
"- c #32AF00",
"; c #36B000",
": c #33BC1D",
"> c #21A621",
", c #29A829",
"< c #2AAA2A",
"1 c #21B421",
"2 c #3FB429",
"3 c #36BF36",
"4 c #64B000",
"5 c #5ABC29",
"6 c #23C423",
"7 c #35C035",
"8 c #5BC35B",
"9 c #78D578",
"0 c #7AD578",
"q c #7E8181",
"w c #7E8383",
"e c #808585",
"r c #848688",
"t c #8FCF8F",
"y c #95DD95",
"u c #95DF95",
"i c gray77",
"p c #C6C6C6",
"a c gray80",
"s c #CECFCF",
"d c gray88",
"f c #E8E9E9",
"g c #E8E9EA",
"h c #E9E9EA",
"j c #EAEAEA",
"k c #EAEBEB",
"l c #EBECEC",
"z c #ECEDED",
"x c gray93",
"c c #EDEEEE",
"v c #EEEFEF",
"b c #EFEFF0",
"n c #EFF0F0",
"m c #F0F1F1",
"M c #F1F1F1",
"N c gray95",
"B c #F2F3F3",
"V c #F3F3F3",
"C c #F3F4F4",
"Z c #F4F4F4",
"A c #F4F5F5",
"S c gray96",
"D c #F5F6F6",
"F c #F6F6F6",
"G c #F6F7F7",
"H c gray97",
"J c #F8F8F8",
"K c #F9F9F9",
"L c gray98",
"P c #FBFBFB",
"I c gray99",
"U c #FDFDFD",
"Y c #FEFEFE",
"T c white",
"R c None",
/* pixels */
"RRRRRRRRRR ,8,RR",
"RjjjzccnNt39T97R",
"Rffjccnnn>*2T5:X",
"RzzzcnNCCoTTTTT.",
"RcccNNZZG1O=T4-+",
"RccNNCZGLy@%T;@R",
"RNnBCZLLLLu6$&RR",
"RNNZZLLLPLLLTRRR",
"RZZZLLLLPTPTPRRR",
"RZGZLLLTTPTTTRRR",
"RZZLLLTLTPPLbRRR",
"RGLLLLLTTdpsrRRR",
"RZLLLTTTLiTeRRRR",
"RGLLLLLTCaqRRRRR",
"RZLLLTTTjqRRRRRR",
"RRRRRRRRRRRRRRRR"
};
