/* XPM */
static const char *document_print_xpm[] = {
/* columns rows colors chars-per-pixel */
"16 16 73 1 ",
"  c #070707",
". c #090909",
"X c #4E4E4E",
"o c gray34",
"O c gray35",
"+ c #5A5A5A",
"@ c #5B5B5B",
"# c #606060",
"$ c #626262",
"% c #646464",
"& c #66666A",
"* c #6E6E71",
"= c #747474",
"- c #777777",
"; c #797979",
": c gray48",
"> c gray53",
", c #888888",
"< c gray57",
"1 c #939393",
"2 c #959595",
"3 c gray60",
"4 c gray61",
"5 c #9E9EA1",
"6 c #A4A4A4",
"7 c #A9A9A9",
"8 c #A9A9AB",
"9 c #AAAAAA",
"0 c gray67",
"q c #ACACAC",
"w c #AEAEAE",
"e c #AFAFAF",
"r c #ADADB3",
"t c #B2B2B1",
"y c #B4B4B4",
"u c #B7B7B7",
"i c #B6B6BC",
"p c gray",
"a c gray75",
"s c #BCBCC1",
"d c #BDBDC2",
"f c #BEBEC3",
"g c #C0C0C0",
"h c #C1C1C1",
"j c #C5C5C5",
"k c #CACACA",
"l c #CBCBCF",
"z c gray80",
"x c #D3D3D7",
"c c #D6D6D9",
"v c #D8D8DB",
"b c #DCDCDF",
"n c #DEDEE0",
"m c #DEDEE1",
"M c #E2E2E2",
"N c #E1E1E4",
"B c #E2E2E4",
"V c gray90",
"C c #E5E5E8",
"Z c #E7E7E9",
"A c #E9E9EB",
"S c #EBEBEC",
"D c #EBEBED",
"F c #EFEFEF",
"G c #F1F1F2",
"H c #F3F3F4",
"J c #F5F5F6",
"K c #F8F8F8",
"L c #FBFBFB",
"P c #FCFCFD",
"I c #FDFDFD",
"U c white",
"Y c None",
/* pixels */
"YYYYYYYYYYYYYYYY",
"YYYY770000q7YYYY",
"YYYYUUUUUUUUYYYY",
"YYYYJUUUUUUUYYYY",
"YYY,ZHLUUULJ,YYY",
"Y,<<xNDGGGDN<6<Y",
",<6>dlcnnncl,y6<",
"yFF=@@OooO@@;FGy",
"yJL=XX$$$#XX;LJu",
"7kkqee3224qt0kk7",
"eVMjggppppggjMgq",
"6l3. .      .3y6",
",,%@&riddsi*O%,,",
"YYY;5vNZDAN7;YYY",
"YYY;nJUUUUUD;YYY",
"YYYYYYYYYYYYYYYY"
};
