/* XPM */
static const char *edit_copy_xpm[] = {
/* columns rows colors chars-per-pixel */
"16 16 52 1 ",
"  c black",
". c #6C6D6C",
"X c #6F6F6F",
"o c #737372",
"O c #797A79",
"+ c gray69",
"@ c #B0B1B1",
"# c #B1B1B1",
"$ c #B1B2B2",
"% c gray70",
"& c #B4B4B4",
"* c gray71",
"= c #B7B7B7",
"- c gray72",
"; c #E2E2E2",
": c #E4E4E4",
"> c #E7E8E7",
", c #E6EAEB",
"< c #EAEAE9",
"1 c #EAEBEA",
"2 c #EAEBEB",
"3 c #EBECEC",
"4 c #ECEDED",
"5 c #EDEEEE",
"6 c #EEEEEE",
"7 c #EFF0F0",
"8 c gray94",
"9 c #F0F1F1",
"0 c #F1F2F2",
"q c gray95",
"w c #F2F3F3",
"e c #F3F3F3",
"r c #F4F4F3",
"t c #F1F3F4",
"y c #F3F4F4",
"u c #F4F4F4",
"i c #F4F5F5",
"p c gray96",
"a c #F5F6F6",
"s c #F6F6F6",
"d c gray97",
"f c #F7F8F8",
"g c #F8F8F8",
"h c #F9F9F9",
"j c gray98",
"k c #FBFBFB",
"l c #FAFCFD",
"z c gray99",
"x c #FDFDFD",
"c c #FEFEFE",
"v c white",
"b c None",
/* pixels */
"bbbbbbbbbbbbbbbb",
"bvvvvvvvvvvbbbbb",
"bv244q7qqqvbbbbb",
"bv47;++###- bbbb",
"bv4p#vvvvvvvvvvb",
"bvqp#v447qyyppvb",
"bvpk%v4qqppkkpvb",
"bvpk&vqqpkpkkkvb",
"bvpk&vqppkkkzkvb",
"bvkk&vqpklzzvzvb",
"bvkv&vykkkp:2qtb",
"bkvv&vpkkv:vvrXb",
"bbbb vkkkv>vqXbb",
"bbbbbvpvkv2qobbb",
"bbbbbkvvvl,Obbbb",
"bbbbbbbbbbbbbbbb"
};
