/* XPM */
static const char *edit_redo_xpm[] = {
/* columns rows colors chars-per-pixel */
"16 16 91 1 ",
"  c #007F00",
". c #008300",
"X c #008600",
"o c #018601",
"O c #008A00",
"+ c #028B01",
"@ c #008C00",
"# c #018C00",
"$ c #018D00",
"% c #018C01",
"& c #018D01",
"* c #028C01",
"= c #028D01",
"- c #038D01",
"; c #028D02",
": c #028E02",
"> c #038E02",
", c #048F02",
"< c #108A0A",
"1 c #049003",
"2 c #059003",
"3 c #079104",
"4 c #089106",
"5 c #0B9706",
"6 c #0A9209",
"7 c #0F950B",
"8 c #0E970A",
"9 c #0D9908",
"0 c #119D09",
"q c #109F09",
"w c #149A0F",
"e c #149810",
"r c #179C11",
"t c #199916",
"y c #0FAF0A",
"u c #12AD0D",
"i c #17AF0F",
"p c #01B401",
"a c #03B503",
"s c #05B505",
"d c #0FB00A",
"f c #0BB50B",
"g c #14B50D",
"h c #19A110",
"j c #18A411",
"k c #12B811",
"l c #14B912",
"z c #16B916",
"x c #18BB17",
"c c #1DB419",
"v c #1EBB1D",
"b c #20A61B",
"n c #32B21D",
"m c #33B61F",
"M c #32AE29",
"N c #35AE2B",
"B c #23BE20",
"V c #23BC22",
"C c #27BD22",
"Z c #26BD24",
"A c #32BC20",
"S c #36B825",
"D c #36BA24",
"F c #39BD21",
"G c #33C12E",
"H c #3AC631",
"J c #38C433",
"K c #3EC336",
"L c #3CC834",
"P c #40C737",
"I c #48C23F",
"U c #4CCB43",
"Y c #4DCB43",
"T c #50CA46",
"R c #58C448",
"E c #5CC64C",
"W c #5DC64E",
"Q c #55CF49",
"! c #5ED254",
"~ c #64D354",
"^ c #65D157",
"/ c #65D455",
"( c #66D456",
") c #66D258",
"_ c #67D658",
"` c #69D058",
"' c #72D75E",
"] c #7FDF67",
"[ c #85DB6E",
"{ c #86DB6E",
"} c None",
/* pixels */
"}}}}}&3468}}}}}}",
"}}}}1MR{{WN,}}&,",
"}}&r']]]]]]`w,W&",
"}&e_((QHL!~~~))&",
"}&UUUvyqjglPYYT,",
"&tJJx7+&&+hsGJK&",
"+jZVu+}}}&ikVZC&",
"&cxf8+}}&FADSmn+",
"&uap5&}}+&&+X. }",
"+q}}}X}}}}}}}}}}",
"}<}}}}}}}}}}}}}}",
"}}}}}}}}}}}}}}}}",
"}}}}}}}}}}}}}}}}",
"}}}}}}}}}}}}}}}}",
"}}}}}}}}}}}}}}}}",
"}}}}}}}}}}}}}}}}"
};
