/* XPM */
static const char *edit_paste_xpm[] = {
/* columns rows colors chars-per-pixel */
"16 16 98 2 ",
"   c #070707",
".  c #0C0C0C",
"X  c #111111",
"o  c gray8",
"O  c #161616",
"+  c gray9",
"@  c #181818",
"#  c gray10",
"$  c #1B1B1B",
"%  c gray11",
"&  c #1E1E1E",
"*  c gray12",
"=  c gray13",
"-  c #222222",
";  c #232323",
":  c gray14",
">  c #252525",
",  c gray15",
"<  c #272727",
"1  c #282828",
"2  c gray18",
"3  c gray19",
"4  c #313131",
"5  c #323232",
"6  c #353535",
"7  c #393939",
"8  c #3A3A3A",
"9  c gray23",
"0  c #3E3E3E",
"q  c gray27",
"w  c #494949",
"e  c gray29",
"r  c #4B4B4B",
"t  c #4C4D4C",
"y  c #666766",
"u  c #686D6D",
"i  c #848484",
"p  c gray52",
"a  c #AEAEAE",
"s  c #AFAFAF",
"d  c gray69",
"f  c #B1B1B1",
"g  c gray70",
"h  c #B3B4B3",
"j  c gray71",
"k  c #B6B6B6",
"l  c #B7B7B7",
"z  c gray72",
"x  c #BBBBBB",
"c  c #C5C5C5",
"v  c #C8C8C8",
"b  c #CACACA",
"n  c gray80",
"m  c #CDCDCD",
"M  c #CECECE",
"N  c #D5D5D5",
"B  c #DADADA",
"V  c #DCDCDD",
"C  c #DDDEDF",
"Z  c gray87",
"A  c #E1E1E1",
"S  c #E2E3E3",
"D  c gray89",
"F  c #E3E5E5",
"G  c #E4E4E4",
"H  c #E5E6E7",
"J  c #E6E6E6",
"K  c #E8E9E9",
"L  c #E9EAEA",
"P  c #EAEBEB",
"I  c #EBECEC",
"U  c #ECECEC",
"Y  c #ECEDED",
"T  c gray93",
"R  c #EDEEEE",
"E  c #EEEFEF",
"W  c gray94",
"Q  c #F0F1F1",
"!  c #F1F1F1",
"~  c #F1F2F2",
"^  c gray95",
"/  c #F2F3F3",
"(  c #F3F3F3",
")  c #F4F4F4",
"_  c #F4F5F5",
"`  c gray96",
"'  c #F6F6F6",
"]  c gray97",
"[  c #F8F8F8",
"{  c #F8F9F9",
"}  c #F9F9F9",
"|  c gray98",
" . c #FBFBFB",
".. c #FCFCFB",
"X. c #FDFDFD",
"o. c #FEFEFE",
"O. c white",
"+. c None",
/* pixels */
"+.+.+.+.G B B G +.+.+.+.+.+.+.+.",
"+.8 . N p O.O.p N   8 +.+.+.+.+.",
"; r o O.W T T W O.; r ; +.+.+.+.",
"; , n s s f f f f n # ; +.+.+.+.",
"; ; O.W ] ] D k k n   X +.+.+.+.",
"& , O.W ] W s O.O.O.O.O.O.O.O.+.",
"& , O.W W W f O.C D H K P T { +.",
"# , O.W ] ] f O.F L P Q Q W O.+.",
"o , O.W ] ] f O.L T Q W ] ] O.+.",
"o , O.W W { k O.T W ] ] { { O.+.",
"# , O.] ] { k O.W _ ] { O.O.O.+.",
"# ; O.) ] { k O._ ] D h f z B +.",
"; & O.O.O.O.c O.] { C b O.O.y +.",
", 8 4 0 q r , O.]  .C b  .t +.+.",
"u 2 4 4 4 4 o O.O.O.F z 6 +.+.+.",
"+.+.+.+.+.+.+.+.+.+.+.+.+.+.+.+."
};
