/* XPM */
static const char *edit_undo_xpm[] = {
/* columns rows colors chars-per-pixel */
"16 16 109 2 ",
"   c #8C6803",
".  c #8E6902",
"X  c #856708",
"o  c #996505",
"O  c #976B04",
"+  c #9C7603",
"@  c #9E7702",
"#  c #9F7801",
"$  c #95780D",
"%  c #9E7812",
"&  c #A26B03",
"*  c #A07B03",
"=  c #A37D02",
"-  c #A57E00",
";  c #A67F00",
":  c #A67F01",
">  c #A57E06",
",  c #A78001",
"<  c #A78101",
"1  c #A88001",
"2  c #A88101",
"3  c #A98302",
"4  c #A98203",
"5  c #AA8303",
"6  c #A98505",
"7  c #AD8504",
"8  c #AB890E",
"9  c #AD8A0C",
"0  c #B98F08",
"q  c #B0900D",
"w  c #B0910D",
"e  c #B1910D",
"r  c #B49210",
"t  c #B79319",
"y  c #B99C1D",
"u  c #AE8833",
"i  c #CA8403",
"p  c #C18806",
"a  c #C58B07",
"s  c #CD8806",
"d  c #C78208",
"f  c #DB8B04",
"g  c #DC8F0B",
"h  c #D59C0E",
"j  c #C89614",
"k  c #C39D11",
"l  c #C29C16",
"z  c #C49F17",
"x  c #C59019",
"c  c #DE961A",
"v  c #E09C1F",
"b  c #DAB316",
"n  c #D7BA11",
"m  c #D1B218",
"M  c #C39336",
"N  c #D69D34",
"B  c #C8A321",
"V  c #C4A924",
"C  c #C5AC27",
"Z  c #CAAA26",
"A  c #DEAA21",
"S  c #D5B920",
"D  c #D0B228",
"F  c #C9A235",
"G  c #C3A935",
"H  c #E2A227",
"J  c #E3A733",
"K  c #E4A839",
"L  c #E8B73A",
"P  c #E8B73E",
"I  c #E0B93F",
"U  c #E1C92E",
"Y  c #C8AD44",
"T  c #E3BB40",
"R  c #E8B448",
"E  c #DDC548",
"W  c #E7CF4E",
"Q  c #ECC155",
"!  c #ECC156",
"~  c #E6C850",
"^  c #EEC854",
"/  c #EBCD55",
"(  c #E9CE56",
")  c #EAC65B",
"_  c #EBCB5D",
"`  c #EECA5C",
"'  c #EBCF5C",
"]  c #EFCC5F",
"[  c #EBD354",
"{  c #EED159",
"}  c #EFD363",
"|  c #EFD463",
" . c #EED164",
".. c #F3D965",
"X. c #F3DA65",
"o. c #F1D967",
"O. c #F3D966",
"+. c #F3DB66",
"@. c #F3DE64",
"#. c #F5DF67",
"$. c #F3D969",
"%. c #F3DA68",
"&. c #F3DC68",
"*. c #F4DF69",
"=. c #F7E567",
"-. c #F5E069",
";. c #F9EC71",
":. c #F9EC72",
">. c None",
/* pixels */
">.>.>.>.>.3 r G Y t 3 >.>.>.>.>.",
"9 y >.>.V [ #.;.;.#.[ B >.>.>.>.",
"w o.C E #.=.=.=.=.=.=.-.T 5 >.>.",
"w $.$.&.+.o.] P L ^ o.o.$.F : >.",
"w  .} } / A h j x s H ` ] ) % >.",
"w _ ' ( b k $ = * X o v Q Q u - ",
"w T ~ W U n 9 >.>.>.> i J R M + ",
"6 l z Z D S m 4 >.>.3 a c K N   ",
">.: : : : : : : >.>.3 p f g d   ",
">.>.>.>.>.>.>.>.>.>.7 >.>.>.& * ",
">.>.>.>.>.>.>.>.- 3 0 >.>.>.O - ",
">.>.>.>.>.>.>.>.>.>.>.>.>.>.+ >.",
">.>.>.>.>.>.>.>.>.>.>.>.>.>.>.>.",
">.>.>.>.>.>.>.>.>.>.>.>.>.>.>.>.",
">.>.>.>.>.>.>.>.>.>.>.>.>.>.>.>.",
">.>.>.>.>.>.>.>.>.>.>.>.>.>.>.>."
};
