/* XPM */
static const char *edit_delete_xpm[] = {
/* columns rows colors chars-per-pixel */
"16 16 136 2 ",
"   c #242727",
".  c #272C2E",
"X  c #282D2F",
"o  c #292E30",
"O  c #2B3132",
"+  c #2B3133",
"@  c #2E3434",
"#  c #2E3436",
"$  c #313432",
"%  c #333734",
"&  c #323838",
"*  c #353939",
"=  c #373A38",
"-  c #393E3B",
";  c #393D3C",
":  c #3C4041",
">  c #424745",
",  c #434844",
"<  c #454B47",
"1  c #424749",
"2  c #4C5052",
"3  c #515756",
"4  c #53585A",
"5  c #555B59",
"6  c #54595A",
"7  c #575C5E",
"8  c #585E5B",
"9  c #5A5F60",
"0  c #5C6362",
"q  c #5F6764",
"w  c #616866",
"e  c #64696A",
"r  c #686D6E",
"t  c #6A716D",
"y  c #69706E",
"u  c #6B7171",
"i  c #6E7672",
"p  c #6E7774",
"a  c #6F7875",
"s  c #727373",
"d  c #7A837E",
"f  c #7E8785",
"g  c gray53",
"h  c #818A88",
"j  c #878B88",
"k  c #86898A",
"l  c #838C89",
"z  c #848C89",
"x  c #858D8A",
"c  c #898D8D",
"v  c #8B8F8D",
"b  c #8B8F8F",
"n  c #8D948F",
"m  c #899290",
"M  c #939594",
"N  c #929595",
"B  c #909894",
"V  c #919894",
"C  c #979A9B",
"Z  c #969C99",
"A  c #979F9B",
"S  c #979E9C",
"D  c #989B99",
"F  c #9B9C9B",
"G  c #9B9D9B",
"H  c #9A9C9C",
"J  c #A0A3A1",
"K  c #A1A4A4",
"L  c #A0A7A4",
"P  c #A2A8A0",
"I  c #A2A8A3",
"U  c #AAAFA7",
"Y  c #ABB0A8",
"T  c #AEB3AD",
"R  c #ADAFB0",
"E  c #AFB1B0",
"W  c #AFB5B3",
"Q  c #B0B6B4",
"!  c #B3B8B0",
"~  c #B3B8B3",
"^  c #B6BBB3",
"/  c #B5BAB5",
"(  c #BABFB7",
")  c #B7BBBB",
"_  c #B9BBBB",
"`  c #BCC0BF",
"'  c #BFC0BF",
"]  c #BEC1BF",
"[  c #BFC1C1",
"{  c #C2C5C4",
"}  c #C7CAC4",
"|  c #CBCEC7",
" . c #CBCECB",
".. c #CBCFCB",
"X. c #CBCECD",
"o. c #CCCFCF",
"O. c #CCD0CF",
"+. c #D2D5CD",
"@. c #CFD2D0",
"#. c #D1D4D2",
"$. c #D2D5D3",
"%. c #D2D6D2",
"&. c #D4D7D5",
"*. c #D6D9D2",
"=. c #D6D9D3",
"-. c #D5D8D6",
";. c #D5D8D7",
":. c #D6D9D7",
">. c #D9DBD2",
",. c #D9DBD4",
"<. c #D9DBD6",
"1. c #D8DBD7",
"2. c #DADCD6",
"3. c #D8DBD8",
"4. c #DDDED9",
"5. c #DDDFDC",
"6. c #DFE0D8",
"7. c #E6E6DD",
"8. c #E0E2E2",
"9. c #E3E5E0",
"0. c #E5E5E1",
"q. c #E5E6E0",
"w. c #E3E5E4",
"e. c #E3E5E5",
"r. c #E4E5E5",
"t. c #E9EAE3",
"y. c #ECEDE9",
"u. c #EEEFEC",
"i. c #EFF0EE",
"p. c #F0F0EB",
"a. c #F0F0ED",
"s. c #F4F4EF",
"d. c #F4F3F1",
"f. c #F3F4F0",
"g. c #F4F4F1",
"h. c None",
/* pixels */
"h.h.h.h.h.# # # # # + h.h.h.h.h.",
"h.h.h.# e B t.u.i.$.{ D # h.h.h.",
"h.h.1 <.} i >   $ d ~ ....# h.h.",
"h.# =.+.2.T 0 * * 8 n U $./ # h.",
"h.# 0.a.y.9.4.| ~ P ! ` Y  .+ h.",
"h.# 8.7.s.d.f.s.p.7.*.B n c # h.",
"h.# H { ` >.6.<.O.z C k 6 # # h.",
"h.h.# 9 b R r.e.0.K r : 2 # h.h.",
"h.h.# u % @ + + o . . - N # h.h.",
"h.h.# W W y A y - q % w D # h.h.",
"h.h.# ) 3.f $.f 3 m , a K # h.h.",
"h.h.# ) 3.x 3.I 5 A < a J # h.h.",
"h.h.# ) :.l <.I 5 H < p D # h.h.",
"h.h.# E O._ 4.I 5 L j N s # h.h.",
"h.h.h.# 7 G :.O.[ ` g 5 # h.h.h.",
"h.h.h.h.h.# # # # # # h.h.h.h.h."
};
