/* XPM */
static const char *edit_cut_xpm[] = {
/* columns rows colors chars-per-pixel */
"16 16 18 1 ",
"  c black",
". c #626262",
"X c #6A6A6A",
"o c gray42",
"O c #8B8B8B",
"+ c #D2D2D2",
"@ c LightGray",
"# c #D7D7D7",
"$ c gray85",
"% c gray86",
"& c #EEEEEE",
"* c gray94",
"= c gray96",
"- c #F8F8F8",
"; c #F9F9F9",
": c #FBFBFB",
"> c #FEFEFE",
", c None",
/* pixels */
",,,,,,,,,,,,,,,,",
",,,,,o,,,,o,,,,,",
",,,,,%,,,,%,,,,,",
",,,,,>o,,o>,,,,,",
",,,,,#%,,%$,,,,,",
",,,,,.-oo-.,,,,,",
",,,,,,@$$#,,,,,,",
",,,,,,.--.,,,,,,",
",,,,,,,&*,,,,,,,",
",,,,,,o==o,,,,,,",
",,,,,,@@@@,,,,,,",
",,,,  O..O  ,,,,",
",,     ,,     ,,",
",  ,  ,,,,  ,  ,",
", ,, ,,,,,, ,, ,",
",   ,,,,,,,,   ,"
};
