/* XPM */
static const char *edit_find_xpm[] = {
/* columns rows colors chars-per-pixel */
"16 16 64 1 ",
"  c black",
". c #010101",
"X c #040404",
"o c gray4",
"O c #0B0B0B",
"+ c #0E0E0E",
"@ c #101010",
"# c #111111",
"$ c gray7",
"% c #131313",
"& c #151515",
"* c #161616",
"= c gray9",
"- c #181818",
"; c #1B1B1B",
": c gray11",
"> c gray12",
", c #36281E",
"< c #36281F",
"1 c #38281F",
"2 c #232323",
"3 c #262523",
"4 c gray14",
"5 c #272727",
"6 c #282828",
"7 c gray17",
"8 c #2C2C2C",
"9 c #2D2D2D",
"0 c #362A24",
"q c #392C25",
"w c #3C3028",
"e c #323232",
"r c #343231",
"t c gray21",
"y c #482100",
"u c #4E2909",
"i c #53331C",
"p c #59483D",
"a c #454240",
"s c gray29",
"d c gray30",
"f c #4E4E4E",
"g c #555352",
"h c #565656",
"j c #695746",
"k c #68584D",
"l c #766252",
"z c #686868",
"x c DimGray",
"c c #6A6A6A",
"v c #72706F",
"b c gray45",
"n c gray47",
"m c #844007",
"M c #86430B",
"N c #90490B",
"B c #845734",
"V c #875B3B",
"C c #90613D",
"Z c #91623F",
"A c #957254",
"S c #817E7D",
"D c #AB917A",
"F c None",
/* pixels */
"FFFFFFFFFFFFFFFF",
"FFFFFFFFFFFFFFFF",
"FFFFF  FF  FFFFF",
"FFFF2z4FF4z2FFFF",
"FFF 88&&&&68 FFF",
"FF;b8s&zh&d8b;FF",
"F tdzed# dezdt F",
"F&zSn46;;62nSz&F",
" hqupv:64:vp10g ",
"OwiCVk;  &kBZiqX",
" ,yiNl+FF#lNmu, ",
" 3jADp FF aDAj3 ",
"F #rO FFFF Or# F",
"FFFFFFFFFFFFFFFF",
"FFFFFFFFFFFFFFFF",
"FFFFFFFFFFFFFFFF"
};
