/* XPM */
static const char *edit_select_all_xpm[] = {
/* columns rows colors chars-per-pixel */
"16 16 86 1 ",
"  c #535453",
". c #545554",
"X c #5B5C5A",
"o c #276CA1",
"O c #6193B9",
"+ c #46AFFF",
"@ c #47AFFF",
"# c #49B1FF",
"$ c #4AB1FF",
"% c #4BB1FF",
"& c #4CB1FF",
"* c #4DB2FF",
"= c #4EB2FF",
"- c #4FB2FF",
"; c #4EB3FF",
": c #4FB3FF",
"> c #4FB4FF",
", c #50B3FF",
"< c #51B4FF",
"1 c #52B4FF",
"2 c #54B5FF",
"3 c #55B5FF",
"4 c #55B6FF",
"5 c #56B6FF",
"6 c #57B6FF",
"7 c #59B7FE",
"8 c #58B7FF",
"9 c #59B7FF",
"0 c #5EB9FF",
"q c #5FBAFF",
"w c #61BBFF",
"e c #62BBFF",
"r c #6EC0FF",
"t c #6FC1FF",
"y c #7AC6FF",
"u c #7DC7FF",
"i c #7EC7FF",
"p c #7FC8FF",
"a c #8293A1",
"s c #B1ADAA",
"d c #B4B4B4",
"f c #C3C0BC",
"g c #80C8FF",
"h c #91CFFF",
"j c #92D0FE",
"k c #99D3FF",
"l c #A3D7FF",
"z c #B1DDFF",
"x c #BCE2FF",
"c c #CFD7DB",
"v c #D8DDE0",
"b c #C9E7FF",
"n c #CFEAFF",
"m c #D0EBFF",
"M c #D3ECFF",
"N c #DDF0FF",
"B c #DEF0FF",
"V c #E3E6E9",
"C c #E1F2FF",
"Z c #E5F4FF",
"A c #E9F6FF",
"S c #EDF7FF",
"D c #FCF6F2",
"F c #FFF9F5",
"G c #FFFDF4",
"H c #FFFFF7",
"J c AliceBlue",
"K c #F3F9FF",
"L c #F4F9FF",
"P c #F8F8F8",
"I c gray98",
"U c #FBFBFB",
"Y c #FFFDF8",
"T c #FFFFF8",
"R c #FFFFF9",
"E c #FFFFFA",
"W c #FFFFFB",
"Q c gray99",
"! c #FDFDFD",
"~ c #FFFFFC",
"^ c #FFFFFD",
"/ c #FDFEFF",
"( c #FEFEFE",
") c #FFFFFE",
"_ c white",
"` c None",
/* pixels */
"````````````````",
"``____________``",
"``_0*%*80**%D_``",
"``_hbJSnLA_tF_``",
"``_<8883p33<T_``",
"``_*gy38p3883_``",
"``_jZCBzmB_Mi_``",
"``_@**,w*****_``",
"``_GTTTTT_____``",
"``_%we,0w*>3T_``",
"``_kALl_xVaOfv``",
"``_@**<3<o___ ``",
"``_TTT___s__X```",
"``_PI_Q_Id_X````",
"``_______c.`````",
"````````````````"
};
