/* XPM */
static const char *edit_clear_xpm[] = {
/* columns rows colors chars-per-pixel */
"16 16 108 2 ",
"   c #6C3124",
".  c #991711",
"X  c #BD1212",
"o  c #BD1817",
"O  c #8A231E",
"+  c #A62013",
"@  c #AB211A",
"#  c #A32C1E",
"$  c #B62C1F",
"%  c #842D24",
"&  c #9F2926",
"*  c #B22824",
"=  c #B92B27",
"-  c #A33331",
";  c #AB3731",
":  c #CB0907",
">  c #C0160F",
",  c #CE100A",
"<  c #CC140D",
"1  c #E70A09",
"2  c #E01713",
"3  c #D02F23",
"4  c #D92E20",
"5  c #D82A27",
"6  c #894131",
"7  c #8F4232",
"8  c #955036",
"9  c #C7403B",
"0  c #CE4C3A",
"q  c #8F7048",
"w  c #8D714E",
"e  c #97774F",
"r  c #9A6C56",
"t  c #8D7556",
"y  c #917555",
"u  c #9A7A52",
"i  c #9B7C53",
"p  c #9F7D51",
"a  c #9D7B54",
"s  c #9B7F5A",
"d  c #AF6047",
"f  c #A17D51",
"g  c #B4795E",
"h  c #977F63",
"j  c #CB4341",
"k  c #C64B46",
"l  c #CE4F4C",
"z  c #CE5955",
"x  c #DD6766",
"c  c #D86864",
"v  c #DE6B68",
"b  c #DF6E69",
"n  c #9F845F",
"m  c #A48157",
"M  c #A78456",
"N  c #A88357",
"B  c #AA8757",
"V  c #A08158",
"C  c #A3815A",
"Z  c #A5835B",
"A  c #A1845C",
"S  c #A7865D",
"D  c #A88459",
"F  c #AA8758",
"G  c #AA885B",
"H  c #AA885E",
"J  c #B0885C",
"K  c #B3885C",
"L  c #B08A5D",
"P  c #B5895C",
"I  c #B28E5C",
"U  c #B28E5E",
"Y  c #B48F5D",
"T  c #B88E5A",
"R  c #B88C5D",
"E  c #B5905D",
"W  c #B8915E",
"Q  c #BA915E",
"!  c #BB905F",
"~  c #BA945F",
"^  c #9F8567",
"/  c #AC8A62",
"(  c #A38D6E",
")  c #A58E6E",
"_  c #B68266",
"`  c #B28F60",
"'  c #BC8F62",
"]  c #AF9169",
"[  c #AD916B",
"{  c #AC906E",
"}  c #AD936E",
"|  c #B39165",
" . c #BE9161",
".. c #BB9463",
"X. c #BD9664",
"o. c #B3946D",
"O. c #B39B77",
"+. c #B79B74",
"@. c #B89D77",
"#. c #B69C79",
"$. c #B39E7D",
"%. c #B99F7B",
"&. c #B9A07C",
"*. c #C59961",
"=. c #C0A57F",
"-. c #AB9B82",
";. c #C8AF8C",
":. c None",
/* pixels */
":.:.:.:.:.:.:.:.:.:.#.:.:.:.:.:.",
":.:.:.:.:.:.:.:.:.$.;.:.:.:.:.:.",
":.:.:.:.:.:.:.:.:.&.:.:.:.:.:.:.",
":.:.:.:.:.:.:.:.-.%.:.:.:.:.:.:.",
":.:.:.:.:.:.:.:.} h :.:.:.:.:.:.",
":.:.:.:.:.:.} @.^ r :.:.:.:.:.:.",
":.:.:.:.:.n =.O./ _ = :.:.9 b :.",
":.:.:.:.:.[ +.o.H g c O ; x v * ",
":.:.:.:.w ) ) Z S d j k l z @ :.",
":.:.:.u A [ s y t 7 $ X o + :.:.",
":.:.:.p | A u M s # , > : < . :.",
":.:.Y a N J p I m 4 3   % 1 2 - ",
":.B q ..P m ! E P 0 6 :.:.& 5 :.",
":.F '  .! E *.Q X.8 :.:.:.:.:.:.",
":.:.G J Y ~ T R ` :.:.:.:.:.:.:.",
":.:.:.:.:.:.f :.:.:.:.:.:.:.:.:."
};
