/* XPM */
static const char *format_stroke_color_xpm[] = {
/* columns rows colors chars-per-pixel */
"16 16 65 1 ",
"  c #010101",
". c gray2",
"X c #0E0E0E",
"o c #0B1111",
"O c #131313",
"+ c gray8",
"@ c #171716",
"# c #1D1D1D",
"$ c #1E1E1E",
"% c gray12",
"& c #2A261A",
"* c #162323",
"= c #1D2424",
"- c #1B2C2C",
"; c #0F3131",
": c #202020",
"> c #222222",
", c #232323",
"< c #212424",
"1 c gray14",
"2 c #222828",
"3 c gray16",
"4 c gray17",
"5 c #2D2D2D",
"6 c #353535",
"7 c #393939",
"8 c #49301E",
"9 c #4E273A",
"0 c #5C2531",
"q c #662226",
"w c #693A34",
"e c #4F6F2E",
"r c #456238",
"t c #736433",
"y c #786836",
"u c #342A4B",
"i c #282D55",
"p c #2B3D53",
"a c #22335A",
"s c #402842",
"d c #33494A",
"f c #3B4D4D",
"g c #3C5541",
"h c gray27",
"j c #605945",
"k c #686868",
"l c red",
"z c #827B68",
"x c #00CC00",
"c c #AB8F33",
"v c #99FF00",
"b c #C6AF66",
"n c #330098",
"m c #340098",
"M c #340099",
"N c #670098",
"B c #660099",
"V c #0033CC",
"C c #0034CD",
"Z c #CC0099",
"A c #808080",
"S c #818181",
"D c gray58",
"F c #A9A395",
"G c None",
/* pixels */
"G.GGGGGGGGGGGGGG",
"X4SGGGGGGGGGGGGG",
"GDk GCVGGnmGGGGG",
"G42=oGVGGnmGGGGG",
"GG;-*6GGGGGGNNGG",
"GGGf<%hGGGGGNGGG",
"GGGGS1%GGGGGGGGG",
"GxxGG7,5GGGGGGZZ",
"GxGGGG,,4GGGGGZG",
"GGGGGGO,%%GGGGGG",
"GvvGGGGO%O&GGGlG",
"GvvGGGGG@jcGGGlG",
"GGGGGGGGGFbyGGGG",
"GGGGGGGGGGztGGGG",
"GGGGGGGGGGGw8GGG",
"Gergdpaius90qGGG"
};
