/* XPM */
static const char *format_indent_more_xpm[] = {
/* columns rows colors chars-per-pixel */
"16 16 34 1 ",
"  c #921B18",
". c #A22320",
"X c #BE3936",
"o c #D35451",
"O c #D35653",
"+ c #D45552",
"@ c #D55653",
"# c #E57471",
"$ c #E67572",
"% c #E67772",
"& c #E67674",
"* c #498DC7",
"= c #4C8ECC",
"- c #4E8FCC",
"; c #4B90CB",
": c #F39795",
"> c #F39B97",
", c #F49A98",
"< c #F49A9A",
"1 c #F39D99",
"2 c #F8AEAA",
"3 c #F8AEAC",
"4 c #F8B0AC",
"5 c #F8B1AC",
"6 c #F8B2AE",
"7 c #F8B3B0",
"8 c #F9B5B1",
"9 c #F9B7B3",
"0 c #FABFBA",
"q c #FBCAC7",
"w c #FCD2D2",
"e c #FEFEFE",
"r c white",
"t c None",
/* pixels */
"t-************-t",
"t*rrrrrrrrrrrr;t",
"t*rrrrrrrrrrrr;t",
"t*rrrrr;;;;;rr;t",
"t*rrrrr0rrrrrr*t",
"t*rrrrr.9rrrrr;t",
"t*rrrrr. 9rrrr;t",
"t*w<&@X.  7rrr;t",
"t*w>&oX.   6rr*t",
"t*w1$@X.    3r;t",
"t*w>$oX.   2rr;t",
"t*w>$oX.  2rrr;t",
"t*rrrrr. 6rrrr;t",
"t*rrrrr.4rrrrr;t",
"t*rrrrrqrrrrrr;t",
"t-;;;;;;;*;;;*-t"
};
