/* XPM */
static const char *go_bottom_xpm[] = {
/* columns rows colors chars-per-pixel */
"16 16 86 1 ",
"  c #122742",
". c #102746",
"X c #1F3344",
"o c #1E3659",
"O c #233847",
"+ c #263F5E",
"@ c #1E3962",
"# c #233E60",
"$ c #29446B",
"% c #384D6A",
"& c #35576D",
"* c #36576D",
"= c #224470",
"- c #274873",
"; c #3A577D",
": c #365788",
"> c #37598C",
", c #3A5E8F",
"< c #3C5E8E",
"1 c #3C5F8F",
"2 c #3D5F8F",
"3 c #386785",
"4 c #386885",
"5 c #2558A5",
"6 c #426084",
"7 c #456386",
"8 c #44628A",
"9 c #42628F",
"0 c #4F6B8C",
"q c #526B8D",
"w c #526D8E",
"e c #536E8F",
"r c #4D6D95",
"t c #4E6D96",
"y c #4F709B",
"u c #4F719C",
"i c #547091",
"p c #567295",
"a c #567395",
"s c #597497",
"d c #5E7797",
"f c #577598",
"g c #54749D",
"h c #54749E",
"j c #59789B",
"k c #617D9C",
"l c #617E9D",
"z c #627E9D",
"x c #436CA2",
"c c #486FA4",
"v c #4E73A9",
"b c #4F74AA",
"n c #5071A0",
"m c #5877A4",
"M c #5778A2",
"N c #5C7CAB",
"B c #5C7DAC",
"V c #5A80B7",
"C c #5B80B7",
"Z c #5D83B8",
"A c #5D83B9",
"S c #6181AF",
"D c #6383AE",
"F c #6C8AAB",
"G c #6E8CAB",
"H c #6383B0",
"J c #6384B3",
"K c #6586B4",
"L c #678BB3",
"P c #6B8FB7",
"I c #6187BD",
"U c #648ABC",
"Y c #7094BE",
"T c #6B91C2",
"R c #6C90C6",
"E c #6C91C6",
"W c #7498C1",
"Q c #7599CE",
"! c #799DD2",
"~ c #7A9ED2",
"^ c #7FA6D5",
"/ c #81A8D7",
"( c #88ABDE",
") c #92B5E7",
"_ c #93B5E7",
"` c None",
/* pixels */
"`````HugyyD`````",
"````5xkkDdc`````",
"`>0eiafjffaiedN`",
"``o;8rgMjgrsq%``",
"```$9nBJKHm:@```",
"```.<vVIICb2 ```",
"````#ZRQQRZ+````",
"`````6!((!7`````",
"``````L))P``````",
"``````X^/O``````",
"```````**```````",
"````````````````",
"```````YW```````",
"``````,GF<``````",
"``````=UT-``````",
"```````44```````"
};
