/* XPM */
static const char *go_down_xpm[] = {
/* columns rows colors chars-per-pixel */
"16 16 100 2 ",
"   c #070E17",
".  c #030B18",
"X  c #070E18",
"o  c #040E1D",
"O  c #040F1F",
"+  c #051327",
"@  c #0E1725",
"#  c #0F1927",
"$  c #0C203C",
"%  c #092041",
"&  c #0B2244",
"*  c #0E2444",
"=  c #0B2449",
"-  c #1E324E",
";  c #0D2952",
":  c #0F2B55",
">  c #0F2D59",
",  c #112D57",
"<  c #102E5B",
"1  c #11305D",
"2  c #11315F",
"3  c #1B365E",
"4  c #243958",
"5  c #123261",
"6  c #143465",
"7  c #143566",
"8  c #153769",
"9  c #15376B",
"0  c #16396E",
"q  c #173C72",
"w  c #173D74",
"e  c #1A427E",
"r  c #254470",
"t  c #264677",
"y  c #2E4B72",
"u  c #2C4B7A",
"i  c #345178",
"p  c #1D4887",
"a  c #1F4D90",
"s  c #385782",
"d  c #3B5D8E",
"f  c #204E91",
"g  c #204E93",
"h  c #214F95",
"j  c #215097",
"k  c #225198",
"l  c #22529A",
"z  c #415E83",
"x  c #445C80",
"c  c #446287",
"v  c #4B6387",
"b  c #4A688D",
"n  c #476894",
"m  c #44689C",
"M  c #4C6F9F",
"N  c #526F91",
"B  c #506E93",
"V  c #557293",
"C  c #537297",
"Z  c #567394",
"A  c #57769B",
"S  c #58769C",
"D  c #5F7C9B",
"F  c #59789E",
"G  c #607D9B",
"H  c #617E9C",
"J  c #627E9C",
"K  c #496EA3",
"L  c #4C70A3",
"P  c #5173A1",
"I  c #5474A2",
"U  c #5676A4",
"Y  c #5578A7",
"T  c #5779A8",
"R  c #5378AF",
"E  c #5478AC",
"W  c #567CB2",
"Q  c #5C81B8",
"!  c #5D83B9",
"~  c #6E8BA7",
"^  c #6F8CA8",
"/  c #708DA9",
"(  c #7D9AB4",
")  c #7E9BB5",
"_  c #7E9CB6",
"`  c #7F9CB6",
"'  c #668CC2",
"]  c #6C90C6",
"[  c #7297CB",
"{  c #7398CC",
"}  c #759ACE",
"|  c #7A9ED2",
" . c #85A2BC",
".. c #86A3BD",
"X. c #87A4BE",
"o. c #83A7DA",
"O. c #88ABDE",
"+. c #89ACDF",
"@. c #8CAFE2",
"#. c None",
/* pixels */
"#.#.#.#.#.#.#.#.#.#.#.#.#.#.#.#.",
"#.#.#.#.#.l l h h f f #.#.#.#.#.",
"#.#.#.#.#.f ....X.X.p #.#.#.#.#.",
"#.#.#.#.#.p ( ) _ _ e #.#.#.#.#.",
"#.#.#.#.#.e ~ ~ / / w #.#.#.#.#.",
"#.#.#.#.#.q D G J J 8 #.#.#.#.#.",
"#.#.0 8 7 7 N V Z Z 5 5 1 < > #.",
"#.#.5 i z b C S S A B c y ; #.#.",
"#.#., 3 s n P Y T K d t < = #.#.",
"#.#.#.* r m R ! ! W K u % #.#.#.",
"#.#.#.#.$ K ' [ } ] T * #.#.#.#.",
"#.#.#.#.+ - [ O.@.| 4 #.#.#.#.#.",
"#.#.#.#.#.O x o.+.v O #.#.#.#.#.",
"#.#.#.#.#.#.  I U   #.#.#.#.#.#.",
"#.#.#.#.#.#.#.# @ #.#.#.#.#.#.#.",
"#.#.#.#.#.#.#.. . #.#.#.#.#.#.#."
};
