/* XPM */
static const char *go_first_view_xpm[] = {
/* columns rows colors chars-per-pixel */
"16 16 116 2 ",
"   c #081D3E",
".  c #081E40",
"X  c #082247",
"o  c #0B2346",
"O  c #09264F",
"+  c #0B2A57",
"@  c #0E2B58",
"#  c #0F2C58",
"$  c #1A355E",
"%  c #0E2F60",
"&  c #113161",
"*  c #153764",
"=  c #163667",
"-  c #103369",
";  c #18396B",
":  c #1B3E6D",
">  c #123971",
",  c #183D73",
"<  c #143D79",
"1  c #2B4A74",
"2  c #2C4B74",
"3  c #234679",
"4  c #244E7D",
"5  c #2D4C7B",
"6  c #294A7D",
"7  c #314F7B",
"8  c #355279",
"9  c #174282",
"0  c #19468A",
"q  c #1C4C93",
"w  c #2B5083",
"e  c #2E5285",
"r  c #2E5788",
"t  c #36598C",
"y  c #214F94",
"u  c #21529D",
"i  c #395E92",
"p  c #325C99",
"a  c #376093",
"s  c #2355A1",
"d  c #2255A2",
"f  c #2356A2",
"g  c #2257A5",
"h  c #2B5BA1",
"j  c #2E5FA7",
"k  c #265AAA",
"l  c #265BAA",
"z  c #4D6C93",
"x  c #43689D",
"c  c #446A9E",
"v  c #5B7898",
"b  c #4469A0",
"n  c #416EAC",
"m  c #4D73A9",
"M  c #4F75AF",
"N  c #577EAE",
"B  c #577DB4",
"V  c #5D81B3",
"C  c #5B81B8",
"Z  c #5981BB",
"A  c #5883BA",
"S  c #5A85B9",
"D  c #5F84BC",
"F  c #6683A3",
"G  c #6283A8",
"H  c #6383AC",
"J  c #7D91AF",
"K  c #6F8CB4",
"L  c #6186BE",
"P  c #7090B1",
"I  c #7F9DB8",
"U  c #7B9BBF",
"Y  c #628AC3",
"T  c #688DC3",
"R  c #6E92C6",
"E  c #6990C9",
"W  c #6C98CC",
"Q  c #7496C1",
"!  c #7195CB",
"~  c #7399CF",
"^  c #779BCF",
"/  c #789BCF",
"(  c #7CAEE0",
")  c #92A1B5",
"_  c #85A3C0",
"`  c #89A8C7",
"'  c #84A5CA",
"]  c #82A4CE",
"[  c #8CACCB",
"{  c #89AACF",
"}  c #93B0C8",
"|  c #94B3CB",
" . c #91B0CF",
".. c #95B3CD",
"X. c #8AACD5",
"o. c #81A5D8",
"O. c #84A8DB",
"+. c #8FB0D4",
"@. c #8FB0DB",
"#. c #91B4D4",
"$. c #99B8D0",
"%. c #99B8D2",
"&. c #B1B9C6",
"*. c #89ACE0",
"=. c #8DB0E3",
"-. c #8EB1E4",
";. c #98BEEF",
":. c #9ABEEF",
">. c #A5C3D8",
",. c #A8C6DA",
"<. c #97C1F1",
"1. c #ABC3E6",
"2. c #AFC5E5",
"3. c #D3D7DE",
"4. c #C3E1F0",
"5. c None",
/* pixels */
"5.5.5.5.5.5.5.5.5.5.5.5.5.5.5.5.",
"5.5.5.5.5.5.5.5.5.5.5.5.5.l l 5.",
"5.2./ 1.5.5.5.5.5.5.5.5.s Z u 5.",
"5.T 3.E 5.5.5.5.5.5.5.j #.4.q 5.",
"5.D &.Y 5.5.5.5.5.g n %.>.>.0 5.",
"5.B ) Z 5.5.5.5.s V }  ...$.9 5.",
"5.m J M 5.5.5.h G I ) ' [ #.< 5.",
"5.c K b 5.s p v F P U ' { #.> 5.",
"5.a S i 5.y w 8 z H U / X.@.- 5.",
"5.r W e 5.5.5., 4 x Z ! O.-.& 5.",
"5.4 ( 3 5.5.5.5.= t L ^ =.:.+ 5.",
"5.: ;.; 5.5.5.5.5.# 5 R o.*.O 5.",
"5.= <.& 5.5.5.5.5.5.5.$ V ~ X 5.",
"5.2 @ 1 5.5.5.5.5.5.5.5.o 8 . 5.",
"5.5.5.5.5.5.5.5.5.5.5.5.5.  . 5.",
"5.5.5.5.5.5.5.5.5.5.5.5.5.5.5.5."
};
