/* XPM */
static const char *go_first_xpm[] = {
/* columns rows colors chars-per-pixel */
"16 16 97 2 ",
"   c #10263B",
".  c #102A43",
"X  c #122F49",
"o  c #122D56",
"O  c #183B6F",
"+  c #204060",
"@  c #22446F",
"#  c #23477A",
"$  c #2D4F7F",
"%  c #2C5670",
"&  c #2C517B",
"*  c #3E5A77",
"=  c #36547B",
"-  c #28518F",
";  c #335880",
":  c #3D5A82",
">  c #335788",
",  c #3A5F8D",
"<  c #395D8F",
"1  c #356083",
"2  c #386484",
"3  c #3C6988",
"4  c #3E6195",
"5  c #3D6397",
"6  c #3F6594",
"7  c #3A64A0",
"8  c #3964A2",
"9  c #426087",
"0  c #4D688A",
"q  c #4C6A8C",
"w  c #516A8A",
"e  c #556E8C",
"r  c #4D6B92",
"t  c #597696",
"y  c #657B97",
"u  c #527DA7",
"i  c #5378AE",
"p  c #527BB2",
"a  c #567CB2",
"s  c #627FA0",
"d  c #6282A9",
"f  c #6686A9",
"g  c #6D8BAB",
"h  c #6E8CAB",
"j  c #6C8BAD",
"k  c #6387B3",
"l  c #6386B9",
"z  c #6289BB",
"x  c #6D91BD",
"c  c #6F91BD",
"v  c #7896B3",
"b  c #7696BA",
"n  c #7494BC",
"m  c #7F9EBC",
"M  c #5C92C1",
"N  c #678CC2",
"B  c #6A8FC4",
"V  c #6D91C3",
"C  c #7A99C1",
"Z  c #7297CC",
"A  c #7D9FCE",
"S  c #739DD0",
"D  c #779CD0",
"F  c #799DD1",
"G  c #7B9FD3",
"H  c #7FA0C5",
"J  c #7EA2D6",
"K  c #85A5C4",
"L  c #8BA9C3",
"P  c #81A2CA",
"I  c #86A7CD",
"U  c #86A8CD",
"Y  c #88A8C8",
"T  c #89A9C9",
"R  c #8AAACA",
"E  c #8EADC8",
"W  c #8CACCD",
"Q  c #91B0CB",
"!  c #92B1CD",
"~  c #94B2CC",
"^  c #8AABD1",
"/  c #8BABD3",
"(  c #8AACD1",
")  c #8CACD7",
"_  c #85A9DC",
"`  c #87AADD",
"'  c #87AEDF",
"]  c #88ACDE",
"[  c #95ADD1",
"{  c #9DBBD3",
"}  c #9DBCD3",
"|  c #90B0D8",
" . c #91B4E6",
".. c #94B8E9",
"X. c #AECDE1",
"o. c #BFDBEE",
"O. c None",
/* pixels */
"O.O.O.O.O.O.O.O.O.O.O.O.O.O.O.O.",
"O.O.O.O.O.O.O.O.O.O.O.O.O.[ O.O.",
"O.O.O.O.O.O.O.O.O.O.O.O.c o.- O.",
"O.O.O.O.O.O.O.O.O.O.8 Y X.X.O O.",
"O.O.O.O.O.O.O.O.O.p ~ { } } o O.",
"O.O.O.O.O.O.O.O.k L E ! ! ! e y ",
"O.c C O.O.O.8 f v m K T W W T 0 ",
"< h g 6 O.5 t s j b H U ( ^ I w ",
"@ l V & O.> = r d n P / | ) A : ",
"O.2 3 O.O.O.# & 5 i N F ` ' G 9 ",
"O.O.O.O.O.O.O.O.< a V J  ...q * ",
"O.O.O.O.O.O.O.O.O.= z S ` '   O.",
"O.O.O.O.O.O.O.O.O.O.+ u Z J . O.",
"O.O.O.O.O.O.O.O.O.O.O.O.; M X O.",
"O.O.O.O.O.O.O.O.O.O.O.O.O.% O.O.",
"O.O.O.O.O.O.O.O.O.O.O.O.O.O.O.O."
};
