/* XPM */
static const char *go_jump_locationbar_xpm[] = {
/* columns rows colors chars-per-pixel */
"16 16 81 1 ",
"  c #071E3F",
". c #081F40",
"X c #081E43",
"o c #092249",
"O c #092C61",
"+ c #0F3668",
"@ c #193964",
"# c #15336F",
"$ c #143D78",
"% c #1F4573",
"& c #1D4779",
"* c #2A4871",
"= c #194388",
"- c #194995",
"; c #335786",
": c #36598C",
"> c #21539F",
", c #22549D",
"< c #1F53A1",
"1 c #2354A0",
"2 c #2557A4",
"3 c #2558A4",
"4 c #2559A6",
"5 c #3B5DA0",
"6 c #3B5EA5",
"7 c #3362A9",
"8 c #3767AE",
"9 c #3D6BAD",
"0 c #2467B1",
"q c #2776BA",
"w c #2B74B8",
"e c #406597",
"r c #466A9F",
"t c #4567A3",
"y c #496DA4",
"u c #4171B5",
"i c #5179B5",
"p c #5F80A6",
"a c #5186B9",
"s c #5787BF",
"d c #6185BE",
"f c #3086C5",
"g c #3C89C5",
"h c #3292CC",
"j c #4692CA",
"k c #638CC2",
"l c #6C93C5",
"z c #6699CA",
"x c #789DCB",
"c c #7F9FD1",
"v c #59A3D8",
"b c #59A7DD",
"n c #78A1CE",
"m c #79A4CF",
"M c #7CAFDA",
"N c #6AB1DE",
"B c #66B1E0",
"V c #6DB7E2",
"C c #83A3CF",
"Z c #80ADD4",
"A c #97BDDC",
"S c #99B9DB",
"D c #9FBEDE",
"F c #A1BCE1",
"G c #90C9EE",
"H c #A5C9E6",
"J c #AECAE6",
"K c #AECEE9",
"L c #B4D2EA",
"P c #AEDDF9",
"I c #BDDBF1",
"U c #BFDCF2",
"Y c #B2DFF8",
"T c #BEE6FC",
"R c #C4E1F5",
"E c #C7E3F5",
"W c #C7E5F8",
"Q c #D1EDFA",
"! c #C9F0FF",
"~ c #D4F1FF",
"^ c None",
/* pixels */
"^^^^^^^^^^^^^^^^",
"^^^24^^^^^^^^^^^",
"^^^-l1^^^^^^^^^^",
"^^^t~J7^^^^^^^^^",
"^^^yQLUi<^^^^^^^",
"^^^rRKDSd>^^^^^^",
"^^^eWHmnxC9^^^^^",
"^^^:IAZzskF64^^^",
"^^^;Mjgq0uc5,^^^",
"^^^&vNhfw8=^^^^^",
"^^^%GYYBa$^^^^^^",
"^^^+VT!pO^^^^^^^",
"^^^@bR*^^^^^^^^^",
"^^^X#o^^^^^^^^^^",
"^^^..^^^^^^^^^^^",
"^^^^^^^^^^^^^^^^"
};
