/* XPM */
static const char *go_last_view_xpm[] = {
/* columns rows colors chars-per-pixel */
"16 16 117 2 ",
"   c #061D3F",
".  c #081D3F",
"X  c #071F42",
"o  c #061E45",
"O  c #082042",
"+  c #06234C",
"@  c #092956",
"#  c #0B2957",
"$  c #0F2D58",
"%  c #0D2E5F",
"&  c #153057",
"*  c #0F3361",
"=  c #0F3368",
"-  c #173664",
";  c #143566",
":  c #1B3B6B",
">  c #193D6E",
",  c #113771",
"<  c #123C7A",
"1  c #1B4078",
"2  c #1B427C",
"3  c #264673",
"4  c #254577",
"5  c #2B4972",
"6  c #2C4C76",
"7  c #254778",
"8  c #234E7F",
"9  c #2F4F7D",
"0  c #154083",
"q  c #1D4784",
"w  c #16458A",
"e  c #1A4A93",
"r  c #1E529D",
"t  c #2E5385",
"y  c #2F598D",
"u  c #3D5A81",
"i  c #345688",
"p  c #34578B",
"a  c #36598C",
"s  c #23529B",
"d  c #385D90",
"f  c #3A6398",
"g  c #2054A2",
"h  c #2256A3",
"j  c #2556A3",
"k  c #2457A3",
"l  c #265CAD",
"z  c #265DAF",
"x  c #3060A4",
"c  c #3363AA",
"v  c #43679C",
"b  c #45699F",
"n  c #52739D",
"m  c #456CA5",
"M  c #4C71A7",
"N  c #4D72A8",
"B  c #4A75AF",
"V  c #5177AF",
"C  c #4F78B2",
"Z  c #577CB3",
"A  c #5C81B8",
"S  c #5A85BA",
"D  c #5E84BA",
"F  c #5A83BF",
"G  c #6489B7",
"H  c #698AB1",
"J  c #6085BA",
"K  c #6188BF",
"L  c #6A8BBB",
"P  c #728EB6",
"I  c #6F91B4",
"U  c #7F92B1",
"Y  c #668BC1",
"T  c #638DC7",
"R  c #698CC0",
"E  c #6B8FC3",
"W  c #6892C3",
"Q  c #6E92C6",
"!  c #6A92CB",
"~  c #6E93C8",
"^  c #6B99CE",
"/  c #7B9CC1",
"(  c #7094C9",
")  c #7296C9",
"_  c #7398CE",
"`  c #779BD0",
"'  c #799DD2",
"]  c #7BB0E1",
"[  c #92A0B5",
"{  c #84A3C1",
"}  c #87A6C5",
"|  c #81A2C8",
" . c #84A6CC",
".. c #89A9CA",
"X. c #8BACCC",
"o. c #98B6CF",
"O. c #8BACD1",
"+. c #83A8DC",
"@. c #84A8DD",
"#. c #93B3D1",
"$. c #97B6D2",
"%. c #98B6D1",
"&. c #9EBDD7",
"*. c #9CBEDB",
"=. c #AFB7C4",
"-. c #92B5E9",
";. c #97BFF0",
":. c #A3C2DA",
">. c #A8C7DE",
",. c #97C1F1",
"<. c #ADC3E5",
"1. c #AECDE1",
"2. c #B3CAEA",
"3. c #A0C4F8",
"4. c #D1D4DA",
"5. c #C6E5F3",
"6. c None",
/* pixels */
"6.6.6.6.6.6.6.6.6.6.6.6.6.6.6.6.",
"6.z z 6.6.6.6.6.6.6.6.6.6.6.6.6.",
"6.r W h 6.6.6.6.6.6.6.6.2._ <.6.",
"6.e 5.*.c 6.6.6.6.6.6.6.! 4.E 6.",
"6.w 1.>.:.B h 6.6.6.6.6.T =.J 6.",
"6.0 &.$.%.o.G j 6.6.6.6.F [ Z 6.",
"6.< #.X...} { I x 6.6.6.C U M 6.",
"6., O. .| / H n 9 q j 6.m P v 6.",
"6.; ( E D V m a 4 2 s 6.f S d 6.",
"6.% ` Q Y A M i 1 6.6.6.y ^ t 6.",
"6.# @.' ( K i ; 6.6.6.6.8 ] 7 6.",
"6.+ -.+.Q 3 $ 6.6.6.6.6.> ,.: 6.",
"6.o 3.L & 6.6.6.6.6.6.6.* ,.- 6.",
"6.  u X 6.6.6.6.6.6.6.6.6 # 5 6.",
"6.O . 6.6.6.6.6.6.6.6.6.6.6.6.6.",
"6.6.6.6.6.6.6.6.6.6.6.6.6.6.6.6."
};
