/* XPM */
static const char *go_last_xpm[] = {
/* columns rows colors chars-per-pixel */
"16 16 94 2 ",
"   c #162E44",
".  c #1D3B5A",
"X  c #17386A",
"o  c #1B3A69",
"O  c #284D6C",
"+  c #214271",
"@  c #264B75",
"#  c #2A4B76",
"$  c #274778",
"%  c #31507D",
"&  c #31557D",
"*  c #3F5C7C",
"=  c #345689",
"-  c #34578A",
";  c #375A8B",
":  c #3F5F8B",
">  c #386484",
",  c #3C618F",
"<  c #3C6989",
"1  c #3E698B",
"2  c #3B6292",
"3  c #3E6191",
"4  c #3C6BAF",
"5  c #476688",
"6  c #42638E",
"7  c #4A6993",
"8  c #4B6B96",
"9  c #42659A",
"0  c #45699E",
"q  c #51719A",
"w  c #50719C",
"e  c #4E73A9",
"r  c #4E76AD",
"t  c #5E7EA8",
"y  c #5D7FAB",
"u  c #5479B0",
"i  c #587EB4",
"p  c #5681AA",
"a  c #5B80B6",
"s  c #5F85BB",
"d  c #6080A6",
"f  c #6D8BAB",
"g  c #6E8BAB",
"h  c #6C89B1",
"j  c #6F8EB1",
"k  c #6C8DB6",
"l  c #6286B9",
"z  c #618ABB",
"x  c #6589BE",
"c  c #678BBF",
"v  c #6E91BD",
"b  c #7494B8",
"n  c #7395BE",
"m  c #7999BE",
"M  c #7E9DBD",
"N  c #658AC0",
"B  c #688DC3",
"V  c #6A8EC2",
"C  c #6B8FC2",
"Z  c #6E91C4",
"A  c #6C91C6",
"S  c #6893CB",
"D  c #6E92C8",
"F  c #6F94C9",
"G  c #7799C3",
"H  c #7B9BC0",
"J  c #7B9AC2",
"K  c #7C9DC2",
"L  c #7D9EC3",
"P  c #799CC5",
"I  c #799CC6",
"U  c #7D9FC7",
"Y  c #7094C9",
"T  c #7599CE",
"R  c #6995D7",
"E  c #789CD0",
"W  c #7BA0D3",
"Q  c #81A0C0",
"!  c #83A2C3",
"~  c #84A3C4",
"^  c #84A4C4",
"/  c #86A5C4",
"(  c #8CABC7",
")  c #8CABC8",
"_  c #90ADC9",
"`  c #98B6CF",
"'  c #80A4D8",
"]  c #85AADC",
"[  c #85ACDD",
"{  c #9EBBD2",
"}  c #81B6E1",
"|  c #8DB6E6",
" . c #AFC9DE",
".. c None",
/* pixels */
"................................",
"....R ..........................",
".... .S ........................",
"....{ ` ! 4 ....................",
"...._ ( ( / r ..................",
"h q ~ ^ Q Q Q p ................",
"w H L L L m b j d - ......Z G ..",
"7 G I I G n k t 8 % o ..2 f f 6 ",
", N Z B x a e 9 - $ o ..@ l Z # ",
"6 Z Z D B s u 0 ; + ......> < ..",
"* 5 W E Y N i , ................",
"..  [ ' T z & ..................",
"....| ] p . ....................",
"....} 6 ........................",
"....O ..........................",
"................................"
};
