/* XPM */
static const char *go_next_xpm[] = {
/* columns rows colors chars-per-pixel */
"16 16 106 2 ",
"   c #08172B",
".  c #091B37",
"X  c #0A1D38",
"o  c #0D203D",
"O  c #102130",
"+  c #11273B",
"@  c #0B2244",
"#  c #0B2346",
"$  c #0F2648",
"%  c #112747",
"&  c #122E45",
"*  c #18304C",
"=  c #122D54",
"-  c #122E59",
";  c #173255",
":  c #143057",
">  c #1E3F57",
",  c #14315C",
"<  c #133261",
"1  c #173768",
"2  c #15386B",
"3  c #16396E",
"4  c #183B6F",
"5  c #29415E",
"6  c #1F4379",
"7  c #1F447D",
"8  c #244760",
"9  c #23426A",
"0  c #2B4C7D",
"q  c #274F8B",
"w  c #365A89",
"e  c #35588A",
"r  c #3A5E8F",
"t  c #214F93",
"y  c #2C5592",
"u  c #235299",
"i  c #23549D",
"p  c #315D9E",
"a  c #3E6393",
"s  c #2B5CA5",
"d  c #3865A6",
"f  c #4E688E",
"g  c #4D759B",
"h  c #57749A",
"j  c #51719C",
"k  c #436BA5",
"l  c #496EA2",
"z  c #4C6FA0",
"x  c #4B76B0",
"c  c #547AB0",
"v  c #557CB0",
"b  c #5C80B1",
"n  c #5C85B9",
"m  c #5F85BB",
"M  c #6B89AD",
"N  c #6E8CAD",
"B  c #6385B1",
"V  c #6E8FB4",
"C  c #608BB9",
"Z  c #658AB8",
"A  c #688CBD",
"S  c #6F92BF",
"D  c #7191B6",
"F  c #7494B8",
"G  c #7798BE",
"H  c #7D9CBC",
"J  c #658BC0",
"K  c #648DC1",
"L  c #688DC3",
"P  c #6D92C7",
"I  c #6E96C8",
"U  c #7094C3",
"Y  c #7598C6",
"T  c #7599C7",
"R  c #7C9DC2",
"E  c #7D9EC4",
"W  c #7095CA",
"Q  c #7299CB",
"!  c #779AC8",
"~  c #769CD0",
"^  c #789DD0",
"/  c #8AA4BE",
"(  c #82A2C2",
")  c #87A4C1",
"_  c #86A6C7",
"`  c #8AA8C7",
"'  c #80A2C8",
"]  c #81A2C9",
"[  c #83A5CB",
"{  c #87A7C8",
"}  c #89A9CA",
"|  c #8BAACA",
" . c #8BABCB",
".. c #8AAACC",
"X. c #90AECA",
"o. c #91B0CD",
"O. c #93B2CF",
"+. c #80A6D8",
"@. c #96B4D0",
"#. c #97B5D1",
"$. c #A0BFD7",
"%. c #81B3E1",
"&. c #A6C4DA",
"*. c #B9D5E7",
"=. c #C1CFE4",
"-. c None",
/* pixels */
"-.-.-.-.-.-.-.-.-.-.-.-.-.-.-.-.",
"-.-.-.-.-.-.=.-.-.-.-.-.-.-.-.-.",
"-.-.-.-.-.-.y k u -.-.-.-.-.-.-.",
"-.-.-.-.-.-.4 *.{ p -.-.-.-.-.-.",
"-.-.-.-.-.-.= &.&.@.x -.-.-.-.-.",
"-.f 3 2 - $ o @.o.o.X.Z s -.-.-.",
"-.< / ) ` | | ..{ { ( H V d -.-.",
"-., N F R ' [ [ ' E G D M h q i ",
"-.= j B P Y ! ! P A v z w 0 4 u ",
"-.; a v A I Q P L C c l r 0 -.-.",
"-.5 # # X   O ^ W J n w 2 -.-.-.",
"-.-.-.-.-.-.+ +.~ C 9 -.-.-.-.-.",
"-.-.-.-.-.-.& %.g % -.-.-.-.-.-.",
"-.-.-.-.-.-.> * X -.-.-.-.-.-.-.",
"-.-.-.-.-.-.8 -.-.-.-.-.-.-.-.-.",
"-.-.-.-.-.-.-.-.-.-.-.-.-.-.-.-."
};
