/* XPM */
static const char *go_next_view_xpm[] = {
/* columns rows colors chars-per-pixel */
"16 16 80 1 ",
"  c #071D3B",
". c #091D3F",
"X c #081F41",
"o c #0B2447",
"O c #0B2449",
"+ c #0D2850",
"@ c #0F2D58",
"# c #122F5C",
"$ c #19355E",
"% c #123160",
"& c #143668",
"* c #17366A",
"= c #163A70",
"- c #183F78",
"; c #1B4179",
": c #2A4A78",
"> c #3C577D",
", c #1B4380",
"< c #1D4580",
"1 c #1D4887",
"2 c #1F4989",
"3 c #1F4C8F",
"4 c #1F4D8F",
"5 c #2C4E80",
"6 c #325382",
"7 c #385B8F",
"8 c #215197",
"9 c #23569E",
"0 c #24559E",
"q c #395C92",
"w c #3C5F93",
"e c #305C9E",
"r c #2556A3",
"t c #2457A5",
"y c #2759A0",
"u c #2758A2",
"i c #3663A3",
"p c #4F709C",
"a c #496EA3",
"s c #4D75AA",
"d c #5076AC",
"f c #547AB1",
"g c #5C84B4",
"h c #5D82B9",
"j c #5D83B9",
"k c #6387B2",
"l c #6687B0",
"z c #6C8CB1",
"x c #6388BD",
"c c #6589BD",
"v c #6489BF",
"b c #6B8BBB",
"n c #7898BF",
"m c #668BC1",
"M c #6B8FC5",
"N c #6B90C5",
"B c #6F92C6",
"V c #7E9FC5",
"C c #7094C9",
"Z c #779BCF",
"A c #779CD0",
"S c #7FA1C6",
"D c #809FBF",
"F c #80A2C7",
"G c #85A4C4",
"H c #88A8C7",
"J c #88A7C8",
"K c #89A8C9",
"L c #92B1CD",
"P c #94B3CE",
"I c #94B3CF",
"U c #81A5D9",
"Y c #84A8DB",
"T c #95B6D1",
"R c #9CBBD4",
"E c #91B4E6",
"W c #A3C2D9",
"Q c #A4C2DA",
"! c #B6D6E9",
"~ c None",
/* pixels */
"~~~~~~~~~~~~~~~~",
"~~~0t~~~~~~~~~~~",
"~~~8gu~~~~~~~~~~",
"~~~3!Ti~~~~~~~~~",
"~~~1WQRsr~~~~~~~",
"~~~,IIILku~~~~~~",
"~~~-HKJGDze~~~~~",
"~~~=SFVnlp629~~~",
"~~~&vxjfaw5<3~~~",
"~~~#BNmjdq;~~~~~",
"~~~#ZZCv7*~~~~~~",
"~~~@YAB:#~~~~~~~",
"~~~OEb$~~~~~~~~~",
"~~~o>o~~~~~~~~~~",
"~~~. ~~~~~~~~~~~",
"~~~~~~~~~~~~~~~~"
};
