/* XPM */
static const char *go_next_view_page_xpm[] = {
/* columns rows colors chars-per-pixel */
"16 16 77 1 ",
"  c #18481D",
". c #1D5617",
"X c #1B5719",
"o c #21621E",
"O c #3E7E18",
"+ c #184928",
"@ c #277028",
"# c #32712D",
"$ c #328234",
"% c #3D8E3C",
"& c #75AC0C",
"* c #639F38",
"= c #549D4C",
"- c #559E4F",
"; c #55875D",
": c #5B9D56",
"> c #64A753",
", c #77B250",
"< c #74A477",
"1 c #7CB378",
"2 c #85BE20",
"3 c #99D20B",
"4 c #A0D70C",
"5 c #8EC423",
"6 c #91C824",
"7 c #A8D06A",
"8 c #AAD072",
"9 c #8C8E8F",
"0 c #8F9091",
"q c #8F9492",
"w c #909091",
"e c #939394",
"r c #9B9D9E",
"t c #8BA992",
"y c #9E9FA0",
"u c #9F9FA0",
"i c #9FADA3",
"p c #A2A3A3",
"a c #A6A7A8",
"s c #A7A7A8",
"d c gray66",
"f c #B9B9B9",
"g c gray73",
"h c #BFDE9A",
"j c #C5C5C5",
"k c #C5C6C6",
"l c #C8CACB",
"z c #D2D2D2",
"x c #D2DAD4",
"c c gray85",
"v c gray86",
"b c #D2E2D2",
"n c #D8E9D6",
"m c #DFEDDE",
"M c gray89",
"N c #EAEAEA",
"B c #E9EFE9",
"V c #EEEEEE",
"C c #EEEFEF",
"Z c #EFEFEF",
"A c gray94",
"S c #F2F7F1",
"D c #F4F5F5",
"F c gray96",
"G c #F5F6F6",
"H c #F6F6F6",
"J c gray97",
"K c #F8F8F8",
"L c #F8F9F9",
"P c #F9F9F9",
"I c gray98",
"U c #FBFBFB",
"Y c gray99",
"T c #FDFDFD",
"R c #FEFEFE",
"E c white",
"W c None",
/* pixels */
"WWWWWWWWWWWWWWWW",
"WEEEEEEEEnmWWWWW",
"WEDDPPPPP==#WWWW",
"WEPPPPYPE%h>1SEW",
"WEPPEPPEE$87,:bW",
"WEPPPEEEE@265*<W",
"WEPEEEEEPo34O;BW",
"WEEPPEPDZ.&XtPEW",
"WEYYEENau +pEEEW",
"WEYYEDsEExwvCZDW",
"WEYEYAuEDrjsralW",
"WEYYYZsJizsYEPwW",
"WEEPEDkpcArEK9WW",
"WWWWWggMEZsPwWWW",
"WWWWWEPEEDkeWWWW",
"WWWWWWWWWWWWWWWW"
};
