/* XPM */
static const char *go_previous_view_xpm[] = {
/* columns rows colors chars-per-pixel */
"16 16 80 1 ",
"  c #071A3A",
". c #091C3C",
"X c #081E3F",
"o c #0B2344",
"O c #0B2347",
"+ c #0D2850",
"@ c #0F2D58",
"# c #122E59",
"$ c #153057",
"% c #123160",
"& c #163667",
"* c #143668",
"= c #163A70",
"- c #163C73",
"; c #1E3F71",
": c #183F78",
"> c #26426A",
", c #23426F",
"< c #25436C",
"1 c #2A4B7D",
"2 c #34537C",
"3 c #1B4380",
"4 c #1D4887",
"5 c #1F4C8F",
"6 c #244B82",
"7 c #385B8E",
"8 c #214E92",
"9 c #215197",
"0 c #24559E",
"q c #26589F",
"w c #2E5A9B",
"e c #335B93",
"r c #2357A0",
"t c #2556A3",
"y c #2457A5",
"u c #2758A2",
"i c #3461A2",
"p c #4C6C97",
"a c #577495",
"s c #5B7797",
"d c #476FA3",
"f c #5A7DA5",
"g c #5075AB",
"h c #5577A8",
"j c #557AB1",
"k c #5A83B3",
"l c #6180A2",
"z c #6684A6",
"x c #6284AE",
"c c #7491AE",
"v c #6286BB",
"b c #7190B3",
"n c #7B99B7",
"m c #7A9BBF",
"M c #658BC0",
"N c #6C91C6",
"B c #7497C3",
"V c #769ACF",
"C c #7D9FCB",
"Z c #789CD1",
"A c #7EA2D6",
"S c #82A0BF",
"D c #81A2C7",
"F c #85A5C4",
"G c #87A6C6",
"H c #89A7C0",
"J c #8DAAC4",
"K c #8FADC7",
"L c #84A5CB",
"P c #80A2CF",
"I c #8FAEC8",
"U c #93B3CD",
"Y c #97B5CD",
"T c #83A7DA",
"R c #9FBDD2",
"E c #9FBDD3",
"W c #8CAFE2",
"Q c #99BBEC",
"! c #B6D5E8",
"~ c None",
/* pixels */
"~~~~~~~~~~~~~~~~",
"~~~~~~~~~~~y0~~~",
"~~~~~~~~~~uk9~~~",
"~~~~~~~~~iU!5~~~",
"~~~~~~~tdYEE4~~~",
"~~~~~~qfHJII3~~~",
"~~~~~wlcnSFF:~~~",
"~~~reaszbmDL=~~~",
"~~~86,2pxBCP*~~~",
"~~~~~-;7gMZT%~~~",
"~~~~~~&1jNTQ#~~~",
"~~~~~~~#,vAW+~~~",
"~~~~~~~~~$hVO~~~",
"~~~~~~~~~~O>X~~~",
"~~~~~~~~~~~ .~~~",
"~~~~~~~~~~~~~~~~"
};
