/* XPM */
static const char *go_previous_view_page_xpm[] = {
/* columns rows colors chars-per-pixel */
"16 16 75 1 ",
"  c #0B4716",
". c #16471D",
"X c #185C1C",
"o c #20591A",
"O c #285632",
"+ c #236E25",
"@ c #407E17",
"# c #348335",
"$ c #3F8F3C",
"% c #55952A",
"& c #549D4C",
"* c #549851",
"= c #5DA258",
"- c #73AF4E",
"; c #61A551",
": c #5A8A61",
"> c #75917C",
", c #74A970",
"< c #84B70D",
"1 c #84BD23",
"2 c #9DD40D",
"3 c #A1D90C",
"4 c #89C220",
"5 c #90C724",
"6 c #A7D06A",
"7 c #ABD171",
"8 c #8C8E8F",
"9 c #8F9091",
"0 c #909091",
"q c #939394",
"w c #87AF89",
"e c #9F9FA0",
"r c #A6A7A8",
"t c #A7A7A8",
"y c gray66",
"u c #AFAFAF",
"i c gray69",
"p c #BFDE99",
"a c #A6C6A4",
"s c #C0C0C0",
"d c #C1C1C1",
"f c #C5C6C6",
"g c #C8CACB",
"h c #CAD6CD",
"j c #D3DCD6",
"k c #CCE2CA",
"l c #D6E4D7",
"z c gray90",
"x c #E2EEE1",
"c c #EAEAEA",
"v c #EAEFEA",
"b c #EEEEEE",
"n c #EEEFEF",
"m c #EFEFEF",
"M c #EDF2ED",
"N c #EEF2EF",
"B c gray94",
"V c #F4F5F5",
"C c gray96",
"Z c #F5F6F5",
"A c #F5F6F6",
"S c #F6F6F6",
"D c #F6F7F6",
"F c gray97",
"G c #F8F8F8",
"H c #F8F9F8",
"J c #F9F9F9",
"K c gray98",
"L c #FBFBFB",
"P c gray99",
"I c #FDFDFD",
"U c #FDFEFD",
"Y c #FEFEFE",
"T c white",
"R c None",
/* pixels */
"RRRRRRRRRRRRRRRR",
"RTTTTTxkTTTRRRRR",
"RTVVza&=sigRRRRR",
"RTGM,;p$TTTTTTTR",
"RTl*-67#VGGTGGTR",
"RTw%154+VTGGTGTR",
"RTv:@23XFPTGTGGR",
"RTGT>o< VTTGTTTR",
"RTTTuhO.FTTTPTTR",
"RTGGiTNjLTPVmbVR",
"RTTTiTTGTPcyergR",
"RTGTiTGTTVyTTG0R",
"RTTGiTTTTBqTV8RR",
"RRRRRTGTTBuG0RRR",
"RRRRRTGTTVfqRRRR",
"RRRRRRRRRRRRRRRR"
};
