/* XPM */
static const char *go_previous_xpm[] = {
/* columns rows colors chars-per-pixel */
"16 16 101 2 ",
"   c #061020",
".  c #071428",
"X  c #071529",
"o  c #07172E",
"O  c #071832",
"+  c #071A34",
"@  c #071B37",
"#  c #081A35",
"$  c #091C38",
"%  c #0C1E3A",
"&  c #081F40",
"*  c #0B2040",
"=  c #0A2041",
"-  c #0A2245",
";  c #0E2444",
":  c #0A2348",
">  c #0D2850",
",  c #0F2D58",
"<  c #122B52",
"1  c #112C54",
"2  c #142E56",
"3  c #123160",
"4  c #153565",
"5  c #153667",
"6  c #143669",
"7  c #16396E",
"8  c #183A6C",
"9  c #1A3F77",
"0  c #314A6E",
"q  c #204070",
"w  c #274A7E",
"e  c #1F4A8A",
"r  c #28518D",
"t  c #37598C",
"y  c #204D90",
"u  c #214F93",
"i  c #225298",
"p  c #235299",
"a  c #23549D",
"s  c #2C5A9C",
"d  c #3A5D91",
"f  c #2557A3",
"g  c #2658A1",
"h  c #2959A1",
"j  c #3C6AAA",
"k  c #476795",
"l  c #44689D",
"z  c #55759D",
"x  c #476FA1",
"c  c #4C71A6",
"v  c #4E72A7",
"b  c #5A7AA2",
"n  c #5379AF",
"m  c #5479AF",
"M  c #567EB1",
"N  c #5F85BB",
"B  c #6688AF",
"V  c #6C8BAF",
"C  c #6489BF",
"Z  c #678CBD",
"A  c #6F94BC",
"S  c #7A9ABD",
"D  c #688DC2",
"F  c #6C91C7",
"G  c #6D92C7",
"H  c #6F94C9",
"J  c #7499CD",
"K  c #7A9DCA",
"L  c #7A9BCC",
"P  c #779BD0",
"I  c #809FBD",
"U  c #82A2C4",
"Y  c #82A3C7",
"T  c #86A6C5",
"R  c #8BA9C4",
"E  c #8BABCB",
"W  c #8FAFCB",
"Q  c #88A9CE",
"!  c #8CADCE",
"~  c #8EAECF",
"^  c #91B0CC",
"/  c #85A7D0",
"(  c #80A3D7",
")  c #8BADD1",
"_  c #8AACD2",
"`  c #8FB0D0",
"'  c #95B4D0",
"]  c #96B5D2",
"[  c #96B7D3",
"{  c #92B3D4",
"}  c #94B5D5",
"|  c #98B7D4",
" . c #99B8D5",
".. c #9AB9D6",
"X. c #9ABAD7",
"o. c #A2C1DA",
"O. c #A3C2DB",
"+. c #A3C3DC",
"@. c #ADCDE3",
"#. c #AECDE3",
"$. c None",
/* pixels */
"$.$.$.$.$.$.$.$.$.$.$.$.$.$.$.$.",
"$.$.$.$.$.$.$.$.$.$.$.$.$.$.$.$.",
"$.$.$.$.$.$.$.i y e $.$.$.$.$.$.",
"$.$.$.$.$.$.i x ' 8 $.$.$.$.$.$.",
"$.$.$.$.$.h A @.#.< $.$.$.$.$.$.",
"$.$.$.f j ! O.O.+.% ; 1 6 7 6 $.",
"$.$.g M W ' | ..X.X...' ^ R 3 $.",
"a s B I T E ` { } } { ` U b , $.",
"u r z V S Y Q _ _ / K Z c t > $.",
"$.$.9 w l m N D G H F C m d : $.",
"$.$.$.4 q c D G P   X # = - & $.",
"$.$.$.$.$.2 k J ( X $.$.$.$.$.$.",
"$.$.$.$.$.$.= 0 L o $.$.$.$.$.$.",
"$.$.$.$.$.$.$.$ + O $.$.$.$.$.$.",
"$.$.$.$.$.$.$.$.$.+ $.$.$.$.$.$.",
"$.$.$.$.$.$.$.$.$.$.$.$.$.$.$.$."
};
