/* XPM */
static const char *go_top_xpm[] = {
/* columns rows colors chars-per-pixel */
"16 16 94 2 ",
"   c #10243E",
".  c #102542",
"X  c #122A47",
"o  c #152944",
"O  c #1A365B",
"+  c #1C365B",
"@  c #2B4567",
"#  c #2C536E",
"$  c #234570",
"%  c #234777",
"&  c #274873",
"*  c #385377",
"=  c #395E7C",
"-  c #2F5386",
";  c #315583",
":  c #345581",
">  c #3A5E8F",
",  c #3B5F8F",
"<  c #2D5795",
"1  c #3A6B89",
"2  c #3B6E8B",
"3  c #3D6193",
"4  c #466285",
"5  c #446286",
"6  c #456387",
"7  c #4A6B8F",
"8  c #446797",
"9  c #4B6C91",
"0  c #496A96",
"q  c #467493",
"w  c #537396",
"e  c #537397",
"r  c #50709B",
"t  c #55739C",
"y  c #57769E",
"u  c #5C7898",
"i  c #436DA7",
"p  c #5177AB",
"a  c #567BAD",
"s  c #4D77B1",
"d  c #4C8CB1",
"f  c #6582A3",
"g  c #6686A9",
"h  c #6786AB",
"j  c #6485AF",
"k  c #6685AF",
"l  c #6887AC",
"z  c #6C8AAB",
"x  c #6E8CAB",
"c  c #6085B1",
"v  c #6187BD",
"b  c #648ABC",
"n  c #668CBF",
"m  c #7291B2",
"M  c #7392B3",
"N  c #7091B7",
"B  c #7191B7",
"V  c #7896B3",
"C  c #7996B3",
"Z  c #7C99B7",
"A  c #7C9AB7",
"S  c #7093BE",
"D  c #7293BE",
"F  c #7495BF",
"G  c #7897B9",
"H  c #7798BE",
"J  c #7E9CB9",
"K  c #7A9ABC",
"L  c #7899BF",
"P  c #6B90C2",
"I  c #6F94C9",
"U  c #7897C0",
"Y  c #7599C4",
"T  c #7B9DC4",
"R  c #7C9DC4",
"E  c #7497CB",
"W  c #7A9CC8",
"Q  c #7E9FC9",
"!  c #7B9FD2",
"~  c #7B9FD3",
"^  c #7FA2CC",
"/  c #7DA0D3",
"(  c #7CA0D4",
")  c #84A1BB",
"_  c #84A2BB",
"`  c #84A1BC",
"'  c #85A2BC",
"]  c #85A4C3",
"[  c #82A4CD",
"{  c #94B2C9",
"}  c #8BAEE1",
"|  c #A4C2D8",
" . c #A4C3D8",
".. c None",
/* pixels */
"..............D U ..............",
"............> x z > ............",
"............$ b P & ............",
"..............1 2 ..............",
"................................",
"..............H Y ..............",
"............0  . .s ............",
"............` { { ] ............",
"..........u ` ` ` _ c ..........",
"........* C J J J Z V i ........",
"......+ f M G K K G m h < ......",
"......6 h m K R R K N h r ......",
"....@ p c F W [ [ W F c t - ....",
"..# * 0 a b E ! ! E b p 3 ; d ..",
"....X .   5 ! } } ! 6 o O % ....",
"..........= 9 e e 9 q .........."
};
