/* XPM */
static const char *go_up_xpm[] = {
/* columns rows colors chars-per-pixel */
"16 16 101 2 ",
"   c #040A14",
".  c #070C14",
"X  c #081220",
"o  c #0A182F",
"O  c #0C1B32",
"+  c #081D3B",
"@  c #081E3E",
"#  c #081F40",
"$  c #092041",
"%  c #0B2142",
"&  c #0B2244",
"*  c #0A2245",
"=  c #0E2547",
"-  c #0B2448",
";  c #0C2549",
":  c #0E274C",
">  c #0E284D",
",  c #0F284D",
"<  c #102749",
"1  c #10284A",
"2  c #122D56",
"3  c #153159",
"4  c #15305A",
"5  c #16325A",
"6  c #12305D",
"7  c #13325E",
"8  c #153665",
"9  c #153667",
"0  c #143668",
"q  c #1B3F74",
"w  c #1B4179",
"e  c #2A4A77",
"r  c #2D4C76",
"t  c #2A4B7B",
"y  c #1E4887",
"u  c #385782",
"i  c #38598B",
"p  c #215095",
"a  c #2E5893",
"s  c #24559F",
"d  c #26579E",
"f  c #2657A1",
"g  c #2558A3",
"h  c #3260A2",
"j  c #3663A3",
"k  c #4B688C",
"l  c #406498",
"z  c #4A6E9A",
"x  c #56769C",
"c  c #4F74AA",
"v  c #5073A3",
"b  c #5375A4",
"n  c #597FAE",
"m  c #597DB0",
"M  c #5A7FB6",
"N  c #5F84BB",
"B  c #6687AC",
"V  c #6E8CAB",
"C  c #6E8EB2",
"Z  c #688AB6",
"A  c #6084B8",
"S  c #6287BC",
"D  c #6F90B6",
"F  c #7392B4",
"G  c #7594B6",
"H  c #7596BD",
"J  c #7897BA",
"K  c #7998BB",
"L  c #7E9CBA",
"P  c #7B9ABD",
"I  c #678CC2",
"U  c #698EC3",
"Y  c #6E92C8",
"T  c #6F94C8",
"R  c #7698C0",
"E  c #7899C0",
"W  c #7297CC",
"Q  c #7397CC",
"!  c #769ACF",
"~  c #7A9ED2",
"^  c #7CA0D4",
"/  c #7DA1D5",
"(  c #7FA3D6",
")  c #7FA3D7",
"_  c #809EBC",
"`  c #81A0BD",
"'  c #82A0BD",
"]  c #87A4BE",
"[  c #87A6C0",
"{  c #8AA8C2",
"}  c #8BA8C2",
"|  c #88A9C6",
" . c #8AACCA",
".. c #98B7CD",
"X. c #81A5D8",
"o. c #82A6D8",
"O. c #8AADE0",
"+. c #8DB0E2",
"@. c #8FB2E4",
"#. c #96B8EA",
"$. c None",
/* pixels */
"$.$.$.$.$.$.$.d p $.$.$.$.$.$.$.",
"$.$.$.$.$.$.$.h a $.$.$.$.$.$.$.",
"$.$.$.$.$.$.f  .| w $.$.$.$.$.$.",
"$.$.$.$.$.g n ....x 0 $.$.$.$.$.",
"$.$.$.$.$.j [ } } ] r $.$.$.$.$.",
"$.$.$.$.d C _ ' ' L V 3 $.$.$.$.",
"$.$.$.y z G K P P K F k : $.$.$.",
"$.$.q e B D H E R Z b i 3 & $.$.",
"$.$.3 u v n A S N M c l t % $.$.",
"$.$.< O X . I Y T U 1 > ; @ + $.",
"$.$.$.$.$.  ! ( ( ! % $.$.$.$.$.",
"$.$.$.$.$.o ( o.@.X.& $.$.$.$.$.",
"$.$.$.$.$.; ~ @.#.X.- $.$.$.$.$.",
"$.$.$.$.$.6 T ~ ) W & $.$.$.$.$.",
"$.$.$.$.$.0 8 7 2 > # $.$.$.$.$.",
"$.$.$.$.$.$.$.$.$.$.$.$.$.$.$.$."
};
