/* XPM */
static const char *help_contents_xpm[] = {
/* columns rows colors chars-per-pixel */
"16 16 104 2 ",
"   c #AB1010",
".  c #A21B1B",
"X  c #A11C1B",
"o  c #B21C1C",
"O  c #A32827",
"+  c #A52927",
"@  c #A62A29",
"#  c #B32020",
"$  c #B32221",
"%  c #B52626",
"&  c #A37A77",
"*  c #A57B78",
"=  c #A47C79",
"-  c #A47E7B",
";  c #A47F7B",
":  c #B27774",
">  c #B17977",
",  c #B77B79",
"<  c #B57D7B",
"1  c #EB5757",
"2  c #EC5757",
"3  c #EB5C5C",
"4  c #ED5F5F",
"5  c #A2837F",
"6  c #A6827E",
"7  c #888A85",
"8  c #898B86",
"9  c #8A8C87",
"0  c #8D8F8A",
"q  c #8F918C",
"w  c #A68481",
"e  c #B68885",
"r  c #BA8D8B",
"t  c #B79693",
"y  c #B99390",
"u  c #B89490",
"i  c #BA9694",
"p  c #BD9896",
"a  c #BAA6A2",
"s  c #BBA6A3",
"d  c #BAA8A5",
"f  c #BAA9A6",
"g  c #BCAEAB",
"h  c #BFAEAB",
"j  c #BABDB6",
"k  c #D78F8E",
"l  c #D69392",
"z  c #D79C9B",
"x  c #EC8C8C",
"c  c #F08686",
"v  c #E09392",
"b  c #EE9897",
"n  c #E39E9D",
"m  c #F69090",
"M  c #F09F9F",
"N  c #C5ABA8",
"B  c #C6ABA8",
"V  c #C5ADA9",
"C  c #C6ACA8",
"Z  c #C0AFAC",
"A  c #DBA4A2",
"S  c #CAB1AE",
"D  c #CDB3B1",
"F  c #D0B4B2",
"G  c #D0B5B3",
"H  c #EDA7A7",
"J  c #E6AAA9",
"K  c #EFB2B1",
"L  c #EAB8B7",
"P  c #F9B1B1",
"I  c #C0C3BC",
"U  c #C2C4BE",
"Y  c #DEE1DB",
"T  c #DFE2DC",
"R  c #E0E3DD",
"E  c #E1E3DE",
"W  c #E2E4DF",
"Q  c #E2E5E0",
"!  c #E3E5E0",
"~  c #E4E6E1",
"^  c #E6E8E4",
"/  c #E6E9E4",
"(  c #EAECE8",
")  c #ECEDEA",
"_  c #EDEEEB",
"`  c #EDEFEC",
"'  c #EEEEEC",
"]  c #EEEEED",
"[  c #EEF0ED",
"{  c #EFF0ED",
"}  c #F0F0EE",
"|  c #F0F1EE",
" . c #F0F1EF",
".. c #F1F2F0",
"X. c #F2F3F0",
"o. c #F2F2F1",
"O. c #F4F5F3",
"+. c #F5F5F4",
"@. c #F8F8F7",
"#. c #F8F8F8",
"$. c #F8F9F8",
"%. c #FAFAF9",
"&. c white",
"*. c None",
/* pixels */
"*.0 8 8 8 7 7 7 7 7 8 7 7 8 q *.",
"*.8 &.&.&.&.&.&.&.&.&.&.&.&.9 *.",
"*.7 &.Y I j j j j j j U ( &.8 *.",
"*.8 &.Y W / ( ' [ | | [ ( &.8 *.",
"*.8 &.E ! N & 0 0 - S | ` &.8 *.",
"*.7 &.E > O l ' ` z + < [ &.8 *.",
"*.7 &.N O c 1 a a 3 M @ D &.7 *.",
"*.8 &.5 k 2   y y   4 A 6 &.8 *.",
"*.8 &.0 | f e O.#.p s o.0 &.8 *.",
"*.8 &.0 o.a t O.#.r g +.0 &.8 *.",
"*.8 &.- v x . y i . H n w &.7 *.",
"*.7 &.V o m b Z Z K P # D &.8 *.",
"*.7 &.W > # J @.#.L % , o.&.8 *.",
"*.8 &.W ~ V - 0 q * D O.o.&.8 *.",
"*.8 &.&.&.&.&.&.&.&.&.&.&.&.8 *.",
"*.0 8 7 7 7 7 7 7 7 7 7 8 8 q *."
};
