/* XPM */
static const char *help_faq_xpm[] = {
/* columns rows colors chars-per-pixel */
"16 16 73 1 ",
"  c #7AA5D2",
". c #7AA5D3",
"X c #888A85",
"o c #8A8C88",
"O c #8B8D88",
"+ c #8D8F89",
"@ c #8D8E8A",
"# c #8D8F8A",
"$ c #8E8F8B",
"% c #8D908A",
"& c #8E908B",
"* c #8F908B",
"= c #8F908C",
"- c #8F918C",
"; c #90908C",
": c #90938C",
"> c #90928D",
", c #90928E",
"< c #91928E",
"1 c #90938E",
"2 c #93938F",
"3 c #92948F",
"4 c #93968F",
"5 c #939590",
"6 c #949591",
"7 c #969994",
"8 c #979994",
"9 c #B4B5B1",
"0 c #B6B8B4",
"q c #B8B9B7",
"w c #BBBCBB",
"e c #BCBDBA",
"r c #BDBEBB",
"t c #C0C1BE",
"y c #8AAFD5",
"u c #8AAFD6",
"i c #91B3D5",
"p c #91B3D6",
"a c #A0BDDA",
"s c #A1BDDA",
"d c #A3BFDB",
"f c #ADC6DE",
"g c #ACC6DF",
"h c #AEC6DE",
"j c #BFD1E2",
"k c #BFD1E3",
"l c #BDD0E5",
"z c #DFDFDE",
"x c #DFE0DE",
"c c #DBE2EB",
"v c #E1E7EC",
"b c #EEEEEB",
"n c #EDEDEC",
"m c #EEEEEC",
"M c #EFEFED",
"N c #F1F1F0",
"B c #F1F1F1",
"V c #F2F2F0",
"C c #F2F2F1",
"Z c #F4F5F4",
"A c #F5F5F4",
"S c #F6F6F5",
"D c #F8F8F6",
"F c #F8F8F7",
"G c #FBFBFA",
"H c #FBFBFB",
"J c #FCFCFB",
"K c gray99",
"L c #FDFDFD",
"P c #FEFEFD",
"I c #FEFEFE",
"U c white",
"Y c None",
/* pixels */
"YYYYYYYYYYYYYYYY",
"YYYYYYY03XXXX%YY",
"YYYYYY0rKKKLKKwY",
"Y+<XXXo69bdgpcK%",
"YeKKKKKKr0VVhkK<",
"+KVMpgpvK5AlgAK<",
"$KZVZChkK<FyFFK3",
"<KAADkhAK-HJJKK-",
"<KFHFyFHK<K.KKK+",
"<KJKHHJKK<KKKKK5",
"%KKKK KKK+6AKK7Y",
"YtKKKKKKK5Y<NK-Y",
"Y%$X5AKK8YYY<z%Y",
"YYYYY<MK<YYYY;XY",
"YYYYYY<x%YYYYYYY",
"YYYYYYY%XYYYYYYY"
};
