/* XPM */
static const char * insert_xpm[] = {
"16 16 4 1",
" 	c None",
".	c #0000FF",
"#	c #000000",
"w	c #FFFFFF",
"                ",
"                ",
".  ############ ",
".. #wwwwwwwwww# ",
"...#w########w# ",
"....wwwwwwwwww# ",
".....########w# ",
"......wwwwwwww# ",
".......######w# ",
"........wwwwww# ",
".......######w# ",
"......wwwwwwww# ",
".....########w# ",
"....wwwwwwwwww# ",
"...############ ",
"..              "};
