/* XPM */
static const char *layer_visible_on_xpm[] = {
/* columns rows colors chars-per-pixel */
"16 16 96 2 ",
"   c #343434",
".  c #393939",
"X  c #483A37",
"o  c #134950",
"O  c #0E5664",
"+  c #444444",
"@  c gray34",
"#  c #565658",
"$  c #5B5B5B",
"%  c gray38",
"&  c #646464",
"*  c #656565",
"=  c #6E6663",
"-  c #63666C",
";  c #6A6A6A",
":  c #6C6C6C",
">  c #6D6D6C",
",  c #6D6D6D",
"<  c #6E6C6C",
"1  c gray43",
"2  c #6F6F6F",
"3  c #606674",
"4  c #727272",
"5  c #737272",
"6  c #767676",
"7  c #777777",
"8  c gray47",
"9  c gray49",
"0  c #7E7E7E",
"q  c #387CA9",
"w  c #3177BD",
"e  c #415C87",
"r  c #5A6F90",
"t  c #5B7896",
"y  c #767F8F",
"u  c #587CAE",
"i  c #7B8586",
"p  c #4480B1",
"a  c #7789AB",
"s  c #7193B6",
"d  c #3E8FDC",
"f  c #32A6CE",
"g  c #72AFD2",
"h  c #44B1E2",
"j  c #51B5EC",
"k  c #808080",
"l  c #848484",
"z  c #868585",
"x  c gray53",
"c  c #848689",
"v  c #888888",
"b  c gray54",
"n  c #8B8B8B",
"m  c gray55",
"M  c #8D8D8D",
"N  c #8E8E8E",
"B  c gray56",
"V  c #808B9D",
"C  c gray57",
"Z  c #929292",
"A  c #959595",
"S  c gray59",
"D  c gray60",
"F  c #9B9B9B",
"G  c #8892A3",
"H  c #8E95A2",
"J  c #A7A7A7",
"K  c #AAAAAA",
"L  c #ACB8B6",
"P  c #AAB4C7",
"I  c #A0B5D3",
"U  c #ACBDDA",
"Y  c #82B6F0",
"T  c #9CC0F0",
"R  c #9CD1F5",
"E  c #ADCCEE",
"W  c #B1D1F7",
"Q  c #C0C0C0",
"!  c #C7C7C5",
"~  c #C8C7C6",
"^  c #C3C6CA",
"/  c #D0CECD",
"(  c #D0D0D0",
")  c #D2D2D1",
"_  c #D2D2D2",
"`  c #D8D8D8",
"'  c #DFDFDE",
"]  c #E2E0E0",
"[  c #E6E6E6",
"{  c #EAEAEA",
"}  c #ECECEC",
"|  c #EEEEEC",
" . c #F0EEEE",
".. c #F4F2F0",
"X. c #F4F3F1",
"o. c None",
/* pixels */
"o.o.o.o.o.o.o.o.o.o.o.o.o.o.o.o.",
"o.o.o.o.o.o.o.o.o.o.o.o.o.o.o.o.",
"o.o.o.o.x < @ % 0 B o.o.o.o.o.o.",
"o.o.o.6 . o.o.o.  $ C o.o.o.o.o.",
"o.o.* o.o.o.o.o.o.o.+ B o.o.o.o.",
"o.o.o.o.o.o.o.o.o.o.o.o.v o.o.o.",
"o.o.o.o.o.5 ; < 6 o.o.o.o.o.o.o.",
"o.o.o.k @ - V y # < x o.o.o.o.o.",
"o.o.l & ^ W R E E 3 ; v o.o.o.o.",
"o.b < ' U g L z g a / 5 Z o.o.o.",
"o.8 A  .I q = X f s ] ( 0 S o.o.",
"o.o.5 _ U j o O h t X.{ Q B o.o.",
"o.o.o.< ~ p d w u H | [ _ D D o.",
"o.o.o.o.o.v r e a X.| ` J B o.o.",
"o.o.o.o.o.o.o.o.! K B ; o.o.o.o.",
"o.o.o.o.o.o.o.o.o.o.o.o.o.o.o.o."
};
