/* XPM */
static const char *layer_visible_off_xpm[] = {
/* columns rows colors chars-per-pixel */
"16 16 75 1 ",
"  c gray21",
". c #4B4A4A",
"X c #555656",
"o c #656565",
"O c DimGray",
"+ c gray43",
"@ c gray44",
"# c gray51",
"$ c #838383",
"% c #858686",
"& c #868686",
"* c #888888",
"= c #8B8B8B",
"- c gray56",
"; c #909090",
": c gray57",
"> c #939393",
", c #959595",
"< c #989898",
"1 c gray60",
"2 c #9A9A9A",
"3 c #9B9B9B",
"4 c #9B9C9C",
"5 c gray61",
"6 c gray62",
"7 c #9F9F9F",
"8 c #9EA0A0",
"9 c #9FA0A0",
"0 c gray63",
"q c #A2A2A2",
"w c gray64",
"e c #A4A4A4",
"r c #A5A5A5",
"t c #A7A7A7",
"y c gray66",
"u c #A9A9A9",
"i c #ABADAD",
"p c #ACACAC",
"a c gray68",
"s c #AEAEAE",
"d c #AFAFAF",
"f c gray69",
"g c #B1B1B1",
"h c gray70",
"j c #B4B4B4",
"k c gray71",
"l c #B6B6B6",
"z c #B7B7B7",
"x c gray72",
"c c #B8B9B9",
"v c #BCBCBC",
"b c #C1C1C1",
"n c #C3C3C3",
"m c #C5C7C7",
"M c gray78",
"N c gray79",
"B c #CBCBCB",
"V c gray80",
"C c gray81",
"Z c #D0D0D0",
"A c LightGray",
"S c #D5D5D5",
"D c gray84",
"F c #D8D8D8",
"G c gray85",
"H c gray86",
"J c #DDDDDD",
"K c #E6E6E6",
"L c gray91",
"P c #EAEAEA",
"I c #ECECEC",
"U c gray93",
"Y c #F1F1F1",
"T c gray95",
"R c None",
/* pixels */
"RRRRRRRRRRRRRRRR",
"RRRRRRRRRRRRRRRR",
"RRRRjhesjsRRRRRR",
"RRRq+RRRo,hRRRRR",
"RR*RRRRRRR+uRRRR",
"RRRRRRRRRRRR3RRR",
"RRRRRxvxjRRRRRRR",
"RRRs3;q6-huRRRRR",
"RRu*MGSmS*6eRRRR",
"Re-JBn9&hhZ;eRRR",
"R3fIM&. 6hLZ-3RR",
"RRqGBcXOiqYPb;RR",
"RRReG33#3jUKZ64R",
"RRRRRs,#sYUGh;RR",
"RRRRRRRRVj6&RRRR",
"RRRRRRRRRRRRRRRR"
};
