/* XPM */
static const char * light_xpm[] = {
"16 16 23 1",
" 	c None",
"!	c #000000",
"#	c #808080",
"$	c #808000",
"%	c #606040",
"&	c #C0C0C0",
"'	c #808040",
"(	c #FFFF00",
")	c #A0A000",
"*	c #202000",
"+	c #404000",
",	c #C0C000",
"-	c #E0E000",
".	c #408040",
"0	c #008080",
"1	c #408080",
"2	c #FFFFC0",
"3	c #C0C080",
"4	c #FFFFFF",
"5	c #FFFF80",
"6	c #FFFF40",
"7	c #606000",
"8	c #206040",
"     #    #     ",
"    #$%&&'$#    ",
"    '()*+,-%    ",
"    $.0000.+    ",
" #'+01&223.0+'# ",
"&$(.1455555..($#",
" %)0&566((-$0)% ",
" &*055((((-)0*& ",
" &+056((((-)0+& ",
" ',035(((-,70,' ",
"&$-.8,---,,8.-$#",
" #%*08$))780*%# ",
"    $.0000.+    ",
"    '()*+,-%    ",
"    #$%&&'$#    ",
"     #    #     "};
