/* XPM */
static const char *list_remove_xpm[] = {
/* columns rows colors chars-per-pixel */
"16 16 46 1 ",
"  c #9B0000",
". c #9E0000",
"X c #A50000",
"o c #A10404",
"O c #AB0000",
"+ c #B00000",
"@ c #B20000",
"# c #B70000",
"$ c #B90000",
"% c #BE0000",
"& c #BF0000",
"* c #BE1C1C",
"= c #BE2222",
"- c #C40000",
"; c #C60000",
": c #CB0000",
"> c #CD0000",
", c #D20000",
"< c #D30000",
"1 c #D80000",
"2 c #DA0000",
"3 c #DF0000",
"4 c #E50000",
"5 c #EA0404",
"6 c #D02828",
"7 c #BF4141",
"8 c #C74545",
"9 c #C84D4D",
"0 c #DF4949",
"q c #DE4D4D",
"w c #C15252",
"e c #CF5A5A",
"r c #D25151",
"t c #D15757",
"y c #D95050",
"u c #D75A5A",
"i c #DC5A5A",
"p c #EC4141",
"a c #E14949",
"s c #E15A5A",
"d c #E45A5A",
"f c #C76464",
"g c #CC6767",
"h c #E26464",
"j c #F66262",
"k c None",
/* pixels */
"kkkkkkkkkkkkkkkk",
"kkkkkkkkkkkkkkkk",
"kkkkkkkkkkkkkkkk",
"kkkkkkkkkkkkkkkk",
"kkkkkkkkkkkkkkkk",
"kkkkkkkkkkkkkkkk",
"kkf7+#%-:,13pjkk",
"kkogeuisddht85kk",
"kk.w9ryaa06*=4kk",
"kkk.XO+$-->,1kkk",
"kkkkkkkkkkkkkkkk",
"kkkkkkkkkkkkkkkk",
"kkkkkkkkkkkkkkkk",
"kkkkkkkkkkkkkkkk",
"kkkkkkkkkkkkkkkk",
"kkkkkkkkkkkkkkkk"
};
