/* XPM */
static const char *list_add_xpm[] = {
/* columns rows colors chars-per-pixel */
"16 16 93 2 ",
"   c #008200",
".  c #008300",
"X  c #008700",
"o  c #048604",
"O  c #008B00",
"+  c #018C00",
"@  c #048E02",
"#  c #058F02",
"$  c #068F04",
"%  c #079004",
"&  c #0B9205",
"*  c #0C9208",
"=  c #0E9308",
"-  c #13970A",
";  c #12960B",
":  c #17990D",
">  c #179A0C",
",  c #1B9C0E",
"<  c #1C9C0E",
"1  c #1F9810",
"2  c #1F9F10",
"3  c #199914",
"4  c #1F9319",
"5  c #209F11",
"6  c #24A113",
"7  c #28A415",
"8  c #2AA419",
"9  c #2FA819",
"0  c #30A91B",
"q  c #37AD1D",
"w  c #37AD1E",
"e  c #2AA123",
"r  c #37AC20",
"t  c #39AA2C",
"y  c #3CB023",
"u  c #3FB126",
"i  c #33A332",
"p  c #3BA730",
"a  c #56AB1D",
"s  c #40B322",
"d  c #40B223",
"f  c #42B326",
"g  c #43B427",
"h  c #40B028",
"j  c #40B128",
"k  c #43B12E",
"l  c #45B32D",
"z  c #49B828",
"x  c #4FBB2A",
"c  c #4EB734",
"v  c #56BD35",
"b  c #58BE35",
"n  c #58C031",
"m  c #46A742",
"M  c #41A841",
"N  c #4AAD46",
"B  c #4FB549",
"V  c #57BB47",
"C  c #5ABD47",
"Z  c #57B848",
"A  c #5DB553",
"S  c #5DBC55",
"D  c #60BD4F",
"F  c #62BE56",
"G  c #62B662",
"H  c #68BA63",
"J  c #68BD60",
"K  c #6BBF65",
"L  c #63C353",
"P  c #65C454",
"I  c #6BC352",
"U  c #67C05E",
"Y  c #6AC359",
"T  c #68C25F",
"R  c #6DC561",
"E  c #75C864",
"W  c #7CCD61",
"Q  c #77CA68",
"!  c #79CC6B",
"~  c #7BCD6C",
"^  c #7CC970",
"/  c #7ECA74",
"(  c #83D173",
")  c #84D174",
"_  c #91D77C",
"`  c #92D97E",
"'  c #9AD686",
"]  c #9ADB80",
"[  c #9EDE86",
"{  c #A1DF8A",
"}  c #A0D98E",
"|  c #A1D990",
" . c None",
/* pixels */
" . . . . . . . . . . . . . . . .",
" . . . . . .^ j g |  . . . . . .",
" . . . . . .Z } ' I  . . . . . .",
" . . . . . .6 [ { f  . . . . . .",
" . . . . . .2 _ ` y  . . . . . .",
" . . . . . ., ( ) r  . . . . . .",
" .G M $ * ; : ! ~ 0 w d z W ]  .",
" .o H J U T R L P E Q / K A n  .",
" .. m N B S F Z C Y D t e t x  .",
" . .. X O $ & k c 5 7 9 w s  . .",
" . . . . . .$ l v <  . . . . . .",
" . . . . . .@ h b :  . . . . . .",
" . . . . . .+ 8 h ;  . . . . . .",
" . . . . . .5 * 4 5  . . . . . .",
" . . . . . .a * i  . . . . . . .",
" . . . . . . . . . . . . . . . ."
};
