/* XPM */
static const char * mark_cf_xpm[] = {
"16 16 2 1",
" 	c None",
".	c #000000",
"     ......     ",
"   ..      ..   ",
"  .          .  ",
" .            . ",
" .            . ",
".              .",
".              .",
".      ..      .",
".      ..      .",
".              .",
".              .",
" .            . ",
" .            . ",
"  .          .  ",
"   ..      ..   ",
"     ......     "};
