/* XPM */
static const char * mark_r_xpm[] = {
"16 16 2 1",
" 	c None",
".	c #000000",
"    ..          ",
"    . ..        ",
"    .   .       ",
"    .    ..     ",
"    .      .    ",
"    .       ..  ",
"    .         . ",
"    .          .",
"    .          .",
"    .         . ",
"    .       ..  ",
"    .      .    ",
"    .    ..     ",
"    .   .       ",
"    . ..        ",
"    ..          "};
