/* XPM */
static const char *mask_d_xpm[]={
"16 16 2 1",
". c None",
"# c #000000",
"................",
"................",
"........##......",
"........##......",
"......##..##....",
"......##..##....",
"....##......##..",
"....##......##..",
"......##..##....",
"......##..##....",
"........##......",
"........##......",
"................",
"................",
"................",
"................"};
