/* XPM */
static const char *mask_r_xpm[]={
"16 16 2 1",
". c None",
"# c #000000",
"................",
"................",
"..####..........",
"..####..........",
"..##..####......",
"..##..####......",
"..##......####..",
"..##......####..",
"..##..####......",
"..##..####......",
"..####..........",
"..####..........",
"................",
"................",
"................",
"................"};
