/* XPM */
static const char *media_playback_start_xpm[] = {
/* columns rows colors chars-per-pixel */
"16 16 86 1 ",
"  c #070707",
". c gray9",
"X c #181818",
"o c gray13",
"O c #252525",
"+ c gray21",
"@ c gray23",
"# c gray25",
"$ c #484848",
"% c gray29",
"& c gray31",
"* c #505050",
"= c #515151",
"- c gray32",
"; c #535353",
": c gray33",
"> c #555555",
", c #565656",
"< c #585858",
"1 c #5B5B5B",
"2 c #5D5D5D",
"3 c gray37",
"4 c #5F5F5F",
"5 c #606060",
"6 c gray38",
"7 c #646464",
"8 c #656565",
"9 c gray40",
"0 c #676767",
"q c #686868",
"w c #6A6A6A",
"e c gray42",
"r c #6C6C6C",
"t c #6F6F6F",
"y c #727272",
"u c gray45",
"i c #747474",
"p c #767676",
"a c #777777",
"s c gray47",
"d c #797979",
"f c #7B7B7B",
"g c #7C7C7C",
"h c gray49",
"j c gray50",
"k c #818181",
"l c #838383",
"z c #868686",
"x c #8D8D8D",
"c c #8E8E8E",
"v c gray56",
"b c gray58",
"n c #9A9A9A",
"m c #B2B2B2",
"M c gray72",
"N c gray73",
"B c #BBBBBB",
"V c gray",
"C c #CBCBCB",
"Z c gray80",
"A c #CECECE",
"S c gray81",
"D c #D0D0D0",
"F c LightGray",
"G c gray83",
"H c #D5D5D5",
"J c gray85",
"K c gray86",
"L c #DDDDDD",
"P c #E2E2E2",
"I c gray91",
"U c #E9E9E9",
"Y c #EAEAEA",
"T c #ECECEC",
"R c gray93",
"E c #EFEFEF",
"W c gray94",
"Q c #F1F1F1",
"! c gray95",
"~ c #F3F3F3",
"^ c #F6F6F6",
"/ c gray98",
"( c gray99",
") c #FDFDFD",
"_ c white",
"` c None",
/* pixels */
"`````lljjll`````",
"````duujjuud````",
"``dtaNDJJHNdtd``",
"``ecHUR^WWULce``",
"`tuHR^mW))/WPae`",
"e4VR^)czD)))WD5e",
"77SW))j7<bW)/Ue5",
"4uDW/)7;#@4C)Rj5",
"4uHW))+. O>S)Wj4",
"<5DR))@oXuW)/R7<",
"4;MU/)%%N)))/J><",
"`>eLW)bW))))Wa>`",
"``;lPW))))/Rn&``",
"``>&7SURWRLu;>``",
"````;&4ad4&;````",
"`````;;&;;>`````"
};
