/* XPM */
static const char *media_seek_backward_xpm[] = {
/* columns rows colors chars-per-pixel */
"16 16 90 1 ",
"  c #070707",
". c gray3",
"X c #191919",
"o c gray13",
"O c #252525",
"+ c #2C2C2C",
"@ c gray18",
"# c gray20",
"$ c #444444",
"% c #4C4C4C",
"& c gray31",
"* c #505050",
"= c #515151",
"- c gray32",
"; c #535353",
": c gray33",
"> c #555555",
", c #565656",
"< c #5B5B5B",
"1 c #5D5D5D",
"2 c #5F5F5F",
"3 c #606060",
"4 c gray38",
"5 c gray39",
"6 c #646464",
"7 c #656565",
"8 c gray40",
"9 c #676767",
"0 c #686868",
"q c #6A6A6A",
"w c gray42",
"e c #6C6C6C",
"r c #6F6F6F",
"t c #727272",
"y c gray45",
"u c #747474",
"i c #767676",
"p c #777777",
"a c gray47",
"s c #797979",
"d c #7B7B7B",
"f c #7C7C7C",
"g c gray50",
"h c #818181",
"j c #838383",
"k c #868686",
"l c #8D8D8D",
"z c #8E8E8E",
"x c #9A9A9A",
"c c #9F9F9F",
"v c #A2A2A2",
"b c #A5A5A5",
"n c gray65",
"m c #AAAAAA",
"M c #B1B1B1",
"N c #B2B2B2",
"B c #B6B6B6",
"V c gray72",
"C c gray73",
"Z c #BCBCBC",
"A c gray74",
"S c gray",
"D c gray76",
"F c #C3C3C3",
"G c #CACACA",
"H c #CECECE",
"J c #D0D0D0",
"K c LightGray",
"L c gray83",
"P c #D5D5D5",
"I c gray85",
"U c gray86",
"Y c #DDDDDD",
"T c #E2E2E2",
"R c gray91",
"E c #E9E9E9",
"W c #EAEAEA",
"Q c #ECECEC",
"! c gray93",
"~ c #EFEFEF",
"^ c #F1F1F1",
"/ c gray95",
"( c #F3F3F3",
") c #F6F6F6",
"_ c gray98",
"` c #FBFBFB",
"' c gray99",
"] c #FDFDFD",
"[ c white",
"{ c None",
/* pixels */
"{{{{{jjggjj{{{{{",
"{{{{syyggyys{{{{",
"{{srsCJIIPCirs{{",
"{{wzJR^^^^WYzw{{",
"{ryPQ)`D]]`^Tiw{",
"w2SQ)]Ds]]B]^H5w",
"66H^]Gi5]S:]`W66",
"2yJ^Ss<%S2@]`^s5",
"2yP^M*O.M$.]]^g<",
"<5JQ]m@X]bo]]^6<",
"<*CW`]v#]]b]`I:<",
"{:6Y^]]b]]]]^y:{",
"{{*kT^`]]]`^x*{{",
"{{:*wJWQ^QIi*:{{",
"{{{{**2is5**{{{{",
"{{{{{:****:{{{{{"
};
