/* XPM */
static const char *media_seek_forward_xpm[] = {
/* columns rows colors chars-per-pixel */
"16 16 87 1 ",
"  c #070707",
". c gray3",
"X c #191919",
"o c #252525",
"O c #313131",
"+ c gray21",
"@ c gray23",
"# c #3F3F3F",
"$ c gray29",
"% c #4E4E4E",
"& c gray31",
"* c #505050",
"= c #515151",
"- c gray32",
"; c gray33",
": c #555555",
"> c #565656",
", c #5A5A5A",
"< c #5B5B5B",
"1 c #5D5D5D",
"2 c #5F5F5F",
"3 c #606060",
"4 c gray38",
"5 c #646464",
"6 c #656565",
"7 c gray40",
"8 c #676767",
"9 c #686868",
"0 c #6A6A6A",
"q c gray42",
"w c #6C6C6C",
"e c #6F6F6F",
"r c #727272",
"t c gray45",
"y c #747474",
"u c #767676",
"i c #777777",
"p c gray47",
"a c #797979",
"s c #7B7B7B",
"d c #7C7C7C",
"f c gray50",
"g c #818181",
"h c #838383",
"j c #868686",
"k c #8D8D8D",
"l c #8E8E8E",
"z c #909090",
"x c #959595",
"c c gray60",
"v c #9A9A9A",
"b c gray63",
"n c gray65",
"m c #A9A9A9",
"M c gray67",
"N c #AEAEAE",
"B c #B2B2B2",
"V c gray72",
"C c gray73",
"Z c gray74",
"A c gray",
"S c #CACACA",
"D c #CECECE",
"F c #D0D0D0",
"G c LightGray",
"H c gray83",
"J c #D5D5D5",
"K c gray85",
"L c gray86",
"P c #DDDDDD",
"I c #E2E2E2",
"U c gray91",
"Y c #E9E9E9",
"T c #EAEAEA",
"R c #ECECEC",
"E c gray93",
"W c #EFEFEF",
"Q c #F1F1F1",
"! c gray95",
"~ c #F3F3F3",
"^ c #F6F6F6",
"/ c gray98",
"( c #FBFBFB",
") c gray99",
"_ c #FDFDFD",
"` c white",
"' c None",
/* pixels */
"'''''hhffhh'''''",
"''''attfftta''''",
"''aeiVFLLJViea''",
"''qlJTRQQQTPlq''",
"'etJR^__A_/QIiq'",
"q2AR^S__aB__QD3q",
"55DQ_lA_q%n_/Tq3",
"2tFQ_q;V,O+M_Rf3",
"2tJQ/O.b+.oM_Qf2",
",3FQ_$z_@Xx__R5,",
",;VT/M__$v__/L;,",
"';5PQ/__N___Qi;'",
"''*jIQ/___/Qv*''",
"'';%qFTRQRLi%;''",
"''''**2aa2%*''''",
"''''';****;'''''"
};
