/* XPM */
static const char * next_sl_xpm[] = {
"16 16 5 1",
" 	c None",
".	c #00007F",
"+	c #007FFF",
"@	c #0000FF",
"#	c #003F80",
"                ",
"      ..        ",
"      .+.       ",
"      .++.      ",
"     .++@+.     ",
" ....++@+@+.    ",
" .@+@+@+@+@+.   ",
" .@@@@@@@@+@+.  ",
" .@@@@@@@@@@@@. ",
" .@@@@@@@@#@#.  ",
" .@#@#@#@#@#.   ",
" ....@#@#@#.    ",
"     .@#@#.     ",
"      .##.      ",
"      .#.       ",
"      ..        "};
