/* XPM */
static const char *object_ungroup_xpm[] = {
/* columns rows colors chars-per-pixel */
"16 16 24 1 ",
"  c #78787B",
". c #1867ED",
"X c #1867EE",
"o c #1868ED",
"O c #1868EE",
"+ c #86868A",
"@ c #949499",
"# c #A1A1A6",
"$ c #ACACB1",
"% c #B7B7BC",
"& c #B8B8BD",
"* c gray90",
"= c #E7E7E7",
"- c gray91",
"; c #ECECEC",
": c gray93",
"> c #EEEEEE",
", c #EFEFEF",
"< c #F3F3F3",
"1 c #F6F6F6",
"2 c #FBFBFB",
"3 c #FEFEFE",
"4 c white",
"5 c None",
/* pixels */
"5555555555555555",
"55555OOOOO.55555",
"5555555555O55555",
"555%$#@+ 5OO.555",
"555%**,< 555O555",
"5.5%2&$#@+ 5OO.5",
"5O5%2&*-,< 555O5",
"5O5%2&2&$#@+ 5O5",
"5O5&$&2%**,< 5O5",
"5O555&2%2,,< 5O5",
"5OOO5&$%222- 5.5",
"555O555%2222 555",
"555.OO5%$#@+ 555",
"55555O5555555555",
"55555.OOOO.55555",
"5555555555555555"
};
