/* XPM */
static const char *object_rotate_left_xpm[] = {
/* columns rows colors chars-per-pixel */
"16 16 82 1 ",
"  c #220F57",
". c #211057",
"X c #24105E",
"o c #331A73",
"O c #3E2770",
"+ c #3F2878",
"@ c #432B79",
"# c #3E2280",
"$ c #482D81",
"% c #4A2F84",
"& c #422588",
"* c #4E318C",
"= c #4E318D",
"- c #573B97",
"; c #52329E",
": c #573B98",
"> c #5A389F",
", c #5432A2",
"< c #5835A7",
"1 c #5B38A4",
"2 c #5F3CAD",
"3 c #5E3AB1",
"4 c #603BB3",
"5 c #653FB7",
"6 c #633DB8",
"7 c #673FBC",
"8 c #56408A",
"9 c #584288",
"0 c #594094",
"q c #5A4094",
"w c #5B4297",
"e c #6E589D",
"r c #6247A0",
"t c #755DA7",
"y c #755EA9",
"u c #6C4ABA",
"i c #6E4DBA",
"p c #755AB0",
"a c #785BB9",
"s c #7C65AB",
"d c #6941C0",
"f c #6C44C4",
"g c #734EC1",
"h c #826DB0",
"j c #836EB3",
"k c #846DB4",
"l c #8970BF",
"z c #8F79BD",
"x c #907CB8",
"c c #917CBD",
"v c #9382B5",
"b c #9584BA",
"n c #9784BC",
"m c #9685BD",
"M c #9884BB",
"N c #9987BF",
"B c #998AB8",
"V c #9A88BF",
"C c #9986C0",
"Z c #9F8FC2",
"A c #A190C6",
"S c #AA9AC9",
"D c #AD9DCA",
"F c #AA9BCD",
"G c #AEA0CD",
"H c #B7AAD1",
"J c #B9ACD1",
"K c #BBAFD3",
"L c #BCAFD7",
"P c #BCB1D4",
"I c #BFB1D6",
"U c #BFB4D6",
"Y c #C5BBDA",
"T c #C6BCDA",
"R c #C8BFDC",
"E c #C9C0DC",
"W c #CFC7E0",
"Q c #D0C4E2",
"! c #D0C8E1",
"~ c #D2CAE2",
"^ c #DCD6E8",
"/ c None",
/* pixels */
"////////////////",
"///////ff///////",
"/////diL4///////",
"////ul!^,<//////",
"///gFWW!TGp3////",
"///uATREERTz6///",
"////;yKY8mUPa///",
"/////#+BXomHC5//",
"///////. /wZh2//",
"/////:////-xs1//",
"////Mj&//&kmt>//",
"///wNSxrrcSVw///",
"///=eDYQQPDe*///",
"////$9xHKv9$////",
"/////%@OO@%/////",
"////////////////"
};
