/* XPM */
static const char *object_order_raise_xpm[] = {
/* columns rows colors chars-per-pixel */
"16 16 80 1 ",
"  c #757578",
". c #747479",
"X c #7D7D82",
"o c #86868A",
"O c #8F8F93",
"+ c #909095",
"@ c #97979C",
"# c #9F9FA4",
"$ c #A0A0A6",
"% c #A6A6AA",
"& c #AAAAAF",
"* c #ACACB2",
"= c #B2B2B6",
"- c #B3B3B8",
"; c #B4B4BA",
": c #BABABE",
"> c #BEBEC2",
", c #80B3FF",
"< c #81B3FF",
"1 c #81B4FF",
"2 c #83B4FF",
"3 c #83B5FF",
"4 c #84B5FF",
"5 c #85B6FF",
"6 c #86B6FF",
"7 c #87B7FF",
"8 c #88B7FF",
"9 c #89B8FF",
"0 c #8AB9FE",
"q c #8BB9FE",
"w c #8AB8FF",
"e c #8BB9FF",
"r c #8DBAFE",
"t c #8DBBFE",
"y c #8FBCFF",
"u c #92BEFE",
"i c #96BFFE",
"p c #95C0FE",
"a c #99C2FD",
"s c #9CC3FD",
"d c #9EC5FD",
"f c #A5C9FD",
"g c #A7CBFC",
"h c #ADCDFA",
"j c #AECEFB",
"k c #A9CBFC",
"l c #AACCFC",
"z c #ABCDFC",
"x c #ACCDFC",
"c c #ACCEFC",
"v c #ADCEFC",
"b c #C0C0C4",
"n c #C2C2C6",
"m c #C8C8CC",
"M c #C9C9CC",
"N c #C8C8CD",
"B c #D5D5D8",
"V c #D6D6D9",
"C c gray90",
"Z c #E6E6E6",
"A c #E7E7E7",
"S c gray91",
"D c #E9E9E9",
"F c #EAEAEA",
"G c gray92",
"H c #ECECEC",
"J c gray93",
"K c #EEEEEE",
"L c #EFEFEF",
"P c gray94",
"I c #F1F1F1",
"U c gray95",
"Y c #F3F3F3",
"T c gray96",
"R c #F6F6F6",
"E c #F9F9F9",
"W c #FDFDFD",
"Q c #FEFEFE",
"! c white",
"~ c None",
/* pixels */
"~~~~~~~~~~~~~~~~",
"~:-*%#@OoX ~~~~~",
"~:CCASSGLU ~~~~~",
"~:KSCAJLYR ~~~~~",
"~:EUKSJLUU ~~~~~",
"~:!!RBNn:=+OoX ~",
"~:!!!Bjjjzjjd0 ~",
"~:!!!Bjjzfa8,, ~",
"~:!!!Bir668666 ~",
"~:!!!B,,6008rf ~",
"~:-*%b,660yikz ~",
"~~~~~N1160szzj ~",
"~~~~~N,1ugzzzj ~",
"~~~~~Nrfjzzjjh ~",
"~~~~~N>;*$@OoX ~",
"~~~~~~~~~~~~~~~~"
};
