/* XPM */
static const char *object_order_lower_xpm[] = {
/* columns rows colors chars-per-pixel */
"16 16 79 1 ",
"  c #757578",
". c #747479",
"X c #7C7C7F",
"o c #7D7D82",
"O c #7A869A",
"+ c #7B869A",
"@ c #7E8999",
"# c #7D8BA4",
"$ c #86868A",
"% c #8F8F93",
"& c #838C99",
"* c #97979C",
"= c #818CA1",
"- c #8692A7",
"; c #8C98AE",
": c #9F9FA4",
"> c #919EB5",
", c #A0A0A6",
"< c #A6A6AA",
"1 c #A7A7AC",
"2 c #AAAAAF",
"3 c #ACACB2",
"4 c #B3B3B8",
"5 c #B4B4BA",
"6 c #BABABE",
"7 c #BEBEC2",
"8 c #80B3FF",
"9 c #81B3FF",
"0 c #81B4FF",
"q c #83B4FF",
"w c #84B5FF",
"e c #85B6FF",
"r c #86B6FF",
"t c #88B7FF",
"y c #89B8FF",
"u c #8AB9FE",
"i c #8AB8FF",
"p c #8DBAFE",
"a c #8DBBFE",
"s c #92BEFE",
"d c #96BFFE",
"f c #9CC3FD",
"g c #9EC5FD",
"h c #A5C9FD",
"j c #A7CBFC",
"k c #ADCDFA",
"l c #A9CBFC",
"z c #AACCFC",
"x c #ABCDFC",
"c c #ACCDFC",
"v c #ACCEFC",
"b c #ADCEFC",
"n c #C8C8CC",
"m c #C8C8CD",
"M c gray90",
"N c #E6E6E6",
"B c #E7E7E7",
"V c gray91",
"C c #E9E9E9",
"Z c #EAEAEA",
"A c gray92",
"S c #ECECEC",
"D c gray93",
"F c #EEEEEE",
"G c #EFEFEF",
"H c gray94",
"J c #F1F1F1",
"K c gray95",
"L c #F3F3F3",
"P c gray96",
"I c #F6F6F6",
"U c gray97",
"Y c #F9F9F9",
"T c gray98",
"R c gray99",
"E c #FDFDFD",
"W c #FEFEFE",
"Q c white",
"! c None",
/* pixels */
"!!!!!!!!!!!!!!!!",
"!643<:*%$o !!!!!",
"!6MMVVVVFK !!!!!",
"!6FVMMFKPP !!!!!",
"!6YKFVFFKK !!!!!",
"!6QQPKFVFVX%$o !",
"!6QQQYPKMM&vgu !",
"!6QQQQQPKV@t88 !",
"!6QQQQQQQL+www !",
"!6QQQQQQQQ+tpz !",
"!643<1>;-=#dlv !",
"!!!!!m8qwtfzvv !",
"!!!!!m88sjxvvv !",
"!!!!!mpjvvvvvk !",
"!!!!!m753:*%$o !",
"!!!!!!!!!!!!!!!!"
};
