/* XPM */
static const char *object_rotate_right_xpm[] = {
/* columns rows colors chars-per-pixel */
"16 16 83 1 ",
"  c #210F57",
". c #221057",
"X c #24105E",
"o c #331A73",
"O c #3E2770",
"+ c #3F2878",
"@ c #432B79",
"# c #3E2280",
"$ c #482D81",
"% c #4A2F84",
"& c #422588",
"* c #4E318C",
"= c #4E318D",
"- c #573B97",
"; c #52329E",
": c #573B98",
"> c #5A389F",
", c #5432A2",
"< c #5835A7",
"1 c #5B38A4",
"2 c #5F3CAD",
"3 c #5E3AB1",
"4 c #603BB3",
"5 c #653FB7",
"6 c #633DB8",
"7 c #673FBC",
"8 c #56408A",
"9 c #584288",
"0 c #594094",
"q c #5A4094",
"w c #5B4297",
"e c #6E589D",
"r c #6247A0",
"t c #755DA7",
"y c #755EA9",
"u c #6C4ABA",
"i c #6E4DBA",
"p c #755AB0",
"a c #785BB9",
"s c #7C65AB",
"d c #6941C0",
"f c #6C44C4",
"g c #6C44C5",
"h c #734EC1",
"j c #826DB0",
"k c #836EB3",
"l c #846DB4",
"z c #8970BF",
"x c #8F79BD",
"c c #907CB8",
"v c #917CBD",
"b c #9382B5",
"n c #9584BA",
"m c #9784BC",
"M c #9685BD",
"N c #9884BB",
"B c #9987BF",
"V c #998AB8",
"C c #9A88BF",
"Z c #9986C0",
"A c #9F8FC2",
"S c #A190C6",
"D c #AA9AC9",
"F c #AD9DCA",
"G c #AA9BCD",
"H c #AEA0CD",
"J c #B7AAD1",
"K c #B9ACD1",
"L c #BBAFD3",
"P c #BCAFD7",
"I c #BCB1D4",
"U c #BFB1D6",
"Y c #BFB4D6",
"T c #C5BBDA",
"R c #C6BCDA",
"E c #C8BFDC",
"W c #C9C0DC",
"Q c #CFC7E0",
"! c #D0C4E2",
"~ c #D0C8E1",
"^ c #D2CAE2",
"/ c #DCD6E8",
"( c None",
/* pixels */
"((((((((((((((((",
"(((((((gg(((((((",
"(((((((4Piu(((((",
"((((((<,/^z7((((",
"((((3pHR~QQGh(((",
"(((6xREWWERSu(((",
"(((aIYn8TLy,((((",
"((5ZJMoXV+#(((((",
"((2jAw(. (((((((",
"((1sc:((((:(((((",
"((1tNl&((&kN((((",
"(((qZDvrrvDZ0(((",
"(((=eFI!!IFe=(((",
"(((($9bKKb9$((((",
"(((((%@O@@%(((((",
"(((((((((((((((("
};
