/* XPM */
static const char *object_group_xpm[] = {
/* columns rows colors chars-per-pixel */
"16 16 24 1 ",
"  c #75777E",
". c #78787B",
"X c #1867ED",
"o c #1867EE",
"O c #86868A",
"+ c #949499",
"@ c #A1A1A6",
"# c #ACACB1",
"$ c #B3B5BD",
"% c #B7B7BC",
"& c #B8B8BD",
"* c gray90",
"= c #E7E7E7",
"- c gray91",
"; c #ECECEC",
": c gray93",
"> c #EEEEEE",
", c #EFEFEF",
"< c #F3F3F3",
"1 c #F6F6F6",
"2 c #FBFBFB",
"3 c #FEFEFE",
"4 c white",
"5 c None",
/* pixels */
"5555555555555555",
"5555555555555555",
"555Xooooo5555555",
"55X$#@+O o555555",
"55o%*-><.oo55555",
"55X%2%#@+O o5555",
"55X%4%**><.oo555",
"55X%4%2&#@+O o55",
"55X$#%4%**><.X55",
"555XX%4%2,>>.X55",
"5555X$#%44<-.X55",
"55555Xo%4444.X55",
"555555X$#@+O X55",
"5555555XoooXX555",
"5555555555555555",
"5555555555555555"
};
