/* XPM */
static const char *office_chart_scatter_xpm[] = {
/* columns rows colors chars-per-pixel */
"16 16 22 1 ",
"  c gray47",
". c gray49",
"X c #B72659",
"o c #B81F6C",
"O c #81807E",
"+ c #056DFF",
"@ c #0A6EFC",
"# c #0673FF",
"$ c #0A72FF",
"% c #1273FC",
"& c #1776FD",
"* c #1579FF",
"= c #1F7BFD",
"- c #247EFD",
"; c #BB1393",
": c #BC0BA6",
"> c #2381FF",
", c #2D88FF",
"< c #808080",
"1 c gray51",
"2 c #838383",
"3 c None",
/* pixels */
"3333333333333333",
"3.33333333333333",
"3.33333333333333",
"3<33X3X33333,333",
"3<3333333333>333",
"3233o3o333*&3->3",
" <3333333333%333",
"3<3333333333#333",
"3233333333333333",
" <333$33333;3;33",
"32333@3333333333",
"3<3$@3@$333:3:33",
" 2333$3333333333",
"3<333+3333333333",
"322<OO<<<2<<<..3",
"3333 33 33 33333"
};
