/* XPM */
static const char *office_chart_bar_xpm[] = {
/* columns rows colors chars-per-pixel */
"16 16 62 1 ",
"  c gray47",
". c #7F7C7A",
"X c gray49",
"o c #7F7E7C",
"O c #7F7F7E",
"+ c #807D7B",
"@ c #807F7D",
"# c #81807F",
"$ c #285C9C",
"% c #2A5F9E",
"& c #2B60A2",
"* c #2E64A4",
"= c #366AA8",
"- c #3B6EAC",
"; c #3F71AF",
": c #4578B4",
"> c #477AB6",
", c #5082BD",
"< c #5182BD",
"1 c #5182BE",
"2 c #5A8BC4",
"3 c #5B8CC6",
"4 c #5C8DC6",
"5 c #6393CB",
"6 c #6696CE",
"7 c #6796CF",
"8 c #6C9BD3",
"9 c #73A1D7",
"0 c #74A1D7",
"q c #75A3DA",
"w c #7FACE1",
"e c #808080",
"r c gray51",
"t c #838383",
"y c #80ADE1",
"u c #84B2E7",
"i c #8AB5E9",
"p c #8EBAEF",
"a c #A3C0E4",
"s c #A3C1E4",
"d c #A5C2E5",
"f c #A5C2E6",
"g c #ADC7E7",
"h c #AEC8E7",
"j c #AFC8E7",
"k c #BDD2EC",
"l c #C4D6ED",
"z c #C4D6EE",
"x c #D5E2F3",
"c c #D6E2F3",
"v c #DBE7F4",
"b c #E0EAF6",
"n c #E6EDF8",
"m c #E7EFF8",
"M c #E9F0F9",
"N c #F2F5FB",
"B c #F1F6FB",
"V c #F4F7FC",
"C c #F7F9FD",
"Z c #FDFDFE",
"A c #FEFEFE",
"S c None",
/* pixels */
"SSSSSSSSSSSSSSSS",
"SXSSSSSSSSSSSSSS",
"SXSSSSSSSSSSSSSS",
"SeSSSSSSpiipSSSS",
"SeSSSSSSyZZySSSS",
"StSSSSSSqVNqSSSS",
" eSuyyuS8Mn8SSSS",
"SeSqCBqS5vc5SSSS",
"SeS7mb7S2zk2SSSS",
" eS2cz4S1jg1SSSS",
"StS1hg1S>aa>SSSS",
"SeS:ss>S:aa-SSSS",
" tS;ff;S=ff=SSSS",
"SeS*%$*S&$$&SSSS",
"St#X++@X@@.@@XXS",
"SSSS SS SS SSSSS"
};
