/* XPM */
static const char *office_chart_line_xpm[] = {
/* columns rows colors chars-per-pixel */
"16 16 49 1 ",
"  c gray47",
". c #7B7B7B",
"X c #7D7B78",
"o c #7C7B79",
"O c #7A7C7A",
"+ c #7A7C7B",
"@ c #7B7D7B",
"# c #7D7C7A",
"$ c #7C7C7B",
"% c #7B7D7C",
"& c #7C7D7D",
"* c gray49",
"= c #7E7D7C",
"- c #7C7E7C",
"; c #7F7E7D",
": c #7E7E7E",
"> c gray50",
", c #B4274F",
"< c #B4294B",
"1 c #B52A4C",
"2 c #B42750",
"3 c #B42354",
"4 c #B52851",
"5 c #B7215E",
"6 c #A7267C",
"7 c #0969F3",
"8 c #0B6AF3",
"9 c #1872F2",
"0 c #3475E9",
"q c #2079F5",
"w c #237CF7",
"e c #427DE6",
"r c #B81782",
"t c #B8148B",
"y c #B70E9A",
"u c #B71190",
"i c #B90DA0",
"p c #B90CA1",
"a c #B80CA2",
"s c #83469C",
"d c #3F8DF8",
"f c #448EF7",
"g c #4F95F8",
"h c #5398F8",
"j c #60A0F9",
"k c #6BA7FA",
"l c #6EA9FA",
"z c #78AFFB",
"x c None",
/* pixels */
"xxxxxxxxxxxxxxxx",
"x.xxxxxxxxxxxxxx",
"x.xxxxxxxxxxlzxx",
"x*xxxxxxxxxjkxxx",
"x*xxxxxxxxhxxxxx",
"x*xxxxxxxxgxxxxx",
".*xxxxxxxfxxxxxx",
"x*xxx143edxxxxxx",
"x*xx<2x5sxxxxxxx",
".Ox14xx06xxxxxxx",
"x%xxxxxwxrxxxixx",
"x.xxxx9qxtuxixxx",
".ox778xxxxyaxxxx",
"x.xxxxxxxxxxxxxx",
"x;$Xo$*O**.O%..x",
"xxxx.xx.xx.xxxxx"
};
