/* XPM */
static const char * ok_xpm[] = {
"16 16 3 1",
" 	c None",
"!	c #000090",
"#	c #0000FF",
"                ",
"              # ",
"             ## ",
"            ##! ",
"           ##!  ",
"          ##!   ",
"         ##!    ",
"         ##!    ",
"        ##!     ",
"  ###  ###!     ",
"   ### ##!      ",
"    #####!      ",
"     ###!       ",
"      ##!       ",
"       #!       ",
"        !       "};
