/* XPM */
static const char *package_x_generic_xpm[] = {
/* columns rows colors chars-per-pixel */
"16 16 85 1 ",
"  c #855201",
". c #8F5902",
"X c #8F5D0C",
"o c #945E07",
"O c #935E08",
"+ c #93600E",
"@ c #93600F",
"# c #95610E",
"$ c #99630D",
"% c #9A650E",
"& c #9B650F",
"* c #946212",
"= c #9B6A1B",
"- c #A06A14",
"; c #A26D19",
": c #A87B33",
"> c #A87C35",
", c #A87D37",
"< c #C78C33",
"1 c #AC8443",
"2 c #AD8544",
"3 c #B79255",
"4 c #BA9861",
"5 c #D29A46",
"6 c #DDA858",
"7 c #C2A26D",
"8 c #C4A36D",
"9 c #C3A370",
"0 c #C4A570",
"q c #C4A673",
"w c #C9AB7B",
"e c #CBAE7F",
"r c #CDAE7C",
"t c #D5AE74",
"y c #D7B074",
"u c #DAB47B",
"i c #D8B57E",
"p c #DDB77E",
"a c #E7B66A",
"s c #DFBB83",
"d c #E3BE87",
"f c #EDC485",
"g c #EDC587",
"h c #E3C08A",
"j c #EEC78A",
"k c #EEC98E",
"l c #E8C792",
"z c #EFCA90",
"x c #EFCC94",
"c c #E0C599",
"v c #E5CB9F",
"b c #ECCD9D",
"n c #ECCD9E",
"m c #F0CD97",
"M c #F0CE99",
"N c #E2CAA6",
"B c #E2CCA8",
"V c #E2CEAD",
"C c #EFD1A1",
"Z c #EFD3A7",
"A c #EED3A8",
"S c #EFD3A8",
"D c #EFD5AB",
"F c #EED5AC",
"G c #EFD6AE",
"H c #EFD7AE",
"J c #F0D1A2",
"K c #F0D4A8",
"L c #F0D5AB",
"P c #F0D5AD",
"I c #F0D7AE",
"U c #F0D7AF",
"Y c #E3D0B1",
"T c #E3D0B2",
"R c #E5D2B2",
"E c #E7D3B2",
"W c #EBDBC0",
"Q c #EDDDC3",
"! c #EFE0C7",
"~ c #F3E7D0",
"^ c #F1E5D2",
"/ c #F2E7D3",
"( c #F6F0E5",
") c #F9F3EA",
"_ c None",
/* pixels */
"________________",
"__.........o..__",
"..(BYYYRREcVN4._",
".^!O$%o%%-;:)r3*",
".^W###==,,,7^r8*",
"oWqPKKKJKAACKqw+",
".1FJMMmmkjjffA1+",
".7UUUUPIIFHUFFi.",
"_.......o......_",
"_.y<<<<<<<<<<t._",
"_.p5555555555u._",
"_.d6666666666s._",
"_.laaaaaaaaaah._",
"_.Fnnnnnnnnnnv._",
"_X............ _",
"________________"
};
