/* XPM */
static const char *preferences_system_xpm[] = {
/* columns rows colors chars-per-pixel */
"16 16 93 2 ",
"   c #393A37",
".  c #393938",
"X  c #3E3E3D",
"o  c #6F4B00",
"O  c #444542",
"+  c #444444",
"@  c #444544",
"#  c #454747",
"$  c #505051",
"%  c gray32",
"&  c #555655",
"*  c #57575A",
"=  c #585858",
"-  c gray37",
";  c #626364",
":  c #656565",
">  c #686A69",
",  c #6A6B6A",
"<  c #6B6B6A",
"1  c gray42",
"2  c gray46",
"3  c #797979",
"4  c #AF6F00",
"5  c #AC6F08",
"6  c #AE7103",
"7  c #B27300",
"8  c #A58732",
"9  c #CA8400",
"0  c #C68F05",
"q  c #C39006",
"w  c #CB9B00",
"e  c #D4A602",
"r  c #D5AC02",
"t  c #DEA801",
"y  c #EAB002",
"u  c #E7B70A",
"i  c #EABF15",
"p  c #F3CC0B",
"a  c #FDD708",
"s  c #F4CF19",
"d  c #F4D510",
"f  c #FAE000",
"g  c #F2CE24",
"h  c #FAE224",
"j  c #D1BB76",
"k  c #818181",
"l  c gray51",
"z  c #848484",
"x  c gray52",
"c  c #858685",
"v  c #898989",
"b  c #898A89",
"n  c gray55",
"m  c #8E8F8E",
"M  c #90908F",
"N  c #919190",
"B  c #939392",
"V  c #989998",
"C  c #999998",
"Z  c #9B9B9B",
"A  c #9C9E9F",
"S  c #A2A3A2",
"D  c #A2A4A3",
"F  c #A5A5A4",
"G  c #A7A7A6",
"H  c gray66",
"J  c #ACACAC",
"K  c #AEAEAE",
"L  c #B1B2B2",
"P  c gray70",
"I  c #B6B6B5",
"U  c #B7B7B7",
"Y  c #BBBBBA",
"T  c #BBBBBB",
"R  c #BCBCBB",
"E  c #BBBCBD",
"W  c #C2C3C1",
"Q  c gray77",
"!  c #C6C7C8",
"~  c #C8C9C8",
"^  c #CACBCB",
"/  c #CECFCF",
"(  c #D3D3D2",
")  c #D4D5D6",
"_  c gray84",
"`  c #D9DAD9",
"'  c #DBDCDC",
"]  c #DFDFDF",
"[  c #E1E1E1",
"{  c #ECECEB",
"}  c #ECEDEC",
"|  c #EFEFEF",
" . c None",
/* pixels */
" . . . . . . . . . . . .U  . . .",
"T | L  . . . . . . .N ` ) I  . .",
" .E ^  . . . . . . .T { K  . . .",
" . .* [  . . . . . .Q { ^  . . .",
" . . .# ]  . . . .z D A ( F N  .",
" . . . .$ '  . . .T < M W V &  .",
" . . . . .; )  .K b z 2 < #  . .",
" . . . . . .z / k b  . . . . . .",
" . . . . . .G < Q j 5  . . . . .",
" . . . . .S O 3 8 a y  . . . . .",
" . . . .C X < = o q f d 6  . . .",
" . . .m . = :  . . .q h g 7  . .",
" . .H . # 2  . . . . .e i s 7  .",
" .Z : 2 k  . . . . . . .r u p 9 ",
" .I K n  . . . . . . . . .w t  .",
" .$ -  . . . . . . . . . . . . ."
};
