/* XPM */
static const char *preview_xpm[] = {
"16 16 174 2",
"  	c None",
". 	c #EA6E0E",
"+ 	c #F67F06",
"@ 	c #E3BB18",
"# 	c #A4E757",
"$ 	c #56E6A3",
"% 	c #25DAD6",
"& 	c #11E5EB",
"* 	c #2AF5D0",
"= 	c #72F588",
"- 	c #B0EC4B",
"; 	c #C7DC34",
"> 	c #C3E336",
", 	c #98F563",
"' 	c #3FF6BC",
") 	c #07D5F5",
"! 	c #0E9EEA",
"~ 	c #F44C0A",
"{ 	c #FC0E00",
"] 	c #FB1900",
"^ 	c #FF5B00",
"/ 	c #F7C407",
"( 	c #B5FD49",
"_ 	c #4BFFB3",
": 	c #0BF6F3",
"< 	c #05D9F9",
"[ 	c #0CD2F2",
"} 	c #14DEEB",
"| 	c #1BF0E3",
"1 	c #20FEDE",
"2 	c #27FFD7",
"3 	c #2BFDD3",
"4 	c #3BEEC3",
"5 	c #F14F0A",
"6 	c #FC1400",
"7 	c #FB1700",
"8 	c #FF5000",
"9 	c #FBBA03",
"0 	c #B8FD46",
"a 	c #39FCC5",
"b 	c #01CAFE",
"c 	c #0088FF",
"d 	c #0075FF",
"e 	c #008FFF",
"f 	c #01CCFE",
"g 	c #22FCDC",
"h 	c #73FF8B",
"i 	c #BAFC44",
"j 	c #D3E228",
"k 	c #F47B0A",
"l 	c #FF8C00",
"m 	c #F4BA0A",
"n 	c #CBE733",
"o 	c #7DFC81",
"p 	c #2BEDD3",
"q 	c #03C1FB",
"r 	c #0090FF",
"s 	c #0082FF",
"t 	c #009DFF",
"u 	c #08D4F7",
"v 	c #3AFAC4",
"w 	c #98FF66",
"x 	c #E7EF18",
"y 	c #FEBC01",
"z 	c #F4920A",
"A 	c #F4AD0B",
"B 	c #D4F62A",
"C 	c #63FD9B",
"D 	c #16D9E9",
"E 	c #0296FD",
"F 	c #0063FF",
"G 	c #0059FF",
"H 	c #0076FF",
"I 	c #00B6FF",
"J 	c #1AF2E4",
"K 	c #6EFF90",
"L 	c #C8FD36",
"M 	c #F9E306",
"N 	c #FFB900",
"O 	c #FFA800",
"P 	c #F4AF0B",
"Q 	c #EFBD0D",
"R 	c #A0FF5E",
"S 	c #1BF3E3",
"T 	c #009CFF",
"U 	c #0056FF",
"V 	c #0041FF",
"W 	c #005DFF",
"X 	c #00A0FF",
"Y 	c #0EEEF0",
"Z 	c #5FFF9F",
"` 	c #B7FF47",
" .	c #F1FA0D",
"..	c #F9E606",
"+.	c #F0E70E",
"@.	c #D4F42A",
"#.	c #9CF05F",
"$.	c #F4AA0A",
"%.	c #DFF01F",
"&.	c #8DFD71",
"*.	c #4CF4B2",
"=.	c #2DDFD1",
"-.	c #21D5DE",
";.	c #1CDFE2",
">.	c #20F4DE",
",.	c #3BFFC3",
"'.	c #79FF85",
").	c #80FF7E",
"!.	c #72FE8C",
"~.	c #51FAAD",
"{.	c #28EFD6",
"].	c #14CDEA",
"^.	c #F4760A",
"/.	c #FF6B00",
"(.	c #FD6D00",
"_.	c #F87A05",
":.	c #F1910C",
"<.	c #E9B615",
"[.	c #D8DF26",
"}.	c #B2FC4C",
"|.	c #70FF8E",
"1.	c #2DFED1",
"2.	c #0BE3F3",
"3.	c #04B9FB",
"4.	c #0099FE",
"5.	c #0085FF",
"6.	c #007EFF",
"7.	c #0A84F4",
"8.	c #F1480A",
"9.	c #EA0500",
"0.	c #C50000",
"a.	c #B30000",
"b.	c #BB0100",
"c.	c #DA0600",
"d.	c #FA3500",
"e.	c #FCB403",
"f.	c #ACFD52",
"g.	c #24F8DA",
"h.	c #00A5FF",
"i.	c #0036FF",
"j.	c #0046FF",
"k.	c #007FFF",
"l.	c #11C0EA",
"m.	c #F4440A",
"n.	c #E10100",
"o.	c #B20000",
"p.	c #990000",
"q.	c #9B0000",
"r.	c #B90000",
"s.	c #EB0500",
"t.	c #FF6700",
"u.	c #E9E716",
"v.	c #75FF89",
"w.	c #1EE7E0",
"x.	c #09B9F6",
"y.	c #06ACF8",
"z.	c #11C6ED",
"A.	c #38F0C6",
"B.	c #8FF26F",
"C.	c #E9630E",
"D.	c #F43606",
"E.	c #E92406",
"F.	c #E02006",
"G.	c #DE2006",
"H.	c #F43706",
"I.	c #F56806",
"J.	c #F5A106",
"K.	c #EBCC11",
"L.	c #CED92D",
"M.	c #B9DB41",
"N.	c #B9DD43",
"O.	c #C8D933",
"P.	c #E3CE18",
"Q.	c #E8AB10",
"                                ",
"                                ",
"                                ",
". + @ # $ % & * = - ; > , ' ) ! ",
"~ { ] ^ / ( _ : < [ } | 1 2 3 4 ",
"5 6 7 8 9 0 a b c d e f g h i j ",
"k l m n o p q r s t u v w x y z ",
"A B C D E F G H I J K L M N O P ",
"Q R S T U V W X Y Z `  ...+.@.#.",
"$.%.&.*.=.-.;.>.,.Z '.).!.~.{.].",
"^./.(._.:.<.[.}.|.1.2.3.4.5.6.7.",
"8.9.0.a.b.c.d.e.f.g.h.U i.j.k.l.",
"m.n.o.p.q.r.s.t.u.v.w.x.y.z.A.B.",
"C.D.E.F.G.E.H.I.J.K.L.M.N.O.P.Q.",
"                                ",
"                                "};
