/* XPM */
static const char *process_stop_xpm[] = {
/* columns rows colors chars-per-pixel */
"16 16 122 2 ",
"   c #890600",
".  c #8C0600",
"X  c #950000",
"o  c #910500",
"O  c #9A1717",
"+  c #9E1414",
"@  c #A30000",
"#  c #A40000",
"$  c #AA0000",
"%  c #AE0000",
"&  c #B40000",
"*  c #B00400",
"=  c #BD0404",
"-  c #B51300",
";  c #BE1000",
":  c #BF1200",
">  c #BB1400",
",  c #BF1400",
"<  c #BF1A0D",
"1  c #BC1814",
"2  c #BD1817",
"3  c #BE1818",
"4  c #A22929",
"5  c #A42F2F",
"6  c #CD0000",
"7  c #C70E00",
"8  c #D80500",
"9  c #D90500",
"0  c #DA0500",
"q  c #DC0600",
"w  c #DD0600",
"e  c #DF0700",
"r  c #C01200",
"t  c #C11601",
"y  c #C91100",
"u  c #CB100B",
"i  c #DC120D",
"p  c #C11B1A",
"a  c #C11C1B",
"s  c #C91E1E",
"d  c #D01813",
"f  c #D31C17",
"g  c #D81913",
"h  c #DC1912",
"j  c #D91B15",
"k  c #DB1A15",
"l  c #DA1B15",
"z  c #DC1B15",
"x  c #DC1C17",
"c  c #D81E1A",
"v  c #E00700",
"b  c #E10700",
"n  c #D42020",
"m  c #D32424",
"M  c #E02925",
"N  c #E0423E",
"B  c #DA4848",
"V  c #DE4F4D",
"C  c #D1554E",
"Z  c #D35D58",
"A  c #D15F5A",
"S  c #DF5F5F",
"D  c #E34743",
"F  c #E55D5B",
"G  c #EA5E5C",
"H  c #D76059",
"J  c #DA605E",
"K  c #E3615F",
"L  c #DC6D6C",
"P  c #DE7E7D",
"I  c #E96764",
"U  c #E26E6C",
"Y  c #E16F6E",
"T  c #E77574",
"R  c #E67776",
"E  c #EB7270",
"W  c #E97472",
"Q  c #E97876",
"!  c #E67A79",
"~  c #E27D7C",
"^  c #E27E7D",
"/  c #E57E7D",
"(  c #EB7A78",
")  c #ED7A78",
"_  c #E1807F",
"`  c #DD9090",
"'  c #DF9391",
"]  c #DE9490",
"[  c #DD9592",
"{  c #E68483",
"}  c #E38584",
"|  c #E38685",
" . c #E58887",
".. c #E58C8B",
"X. c #E78C8B",
"o. c #E68F8E",
"O. c #E88988",
"+. c #E09A9A",
"@. c #E09D9B",
"#. c #E2A4A3",
"$. c #E3A7A7",
"%. c #E9B5B4",
"&. c #E9B6B5",
"*. c #EAB7B7",
"=. c #EAB9B9",
"-. c #F7D0CF",
";. c #F7D3D2",
":. c #F8D3D2",
">. c #F9D6D5",
",. c #F9DDDC",
"<. c #F9DEDD",
"1. c #FADFDE",
"2. c #FAE1E0",
"3. c #FAE2E1",
"4. c #FAE2E2",
"5. c #FBE2E2",
"6. c #FBE3E2",
"7. c #FBE6E5",
"8. c #FBE6E6",
"9. c #FBE8E8",
"0. c white",
"q. c None",
/* pixels */
"q.q.q.q.q.q.q.q.q.q.q.q.q.q.q.q.",
"q.q.q.q.q.6 m B J B n q.q.q.q.q.",
"q.q.q.q.s #.&.*.=.%.$.s q.q.q.q.",
"q.q.q.a +.o.X. .{ { P ` p q.q.q.",
"q.q.2 @.| X. .! T / ~ L ' 3 q.q.",
"q.= [ ^ { 9.7.Q W 5.7.Y J [ = q.",
"q.& A Y T 5.0.5.5.0.1.F V Z & q.",
"q.% C K G I 5.0.0.5.E ) ) H % q.",
"q.$ p f M D 1.0.0.,.N i q 7 # q.",
"q.# ; 8 j :.0.:.;.0.;.j q y # q.",
"q.# - 8 k :.:.j g -.>.j q > @ q.",
"q.q.o : e k j e e h x q : o q.q.",
"q.q.q.. t e q e w w e , . q.q.q.",
"q.q.q.q.  * u d f d 1 . q.q.q.q.",
"q.q.q.q.q.X O 4 5 4 + q.q.q.q.q.",
"q.q.q.q.q.q.q.q.q.q.q.q.q.q.q.q."
};
