/* XPM */
static const char * stop_xpm[] = {
"16 16 4 1",
" 	c None",
".	c #770000",
"+	c #FF0000",
"@	c #FFFFFF",
"                ",
"     ......     ",
"    .++++++.    ",
"   .++++++++.   ",
"  .++++++++++.  ",
" .+++@@++@@+++. ",
" .+++@@@@@@+++. ",
" .++++@@@@++++. ",
" .++++@@@@++++. ",
" .+++@@@@@@+++. ",
" .+++@@++@@+++. ",
"  .++++++++++.  ",
"   .++++++++.   ",
"    .++++++.    ",
"     ......     ",
"                "};
