/* XPM */
static const char * style_xpm[] = {
"16 16 3 1",
" 	c None",
".	c #FF0000",
"q	c #7F0000",
"                ",
"                ",
"                ",
"   qqq   qqq    ",
"   q.q   q.q    ",
"   q.q   q.q    ",
"   q.q   q.q    ",
"    q     q     ",
"    q     q     ",
"                ",
"                ",
"                ",
"                ",
"                ",
"                ",
"                "};
