/* XPM */
static const char *system_file_manager_xpm[] = {
/* columns rows colors chars-per-pixel */
"16 16 22 1 ",
"  c #5F5B29",
". c #686326",
"X c #6C672B",
"o c #736622",
"O c #7E6920",
"+ c #C17D11",
"@ c #DBB676",
"# c #D0B782",
"$ c #D2BA85",
"% c #D5BC88",
"& c #D7BF8C",
"* c #E2BF82",
"= c #DDC596",
"- c #DFC696",
"; c #DFC796",
": c #E3C082",
"> c #E3CB9D",
", c #E3CC9E",
"< c #E4CC9E",
"1 c #E4CC9F",
"2 c #E9D1A6",
"3 c None",
/* pixels */
"33............33",
"3.2<>>>>>>>>>>.3",
".;;;;;;;*;;;>=*.",
".;O..........O=.",
".=.++++++++++.$X",
".=.++++++++++.&X",
".=.++++..++++.&X",
".=O..........o$.",
".>++++++++++++&.",
".&O..........O$.",
".%.++++++++++.$.",
".&.++++++++++.$.",
".%.++++..++++.$.",
".$O...........$.",
".@$$$$#$####$#$.",
" .XXXXXX........"
};
