/* XPM */
static const char *tab_close_xpm[] = {
/* columns rows colors chars-per-pixel */
"16 16 69 1 ",
"  c #741F1E",
". c #9A2E29",
"X c #9E2D2A",
"o c #9A342B",
"O c #9D362E",
"+ c #BA2F22",
"@ c #A1342A",
"# c #A93A37",
"$ c #B73834",
"% c #B63E3A",
"& c #C40201",
"* c #C50302",
"= c #E10202",
"- c #E10404",
"; c #C5281A",
": c #C32C1C",
"> c #CE2E23",
", c #C32F2F",
"< c #D22C24",
"1 c #C23030",
"2 c #EE2220",
"3 c #F02220",
"4 c #C04734",
"5 c #C04D3B",
"6 c #AC6765",
"7 c #B86261",
"8 c #BE7675",
"9 c #CF4E4D",
"0 c #C85242",
"q c #CA574C",
"w c #CB5A4D",
"e c #C55950",
"r c #D05151",
"t c #CE6C64",
"y c #DB6A62",
"u c #D46E68",
"i c #D3716B",
"p c #DE726C",
"a c #E8706E",
"s c #E97675",
"d c #C3817E",
"f c #D48C8A",
"g c #CA9A9A",
"h c #D39E9B",
"j c #E0B5B4",
"k c #DEDADA",
"l c #DFDFDF",
"z c #E6C3C3",
"x c #E7D5D7",
"c c #EDD2D3",
"v c gray88",
"b c #E2E2E2",
"n c #E6E6E6",
"m c gray91",
"M c #E9E9E9",
"N c #EAEAEA",
"B c #ECECEC",
"V c #EDECEC",
"C c #EEEEEE",
"Z c #F4F0F0",
"A c #F6F2F3",
"S c #F8F6F7",
"D c #FBFAFA",
"F c #FBFBFB",
"G c #FCFAFA",
"H c gray99",
"J c #FDFDFD",
"K c white",
"L c None",
/* pixels */
"LLLLLLLLLLLLLLLL",
"LLLLLLLLLLLLLLLL",
"LLLLLLLLMKKKKKML",
"LLLLLLLLKlllllKL",
"LLLLLLLLKvHDDlKL",
"LKKKKKKKKvDHKlKL",
"LKbbbbbbbbHHKbKL",
"LxkKKDZHHHHDDnKL",
"Li7ZSfucHHHHHmKL",
"+ap68ystHHHHKMKL",
"L09eqrwjKHHKKCKL",
"Lz4,,5gCCCCCCCKL",
"Lh:**;dGKKKKKKKL",
"L>=@o-< LLLLLLLL",
"O2$LL%3#LLLLLLLL",
"L.LLLLXLLLLLLLLL"
};
