/* XPM */
static const char *text_plain_xpm[] = {
/* columns rows colors chars-per-pixel */
"16 16 87 1 ",
"  c gray14",
". c #252626",
"X c gray16",
"o c #2A2A2A",
"O c gray52",
"+ c gray53",
"@ c #8A8989",
"# c #8D8B8B",
"$ c #908F8F",
"% c gray57",
"& c #929292",
"* c #A0A0A0",
"= c gray68",
"- c #B0AFAF",
"; c #B1B1B1",
": c gray71",
"> c gray78",
", c #C8C7C7",
"< c #C9C8C8",
"1 c #CAC9C9",
"2 c #CACACA",
"3 c #CBCACA",
"4 c #CCCACA",
"5 c gray80",
"6 c #CDCCCC",
"7 c #CDCDCD",
"8 c #CECECE",
"9 c #CFCECE",
"0 c gray81",
"q c #D1CECE",
"w c #D0CFCF",
"e c #D0D0D0",
"r c #D0D1D1",
"t c gray82",
"y c #D2D1D1",
"u c LightGray",
"i c gray84",
"p c #D9D7D7",
"a c #D8D8D8",
"s c #D9D8D8",
"d c #DADADA",
"f c #DBDADA",
"g c gray86",
"h c #DDDBDB",
"j c gainsboro",
"k c #DDDDDD",
"l c #DEDCDC",
"z c gray87",
"x c #E0DFDF",
"c c #E1E0E0",
"v c #E2E2E2",
"b c #E5E4E4",
"n c gray90",
"m c #E9E9E9",
"M c #EAEAEA",
"N c #ECECEC",
"B c #EFEDED",
"V c #EEEEEE",
"C c #EEEFEF",
"Z c #EFEFEF",
"A c #F0EFEF",
"S c #F1EFEF",
"D c #F2F0F0",
"F c #F2F1F1",
"G c #F3F1F1",
"H c #F4F3F3",
"J c #F4F4F4",
"K c #F6F5F5",
"L c #F6F6F6",
"P c #F6F7F7",
"I c gray97",
"U c #F8F7F7",
"Y c #F8F8F8",
"T c #F9F8F8",
"R c #F9F9F9",
"E c #FAF9F9",
"W c gray98",
"Q c #FBFAFA",
"! c #FBFBFB",
"~ c #FCFBFB",
"^ c gray99",
"/ c #FDFCFC",
"( c #FDFDFD",
") c #FEFDFD",
"_ c #FEFEFE",
"` c white",
"' c None",
/* pixels */
"''''''''''''''''",
"''````````````''",
"''`@Gh994q>4gS''",
"''`USSGGGGKGG`''",
"''`#g9,t252g2C''",
"''`~KKEEEEEEE`''",
"''`$g92tr9tvuK''",
"''``E````E!YK`''",
"''`%brrjzz2i2M''",
"''``E``!M;==:M''",
"''`%nvz9O```G'''",
"''``~`!J*`Cpo'''",
"''`%n9gaO`zo''''",
"''``EEKN2K.'''''",
"''`z``ECj ''''''",
"''''''''''''''''"
};
