/* XPM */
static const char *text_x_generic_xpm[] = {
/* columns rows colors chars-per-pixel */
"16 16 21 1 ",
"  c #818181",
". c #959595",
"X c gray60",
"o c gray77",
"O c #C5C5C5",
"+ c #C6C6C6",
"@ c gray78",
"# c #C8C8C8",
"$ c #EDEDE5",
"% c #EDEDE6",
"& c #EAEAEA",
"* c gray92",
"= c #ECECEC",
"- c gray93",
"; c #EEEEEE",
": c #EFEFEF",
"> c gray94",
", c #F1F1F1",
"< c gray95",
"1 c white",
"2 c None",
/* pixels */
"X            222",
" 111111111111 22",
" 1=&==&====>1 22",
" 1&oooo#oo#>1 22",
" 1&=&=====>>1 22",
" 1=o#oo##o#>1 22",
" 1&=====%==>1 22",
" 1=oo#o>:%=>1 22",
" 1====>=>:>>1 22",
" 1=##o#####>1 22",
" 1===>=>>>><1 22",
" 1=o#####>><1 22",
" 1===>>>>>>>1 22",
" 111111111111 22",
".            .22",
"2222222222222222"
};
