/* XPM */
static const char *text_csv_xpm[] = {
/* columns rows colors chars-per-pixel */
"16 16 90 1 ",
"  c gray14",
". c #252626",
"X c gray16",
"o c #2A2A2A",
"O c #38332B",
"+ c #39342B",
"@ c #3A3A3A",
"# c gray24",
"$ c #3F3F3F",
"% c gray25",
"& c gray33",
"* c #4F96FF",
"= c #5195FF",
"- c #5395FF",
"; c #5096FF",
": c #5296FF",
"> c #5396FF",
", c #5397FF",
"< c #569DFF",
"1 c #5899FF",
"2 c #589BFF",
"3 c #5CA3FF",
"4 c #5DA3FF",
"5 c #63A1FE",
"6 c #8C8B8B",
"7 c #979089",
"8 c #9A948C",
"9 c #959494",
"0 c #959595",
"q c #9F9F9F",
"w c #A0A0A0",
"e c gray65",
"r c #A9A9A9",
"t c #B2B2B2",
"y c gray70",
"u c #B6B6B6",
"i c gray72",
"p c #B9B9B9",
"a c gray74",
"s c gray",
"d c #C7C2BB",
"f c #C5C3BF",
"g c #CEC7BA",
"h c #C9C4BD",
"j c #CAC5BD",
"k c #CEC7BC",
"l c #AAD3FF",
"z c #B2D7FF",
"x c #BCD9FF",
"c c #C0C0C0",
"v c #C1C1C1",
"b c #C1C1C2",
"n c gray76",
"m c gray77",
"M c #C6C7C7",
"N c #C9C7C7",
"B c #CFCAC3",
"V c #C8C8C8",
"C c #CACACA",
"Z c #CBCBCB",
"A c #CDCDCD",
"S c #CECDCD",
"D c #D4D1CE",
"F c gray82",
"G c #D1D2D2",
"H c #D9D7D7",
"J c gainsboro",
"K c #DEDCDC",
"L c gray87",
"P c #C3DDFF",
"I c #EBEAEA",
"U c gray92",
"Y c #ECEBEB",
"T c #ECECEC",
"R c #EEEEEE",
"E c #F5EFE7",
"W c #F6F0E8",
"Q c #FFFDED",
"! c gray95",
"~ c #F4F3F3",
"^ c #F6F6F6",
"/ c #FFF9F1",
"( c #FFFFF3",
") c gray98",
"_ c #FCFBFA",
"` c #FFFFF9",
"' c gray99",
"] c #FDFDFD",
"[ c white",
"{ c None",
/* pixels */
"{{{{{{{{{{{{{{{{",
"{{[[[[[[[[[[[[{{",
"{{[6Mcj*>>*gfS{{",
"{{[_j/Q:PP1zlD{{",
"{{[7<>>5>>3gfF{{",
"{{[`>xx>([O[[Z{{",
"{{[82xx>[[@[[S{{",
"{{[[>::3O@&#ZF{{",
"{{[0BEWf[[%$)S{{",
"{{[[cTTaItqptT{{",
"{{[0ZSSae[[[~{{{",
"{{[[cTTpq[RHo{{{",
"{{[0ZIIur[Ko{{{{",
"{{[[cccmN^.{{{{{",
"{{[K[[[!J {{{{{{",
"{{{{{{{{{{{{{{{{"
};
