/* XPM */
static const char *tools_wizard_xpm[] = {
/* columns rows colors chars-per-pixel */
"16 16 60 1 ",
"  c black",
". c #020202",
"X c #060401",
"o c #040404",
"O c gray3",
"+ c #0B0B0B",
"@ c #0C0C0C",
"# c #0E0E0E",
"$ c #140B06",
"% c #101010",
"& c gray12",
"* c #2B2B2A",
"= c gray17",
"- c #353535",
"; c #632B08",
": c #783500",
"> c #444444",
", c #6F6D6C",
"< c #777777",
"1 c #A23B00",
"2 c #904513",
"3 c #DF6D02",
"4 c #F07902",
"5 c #EA6016",
"6 c #F3741A",
"7 c #EE7A2D",
"8 c #E67435",
"9 c #EB7331",
"0 c #8C6B50",
"q c #BE910C",
"w c #F88903",
"e c #EC9E0F",
"r c #F89505",
"t c #F99C06",
"y c #EC8618",
"u c #F69711",
"i c #FE9713",
"p c #FEB809",
"a c #FDAD10",
"s c #ED8021",
"d c #F69A2A",
"f c #EE8731",
"g c #C5A429",
"h c #F5CE00",
"j c #FCDD02",
"k c #FED20A",
"l c #F9C41E",
"z c #FFC91E",
"x c #FED418",
"c c #FEC027",
"v c #FEC327",
"b c #FBDD21",
"n c #F2C634",
"m c #FEC439",
"M c #FEC23F",
"N c #FFE923",
"B c #E48350",
"V c #CACACA",
"C c #D5D5D5",
"Z c None",
/* pixels */
"ZZZZZZZZZZZZZZZZ",
"ZZZZZZZX#ZmzkjZZ",
"ZZZZZ1Z,VZZZZhNZ",
"ZZw3ZZZ<CZZZZZbZ",
"ZeuZ8BZZ&>ZZZlxZ",
"qMZZZZZZ$*ZrapZZ",
"gvZZZZZZ;:4itZZZ",
"Znvd7ys6520ZZZZZ",
"ZZZZfZZZZO*ZZZZZ",
"ZZZZZZZZZ%.ZZZZZ",
"ZZZZZZZZZZ.-Z9ZZ",
"ZZZZZZZZZZoOZ9ZZ",
"ZZZZZZZZZZZ.OZZZ",
"ZZZZZZZZZZZ.#ZZZ",
"ZZZZZZZZZZZ..ZZZ",
"ZZZZZZZZZZZZ.ZZZ"
};
