/* XPM */
static const char *transform_rotate_xpm[] = {
/* columns rows colors chars-per-pixel */
"16 16 19 1 ",
"  c #4D308B",
". c #563B91",
"X c #583D92",
"o c #5D4395",
"O c #5E4397",
"+ c #604796",
"@ c #624898",
"# c #654B9C",
"$ c #674E9D",
"% c #6C53A1",
"& c #6F56A3",
"* c #7159A4",
"= c #735BA6",
"- c #765EA8",
"; c #7861A9",
": c #7D66AD",
"> c #8069AF",
", c #826CB0",
"< c None",
/* pixels */
"<<<<<<<<<<<<<<<<",
"<<<<<<:*$<<<<<<<",
"<<<<<>-%@++<<<<<",
"<<<<,;&#O++++<<<",
"<<<<<*$OX+++++<<",
"<<<<<<<. <<+++<<",
"<<<<<<<<<<<++++<",
"<<<<<<<<<<<<+++<",
"<<<<<<<<<<<<+++<",
"<<<<<<<<<<<<+++<",
"<<<<<<<<<<<++++<",
"<<<<<<<<<<<+++<<",
"<<<<++++++++++<<",
"<<<++++++++++<<<",
"<<<<<++++++<<<<<",
"<<<<<<<<<<<<<<<<"
};
