/* XPM */
static const char *transform_move_xpm[] = {
/* columns rows colors chars-per-pixel */
"16 16 64 1 ",
"  c #0C0D0C",
". c #121312",
"X c #191A19",
"o c #242525",
"O c #2D2D2D",
"+ c #2F302F",
"@ c #333332",
"# c #343534",
"$ c #3A3A3A",
"% c #3E3F3E",
"& c #3F403F",
"* c #444544",
"= c #464845",
"- c #474847",
"; c #4F514E",
": c gray32",
"> c #5A5A5A",
", c #5C5D5C",
"< c #5F615E",
"1 c #646564",
"2 c #656764",
"3 c #666765",
"4 c #686868",
"5 c #696B69",
"6 c #6C6E6C",
"7 c #717270",
"8 c #727272",
"9 c #797B78",
"0 c #7E7F7C",
"q c #828281",
"w c #888A87",
"e c #8A8B8A",
"r c #8B8D89",
"t c #8B8C8A",
"y c #9D9F9C",
"u c #A0A19F",
"i c #A3A5A2",
"p c #A5A6A4",
"a c #A5A7A4",
"s c #ACAEAA",
"d c #B8B9B7",
"f c #B9BBB7",
"g c #BABBB8",
"h c #BEC0BC",
"j c #C3C5C2",
"k c #C4C6C2",
"l c #CACCC8",
"z c #CED0CB",
"x c #D3D5D2",
"c c #D8DAD7",
"v c #DCDDDA",
"b c #DCDDDB",
"n c #DFE1DD",
"m c #E0E2DE",
"M c #E0E3DE",
"N c #E8ECE5",
"B c #E9ECE6",
"V c #E9EDE6",
"C c #ECEFE8",
"Z c #EEF1EB",
"A c #F2F5EF",
"S c #F3F6EF",
"D c #F6F9F4",
"F c None",
/* pixels */
"FFFFFFFFFFFFFFFF",
"FFFFFFF28FFFFFFF",
"FFFFFFFhnOFFFFFF",
"FFFFFF0CVpFFFFFF",
"FFFFFF=fc2FFFFFF",
"FFFFFFF@-FFFFFFF",
"FF.t5FFFFFF*p&FF",
"F>kDb*F2iFFfAMe ",
"F2lZx%F6sFFyAzqF",
"FFXt<FFFFFF#w+FF",
"FFFFFFF$:FFFFFFF",
"FFFFFF;jM8FFFFFF",
"FFFFFF9VVuFFFFFF",
"FFFFFFFgboFFFFFF",
"FFFFFFF,4FFFFFFF",
"FFFFFFFFFFFFFFFF"
};
