/* XPM */
static const char *transform_scale_xpm[] = {
/* columns rows colors chars-per-pixel */
"16 16 58 1 ",
"  c #0A68EE",
". c #136FEF",
"X c #146EEE",
"o c #1F76F0",
"O c #1271FF",
"+ c #1371FF",
"@ c #2077EF",
"# c #307FF0",
"$ c #2F80EF",
"% c #3F88EE",
"& c #2F80F0",
"* c #7193C6",
"= c #609EF5",
"- c #64A2FF",
"; c #65A2FF",
": c #77ACF7",
"> c #9B9CA3",
", c #A0A1A7",
"< c #A4A5AB",
"1 c #A4A5AC",
"2 c #AAABB0",
"3 c #AFB1B4",
"4 c #AFB1B6",
"5 c #88A0C7",
"6 c #92A7C5",
"7 c #BABBC1",
"8 c #8FBBF9",
"9 c #A5C9F9",
"0 c #B3D1FA",
"q c #BCD6F9",
"w c #C4C5CB",
"e c #DBE6F6",
"r c #D6E4F8",
"t c #D1E3FC",
"y c #D8E7FD",
"u c #DEEBFC",
"i c #E4E4E4",
"p c #E7E7E7",
"a c #EAEAEA",
"s c gray92",
"d c gray93",
"f c #EEEEEE",
"g c #EFEFEF",
"h c #E3E9F2",
"j c #E1EAF7",
"k c #E5ECF5",
"l c #E2ECFA",
"z c #E4EEFC",
"x c gray94",
"c c gray95",
"v c #F3F3F3",
"b c #F4F4F4",
"n c gray96",
"m c #F6F6F7",
"M c #FDFDFD",
"N c #FEFEFE",
"B c white",
"V c None",
/* pixels */
";;VVVVVVVVVVV;;V",
"++7*1*,*2*V*V++V",
"Vwggaaapp3VVVVVV",
"V*mqhgggv3VVV*VV",
"VwBl0kvvm3VVVVVV",
"V*BBl9jmg3VVV*VV",
"VwBBBu8ev3VVVVVV",
"V*BBBBy:r3VVV*VV",
"VwBBBBBt=6V&VVVV",
"V*731>,<5%#@V*VV",
"VVVVVVVVV&oXVVVV",
"V*VVVVVV$@. V*VV",
"VVVVVVVVVVVVVVVV",
";-V*V*V*V*V*V;;V",
"++VVVVVVVVVVV++V",
"VVVVVVVVVVVVVVVV"
};
