/* XPM */
static const char *transform_crop_xpm[] = {
/* columns rows colors chars-per-pixel */
"16 16 111 2 ",
"   c #2C3335",
".  c #353A3C",
"X  c #3B3F41",
"o  c #414244",
"O  c #414F5E",
"+  c #6E6E6C",
"@  c #7B7C79",
"#  c #7A7D7F",
"$  c #807777",
"%  c #0069FF",
"&  c #1271FE",
"*  c #1371FE",
"=  c #1271FF",
"-  c #6B8CBE",
";  c #5F87C2",
":  c #5F88C4",
">  c #6088C4",
",  c #6089C4",
"<  c #6289C5",
"1  c #6289C6",
"2  c #638AC6",
"3  c #638AC7",
"4  c #638BC7",
"5  c #688DC3",
"6  c #648BC8",
"7  c #5DA1FF",
"8  c #67A3FF",
"9  c #60A4FF",
"0  c #67A4FE",
"q  c #68A5FF",
"w  c #68A6FF",
"e  c #828484",
"r  c #858787",
"t  c #888586",
"y  c #8C8686",
"u  c #8B8989",
"i  c #8F8F8D",
"p  c #938C8C",
"a  c #90918E",
"s  c #91908F",
"d  c #949492",
"f  c #9C9996",
"g  c #9E9A99",
"h  c #A1A29F",
"j  c #ADA59E",
"k  c #9EA2A3",
"l  c #A2A0A0",
"z  c #A9A3A3",
"x  c #ACADAB",
"c  c #AEAEAE",
"v  c #B3ACA6",
"b  c #B1ABAA",
"n  c #B2AEAE",
"m  c #B4AFAC",
"M  c #B5AFAF",
"N  c #B7B2B2",
"B  c #B8B2B1",
"V  c #B9B4B2",
"C  c #B9B5B5",
"Z  c #B9B6B4",
"A  c #BCB8B8",
"S  c #BFBABA",
"D  c #BFBDBD",
"F  c #C0BBBB",
"G  c #C1BCBC",
"H  c #C2BFBF",
"J  c #C3BFBF",
"K  c #C3C1C1",
"L  c #C7C3C3",
"P  c #C3C4C4",
"I  c #CACACA",
"U  c #CDCBCB",
"Y  c #CFCDC8",
"T  c #CECDCC",
"R  c #D0CDCE",
"E  c #D4CECF",
"W  c #D6D0CF",
"Q  c #D8D0CB",
"!  c #D3D3D2",
"~  c #D7D1D0",
"^  c gray84",
"/  c #D7D6D6",
"(  c #D8D2D1",
")  c #D8D3D1",
"_  c #D9D5D5",
"`  c #D9D8D8",
"'  c #D9D9DA",
"]  c #DCDADA",
"[  c gray87",
"{  c #E0D6CB",
"}  c #E0DEDE",
"|  c #E0E1E1",
" . c #E3E1E3",
".. c #E3E2E2",
"X. c #E4E2E2",
"o. c #E7E6E7",
"O. c #EFEFEF",
"+. c #F1F1F1",
"@. c #F1F2F2",
"#. c gray95",
"$. c #F3F3F3",
"%. c #F7F3F0",
"&. c #F7F7F6",
"*. c gray97",
"=. c #F9F7F4",
"-. c #FBFBFB",
";. c #FDFDFD",
":. c #FFFFFD",
">. c #FEFEFE",
",. c white",
"<. c None",
/* pixels */
"<.<.<.<.<.<.<.<.<.<.<.<.<.<.<.<.",
"<.<.<.<.<.<.<.<.<.<.<.<.o.] F <.",
"8 w <.<.<.<.<.<.<.<.<...} G S <.",
"& % { : W 2 V 2 g 5 _ ..G C K <.",
"<.- ,.,.&.=.$.%.$.E X.z n G I <.",
"<.( ,.,.-.&.$.$.k # b $ p P c <.",
"<.; ,.,.,.,.-.` r   o u l r <.<.",
"<.( ,.,.,.,.O.S M y . X e <.<.<.",
"<.; ,.,.,.-./ U G C + O <.<.<.<.",
"<.~ ,.,.-...' T i @ ! V <.<.<.<.",
"<.; ,.,./ T d a [ ,.,.2 <.<.<.<.",
"<.( ,.L a l O.,.,.,.,.n <.<.<.<.",
"<.2 Y x &.,.,.,.,.,.,.2 <.<.<.<.",
"<.Q ,.,.,.,.,.,.,.,.,.v <.<.<.<.",
"0 7 E - ~ : B 3 f 2 j 9 w <.<.<.",
"& & <.<.<.<.<.<.<.<.<.& & <.<.<."
};
