/* XPM */
static const char *view_group_xpm[] = {
/* columns rows colors chars-per-pixel */
"16 16 29 1 ",
"  c #005CC6",
". c #0050CC",
"X c #0052CF",
"o c #0260DF",
"O c #4A83BE",
"+ c #4686CF",
"@ c #5191DC",
"# c #5192DC",
"$ c #7DA5CD",
"% c #78A4D2",
"& c #8FB9EA",
"* c #B9CEE2",
"= c #C9C9CB",
"- c #C9C9CC",
"; c #CFCFD1",
": c #D0D0D1",
"> c #D3D3D5",
", c #D4D4D5",
"< c #DEDEDF",
"1 c #DFDFE1",
"2 c gray90",
"3 c #E6E6E6",
"4 c #E8E8EB",
"5 c #EFEFEF",
"6 c #F4F4F4",
"7 c #FAFBFA",
"8 c #FBFBFB",
"9 c white",
"0 c None",
/* pixels */
"0000000000000000",
"0999999999999990",
"0411111111111140",
"0>=----------=>0",
"0999999999999990",
"096,;::::::;,690",
"09<7999999997<90",
"0929%*$99%*$9290",
"0959O+ 99O+ 9590",
"0979Xo.99XoX9790",
"0999999999999990",
"096,;::::::;,690",
"0929999999997290",
"0999#&#999999990",
"0000000000000000",
"0000000000000000"
};
