/* XPM */
static const char *view_filter_xpm[] = {
/* columns rows colors chars-per-pixel */
"16 16 42 1 ",
"  c #1E1E1E",
". c #282828",
"X c #353535",
"o c gray28",
"O c gray34",
"+ c #5D5D5D",
"@ c #606060",
"# c #646464",
"$ c #656565",
"% c #686868",
"& c #6D6D6D",
"* c #6F6F6F",
"= c gray44",
"- c #717171",
"; c gray57",
": c #9F9F9F",
"> c #A4A4A4",
", c #ACACAC",
"< c #B2B2B2",
"1 c gray73",
"2 c #BBBBBB",
"3 c gray74",
"4 c gray77",
"5 c #CACACA",
"6 c gray80",
"7 c gray84",
"8 c gray87",
"9 c #E1E1E1",
"0 c #E6E6E6",
"q c gray91",
"w c #E9E9E9",
"e c #EFEFEF",
"r c gray94",
"t c #F1F1F1",
"y c gray95",
"u c #F3F3F3",
"i c #F4F4F4",
"p c #F6F6F6",
"a c #F8F8F8",
"s c #F9F9F9",
"d c gray98",
"f c None",
/* pixels */
"fffO*-**#Offffff",
"ff#233333fffffff",
"ff%,;*+. Xofffff",
"fff:39ppwfffffff",
"ffff<5aayfffffff",
"ffff+2yaefffffff",
"fffff@7y0fffffff",
"ffffff-08fffffff",
"fffffffy4fffffff",
"fffffffy6fffffff",
"fffffffp6fffffff",
"fffffffy6fffffff",
"fffffffy6fffffff",
"fffffffy6fffffff",
"fffffffw>fffffff",
"ffffffffffffffff"
};
