/* XPM */
static const char *view_refresh_xpm[] = {
/* columns rows colors chars-per-pixel */
"16 16 94 2 ",
"   c #3465A4",
".  c #3565A4",
"X  c #3566A4",
"o  c #3566A5",
"O  c #3667A5",
"+  c #3767A5",
"@  c #3767A6",
"#  c #3768A5",
"$  c #3768A6",
"%  c #3868A6",
"&  c #3869A6",
"*  c #3969A6",
"=  c #3969A7",
"-  c #3A69A7",
";  c #3A6AA6",
":  c #3A6AA7",
">  c #3B6BA7",
",  c #3C6BA8",
"<  c #3C6BA9",
"1  c #3C6CA9",
"2  c #3D6DA9",
"3  c #4170AB",
"4  c #4371AB",
"5  c #4774AD",
"6  c #4B77AF",
"7  c #4C77AF",
"8  c #4C78AF",
"9  c #4C78B0",
"0  c #4D79B0",
"q  c #4E7AB1",
"w  c #4F7CB6",
"e  c #537FB7",
"r  c #5580B5",
"t  c #5B84B7",
"y  c #5D85B7",
"u  c #5F87B9",
"i  c #6188B9",
"p  c #6890C0",
"a  c #6990C0",
"s  c #6D94C2",
"d  c #6891C7",
"f  c #6C95C9",
"g  c #7298C5",
"h  c #82A5CE",
"j  c #84A6CE",
"k  c #88A7CE",
"l  c #88ABD2",
"z  c #8AACD3",
"x  c #8FACD0",
"c  c #8CADD3",
"v  c #8FADD2",
"b  c #8EAED3",
"n  c #8FB0D3",
"m  c #93B1D4",
"M  c #95B2D4",
"N  c #9CB7D7",
"B  c #97B6D8",
"V  c #99B9DB",
"C  c #9DBDDC",
"Z  c #A1BBD9",
"A  c #A1BEDD",
"S  c #A0BEDE",
"D  c #A8C1DE",
"F  c #A8C2DF",
"G  c #B0C9E3",
"H  c #B4CAE3",
"J  c #B4CBE5",
"K  c #BCD1E7",
"L  c #BFD2E7",
"P  c #BFD3E9",
"I  c #C1D2E6",
"U  c #C7D7E9",
"Y  c #C4D7EB",
"T  c #C6D8EB",
"R  c #C8D8EA",
"E  c #C9D9EA",
"W  c #CDDBEB",
"Q  c #C9DAEC",
"!  c #CCDCED",
"~  c #CCDDEE",
"^  c #D5E2F0",
"/  c #D8E4F1",
"(  c #DBE6F2",
")  c #DDE8F3",
"_  c #E0E9F4",
"`  c #E2EBF5",
"'  c #E3ECF5",
"]  c #E4ECF5",
"[  c #E4EDF5",
"{  c #E5EDF5",
"}  c #E5EDF6",
"|  c #E6EEF6",
" . c #E7EEF6",
".. c None",
/* pixels */
"........% % % % , ..............",
"......% a n F F m u % ......O ..",
"....% c C A J P ~ ^ L 0 # 4   ..",
"..% a g 1 # % y Z / / ) k E % ..",
"..% 4 1 % ......% i W ` | | % ..",
"..O % d % ..........  U T ' % ..",
"..O ..............% x | / | , ..",
"................  O 6 8 8 8 O ..",
"..        O   O ................",
"..  | ' ` N O ..............O ..",
"..O | U E   ..........O f r   ..",
"..O | ` | I 0 % ......< w % # ..",
"..% / M ` ) ! c 9 O % % 1 0 : ..",
"..O y O 0 J Q K G A z h b % ....",
"..  O ....% r h B V z s % ......",
"..O ..........: # O : : ........"
};
