/* XPM */
static const char *view_grid_xpm[] = {
/* columns rows colors chars-per-pixel */
"16 16 102 2 ",
"   c #0060FF",
".  c #0061FF",
"X  c #0062FF",
"o  c #AAC7E9",
"O  c #AECBEC",
"+  c #B0CEEE",
"@  c #B2CFEF",
"#  c #B3D0F0",
"$  c #B7D4F3",
"%  c #B7D4F4",
"&  c #B8D5F5",
"*  c #BBD7F8",
"=  c #BDDAF9",
"-  c #BDD9FA",
";  c #BEDAFB",
":  c #E1E0DC",
">  c #DFDFE0",
",  c #C1DDFD",
"<  c #DCE6F1",
"1  c #DFE8F3",
"2  c #D1EFFF",
"3  c #D2EFFF",
"4  c #D3F0FF",
"5  c #E0E1E2",
"6  c #E6E7E7",
"7  c #E8E5E3",
"8  c #ECE7E2",
"9  c #EAE8E4",
"0  c #EBE8E6",
"q  c #ECEAE6",
"w  c #E7E8E8",
"e  c #EDEBE8",
"r  c #EEEDE8",
"t  c #ECECEC",
"y  c gray93",
"u  c #EFEEEC",
"i  c #EEEFEF",
"p  c #F3F0E9",
"a  c #F6F1EB",
"s  c #F3F0EC",
"d  c #F3F0ED",
"f  c #F5F2EE",
"g  c #F6F2EF",
"h  c #F6F3EF",
"j  c #FAF6EF",
"k  c #E1EBF5",
"l  c #E2EBF4",
"z  c #E3EDF6",
"x  c #E2EDF7",
"c  c #E3EDF7",
"v  c #E4EDF6",
"b  c #E4EDF7",
"n  c #E5EEF7",
"m  c #E5EEF8",
"M  c #E6EEF8",
"N  c #E6EFF9",
"B  c #E7EFFA",
"V  c #E7F0FA",
"C  c #E8F1FB",
"Z  c #E9F1FB",
"A  c #E9F2FC",
"S  c #EAF3FC",
"D  c #EAF3FD",
"F  c #EBF3FD",
"G  c #EBF4FE",
"H  c #ECF4FE",
"J  c gray95",
"K  c #F6F3F0",
"L  c #F4F3F3",
"P  c #F6F4F0",
"I  c #F5F4F2",
"U  c #F6F5F3",
"Y  c #F4F4F4",
"T  c #F4F5F5",
"R  c #FBF5F0",
"E  c #FFF8F3",
"W  c #FBF8F4",
"Q  c #FAF8F6",
"!  c #FCF9F5",
"~  c #FDFBF6",
"^  c #FEFAF6",
"/  c #FFFAF6",
"(  c #FEFBF6",
")  c #FEFCF7",
"_  c #F3FFFF",
"`  c #F4FFFF",
"'  c #F9F8F8",
"]  c #FBFAFA",
"[  c #FBFBFB",
"{  c #FFFFF8",
"}  c #FFFFF9",
"|  c #FDFCFA",
" . c #FFFEFA",
".. c #FFFFFB",
"X. c #FAFFFF",
"o. c #FFFFFC",
"O. c #FEFEFD",
"+. c #FFFEFD",
"@. c #FFFFFD",
"#. c #FFFFFE",
"$. c white",
"%. c None",
/* pixels */
"%.%.%.%.%.%.%.%.%.%.%.%.%.%.%.%.",
"%.%.$.$.` $.$.$.` $.$.$.` $.%.%.",
"%.%.$.: o > > 7 O 6 6 e + $.%.%.",
"%.%.$.8 1 e q g c g d R v $.%.%.",
"%.%.` < X l + c X v % B X X.%.%.",
"%.%.$.9 l u u g B L J R B $.%.%.",
"%.%.$.9 # u u g % L Y ( * $.%.%.",
"%.%.$.p c P L E V ( ( { A $.%.%.",
"%.%._ l X B % B X A - A X X.%.%.",
"%.%.$.s v Y Y ( A { ] { A $.%.%.",
"%.%.$.s % Y Y { - ] ] $., $.%.%.",
"%.%.$.j B ( ( { A $.$.{ H $.%.%.",
"%.%._ v X A - A X A , H X X.%.%.",
"%.%.$.P B Q ' { F { $.$.A $.%.%.",
"%.%.$.$.4 $.$.$.2 $.$.$.2 $.%.%.",
"%.%.%.%.%.%.%.%.%.%.%.%.%.%.%.%."
};
