/* XPM */
static const char *view_fullscreen_xpm[] = {
/* columns rows colors chars-per-pixel */
"16 16 41 1 ",
"  c #A40000",
". c #B93C3C",
"X c #BA3E3E",
"o c #BC4343",
"O c #BD4646",
"+ c #C15252",
"@ c #C55D5D",
"# c #C55E5E",
"$ c #C65E5E",
"% c #C66060",
"& c #C86464",
"* c #C96767",
"= c #D89393",
"- c #DA9797",
"; c #DA9898",
": c #DB9999",
"> c #DC9C9C",
", c #DC9D9D",
"< c #DC9E9E",
"1 c #DD9F9F",
"2 c #DDA0A0",
"3 c #DEA1A1",
"4 c #DEA2A2",
"5 c #DFA5A5",
"6 c #E0A8A8",
"7 c #CFCFD1",
"8 c #DEDEE0",
"9 c #F5E4E4",
"0 c #F6E5E5",
"q c #F6E6E6",
"w c #F6E7E7",
"e c #F7E7E7",
"r c #F7E8E8",
"t c #F7E9E9",
"y c #F8EAEA",
"u c #F3F3F4",
"i c #FEFCFC",
"p c #FEFDFD",
"a c #FEFEFE",
"s c white",
"d c None",
/* pixels */
"dddddddddddddddd",
"duuuuuuuuuuuuuud",
"d88888888888888d",
"d77777777777777d",
"dssssssssssssssd",
"ds.@2ssssss<@.sd",
"ds@ <ssssss< %sd",
"ds2<+ysssse+<2sd",
"dssseesssseesssd",
"dsssressss9ysssd",
"ds5;Orssss9+;6sd",
"ds* ;ssssss= *sd",
"dso@2ssssss<@Osd",
"dssssssssssssssd",
"dddddddddddddddd",
"dddddddddddddddd"
};
