/* XPM */
static const char *weather_clear_old_xpm[] = {
/* columns rows colors chars-per-pixel */
"16 16 76 1 ",
"  c #FCAF3E",
". c #FBB13E",
"X c #FBB13F",
"o c #FCB03E",
"O c #FCB13E",
"+ c #FCB23E",
"@ c #FCB33E",
"# c #FCB23F",
"$ c #FCB33F",
"% c #FAB43F",
"& c #FBB43F",
"* c #FCB43F",
"= c #FAB545",
"- c #FBB94A",
"; c #FCB953",
": c #FBBA57",
"> c #FCBC57",
", c #FBBD5B",
"< c #FBD349",
"1 c #FCD549",
"2 c #FCE34E",
"3 c #FCE956",
"4 c #FCEA57",
"5 c #FCE459",
"6 c #FCE55D",
"7 c #FCE959",
"8 c #FCEA5A",
"9 c #FCC66D",
"0 c #FCD964",
"q c #FBDB6C",
"w c #FCC470",
"e c #FCC570",
"r c #FCEB65",
"t c #FCE768",
"y c #FCEC68",
"u c #FCE86E",
"i c #FCED71",
"p c #FCCC82",
"a c #FDCD83",
"s c #FCCD84",
"d c #FCEF81",
"f c #FCEF82",
"g c #FCEF84",
"h c #FCEF87",
"j c #FDF089",
"k c #FDF08B",
"l c #FDF08C",
"z c #FDEAAD",
"x c #FDF3A1",
"c c #FDF0A2",
"v c #FDF3A2",
"b c #FDF1AA",
"n c #FCF4AB",
"m c #FDF4AC",
"M c #FCF4AD",
"N c #FDF4AE",
"B c #FDECB4",
"V c #FDE6BF",
"C c #FDF4B0",
"Z c #FDF5B1",
"A c #FDF6BE",
"S c #FDE6C1",
"D c #FEF8CE",
"F c #FEF9CF",
"G c #FEF8D0",
"H c #FEF9D0",
"J c #FEF9DF",
"K c #FEFAE3",
"L c #FEF8E7",
"P c #FEF9E7",
"I c #FEFCEF",
"U c #FEFCF0",
"Y c #FEFDF0",
"T c #FEFCF1",
"R c #FEFEFB",
"E c None",
/* pixels */
"EEEEEEEEEEEEEEEE",
"EEEEEEEOOEEEEEEE",
"EEEEEEE+OEEEEEEE",
"EEE OEaaw;EOOEEE",
"EEEO9VPIJz;=OEEE",
"EEEESRIFCMc=EEEE",
"EEEaPTIFMjh0OEEE",
"EOOsTGGAcdyt+OOE",
"EOOwKCMcji85+OOE",
"EEE>BMldi84<+EEE",
"EEEE,bgr442%EEEE",
"EEEO=-qt61**OEEE",
"EEEOOEO=+*EOOEEE",
"EEEEEEEO+EEEEEEE",
"EEEEEEEO EEEEEEE",
"EEEEEEEEEEEEEEEE"
};
