/* XPM */
static const char *weather_clouds_xpm[] = {
/* columns rows colors chars-per-pixel */
"16 16 103 2 ",
"   c #E3960F",
".  c #E49A0E",
"X  c #E5A000",
"o  c #ECA90D",
"O  c #ECB200",
"+  c #EEAE13",
"@  c #F1B210",
"#  c #F5B715",
"$  c #EBBC21",
"%  c #EEB12A",
"&  c #F7BC24",
"*  c #FAE318",
"=  c #FEF21E",
"-  c #E7D529",
";  c #EAD636",
":  c #F8E136",
">  c #F2ED37",
",  c #F7E03B",
"<  c #DAB043",
"1  c #E9B24E",
"2  c #EBB55A",
"3  c #FCEF4B",
"4  c #FBED4C",
"5  c #FCF14C",
"6  c #E9E359",
"7  c #EAE25F",
"8  c #DEC57E",
"9  c #F5D765",
"0  c #F5D961",
"q  c #F9E767",
"w  c #F9E668",
"e  c #F9E969",
"r  c #B3B7BB",
"t  c #B6B9BC",
"y  c #BCBDBD",
"u  c #BCBCBE",
"i  c #F3D38E",
"p  c #F4D793",
"a  c #F5DE92",
"s  c #C0C1C1",
"d  c #C1C1C1",
"f  c #C2C2C3",
"g  c #C4C4C3",
"h  c #C2C3C4",
"j  c #C7C7C6",
"k  c #C6C7C8",
"l  c #C7C8C8",
"z  c #C9C9CA",
"x  c #CCCCCD",
"c  c #CACCD0",
"v  c #CDCED1",
"b  c #CCCFD9",
"n  c #CFD0D0",
"m  c #D2D1D2",
"M  c #D1D2D2",
"N  c #D3D4D2",
"B  c #D5D5D4",
"V  c #D4D4D5",
"C  c #D4D5D5",
"Z  c #D5D7D7",
"A  c #D5D7D9",
"S  c #D5D8D9",
"D  c #D7D8DA",
"F  c #D8D9D9",
"G  c gray85",
"H  c #D9D9DA",
"J  c #DBDADA",
"K  c #DADADB",
"L  c #DCDDDB",
"P  c #DBDBDC",
"I  c #D9D9DE",
"U  c #DDDDDE",
"Y  c #DFDFDE",
"T  c #DEDFDF",
"R  c #E0DFDF",
"E  c #E0E0DF",
"W  c #CBD1E1",
"Q  c #D5D9E7",
"!  c #D9DDE4",
"~  c #DDDEE4",
"^  c #DFE1EC",
"/  c gray88",
"(  c #E1E1E1",
")  c #E4E4E3",
"_  c #E0E3E5",
"`  c #E5E5E4",
"'  c #E4E4E5",
"]  c #E4E4E6",
"[  c #E7E7E7",
"{  c #E8E7E7",
"}  c #E4E5E8",
"|  c #E7E7E8",
" . c #E0E3EE",
".. c #EAEAE9",
"X. c #EBE9EA",
"o. c #EBEBEA",
"O. c #EAEAEB",
"+. c #ECECEC",
"@. c #E2E3F4",
"#. c #EDECF1",
"$. c #EAE9F4",
"%. c gray94",
"&. c None",
/* pixels */
"&.&.&.&.&.&.&.&.&.&.&.&.&.&.&.&.",
"&.&.&.&.&.&.&.&.&.&.&.&.&.&.&.&.",
"&.&.&.&.&.&.&.&.+ % @ &.&.&.&.&.",
"&.&.&.&.&.&.# 2 p a i 1 &.&.&.&.",
"&.&.&.&.&.&.  0 w e w 9 . &.&.&.",
"&.&.&.&.! _ 8 : 5 5 4 , X & &.&.",
"&.T H ' O.]  .- 6 > = * O o &.&.",
"/ D A D | O.I ~ @. .7 ; < $ &.&.",
"&.) +.E [ ../ E R +.$.Q W c &.&.",
"&.C H ] %.D m P R | E H B B b &.",
"&.&.z / ..` m H T m m H L C v &.",
"&.&.&.x l g j f k f u f s u t t ",
"&.&.&.&.&.&.&.&.&.&.&.&.&.&.&.&.",
"&.&.&.&.&.&.&.&.&.&.&.&.&.&.&.&.",
"&.&.&.&.&.&.&.&.&.&.&.&.&.&.&.&.",
"&.&.&.&.&.&.&.&.&.&.&.&.&.&.&.&."
};
