/* XPM */
static const char *weather_clear_xpm[] = {
/* columns rows colors chars-per-pixel */
"16 16 79 1 ",
"  c #E69A0E",
". c #E7A003",
"X c #E7A203",
"o c #E7A407",
"O c #E8A707",
"+ c #E8A108",
"@ c #E9A508",
"# c #E9A409",
"$ c #EBA40B",
"% c #EAA70B",
"& c #ECA80C",
"* c #EDAC0E",
"= c #ECB206",
"- c #ECB306",
"; c #ECB507",
": c #ECB60E",
"> c #EDB80B",
", c #ECAA10",
"< c #EDAB13",
"1 c #E9AD11",
"2 c #ECB618",
"3 c #F0B414",
"4 c #F3B518",
"5 c #F5BA19",
"6 c #F5BE1A",
"7 c #E8A620",
"8 c #F0B625",
"9 c #F1B931",
"0 c #F0C30D",
"q c #F0C40D",
"w c #F0C615",
"e c #F7C119",
"r c #F7C318",
"t c #F8C11A",
"y c #F4D218",
"u c #F5D91C",
"i c #F6DB1C",
"p c #F6DB22",
"a c #F2CC3D",
"s c #F5D63C",
"d c #F7E021",
"f c #F8E121",
"g c #FAEB2E",
"h c #FAEC2C",
"j c #FBED31",
"k c #FBF031",
"l c #FCF236",
"z c #FCF337",
"x c #FDF63F",
"c c #EBB044",
"v c #F0BC4B",
"b c #F0BD4F",
"n c #EDBC59",
"m c #F3D042",
"M c #F7DE45",
"N c #F3CF5B",
"B c #F4D55D",
"V c #F9E74E",
"C c #FAEC4B",
"Z c #FDF942",
"A c #F8E250",
"S c #FAEA50",
"D c #FBEE52",
"F c #FBEE53",
"G c #F9E85D",
"H c #FBF054",
"J c #F7DF63",
"K c #F4D27E",
"L c #F5D77F",
"P c #F6DB7D",
"I c #F6DC7D",
"U c #F8E265",
"Y c #F9E668",
"T c #F9E769",
"R c #FDF772",
"E c #FDF875",
"W c #FDF696",
"Q c #FDF79B",
"! c None",
/* pixels */
"!!!!!!!!!!!!!!!!",
"!!!!!!!!!!!!!!!!",
"!!!!!!!!!!!!!!!!",
"!!!!!!8vb9!!!!!!",
"!!!!tcKPKWn5!!!!",
"!!!! NJYJJJ<!!!!",
"!!!4.sVDAAM:*!!!",
"!!!$=ugllgd0$!!!",
"!!!&=ihZZkdq%!!!",
"!!!t.yCREDp;3!!!",
"!!!!+>AWQGwo!!!!",
"!!!!!O1am2o!!!!!",
"!!!!!!r<,e!!!!!!",
"!!!!!!!!!!!!!!!!",
"!!!!!!!!!!!!!!!!",
"!!!!!!!!!!!!!!!!"
};
