/* XPM */
static const char * zoom_in_xpm[] = {
"16 16 105 2",
"  	c None",
". 	c #878B87",
"+ 	c #868C8A",
"@ 	c #888B89",
"# 	c #ACB6BF",
"$ 	c #CDD6DD",
"% 	c #E4E7E9",
"& 	c #929594",
"* 	c #CFD8E0",
"= 	c #D3DDE5",
"- 	c #A4BFDC",
"; 	c #99B9DA",
"> 	c #9AB9DA",
", 	c #A4BFDD",
"' 	c #CFDAE5",
") 	c #B4C9DF",
"! 	c #9DBDDD",
"~ 	c #B5CDE6",
"{ 	c #5C84B8",
"] 	c #5B84B8",
"^ 	c #B0CAE4",
"/ 	c #9ABADD",
"( 	c #98B9DC",
"_ 	c #BCD1E8",
": 	c #5F87B9",
"< 	c #FFFFFF",
"[ 	c #5A84B7",
"} 	c #ABC6E2",
"| 	c #91B4DA",
"1 	c #868C8B",
"2 	c #9DBBDA",
"3 	c #B6CDE6",
"4 	c #5D85B8",
"5 	c #5E86B8",
"6 	c #5982B7",
"7 	c #5781B6",
"8 	c #9FBDDE",
"9 	c #9EBBDA",
"0 	c #878B88",
"a 	c #8EB2D6",
"b 	c #5983B7",
"c 	c #507DB4",
"d 	c #86ACD4",
"e 	c #89AED4",
"f 	c #4E7BB3",
"g 	c #4A78B2",
"h 	c #878C8B",
"i 	c #CFD8DE",
"j 	c #A7C1DD",
"k 	c #86ADD6",
"l 	c #4F7CB3",
"m 	c #89AED6",
"n 	c #A9C3DE",
"o 	c #D0D8DE",
"p 	c #888B87",
"q 	c #B1BAC1",
"r 	c #D9E1E8",
"s 	c #94B6DA",
"t 	c #96B7DB",
"u 	c #527EB5",
"v 	c #537EB5",
"w 	c #97B8DB",
"x 	c #DAE2E8",
"y 	c #B2BBC1",
"z 	c #8A8C8A",
"A 	c #D7DDE2",
"B 	c #CAD8E6",
"C 	c #A4C0DF",
"D 	c #A6C2E0",
"E 	c #A7C3E1",
"F 	c #D8DEE3",
"G 	c #949895",
"H 	c #DADFE3",
"I 	c #E1E6EA",
"J 	c #C7D7E8",
"K 	c #BDD2E6",
"L 	c #BED2E6",
"M 	c #C8D8E8",
"N 	c #DFE5EA",
"O 	c #DBE0E4",
"P 	c #959896",
"Q 	c #9DA09B",
"R 	c #60625F",
"S 	c #8A8D8A",
"T 	c #BCC1C4",
"U 	c #DCE0E2",
"V 	c #E9EBEB",
"W 	c #BDC2C5",
"X 	c #898C88",
"Y 	c #878A84",
"Z 	c #B9BCB6",
"` 	c #BDBFBC",
" .	c #61635F",
"..	c #8A8C88",
"+.	c #8D918D",
"@.	c #8B8D89",
"#.	c #8E918D",
"$.	c #575955",
"%.	c #7A7B78",
"&.	c #B7B8B6",
"*.	c #595B57",
"=.	c #555753",
"-.	c #767873",
";.	c #A0A29F",
">.	c #565854",
"        . + . . + .             ",
"      @ # $ % % $ # @           ",
"    & * = - ; > , ' * &         ",
"  @ * ) ! ~ { ] ^ / ) * @       ",
". # ' ( _ : < < [ } | ' # .     ",
"1 $ 2 3 4 5 < < 6 7 8 9 $ +     ",
"0 % a b < < < < < < c d % .     ",
"0 % e f < < < < < < g e % .     ",
"h i j k f f < < l f m n o h     ",
"p q r s t u < < v ( w x y p     ",
"  z A B C D 7 7 E D B F .       ",
"    G H I J K L M N O P Q R     ",
"      S T U V V U W X Y Z `  .  ",
"        ..+.@.@.#...  $.%.Y &.*.",
"                        =.-.;.*.",
"                          =.>.  "};
