/* XPM */
static const char *zoom_original_xpm[] = {
/* columns rows colors chars-per-pixel */
"16 16 95 2 ",
"   c #324866",
".  c #334968",
"X  c #354A69",
"o  c #3D526F",
"O  c #5B5C58",
"+  c #5D5E58",
"@  c #5D6770",
"#  c #64696A",
"$  c #636B72",
"%  c #64707D",
"&  c #7E7E79",
"*  c #5B769A",
"=  c #5D799D",
"-  c #5F799F",
";  c #5E7A9F",
":  c #667B92",
">  c #617C9F",
",  c #647FA4",
"<  c #75818D",
"1  c #6E8096",
"2  c #7D8C9C",
"3  c #5C84BC",
"4  c #6682A6",
"5  c #6782A8",
"6  c #6A84A8",
"7  c #7F8FA4",
"8  c #7E99A8",
"9  c #6F8BB4",
"0  c #6A8ABB",
"q  c #728EB2",
"w  c #76AEED",
"e  c #7CB0E8",
"r  c #92928C",
"t  c #8C949D",
"y  c #919390",
"u  c gray61",
"i  c #9E9F9C",
"p  c #969BA1",
"a  c #939CA8",
"s  c #89A0B4",
"d  c #97A3B7",
"f  c #9AA4B3",
"g  c #95A6BC",
"h  c #A1A5AA",
"j  c #ADAEAB",
"k  c #A8ADB6",
"l  c #A3AEBA",
"z  c #AFB2B5",
"x  c #B8B7B2",
"c  c #B3B6B9",
"v  c #B9BBBD",
"b  c #BFBFBE",
"n  c #C5C4BF",
"m  c #B5BAC0",
"M  c #A0B7D8",
"N  c #91B9E9",
"B  c #AEC0D6",
"V  c #A4CBF2",
"C  c #B0D5FD",
"Z  c #C9C7C3",
"A  c #CDCDCA",
"S  c #CCCDCC",
"D  c #CDCDCD",
"F  c #D8D9D8",
"G  c #DFE0DF",
"H  c #CFD9E6",
"J  c #C6D4EA",
"K  c #C6D7ED",
"L  c #C3DAF7",
"P  c #C4DAF6",
"I  c #CCDEF5",
"U  c #D1E2F6",
"Y  c #DAE7F7",
"T  c #DDE8F5",
"R  c #DBE8F9",
"E  c #E2E3E2",
"W  c #E9E9E7",
"Q  c #E2E9F1",
"!  c #E3EDF9",
"~  c #E1ECFA",
"^  c #E2EFFB",
"/  c #E4EDF9",
"(  c #E4EEF9",
")  c #E0F0FA",
"_  c #E2F0FB",
"`  c #E7F9FF",
"'  c #E9FAFF",
"]  c #ECF9FF",
"[  c #F4F3F0",
"{  c #F3F9FF",
"}  c #F5FFFF",
"|  c #FAFFFF",
" . c #FEFFFF",
".. c white",
"X. c None",
/* pixels */
"X.X.X.X.W c h z A X.X.X.X.X.X.X.",
"X.X.[ k l Q { H d p X.X.X.X.X.X.",
"X.X.f T / / / ~ R K t X.X.X.X.X.",
"X.m J Y ] ^ ) ) ' U M v X.X.X.X.",
"X.g I ' . | |  .X } P 7 X.X.X.X.",
"n 0 L s 6 X.o 8 4 X.V 5 X.X.X.X.",
"x 3 X. .= X. . .= X.X.q X.X.X.X.",
"X.9 e X.> X.  X.4 X.X.1 X.X.X.X.",
"X.a N X.* X. .X.= X.C # X.X.X.X.",
"X.Z B X. .X.X.X. .X.2 X.X.X.X.X.",
"X.X.r : w X.X.X.X.< & X.X.X.X.X.",
"X.X.X.X.+ @ % $ + X.D b X.X.X.X.",
"X.X.X.X.X.X.X.X.X.X.X.F j X.X.X.",
"X.X.X.X.X.X.X.X.X.X.X.X.E i X.X.",
"X.X.X.X.X.X.X.X.X.X.X.X.X.E y X.",
"X.X.X.X.X.X.X.X.X.X.X.X.X.u D X."
};
