/* XPM */
static const char *zoom_in_xpm[] = {
/* columns rows colors chars-per-pixel */
"16 16 102 2 ",
"   c #223449",
".  c #314156",
"X  c #3B5373",
"o  c #3C5270",
"O  c #3B5575",
"+  c #5B5D5A",
"@  c #5E5F5A",
"#  c #475E7B",
"$  c #5D6871",
"%  c #64696B",
"&  c #646C73",
"*  c #65717E",
"=  c #7F7F7B",
"-  c #4F6683",
";  c #5C799D",
":  c #687C93",
">  c #78848E",
",  c #6E8096",
"<  c #7F8D9D",
"1  c #5D84BC",
"2  c #6782A7",
"3  c #6784A5",
"4  c #7F8FA5",
"5  c #718DAC",
"6  c #738EAC",
"7  c #6C8DBC",
"8  c #718CB0",
"9  c #718DB5",
"0  c #7C95B3",
"q  c #7BAEE6",
"w  c #7FB1EB",
"e  c #8F908B",
"r  c #8F918E",
"t  c #8D959E",
"y  c #9C9D9A",
"u  c gray61",
"i  c #979CA2",
"p  c #929CA8",
"a  c #9CA6B4",
"s  c #9AA6B9",
"d  c #98A8BE",
"f  c #A1A5AA",
"g  c #AAABA9",
"h  c #A9AEB7",
"j  c #AFB2B5",
"k  c #A7B1BD",
"l  c #B8B7B2",
"z  c #B3B6B9",
"x  c #B6B9BB",
"c  c #BBBBBA",
"v  c #C3C1BE",
"b  c #C5C4BF",
"n  c #94A8C0",
"m  c #B4B9C0",
"M  c #A2B8D7",
"N  c #ABBDD3",
"B  c #8FBEEE",
"V  c #92B9E8",
"C  c #A8CEEF",
"Z  c #AFD3F8",
"A  c #B9DBF6",
"S  c #C8C8C8",
"D  c #CDCDCA",
"F  c #CCCDCC",
"G  c #D2D3D2",
"H  c #D9DAD9",
"J  c #DCDDDC",
"K  c #CDD7E5",
"L  c #C6D4E9",
"P  c #C5D5EB",
"I  c #C1D7F3",
"U  c #C8DAF2",
"Y  c #C2E4F7",
"T  c #D0E1F5",
"R  c #DCE6F3",
"E  c #D9E6F6",
"W  c #DAE7F7",
"Q  c #D8E9F9",
"!  c #DEEBF9",
"~  c #D1F0FF",
"^  c #D9F0FF",
"/  c #DFF2FF",
"(  c #E9E9E7",
")  c #ECEBE9",
"_  c #E0E7F0",
"`  c #E3ECF8",
"'  c #E8F6FF",
"]  c #E9F6FF",
"[  c #EBF6FF",
"{  c #E7FFFF",
"}  c #EFF8FF",
"|  c #EAFCFF",
" . c #EDFFFF",
".. c #EEFFFF",
"X. c #F0FEFF",
"o. c #F1FFFF",
"O. c #F3FFFF",
"+. c #FAFFFF",
"@. c #FDFFFF",
"#. c #FEFFFF",
"$. c white",
"%. c None",
/* pixels */
"%.%.%.%.( z f j D %.%.%.%.%.%.%.",
"%.%.) h k _ +.K s i %.%.%.%.%.%.",
"%.%.a R ` X.o ] E P t %.%.%.%.%.",
"%.m L E ! ] 0 ] Q T M x %.%.%.%.",
"%.d U / | $.5 %...} A t %.%.%.%.",
"b 7 ^ . - # n X O   ~ 2 %.%.%.%.",
"l 1 C { ..$.5 %...O.Y 8 %.%.%.%.",
"%.9 q %.%.%.3 %.%.%.%., %.%.%.%.",
"%.p V %.%.%.; %.%.%.Z % %.%.%.%.",
"%.v N B %.%.$.%.%.%.< %.%.%.%.%.",
"%.%.e : w %.%.%.A > = %.%.%.%.%.",
"%.%.%.%.+ $ * & @ %.S c %.%.%.%.",
"%.%.%.%.%.%.%.%.%.%.%.G g %.%.%.",
"%.%.%.%.%.%.%.%.%.%.%.%.H y %.%.",
"%.%.%.%.%.%.%.%.%.%.%.%.%.J r %.",
"%.%.%.%.%.%.%.%.%.%.%.%.%.u F %."
};
