/* XPM */
static const char *zoom_out_xpm[] = {
/* columns rows colors chars-per-pixel */
"16 16 101 2 ",
"   c #1A2B41",
".  c #26364D",
"X  c #324D6F",
"o  c #375171",
"O  c #3F5776",
"+  c #5B5B55",
"@  c #5D5D59",
"#  c #5B5E5C",
"$  c #445B7A",
"%  c #485F7E",
"&  c #5F6974",
"*  c #636A6F",
"=  c #636F7B",
"-  c #64717D",
";  c #6D757A",
":  c #61748F",
">  c #707981",
",  c #667891",
"<  c #6780A1",
"1  c #4F81C6",
"2  c #5F88C1",
"3  c #698FC7",
"4  c #848582",
"5  c #8A8B87",
"6  c #8C8C8A",
"7  c #8E8F8C",
"8  c #848E99",
"9  c #959A9F",
"0  c #989898",
"q  c #999A98",
"w  c #8E9AAD",
"e  c #9A9EA2",
"r  c #8A9BB2",
"t  c #939EB2",
"y  c #9CA4AF",
"u  c #AEACA5",
"i  c #A1A5AB",
"p  c #A9AAA8",
"a  c #A6AEBA",
"s  c #ACB0B4",
"d  c gray70",
"f  c #B6B5B3",
"g  c #B6B9BA",
"h  c #BEBFBC",
"j  c #C2C3BF",
"k  c #8DA3C3",
"l  c #92A7C5",
"z  c #ACB5C2",
"x  c #A3BADA",
"c  c #B6C7DF",
"v  c #A0C3EF",
"b  c #ADC9EF",
"n  c #B1D0EC",
"m  c #A3C6F0",
"M  c #AFD5F4",
"N  c #ABD3F8",
"B  c #CACAC7",
"V  c #CCCBC8",
"C  c #CCCCC8",
"Z  c #D5D3CD",
"A  c #C3CDDC",
"S  c #D7D7D7",
"D  c #CADCF3",
"F  c #CFE1F5",
"G  c #C1E4FA",
"H  c #CAE9FF",
"J  c #CDEEFF",
"K  c #D7E4F7",
"L  c #DAE7F6",
"P  c #D6E7F8",
"I  c #DCE9F9",
"U  c #DEECFA",
"Y  c #DFEEFA",
"T  c #E1E2E1",
"R  c gray89",
"E  c #E7E7E3",
"W  c #E6E6E4",
"Q  c #ECEBE9",
"!  c #E0EBF9",
"~  c #E3EDF9",
"^  c #E2EFFA",
"/  c #E5EDF9",
"(  c #E5EEF9",
")  c #E2F1FB",
"_  c #E0F7FF",
"`  c #E5F7FF",
"'  c #EAF1F9",
"]  c #E9F2FD",
"[  c #EFFFFF",
"{  c #F0F5FF",
"}  c azure",
"|  c #F1FFFF",
" . c #F4FFFF",
".. c #F5FFFF",
"X. c #F6FFFF",
"o. c #F7FFFF",
"O. c #F8FFFF",
"+. c #F9FFFF",
"@. c #FAFFFF",
"#. c #FDFFFF",
"$. c None",
/* pixels */
"$.$.$.$.$.T s i g V $.$.$.$.$.$.",
"$.$.$.Q y z ' { A t e $.$.$.$.$.",
"$.$.E w ] / / / ! U c 9 $.$.$.$.",
"$.$.a K L U ) ) Y P D k C $.$.$.",
"$.Z l D ` } O.#.O.} ..b 8 $.$.$.",
"$.j 3 _ . % $ O o X   J : $.$.$.",
"$.f 1 M [ ....O.O.O.O.G , $.$.$.",
"$.u 2 $.$.$.$.$.$.$.$.N - $.$.$.",
"$.$.r v $.$.$.$.$.$.$.m @ $.$.$.",
"$.$.B x $.$.$.$.$.$.H > $.$.$.$.",
"$.$.$.6 < $.$.$.$.n ; 5 $.$.$.$.",
"$.$.$.$.$.# & - * + $.S p $.$.$.",
"$.$.$.$.$.$.$.$.$.$.$.$.R q $.$.",
"$.$.$.$.$.$.$.$.$.$.$.$.$.W 7 $.",
"$.$.$.$.$.$.$.$.$.$.$.$.$.q T 4 ",
"$.$.$.$.$.$.$.$.$.$.$.$.$.$.d h "
};
