/* XPM */
static const char *zoom_draw_xpm[] = {
/* columns rows colors chars-per-pixel */
"16 16 145 2 ",
"   c #5D6973",
".  c #626A6F",
"X  c #686968",
"o  c #696D6B",
"O  c #71797E",
"+  c #6B7682",
"@  c #757D85",
"#  c #4E7DB9",
"$  c #547DB1",
"%  c #75808C",
"&  c #7688A1",
"*  c #7F90A5",
"=  c #638CC1",
"-  c #868681",
";  c #858683",
":  c #898986",
">  c #8F908E",
",  c #808A96",
"<  c #92979C",
"1  c #9B9C9A",
"2  c #9E9E9C",
"3  c #8394A8",
"4  c #8296B0",
"5  c #8D9CB1",
"6  c #849ABA",
"7  c #9EA2A8",
"8  c #9FA9B8",
"9  c #98AABE",
"0  c #A6A6A4",
"q  c #ABACAB",
"w  c #A3AAB3",
"e  c #ABAEB1",
"r  c #ACAFB1",
"t  c #A0ABB8",
"y  c #B1B1B1",
"u  c #BBB9B7",
"i  c #B3B6B8",
"p  c #BEC0BE",
"a  c #8DA7C7",
"s  c #90A9CA",
"d  c #B2BAC5",
"f  c #A0BED7",
"g  c #A2BFD6",
"h  c #A6C3D7",
"j  c #AAC6DA",
"k  c #AEC8DD",
"l  c #B4C6E1",
"z  c #B0C9E2",
"x  c #B4CBE6",
"c  c #B8D3EC",
"v  c #C4C4C1",
"b  c gray78",
"n  c #CBCAC7",
"m  c #CCCCC8",
"M  c #CDCCCD",
"N  c #D2D0CD",
"B  c #C9D2DF",
"V  c #D1D2D2",
"C  c #DBD9D3",
"Z  c #DDDCD7",
"A  c #E0DFDE",
"S  c #DFE0DF",
"D  c #C3D1E4",
"F  c #C3DBF6",
"G  c #C2DDFB",
"H  c #C1DEFA",
"J  c #C8DEF8",
"K  c #D9E1E7",
"L  c #C9E0F6",
"P  c #C9E1F9",
"I  c #CFE2F8",
"U  c #CFE3F9",
"Y  c #CFE3FB",
"T  c #CAE4FB",
"R  c #CFE5F9",
"E  c #CCE3FC",
"W  c #CDE7FC",
"Q  c #CFE7FC",
"!  c #D0E3F3",
"~  c #DDE7F7",
"^  c #D3E6FA",
"/  c #D0E6FC",
"(  c #D5E8FB",
")  c #D6E8FA",
"_  c #D9EAFA",
"`  c #DBEAFA",
"'  c #DDEBFC",
"]  c #E3E3E2",
"[  c #E5E5E4",
"{  c #E8E9E8",
"}  c gray92",
"|  c #EEECEC",
" . c #EEEDED",
".. c #EFEFEF",
"X. c #F2EFEF",
"o. c #F3F2ED",
"O. c #E1EEFE",
"+. c #E0F3F9",
"@. c #E1F3FA",
"#. c #E5F5FB",
"$. c #E2F3FF",
"%. c #E6F7FF",
"&. c #ECF1F8",
"*. c #EBFAFB",
"=. c #ECFBFB",
"-. c #EFFBFB",
";. c #EBF8FF",
":. c #EAFAFF",
">. c #EEFAFC",
",. c #F1F0F0",
"<. c #F1F1F1",
"1. c gray95",
"2. c #F3F2F2",
"3. c #F6F6F6",
"4. c #F8F7F7",
"5. c #FAF9F7",
"6. c #F1F9FA",
"7. c #F0FAFA",
"8. c #F0FAFB",
"9. c #F3FAFB",
"0. c #F6F9F9",
"q. c #F5FAFA",
"w. c #F4FBFA",
"e. c #F7FAFA",
"r. c #F6FBFB",
"t. c #F0FBFC",
"y. c #F1FBFC",
"u. c #F3FAFC",
"i. c #F2F8FF",
"p. c #F5FBFC",
"a. c #F7FBFC",
"s. c #F0FDFF",
"d. c #F2FEFF",
"f. c #F7FFFF",
"g. c #F9F9F9",
"h. c #FAF9F9",
"j. c #F8FBFB",
"k. c gray98",
"l. c #FCFBFB",
"z. c #F8FFFF",
"x. c #FBFFFF",
"c. c #FCFFFF",
"v. c #FDFFFF",
"b. c white",
"n. c None",
/* pixels */
"n.n.n.n.n.A e 7 i v n.n.n.n.n.n.",
"n.b.b.5.w d &.i.B t e n.n.n.n.n.",
"n.b.c 5 O._ _ ) ) I D < n.n.n.n.",
"n.b.t I / / W W P H ~ 6 m n.n.n.",
"n.o.s x z k j h h f K a , n.n.n.",
"n.Z = ' ;.f.x.b.x.x.;.E * n.n.n.",
"n.N # P @.>.8.9.8.>.=./ 3 n.n.n.",
"n.C $ P #.t.t.a.9.8.>.( % n.n.n.",
"n.4.& J +.8.w.k.k.9.8.F : n.n.n.",
"n.b.9 l L >.8.9.k.k.$.@ 2.n.n.n.",
"n.b.n 0 3 G %.s.s.! O 2 { n.n.n.",
"n.n.n.b.u o   + . - } V q n.n.n.",
"n.n.n.b.k.b.k.,.b.k.3.M S 2 n.n.",
"n.n.n.b.,.,.,.X.| | | | b [ > n.",
"n.n.n.b.b.b.b.b.b.b.b.b.b.X ] - ",
"n.n.n.n.n.n.n.n.n.n.n.n.n.n.y p "
};
