<?xml version="1.0" encoding="utf-8"?>
<!-- Generator: Adobe Illustrator 16.0.0, SVG Export Plug-In . SVG Version: 6.00 Build 0)  -->
<!DOCTYPE svg PUBLIC "-//W3C//DTD SVG 1.1//EN" "http://www.w3.org/Graphics/SVG/1.1/DTD/svg11.dtd">
<svg version="1.1" id="Layer_1" xmlns="http://www.w3.org/2000/svg" xmlns:xlink="http://www.w3.org/1999/xlink" x="0px" y="0px"
	 width="440.079px" height="285.679px" viewBox="0 0 440.079 285.679" enable-background="new 0 0 440.079 285.679"
	 xml:space="preserve">
<g>
	<g>
		<defs>
			<polygon id="SVGID_1_" points="0,0 440.079,0 440.079,285.679 0,285.679 0,0 			"/>
		</defs>
		<clipPath id="SVGID_2_">
			<use xlink:href="#SVGID_1_"  overflow="visible"/>
		</clipPath>
		
			<rect x="3.543" y="3.322" clip-path="url(#SVGID_2_)" fill-rule="evenodd" clip-rule="evenodd" fill="#FFFFFF" stroke="#000000" stroke-width="0.6644" stroke-linecap="square" stroke-miterlimit="10" width="432.284" height="279.036"/>
	</g>
	<g>
		<defs>
			<polygon id="SVGID_3_" points="58.11,45.177 423.07,45.177 423.07,241.83 58.11,241.83 58.11,45.177 			"/>
		</defs>
		<clipPath id="SVGID_4_">
			<use xlink:href="#SVGID_3_"  overflow="visible"/>
		</clipPath>
		
			<line clip-path="url(#SVGID_4_)" fill="none" stroke="#000000" stroke-width="0" stroke-linecap="square" stroke-miterlimit="10" stroke-dasharray="2.8346,5.6693" x1="58.11" y1="211.934" x2="423.07" y2="211.934"/>
		
			<line clip-path="url(#SVGID_4_)" fill="none" stroke="#000000" stroke-width="0" stroke-linecap="square" stroke-miterlimit="10" stroke-dasharray="2.8346,5.6693" x1="58.11" y1="184.694" x2="423.07" y2="184.694"/>
		
			<line clip-path="url(#SVGID_4_)" fill="none" stroke="#000000" stroke-width="0" stroke-linecap="square" stroke-miterlimit="10" stroke-dasharray="2.8346,5.6693" x1="58.11" y1="157.455" x2="423.07" y2="157.455"/>
		
			<line clip-path="url(#SVGID_4_)" fill="none" stroke="#000000" stroke-width="0" stroke-linecap="square" stroke-miterlimit="10" stroke-dasharray="2.8346,5.6693" x1="58.11" y1="129.552" x2="423.07" y2="129.552"/>
		
			<line clip-path="url(#SVGID_4_)" fill="none" stroke="#000000" stroke-width="0" stroke-linecap="square" stroke-miterlimit="10" stroke-dasharray="2.8346,5.6693" x1="58.11" y1="102.313" x2="423.07" y2="102.313"/>
		
			<line clip-path="url(#SVGID_4_)" fill="none" stroke="#000000" stroke-width="0" stroke-linecap="square" stroke-miterlimit="10" stroke-dasharray="2.8346,5.6693" x1="58.11" y1="75.074" x2="423.07" y2="75.074"/>
		
			<line clip-path="url(#SVGID_4_)" fill="none" stroke="#000000" stroke-width="0" stroke-linecap="square" stroke-miterlimit="10" stroke-dasharray="2.8346,5.6693" x1="58.11" y1="47.834" x2="423.07" y2="47.834"/>
	</g>
	<g>
		<defs>
			<polygon id="SVGID_5_" points="55.275,47.834 425.905,47.834 425.905,239.173 55.275,239.173 55.275,47.834 			"/>
		</defs>
		<clipPath id="SVGID_6_">
			<use xlink:href="#SVGID_5_"  overflow="visible"/>
		</clipPath>
		
			<line clip-path="url(#SVGID_6_)" fill="none" stroke="#000000" stroke-width="0" stroke-linecap="square" stroke-miterlimit="10" stroke-dasharray="2.8346,5.6693" x1="97.086" y1="47.834" x2="97.086" y2="239.173"/>
		
			<line clip-path="url(#SVGID_6_)" fill="none" stroke="#000000" stroke-width="0" stroke-linecap="square" stroke-miterlimit="10" stroke-dasharray="2.8346,5.6693" x1="136.063" y1="47.834" x2="136.063" y2="239.173"/>
		
			<line clip-path="url(#SVGID_6_)" fill="none" stroke="#000000" stroke-width="0" stroke-linecap="square" stroke-miterlimit="10" stroke-dasharray="2.8346,5.6693" x1="175.748" y1="47.834" x2="175.748" y2="239.173"/>
		
			<line clip-path="url(#SVGID_6_)" fill="none" stroke="#000000" stroke-width="0" stroke-linecap="square" stroke-miterlimit="10" stroke-dasharray="2.8346,5.6693" x1="214.724" y1="47.834" x2="214.724" y2="239.173"/>
		
			<line clip-path="url(#SVGID_6_)" fill="none" stroke="#000000" stroke-width="0" stroke-linecap="square" stroke-miterlimit="10" stroke-dasharray="2.8346,5.6693" x1="253.7" y1="47.834" x2="253.7" y2="239.173"/>
		
			<line clip-path="url(#SVGID_6_)" fill="none" stroke="#000000" stroke-width="0" stroke-linecap="square" stroke-miterlimit="10" stroke-dasharray="2.8346,5.6693" x1="292.677" y1="47.834" x2="292.677" y2="239.173"/>
		
			<line clip-path="url(#SVGID_6_)" fill="none" stroke="#000000" stroke-width="0" stroke-linecap="square" stroke-miterlimit="10" stroke-dasharray="2.8346,5.6693" x1="331.653" y1="47.834" x2="331.653" y2="239.173"/>
		
			<line clip-path="url(#SVGID_6_)" fill="none" stroke="#000000" stroke-width="0" stroke-linecap="square" stroke-miterlimit="10" stroke-dasharray="2.8346,5.6693" x1="370.63" y1="47.834" x2="370.63" y2="239.173"/>
		
			<line clip-path="url(#SVGID_6_)" fill="none" stroke="#000000" stroke-width="0" stroke-linecap="square" stroke-miterlimit="10" stroke-dasharray="2.8346,5.6693" x1="410.314" y1="47.834" x2="410.314" y2="239.173"/>
	</g>
	<g>
		<defs>
			<polygon id="SVGID_7_" points="0,0 440.079,0 440.079,285.679 0,285.679 0,0 			"/>
		</defs>
		<clipPath id="SVGID_8_">
			<use xlink:href="#SVGID_7_"  overflow="visible"/>
		</clipPath>
		
			<line clip-path="url(#SVGID_8_)" fill="none" stroke="#808080" stroke-width="0.6644" stroke-linecap="square" stroke-miterlimit="10" x1="58.11" y1="47.834" x2="423.07" y2="47.834"/>
		
			<line clip-path="url(#SVGID_8_)" fill="none" stroke="#808080" stroke-width="0.6644" stroke-linecap="square" stroke-miterlimit="10" x1="423.07" y1="47.834" x2="423.07" y2="239.173"/>
		
			<line clip-path="url(#SVGID_8_)" fill="none" stroke="#808080" stroke-width="0.6644" stroke-linecap="square" stroke-miterlimit="10" x1="423.07" y1="239.173" x2="58.11" y2="239.173"/>
		
			<line clip-path="url(#SVGID_8_)" fill="none" stroke="#808080" stroke-width="0.6644" stroke-linecap="square" stroke-miterlimit="10" x1="58.11" y1="239.173" x2="58.11" y2="47.834"/>
		
			<line clip-path="url(#SVGID_8_)" fill="none" stroke="#000000" stroke-width="0" stroke-linecap="square" stroke-miterlimit="10" x1="58.11" y1="47.834" x2="58.11" y2="239.173"/>
		
			<line clip-path="url(#SVGID_8_)" fill="none" stroke="#000000" stroke-width="0" stroke-linecap="square" stroke-miterlimit="10" x1="55.275" y1="239.173" x2="58.11" y2="239.173"/>
		
			<line clip-path="url(#SVGID_8_)" fill="none" stroke="#000000" stroke-width="0" stroke-linecap="square" stroke-miterlimit="10" x1="55.275" y1="211.934" x2="58.11" y2="211.934"/>
		
			<line clip-path="url(#SVGID_8_)" fill="none" stroke="#000000" stroke-width="0" stroke-linecap="square" stroke-miterlimit="10" x1="55.275" y1="184.694" x2="58.11" y2="184.694"/>
		
			<line clip-path="url(#SVGID_8_)" fill="none" stroke="#000000" stroke-width="0" stroke-linecap="square" stroke-miterlimit="10" x1="55.275" y1="157.455" x2="58.11" y2="157.455"/>
		
			<line clip-path="url(#SVGID_8_)" fill="none" stroke="#000000" stroke-width="0" stroke-linecap="square" stroke-miterlimit="10" x1="55.275" y1="129.552" x2="58.11" y2="129.552"/>
		
			<line clip-path="url(#SVGID_8_)" fill="none" stroke="#000000" stroke-width="0" stroke-linecap="square" stroke-miterlimit="10" x1="55.275" y1="102.313" x2="58.11" y2="102.313"/>
		
			<line clip-path="url(#SVGID_8_)" fill="none" stroke="#000000" stroke-width="0" stroke-linecap="square" stroke-miterlimit="10" x1="55.275" y1="75.074" x2="58.11" y2="75.074"/>
		
			<line clip-path="url(#SVGID_8_)" fill="none" stroke="#000000" stroke-width="0" stroke-linecap="square" stroke-miterlimit="10" x1="55.275" y1="47.834" x2="58.11" y2="47.834"/>
		
			<line clip-path="url(#SVGID_8_)" fill="none" stroke="#000000" stroke-width="0" stroke-linecap="square" stroke-miterlimit="10" x1="58.11" y1="239.173" x2="423.07" y2="239.173"/>
		
			<line clip-path="url(#SVGID_8_)" fill="none" stroke="#000000" stroke-width="0" stroke-linecap="square" stroke-miterlimit="10" x1="58.11" y1="241.83" x2="58.11" y2="239.173"/>
		
			<line clip-path="url(#SVGID_8_)" fill="none" stroke="#000000" stroke-width="0" stroke-linecap="square" stroke-miterlimit="10" x1="97.086" y1="241.83" x2="97.086" y2="239.173"/>
		
			<line clip-path="url(#SVGID_8_)" fill="none" stroke="#000000" stroke-width="0" stroke-linecap="square" stroke-miterlimit="10" x1="136.063" y1="241.83" x2="136.063" y2="239.173"/>
		
			<line clip-path="url(#SVGID_8_)" fill="none" stroke="#000000" stroke-width="0" stroke-linecap="square" stroke-miterlimit="10" x1="175.748" y1="241.83" x2="175.748" y2="239.173"/>
		
			<line clip-path="url(#SVGID_8_)" fill="none" stroke="#000000" stroke-width="0" stroke-linecap="square" stroke-miterlimit="10" x1="214.724" y1="241.83" x2="214.724" y2="239.173"/>
		
			<line clip-path="url(#SVGID_8_)" fill="none" stroke="#000000" stroke-width="0" stroke-linecap="square" stroke-miterlimit="10" x1="253.7" y1="241.83" x2="253.7" y2="239.173"/>
		
			<line clip-path="url(#SVGID_8_)" fill="none" stroke="#000000" stroke-width="0" stroke-linecap="square" stroke-miterlimit="10" x1="292.677" y1="241.83" x2="292.677" y2="239.173"/>
		
			<line clip-path="url(#SVGID_8_)" fill="none" stroke="#000000" stroke-width="0" stroke-linecap="square" stroke-miterlimit="10" x1="331.653" y1="241.83" x2="331.653" y2="239.173"/>
		
			<line clip-path="url(#SVGID_8_)" fill="none" stroke="#000000" stroke-width="0" stroke-linecap="square" stroke-miterlimit="10" x1="370.63" y1="241.83" x2="370.63" y2="239.173"/>
		
			<line clip-path="url(#SVGID_8_)" fill="none" stroke="#000000" stroke-width="0" stroke-linecap="square" stroke-miterlimit="10" x1="410.314" y1="241.83" x2="410.314" y2="239.173"/>
	</g>
	<g>
		<defs>
			<polygon id="SVGID_9_" points="58.11,47.834 423.779,47.834 423.779,239.173 58.11,239.173 58.11,47.834 			"/>
		</defs>
		<clipPath id="SVGID_10_">
			<use xlink:href="#SVGID_9_"  overflow="visible"/>
		</clipPath>
		
			<line clip-path="url(#SVGID_10_)" fill="none" stroke="#000080" stroke-width="1.9931" stroke-linecap="square" stroke-miterlimit="10" x1="235.275" y1="75.074" x2="277.087" y2="75.074"/>
		
			<line clip-path="url(#SVGID_10_)" fill="none" stroke="#000080" stroke-width="1.9931" stroke-linecap="square" stroke-miterlimit="10" x1="277.087" y1="75.074" x2="296.929" y2="239.173"/>
		
			<line clip-path="url(#SVGID_10_)" fill="none" stroke="#000080" stroke-width="1.9931" stroke-linecap="square" stroke-miterlimit="10" x1="296.929" y1="239.173" x2="255.118" y2="239.173"/>
		
			<line clip-path="url(#SVGID_10_)" fill="none" stroke="#000080" stroke-width="1.9931" stroke-linecap="square" stroke-miterlimit="10" x1="255.118" y1="239.173" x2="235.275" y2="75.074"/>
	</g>
	<g>
		<defs>
			<polygon id="SVGID_11_" points="171.496,8.637 267.874,8.637 267.874,27.903 171.496,27.903 171.496,8.637 			"/>
		</defs>
		<clipPath id="SVGID_12_">
			<use xlink:href="#SVGID_11_"  overflow="visible"/>
		</clipPath>
		<g clip-path="url(#SVGID_12_)">
			<path d="M174.03,19.452l1.595-0.146c0.096,0.502,0.291,0.87,0.584,1.105s0.689,0.353,1.188,0.353
				c0.528,0,0.925-0.104,1.193-0.314s0.401-0.454,0.401-0.734c0-0.18-0.056-0.333-0.168-0.459c-0.113-0.126-0.31-0.236-0.59-0.33
				c-0.192-0.063-0.629-0.173-1.312-0.332c-0.878-0.204-1.495-0.455-1.849-0.753c-0.499-0.418-0.748-0.929-0.748-1.531
				c0-0.387,0.117-0.75,0.352-1.087c0.234-0.337,0.572-0.594,1.013-0.771c0.441-0.177,0.974-0.265,1.597-0.265
				c1.019,0,1.786,0.209,2.3,0.628c0.515,0.419,0.785,0.978,0.811,1.676l-1.639,0.068c-0.07-0.391-0.221-0.672-0.451-0.844
				c-0.23-0.171-0.577-0.257-1.038-0.257c-0.476,0-0.849,0.092-1.118,0.275c-0.174,0.118-0.26,0.275-0.26,0.472
				c0,0.18,0.081,0.334,0.244,0.462c0.207,0.163,0.708,0.332,1.506,0.509c0.797,0.176,1.387,0.359,1.769,0.547
				c0.382,0.188,0.681,0.446,0.897,0.773c0.216,0.327,0.324,0.731,0.324,1.212c0,0.436-0.129,0.844-0.388,1.225
				c-0.258,0.38-0.624,0.664-1.096,0.849c-0.473,0.185-1.061,0.277-1.766,0.277c-1.026,0-1.814-0.222-2.364-0.667
				C174.465,20.951,174.137,20.303,174.03,19.452z"/>
			<path d="M186.093,21.928v-0.825c-0.214,0.294-0.495,0.526-0.844,0.695c-0.349,0.169-0.717,0.254-1.104,0.254
				c-0.395,0-0.749-0.081-1.063-0.244c-0.313-0.163-0.541-0.391-0.681-0.686c-0.141-0.294-0.21-0.701-0.21-1.22v-3.488h1.556v2.533
				c0,0.775,0.028,1.25,0.086,1.425c0.057,0.175,0.161,0.313,0.313,0.416s0.343,0.153,0.576,0.153c0.266,0,0.504-0.068,0.714-0.205
				c0.21-0.136,0.354-0.306,0.432-0.508c0.077-0.203,0.116-0.698,0.116-1.487v-2.325h1.556v5.512H186.093z"/>
			<path d="M189.192,16.416h1.434v0.752c0.513-0.584,1.124-0.877,1.833-0.877c0.376,0,0.703,0.073,0.98,0.218
				c0.277,0.146,0.504,0.365,0.681,0.659c0.258-0.294,0.537-0.514,0.836-0.659c0.299-0.145,0.618-0.218,0.958-0.218
				c0.432,0,0.797,0.082,1.096,0.247c0.299,0.164,0.522,0.406,0.67,0.724c0.107,0.235,0.161,0.616,0.161,1.142v3.524h-1.556v-3.15
				c0-0.547-0.053-0.9-0.16-1.059c-0.144-0.208-0.366-0.312-0.665-0.312c-0.218,0-0.423,0.063-0.615,0.187s-0.33,0.307-0.415,0.547
				c-0.085,0.241-0.127,0.621-0.127,1.14v2.647h-1.556v-3.021c0-0.536-0.028-0.882-0.083-1.038
				c-0.055-0.155-0.141-0.271-0.257-0.348s-0.274-0.114-0.474-0.114c-0.24,0-0.456,0.061-0.647,0.182
				c-0.192,0.122-0.33,0.296-0.413,0.524s-0.125,0.607-0.125,1.137v2.678h-1.556V16.416z"/>
			<path d="M199.115,16.416h1.434v0.752c0.513-0.584,1.124-0.877,1.833-0.877c0.376,0,0.703,0.073,0.98,0.218
				c0.277,0.146,0.504,0.365,0.681,0.659c0.258-0.294,0.537-0.514,0.836-0.659c0.299-0.145,0.618-0.218,0.958-0.218
				c0.432,0,0.797,0.082,1.096,0.247c0.299,0.164,0.522,0.406,0.67,0.724c0.107,0.235,0.161,0.616,0.161,1.142v3.524h-1.556v-3.15
				c0-0.547-0.053-0.9-0.16-1.059c-0.144-0.208-0.366-0.312-0.665-0.312c-0.218,0-0.423,0.063-0.615,0.187s-0.33,0.307-0.415,0.547
				c-0.085,0.241-0.127,0.621-0.127,1.14v2.647h-1.556v-3.021c0-0.536-0.028-0.882-0.083-1.038
				c-0.055-0.155-0.141-0.271-0.257-0.348s-0.274-0.114-0.474-0.114c-0.24,0-0.456,0.061-0.647,0.182
				c-0.192,0.122-0.33,0.296-0.413,0.524s-0.125,0.607-0.125,1.137v2.678h-1.556V16.416z"/>
			<path d="M212.559,20.173l1.55,0.244c-0.199,0.533-0.514,0.938-0.944,1.217c-0.43,0.279-0.968,0.418-1.614,0.418
				c-1.022,0-1.779-0.313-2.27-0.939c-0.388-0.501-0.582-1.135-0.582-1.899c0-0.914,0.255-1.629,0.764-2.146
				c0.509-0.517,1.153-0.776,1.932-0.776c0.875,0,1.565,0.271,2.071,0.812c0.505,0.542,0.747,1.372,0.725,2.489h-3.897
				c0.011,0.432,0.136,0.769,0.376,1.009c0.24,0.241,0.539,0.361,0.896,0.361c0.244,0,0.449-0.063,0.615-0.187
				S212.474,20.45,212.559,20.173z M212.647,18.699c-0.011-0.422-0.127-0.743-0.349-0.963c-0.221-0.22-0.491-0.33-0.808-0.33
				c-0.34,0-0.62,0.116-0.842,0.348c-0.221,0.231-0.33,0.546-0.327,0.944H212.647z"/>
			<path d="M217.018,21.928h-1.556v-5.512h1.445v0.784c0.247-0.37,0.47-0.614,0.667-0.732c0.198-0.118,0.422-0.176,0.673-0.176
				c0.354,0,0.696,0.092,1.024,0.275l-0.482,1.272c-0.262-0.159-0.506-0.239-0.73-0.239c-0.218,0-0.402,0.056-0.554,0.168
				s-0.271,0.316-0.357,0.61c-0.086,0.294-0.13,0.91-0.13,1.848V21.928z"/>
			<path d="M225.206,24.165h-1.068c-0.564-0.799-0.995-1.629-1.29-2.491c-0.295-0.861-0.442-1.695-0.442-2.501
				c0-1,0.183-1.947,0.548-2.839c0.317-0.775,0.72-1.49,1.207-2.144h1.063c-0.506,1.048-0.854,1.94-1.043,2.676
				c-0.19,0.735-0.285,1.515-0.285,2.338c0,0.568,0.056,1.149,0.169,1.744c0.112,0.595,0.267,1.161,0.462,1.697
				C224.654,22.997,224.882,23.504,225.206,24.165z"/>
			<path d="M228.473,14.288c0.786,0,1.4,0.263,1.844,0.789c0.527,0.623,0.792,1.655,0.792,3.099c0,1.439-0.266,2.474-0.798,3.104
				c-0.438,0.519-1.052,0.779-1.838,0.779c-0.79,0-1.427-0.285-1.91-0.854s-0.725-1.584-0.725-3.044
				c0-1.433,0.266-2.464,0.797-3.094C227.074,14.547,227.687,14.288,228.473,14.288z M228.473,15.497
				c-0.188,0-0.356,0.056-0.504,0.168s-0.262,0.314-0.343,0.604c-0.107,0.377-0.161,1.012-0.161,1.905
				c0,0.893,0.048,1.506,0.145,1.84c0.096,0.334,0.217,0.556,0.362,0.667s0.313,0.166,0.501,0.166s0.356-0.056,0.504-0.168
				c0.147-0.113,0.262-0.314,0.344-0.605c0.106-0.374,0.16-1.007,0.16-1.899c0-0.893-0.048-1.506-0.144-1.84
				c-0.097-0.334-0.218-0.557-0.363-0.669S228.661,15.497,228.473,15.497z"/>
			<path d="M232.549,21.928v-1.458h1.556v1.458H232.549z"/>
			<path d="M235.083,19.971l1.55-0.151c0.045,0.329,0.176,0.589,0.394,0.781s0.469,0.288,0.753,0.288c0.324,0,0.6-0.124,0.825-0.371
				c0.225-0.248,0.337-0.62,0.337-1.119c0-0.467-0.111-0.817-0.335-1.051c-0.223-0.234-0.514-0.351-0.872-0.351
				c-0.446,0-0.847,0.185-1.201,0.556l-1.262-0.171l0.797-3.96h4.113v1.365h-2.934l-0.244,1.292
				c0.347-0.163,0.701-0.244,1.063-0.244c0.689,0,1.274,0.235,1.755,0.706c0.479,0.471,0.72,1.081,0.72,1.832
				c0,0.626-0.194,1.185-0.581,1.677c-0.528,0.671-1.261,1.007-2.198,1.007c-0.749,0-1.36-0.188-1.833-0.566
				C235.457,21.115,235.175,20.608,235.083,19.971z"/>
			<path d="M249.816,19.13l1.589,0.473c-0.244,0.831-0.649,1.447-1.216,1.85c-0.566,0.403-1.285,0.605-2.156,0.605
				c-1.078,0-1.964-0.345-2.657-1.036c-0.694-0.69-1.041-1.634-1.041-2.832c0-1.266,0.349-2.25,1.046-2.951
				c0.698-0.701,1.615-1.051,2.752-1.051c0.993,0,1.8,0.275,2.42,0.825c0.368,0.325,0.646,0.792,0.83,1.401l-1.622,0.363
				c-0.096-0.395-0.296-0.706-0.601-0.934c-0.305-0.229-0.675-0.343-1.11-0.343c-0.602,0-1.09,0.203-1.465,0.607
				c-0.374,0.405-0.562,1.061-0.562,1.967c0,0.962,0.185,1.647,0.554,2.055s0.849,0.612,1.439,0.612
				c0.436,0,0.811-0.129,1.124-0.389C249.454,20.096,249.68,19.688,249.816,19.13z"/>
			<path d="M253.105,21.928v-7.609h1.556v7.609H253.105z"/>
			<path d="M255.59,19.094c0-0.484,0.127-0.953,0.382-1.407c0.255-0.453,0.615-0.799,1.082-1.038s0.988-0.358,1.564-0.358
				c0.89,0,1.618,0.271,2.187,0.812c0.568,0.542,0.853,1.226,0.853,2.053c0,0.834-0.286,1.525-0.86,2.073
				c-0.574,0.549-1.297,0.823-2.168,0.823c-0.539,0-1.053-0.114-1.542-0.342c-0.488-0.229-0.86-0.563-1.115-1.004
				C255.717,20.264,255.59,19.727,255.59,19.094z M257.185,19.172c0,0.546,0.138,0.965,0.415,1.256
				c0.276,0.291,0.618,0.436,1.024,0.436c0.405,0,0.746-0.146,1.021-0.436c0.274-0.291,0.412-0.713,0.412-1.267
				c0-0.54-0.138-0.955-0.412-1.246c-0.275-0.291-0.616-0.436-1.021-0.436c-0.406,0-0.748,0.146-1.024,0.436
				C257.322,18.206,257.185,18.625,257.185,19.172z"/>
			<path d="M262.603,24.165c0.307-0.616,0.522-1.088,0.647-1.417c0.126-0.329,0.242-0.708,0.35-1.137
				c0.106-0.429,0.186-0.837,0.237-1.223s0.078-0.781,0.078-1.186c0-0.823-0.095-1.603-0.282-2.338
				c-0.188-0.735-0.535-1.627-1.041-2.676h1.058c0.557,0.744,0.99,1.533,1.298,2.367c0.309,0.834,0.463,1.68,0.463,2.538
				c0,0.723-0.122,1.499-0.366,2.325c-0.276,0.927-0.732,1.843-1.367,2.746H262.603z"/>
		</g>
	</g>
	<g>
		<defs>
			<polygon id="SVGID_13_" points="0,0 440.079,0 440.079,285.679 0,285.679 0,0 			"/>
		</defs>
		<clipPath id="SVGID_14_">
			<use xlink:href="#SVGID_13_"  overflow="visible"/>
		</clipPath>
		<g clip-path="url(#SVGID_14_)">
			<path d="M46.44,239.441c0-0.731,0.08-1.319,0.241-1.765c0.16-0.446,0.399-0.79,0.715-1.031c0.316-0.242,0.714-0.363,1.194-0.363
				c0.354,0,0.664,0.067,0.931,0.2c0.267,0.134,0.487,0.326,0.661,0.578s0.311,0.559,0.409,0.919
				c0.099,0.361,0.148,0.849,0.148,1.462c0,0.726-0.079,1.311-0.238,1.756c-0.159,0.446-0.396,0.79-0.713,1.033
				s-0.716,0.365-1.199,0.365c-0.636,0-1.135-0.214-1.498-0.641C46.657,241.44,46.44,240.603,46.44,239.441z M47.272,239.441
				c0,1.015,0.127,1.69,0.38,2.026s0.566,0.504,0.938,0.504c0.372,0,0.684-0.169,0.938-0.506c0.253-0.338,0.38-1.013,0.38-2.024
				c0-1.018-0.127-1.694-0.38-2.028c-0.254-0.335-0.569-0.502-0.947-0.502c-0.372,0-0.668,0.147-0.891,0.442
				C47.412,237.73,47.272,238.427,47.272,239.441z"/>
		</g>
		<g clip-path="url(#SVGID_14_)">
			<path d="M28.721,212.199c0-0.731,0.08-1.319,0.241-1.765c0.16-0.446,0.399-0.79,0.715-1.031c0.316-0.242,0.714-0.363,1.194-0.363
				c0.354,0,0.664,0.067,0.931,0.2c0.267,0.134,0.487,0.326,0.661,0.578s0.311,0.559,0.409,0.919
				c0.099,0.361,0.148,0.849,0.148,1.462c0,0.726-0.079,1.311-0.238,1.756c-0.159,0.446-0.396,0.79-0.713,1.033
				s-0.716,0.365-1.199,0.365c-0.636,0-1.135-0.214-1.498-0.641C28.938,214.198,28.721,213.36,28.721,212.199z M29.553,212.199
				c0,1.015,0.127,1.69,0.38,2.026s0.566,0.504,0.938,0.504c0.372,0,0.684-0.169,0.938-0.506c0.253-0.338,0.38-1.013,0.38-2.024
				c0-1.018-0.127-1.694-0.38-2.028c-0.254-0.335-0.569-0.502-0.947-0.502c-0.372,0-0.668,0.147-0.891,0.442
				C29.693,210.488,29.553,211.185,29.553,212.199z"/>
			<path d="M34.143,215.248v-0.864h0.922v0.864H34.143z"/>
			<path d="M36.515,212.199c0-0.731,0.08-1.319,0.241-1.765c0.16-0.446,0.399-0.79,0.715-1.031c0.316-0.242,0.714-0.363,1.194-0.363
				c0.354,0,0.664,0.067,0.931,0.2c0.267,0.134,0.487,0.326,0.661,0.578s0.311,0.559,0.409,0.919
				c0.099,0.361,0.148,0.849,0.148,1.462c0,0.726-0.079,1.311-0.238,1.756c-0.159,0.446-0.396,0.79-0.713,1.033
				s-0.716,0.365-1.199,0.365c-0.636,0-1.135-0.214-1.498-0.641C36.732,214.198,36.515,213.36,36.515,212.199z M37.347,212.199
				c0,1.015,0.127,1.69,0.38,2.026s0.566,0.504,0.938,0.504c0.372,0,0.684-0.169,0.938-0.506c0.253-0.338,0.38-1.013,0.38-2.024
				c0-1.018-0.127-1.694-0.38-2.028c-0.254-0.335-0.569-0.502-0.947-0.502c-0.372,0-0.668,0.147-0.891,0.442
				C37.487,210.488,37.347,211.185,37.347,212.199z"/>
			<path d="M41.482,212.199c0-0.731,0.08-1.319,0.241-1.765c0.16-0.446,0.399-0.79,0.715-1.031c0.316-0.242,0.714-0.363,1.194-0.363
				c0.354,0,0.664,0.067,0.931,0.2c0.267,0.134,0.487,0.326,0.661,0.578s0.311,0.559,0.409,0.919
				c0.099,0.361,0.148,0.849,0.148,1.462c0,0.726-0.079,1.311-0.238,1.756c-0.159,0.446-0.396,0.79-0.713,1.033
				s-0.716,0.365-1.199,0.365c-0.636,0-1.135-0.214-1.498-0.641C41.699,214.198,41.482,213.36,41.482,212.199z M42.314,212.199
				c0,1.015,0.127,1.69,0.38,2.026s0.566,0.504,0.938,0.504c0.372,0,0.684-0.169,0.938-0.506c0.253-0.338,0.38-1.013,0.38-2.024
				c0-1.018-0.127-1.694-0.38-2.028c-0.254-0.335-0.569-0.502-0.947-0.502c-0.372,0-0.668,0.147-0.891,0.442
				C42.454,210.488,42.314,211.185,42.314,212.199z"/>
			<path d="M50.704,214.519v0.729h-4.359c-0.006-0.183,0.025-0.358,0.095-0.527c0.111-0.278,0.289-0.553,0.533-0.822
				c0.245-0.27,0.598-0.582,1.06-0.937c0.717-0.551,1.201-0.987,1.453-1.309c0.251-0.322,0.377-0.627,0.377-0.913
				c0-0.301-0.114-0.555-0.344-0.762c-0.229-0.206-0.529-0.31-0.897-0.31c-0.39,0-0.702,0.109-0.936,0.329
				c-0.234,0.219-0.353,0.522-0.355,0.91l-0.833-0.08c0.057-0.582,0.271-1.025,0.644-1.33c0.372-0.305,0.871-0.458,1.498-0.458
				c0.632,0,1.133,0.165,1.502,0.494c0.369,0.328,0.553,0.736,0.553,1.223c0,0.247-0.054,0.49-0.162,0.729s-0.287,0.49-0.538,0.755
				s-0.667,0.627-1.248,1.088c-0.486,0.383-0.798,0.642-0.936,0.778c-0.138,0.137-0.251,0.273-0.342,0.411H50.704z"/>
		</g>
		<g clip-path="url(#SVGID_14_)">
			<path d="M28.721,184.957c0-0.731,0.08-1.319,0.241-1.765c0.16-0.446,0.399-0.79,0.715-1.031c0.316-0.242,0.714-0.363,1.194-0.363
				c0.354,0,0.664,0.067,0.931,0.2c0.267,0.134,0.487,0.326,0.661,0.578s0.311,0.559,0.409,0.919
				c0.099,0.361,0.148,0.849,0.148,1.462c0,0.726-0.079,1.311-0.238,1.756c-0.159,0.446-0.396,0.79-0.713,1.033
				s-0.716,0.365-1.199,0.365c-0.636,0-1.135-0.214-1.498-0.641C28.938,186.956,28.721,186.118,28.721,184.957z M29.553,184.957
				c0,1.015,0.127,1.69,0.38,2.026s0.566,0.504,0.938,0.504c0.372,0,0.684-0.169,0.938-0.506c0.253-0.338,0.38-1.013,0.38-2.024
				c0-1.018-0.127-1.694-0.38-2.028c-0.254-0.335-0.569-0.502-0.947-0.502c-0.372,0-0.668,0.147-0.891,0.442
				C29.693,183.246,29.553,183.942,29.553,184.957z"/>
			<path d="M34.143,188.006v-0.864h0.922v0.864H34.143z"/>
			<path d="M36.515,184.957c0-0.731,0.08-1.319,0.241-1.765c0.16-0.446,0.399-0.79,0.715-1.031c0.316-0.242,0.714-0.363,1.194-0.363
				c0.354,0,0.664,0.067,0.931,0.2c0.267,0.134,0.487,0.326,0.661,0.578s0.311,0.559,0.409,0.919
				c0.099,0.361,0.148,0.849,0.148,1.462c0,0.726-0.079,1.311-0.238,1.756c-0.159,0.446-0.396,0.79-0.713,1.033
				s-0.716,0.365-1.199,0.365c-0.636,0-1.135-0.214-1.498-0.641C36.732,186.956,36.515,186.118,36.515,184.957z M37.347,184.957
				c0,1.015,0.127,1.69,0.38,2.026s0.566,0.504,0.938,0.504c0.372,0,0.684-0.169,0.938-0.506c0.253-0.338,0.38-1.013,0.38-2.024
				c0-1.018-0.127-1.694-0.38-2.028c-0.254-0.335-0.569-0.502-0.947-0.502c-0.372,0-0.668,0.147-0.891,0.442
				C37.487,183.246,37.347,183.942,37.347,184.957z"/>
			<path d="M41.482,184.957c0-0.731,0.08-1.319,0.241-1.765c0.16-0.446,0.399-0.79,0.715-1.031c0.316-0.242,0.714-0.363,1.194-0.363
				c0.354,0,0.664,0.067,0.931,0.2c0.267,0.134,0.487,0.326,0.661,0.578s0.311,0.559,0.409,0.919
				c0.099,0.361,0.148,0.849,0.148,1.462c0,0.726-0.079,1.311-0.238,1.756c-0.159,0.446-0.396,0.79-0.713,1.033
				s-0.716,0.365-1.199,0.365c-0.636,0-1.135-0.214-1.498-0.641C41.699,186.956,41.482,186.118,41.482,184.957z M42.314,184.957
				c0,1.015,0.127,1.69,0.38,2.026s0.566,0.504,0.938,0.504c0.372,0,0.684-0.169,0.938-0.506c0.253-0.338,0.38-1.013,0.38-2.024
				c0-1.018-0.127-1.694-0.38-2.028c-0.254-0.335-0.569-0.502-0.947-0.502c-0.372,0-0.668,0.147-0.891,0.442
				C42.454,183.246,42.314,183.942,42.314,184.957z"/>
			<path d="M49.044,188.006v-1.48h-2.861v-0.695l3.009-4.007h0.661v4.007h0.891v0.695h-0.891v1.48H49.044z M49.044,185.83v-2.788
				l-2.065,2.788H49.044z"/>
		</g>
		<g clip-path="url(#SVGID_14_)">
			<path d="M28.721,157.723c0-0.731,0.08-1.319,0.241-1.765c0.16-0.446,0.399-0.79,0.715-1.031c0.316-0.242,0.714-0.363,1.194-0.363
				c0.354,0,0.664,0.067,0.931,0.2c0.267,0.134,0.487,0.326,0.661,0.578s0.311,0.559,0.409,0.919
				c0.099,0.361,0.148,0.849,0.148,1.462c0,0.726-0.079,1.311-0.238,1.756c-0.159,0.446-0.396,0.79-0.713,1.033
				s-0.716,0.365-1.199,0.365c-0.636,0-1.135-0.214-1.498-0.641C28.938,159.722,28.721,158.884,28.721,157.723z M29.553,157.723
				c0,1.015,0.127,1.69,0.38,2.026s0.566,0.504,0.938,0.504c0.372,0,0.684-0.169,0.938-0.506c0.253-0.338,0.38-1.013,0.38-2.024
				c0-1.018-0.127-1.694-0.38-2.028c-0.254-0.335-0.569-0.502-0.947-0.502c-0.372,0-0.668,0.147-0.891,0.442
				C29.693,156.012,29.553,156.708,29.553,157.723z"/>
			<path d="M34.143,160.771v-0.864h0.922v0.864H34.143z"/>
			<path d="M36.515,157.723c0-0.731,0.08-1.319,0.241-1.765c0.16-0.446,0.399-0.79,0.715-1.031c0.316-0.242,0.714-0.363,1.194-0.363
				c0.354,0,0.664,0.067,0.931,0.2c0.267,0.134,0.487,0.326,0.661,0.578s0.311,0.559,0.409,0.919
				c0.099,0.361,0.148,0.849,0.148,1.462c0,0.726-0.079,1.311-0.238,1.756c-0.159,0.446-0.396,0.79-0.713,1.033
				s-0.716,0.365-1.199,0.365c-0.636,0-1.135-0.214-1.498-0.641C36.732,159.722,36.515,158.884,36.515,157.723z M37.347,157.723
				c0,1.015,0.127,1.69,0.38,2.026s0.566,0.504,0.938,0.504c0.372,0,0.684-0.169,0.938-0.506c0.253-0.338,0.38-1.013,0.38-2.024
				c0-1.018-0.127-1.694-0.38-2.028c-0.254-0.335-0.569-0.502-0.947-0.502c-0.372,0-0.668,0.147-0.891,0.442
				C37.487,156.012,37.347,156.708,37.347,157.723z"/>
			<path d="M41.482,157.723c0-0.731,0.08-1.319,0.241-1.765c0.16-0.446,0.399-0.79,0.715-1.031c0.316-0.242,0.714-0.363,1.194-0.363
				c0.354,0,0.664,0.067,0.931,0.2c0.267,0.134,0.487,0.326,0.661,0.578s0.311,0.559,0.409,0.919
				c0.099,0.361,0.148,0.849,0.148,1.462c0,0.726-0.079,1.311-0.238,1.756c-0.159,0.446-0.396,0.79-0.713,1.033
				s-0.716,0.365-1.199,0.365c-0.636,0-1.135-0.214-1.498-0.641C41.699,159.722,41.482,158.884,41.482,157.723z M42.314,157.723
				c0,1.015,0.127,1.69,0.38,2.026s0.566,0.504,0.938,0.504c0.372,0,0.684-0.169,0.938-0.506c0.253-0.338,0.38-1.013,0.38-2.024
				c0-1.018-0.127-1.694-0.38-2.028c-0.254-0.335-0.569-0.502-0.947-0.502c-0.372,0-0.668,0.147-0.891,0.442
				C42.454,156.012,42.314,156.708,42.314,157.723z"/>
			<path d="M50.65,156.104l-0.805,0.059c-0.072-0.298-0.174-0.515-0.306-0.649c-0.219-0.217-0.489-0.325-0.81-0.325
				c-0.258,0-0.484,0.068-0.679,0.203c-0.255,0.174-0.456,0.429-0.603,0.763c-0.147,0.335-0.223,0.812-0.229,1.43
				c0.195-0.278,0.434-0.484,0.715-0.62c0.282-0.135,0.577-0.202,0.886-0.202c0.54,0,1,0.187,1.379,0.559
				c0.379,0.373,0.569,0.854,0.569,1.444c0,0.389-0.089,0.749-0.268,1.082s-0.424,0.589-0.735,0.766
				c-0.312,0.177-0.666,0.266-1.062,0.266c-0.675,0-1.225-0.232-1.651-0.698c-0.426-0.465-0.639-1.231-0.639-2.3
				c0-1.195,0.235-2.064,0.707-2.606c0.411-0.473,0.964-0.709,1.66-0.709c0.519,0,0.944,0.137,1.275,0.409
				S50.584,155.622,50.65,156.104z M47.344,158.769c0,0.261,0.06,0.512,0.178,0.75c0.119,0.239,0.284,0.422,0.497,0.547
				s0.437,0.188,0.67,0.188c0.342,0,0.636-0.13,0.882-0.388c0.246-0.259,0.369-0.61,0.369-1.055c0-0.428-0.122-0.764-0.364-1.01
				c-0.243-0.246-0.549-0.369-0.918-0.369c-0.366,0-0.676,0.123-0.931,0.369S47.344,158.369,47.344,158.769z"/>
		</g>
		<g clip-path="url(#SVGID_14_)">
			<path d="M28.721,129.816c0-0.731,0.08-1.319,0.241-1.765c0.16-0.445,0.399-0.789,0.715-1.031
				c0.316-0.242,0.714-0.362,1.194-0.362c0.354,0,0.664,0.066,0.931,0.2c0.267,0.133,0.487,0.326,0.661,0.578
				s0.311,0.558,0.409,0.919c0.099,0.361,0.148,0.848,0.148,1.461c0,0.725-0.079,1.311-0.238,1.756
				c-0.159,0.445-0.396,0.79-0.713,1.033s-0.716,0.365-1.199,0.365c-0.636,0-1.135-0.214-1.498-0.641
				C28.938,131.815,28.721,130.978,28.721,129.816z M29.553,129.816c0,1.015,0.127,1.69,0.38,2.026s0.566,0.504,0.938,0.504
				c0.372,0,0.684-0.169,0.938-0.506c0.253-0.337,0.38-1.012,0.38-2.024c0-1.018-0.127-1.694-0.38-2.029
				c-0.254-0.334-0.569-0.501-0.947-0.501c-0.372,0-0.668,0.147-0.891,0.442C29.693,128.105,29.553,128.801,29.553,129.816z"/>
			<path d="M34.143,132.865V132h0.922v0.865H34.143z"/>
			<path d="M36.515,129.816c0-0.731,0.08-1.319,0.241-1.765c0.16-0.445,0.399-0.789,0.715-1.031
				c0.316-0.242,0.714-0.362,1.194-0.362c0.354,0,0.664,0.066,0.931,0.2c0.267,0.133,0.487,0.326,0.661,0.578
				s0.311,0.558,0.409,0.919c0.099,0.361,0.148,0.848,0.148,1.461c0,0.725-0.079,1.311-0.238,1.756
				c-0.159,0.445-0.396,0.79-0.713,1.033s-0.716,0.365-1.199,0.365c-0.636,0-1.135-0.214-1.498-0.641
				C36.732,131.815,36.515,130.978,36.515,129.816z M37.347,129.816c0,1.015,0.127,1.69,0.38,2.026s0.566,0.504,0.938,0.504
				c0.372,0,0.684-0.169,0.938-0.506c0.253-0.337,0.38-1.012,0.38-2.024c0-1.018-0.127-1.694-0.38-2.029
				c-0.254-0.334-0.569-0.501-0.947-0.501c-0.372,0-0.668,0.147-0.891,0.442C37.487,128.105,37.347,128.801,37.347,129.816z"/>
			<path d="M41.482,129.816c0-0.731,0.08-1.319,0.241-1.765c0.16-0.445,0.399-0.789,0.715-1.031
				c0.316-0.242,0.714-0.362,1.194-0.362c0.354,0,0.664,0.066,0.931,0.2c0.267,0.133,0.487,0.326,0.661,0.578
				s0.311,0.558,0.409,0.919c0.099,0.361,0.148,0.848,0.148,1.461c0,0.725-0.079,1.311-0.238,1.756
				c-0.159,0.445-0.396,0.79-0.713,1.033s-0.716,0.365-1.199,0.365c-0.636,0-1.135-0.214-1.498-0.641
				C41.699,131.815,41.482,130.978,41.482,129.816z M42.314,129.816c0,1.015,0.127,1.69,0.38,2.026s0.566,0.504,0.938,0.504
				c0.372,0,0.684-0.169,0.938-0.506c0.253-0.337,0.38-1.012,0.38-2.024c0-1.018-0.127-1.694-0.38-2.029
				c-0.254-0.334-0.569-0.501-0.947-0.501c-0.372,0-0.668,0.147-0.891,0.442C42.454,128.105,42.314,128.801,42.314,129.816z"/>
			<path d="M47.695,129.513c-0.336-0.115-0.585-0.28-0.747-0.494c-0.162-0.213-0.243-0.469-0.243-0.768
				c0-0.45,0.172-0.828,0.518-1.134c0.345-0.306,0.804-0.459,1.376-0.459c0.576,0,1.039,0.157,1.39,0.47
				c0.351,0.313,0.526,0.695,0.526,1.145c0,0.287-0.08,0.536-0.241,0.749c-0.16,0.212-0.404,0.376-0.731,0.491
				c0.405,0.124,0.713,0.323,0.925,0.599c0.211,0.276,0.317,0.604,0.317,0.987c0,0.529-0.2,0.973-0.598,1.333
				c-0.399,0.36-0.924,0.54-1.575,0.54c-0.65,0-1.175-0.181-1.574-0.542s-0.598-0.812-0.598-1.352c0-0.402,0.108-0.739,0.326-1.01
				C46.983,129.796,47.293,129.611,47.695,129.513z M47.272,131.082c0,0.216,0.055,0.426,0.164,0.628
				c0.109,0.202,0.272,0.359,0.488,0.47c0.216,0.111,0.448,0.167,0.697,0.167c0.387,0,0.706-0.117,0.958-0.35s0.378-0.53,0.378-0.89
				c0-0.365-0.13-0.667-0.389-0.906c-0.259-0.239-0.584-0.359-0.974-0.359c-0.381,0-0.696,0.118-0.947,0.354
				S47.272,130.727,47.272,131.082z M47.533,128.227c0,0.292,0.101,0.531,0.302,0.717c0.201,0.186,0.461,0.278,0.783,0.278
				c0.312,0,0.567-0.092,0.767-0.276c0.2-0.184,0.299-0.41,0.299-0.677c0-0.278-0.103-0.512-0.308-0.702
				c-0.206-0.19-0.461-0.285-0.767-0.285c-0.309,0-0.565,0.093-0.769,0.278C47.635,127.746,47.533,127.968,47.533,128.227z"/>
		</g>
		<g clip-path="url(#SVGID_14_)">
			<path d="M33.682,102.574c0-0.731,0.08-1.319,0.241-1.765c0.16-0.445,0.399-0.789,0.715-1.031
				c0.316-0.242,0.714-0.362,1.194-0.362c0.354,0,0.664,0.066,0.931,0.2c0.267,0.133,0.487,0.326,0.661,0.578
				s0.311,0.558,0.409,0.919c0.099,0.361,0.148,0.848,0.148,1.461c0,0.725-0.079,1.311-0.238,1.756
				c-0.159,0.445-0.396,0.79-0.713,1.033s-0.716,0.365-1.199,0.365c-0.636,0-1.135-0.214-1.498-0.641
				C33.899,104.573,33.682,103.735,33.682,102.574z M34.514,102.574c0,1.015,0.127,1.69,0.38,2.026s0.566,0.504,0.938,0.504
				c0.372,0,0.684-0.169,0.938-0.506c0.253-0.337,0.38-1.012,0.38-2.024c0-1.018-0.127-1.694-0.38-2.029
				c-0.254-0.334-0.569-0.501-0.947-0.501c-0.372,0-0.668,0.147-0.891,0.442C34.654,100.863,34.514,101.559,34.514,102.574z"/>
			<path d="M39.104,105.623v-0.865h0.922v0.865H39.104z"/>
			<path d="M41.476,102.574c0-0.731,0.08-1.319,0.241-1.765c0.16-0.445,0.399-0.789,0.715-1.031
				c0.316-0.242,0.714-0.362,1.194-0.362c0.354,0,0.664,0.066,0.931,0.2c0.267,0.133,0.487,0.326,0.661,0.578
				s0.311,0.558,0.409,0.919c0.099,0.361,0.148,0.848,0.148,1.461c0,0.725-0.079,1.311-0.238,1.756
				c-0.159,0.445-0.396,0.79-0.713,1.033s-0.716,0.365-1.199,0.365c-0.636,0-1.135-0.214-1.498-0.641
				C41.693,104.573,41.476,103.735,41.476,102.574z M42.308,102.574c0,1.015,0.127,1.69,0.38,2.026s0.566,0.504,0.938,0.504
				c0.372,0,0.684-0.169,0.938-0.506c0.253-0.337,0.38-1.012,0.38-2.024c0-1.018-0.127-1.694-0.38-2.029
				c-0.254-0.334-0.569-0.501-0.947-0.501c-0.372,0-0.668,0.147-0.891,0.442C42.448,100.863,42.308,101.559,42.308,102.574z"/>
			<path d="M49.493,105.623h-0.81v-4.837c-0.195,0.174-0.451,0.349-0.767,0.523s-0.601,0.305-0.853,0.392v-0.734
				c0.453-0.2,0.849-0.441,1.188-0.726c0.339-0.284,0.579-0.559,0.72-0.826h0.521V105.623z"/>
		</g>
		<g clip-path="url(#SVGID_14_)">
			<path d="M28.721,75.34c0-0.731,0.08-1.319,0.241-1.765c0.16-0.445,0.399-0.789,0.715-1.031c0.316-0.242,0.714-0.362,1.194-0.362
				c0.354,0,0.664,0.066,0.931,0.2c0.267,0.133,0.487,0.326,0.661,0.578s0.311,0.558,0.409,0.919
				c0.099,0.361,0.148,0.848,0.148,1.461c0,0.725-0.079,1.311-0.238,1.756c-0.159,0.445-0.396,0.79-0.713,1.033
				s-0.716,0.365-1.199,0.365c-0.636,0-1.135-0.214-1.498-0.641C28.938,77.338,28.721,76.501,28.721,75.34z M29.553,75.34
				c0,1.015,0.127,1.69,0.38,2.026s0.566,0.504,0.938,0.504c0.372,0,0.684-0.169,0.938-0.506c0.253-0.337,0.38-1.012,0.38-2.024
				c0-1.018-0.127-1.694-0.38-2.029c-0.254-0.334-0.569-0.501-0.947-0.501c-0.372,0-0.668,0.147-0.891,0.442
				C29.693,73.629,29.553,74.325,29.553,75.34z"/>
			<path d="M34.143,78.389v-0.865h0.922v0.865H34.143z"/>
			<path d="M36.515,75.34c0-0.731,0.08-1.319,0.241-1.765c0.16-0.445,0.399-0.789,0.715-1.031c0.316-0.242,0.714-0.362,1.194-0.362
				c0.354,0,0.664,0.066,0.931,0.2c0.267,0.133,0.487,0.326,0.661,0.578s0.311,0.558,0.409,0.919
				c0.099,0.361,0.148,0.848,0.148,1.461c0,0.725-0.079,1.311-0.238,1.756c-0.159,0.445-0.396,0.79-0.713,1.033
				s-0.716,0.365-1.199,0.365c-0.636,0-1.135-0.214-1.498-0.641C36.732,77.338,36.515,76.501,36.515,75.34z M37.347,75.34
				c0,1.015,0.127,1.69,0.38,2.026s0.566,0.504,0.938,0.504c0.372,0,0.684-0.169,0.938-0.506c0.253-0.337,0.38-1.012,0.38-2.024
				c0-1.018-0.127-1.694-0.38-2.029c-0.254-0.334-0.569-0.501-0.947-0.501c-0.372,0-0.668,0.147-0.891,0.442
				C37.487,73.629,37.347,74.325,37.347,75.34z"/>
			<path d="M44.532,78.389h-0.81v-4.837c-0.195,0.174-0.451,0.349-0.767,0.523s-0.601,0.305-0.853,0.392v-0.734
				c0.453-0.2,0.849-0.441,1.188-0.726c0.339-0.284,0.579-0.559,0.72-0.826h0.521V78.389z"/>
			<path d="M50.704,77.659v0.729h-4.359c-0.006-0.183,0.025-0.358,0.095-0.527c0.111-0.278,0.289-0.552,0.533-0.822
				c0.245-0.27,0.598-0.582,1.06-0.936c0.717-0.551,1.201-0.988,1.453-1.31c0.251-0.322,0.377-0.626,0.377-0.913
				c0-0.301-0.114-0.554-0.344-0.761c-0.229-0.207-0.529-0.31-0.897-0.31c-0.39,0-0.702,0.109-0.936,0.329
				c-0.234,0.219-0.353,0.523-0.355,0.911l-0.833-0.08c0.057-0.582,0.271-1.025,0.644-1.331c0.372-0.305,0.871-0.458,1.498-0.458
				c0.632,0,1.133,0.164,1.502,0.493c0.369,0.329,0.553,0.737,0.553,1.223c0,0.248-0.054,0.491-0.162,0.729
				s-0.287,0.491-0.538,0.755s-0.667,0.627-1.248,1.088c-0.486,0.382-0.798,0.642-0.936,0.778c-0.138,0.136-0.251,0.273-0.342,0.411
				H50.704z"/>
		</g>
		<g clip-path="url(#SVGID_14_)">
			<path d="M28.721,48.098c0-0.731,0.08-1.319,0.241-1.765c0.16-0.445,0.399-0.789,0.715-1.031c0.316-0.242,0.714-0.362,1.194-0.362
				c0.354,0,0.664,0.066,0.931,0.2c0.267,0.133,0.487,0.326,0.661,0.578s0.311,0.558,0.409,0.919
				c0.099,0.361,0.148,0.848,0.148,1.461c0,0.725-0.079,1.311-0.238,1.756c-0.159,0.445-0.396,0.79-0.713,1.033
				s-0.716,0.365-1.199,0.365c-0.636,0-1.135-0.214-1.498-0.641C28.938,50.096,28.721,49.259,28.721,48.098z M29.553,48.098
				c0,1.015,0.127,1.69,0.38,2.026s0.566,0.504,0.938,0.504c0.372,0,0.684-0.169,0.938-0.506c0.253-0.337,0.38-1.012,0.38-2.024
				c0-1.018-0.127-1.694-0.38-2.029c-0.254-0.334-0.569-0.501-0.947-0.501c-0.372,0-0.668,0.147-0.891,0.442
				C29.693,46.387,29.553,47.083,29.553,48.098z"/>
			<path d="M34.143,51.146v-0.865h0.922v0.865H34.143z"/>
			<path d="M36.515,48.098c0-0.731,0.08-1.319,0.241-1.765c0.16-0.445,0.399-0.789,0.715-1.031c0.316-0.242,0.714-0.362,1.194-0.362
				c0.354,0,0.664,0.066,0.931,0.2c0.267,0.133,0.487,0.326,0.661,0.578s0.311,0.558,0.409,0.919
				c0.099,0.361,0.148,0.848,0.148,1.461c0,0.725-0.079,1.311-0.238,1.756c-0.159,0.445-0.396,0.79-0.713,1.033
				s-0.716,0.365-1.199,0.365c-0.636,0-1.135-0.214-1.498-0.641C36.732,50.096,36.515,49.259,36.515,48.098z M37.347,48.098
				c0,1.015,0.127,1.69,0.38,2.026s0.566,0.504,0.938,0.504c0.372,0,0.684-0.169,0.938-0.506c0.253-0.337,0.38-1.012,0.38-2.024
				c0-1.018-0.127-1.694-0.38-2.029c-0.254-0.334-0.569-0.501-0.947-0.501c-0.372,0-0.668,0.147-0.891,0.442
				C37.487,46.387,37.347,47.083,37.347,48.098z"/>
			<path d="M44.532,51.146h-0.81V46.31c-0.195,0.174-0.451,0.349-0.767,0.523s-0.601,0.305-0.853,0.392v-0.734
				c0.453-0.2,0.849-0.441,1.188-0.726c0.339-0.284,0.579-0.559,0.72-0.826h0.521V51.146z"/>
			<path d="M49.044,51.146v-1.48h-2.861V48.97l3.009-4.006h0.661v4.006h0.891v0.696h-0.891v1.48H49.044z M49.044,48.97v-2.788
				l-2.065,2.788H49.044z"/>
		</g>
	</g>
	<g>
		<defs>
			<polygon id="SVGID_15_" points="0,0 440.079,0 440.079,285.679 0,285.679 0,0 			"/>
		</defs>
		<clipPath id="SVGID_16_">
			<use xlink:href="#SVGID_15_"  overflow="visible"/>
		</clipPath>
		<g clip-path="url(#SVGID_16_)">
			<path d="M56.576,255.107h-0.81v-4.837c-0.195,0.174-0.451,0.349-0.767,0.522c-0.316,0.175-0.601,0.306-0.853,0.393v-0.734
				c0.453-0.199,0.849-0.44,1.188-0.725c0.339-0.284,0.579-0.56,0.72-0.827h0.521V255.107z"/>
			<path d="M58.493,252.059c0-0.731,0.08-1.319,0.241-1.765c0.16-0.446,0.399-0.79,0.715-1.031c0.316-0.242,0.714-0.363,1.194-0.363
				c0.354,0,0.664,0.067,0.931,0.2c0.267,0.134,0.487,0.326,0.661,0.578s0.311,0.559,0.409,0.919
				c0.099,0.361,0.148,0.849,0.148,1.462c0,0.726-0.079,1.311-0.238,1.756c-0.159,0.446-0.396,0.79-0.713,1.033
				s-0.716,0.365-1.199,0.365c-0.636,0-1.135-0.214-1.498-0.641C58.71,254.058,58.493,253.22,58.493,252.059z M59.325,252.059
				c0,1.015,0.127,1.69,0.38,2.026s0.566,0.504,0.938,0.504c0.372,0,0.684-0.169,0.938-0.506c0.253-0.338,0.38-1.013,0.38-2.024
				c0-1.018-0.127-1.694-0.38-2.028c-0.254-0.335-0.569-0.502-0.947-0.502c-0.372,0-0.668,0.147-0.891,0.442
				C59.464,250.348,59.325,251.044,59.325,252.059z"/>
		</g>
		<g clip-path="url(#SVGID_16_)">
			<path d="M95.552,255.107h-0.81v-4.837c-0.195,0.174-0.451,0.349-0.767,0.522c-0.316,0.175-0.601,0.306-0.853,0.393v-0.734
				c0.453-0.199,0.849-0.44,1.188-0.725c0.339-0.284,0.579-0.56,0.72-0.827h0.521V255.107z"/>
			<path d="M97.474,253.476l0.81-0.102c0.093,0.431,0.251,0.74,0.474,0.93c0.224,0.19,0.496,0.285,0.817,0.285
				c0.38,0,0.702-0.124,0.965-0.371c0.262-0.247,0.394-0.554,0.394-0.92c0-0.349-0.122-0.636-0.364-0.862
				c-0.243-0.226-0.552-0.339-0.927-0.339c-0.153,0-0.344,0.027-0.571,0.084l0.09-0.666c0.054,0.006,0.098,0.008,0.13,0.008
				c0.345,0,0.655-0.084,0.931-0.253c0.276-0.168,0.414-0.429,0.414-0.78c0-0.278-0.101-0.509-0.302-0.691
				c-0.201-0.183-0.46-0.274-0.778-0.274c-0.315,0-0.578,0.093-0.787,0.278c-0.21,0.186-0.345,0.464-0.405,0.835l-0.81-0.135
				c0.099-0.509,0.324-0.903,0.675-1.183s0.787-0.42,1.309-0.42c0.36,0,0.691,0.072,0.994,0.218
				c0.303,0.145,0.535,0.342,0.695,0.592c0.161,0.251,0.241,0.517,0.241,0.798c0,0.267-0.077,0.51-0.229,0.729
				c-0.153,0.219-0.379,0.394-0.679,0.522c0.39,0.085,0.693,0.26,0.909,0.525s0.324,0.598,0.324,0.997
				c0,0.54-0.21,0.997-0.629,1.373c-0.42,0.375-0.951,0.563-1.593,0.563c-0.579,0-1.059-0.161-1.441-0.484
				S97.528,253.99,97.474,253.476z"/>
		</g>
		<g clip-path="url(#SVGID_16_)">
			<path d="M134.529,255.107h-0.81v-4.837c-0.195,0.174-0.451,0.349-0.767,0.522c-0.316,0.175-0.601,0.306-0.853,0.393v-0.734
				c0.453-0.199,0.849-0.44,1.188-0.725c0.339-0.284,0.579-0.56,0.72-0.827h0.521V255.107z"/>
			<path d="M140.647,250.439l-0.805,0.059c-0.072-0.298-0.174-0.515-0.306-0.649c-0.219-0.217-0.489-0.325-0.81-0.325
				c-0.258,0-0.484,0.068-0.679,0.203c-0.255,0.174-0.456,0.429-0.603,0.763c-0.147,0.335-0.223,0.812-0.229,1.43
				c0.195-0.278,0.434-0.484,0.715-0.62c0.282-0.135,0.577-0.202,0.886-0.202c0.54,0,1,0.187,1.379,0.559
				c0.379,0.373,0.569,0.854,0.569,1.444c0,0.389-0.089,0.749-0.268,1.082s-0.424,0.589-0.735,0.766
				c-0.312,0.177-0.666,0.266-1.062,0.266c-0.675,0-1.225-0.232-1.651-0.698c-0.426-0.465-0.639-1.231-0.639-2.3
				c0-1.195,0.235-2.064,0.707-2.606c0.411-0.473,0.964-0.709,1.66-0.709c0.519,0,0.944,0.137,1.275,0.409
				S140.581,249.958,140.647,250.439z M137.341,253.104c0,0.261,0.06,0.512,0.178,0.75c0.119,0.239,0.284,0.422,0.497,0.547
				s0.437,0.188,0.67,0.188c0.342,0,0.636-0.13,0.882-0.388c0.246-0.259,0.369-0.61,0.369-1.055c0-0.428-0.122-0.764-0.364-1.01
				c-0.243-0.246-0.549-0.369-0.918-0.369c-0.366,0-0.676,0.123-0.931,0.369S137.341,252.705,137.341,253.104z"/>
		</g>
		<g clip-path="url(#SVGID_16_)">
			<path d="M174.216,255.107h-0.81v-4.837c-0.195,0.174-0.451,0.349-0.767,0.522c-0.316,0.175-0.601,0.306-0.853,0.393v-0.734
				c0.453-0.199,0.849-0.44,1.188-0.725c0.339-0.284,0.579-0.56,0.72-0.827h0.521V255.107z"/>
			<path d="M176.255,253.678l0.778-0.067c0.066,0.343,0.192,0.592,0.377,0.746c0.186,0.155,0.424,0.232,0.715,0.232
				c0.249,0,0.467-0.054,0.655-0.16c0.187-0.107,0.341-0.25,0.461-0.429c0.12-0.178,0.22-0.419,0.301-0.723s0.122-0.613,0.122-0.928
				c0-0.034-0.001-0.085-0.004-0.152c-0.162,0.242-0.383,0.438-0.664,0.589s-0.584,0.226-0.911,0.226
				c-0.546,0-1.007-0.186-1.385-0.557s-0.567-0.86-0.567-1.468c0-0.627,0.197-1.132,0.592-1.514
				c0.394-0.383,0.888-0.574,1.482-0.574c0.429,0,0.821,0.108,1.176,0.325s0.625,0.524,0.81,0.926c0.185,0.4,0.277,0.98,0.277,1.739
				c0,0.79-0.091,1.419-0.274,1.888c-0.183,0.468-0.455,0.824-0.816,1.068c-0.361,0.245-0.785,0.367-1.271,0.367
				c-0.516,0-0.937-0.134-1.264-0.402C176.517,254.542,176.321,254.164,176.255,253.678z M179.57,250.949
				c0-0.436-0.124-0.781-0.371-1.037c-0.247-0.256-0.545-0.384-0.893-0.384c-0.36,0-0.673,0.138-0.94,0.413
				c-0.267,0.275-0.4,0.633-0.4,1.071c0,0.394,0.127,0.713,0.38,0.959s0.566,0.369,0.938,0.369c0.375,0,0.683-0.123,0.924-0.369
				C179.449,251.726,179.57,251.385,179.57,250.949z"/>
		</g>
		<g clip-path="url(#SVGID_16_)">
			<path d="M214.398,254.378v0.729h-4.359c-0.006-0.183,0.025-0.358,0.095-0.527c0.111-0.278,0.289-0.553,0.533-0.822
				c0.245-0.27,0.598-0.582,1.06-0.937c0.717-0.551,1.201-0.987,1.453-1.309c0.251-0.322,0.377-0.627,0.377-0.913
				c0-0.301-0.114-0.555-0.344-0.762c-0.229-0.206-0.529-0.31-0.897-0.31c-0.39,0-0.702,0.109-0.936,0.329
				c-0.234,0.219-0.353,0.522-0.355,0.91l-0.833-0.08c0.057-0.582,0.271-1.025,0.644-1.33c0.372-0.305,0.871-0.458,1.498-0.458
				c0.632,0,1.133,0.165,1.502,0.494c0.369,0.328,0.553,0.736,0.553,1.223c0,0.247-0.054,0.49-0.162,0.729s-0.287,0.49-0.538,0.755
				s-0.667,0.627-1.248,1.088c-0.486,0.383-0.798,0.642-0.936,0.778c-0.138,0.137-0.251,0.273-0.342,0.411H214.398z"/>
			<path d="M219.365,254.378v0.729h-4.359c-0.006-0.183,0.025-0.358,0.095-0.527c0.111-0.278,0.289-0.553,0.533-0.822
				c0.245-0.27,0.598-0.582,1.06-0.937c0.717-0.551,1.201-0.987,1.453-1.309c0.251-0.322,0.377-0.627,0.377-0.913
				c0-0.301-0.114-0.555-0.344-0.762c-0.229-0.206-0.529-0.31-0.897-0.31c-0.39,0-0.702,0.109-0.936,0.329
				c-0.234,0.219-0.353,0.522-0.355,0.91l-0.833-0.08c0.057-0.582,0.271-1.025,0.644-1.33c0.372-0.305,0.871-0.458,1.498-0.458
				c0.632,0,1.133,0.165,1.502,0.494c0.369,0.328,0.553,0.736,0.553,1.223c0,0.247-0.054,0.49-0.162,0.729s-0.287,0.49-0.538,0.755
				s-0.667,0.627-1.248,1.088c-0.486,0.383-0.798,0.642-0.936,0.778c-0.138,0.137-0.251,0.273-0.342,0.411H219.365z"/>
		</g>
		<g clip-path="url(#SVGID_16_)">
			<path d="M253.375,254.378v0.729h-4.358c-0.007-0.183,0.025-0.358,0.094-0.527c0.111-0.278,0.289-0.553,0.533-0.822
				s0.598-0.582,1.06-0.937c0.717-0.551,1.201-0.987,1.453-1.309c0.252-0.322,0.378-0.627,0.378-0.913
				c0-0.301-0.115-0.555-0.345-0.762c-0.229-0.206-0.528-0.31-0.897-0.31c-0.39,0-0.701,0.109-0.936,0.329
				c-0.233,0.219-0.353,0.522-0.355,0.91l-0.832-0.08c0.058-0.582,0.271-1.025,0.644-1.33s0.871-0.458,1.498-0.458
				c0.633,0,1.134,0.165,1.502,0.494c0.369,0.328,0.554,0.736,0.554,1.223c0,0.247-0.054,0.49-0.162,0.729
				c-0.107,0.239-0.287,0.49-0.537,0.755c-0.251,0.265-0.667,0.627-1.249,1.088c-0.485,0.383-0.798,0.642-0.936,0.778
				s-0.252,0.273-0.342,0.411H253.375z"/>
			<path d="M254.087,253.488l0.85-0.067c0.063,0.388,0.209,0.68,0.438,0.875s0.506,0.293,0.83,0.293c0.39,0,0.72-0.138,0.989-0.413
				c0.271-0.275,0.405-0.642,0.405-1.097c0-0.433-0.13-0.774-0.389-1.025c-0.26-0.25-0.6-0.375-1.02-0.375
				c-0.261,0-0.496,0.056-0.706,0.167c-0.21,0.11-0.375,0.255-0.495,0.432l-0.76-0.093l0.639-3.175h3.279v0.725h-2.632l-0.355,1.662
				c0.396-0.259,0.812-0.388,1.246-0.388c0.576,0,1.062,0.187,1.458,0.561c0.396,0.374,0.594,0.854,0.594,1.442
				c0,0.56-0.174,1.043-0.521,1.45c-0.423,0.501-1.001,0.751-1.732,0.751c-0.6,0-1.089-0.157-1.469-0.473
				C254.357,254.426,254.141,254.008,254.087,253.488z"/>
		</g>
		<g clip-path="url(#SVGID_16_)">
			<path d="M292.352,254.378v0.729h-4.358c-0.007-0.183,0.025-0.358,0.094-0.527c0.111-0.278,0.289-0.553,0.533-0.822
				s0.598-0.582,1.06-0.937c0.717-0.551,1.201-0.987,1.453-1.309c0.252-0.322,0.378-0.627,0.378-0.913
				c0-0.301-0.115-0.555-0.345-0.762c-0.229-0.206-0.528-0.31-0.897-0.31c-0.39,0-0.701,0.109-0.936,0.329
				c-0.233,0.219-0.353,0.522-0.355,0.91l-0.832-0.08c0.058-0.582,0.271-1.025,0.644-1.33s0.871-0.458,1.498-0.458
				c0.633,0,1.134,0.165,1.502,0.494c0.369,0.328,0.554,0.736,0.554,1.223c0,0.247-0.054,0.49-0.162,0.729
				c-0.107,0.239-0.287,0.49-0.537,0.755c-0.251,0.265-0.667,0.627-1.249,1.088c-0.485,0.383-0.798,0.642-0.936,0.778
				s-0.252,0.273-0.342,0.411H292.352z"/>
			<path d="M294.309,251.755c-0.335-0.115-0.584-0.28-0.746-0.493c-0.162-0.214-0.243-0.47-0.243-0.768
				c0-0.45,0.173-0.828,0.518-1.135s0.804-0.46,1.376-0.46c0.576,0,1.039,0.157,1.391,0.471c0.351,0.313,0.526,0.695,0.526,1.145
				c0,0.287-0.081,0.536-0.241,0.749c-0.16,0.212-0.404,0.376-0.73,0.491c0.404,0.124,0.713,0.323,0.924,0.599
				c0.212,0.275,0.317,0.604,0.317,0.987c0,0.528-0.199,0.973-0.599,1.332c-0.398,0.36-0.924,0.54-1.574,0.54
				s-1.176-0.181-1.574-0.542s-0.599-0.812-0.599-1.352c0-0.402,0.109-0.738,0.326-1.01
				C293.598,252.038,293.907,251.854,294.309,251.755z M293.886,253.323c0,0.217,0.055,0.426,0.165,0.629
				c0.109,0.202,0.271,0.359,0.487,0.47c0.217,0.111,0.448,0.167,0.697,0.167c0.388,0,0.707-0.117,0.959-0.351
				c0.251-0.233,0.377-0.529,0.377-0.89c0-0.365-0.129-0.667-0.389-0.906s-0.584-0.358-0.974-0.358
				c-0.381,0-0.697,0.118-0.947,0.354C294.012,252.674,293.886,252.97,293.886,253.323z M294.147,250.469
				c0,0.292,0.101,0.531,0.301,0.717c0.201,0.186,0.462,0.278,0.783,0.278c0.312,0,0.567-0.092,0.767-0.276
				c0.199-0.184,0.299-0.41,0.299-0.677c0-0.278-0.103-0.513-0.308-0.702s-0.461-0.285-0.767-0.285c-0.31,0-0.565,0.093-0.77,0.278
				S294.147,250.21,294.147,250.469z"/>
		</g>
		<g clip-path="url(#SVGID_16_)">
			<path d="M327.077,253.476l0.81-0.102c0.093,0.431,0.251,0.74,0.475,0.93c0.224,0.19,0.496,0.285,0.816,0.285
				c0.381,0,0.703-0.124,0.965-0.371c0.263-0.247,0.394-0.554,0.394-0.92c0-0.349-0.121-0.636-0.364-0.862
				c-0.242-0.226-0.552-0.339-0.927-0.339c-0.152,0-0.343,0.027-0.571,0.084l0.091-0.666c0.054,0.006,0.097,0.008,0.13,0.008
				c0.345,0,0.655-0.084,0.932-0.253c0.275-0.168,0.413-0.429,0.413-0.78c0-0.278-0.101-0.509-0.301-0.691
				c-0.201-0.183-0.461-0.274-0.778-0.274c-0.315,0-0.577,0.093-0.787,0.278s-0.345,0.464-0.405,0.835l-0.81-0.135
				c0.099-0.509,0.324-0.903,0.675-1.183s0.787-0.42,1.309-0.42c0.36,0,0.691,0.072,0.994,0.218
				c0.304,0.145,0.535,0.342,0.695,0.592c0.16,0.251,0.241,0.517,0.241,0.798c0,0.267-0.077,0.51-0.229,0.729
				c-0.153,0.219-0.38,0.394-0.68,0.522c0.39,0.085,0.692,0.26,0.909,0.525c0.216,0.266,0.323,0.598,0.323,0.997
				c0,0.54-0.21,0.997-0.63,1.373c-0.42,0.375-0.95,0.563-1.592,0.563c-0.579,0-1.06-0.161-1.442-0.484
				C327.35,254.409,327.131,253.99,327.077,253.476z"/>
			<path d="M335.09,255.107h-0.811v-4.837c-0.194,0.174-0.45,0.349-0.767,0.522c-0.316,0.175-0.601,0.306-0.853,0.393v-0.734
				c0.453-0.199,0.849-0.44,1.188-0.725s0.579-0.56,0.72-0.827h0.522V255.107z"/>
		</g>
		<g clip-path="url(#SVGID_16_)">
			<path d="M366.054,253.476l0.81-0.102c0.093,0.431,0.251,0.74,0.475,0.93c0.224,0.19,0.496,0.285,0.816,0.285
				c0.381,0,0.703-0.124,0.965-0.371c0.263-0.247,0.394-0.554,0.394-0.92c0-0.349-0.121-0.636-0.364-0.862
				c-0.242-0.226-0.552-0.339-0.927-0.339c-0.152,0-0.343,0.027-0.571,0.084l0.091-0.666c0.054,0.006,0.097,0.008,0.13,0.008
				c0.345,0,0.655-0.084,0.932-0.253c0.275-0.168,0.413-0.429,0.413-0.78c0-0.278-0.101-0.509-0.301-0.691
				c-0.201-0.183-0.461-0.274-0.778-0.274c-0.315,0-0.577,0.093-0.787,0.278s-0.345,0.464-0.405,0.835l-0.81-0.135
				c0.099-0.509,0.324-0.903,0.675-1.183s0.787-0.42,1.309-0.42c0.36,0,0.691,0.072,0.994,0.218
				c0.304,0.145,0.535,0.342,0.695,0.592c0.16,0.251,0.241,0.517,0.241,0.798c0,0.267-0.077,0.51-0.229,0.729
				c-0.153,0.219-0.38,0.394-0.68,0.522c0.39,0.085,0.692,0.26,0.909,0.525c0.216,0.266,0.323,0.598,0.323,0.997
				c0,0.54-0.21,0.997-0.63,1.373c-0.42,0.375-0.95,0.563-1.592,0.563c-0.579,0-1.06-0.161-1.442-0.484
				C366.326,254.409,366.107,253.99,366.054,253.476z"/>
			<path d="M373.611,255.107v-1.48h-2.86v-0.695l3.009-4.007h0.662v4.007h0.891v0.695h-0.891v1.48H373.611z M373.611,252.932v-2.788
				l-2.064,2.788H373.611z"/>
		</g>
		<g clip-path="url(#SVGID_16_)">
			<path d="M405.741,253.476l0.81-0.102c0.093,0.431,0.251,0.74,0.475,0.93c0.224,0.19,0.496,0.285,0.816,0.285
				c0.381,0,0.703-0.124,0.965-0.371c0.263-0.247,0.394-0.554,0.394-0.92c0-0.349-0.121-0.636-0.364-0.862
				c-0.242-0.226-0.552-0.339-0.927-0.339c-0.152,0-0.343,0.027-0.571,0.084l0.091-0.666c0.054,0.006,0.097,0.008,0.13,0.008
				c0.345,0,0.655-0.084,0.932-0.253c0.275-0.168,0.413-0.429,0.413-0.78c0-0.278-0.101-0.509-0.301-0.691
				c-0.201-0.183-0.461-0.274-0.778-0.274c-0.315,0-0.577,0.093-0.787,0.278s-0.345,0.464-0.405,0.835l-0.81-0.135
				c0.099-0.509,0.324-0.903,0.675-1.183s0.787-0.42,1.309-0.42c0.36,0,0.691,0.072,0.994,0.218
				c0.304,0.145,0.535,0.342,0.695,0.592c0.16,0.251,0.241,0.517,0.241,0.798c0,0.267-0.077,0.51-0.229,0.729
				c-0.153,0.219-0.38,0.394-0.68,0.522c0.39,0.085,0.692,0.26,0.909,0.525c0.216,0.266,0.323,0.598,0.323,0.997
				c0,0.54-0.21,0.997-0.63,1.373c-0.42,0.375-0.95,0.563-1.592,0.563c-0.579,0-1.06-0.161-1.442-0.484
				C406.014,254.409,405.795,253.99,405.741,253.476z"/>
			<path d="M410.758,249.734v-0.729h4.269v0.591c-0.42,0.419-0.836,0.976-1.248,1.67s-0.731,1.408-0.956,2.143
				c-0.162,0.517-0.266,1.084-0.311,1.699h-0.832c0.009-0.486,0.111-1.074,0.306-1.763c0.195-0.688,0.475-1.354,0.839-1.993
				c0.365-0.639,0.752-1.179,1.163-1.617H410.758z"/>
		</g>
	</g>
	<g>
		<defs>
			<polygon id="SVGID_17_" points="179.291,259.769 301.89,259.769 301.89,275.049 179.291,275.049 179.291,259.769 			"/>
		</defs>
		<clipPath id="SVGID_18_">
			<use xlink:href="#SVGID_17_"  overflow="visible"/>
		</clipPath>
		<g clip-path="url(#SVGID_18_)">
			<path d="M181.106,267.335c0-0.629,0.101-1.158,0.301-1.585c0.15-0.315,0.354-0.598,0.614-0.848
				c0.259-0.25,0.543-0.436,0.852-0.557c0.411-0.163,0.885-0.245,1.422-0.245c0.972,0,1.749,0.283,2.332,0.848
				c0.583,0.565,0.875,1.352,0.875,2.357c0,0.998-0.29,1.779-0.868,2.343s-1.353,0.846-2.321,0.846c-0.981,0-1.761-0.28-2.339-0.842
				C181.396,269.092,181.106,268.319,181.106,267.335z M182.479,267.293c0,0.7,0.172,1.231,0.517,1.592
				c0.345,0.361,0.783,0.542,1.313,0.542s0.966-0.179,1.307-0.537c0.34-0.358,0.51-0.896,0.51-1.613
				c0-0.708-0.166-1.237-0.497-1.586s-0.771-0.522-1.32-0.522s-0.991,0.177-1.327,0.529
				C182.646,266.05,182.479,266.582,182.479,267.293z"/>
			<path d="M188.424,265.91h1.178v0.658c0.153-0.226,0.36-0.408,0.621-0.549c0.261-0.141,0.55-0.211,0.868-0.211
				c0.555,0,1.025,0.204,1.412,0.611c0.387,0.408,0.581,0.976,0.581,1.704c0,0.748-0.195,1.329-0.585,1.744
				c-0.39,0.414-0.862,0.622-1.417,0.622c-0.264,0-0.503-0.05-0.717-0.148c-0.214-0.098-0.44-0.267-0.677-0.506v2.257h-1.264V265.91
				z M189.674,268.073c0,0.504,0.106,0.875,0.319,1.115c0.213,0.241,0.472,0.361,0.778,0.361c0.293,0,0.538-0.11,0.733-0.331
				s0.292-0.583,0.292-1.086c0-0.47-0.101-0.818-0.301-1.046c-0.201-0.229-0.45-0.342-0.747-0.342c-0.309,0-0.565,0.111-0.769,0.335
				S189.674,267.635,189.674,268.073z"/>
			<path d="M196.89,268.963l1.26,0.198c-0.162,0.434-0.418,0.763-0.767,0.989c-0.35,0.227-0.787,0.34-1.312,0.34
				c-0.831,0-1.445-0.255-1.844-0.764c-0.315-0.407-0.472-0.922-0.472-1.544c0-0.742,0.207-1.323,0.621-1.743
				c0.414-0.421,0.937-0.631,1.57-0.631c0.711,0,1.271,0.221,1.683,0.66c0.411,0.44,0.607,1.114,0.589,2.022h-3.167
				c0.009,0.352,0.111,0.625,0.306,0.82c0.195,0.195,0.438,0.293,0.729,0.293c0.198,0,0.364-0.051,0.5-0.152
				C196.719,269.352,196.821,269.188,196.89,268.963z M196.962,267.766c-0.009-0.343-0.103-0.604-0.283-0.782
				c-0.18-0.179-0.399-0.268-0.657-0.268c-0.276,0-0.504,0.094-0.684,0.282c-0.18,0.188-0.269,0.444-0.266,0.768H196.962z"/>
			<path d="M201,270.389h-1.264v-4.479h1.174v0.637c0.201-0.301,0.382-0.499,0.542-0.595c0.161-0.096,0.343-0.144,0.547-0.144
				c0.288,0,0.565,0.075,0.832,0.224l-0.392,1.033c-0.213-0.129-0.411-0.194-0.594-0.194c-0.177,0-0.327,0.046-0.45,0.138
				c-0.123,0.091-0.22,0.257-0.29,0.495c-0.07,0.239-0.106,0.739-0.106,1.502V270.389z"/>
			<path d="M204.284,267.276l-1.147-0.194c0.129-0.433,0.351-0.753,0.666-0.961s0.783-0.313,1.403-0.313
				c0.564,0,0.984,0.063,1.26,0.188c0.276,0.126,0.47,0.284,0.583,0.477c0.112,0.193,0.169,0.547,0.169,1.061l-0.014,1.384
				c0,0.394,0.02,0.684,0.061,0.871c0.041,0.187,0.116,0.387,0.227,0.601h-1.25c-0.033-0.079-0.073-0.195-0.121-0.35
				c-0.021-0.07-0.036-0.117-0.045-0.14c-0.216,0.197-0.447,0.345-0.693,0.442c-0.246,0.099-0.508,0.148-0.787,0.148
				c-0.492,0-0.879-0.125-1.163-0.376c-0.283-0.25-0.425-0.566-0.425-0.948c0-0.253,0.064-0.479,0.193-0.677s0.31-0.351,0.542-0.456
				s0.567-0.197,1.005-0.276c0.591-0.104,1-0.2,1.228-0.291v-0.118c0-0.228-0.06-0.39-0.18-0.486
				c-0.12-0.098-0.346-0.146-0.679-0.146c-0.225,0-0.4,0.041-0.526,0.124S204.362,267.068,204.284,267.276z M205.975,268.238
				c-0.162,0.05-0.418,0.11-0.77,0.181c-0.351,0.07-0.58,0.14-0.688,0.207c-0.165,0.109-0.248,0.249-0.248,0.417
				c0,0.166,0.066,0.31,0.198,0.431c0.132,0.121,0.3,0.182,0.503,0.182c0.228,0,0.445-0.07,0.652-0.211
				c0.153-0.107,0.253-0.238,0.301-0.393c0.033-0.102,0.05-0.294,0.05-0.578V268.238z"/>
			<path d="M211.197,265.91v0.944h-0.864v1.805c0,0.366,0.008,0.579,0.025,0.64c0.016,0.061,0.054,0.11,0.112,0.149
				s0.13,0.059,0.214,0.059c0.117,0,0.286-0.037,0.508-0.113l0.108,0.919c-0.294,0.118-0.627,0.178-0.999,0.178
				c-0.228,0-0.433-0.036-0.616-0.107c-0.183-0.072-0.317-0.165-0.402-0.278c-0.085-0.114-0.145-0.269-0.178-0.462
				c-0.027-0.138-0.041-0.416-0.041-0.835v-1.953h-0.58v-0.944h0.58v-0.89l1.269-0.692v1.582H211.197z"/>
			<path d="M211.844,265.303v-1.097h1.264v1.097H211.844z M211.844,270.389v-4.479h1.264v4.479H211.844z"/>
			<path d="M215.984,270.389l-1.925-4.479h1.327l0.9,2.285l0.261,0.764c0.069-0.194,0.112-0.322,0.13-0.384
				c0.042-0.126,0.087-0.253,0.135-0.38l0.909-2.285h1.3l-1.898,4.479H215.984z"/>
			<path d="M222.403,268.963l1.26,0.198c-0.162,0.434-0.418,0.763-0.768,0.989c-0.348,0.227-0.785,0.34-1.311,0.34
				c-0.83,0-1.445-0.255-1.844-0.764c-0.315-0.407-0.472-0.922-0.472-1.544c0-0.742,0.207-1.323,0.621-1.743
				c0.414-0.421,0.937-0.631,1.571-0.631c0.709,0,1.271,0.221,1.682,0.66c0.41,0.44,0.607,1.114,0.59,2.022h-3.168
				c0.01,0.352,0.111,0.625,0.307,0.82s0.438,0.293,0.729,0.293c0.197,0,0.365-0.051,0.5-0.152
				C222.233,269.352,222.335,269.188,222.403,268.963z M222.476,267.766c-0.01-0.343-0.104-0.604-0.283-0.782
				s-0.398-0.268-0.656-0.268c-0.277,0-0.504,0.094-0.684,0.282c-0.181,0.188-0.27,0.444-0.266,0.768H222.476z"/>
			<path d="M229.624,270.389v-5.137h-1.956v-1.046h5.24v1.046h-1.952v5.137H229.624z"/>
			<path d="M236.563,268.963l1.26,0.198c-0.162,0.434-0.418,0.763-0.768,0.989c-0.349,0.227-0.786,0.34-1.311,0.34
				c-0.831,0-1.446-0.255-1.845-0.764c-0.314-0.407-0.473-0.922-0.473-1.544c0-0.742,0.207-1.323,0.621-1.743
				c0.414-0.421,0.938-0.631,1.57-0.631c0.71,0,1.271,0.221,1.682,0.66c0.411,0.44,0.607,1.114,0.59,2.022h-3.167
				c0.009,0.352,0.111,0.625,0.306,0.82c0.195,0.195,0.438,0.293,0.729,0.293c0.198,0,0.365-0.051,0.5-0.152
				C236.392,269.352,236.493,269.188,236.563,268.963z M236.635,267.766c-0.01-0.343-0.104-0.604-0.283-0.782
				c-0.181-0.179-0.399-0.268-0.657-0.268c-0.276,0-0.504,0.094-0.684,0.282s-0.269,0.444-0.266,0.768H236.635z"/>
			<path d="M239.368,265.91h1.165v0.611c0.417-0.475,0.914-0.713,1.489-0.713c0.306,0,0.571,0.06,0.796,0.178
				c0.226,0.118,0.41,0.296,0.554,0.535c0.21-0.239,0.437-0.417,0.68-0.535c0.242-0.118,0.502-0.178,0.777-0.178
				c0.352,0,0.648,0.067,0.891,0.2c0.243,0.134,0.425,0.33,0.545,0.589c0.087,0.191,0.13,0.5,0.13,0.928v2.863h-1.264v-2.56
				c0-0.444-0.043-0.731-0.131-0.86c-0.116-0.169-0.297-0.253-0.539-0.253c-0.178,0-0.344,0.05-0.5,0.151
				c-0.155,0.102-0.268,0.25-0.337,0.445s-0.104,0.504-0.104,0.926v2.15h-1.264v-2.454c0-0.437-0.022-0.717-0.067-0.844
				c-0.046-0.127-0.115-0.221-0.21-0.282c-0.094-0.063-0.223-0.093-0.384-0.093c-0.195,0-0.371,0.049-0.526,0.147
				c-0.156,0.099-0.268,0.24-0.336,0.426c-0.067,0.186-0.101,0.493-0.101,0.924v2.176h-1.265V265.91z"/>
			<path d="M247.922,265.91h1.179v0.658c0.153-0.226,0.36-0.408,0.621-0.549s0.55-0.211,0.868-0.211
				c0.555,0,1.025,0.204,1.412,0.611c0.387,0.408,0.58,0.976,0.58,1.704c0,0.748-0.194,1.329-0.584,1.744
				c-0.391,0.414-0.862,0.622-1.417,0.622c-0.265,0-0.504-0.05-0.718-0.148c-0.215-0.098-0.44-0.267-0.677-0.506v2.257h-1.265
				V265.91z M249.173,268.073c0,0.504,0.106,0.875,0.319,1.115c0.213,0.241,0.473,0.361,0.778,0.361c0.294,0,0.538-0.11,0.733-0.331
				c0.194-0.221,0.292-0.583,0.292-1.086c0-0.47-0.101-0.818-0.302-1.046c-0.2-0.229-0.449-0.342-0.746-0.342
				c-0.31,0-0.565,0.111-0.77,0.335S249.173,267.635,249.173,268.073z"/>
			<path d="M256.389,268.963l1.26,0.198c-0.162,0.434-0.418,0.763-0.768,0.989c-0.349,0.227-0.786,0.34-1.311,0.34
				c-0.831,0-1.446-0.255-1.845-0.764c-0.314-0.407-0.473-0.922-0.473-1.544c0-0.742,0.207-1.323,0.621-1.743
				c0.414-0.421,0.938-0.631,1.57-0.631c0.71,0,1.271,0.221,1.682,0.66c0.411,0.44,0.607,1.114,0.59,2.022h-3.167
				c0.009,0.352,0.111,0.625,0.306,0.82c0.195,0.195,0.438,0.293,0.729,0.293c0.198,0,0.365-0.051,0.5-0.152
				C256.218,269.352,256.319,269.188,256.389,268.963z M256.461,267.766c-0.01-0.343-0.104-0.604-0.283-0.782
				c-0.181-0.179-0.399-0.268-0.657-0.268c-0.276,0-0.504,0.094-0.684,0.282s-0.269,0.444-0.266,0.768H256.461z"/>
			<path d="M260.5,270.389h-1.264v-4.479h1.174v0.637c0.201-0.301,0.382-0.499,0.542-0.595s0.343-0.144,0.547-0.144
				c0.288,0,0.565,0.075,0.832,0.224l-0.392,1.033c-0.213-0.129-0.411-0.194-0.594-0.194c-0.177,0-0.327,0.046-0.449,0.138
				c-0.123,0.091-0.22,0.257-0.291,0.495c-0.07,0.239-0.105,0.739-0.105,1.502V270.389z"/>
			<path d="M263.782,267.276l-1.146-0.194c0.129-0.433,0.351-0.753,0.666-0.961c0.314-0.208,0.782-0.313,1.403-0.313
				c0.563,0,0.983,0.063,1.26,0.188c0.275,0.126,0.47,0.284,0.582,0.477c0.112,0.193,0.169,0.547,0.169,1.061l-0.014,1.384
				c0,0.394,0.021,0.684,0.061,0.871c0.041,0.187,0.116,0.387,0.228,0.601h-1.251c-0.033-0.079-0.073-0.195-0.121-0.35
				c-0.021-0.07-0.036-0.117-0.045-0.14c-0.216,0.197-0.447,0.345-0.693,0.442c-0.245,0.099-0.508,0.148-0.787,0.148
				c-0.491,0-0.879-0.125-1.162-0.376c-0.284-0.25-0.426-0.566-0.426-0.948c0-0.253,0.064-0.479,0.193-0.677s0.31-0.351,0.542-0.456
				s0.568-0.197,1.006-0.276c0.591-0.104,1-0.2,1.228-0.291v-0.118c0-0.228-0.06-0.39-0.18-0.486
				c-0.12-0.098-0.347-0.146-0.679-0.146c-0.226,0-0.4,0.041-0.526,0.124S263.86,267.068,263.782,267.276z M265.474,268.238
				c-0.161,0.05-0.418,0.11-0.769,0.181c-0.352,0.07-0.58,0.14-0.688,0.207c-0.165,0.109-0.247,0.249-0.247,0.417
				c0,0.166,0.065,0.31,0.197,0.431s0.3,0.182,0.504,0.182c0.229,0,0.445-0.07,0.652-0.211c0.153-0.107,0.254-0.238,0.302-0.393
				c0.033-0.102,0.049-0.294,0.049-0.578V268.238z"/>
			<path d="M270.695,265.91v0.944h-0.863v1.805c0,0.366,0.008,0.579,0.024,0.64s0.055,0.11,0.112,0.149
				c0.059,0.039,0.13,0.059,0.214,0.059c0.117,0,0.286-0.037,0.509-0.113l0.107,0.919c-0.294,0.118-0.627,0.178-0.998,0.178
				c-0.229,0-0.434-0.036-0.616-0.107c-0.184-0.072-0.317-0.165-0.403-0.278c-0.085-0.114-0.145-0.269-0.178-0.462
				c-0.026-0.138-0.04-0.416-0.04-0.835v-1.953h-0.58v-0.944h0.58v-0.89l1.269-0.692v1.582H270.695z"/>
			<path d="M274.487,270.389v-0.671c-0.174,0.239-0.402,0.428-0.687,0.565c-0.283,0.138-0.582,0.207-0.896,0.207
				c-0.321,0-0.609-0.066-0.864-0.198c-0.255-0.133-0.439-0.318-0.553-0.557c-0.114-0.239-0.172-0.569-0.172-0.991v-2.834h1.265
				v2.058c0,0.63,0.023,1.016,0.069,1.158c0.047,0.142,0.132,0.254,0.255,0.337c0.122,0.083,0.278,0.125,0.468,0.125
				c0.216,0,0.409-0.056,0.58-0.167s0.288-0.249,0.351-0.413c0.063-0.165,0.095-0.567,0.095-1.209v-1.889h1.264v4.479H274.487z"/>
			<path d="M278.217,270.389h-1.264v-4.479h1.174v0.637c0.201-0.301,0.382-0.499,0.542-0.595s0.343-0.144,0.547-0.144
				c0.288,0,0.565,0.075,0.832,0.224l-0.392,1.033c-0.213-0.129-0.411-0.194-0.594-0.194c-0.177,0-0.327,0.046-0.449,0.138
				c-0.123,0.091-0.22,0.257-0.291,0.495c-0.07,0.239-0.105,0.739-0.105,1.502V270.389z"/>
			<path d="M283.321,268.963l1.26,0.198c-0.162,0.434-0.418,0.763-0.768,0.989c-0.349,0.227-0.786,0.34-1.311,0.34
				c-0.831,0-1.446-0.255-1.845-0.764c-0.314-0.407-0.473-0.922-0.473-1.544c0-0.742,0.207-1.323,0.621-1.743
				c0.414-0.421,0.938-0.631,1.57-0.631c0.71,0,1.271,0.221,1.682,0.66c0.411,0.44,0.607,1.114,0.59,2.022h-3.167
				c0.009,0.352,0.111,0.625,0.306,0.82c0.195,0.195,0.438,0.293,0.729,0.293c0.198,0,0.365-0.051,0.5-0.152
				C283.15,269.352,283.252,269.188,283.321,268.963z M283.394,267.766c-0.01-0.343-0.104-0.604-0.283-0.782
				c-0.181-0.179-0.399-0.268-0.657-0.268c-0.276,0-0.504,0.094-0.684,0.282s-0.269,0.444-0.266,0.768H283.394z"/>
			<path d="M291.146,272.206h-0.868c-0.459-0.649-0.809-1.324-1.049-2.024c-0.239-0.699-0.359-1.377-0.359-2.032
				c0-0.813,0.148-1.581,0.445-2.307c0.258-0.63,0.585-1.211,0.98-1.742h0.863c-0.41,0.853-0.693,1.577-0.848,2.174
				c-0.154,0.598-0.231,1.231-0.231,1.9c0,0.461,0.046,0.934,0.137,1.417c0.092,0.483,0.217,0.943,0.376,1.379
				C290.697,271.258,290.881,271.669,291.146,272.206z"/>
			<path d="M296.115,268.115l1.291,0.384c-0.198,0.675-0.527,1.177-0.987,1.504s-1.044,0.491-1.752,0.491
				c-0.876,0-1.596-0.28-2.159-0.842c-0.564-0.561-0.846-1.327-0.846-2.3c0-1.029,0.283-1.828,0.85-2.397
				c0.567-0.569,1.313-0.854,2.236-0.854c0.807,0,1.462,0.224,1.966,0.671c0.3,0.265,0.524,0.644,0.675,1.139l-1.318,0.295
				c-0.078-0.32-0.24-0.573-0.488-0.759c-0.247-0.186-0.548-0.278-0.901-0.278c-0.489,0-0.886,0.164-1.19,0.493
				c-0.304,0.329-0.456,0.862-0.456,1.599c0,0.781,0.149,1.338,0.449,1.67s0.69,0.497,1.17,0.497c0.354,0,0.658-0.105,0.913-0.315
				C295.821,268.9,296.004,268.568,296.115,268.115z"/>
			<path d="M297.922,272.206c0.249-0.5,0.424-0.884,0.526-1.151c0.102-0.267,0.196-0.574,0.283-0.923s0.151-0.68,0.193-0.993
				s0.063-0.635,0.063-0.964c0-0.669-0.077-1.303-0.229-1.9c-0.153-0.597-0.436-1.321-0.846-2.174h0.858
				c0.453,0.604,0.805,1.246,1.056,1.923c0.25,0.678,0.375,1.365,0.375,2.063c0,0.588-0.099,1.218-0.297,1.89
				c-0.225,0.753-0.595,1.497-1.111,2.23H297.922z"/>
		</g>
	</g>
	<g>
		<defs>
			<polygon id="SVGID_19_" points="11.338,109.621 26.929,109.621 26.929,177.387 11.338,177.387 11.338,109.621 			"/>
		</defs>
		<clipPath id="SVGID_20_">
			<use xlink:href="#SVGID_19_"  overflow="visible"/>
		</clipPath>
		<g clip-path="url(#SVGID_20_)">
			<path d="M21.964,175.42h-6.595v-1.248h2.596v-2.446h-2.596v-1.248h6.595v1.248h-2.883v2.446h2.883V175.42z"/>
			<path d="M21.964,166.499h-0.715c0.255,0.163,0.456,0.377,0.603,0.643s0.22,0.546,0.22,0.842c0,0.301-0.07,0.57-0.211,0.81
				s-0.339,0.412-0.594,0.519s-0.607,0.16-1.057,0.16h-3.023v-1.185h2.195c0.672,0,1.083-0.022,1.235-0.065
				c0.151-0.044,0.271-0.123,0.36-0.238s0.133-0.262,0.133-0.438c0-0.203-0.06-0.384-0.178-0.544
				c-0.119-0.161-0.266-0.271-0.441-0.329c-0.175-0.06-0.605-0.089-1.289-0.089h-2.015v-1.185h4.777V166.499z"/>
			<path d="M17.187,164.225v-1.093h0.652c-0.507-0.391-0.76-0.855-0.76-1.396c0-0.287,0.063-0.535,0.189-0.746
				s0.316-0.384,0.571-0.519c-0.255-0.197-0.445-0.409-0.571-0.638c-0.126-0.228-0.189-0.471-0.189-0.729
				c0-0.328,0.071-0.607,0.214-0.835c0.142-0.228,0.352-0.397,0.627-0.51c0.204-0.082,0.534-0.122,0.99-0.122h3.054v1.185h-2.73
				c-0.474,0-0.78,0.041-0.917,0.122c-0.18,0.11-0.27,0.278-0.27,0.506c0,0.166,0.054,0.322,0.162,0.469
				c0.108,0.146,0.267,0.251,0.475,0.316c0.208,0.064,0.538,0.097,0.988,0.097h2.294v1.185h-2.618c-0.465,0-0.765,0.021-0.899,0.063
				c-0.135,0.042-0.235,0.107-0.301,0.196c-0.066,0.089-0.099,0.209-0.099,0.36c0,0.183,0.052,0.348,0.157,0.494
				c0.105,0.146,0.256,0.25,0.455,0.313c0.198,0.063,0.526,0.095,0.985,0.095h2.321v1.186H17.187z"/>
			<path d="M16.539,156.171h-1.17v-1.185h1.17V156.171z M21.964,156.171h-4.777v-1.185h4.777V156.171z"/>
			<path d="M21.964,149.414v1.101h-0.702c0.273,0.183,0.476,0.398,0.609,0.647s0.2,0.5,0.2,0.753c0,0.515-0.221,0.955-0.664,1.322
				c-0.442,0.366-1.059,0.55-1.851,0.55c-0.81,0-1.425-0.179-1.847-0.535c-0.421-0.357-0.632-0.809-0.632-1.354
				c0-0.501,0.222-0.934,0.666-1.299h-2.375v-1.186H21.964z M19.472,152.577c0.51,0,0.879-0.066,1.107-0.198
				c0.33-0.191,0.495-0.458,0.495-0.802c0-0.272-0.124-0.504-0.371-0.695s-0.617-0.287-1.109-0.287
				c-0.549,0-0.944,0.093-1.186,0.278c-0.241,0.186-0.362,0.424-0.362,0.713c0,0.281,0.119,0.517,0.357,0.706
				C18.642,152.482,18.998,152.577,19.472,152.577z"/>
			<path d="M16.539,148.211h-1.17v-1.185h1.17V148.211z M21.964,148.211h-4.777v-1.185h4.777V148.211z"/>
			<path d="M17.187,143.507h1.008v0.81h1.925c0.39,0,0.617-0.008,0.682-0.022c0.064-0.016,0.118-0.051,0.16-0.105
				c0.042-0.056,0.063-0.122,0.063-0.201c0-0.109-0.041-0.268-0.122-0.477l0.98-0.101c0.126,0.275,0.189,0.588,0.189,0.936
				c0,0.214-0.038,0.407-0.115,0.578c-0.076,0.172-0.175,0.298-0.297,0.378s-0.286,0.136-0.493,0.166
				c-0.146,0.025-0.444,0.038-0.891,0.038h-2.083v0.544h-1.008v-0.544h-0.949l-0.738-1.189h1.687V143.507z"/>
			<path d="M17.187,143.462v-1.261l3.392-1.071l-3.392-1.046v-1.227l4.597,1.581l0.833,0.283c0.279,0.104,0.492,0.203,0.639,0.297
				s0.266,0.203,0.357,0.325c0.092,0.123,0.163,0.273,0.214,0.451c0.051,0.179,0.077,0.38,0.077,0.605
				c0,0.227-0.026,0.451-0.077,0.67l-0.99,0.105c0.039-0.186,0.059-0.353,0.059-0.502c0-0.275-0.086-0.479-0.259-0.611
				c-0.172-0.132-0.392-0.233-0.659-0.304L17.187,143.462z"/>
			<path d="M21.964,135.581h-6.595v-2.627c0-0.661,0.06-1.141,0.178-1.44c0.119-0.299,0.329-0.539,0.632-0.719
				c0.303-0.18,0.649-0.27,1.039-0.27c0.495,0,0.903,0.136,1.226,0.409c0.322,0.272,0.526,0.68,0.609,1.223
				c0.168-0.27,0.353-0.493,0.554-0.668c0.201-0.175,0.558-0.412,1.07-0.71l1.287-0.755v1.493l-1.435,0.902
				c-0.513,0.32-0.836,0.54-0.969,0.658s-0.225,0.243-0.274,0.375s-0.074,0.341-0.074,0.628v0.253h2.753V135.581z M18.158,134.333
				v-0.923c0-0.599-0.027-0.973-0.081-1.122c-0.054-0.149-0.147-0.266-0.279-0.35c-0.132-0.084-0.297-0.126-0.495-0.126
				c-0.222,0-0.401,0.056-0.538,0.167c-0.137,0.111-0.223,0.268-0.259,0.47c-0.015,0.102-0.022,0.405-0.022,0.911v0.974H18.158z"/>
			<path d="M18.644,128.722l-0.207,1.075c-0.461-0.121-0.804-0.329-1.025-0.624c-0.222-0.295-0.333-0.734-0.333-1.316
				c0-0.528,0.067-0.922,0.2-1.181s0.303-0.441,0.508-0.546s0.583-0.158,1.131-0.158l1.476,0.013c0.42,0,0.729-0.019,0.929-0.057
				c0.2-0.038,0.413-0.109,0.641-0.213v1.172c-0.084,0.031-0.208,0.069-0.374,0.114c-0.075,0.02-0.124,0.034-0.148,0.042
				c0.21,0.203,0.368,0.419,0.473,0.649s0.157,0.477,0.157,0.738c0,0.461-0.133,0.824-0.4,1.09
				c-0.267,0.266-0.604,0.399-1.012,0.399c-0.27,0-0.51-0.061-0.722-0.182c-0.211-0.121-0.374-0.29-0.486-0.508
				c-0.113-0.218-0.211-0.532-0.295-0.942c-0.111-0.554-0.214-0.938-0.31-1.151h-0.126c-0.243,0-0.416,0.056-0.52,0.169
				c-0.104,0.112-0.155,0.325-0.155,0.637c0,0.211,0.044,0.375,0.133,0.493C18.267,128.553,18.422,128.649,18.644,128.722z
				 M19.67,127.136c0.054,0.152,0.118,0.392,0.193,0.721c0.075,0.329,0.148,0.544,0.22,0.646c0.117,0.154,0.266,0.232,0.445,0.232
				c0.177,0,0.33-0.062,0.459-0.186c0.129-0.124,0.193-0.281,0.193-0.473c0-0.213-0.075-0.417-0.225-0.611
				c-0.114-0.144-0.253-0.238-0.418-0.283c-0.108-0.031-0.313-0.046-0.617-0.046H19.67z"/>
			<path d="M17.187,122.897h1.008v0.81h1.925c0.39,0,0.617-0.008,0.682-0.023s0.118-0.051,0.16-0.105s0.063-0.122,0.063-0.2
				c0-0.11-0.041-0.269-0.122-0.477l0.98-0.101c0.126,0.275,0.189,0.587,0.189,0.936c0,0.214-0.038,0.406-0.115,0.578
				c-0.076,0.172-0.175,0.297-0.297,0.377s-0.286,0.136-0.493,0.167c-0.146,0.025-0.444,0.038-0.891,0.038h-2.083v0.544h-1.008
				v-0.544h-0.949l-0.738-1.189h1.687V122.897z"/>
			<path d="M16.539,122.291h-1.17v-1.185h1.17V122.291z M21.964,122.291h-4.777v-1.185h4.777V122.291z"/>
			<path d="M19.508,119.915c-0.42,0-0.826-0.097-1.219-0.291c-0.393-0.194-0.692-0.469-0.899-0.825
				c-0.207-0.355-0.311-0.752-0.311-1.191c0-0.677,0.235-1.232,0.704-1.666s1.063-0.649,1.779-0.649
				c0.723,0,1.322,0.219,1.797,0.656s0.713,0.987,0.713,1.651c0,0.411-0.099,0.802-0.297,1.175s-0.488,0.656-0.871,0.85
				C20.522,119.818,20.057,119.915,19.508,119.915z M19.575,118.7c0.474,0,0.837-0.105,1.089-0.316
				c0.251-0.211,0.377-0.471,0.377-0.78c0-0.31-0.126-0.569-0.377-0.778c-0.252-0.209-0.618-0.314-1.098-0.314
				c-0.468,0-0.828,0.104-1.08,0.314s-0.378,0.469-0.378,0.778c0,0.309,0.126,0.569,0.378,0.78
				C18.739,118.595,19.102,118.7,19.575,118.7z"/>
		</g>
	</g>
	<g>
		<defs>
			<polygon id="SVGID_21_" points="0,0 440.079,0 440.079,285.679 0,285.679 0,0 			"/>
		</defs>
		<clipPath id="SVGID_22_">
			<use xlink:href="#SVGID_21_"  overflow="visible"/>
		</clipPath>
		
			<rect x="3.543" y="3.322" clip-path="url(#SVGID_22_)" fill="none" stroke="#000000" stroke-width="0.6644" stroke-linecap="square" stroke-miterlimit="10" width="432.284" height="279.036"/>
	</g>
</g>
</svg>
