  0
SECTION
  2
ENTITIES
999
DXF created from EnergyPlus
  0
3DFACE
  8
1
 62
  0
 10
        0.00000
 20
        0.00000
 30
        8.50000
 11
        0.00000
 21
        0.00000
 31
        4.50000
 12
        2.00000
 22
        0.00000
 32
        4.50000
 13
        2.00000
 23
        0.00000
 33
        8.50000
  0
3DFACE
  8
1
 62
  1
 10
        2.50000
 20
        0.00000
 30
        8.50000
 11
        2.50000
 21
        0.00000
 31
        4.50000
 12
        4.50000
 22
        0.00000
 32
        4.50000
 13
        4.50000
 23
        0.00000
 33
        8.50000
  0
3DFACE
  8
1
 62
  2
 10
        5.00000
 20
        0.00000
 30
        8.50000
 11
        5.00000
 21
        0.00000
 31
        4.50000
 12
        7.00000
 22
        0.00000
 32
        4.50000
 13
        7.00000
 23
        0.00000
 33
        8.50000
  0
3DFACE
  8
1
 62
  3
 10
        7.50000
 20
        0.00000
 30
        8.50000
 11
        7.50000
 21
        0.00000
 31
        4.50000
 12
        9.50000
 22
        0.00000
 32
        4.50000
 13
        9.50000
 23
        0.00000
 33
        8.50000
  0
3DFACE
  8
1
 62
  4
 10
       10.00000
 20
        0.00000
 30
        8.50000
 11
       10.00000
 21
        0.00000
 31
        4.50000
 12
       12.00000
 22
        0.00000
 32
        4.50000
 13
       12.00000
 23
        0.00000
 33
        8.50000
  0
3DFACE
  8
1
 62
  5
 10
       12.50000
 20
        0.00000
 30
        8.50000
 11
       12.50000
 21
        0.00000
 31
        4.50000
 12
       14.50000
 22
        0.00000
 32
        4.50000
 13
       14.50000
 23
        0.00000
 33
        8.50000
  0
3DFACE
  8
1
 62
  6
 10
       15.00000
 20
        0.00000
 30
        8.50000
 11
       15.00000
 21
        0.00000
 31
        4.50000
 12
       17.00000
 22
        0.00000
 32
        4.50000
 13
       17.00000
 23
        0.00000
 33
        8.50000
  0
3DFACE
  8
1
 62
  7
 10
       17.50000
 20
        0.00000
 30
        8.50000
 11
       17.50000
 21
        0.00000
 31
        4.50000
 12
       19.50000
 22
        0.00000
 32
        4.50000
 13
       19.50000
 23
        0.00000
 33
        8.50000
  0
3DFACE
  8
1
 62
  8
 10
       20.00000
 20
        0.00000
 30
        8.50000
 11
       20.00000
 21
        0.00000
 31
        4.50000
 12
       22.00000
 22
        0.00000
 32
        4.50000
 13
       22.00000
 23
        0.00000
 33
        8.50000
  0
3DFACE
  8
1
 62
  9
 10
       22.50000
 20
        0.00000
 30
        8.50000
 11
       22.50000
 21
        0.00000
 31
        4.50000
 12
       24.50000
 22
        0.00000
 32
        4.50000
 13
       24.50000
 23
        0.00000
 33
        8.50000
  0
3DFACE
  8
1
 62
 10
 10
        0.00000
 20
        0.00000
 30
       13.00000
 11
        0.00000
 21
        0.00000
 31
        9.00000
 12
        2.00000
 22
        0.00000
 32
        9.00000
 13
        2.00000
 23
        0.00000
 33
       13.00000
  0
3DFACE
  8
1
 62
 11
 10
        2.50000
 20
        0.00000
 30
       13.00000
 11
        2.50000
 21
        0.00000
 31
        9.00000
 12
        4.50000
 22
        0.00000
 32
        9.00000
 13
        4.50000
 23
        0.00000
 33
       13.00000
  0
3DFACE
  8
1
 62
 12
 10
        5.00000
 20
        0.00000
 30
       13.00000
 11
        5.00000
 21
        0.00000
 31
        9.00000
 12
        7.00000
 22
        0.00000
 32
        9.00000
 13
        7.00000
 23
        0.00000
 33
       13.00000
  0
3DFACE
  8
1
 62
 13
 10
        7.50000
 20
        0.00000
 30
       13.00000
 11
        7.50000
 21
        0.00000
 31
        9.00000
 12
        9.50000
 22
        0.00000
 32
        9.00000
 13
        9.50000
 23
        0.00000
 33
       13.00000
  0
3DFACE
  8
1
 62
 14
 10
       10.00000
 20
        0.00000
 30
       13.00000
 11
       10.00000
 21
        0.00000
 31
        9.00000
 12
       12.00000
 22
        0.00000
 32
        9.00000
 13
       12.00000
 23
        0.00000
 33
       13.00000
  0
3DFACE
  8
1
 62
 15
 10
       12.50000
 20
        0.00000
 30
       13.00000
 11
       12.50000
 21
        0.00000
 31
        9.00000
 12
       14.50000
 22
        0.00000
 32
        9.00000
 13
       14.50000
 23
        0.00000
 33
       13.00000
  0
3DFACE
  8
1
 62
 16
 10
       15.00000
 20
        0.00000
 30
       13.00000
 11
       15.00000
 21
        0.00000
 31
        9.00000
 12
       17.00000
 22
        0.00000
 32
        9.00000
 13
       17.00000
 23
        0.00000
 33
       13.00000
  0
3DFACE
  8
1
 62
 17
 10
       17.50000
 20
        0.00000
 30
       13.00000
 11
       17.50000
 21
        0.00000
 31
        9.00000
 12
       19.50000
 22
        0.00000
 32
        9.00000
 13
       19.50000
 23
        0.00000
 33
       13.00000
  0
3DFACE
  8
1
 62
 18
 10
       20.00000
 20
        0.00000
 30
       13.00000
 11
       20.00000
 21
        0.00000
 31
        9.00000
 12
       22.00000
 22
        0.00000
 32
        9.00000
 13
       22.00000
 23
        0.00000
 33
       13.00000
  0
3DFACE
  8
1
 62
 19
 10
       22.50000
 20
        0.00000
 30
       13.00000
 11
       22.50000
 21
        0.00000
 31
        9.00000
 12
       24.50000
 22
        0.00000
 32
        9.00000
 13
       24.50000
 23
        0.00000
 33
       13.00000
  0
3DFACE
  8
1
 62
 20
 10
        0.00000
 20
        0.00000
 30
       17.50000
 11
        0.00000
 21
        0.00000
 31
       13.50000
 12
        2.00000
 22
        0.00000
 32
       13.50000
 13
        2.00000
 23
        0.00000
 33
       17.50000
  0
3DFACE
  8
1
 62
 21
 10
        2.50000
 20
        0.00000
 30
       17.50000
 11
        2.50000
 21
        0.00000
 31
       13.50000
 12
        4.50000
 22
        0.00000
 32
       13.50000
 13
        4.50000
 23
        0.00000
 33
       17.50000
  0
3DFACE
  8
1
 62
 22
 10
        5.00000
 20
        0.00000
 30
       17.50000
 11
        5.00000
 21
        0.00000
 31
       13.50000
 12
        7.00000
 22
        0.00000
 32
       13.50000
 13
        7.00000
 23
        0.00000
 33
       17.50000
  0
3DFACE
  8
1
 62
 23
 10
        7.50000
 20
        0.00000
 30
       17.50000
 11
        7.50000
 21
        0.00000
 31
       13.50000
 12
        9.50000
 22
        0.00000
 32
       13.50000
 13
        9.50000
 23
        0.00000
 33
       17.50000
  0
3DFACE
  8
1
 62
 24
 10
       10.00000
 20
        0.00000
 30
       17.50000
 11
       10.00000
 21
        0.00000
 31
       13.50000
 12
       12.00000
 22
        0.00000
 32
       13.50000
 13
       12.00000
 23
        0.00000
 33
       17.50000
  0
3DFACE
  8
1
 62
 25
 10
       12.50000
 20
        0.00000
 30
       17.50000
 11
       12.50000
 21
        0.00000
 31
       13.50000
 12
       14.50000
 22
        0.00000
 32
       13.50000
 13
       14.50000
 23
        0.00000
 33
       17.50000
  0
3DFACE
  8
1
 62
 26
 10
       15.00000
 20
        0.00000
 30
       17.50000
 11
       15.00000
 21
        0.00000
 31
       13.50000
 12
       17.00000
 22
        0.00000
 32
       13.50000
 13
       17.00000
 23
        0.00000
 33
       17.50000
  0
3DFACE
  8
1
 62
 27
 10
       17.50000
 20
        0.00000
 30
       17.50000
 11
       17.50000
 21
        0.00000
 31
       13.50000
 12
       19.50000
 22
        0.00000
 32
       13.50000
 13
       19.50000
 23
        0.00000
 33
       17.50000
  0
3DFACE
  8
1
 62
 28
 10
       20.00000
 20
        0.00000
 30
       17.50000
 11
       20.00000
 21
        0.00000
 31
       13.50000
 12
       22.00000
 22
        0.00000
 32
       13.50000
 13
       22.00000
 23
        0.00000
 33
       17.50000
  0
3DFACE
  8
1
 62
 29
 10
       22.50000
 20
        0.00000
 30
       17.50000
 11
       22.50000
 21
        0.00000
 31
       13.50000
 12
       24.50000
 22
        0.00000
 32
       13.50000
 13
       24.50000
 23
        0.00000
 33
       17.50000
  0
3DFACE
  8
1
 62
 30
 10
        0.00000
 20
        0.00000
 30
       22.00000
 11
        0.00000
 21
        0.00000
 31
       18.00000
 12
        2.00000
 22
        0.00000
 32
       18.00000
 13
        2.00000
 23
        0.00000
 33
       22.00000
  0
3DFACE
  8
1
 62
 31
 10
        2.50000
 20
        0.00000
 30
       22.00000
 11
        2.50000
 21
        0.00000
 31
       18.00000
 12
        4.50000
 22
        0.00000
 32
       18.00000
 13
        4.50000
 23
        0.00000
 33
       22.00000
  0
3DFACE
  8
1
 62
 32
 10
        5.00000
 20
        0.00000
 30
       22.00000
 11
        5.00000
 21
        0.00000
 31
       18.00000
 12
        7.00000
 22
        0.00000
 32
       18.00000
 13
        7.00000
 23
        0.00000
 33
       22.00000
  0
3DFACE
  8
1
 62
 33
 10
        7.50000
 20
        0.00000
 30
       22.00000
 11
        7.50000
 21
        0.00000
 31
       18.00000
 12
        9.50000
 22
        0.00000
 32
       18.00000
 13
        9.50000
 23
        0.00000
 33
       22.00000
  0
3DFACE
  8
1
 62
 34
 10
       10.00000
 20
        0.00000
 30
       22.00000
 11
       10.00000
 21
        0.00000
 31
       18.00000
 12
       12.00000
 22
        0.00000
 32
       18.00000
 13
       12.00000
 23
        0.00000
 33
       22.00000
  0
3DFACE
  8
1
 62
 35
 10
       12.50000
 20
        0.00000
 30
       22.00000
 11
       12.50000
 21
        0.00000
 31
       18.00000
 12
       14.50000
 22
        0.00000
 32
       18.00000
 13
       14.50000
 23
        0.00000
 33
       22.00000
  0
3DFACE
  8
1
 62
 36
 10
       15.00000
 20
        0.00000
 30
       22.00000
 11
       15.00000
 21
        0.00000
 31
       18.00000
 12
       17.00000
 22
        0.00000
 32
       18.00000
 13
       17.00000
 23
        0.00000
 33
       22.00000
  0
3DFACE
  8
1
 62
 37
 10
       17.50000
 20
        0.00000
 30
       22.00000
 11
       17.50000
 21
        0.00000
 31
       18.00000
 12
       19.50000
 22
        0.00000
 32
       18.00000
 13
       19.50000
 23
        0.00000
 33
       22.00000
  0
3DFACE
  8
1
 62
 38
 10
       20.00000
 20
        0.00000
 30
       22.00000
 11
       20.00000
 21
        0.00000
 31
       18.00000
 12
       22.00000
 22
        0.00000
 32
       18.00000
 13
       22.00000
 23
        0.00000
 33
       22.00000
  0
3DFACE
  8
1
 62
 39
 10
       22.50000
 20
        0.00000
 30
       22.00000
 11
       22.50000
 21
        0.00000
 31
       18.00000
 12
       24.50000
 22
        0.00000
 32
       18.00000
 13
       24.50000
 23
        0.00000
 33
       22.00000
  0
3DFACE
  8
1
 62
 40
 10
        0.00000
 20
        0.00000
 30
       26.50000
 11
        0.00000
 21
        0.00000
 31
       22.50000
 12
        2.00000
 22
        0.00000
 32
       22.50000
 13
        2.00000
 23
        0.00000
 33
       26.50000
  0
3DFACE
  8
1
 62
 41
 10
        2.50000
 20
        0.00000
 30
       26.50000
 11
        2.50000
 21
        0.00000
 31
       22.50000
 12
        4.50000
 22
        0.00000
 32
       22.50000
 13
        4.50000
 23
        0.00000
 33
       26.50000
  0
3DFACE
  8
1
 62
 42
 10
        5.00000
 20
        0.00000
 30
       26.50000
 11
        5.00000
 21
        0.00000
 31
       22.50000
 12
        7.00000
 22
        0.00000
 32
       22.50000
 13
        7.00000
 23
        0.00000
 33
       26.50000
  0
3DFACE
  8
1
 62
 43
 10
        7.50000
 20
        0.00000
 30
       26.50000
 11
        7.50000
 21
        0.00000
 31
       22.50000
 12
        9.50000
 22
        0.00000
 32
       22.50000
 13
        9.50000
 23
        0.00000
 33
       26.50000
  0
3DFACE
  8
1
 62
 44
 10
       10.00000
 20
        0.00000
 30
       26.50000
 11
       10.00000
 21
        0.00000
 31
       22.50000
 12
       12.00000
 22
        0.00000
 32
       22.50000
 13
       12.00000
 23
        0.00000
 33
       26.50000
  0
3DFACE
  8
1
 62
 45
 10
       12.50000
 20
        0.00000
 30
       26.50000
 11
       12.50000
 21
        0.00000
 31
       22.50000
 12
       14.50000
 22
        0.00000
 32
       22.50000
 13
       14.50000
 23
        0.00000
 33
       26.50000
  0
3DFACE
  8
1
 62
 46
 10
       15.00000
 20
        0.00000
 30
       26.50000
 11
       15.00000
 21
        0.00000
 31
       22.50000
 12
       17.00000
 22
        0.00000
 32
       22.50000
 13
       17.00000
 23
        0.00000
 33
       26.50000
  0
3DFACE
  8
1
 62
 47
 10
       17.50000
 20
        0.00000
 30
       26.50000
 11
       17.50000
 21
        0.00000
 31
       22.50000
 12
       19.50000
 22
        0.00000
 32
       22.50000
 13
       19.50000
 23
        0.00000
 33
       26.50000
  0
3DFACE
  8
1
 62
 48
 10
       20.00000
 20
        0.00000
 30
       26.50000
 11
       20.00000
 21
        0.00000
 31
       22.50000
 12
       22.00000
 22
        0.00000
 32
       22.50000
 13
       22.00000
 23
        0.00000
 33
       26.50000
  0
3DFACE
  8
1
 62
 49
 10
       22.50000
 20
        0.00000
 30
       26.50000
 11
       22.50000
 21
        0.00000
 31
       22.50000
 12
       24.50000
 22
        0.00000
 32
       22.50000
 13
       24.50000
 23
        0.00000
 33
       26.50000
  0
3DFACE
  8
1
 62
 50
 10
        0.00000
 20
        0.00000
 30
       31.00000
 11
        0.00000
 21
        0.00000
 31
       27.00000
 12
        2.00000
 22
        0.00000
 32
       27.00000
 13
        2.00000
 23
        0.00000
 33
       31.00000
  0
3DFACE
  8
1
 62
 51
 10
        2.50000
 20
        0.00000
 30
       31.00000
 11
        2.50000
 21
        0.00000
 31
       27.00000
 12
        4.50000
 22
        0.00000
 32
       27.00000
 13
        4.50000
 23
        0.00000
 33
       31.00000
  0
3DFACE
  8
1
 62
 52
 10
        5.00000
 20
        0.00000
 30
       31.00000
 11
        5.00000
 21
        0.00000
 31
       27.00000
 12
        7.00000
 22
        0.00000
 32
       27.00000
 13
        7.00000
 23
        0.00000
 33
       31.00000
  0
3DFACE
  8
1
 62
 53
 10
        7.50000
 20
        0.00000
 30
       31.00000
 11
        7.50000
 21
        0.00000
 31
       27.00000
 12
        9.50000
 22
        0.00000
 32
       27.00000
 13
        9.50000
 23
        0.00000
 33
       31.00000
  0
3DFACE
  8
1
 62
 54
 10
       10.00000
 20
        0.00000
 30
       31.00000
 11
       10.00000
 21
        0.00000
 31
       27.00000
 12
       12.00000
 22
        0.00000
 32
       27.00000
 13
       12.00000
 23
        0.00000
 33
       31.00000
  0
3DFACE
  8
1
 62
 55
 10
       12.50000
 20
        0.00000
 30
       31.00000
 11
       12.50000
 21
        0.00000
 31
       27.00000
 12
       14.50000
 22
        0.00000
 32
       27.00000
 13
       14.50000
 23
        0.00000
 33
       31.00000
  0
3DFACE
  8
1
 62
 56
 10
       15.00000
 20
        0.00000
 30
       31.00000
 11
       15.00000
 21
        0.00000
 31
       27.00000
 12
       17.00000
 22
        0.00000
 32
       27.00000
 13
       17.00000
 23
        0.00000
 33
       31.00000
  0
3DFACE
  8
1
 62
 57
 10
       17.50000
 20
        0.00000
 30
       31.00000
 11
       17.50000
 21
        0.00000
 31
       27.00000
 12
       19.50000
 22
        0.00000
 32
       27.00000
 13
       19.50000
 23
        0.00000
 33
       31.00000
  0
3DFACE
  8
1
 62
 58
 10
       20.00000
 20
        0.00000
 30
       31.00000
 11
       20.00000
 21
        0.00000
 31
       27.00000
 12
       22.00000
 22
        0.00000
 32
       27.00000
 13
       22.00000
 23
        0.00000
 33
       31.00000
  0
3DFACE
  8
1
 62
 59
 10
       22.50000
 20
        0.00000
 30
       31.00000
 11
       22.50000
 21
        0.00000
 31
       27.00000
 12
       24.50000
 22
        0.00000
 32
       27.00000
 13
       24.50000
 23
        0.00000
 33
       31.00000
  0
3DFACE
  8
1
 62
 60
 10
        0.00000
 20
        0.00000
 30
       35.50000
 11
        0.00000
 21
        0.00000
 31
       31.50000
 12
        2.00000
 22
        0.00000
 32
       31.50000
 13
        2.00000
 23
        0.00000
 33
       35.50000
  0
3DFACE
  8
1
 62
 61
 10
        2.50000
 20
        0.00000
 30
       35.50000
 11
        2.50000
 21
        0.00000
 31
       31.50000
 12
        4.50000
 22
        0.00000
 32
       31.50000
 13
        4.50000
 23
        0.00000
 33
       35.50000
  0
3DFACE
  8
1
 62
 62
 10
        5.00000
 20
        0.00000
 30
       35.50000
 11
        5.00000
 21
        0.00000
 31
       31.50000
 12
        7.00000
 22
        0.00000
 32
       31.50000
 13
        7.00000
 23
        0.00000
 33
       35.50000
  0
3DFACE
  8
1
 62
 63
 10
        7.50000
 20
        0.00000
 30
       35.50000
 11
        7.50000
 21
        0.00000
 31
       31.50000
 12
        9.50000
 22
        0.00000
 32
       31.50000
 13
        9.50000
 23
        0.00000
 33
       35.50000
  0
3DFACE
  8
1
 62
 64
 10
       10.00000
 20
        0.00000
 30
       35.50000
 11
       10.00000
 21
        0.00000
 31
       31.50000
 12
       12.00000
 22
        0.00000
 32
       31.50000
 13
       12.00000
 23
        0.00000
 33
       35.50000
  0
3DFACE
  8
1
 62
 65
 10
       12.50000
 20
        0.00000
 30
       35.50000
 11
       12.50000
 21
        0.00000
 31
       31.50000
 12
       14.50000
 22
        0.00000
 32
       31.50000
 13
       14.50000
 23
        0.00000
 33
       35.50000
  0
3DFACE
  8
1
 62
 66
 10
       15.00000
 20
        0.00000
 30
       35.50000
 11
       15.00000
 21
        0.00000
 31
       31.50000
 12
       17.00000
 22
        0.00000
 32
       31.50000
 13
       17.00000
 23
        0.00000
 33
       35.50000
  0
3DFACE
  8
1
 62
 67
 10
       17.50000
 20
        0.00000
 30
       35.50000
 11
       17.50000
 21
        0.00000
 31
       31.50000
 12
       19.50000
 22
        0.00000
 32
       31.50000
 13
       19.50000
 23
        0.00000
 33
       35.50000
  0
3DFACE
  8
1
 62
 68
 10
       20.00000
 20
        0.00000
 30
       35.50000
 11
       20.00000
 21
        0.00000
 31
       31.50000
 12
       22.00000
 22
        0.00000
 32
       31.50000
 13
       22.00000
 23
        0.00000
 33
       35.50000
  0
3DFACE
  8
1
 62
 69
 10
       22.50000
 20
        0.00000
 30
       35.50000
 11
       22.50000
 21
        0.00000
 31
       31.50000
 12
       24.50000
 22
        0.00000
 32
       31.50000
 13
       24.50000
 23
        0.00000
 33
       35.50000
  0
3DFACE
  8
1
 62
 70
 10
        0.00000
 20
        0.00000
 30
       40.00000
 11
        0.00000
 21
        0.00000
 31
       36.00000
 12
        2.00000
 22
        0.00000
 32
       36.00000
 13
        2.00000
 23
        0.00000
 33
       40.00000
  0
3DFACE
  8
1
 62
 71
 10
        2.50000
 20
        0.00000
 30
       40.00000
 11
        2.50000
 21
        0.00000
 31
       36.00000
 12
        4.50000
 22
        0.00000
 32
       36.00000
 13
        4.50000
 23
        0.00000
 33
       40.00000
  0
3DFACE
  8
1
 62
 72
 10
        5.00000
 20
        0.00000
 30
       40.00000
 11
        5.00000
 21
        0.00000
 31
       36.00000
 12
        7.00000
 22
        0.00000
 32
       36.00000
 13
        7.00000
 23
        0.00000
 33
       40.00000
  0
3DFACE
  8
1
 62
 73
 10
        7.50000
 20
        0.00000
 30
       40.00000
 11
        7.50000
 21
        0.00000
 31
       36.00000
 12
        9.50000
 22
        0.00000
 32
       36.00000
 13
        9.50000
 23
        0.00000
 33
       40.00000
  0
3DFACE
  8
1
 62
 74
 10
       10.00000
 20
        0.00000
 30
       40.00000
 11
       10.00000
 21
        0.00000
 31
       36.00000
 12
       12.00000
 22
        0.00000
 32
       36.00000
 13
       12.00000
 23
        0.00000
 33
       40.00000
  0
3DFACE
  8
1
 62
 75
 10
       12.50000
 20
        0.00000
 30
       40.00000
 11
       12.50000
 21
        0.00000
 31
       36.00000
 12
       14.50000
 22
        0.00000
 32
       36.00000
 13
       14.50000
 23
        0.00000
 33
       40.00000
  0
3DFACE
  8
1
 62
 76
 10
       15.00000
 20
        0.00000
 30
       40.00000
 11
       15.00000
 21
        0.00000
 31
       36.00000
 12
       17.00000
 22
        0.00000
 32
       36.00000
 13
       17.00000
 23
        0.00000
 33
       40.00000
  0
3DFACE
  8
1
 62
 77
 10
       17.50000
 20
        0.00000
 30
       40.00000
 11
       17.50000
 21
        0.00000
 31
       36.00000
 12
       19.50000
 22
        0.00000
 32
       36.00000
 13
       19.50000
 23
        0.00000
 33
       40.00000
  0
3DFACE
  8
1
 62
 78
 10
       20.00000
 20
        0.00000
 30
       40.00000
 11
       20.00000
 21
        0.00000
 31
       36.00000
 12
       22.00000
 22
        0.00000
 32
       36.00000
 13
       22.00000
 23
        0.00000
 33
       40.00000
  0
3DFACE
  8
1
 62
 79
 10
       22.50000
 20
        0.00000
 30
       40.00000
 11
       22.50000
 21
        0.00000
 31
       36.00000
 12
       24.50000
 22
        0.00000
 32
       36.00000
 13
       24.50000
 23
        0.00000
 33
       40.00000
  0
3DFACE
  8
1
 62
 80
 10
        0.00000
 20
        0.00000
 30
       44.50000
 11
        0.00000
 21
        0.00000
 31
       40.50000
 12
        2.00000
 22
        0.00000
 32
       40.50000
 13
        2.00000
 23
        0.00000
 33
       44.50000
  0
3DFACE
  8
1
 62
 81
 10
        2.50000
 20
        0.00000
 30
       44.50000
 11
        2.50000
 21
        0.00000
 31
       40.50000
 12
        4.50000
 22
        0.00000
 32
       40.50000
 13
        4.50000
 23
        0.00000
 33
       44.50000
  0
3DFACE
  8
1
 62
 82
 10
        5.00000
 20
        0.00000
 30
       44.50000
 11
        5.00000
 21
        0.00000
 31
       40.50000
 12
        7.00000
 22
        0.00000
 32
       40.50000
 13
        7.00000
 23
        0.00000
 33
       44.50000
  0
3DFACE
  8
1
 62
 83
 10
        7.50000
 20
        0.00000
 30
       44.50000
 11
        7.50000
 21
        0.00000
 31
       40.50000
 12
        9.50000
 22
        0.00000
 32
       40.50000
 13
        9.50000
 23
        0.00000
 33
       44.50000
  0
3DFACE
  8
1
 62
 84
 10
       10.00000
 20
        0.00000
 30
       44.50000
 11
       10.00000
 21
        0.00000
 31
       40.50000
 12
       12.00000
 22
        0.00000
 32
       40.50000
 13
       12.00000
 23
        0.00000
 33
       44.50000
  0
3DFACE
  8
1
 62
 85
 10
       12.50000
 20
        0.00000
 30
       44.50000
 11
       12.50000
 21
        0.00000
 31
       40.50000
 12
       14.50000
 22
        0.00000
 32
       40.50000
 13
       14.50000
 23
        0.00000
 33
       44.50000
  0
3DFACE
  8
1
 62
 86
 10
       15.00000
 20
        0.00000
 30
       44.50000
 11
       15.00000
 21
        0.00000
 31
       40.50000
 12
       17.00000
 22
        0.00000
 32
       40.50000
 13
       17.00000
 23
        0.00000
 33
       44.50000
  0
3DFACE
  8
1
 62
 87
 10
       17.50000
 20
        0.00000
 30
       44.50000
 11
       17.50000
 21
        0.00000
 31
       40.50000
 12
       19.50000
 22
        0.00000
 32
       40.50000
 13
       19.50000
 23
        0.00000
 33
       44.50000
  0
3DFACE
  8
1
 62
 88
 10
       20.00000
 20
        0.00000
 30
       44.50000
 11
       20.00000
 21
        0.00000
 31
       40.50000
 12
       22.00000
 22
        0.00000
 32
       40.50000
 13
       22.00000
 23
        0.00000
 33
       44.50000
  0
3DFACE
  8
1
 62
 89
 10
       22.50000
 20
        0.00000
 30
       44.50000
 11
       22.50000
 21
        0.00000
 31
       40.50000
 12
       24.50000
 22
        0.00000
 32
       40.50000
 13
       24.50000
 23
        0.00000
 33
       44.50000
  0
3DFACE
  8
1
 62
 90
 10
        0.00000
 20
        0.00000
 30
       49.00000
 11
        0.00000
 21
        0.00000
 31
       45.00000
 12
        2.00000
 22
        0.00000
 32
       45.00000
 13
        2.00000
 23
        0.00000
 33
       49.00000
  0
3DFACE
  8
1
 62
 91
 10
        2.50000
 20
        0.00000
 30
       49.00000
 11
        2.50000
 21
        0.00000
 31
       45.00000
 12
        4.50000
 22
        0.00000
 32
       45.00000
 13
        4.50000
 23
        0.00000
 33
       49.00000
  0
3DFACE
  8
1
 62
 92
 10
        5.00000
 20
        0.00000
 30
       49.00000
 11
        5.00000
 21
        0.00000
 31
       45.00000
 12
        7.00000
 22
        0.00000
 32
       45.00000
 13
        7.00000
 23
        0.00000
 33
       49.00000
  0
3DFACE
  8
1
 62
 93
 10
        7.50000
 20
        0.00000
 30
       49.00000
 11
        7.50000
 21
        0.00000
 31
       45.00000
 12
        9.50000
 22
        0.00000
 32
       45.00000
 13
        9.50000
 23
        0.00000
 33
       49.00000
  0
3DFACE
  8
1
 62
 94
 10
       10.00000
 20
        0.00000
 30
       49.00000
 11
       10.00000
 21
        0.00000
 31
       45.00000
 12
       12.00000
 22
        0.00000
 32
       45.00000
 13
       12.00000
 23
        0.00000
 33
       49.00000
  0
3DFACE
  8
1
 62
 95
 10
       12.50000
 20
        0.00000
 30
       49.00000
 11
       12.50000
 21
        0.00000
 31
       45.00000
 12
       14.50000
 22
        0.00000
 32
       45.00000
 13
       14.50000
 23
        0.00000
 33
       49.00000
  0
3DFACE
  8
1
 62
 96
 10
       15.00000
 20
        0.00000
 30
       49.00000
 11
       15.00000
 21
        0.00000
 31
       45.00000
 12
       17.00000
 22
        0.00000
 32
       45.00000
 13
       17.00000
 23
        0.00000
 33
       49.00000
  0
3DFACE
  8
1
 62
 97
 10
       17.50000
 20
        0.00000
 30
       49.00000
 11
       17.50000
 21
        0.00000
 31
       45.00000
 12
       19.50000
 22
        0.00000
 32
       45.00000
 13
       19.50000
 23
        0.00000
 33
       49.00000
  0
3DFACE
  8
1
 62
 98
 10
       20.00000
 20
        0.00000
 30
       49.00000
 11
       20.00000
 21
        0.00000
 31
       45.00000
 12
       22.00000
 22
        0.00000
 32
       45.00000
 13
       22.00000
 23
        0.00000
 33
       49.00000
  0
3DFACE
  8
1
 62
 99
 10
       22.50000
 20
        0.00000
 30
       49.00000
 11
       22.50000
 21
        0.00000
 31
       45.00000
 12
       24.50000
 22
        0.00000
 32
       45.00000
 13
       24.50000
 23
        0.00000
 33
       49.00000
  0
3DFACE
  8
1
 62
100
 10
        0.00000
 20
        0.00000
 30
       53.50000
 11
        0.00000
 21
        0.00000
 31
       49.50000
 12
        2.00000
 22
        0.00000
 32
       49.50000
 13
        2.00000
 23
        0.00000
 33
       53.50000
  0
3DFACE
  8
1
 62
101
 10
        2.50000
 20
        0.00000
 30
       53.50000
 11
        2.50000
 21
        0.00000
 31
       49.50000
 12
        4.50000
 22
        0.00000
 32
       49.50000
 13
        4.50000
 23
        0.00000
 33
       53.50000
  0
3DFACE
  8
1
 62
102
 10
        5.00000
 20
        0.00000
 30
       53.50000
 11
        5.00000
 21
        0.00000
 31
       49.50000
 12
        7.00000
 22
        0.00000
 32
       49.50000
 13
        7.00000
 23
        0.00000
 33
       53.50000
  0
3DFACE
  8
1
 62
103
 10
        7.50000
 20
        0.00000
 30
       53.50000
 11
        7.50000
 21
        0.00000
 31
       49.50000
 12
        9.50000
 22
        0.00000
 32
       49.50000
 13
        9.50000
 23
        0.00000
 33
       53.50000
  0
3DFACE
  8
1
 62
104
 10
       10.00000
 20
        0.00000
 30
       53.50000
 11
       10.00000
 21
        0.00000
 31
       49.50000
 12
       12.00000
 22
        0.00000
 32
       49.50000
 13
       12.00000
 23
        0.00000
 33
       53.50000
  0
3DFACE
  8
1
 62
105
 10
       12.50000
 20
        0.00000
 30
       53.50000
 11
       12.50000
 21
        0.00000
 31
       49.50000
 12
       14.50000
 22
        0.00000
 32
       49.50000
 13
       14.50000
 23
        0.00000
 33
       53.50000
  0
3DFACE
  8
1
 62
106
 10
       15.00000
 20
        0.00000
 30
       53.50000
 11
       15.00000
 21
        0.00000
 31
       49.50000
 12
       17.00000
 22
        0.00000
 32
       49.50000
 13
       17.00000
 23
        0.00000
 33
       53.50000
  0
3DFACE
  8
1
 62
107
 10
       17.50000
 20
        0.00000
 30
       53.50000
 11
       17.50000
 21
        0.00000
 31
       49.50000
 12
       19.50000
 22
        0.00000
 32
       49.50000
 13
       19.50000
 23
        0.00000
 33
       53.50000
  0
3DFACE
  8
1
 62
108
 10
       20.00000
 20
        0.00000
 30
       53.50000
 11
       20.00000
 21
        0.00000
 31
       49.50000
 12
       22.00000
 22
        0.00000
 32
       49.50000
 13
       22.00000
 23
        0.00000
 33
       53.50000
  0
3DFACE
  8
1
 62
109
 10
       22.50000
 20
        0.00000
 30
       53.50000
 11
       22.50000
 21
        0.00000
 31
       49.50000
 12
       24.50000
 22
        0.00000
 32
       49.50000
 13
       24.50000
 23
        0.00000
 33
       53.50000
  0
3DFACE
  8
1
 62
110
 10
        0.00000
 20
        0.00000
 30
       58.00000
 11
        0.00000
 21
        0.00000
 31
       54.00000
 12
        2.00000
 22
        0.00000
 32
       54.00000
 13
        2.00000
 23
        0.00000
 33
       58.00000
  0
3DFACE
  8
1
 62
111
 10
        2.50000
 20
        0.00000
 30
       58.00000
 11
        2.50000
 21
        0.00000
 31
       54.00000
 12
        4.50000
 22
        0.00000
 32
       54.00000
 13
        4.50000
 23
        0.00000
 33
       58.00000
  0
3DFACE
  8
1
 62
112
 10
        5.00000
 20
        0.00000
 30
       58.00000
 11
        5.00000
 21
        0.00000
 31
       54.00000
 12
        7.00000
 22
        0.00000
 32
       54.00000
 13
        7.00000
 23
        0.00000
 33
       58.00000
  0
3DFACE
  8
1
 62
113
 10
        7.50000
 20
        0.00000
 30
       58.00000
 11
        7.50000
 21
        0.00000
 31
       54.00000
 12
        9.50000
 22
        0.00000
 32
       54.00000
 13
        9.50000
 23
        0.00000
 33
       58.00000
  0
3DFACE
  8
1
 62
114
 10
       10.00000
 20
        0.00000
 30
       58.00000
 11
       10.00000
 21
        0.00000
 31
       54.00000
 12
       12.00000
 22
        0.00000
 32
       54.00000
 13
       12.00000
 23
        0.00000
 33
       58.00000
  0
3DFACE
  8
1
 62
115
 10
       12.50000
 20
        0.00000
 30
       58.00000
 11
       12.50000
 21
        0.00000
 31
       54.00000
 12
       14.50000
 22
        0.00000
 32
       54.00000
 13
       14.50000
 23
        0.00000
 33
       58.00000
  0
3DFACE
  8
1
 62
116
 10
       15.00000
 20
        0.00000
 30
       58.00000
 11
       15.00000
 21
        0.00000
 31
       54.00000
 12
       17.00000
 22
        0.00000
 32
       54.00000
 13
       17.00000
 23
        0.00000
 33
       58.00000
  0
3DFACE
  8
1
 62
117
 10
       17.50000
 20
        0.00000
 30
       58.00000
 11
       17.50000
 21
        0.00000
 31
       54.00000
 12
       19.50000
 22
        0.00000
 32
       54.00000
 13
       19.50000
 23
        0.00000
 33
       58.00000
  0
3DFACE
  8
1
 62
118
 10
       20.00000
 20
        0.00000
 30
       58.00000
 11
       20.00000
 21
        0.00000
 31
       54.00000
 12
       22.00000
 22
        0.00000
 32
       54.00000
 13
       22.00000
 23
        0.00000
 33
       58.00000
  0
3DFACE
  8
1
 62
119
 10
       22.50000
 20
        0.00000
 30
       58.00000
 11
       22.50000
 21
        0.00000
 31
       54.00000
 12
       24.50000
 22
        0.00000
 32
       54.00000
 13
       24.50000
 23
        0.00000
 33
       58.00000
  0
3DFACE
  8
1
 62
120
 10
        0.00000
 20
        0.00000
 30
       62.50000
 11
        0.00000
 21
        0.00000
 31
       58.50000
 12
        2.00000
 22
        0.00000
 32
       58.50000
 13
        2.00000
 23
        0.00000
 33
       62.50000
  0
3DFACE
  8
1
 62
121
 10
        2.50000
 20
        0.00000
 30
       62.50000
 11
        2.50000
 21
        0.00000
 31
       58.50000
 12
        4.50000
 22
        0.00000
 32
       58.50000
 13
        4.50000
 23
        0.00000
 33
       62.50000
  0
3DFACE
  8
1
 62
122
 10
        5.00000
 20
        0.00000
 30
       62.50000
 11
        5.00000
 21
        0.00000
 31
       58.50000
 12
        7.00000
 22
        0.00000
 32
       58.50000
 13
        7.00000
 23
        0.00000
 33
       62.50000
  0
3DFACE
  8
1
 62
123
 10
        7.50000
 20
        0.00000
 30
       62.50000
 11
        7.50000
 21
        0.00000
 31
       58.50000
 12
        9.50000
 22
        0.00000
 32
       58.50000
 13
        9.50000
 23
        0.00000
 33
       62.50000
  0
3DFACE
  8
1
 62
124
 10
       10.00000
 20
        0.00000
 30
       62.50000
 11
       10.00000
 21
        0.00000
 31
       58.50000
 12
       12.00000
 22
        0.00000
 32
       58.50000
 13
       12.00000
 23
        0.00000
 33
       62.50000
  0
3DFACE
  8
1
 62
125
 10
       12.50000
 20
        0.00000
 30
       62.50000
 11
       12.50000
 21
        0.00000
 31
       58.50000
 12
       14.50000
 22
        0.00000
 32
       58.50000
 13
       14.50000
 23
        0.00000
 33
       62.50000
  0
3DFACE
  8
1
 62
126
 10
       15.00000
 20
        0.00000
 30
       62.50000
 11
       15.00000
 21
        0.00000
 31
       58.50000
 12
       17.00000
 22
        0.00000
 32
       58.50000
 13
       17.00000
 23
        0.00000
 33
       62.50000
  0
3DFACE
  8
1
 62
127
 10
       17.50000
 20
        0.00000
 30
       62.50000
 11
       17.50000
 21
        0.00000
 31
       58.50000
 12
       19.50000
 22
        0.00000
 32
       58.50000
 13
       19.50000
 23
        0.00000
 33
       62.50000
  0
3DFACE
  8
1
 62
128
 10
       20.00000
 20
        0.00000
 30
       62.50000
 11
       20.00000
 21
        0.00000
 31
       58.50000
 12
       22.00000
 22
        0.00000
 32
       58.50000
 13
       22.00000
 23
        0.00000
 33
       62.50000
  0
3DFACE
  8
1
 62
129
 10
       22.50000
 20
        0.00000
 30
       62.50000
 11
       22.50000
 21
        0.00000
 31
       58.50000
 12
       24.50000
 22
        0.00000
 32
       58.50000
 13
       24.50000
 23
        0.00000
 33
       62.50000
  0
3DFACE
  8
1
 62
130
 10
        0.00000
 20
        0.00000
 30
       67.00000
 11
        0.00000
 21
        0.00000
 31
       63.00000
 12
        2.00000
 22
        0.00000
 32
       63.00000
 13
        2.00000
 23
        0.00000
 33
       67.00000
  0
3DFACE
  8
1
 62
131
 10
        2.50000
 20
        0.00000
 30
       67.00000
 11
        2.50000
 21
        0.00000
 31
       63.00000
 12
        4.50000
 22
        0.00000
 32
       63.00000
 13
        4.50000
 23
        0.00000
 33
       67.00000
  0
3DFACE
  8
1
 62
132
 10
        5.00000
 20
        0.00000
 30
       67.00000
 11
        5.00000
 21
        0.00000
 31
       63.00000
 12
        7.00000
 22
        0.00000
 32
       63.00000
 13
        7.00000
 23
        0.00000
 33
       67.00000
  0
3DFACE
  8
1
 62
133
 10
        7.50000
 20
        0.00000
 30
       67.00000
 11
        7.50000
 21
        0.00000
 31
       63.00000
 12
        9.50000
 22
        0.00000
 32
       63.00000
 13
        9.50000
 23
        0.00000
 33
       67.00000
  0
3DFACE
  8
1
 62
134
 10
       10.00000
 20
        0.00000
 30
       67.00000
 11
       10.00000
 21
        0.00000
 31
       63.00000
 12
       12.00000
 22
        0.00000
 32
       63.00000
 13
       12.00000
 23
        0.00000
 33
       67.00000
  0
3DFACE
  8
1
 62
135
 10
       12.50000
 20
        0.00000
 30
       67.00000
 11
       12.50000
 21
        0.00000
 31
       63.00000
 12
       14.50000
 22
        0.00000
 32
       63.00000
 13
       14.50000
 23
        0.00000
 33
       67.00000
  0
3DFACE
  8
1
 62
136
 10
       15.00000
 20
        0.00000
 30
       67.00000
 11
       15.00000
 21
        0.00000
 31
       63.00000
 12
       17.00000
 22
        0.00000
 32
       63.00000
 13
       17.00000
 23
        0.00000
 33
       67.00000
  0
3DFACE
  8
1
 62
137
 10
       17.50000
 20
        0.00000
 30
       67.00000
 11
       17.50000
 21
        0.00000
 31
       63.00000
 12
       19.50000
 22
        0.00000
 32
       63.00000
 13
       19.50000
 23
        0.00000
 33
       67.00000
  0
3DFACE
  8
1
 62
138
 10
       20.00000
 20
        0.00000
 30
       67.00000
 11
       20.00000
 21
        0.00000
 31
       63.00000
 12
       22.00000
 22
        0.00000
 32
       63.00000
 13
       22.00000
 23
        0.00000
 33
       67.00000
  0
3DFACE
  8
1
 62
139
 10
       22.50000
 20
        0.00000
 30
       67.00000
 11
       22.50000
 21
        0.00000
 31
       63.00000
 12
       24.50000
 22
        0.00000
 32
       63.00000
 13
       24.50000
 23
        0.00000
 33
       67.00000
  0
3DFACE
  8
1
 62
140
 10
        0.00000
 20
        0.00000
 30
       71.50000
 11
        0.00000
 21
        0.00000
 31
       67.50000
 12
        2.00000
 22
        0.00000
 32
       67.50000
 13
        2.00000
 23
        0.00000
 33
       71.50000
  0
3DFACE
  8
1
 62
141
 10
        2.50000
 20
        0.00000
 30
       71.50000
 11
        2.50000
 21
        0.00000
 31
       67.50000
 12
        4.50000
 22
        0.00000
 32
       67.50000
 13
        4.50000
 23
        0.00000
 33
       71.50000
  0
3DFACE
  8
1
 62
142
 10
        5.00000
 20
        0.00000
 30
       71.50000
 11
        5.00000
 21
        0.00000
 31
       67.50000
 12
        7.00000
 22
        0.00000
 32
       67.50000
 13
        7.00000
 23
        0.00000
 33
       71.50000
  0
3DFACE
  8
1
 62
143
 10
        7.50000
 20
        0.00000
 30
       71.50000
 11
        7.50000
 21
        0.00000
 31
       67.50000
 12
        9.50000
 22
        0.00000
 32
       67.50000
 13
        9.50000
 23
        0.00000
 33
       71.50000
  0
3DFACE
  8
1
 62
144
 10
       10.00000
 20
        0.00000
 30
       71.50000
 11
       10.00000
 21
        0.00000
 31
       67.50000
 12
       12.00000
 22
        0.00000
 32
       67.50000
 13
       12.00000
 23
        0.00000
 33
       71.50000
  0
3DFACE
  8
1
 62
145
 10
       12.50000
 20
        0.00000
 30
       71.50000
 11
       12.50000
 21
        0.00000
 31
       67.50000
 12
       14.50000
 22
        0.00000
 32
       67.50000
 13
       14.50000
 23
        0.00000
 33
       71.50000
  0
3DFACE
  8
1
 62
146
 10
       15.00000
 20
        0.00000
 30
       71.50000
 11
       15.00000
 21
        0.00000
 31
       67.50000
 12
       17.00000
 22
        0.00000
 32
       67.50000
 13
       17.00000
 23
        0.00000
 33
       71.50000
  0
3DFACE
  8
1
 62
147
 10
       17.50000
 20
        0.00000
 30
       71.50000
 11
       17.50000
 21
        0.00000
 31
       67.50000
 12
       19.50000
 22
        0.00000
 32
       67.50000
 13
       19.50000
 23
        0.00000
 33
       71.50000
  0
3DFACE
  8
1
 62
148
 10
       20.00000
 20
        0.00000
 30
       71.50000
 11
       20.00000
 21
        0.00000
 31
       67.50000
 12
       22.00000
 22
        0.00000
 32
       67.50000
 13
       22.00000
 23
        0.00000
 33
       71.50000
  0
3DFACE
  8
1
 62
149
 10
       22.50000
 20
        0.00000
 30
       71.50000
 11
       22.50000
 21
        0.00000
 31
       67.50000
 12
       24.50000
 22
        0.00000
 32
       67.50000
 13
       24.50000
 23
        0.00000
 33
       71.50000
  0
3DFACE
  8
1
 62
150
 10
        0.00000
 20
        0.00000
 30
       76.00000
 11
        0.00000
 21
        0.00000
 31
       72.00000
 12
        2.00000
 22
        0.00000
 32
       72.00000
 13
        2.00000
 23
        0.00000
 33
       76.00000
  0
3DFACE
  8
1
 62
151
 10
        2.50000
 20
        0.00000
 30
       76.00000
 11
        2.50000
 21
        0.00000
 31
       72.00000
 12
        4.50000
 22
        0.00000
 32
       72.00000
 13
        4.50000
 23
        0.00000
 33
       76.00000
  0
3DFACE
  8
1
 62
152
 10
        5.00000
 20
        0.00000
 30
       76.00000
 11
        5.00000
 21
        0.00000
 31
       72.00000
 12
        7.00000
 22
        0.00000
 32
       72.00000
 13
        7.00000
 23
        0.00000
 33
       76.00000
  0
3DFACE
  8
1
 62
153
 10
        7.50000
 20
        0.00000
 30
       76.00000
 11
        7.50000
 21
        0.00000
 31
       72.00000
 12
        9.50000
 22
        0.00000
 32
       72.00000
 13
        9.50000
 23
        0.00000
 33
       76.00000
  0
3DFACE
  8
1
 62
154
 10
       10.00000
 20
        0.00000
 30
       76.00000
 11
       10.00000
 21
        0.00000
 31
       72.00000
 12
       12.00000
 22
        0.00000
 32
       72.00000
 13
       12.00000
 23
        0.00000
 33
       76.00000
  0
3DFACE
  8
1
 62
155
 10
       12.50000
 20
        0.00000
 30
       76.00000
 11
       12.50000
 21
        0.00000
 31
       72.00000
 12
       14.50000
 22
        0.00000
 32
       72.00000
 13
       14.50000
 23
        0.00000
 33
       76.00000
  0
3DFACE
  8
1
 62
156
 10
       15.00000
 20
        0.00000
 30
       76.00000
 11
       15.00000
 21
        0.00000
 31
       72.00000
 12
       17.00000
 22
        0.00000
 32
       72.00000
 13
       17.00000
 23
        0.00000
 33
       76.00000
  0
3DFACE
  8
1
 62
157
 10
       17.50000
 20
        0.00000
 30
       76.00000
 11
       17.50000
 21
        0.00000
 31
       72.00000
 12
       19.50000
 22
        0.00000
 32
       72.00000
 13
       19.50000
 23
        0.00000
 33
       76.00000
  0
3DFACE
  8
1
 62
158
 10
       20.00000
 20
        0.00000
 30
       76.00000
 11
       20.00000
 21
        0.00000
 31
       72.00000
 12
       22.00000
 22
        0.00000
 32
       72.00000
 13
       22.00000
 23
        0.00000
 33
       76.00000
  0
3DFACE
  8
1
 62
159
 10
       22.50000
 20
        0.00000
 30
       76.00000
 11
       22.50000
 21
        0.00000
 31
       72.00000
 12
       24.50000
 22
        0.00000
 32
       72.00000
 13
       24.50000
 23
        0.00000
 33
       76.00000
  0
3DFACE
  8
1
 62
160
 10
        0.00000
 20
        0.00000
 30
       80.50000
 11
        0.00000
 21
        0.00000
 31
       76.50000
 12
        2.00000
 22
        0.00000
 32
       76.50000
 13
        2.00000
 23
        0.00000
 33
       80.50000
  0
3DFACE
  8
1
 62
161
 10
        2.50000
 20
        0.00000
 30
       80.50000
 11
        2.50000
 21
        0.00000
 31
       76.50000
 12
        4.50000
 22
        0.00000
 32
       76.50000
 13
        4.50000
 23
        0.00000
 33
       80.50000
  0
3DFACE
  8
1
 62
162
 10
        5.00000
 20
        0.00000
 30
       80.50000
 11
        5.00000
 21
        0.00000
 31
       76.50000
 12
        7.00000
 22
        0.00000
 32
       76.50000
 13
        7.00000
 23
        0.00000
 33
       80.50000
  0
3DFACE
  8
1
 62
163
 10
        7.50000
 20
        0.00000
 30
       80.50000
 11
        7.50000
 21
        0.00000
 31
       76.50000
 12
        9.50000
 22
        0.00000
 32
       76.50000
 13
        9.50000
 23
        0.00000
 33
       80.50000
  0
3DFACE
  8
1
 62
164
 10
       10.00000
 20
        0.00000
 30
       80.50000
 11
       10.00000
 21
        0.00000
 31
       76.50000
 12
       12.00000
 22
        0.00000
 32
       76.50000
 13
       12.00000
 23
        0.00000
 33
       80.50000
  0
3DFACE
  8
1
 62
165
 10
       12.50000
 20
        0.00000
 30
       80.50000
 11
       12.50000
 21
        0.00000
 31
       76.50000
 12
       14.50000
 22
        0.00000
 32
       76.50000
 13
       14.50000
 23
        0.00000
 33
       80.50000
  0
3DFACE
  8
1
 62
166
 10
       15.00000
 20
        0.00000
 30
       80.50000
 11
       15.00000
 21
        0.00000
 31
       76.50000
 12
       17.00000
 22
        0.00000
 32
       76.50000
 13
       17.00000
 23
        0.00000
 33
       80.50000
  0
3DFACE
  8
1
 62
167
 10
       17.50000
 20
        0.00000
 30
       80.50000
 11
       17.50000
 21
        0.00000
 31
       76.50000
 12
       19.50000
 22
        0.00000
 32
       76.50000
 13
       19.50000
 23
        0.00000
 33
       80.50000
  0
3DFACE
  8
1
 62
168
 10
       20.00000
 20
        0.00000
 30
       80.50000
 11
       20.00000
 21
        0.00000
 31
       76.50000
 12
       22.00000
 22
        0.00000
 32
       76.50000
 13
       22.00000
 23
        0.00000
 33
       80.50000
  0
3DFACE
  8
1
 62
169
 10
       22.50000
 20
        0.00000
 30
       80.50000
 11
       22.50000
 21
        0.00000
 31
       76.50000
 12
       24.50000
 22
        0.00000
 32
       76.50000
 13
       24.50000
 23
        0.00000
 33
       80.50000
  0
3DFACE
  8
1
 62
170
 10
        0.00000
 20
        0.00000
 30
       85.00000
 11
        0.00000
 21
        0.00000
 31
       81.00000
 12
        2.00000
 22
        0.00000
 32
       81.00000
 13
        2.00000
 23
        0.00000
 33
       85.00000
  0
3DFACE
  8
1
 62
171
 10
        2.50000
 20
        0.00000
 30
       85.00000
 11
        2.50000
 21
        0.00000
 31
       81.00000
 12
        4.50000
 22
        0.00000
 32
       81.00000
 13
        4.50000
 23
        0.00000
 33
       85.00000
  0
3DFACE
  8
1
 62
172
 10
        5.00000
 20
        0.00000
 30
       85.00000
 11
        5.00000
 21
        0.00000
 31
       81.00000
 12
        7.00000
 22
        0.00000
 32
       81.00000
 13
        7.00000
 23
        0.00000
 33
       85.00000
  0
3DFACE
  8
1
 62
173
 10
        7.50000
 20
        0.00000
 30
       85.00000
 11
        7.50000
 21
        0.00000
 31
       81.00000
 12
        9.50000
 22
        0.00000
 32
       81.00000
 13
        9.50000
 23
        0.00000
 33
       85.00000
  0
3DFACE
  8
1
 62
174
 10
       10.00000
 20
        0.00000
 30
       85.00000
 11
       10.00000
 21
        0.00000
 31
       81.00000
 12
       12.00000
 22
        0.00000
 32
       81.00000
 13
       12.00000
 23
        0.00000
 33
       85.00000
  0
3DFACE
  8
1
 62
175
 10
       12.50000
 20
        0.00000
 30
       85.00000
 11
       12.50000
 21
        0.00000
 31
       81.00000
 12
       14.50000
 22
        0.00000
 32
       81.00000
 13
       14.50000
 23
        0.00000
 33
       85.00000
  0
3DFACE
  8
1
 62
176
 10
       15.00000
 20
        0.00000
 30
       85.00000
 11
       15.00000
 21
        0.00000
 31
       81.00000
 12
       17.00000
 22
        0.00000
 32
       81.00000
 13
       17.00000
 23
        0.00000
 33
       85.00000
  0
3DFACE
  8
1
 62
177
 10
       17.50000
 20
        0.00000
 30
       85.00000
 11
       17.50000
 21
        0.00000
 31
       81.00000
 12
       19.50000
 22
        0.00000
 32
       81.00000
 13
       19.50000
 23
        0.00000
 33
       85.00000
  0
3DFACE
  8
1
 62
178
 10
       20.00000
 20
        0.00000
 30
       85.00000
 11
       20.00000
 21
        0.00000
 31
       81.00000
 12
       22.00000
 22
        0.00000
 32
       81.00000
 13
       22.00000
 23
        0.00000
 33
       85.00000
  0
3DFACE
  8
1
 62
179
 10
       22.50000
 20
        0.00000
 30
       85.00000
 11
       22.50000
 21
        0.00000
 31
       81.00000
 12
       24.50000
 22
        0.00000
 32
       81.00000
 13
       24.50000
 23
        0.00000
 33
       85.00000
  0
3DFACE
  8
1
 62
180
 10
        0.00000
 20
        0.00000
 30
       89.50000
 11
        0.00000
 21
        0.00000
 31
       85.50000
 12
        2.00000
 22
        0.00000
 32
       85.50000
 13
        2.00000
 23
        0.00000
 33
       89.50000
  0
3DFACE
  8
1
 62
181
 10
        2.50000
 20
        0.00000
 30
       89.50000
 11
        2.50000
 21
        0.00000
 31
       85.50000
 12
        4.50000
 22
        0.00000
 32
       85.50000
 13
        4.50000
 23
        0.00000
 33
       89.50000
  0
3DFACE
  8
1
 62
182
 10
        5.00000
 20
        0.00000
 30
       89.50000
 11
        5.00000
 21
        0.00000
 31
       85.50000
 12
        7.00000
 22
        0.00000
 32
       85.50000
 13
        7.00000
 23
        0.00000
 33
       89.50000
  0
3DFACE
  8
1
 62
183
 10
        7.50000
 20
        0.00000
 30
       89.50000
 11
        7.50000
 21
        0.00000
 31
       85.50000
 12
        9.50000
 22
        0.00000
 32
       85.50000
 13
        9.50000
 23
        0.00000
 33
       89.50000
  0
3DFACE
  8
1
 62
184
 10
       10.00000
 20
        0.00000
 30
       89.50000
 11
       10.00000
 21
        0.00000
 31
       85.50000
 12
       12.00000
 22
        0.00000
 32
       85.50000
 13
       12.00000
 23
        0.00000
 33
       89.50000
  0
3DFACE
  8
1
 62
185
 10
       12.50000
 20
        0.00000
 30
       89.50000
 11
       12.50000
 21
        0.00000
 31
       85.50000
 12
       14.50000
 22
        0.00000
 32
       85.50000
 13
       14.50000
 23
        0.00000
 33
       89.50000
  0
3DFACE
  8
1
 62
186
 10
       15.00000
 20
        0.00000
 30
       89.50000
 11
       15.00000
 21
        0.00000
 31
       85.50000
 12
       17.00000
 22
        0.00000
 32
       85.50000
 13
       17.00000
 23
        0.00000
 33
       89.50000
  0
3DFACE
  8
1
 62
187
 10
       17.50000
 20
        0.00000
 30
       89.50000
 11
       17.50000
 21
        0.00000
 31
       85.50000
 12
       19.50000
 22
        0.00000
 32
       85.50000
 13
       19.50000
 23
        0.00000
 33
       89.50000
  0
3DFACE
  8
1
 62
188
 10
       20.00000
 20
        0.00000
 30
       89.50000
 11
       20.00000
 21
        0.00000
 31
       85.50000
 12
       22.00000
 22
        0.00000
 32
       85.50000
 13
       22.00000
 23
        0.00000
 33
       89.50000
  0
3DFACE
  8
1
 62
189
 10
       22.50000
 20
        0.00000
 30
       89.50000
 11
       22.50000
 21
        0.00000
 31
       85.50000
 12
       24.50000
 22
        0.00000
 32
       85.50000
 13
       24.50000
 23
        0.00000
 33
       89.50000
  0
3DFACE
  8
1
 62
190
 10
        0.00000
 20
        0.00000
 30
       94.00000
 11
        0.00000
 21
        0.00000
 31
       90.00000
 12
        2.00000
 22
        0.00000
 32
       90.00000
 13
        2.00000
 23
        0.00000
 33
       94.00000
  0
3DFACE
  8
1
 62
191
 10
        2.50000
 20
        0.00000
 30
       94.00000
 11
        2.50000
 21
        0.00000
 31
       90.00000
 12
        4.50000
 22
        0.00000
 32
       90.00000
 13
        4.50000
 23
        0.00000
 33
       94.00000
  0
3DFACE
  8
1
 62
192
 10
        5.00000
 20
        0.00000
 30
       94.00000
 11
        5.00000
 21
        0.00000
 31
       90.00000
 12
        7.00000
 22
        0.00000
 32
       90.00000
 13
        7.00000
 23
        0.00000
 33
       94.00000
  0
3DFACE
  8
1
 62
193
 10
        7.50000
 20
        0.00000
 30
       94.00000
 11
        7.50000
 21
        0.00000
 31
       90.00000
 12
        9.50000
 22
        0.00000
 32
       90.00000
 13
        9.50000
 23
        0.00000
 33
       94.00000
  0
3DFACE
  8
1
 62
194
 10
       10.00000
 20
        0.00000
 30
       94.00000
 11
       10.00000
 21
        0.00000
 31
       90.00000
 12
       12.00000
 22
        0.00000
 32
       90.00000
 13
       12.00000
 23
        0.00000
 33
       94.00000
  0
3DFACE
  8
1
 62
195
 10
       12.50000
 20
        0.00000
 30
       94.00000
 11
       12.50000
 21
        0.00000
 31
       90.00000
 12
       14.50000
 22
        0.00000
 32
       90.00000
 13
       14.50000
 23
        0.00000
 33
       94.00000
  0
3DFACE
  8
1
 62
196
 10
       15.00000
 20
        0.00000
 30
       94.00000
 11
       15.00000
 21
        0.00000
 31
       90.00000
 12
       17.00000
 22
        0.00000
 32
       90.00000
 13
       17.00000
 23
        0.00000
 33
       94.00000
  0
3DFACE
  8
1
 62
197
 10
       17.50000
 20
        0.00000
 30
       94.00000
 11
       17.50000
 21
        0.00000
 31
       90.00000
 12
       19.50000
 22
        0.00000
 32
       90.00000
 13
       19.50000
 23
        0.00000
 33
       94.00000
  0
3DFACE
  8
1
 62
198
 10
       20.00000
 20
        0.00000
 30
       94.00000
 11
       20.00000
 21
        0.00000
 31
       90.00000
 12
       22.00000
 22
        0.00000
 32
       90.00000
 13
       22.00000
 23
        0.00000
 33
       94.00000
  0
3DFACE
  8
1
 62
199
 10
       22.50000
 20
        0.00000
 30
       94.00000
 11
       22.50000
 21
        0.00000
 31
       90.00000
 12
       24.50000
 22
        0.00000
 32
       90.00000
 13
       24.50000
 23
        0.00000
 33
       94.00000
  0
3DFACE
  8
1
 62
200
 10
        0.00000
 20
        0.00000
 30
       98.50000
 11
        0.00000
 21
        0.00000
 31
       94.50000
 12
        2.00000
 22
        0.00000
 32
       94.50000
 13
        2.00000
 23
        0.00000
 33
       98.50000
  0
3DFACE
  8
1
 62
201
 10
        2.50000
 20
        0.00000
 30
       98.50000
 11
        2.50000
 21
        0.00000
 31
       94.50000
 12
        4.50000
 22
        0.00000
 32
       94.50000
 13
        4.50000
 23
        0.00000
 33
       98.50000
  0
3DFACE
  8
1
 62
202
 10
        5.00000
 20
        0.00000
 30
       98.50000
 11
        5.00000
 21
        0.00000
 31
       94.50000
 12
        7.00000
 22
        0.00000
 32
       94.50000
 13
        7.00000
 23
        0.00000
 33
       98.50000
  0
3DFACE
  8
1
 62
203
 10
        7.50000
 20
        0.00000
 30
       98.50000
 11
        7.50000
 21
        0.00000
 31
       94.50000
 12
        9.50000
 22
        0.00000
 32
       94.50000
 13
        9.50000
 23
        0.00000
 33
       98.50000
  0
3DFACE
  8
1
 62
204
 10
       10.00000
 20
        0.00000
 30
       98.50000
 11
       10.00000
 21
        0.00000
 31
       94.50000
 12
       12.00000
 22
        0.00000
 32
       94.50000
 13
       12.00000
 23
        0.00000
 33
       98.50000
  0
3DFACE
  8
1
 62
205
 10
       12.50000
 20
        0.00000
 30
       98.50000
 11
       12.50000
 21
        0.00000
 31
       94.50000
 12
       14.50000
 22
        0.00000
 32
       94.50000
 13
       14.50000
 23
        0.00000
 33
       98.50000
  0
3DFACE
  8
1
 62
206
 10
       15.00000
 20
        0.00000
 30
       98.50000
 11
       15.00000
 21
        0.00000
 31
       94.50000
 12
       17.00000
 22
        0.00000
 32
       94.50000
 13
       17.00000
 23
        0.00000
 33
       98.50000
  0
3DFACE
  8
1
 62
207
 10
       17.50000
 20
        0.00000
 30
       98.50000
 11
       17.50000
 21
        0.00000
 31
       94.50000
 12
       19.50000
 22
        0.00000
 32
       94.50000
 13
       19.50000
 23
        0.00000
 33
       98.50000
  0
3DFACE
  8
1
 62
208
 10
       20.00000
 20
        0.00000
 30
       98.50000
 11
       20.00000
 21
        0.00000
 31
       94.50000
 12
       22.00000
 22
        0.00000
 32
       94.50000
 13
       22.00000
 23
        0.00000
 33
       98.50000
  0
3DFACE
  8
1
 62
209
 10
       22.50000
 20
        0.00000
 30
       98.50000
 11
       22.50000
 21
        0.00000
 31
       94.50000
 12
       24.50000
 22
        0.00000
 32
       94.50000
 13
       24.50000
 23
        0.00000
 33
       98.50000
  0
3DFACE
  8
1
 62
210
 10
        0.00000
 20
        0.00000
 30
      103.00000
 11
        0.00000
 21
        0.00000
 31
       99.00000
 12
        2.00000
 22
        0.00000
 32
       99.00000
 13
        2.00000
 23
        0.00000
 33
      103.00000
  0
3DFACE
  8
1
 62
211
 10
        2.50000
 20
        0.00000
 30
      103.00000
 11
        2.50000
 21
        0.00000
 31
       99.00000
 12
        4.50000
 22
        0.00000
 32
       99.00000
 13
        4.50000
 23
        0.00000
 33
      103.00000
  0
3DFACE
  8
1
 62
212
 10
        5.00000
 20
        0.00000
 30
      103.00000
 11
        5.00000
 21
        0.00000
 31
       99.00000
 12
        7.00000
 22
        0.00000
 32
       99.00000
 13
        7.00000
 23
        0.00000
 33
      103.00000
  0
3DFACE
  8
1
 62
213
 10
        7.50000
 20
        0.00000
 30
      103.00000
 11
        7.50000
 21
        0.00000
 31
       99.00000
 12
        9.50000
 22
        0.00000
 32
       99.00000
 13
        9.50000
 23
        0.00000
 33
      103.00000
  0
3DFACE
  8
1
 62
214
 10
       10.00000
 20
        0.00000
 30
      103.00000
 11
       10.00000
 21
        0.00000
 31
       99.00000
 12
       12.00000
 22
        0.00000
 32
       99.00000
 13
       12.00000
 23
        0.00000
 33
      103.00000
  0
3DFACE
  8
1
 62
215
 10
       12.50000
 20
        0.00000
 30
      103.00000
 11
       12.50000
 21
        0.00000
 31
       99.00000
 12
       14.50000
 22
        0.00000
 32
       99.00000
 13
       14.50000
 23
        0.00000
 33
      103.00000
  0
3DFACE
  8
1
 62
216
 10
       15.00000
 20
        0.00000
 30
      103.00000
 11
       15.00000
 21
        0.00000
 31
       99.00000
 12
       17.00000
 22
        0.00000
 32
       99.00000
 13
       17.00000
 23
        0.00000
 33
      103.00000
  0
3DFACE
  8
1
 62
217
 10
       17.50000
 20
        0.00000
 30
      103.00000
 11
       17.50000
 21
        0.00000
 31
       99.00000
 12
       19.50000
 22
        0.00000
 32
       99.00000
 13
       19.50000
 23
        0.00000
 33
      103.00000
  0
3DFACE
  8
1
 62
218
 10
       20.00000
 20
        0.00000
 30
      103.00000
 11
       20.00000
 21
        0.00000
 31
       99.00000
 12
       22.00000
 22
        0.00000
 32
       99.00000
 13
       22.00000
 23
        0.00000
 33
      103.00000
  0
3DFACE
  8
1
 62
219
 10
       22.50000
 20
        0.00000
 30
      103.00000
 11
       22.50000
 21
        0.00000
 31
       99.00000
 12
       24.50000
 22
        0.00000
 32
       99.00000
 13
       24.50000
 23
        0.00000
 33
      103.00000
  0
3DFACE
  8
1
 62
220
 10
        0.00000
 20
        0.00000
 30
      107.50000
 11
        0.00000
 21
        0.00000
 31
      103.50000
 12
        2.00000
 22
        0.00000
 32
      103.50000
 13
        2.00000
 23
        0.00000
 33
      107.50000
  0
3DFACE
  8
1
 62
221
 10
        2.50000
 20
        0.00000
 30
      107.50000
 11
        2.50000
 21
        0.00000
 31
      103.50000
 12
        4.50000
 22
        0.00000
 32
      103.50000
 13
        4.50000
 23
        0.00000
 33
      107.50000
  0
3DFACE
  8
1
 62
222
 10
        5.00000
 20
        0.00000
 30
      107.50000
 11
        5.00000
 21
        0.00000
 31
      103.50000
 12
        7.00000
 22
        0.00000
 32
      103.50000
 13
        7.00000
 23
        0.00000
 33
      107.50000
  0
3DFACE
  8
1
 62
223
 10
        7.50000
 20
        0.00000
 30
      107.50000
 11
        7.50000
 21
        0.00000
 31
      103.50000
 12
        9.50000
 22
        0.00000
 32
      103.50000
 13
        9.50000
 23
        0.00000
 33
      107.50000
  0
3DFACE
  8
1
 62
224
 10
       10.00000
 20
        0.00000
 30
      107.50000
 11
       10.00000
 21
        0.00000
 31
      103.50000
 12
       12.00000
 22
        0.00000
 32
      103.50000
 13
       12.00000
 23
        0.00000
 33
      107.50000
  0
3DFACE
  8
1
 62
225
 10
       12.50000
 20
        0.00000
 30
      107.50000
 11
       12.50000
 21
        0.00000
 31
      103.50000
 12
       14.50000
 22
        0.00000
 32
      103.50000
 13
       14.50000
 23
        0.00000
 33
      107.50000
  0
3DFACE
  8
1
 62
226
 10
       15.00000
 20
        0.00000
 30
      107.50000
 11
       15.00000
 21
        0.00000
 31
      103.50000
 12
       17.00000
 22
        0.00000
 32
      103.50000
 13
       17.00000
 23
        0.00000
 33
      107.50000
  0
3DFACE
  8
1
 62
227
 10
       17.50000
 20
        0.00000
 30
      107.50000
 11
       17.50000
 21
        0.00000
 31
      103.50000
 12
       19.50000
 22
        0.00000
 32
      103.50000
 13
       19.50000
 23
        0.00000
 33
      107.50000
  0
3DFACE
  8
1
 62
228
 10
       20.00000
 20
        0.00000
 30
      107.50000
 11
       20.00000
 21
        0.00000
 31
      103.50000
 12
       22.00000
 22
        0.00000
 32
      103.50000
 13
       22.00000
 23
        0.00000
 33
      107.50000
  0
3DFACE
  8
1
 62
229
 10
       22.50000
 20
        0.00000
 30
      107.50000
 11
       22.50000
 21
        0.00000
 31
      103.50000
 12
       24.50000
 22
        0.00000
 32
      103.50000
 13
       24.50000
 23
        0.00000
 33
      107.50000
  0
3DFACE
  8
1
 62
230
 10
        0.00000
 20
        0.00000
 30
      112.00000
 11
        0.00000
 21
        0.00000
 31
      108.00000
 12
        2.00000
 22
        0.00000
 32
      108.00000
 13
        2.00000
 23
        0.00000
 33
      112.00000
  0
3DFACE
  8
1
 62
231
 10
        2.50000
 20
        0.00000
 30
      112.00000
 11
        2.50000
 21
        0.00000
 31
      108.00000
 12
        4.50000
 22
        0.00000
 32
      108.00000
 13
        4.50000
 23
        0.00000
 33
      112.00000
  0
3DFACE
  8
1
 62
232
 10
        5.00000
 20
        0.00000
 30
      112.00000
 11
        5.00000
 21
        0.00000
 31
      108.00000
 12
        7.00000
 22
        0.00000
 32
      108.00000
 13
        7.00000
 23
        0.00000
 33
      112.00000
  0
3DFACE
  8
1
 62
233
 10
        7.50000
 20
        0.00000
 30
      112.00000
 11
        7.50000
 21
        0.00000
 31
      108.00000
 12
        9.50000
 22
        0.00000
 32
      108.00000
 13
        9.50000
 23
        0.00000
 33
      112.00000
  0
3DFACE
  8
1
 62
234
 10
       10.00000
 20
        0.00000
 30
      112.00000
 11
       10.00000
 21
        0.00000
 31
      108.00000
 12
       12.00000
 22
        0.00000
 32
      108.00000
 13
       12.00000
 23
        0.00000
 33
      112.00000
  0
3DFACE
  8
1
 62
235
 10
       12.50000
 20
        0.00000
 30
      112.00000
 11
       12.50000
 21
        0.00000
 31
      108.00000
 12
       14.50000
 22
        0.00000
 32
      108.00000
 13
       14.50000
 23
        0.00000
 33
      112.00000
  0
3DFACE
  8
1
 62
236
 10
       15.00000
 20
        0.00000
 30
      112.00000
 11
       15.00000
 21
        0.00000
 31
      108.00000
 12
       17.00000
 22
        0.00000
 32
      108.00000
 13
       17.00000
 23
        0.00000
 33
      112.00000
  0
3DFACE
  8
1
 62
237
 10
       17.50000
 20
        0.00000
 30
      112.00000
 11
       17.50000
 21
        0.00000
 31
      108.00000
 12
       19.50000
 22
        0.00000
 32
      108.00000
 13
       19.50000
 23
        0.00000
 33
      112.00000
  0
3DFACE
  8
1
 62
238
 10
       20.00000
 20
        0.00000
 30
      112.00000
 11
       20.00000
 21
        0.00000
 31
      108.00000
 12
       22.00000
 22
        0.00000
 32
      108.00000
 13
       22.00000
 23
        0.00000
 33
      112.00000
  0
3DFACE
  8
1
 62
239
 10
       22.50000
 20
        0.00000
 30
      112.00000
 11
       22.50000
 21
        0.00000
 31
      108.00000
 12
       24.50000
 22
        0.00000
 32
      108.00000
 13
       24.50000
 23
        0.00000
 33
      112.00000
  0
3DFACE
  8
1
 62
240
 10
        0.00000
 20
        0.00000
 30
      116.50000
 11
        0.00000
 21
        0.00000
 31
      112.50000
 12
        2.00000
 22
        0.00000
 32
      112.50000
 13
        2.00000
 23
        0.00000
 33
      116.50000
  0
3DFACE
  8
1
 62
241
 10
        2.50000
 20
        0.00000
 30
      116.50000
 11
        2.50000
 21
        0.00000
 31
      112.50000
 12
        4.50000
 22
        0.00000
 32
      112.50000
 13
        4.50000
 23
        0.00000
 33
      116.50000
  0
3DFACE
  8
1
 62
242
 10
        5.00000
 20
        0.00000
 30
      116.50000
 11
        5.00000
 21
        0.00000
 31
      112.50000
 12
        7.00000
 22
        0.00000
 32
      112.50000
 13
        7.00000
 23
        0.00000
 33
      116.50000
  0
3DFACE
  8
1
 62
243
 10
        7.50000
 20
        0.00000
 30
      116.50000
 11
        7.50000
 21
        0.00000
 31
      112.50000
 12
        9.50000
 22
        0.00000
 32
      112.50000
 13
        9.50000
 23
        0.00000
 33
      116.50000
  0
3DFACE
  8
1
 62
244
 10
       10.00000
 20
        0.00000
 30
      116.50000
 11
       10.00000
 21
        0.00000
 31
      112.50000
 12
       12.00000
 22
        0.00000
 32
      112.50000
 13
       12.00000
 23
        0.00000
 33
      116.50000
  0
3DFACE
  8
1
 62
245
 10
       12.50000
 20
        0.00000
 30
      116.50000
 11
       12.50000
 21
        0.00000
 31
      112.50000
 12
       14.50000
 22
        0.00000
 32
      112.50000
 13
       14.50000
 23
        0.00000
 33
      116.50000
  0
3DFACE
  8
1
 62
246
 10
       15.00000
 20
        0.00000
 30
      116.50000
 11
       15.00000
 21
        0.00000
 31
      112.50000
 12
       17.00000
 22
        0.00000
 32
      112.50000
 13
       17.00000
 23
        0.00000
 33
      116.50000
  0
3DFACE
  8
1
 62
247
 10
       17.50000
 20
        0.00000
 30
      116.50000
 11
       17.50000
 21
        0.00000
 31
      112.50000
 12
       19.50000
 22
        0.00000
 32
      112.50000
 13
       19.50000
 23
        0.00000
 33
      116.50000
  0
3DFACE
  8
1
 62
248
 10
       20.00000
 20
        0.00000
 30
      116.50000
 11
       20.00000
 21
        0.00000
 31
      112.50000
 12
       22.00000
 22
        0.00000
 32
      112.50000
 13
       22.00000
 23
        0.00000
 33
      116.50000
  0
3DFACE
  8
1
 62
249
 10
       22.50000
 20
        0.00000
 30
      116.50000
 11
       22.50000
 21
        0.00000
 31
      112.50000
 12
       24.50000
 22
        0.00000
 32
      112.50000
 13
       24.50000
 23
        0.00000
 33
      116.50000
  0
3DFACE
  8
1
 62
250
 10
        0.00000
 20
        0.00000
 30
      121.00000
 11
        0.00000
 21
        0.00000
 31
      117.00000
 12
        2.00000
 22
        0.00000
 32
      117.00000
 13
        2.00000
 23
        0.00000
 33
      121.00000
  0
3DFACE
  8
1
 62
251
 10
        2.50000
 20
        0.00000
 30
      121.00000
 11
        2.50000
 21
        0.00000
 31
      117.00000
 12
        4.50000
 22
        0.00000
 32
      117.00000
 13
        4.50000
 23
        0.00000
 33
      121.00000
  0
3DFACE
  8
1
 62
252
 10
        5.00000
 20
        0.00000
 30
      121.00000
 11
        5.00000
 21
        0.00000
 31
      117.00000
 12
        7.00000
 22
        0.00000
 32
      117.00000
 13
        7.00000
 23
        0.00000
 33
      121.00000
  0
3DFACE
  8
1
 62
253
 10
        7.50000
 20
        0.00000
 30
      121.00000
 11
        7.50000
 21
        0.00000
 31
      117.00000
 12
        9.50000
 22
        0.00000
 32
      117.00000
 13
        9.50000
 23
        0.00000
 33
      121.00000
  0
3DFACE
  8
1
 62
254
 10
       10.00000
 20
        0.00000
 30
      121.00000
 11
       10.00000
 21
        0.00000
 31
      117.00000
 12
       12.00000
 22
        0.00000
 32
      117.00000
 13
       12.00000
 23
        0.00000
 33
      121.00000
  0
3DFACE
  8
1
 62
255
 10
       12.50000
 20
        0.00000
 30
      121.00000
 11
       12.50000
 21
        0.00000
 31
      117.00000
 12
       14.50000
 22
        0.00000
 32
      117.00000
 13
       14.50000
 23
        0.00000
 33
      121.00000
  0
ENDSEC
  0
EOF
