<?xml version="1.0" encoding="iso-8859-1"?>
<!-- Generator: Adobe Illustrator 16.0.3, SVG Export Plug-In . SVG Version: 6.00 Build 0)  -->
<!DOCTYPE svg PUBLIC "-//W3C//DTD SVG 1.1//EN" "http://www.w3.org/Graphics/SVG/1.1/DTD/svg11.dtd">
<svg version="1.1" id="Layer_1" xmlns="http://www.w3.org/2000/svg" xmlns:xlink="http://www.w3.org/1999/xlink" x="0px" y="0px"
	 width="468px" height="234.62px" viewBox="0 0 468 234.62" style="enable-background:new 0 0 468 234.62;" xml:space="preserve">
<g>
	<g>
		<defs>
			<rect id="SVGID_1_" width="468" height="231.24"/>
		</defs>
		<clipPath id="SVGID_2_">
			<use xlink:href="#SVGID_1_"  style="overflow:visible;"/>
		</clipPath>
		<g style="clip-path:url(#SVGID_2_);">
		</g>
	</g>
	<polygon style="fill:none;stroke:#000000;stroke-width:0.12;stroke-linecap:round;stroke-miterlimit:8;" points="141.95,56.15 
		141.95,211.25 147.85,211.25 147.85,56.15 141.95,56.15 	"/>
	<g>
		<defs>
			<polygon id="SVGID_3_" points="216.48,203.16 220.08,203.16 220.08,225 216.48,225 216.48,203.16 			"/>
		</defs>
		<clipPath id="SVGID_4_">
			<use xlink:href="#SVGID_3_"  style="overflow:visible;"/>
		</clipPath>
		<g style="clip-path:url(#SVGID_4_);">
			<defs>
				<rect id="SVGID_5_" x="216.48" y="203.16" width="3.6" height="21.84"/>
			</defs>
			<clipPath id="SVGID_6_">
				<use xlink:href="#SVGID_5_"  style="overflow:visible;"/>
			</clipPath>
			<g style="clip-path:url(#SVGID_6_);">
				<path d="M219.81,217.64l-1.04,4.57c-0.05,0.17-0.07,0.3-0.07,0.4c0,0.11,0.03,0.21,0.08,0.27c0.06,0.07,0.13,0.1,0.21,0.1
					c0.1,0,0.19-0.04,0.28-0.12c0.14-0.12,0.32-0.33,0.54-0.64l0.38,0.33c-0.21,0.31-0.45,0.56-0.72,0.73s-0.53,0.26-0.77,0.26
					c-0.26,0-0.48-0.09-0.66-0.28s-0.27-0.4-0.27-0.65c0-0.17,0.03-0.39,0.1-0.65l0.76-3.36h-1.33l0.12-0.49
					c0.33-0.02,0.62-0.06,0.9-0.12c0.27-0.07,0.6-0.18,0.99-0.34H219.81z M219.7,214.84c0.17,0,0.31,0.06,0.42,0.17
					s0.17,0.26,0.17,0.44c0,0.2-0.07,0.38-0.21,0.52s-0.31,0.22-0.5,0.22c-0.17,0-0.32-0.06-0.44-0.18s-0.18-0.26-0.18-0.43
					c0-0.2,0.07-0.37,0.22-0.52S219.5,214.84,219.7,214.84z"/>
			</g>
		</g>
		<g style="clip-path:url(#SVGID_4_);">
			<defs>
				<rect id="SVGID_7_" x="216.48" y="203.16" width="3.6" height="21.84"/>
			</defs>
			<clipPath id="SVGID_8_">
				<use xlink:href="#SVGID_7_"  style="overflow:visible;"/>
			</clipPath>
			<g style="clip-path:url(#SVGID_8_);">
			</g>
		</g>
	</g>
	<g>
		<defs>
			<polygon id="SVGID_9_" points="99.84,113.76 124.2,113.76 124.2,139.44 99.84,139.44 99.84,113.76 			"/>
		</defs>
		<clipPath id="SVGID_10_">
			<use xlink:href="#SVGID_9_"  style="overflow:visible;"/>
		</clipPath>
		<g style="clip-path:url(#SVGID_10_);">
			<defs>
				<rect id="SVGID_11_" x="99.84" y="113.76" width="24.36" height="25.68"/>
			</defs>
			<clipPath id="SVGID_12_">
				<use xlink:href="#SVGID_11_"  style="overflow:visible;"/>
			</clipPath>
			<g style="clip-path:url(#SVGID_12_);">
				<path d="M106.42,132.99c0,0.31-0.11,0.57-0.32,0.78c-0.21,0.21-0.47,0.32-0.77,0.32c-0.3,0-0.56-0.11-0.77-0.32
					s-0.32-0.47-0.32-0.78c0-0.3,0.11-0.56,0.32-0.77s0.47-0.32,0.77-0.32c0.3,0,0.56,0.11,0.77,0.32
					C106.31,132.43,106.42,132.69,106.42,132.99z M113.1,132.99c0,0.31-0.11,0.57-0.32,0.78s-0.47,0.32-0.77,0.32
					c-0.3,0-0.56-0.11-0.77-0.32s-0.32-0.47-0.32-0.78c0-0.3,0.11-0.56,0.32-0.77s0.47-0.32,0.77-0.32c0.3,0,0.56,0.11,0.77,0.32
					S113.1,132.69,113.1,132.99z M119.79,132.99c0,0.31-0.11,0.57-0.32,0.78s-0.47,0.32-0.77,0.32c-0.3,0-0.56-0.11-0.77-0.32
					s-0.32-0.47-0.32-0.78c0-0.3,0.11-0.56,0.32-0.77s0.47-0.32,0.77-0.32c0.3,0,0.56,0.11,0.77,0.32S119.79,132.69,119.79,132.99z"
					/>
			</g>
		</g>
		<g style="clip-path:url(#SVGID_10_);">
			<defs>
				<rect id="SVGID_13_" x="99.84" y="113.76" width="24.36" height="25.68"/>
			</defs>
			<clipPath id="SVGID_14_">
				<use xlink:href="#SVGID_13_"  style="overflow:visible;"/>
			</clipPath>
			<g style="clip-path:url(#SVGID_14_);">
			</g>
		</g>
	</g>
	<g>
		<defs>
			<polygon id="SVGID_15_" points="308.64,113.76 329.88,113.76 329.88,142.08 308.64,142.08 308.64,113.76 			"/>
		</defs>
		<clipPath id="SVGID_16_">
			<use xlink:href="#SVGID_15_"  style="overflow:visible;"/>
		</clipPath>
		<g style="clip-path:url(#SVGID_16_);">
			<defs>
				<rect id="SVGID_17_" x="308.64" y="113.76" width="21.24" height="28.32"/>
			</defs>
			<clipPath id="SVGID_18_">
				<use xlink:href="#SVGID_17_"  style="overflow:visible;"/>
			</clipPath>
			<g style="clip-path:url(#SVGID_18_);">
				<path d="M313.06,133.1c0,0.31-0.11,0.57-0.32,0.78s-0.47,0.32-0.77,0.32c-0.3,0-0.56-0.11-0.77-0.32s-0.32-0.47-0.32-0.78
					c0-0.3,0.11-0.56,0.32-0.77s0.47-0.32,0.77-0.32c0.3,0,0.56,0.11,0.77,0.32S313.06,132.8,313.06,133.1z M319.74,133.1
					c0,0.31-0.11,0.57-0.32,0.78s-0.47,0.32-0.77,0.32c-0.3,0-0.56-0.11-0.77-0.32s-0.32-0.47-0.32-0.78c0-0.3,0.11-0.56,0.32-0.77
					s0.47-0.32,0.77-0.32c0.3,0,0.56,0.11,0.77,0.32S319.74,132.8,319.74,133.1z M326.43,133.1c0,0.31-0.11,0.57-0.32,0.78
					s-0.47,0.32-0.77,0.32s-0.56-0.11-0.77-0.32c-0.21-0.21-0.32-0.47-0.32-0.78c0-0.3,0.11-0.56,0.32-0.77
					c0.21-0.21,0.47-0.32,0.77-0.32s0.56,0.11,0.77,0.32S326.43,132.8,326.43,133.1z"/>
			</g>
		</g>
		<g style="clip-path:url(#SVGID_16_);">
			<defs>
				<rect id="SVGID_19_" x="308.64" y="113.76" width="21.24" height="28.32"/>
			</defs>
			<clipPath id="SVGID_20_">
				<use xlink:href="#SVGID_19_"  style="overflow:visible;"/>
			</clipPath>
			<g style="clip-path:url(#SVGID_20_);">
			</g>
		</g>
	</g>
	<g>
		<defs>
			<polygon id="SVGID_21_" points="196.8,41.52 208.32,41.52 208.32,66.96 196.8,66.96 196.8,41.52 			"/>
		</defs>
		<clipPath id="SVGID_22_">
			<use xlink:href="#SVGID_21_"  style="overflow:visible;"/>
		</clipPath>
		<g style="clip-path:url(#SVGID_22_);">
			<defs>
				<rect id="SVGID_23_" x="196.8" y="41.52" width="11.52" height="25.44"/>
			</defs>
			<clipPath id="SVGID_24_">
				<use xlink:href="#SVGID_23_"  style="overflow:visible;"/>
			</clipPath>
			<g style="clip-path:url(#SVGID_24_);">
				<path d="M206.03,54.02h0.5l0.05,3.03h-0.67c-0.17-0.68-0.53-1.26-1.06-1.73s-1.19-0.71-1.99-0.71c-0.44,0-0.84,0.08-1.2,0.24
					s-0.62,0.37-0.81,0.63c-0.18,0.26-0.27,0.51-0.27,0.76c0,0.22,0.06,0.42,0.18,0.61c0.12,0.19,0.31,0.37,0.59,0.54
					c0.28,0.17,0.77,0.38,1.46,0.62c1.02,0.36,1.71,0.66,2.08,0.9c0.37,0.24,0.65,0.52,0.83,0.84c0.18,0.32,0.27,0.65,0.27,1.01
					c0,0.49-0.16,0.98-0.48,1.45s-0.76,0.84-1.33,1.12c-0.57,0.27-1.23,0.41-1.99,0.41c-0.6,0-1.13-0.08-1.58-0.25
					c-0.45-0.17-0.92-0.47-1.41-0.89l-0.58,0.98h-0.45l0.15-3.5h0.64c0.17,0.92,0.54,1.63,1.12,2.15c0.58,0.51,1.28,0.77,2.1,0.77
					c0.76,0,1.4-0.21,1.94-0.63c0.44-0.35,0.65-0.77,0.65-1.28c0-0.31-0.09-0.58-0.26-0.81c-0.17-0.23-0.47-0.46-0.9-0.67
					c-0.24-0.11-0.81-0.33-1.72-0.65c-0.86-0.31-1.45-0.62-1.78-0.95c-0.46-0.46-0.69-0.98-0.69-1.56c0-0.42,0.14-0.84,0.42-1.24
					c0.28-0.4,0.69-0.73,1.24-0.98c0.54-0.25,1.15-0.38,1.83-0.38c0.51,0,0.97,0.07,1.38,0.22c0.41,0.14,0.83,0.38,1.24,0.7
					L206.03,54.02z"/>
			</g>
		</g>
		<g style="clip-path:url(#SVGID_22_);">
			<defs>
				<rect id="SVGID_25_" x="196.8" y="41.52" width="11.52" height="25.44"/>
			</defs>
			<clipPath id="SVGID_26_">
				<use xlink:href="#SVGID_25_"  style="overflow:visible;"/>
			</clipPath>
			<g style="clip-path:url(#SVGID_26_);">
				<path d="M208.3,60.21l-0.78,3.42c-0.04,0.13-0.05,0.23-0.05,0.3c0,0.09,0.02,0.15,0.06,0.2c0.04,0.05,0.1,0.07,0.16,0.07
					c0.07,0,0.15-0.03,0.21-0.09c0.11-0.09,0.24-0.25,0.4-0.48l0.28,0.25c-0.16,0.23-0.34,0.42-0.54,0.55
					c-0.2,0.13-0.4,0.2-0.58,0.2c-0.2,0-0.36-0.07-0.5-0.21c-0.13-0.14-0.2-0.3-0.2-0.49c0-0.13,0.02-0.29,0.07-0.49l0.57-2.52h-1
					l0.09-0.37c0.24-0.01,0.47-0.04,0.67-0.09c0.2-0.05,0.45-0.13,0.74-0.26H208.3z M208.22,58.11c0.13,0,0.23,0.04,0.31,0.13
					c0.08,0.08,0.13,0.19,0.13,0.33c0,0.15-0.05,0.28-0.16,0.39c-0.11,0.11-0.23,0.16-0.37,0.16c-0.13,0-0.24-0.04-0.33-0.13
					c-0.09-0.09-0.14-0.2-0.14-0.32c0-0.15,0.06-0.28,0.17-0.39C207.94,58.17,208.07,58.11,208.22,58.11z"/>
			</g>
		</g>
		<g style="clip-path:url(#SVGID_22_);">
			<defs>
				<rect id="SVGID_27_" x="196.8" y="41.52" width="11.52" height="25.44"/>
			</defs>
			<clipPath id="SVGID_28_">
				<use xlink:href="#SVGID_27_"  style="overflow:visible;"/>
			</clipPath>
			<g style="clip-path:url(#SVGID_28_);">
			</g>
		</g>
	</g>
	<g>
		<defs>
			<polygon id="SVGID_29_" points="240.24,57.96 256.56,57.96 256.56,79.56 240.24,79.56 240.24,57.96 			"/>
		</defs>
		<clipPath id="SVGID_30_">
			<use xlink:href="#SVGID_29_"  style="overflow:visible;"/>
		</clipPath>
		<g style="clip-path:url(#SVGID_30_);">
			<defs>
				<rect id="SVGID_31_" x="240.24" y="57.96" width="16.32" height="21.6"/>
			</defs>
			<clipPath id="SVGID_32_">
				<use xlink:href="#SVGID_31_"  style="overflow:visible;"/>
			</clipPath>
			<g style="clip-path:url(#SVGID_32_);">
				<path d="M250.17,61.89l0.35,2.84l-0.67,0.13c-0.1-0.53-0.25-0.94-0.44-1.23c-0.2-0.29-0.44-0.5-0.72-0.63s-0.71-0.19-1.29-0.19
					c-0.15,0-0.24,0.02-0.29,0.07c-0.05,0.04-0.09,0.15-0.13,0.32l-1.62,7.09c-0.04,0.17-0.05,0.3-0.05,0.41
					c0,0.11,0.03,0.21,0.1,0.29c0.07,0.08,0.16,0.14,0.27,0.16c0.12,0.03,0.37,0.04,0.74,0.04l-0.12,0.58h-3.76l0.14-0.58
					c0.33,0,0.56-0.02,0.72-0.04c0.16-0.02,0.28-0.06,0.36-0.13c0.08-0.06,0.15-0.15,0.21-0.26c0.09-0.19,0.15-0.34,0.17-0.45
					l1.59-7.01c0.03-0.14,0.05-0.25,0.05-0.32c0-0.06-0.02-0.1-0.07-0.13s-0.16-0.04-0.33-0.04c-0.45,0-0.83,0.07-1.15,0.22
					s-0.64,0.4-0.98,0.76c-0.22,0.23-0.5,0.62-0.85,1.17l-0.56-0.32l1.47-2.74h0.47v0.3h5.6l0.28-0.3H250.17z"/>
			</g>
		</g>
		<g style="clip-path:url(#SVGID_30_);">
			<defs>
				<rect id="SVGID_33_" x="240.24" y="57.96" width="16.32" height="21.6"/>
			</defs>
			<clipPath id="SVGID_34_">
				<use xlink:href="#SVGID_33_"  style="overflow:visible;"/>
			</clipPath>
			<g style="clip-path:url(#SVGID_34_);">
				<path d="M251.26,68.37l-0.78,3.42c-0.04,0.13-0.05,0.23-0.05,0.3c0,0.09,0.02,0.15,0.06,0.2c0.04,0.05,0.09,0.07,0.16,0.07
					c0.07,0,0.15-0.03,0.21-0.09c0.11-0.09,0.24-0.25,0.4-0.48l0.28,0.25c-0.16,0.23-0.33,0.42-0.54,0.55
					c-0.2,0.13-0.4,0.2-0.58,0.2c-0.2,0-0.36-0.07-0.5-0.21c-0.13-0.14-0.2-0.3-0.2-0.49c0-0.13,0.03-0.29,0.08-0.49l0.57-2.52h-1
					l0.09-0.37c0.24-0.01,0.47-0.04,0.67-0.09c0.2-0.05,0.45-0.13,0.75-0.26H251.26z M251.18,66.27c0.13,0,0.23,0.04,0.31,0.13
					c0.08,0.08,0.13,0.19,0.13,0.33c0,0.15-0.05,0.28-0.16,0.39c-0.11,0.11-0.23,0.16-0.37,0.16c-0.13,0-0.24-0.04-0.33-0.13
					c-0.09-0.09-0.14-0.2-0.14-0.32c0-0.15,0.05-0.28,0.17-0.39C250.9,66.33,251.03,66.27,251.18,66.27z"/>
			</g>
		</g>
		<g style="clip-path:url(#SVGID_30_);">
			<defs>
				<rect id="SVGID_35_" x="240.24" y="57.96" width="16.32" height="21.6"/>
			</defs>
			<clipPath id="SVGID_36_">
				<use xlink:href="#SVGID_35_"  style="overflow:visible;"/>
			</clipPath>
			<g style="clip-path:url(#SVGID_36_);">
			</g>
		</g>
	</g>
	<polygon style="fill:none;stroke:#000000;stroke-width:0.12;stroke-linecap:round;stroke-miterlimit:8;" points="290.7,56.6 
		290.7,211.25 296.6,211.25 296.6,56.6 290.7,56.6 	"/>
	<polygon style="fill:none;stroke:#000000;stroke-width:0.75;stroke-linecap:round;stroke-miterlimit:8;" points="216.35,56.6 
		216.35,211.25 222.8,211.25 222.8,56.6 216.35,56.6 	"/>
	<polygon style="fill:none;stroke:#000000;stroke-width:1;stroke-linecap:round;stroke-miterlimit:8;" points="216.35,56.6 
		216.35,211.25 222.8,211.25 222.8,56.6 216.35,56.6 	"/>
	<polygon style="fill:none;stroke:#000000;stroke-width:0.25;stroke-linecap:round;stroke-miterlimit:8;" points="83.65,58 
		83.65,212.65 90.1,212.65 90.1,58 83.65,58 	"/>
	<polygon style="fill:none;stroke:#000000;stroke-width:0.12;stroke-linecap:round;stroke-miterlimit:8;" points="349.3,56.6 
		349.3,211.25 355.8,211.25 355.8,56.6 349.3,56.6 	"/>
	<path style="fill-rule:evenodd;clip-rule:evenodd;" d="M59.45,27.95h0.08l1.3,0.02l1.29,0.06l1.27,0.11l1.25,0.14l1.23,0.19
		l1.2,0.22l1.18,0.26l1.16,0.3l1.12,0.33l1.09,0.37l1.07,0.4l1.03,0.43l1,0.46l0.95,0.49l0.92,0.52l0.89,0.55l0.84,0.57l0.8,0.6
		l0.75,0.63l0.71,0.65l0.66,0.67l0.61,0.69l0.56,0.71l0.51,0.73l0.46,0.75l0.39,0.77l0.34,0.78l0.28,0.8l0.22,0.81l0.17,0.83
		l0.04,0.32c0.01,0.09-0.12,0.18-0.28,0.18c-0.17,0.01-0.31-0.06-0.32-0.16l-0.04-0.3l-0.16-0.81l-0.22-0.8l-0.27-0.78l-0.34-0.77
		l-0.39-0.75l-0.44-0.73l-0.49-0.71l-0.55-0.7l-0.6-0.68l-0.64-0.66l-0.7-0.64l-0.73-0.61l-0.78-0.59l-0.82-0.56l-0.86-0.54
		l-0.9-0.51l-0.94-0.48l-0.97-0.45l-1-0.42l-1.04-0.39l-1.07-0.36l-1.1-0.32l-1.12-0.29l-1.16-0.25l-1.17-0.22l-1.2-0.18l-1.22-0.14
		l-1.24-0.1l-1.26-0.06l-1.29-0.02h-0.08c-0.16,0-0.3-0.08-0.3-0.17C59.15,28.03,59.28,27.95,59.45,27.95L59.45,27.95z M84.51,43.09
		l1.74-0.72l-1.65,2.08l-1.93-2L84.51,43.09L84.51,43.09L84.51,43.09z"/>
	<path style="fill:none;stroke:#000000;stroke-width:0.12;stroke-linecap:round;stroke-linejoin:round;stroke-miterlimit:8;" d="
		M59.45,27.95h0.08l1.3,0.02l1.29,0.06l1.27,0.11l1.25,0.14l1.23,0.19l1.2,0.22l1.18,0.26l1.16,0.3l1.12,0.33l1.09,0.37l1.07,0.4
		l1.03,0.43l1,0.46l0.95,0.49l0.92,0.52l0.89,0.55l0.84,0.57l0.8,0.6l0.75,0.63l0.71,0.65l0.66,0.67l0.61,0.69l0.56,0.71l0.51,0.73
		l0.46,0.75l0.39,0.77l0.34,0.78l0.28,0.8l0.22,0.81l0.17,0.83l0.04,0.32c0.01,0.09-0.12,0.18-0.28,0.18
		c-0.17,0.01-0.31-0.06-0.32-0.16l-0.04-0.3l-0.16-0.81l-0.22-0.8l-0.27-0.78l-0.34-0.77l-0.39-0.75l-0.44-0.73l-0.49-0.71
		l-0.55-0.7l-0.6-0.68l-0.64-0.66l-0.7-0.64l-0.73-0.61l-0.78-0.59l-0.82-0.56l-0.86-0.54l-0.9-0.51l-0.94-0.48l-0.97-0.45l-1-0.42
		l-1.04-0.39l-1.07-0.36l-1.1-0.32l-1.12-0.29l-1.16-0.25l-1.17-0.22l-1.2-0.18l-1.22-0.14l-1.24-0.1l-1.26-0.06l-1.29-0.02h-0.08
		c-0.16,0-0.3-0.08-0.3-0.17C59.15,28.03,59.28,27.95,59.45,27.95L59.45,27.95z M84.51,43.09l1.74-0.72l-1.65,2.08l-1.93-2
		L84.51,43.09L84.51,43.09L84.51,43.09z"/>
	
		<line style="fill:none;stroke:#000000;stroke-width:1;stroke-linejoin:round;stroke-miterlimit:8;" x1="16.55" y1="52.8" x2="16.55" y2="215.05"/>
	
		<line style="fill:none;stroke:#000000;stroke-width:1;stroke-linejoin:round;stroke-miterlimit:8;" x1="16.55" y1="52.8" x2="29.7" y2="52.8"/>
	
		<line style="fill:none;stroke:#000000;stroke-width:1;stroke-linejoin:round;stroke-miterlimit:8;" x1="16.55" y1="215.05" x2="29.7" y2="215.05"/>
	
		<line style="fill:none;stroke:#000000;stroke-width:1;stroke-linejoin:round;stroke-miterlimit:8;" x1="419.2" y1="49.6" x2="419.2" y2="215.05"/>
	
		<line style="fill:none;stroke:#000000;stroke-width:1;stroke-linejoin:round;stroke-miterlimit:8;" x1="406.1" y1="49.6" x2="419.2" y2="49.6"/>
	
		<line style="fill:none;stroke:#000000;stroke-width:1;stroke-linejoin:round;stroke-miterlimit:8;" x1="406.1" y1="215.05" x2="419.2" y2="215.05"/>
	<g>
		<defs>
			<polygon id="SVGID_37_" points="34.56,119.88 70.8,119.88 70.8,136.32 34.56,136.32 34.56,119.88 			"/>
		</defs>
		<clipPath id="SVGID_38_">
			<use xlink:href="#SVGID_37_"  style="overflow:visible;"/>
		</clipPath>
		<g style="clip-path:url(#SVGID_38_);">
			<defs>
				<rect id="SVGID_39_" x="34.56" y="119.88" width="36.24" height="16.44"/>
			</defs>
			<clipPath id="SVGID_40_">
				<use xlink:href="#SVGID_39_"  style="overflow:visible;"/>
			</clipPath>
			<g style="clip-path:url(#SVGID_40_);">
				<path d="M44.49,123.09l0.35,2.84l-0.67,0.13c-0.1-0.53-0.25-0.94-0.44-1.23s-0.44-0.5-0.72-0.63c-0.28-0.13-0.71-0.19-1.29-0.19
					c-0.15,0-0.24,0.02-0.29,0.07c-0.05,0.04-0.09,0.15-0.13,0.32l-1.62,7.09c-0.04,0.17-0.05,0.3-0.05,0.41
					c0,0.11,0.03,0.21,0.1,0.29c0.07,0.08,0.16,0.14,0.27,0.16s0.36,0.04,0.74,0.04l-0.12,0.58h-3.76l0.14-0.58
					c0.32,0,0.56-0.02,0.72-0.04c0.16-0.02,0.28-0.06,0.36-0.13c0.08-0.06,0.15-0.15,0.21-0.26c0.09-0.19,0.15-0.34,0.17-0.45
					l1.59-7.01c0.03-0.14,0.05-0.25,0.05-0.32c0-0.06-0.02-0.1-0.07-0.13c-0.05-0.03-0.16-0.04-0.33-0.04
					c-0.45,0-0.83,0.07-1.15,0.22s-0.64,0.4-0.98,0.76c-0.22,0.23-0.5,0.62-0.85,1.17l-0.56-0.32l1.47-2.74h0.47v0.3h5.6l0.28-0.3
					H44.49z"/>
			</g>
		</g>
		<g style="clip-path:url(#SVGID_38_);">
			<defs>
				<rect id="SVGID_41_" x="34.56" y="119.88" width="36.24" height="16.44"/>
			</defs>
			<clipPath id="SVGID_42_">
				<use xlink:href="#SVGID_41_"  style="overflow:visible;"/>
			</clipPath>
			<g style="clip-path:url(#SVGID_42_);">
				<path d="M47.99,129.68h0.56l-0.68,3.31c-0.02,0.12-0.04,0.21-0.04,0.3c0,0.09,0.02,0.16,0.07,0.21c0.04,0.05,0.1,0.08,0.16,0.08
					c0.08,0,0.16-0.03,0.24-0.1c0.12-0.09,0.26-0.25,0.42-0.47l0.28,0.25c-0.26,0.3-0.44,0.48-0.54,0.54c-0.2,0.13-0.4,0.2-0.62,0.2
					c-0.15,0-0.27-0.03-0.37-0.09c-0.1-0.06-0.18-0.14-0.24-0.26s-0.09-0.23-0.09-0.36c0-0.09,0.03-0.27,0.08-0.54
					c-0.23,0.33-0.45,0.58-0.65,0.76s-0.41,0.3-0.63,0.39s-0.43,0.12-0.65,0.12c-0.38,0-0.69-0.13-0.92-0.4
					c-0.26-0.29-0.39-0.67-0.39-1.15c0-0.51,0.12-1,0.36-1.46c0.24-0.46,0.56-0.82,0.95-1.07c0.39-0.25,0.79-0.38,1.21-0.38
					c0.27,0,0.51,0.05,0.73,0.14s0.42,0.24,0.59,0.43L47.99,129.68z M47.67,130.5c-0.15-0.15-0.32-0.26-0.51-0.35
					s-0.38-0.12-0.56-0.12c-0.28,0-0.56,0.1-0.83,0.3c-0.27,0.2-0.51,0.51-0.7,0.95s-0.29,0.88-0.29,1.32c0,0.2,0.03,0.37,0.09,0.52
					c0.06,0.15,0.15,0.25,0.26,0.33c0.11,0.07,0.23,0.11,0.35,0.11c0.24,0,0.48-0.1,0.75-0.29c0.33-0.24,0.63-0.6,0.89-1.09
					C47.38,131.68,47.56,131.13,47.67,130.5z"/>
				<path d="M49.14,135.46l-0.2-0.3c0.28-0.15,0.5-0.31,0.69-0.46c0.18-0.16,0.32-0.3,0.4-0.43c0.05-0.08,0.09-0.19,0.11-0.34
					c-0.08,0.01-0.15,0.02-0.21,0.02c-0.12,0-0.22-0.04-0.31-0.14c-0.08-0.09-0.13-0.21-0.13-0.36c0-0.15,0.05-0.28,0.15-0.37
					c0.1-0.1,0.22-0.15,0.37-0.15c0.18,0,0.34,0.07,0.46,0.21c0.13,0.14,0.19,0.32,0.19,0.54c0,0.2-0.05,0.39-0.14,0.59
					c-0.1,0.2-0.25,0.39-0.47,0.59C49.85,135.05,49.54,135.25,49.14,135.46z"/>
				<path d="M57.2,129.58c0.5,0,0.91,0.16,1.23,0.49c0.32,0.32,0.48,0.73,0.48,1.23c0,0.5-0.12,0.97-0.35,1.4
					c-0.23,0.44-0.53,0.77-0.9,1c-0.37,0.23-0.78,0.34-1.23,0.34c-0.38,0-0.69-0.07-0.93-0.21c-0.25-0.14-0.45-0.35-0.61-0.63
					c-0.16-0.28-0.24-0.59-0.24-0.92c0-0.47,0.12-0.92,0.36-1.36c0.24-0.44,0.55-0.77,0.93-1S56.75,129.58,57.2,129.58z M57.16,130
					c-0.28,0-0.55,0.09-0.79,0.27c-0.25,0.18-0.46,0.46-0.63,0.86c-0.18,0.39-0.26,0.81-0.26,1.24c0,0.35,0.08,0.65,0.25,0.89
					c0.17,0.24,0.41,0.36,0.73,0.36c0.27,0,0.52-0.09,0.76-0.27c0.24-0.18,0.45-0.47,0.63-0.87s0.27-0.81,0.27-1.23
					c0-0.25-0.04-0.48-0.13-0.67c-0.09-0.2-0.2-0.34-0.35-0.44C57.49,130.05,57.33,130,57.16,130z"/>
				<path d="M63.5,129.68h0.72l-0.79,3.21c-0.04,0.14-0.05,0.29-0.05,0.43c0,0.08,0.02,0.14,0.07,0.19s0.1,0.07,0.17,0.07
					c0.08,0,0.16-0.03,0.25-0.1c0.16-0.12,0.31-0.28,0.45-0.47l0.28,0.24c-0.22,0.28-0.42,0.48-0.61,0.59
					c-0.19,0.11-0.38,0.17-0.58,0.17c-0.22,0-0.4-0.07-0.53-0.2c-0.13-0.13-0.2-0.29-0.2-0.49c0-0.12,0.03-0.31,0.09-0.58
					c-0.13,0.22-0.27,0.4-0.39,0.53c-0.25,0.25-0.51,0.45-0.78,0.57c-0.27,0.13-0.54,0.19-0.78,0.19c-0.2,0-0.37-0.04-0.52-0.11
					c-0.15-0.07-0.26-0.17-0.35-0.3c-0.08-0.13-0.13-0.27-0.13-0.4s0.03-0.33,0.09-0.59l0.53-2.31h-1.04l0.1-0.37
					c0.25-0.02,0.48-0.06,0.68-0.11c0.2-0.05,0.46-0.14,0.77-0.26h0.37l-0.75,3.27c-0.03,0.13-0.04,0.23-0.04,0.28
					c0,0.13,0.04,0.23,0.12,0.31c0.08,0.08,0.19,0.12,0.31,0.12c0.28,0,0.57-0.11,0.87-0.34c0.38-0.29,0.69-0.66,0.92-1.11
					c0.23-0.45,0.41-0.92,0.52-1.41L63.5,129.68z"/>
				<path d="M67.23,128.2l-0.33,1.49h0.96l-0.08,0.45h-0.98l-0.58,2.57c-0.05,0.23-0.08,0.39-0.08,0.48c0,0.11,0.03,0.2,0.09,0.27
					c0.06,0.07,0.13,0.1,0.23,0.1c0.07,0,0.14-0.01,0.2-0.04c0.09-0.04,0.18-0.1,0.27-0.18c0.05-0.04,0.16-0.18,0.35-0.4l0.29,0.25
					c-0.26,0.33-0.49,0.56-0.69,0.68c-0.2,0.12-0.4,0.18-0.62,0.18c-0.24,0-0.44-0.08-0.6-0.24c-0.16-0.16-0.23-0.34-0.23-0.56
					c0-0.14,0.02-0.29,0.06-0.45l0.6-2.65h-1.01l0.09-0.34c0.29-0.07,0.53-0.16,0.72-0.27s0.36-0.27,0.53-0.48
					c0.17-0.21,0.33-0.49,0.48-0.85H67.23z"/>
			</g>
		</g>
		<g style="clip-path:url(#SVGID_38_);">
			<defs>
				<rect id="SVGID_43_" x="34.56" y="119.88" width="36.24" height="16.44"/>
			</defs>
			<clipPath id="SVGID_44_">
				<use xlink:href="#SVGID_43_"  style="overflow:visible;"/>
			</clipPath>
			<g style="clip-path:url(#SVGID_44_);">
			</g>
		</g>
	</g>
	<g>
		<defs>
			<polygon id="SVGID_45_" points="34.56,63.12 73.68,63.12 73.68,79.56 34.56,79.56 34.56,63.12 			"/>
		</defs>
		<clipPath id="SVGID_46_">
			<use xlink:href="#SVGID_45_"  style="overflow:visible;"/>
		</clipPath>
		<g style="clip-path:url(#SVGID_46_);">
			<defs>
				<rect id="SVGID_47_" x="34.56" y="63.12" width="39.12" height="16.44"/>
			</defs>
			<clipPath id="SVGID_48_">
				<use xlink:href="#SVGID_47_"  style="overflow:visible;"/>
			</clipPath>
			<g style="clip-path:url(#SVGID_48_);">
				<path d="M44.49,66.32l0.35,2.84l-0.67,0.13c-0.1-0.53-0.25-0.94-0.44-1.23c-0.2-0.29-0.44-0.5-0.72-0.63s-0.71-0.19-1.29-0.19
					c-0.15,0-0.24,0.02-0.29,0.07c-0.05,0.04-0.09,0.15-0.13,0.32l-1.62,7.09c-0.04,0.17-0.05,0.3-0.05,0.41
					c0,0.11,0.03,0.21,0.1,0.29s0.16,0.14,0.27,0.16s0.36,0.04,0.74,0.04l-0.12,0.58h-3.76l0.14-0.58c0.32,0,0.56-0.02,0.72-0.04
					c0.16-0.02,0.28-0.06,0.36-0.13c0.08-0.06,0.15-0.15,0.21-0.26c0.09-0.19,0.15-0.34,0.17-0.45l1.59-7.01
					c0.03-0.14,0.05-0.25,0.05-0.32c0-0.06-0.02-0.1-0.07-0.13c-0.05-0.03-0.16-0.04-0.33-0.04c-0.45,0-0.83,0.07-1.15,0.22
					s-0.64,0.4-0.98,0.76c-0.22,0.23-0.5,0.62-0.85,1.17l-0.56-0.32l1.47-2.74h0.47v0.3h5.6l0.28-0.3H44.49z"/>
			</g>
		</g>
		<g style="clip-path:url(#SVGID_46_);">
			<defs>
				<rect id="SVGID_49_" x="34.56" y="63.12" width="39.12" height="16.44"/>
			</defs>
			<clipPath id="SVGID_50_">
				<use xlink:href="#SVGID_49_"  style="overflow:visible;"/>
			</clipPath>
			<g style="clip-path:url(#SVGID_50_);">
				<path d="M44.93,73.54h-0.82l0.1-0.37c0.29-0.04,0.52-0.08,0.7-0.14s0.36-0.13,0.54-0.22h0.32l-0.22,1.02
					c0.15-0.24,0.31-0.44,0.47-0.58s0.35-0.25,0.55-0.33c0.2-0.08,0.4-0.11,0.61-0.11c0.28,0,0.5,0.08,0.68,0.25
					c0.18,0.16,0.26,0.36,0.26,0.58c0,0.04,0,0.09-0.01,0.16c0.15-0.23,0.3-0.41,0.47-0.55c0.17-0.14,0.35-0.25,0.54-0.32
					c0.19-0.07,0.39-0.11,0.59-0.11c0.28,0,0.51,0.09,0.69,0.26s0.28,0.38,0.28,0.6c0,0.13-0.02,0.26-0.05,0.41l-0.45,2
					c-0.05,0.24-0.08,0.39-0.08,0.46c0,0.07,0.03,0.13,0.08,0.17c0.05,0.05,0.12,0.07,0.2,0.07c0.11,0,0.22-0.03,0.31-0.1
					s0.26-0.22,0.48-0.47l0.28,0.24c-0.22,0.28-0.44,0.47-0.64,0.59s-0.42,0.17-0.64,0.17c-0.23,0-0.42-0.07-0.56-0.2
					c-0.15-0.14-0.22-0.3-0.22-0.48c0-0.12,0.02-0.27,0.06-0.46l0.45-2c0.03-0.15,0.05-0.27,0.05-0.36c0-0.13-0.04-0.23-0.13-0.31
					s-0.19-0.12-0.32-0.12c-0.16,0-0.31,0.04-0.46,0.12c-0.2,0.11-0.39,0.28-0.57,0.5s-0.33,0.48-0.45,0.77
					c-0.17,0.41-0.31,0.88-0.42,1.42c-0.01,0.05-0.03,0.11-0.04,0.19l-0.21,0.85h-0.7l0.7-3.07c0.02-0.1,0.03-0.22,0.03-0.37
					c0-0.13-0.04-0.23-0.12-0.31s-0.19-0.12-0.32-0.12c-0.17,0-0.36,0.06-0.55,0.18s-0.37,0.29-0.54,0.52s-0.31,0.52-0.44,0.89
					c-0.13,0.37-0.23,0.7-0.29,1l-0.29,1.28h-0.73L44.93,73.54z"/>
				<path d="M51.54,78.69l-0.2-0.3c0.28-0.15,0.5-0.31,0.69-0.46s0.32-0.3,0.4-0.43c0.05-0.08,0.09-0.19,0.11-0.34
					c-0.08,0.01-0.15,0.02-0.21,0.02c-0.12,0-0.22-0.05-0.31-0.14c-0.08-0.09-0.13-0.21-0.13-0.36c0-0.15,0.05-0.28,0.15-0.37
					s0.22-0.15,0.37-0.15c0.18,0,0.34,0.07,0.46,0.21c0.13,0.14,0.19,0.32,0.19,0.54c0,0.2-0.05,0.39-0.14,0.59
					s-0.25,0.39-0.47,0.59C52.25,78.27,51.94,78.48,51.54,78.69z"/>
			</g>
		</g>
		<g style="clip-path:url(#SVGID_46_);">
			<defs>
				<rect id="SVGID_51_" x="34.56" y="63.12" width="39.12" height="16.44"/>
			</defs>
			<clipPath id="SVGID_52_">
				<use xlink:href="#SVGID_51_"  style="overflow:visible;"/>
			</clipPath>
			<g style="clip-path:url(#SVGID_52_);">
			</g>
		</g>
		<g style="clip-path:url(#SVGID_46_);">
			<defs>
				<rect id="SVGID_53_" x="34.56" y="63.12" width="39.12" height="16.44"/>
			</defs>
			<clipPath id="SVGID_54_">
				<use xlink:href="#SVGID_53_"  style="overflow:visible;"/>
			</clipPath>
			<g style="clip-path:url(#SVGID_54_);">
				<path d="M59.59,72.8c0.5,0,0.91,0.16,1.23,0.49s0.48,0.73,0.48,1.23c0,0.5-0.12,0.97-0.35,1.4c-0.23,0.44-0.53,0.77-0.9,1
					c-0.37,0.23-0.78,0.34-1.23,0.34c-0.38,0-0.69-0.07-0.93-0.21c-0.25-0.14-0.45-0.35-0.61-0.63c-0.16-0.28-0.24-0.59-0.24-0.92
					c0-0.47,0.12-0.93,0.36-1.36c0.24-0.44,0.55-0.77,0.93-1S59.14,72.8,59.59,72.8z M59.55,73.23c-0.28,0-0.55,0.09-0.79,0.27
					c-0.25,0.18-0.46,0.46-0.63,0.85c-0.18,0.39-0.26,0.81-0.26,1.24c0,0.35,0.08,0.65,0.25,0.89c0.17,0.24,0.41,0.36,0.73,0.36
					c0.27,0,0.52-0.09,0.76-0.27c0.24-0.18,0.45-0.47,0.63-0.87s0.27-0.81,0.27-1.23c0-0.25-0.04-0.48-0.13-0.67
					c-0.09-0.2-0.2-0.34-0.35-0.44C59.88,73.28,59.72,73.23,59.55,73.23z"/>
				<path d="M65.89,72.91h0.72l-0.79,3.21c-0.04,0.14-0.05,0.29-0.05,0.43c0,0.08,0.02,0.14,0.07,0.19c0.04,0.05,0.1,0.07,0.17,0.07
					c0.08,0,0.16-0.03,0.25-0.1c0.16-0.12,0.31-0.28,0.45-0.47l0.28,0.24c-0.22,0.28-0.42,0.48-0.61,0.59
					c-0.19,0.11-0.38,0.17-0.58,0.17c-0.22,0-0.4-0.07-0.53-0.2c-0.13-0.13-0.2-0.29-0.2-0.49c0-0.12,0.03-0.31,0.09-0.58
					c-0.13,0.22-0.27,0.4-0.39,0.53c-0.25,0.25-0.51,0.45-0.78,0.57c-0.27,0.13-0.54,0.19-0.78,0.19c-0.2,0-0.37-0.04-0.52-0.11
					c-0.15-0.07-0.26-0.17-0.35-0.3c-0.08-0.13-0.13-0.27-0.13-0.4s0.03-0.33,0.09-0.59l0.53-2.31h-1.04l0.1-0.37
					c0.25-0.02,0.48-0.06,0.68-0.11c0.2-0.05,0.46-0.14,0.77-0.27h0.37l-0.75,3.27c-0.03,0.13-0.04,0.23-0.04,0.28
					c0,0.13,0.04,0.23,0.12,0.31c0.08,0.08,0.19,0.12,0.31,0.12c0.28,0,0.57-0.11,0.87-0.34c0.38-0.29,0.69-0.66,0.92-1.11
					c0.23-0.45,0.41-0.92,0.52-1.41L65.89,72.91z"/>
				<path d="M69.62,71.42l-0.33,1.49h0.96l-0.08,0.45h-0.98l-0.58,2.57c-0.05,0.23-0.08,0.39-0.08,0.48c0,0.11,0.03,0.2,0.09,0.27
					s0.13,0.1,0.23,0.1c0.07,0,0.14-0.01,0.2-0.04c0.09-0.04,0.18-0.1,0.27-0.18c0.05-0.04,0.16-0.18,0.35-0.4l0.29,0.25
					c-0.26,0.33-0.49,0.56-0.69,0.68s-0.4,0.18-0.62,0.18c-0.24,0-0.44-0.08-0.6-0.24c-0.16-0.16-0.23-0.34-0.23-0.56
					c0-0.14,0.02-0.29,0.06-0.45l0.6-2.65h-1.01l0.09-0.34c0.29-0.07,0.53-0.16,0.72-0.27s0.36-0.27,0.53-0.48
					c0.17-0.21,0.33-0.49,0.48-0.85H69.62z"/>
			</g>
		</g>
		<g style="clip-path:url(#SVGID_46_);">
			<defs>
				<rect id="SVGID_55_" x="34.56" y="63.12" width="39.12" height="16.44"/>
			</defs>
			<clipPath id="SVGID_56_">
				<use xlink:href="#SVGID_55_"  style="overflow:visible;"/>
			</clipPath>
			<g style="clip-path:url(#SVGID_56_);">
			</g>
		</g>
	</g>
	<path style="fill-rule:evenodd;clip-rule:evenodd;" d="M116.25,27.95h0.07l1.3,0.02l1.3,0.07l1.27,0.1l1.25,0.15l1.23,0.18
		l1.2,0.22l1.18,0.26l1.16,0.3l1.13,0.33l1.09,0.37l1.07,0.4l1.03,0.43l0.99,0.46l0.96,0.49l0.91,0.52l0.89,0.55l0.84,0.58l0.8,0.6
		l0.74,0.62l0.72,0.65l0.65,0.67l0.61,0.69l0.56,0.71l0.5,0.73l0.46,0.75l0.39,0.76l0.35,0.79l0.28,0.8l0.22,0.81l0.16,0.83
		l0.04,0.32c0.01,0.09-0.12,0.17-0.28,0.18c-0.16,0.01-0.3-0.06-0.31-0.16l-0.04-0.3l-0.16-0.81l-0.22-0.8l-0.28-0.78L140,39.64
		l-0.39-0.75l-0.45-0.73l-0.49-0.71l-0.55-0.7l-0.6-0.67l-0.65-0.66l-0.7-0.63l-0.73-0.61l-0.78-0.59l-0.82-0.56l-0.86-0.54
		l-0.9-0.51l-0.93-0.48l-0.98-0.45l-1-0.42l-1.04-0.39l-1.07-0.36l-1.09-0.33l-1.12-0.29l-1.16-0.26l-1.17-0.21l-1.2-0.18
		l-1.22-0.14l-1.24-0.1l-1.25-0.06l-1.29-0.02h-0.07c-0.16,0-0.3-0.08-0.3-0.17C115.95,28.03,116.08,27.95,116.25,27.95
		L116.25,27.95z M141.31,43.09l1.74-0.72l-1.65,2.08l-1.93-2L141.31,43.09L141.31,43.09L141.31,43.09z"/>
	<path style="fill:none;stroke:#000000;stroke-width:0.12;stroke-linecap:round;stroke-linejoin:round;stroke-miterlimit:8;" d="
		M116.25,27.95h0.07l1.3,0.02l1.3,0.07l1.27,0.1l1.25,0.15l1.23,0.18l1.2,0.22l1.18,0.26l1.16,0.3l1.13,0.33l1.09,0.37l1.07,0.4
		l1.03,0.43l0.99,0.46l0.96,0.49l0.91,0.52l0.89,0.55l0.84,0.58l0.8,0.6l0.74,0.62l0.72,0.65l0.65,0.67l0.61,0.69l0.56,0.71
		l0.5,0.73l0.46,0.75l0.39,0.76l0.35,0.79l0.28,0.8l0.22,0.81l0.16,0.83l0.04,0.32c0.01,0.09-0.12,0.17-0.28,0.18
		c-0.16,0.01-0.3-0.06-0.31-0.16l-0.04-0.3l-0.16-0.81l-0.22-0.8l-0.28-0.78L140,39.64l-0.39-0.75l-0.45-0.73l-0.49-0.71l-0.55-0.7
		l-0.6-0.67l-0.65-0.66l-0.7-0.63l-0.73-0.61l-0.78-0.59l-0.82-0.56l-0.86-0.54l-0.9-0.51l-0.93-0.48l-0.98-0.45l-1-0.42l-1.04-0.39
		l-1.07-0.36l-1.09-0.33l-1.12-0.29l-1.16-0.26l-1.17-0.21l-1.2-0.18l-1.22-0.14l-1.24-0.1l-1.25-0.06l-1.29-0.02h-0.07
		c-0.16,0-0.3-0.08-0.3-0.17C115.95,28.03,116.08,27.95,116.25,27.95L116.25,27.95z M141.31,43.09l1.74-0.72l-1.65,2.08l-1.93-2
		L141.31,43.09L141.31,43.09L141.31,43.09z"/>
	<path style="fill-rule:evenodd;clip-rule:evenodd;" d="M190.7,27.95h0.08l1.3,0.02l1.29,0.07l1.27,0.1l1.25,0.15l1.24,0.18
		l1.2,0.22l1.18,0.26l1.16,0.3l1.12,0.33l1.09,0.37l1.07,0.4l1.03,0.43l1,0.46l0.95,0.49l0.92,0.52l0.89,0.55l0.83,0.58l0.8,0.6
		l0.75,0.62l0.71,0.65l0.66,0.67l0.61,0.69l0.56,0.71l0.51,0.73l0.45,0.75l0.4,0.76l0.34,0.79l0.29,0.8l0.21,0.81l0.17,0.83
		l0.04,0.32c0.01,0.09-0.12,0.17-0.28,0.18c-0.17,0.01-0.31-0.06-0.32-0.16l-0.04-0.3l-0.15-0.81l-0.22-0.8l-0.27-0.78l-0.34-0.77
		l-0.39-0.75l-0.44-0.73l-0.49-0.71l-0.56-0.7l-0.6-0.67l-0.64-0.66l-0.7-0.63l-0.73-0.61l-0.78-0.59l-0.82-0.56l-0.86-0.54
		l-0.9-0.51l-0.94-0.48l-0.97-0.45l-1-0.42l-1.04-0.39l-1.07-0.36l-1.1-0.33l-1.12-0.29l-1.16-0.26l-1.17-0.21l-1.19-0.18
		l-1.22-0.14l-1.24-0.1l-1.26-0.06l-1.28-0.02h-0.08c-0.16,0-0.3-0.08-0.3-0.17C190.4,28.03,190.53,27.95,190.7,27.95L190.7,27.95z
		 M215.75,43.09l1.75-0.72l-1.65,2.08l-1.93-2L215.75,43.09L215.75,43.09L215.75,43.09z"/>
	<path style="fill:none;stroke:#000000;stroke-width:0.75;stroke-linecap:round;stroke-linejoin:round;stroke-miterlimit:8;" d="
		M190.7,27.95h0.08l1.3,0.02l1.29,0.07l1.27,0.1l1.25,0.15l1.24,0.18l1.2,0.22l1.18,0.26l1.16,0.3l1.12,0.33l1.09,0.37l1.07,0.4
		l1.03,0.43l1,0.46l0.95,0.49l0.92,0.52l0.89,0.55l0.83,0.58l0.8,0.6l0.75,0.62l0.71,0.65l0.66,0.67l0.61,0.69l0.56,0.71l0.51,0.73
		l0.45,0.75l0.4,0.76l0.34,0.79l0.29,0.8l0.21,0.81l0.17,0.83l0.04,0.32c0.01,0.09-0.12,0.17-0.28,0.18
		c-0.17,0.01-0.31-0.06-0.32-0.16l-0.04-0.3l-0.15-0.81l-0.22-0.8l-0.27-0.78l-0.34-0.77l-0.39-0.75l-0.44-0.73l-0.49-0.71
		l-0.56-0.7l-0.6-0.67l-0.64-0.66l-0.7-0.63l-0.73-0.61l-0.78-0.59l-0.82-0.56l-0.86-0.54l-0.9-0.51l-0.94-0.48l-0.97-0.45l-1-0.42
		l-1.04-0.39l-1.07-0.36l-1.1-0.33l-1.12-0.29l-1.16-0.26l-1.17-0.21l-1.19-0.18l-1.22-0.14l-1.24-0.1l-1.26-0.06l-1.28-0.02h-0.08
		c-0.16,0-0.3-0.08-0.3-0.17C190.4,28.03,190.53,27.95,190.7,27.95L190.7,27.95z M215.75,43.09l1.75-0.72l-1.65,2.08l-1.93-2
		L215.75,43.09L215.75,43.09L215.75,43.09z"/>
	<path style="fill-rule:evenodd;clip-rule:evenodd;" d="M265,27.95h0.07l1.3,0.02l1.3,0.07l1.27,0.1l1.25,0.15l1.23,0.18l1.2,0.22
		l1.18,0.26l1.16,0.3l1.13,0.33l1.09,0.37l1.07,0.4l1.03,0.43l1,0.46l0.96,0.49l0.91,0.52l0.89,0.55l0.84,0.58l0.8,0.6l0.74,0.62
		l0.72,0.65l0.65,0.67l0.61,0.69l0.56,0.71l0.5,0.73l0.46,0.75l0.39,0.76l0.35,0.79l0.28,0.8l0.22,0.81l0.16,0.83l0.04,0.32
		c0.01,0.09-0.12,0.17-0.28,0.18s-0.3-0.06-0.31-0.16l-0.04-0.3l-0.16-0.81l-0.21-0.8l-0.28-0.78l-0.33-0.77l-0.39-0.75l-0.45-0.73
		l-0.49-0.71l-0.55-0.7l-0.6-0.67l-0.65-0.66l-0.7-0.63l-0.73-0.61l-0.78-0.59l-0.81-0.56l-0.86-0.54l-0.91-0.51l-0.93-0.48
		l-0.98-0.45l-1-0.42l-1.04-0.39l-1.07-0.36l-1.09-0.33l-1.12-0.29l-1.16-0.26l-1.17-0.21l-1.2-0.18l-1.22-0.14l-1.24-0.1
		l-1.25-0.06l-1.29-0.02H265c-0.16,0-0.29-0.08-0.29-0.17C264.7,28.03,264.83,27.95,265,27.95L265,27.95z M290.06,43.09l1.74-0.72
		l-1.65,2.08l-1.93-2L290.06,43.09L290.06,43.09L290.06,43.09z"/>
	<path style="fill:none;stroke:#000000;stroke-width:0.12;stroke-linecap:round;stroke-linejoin:round;stroke-miterlimit:8;" d="
		M265,27.95h0.07l1.3,0.02l1.3,0.07l1.27,0.1l1.25,0.15l1.23,0.18l1.2,0.22l1.18,0.26l1.16,0.3l1.13,0.33l1.09,0.37l1.07,0.4
		l1.03,0.43l1,0.46l0.96,0.49l0.91,0.52l0.89,0.55l0.84,0.58l0.8,0.6l0.74,0.62l0.72,0.65l0.65,0.67l0.61,0.69l0.56,0.71l0.5,0.73
		l0.46,0.75l0.39,0.76l0.35,0.79l0.28,0.8l0.22,0.81l0.16,0.83l0.04,0.32c0.01,0.09-0.12,0.17-0.28,0.18s-0.3-0.06-0.31-0.16
		l-0.04-0.3l-0.16-0.81l-0.21-0.8l-0.28-0.78l-0.33-0.77l-0.39-0.75l-0.45-0.73l-0.49-0.71l-0.55-0.7l-0.6-0.67l-0.65-0.66
		l-0.7-0.63l-0.73-0.61l-0.78-0.59l-0.81-0.56l-0.86-0.54l-0.91-0.51l-0.93-0.48l-0.98-0.45l-1-0.42l-1.04-0.39l-1.07-0.36
		l-1.09-0.33l-1.12-0.29l-1.16-0.26l-1.17-0.21l-1.2-0.18l-1.22-0.14l-1.24-0.1l-1.25-0.06l-1.29-0.02H265
		c-0.16,0-0.29-0.08-0.29-0.17C264.7,28.03,264.83,27.95,265,27.95L265,27.95z M290.06,43.09l1.74-0.72l-1.65,2.08l-1.93-2
		L290.06,43.09L290.06,43.09L290.06,43.09z"/>
	<path style="fill-rule:evenodd;clip-rule:evenodd;" d="M325,27.95h0.07l1.31,0.02l1.29,0.06l1.27,0.1l1.25,0.15l1.22,0.18
		l1.22,0.22l1.18,0.26l1.15,0.3l1.13,0.33l1.09,0.37l1.06,0.4l1.04,0.43l0.98,0.47l0.97,0.49l0.91,0.51l0.88,0.55l0.84,0.57
		l0.81,0.6l0.75,0.62l0.7,0.64l0.66,0.67l0.61,0.68l0.56,0.71l0.52,0.73l0.45,0.75l0.39,0.77l0.34,0.79l0.29,0.8l0.21,0.81
		l0.18,0.83l0.04,0.32c0,0.09-0.13,0.17-0.29,0.18c-0.16,0-0.3-0.06-0.32-0.16l-0.04-0.3l-0.14-0.82l-0.23-0.8l-0.27-0.78
		l-0.34-0.78l-0.39-0.75l-0.43-0.74l-0.5-0.71l-0.56-0.71l-0.59-0.67l-0.65-0.65l-0.7-0.63l-0.73-0.61l-0.77-0.59l-0.82-0.55
		l-0.86-0.54l-0.9-0.51l-0.95-0.48l-0.97-0.45l-1-0.42l-1.04-0.39l-1.06-0.36l-1.11-0.33l-1.11-0.29l-1.16-0.26l-1.16-0.21
		l-1.2-0.18l-1.22-0.14l-1.24-0.1l-1.25-0.06l-1.29-0.02H325c-0.16,0-0.3-0.07-0.3-0.17C324.7,28.02,324.84,27.95,325,27.95
		L325,27.95z M350.06,43.09l1.74-0.71l-1.65,2.07l-1.93-1.99L350.06,43.09L350.06,43.09L350.06,43.09z"/>
	<path style="fill:none;stroke:#000000;stroke-width:0.12;stroke-linecap:round;stroke-linejoin:round;stroke-miterlimit:8;" d="
		M325,27.95h0.07l1.31,0.02l1.29,0.06l1.27,0.1l1.25,0.15l1.22,0.18l1.22,0.22l1.18,0.26l1.15,0.3l1.13,0.33l1.09,0.37l1.06,0.4
		l1.04,0.43l0.98,0.47l0.97,0.49l0.91,0.51l0.88,0.55l0.84,0.57l0.81,0.6l0.75,0.62l0.7,0.64l0.66,0.67l0.61,0.68l0.56,0.71
		l0.52,0.73l0.45,0.75l0.39,0.77l0.34,0.79l0.29,0.8l0.21,0.81l0.18,0.83l0.04,0.32c0,0.09-0.13,0.17-0.29,0.18
		c-0.16,0-0.3-0.06-0.32-0.16l-0.04-0.3l-0.14-0.82l-0.23-0.8l-0.27-0.78l-0.34-0.78l-0.39-0.75l-0.43-0.74l-0.5-0.71l-0.56-0.71
		l-0.59-0.67l-0.65-0.65l-0.7-0.63l-0.73-0.61l-0.77-0.59l-0.82-0.55l-0.86-0.54l-0.9-0.51l-0.95-0.48l-0.97-0.45l-1-0.42
		l-1.04-0.39l-1.06-0.36l-1.11-0.33l-1.11-0.29l-1.16-0.26l-1.16-0.21l-1.2-0.18l-1.22-0.14l-1.24-0.1l-1.25-0.06l-1.29-0.02H325
		c-0.16,0-0.3-0.07-0.3-0.17C324.7,28.02,324.84,27.95,325,27.95L325,27.95z M350.06,43.09l1.74-0.71l-1.65,2.07l-1.93-1.99
		L350.06,43.09L350.06,43.09L350.06,43.09z"/>
	<path style="fill-rule:evenodd;clip-rule:evenodd;" d="M368.04,27.5h0.09l1.29,0.02l1.29,0.06l1.27,0.1l1.25,0.15l1.24,0.18
		l1.2,0.22l1.18,0.26l1.17,0.3l1.11,0.33l1.09,0.37l1.07,0.4l1.02,0.43l1,0.47l0.95,0.49l0.93,0.51l0.88,0.55l0.84,0.57l0.79,0.6
		l0.75,0.62l0.72,0.64l0.66,0.67l0.61,0.68l0.56,0.71l0.5,0.74l0.45,0.75l0.41,0.77l0.34,0.79l0.29,0.8l0.21,0.81l0.16,0.83
		l0.04,0.32c0.02,0.09-0.11,0.17-0.29,0.18c-0.16,0-0.3-0.06-0.3-0.16l-0.04-0.3l-0.16-0.82l-0.21-0.8l-0.27-0.78l-0.34-0.78
		l-0.39-0.75l-0.45-0.73L390.46,37l-0.56-0.7l-0.61-0.67l-0.63-0.65l-0.7-0.63l-0.73-0.61l-0.79-0.59l-0.82-0.55l-0.86-0.54
		l-0.9-0.51l-0.93-0.48l-0.97-0.45l-1-0.42l-1.04-0.39l-1.07-0.36l-1.09-0.33l-1.13-0.29l-1.15-0.25l-1.18-0.21l-1.18-0.18
		l-1.22-0.14l-1.24-0.1l-1.27-0.06l-1.27-0.02h-0.09c-0.16,0-0.29-0.07-0.29-0.17C367.75,27.57,367.88,27.5,368.04,27.5L368.04,27.5
		z M393.09,42.64l1.75-0.71L393.2,44l-1.93-1.99L393.09,42.64L393.09,42.64L393.09,42.64z"/>
	<path style="fill:none;stroke:#000000;stroke-width:0.12;stroke-linecap:round;stroke-linejoin:round;stroke-miterlimit:8;" d="
		M368.04,27.5h0.09l1.29,0.02l1.29,0.06l1.27,0.1l1.25,0.15l1.24,0.18l1.2,0.22l1.18,0.26l1.17,0.3l1.11,0.33l1.09,0.37l1.07,0.4
		l1.02,0.43l1,0.47l0.95,0.49l0.93,0.51l0.88,0.55l0.84,0.57l0.79,0.6l0.75,0.62l0.72,0.64l0.66,0.67l0.61,0.68l0.56,0.71l0.5,0.74
		l0.45,0.75l0.41,0.77l0.34,0.79l0.29,0.8l0.21,0.81l0.16,0.83l0.04,0.32c0.02,0.09-0.11,0.17-0.29,0.18c-0.16,0-0.3-0.06-0.3-0.16
		l-0.04-0.3l-0.16-0.82l-0.21-0.8l-0.27-0.78l-0.34-0.78l-0.39-0.75l-0.45-0.73L390.46,37l-0.56-0.7l-0.61-0.67l-0.63-0.65
		l-0.7-0.63l-0.73-0.61l-0.79-0.59l-0.82-0.55l-0.86-0.54l-0.9-0.51l-0.93-0.48l-0.97-0.45l-1-0.42l-1.04-0.39l-1.07-0.36
		l-1.09-0.33l-1.13-0.29l-1.15-0.25l-1.18-0.21l-1.18-0.18l-1.22-0.14l-1.24-0.1l-1.27-0.06l-1.27-0.02h-0.09
		c-0.16,0-0.29-0.07-0.29-0.17C367.75,27.57,367.88,27.5,368.04,27.5L368.04,27.5z M393.09,42.64l1.75-0.71L393.2,44l-1.93-1.99
		L393.09,42.64L393.09,42.64L393.09,42.64z"/>
	<polygon style="fill-rule:evenodd;clip-rule:evenodd;fill:#FF0000;" points="45.5,26.31 42.71,24.81 44.7,22.36 41.53,22.02 
		42.4,19.03 39.34,19.88 38.99,16.78 36.48,18.72 34.95,16 33.42,18.72 30.91,16.78 30.56,19.88 27.5,19.03 28.37,22.02 25.2,22.36 
		27.19,24.81 24.4,26.31 27.19,27.84 25.2,30.25 28.37,30.63 27.5,33.62 30.56,32.74 30.91,35.83 33.42,33.89 34.95,36.65 
		36.48,33.89 38.99,35.83 39.34,32.74 42.4,33.62 41.53,30.63 44.7,30.25 42.71,27.84 45.5,26.31 45.5,26.31 	"/>
	<polygon style="fill-rule:evenodd;clip-rule:evenodd;fill:#FF0000;" points="45.5,26.31 42.71,24.81 44.7,22.36 41.53,22.02 
		42.4,19.03 39.34,19.88 38.99,16.78 36.48,18.72 34.95,16 33.42,18.72 30.91,16.78 30.56,19.88 27.5,19.03 28.37,22.02 25.2,22.36 
		27.19,24.81 24.4,26.31 27.19,27.84 25.2,30.25 28.37,30.63 27.5,33.62 30.56,32.74 30.91,35.83 33.42,33.89 34.95,36.65 
		36.48,33.89 38.99,35.83 39.34,32.74 42.4,33.62 41.53,30.63 44.7,30.25 42.71,27.84 45.5,26.31 45.5,26.31 	"/>
	
		<polygon style="fill:none;stroke:#000000;stroke-width:0.12;stroke-linecap:round;stroke-linejoin:round;stroke-miterlimit:8;" points="
		45.5,26.31 42.71,24.81 44.7,22.36 41.53,22.02 42.4,19.03 39.34,19.88 38.99,16.78 36.48,18.72 34.95,16 33.42,18.72 30.91,16.78 
		30.56,19.88 27.5,19.03 28.37,22.02 25.2,22.36 27.19,24.81 24.4,26.31 27.19,27.84 25.2,30.25 28.37,30.63 27.5,33.62 
		30.56,32.74 30.91,35.83 33.42,33.89 34.95,36.65 36.48,33.89 38.99,35.83 39.34,32.74 42.4,33.62 41.53,30.63 44.7,30.25 
		42.71,27.84 45.5,26.31 45.5,26.31 	"/>
	<path style="fill-rule:evenodd;clip-rule:evenodd;fill:#FFFF00;" d="M34.92,20.3c-3.47,0-6.27,2.65-6.27,5.93s2.81,5.92,6.27,5.92
		s6.28-2.65,6.28-5.92S38.39,20.3,34.92,20.3L34.92,20.3z"/>
	<path style="fill:none;stroke:#000000;stroke-width:0.12;stroke-linecap:round;stroke-linejoin:round;stroke-miterlimit:8;" d="
		M34.92,20.3c-3.47,0-6.27,2.65-6.27,5.93s2.81,5.92,6.27,5.92s6.28-2.65,6.28-5.92S38.39,20.3,34.92,20.3L34.92,20.3z"/>
	<path style="fill-rule:evenodd;clip-rule:evenodd;fill:#FFFF00;" d="M34.92,20.3c-3.47,0-6.27,2.65-6.27,5.93s2.81,5.92,6.27,5.92
		s6.28-2.65,6.28-5.92S38.39,20.3,34.92,20.3L34.92,20.3z"/>
	<path style="fill:none;stroke:#000000;stroke-width:0.12;stroke-linecap:round;stroke-linejoin:round;stroke-miterlimit:8;" d="
		M34.92,20.3c-3.47,0-6.27,2.65-6.27,5.93s2.81,5.92,6.27,5.92s6.28-2.65,6.28-5.92S38.39,20.3,34.92,20.3L34.92,20.3z"/>
	
		<line style="fill:none;stroke:#000000;stroke-width:1;stroke-linejoin:round;stroke-miterlimit:8;" x1="373.35" y1="28" x2="50.65" y2="27.95"/>
	<g>
		<defs>
			<polygon id="SVGID_57_" points="38.52,34.56 59.16,34.56 59.16,49.56 38.52,49.56 38.52,34.56 			"/>
		</defs>
		<clipPath id="SVGID_58_">
			<use xlink:href="#SVGID_57_"  style="overflow:visible;"/>
		</clipPath>
		<g style="clip-path:url(#SVGID_58_);">
			<defs>
				<rect id="SVGID_59_" x="38.52" y="34.56" width="20.64" height="15"/>
			</defs>
			<clipPath id="SVGID_60_">
				<use xlink:href="#SVGID_59_"  style="overflow:visible;"/>
			</clipPath>
			<g style="clip-path:url(#SVGID_60_);">
				<path d="M41.03,38.07h3.76l-0.13,0.58h-0.22c-0.34,0-0.58,0.03-0.72,0.09s-0.25,0.16-0.33,0.3s-0.17,0.39-0.25,0.77l-1.41,6.22
					c-0.06,0.27-0.1,0.46-0.1,0.55c0,0.16,0.07,0.29,0.22,0.38c0.1,0.06,0.3,0.1,0.59,0.1h0.32l-0.14,0.58h-3.75l0.13-0.58h0.27
					c0.31,0,0.53-0.03,0.67-0.09c0.14-0.06,0.25-0.15,0.33-0.27c0.08-0.12,0.16-0.34,0.24-0.67l1.45-6.37
					c0.05-0.22,0.08-0.38,0.08-0.48c0-0.12-0.03-0.23-0.08-0.31s-0.13-0.14-0.23-0.17c-0.1-0.03-0.29-0.05-0.56-0.05h-0.24
					L41.03,38.07z"/>
			</g>
		</g>
		<g style="clip-path:url(#SVGID_58_);">
			<defs>
				<rect id="SVGID_61_" x="38.52" y="34.56" width="20.64" height="15"/>
			</defs>
			<clipPath id="SVGID_62_">
				<use xlink:href="#SVGID_61_"  style="overflow:visible;"/>
			</clipPath>
			<g style="clip-path:url(#SVGID_62_);">
				<path d="M45.5,45.94l0.78,0.27c0.08,0.03,0.23,0.09,0.43,0.19c0.21,0.1,0.35,0.19,0.44,0.26c0.11,0.1,0.19,0.21,0.26,0.35
					c0.06,0.14,0.09,0.27,0.09,0.41c0,0.21-0.07,0.42-0.22,0.62c-0.15,0.2-0.36,0.36-0.64,0.48s-0.62,0.18-1.03,0.18
					c-0.45,0-0.85-0.07-1.2-0.2c-0.35-0.13-0.61-0.29-0.77-0.47c-0.16-0.18-0.24-0.35-0.24-0.5c0-0.1,0.03-0.18,0.1-0.25
					s0.16-0.1,0.26-0.1c0.06,0,0.12,0.01,0.18,0.04s0.11,0.06,0.17,0.12c0.04,0.04,0.1,0.13,0.18,0.28
					c0.08,0.13,0.13,0.21,0.15,0.23c0.07,0.08,0.16,0.16,0.27,0.23s0.24,0.13,0.38,0.17c0.14,0.04,0.31,0.05,0.5,0.05
					c0.28,0,0.5-0.03,0.69-0.1c0.18-0.07,0.32-0.16,0.41-0.27s0.13-0.23,0.13-0.35c0-0.16-0.08-0.31-0.25-0.44
					c-0.16-0.13-0.4-0.24-0.72-0.33c-0.03-0.01-0.05-0.02-0.08-0.03l-0.62-0.22c-0.38-0.13-0.64-0.29-0.81-0.49
					c-0.17-0.19-0.25-0.4-0.25-0.63c0-0.2,0.07-0.39,0.2-0.58c0.13-0.19,0.33-0.34,0.6-0.45c0.26-0.11,0.59-0.16,0.97-0.16
					c0.59,0,1.08,0.12,1.46,0.36c0.28,0.18,0.43,0.38,0.43,0.61c0,0.1-0.03,0.18-0.1,0.25s-0.15,0.11-0.25,0.11
					c-0.09,0-0.18-0.03-0.27-0.1c-0.06-0.05-0.15-0.15-0.26-0.31c-0.12-0.17-0.26-0.29-0.43-0.38c-0.17-0.08-0.38-0.12-0.62-0.12
					c-0.33,0-0.59,0.06-0.78,0.19c-0.18,0.13-0.27,0.27-0.27,0.44c0,0.13,0.05,0.25,0.15,0.35S45.21,45.84,45.5,45.94z"/>
				<path d="M50.95,44.25c0.5,0,0.91,0.16,1.23,0.49s0.48,0.73,0.48,1.23c0,0.5-0.12,0.97-0.35,1.4c-0.23,0.44-0.53,0.77-0.9,1
					c-0.37,0.23-0.78,0.34-1.23,0.34c-0.38,0-0.69-0.07-0.93-0.21c-0.25-0.14-0.45-0.35-0.61-0.63c-0.16-0.28-0.24-0.59-0.24-0.92
					c0-0.47,0.12-0.93,0.36-1.36c0.24-0.44,0.55-0.77,0.93-1S50.5,44.25,50.95,44.25z M50.91,44.68c-0.28,0-0.55,0.09-0.79,0.27
					c-0.25,0.18-0.46,0.46-0.63,0.85c-0.18,0.39-0.26,0.81-0.26,1.24c0,0.35,0.08,0.65,0.25,0.89c0.17,0.24,0.41,0.36,0.73,0.36
					c0.27,0,0.52-0.09,0.76-0.27c0.24-0.18,0.45-0.47,0.63-0.87s0.27-0.81,0.27-1.23c0-0.25-0.04-0.48-0.13-0.67
					c-0.09-0.2-0.2-0.34-0.35-0.44C51.24,44.72,51.08,44.68,50.91,44.68z"/>
				<path d="M55.57,42.15l-1.28,5.41c-0.05,0.2-0.07,0.33-0.07,0.4c0,0.09,0.02,0.16,0.06,0.21s0.1,0.07,0.17,0.07
					c0.09,0,0.17-0.03,0.25-0.08c0.12-0.09,0.26-0.25,0.44-0.48l0.29,0.24c-0.39,0.5-0.78,0.75-1.19,0.75
					c-0.22,0-0.39-0.07-0.52-0.2s-0.2-0.3-0.2-0.5c0-0.13,0.02-0.27,0.05-0.41l1.1-4.68h-1.01l0.09-0.37
					c0.34-0.05,0.61-0.1,0.8-0.15c0.2-0.05,0.41-0.13,0.62-0.22H55.57z"/>
			</g>
		</g>
		<g style="clip-path:url(#SVGID_58_);">
			<defs>
				<rect id="SVGID_63_" x="38.52" y="34.56" width="20.64" height="15"/>
			</defs>
			<clipPath id="SVGID_64_">
				<use xlink:href="#SVGID_63_"  style="overflow:visible;"/>
			</clipPath>
			<g style="clip-path:url(#SVGID_64_);">
			</g>
		</g>
	</g>
	<g>
		<defs>
			<polygon id="SVGID_65_" points="284.16,203.16 303.24,203.16 303.24,225 284.16,225 284.16,203.16 			"/>
		</defs>
		<clipPath id="SVGID_66_">
			<use xlink:href="#SVGID_65_"  style="overflow:visible;"/>
		</clipPath>
		<g style="clip-path:url(#SVGID_66_);">
			<defs>
				<rect id="SVGID_67_" x="284.16" y="203.16" width="19.08" height="21.84"/>
			</defs>
			<clipPath id="SVGID_68_">
				<use xlink:href="#SVGID_67_"  style="overflow:visible;"/>
			</clipPath>
			<g style="clip-path:url(#SVGID_68_);">
				<path d="M287.49,217.64l-1.04,4.57c-0.05,0.17-0.07,0.3-0.07,0.4c0,0.11,0.03,0.21,0.08,0.27c0.06,0.07,0.13,0.1,0.21,0.1
					c0.1,0,0.19-0.04,0.28-0.12c0.14-0.12,0.32-0.33,0.54-0.64l0.38,0.33c-0.21,0.31-0.45,0.56-0.72,0.73
					c-0.27,0.17-0.53,0.26-0.77,0.26c-0.26,0-0.48-0.09-0.66-0.28c-0.18-0.19-0.27-0.4-0.27-0.65c0-0.17,0.03-0.39,0.1-0.65
					l0.76-3.36h-1.33l0.12-0.49c0.33-0.02,0.63-0.06,0.9-0.12c0.27-0.07,0.6-0.18,0.99-0.34H287.49z M287.38,214.84
					c0.17,0,0.31,0.06,0.42,0.17s0.17,0.26,0.17,0.44c0,0.2-0.07,0.38-0.21,0.52s-0.31,0.22-0.5,0.22c-0.17,0-0.32-0.06-0.44-0.18
					s-0.18-0.26-0.18-0.43c0-0.2,0.07-0.37,0.22-0.52S287.18,214.84,287.38,214.84z"/>
				<path d="M294.7,218.99v0.72h-2.5v2.5h-0.72v-2.5h-2.5v-0.72h2.5v-2.5h0.72v2.5H294.7z"/>
				<path d="M300.92,215.27l-1.58,6.93c-0.04,0.15-0.06,0.25-0.06,0.32c0,0.09,0.03,0.17,0.08,0.24c0.05,0.07,0.12,0.12,0.21,0.15
					s0.25,0.04,0.48,0.04h0.49l-0.11,0.49h-3.79l0.12-0.49h0.45c0.37,0,0.61-0.02,0.73-0.07s0.21-0.13,0.29-0.24
					s0.15-0.33,0.22-0.64l1.25-5.51h-1.8l0.13-0.5c0.38-0.06,0.8-0.16,1.25-0.29s0.83-0.28,1.15-0.42H300.92z"/>
			</g>
		</g>
		<g style="clip-path:url(#SVGID_66_);">
			<defs>
				<rect id="SVGID_69_" x="284.16" y="203.16" width="19.08" height="21.84"/>
			</defs>
			<clipPath id="SVGID_70_">
				<use xlink:href="#SVGID_69_"  style="overflow:visible;"/>
			</clipPath>
			<g style="clip-path:url(#SVGID_70_);">
			</g>
		</g>
	</g>
	<g>
		<defs>
			<polygon id="SVGID_71_" points="136.68,202.56 152.16,202.56 152.16,224.4 136.68,224.4 136.68,202.56 			"/>
		</defs>
		<clipPath id="SVGID_72_">
			<use xlink:href="#SVGID_71_"  style="overflow:visible;"/>
		</clipPath>
		<g style="clip-path:url(#SVGID_72_);">
			<defs>
				<rect id="SVGID_73_" x="136.68" y="202.56" width="15.48" height="21.84"/>
			</defs>
			<clipPath id="SVGID_74_">
				<use xlink:href="#SVGID_73_"  style="overflow:visible;"/>
			</clipPath>
			<g style="clip-path:url(#SVGID_74_);">
				<path d="M140.01,217.04l-1.04,4.57c-0.05,0.17-0.07,0.3-0.07,0.4c0,0.11,0.03,0.21,0.08,0.27c0.06,0.07,0.13,0.1,0.21,0.1
					c0.1,0,0.19-0.04,0.28-0.12c0.14-0.12,0.32-0.33,0.54-0.64l0.38,0.33c-0.21,0.31-0.45,0.56-0.72,0.73s-0.53,0.26-0.77,0.26
					c-0.26,0-0.48-0.09-0.66-0.28s-0.27-0.4-0.27-0.65c0-0.17,0.03-0.39,0.1-0.65l0.76-3.36h-1.33l0.12-0.49
					c0.33-0.02,0.62-0.06,0.9-0.12c0.27-0.07,0.6-0.18,0.99-0.34H140.01z M139.9,214.24c0.17,0,0.31,0.06,0.42,0.17
					s0.17,0.26,0.17,0.44c0,0.2-0.07,0.38-0.21,0.52s-0.31,0.22-0.5,0.22c-0.17,0-0.32-0.06-0.44-0.18s-0.18-0.26-0.18-0.43
					c0-0.2,0.07-0.37,0.22-0.52S139.7,214.24,139.9,214.24z"/>
			</g>
		</g>
		<g style="clip-path:url(#SVGID_72_);">
			<defs>
				<rect id="SVGID_75_" x="136.68" y="202.56" width="15.48" height="21.84"/>
			</defs>
			<clipPath id="SVGID_76_">
				<use xlink:href="#SVGID_75_"  style="overflow:visible;"/>
			</clipPath>
			<g style="clip-path:url(#SVGID_76_);">
				<path d="M141.07,219.54h3.06l-0.15,0.65h-3.07L141.07,219.54z"/>
			</g>
		</g>
		<g style="clip-path:url(#SVGID_72_);">
			<defs>
				<rect id="SVGID_77_" x="136.68" y="202.56" width="15.48" height="21.84"/>
			</defs>
			<clipPath id="SVGID_78_">
				<use xlink:href="#SVGID_77_"  style="overflow:visible;"/>
			</clipPath>
			<g style="clip-path:url(#SVGID_78_);">
				<path d="M150.06,214.66l-1.58,6.93c-0.04,0.15-0.06,0.25-0.06,0.32c0,0.09,0.03,0.17,0.08,0.24c0.05,0.07,0.12,0.12,0.21,0.15
					s0.25,0.04,0.48,0.04h0.49l-0.11,0.49h-3.79l0.12-0.49h0.45c0.37,0,0.61-0.02,0.73-0.07s0.21-0.13,0.29-0.24
					s0.15-0.33,0.22-0.64l1.25-5.51h-1.8l0.12-0.5c0.38-0.06,0.8-0.16,1.25-0.29c0.45-0.13,0.83-0.28,1.15-0.42H150.06z"/>
			</g>
		</g>
		<g style="clip-path:url(#SVGID_72_);">
			<defs>
				<rect id="SVGID_79_" x="136.68" y="202.56" width="15.48" height="21.84"/>
			</defs>
			<clipPath id="SVGID_80_">
				<use xlink:href="#SVGID_79_"  style="overflow:visible;"/>
			</clipPath>
			<g style="clip-path:url(#SVGID_80_);">
			</g>
		</g>
	</g>
	
		<line style="fill:none;stroke:#000000;stroke-linecap:round;stroke-linejoin:round;stroke-miterlimit:8;" x1="38.55" y1="84" x2="19.34" y2="112.6"/>
	<polygon style="fill-rule:evenodd;clip-rule:evenodd;" points="22.39,113.44 16.55,116.75 17.41,110.1 22.39,113.44 	"/>
	<g>
		<defs>
			<polygon id="SVGID_81_" points="367.8,119.88 396.6,119.88 396.6,136.32 367.8,136.32 367.8,119.88 			"/>
		</defs>
		<clipPath id="SVGID_82_">
			<use xlink:href="#SVGID_81_"  style="overflow:visible;"/>
		</clipPath>
		<g style="clip-path:url(#SVGID_82_);">
			<defs>
				<rect id="SVGID_83_" x="367.8" y="119.88" width="28.8" height="16.44"/>
			</defs>
			<clipPath id="SVGID_84_">
				<use xlink:href="#SVGID_83_"  style="overflow:visible;"/>
			</clipPath>
			<g style="clip-path:url(#SVGID_84_);">
				<path d="M377.74,123.09l0.35,2.84l-0.67,0.13c-0.1-0.53-0.25-0.94-0.44-1.23s-0.44-0.5-0.72-0.63
					c-0.28-0.13-0.71-0.19-1.29-0.19c-0.15,0-0.24,0.02-0.29,0.07s-0.09,0.15-0.13,0.32l-1.62,7.09c-0.04,0.17-0.05,0.3-0.05,0.41
					c0,0.11,0.03,0.21,0.1,0.29c0.07,0.08,0.16,0.14,0.27,0.16c0.12,0.03,0.37,0.04,0.74,0.04l-0.12,0.58h-3.76l0.14-0.58
					c0.33,0,0.56-0.02,0.72-0.04c0.16-0.02,0.28-0.06,0.36-0.13c0.08-0.06,0.15-0.15,0.21-0.26c0.09-0.19,0.15-0.34,0.17-0.45
					l1.59-7.01c0.03-0.14,0.05-0.25,0.05-0.32c0-0.06-0.02-0.1-0.07-0.13s-0.16-0.04-0.33-0.04c-0.45,0-0.83,0.07-1.15,0.22
					s-0.64,0.4-0.98,0.76c-0.22,0.23-0.5,0.62-0.85,1.17l-0.56-0.32l1.47-2.74h0.47v0.3h5.6l0.28-0.3H377.74z"/>
			</g>
		</g>
		<g style="clip-path:url(#SVGID_82_);">
			<defs>
				<rect id="SVGID_85_" x="367.8" y="119.88" width="28.8" height="16.44"/>
			</defs>
			<clipPath id="SVGID_86_">
				<use xlink:href="#SVGID_85_"  style="overflow:visible;"/>
			</clipPath>
			<g style="clip-path:url(#SVGID_86_);">
				<path d="M381.23,129.68h0.56l-0.68,3.31c-0.02,0.12-0.04,0.21-0.04,0.3c0,0.09,0.02,0.16,0.07,0.21
					c0.04,0.05,0.1,0.08,0.16,0.08c0.08,0,0.16-0.03,0.24-0.1c0.12-0.09,0.26-0.25,0.42-0.47l0.28,0.25
					c-0.26,0.3-0.44,0.48-0.54,0.54c-0.2,0.13-0.4,0.2-0.62,0.2c-0.15,0-0.27-0.03-0.37-0.09c-0.1-0.06-0.18-0.14-0.24-0.26
					s-0.09-0.23-0.09-0.36c0-0.09,0.03-0.27,0.08-0.54c-0.23,0.33-0.45,0.58-0.65,0.76c-0.21,0.18-0.41,0.3-0.63,0.39
					c-0.21,0.08-0.43,0.12-0.65,0.12c-0.38,0-0.69-0.13-0.92-0.4c-0.26-0.29-0.39-0.67-0.39-1.15c0-0.51,0.12-1,0.36-1.46
					c0.24-0.46,0.56-0.82,0.95-1.07c0.39-0.25,0.79-0.38,1.21-0.38c0.27,0,0.51,0.05,0.73,0.14c0.22,0.09,0.42,0.24,0.59,0.43
					L381.23,129.68z M380.92,130.5c-0.15-0.15-0.32-0.26-0.51-0.35c-0.19-0.08-0.38-0.12-0.56-0.12c-0.28,0-0.56,0.1-0.83,0.3
					c-0.27,0.2-0.5,0.51-0.7,0.95c-0.2,0.44-0.29,0.88-0.29,1.32c0,0.2,0.03,0.37,0.09,0.52c0.06,0.15,0.15,0.25,0.26,0.33
					s0.23,0.11,0.35,0.11c0.24,0,0.48-0.1,0.75-0.29c0.33-0.24,0.63-0.6,0.89-1.09C380.62,131.68,380.81,131.13,380.92,130.5z"/>
				<path d="M382.38,135.46l-0.2-0.3c0.28-0.15,0.5-0.31,0.69-0.46c0.18-0.16,0.32-0.3,0.4-0.43c0.05-0.08,0.09-0.19,0.11-0.34
					c-0.08,0.01-0.15,0.02-0.21,0.02c-0.12,0-0.22-0.04-0.3-0.14c-0.08-0.09-0.13-0.21-0.13-0.36c0-0.15,0.05-0.28,0.14-0.37
					c0.1-0.1,0.22-0.15,0.37-0.15c0.18,0,0.34,0.07,0.46,0.21c0.13,0.14,0.19,0.32,0.19,0.54c0,0.2-0.05,0.39-0.14,0.59
					c-0.09,0.2-0.25,0.39-0.47,0.59C383.09,135.05,382.78,135.25,382.38,135.46z"/>
			</g>
		</g>
		<g style="clip-path:url(#SVGID_82_);">
			<defs>
				<rect id="SVGID_87_" x="367.8" y="119.88" width="28.8" height="16.44"/>
			</defs>
			<clipPath id="SVGID_88_">
				<use xlink:href="#SVGID_87_"  style="overflow:visible;"/>
			</clipPath>
			<g style="clip-path:url(#SVGID_88_);">
				<path d="M389.62,129.58l-0.78,3.42c-0.04,0.13-0.05,0.22-0.05,0.3c0,0.08,0.02,0.15,0.06,0.2c0.04,0.05,0.09,0.07,0.16,0.07
					c0.07,0,0.15-0.03,0.21-0.09c0.11-0.09,0.24-0.25,0.4-0.48l0.28,0.25c-0.16,0.23-0.33,0.42-0.54,0.55
					c-0.2,0.13-0.4,0.2-0.58,0.2c-0.2,0-0.36-0.07-0.5-0.21c-0.13-0.14-0.2-0.3-0.2-0.49c0-0.13,0.03-0.29,0.08-0.49l0.57-2.52h-1
					l0.09-0.37c0.24-0.01,0.47-0.04,0.67-0.09c0.2-0.05,0.45-0.13,0.75-0.26H389.62z M389.54,127.48c0.13,0,0.23,0.04,0.31,0.13
					c0.08,0.08,0.13,0.19,0.13,0.33c0,0.15-0.05,0.28-0.16,0.39c-0.11,0.11-0.23,0.17-0.37,0.17c-0.13,0-0.24-0.04-0.33-0.13
					c-0.09-0.09-0.14-0.2-0.14-0.32c0-0.15,0.05-0.28,0.17-0.39C389.26,127.53,389.39,127.48,389.54,127.48z"/>
				<path d="M392.26,129.58l-0.31,1.38c0.14-0.24,0.28-0.43,0.41-0.57c0.25-0.27,0.5-0.48,0.76-0.61c0.26-0.13,0.51-0.2,0.75-0.2
					c0.19,0,0.36,0.04,0.5,0.12c0.14,0.08,0.26,0.19,0.34,0.33s0.13,0.29,0.13,0.43c0,0.13-0.03,0.31-0.08,0.54l-0.43,1.87
					c-0.05,0.2-0.07,0.34-0.07,0.41c0,0.08,0.03,0.14,0.08,0.19c0.05,0.05,0.12,0.08,0.2,0.08c0.21,0,0.47-0.2,0.8-0.58l0.28,0.26
					c-0.26,0.3-0.48,0.5-0.67,0.61s-0.39,0.16-0.6,0.16c-0.16,0-0.29-0.03-0.41-0.09s-0.21-0.15-0.28-0.27
					c-0.07-0.12-0.1-0.24-0.1-0.37c0-0.11,0.02-0.26,0.06-0.44l0.44-1.95c0.04-0.17,0.06-0.3,0.06-0.39c0-0.13-0.04-0.23-0.12-0.31
					c-0.08-0.07-0.19-0.11-0.32-0.11c-0.15,0-0.32,0.04-0.49,0.13c-0.17,0.08-0.35,0.23-0.54,0.42c-0.19,0.2-0.37,0.44-0.53,0.73
					c-0.16,0.29-0.3,0.64-0.44,1.04c-0.07,0.18-0.14,0.46-0.22,0.83l-0.15,0.7h-0.73l0.82-3.62h-0.82l0.09-0.36
					c0.28-0.04,0.5-0.08,0.66-0.13c0.16-0.05,0.36-0.12,0.61-0.23H392.26z"/>
			</g>
		</g>
		<g style="clip-path:url(#SVGID_82_);">
			<defs>
				<rect id="SVGID_89_" x="367.8" y="119.88" width="28.8" height="16.44"/>
			</defs>
			<clipPath id="SVGID_90_">
				<use xlink:href="#SVGID_89_"  style="overflow:visible;"/>
			</clipPath>
			<g style="clip-path:url(#SVGID_90_);">
			</g>
		</g>
	</g>
	<g>
		<defs>
			<polygon id="SVGID_91_" points="367.8,59.28 401.88,59.28 401.88,83.64 367.8,83.64 367.8,59.28 			"/>
		</defs>
		<clipPath id="SVGID_92_">
			<use xlink:href="#SVGID_91_"  style="overflow:visible;"/>
		</clipPath>
		<g style="clip-path:url(#SVGID_92_);">
			<defs>
				<rect id="SVGID_93_" x="367.8" y="59.28" width="34.08" height="24.36"/>
			</defs>
			<clipPath id="SVGID_94_">
				<use xlink:href="#SVGID_93_"  style="overflow:visible;"/>
			</clipPath>
			<g style="clip-path:url(#SVGID_94_);">
				<path d="M377.74,63.21l0.35,2.84l-0.67,0.13c-0.1-0.53-0.25-0.94-0.44-1.23c-0.2-0.29-0.44-0.5-0.72-0.63s-0.71-0.19-1.29-0.19
					c-0.15,0-0.24,0.02-0.29,0.07c-0.05,0.04-0.09,0.15-0.13,0.32l-1.62,7.09c-0.04,0.17-0.05,0.3-0.05,0.41
					c0,0.11,0.03,0.21,0.1,0.29c0.07,0.08,0.16,0.14,0.27,0.16c0.12,0.03,0.37,0.04,0.74,0.04l-0.12,0.58h-3.76l0.14-0.58
					c0.33,0,0.56-0.02,0.72-0.04c0.16-0.02,0.28-0.06,0.36-0.13c0.08-0.06,0.15-0.15,0.21-0.26c0.09-0.19,0.15-0.34,0.17-0.45
					l1.59-7.01c0.03-0.14,0.05-0.25,0.05-0.32c0-0.06-0.02-0.1-0.07-0.13s-0.16-0.04-0.33-0.04c-0.45,0-0.83,0.07-1.15,0.22
					s-0.64,0.4-0.98,0.76c-0.22,0.23-0.5,0.62-0.85,1.17l-0.56-0.32l1.47-2.74h0.47v0.3h5.6l0.28-0.3H377.74z"/>
			</g>
		</g>
		<g style="clip-path:url(#SVGID_92_);">
			<defs>
				<rect id="SVGID_95_" x="367.8" y="59.28" width="34.08" height="24.36"/>
			</defs>
			<clipPath id="SVGID_96_">
				<use xlink:href="#SVGID_95_"  style="overflow:visible;"/>
			</clipPath>
			<g style="clip-path:url(#SVGID_96_);">
				<path d="M378.17,70.43h-0.82l0.1-0.37c0.29-0.04,0.52-0.08,0.7-0.14s0.36-0.13,0.54-0.22h0.32l-0.22,1.02
					c0.15-0.24,0.31-0.44,0.47-0.58c0.17-0.14,0.35-0.25,0.55-0.33s0.4-0.11,0.61-0.11c0.28,0,0.5,0.08,0.68,0.25
					s0.26,0.36,0.26,0.58c0,0.04,0,0.09-0.01,0.16c0.15-0.23,0.3-0.41,0.47-0.55c0.17-0.14,0.35-0.25,0.54-0.32s0.39-0.11,0.59-0.11
					c0.28,0,0.51,0.09,0.69,0.26s0.28,0.38,0.28,0.6c0,0.13-0.02,0.26-0.05,0.41l-0.46,2c-0.05,0.24-0.08,0.39-0.08,0.46
					c0,0.07,0.03,0.13,0.08,0.17c0.05,0.05,0.12,0.07,0.21,0.07c0.11,0,0.22-0.03,0.31-0.1c0.1-0.07,0.26-0.22,0.48-0.47l0.28,0.24
					c-0.22,0.28-0.44,0.47-0.64,0.59c-0.21,0.12-0.42,0.17-0.63,0.17c-0.23,0-0.42-0.07-0.57-0.2c-0.14-0.14-0.22-0.3-0.22-0.48
					c0-0.12,0.02-0.27,0.06-0.46l0.45-2c0.04-0.15,0.05-0.27,0.05-0.36c0-0.13-0.04-0.23-0.13-0.31s-0.19-0.12-0.32-0.12
					c-0.16,0-0.31,0.04-0.46,0.12c-0.2,0.11-0.39,0.28-0.57,0.5s-0.33,0.48-0.45,0.77c-0.17,0.41-0.31,0.88-0.42,1.42
					c-0.01,0.05-0.03,0.11-0.04,0.19l-0.21,0.85h-0.7l0.7-3.07c0.02-0.1,0.03-0.22,0.03-0.37c0-0.13-0.04-0.23-0.12-0.31
					s-0.19-0.12-0.32-0.12c-0.17,0-0.36,0.06-0.55,0.18c-0.19,0.12-0.37,0.29-0.54,0.52s-0.31,0.52-0.44,0.89
					c-0.13,0.37-0.23,0.7-0.29,1l-0.29,1.28h-0.72L378.17,70.43z"/>
				<path d="M384.78,75.58l-0.2-0.3c0.28-0.15,0.5-0.31,0.69-0.46c0.18-0.16,0.32-0.3,0.4-0.43c0.05-0.08,0.09-0.19,0.11-0.34
					c-0.08,0.01-0.15,0.02-0.21,0.02c-0.12,0-0.22-0.05-0.3-0.14c-0.08-0.09-0.13-0.21-0.13-0.36c0-0.15,0.05-0.28,0.14-0.37
					s0.22-0.15,0.37-0.15c0.18,0,0.34,0.07,0.46,0.21c0.13,0.14,0.19,0.32,0.19,0.54c0,0.2-0.05,0.39-0.14,0.59
					c-0.09,0.19-0.25,0.39-0.47,0.59C385.49,75.16,385.18,75.37,384.78,75.58z"/>
			</g>
		</g>
		<g style="clip-path:url(#SVGID_92_);">
			<defs>
				<rect id="SVGID_97_" x="367.8" y="59.28" width="34.08" height="24.36"/>
			</defs>
			<clipPath id="SVGID_98_">
				<use xlink:href="#SVGID_97_"  style="overflow:visible;"/>
			</clipPath>
			<g style="clip-path:url(#SVGID_98_);">
			</g>
		</g>
		<g style="clip-path:url(#SVGID_92_);">
			<defs>
				<rect id="SVGID_99_" x="367.8" y="59.28" width="34.08" height="24.36"/>
			</defs>
			<clipPath id="SVGID_100_">
				<use xlink:href="#SVGID_99_"  style="overflow:visible;"/>
			</clipPath>
			<g style="clip-path:url(#SVGID_100_);">
				<path d="M392.02,69.69l-0.78,3.42c-0.04,0.13-0.05,0.23-0.05,0.3c0,0.09,0.02,0.15,0.06,0.2c0.04,0.05,0.09,0.07,0.16,0.07
					c0.07,0,0.15-0.03,0.21-0.09c0.11-0.09,0.24-0.25,0.4-0.48l0.28,0.25c-0.16,0.23-0.33,0.42-0.54,0.55
					c-0.2,0.13-0.4,0.2-0.58,0.2c-0.2,0-0.36-0.07-0.5-0.21c-0.13-0.14-0.2-0.3-0.2-0.49c0-0.13,0.03-0.29,0.08-0.49l0.57-2.52h-1
					l0.09-0.37c0.24-0.01,0.47-0.04,0.67-0.09c0.2-0.05,0.45-0.13,0.75-0.26H392.02z M391.94,67.59c0.13,0,0.23,0.04,0.31,0.13
					c0.08,0.08,0.13,0.19,0.13,0.33c0,0.15-0.05,0.28-0.16,0.39c-0.11,0.11-0.23,0.16-0.37,0.16c-0.13,0-0.24-0.04-0.33-0.13
					c-0.09-0.09-0.14-0.2-0.14-0.32c0-0.15,0.05-0.28,0.17-0.39C391.66,67.65,391.79,67.59,391.94,67.59z"/>
				<path d="M394.66,69.69l-0.31,1.38c0.14-0.24,0.28-0.43,0.41-0.57c0.25-0.27,0.5-0.48,0.76-0.61c0.26-0.13,0.51-0.2,0.75-0.2
					c0.19,0,0.36,0.04,0.5,0.12c0.14,0.08,0.26,0.19,0.34,0.33s0.13,0.29,0.13,0.44c0,0.13-0.03,0.3-0.08,0.54l-0.43,1.87
					c-0.05,0.2-0.07,0.34-0.07,0.41c0,0.08,0.03,0.14,0.08,0.19s0.12,0.08,0.2,0.08c0.21,0,0.47-0.19,0.8-0.58l0.28,0.26
					c-0.26,0.3-0.48,0.5-0.67,0.61s-0.39,0.16-0.6,0.16c-0.16,0-0.29-0.03-0.41-0.09s-0.21-0.15-0.28-0.27s-0.1-0.24-0.1-0.37
					c0-0.11,0.02-0.26,0.06-0.44l0.44-1.95c0.04-0.17,0.06-0.3,0.06-0.39c0-0.13-0.04-0.23-0.12-0.31
					c-0.08-0.07-0.19-0.11-0.32-0.11c-0.15,0-0.32,0.04-0.49,0.13c-0.17,0.08-0.35,0.23-0.54,0.42c-0.19,0.2-0.37,0.44-0.53,0.73
					s-0.3,0.64-0.44,1.04c-0.07,0.18-0.14,0.46-0.22,0.83l-0.15,0.7h-0.73l0.82-3.62h-0.82l0.09-0.36c0.28-0.04,0.5-0.08,0.66-0.13
					c0.16-0.05,0.36-0.12,0.61-0.23H394.66z"/>
			</g>
		</g>
		<g style="clip-path:url(#SVGID_92_);">
			<defs>
				<rect id="SVGID_101_" x="367.8" y="59.28" width="34.08" height="24.36"/>
			</defs>
			<clipPath id="SVGID_102_">
				<use xlink:href="#SVGID_101_"  style="overflow:visible;"/>
			</clipPath>
			<g style="clip-path:url(#SVGID_102_);">
			</g>
		</g>
	</g>
	
		<line style="fill:none;stroke:#000000;stroke-linecap:round;stroke-linejoin:round;stroke-miterlimit:8;" x1="401.95" y1="79.6" x2="417.42" y2="106.76"/>
	<polygon style="fill-rule:evenodd;clip-rule:evenodd;" points="419.54,104.4 419.9,111.1 414.32,107.37 419.54,104.4 	"/>
	
		<line style="fill:none;stroke:#000000;stroke-linecap:round;stroke-linejoin:round;stroke-miterlimit:8;" x1="239.85" y1="71.4" x2="221.02" y2="81.36"/>
	<polygon style="fill-rule:evenodd;clip-rule:evenodd;" points="223.31,83.55 216.6,83.7 220.5,78.24 223.31,83.55 	"/>
	<g>
		<defs>
			<polygon id="SVGID_103_" points="246.84,162.6 267.48,162.6 267.48,186.96 246.84,186.96 246.84,162.6 			"/>
		</defs>
		<clipPath id="SVGID_104_">
			<use xlink:href="#SVGID_103_"  style="overflow:visible;"/>
		</clipPath>
		<g style="clip-path:url(#SVGID_104_);">
			<defs>
				<rect id="SVGID_105_" x="246.84" y="162.6" width="20.64" height="24.36"/>
			</defs>
			<clipPath id="SVGID_106_">
				<use xlink:href="#SVGID_105_"  style="overflow:visible;"/>
			</clipPath>
			<g style="clip-path:url(#SVGID_106_);">
				<path d="M255.57,171.42l-0.38,1.15h-2.43c-0.75,1.71-1.22,2.88-1.44,3.51c-0.17,0.5-0.2,0.87-0.08,1.09
					c0.11,0.23,0.31,0.34,0.6,0.34c0.21,0,0.42-0.07,0.63-0.22c0.2-0.15,0.4-0.39,0.59-0.75h0.27c-0.37,0.85-0.76,1.44-1.16,1.76
					c-0.4,0.32-0.79,0.49-1.18,0.49c-0.41,0-0.69-0.19-0.84-0.56c-0.15-0.37-0.07-1.03,0.25-1.99c0.25-0.75,0.75-1.98,1.51-3.69
					h-0.73c-0.42,0-0.78,0.08-1.07,0.23c-0.29,0.15-0.62,0.44-1,0.87h-0.29c0.71-1,1.25-1.62,1.63-1.87
					c0.38-0.25,0.84-0.38,1.39-0.38H255.57z"/>
			</g>
		</g>
		<g style="clip-path:url(#SVGID_104_);">
			<defs>
				<rect id="SVGID_107_" x="246.84" y="162.6" width="20.64" height="24.36"/>
			</defs>
			<clipPath id="SVGID_108_">
				<use xlink:href="#SVGID_107_"  style="overflow:visible;"/>
			</clipPath>
			<g style="clip-path:url(#SVGID_108_);">
				<path d="M256.18,175.17l-0.78,3.42c-0.04,0.13-0.05,0.22-0.05,0.3c0,0.08,0.02,0.15,0.06,0.2c0.04,0.05,0.09,0.07,0.16,0.07
					c0.07,0,0.15-0.03,0.21-0.09c0.11-0.09,0.24-0.25,0.4-0.48l0.28,0.25c-0.16,0.23-0.33,0.42-0.54,0.55
					c-0.2,0.13-0.4,0.2-0.58,0.2c-0.2,0-0.36-0.07-0.5-0.21c-0.13-0.14-0.2-0.3-0.2-0.49c0-0.13,0.03-0.29,0.08-0.49l0.57-2.52h-1
					l0.09-0.37c0.24-0.01,0.47-0.04,0.67-0.09c0.2-0.05,0.45-0.13,0.75-0.26H256.18z M256.09,173.07c0.13,0,0.23,0.04,0.31,0.13
					c0.08,0.08,0.13,0.19,0.13,0.33c0,0.15-0.05,0.28-0.16,0.39c-0.11,0.11-0.23,0.17-0.37,0.17c-0.13,0-0.24-0.04-0.33-0.13
					c-0.09-0.09-0.14-0.2-0.14-0.32c0-0.15,0.05-0.28,0.17-0.39C255.81,173.13,255.94,173.07,256.09,173.07z"/>
			</g>
		</g>
		<g style="clip-path:url(#SVGID_104_);">
			<defs>
				<rect id="SVGID_109_" x="246.84" y="162.6" width="20.64" height="24.36"/>
			</defs>
			<clipPath id="SVGID_110_">
				<use xlink:href="#SVGID_109_"  style="overflow:visible;"/>
			</clipPath>
			<g style="clip-path:url(#SVGID_110_);">
			</g>
		</g>
	</g>
	
		<line style="fill:none;stroke:#000000;stroke-width:1;stroke-linejoin:round;stroke-miterlimit:8;" x1="205.05" y1="173.11" x2="232.65" y2="173.14"/>
	<polygon style="fill-rule:evenodd;clip-rule:evenodd;" points="231.65,171.14 237.65,173.15 231.65,175.14 231.65,171.14 	"/>
	<polygon style="fill-rule:evenodd;clip-rule:evenodd;" points="206.05,175.11 200.05,173.1 206.05,171.11 206.05,175.11 	"/>
	
		<line style="fill:none;stroke:#000000;stroke-width:1;stroke-linejoin:round;stroke-miterlimit:8;" x1="210.67" y1="165.35" x2="228.44" y2="181.35"/>
	<polygon style="fill-rule:evenodd;clip-rule:evenodd;" points="229.03,179.2 232.15,184.7 226.35,182.17 229.03,179.2 	"/>
	<polygon style="fill-rule:evenodd;clip-rule:evenodd;" points="210.07,167.5 206.95,162 212.75,164.53 210.07,167.5 	"/>
	
		<line style="fill:none;stroke:#000000;stroke-width:1;stroke-linejoin:round;stroke-miterlimit:8;" x1="226.77" y1="166.04" x2="210.03" y2="181.86"/>
	<polygon style="fill-rule:evenodd;clip-rule:evenodd;" points="212.13,182.63 206.4,185.3 209.38,179.72 212.13,182.63 	"/>
	<polygon style="fill-rule:evenodd;clip-rule:evenodd;" points="224.67,165.27 230.4,162.6 227.42,168.18 224.67,165.27 	"/>
	
		<line style="fill:none;stroke:#000000;stroke-width:1;stroke-linejoin:round;stroke-miterlimit:8;" x1="222.8" y1="126.6" x2="232.65" y2="126.57"/>
	<polygon style="fill-rule:evenodd;clip-rule:evenodd;" points="231.64,124.57 237.65,126.55 231.66,128.57 231.64,124.57 	"/>
	
		<line style="fill:none;stroke:#000000;stroke-width:1;stroke-linejoin:round;stroke-miterlimit:8;" x1="222.95" y1="126.95" x2="228.99" y2="132.4"/>
	<polygon style="fill-rule:evenodd;clip-rule:evenodd;" points="229.59,130.24 232.7,135.75 226.91,133.21 229.59,130.24 	"/>
	
		<line style="fill:none;stroke:#000000;stroke-width:1;stroke-linejoin:round;stroke-miterlimit:8;" x1="222.8" y1="126.55" x2="229.25" y2="119.77"/>
	<polygon style="fill-rule:evenodd;clip-rule:evenodd;" points="227.11,119.12 232.7,116.15 230.01,121.88 227.11,119.12 	"/>
	
		<line style="fill:none;stroke:#000000;stroke-width:1;stroke-linejoin:round;stroke-miterlimit:8;" x1="215.4" y1="126.5" x2="204.95" y2="126.53"/>
	<polygon style="fill-rule:evenodd;clip-rule:evenodd;" points="205.96,128.53 199.95,126.55 205.94,124.53 205.96,128.53 	"/>
	
		<line style="fill:none;stroke:#000000;stroke-width:1;stroke-linejoin:round;stroke-miterlimit:8;" x1="216.35" y1="126.6" x2="210.3" y2="132.78"/>
	<polygon style="fill-rule:evenodd;clip-rule:evenodd;" points="212.43,133.46 206.8,136.35 209.57,130.66 212.43,133.46 	"/>
	
		<line style="fill:none;stroke:#000000;stroke-width:1;stroke-linejoin:round;stroke-miterlimit:8;" x1="216" y1="126.15" x2="210.3" y2="120.32"/>
	<polygon style="fill-rule:evenodd;clip-rule:evenodd;" points="209.57,122.44 206.8,116.75 212.43,119.64 209.57,122.44 	"/>
	<g>
		<defs>
			<polygon id="SVGID_111_" points="162.36,115.2 187.32,115.2 187.32,142.08 162.36,142.08 162.36,115.2 			"/>
		</defs>
		<clipPath id="SVGID_112_">
			<use xlink:href="#SVGID_111_"  style="overflow:visible;"/>
		</clipPath>
		<g style="clip-path:url(#SVGID_112_);">
			<defs>
				<rect id="SVGID_113_" x="162.36" y="115.2" width="24.96" height="26.88"/>
			</defs>
			<clipPath id="SVGID_114_">
				<use xlink:href="#SVGID_113_"  style="overflow:visible;"/>
			</clipPath>
			<g style="clip-path:url(#SVGID_114_);">
				<path d="M166.65,128.89c-0.61-0.26-0.98-0.53-1.11-0.83c-0.14-0.29-0.14-0.64,0-1.05c0.18-0.54,0.56-1,1.14-1.36
					c0.79-0.5,1.69-0.75,2.7-0.75c0.6,0,1.12,0.07,1.56,0.21c0.43,0.14,0.7,0.32,0.8,0.55c0.1,0.23,0.11,0.44,0.05,0.64
					c-0.06,0.18-0.19,0.35-0.39,0.5s-0.4,0.22-0.6,0.22c-0.32,0-0.52-0.21-0.59-0.63c-0.08-0.42-0.17-0.67-0.28-0.77
					c-0.18-0.15-0.43-0.23-0.77-0.23c-0.53,0-1,0.15-1.41,0.46s-0.71,0.72-0.88,1.25c-0.17,0.51-0.17,0.91-0.01,1.19
					c0.17,0.28,0.47,0.41,0.93,0.41c0.15,0,0.32-0.01,0.51-0.04c0.3-0.04,0.53-0.06,0.7-0.06c0.25,0,0.41,0.03,0.48,0.1
					c0.07,0.07,0.09,0.14,0.06,0.23c-0.03,0.09-0.09,0.16-0.18,0.2c-0.13,0.08-0.33,0.11-0.59,0.11c-0.06,0-0.15-0.01-0.28-0.03
					c-0.29-0.04-0.53-0.06-0.73-0.06c-0.49,0-0.95,0.16-1.37,0.48c-0.42,0.32-0.72,0.75-0.9,1.28c-0.21,0.61-0.2,1.09,0.01,1.44
					c0.21,0.34,0.57,0.51,1.09,0.51c0.42,0,0.8-0.13,1.15-0.38c0.2-0.15,0.46-0.45,0.79-0.91c0.21-0.3,0.37-0.49,0.46-0.56
					c0.25-0.19,0.48-0.28,0.69-0.28c0.25,0,0.43,0.08,0.54,0.25c0.11,0.17,0.13,0.38,0.04,0.63c-0.13,0.4-0.49,0.78-1.07,1.12
					c-0.84,0.49-1.77,0.73-2.82,0.73c-1.1,0-1.87-0.24-2.3-0.73s-0.55-1.03-0.35-1.62c0.14-0.42,0.43-0.82,0.88-1.2
					C165.02,129.55,165.71,129.2,166.65,128.89z"/>
			</g>
		</g>
		<g style="clip-path:url(#SVGID_112_);">
			<defs>
				<rect id="SVGID_115_" x="162.36" y="115.2" width="24.96" height="26.88"/>
			</defs>
			<clipPath id="SVGID_116_">
				<use xlink:href="#SVGID_115_"  style="overflow:visible;"/>
			</clipPath>
			<g style="clip-path:url(#SVGID_116_);">
				<path d="M174.69,129.18l-0.13,0.54h-1.22l-1.01,4.37c-0.09,0.41-0.22,0.81-0.39,1.22c-0.17,0.41-0.42,0.72-0.74,0.95
					c-0.32,0.22-0.67,0.33-1.05,0.33c-0.31,0-0.55-0.07-0.73-0.2c-0.18-0.13-0.27-0.28-0.27-0.44c0-0.11,0.04-0.21,0.12-0.29
					c0.08-0.08,0.18-0.12,0.3-0.12c0.14,0,0.29,0.08,0.46,0.23c0.12,0.11,0.21,0.18,0.26,0.21c0.06,0.03,0.12,0.05,0.18,0.05
					c0.2,0,0.37-0.09,0.52-0.27s0.29-0.56,0.42-1.14l1.11-4.88h-0.9l0.11-0.54h0.92l0.12-0.51c0.16-0.73,0.43-1.26,0.8-1.59
					c0.37-0.33,0.84-0.49,1.41-0.49c0.38,0,0.69,0.08,0.9,0.24c0.22,0.16,0.33,0.33,0.33,0.52c0,0.11-0.04,0.21-0.13,0.3
					c-0.09,0.09-0.19,0.13-0.31,0.13c-0.08,0-0.16-0.02-0.23-0.06c-0.09-0.05-0.19-0.13-0.3-0.26c-0.13-0.14-0.23-0.24-0.32-0.29
					s-0.17-0.07-0.26-0.07c-0.12,0-0.23,0.03-0.34,0.1c-0.11,0.06-0.2,0.16-0.28,0.28s-0.17,0.31-0.26,0.58
					c-0.05,0.13-0.09,0.3-0.14,0.53l-0.14,0.58H174.69z"/>
			</g>
		</g>
		<g style="clip-path:url(#SVGID_112_);">
			<defs>
				<rect id="SVGID_117_" x="162.36" y="115.2" width="24.96" height="26.88"/>
			</defs>
			<clipPath id="SVGID_118_">
				<use xlink:href="#SVGID_117_"  style="overflow:visible;"/>
			</clipPath>
			<g style="clip-path:url(#SVGID_118_);">
				<path d="M174.64,135.96l-0.23-0.35c0.32-0.18,0.59-0.36,0.81-0.54s0.37-0.35,0.47-0.51c0.06-0.09,0.1-0.22,0.13-0.4
					c-0.1,0.02-0.18,0.03-0.24,0.03c-0.14,0-0.26-0.05-0.36-0.16s-0.15-0.25-0.15-0.42c0-0.18,0.06-0.33,0.17-0.44
					c0.11-0.11,0.26-0.17,0.43-0.17c0.21,0,0.39,0.08,0.54,0.24c0.15,0.16,0.22,0.37,0.22,0.63c0,0.23-0.06,0.46-0.17,0.69
					c-0.11,0.23-0.29,0.46-0.55,0.69C175.47,135.48,175.11,135.72,174.64,135.96z"/>
			</g>
		</g>
		<g style="clip-path:url(#SVGID_112_);">
			<defs>
				<rect id="SVGID_119_" x="162.36" y="115.2" width="24.96" height="26.88"/>
			</defs>
			<clipPath id="SVGID_120_">
				<use xlink:href="#SVGID_119_"  style="overflow:visible;"/>
			</clipPath>
			<g style="clip-path:url(#SVGID_120_);">
				<path d="M182.74,129.81l-0.78,3.42c-0.04,0.13-0.05,0.22-0.05,0.3c0,0.08,0.02,0.15,0.06,0.2c0.04,0.05,0.1,0.07,0.16,0.07
					c0.07,0,0.15-0.03,0.21-0.09c0.11-0.09,0.24-0.25,0.4-0.48l0.28,0.25c-0.16,0.23-0.34,0.42-0.54,0.55
					c-0.2,0.13-0.4,0.2-0.58,0.2c-0.2,0-0.36-0.07-0.5-0.21c-0.13-0.14-0.2-0.3-0.2-0.49c0-0.13,0.02-0.29,0.07-0.49l0.57-2.52h-1
					l0.09-0.37c0.24-0.01,0.47-0.04,0.67-0.09c0.2-0.05,0.45-0.13,0.74-0.26H182.74z M182.66,127.71c0.13,0,0.23,0.04,0.31,0.13
					c0.08,0.08,0.13,0.19,0.13,0.33c0,0.15-0.05,0.28-0.16,0.39c-0.11,0.11-0.23,0.17-0.37,0.17c-0.13,0-0.24-0.04-0.33-0.13
					c-0.09-0.09-0.14-0.2-0.14-0.32c0-0.15,0.06-0.28,0.17-0.39C182.38,127.77,182.51,127.71,182.66,127.71z"/>
			</g>
		</g>
		<g style="clip-path:url(#SVGID_112_);">
			<defs>
				<rect id="SVGID_121_" x="162.36" y="115.2" width="24.96" height="26.88"/>
			</defs>
			<clipPath id="SVGID_122_">
				<use xlink:href="#SVGID_121_"  style="overflow:visible;"/>
			</clipPath>
			<g style="clip-path:url(#SVGID_122_);">
			</g>
		</g>
	</g>
	<g>
		<defs>
			<polygon id="SVGID_123_" points="249.6,118.44 281.16,118.44 281.16,142.08 249.6,142.08 249.6,118.44 			"/>
		</defs>
		<clipPath id="SVGID_124_">
			<use xlink:href="#SVGID_123_"  style="overflow:visible;"/>
		</clipPath>
		<g style="clip-path:url(#SVGID_124_);">
			<defs>
				<rect id="SVGID_125_" x="249.6" y="118.44" width="31.56" height="23.64"/>
			</defs>
			<clipPath id="SVGID_126_">
				<use xlink:href="#SVGID_125_"  style="overflow:visible;"/>
			</clipPath>
			<g style="clip-path:url(#SVGID_126_);">
				<path d="M253.89,132.25c-0.61-0.26-0.98-0.53-1.11-0.83c-0.14-0.29-0.14-0.64,0-1.05c0.18-0.54,0.56-1,1.14-1.36
					c0.79-0.5,1.69-0.75,2.7-0.75c0.6,0,1.12,0.07,1.55,0.21c0.43,0.14,0.7,0.32,0.8,0.55c0.1,0.23,0.11,0.44,0.05,0.64
					c-0.06,0.18-0.19,0.35-0.39,0.5s-0.4,0.22-0.6,0.22c-0.32,0-0.52-0.21-0.59-0.63c-0.08-0.42-0.17-0.67-0.28-0.77
					c-0.18-0.15-0.43-0.23-0.77-0.23c-0.53,0-1,0.15-1.41,0.46s-0.71,0.72-0.88,1.25c-0.17,0.51-0.17,0.91-0.01,1.19
					c0.17,0.28,0.47,0.41,0.93,0.41c0.15,0,0.32-0.01,0.51-0.04c0.3-0.04,0.53-0.06,0.7-0.06c0.25,0,0.41,0.03,0.48,0.1
					c0.07,0.07,0.09,0.14,0.06,0.23c-0.03,0.09-0.09,0.16-0.18,0.2c-0.13,0.08-0.33,0.11-0.59,0.11c-0.06,0-0.15-0.01-0.28-0.03
					c-0.29-0.04-0.53-0.06-0.73-0.06c-0.49,0-0.95,0.16-1.37,0.48c-0.42,0.32-0.72,0.75-0.89,1.28c-0.21,0.61-0.2,1.09,0.01,1.44
					c0.21,0.34,0.57,0.51,1.09,0.51c0.42,0,0.8-0.13,1.15-0.38c0.2-0.15,0.46-0.45,0.79-0.91c0.21-0.3,0.37-0.49,0.46-0.56
					c0.25-0.19,0.48-0.28,0.69-0.28c0.25,0,0.43,0.08,0.54,0.25c0.11,0.17,0.13,0.38,0.04,0.63c-0.13,0.4-0.49,0.78-1.07,1.12
					c-0.84,0.49-1.77,0.73-2.82,0.73c-1.1,0-1.87-0.24-2.3-0.73s-0.55-1.03-0.35-1.62c0.14-0.42,0.43-0.82,0.88-1.2
					C252.26,132.9,252.95,132.56,253.89,132.25z"/>
			</g>
		</g>
		<g style="clip-path:url(#SVGID_124_);">
			<defs>
				<rect id="SVGID_127_" x="249.6" y="118.44" width="31.56" height="23.64"/>
			</defs>
			<clipPath id="SVGID_128_">
				<use xlink:href="#SVGID_127_"  style="overflow:visible;"/>
			</clipPath>
			<g style="clip-path:url(#SVGID_128_);">
				<path d="M261.12,129.95l-0.91,4.04c0.18-0.29,0.35-0.51,0.5-0.68c0.29-0.3,0.58-0.53,0.88-0.67s0.6-0.22,0.9-0.22
					c0.44,0,0.81,0.16,1.11,0.47s0.44,0.72,0.44,1.21c0,0.61-0.15,1.21-0.46,1.78s-0.69,1.01-1.15,1.31
					c-0.46,0.3-0.95,0.45-1.47,0.45c-0.29,0-0.54-0.05-0.78-0.14s-0.48-0.25-0.74-0.48l-0.24,0.5h-0.64l1.52-6.7h-0.98l0.1-0.43
					c0.53-0.05,1.03-0.19,1.5-0.43H261.12z M259.63,136.6c0.19,0.18,0.38,0.31,0.58,0.4c0.2,0.09,0.4,0.14,0.61,0.14
					c0.35,0,0.69-0.12,1.03-0.36s0.63-0.62,0.87-1.13c0.25-0.51,0.37-1.01,0.37-1.49c0-0.25-0.04-0.47-0.12-0.67
					c-0.06-0.14-0.16-0.25-0.29-0.34c-0.14-0.09-0.28-0.13-0.43-0.13c-0.33,0-0.66,0.14-0.99,0.41c-0.44,0.37-0.81,0.88-1.11,1.52
					C259.94,135.37,259.77,135.92,259.63,136.6z"/>
			</g>
		</g>
		<g style="clip-path:url(#SVGID_124_);">
			<defs>
				<rect id="SVGID_129_" x="249.6" y="118.44" width="31.56" height="23.64"/>
			</defs>
			<clipPath id="SVGID_130_">
				<use xlink:href="#SVGID_129_"  style="overflow:visible;"/>
			</clipPath>
			<g style="clip-path:url(#SVGID_130_);">
				<path d="M264.51,139.32l-0.23-0.35c0.32-0.18,0.59-0.36,0.81-0.54s0.37-0.35,0.47-0.51c0.06-0.09,0.1-0.22,0.13-0.4
					c-0.1,0.02-0.18,0.03-0.24,0.03c-0.14,0-0.26-0.05-0.36-0.16c-0.1-0.11-0.15-0.25-0.15-0.42c0-0.18,0.06-0.33,0.17-0.44
					s0.26-0.17,0.43-0.17c0.21,0,0.39,0.08,0.54,0.24c0.15,0.16,0.22,0.37,0.22,0.63c0,0.23-0.06,0.46-0.17,0.69
					c-0.11,0.23-0.29,0.46-0.55,0.69C265.35,138.83,264.98,139.08,264.51,139.32z"/>
			</g>
		</g>
		<g style="clip-path:url(#SVGID_124_);">
			<defs>
				<rect id="SVGID_131_" x="249.6" y="118.44" width="31.56" height="23.64"/>
			</defs>
			<clipPath id="SVGID_132_">
				<use xlink:href="#SVGID_131_"  style="overflow:visible;"/>
			</clipPath>
			<g style="clip-path:url(#SVGID_132_);">
				<path d="M272.62,133.18l-0.78,3.42c-0.04,0.13-0.05,0.22-0.05,0.3c0,0.08,0.02,0.15,0.06,0.2c0.04,0.05,0.09,0.07,0.16,0.07
					c0.07,0,0.15-0.03,0.21-0.09c0.11-0.09,0.24-0.25,0.4-0.48l0.28,0.25c-0.16,0.23-0.33,0.42-0.54,0.55
					c-0.2,0.13-0.4,0.2-0.58,0.2c-0.2,0-0.36-0.07-0.5-0.21c-0.13-0.14-0.2-0.3-0.2-0.49c0-0.13,0.03-0.29,0.08-0.49l0.57-2.52h-1
					l0.09-0.37c0.24-0.01,0.47-0.04,0.67-0.09c0.2-0.05,0.45-0.13,0.75-0.26H272.62z M272.54,131.08c0.13,0,0.23,0.04,0.31,0.13
					c0.08,0.08,0.13,0.19,0.13,0.33c0,0.15-0.05,0.28-0.16,0.39c-0.11,0.11-0.23,0.17-0.37,0.17c-0.13,0-0.24-0.04-0.33-0.13
					c-0.09-0.09-0.14-0.2-0.14-0.32c0-0.15,0.05-0.28,0.17-0.39C272.26,131.13,272.39,131.08,272.54,131.08z"/>
			</g>
		</g>
		<g style="clip-path:url(#SVGID_124_);">
			<defs>
				<rect id="SVGID_133_" x="249.6" y="118.44" width="31.56" height="23.64"/>
			</defs>
			<clipPath id="SVGID_134_">
				<use xlink:href="#SVGID_133_"  style="overflow:visible;"/>
			</clipPath>
			<g style="clip-path:url(#SVGID_134_);">
			</g>
		</g>
	</g>
	<g>
		<defs>
			<polygon id="SVGID_135_" points="83.64,204 91.56,204 91.56,225.84 83.64,225.84 83.64,204 			"/>
		</defs>
		<clipPath id="SVGID_136_">
			<use xlink:href="#SVGID_135_"  style="overflow:visible;"/>
		</clipPath>
		<g style="clip-path:url(#SVGID_136_);">
			<defs>
				<rect id="SVGID_137_" x="83.64" y="204" width="7.92" height="21.84"/>
			</defs>
			<clipPath id="SVGID_138_">
				<use xlink:href="#SVGID_137_"  style="overflow:visible;"/>
			</clipPath>
			<g style="clip-path:url(#SVGID_138_);">
				<path d="M89.95,216.11l-1.58,6.93c-0.04,0.15-0.06,0.25-0.06,0.32c0,0.09,0.03,0.17,0.08,0.24c0.05,0.07,0.12,0.12,0.21,0.15
					s0.25,0.04,0.48,0.04h0.49l-0.11,0.49h-3.79l0.12-0.49h0.45c0.37,0,0.61-0.02,0.73-0.07s0.21-0.13,0.29-0.24
					s0.15-0.33,0.22-0.64l1.25-5.51h-1.8l0.12-0.5c0.38-0.06,0.8-0.16,1.25-0.29c0.45-0.13,0.83-0.28,1.15-0.42H89.95z"/>
			</g>
		</g>
		<g style="clip-path:url(#SVGID_136_);">
			<defs>
				<rect id="SVGID_139_" x="83.64" y="204" width="7.92" height="21.84"/>
			</defs>
			<clipPath id="SVGID_140_">
				<use xlink:href="#SVGID_139_"  style="overflow:visible;"/>
			</clipPath>
			<g style="clip-path:url(#SVGID_140_);">
			</g>
		</g>
	</g>
	<g>
		<defs>
			<polygon id="SVGID_141_" points="347.4,202.8 356.76,202.8 356.76,224.64 347.4,224.64 347.4,202.8 			"/>
		</defs>
		<clipPath id="SVGID_142_">
			<use xlink:href="#SVGID_141_"  style="overflow:visible;"/>
		</clipPath>
		<g style="clip-path:url(#SVGID_142_);">
			<defs>
				<rect id="SVGID_143_" x="347.4" y="202.8" width="9.36" height="21.84"/>
			</defs>
			<clipPath id="SVGID_144_">
				<use xlink:href="#SVGID_143_"  style="overflow:visible;"/>
			</clipPath>
			<g style="clip-path:url(#SVGID_144_);">
				<path d="M350.89,217.29l-0.42,1.84c0.19-0.32,0.37-0.58,0.54-0.76c0.33-0.36,0.67-0.63,1.02-0.81c0.35-0.18,0.68-0.27,1.01-0.27
					c0.25,0,0.48,0.05,0.67,0.16c0.19,0.1,0.34,0.25,0.46,0.44c0.11,0.19,0.17,0.38,0.17,0.58c0,0.17-0.04,0.41-0.11,0.72l-0.58,2.5
					c-0.06,0.27-0.09,0.45-0.09,0.55c0,0.11,0.04,0.19,0.11,0.26c0.07,0.07,0.16,0.1,0.27,0.1c0.28,0,0.63-0.26,1.07-0.78l0.37,0.35
					c-0.34,0.4-0.64,0.67-0.9,0.81s-0.52,0.22-0.8,0.22c-0.21,0-0.39-0.04-0.55-0.12c-0.16-0.08-0.28-0.2-0.37-0.35
					s-0.13-0.32-0.13-0.49c0-0.15,0.03-0.35,0.08-0.59l0.59-2.6c0.05-0.22,0.08-0.39,0.08-0.52c0-0.17-0.05-0.31-0.16-0.41
					c-0.11-0.1-0.25-0.15-0.43-0.15c-0.21,0-0.42,0.06-0.65,0.17c-0.23,0.11-0.47,0.3-0.72,0.56c-0.25,0.26-0.49,0.59-0.7,0.97
					c-0.21,0.39-0.41,0.85-0.58,1.38c-0.09,0.25-0.18,0.62-0.29,1.11l-0.2,0.93h-0.97l1.1-4.83h-1.1l0.12-0.48
					c0.38-0.05,0.67-0.11,0.88-0.18c0.21-0.06,0.48-0.17,0.81-0.31H350.89z"/>
			</g>
		</g>
		<g style="clip-path:url(#SVGID_142_);">
			<defs>
				<rect id="SVGID_145_" x="347.4" y="202.8" width="9.36" height="21.84"/>
			</defs>
			<clipPath id="SVGID_146_">
				<use xlink:href="#SVGID_145_"  style="overflow:visible;"/>
			</clipPath>
			<g style="clip-path:url(#SVGID_146_);">
			</g>
		</g>
	</g>
</g>
</svg>
