<?xml version="1.0" encoding="iso-8859-1"?>
<!-- Generator: Adobe Illustrator 16.0.3, SVG Export Plug-In . SVG Version: 6.00 Build 0)  -->
<!DOCTYPE svg PUBLIC "-//W3C//DTD SVG 1.1//EN" "http://www.w3.org/Graphics/SVG/1.1/DTD/svg11.dtd">
<svg version="1.1" id="Layer_1" xmlns="http://www.w3.org/2000/svg" xmlns:xlink="http://www.w3.org/1999/xlink" x="0px" y="0px"
	 width="505.35px" height="170.9px" viewBox="0 0 505.35 170.9" style="enable-background:new 0 0 505.35 170.9;"
	 xml:space="preserve">
<g>
	<polygon style="fill-rule:evenodd;clip-rule:evenodd;" points="231,13 219,16 219,13 219,10 231,13 	"/>
	<line style="fill:none;stroke:#000000;stroke-linecap:square;stroke-miterlimit:10;" x1="8" y1="13" x2="219" y2="13"/>
	<polygon style="fill-rule:evenodd;clip-rule:evenodd;" points="259,41 247,44 247,41 247,38 259,41 	"/>
	<line style="fill:none;stroke:#000000;stroke-linecap:square;stroke-miterlimit:10;" x1="37" y1="41" x2="247" y2="41"/>
	<polygon style="fill-rule:evenodd;clip-rule:evenodd;" points="288,70 276,73 276,70 276,67 288,70 	"/>
	<line style="fill:none;stroke:#000000;stroke-linecap:square;stroke-miterlimit:10;" x1="65" y1="70" x2="276" y2="70"/>
	<polygon style="fill-rule:evenodd;clip-rule:evenodd;" points="316,101 304,104 304,101 304,98 316,101 	"/>
	<line style="fill:none;stroke:#000000;stroke-linecap:square;stroke-miterlimit:10;" x1="93" y1="101" x2="304" y2="101"/>
	<polygon style="fill-rule:evenodd;clip-rule:evenodd;" points="344,131 332,134 332,131 332,128 344,131 	"/>
	<line style="fill:none;stroke:#000000;stroke-linecap:square;stroke-miterlimit:10;" x1="121" y1="131" x2="332" y2="131"/>
	<polygon style="fill-rule:evenodd;clip-rule:evenodd;fill:#FFFFFF;" points="30,30 42,30 42,53 30,53 30,30 	"/>
	<g>
		<path d="M31.72,42.2c0-0.82,0.2-1.61,0.61-2.38s0.98-1.35,1.72-1.76s1.57-0.61,2.48-0.61c1.41,0,2.57,0.46,3.47,1.38
			s1.35,2.08,1.35,3.48c0,1.41-0.46,2.58-1.37,3.51s-2.06,1.39-3.44,1.39c-0.86,0-1.67-0.19-2.45-0.58s-1.37-0.95-1.77-1.7
			S31.72,43.27,31.72,42.2z M34.25,42.33c0,0.93,0.22,1.63,0.66,2.13s0.98,0.74,1.63,0.74s1.19-0.25,1.62-0.74s0.65-1.21,0.65-2.14
			c0-0.91-0.22-1.62-0.65-2.11s-0.98-0.74-1.62-0.74s-1.19,0.25-1.63,0.74S34.25,41.41,34.25,42.33z"/>
	</g>
	<polygon style="fill-rule:evenodd;clip-rule:evenodd;fill:#FFFFFF;" points="87,30 99,30 99,53 87,53 87,30 	"/>
	<g>
		<path d="M88.72,42.2c0-0.82,0.2-1.61,0.61-2.38s0.98-1.35,1.72-1.76s1.57-0.61,2.48-0.61c1.41,0,2.57,0.46,3.47,1.38
			s1.35,2.08,1.35,3.48c0,1.41-0.46,2.58-1.37,3.51s-2.06,1.39-3.44,1.39c-0.86,0-1.67-0.19-2.45-0.58s-1.37-0.95-1.77-1.7
			S88.72,43.27,88.72,42.2z M91.25,42.33c0,0.93,0.22,1.63,0.66,2.13s0.98,0.74,1.63,0.74s1.19-0.25,1.62-0.74s0.65-1.21,0.65-2.14
			c0-0.91-0.22-1.62-0.65-2.11s-0.98-0.74-1.62-0.74s-1.19,0.25-1.63,0.74S91.25,41.41,91.25,42.33z"/>
	</g>
	<polygon style="fill-rule:evenodd;clip-rule:evenodd;fill:#FFFFFF;" points="143,30 155,30 155,53 143,53 143,30 	"/>
	<g>
		<path d="M144.72,42.2c0-0.82,0.2-1.61,0.61-2.38s0.98-1.35,1.72-1.76s1.57-0.61,2.48-0.61c1.41,0,2.57,0.46,3.47,1.38
			s1.35,2.08,1.35,3.48c0,1.41-0.46,2.58-1.37,3.51s-2.06,1.39-3.44,1.39c-0.86,0-1.67-0.19-2.45-0.58s-1.37-0.95-1.77-1.7
			S144.72,43.27,144.72,42.2z M147.25,42.33c0,0.93,0.22,1.63,0.66,2.13s0.98,0.74,1.63,0.74s1.19-0.25,1.62-0.74
			s0.65-1.21,0.65-2.14c0-0.91-0.22-1.62-0.65-2.11s-0.98-0.74-1.62-0.74s-1.19,0.25-1.63,0.74S147.25,41.41,147.25,42.33z"/>
	</g>
	<polygon style="fill-rule:evenodd;clip-rule:evenodd;fill:#FFFFFF;" points="200,30 212,30 212,53 200,53 200,30 	"/>
	<g>
		<path d="M201.72,42.2c0-0.82,0.2-1.61,0.61-2.38s0.98-1.35,1.72-1.76s1.57-0.61,2.48-0.61c1.41,0,2.57,0.46,3.47,1.38
			s1.35,2.08,1.35,3.48c0,1.41-0.46,2.58-1.37,3.51s-2.06,1.39-3.44,1.39c-0.86,0-1.67-0.19-2.45-0.58s-1.37-0.95-1.77-1.7
			S201.72,43.27,201.72,42.2z M204.25,42.33c0,0.93,0.22,1.63,0.66,2.13s0.98,0.74,1.63,0.74s1.19-0.25,1.62-0.74
			s0.65-1.21,0.65-2.14c0-0.91-0.22-1.62-0.65-2.11s-0.98-0.74-1.62-0.74s-1.19,0.25-1.63,0.74S204.25,41.41,204.25,42.33z"/>
	</g>
	<polygon style="fill-rule:evenodd;clip-rule:evenodd;fill:#FFFFFF;" points="257,30 269,30 269,53 257,53 257,30 	"/>
	<g>
		<path d="M258.73,42.2c0-0.82,0.2-1.61,0.61-2.38s0.98-1.35,1.72-1.76s1.57-0.61,2.48-0.61c1.41,0,2.57,0.46,3.47,1.38
			s1.35,2.08,1.35,3.48c0,1.41-0.46,2.58-1.37,3.51s-2.06,1.39-3.44,1.39c-0.86,0-1.67-0.19-2.45-0.58s-1.37-0.95-1.77-1.7
			S258.73,43.27,258.73,42.2z M261.26,42.33c0,0.93,0.22,1.63,0.66,2.13s0.98,0.74,1.63,0.74s1.18-0.25,1.62-0.74
			s0.66-1.21,0.66-2.14c0-0.91-0.22-1.62-0.66-2.11s-0.98-0.74-1.62-0.74s-1.19,0.25-1.63,0.74S261.26,41.41,261.26,42.33z"/>
	</g>
	<polygon style="fill-rule:evenodd;clip-rule:evenodd;fill:#FFFFFF;" points="0,0 17,0 17,23 0,23 0,0 	"/>
	<g>
		<path d="M1.11,17.01l3.37-4.81L1.25,7.67h3.01l1.65,2.57l1.74-2.57h2.9l-3.16,4.42l3.45,4.91H7.81l-1.9-2.89L4,17.01H1.11z"/>
	</g>
	<polygon style="fill-rule:evenodd;clip-rule:evenodd;fill:#FFFFFF;" points="57,0 73,0 73,23 57,23 57,0 	"/>
	<g>
		<path d="M58.11,17.01l3.37-4.81l-3.23-4.53h3.01l1.65,2.57l1.74-2.57h2.9l-3.16,4.42l3.45,4.91h-3.03l-1.9-2.89L61,17.01H58.11z"
			/>
	</g>
	<polygon style="fill-rule:evenodd;clip-rule:evenodd;fill:#FFFFFF;" points="113,0 130,0 130,23 113,23 113,0 	"/>
	<g>
		<path d="M114.11,17.01l3.37-4.81l-3.23-4.53h3.01l1.65,2.57l1.74-2.57h2.9l-3.16,4.42l3.45,4.91h-3.03l-1.9-2.89L117,17.01H114.11
			z"/>
	</g>
	<polygon style="fill-rule:evenodd;clip-rule:evenodd;fill:#FFFFFF;" points="170,0 187,0 187,23 170,23 170,0 	"/>
	<g>
		<path d="M171.11,17.01l3.37-4.81l-3.23-4.53h3.01l1.65,2.57l1.74-2.57h2.9l-3.16,4.42l3.45,4.91h-3.03l-1.9-2.89L174,17.01H171.11
			z"/>
	</g>
	<polygon style="fill-rule:evenodd;clip-rule:evenodd;fill:#FFFFFF;" points="227,0 243,0 243,23 227,23 227,0 	"/>
	<g>
		<path d="M228.11,17.01l3.37-4.81l-3.23-4.53h3.01l1.65,2.57l1.74-2.57h2.9l-3.16,4.42l3.45,4.91h-3.03l-1.9-2.89L231,17.01H228.11
			z"/>
	</g>
	<polygon style="fill-rule:evenodd;clip-rule:evenodd;fill:#FFFFFF;" points="310,89 329,89 329,112 310,112 310,89 	"/>
	<g>
		<path d="M311.72,101.2c0-0.82,0.2-1.61,0.61-2.38s0.98-1.35,1.72-1.76s1.57-0.61,2.48-0.61c1.41,0,2.57,0.46,3.47,1.38
			c0.9,0.92,1.35,2.08,1.35,3.48c0,1.41-0.46,2.58-1.37,3.51s-2.06,1.39-3.44,1.39c-0.86,0-1.67-0.19-2.45-0.58s-1.37-0.95-1.77-1.7
			C311.92,103.18,311.72,102.27,311.72,101.2z M314.25,101.33c0,0.93,0.22,1.63,0.66,2.13s0.98,0.74,1.63,0.74s1.18-0.25,1.62-0.74
			s0.66-1.21,0.66-2.14c0-0.91-0.22-1.62-0.66-2.11s-0.98-0.74-1.62-0.74s-1.19,0.25-1.63,0.74S314.25,100.41,314.25,101.33z"/>
		<path d="M323.27,97.69l-0.47-2.4v-2.18h2.69v2.18l-0.4,2.4H323.27z"/>
	</g>
	<line style="fill:none;stroke:#000000;stroke-linecap:square;stroke-miterlimit:10;" x1="7" y1="22" x2="7" y2="127"/>
	<line style="fill:none;stroke:#000000;stroke-linecap:square;stroke-miterlimit:10;" x1="64" y1="22" x2="64" y2="127"/>
	<polygon style="fill-rule:evenodd;clip-rule:evenodd;" points="10,121 22,118 22,121 22,124 10,121 	"/>
	<polygon style="fill-rule:evenodd;clip-rule:evenodd;" points="61,121 49,124 49,121 49,118 61,121 	"/>
	<line style="fill:none;stroke:#000000;stroke-linecap:square;stroke-miterlimit:10;" x1="22" y1="121" x2="49" y2="121"/>
	<polygon style="fill-rule:evenodd;clip-rule:evenodd;fill:#FFFFFF;" points="27,113 42,113 42,129 27,129 27,113 	"/>
	<g>
		<path d="M32.84,125v-0.79c-0.39,0.62-0.97,0.93-1.74,0.93c-0.5,0-0.95-0.14-1.37-0.41s-0.74-0.66-0.97-1.15s-0.34-1.05-0.34-1.69
			c0-0.62,0.1-1.18,0.31-1.69s0.52-0.89,0.93-1.16s0.88-0.4,1.39-0.4c0.38,0,0.71,0.08,1,0.24s0.53,0.36,0.71,0.62v-3.08h1.05V125
			H32.84z M29.5,121.89c0,0.8,0.17,1.39,0.5,1.79s0.73,0.59,1.19,0.59c0.46,0,0.85-0.19,1.17-0.57s0.48-0.95,0.48-1.73
			c0-0.85-0.16-1.48-0.49-1.88s-0.73-0.6-1.21-0.6c-0.47,0-0.86,0.19-1.17,0.57S29.5,121.07,29.5,121.89z"/>
		<path d="M37.78,124.06l0.15,0.93c-0.3,0.06-0.56,0.09-0.8,0.09c-0.38,0-0.68-0.06-0.89-0.18s-0.36-0.28-0.45-0.48
			s-0.13-0.61-0.13-1.25v-3.58h-0.77v-0.82h0.77v-1.54l1.05-0.63v2.17h1.06v0.82h-1.06v3.64c0,0.3,0.02,0.49,0.06,0.58
			s0.1,0.15,0.18,0.21s0.2,0.08,0.36,0.08C37.43,124.1,37.58,124.08,37.78,124.06z"/>
	</g>
	<polygon style="fill-rule:evenodd;clip-rule:evenodd;" points="30,33 18,29 20,26 22,24 30,33 	"/>
	<line style="fill:none;stroke:#000000;stroke-linecap:square;stroke-miterlimit:10;" x1="10" y1="19" x2="20" y2="26"/>
	<polygon style="fill-rule:evenodd;clip-rule:evenodd;" points="86,33 75,29 77,26 78,24 86,33 	"/>
	<line style="fill:none;stroke:#000000;stroke-linecap:square;stroke-miterlimit:10;" x1="67" y1="19" x2="77" y2="26"/>
	<polygon style="fill-rule:evenodd;clip-rule:evenodd;" points="143,33 132,29 133,26 135,24 143,33 	"/>
	<line style="fill:none;stroke:#000000;stroke-linecap:square;stroke-miterlimit:10;" x1="123" y1="19" x2="133" y2="26"/>
	<polygon style="fill-rule:evenodd;clip-rule:evenodd;" points="200,33 188,29 190,26 192,24 200,33 	"/>
	<line style="fill:none;stroke:#000000;stroke-linecap:square;stroke-miterlimit:10;" x1="180" y1="19" x2="190" y2="26"/>
	<polygon style="fill-rule:evenodd;clip-rule:evenodd;" points="41,33 53,29 51,26 49,24 41,33 	"/>
	<line style="fill:none;stroke:#000000;stroke-linecap:square;stroke-miterlimit:10;" x1="61" y1="19" x2="51" y2="26"/>
	<polygon style="fill-rule:evenodd;clip-rule:evenodd;" points="99,33 110,29 109,26 107,24 99,33 	"/>
	<line style="fill:none;stroke:#000000;stroke-linecap:square;stroke-miterlimit:10;" x1="119" y1="19" x2="109" y2="26"/>
	<polygon style="fill-rule:evenodd;clip-rule:evenodd;" points="155,33 167,29 165,26 163,24 155,33 	"/>
	<line style="fill:none;stroke:#000000;stroke-linecap:square;stroke-miterlimit:10;" x1="175" y1="19" x2="165" y2="26"/>
	<polygon style="fill-rule:evenodd;clip-rule:evenodd;" points="212,33 224,29 222,26 220,24 212,33 	"/>
	<line style="fill:none;stroke:#000000;stroke-linecap:square;stroke-miterlimit:10;" x1="232" y1="19" x2="222" y2="26"/>
	<polygon style="fill-rule:evenodd;clip-rule:evenodd;fill:#FFFFFF;" points="56,60 79,60 79,83 56,83 56,60 	"/>
	<g>
		<path d="M57.11,76.99l3.37-4.81l-3.23-4.53h3.01l1.65,2.57l1.74-2.57h2.9l-3.16,4.42l3.45,4.91h-3.03l-1.9-2.89L60,76.99H57.11z"
			/>
		<path d="M68.29,68.69l-0.47-2.4v-2.18h2.69v2.18l-0.4,2.4H68.29z"/>
	</g>
	<polygon style="fill-rule:evenodd;clip-rule:evenodd;fill:#FFFFFF;" points="113,60 135,60 135,83 113,83 113,60 	"/>
	<g>
		<path d="M114.11,76.99l3.37-4.81l-3.23-4.53h3.01l1.65,2.57l1.74-2.57h2.9l-3.16,4.42l3.45,4.91h-3.03l-1.9-2.89L117,76.99H114.11
			z"/>
		<path d="M125.29,68.69l-0.47-2.4v-2.18h2.69v2.18l-0.4,2.4H125.29z"/>
	</g>
	<polygon style="fill-rule:evenodd;clip-rule:evenodd;fill:#FFFFFF;" points="170,60 192,60 192,83 170,83 170,60 	"/>
	<g>
		<path d="M171.11,76.99l3.37-4.81l-3.23-4.53h3.01l1.65,2.57l1.74-2.57h2.9l-3.16,4.42l3.45,4.91h-3.03l-1.9-2.89L174,76.99H171.11
			z"/>
		<path d="M182.29,68.69l-0.47-2.4v-2.18h2.69v2.18l-0.4,2.4H182.29z"/>
	</g>
	<polygon style="fill-rule:evenodd;clip-rule:evenodd;fill:#FFFFFF;" points="226,60 249,60 249,83 226,83 226,60 	"/>
	<g>
		<path d="M227.11,76.99l3.37-4.81l-3.23-4.53h3.01l1.65,2.57l1.74-2.57h2.9l-3.16,4.42l3.45,4.91h-3.03l-1.9-2.89L230,76.99H227.11
			z"/>
		<path d="M238.29,68.69l-0.47-2.4v-2.18h2.69v2.18l-0.4,2.4H238.29z"/>
	</g>
	<polygon style="fill-rule:evenodd;clip-rule:evenodd;fill:#FFFFFF;" points="283,60 305,60 305,83 283,83 283,60 	"/>
	<g>
		<path d="M284.11,76.99l3.37-4.81l-3.23-4.53h3.01l1.65,2.57l1.74-2.57h2.9l-3.16,4.42l3.45,4.91h-3.03l-1.9-2.89L287,76.99H284.11
			z"/>
		<path d="M295.29,68.69l-0.47-2.4v-2.18h2.69v2.18l-0.4,2.4H295.29z"/>
	</g>
	<polygon style="fill-rule:evenodd;clip-rule:evenodd;fill:#FFFFFF;" points="257,90 276,90 276,113 257,113 257,90 	"/>
	<g>
		<path d="M258.73,102.2c0-0.82,0.2-1.61,0.61-2.38s0.98-1.35,1.72-1.76s1.57-0.61,2.48-0.61c1.41,0,2.57,0.46,3.47,1.38
			c0.9,0.92,1.35,2.08,1.35,3.48c0,1.41-0.46,2.58-1.37,3.51s-2.06,1.39-3.44,1.39c-0.86,0-1.67-0.19-2.45-0.58s-1.37-0.95-1.77-1.7
			C258.93,104.18,258.73,103.27,258.73,102.2z M261.26,102.33c0,0.93,0.22,1.63,0.66,2.13s0.98,0.74,1.63,0.74s1.18-0.25,1.62-0.74
			s0.66-1.21,0.66-2.14c0-0.91-0.22-1.62-0.66-2.11s-0.98-0.74-1.62-0.74s-1.19,0.25-1.63,0.74S261.26,101.41,261.26,102.33z"/>
		<path d="M270.28,98.69l-0.47-2.4v-2.18h2.69v2.18l-0.4,2.4H270.28z"/>
	</g>
	<polygon style="fill-rule:evenodd;clip-rule:evenodd;fill:#FFFFFF;" points="202,90 221,90 221,113 202,113 202,90 	"/>
	<g>
		<path d="M203.73,102.2c0-0.82,0.2-1.61,0.61-2.38s0.98-1.35,1.72-1.76s1.57-0.61,2.48-0.61c1.41,0,2.57,0.46,3.47,1.38
			c0.9,0.92,1.35,2.08,1.35,3.48c0,1.41-0.46,2.58-1.37,3.51s-2.06,1.39-3.44,1.39c-0.86,0-1.67-0.19-2.45-0.58s-1.37-0.95-1.77-1.7
			C203.93,104.18,203.73,103.27,203.73,102.2z M206.26,102.33c0,0.93,0.22,1.63,0.66,2.13s0.98,0.74,1.63,0.74s1.19-0.25,1.62-0.74
			s0.65-1.21,0.65-2.14c0-0.91-0.22-1.62-0.65-2.11s-0.98-0.74-1.62-0.74s-1.19,0.25-1.63,0.74S206.26,101.41,206.26,102.33z"/>
		<path d="M215.28,98.69l-0.47-2.4v-2.18h2.69v2.18l-0.4,2.4H215.28z"/>
	</g>
	<polygon style="fill-rule:evenodd;clip-rule:evenodd;fill:#FFFFFF;" points="145,90 164,90 164,113 145,113 145,90 	"/>
	<g>
		<path d="M146.72,102.2c0-0.82,0.2-1.61,0.61-2.38s0.98-1.35,1.72-1.76s1.57-0.61,2.48-0.61c1.41,0,2.57,0.46,3.47,1.38
			c0.9,0.92,1.35,2.08,1.35,3.48c0,1.41-0.46,2.58-1.37,3.51s-2.06,1.39-3.44,1.39c-0.86,0-1.67-0.19-2.45-0.58s-1.37-0.95-1.77-1.7
			C146.92,104.18,146.72,103.27,146.72,102.2z M149.25,102.33c0,0.93,0.22,1.63,0.66,2.13s0.98,0.74,1.63,0.74s1.19-0.25,1.62-0.74
			s0.65-1.21,0.65-2.14c0-0.91-0.22-1.62-0.65-2.11s-0.98-0.74-1.62-0.74s-1.19,0.25-1.63,0.74S149.25,101.41,149.25,102.33z"/>
		<path d="M158.27,98.69l-0.47-2.4v-2.18h2.69v2.18l-0.4,2.4H158.27z"/>
	</g>
	<polygon style="fill-rule:evenodd;clip-rule:evenodd;fill:#FFFFFF;" points="86,90 105,90 105,113 86,113 86,90 	"/>
	<g>
		<path d="M87.72,102.2c0-0.82,0.2-1.61,0.61-2.38s0.98-1.35,1.72-1.76s1.57-0.61,2.48-0.61c1.41,0,2.57,0.46,3.47,1.38
			c0.9,0.92,1.35,2.08,1.35,3.48c0,1.41-0.46,2.58-1.37,3.51s-2.06,1.39-3.44,1.39c-0.86,0-1.67-0.19-2.45-0.58s-1.37-0.95-1.77-1.7
			C87.92,104.18,87.72,103.27,87.72,102.2z M90.25,102.33c0,0.93,0.22,1.63,0.66,2.13s0.98,0.74,1.63,0.74s1.19-0.25,1.62-0.74
			s0.65-1.21,0.65-2.14c0-0.91-0.22-1.62-0.65-2.11s-0.98-0.74-1.62-0.74s-1.19,0.25-1.63,0.74S90.25,101.41,90.25,102.33z"/>
		<path d="M99.27,98.69l-0.47-2.4v-2.18h2.69v2.18l-0.4,2.4H99.27z"/>
	</g>
	<polygon style="fill-rule:evenodd;clip-rule:evenodd;" points="58,63 46,58 48,56 50,53 58,63 	"/>
	<line style="fill:none;stroke:#000000;stroke-linecap:square;stroke-miterlimit:10;" x1="38" y1="48" x2="48" y2="56"/>
	<polygon style="fill-rule:evenodd;clip-rule:evenodd;" points="114,62 103,58 104,55 106,53 114,62 	"/>
	<line style="fill:none;stroke:#000000;stroke-linecap:square;stroke-miterlimit:10;" x1="94" y1="48" x2="104" y2="55"/>
	<polygon style="fill-rule:evenodd;clip-rule:evenodd;" points="171,63 159,58 161,56 163,53 171,63 	"/>
	<line style="fill:none;stroke:#000000;stroke-linecap:square;stroke-miterlimit:10;" x1="151" y1="48" x2="161" y2="56"/>
	<polygon style="fill-rule:evenodd;clip-rule:evenodd;" points="228,63 216,58 218,56 220,53 228,63 	"/>
	<line style="fill:none;stroke:#000000;stroke-linecap:square;stroke-miterlimit:10;" x1="208" y1="48" x2="218" y2="56"/>
	<polygon style="fill-rule:evenodd;clip-rule:evenodd;" points="69,63 80,58 79,56 77,53 69,63 	"/>
	<line style="fill:none;stroke:#000000;stroke-linecap:square;stroke-miterlimit:10;" x1="89" y1="48" x2="79" y2="56"/>
	<polygon style="fill-rule:evenodd;clip-rule:evenodd;" points="127,63 138,58 137,56 135,53 127,63 	"/>
	<line style="fill:none;stroke:#000000;stroke-linecap:square;stroke-miterlimit:10;" x1="147" y1="48" x2="137" y2="56"/>
	<polygon style="fill-rule:evenodd;clip-rule:evenodd;" points="183,63 195,58 193,56 191,53 183,63 	"/>
	<line style="fill:none;stroke:#000000;stroke-linecap:square;stroke-miterlimit:10;" x1="203" y1="48" x2="193" y2="56"/>
	<polygon style="fill-rule:evenodd;clip-rule:evenodd;" points="240,63 251,58 250,56 248,53 240,63 	"/>
	<line style="fill:none;stroke:#000000;stroke-linecap:square;stroke-miterlimit:10;" x1="260" y1="48" x2="250" y2="56"/>
	<polygon style="fill-rule:evenodd;clip-rule:evenodd;" points="85,92 74,88 76,85 77,83 85,92 	"/>
	<line style="fill:none;stroke:#000000;stroke-linecap:square;stroke-miterlimit:10;" x1="66" y1="78" x2="76" y2="85"/>
	<polygon style="fill-rule:evenodd;clip-rule:evenodd;" points="142,92 131,88 132,85 134,83 142,92 	"/>
	<line style="fill:none;stroke:#000000;stroke-linecap:square;stroke-miterlimit:10;" x1="122" y1="78" x2="132" y2="85"/>
	<polygon style="fill-rule:evenodd;clip-rule:evenodd;" points="199,92 187,88 189,85 191,83 199,92 	"/>
	<line style="fill:none;stroke:#000000;stroke-linecap:square;stroke-miterlimit:10;" x1="179" y1="78" x2="189" y2="85"/>
	<polygon style="fill-rule:evenodd;clip-rule:evenodd;" points="255,92 244,88 246,85 247,83 255,92 	"/>
	<line style="fill:none;stroke:#000000;stroke-linecap:square;stroke-miterlimit:10;" x1="236" y1="78" x2="246" y2="85"/>
	<polygon style="fill-rule:evenodd;clip-rule:evenodd;" points="97,92 108,88 106,85 105,83 97,92 	"/>
	<line style="fill:none;stroke:#000000;stroke-linecap:square;stroke-miterlimit:10;" x1="117" y1="78" x2="106" y2="85"/>
	<polygon style="fill-rule:evenodd;clip-rule:evenodd;" points="155,92 166,88 164,85 163,83 155,92 	"/>
	<line style="fill:none;stroke:#000000;stroke-linecap:square;stroke-miterlimit:10;" x1="174" y1="78" x2="164" y2="85"/>
	<polygon style="fill-rule:evenodd;clip-rule:evenodd;" points="211,92 222,88 221,85 219,83 211,92 	"/>
	<line style="fill:none;stroke:#000000;stroke-linecap:square;stroke-miterlimit:10;" x1="231" y1="78" x2="221" y2="85"/>
	<polygon style="fill-rule:evenodd;clip-rule:evenodd;" points="268,92 279,88 278,85 276,83 268,92 	"/>
	<line style="fill:none;stroke:#000000;stroke-linecap:square;stroke-miterlimit:10;" x1="288" y1="78" x2="278" y2="85"/>
	<polygon style="fill-rule:evenodd;clip-rule:evenodd;fill:#FFFFFF;" points="114,120 148,120 148,143 114,143 114,120 	"/>
	<g>
		<path d="M115.1,136.99l3.37-4.81l-3.23-4.53h3.01l1.65,2.57l1.74-2.57h2.9l-3.16,4.42l3.45,4.91h-3.03l-1.9-2.89l-1.92,2.89H115.1
			z"/>
		<path d="M126.45,128.69l-0.47-2.4v-2.18h2.69v2.18l-0.4,2.4H126.45z M130.42,128.69l-0.47-2.4v-2.18h2.69v2.18l-0.4,2.4H130.42z"
			/>
	</g>
	<polygon style="fill-rule:evenodd;clip-rule:evenodd;fill:#FFFFFF;" points="173,120 206,120 206,143 173,143 173,120 	"/>
	<g>
		<path d="M174.11,136.99l3.37-4.81l-3.23-4.53h3.01l1.65,2.57l1.74-2.57h2.9l-3.16,4.42l3.45,4.91h-3.03l-1.9-2.89l-1.92,2.89
			H174.11z"/>
		<path d="M185.46,128.69l-0.47-2.4v-2.18h2.69v2.18l-0.4,2.4H185.46z M189.42,128.69l-0.47-2.4v-2.18h2.69v2.18l-0.4,2.4H189.42z"
			/>
	</g>
	<polygon style="fill-rule:evenodd;clip-rule:evenodd;fill:#FFFFFF;" points="231,120 264,120 264,143 231,143 231,120 	"/>
	<g>
		<path d="M232.11,136.99l3.37-4.81l-3.23-4.53h3.01l1.65,2.57l1.74-2.57h2.9l-3.16,4.42l3.45,4.91h-3.03l-1.9-2.89l-1.92,2.89
			H232.11z"/>
		<path d="M243.46,128.69l-0.47-2.4v-2.18h2.69v2.18l-0.4,2.4H243.46z M247.42,128.69l-0.47-2.4v-2.18h2.69v2.18l-0.4,2.4H247.42z"
			/>
	</g>
	<polygon style="fill-rule:evenodd;clip-rule:evenodd;fill:#FFFFFF;" points="289,119 323,119 323,142 289,142 289,119 	"/>
	<g>
		<path d="M290.11,136l3.37-4.81l-3.23-4.53h3.01l1.65,2.57l1.74-2.57h2.9l-3.16,4.42l3.45,4.91h-3.03l-1.9-2.89L293,136H290.11z"/>
		<path d="M301.46,127.69l-0.47-2.4v-2.18h2.69v2.18l-0.4,2.4H301.46z M305.42,127.69l-0.47-2.4v-2.18h2.69v2.18l-0.4,2.4H305.42z"
			/>
	</g>
	<polygon style="fill-rule:evenodd;clip-rule:evenodd;fill:#FFFFFF;" points="345,119 378,119 378,142 345,142 345,119 	"/>
	<g>
		<path d="M346.11,136l3.37-4.81l-3.23-4.53h3.01l1.65,2.57l1.74-2.57h2.9l-3.16,4.42l3.45,4.91h-3.03l-1.9-2.89L349,136H346.11z"/>
		<path d="M357.46,127.69l-0.47-2.4v-2.18h2.69v2.18l-0.4,2.4H357.46z M361.42,127.69l-0.47-2.4v-2.18h2.69v2.18l-0.4,2.4H361.42z"
			/>
	</g>
	<polygon style="fill-rule:evenodd;clip-rule:evenodd;" points="118,123 107,119 109,116 110,114 118,123 	"/>
	<line style="fill:none;stroke:#000000;stroke-linecap:square;stroke-miterlimit:10;" x1="99" y1="109" x2="109" y2="116"/>
	<polygon style="fill-rule:evenodd;clip-rule:evenodd;" points="174,123 162,118 164,116 166,114 174,123 	"/>
	<line style="fill:none;stroke:#000000;stroke-linecap:square;stroke-miterlimit:10;" x1="154" y1="109" x2="164" y2="116"/>
	<polygon style="fill-rule:evenodd;clip-rule:evenodd;" points="229,123 218,119 220,116 221,114 229,123 	"/>
	<line style="fill:none;stroke:#000000;stroke-linecap:square;stroke-miterlimit:10;" x1="210" y1="109" x2="220" y2="116"/>
	<polygon style="fill-rule:evenodd;clip-rule:evenodd;" points="285,123 273,119 275,116 277,114 285,123 	"/>
	<line style="fill:none;stroke:#000000;stroke-linecap:square;stroke-miterlimit:10;" x1="266" y1="109" x2="275" y2="116"/>
	<polygon style="fill-rule:evenodd;clip-rule:evenodd;" points="129,123 137,114 139,116 141,119 129,123 	"/>
	<line style="fill:none;stroke:#000000;stroke-linecap:square;stroke-miterlimit:10;" x1="149" y1="109" x2="139" y2="116"/>
	<polygon style="fill-rule:evenodd;clip-rule:evenodd;" points="186,123 194,114 196,116 198,119 186,123 	"/>
	<line style="fill:none;stroke:#000000;stroke-linecap:square;stroke-miterlimit:10;" x1="206" y1="109" x2="196" y2="116"/>
	<polygon style="fill-rule:evenodd;clip-rule:evenodd;" points="241,123 249,114 251,116 253,119 241,123 	"/>
	<line style="fill:none;stroke:#000000;stroke-linecap:square;stroke-miterlimit:10;" x1="261" y1="109" x2="251" y2="116"/>
	<polygon style="fill-rule:evenodd;clip-rule:evenodd;" points="297,123 305,114 307,116 309,119 297,123 	"/>
	<line style="fill:none;stroke:#000000;stroke-linecap:square;stroke-miterlimit:10;" x1="316" y1="109" x2="307" y2="116"/>
	<g>
		<path d="M382.12,22.99l3.41-4.85l-3.16-4.48h1.98l1.43,2.19c0.27,0.42,0.49,0.76,0.65,1.05c0.26-0.39,0.5-0.73,0.71-1.03
			l1.57-2.21h1.89l-3.23,4.39l3.47,4.94h-1.94l-1.92-2.9l-0.51-0.78l-2.45,3.68H382.12z"/>
	</g>
	<g>
		<path d="M425.13,22.99l3.41-4.85l-3.16-4.48h1.98l1.43,2.19c0.27,0.42,0.49,0.76,0.65,1.05c0.26-0.39,0.5-0.73,0.71-1.03
			l1.57-2.21h1.89l-3.23,4.39l3.47,4.94h-1.94l-1.92-2.9l-0.51-0.78l-2.45,3.68H425.13z"/>
	</g>
	<line style="fill:none;stroke:#000000;stroke-linecap:square;stroke-miterlimit:10;" x1="394" y1="19" x2="424" y2="19"/>
	<line style="fill:none;stroke:#000000;stroke-linecap:square;stroke-miterlimit:10;" x1="393" y1="37" x2="419" y2="37"/>
	<g>
		<path d="M381.6,39.32c0-1.73,0.48-3.01,1.44-3.84c0.8-0.69,1.78-1.04,2.94-1.04c1.28,0,2.33,0.42,3.15,1.26s1.22,2,1.22,3.48
			c0,1.2-0.18,2.15-0.54,2.83c-0.36,0.69-0.89,1.22-1.57,1.6s-1.44,0.57-2.25,0.57c-1.31,0-2.36-0.42-3.17-1.26
			C382,42.1,381.6,40.89,381.6,39.32z M383.22,39.32c0,1.2,0.26,2.09,0.78,2.69s1.18,0.89,1.97,0.89c0.79,0,1.44-0.3,1.96-0.9
			s0.78-1.51,0.78-2.73c0-1.15-0.26-2.03-0.79-2.62s-1.18-0.89-1.96-0.89c-0.79,0-1.45,0.3-1.97,0.89S383.22,38.12,383.22,39.32z"/>
	</g>
	<g>
		<path d="M424.6,38.33c0-1.73,0.48-3.01,1.44-3.84c0.8-0.69,1.78-1.04,2.94-1.04c1.28,0,2.33,0.42,3.15,1.26s1.22,2,1.22,3.48
			c0,1.2-0.18,2.15-0.54,2.83c-0.36,0.69-0.89,1.22-1.57,1.6s-1.44,0.57-2.25,0.57c-1.31,0-2.36-0.42-3.17-1.26
			C425,41.12,424.6,39.91,424.6,38.33z M426.22,38.33c0,1.2,0.26,2.09,0.78,2.69s1.18,0.89,1.97,0.89c0.79,0,1.44-0.3,1.96-0.9
			s0.78-1.51,0.78-2.73c0-1.15-0.26-2.03-0.79-2.62s-1.18-0.89-1.96-0.89c-0.79,0-1.45,0.3-1.97,0.89S426.22,37.14,426.22,38.33z"/>
	</g>
	<g>
		<path d="M460.79,20v-8.59h1.05v3.08c0.49-0.57,1.11-0.86,1.86-0.86c0.46,0,0.86,0.09,1.2,0.27s0.58,0.43,0.73,0.75
			s0.22,0.79,0.22,1.39V20h-1.05v-3.94c0-0.53-0.11-0.91-0.34-1.15s-0.55-0.36-0.97-0.36c-0.31,0-0.61,0.08-0.88,0.24
			s-0.47,0.38-0.59,0.66s-0.18,0.66-0.18,1.15V20H460.79z"/>
		<path d="M467.47,12.62v-1.21h1.05v1.21H467.47z M467.47,20v-6.22h1.05V20H467.47z"/>
		<path d="M469.71,18.14l1.04-0.16c0.06,0.42,0.22,0.74,0.49,0.96s0.64,0.33,1.12,0.33c0.48,0,0.84-0.1,1.08-0.3
			s0.35-0.43,0.35-0.69c0-0.24-0.1-0.43-0.31-0.56c-0.14-0.09-0.5-0.21-1.08-0.36c-0.77-0.2-1.31-0.36-1.61-0.51
			s-0.53-0.34-0.68-0.59s-0.23-0.53-0.23-0.83c0-0.28,0.06-0.53,0.19-0.77s0.3-0.43,0.52-0.59c0.16-0.12,0.39-0.22,0.67-0.31
			s0.59-0.13,0.91-0.13c0.49,0,0.92,0.07,1.29,0.21s0.64,0.33,0.82,0.57s0.3,0.56,0.36,0.96l-1.03,0.14
			c-0.05-0.32-0.18-0.57-0.41-0.75s-0.54-0.27-0.95-0.27c-0.48,0-0.83,0.08-1.04,0.24s-0.31,0.35-0.31,0.56
			c0,0.14,0.04,0.26,0.13,0.37c0.09,0.11,0.22,0.21,0.4,0.28c0.11,0.04,0.42,0.13,0.93,0.27c0.75,0.2,1.27,0.36,1.56,0.49
			s0.53,0.31,0.69,0.55s0.25,0.54,0.25,0.9c0,0.35-0.1,0.68-0.31,0.99s-0.5,0.55-0.89,0.72s-0.82,0.25-1.31,0.25
			c-0.81,0-1.42-0.17-1.85-0.5S469.83,18.8,469.71,18.14z"/>
		<path d="M478.43,19.06l0.15,0.93c-0.3,0.06-0.56,0.09-0.8,0.09c-0.38,0-0.68-0.06-0.89-0.18s-0.36-0.28-0.45-0.48
			s-0.13-0.61-0.13-1.25V14.6h-0.77v-0.82h0.77v-1.54l1.05-0.63v2.17h1.06v0.82h-1.06v3.64c0,0.3,0.02,0.49,0.06,0.58
			s0.1,0.15,0.18,0.21s0.2,0.08,0.36,0.08C478.09,19.1,478.24,19.08,478.43,19.06z"/>
		<path d="M479.07,16.89c0-1.15,0.32-2.01,0.96-2.56c0.54-0.46,1.19-0.69,1.96-0.69c0.86,0,1.55,0.28,2.1,0.84s0.81,1.33,0.81,2.32
			c0,0.8-0.12,1.43-0.36,1.89s-0.59,0.82-1.05,1.07s-0.96,0.38-1.5,0.38c-0.87,0-1.58-0.28-2.11-0.84S479.07,17.94,479.07,16.89z
			 M480.16,16.89c0,0.8,0.17,1.39,0.52,1.79s0.79,0.59,1.31,0.59c0.52,0,0.96-0.2,1.31-0.6s0.52-1.01,0.52-1.82
			c0-0.77-0.17-1.35-0.52-1.75s-0.78-0.59-1.3-0.59c-0.53,0-0.96,0.2-1.31,0.59S480.16,16.09,480.16,16.89z"/>
		<path d="M486.13,20v-6.22h0.95v0.94c0.24-0.44,0.47-0.73,0.67-0.87s0.43-0.21,0.68-0.21c0.36,0,0.72,0.11,1.08,0.34l-0.36,0.98
			c-0.26-0.15-0.52-0.23-0.77-0.23c-0.23,0-0.44,0.07-0.62,0.21s-0.31,0.33-0.39,0.58c-0.12,0.38-0.18,0.79-0.18,1.23V20H486.13z"/>
		<path d="M490.09,22.4l-0.12-0.99c0.23,0.06,0.43,0.09,0.6,0.09c0.23,0,0.42-0.04,0.56-0.12s0.26-0.19,0.35-0.33
			c0.07-0.11,0.17-0.37,0.32-0.79c0.02-0.06,0.05-0.14,0.09-0.26l-2.36-6.23h1.14l1.29,3.6c0.17,0.46,0.32,0.94,0.45,1.44
			c0.12-0.48,0.27-0.96,0.43-1.42l1.33-3.63h1.05l-2.37,6.33c-0.25,0.68-0.45,1.15-0.59,1.41c-0.19,0.35-0.4,0.6-0.64,0.76
			s-0.53,0.24-0.87,0.24C490.56,22.53,490.34,22.48,490.09,22.4z"/>
		<path d="M503.15,20h-1.05v-6.72c-0.25,0.24-0.59,0.48-1,0.73s-0.78,0.42-1.11,0.54v-1.02c0.59-0.28,1.11-0.61,1.55-1.01
			s0.75-0.78,0.94-1.15h0.68V20z"/>
	</g>
	<g>
		<path d="M460.79,42v-8.59h1.05v3.08c0.49-0.57,1.11-0.86,1.86-0.86c0.46,0,0.86,0.09,1.2,0.27s0.58,0.43,0.73,0.75
			s0.22,0.79,0.22,1.39V42h-1.05v-3.94c0-0.53-0.11-0.91-0.34-1.15s-0.55-0.36-0.97-0.36c-0.31,0-0.61,0.08-0.88,0.24
			s-0.47,0.38-0.59,0.66s-0.18,0.66-0.18,1.15V42H460.79z"/>
		<path d="M467.47,34.62v-1.21h1.05v1.21H467.47z M467.47,42v-6.22h1.05V42H467.47z"/>
		<path d="M469.71,40.14l1.04-0.16c0.06,0.42,0.22,0.74,0.49,0.96s0.64,0.33,1.12,0.33c0.48,0,0.84-0.1,1.08-0.3
			s0.35-0.43,0.35-0.69c0-0.24-0.1-0.43-0.31-0.56c-0.14-0.09-0.5-0.21-1.08-0.36c-0.77-0.2-1.31-0.36-1.61-0.51
			s-0.53-0.34-0.68-0.59s-0.23-0.53-0.23-0.83c0-0.28,0.06-0.53,0.19-0.77s0.3-0.43,0.52-0.59c0.16-0.12,0.39-0.22,0.67-0.31
			s0.59-0.13,0.91-0.13c0.49,0,0.92,0.07,1.29,0.21s0.64,0.33,0.82,0.57s0.3,0.56,0.36,0.96l-1.03,0.14
			c-0.05-0.32-0.18-0.57-0.41-0.75s-0.54-0.27-0.95-0.27c-0.48,0-0.83,0.08-1.04,0.24s-0.31,0.35-0.31,0.56
			c0,0.14,0.04,0.26,0.13,0.37c0.09,0.11,0.22,0.21,0.4,0.28c0.11,0.04,0.42,0.13,0.93,0.27c0.75,0.2,1.27,0.36,1.56,0.49
			s0.53,0.31,0.69,0.55s0.25,0.54,0.25,0.9c0,0.35-0.1,0.68-0.31,0.99s-0.5,0.55-0.89,0.72s-0.82,0.25-1.31,0.25
			c-0.81,0-1.42-0.17-1.85-0.5S469.83,40.8,469.71,40.14z"/>
		<path d="M478.43,41.06l0.15,0.93c-0.3,0.06-0.56,0.09-0.8,0.09c-0.38,0-0.68-0.06-0.89-0.18s-0.36-0.28-0.45-0.48
			s-0.13-0.61-0.13-1.25V36.6h-0.77v-0.82h0.77v-1.54l1.05-0.63v2.17h1.06v0.82h-1.06v3.64c0,0.3,0.02,0.49,0.06,0.58
			s0.1,0.15,0.18,0.21s0.2,0.08,0.36,0.08C478.09,41.1,478.24,41.08,478.43,41.06z"/>
		<path d="M479.07,38.89c0-1.15,0.32-2.01,0.96-2.56c0.54-0.46,1.19-0.69,1.96-0.69c0.86,0,1.55,0.28,2.1,0.84s0.81,1.33,0.81,2.32
			c0,0.8-0.12,1.43-0.36,1.89s-0.59,0.82-1.05,1.07s-0.96,0.38-1.5,0.38c-0.87,0-1.58-0.28-2.11-0.84S479.07,39.94,479.07,38.89z
			 M480.16,38.89c0,0.8,0.17,1.39,0.52,1.79s0.79,0.59,1.31,0.59c0.52,0,0.96-0.2,1.31-0.6s0.52-1.01,0.52-1.82
			c0-0.77-0.17-1.35-0.52-1.75s-0.78-0.59-1.3-0.59c-0.53,0-0.96,0.2-1.31,0.59S480.16,38.09,480.16,38.89z"/>
		<path d="M486.13,42v-6.22h0.95v0.94c0.24-0.44,0.47-0.73,0.67-0.87s0.43-0.21,0.68-0.21c0.36,0,0.72,0.11,1.08,0.34l-0.36,0.98
			c-0.26-0.15-0.52-0.23-0.77-0.23c-0.23,0-0.44,0.07-0.62,0.21s-0.31,0.33-0.39,0.58c-0.12,0.38-0.18,0.79-0.18,1.23V42H486.13z"/>
		<path d="M490.09,44.4l-0.12-0.99c0.23,0.06,0.43,0.09,0.6,0.09c0.23,0,0.42-0.04,0.56-0.12s0.26-0.19,0.35-0.33
			c0.07-0.11,0.17-0.37,0.32-0.79c0.02-0.06,0.05-0.14,0.09-0.26l-2.36-6.23h1.14l1.29,3.6c0.17,0.46,0.32,0.94,0.45,1.44
			c0.12-0.48,0.27-0.96,0.43-1.42l1.33-3.63h1.05l-2.37,6.33c-0.25,0.68-0.45,1.15-0.59,1.41c-0.19,0.35-0.4,0.6-0.64,0.76
			s-0.53,0.24-0.87,0.24C490.56,44.53,490.34,44.48,490.09,44.4z"/>
		<path d="M504.72,40.99V42h-5.68c-0.01-0.25,0.03-0.5,0.12-0.73c0.14-0.39,0.38-0.77,0.69-1.14s0.78-0.81,1.38-1.3
			c0.93-0.77,1.56-1.37,1.89-1.82s0.49-0.87,0.49-1.27c0-0.42-0.15-0.77-0.45-1.06s-0.69-0.43-1.17-0.43
			c-0.51,0-0.91,0.15-1.22,0.46s-0.46,0.73-0.46,1.27l-1.08-0.11c0.07-0.81,0.35-1.42,0.84-1.85s1.13-0.64,1.95-0.64
			c0.82,0,1.48,0.23,1.96,0.69s0.72,1.02,0.72,1.7c0,0.34-0.07,0.68-0.21,1.01s-0.37,0.68-0.7,1.05s-0.87,0.87-1.63,1.51
			c-0.63,0.53-1.04,0.89-1.22,1.08s-0.33,0.38-0.45,0.57H504.72z"/>
	</g>
	<g>
		<path d="M382.12,66l3.41-4.85l-3.16-4.48h1.98l1.43,2.19c0.27,0.42,0.49,0.76,0.65,1.05c0.26-0.39,0.5-0.73,0.71-1.03l1.57-2.21
			h1.89l-3.23,4.39l3.47,4.94h-1.94L387,63.1l-0.51-0.78L384.04,66H382.12z"/>
		<path d="M392.19,57.68l-0.4-2.41v-2.15h1.8v2.15l-0.42,2.41H392.19z"/>
	</g>
	<g>
		<path d="M425.13,66l3.41-4.85l-3.16-4.48h1.98l1.43,2.19c0.27,0.42,0.49,0.76,0.65,1.05c0.26-0.39,0.5-0.73,0.71-1.03l1.57-2.21
			h1.89l-3.23,4.39l3.47,4.94h-1.94l-1.92-2.9l-0.51-0.78L427.05,66H425.13z"/>
		<path d="M435.2,57.68l-0.4-2.41v-2.15h1.8v2.15l-0.42,2.41H435.2z"/>
	</g>
	<line style="fill:none;stroke:#000000;stroke-linecap:square;stroke-miterlimit:10;" x1="394" y1="59" x2="423" y2="59"/>
	<g>
		<path d="M460.79,62v-8.59h1.05v3.08c0.49-0.57,1.11-0.86,1.86-0.86c0.46,0,0.86,0.09,1.2,0.27s0.58,0.43,0.73,0.75
			s0.22,0.79,0.22,1.39V62h-1.05v-3.94c0-0.53-0.11-0.91-0.34-1.15s-0.55-0.36-0.97-0.36c-0.31,0-0.61,0.08-0.88,0.24
			s-0.47,0.38-0.59,0.66s-0.18,0.66-0.18,1.15V62H460.79z"/>
		<path d="M467.47,54.62v-1.21h1.05v1.21H467.47z M467.47,62v-6.22h1.05V62H467.47z"/>
		<path d="M469.71,60.14l1.04-0.16c0.06,0.42,0.22,0.74,0.49,0.96s0.64,0.33,1.12,0.33c0.48,0,0.84-0.1,1.08-0.3
			s0.35-0.43,0.35-0.69c0-0.24-0.1-0.43-0.31-0.56c-0.14-0.09-0.5-0.21-1.08-0.36c-0.77-0.2-1.31-0.36-1.61-0.51
			s-0.53-0.34-0.68-0.59s-0.23-0.53-0.23-0.83c0-0.28,0.06-0.53,0.19-0.77s0.3-0.43,0.52-0.59c0.16-0.12,0.39-0.22,0.67-0.31
			s0.59-0.13,0.91-0.13c0.49,0,0.92,0.07,1.29,0.21s0.64,0.33,0.82,0.57s0.3,0.56,0.36,0.96l-1.03,0.14
			c-0.05-0.32-0.18-0.57-0.41-0.75s-0.54-0.27-0.95-0.27c-0.48,0-0.83,0.08-1.04,0.24s-0.31,0.35-0.31,0.56
			c0,0.14,0.04,0.26,0.13,0.37c0.09,0.11,0.22,0.21,0.4,0.28c0.11,0.04,0.42,0.13,0.93,0.27c0.75,0.2,1.27,0.36,1.56,0.49
			s0.53,0.31,0.69,0.55s0.25,0.54,0.25,0.9c0,0.35-0.1,0.68-0.31,0.99s-0.5,0.55-0.89,0.72s-0.82,0.25-1.31,0.25
			c-0.81,0-1.42-0.17-1.85-0.5S469.83,60.8,469.71,60.14z"/>
		<path d="M478.43,61.06l0.15,0.93c-0.3,0.06-0.56,0.09-0.8,0.09c-0.38,0-0.68-0.06-0.89-0.18s-0.36-0.28-0.45-0.48
			s-0.13-0.61-0.13-1.25V56.6h-0.77v-0.82h0.77v-1.54l1.05-0.63v2.17h1.06v0.82h-1.06v3.64c0,0.3,0.02,0.49,0.06,0.58
			s0.1,0.15,0.18,0.21s0.2,0.08,0.36,0.08C478.09,61.1,478.24,61.08,478.43,61.06z"/>
		<path d="M479.07,58.89c0-1.15,0.32-2.01,0.96-2.56c0.54-0.46,1.19-0.69,1.96-0.69c0.86,0,1.55,0.28,2.1,0.84s0.81,1.33,0.81,2.32
			c0,0.8-0.12,1.43-0.36,1.89s-0.59,0.82-1.05,1.07s-0.96,0.38-1.5,0.38c-0.87,0-1.58-0.28-2.11-0.84S479.07,59.94,479.07,58.89z
			 M480.16,58.89c0,0.8,0.17,1.39,0.52,1.79s0.79,0.59,1.31,0.59c0.52,0,0.96-0.2,1.31-0.6s0.52-1.01,0.52-1.82
			c0-0.77-0.17-1.35-0.52-1.75s-0.78-0.59-1.3-0.59c-0.53,0-0.96,0.2-1.31,0.59S480.16,58.09,480.16,58.89z"/>
		<path d="M486.13,62v-6.22h0.95v0.94c0.24-0.44,0.47-0.73,0.67-0.87s0.43-0.21,0.68-0.21c0.36,0,0.72,0.11,1.08,0.34l-0.36,0.98
			c-0.26-0.15-0.52-0.23-0.77-0.23c-0.23,0-0.44,0.07-0.62,0.21s-0.31,0.33-0.39,0.58c-0.12,0.38-0.18,0.79-0.18,1.23V62H486.13z"/>
		<path d="M490.09,64.4l-0.12-0.99c0.23,0.06,0.43,0.09,0.6,0.09c0.23,0,0.42-0.04,0.56-0.12s0.26-0.19,0.35-0.33
			c0.07-0.11,0.17-0.37,0.32-0.79c0.02-0.06,0.05-0.14,0.09-0.26l-2.36-6.23h1.14l1.29,3.6c0.17,0.46,0.32,0.94,0.45,1.44
			c0.12-0.48,0.27-0.96,0.43-1.42l1.33-3.63h1.05l-2.37,6.33c-0.25,0.68-0.45,1.15-0.59,1.41c-0.19,0.35-0.4,0.6-0.64,0.76
			s-0.53,0.24-0.87,0.24C490.56,64.53,490.34,64.48,490.09,64.4z"/>
		<path d="M499.18,59.73l1.05-0.14c0.12,0.6,0.33,1.03,0.62,1.29s0.65,0.4,1.06,0.4c0.5,0,0.92-0.17,1.26-0.52s0.51-0.77,0.51-1.28
			c0-0.48-0.16-0.88-0.47-1.2s-0.72-0.47-1.21-0.47c-0.2,0-0.45,0.04-0.74,0.12l0.12-0.93c0.07,0.01,0.13,0.01,0.17,0.01
			c0.45,0,0.85-0.12,1.21-0.35s0.54-0.6,0.54-1.08c0-0.39-0.13-0.71-0.39-0.96s-0.6-0.38-1.01-0.38c-0.41,0-0.75,0.13-1.03,0.39
			s-0.45,0.64-0.53,1.16l-1.05-0.19c0.13-0.71,0.42-1.25,0.88-1.64s1.03-0.58,1.71-0.58c0.47,0,0.9,0.1,1.29,0.3s0.7,0.48,0.91,0.82
			s0.31,0.72,0.31,1.11c0,0.37-0.1,0.71-0.3,1.01s-0.49,0.55-0.88,0.73c0.51,0.12,0.9,0.36,1.18,0.73s0.42,0.83,0.42,1.39
			c0,0.75-0.27,1.39-0.82,1.91s-1.24,0.78-2.07,0.78c-0.75,0-1.38-0.22-1.88-0.67S499.25,60.45,499.18,59.73z"/>
	</g>
	<line style="fill:none;stroke:#000000;stroke-linecap:square;stroke-miterlimit:10;" x1="393" y1="80" x2="422" y2="80"/>
	<g>
		<path d="M381.6,80.33c0-1.73,0.48-3.01,1.44-3.84c0.8-0.69,1.78-1.04,2.94-1.04c1.28,0,2.33,0.42,3.15,1.26s1.22,2,1.22,3.48
			c0,1.2-0.18,2.15-0.54,2.83c-0.36,0.69-0.89,1.22-1.57,1.6s-1.44,0.57-2.25,0.57c-1.31,0-2.36-0.42-3.17-1.26
			C382,83.12,381.6,81.91,381.6,80.33z M383.22,80.33c0,1.2,0.26,2.09,0.78,2.69s1.18,0.89,1.97,0.89c0.79,0,1.44-0.3,1.96-0.9
			s0.78-1.51,0.78-2.73c0-1.15-0.26-2.03-0.79-2.62s-1.18-0.89-1.96-0.89c-0.79,0-1.45,0.3-1.97,0.89S383.22,79.14,383.22,80.33z"/>
		<path d="M392.21,76.68l-0.4-2.41v-2.15h1.8v2.15l-0.42,2.41H392.21z"/>
	</g>
	<g>
		<path d="M424.6,81.33c0-1.73,0.48-3.01,1.44-3.84c0.8-0.69,1.78-1.04,2.94-1.04c1.28,0,2.33,0.42,3.15,1.26s1.22,2,1.22,3.48
			c0,1.2-0.18,2.15-0.54,2.83c-0.36,0.69-0.89,1.22-1.57,1.6s-1.44,0.57-2.25,0.57c-1.31,0-2.36-0.42-3.17-1.26
			C425,84.11,424.6,82.9,424.6,81.33z M426.22,81.33c0,1.2,0.26,2.09,0.78,2.69s1.18,0.89,1.97,0.89c0.79,0,1.44-0.3,1.96-0.9
			s0.78-1.51,0.78-2.73c0-1.15-0.26-2.03-0.79-2.62s-1.18-0.89-1.96-0.89c-0.79,0-1.45,0.3-1.97,0.89S426.22,80.13,426.22,81.33z"/>
		<path d="M435.21,77.67l-0.4-2.41v-2.15h1.8v2.15l-0.42,2.41H435.21z"/>
	</g>
	<g>
		<path d="M460.79,83.99V75.4h1.05v3.08c0.49-0.57,1.11-0.86,1.86-0.86c0.46,0,0.86,0.09,1.2,0.27s0.58,0.43,0.73,0.75
			s0.22,0.79,0.22,1.39v3.94h-1.05v-3.94c0-0.53-0.11-0.91-0.34-1.15s-0.55-0.36-0.97-0.36c-0.31,0-0.61,0.08-0.88,0.24
			s-0.47,0.38-0.59,0.66s-0.18,0.66-0.18,1.15v3.4H460.79z"/>
		<path d="M467.47,76.62V75.4h1.05v1.21H467.47z M467.47,83.99v-6.22h1.05v6.22H467.47z"/>
		<path d="M469.71,82.13l1.04-0.16c0.06,0.42,0.22,0.74,0.49,0.96s0.64,0.33,1.12,0.33c0.48,0,0.84-0.1,1.08-0.3
			s0.35-0.43,0.35-0.69c0-0.24-0.1-0.43-0.31-0.56c-0.14-0.09-0.5-0.21-1.08-0.36c-0.77-0.2-1.31-0.36-1.61-0.51
			s-0.53-0.34-0.68-0.59s-0.23-0.53-0.23-0.83c0-0.28,0.06-0.53,0.19-0.77s0.3-0.43,0.52-0.59c0.16-0.12,0.39-0.22,0.67-0.31
			s0.59-0.13,0.91-0.13c0.49,0,0.92,0.07,1.29,0.21s0.64,0.33,0.82,0.57s0.3,0.56,0.36,0.96l-1.03,0.14
			c-0.05-0.32-0.18-0.57-0.41-0.75s-0.54-0.27-0.95-0.27c-0.48,0-0.83,0.08-1.04,0.24s-0.31,0.35-0.31,0.56
			c0,0.14,0.04,0.26,0.13,0.37c0.09,0.11,0.22,0.21,0.4,0.28c0.11,0.04,0.42,0.13,0.93,0.27c0.75,0.2,1.27,0.36,1.56,0.49
			s0.53,0.31,0.69,0.55s0.25,0.54,0.25,0.9c0,0.35-0.1,0.68-0.31,0.99s-0.5,0.55-0.89,0.72s-0.82,0.25-1.31,0.25
			c-0.81,0-1.42-0.17-1.85-0.5S469.83,82.79,469.71,82.13z"/>
		<path d="M478.43,83.05l0.15,0.93c-0.3,0.06-0.56,0.09-0.8,0.09c-0.38,0-0.68-0.06-0.89-0.18s-0.36-0.28-0.45-0.48
			s-0.13-0.61-0.13-1.25v-3.58h-0.77v-0.82h0.77v-1.54l1.05-0.63v2.17h1.06v0.82h-1.06v3.64c0,0.3,0.02,0.49,0.06,0.58
			s0.1,0.15,0.18,0.21s0.2,0.08,0.36,0.08C478.09,83.09,478.24,83.08,478.43,83.05z"/>
		<path d="M479.07,80.88c0-1.15,0.32-2.01,0.96-2.56c0.54-0.46,1.19-0.69,1.96-0.69c0.86,0,1.55,0.28,2.1,0.84s0.81,1.33,0.81,2.32
			c0,0.8-0.12,1.43-0.36,1.89s-0.59,0.82-1.05,1.07s-0.96,0.38-1.5,0.38c-0.87,0-1.58-0.28-2.11-0.84S479.07,81.93,479.07,80.88z
			 M480.16,80.88c0,0.8,0.17,1.39,0.52,1.79s0.79,0.59,1.31,0.59c0.52,0,0.96-0.2,1.31-0.6s0.52-1.01,0.52-1.82
			c0-0.77-0.17-1.35-0.52-1.75s-0.78-0.59-1.3-0.59c-0.53,0-0.96,0.2-1.31,0.59S480.16,80.08,480.16,80.88z"/>
		<path d="M486.13,83.99v-6.22h0.95v0.94c0.24-0.44,0.47-0.73,0.67-0.87s0.43-0.21,0.68-0.21c0.36,0,0.72,0.11,1.08,0.34l-0.36,0.98
			c-0.26-0.15-0.52-0.23-0.77-0.23c-0.23,0-0.44,0.07-0.62,0.21s-0.31,0.33-0.39,0.58c-0.12,0.38-0.18,0.79-0.18,1.23v3.26H486.13z"
			/>
		<path d="M490.09,86.39l-0.12-0.99c0.23,0.06,0.43,0.09,0.6,0.09c0.23,0,0.42-0.04,0.56-0.12s0.26-0.19,0.35-0.33
			c0.07-0.11,0.17-0.37,0.32-0.79c0.02-0.06,0.05-0.14,0.09-0.26l-2.36-6.23h1.14l1.29,3.6c0.17,0.46,0.32,0.94,0.45,1.44
			c0.12-0.48,0.27-0.96,0.43-1.42l1.33-3.63h1.05l-2.37,6.33c-0.25,0.68-0.45,1.15-0.59,1.41c-0.19,0.35-0.4,0.6-0.64,0.76
			s-0.53,0.24-0.87,0.24C490.56,86.52,490.34,86.47,490.09,86.39z"/>
		<path d="M502.56,83.99v-2.06h-3.73v-0.97l3.92-5.57h0.86v5.57h1.16v0.97h-1.16v2.06H502.56z M502.56,80.97V77.1l-2.69,3.87H502.56
			z"/>
	</g>
	<line style="fill:none;stroke:#000000;stroke-linecap:square;stroke-miterlimit:10;" x1="394" y1="101" x2="420" y2="101"/>
	<g>
		<path d="M381.6,101.33c0-1.73,0.48-3.01,1.44-3.84c0.8-0.69,1.78-1.04,2.94-1.04c1.28,0,2.33,0.42,3.15,1.26s1.22,2,1.22,3.48
			c0,1.2-0.18,2.15-0.54,2.83c-0.36,0.69-0.89,1.22-1.57,1.6s-1.44,0.57-2.25,0.57c-1.31,0-2.36-0.42-3.17-1.26
			C382,104.12,381.6,102.91,381.6,101.33z M383.22,101.33c0,1.2,0.26,2.09,0.78,2.68c0.52,0.6,1.18,0.89,1.97,0.89
			c0.79,0,1.44-0.3,1.96-0.9s0.78-1.51,0.78-2.73c0-1.15-0.26-2.03-0.79-2.62c-0.52-0.59-1.18-0.89-1.96-0.89
			c-0.79,0-1.45,0.3-1.97,0.89S383.22,100.14,383.22,101.33z"/>
		<path d="M392.28,97.68l-0.44-2.45v-2.11h1.8v2.11l-0.4,2.45H392.28z M395.19,97.68l-0.43-2.45v-2.11h1.8v2.11l-0.42,2.45H395.19z"
			/>
	</g>
	<g>
		<path d="M424.6,101.33c0-1.73,0.48-3.01,1.44-3.84c0.8-0.69,1.78-1.04,2.94-1.04c1.28,0,2.33,0.42,3.15,1.26s1.22,2,1.22,3.48
			c0,1.2-0.18,2.15-0.54,2.83c-0.36,0.69-0.89,1.22-1.57,1.6s-1.44,0.57-2.25,0.57c-1.31,0-2.36-0.42-3.17-1.26
			C425,104.12,424.6,102.91,424.6,101.33z M426.22,101.33c0,1.2,0.26,2.09,0.78,2.68c0.52,0.6,1.18,0.89,1.97,0.89
			c0.79,0,1.44-0.3,1.96-0.9s0.78-1.51,0.78-2.73c0-1.15-0.26-2.03-0.79-2.62c-0.52-0.59-1.18-0.89-1.96-0.89
			c-0.79,0-1.45,0.3-1.97,0.89S426.22,100.14,426.22,101.33z"/>
		<path d="M435.28,97.68l-0.44-2.45v-2.11h1.8v2.11l-0.4,2.45H435.28z M438.19,97.68l-0.43-2.45v-2.11h1.8v2.11l-0.42,2.45H438.19z"
			/>
	</g>
	<g>
		<path d="M460.79,105v-8.59h1.05v3.08c0.49-0.57,1.11-0.86,1.86-0.86c0.46,0,0.86,0.09,1.2,0.27s0.58,0.43,0.73,0.75
			s0.22,0.79,0.22,1.39V105h-1.05v-3.94c0-0.53-0.11-0.91-0.34-1.15s-0.55-0.36-0.97-0.36c-0.31,0-0.61,0.08-0.88,0.24
			s-0.47,0.38-0.59,0.66s-0.18,0.66-0.18,1.15v3.4H460.79z"/>
		<path d="M467.47,97.62v-1.21h1.05v1.21H467.47z M467.47,105v-6.22h1.05V105H467.47z"/>
		<path d="M469.71,103.14l1.04-0.16c0.06,0.42,0.22,0.74,0.49,0.96s0.64,0.33,1.12,0.33c0.48,0,0.84-0.1,1.08-0.3
			s0.35-0.43,0.35-0.69c0-0.24-0.1-0.43-0.31-0.56c-0.14-0.09-0.5-0.21-1.08-0.36c-0.77-0.2-1.31-0.36-1.61-0.51
			s-0.53-0.34-0.68-0.59s-0.23-0.53-0.23-0.83c0-0.28,0.06-0.53,0.19-0.77s0.3-0.43,0.52-0.59c0.16-0.12,0.39-0.22,0.67-0.31
			s0.59-0.13,0.91-0.13c0.49,0,0.92,0.07,1.29,0.21s0.64,0.33,0.82,0.57s0.3,0.56,0.36,0.96l-1.03,0.14
			c-0.05-0.32-0.18-0.57-0.41-0.75s-0.54-0.27-0.95-0.27c-0.48,0-0.83,0.08-1.04,0.24s-0.31,0.35-0.31,0.56
			c0,0.14,0.04,0.26,0.13,0.37c0.09,0.11,0.22,0.21,0.4,0.28c0.11,0.04,0.42,0.13,0.93,0.27c0.75,0.2,1.27,0.36,1.56,0.49
			s0.53,0.31,0.69,0.55s0.25,0.54,0.25,0.9c0,0.35-0.1,0.68-0.31,0.99s-0.5,0.55-0.89,0.72s-0.82,0.25-1.31,0.25
			c-0.81,0-1.42-0.17-1.85-0.5S469.83,103.8,469.71,103.14z"/>
		<path d="M478.43,104.06l0.15,0.93c-0.3,0.06-0.56,0.09-0.8,0.09c-0.38,0-0.68-0.06-0.89-0.18s-0.36-0.28-0.45-0.48
			s-0.13-0.61-0.13-1.25V99.6h-0.77v-0.82h0.77v-1.54l1.05-0.63v2.17h1.06v0.82h-1.06v3.64c0,0.3,0.02,0.49,0.06,0.58
			s0.1,0.15,0.18,0.21s0.2,0.08,0.36,0.08C478.09,104.1,478.24,104.08,478.43,104.06z"/>
		<path d="M479.07,101.89c0-1.15,0.32-2.01,0.96-2.56c0.54-0.46,1.19-0.69,1.96-0.69c0.86,0,1.55,0.28,2.1,0.84s0.81,1.33,0.81,2.32
			c0,0.8-0.12,1.43-0.36,1.89s-0.59,0.82-1.05,1.07s-0.96,0.38-1.5,0.38c-0.87,0-1.58-0.28-2.11-0.84S479.07,102.94,479.07,101.89z
			 M480.16,101.89c0,0.8,0.17,1.39,0.52,1.79s0.79,0.59,1.31,0.59c0.52,0,0.96-0.2,1.31-0.6s0.52-1.01,0.52-1.82
			c0-0.77-0.17-1.35-0.52-1.75s-0.78-0.59-1.3-0.59c-0.53,0-0.96,0.2-1.31,0.59S480.16,101.09,480.16,101.89z"/>
		<path d="M486.13,105v-6.22h0.95v0.94c0.24-0.44,0.47-0.73,0.67-0.87s0.43-0.21,0.68-0.21c0.36,0,0.72,0.11,1.08,0.34l-0.36,0.98
			c-0.26-0.15-0.52-0.23-0.77-0.23c-0.23,0-0.44,0.07-0.62,0.21s-0.31,0.33-0.39,0.58c-0.12,0.38-0.18,0.79-0.18,1.23V105H486.13z"
			/>
		<path d="M490.09,107.4l-0.12-0.99c0.23,0.06,0.43,0.09,0.6,0.09c0.23,0,0.42-0.04,0.56-0.12s0.26-0.19,0.35-0.33
			c0.07-0.11,0.17-0.37,0.32-0.79c0.02-0.06,0.05-0.14,0.09-0.26l-2.36-6.23h1.14l1.29,3.6c0.17,0.46,0.32,0.94,0.45,1.44
			c0.12-0.48,0.27-0.96,0.43-1.42l1.33-3.63h1.05l-2.37,6.33c-0.25,0.68-0.45,1.15-0.59,1.41c-0.19,0.35-0.4,0.6-0.64,0.76
			s-0.53,0.24-0.87,0.24C490.56,107.53,490.34,107.48,490.09,107.4z"/>
		<path d="M499.18,102.75l1.11-0.09c0.08,0.54,0.27,0.94,0.57,1.22s0.66,0.41,1.08,0.41c0.51,0,0.94-0.19,1.29-0.57
			s0.53-0.89,0.53-1.52c0-0.6-0.17-1.08-0.51-1.42s-0.78-0.52-1.33-0.52c-0.34,0-0.65,0.08-0.92,0.23s-0.49,0.35-0.64,0.6
			l-0.99-0.13l0.83-4.41h4.27v1.01h-3.43l-0.46,2.31c0.52-0.36,1.06-0.54,1.62-0.54c0.75,0,1.38,0.26,1.9,0.78s0.77,1.19,0.77,2
			c0,0.78-0.23,1.45-0.68,2.02c-0.55,0.7-1.3,1.04-2.26,1.04c-0.78,0-1.42-0.22-1.91-0.66S499.25,103.47,499.18,102.75z"/>
	</g>
	<polygon style="fill-rule:evenodd;clip-rule:evenodd;" points="380,153 368,156 368,153 368,150 380,153 	"/>
	<line style="fill:none;stroke:#000000;stroke-linecap:square;stroke-miterlimit:10;" x1="40" y1="153" x2="368" y2="153"/>
	<g>
		<path d="M337.09,166.06l0.15,0.93c-0.3,0.06-0.56,0.09-0.8,0.09c-0.38,0-0.68-0.06-0.89-0.18s-0.36-0.28-0.45-0.48
			s-0.13-0.61-0.13-1.25v-3.58h-0.77v-0.82h0.77v-1.54l1.05-0.63v2.17h1.06v0.82h-1.06v3.64c0,0.3,0.02,0.49,0.06,0.58
			s0.1,0.15,0.18,0.21s0.2,0.08,0.36,0.08C336.75,166.1,336.9,166.08,337.09,166.06z"/>
		<path d="M338.13,159.62v-1.21h1.05v1.21H338.13z M338.13,167v-6.22h1.05V167H338.13z"/>
		<path d="M340.79,167v-6.22h0.94v0.87c0.2-0.3,0.46-0.55,0.78-0.74s0.69-0.28,1.11-0.28c0.46,0,0.84,0.1,1.13,0.29
			s0.5,0.46,0.62,0.8c0.49-0.73,1.13-1.09,1.92-1.09c0.62,0,1.09,0.17,1.42,0.51s0.5,0.87,0.5,1.58V167h-1.05v-3.92
			c0-0.42-0.03-0.73-0.1-0.91s-0.19-0.33-0.37-0.45s-0.39-0.17-0.63-0.17c-0.44,0-0.8,0.15-1.09,0.44s-0.43,0.76-0.43,1.4V167h-1.05
			v-4.04c0-0.47-0.09-0.82-0.26-1.05s-0.45-0.35-0.84-0.35c-0.3,0-0.57,0.08-0.82,0.23s-0.43,0.38-0.55,0.69s-0.17,0.73-0.17,1.3
			V167H340.79z"/>
		<path d="M355.05,165l1.09,0.13c-0.17,0.64-0.49,1.13-0.96,1.48s-1.06,0.53-1.78,0.53c-0.91,0-1.63-0.28-2.17-0.84
			s-0.8-1.35-0.8-2.36c0-1.05,0.27-1.86,0.81-2.44s1.24-0.87,2.1-0.87c0.83,0,1.51,0.28,2.04,0.85s0.79,1.36,0.79,2.39
			c0,0.06,0,0.16-0.01,0.28h-4.64c0.04,0.68,0.23,1.21,0.58,1.57s0.78,0.54,1.3,0.54c0.39,0,0.72-0.1,0.99-0.3
			S354.89,165.44,355.05,165z M351.58,163.29h3.47c-0.05-0.52-0.18-0.92-0.4-1.18c-0.34-0.41-0.77-0.61-1.31-0.61
			c-0.48,0-0.89,0.16-1.22,0.49S351.62,162.75,351.58,163.29z"/>
	</g>
</g>
</svg>
