<?xml version="1.0" encoding="iso-8859-1"?>
<!-- Generator: Adobe Illustrator 16.0.3, SVG Export Plug-In . SVG Version: 6.00 Build 0)  -->
<!DOCTYPE svg PUBLIC "-//W3C//DTD SVG 1.1//EN" "http://www.w3.org/Graphics/SVG/1.1/DTD/svg11.dtd">
<svg version="1.1" id="Layer_1" xmlns="http://www.w3.org/2000/svg" xmlns:xlink="http://www.w3.org/1999/xlink" x="0px" y="0px"
	 width="1458.24px" height="1303.02px" viewBox="0 0 1458.24 1303.02" style="enable-background:new 0 0 1458.24 1303.02;"
	 xml:space="preserve">
<g>
	<polygon style="fill-rule:evenodd;clip-rule:evenodd;fill:#B3B3B3;" points="324.12,0.12 333.12,0.12 333.12,540.12 324.12,540.12 
		324.12,0.12 	"/>
	<path style="fill:none;stroke:#000000;stroke-width:0.2396;stroke-linecap:round;stroke-linejoin:round;stroke-miterlimit:10;" d="
		M328.62,0.12h4.5v540h-4.5 M328.62,0.12h-4.5v540h4.5"/>
	<polygon style="fill-rule:evenodd;clip-rule:evenodd;fill:#B3B3B3;" points="162.12,534.12 666.12,534.12 666.12,540.12 
		162.12,540.12 162.12,534.12 	"/>
	<path style="fill:none;stroke:#000000;stroke-width:0.2396;stroke-linecap:round;stroke-linejoin:round;stroke-miterlimit:10;" d="
		M162.12,537.12v-3h504v3 M162.12,537.12v3h504v-3"/>
	<polygon style="fill-rule:evenodd;clip-rule:evenodd;fill:#FFFFFF;" points="323.98,132.12 333.26,132.12 333.26,525.12 
		323.98,525.12 323.98,132.12 	"/>
	
		<polygon style="fill:none;stroke:#FFFFFF;stroke-width:0.2396;stroke-linecap:round;stroke-linejoin:round;stroke-miterlimit:10;" points="
		333.26,525.12 333.26,132.12 323.98,132.12 323.98,525.12 333.26,525.12 333.26,525.12 	"/>
	<path style="fill-rule:evenodd;clip-rule:evenodd;fill:#FFFFFF;" d="M333.12,132.12h-9v3h9V132.12L333.12,132.12L333.12,132.12z
		 M333.12,525.12h-9v-3h9V525.12L333.12,525.12L333.12,525.12z"/>
	<path style="fill:none;stroke:#000000;stroke-width:0.2396;stroke-linecap:round;stroke-linejoin:round;stroke-miterlimit:10;" d="
		M333.12,132.12h-9v3h9V132.12L333.12,132.12L333.12,132.12z M333.12,525.12h-9v-3h9V525.12L333.12,525.12L333.12,525.12z"/>
	<path style="fill:none;stroke:#000000;stroke-width:0.2396;stroke-linecap:round;stroke-linejoin:round;stroke-miterlimit:10;" d="
		M333.12,132.12h-9 M333.12,525.12h-9"/>
	
		<line style="fill:none;stroke:#000000;stroke-width:2.1561;stroke-linecap:round;stroke-linejoin:round;stroke-miterlimit:10;" x1="324.12" y1="540.12" x2="725.38" y2="540.12"/>
	<polygon style="fill-rule:evenodd;clip-rule:evenodd;" points="724.44,535.44 729.12,540.12 724.44,544.8 724.44,535.44 
		724.44,535.44 	"/>
	
		<line style="fill:none;stroke:#000000;stroke-width:2.1561;stroke-linecap:round;stroke-linejoin:round;stroke-miterlimit:10;" x1="333.12" y1="522.12" x2="333.12" y2="138.86"/>
	<polygon style="fill-rule:evenodd;clip-rule:evenodd;" points="328.44,139.8 333.12,135.12 337.8,139.8 328.44,139.8 328.44,139.8 
			"/>
	
		<line style="fill:none;stroke:#000000;stroke-width:0.7187;stroke-linecap:round;stroke-linejoin:round;stroke-miterlimit:10;" x1="333.12" y1="135.12" x2="333.12" y2="162.12"/>
	<g>
		<path d="M388.14,142.31v-7.28l-6.62-9.9h2.77l3.39,5.18c0.63,0.97,1.21,1.94,1.75,2.91c0.52-0.9,1.14-1.91,1.88-3.04l3.33-5.05
			h2.65l-6.86,9.9v7.28H388.14z"/>
		<path d="M410.13,132.21h-11.34v-1.97h11.34V132.21z M410.13,137.42h-11.34v-1.97h11.34V137.42z"/>
		<path d="M413.39,142.31v-17.18h2.27v7.05h8.93v-7.05h2.27v17.18h-2.27v-8.1h-8.93v8.1H413.39z"/>
	</g>
	<g>
		<path d="M768.11,547.31v-7.28l-6.62-9.9h2.77l3.39,5.18c0.63,0.97,1.21,1.94,1.75,2.91c0.52-0.9,1.14-1.91,1.88-3.04l3.33-5.05
			h2.65l-6.86,9.9v7.28H768.11z"/>
		<path d="M790.11,537.21h-11.34v-1.97h11.34V537.21z M790.11,542.42h-11.34v-1.97h11.34V542.42z"/>
		<path d="M792.44,538.84c0-2.03,0.21-3.67,0.63-4.9s1.04-2.19,1.86-2.87s1.86-1.01,3.11-1.01c0.92,0,1.73,0.19,2.43,0.56
			s1.27,0.91,1.72,1.61s0.81,1.55,1.07,2.55s0.39,2.36,0.39,4.06c0,2.02-0.21,3.64-0.62,4.88s-1.03,2.2-1.86,2.87
			s-1.87,1.01-3.12,1.01c-1.66,0-2.96-0.59-3.9-1.78C793.01,544.39,792.44,542.06,792.44,538.84z M794.61,538.84
			c0,2.82,0.33,4.7,0.99,5.63s1.47,1.4,2.44,1.4s1.78-0.47,2.44-1.41s0.99-2.81,0.99-5.63c0-2.83-0.33-4.71-0.99-5.64
			s-1.48-1.39-2.47-1.39c-0.97,0-1.74,0.41-2.32,1.23C794.97,534.08,794.61,536.02,794.61,538.84z"/>
	</g>
	<path style="fill-rule:evenodd;clip-rule:evenodd;fill:#FF0000;" d="M652.62,276.87c0-3.73-3.02-6.75-6.75-6.75
		s-6.75,3.02-6.75,6.75s3.02,6.75,6.75,6.75S652.62,280.6,652.62,276.87L652.62,276.87z"/>
	<path style="fill:none;stroke:#000000;stroke-width:0.7187;stroke-linecap:round;stroke-linejoin:round;stroke-miterlimit:10;" d="
		M652.62,276.87c0-3.73-3.02-6.75-6.75-6.75s-6.75,3.02-6.75,6.75s3.02,6.75,6.75,6.75S652.62,280.6,652.62,276.87L652.62,276.87z"
		/>
	<g>
		<path d="M616.93,192.92v-17.18h2.33l9.02,13.49v-13.49h2.18v17.18h-2.33l-9.02-13.5v13.5H616.93z"/>
		<path d="M633.23,186.7c0-2.3,0.64-4.01,1.92-5.12c1.07-0.92,2.38-1.38,3.91-1.38c1.71,0,3.11,0.56,4.2,1.68s1.63,2.67,1.63,4.65
			c0,1.6-0.24,2.86-0.72,3.78s-1.18,1.63-2.1,2.14s-1.92,0.76-3.01,0.76c-1.74,0-3.15-0.56-4.22-1.68S633.23,188.8,633.23,186.7z
			 M635.4,186.7c0,1.59,0.35,2.79,1.04,3.58s1.57,1.19,2.63,1.19c1.05,0,1.92-0.4,2.61-1.2s1.04-2.01,1.04-3.64
			c0-1.54-0.35-2.71-1.05-3.5s-1.57-1.19-2.61-1.19c-1.05,0-1.93,0.39-2.63,1.18S635.4,185.1,635.4,186.7z"/>
		<path d="M655.44,192.92v-1.57c-0.79,1.23-1.95,1.85-3.48,1.85c-0.99,0-1.9-0.27-2.74-0.82s-1.48-1.31-1.93-2.29
			s-0.69-2.11-0.69-3.38c0-1.24,0.21-2.37,0.62-3.38s1.04-1.79,1.86-2.33s1.75-0.81,2.78-0.81c0.75,0,1.42,0.16,2,0.47
			s1.06,0.73,1.43,1.24v-6.16h2.1v17.18H655.44z M648.77,186.71c0,1.59,0.34,2.79,1.01,3.57s1.46,1.18,2.38,1.18
			c0.92,0,1.71-0.38,2.35-1.13s0.97-1.9,0.97-3.45c0-1.7-0.33-2.95-0.98-3.75s-1.46-1.2-2.43-1.2c-0.94,0-1.72,0.38-2.35,1.15
			S648.77,185.06,648.77,186.71z"/>
		<path d="M669.23,188.91l2.18,0.27c-0.34,1.27-0.98,2.26-1.91,2.96s-2.12,1.05-3.56,1.05c-1.82,0-3.26-0.56-4.33-1.68
			s-1.6-2.69-1.6-4.72c0-2.09,0.54-3.72,1.62-4.88s2.48-1.73,4.2-1.73c1.66,0,3.02,0.57,4.08,1.7s1.58,2.73,1.58,4.78
			c0,0.13,0,0.31-0.01,0.56h-9.28c0.08,1.37,0.46,2.41,1.16,3.14s1.56,1.09,2.6,1.09c0.77,0,1.43-0.2,1.98-0.61
			S668.91,189.8,669.23,188.91z M662.3,185.5h6.95c-0.09-1.05-0.36-1.83-0.8-2.36c-0.67-0.81-1.54-1.22-2.61-1.22
			c-0.97,0-1.78,0.32-2.44,0.97S662.38,184.42,662.3,185.5z"/>
		<path d="M680.73,192.92v-12.45h1.89v1.75c0.39-0.61,0.91-1.1,1.56-1.47s1.39-0.56,2.21-0.56c0.92,0,1.68,0.19,2.27,0.57
			s1.01,0.92,1.25,1.61c0.98-1.45,2.27-2.18,3.84-2.18c1.23,0,2.18,0.34,2.85,1.03s1,1.74,1,3.16v8.54h-2.1v-7.84
			c0-0.84-0.07-1.45-0.21-1.82s-0.38-0.67-0.74-0.9s-0.78-0.34-1.27-0.34c-0.88,0-1.6,0.29-2.18,0.87s-0.87,1.51-0.87,2.79v7.23
			h-2.11v-8.09c0-0.94-0.17-1.64-0.52-2.11s-0.91-0.7-1.69-0.7c-0.59,0-1.14,0.16-1.65,0.47s-0.87,0.77-1.1,1.37
			s-0.34,1.47-0.34,2.6v6.46H680.73z"/>
	</g>
	<g>
		<path d="M615.2,221.72v-17.18h6.48c1.14,0,2.01,0.05,2.61,0.16c0.84,0.14,1.55,0.41,2.12,0.8s1.03,0.95,1.38,1.66
			s0.52,1.49,0.52,2.34c0,1.46-0.46,2.7-1.39,3.71s-2.61,1.52-5.04,1.52h-4.41v6.98H615.2z M617.47,212.71h4.44
			c1.47,0,2.51-0.27,3.13-0.82s0.93-1.32,0.93-2.31c0-0.72-0.18-1.33-0.54-1.85s-0.84-0.85-1.44-1.01c-0.38-0.1-1.09-0.15-2.12-0.15
			h-4.39V212.71z"/>
	</g>
	<g>
		<path d="M630.4,229.72v-8.3h1.26v1.16c0.26-0.41,0.61-0.73,1.04-0.98s0.93-0.37,1.48-0.37c0.61,0,1.12,0.13,1.51,0.38
			c0.39,0.26,0.67,0.61,0.83,1.07c0.66-0.97,1.51-1.45,2.56-1.45c0.82,0,1.46,0.23,1.9,0.68s0.66,1.16,0.66,2.11v5.7h-1.4v-5.23
			c0-0.56-0.05-0.97-0.14-1.22c-0.09-0.25-0.26-0.45-0.5-0.6c-0.24-0.15-0.52-0.23-0.84-0.23c-0.58,0-1.07,0.19-1.45,0.58
			s-0.58,1.01-0.58,1.86v4.82h-1.41v-5.39c0-0.63-0.11-1.09-0.34-1.41c-0.23-0.31-0.6-0.47-1.13-0.47c-0.4,0-0.76,0.1-1.1,0.31
			c-0.34,0.21-0.58,0.51-0.73,0.91c-0.15,0.4-0.23,0.98-0.23,1.74v4.31H630.4z"/>
	</g>
	<g>
		<path d="M650.18,226.86h-2c0.29-0.9,0.43-2.26,0.43-4.08v-6.61c0-1.87,0.53-3.25,1.58-4.15s2.22-1.35,3.49-1.35
			c1.38,0,2.5,0.47,3.34,1.42s1.27,2.19,1.27,3.73c0,1.68-0.52,3.14-1.57,4.37s-2.24,1.85-3.59,1.85c-0.91,0-1.77-0.29-2.59-0.87
			v1.54C650.54,224.35,650.42,225.73,650.18,226.86z M650.54,218.47c0,0.95,0.25,1.67,0.75,2.16s1.14,0.74,1.91,0.74
			c0.91,0,1.68-0.39,2.29-1.18s0.92-1.82,0.92-3.11c0-1.63-0.42-2.93-1.25-3.88s-1.77-1.43-2.79-1.43c-0.7,0-1.17,0.22-1.44,0.65
			s-0.39,1.14-0.39,2.12V218.47z"/>
	</g>
	<g>
		<path d="M661.74,223.87c0.52-0.52,0.83-0.82,0.92-0.9c0.23-0.2,0.49-0.35,0.76-0.46s0.54-0.16,0.81-0.16
			c0.45,0,0.83,0.13,1.16,0.39c0.32,0.26,0.54,0.64,0.65,1.13c0.54-0.63,0.99-1.04,1.36-1.23c0.37-0.2,0.75-0.29,1.14-0.29
			c0.38,0,0.72,0.1,1.01,0.29c0.29,0.2,0.53,0.51,0.7,0.96c0.11,0.3,0.17,0.78,0.17,1.42v3.08c0,0.45,0.03,0.76,0.1,0.92
			c0.05,0.11,0.15,0.21,0.29,0.29c0.14,0.08,0.37,0.12,0.69,0.12v0.28h-3.53v-0.28h0.15c0.31,0,0.55-0.06,0.72-0.18
			c0.12-0.08,0.21-0.22,0.26-0.4c0.02-0.09,0.03-0.34,0.03-0.76v-3.08c0-0.58-0.07-1-0.21-1.23c-0.2-0.33-0.53-0.5-0.98-0.5
			c-0.28,0-0.55,0.07-0.83,0.21s-0.62,0.39-1.01,0.77l-0.02,0.09l0.02,0.34v3.42c0,0.49,0.03,0.79,0.08,0.91
			c0.05,0.12,0.16,0.22,0.31,0.3c0.15,0.08,0.41,0.12,0.77,0.12v0.28h-3.62v-0.28c0.4,0,0.67-0.05,0.82-0.14
			c0.15-0.09,0.25-0.23,0.31-0.42c0.03-0.09,0.04-0.35,0.04-0.77v-3.08c0-0.58-0.09-1-0.26-1.26c-0.23-0.33-0.55-0.5-0.96-0.5
			c-0.28,0-0.56,0.08-0.84,0.23c-0.43,0.23-0.77,0.49-1,0.77v3.84c0,0.47,0.03,0.77,0.1,0.91c0.06,0.14,0.16,0.25,0.29,0.32
			c0.13,0.07,0.39,0.11,0.78,0.11v0.28h-3.54v-0.28c0.33,0,0.56-0.04,0.69-0.11s0.23-0.18,0.3-0.34c0.07-0.15,0.1-0.45,0.1-0.9
			v-2.74c0-0.79-0.02-1.29-0.07-1.52c-0.04-0.17-0.09-0.29-0.17-0.36c-0.08-0.07-0.19-0.1-0.32-0.1c-0.15,0-0.32,0.04-0.52,0.12
			l-0.12-0.28l2.16-0.88h0.34V223.87z"/>
	</g>
	<g>
		<path d="M679.47,205.06v7.85c0.87-0.95,1.55-1.56,2.06-1.83s1.02-0.4,1.52-0.4c0.61,0,1.13,0.17,1.57,0.5s0.76,0.86,0.97,1.58
			c0.15,0.5,0.22,1.41,0.22,2.74v3.8c0,0.68,0.05,1.14,0.16,1.39c0.08,0.19,0.21,0.34,0.4,0.45s0.53,0.16,1.03,0.16v0.42h-5.27
			v-0.42h0.25c0.5,0,0.85-0.08,1.04-0.23s0.33-0.38,0.41-0.67c0.02-0.13,0.04-0.49,0.04-1.1v-3.8c0-1.17-0.06-1.94-0.18-2.31
			s-0.31-0.64-0.58-0.83s-0.59-0.28-0.96-0.28c-0.38,0-0.78,0.1-1.2,0.3s-0.91,0.61-1.49,1.23v5.67c0,0.73,0.04,1.19,0.12,1.37
			s0.23,0.33,0.46,0.45s0.61,0.18,1.15,0.18v0.42h-5.32v-0.42c0.48,0,0.85-0.07,1.13-0.22c0.16-0.08,0.28-0.23,0.38-0.45
			s0.14-0.66,0.14-1.34v-9.71c0-1.23-0.03-1.98-0.09-2.26s-0.15-0.47-0.27-0.57s-0.28-0.15-0.49-0.15c-0.16,0-0.43,0.06-0.8,0.19
			l-0.16-0.41l3.21-1.31H679.47z"/>
	</g>
	<g>
		<path d="M688.61,229.72v-8.3h1.26v1.16c0.26-0.41,0.61-0.73,1.04-0.98s0.93-0.37,1.48-0.37c0.61,0,1.12,0.13,1.51,0.38
			c0.39,0.26,0.67,0.61,0.83,1.07c0.66-0.97,1.51-1.45,2.56-1.45c0.82,0,1.46,0.23,1.9,0.68s0.66,1.16,0.66,2.11v5.7h-1.4v-5.23
			c0-0.56-0.05-0.97-0.14-1.22c-0.09-0.25-0.26-0.45-0.5-0.6c-0.24-0.15-0.52-0.23-0.84-0.23c-0.58,0-1.07,0.19-1.45,0.58
			s-0.58,1.01-0.58,1.86v4.82h-1.41v-5.39c0-0.63-0.11-1.09-0.34-1.41c-0.23-0.31-0.6-0.47-1.13-0.47c-0.4,0-0.76,0.1-1.1,0.31
			c-0.34,0.21-0.58,0.51-0.73,0.91c-0.15,0.4-0.23,0.98-0.23,1.74v4.31H688.61z"/>
	</g>
	<g>
	</g>
	<g>
		<path d="M130.93,246.92v-17.18h2.33l9.02,13.49v-13.49h2.18v17.18h-2.33l-9.02-13.5v13.5H130.93z"/>
		<path d="M147.23,240.7c0-2.3,0.64-4.01,1.92-5.12c1.07-0.92,2.38-1.38,3.91-1.38c1.71,0,3.11,0.56,4.2,1.68s1.63,2.67,1.63,4.65
			c0,1.6-0.24,2.86-0.72,3.78s-1.18,1.63-2.1,2.14s-1.92,0.76-3.01,0.76c-1.74,0-3.15-0.56-4.22-1.68S147.23,242.8,147.23,240.7z
			 M149.4,240.7c0,1.59,0.35,2.79,1.04,3.58s1.57,1.19,2.63,1.19c1.05,0,1.92-0.4,2.61-1.2s1.04-2.01,1.04-3.64
			c0-1.54-0.35-2.71-1.05-3.5s-1.57-1.19-2.61-1.19c-1.05,0-1.93,0.39-2.63,1.18S149.4,239.1,149.4,240.7z"/>
		<path d="M169.44,246.92v-1.57c-0.79,1.23-1.95,1.85-3.48,1.85c-0.99,0-1.9-0.27-2.74-0.82s-1.48-1.31-1.93-2.29
			s-0.69-2.11-0.69-3.38c0-1.24,0.21-2.37,0.62-3.38s1.04-1.79,1.86-2.33s1.75-0.81,2.78-0.81c0.75,0,1.42,0.16,2,0.47
			s1.06,0.73,1.43,1.24v-6.16h2.1v17.18H169.44z M162.77,240.71c0,1.59,0.34,2.79,1.01,3.57s1.46,1.18,2.38,1.18
			c0.92,0,1.71-0.38,2.35-1.13s0.97-1.9,0.97-3.45c0-1.7-0.33-2.95-0.98-3.75s-1.46-1.2-2.43-1.2c-0.94,0-1.72,0.38-2.35,1.15
			S162.77,239.06,162.77,240.71z"/>
		<path d="M183.23,242.91l2.18,0.27c-0.34,1.27-0.98,2.26-1.91,2.96s-2.12,1.05-3.56,1.05c-1.82,0-3.26-0.56-4.33-1.68
			s-1.6-2.69-1.6-4.72c0-2.09,0.54-3.72,1.62-4.88s2.48-1.73,4.2-1.73c1.66,0,3.02,0.57,4.08,1.7s1.58,2.73,1.58,4.78
			c0,0.13,0,0.31-0.01,0.56h-9.28c0.08,1.37,0.46,2.41,1.16,3.14s1.56,1.09,2.6,1.09c0.77,0,1.43-0.2,1.98-0.61
			S182.91,243.8,183.23,242.91z M176.3,239.5h6.95c-0.09-1.05-0.36-1.83-0.8-2.36c-0.67-0.81-1.54-1.22-2.61-1.22
			c-0.97,0-1.78,0.32-2.44,0.97S176.38,238.42,176.3,239.5z"/>
		<path d="M194.73,246.92v-12.45h1.89v1.75c0.39-0.61,0.91-1.1,1.56-1.47s1.39-0.56,2.21-0.56c0.92,0,1.68,0.19,2.27,0.57
			s1.01,0.92,1.25,1.61c0.98-1.45,2.27-2.18,3.84-2.18c1.23,0,2.18,0.34,2.85,1.03s1,1.74,1,3.16v8.54h-2.1v-7.84
			c0-0.84-0.07-1.45-0.21-1.82s-0.38-0.67-0.74-0.9s-0.78-0.34-1.27-0.34c-0.88,0-1.6,0.29-2.18,0.87s-0.87,1.51-0.87,2.79v7.23
			h-2.11v-8.09c0-0.94-0.17-1.64-0.52-2.11s-0.91-0.7-1.69-0.7c-0.59,0-1.14,0.16-1.65,0.47s-0.87,0.77-1.1,1.37
			s-0.34,1.47-0.34,2.6v6.46H194.73z"/>
	</g>
	<g>
		<path d="M136.3,275.71v-17.18h6.48c1.14,0,2.01,0.05,2.61,0.16c0.84,0.14,1.55,0.41,2.12,0.8s1.03,0.95,1.38,1.66
			s0.52,1.49,0.52,2.34c0,1.46-0.46,2.7-1.39,3.71s-2.61,1.52-5.04,1.52h-4.41v6.98H136.3z M138.58,266.7h4.44
			c1.47,0,2.51-0.27,3.13-0.82s0.93-1.32,0.93-2.31c0-0.72-0.18-1.33-0.54-1.85s-0.84-0.85-1.44-1.01c-0.38-0.1-1.09-0.15-2.12-0.15
			h-4.39V266.7z"/>
	</g>
	<g>
		<path d="M151.51,283.72v-8.3h1.27v1.18c0.61-0.91,1.49-1.37,2.64-1.37c0.5,0,0.96,0.09,1.38,0.27c0.42,0.18,0.73,0.42,0.94,0.71
			c0.21,0.29,0.35,0.64,0.44,1.04c0.05,0.26,0.08,0.72,0.08,1.37v5.1h-1.41v-5.05c0-0.57-0.06-1-0.16-1.29
			c-0.11-0.28-0.3-0.51-0.58-0.68s-0.61-0.25-0.98-0.25c-0.6,0-1.12,0.19-1.55,0.57s-0.65,1.1-0.65,2.17v4.53H151.51z"/>
	</g>
	<g>
	</g>
	<g>
		<path d="M166.86,280.84h-2c0.29-0.9,0.43-2.26,0.43-4.08v-6.61c0-1.87,0.53-3.25,1.58-4.15s2.22-1.35,3.49-1.35
			c1.38,0,2.5,0.47,3.34,1.42s1.27,2.19,1.27,3.73c0,1.68-0.52,3.14-1.57,4.37s-2.24,1.85-3.59,1.85c-0.91,0-1.77-0.29-2.59-0.87
			v1.54C167.22,278.34,167.1,279.72,166.86,280.84z M167.22,272.45c0,0.95,0.25,1.67,0.75,2.16s1.14,0.74,1.91,0.74
			c0.91,0,1.68-0.39,2.29-1.18s0.92-1.82,0.92-3.11c0-1.63-0.42-2.93-1.25-3.88s-1.77-1.43-2.79-1.43c-0.7,0-1.17,0.22-1.44,0.65
			s-0.39,1.14-0.39,2.12V272.45z"/>
	</g>
	<g>
		<path d="M178.37,277.86c0.84-1.01,1.64-1.52,2.4-1.52c0.39,0,0.73,0.1,1.01,0.29s0.51,0.52,0.67,0.97
			c0.11,0.31,0.17,0.79,0.17,1.44v3.06c0,0.45,0.04,0.76,0.11,0.92c0.06,0.13,0.15,0.23,0.28,0.31c0.13,0.07,0.36,0.11,0.71,0.11
			v0.28h-3.54v-0.28h0.15c0.33,0,0.57-0.05,0.7-0.15c0.13-0.1,0.23-0.25,0.28-0.45c0.02-0.08,0.03-0.32,0.03-0.73v-2.93
			c0-0.65-0.08-1.12-0.25-1.42s-0.45-0.44-0.86-0.44c-0.62,0-1.24,0.34-1.85,1.02v3.78c0,0.48,0.03,0.78,0.09,0.9
			c0.07,0.15,0.17,0.26,0.3,0.33c0.13,0.07,0.39,0.11,0.78,0.11v0.28h-3.54v-0.28h0.16c0.36,0,0.61-0.09,0.74-0.28
			c0.13-0.18,0.19-0.54,0.19-1.06v-2.66c0-0.86-0.02-1.38-0.06-1.57s-0.1-0.32-0.18-0.38c-0.08-0.07-0.19-0.1-0.32-0.1
			c-0.15,0-0.32,0.04-0.52,0.12l-0.12-0.28l2.16-0.88h0.34V277.86z"/>
	</g>
	<g>
	</g>
	<g>
		<path d="M191.69,259.04v7.85c0.87-0.95,1.55-1.56,2.06-1.83s1.02-0.4,1.52-0.4c0.61,0,1.13,0.17,1.57,0.5s0.76,0.86,0.97,1.58
			c0.15,0.5,0.22,1.41,0.22,2.74v3.8c0,0.68,0.05,1.14,0.16,1.39c0.08,0.19,0.21,0.34,0.4,0.45s0.53,0.16,1.03,0.16v0.42h-5.27
			v-0.42h0.25c0.5,0,0.85-0.08,1.04-0.23s0.33-0.38,0.41-0.67c0.02-0.13,0.04-0.49,0.04-1.1v-3.8c0-1.17-0.06-1.94-0.18-2.31
			s-0.31-0.64-0.58-0.83s-0.59-0.28-0.96-0.28c-0.38,0-0.78,0.1-1.2,0.3s-0.91,0.61-1.49,1.23v5.67c0,0.73,0.04,1.19,0.12,1.37
			s0.23,0.33,0.46,0.45s0.61,0.18,1.15,0.18v0.42h-5.32v-0.42c0.48,0,0.85-0.07,1.13-0.22c0.16-0.08,0.28-0.23,0.38-0.45
			s0.14-0.66,0.14-1.34v-9.71c0-1.23-0.03-1.98-0.09-2.26s-0.15-0.47-0.27-0.57s-0.28-0.15-0.49-0.15c-0.16,0-0.43,0.06-0.8,0.19
			l-0.16-0.41l3.21-1.31H191.69z"/>
	</g>
	<g>
		<path d="M202.38,277.86c0.84-1.01,1.64-1.52,2.4-1.52c0.39,0,0.73,0.1,1.01,0.29s0.51,0.52,0.67,0.97
			c0.11,0.31,0.17,0.79,0.17,1.44v3.06c0,0.45,0.04,0.76,0.11,0.92c0.06,0.13,0.15,0.23,0.28,0.31c0.13,0.07,0.36,0.11,0.71,0.11
			v0.28h-3.54v-0.28h0.15c0.33,0,0.57-0.05,0.7-0.15c0.13-0.1,0.23-0.25,0.28-0.45c0.02-0.08,0.03-0.32,0.03-0.73v-2.93
			c0-0.65-0.08-1.12-0.25-1.42s-0.45-0.44-0.86-0.44c-0.62,0-1.24,0.34-1.85,1.02v3.78c0,0.48,0.03,0.78,0.09,0.9
			c0.07,0.15,0.17,0.26,0.3,0.33c0.13,0.07,0.39,0.11,0.78,0.11v0.28H200v-0.28h0.16c0.36,0,0.61-0.09,0.74-0.28
			c0.13-0.18,0.19-0.54,0.19-1.06v-2.66c0-0.86-0.02-1.38-0.06-1.57s-0.1-0.32-0.18-0.38c-0.08-0.07-0.19-0.1-0.32-0.1
			c-0.15,0-0.32,0.04-0.52,0.12l-0.12-0.28l2.16-0.88h0.34V277.86z"/>
	</g>
	<g>
	</g>
	<path style="fill-rule:evenodd;clip-rule:evenodd;fill:#FF0000;" d="M175.62,321.87c0-3.73-3.02-6.75-6.75-6.75
		s-6.75,3.02-6.75,6.75s3.02,6.75,6.75,6.75S175.62,325.6,175.62,321.87L175.62,321.87z"/>
	<path style="fill:none;stroke:#000000;stroke-width:0.7187;stroke-linecap:round;stroke-linejoin:round;stroke-miterlimit:10;" d="
		M175.62,321.87c0-3.73-3.02-6.75-6.75-6.75s-6.75,3.02-6.75,6.75s3.02,6.75,6.75,6.75S175.62,325.6,175.62,321.87L175.62,321.87z"
		/>
	<path style="fill-rule:evenodd;clip-rule:evenodd;fill:#FF0000;" d="M184.62,528.87c0-3.73-3.02-6.75-6.75-6.75
		s-6.75,3.02-6.75,6.75s3.02,6.75,6.75,6.75S184.62,532.6,184.62,528.87L184.62,528.87z"/>
	<path style="fill:none;stroke:#000000;stroke-width:0.7187;stroke-linecap:round;stroke-linejoin:round;stroke-miterlimit:10;" d="
		M184.62,528.87c0-3.73-3.02-6.75-6.75-6.75s-6.75,3.02-6.75,6.75s3.02,6.75,6.75,6.75S184.62,532.6,184.62,528.87L184.62,528.87z"
		/>
	<path style="fill-rule:evenodd;clip-rule:evenodd;fill:#FF0000;" d="M654.87,528.87c0-3.73-3.02-6.75-6.75-6.75
		s-6.75,3.02-6.75,6.75s3.02,6.75,6.75,6.75S654.87,532.6,654.87,528.87L654.87,528.87z"/>
	<path style="fill:none;stroke:#000000;stroke-width:0.7187;stroke-linecap:round;stroke-linejoin:round;stroke-miterlimit:10;" d="
		M654.87,528.87c0-3.73-3.02-6.75-6.75-6.75s-6.75,3.02-6.75,6.75s3.02,6.75,6.75,6.75S654.87,532.6,654.87,528.87L654.87,528.87z"
		/>
	<g>
		<path d="M160.56,493.08V475.9h6.48c1.14,0,2.01,0.05,2.61,0.16c0.84,0.14,1.55,0.41,2.12,0.8s1.03,0.95,1.38,1.66
			s0.52,1.49,0.52,2.34c0,1.46-0.46,2.7-1.39,3.71s-2.61,1.52-5.04,1.52h-4.41v6.98H160.56z M162.84,484.06h4.44
			c1.47,0,2.51-0.27,3.13-0.82s0.93-1.32,0.93-2.31c0-0.72-0.18-1.33-0.54-1.85s-0.84-0.85-1.44-1.01c-0.38-0.1-1.09-0.15-2.12-0.15
			h-4.39V484.06z"/>
	</g>
	<g>
		<path d="M175.38,495.42c0-1.35,0.14-2.45,0.42-3.27s0.69-1.46,1.24-1.91s1.24-0.67,2.08-0.67c0.61,0,1.15,0.12,1.62,0.37
			s0.85,0.6,1.15,1.07s0.54,1.03,0.71,1.7c0.17,0.67,0.26,1.57,0.26,2.71c0,1.34-0.14,2.43-0.41,3.26
			c-0.28,0.83-0.69,1.46-1.24,1.92c-0.55,0.45-1.24,0.68-2.08,0.68c-1.1,0-1.97-0.4-2.6-1.19
			C175.75,499.12,175.38,497.57,175.38,495.42z M176.82,495.42c0,1.88,0.22,3.13,0.66,3.76s0.98,0.93,1.63,0.93
			c0.65,0,1.19-0.31,1.63-0.94s0.66-1.88,0.66-3.75c0-1.89-0.22-3.14-0.66-3.76c-0.44-0.62-0.99-0.93-1.65-0.93
			c-0.65,0-1.16,0.27-1.55,0.82C177.06,492.25,176.82,493.54,176.82,495.42z"/>
	</g>
	<g>
		<path d="M184.67,501.07v-8.3h1.27v1.18c0.61-0.91,1.49-1.37,2.64-1.37c0.5,0,0.96,0.09,1.38,0.27c0.42,0.18,0.73,0.42,0.94,0.71
			c0.21,0.29,0.35,0.64,0.44,1.04c0.05,0.26,0.08,0.72,0.08,1.37v5.1h-1.41v-5.05c0-0.57-0.06-1-0.16-1.29
			c-0.11-0.28-0.3-0.51-0.58-0.68s-0.61-0.25-0.98-0.25c-0.6,0-1.12,0.19-1.55,0.57s-0.65,1.1-0.65,2.17v4.53H184.67z"/>
	</g>
	<g>
	</g>
	<g>
		<path d="M626.34,488.56v-17.18h6.48c1.14,0,2.01,0.05,2.61,0.16c0.84,0.14,1.55,0.41,2.12,0.8s1.03,0.95,1.38,1.66
			s0.52,1.49,0.52,2.34c0,1.46-0.46,2.7-1.39,3.71s-2.61,1.52-5.04,1.52h-4.41v6.98H626.34z M628.62,479.55h4.44
			c1.47,0,2.51-0.27,3.13-0.82s0.93-1.32,0.93-2.31c0-0.72-0.18-1.33-0.54-1.85s-0.84-0.85-1.44-1.01c-0.38-0.1-1.09-0.15-2.12-0.15
			h-4.39V479.55z"/>
	</g>
	<g>
		<path d="M641.16,490.92c0-1.35,0.14-2.45,0.42-3.27s0.69-1.46,1.24-1.91s1.24-0.67,2.08-0.67c0.61,0,1.15,0.12,1.62,0.37
			s0.85,0.6,1.15,1.07s0.54,1.03,0.71,1.7c0.17,0.67,0.26,1.57,0.26,2.71c0,1.34-0.14,2.43-0.41,3.26
			c-0.28,0.83-0.69,1.46-1.24,1.92c-0.55,0.45-1.24,0.68-2.08,0.68c-1.1,0-1.97-0.4-2.6-1.19
			C641.54,494.63,641.16,493.08,641.16,490.92z M642.61,490.92c0,1.88,0.22,3.13,0.66,3.76s0.98,0.93,1.63,0.93
			c0.65,0,1.19-0.31,1.63-0.94s0.66-1.88,0.66-3.75c0-1.89-0.22-3.14-0.66-3.76c-0.44-0.62-0.99-0.93-1.65-0.93
			c-0.65,0-1.16,0.27-1.55,0.82C642.85,487.75,642.61,489.04,642.61,490.92z"/>
		<path d="M650.46,496.58v-8.3h1.26v1.16c0.26-0.41,0.61-0.73,1.04-0.98s0.93-0.37,1.48-0.37c0.61,0,1.12,0.13,1.51,0.38
			c0.39,0.26,0.67,0.61,0.83,1.07c0.66-0.97,1.51-1.45,2.56-1.45c0.82,0,1.46,0.23,1.9,0.68s0.66,1.16,0.66,2.11v5.7h-1.4v-5.23
			c0-0.56-0.05-0.97-0.14-1.22c-0.09-0.25-0.26-0.45-0.5-0.6c-0.24-0.15-0.52-0.23-0.84-0.23c-0.58,0-1.07,0.19-1.45,0.58
			s-0.58,1.01-0.58,1.86v4.82h-1.41v-5.39c0-0.63-0.11-1.09-0.34-1.41c-0.23-0.31-0.6-0.47-1.13-0.47c-0.4,0-0.76,0.1-1.1,0.31
			c-0.34,0.21-0.58,0.51-0.73,0.91c-0.15,0.4-0.23,0.98-0.23,1.74v4.31H650.46z"/>
	</g>
	<g>
	</g>
	<polygon style="fill-rule:evenodd;clip-rule:evenodd;fill:#B3B3B3;" points="162.12,670.62 171.12,670.62 171.12,1210.62 
		162.12,1210.62 162.12,670.62 	"/>
	<path style="fill:none;stroke:#000000;stroke-width:0.2396;stroke-linecap:round;stroke-linejoin:round;stroke-miterlimit:10;" d="
		M166.62,670.62h4.5v540h-4.5 M166.62,670.62h-4.5v540h4.5"/>
	<polygon style="fill-rule:evenodd;clip-rule:evenodd;fill:#B3B3B3;" points="0.12,1204.62 387.12,1204.62 387.12,1210.62 
		0.12,1210.62 0.12,1204.62 	"/>
	<path style="fill:none;stroke:#000000;stroke-width:0.2396;stroke-linecap:round;stroke-linejoin:round;stroke-miterlimit:10;" d="
		M0.12,1207.62v-3h387v3 M0.12,1207.62v3h387v-3"/>
	
		<line style="fill:none;stroke:#000000;stroke-width:2.1561;stroke-linecap:round;stroke-linejoin:round;stroke-miterlimit:10;" x1="171.12" y1="1206.12" x2="171.12" y2="809.36"/>
	<polygon style="fill-rule:evenodd;clip-rule:evenodd;" points="166.44,810.3 171.12,805.62 175.8,810.3 166.44,810.3 166.44,810.3 
			"/>
	
		<line style="fill:none;stroke:#000000;stroke-width:0.7187;stroke-linecap:round;stroke-linejoin:round;stroke-miterlimit:10;" x1="171.12" y1="805.62" x2="171.12" y2="833.56"/>
	<polygon style="fill-rule:evenodd;clip-rule:evenodd;fill:#FFFFFF;" points="161.98,802.62 171.26,802.62 171.26,1209.12 
		161.98,1209.12 161.98,802.62 	"/>
	
		<polygon style="fill:none;stroke:#FFFFFF;stroke-width:0.2396;stroke-linecap:round;stroke-linejoin:round;stroke-miterlimit:10;" points="
		171.26,1209.12 171.26,802.62 161.98,802.62 161.98,1209.12 171.26,1209.12 171.26,1209.12 	"/>
	<path style="fill-rule:evenodd;clip-rule:evenodd;fill:#FFFFFF;" d="M171.12,802.62h-9v3h9V802.62L171.12,802.62L171.12,802.62z
		 M171.12,1209.12h-9v-3h9V1209.12L171.12,1209.12L171.12,1209.12z"/>
	<path style="fill:none;stroke:#000000;stroke-width:0.2396;stroke-linecap:round;stroke-linejoin:round;stroke-miterlimit:10;" d="
		M171.12,802.62h-9v3h9V802.62L171.12,802.62L171.12,802.62z M171.12,1209.12h-9v-3h9V1209.12L171.12,1209.12L171.12,1209.12z"/>
	<path style="fill:none;stroke:#000000;stroke-width:0.2396;stroke-linecap:round;stroke-linejoin:round;stroke-miterlimit:10;" d="
		M171.12,802.62h-9 M171.12,1209.12h-9"/>
	<path style="fill:none;stroke:#000000;stroke-width:0.7187;stroke-linecap:round;stroke-linejoin:round;stroke-miterlimit:10;" d="
		M324.12,810.12c0.49,22.69-5.92,54.72-12.77,74.01c-3.18,8.95-6.46,15.16-13.71,23.75c-7.91,9.37-20.55,21.57-28.66,29.99
		c-6.83,7.1-10.44,11.52-17.52,16.88c-6.1,4.63-14.79,9.96-23.64,16.49c-11.48,8.47-23.22,18.97-34.44,26.15
		c-19.1,12.23-36.69,14.87-53.35,25.74c-21.25,13.86-40.99,41.12-54.1,64.5c-9.14,16.3-15.06,30.73-18.28,50.96
		c-3.44,21.65-3.79,49.95-4.52,66.02"/>
	
		<line style="fill:none;stroke:#000000;stroke-width:1.1978;stroke-linecap:round;stroke-linejoin:round;stroke-miterlimit:10;" x1="171.12" y1="810.12" x2="317.61" y2="810.12"/>
	<polygon style="fill-rule:evenodd;clip-rule:evenodd;" points="316.68,806.4 324.12,810.12 316.68,813.84 316.68,806.4 
		316.68,806.4 	"/>
	
		<line style="fill:none;stroke:#000000;stroke-width:1.1978;stroke-linecap:round;stroke-linejoin:round;stroke-miterlimit:10;" x1="171.12" y1="846.12" x2="314.19" y2="847.19"/>
	<polygon style="fill-rule:evenodd;clip-rule:evenodd;" points="313.28,843.46 320.7,847.24 313.23,850.9 313.28,843.46 
		313.28,843.46 	"/>
	
		<line style="fill:none;stroke:#000000;stroke-width:1.1978;stroke-linecap:round;stroke-linejoin:round;stroke-miterlimit:10;" x1="171.12" y1="882.12" x2="305.84" y2="881.24"/>
	<polygon style="fill-rule:evenodd;clip-rule:evenodd;" points="304.89,877.53 312.35,881.2 304.94,884.97 304.89,877.53 
		304.89,877.53 	"/>
	
		<line style="fill:none;stroke:#000000;stroke-width:1.1978;stroke-linecap:round;stroke-linejoin:round;stroke-miterlimit:10;" x1="171.12" y1="918.12" x2="281.21" y2="918.73"/>
	<polygon style="fill-rule:evenodd;clip-rule:evenodd;" points="280.3,915 287.72,918.76 280.25,922.44 280.3,915 280.3,915 	"/>
	
		<line style="fill:none;stroke:#000000;stroke-width:1.1978;stroke-linecap:round;stroke-linejoin:round;stroke-miterlimit:10;" x1="171.12" y1="954.12" x2="247.35" y2="952.97"/>
	<polygon style="fill-rule:evenodd;clip-rule:evenodd;" points="246.36,949.26 253.86,952.87 246.47,956.7 246.36,949.26 
		246.36,949.26 	"/>
	
		<line style="fill:none;stroke:#000000;stroke-width:1.1978;stroke-linecap:round;stroke-linejoin:round;stroke-miterlimit:10;" x1="171.12" y1="990.12" x2="199.34" y2="988.78"/>
	<polygon style="fill-rule:evenodd;clip-rule:evenodd;" points="198.23,985.1 205.84,988.47 198.59,992.54 198.23,985.1 
		198.23,985.1 	"/>
	
		<line style="fill:none;stroke:#000000;stroke-width:1.1978;stroke-linecap:round;stroke-linejoin:round;stroke-miterlimit:10;" x1="171.12" y1="1044.12" x2="123.92" y2="1043.18"/>
	<polygon style="fill-rule:evenodd;clip-rule:evenodd;" points="124.77,1046.92 117.41,1043.05 124.92,1039.48 124.77,1046.92 
		124.77,1046.92 	"/>
	
		<line style="fill:none;stroke:#000000;stroke-width:1.1978;stroke-linecap:round;stroke-linejoin:round;stroke-miterlimit:10;" x1="171.12" y1="1080.12" x2="97.12" y2="1079.63"/>
	<polygon style="fill-rule:evenodd;clip-rule:evenodd;" points="98.03,1083.36 90.61,1079.59 98.08,1075.92 98.03,1083.36 
		98.03,1083.36 	"/>
	
		<line style="fill:none;stroke:#000000;stroke-width:1.1978;stroke-linecap:round;stroke-linejoin:round;stroke-miterlimit:10;" x1="171.12" y1="1116.12" x2="79.43" y2="1116.34"/>
	<polygon style="fill-rule:evenodd;clip-rule:evenodd;" points="80.37,1120.06 72.92,1116.36 80.35,1112.62 80.37,1120.06 
		80.37,1120.06 	"/>
	
		<line style="fill:none;stroke:#000000;stroke-width:1.1978;stroke-linecap:round;stroke-linejoin:round;stroke-miterlimit:10;" x1="171.13" y1="1153.79" x2="72.51" y2="1153.31"/>
	<polygon style="fill-rule:evenodd;clip-rule:evenodd;" points="73.42,1157.03 66,1153.28 73.46,1149.59 73.42,1157.03 
		73.42,1157.03 	"/>
	
		<line style="fill:none;stroke:#000000;stroke-width:1.1978;stroke-linecap:round;stroke-linejoin:round;stroke-miterlimit:10;" x1="171.12" y1="1184.93" x2="70.08" y2="1185.06"/>
	<polygon style="fill-rule:evenodd;clip-rule:evenodd;" points="71.02,1188.77 63.57,1185.06 71.01,1181.33 71.02,1188.77 
		71.02,1188.77 	"/>
	<g>
		<path d="M97.06,1266.41v-17.18h2.33l9.02,13.49v-13.49h2.18v17.18h-2.33l-9.02-13.5v13.5H97.06z"/>
		<path d="M122.67,1262.4l2.18,0.27c-0.34,1.27-0.98,2.26-1.91,2.96s-2.12,1.05-3.56,1.05c-1.82,0-3.26-0.56-4.33-1.68
			s-1.6-2.69-1.6-4.72c0-2.09,0.54-3.72,1.62-4.88s2.48-1.73,4.2-1.73c1.66,0,3.02,0.57,4.08,1.7s1.58,2.73,1.58,4.78
			c0,0.13,0,0.31-0.01,0.56h-9.28c0.08,1.37,0.46,2.41,1.16,3.14s1.56,1.09,2.6,1.09c0.77,0,1.43-0.2,1.98-0.61
			S122.35,1263.29,122.67,1262.4z M115.74,1258.99h6.95c-0.09-1.05-0.36-1.83-0.8-2.36c-0.67-0.81-1.54-1.22-2.61-1.22
			c-0.97,0-1.78,0.32-2.44,0.97S115.81,1257.91,115.74,1258.99z"/>
		<path d="M135.65,1266.41v-1.83c-0.97,1.41-2.29,2.11-3.95,2.11c-0.73,0-1.42-0.14-2.06-0.42s-1.11-0.63-1.42-1.06
			s-0.53-0.95-0.65-1.56c-0.09-0.41-0.13-1.07-0.13-1.97v-7.71h2.11v6.9c0,1.1,0.04,1.84,0.13,2.23c0.13,0.55,0.41,0.99,0.84,1.31
			s0.96,0.47,1.59,0.47s1.23-0.16,1.78-0.49s0.95-0.77,1.18-1.32s0.35-1.37,0.35-2.43v-6.67h2.11v12.45H135.65z"/>
		<path d="M145.45,1264.53l0.3,1.86c-0.59,0.13-1.13,0.19-1.59,0.19c-0.77,0-1.36-0.12-1.78-0.36s-0.72-0.56-0.89-0.96
			s-0.26-1.22-0.26-2.49v-7.16h-1.55v-1.64h1.55v-3.08l2.1-1.27v4.35h2.12v1.64h-2.12v7.28c0,0.6,0.04,0.99,0.11,1.16
			s0.2,0.31,0.36,0.41s0.41,0.15,0.72,0.15C144.76,1264.61,145.07,1264.58,145.45,1264.53z"/>
		<path d="M147.49,1266.41v-12.45h1.9v1.89c0.48-0.88,0.93-1.46,1.34-1.75s0.86-0.42,1.35-0.42c0.71,0,1.43,0.23,2.17,0.68
			l-0.73,1.96c-0.52-0.3-1.03-0.46-1.55-0.46c-0.46,0-0.88,0.14-1.24,0.42s-0.63,0.66-0.79,1.15c-0.23,0.75-0.35,1.57-0.35,2.46
			v6.52H147.49z"/>
		<path d="M163.63,1264.88c-0.78,0.66-1.53,1.13-2.26,1.41s-1.5,0.41-2.33,0.41c-1.37,0-2.42-0.33-3.15-1s-1.1-1.52-1.1-2.56
			c0-0.61,0.14-1.17,0.42-1.67s0.64-0.91,1.09-1.21s0.96-0.54,1.52-0.69c0.41-0.11,1.04-0.21,1.88-0.32c1.7-0.2,2.96-0.45,3.76-0.73
			c0.01-0.29,0.01-0.47,0.01-0.55c0-0.86-0.2-1.46-0.6-1.82c-0.54-0.48-1.34-0.71-2.4-0.71c-0.99,0-1.72,0.17-2.2,0.52
			s-0.82,0.96-1.05,1.85l-2.06-0.28c0.19-0.88,0.5-1.6,0.93-2.14s1.05-0.96,1.86-1.25s1.75-0.44,2.82-0.44
			c1.06,0,1.93,0.13,2.59,0.38s1.15,0.56,1.46,0.94s0.53,0.86,0.66,1.44c0.07,0.36,0.11,1.01,0.11,1.95v2.81
			c0,1.96,0.04,3.2,0.13,3.72s0.27,1.02,0.53,1.49h-2.2C163.83,1265.97,163.69,1265.46,163.63,1264.88z M163.45,1260.17
			c-0.77,0.31-1.91,0.58-3.45,0.8c-0.87,0.13-1.48,0.27-1.84,0.42s-0.64,0.38-0.83,0.69s-0.29,0.63-0.29,1
			c0,0.56,0.21,1.03,0.64,1.41s1.05,0.56,1.87,0.56c0.81,0,1.54-0.18,2.17-0.53s1.1-0.84,1.39-1.46c0.23-0.48,0.34-1.18,0.34-2.11
			V1260.17z"/>
		<path d="M168.8,1266.41v-17.18h2.11v17.18H168.8z"/>
		<path d="M180.85,1271.18v-17.21h1.92v1.62c0.45-0.63,0.96-1.11,1.54-1.42s1.26-0.47,2.07-0.47c1.06,0,2,0.27,2.81,0.82
			s1.43,1.32,1.84,2.31s0.62,2.09,0.62,3.28c0,1.27-0.23,2.42-0.69,3.44s-1.12,1.8-1.99,2.34s-1.79,0.81-2.75,0.81
			c-0.7,0-1.33-0.15-1.89-0.45s-1.02-0.67-1.38-1.13v6.06H180.85z M182.76,1260.26c0,1.6,0.32,2.79,0.97,3.55s1.43,1.15,2.36,1.15
			c0.94,0,1.74-0.4,2.41-1.19s1-2.02,1-3.69c0-1.59-0.33-2.77-0.98-3.56s-1.43-1.18-2.34-1.18c-0.9,0-1.69,0.42-2.38,1.26
			S182.76,1258.66,182.76,1260.26z"/>
		<path d="M194.15,1266.41v-17.18h2.11v17.18H194.15z"/>
		<path d="M207.65,1264.88c-0.78,0.66-1.53,1.13-2.26,1.41s-1.5,0.41-2.33,0.41c-1.37,0-2.42-0.33-3.15-1s-1.1-1.52-1.1-2.56
			c0-0.61,0.14-1.17,0.42-1.67s0.64-0.91,1.09-1.21s0.96-0.54,1.52-0.69c0.41-0.11,1.04-0.21,1.88-0.32c1.7-0.2,2.96-0.45,3.76-0.73
			c0.01-0.29,0.01-0.47,0.01-0.55c0-0.86-0.2-1.46-0.6-1.82c-0.54-0.48-1.34-0.71-2.4-0.71c-0.99,0-1.72,0.17-2.2,0.52
			s-0.82,0.96-1.05,1.85l-2.06-0.28c0.19-0.88,0.5-1.6,0.93-2.14s1.05-0.96,1.86-1.25s1.75-0.44,2.82-0.44
			c1.06,0,1.93,0.13,2.59,0.38s1.15,0.56,1.46,0.94s0.53,0.86,0.66,1.44c0.07,0.36,0.11,1.01,0.11,1.95v2.81
			c0,1.96,0.04,3.2,0.13,3.72s0.27,1.02,0.53,1.49h-2.2C207.86,1265.97,207.71,1265.46,207.65,1264.88z M207.48,1260.17
			c-0.77,0.31-1.91,0.58-3.45,0.8c-0.87,0.13-1.48,0.27-1.84,0.42s-0.64,0.38-0.83,0.69s-0.29,0.63-0.29,1
			c0,0.56,0.21,1.03,0.64,1.41s1.05,0.56,1.87,0.56c0.81,0,1.54-0.18,2.17-0.53s1.1-0.84,1.39-1.46c0.23-0.48,0.34-1.18,0.34-2.11
			V1260.17z"/>
		<path d="M212.88,1266.41v-12.45h1.9v1.77c0.91-1.37,2.23-2.05,3.96-2.05c0.75,0,1.44,0.13,2.07,0.4s1.1,0.62,1.41,1.06
			s0.53,0.96,0.66,1.56c0.08,0.39,0.12,1.07,0.12,2.05v7.65h-2.11v-7.57c0-0.86-0.08-1.5-0.25-1.93s-0.46-0.77-0.87-1.02
			s-0.91-0.38-1.47-0.38c-0.9,0-1.67,0.29-2.33,0.86s-0.98,1.65-0.98,3.25v6.8H212.88z"/>
		<path d="M234.75,1262.4l2.18,0.27c-0.34,1.27-0.98,2.26-1.91,2.96s-2.12,1.05-3.56,1.05c-1.82,0-3.26-0.56-4.33-1.68
			s-1.6-2.69-1.6-4.72c0-2.09,0.54-3.72,1.62-4.88s2.48-1.73,4.2-1.73c1.66,0,3.02,0.57,4.08,1.7s1.58,2.73,1.58,4.78
			c0,0.13,0,0.31-0.01,0.56h-9.28c0.08,1.37,0.46,2.41,1.16,3.14s1.56,1.09,2.6,1.09c0.77,0,1.43-0.2,1.98-0.61
			S234.43,1263.29,234.75,1262.4z M227.82,1258.99h6.95c-0.09-1.05-0.36-1.83-0.8-2.36c-0.67-0.81-1.54-1.22-2.61-1.22
			c-0.97,0-1.78,0.32-2.44,0.97S227.89,1257.91,227.82,1258.99z"/>
	</g>
	<g>
		<path d="M91.12,1295.22l-3.81-12.45h2.18l1.98,7.18l0.74,2.67c0.03-0.13,0.25-0.99,0.64-2.57l1.98-7.29H97l1.86,7.22l0.62,2.38
			l0.71-2.4l2.13-7.2h2.05l-3.89,12.45H98.3l-1.98-7.45l-0.48-2.12l-2.52,9.57H91.12z"/>
		<path d="M106.17,1280.47v-2.43h2.11v2.43H106.17z M106.17,1295.22v-12.45h2.11v12.45H106.17z"/>
		<path d="M116.09,1293.34l0.3,1.86c-0.59,0.13-1.13,0.19-1.59,0.19c-0.77,0-1.36-0.12-1.78-0.36s-0.72-0.56-0.89-0.96
			s-0.26-1.22-0.26-2.49v-7.16h-1.55v-1.64h1.55v-3.08l2.1-1.27v4.35h2.12v1.64h-2.12v7.28c0,0.6,0.04,0.99,0.11,1.16
			s0.2,0.31,0.36,0.41s0.41,0.15,0.72,0.15C115.4,1293.42,115.71,1293.39,116.09,1293.34z"/>
		<path d="M118.16,1295.22v-17.18h2.11v6.16c0.98-1.14,2.23-1.71,3.73-1.71c0.92,0,1.72,0.18,2.4,0.54s1.17,0.87,1.46,1.51
			s0.44,1.57,0.44,2.79v7.89h-2.11v-7.89c0-1.05-0.23-1.82-0.69-2.3s-1.1-0.72-1.94-0.72c-0.63,0-1.21,0.16-1.76,0.49
			s-0.94,0.76-1.18,1.32s-0.35,1.32-0.35,2.3v6.81H118.16z"/>
		<path d="M131.52,1280.47v-2.43h2.11v2.43H131.52z M131.52,1295.22v-12.45h2.11v12.45H131.52z"/>
		<path d="M136.84,1295.22v-12.45h1.9v1.77c0.91-1.37,2.23-2.05,3.96-2.05c0.75,0,1.44,0.13,2.07,0.4s1.1,0.62,1.41,1.06
			s0.53,0.96,0.66,1.56c0.08,0.39,0.12,1.07,0.12,2.05v7.65h-2.11v-7.57c0-0.86-0.08-1.5-0.25-1.93s-0.46-0.77-0.87-1.02
			s-0.91-0.38-1.47-0.38c-0.9,0-1.67,0.29-2.33,0.86s-0.98,1.65-0.98,3.25v6.8H136.84z"/>
		<path d="M164.93,1295.22v-1.57c-0.79,1.23-1.95,1.85-3.48,1.85c-0.99,0-1.9-0.27-2.74-0.82s-1.48-1.31-1.93-2.29
			s-0.69-2.11-0.69-3.38c0-1.24,0.21-2.37,0.62-3.38s1.04-1.79,1.86-2.33s1.75-0.81,2.78-0.81c0.75,0,1.42,0.16,2,0.47
			s1.06,0.73,1.43,1.24v-6.16h2.1v17.18H164.93z M158.26,1289.01c0,1.59,0.34,2.79,1.01,3.57s1.46,1.18,2.38,1.18
			c0.92,0,1.71-0.38,2.35-1.13s0.97-1.9,0.97-3.45c0-1.7-0.33-2.95-0.98-3.75s-1.46-1.2-2.43-1.2c-0.94,0-1.72,0.38-2.35,1.15
			S158.26,1287.37,158.26,1289.01z"/>
		<path d="M169.41,1289c0-2.3,0.64-4.01,1.92-5.12c1.07-0.92,2.38-1.38,3.91-1.38c1.71,0,3.11,0.56,4.2,1.68s1.63,2.67,1.63,4.65
			c0,1.6-0.24,2.86-0.72,3.78s-1.18,1.63-2.1,2.14s-1.92,0.76-3.01,0.76c-1.74,0-3.15-0.56-4.22-1.68S169.41,1291.1,169.41,1289z
			 M171.58,1289c0,1.59,0.35,2.79,1.04,3.58s1.57,1.19,2.63,1.19c1.05,0,1.92-0.4,2.61-1.2s1.04-2.01,1.04-3.64
			c0-1.54-0.35-2.71-1.05-3.5s-1.57-1.19-2.61-1.19c-1.05,0-1.93,0.39-2.63,1.18S171.58,1287.41,171.58,1289z"/>
		<path d="M182.76,1289c0-2.3,0.64-4.01,1.92-5.12c1.07-0.92,2.38-1.38,3.91-1.38c1.71,0,3.11,0.56,4.2,1.68s1.63,2.67,1.63,4.65
			c0,1.6-0.24,2.86-0.72,3.78s-1.18,1.63-2.1,2.14s-1.92,0.76-3.01,0.76c-1.74,0-3.15-0.56-4.22-1.68S182.76,1291.1,182.76,1289z
			 M184.93,1289c0,1.59,0.35,2.79,1.04,3.58s1.57,1.19,2.63,1.19c1.05,0,1.92-0.4,2.61-1.2s1.04-2.01,1.04-3.64
			c0-1.54-0.35-2.71-1.05-3.5s-1.57-1.19-2.61-1.19c-1.05,0-1.93,0.39-2.63,1.18S184.93,1287.41,184.93,1289z"/>
		<path d="M196.87,1295.22v-12.45h1.9v1.89c0.48-0.88,0.93-1.46,1.34-1.75s0.86-0.42,1.35-0.42c0.71,0,1.43,0.23,2.17,0.68
			l-0.73,1.96c-0.52-0.3-1.03-0.46-1.55-0.46c-0.46,0-0.88,0.14-1.24,0.42s-0.63,0.66-0.79,1.15c-0.23,0.75-0.35,1.57-0.35,2.46
			v6.52H196.87z"/>
		<path d="M207.18,1295.22l-3.81-12.45h2.18l1.98,7.18l0.74,2.67c0.03-0.13,0.25-0.99,0.64-2.57l1.98-7.29h2.17l1.86,7.22l0.62,2.38
			l0.71-2.4l2.13-7.2h2.05l-3.89,12.45h-2.19l-1.98-7.45l-0.48-2.12l-2.52,9.57H207.18z"/>
		<path d="M230.34,1293.69c-0.78,0.66-1.53,1.13-2.26,1.41s-1.5,0.41-2.33,0.41c-1.37,0-2.42-0.33-3.15-1s-1.1-1.52-1.1-2.56
			c0-0.61,0.14-1.17,0.42-1.67s0.64-0.91,1.09-1.21s0.96-0.54,1.52-0.69c0.41-0.11,1.04-0.21,1.88-0.32c1.7-0.2,2.96-0.45,3.76-0.73
			c0.01-0.29,0.01-0.47,0.01-0.55c0-0.86-0.2-1.46-0.6-1.82c-0.54-0.48-1.34-0.71-2.4-0.71c-0.99,0-1.72,0.17-2.2,0.52
			s-0.82,0.96-1.05,1.85l-2.06-0.28c0.19-0.88,0.5-1.6,0.93-2.14s1.05-0.96,1.86-1.25s1.75-0.44,2.82-0.44
			c1.06,0,1.93,0.13,2.59,0.38s1.15,0.56,1.46,0.94s0.53,0.86,0.66,1.44c0.07,0.36,0.11,1.01,0.11,1.95v2.81
			c0,1.96,0.04,3.2,0.13,3.72s0.27,1.02,0.53,1.49h-2.2C230.54,1294.79,230.4,1294.28,230.34,1293.69z M230.16,1288.98
			c-0.77,0.31-1.91,0.58-3.45,0.8c-0.87,0.13-1.48,0.27-1.84,0.42s-0.64,0.38-0.83,0.69s-0.29,0.63-0.29,1
			c0,0.56,0.21,1.03,0.64,1.41s1.05,0.56,1.87,0.56c0.81,0,1.54-0.18,2.17-0.53s1.1-0.84,1.39-1.46c0.23-0.48,0.34-1.18,0.34-2.11
			V1288.98z"/>
		<path d="M235.47,1300.02l-0.23-1.98c0.46,0.13,0.86,0.19,1.21,0.19c0.47,0,0.84-0.08,1.13-0.23s0.51-0.38,0.69-0.66
			c0.13-0.21,0.35-0.73,0.64-1.57c0.04-0.12,0.1-0.29,0.19-0.52l-4.72-12.47h2.27l2.59,7.21c0.34,0.91,0.64,1.88,0.9,2.88
			c0.24-0.97,0.53-1.91,0.87-2.84l2.66-7.25h2.11l-4.73,12.66c-0.51,1.37-0.9,2.31-1.18,2.82c-0.38,0.7-0.8,1.21-1.29,1.53
			s-1.06,0.49-1.73,0.49C236.43,1300.28,235.97,1300.19,235.47,1300.02z"/>
	</g>
	<polygon style="fill-rule:evenodd;clip-rule:evenodd;fill:#B3B3B3;" points="688.62,670.62 697.62,670.62 697.62,1210.62 
		688.62,1210.62 688.62,670.62 	"/>
	<path style="fill:none;stroke:#000000;stroke-width:0.2396;stroke-linecap:round;stroke-linejoin:round;stroke-miterlimit:10;" d="
		M693.12,670.62h4.5v540h-4.5 M693.12,670.62h-4.5v540h4.5"/>
	<polygon style="fill-rule:evenodd;clip-rule:evenodd;fill:#B3B3B3;" points="526.62,1204.62 913.62,1204.62 913.62,1210.62 
		526.62,1210.62 526.62,1204.62 	"/>
	<path style="fill:none;stroke:#000000;stroke-width:0.2396;stroke-linecap:round;stroke-linejoin:round;stroke-miterlimit:10;" d="
		M526.62,1207.62v-3h387v3 M526.62,1207.62v3h387v-3"/>
	
		<line style="fill:none;stroke:#000000;stroke-width:2.1561;stroke-linecap:round;stroke-linejoin:round;stroke-miterlimit:10;" x1="697.62" y1="1206.12" x2="697.62" y2="809.36"/>
	<polygon style="fill-rule:evenodd;clip-rule:evenodd;" points="692.94,810.3 697.62,805.62 702.3,810.3 692.94,810.3 692.94,810.3 
			"/>
	
		<line style="fill:none;stroke:#000000;stroke-width:0.7187;stroke-linecap:round;stroke-linejoin:round;stroke-miterlimit:10;" x1="697.62" y1="805.62" x2="697.62" y2="833.56"/>
	
		<line style="fill:none;stroke:#000000;stroke-width:1.1978;stroke-linecap:round;stroke-linejoin:round;stroke-miterlimit:10;" x1="697.62" y1="810.12" x2="844.11" y2="810.12"/>
	<polygon style="fill-rule:evenodd;clip-rule:evenodd;" points="843.18,806.4 850.62,810.12 843.18,813.84 843.18,806.4 
		843.18,806.4 	"/>
	
		<line style="fill:none;stroke:#000000;stroke-width:1.1978;stroke-linecap:round;stroke-linejoin:round;stroke-miterlimit:10;" x1="697.62" y1="882.12" x2="836.89" y2="884.01"/>
	<polygon style="fill-rule:evenodd;clip-rule:evenodd;" points="836.01,880.28 843.4,884.1 835.91,887.72 836.01,880.28 
		836.01,880.28 	"/>
	
		<line style="fill:none;stroke:#000000;stroke-width:1.1978;stroke-linecap:round;stroke-linejoin:round;stroke-miterlimit:10;" x1="697.62" y1="918.12" x2="833.2" y2="919.91"/>
	<polygon style="fill-rule:evenodd;clip-rule:evenodd;" points="832.32,916.18 839.71,920 832.22,923.62 832.32,916.18 
		832.32,916.18 	"/>
	
		<line style="fill:none;stroke:#000000;stroke-width:1.1978;stroke-linecap:round;stroke-linejoin:round;stroke-miterlimit:10;" x1="697.62" y1="954.12" x2="829.22" y2="955.29"/>
	<polygon style="fill-rule:evenodd;clip-rule:evenodd;" points="828.33,951.56 835.73,955.35 828.26,959 828.33,951.56 
		828.33,951.56 	"/>
	
		<line style="fill:none;stroke:#000000;stroke-width:1.1978;stroke-linecap:round;stroke-linejoin:round;stroke-miterlimit:10;" x1="697.62" y1="990.12" x2="823.87" y2="990.11"/>
	<polygon style="fill-rule:evenodd;clip-rule:evenodd;" points="822.94,986.39 830.38,990.11 822.94,993.83 822.94,986.39 
		822.94,986.39 	"/>
	
		<line style="fill:none;stroke:#000000;stroke-width:1.1978;stroke-linecap:round;stroke-linejoin:round;stroke-miterlimit:10;" x1="697.62" y1="1030.62" x2="813.53" y2="1029.42"/>
	<polygon style="fill-rule:evenodd;clip-rule:evenodd;" points="812.56,1025.71 820.04,1029.36 812.64,1033.15 812.56,1025.71 
		812.56,1025.71 	"/>
	
		<line style="fill:none;stroke:#000000;stroke-width:1.1978;stroke-linecap:round;stroke-linejoin:round;stroke-miterlimit:10;" x1="697.62" y1="1066.62" x2="801.19" y2="1065.5"/>
	<polygon style="fill-rule:evenodd;clip-rule:evenodd;" points="800.22,1061.79 807.7,1065.43 800.3,1069.23 800.22,1061.79 
		800.22,1061.79 	"/>
	
		<line style="fill:none;stroke:#000000;stroke-width:1.1978;stroke-linecap:round;stroke-linejoin:round;stroke-miterlimit:10;" x1="697.63" y1="1141.45" x2="765.81" y2="1141.32"/>
	<polygon style="fill-rule:evenodd;clip-rule:evenodd;" points="764.87,1137.6 772.32,1141.3 764.89,1145.04 764.87,1137.6 
		764.87,1137.6 	"/>
	
		<line style="fill:none;stroke:#000000;stroke-width:1.1978;stroke-linecap:round;stroke-linejoin:round;stroke-miterlimit:10;" x1="697.49" y1="1174.43" x2="744.27" y2="1176.26"/>
	<polygon style="fill-rule:evenodd;clip-rule:evenodd;" points="743.49,1172.51 750.78,1176.52 743.2,1179.95 743.49,1172.51 
		743.49,1172.51 	"/>
	
		<line style="fill:none;stroke:#000000;stroke-width:1.1978;stroke-linecap:round;stroke-linejoin:round;stroke-miterlimit:10;" x1="697.62" y1="1102.62" x2="785.32" y2="1103.19"/>
	<polygon style="fill-rule:evenodd;clip-rule:evenodd;" points="784.41,1099.46 791.83,1103.23 784.37,1106.9 784.41,1099.46 
		784.41,1099.46 	"/>
	<path style="fill:none;stroke:#000000;stroke-width:0.7187;stroke-linecap:round;stroke-linejoin:round;stroke-miterlimit:10;" d="
		M850.62,810.12c-3.86,39.75-9.56,99.88-14.03,138.09c-3.58,30.67-6.37,47.23-14.56,74.63c-7.57,25.32-19.74,59.89-33.42,86.95
		c-19.7,38.99-42.51,62.39-50.49,94.83"/>
	
		<line style="fill:none;stroke:#000000;stroke-width:1.1978;stroke-linecap:round;stroke-linejoin:round;stroke-miterlimit:10;" x1="697.62" y1="849.49" x2="840.19" y2="850.52"/>
	<polygon style="fill-rule:evenodd;clip-rule:evenodd;" points="839.29,846.79 846.7,850.56 839.24,854.23 839.29,846.79 
		839.29,846.79 	"/>
	<polygon style="fill-rule:evenodd;clip-rule:evenodd;fill:#FFFFFF;" points="688.48,802.62 697.76,802.62 697.76,1209.12 
		688.48,1209.12 688.48,802.62 	"/>
	
		<polygon style="fill:none;stroke:#FFFFFF;stroke-width:0.2396;stroke-linecap:round;stroke-linejoin:round;stroke-miterlimit:10;" points="
		697.76,1209.12 697.76,802.62 688.48,802.62 688.48,1209.12 697.76,1209.12 697.76,1209.12 	"/>
	<path style="fill-rule:evenodd;clip-rule:evenodd;fill:#FFFFFF;" d="M697.62,802.62h-9v3h9V802.62L697.62,802.62L697.62,802.62z
		 M697.62,1209.12h-9v-3h9V1209.12L697.62,1209.12L697.62,1209.12z"/>
	<path style="fill:none;stroke:#000000;stroke-width:0.2396;stroke-linecap:round;stroke-linejoin:round;stroke-miterlimit:10;" d="
		M697.62,802.62h-9v3h9V802.62L697.62,802.62L697.62,802.62z M697.62,1209.12h-9v-3h9V1209.12L697.62,1209.12L697.62,1209.12z"/>
	<path style="fill:none;stroke:#000000;stroke-width:0.2396;stroke-linecap:round;stroke-linejoin:round;stroke-miterlimit:10;" d="
		M697.62,802.62h-9 M697.62,1209.12h-9"/>
	<polygon style="fill-rule:evenodd;clip-rule:evenodd;fill:#B3B3B3;" points="1233.12,670.62 1242.12,670.62 1242.12,1210.62 
		1233.12,1210.62 1233.12,670.62 	"/>
	<path style="fill:none;stroke:#000000;stroke-width:0.2396;stroke-linecap:round;stroke-linejoin:round;stroke-miterlimit:10;" d="
		M1237.62,670.62h4.5v540h-4.5 M1237.62,670.62h-4.5v540h4.5"/>
	
		<line style="fill:none;stroke:#000000;stroke-width:2.1561;stroke-linecap:round;stroke-linejoin:round;stroke-miterlimit:10;" x1="1242.12" y1="1206.12" x2="1242.12" y2="809.36"/>
	<polygon style="fill-rule:evenodd;clip-rule:evenodd;" points="1237.44,810.3 1242.12,805.62 1246.8,810.3 1237.44,810.3 
		1237.44,810.3 	"/>
	
		<line style="fill:none;stroke:#000000;stroke-width:0.7187;stroke-linecap:round;stroke-linejoin:round;stroke-miterlimit:10;" x1="1242.12" y1="805.62" x2="1242.12" y2="833.56"/>
	
		<line style="fill:none;stroke:#000000;stroke-width:1.1978;stroke-linecap:round;stroke-linejoin:round;stroke-miterlimit:10;" x1="1242.12" y1="810.12" x2="1100.13" y2="810.12"/>
	<polygon style="fill-rule:evenodd;clip-rule:evenodd;" points="1101.06,813.84 1093.62,810.12 1101.06,806.4 1101.06,813.84 
		1101.06,813.84 	"/>
	
		<line style="fill:none;stroke:#000000;stroke-width:1.1978;stroke-linecap:round;stroke-linejoin:round;stroke-miterlimit:10;" x1="1242.12" y1="1134.12" x2="1181.97" y2="1134.28"/>
	<polygon style="fill-rule:evenodd;clip-rule:evenodd;" points="1182.91,1138 1175.46,1134.3 1182.89,1130.56 1182.91,1138 
		1182.91,1138 	"/>
	
		<line style="fill:none;stroke:#000000;stroke-width:1.1978;stroke-linecap:round;stroke-linejoin:round;stroke-miterlimit:10;" x1="1242.12" y1="1098.12" x2="1171.45" y2="1099.96"/>
	<polygon style="fill-rule:evenodd;clip-rule:evenodd;" points="1172.47,1103.65 1164.94,1100.13 1172.28,1096.22 1172.47,1103.65 
		1172.47,1103.65 	"/>
	
		<line style="fill:none;stroke:#000000;stroke-width:1.1978;stroke-linecap:round;stroke-linejoin:round;stroke-miterlimit:10;" x1="1242.12" y1="1062.12" x2="1162.17" y2="1061.08"/>
	<polygon style="fill-rule:evenodd;clip-rule:evenodd;" points="1163.05,1064.82 1155.66,1061 1163.15,1057.38 1163.05,1064.82 
		1163.05,1064.82 	"/>
	
		<line style="fill:none;stroke:#000000;stroke-width:1.1978;stroke-linecap:round;stroke-linejoin:round;stroke-miterlimit:10;" x1="1242.12" y1="1026.12" x2="1150.72" y2="1028.18"/>
	<polygon style="fill-rule:evenodd;clip-rule:evenodd;" points="1151.73,1031.88 1144.21,1028.33 1151.56,1024.44 1151.73,1031.88 
		1151.73,1031.88 	"/>
	
		<line style="fill:none;stroke:#000000;stroke-width:1.1978;stroke-linecap:round;stroke-linejoin:round;stroke-miterlimit:10;" x1="1242.12" y1="990.12" x2="1135.81" y2="988.57"/>
	<polygon style="fill-rule:evenodd;clip-rule:evenodd;" points="1136.68,992.3 1129.3,988.48 1136.79,984.87 1136.68,992.3 
		1136.68,992.3 	"/>
	
		<line style="fill:none;stroke:#000000;stroke-width:1.1978;stroke-linecap:round;stroke-linejoin:round;stroke-miterlimit:10;" x1="1242.12" y1="954.12" x2="1128.01" y2="954.12"/>
	<polygon style="fill-rule:evenodd;clip-rule:evenodd;" points="1128.94,957.84 1121.5,954.12 1128.94,950.4 1128.94,957.84 
		1128.94,957.84 	"/>
	
		<line style="fill:none;stroke:#000000;stroke-width:1.1978;stroke-linecap:round;stroke-linejoin:round;stroke-miterlimit:10;" x1="1242.13" y1="883.79" x2="1114.65" y2="883.22"/>
	<polygon style="fill-rule:evenodd;clip-rule:evenodd;" points="1115.56,886.94 1108.14,883.19 1115.59,879.5 1115.56,886.94 
		1115.56,886.94 	"/>
	
		<line style="fill:none;stroke:#000000;stroke-width:1.1978;stroke-linecap:round;stroke-linejoin:round;stroke-miterlimit:10;" x1="1242.11" y1="846.3" x2="1107.31" y2="846.61"/>
	<polygon style="fill-rule:evenodd;clip-rule:evenodd;" points="1108.25,850.33 1100.8,846.62 1108.23,842.89 1108.25,850.33 
		1108.25,850.33 	"/>
	
		<line style="fill:none;stroke:#000000;stroke-width:1.1978;stroke-linecap:round;stroke-linejoin:round;stroke-miterlimit:10;" x1="1242.12" y1="918.12" x2="1115.37" y2="918.05"/>
	<polygon style="fill-rule:evenodd;clip-rule:evenodd;" points="1116.3,921.78 1108.86,918.05 1116.3,914.33 1116.3,921.78 
		1116.3,921.78 	"/>
	
		<line style="fill:none;stroke:#000000;stroke-width:1.1978;stroke-linecap:round;stroke-linejoin:round;stroke-miterlimit:10;" x1="1242.12" y1="1170.12" x2="1203.31" y2="1170.75"/>
	<polygon style="fill-rule:evenodd;clip-rule:evenodd;" points="1204.3,1174.46 1196.8,1170.86 1204.18,1167.02 1204.3,1174.46 
		1204.3,1174.46 	"/>
	<polygon style="fill-rule:evenodd;clip-rule:evenodd;fill:#B3B3B3;" points="1071.12,1204.62 1458.12,1204.62 1458.12,1210.62 
		1071.12,1210.62 1071.12,1204.62 	"/>
	<path style="fill:none;stroke:#000000;stroke-width:0.2396;stroke-linecap:round;stroke-linejoin:round;stroke-miterlimit:10;" d="
		M1071.12,1207.62v-3h387v3 M1071.12,1207.62v3h387v-3"/>
	<path style="fill:none;stroke:#000000;stroke-width:0.7187;stroke-linecap:round;stroke-linejoin:round;stroke-miterlimit:10;" d="
		M1093.62,810.12c6.07,36.85,14.33,74.77,21.7,110.57c11.4,55.35,20.67,105.63,35.88,152.02c14.72,44.89,35,86.15,68.41,131.91"/>
	<polygon style="fill-rule:evenodd;clip-rule:evenodd;fill:#FFFFFF;" points="1232.98,802.62 1242.26,802.62 1242.26,1209.12 
		1232.98,1209.12 1232.98,802.62 	"/>
	
		<polygon style="fill:none;stroke:#FFFFFF;stroke-width:0.2396;stroke-linecap:round;stroke-linejoin:round;stroke-miterlimit:10;" points="
		1242.26,1209.12 1242.26,802.62 1232.98,802.62 1232.98,1209.12 1242.26,1209.12 1242.26,1209.12 	"/>
	<path style="fill-rule:evenodd;clip-rule:evenodd;fill:#FFFFFF;" d="M1242.12,802.62h-9v3h9V802.62L1242.12,802.62L1242.12,802.62z
		 M1242.12,1209.12h-9v-3h9V1209.12L1242.12,1209.12L1242.12,1209.12z"/>
	<path style="fill:none;stroke:#000000;stroke-width:0.2396;stroke-linecap:round;stroke-linejoin:round;stroke-miterlimit:10;" d="
		M1242.12,802.62h-9v3h9V802.62L1242.12,802.62L1242.12,802.62z M1242.12,1209.12h-9v-3h9V1209.12L1242.12,1209.12L1242.12,1209.12z
		"/>
	<path style="fill:none;stroke:#000000;stroke-width:0.2396;stroke-linecap:round;stroke-linejoin:round;stroke-miterlimit:10;" d="
		M1242.12,802.62h-9 M1242.12,1209.12h-9"/>
	<g>
		<path d="M632.57,1266.41v-17.18h2.33l9.02,13.49v-13.49h2.18v17.18h-2.33l-9.02-13.5v13.5H632.57z"/>
		<path d="M658.18,1262.4l2.18,0.27c-0.34,1.27-0.98,2.26-1.91,2.96s-2.12,1.05-3.56,1.05c-1.82,0-3.26-0.56-4.33-1.68
			s-1.6-2.69-1.6-4.72c0-2.09,0.54-3.72,1.62-4.88s2.48-1.73,4.2-1.73c1.66,0,3.02,0.57,4.08,1.7s1.58,2.73,1.58,4.78
			c0,0.13,0,0.31-0.01,0.56h-9.28c0.08,1.37,0.46,2.41,1.16,3.14s1.56,1.09,2.6,1.09c0.77,0,1.43-0.2,1.98-0.61
			S657.86,1263.29,658.18,1262.4z M651.25,1258.99h6.95c-0.09-1.05-0.36-1.83-0.8-2.36c-0.67-0.81-1.54-1.22-2.61-1.22
			c-0.97,0-1.78,0.32-2.44,0.97S651.32,1257.91,651.25,1258.99z"/>
		<path d="M671.16,1266.41v-1.83c-0.97,1.41-2.29,2.11-3.95,2.11c-0.73,0-1.42-0.14-2.06-0.42s-1.11-0.63-1.42-1.06
			s-0.53-0.95-0.65-1.56c-0.09-0.41-0.13-1.07-0.13-1.97v-7.71h2.11v6.9c0,1.1,0.04,1.84,0.13,2.23c0.13,0.55,0.41,0.99,0.84,1.31
			s0.96,0.47,1.59,0.47s1.23-0.16,1.78-0.49s0.95-0.77,1.18-1.32s0.35-1.37,0.35-2.43v-6.67h2.11v12.45H671.16z"/>
		<path d="M680.96,1264.53l0.3,1.86c-0.59,0.13-1.13,0.19-1.59,0.19c-0.77,0-1.36-0.12-1.78-0.36s-0.72-0.56-0.89-0.96
			s-0.26-1.22-0.26-2.49v-7.16h-1.55v-1.64h1.55v-3.08l2.1-1.27v4.35h2.12v1.64h-2.12v7.28c0,0.6,0.04,0.99,0.11,1.16
			s0.2,0.31,0.36,0.41s0.41,0.15,0.72,0.15C680.27,1264.61,680.57,1264.58,680.96,1264.53z"/>
		<path d="M683,1266.41v-12.45h1.9v1.89c0.48-0.88,0.93-1.46,1.34-1.75s0.86-0.42,1.35-0.42c0.71,0,1.43,0.23,2.17,0.68l-0.73,1.96
			c-0.52-0.3-1.03-0.46-1.55-0.46c-0.46,0-0.88,0.14-1.24,0.42s-0.63,0.66-0.79,1.15c-0.23,0.75-0.35,1.57-0.35,2.46v6.52H683z"/>
		<path d="M699.13,1264.88c-0.78,0.66-1.53,1.13-2.26,1.41s-1.5,0.41-2.33,0.41c-1.37,0-2.42-0.33-3.15-1s-1.1-1.52-1.1-2.56
			c0-0.61,0.14-1.17,0.42-1.67s0.64-0.91,1.09-1.21s0.96-0.54,1.52-0.69c0.41-0.11,1.04-0.21,1.88-0.32c1.7-0.2,2.96-0.45,3.76-0.73
			c0.01-0.29,0.01-0.47,0.01-0.55c0-0.86-0.2-1.46-0.6-1.82c-0.54-0.48-1.34-0.71-2.4-0.71c-0.99,0-1.72,0.17-2.2,0.52
			s-0.82,0.96-1.05,1.85l-2.06-0.28c0.19-0.88,0.5-1.6,0.93-2.14s1.05-0.96,1.86-1.25s1.75-0.44,2.82-0.44
			c1.06,0,1.93,0.13,2.59,0.38s1.15,0.56,1.46,0.94s0.53,0.86,0.66,1.44c0.07,0.36,0.11,1.01,0.11,1.95v2.81
			c0,1.96,0.04,3.2,0.13,3.72s0.27,1.02,0.53,1.49h-2.2C699.34,1265.97,699.2,1265.46,699.13,1264.88z M698.96,1260.17
			c-0.77,0.31-1.91,0.58-3.45,0.8c-0.87,0.13-1.48,0.27-1.84,0.42s-0.64,0.38-0.83,0.69s-0.29,0.63-0.29,1
			c0,0.56,0.21,1.03,0.64,1.41s1.05,0.56,1.87,0.56c0.81,0,1.54-0.18,2.17-0.53s1.1-0.84,1.39-1.46c0.23-0.48,0.34-1.18,0.34-2.11
			V1260.17z"/>
		<path d="M704.31,1266.41v-17.18h2.11v17.18H704.31z"/>
		<path d="M716.36,1271.18v-17.21h1.92v1.62c0.45-0.63,0.96-1.11,1.54-1.42s1.26-0.47,2.07-0.47c1.06,0,2,0.27,2.81,0.82
			s1.43,1.32,1.84,2.31s0.62,2.09,0.62,3.28c0,1.27-0.23,2.42-0.69,3.44s-1.12,1.8-1.99,2.34s-1.79,0.81-2.75,0.81
			c-0.7,0-1.33-0.15-1.89-0.45s-1.02-0.67-1.38-1.13v6.06H716.36z M718.27,1260.26c0,1.6,0.32,2.79,0.97,3.55s1.43,1.15,2.36,1.15
			c0.94,0,1.74-0.4,2.41-1.19s1-2.02,1-3.69c0-1.59-0.33-2.77-0.98-3.56s-1.43-1.18-2.34-1.18c-0.9,0-1.69,0.42-2.38,1.26
			S718.27,1258.66,718.27,1260.26z"/>
		<path d="M729.66,1266.41v-17.18h2.11v17.18H729.66z"/>
		<path d="M743.16,1264.88c-0.78,0.66-1.53,1.13-2.26,1.41s-1.5,0.41-2.33,0.41c-1.37,0-2.42-0.33-3.15-1s-1.1-1.52-1.1-2.56
			c0-0.61,0.14-1.17,0.42-1.67s0.64-0.91,1.09-1.21s0.96-0.54,1.52-0.69c0.41-0.11,1.04-0.21,1.88-0.32c1.7-0.2,2.96-0.45,3.76-0.73
			c0.01-0.29,0.01-0.47,0.01-0.55c0-0.86-0.2-1.46-0.6-1.82c-0.54-0.48-1.34-0.71-2.4-0.71c-0.99,0-1.72,0.17-2.2,0.52
			s-0.82,0.96-1.05,1.85l-2.06-0.28c0.19-0.88,0.5-1.6,0.93-2.14s1.05-0.96,1.86-1.25s1.75-0.44,2.82-0.44
			c1.06,0,1.93,0.13,2.59,0.38s1.15,0.56,1.46,0.94s0.53,0.86,0.66,1.44c0.07,0.36,0.11,1.01,0.11,1.95v2.81
			c0,1.96,0.04,3.2,0.13,3.72s0.27,1.02,0.53,1.49h-2.2C743.36,1265.97,743.22,1265.46,743.16,1264.88z M742.98,1260.17
			c-0.77,0.31-1.91,0.58-3.45,0.8c-0.87,0.13-1.48,0.27-1.84,0.42s-0.64,0.38-0.83,0.69s-0.29,0.63-0.29,1
			c0,0.56,0.21,1.03,0.64,1.41s1.05,0.56,1.87,0.56c0.81,0,1.54-0.18,2.17-0.53s1.1-0.84,1.39-1.46c0.23-0.48,0.34-1.18,0.34-2.11
			V1260.17z"/>
		<path d="M748.39,1266.41v-12.45h1.9v1.77c0.91-1.37,2.23-2.05,3.96-2.05c0.75,0,1.44,0.13,2.07,0.4s1.1,0.62,1.41,1.06
			s0.53,0.96,0.66,1.56c0.08,0.39,0.12,1.07,0.12,2.05v7.65h-2.11v-7.57c0-0.86-0.08-1.5-0.25-1.93s-0.46-0.77-0.87-1.02
			s-0.91-0.38-1.47-0.38c-0.9,0-1.67,0.29-2.33,0.86s-0.98,1.65-0.98,3.25v6.8H748.39z"/>
		<path d="M770.25,1262.4l2.18,0.27c-0.34,1.27-0.98,2.26-1.91,2.96s-2.12,1.05-3.56,1.05c-1.82,0-3.26-0.56-4.33-1.68
			s-1.6-2.69-1.6-4.72c0-2.09,0.54-3.72,1.62-4.88s2.48-1.73,4.2-1.73c1.66,0,3.02,0.57,4.08,1.7s1.58,2.73,1.58,4.78
			c0,0.13,0,0.31-0.01,0.56h-9.28c0.08,1.37,0.46,2.41,1.16,3.14s1.56,1.09,2.6,1.09c0.77,0,1.43-0.2,1.98-0.61
			S769.93,1263.29,770.25,1262.4z M763.33,1258.99h6.95c-0.09-1.05-0.36-1.83-0.8-2.36c-0.67-0.81-1.54-1.22-2.61-1.22
			c-0.97,0-1.78,0.32-2.44,0.97S763.4,1257.91,763.33,1258.99z"/>
	</g>
	<g>
		<path d="M625.6,1295.22h-1.96v-17.18h2.11v6.13c0.89-1.12,2.03-1.68,3.41-1.68c0.77,0,1.49,0.15,2.17,0.46s1.25,0.74,1.69,1.3
			s0.79,1.23,1.04,2.02s0.38,1.63,0.38,2.53c0,2.13-0.53,3.78-1.58,4.95s-2.32,1.75-3.8,1.75c-1.47,0-2.62-0.61-3.46-1.84V1295.22z
			 M625.57,1288.91c0,1.49,0.2,2.57,0.61,3.23c0.66,1.09,1.56,1.63,2.7,1.63c0.92,0,1.72-0.4,2.39-1.2s1.01-1.99,1.01-3.58
			c0-1.63-0.32-2.82-0.97-3.6s-1.42-1.16-2.34-1.16c-0.92,0-1.72,0.4-2.39,1.2S625.57,1287.39,625.57,1288.91z"/>
		<path d="M645.52,1291.22l2.18,0.27c-0.34,1.27-0.98,2.26-1.91,2.96s-2.12,1.05-3.56,1.05c-1.82,0-3.26-0.56-4.33-1.68
			s-1.6-2.69-1.6-4.72c0-2.09,0.54-3.72,1.62-4.88s2.48-1.73,4.2-1.73c1.66,0,3.02,0.57,4.08,1.7s1.58,2.73,1.58,4.78
			c0,0.13,0,0.31-0.01,0.56h-9.28c0.08,1.37,0.46,2.41,1.16,3.14s1.56,1.09,2.6,1.09c0.77,0,1.43-0.2,1.98-0.61
			S645.2,1292.11,645.52,1291.22z M638.59,1287.81h6.95c-0.09-1.05-0.36-1.83-0.8-2.36c-0.67-0.81-1.54-1.22-2.61-1.22
			c-0.97,0-1.78,0.32-2.44,0.97S638.66,1286.72,638.59,1287.81z"/>
		<path d="M650.3,1295.22v-17.18h2.11v17.18H650.3z"/>
		<path d="M654.89,1289c0-2.3,0.64-4.01,1.92-5.12c1.07-0.92,2.38-1.38,3.91-1.38c1.71,0,3.11,0.56,4.2,1.68s1.63,2.67,1.63,4.65
			c0,1.6-0.24,2.86-0.72,3.78s-1.18,1.63-2.1,2.14s-1.92,0.76-3.01,0.76c-1.74,0-3.15-0.56-4.22-1.68S654.89,1291.1,654.89,1289z
			 M657.06,1289c0,1.59,0.35,2.79,1.04,3.58s1.57,1.19,2.63,1.19c1.05,0,1.92-0.4,2.61-1.2s1.04-2.01,1.04-3.64
			c0-1.54-0.35-2.71-1.05-3.5s-1.57-1.19-2.61-1.19c-1.05,0-1.93,0.39-2.63,1.18S657.06,1287.41,657.06,1289z"/>
		<path d="M671.32,1295.22l-3.81-12.45h2.18l1.98,7.18l0.74,2.67c0.03-0.13,0.25-0.99,0.64-2.57l1.98-7.29h2.17l1.86,7.22l0.62,2.38
			l0.71-2.4l2.13-7.2h2.05l-3.89,12.45h-2.19l-1.98-7.45l-0.48-2.12l-2.52,9.57H671.32z"/>
		<path d="M701.1,1295.22v-1.57c-0.79,1.23-1.95,1.85-3.48,1.85c-0.99,0-1.9-0.27-2.74-0.82s-1.48-1.31-1.93-2.29
			s-0.69-2.11-0.69-3.38c0-1.24,0.21-2.37,0.62-3.38s1.04-1.79,1.86-2.33s1.75-0.81,2.78-0.81c0.75,0,1.42,0.16,2,0.47
			s1.06,0.73,1.43,1.24v-6.16h2.1v17.18H701.1z M694.43,1289.01c0,1.59,0.34,2.79,1.01,3.57s1.46,1.18,2.38,1.18
			c0.92,0,1.71-0.38,2.35-1.13s0.97-1.9,0.97-3.45c0-1.7-0.33-2.95-0.98-3.75s-1.46-1.2-2.43-1.2c-0.94,0-1.72,0.38-2.35,1.15
			S694.43,1287.37,694.43,1289.01z"/>
		<path d="M705.59,1289c0-2.3,0.64-4.01,1.92-5.12c1.07-0.92,2.38-1.38,3.91-1.38c1.71,0,3.11,0.56,4.2,1.68s1.63,2.67,1.63,4.65
			c0,1.6-0.24,2.86-0.72,3.78s-1.18,1.63-2.1,2.14s-1.92,0.76-3.01,0.76c-1.74,0-3.15-0.56-4.22-1.68S705.59,1291.1,705.59,1289z
			 M707.76,1289c0,1.59,0.35,2.79,1.04,3.58s1.57,1.19,2.63,1.19c1.05,0,1.92-0.4,2.61-1.2s1.04-2.01,1.04-3.64
			c0-1.54-0.35-2.71-1.05-3.5s-1.57-1.19-2.61-1.19c-1.05,0-1.93,0.39-2.63,1.18S707.76,1287.41,707.76,1289z"/>
		<path d="M718.94,1289c0-2.3,0.64-4.01,1.92-5.12c1.07-0.92,2.38-1.38,3.91-1.38c1.71,0,3.11,0.56,4.2,1.68s1.63,2.67,1.63,4.65
			c0,1.6-0.24,2.86-0.72,3.78s-1.18,1.63-2.1,2.14s-1.92,0.76-3.01,0.76c-1.74,0-3.15-0.56-4.22-1.68S718.94,1291.1,718.94,1289z
			 M721.11,1289c0,1.59,0.35,2.79,1.04,3.58s1.57,1.19,2.63,1.19c1.05,0,1.92-0.4,2.61-1.2s1.04-2.01,1.04-3.64
			c0-1.54-0.35-2.71-1.05-3.5s-1.57-1.19-2.61-1.19c-1.05,0-1.93,0.39-2.63,1.18S721.11,1287.41,721.11,1289z"/>
		<path d="M733.05,1295.22v-12.45h1.9v1.89c0.48-0.88,0.93-1.46,1.34-1.75s0.86-0.42,1.35-0.42c0.71,0,1.43,0.23,2.17,0.68
			l-0.73,1.96c-0.52-0.3-1.03-0.46-1.55-0.46c-0.46,0-0.88,0.14-1.24,0.42s-0.63,0.66-0.79,1.15c-0.23,0.75-0.35,1.57-0.35,2.46
			v6.52H733.05z"/>
		<path d="M743.36,1295.22l-3.81-12.45h2.18l1.98,7.18l0.74,2.67c0.03-0.13,0.25-0.99,0.64-2.57l1.98-7.29h2.17l1.86,7.22l0.62,2.38
			l0.71-2.4l2.13-7.2h2.05l-3.89,12.45h-2.19l-1.98-7.45l-0.48-2.12l-2.52,9.57H743.36z"/>
		<path d="M766.52,1293.69c-0.78,0.66-1.53,1.13-2.26,1.41s-1.5,0.41-2.33,0.41c-1.37,0-2.42-0.33-3.15-1s-1.1-1.52-1.1-2.56
			c0-0.61,0.14-1.17,0.42-1.67s0.64-0.91,1.09-1.21s0.96-0.54,1.52-0.69c0.41-0.11,1.04-0.21,1.88-0.32c1.7-0.2,2.96-0.45,3.76-0.73
			c0.01-0.29,0.01-0.47,0.01-0.55c0-0.86-0.2-1.46-0.6-1.82c-0.54-0.48-1.34-0.71-2.4-0.71c-0.99,0-1.72,0.17-2.2,0.52
			s-0.82,0.96-1.05,1.85l-2.06-0.28c0.19-0.88,0.5-1.6,0.93-2.14s1.05-0.96,1.86-1.25s1.75-0.44,2.82-0.44
			c1.06,0,1.93,0.13,2.59,0.38s1.15,0.56,1.46,0.94s0.53,0.86,0.66,1.44c0.07,0.36,0.11,1.01,0.11,1.95v2.81
			c0,1.96,0.04,3.2,0.13,3.72s0.27,1.02,0.53,1.49h-2.2C766.72,1294.79,766.58,1294.28,766.52,1293.69z M766.34,1288.98
			c-0.77,0.31-1.91,0.58-3.45,0.8c-0.87,0.13-1.48,0.27-1.84,0.42s-0.64,0.38-0.83,0.69s-0.29,0.63-0.29,1
			c0,0.56,0.21,1.03,0.64,1.41s1.05,0.56,1.87,0.56c0.81,0,1.54-0.18,2.17-0.53s1.1-0.84,1.39-1.46c0.23-0.48,0.34-1.18,0.34-2.11
			V1288.98z"/>
		<path d="M771.65,1300.02l-0.23-1.98c0.46,0.13,0.86,0.19,1.21,0.19c0.47,0,0.84-0.08,1.13-0.23s0.51-0.38,0.69-0.66
			c0.13-0.21,0.35-0.73,0.64-1.57c0.04-0.12,0.1-0.29,0.19-0.52l-4.72-12.47h2.27l2.59,7.21c0.34,0.91,0.64,1.88,0.9,2.88
			c0.24-0.97,0.53-1.91,0.87-2.84l2.66-7.25h2.11l-4.73,12.66c-0.51,1.37-0.9,2.31-1.18,2.82c-0.38,0.7-0.8,1.21-1.29,1.53
			s-1.06,0.49-1.73,0.49C772.6,1300.28,772.15,1300.19,771.65,1300.02z"/>
	</g>
	<g>
		<path d="M1172.57,1266.41v-17.18h2.33l9.02,13.49v-13.49h2.18v17.18h-2.33l-9.02-13.5v13.5H1172.57z"/>
		<path d="M1198.18,1262.4l2.18,0.27c-0.34,1.27-0.98,2.26-1.91,2.96s-2.12,1.05-3.56,1.05c-1.82,0-3.26-0.56-4.33-1.68
			s-1.6-2.69-1.6-4.72c0-2.09,0.54-3.72,1.62-4.88s2.48-1.73,4.2-1.73c1.66,0,3.02,0.57,4.08,1.7s1.58,2.73,1.58,4.78
			c0,0.13,0,0.31-0.01,0.56h-9.28c0.08,1.37,0.46,2.41,1.16,3.14s1.56,1.09,2.6,1.09c0.77,0,1.43-0.2,1.98-0.61
			S1197.86,1263.29,1198.18,1262.4z M1191.25,1258.99h6.95c-0.09-1.05-0.36-1.83-0.8-2.36c-0.67-0.81-1.54-1.22-2.61-1.22
			c-0.97,0-1.78,0.32-2.44,0.97S1191.32,1257.91,1191.25,1258.99z"/>
		<path d="M1211.16,1266.41v-1.83c-0.97,1.41-2.29,2.11-3.95,2.11c-0.73,0-1.42-0.14-2.06-0.42s-1.11-0.63-1.42-1.06
			s-0.53-0.95-0.65-1.56c-0.09-0.41-0.13-1.07-0.13-1.97v-7.71h2.11v6.9c0,1.1,0.04,1.84,0.13,2.23c0.13,0.55,0.41,0.99,0.84,1.31
			s0.96,0.47,1.59,0.47s1.23-0.16,1.78-0.49s0.95-0.77,1.18-1.32s0.35-1.37,0.35-2.43v-6.67h2.11v12.45H1211.16z"/>
		<path d="M1220.96,1264.53l0.3,1.86c-0.59,0.13-1.13,0.19-1.59,0.19c-0.77,0-1.36-0.12-1.78-0.36s-0.72-0.56-0.89-0.96
			s-0.26-1.22-0.26-2.49v-7.16h-1.55v-1.64h1.55v-3.08l2.1-1.27v4.35h2.12v1.64h-2.12v7.28c0,0.6,0.04,0.99,0.11,1.16
			s0.2,0.31,0.36,0.41s0.41,0.15,0.72,0.15C1220.27,1264.61,1220.57,1264.58,1220.96,1264.53z"/>
		<path d="M1223,1266.41v-12.45h1.9v1.89c0.48-0.88,0.93-1.46,1.34-1.75s0.86-0.42,1.35-0.42c0.71,0,1.43,0.23,2.17,0.68l-0.73,1.96
			c-0.52-0.3-1.03-0.46-1.55-0.46c-0.46,0-0.88,0.14-1.24,0.42s-0.63,0.66-0.79,1.15c-0.23,0.75-0.35,1.57-0.35,2.46v6.52H1223z"/>
		<path d="M1239.13,1264.88c-0.78,0.66-1.53,1.13-2.26,1.41s-1.5,0.41-2.33,0.41c-1.37,0-2.42-0.33-3.15-1s-1.1-1.52-1.1-2.56
			c0-0.61,0.14-1.17,0.42-1.67s0.64-0.91,1.09-1.21s0.96-0.54,1.52-0.69c0.41-0.11,1.04-0.21,1.88-0.32c1.7-0.2,2.96-0.45,3.76-0.73
			c0.01-0.29,0.01-0.47,0.01-0.55c0-0.86-0.2-1.46-0.6-1.82c-0.54-0.48-1.34-0.71-2.4-0.71c-0.99,0-1.72,0.17-2.2,0.52
			s-0.82,0.96-1.05,1.85l-2.06-0.28c0.19-0.88,0.5-1.6,0.93-2.14s1.05-0.96,1.86-1.25s1.75-0.44,2.82-0.44
			c1.06,0,1.93,0.13,2.59,0.38s1.15,0.56,1.46,0.94s0.53,0.86,0.66,1.44c0.07,0.36,0.11,1.01,0.11,1.95v2.81
			c0,1.96,0.04,3.2,0.13,3.72s0.27,1.02,0.53,1.49h-2.2C1239.34,1265.97,1239.2,1265.46,1239.13,1264.88z M1238.96,1260.17
			c-0.77,0.31-1.91,0.58-3.45,0.8c-0.87,0.13-1.48,0.27-1.84,0.42s-0.64,0.38-0.83,0.69s-0.29,0.63-0.29,1
			c0,0.56,0.21,1.03,0.64,1.41s1.05,0.56,1.87,0.56c0.81,0,1.54-0.18,2.17-0.53s1.1-0.84,1.39-1.46c0.23-0.48,0.34-1.18,0.34-2.11
			V1260.17z"/>
		<path d="M1244.31,1266.41v-17.18h2.11v17.18H1244.31z"/>
		<path d="M1256.36,1271.18v-17.21h1.92v1.62c0.45-0.63,0.96-1.11,1.54-1.42s1.26-0.47,2.07-0.47c1.06,0,2,0.27,2.81,0.82
			s1.43,1.32,1.84,2.31s0.62,2.09,0.62,3.28c0,1.27-0.23,2.42-0.69,3.44s-1.12,1.8-1.99,2.34s-1.79,0.81-2.75,0.81
			c-0.7,0-1.33-0.15-1.89-0.45s-1.02-0.67-1.38-1.13v6.06H1256.36z M1258.27,1260.26c0,1.6,0.32,2.79,0.97,3.55s1.43,1.15,2.36,1.15
			c0.94,0,1.74-0.4,2.41-1.19s1-2.02,1-3.69c0-1.59-0.33-2.77-0.98-3.56s-1.43-1.18-2.34-1.18c-0.9,0-1.69,0.42-2.38,1.26
			S1258.27,1258.66,1258.27,1260.26z"/>
		<path d="M1269.66,1266.41v-17.18h2.11v17.18H1269.66z"/>
		<path d="M1283.16,1264.88c-0.78,0.66-1.53,1.13-2.26,1.41s-1.5,0.41-2.33,0.41c-1.37,0-2.42-0.33-3.15-1s-1.1-1.52-1.1-2.56
			c0-0.61,0.14-1.17,0.42-1.67s0.64-0.91,1.09-1.21s0.96-0.54,1.52-0.69c0.41-0.11,1.04-0.21,1.88-0.32c1.7-0.2,2.96-0.45,3.76-0.73
			c0.01-0.29,0.01-0.47,0.01-0.55c0-0.86-0.2-1.46-0.6-1.82c-0.54-0.48-1.34-0.71-2.4-0.71c-0.99,0-1.72,0.17-2.2,0.52
			s-0.82,0.96-1.05,1.85l-2.06-0.28c0.19-0.88,0.5-1.6,0.93-2.14s1.05-0.96,1.86-1.25s1.75-0.44,2.82-0.44
			c1.06,0,1.93,0.13,2.59,0.38s1.15,0.56,1.46,0.94s0.53,0.86,0.66,1.44c0.07,0.36,0.11,1.01,0.11,1.95v2.81
			c0,1.96,0.04,3.2,0.13,3.72s0.27,1.02,0.53,1.49h-2.2C1283.36,1265.97,1283.22,1265.46,1283.16,1264.88z M1282.98,1260.17
			c-0.77,0.31-1.91,0.58-3.45,0.8c-0.87,0.13-1.48,0.27-1.84,0.42s-0.64,0.38-0.83,0.69s-0.29,0.63-0.29,1
			c0,0.56,0.21,1.03,0.64,1.41s1.05,0.56,1.87,0.56c0.81,0,1.54-0.18,2.17-0.53s1.1-0.84,1.39-1.46c0.23-0.48,0.34-1.18,0.34-2.11
			V1260.17z"/>
		<path d="M1288.39,1266.41v-12.45h1.9v1.77c0.91-1.37,2.23-2.05,3.96-2.05c0.75,0,1.44,0.13,2.07,0.4s1.1,0.62,1.41,1.06
			s0.53,0.96,0.66,1.56c0.08,0.39,0.12,1.07,0.12,2.05v7.65h-2.11v-7.57c0-0.86-0.08-1.5-0.25-1.93s-0.46-0.77-0.87-1.02
			s-0.91-0.38-1.47-0.38c-0.9,0-1.67,0.29-2.33,0.86s-0.98,1.65-0.98,3.25v6.8H1288.39z"/>
		<path d="M1310.25,1262.4l2.18,0.27c-0.34,1.27-0.98,2.26-1.91,2.96s-2.12,1.05-3.56,1.05c-1.82,0-3.26-0.56-4.33-1.68
			s-1.6-2.69-1.6-4.72c0-2.09,0.54-3.72,1.62-4.88s2.48-1.73,4.2-1.73c1.66,0,3.02,0.57,4.08,1.7s1.58,2.73,1.58,4.78
			c0,0.13,0,0.31-0.01,0.56h-9.28c0.08,1.37,0.46,2.41,1.16,3.14s1.56,1.09,2.6,1.09c0.77,0,1.43-0.2,1.98-0.61
			S1309.93,1263.29,1310.25,1262.4z M1303.33,1258.99h6.95c-0.09-1.05-0.36-1.83-0.8-2.36c-0.67-0.81-1.54-1.22-2.61-1.22
			c-0.97,0-1.78,0.32-2.44,0.97S1303.4,1257.91,1303.33,1258.99z"/>
	</g>
	<g>
		<path d="M1170.45,1293.69c-0.78,0.66-1.53,1.13-2.26,1.41s-1.5,0.41-2.33,0.41c-1.37,0-2.42-0.33-3.15-1s-1.1-1.52-1.1-2.56
			c0-0.61,0.14-1.17,0.42-1.67s0.64-0.91,1.09-1.21s0.96-0.54,1.52-0.69c0.41-0.11,1.04-0.21,1.88-0.32c1.7-0.2,2.96-0.45,3.76-0.73
			c0.01-0.29,0.01-0.47,0.01-0.55c0-0.86-0.2-1.46-0.6-1.82c-0.54-0.48-1.34-0.71-2.4-0.71c-0.99,0-1.72,0.17-2.2,0.52
			s-0.82,0.96-1.05,1.85l-2.06-0.28c0.19-0.88,0.5-1.6,0.93-2.14s1.05-0.96,1.86-1.25s1.75-0.44,2.82-0.44
			c1.06,0,1.93,0.13,2.59,0.38s1.15,0.56,1.46,0.94s0.53,0.86,0.66,1.44c0.07,0.36,0.11,1.01,0.11,1.95v2.81
			c0,1.96,0.04,3.2,0.13,3.72s0.27,1.02,0.53,1.49h-2.2C1170.65,1294.79,1170.51,1294.28,1170.45,1293.69z M1170.27,1288.98
			c-0.77,0.31-1.91,0.58-3.45,0.8c-0.87,0.13-1.48,0.27-1.84,0.42s-0.64,0.38-0.83,0.69s-0.29,0.63-0.29,1
			c0,0.56,0.21,1.03,0.64,1.41s1.05,0.56,1.87,0.56c0.81,0,1.54-0.18,2.17-0.53s1.1-0.84,1.39-1.46c0.23-0.48,0.34-1.18,0.34-2.11
			V1288.98z"/>
		<path d="M1177.62,1295.22h-1.96v-17.18h2.11v6.13c0.89-1.12,2.03-1.68,3.41-1.68c0.77,0,1.49,0.15,2.17,0.46s1.25,0.74,1.69,1.3
			s0.79,1.23,1.04,2.02s0.38,1.63,0.38,2.53c0,2.13-0.53,3.78-1.58,4.95s-2.32,1.75-3.8,1.75c-1.47,0-2.62-0.61-3.46-1.84V1295.22z
			 M1177.59,1288.91c0,1.49,0.2,2.57,0.61,3.23c0.66,1.09,1.56,1.63,2.7,1.63c0.92,0,1.72-0.4,2.39-1.2s1.01-1.99,1.01-3.58
			c0-1.63-0.32-2.82-0.97-3.6s-1.42-1.16-2.34-1.16c-0.92,0-1.72,0.4-2.39,1.2S1177.59,1287.39,1177.59,1288.91z"/>
		<path d="M1188.23,1289c0-2.3,0.64-4.01,1.92-5.12c1.07-0.92,2.38-1.38,3.91-1.38c1.71,0,3.11,0.56,4.2,1.68s1.63,2.67,1.63,4.65
			c0,1.6-0.24,2.86-0.72,3.78s-1.18,1.63-2.1,2.14s-1.92,0.76-3.01,0.76c-1.74,0-3.15-0.56-4.22-1.68S1188.23,1291.1,1188.23,1289z
			 M1190.4,1289c0,1.59,0.35,2.79,1.04,3.58s1.57,1.19,2.63,1.19c1.05,0,1.92-0.4,2.61-1.2s1.04-2.01,1.04-3.64
			c0-1.54-0.35-2.71-1.05-3.5s-1.57-1.19-2.61-1.19c-1.05,0-1.93,0.39-2.63,1.18S1190.4,1287.41,1190.4,1289z"/>
		<path d="M1205.82,1295.22l-4.73-12.45h2.23l2.67,7.45c0.29,0.8,0.55,1.64,0.8,2.51c0.19-0.66,0.45-1.45,0.79-2.37l2.77-7.59h2.17
			l-4.71,12.45H1205.82z"/>
		<path d="M1222.89,1291.22l2.18,0.27c-0.34,1.27-0.98,2.26-1.91,2.96s-2.12,1.05-3.56,1.05c-1.82,0-3.26-0.56-4.33-1.68
			s-1.6-2.69-1.6-4.72c0-2.09,0.54-3.72,1.62-4.88s2.48-1.73,4.2-1.73c1.66,0,3.02,0.57,4.08,1.7s1.58,2.73,1.58,4.78
			c0,0.13,0,0.31-0.01,0.56h-9.28c0.08,1.37,0.46,2.41,1.16,3.14s1.56,1.09,2.6,1.09c0.77,0,1.43-0.2,1.98-0.61
			S1222.57,1292.11,1222.89,1291.22z M1215.96,1287.81h6.95c-0.09-1.05-0.36-1.83-0.8-2.36c-0.67-0.81-1.54-1.22-2.61-1.22
			c-0.97,0-1.78,0.32-2.44,0.97S1216.03,1286.72,1215.96,1287.81z"/>
		<path d="M1242.46,1295.22v-1.57c-0.79,1.23-1.95,1.85-3.48,1.85c-0.99,0-1.9-0.27-2.74-0.82s-1.48-1.31-1.93-2.29
			s-0.69-2.11-0.69-3.38c0-1.24,0.21-2.37,0.62-3.38s1.04-1.79,1.86-2.33s1.75-0.81,2.78-0.81c0.75,0,1.42,0.16,2,0.47
			s1.06,0.73,1.43,1.24v-6.16h2.1v17.18H1242.46z M1235.79,1289.01c0,1.59,0.34,2.79,1.01,3.57s1.46,1.18,2.38,1.18
			c0.92,0,1.71-0.38,2.35-1.13s0.97-1.9,0.97-3.45c0-1.7-0.33-2.95-0.98-3.75s-1.46-1.2-2.43-1.2c-0.94,0-1.72,0.38-2.35,1.15
			S1235.79,1287.37,1235.79,1289.01z"/>
		<path d="M1246.95,1289c0-2.3,0.64-4.01,1.92-5.12c1.07-0.92,2.38-1.38,3.91-1.38c1.71,0,3.11,0.56,4.2,1.68s1.63,2.67,1.63,4.65
			c0,1.6-0.24,2.86-0.72,3.78s-1.18,1.63-2.1,2.14s-1.92,0.76-3.01,0.76c-1.74,0-3.15-0.56-4.22-1.68S1246.95,1291.1,1246.95,1289z
			 M1249.11,1289c0,1.59,0.35,2.79,1.04,3.58s1.57,1.19,2.63,1.19c1.05,0,1.92-0.4,2.61-1.2s1.04-2.01,1.04-3.64
			c0-1.54-0.35-2.71-1.05-3.5s-1.57-1.19-2.61-1.19c-1.05,0-1.93,0.39-2.63,1.18S1249.11,1287.41,1249.11,1289z"/>
		<path d="M1260.29,1289c0-2.3,0.64-4.01,1.92-5.12c1.07-0.92,2.38-1.38,3.91-1.38c1.71,0,3.11,0.56,4.2,1.68s1.63,2.67,1.63,4.65
			c0,1.6-0.24,2.86-0.72,3.78s-1.18,1.63-2.1,2.14s-1.92,0.76-3.01,0.76c-1.74,0-3.15-0.56-4.22-1.68S1260.29,1291.1,1260.29,1289z
			 M1262.46,1289c0,1.59,0.35,2.79,1.04,3.58s1.57,1.19,2.63,1.19c1.05,0,1.92-0.4,2.61-1.2s1.04-2.01,1.04-3.64
			c0-1.54-0.35-2.71-1.05-3.5s-1.57-1.19-2.61-1.19c-1.05,0-1.93,0.39-2.63,1.18S1262.46,1287.41,1262.46,1289z"/>
		<path d="M1274.4,1295.22v-12.45h1.9v1.89c0.48-0.88,0.93-1.46,1.34-1.75s0.86-0.42,1.35-0.42c0.71,0,1.43,0.23,2.17,0.68
			l-0.73,1.96c-0.52-0.3-1.03-0.46-1.55-0.46c-0.46,0-0.88,0.14-1.24,0.42s-0.63,0.66-0.79,1.15c-0.23,0.75-0.35,1.57-0.35,2.46
			v6.52H1274.4z"/>
		<path d="M1284.71,1295.22l-3.81-12.45h2.18l1.98,7.18l0.74,2.67c0.03-0.13,0.25-0.99,0.64-2.57l1.98-7.29h2.17l1.86,7.22
			l0.62,2.38l0.71-2.4l2.13-7.2h2.05l-3.89,12.45h-2.19l-1.98-7.45l-0.48-2.12l-2.52,9.57H1284.71z"/>
		<path d="M1307.87,1293.69c-0.78,0.66-1.53,1.13-2.26,1.41s-1.5,0.41-2.33,0.41c-1.37,0-2.42-0.33-3.15-1s-1.1-1.52-1.1-2.56
			c0-0.61,0.14-1.17,0.42-1.67s0.64-0.91,1.09-1.21s0.96-0.54,1.52-0.69c0.41-0.11,1.04-0.21,1.88-0.32c1.7-0.2,2.96-0.45,3.76-0.73
			c0.01-0.29,0.01-0.47,0.01-0.55c0-0.86-0.2-1.46-0.6-1.82c-0.54-0.48-1.34-0.71-2.4-0.71c-0.99,0-1.72,0.17-2.2,0.52
			s-0.82,0.96-1.05,1.85l-2.06-0.28c0.19-0.88,0.5-1.6,0.93-2.14s1.05-0.96,1.86-1.25s1.75-0.44,2.82-0.44
			c1.06,0,1.93,0.13,2.59,0.38s1.15,0.56,1.46,0.94s0.53,0.86,0.66,1.44c0.07,0.36,0.11,1.01,0.11,1.95v2.81
			c0,1.96,0.04,3.2,0.13,3.72s0.27,1.02,0.53,1.49h-2.2C1308.07,1294.79,1307.93,1294.28,1307.87,1293.69z M1307.7,1288.98
			c-0.77,0.31-1.91,0.58-3.45,0.8c-0.87,0.13-1.48,0.27-1.84,0.42s-0.64,0.38-0.83,0.69s-0.29,0.63-0.29,1
			c0,0.56,0.21,1.03,0.64,1.41s1.05,0.56,1.87,0.56c0.81,0,1.54-0.18,2.17-0.53s1.1-0.84,1.39-1.46c0.23-0.48,0.34-1.18,0.34-2.11
			V1288.98z"/>
		<path d="M1313,1300.02l-0.23-1.98c0.46,0.13,0.86,0.19,1.21,0.19c0.47,0,0.84-0.08,1.13-0.23s0.51-0.38,0.69-0.66
			c0.13-0.21,0.35-0.73,0.64-1.57c0.04-0.12,0.1-0.29,0.19-0.52l-4.72-12.47h2.27l2.59,7.21c0.34,0.91,0.64,1.88,0.9,2.88
			c0.24-0.97,0.53-1.91,0.87-2.84l2.66-7.25h2.11l-4.73,12.66c-0.51,1.37-0.9,2.31-1.18,2.82c-0.38,0.7-0.8,1.21-1.29,1.53
			s-1.06,0.49-1.73,0.49C1313.96,1300.28,1313.5,1300.19,1313,1300.02z"/>
	</g>
</g>
</svg>
