<?xml version="1.0" encoding="iso-8859-1"?>
<!-- Generator: Adobe Illustrator 16.0.3, SVG Export Plug-In . SVG Version: 6.00 Build 0)  -->
<!DOCTYPE svg PUBLIC "-//W3C//DTD SVG 1.1//EN" "http://www.w3.org/Graphics/SVG/1.1/DTD/svg11.dtd">
<svg version="1.1" id="Layer_1" xmlns="http://www.w3.org/2000/svg" xmlns:xlink="http://www.w3.org/1999/xlink" x="0px" y="0px"
	 width="468px" height="262.95px" viewBox="0 0 468 262.95" style="enable-background:new 0 0 468 262.95;" xml:space="preserve">
<g>
	<g>
		<defs>
			<rect id="SVGID_1_" width="468" height="259.56"/>
		</defs>
		<clipPath id="SVGID_2_">
			<use xlink:href="#SVGID_1_"  style="overflow:visible;"/>
		</clipPath>
		<g style="clip-path:url(#SVGID_2_);">
		</g>
	</g>
	<polygon style="fill:none;stroke:#000000;stroke-width:1.5;stroke-linecap:round;stroke-miterlimit:8;" points="229.3,25.1 
		229.3,235.05 233.5,235.05 233.5,25.1 229.3,25.1 	"/>
	
		<polygon style="fill:none;stroke:#000000;stroke-width:0.75;stroke-linecap:round;stroke-linejoin:round;stroke-miterlimit:8;" points="
		257.01,41.5 257.01,44.1 237.1,44.1 237.1,49.3 257.01,49.3 257.01,51.9 263.65,46.7 257.01,41.5 	"/>
	<g>
		<defs>
			<polygon id="SVGID_3_" points="234.12,20.88 264.6,20.88 264.6,39.84 234.12,39.84 234.12,20.88 			"/>
		</defs>
		<clipPath id="SVGID_4_">
			<use xlink:href="#SVGID_3_"  style="overflow:visible;"/>
		</clipPath>
		<g style="clip-path:url(#SVGID_4_);">
			<defs>
				<polygon id="SVGID_5_" points="241.36,41.46 257.36,41.46 257.36,22.51 241.36,22.51 241.36,41.46 				"/>
			</defs>
			<clipPath id="SVGID_6_">
				<use xlink:href="#SVGID_5_"  style="overflow:visible;"/>
			</clipPath>
			<g style="clip-path:url(#SVGID_6_);">
				<path d="M251.89,28.15h3.59v0.34h-3.59V28.15z"/>
			</g>
			<g style="clip-path:url(#SVGID_6_);">
				<path d="M252.16,35.38l-0.68,2.39c-0.04,0.16-0.07,0.26-0.07,0.29c0,0.04,0.01,0.07,0.03,0.09c0.02,0.02,0.05,0.03,0.08,0.03
					c0.03,0,0.08-0.02,0.12-0.05c0.13-0.1,0.26-0.25,0.39-0.44l0.12,0.08c-0.15,0.24-0.34,0.44-0.55,0.6
					c-0.15,0.12-0.3,0.18-0.44,0.18c-0.09,0-0.17-0.03-0.23-0.08s-0.09-0.13-0.09-0.21s0.03-0.22,0.08-0.42l0.44-1.53
					c0.07-0.25,0.11-0.41,0.11-0.47c0-0.05-0.02-0.09-0.05-0.12s-0.08-0.05-0.15-0.05c-0.05,0-0.15,0.01-0.31,0.04v-0.13
					L252.16,35.38z M252.12,34.03c0.1,0,0.18,0.03,0.24,0.1c0.07,0.07,0.1,0.15,0.1,0.24c0,0.09-0.03,0.17-0.1,0.24
					c-0.07,0.07-0.15,0.1-0.24,0.1s-0.17-0.03-0.24-0.1c-0.07-0.07-0.1-0.15-0.1-0.24c0-0.1,0.03-0.18,0.1-0.24
					C251.94,34.06,252.02,34.03,252.12,34.03z"/>
			</g>
			<g style="clip-path:url(#SVGID_6_);">
				<path d="M245.33,27.77l0.08-0.22h2.84c0.48,0,0.9,0.07,1.27,0.22c0.37,0.15,0.65,0.35,0.84,0.62c0.19,0.27,0.28,0.55,0.28,0.84
					c0,0.46-0.17,0.87-0.5,1.24s-0.87,0.64-1.61,0.82c0.48,0.18,0.83,0.42,1.06,0.71s0.34,0.62,0.34,0.98c0,0.39-0.1,0.77-0.3,1.13
					c-0.2,0.36-0.46,0.64-0.78,0.84s-0.7,0.34-1.15,0.44c-0.32,0.07-0.82,0.1-1.5,0.1h-2.91l0.08-0.22c0.3-0.01,0.51-0.04,0.62-0.09
					c0.16-0.07,0.27-0.15,0.33-0.26c0.09-0.15,0.22-0.49,0.38-1.02l1.42-4.8c0.12-0.4,0.18-0.69,0.18-0.85
					c0-0.14-0.05-0.26-0.16-0.34s-0.31-0.13-0.61-0.13C245.45,27.78,245.38,27.77,245.33,27.77z M245.36,34.96
					c0.42,0.05,0.75,0.08,0.99,0.08c0.61,0,1.15-0.18,1.62-0.55s0.71-0.86,0.71-1.49c0-0.48-0.15-0.85-0.44-1.12
					c-0.29-0.27-0.76-0.4-1.41-0.4c-0.13,0-0.28,0.01-0.46,0.02L245.36,34.96z M246.52,31.06c0.25,0.01,0.44,0.01,0.55,0.01
					c0.81,0,1.42-0.18,1.81-0.53s0.59-0.79,0.59-1.32c0-0.4-0.12-0.71-0.36-0.94s-0.63-0.34-1.16-0.34c-0.14,0-0.32,0.02-0.54,0.07
					L246.52,31.06z"/>
			</g>
		</g>
		<g style="clip-path:url(#SVGID_4_);">
			<defs>
				<rect id="SVGID_7_" x="234.12" y="20.88" width="30.48" height="18.96"/>
			</defs>
			<clipPath id="SVGID_8_">
				<use xlink:href="#SVGID_7_"  style="overflow:visible;"/>
			</clipPath>
			<g style="clip-path:url(#SVGID_8_);">
			</g>
		</g>
	</g>
	
		<polygon style="fill:none;stroke:#000000;stroke-width:0.75;stroke-linecap:round;stroke-linejoin:round;stroke-miterlimit:8;" points="
		244.69,88.5 244.69,85.9 264.6,85.9 264.6,80.7 244.69,80.7 244.69,78.1 238.05,83.3 244.69,88.5 	"/>
	<g>
		<defs>
			<polygon id="SVGID_9_" points="233.52,56.16 264.96,56.16 264.96,75.12 233.52,75.12 233.52,56.16 			"/>
		</defs>
		<clipPath id="SVGID_10_">
			<use xlink:href="#SVGID_9_"  style="overflow:visible;"/>
		</clipPath>
		<g style="clip-path:url(#SVGID_10_);">
			<defs>
				<polygon id="SVGID_11_" points="240.76,76.76 257.81,76.76 257.81,57.76 240.76,57.76 240.76,76.76 				"/>
			</defs>
			<clipPath id="SVGID_12_">
				<use xlink:href="#SVGID_11_"  style="overflow:visible;"/>
			</clipPath>
			<g style="clip-path:url(#SVGID_12_);">
				<path d="M252.95,61.8h0.34v1.63h1.63v0.33h-1.63v1.62h-0.34v-1.62h-1.63v-0.33h1.63V61.8z"/>
			</g>
			<g style="clip-path:url(#SVGID_12_);">
				<path d="M251.59,70.67l-0.68,2.4c-0.05,0.16-0.07,0.26-0.07,0.29c0,0.04,0.01,0.07,0.03,0.09c0.02,0.02,0.05,0.03,0.08,0.03
					c0.04,0,0.08-0.02,0.12-0.05c0.13-0.1,0.26-0.25,0.39-0.44l0.12,0.08c-0.16,0.24-0.34,0.44-0.55,0.6
					c-0.16,0.12-0.3,0.18-0.45,0.18c-0.09,0-0.17-0.03-0.23-0.08c-0.06-0.06-0.09-0.13-0.09-0.21s0.03-0.22,0.09-0.42l0.45-1.53
					c0.07-0.25,0.11-0.41,0.11-0.47c0-0.05-0.02-0.09-0.05-0.12s-0.08-0.05-0.15-0.05c-0.05,0-0.15,0.01-0.31,0.04v-0.13
					L251.59,70.67z M251.54,69.31c0.1,0,0.18,0.03,0.24,0.1s0.1,0.15,0.1,0.24c0,0.09-0.03,0.17-0.1,0.24
					c-0.07,0.07-0.15,0.1-0.24,0.1s-0.17-0.03-0.24-0.1c-0.07-0.07-0.1-0.15-0.1-0.24c0-0.1,0.03-0.18,0.1-0.24
					C251.37,69.34,251.45,69.31,251.54,69.31z"/>
			</g>
			<g style="clip-path:url(#SVGID_12_);">
				<path d="M244.74,63.03l0.08-0.22h2.84c0.48,0,0.9,0.07,1.28,0.22s0.65,0.36,0.84,0.62c0.19,0.27,0.28,0.55,0.28,0.84
					c0,0.46-0.17,0.87-0.5,1.24s-0.87,0.64-1.62,0.82c0.48,0.18,0.84,0.42,1.06,0.71s0.34,0.62,0.34,0.98c0,0.39-0.1,0.77-0.31,1.13
					c-0.2,0.36-0.46,0.64-0.78,0.84s-0.7,0.35-1.16,0.44c-0.32,0.07-0.82,0.1-1.5,0.1h-2.92l0.08-0.22
					c0.31-0.01,0.51-0.04,0.62-0.09c0.16-0.07,0.27-0.15,0.33-0.26c0.09-0.15,0.22-0.49,0.38-1.02l1.43-4.81
					c0.12-0.41,0.18-0.69,0.18-0.86c0-0.14-0.05-0.26-0.16-0.34c-0.11-0.08-0.31-0.13-0.61-0.13
					C244.86,63.04,244.8,63.03,244.74,63.03z M244.77,70.24c0.42,0.05,0.75,0.08,0.99,0.08c0.61,0,1.15-0.18,1.63-0.55
					c0.47-0.37,0.71-0.87,0.71-1.49c0-0.48-0.15-0.86-0.44-1.13s-0.76-0.4-1.41-0.4c-0.13,0-0.28,0.01-0.46,0.02L244.77,70.24z
					 M245.93,66.33c0.25,0.01,0.44,0.01,0.55,0.01c0.81,0,1.42-0.18,1.82-0.53s0.6-0.8,0.6-1.33c0-0.4-0.12-0.72-0.36-0.94
					c-0.24-0.22-0.63-0.34-1.16-0.34c-0.14,0-0.32,0.02-0.54,0.07L245.93,66.33z"/>
			</g>
		</g>
		<g style="clip-path:url(#SVGID_10_);">
			<defs>
				<rect id="SVGID_13_" x="233.52" y="56.16" width="31.44" height="18.96"/>
			</defs>
			<clipPath id="SVGID_14_">
				<use xlink:href="#SVGID_13_"  style="overflow:visible;"/>
			</clipPath>
			<g style="clip-path:url(#SVGID_14_);">
			</g>
		</g>
	</g>
	
		<polygon style="fill:none;stroke:#000000;stroke-width:0.75;stroke-linecap:round;stroke-linejoin:round;stroke-miterlimit:8;" points="
		218.21,41.3 218.21,43.9 198.3,43.9 198.3,49.1 218.21,49.1 218.21,51.7 224.85,46.5 218.21,41.3 	"/>
	<g>
		<defs>
			<polygon id="SVGID_15_" points="195.36,20.64 229.8,20.64 229.8,39.72 195.36,39.72 195.36,20.64 			"/>
		</defs>
		<clipPath id="SVGID_16_">
			<use xlink:href="#SVGID_15_"  style="overflow:visible;"/>
		</clipPath>
		<g style="clip-path:url(#SVGID_16_);">
			<defs>
				<polygon id="SVGID_17_" points="202.61,41.11 222.66,41.11 222.66,22.16 202.61,22.16 202.61,41.11 				"/>
			</defs>
			<clipPath id="SVGID_18_">
				<use xlink:href="#SVGID_17_"  style="overflow:visible;"/>
			</clipPath>
			<g style="clip-path:url(#SVGID_18_);">
				<path d="M213.17,27.81h3.6v0.34h-3.6V27.81z"/>
			</g>
			<g style="clip-path:url(#SVGID_18_);">
				<path d="M214.29,36.16h3.6v0.34h-3.6V36.16z"/>
			</g>
			<g style="clip-path:url(#SVGID_18_);">
				<path d="M218.31,33.96l1.13-0.55h0.11v3.9c0,0.26,0.01,0.42,0.03,0.48c0.02,0.06,0.07,0.11,0.14,0.15
					c0.07,0.03,0.21,0.05,0.42,0.06v0.13h-1.75V38c0.22,0,0.36-0.02,0.42-0.06c0.06-0.03,0.11-0.08,0.13-0.13
					c0.03-0.06,0.04-0.22,0.04-0.5v-2.5c0-0.34-0.01-0.55-0.03-0.65c-0.02-0.07-0.04-0.13-0.09-0.16c-0.04-0.03-0.09-0.05-0.15-0.05
					c-0.08,0-0.2,0.04-0.35,0.11L218.31,33.96z"/>
			</g>
			<g style="clip-path:url(#SVGID_18_);">
				<path d="M213.44,35.04l-0.68,2.39c-0.05,0.16-0.07,0.26-0.07,0.29c0,0.04,0.01,0.07,0.03,0.09c0.02,0.02,0.05,0.03,0.08,0.03
					c0.03,0,0.08-0.02,0.12-0.05c0.13-0.1,0.26-0.25,0.39-0.44l0.12,0.08c-0.16,0.24-0.34,0.44-0.55,0.6
					c-0.16,0.12-0.3,0.18-0.45,0.18c-0.09,0-0.17-0.03-0.23-0.08s-0.09-0.13-0.09-0.21s0.03-0.22,0.09-0.42l0.45-1.53
					c0.07-0.25,0.11-0.41,0.11-0.47c0-0.05-0.02-0.09-0.05-0.12s-0.08-0.05-0.15-0.05c-0.05,0-0.15,0.01-0.31,0.04v-0.13
					L213.44,35.04z M213.39,33.69c0.1,0,0.18,0.03,0.24,0.1c0.07,0.07,0.1,0.15,0.1,0.24c0,0.09-0.03,0.17-0.1,0.24
					c-0.07,0.07-0.15,0.1-0.24,0.1s-0.17-0.03-0.24-0.1c-0.07-0.07-0.1-0.15-0.1-0.24c0-0.1,0.03-0.18,0.1-0.24
					C213.22,33.72,213.3,33.69,213.39,33.69z"/>
			</g>
			<g style="clip-path:url(#SVGID_18_);">
				<path d="M206.58,27.42l0.08-0.22h2.84c0.48,0,0.9,0.07,1.28,0.22c0.37,0.15,0.65,0.35,0.84,0.62c0.19,0.27,0.28,0.55,0.28,0.84
					c0,0.46-0.17,0.87-0.5,1.24c-0.33,0.37-0.87,0.64-1.62,0.82c0.48,0.18,0.84,0.42,1.06,0.71s0.34,0.62,0.34,0.98
					c0,0.39-0.1,0.77-0.31,1.13c-0.2,0.36-0.46,0.64-0.78,0.84s-0.7,0.34-1.15,0.44c-0.32,0.07-0.82,0.1-1.5,0.1h-2.92l0.08-0.22
					c0.31-0.01,0.51-0.04,0.62-0.09c0.16-0.07,0.27-0.15,0.33-0.26c0.09-0.15,0.22-0.49,0.38-1.02l1.43-4.8
					c0.12-0.4,0.18-0.69,0.18-0.85c0-0.14-0.05-0.26-0.16-0.34c-0.11-0.08-0.31-0.13-0.61-0.13
					C206.7,27.42,206.64,27.42,206.58,27.42z M206.62,34.61c0.42,0.05,0.75,0.08,0.99,0.08c0.61,0,1.15-0.18,1.62-0.55
					c0.47-0.37,0.71-0.86,0.71-1.49c0-0.48-0.15-0.85-0.44-1.12c-0.29-0.27-0.76-0.4-1.41-0.4c-0.13,0-0.28,0.01-0.46,0.02
					L206.62,34.61z M207.77,30.71c0.25,0.01,0.44,0.01,0.55,0.01c0.81,0,1.42-0.18,1.82-0.53s0.6-0.79,0.6-1.32
					c0-0.4-0.12-0.71-0.36-0.94c-0.24-0.22-0.63-0.34-1.16-0.34c-0.14,0-0.32,0.02-0.54,0.07L207.77,30.71z"/>
			</g>
		</g>
		<g style="clip-path:url(#SVGID_16_);">
			<defs>
				<rect id="SVGID_19_" x="195.36" y="20.64" width="34.44" height="19.08"/>
			</defs>
			<clipPath id="SVGID_20_">
				<use xlink:href="#SVGID_19_"  style="overflow:visible;"/>
			</clipPath>
			<g style="clip-path:url(#SVGID_20_);">
			</g>
		</g>
	</g>
	
		<polygon style="fill:none;stroke:#000000;stroke-width:0.75;stroke-linecap:round;stroke-linejoin:round;stroke-miterlimit:8;" points="
		205.89,88.3 205.89,85.7 225.8,85.7 225.8,80.5 205.89,80.5 205.89,77.9 199.25,83.1 205.89,88.3 	"/>
	<g>
		<defs>
			<polygon id="SVGID_21_" points="194.64,55.92 229.2,55.92 229.2,74.88 194.64,74.88 194.64,55.92 			"/>
		</defs>
		<clipPath id="SVGID_22_">
			<use xlink:href="#SVGID_21_"  style="overflow:visible;"/>
		</clipPath>
		<g style="clip-path:url(#SVGID_22_);">
			<defs>
				<polygon id="SVGID_23_" points="201.91,76.51 221.96,76.51 221.96,57.56 201.91,57.56 201.91,76.51 				"/>
			</defs>
			<clipPath id="SVGID_24_">
				<use xlink:href="#SVGID_23_"  style="overflow:visible;"/>
			</clipPath>
			<g style="clip-path:url(#SVGID_24_);">
				<path d="M214.1,61.59h0.34v1.63h1.63v0.33h-1.63v1.62h-0.34v-1.62h-1.63v-0.33h1.63V61.59z"/>
			</g>
			<g style="clip-path:url(#SVGID_24_);">
				<path d="M213.59,71.55h3.6v0.34h-3.6V71.55z"/>
			</g>
			<g style="clip-path:url(#SVGID_24_);">
				<path d="M217.62,69.35l1.13-0.55h0.11v3.9c0,0.26,0.01,0.42,0.03,0.48c0.02,0.06,0.07,0.11,0.14,0.15
					c0.07,0.03,0.21,0.05,0.42,0.06v0.13h-1.75v-0.13c0.22,0,0.36-0.02,0.42-0.06c0.06-0.03,0.11-0.08,0.13-0.13
					c0.03-0.06,0.04-0.22,0.04-0.5v-2.5c0-0.34-0.01-0.55-0.03-0.65c-0.02-0.07-0.04-0.13-0.09-0.16c-0.04-0.03-0.09-0.05-0.15-0.05
					c-0.08,0-0.2,0.04-0.35,0.11L217.62,69.35z"/>
			</g>
			<g style="clip-path:url(#SVGID_24_);">
				<path d="M212.73,70.43l-0.68,2.39c-0.05,0.16-0.07,0.26-0.07,0.29c0,0.04,0.01,0.07,0.03,0.09c0.02,0.02,0.05,0.03,0.08,0.03
					c0.03,0,0.08-0.02,0.12-0.05c0.13-0.1,0.26-0.25,0.39-0.44l0.12,0.08c-0.16,0.24-0.34,0.44-0.55,0.6
					c-0.16,0.12-0.3,0.18-0.45,0.18c-0.09,0-0.17-0.03-0.23-0.08s-0.09-0.13-0.09-0.21s0.03-0.22,0.09-0.42l0.45-1.53
					c0.07-0.25,0.11-0.41,0.11-0.47c0-0.05-0.02-0.09-0.05-0.12s-0.08-0.05-0.15-0.05c-0.05,0-0.15,0.01-0.31,0.04v-0.13
					L212.73,70.43z M212.69,69.08c0.1,0,0.18,0.03,0.24,0.1c0.07,0.07,0.1,0.15,0.1,0.24c0,0.09-0.03,0.17-0.1,0.24
					c-0.07,0.07-0.15,0.1-0.24,0.1s-0.17-0.03-0.24-0.1c-0.07-0.07-0.1-0.15-0.1-0.24c0-0.1,0.03-0.18,0.1-0.24
					C212.51,69.11,212.59,69.08,212.69,69.08z"/>
			</g>
			<g style="clip-path:url(#SVGID_24_);">
				<path d="M205.89,62.82l0.08-0.22h2.84c0.48,0,0.9,0.07,1.28,0.22c0.37,0.15,0.65,0.35,0.84,0.62c0.19,0.27,0.28,0.55,0.28,0.84
					c0,0.46-0.17,0.87-0.5,1.24c-0.33,0.37-0.87,0.64-1.62,0.82c0.48,0.18,0.84,0.42,1.06,0.71s0.34,0.62,0.34,0.98
					c0,0.39-0.1,0.77-0.31,1.13c-0.2,0.36-0.46,0.64-0.78,0.84s-0.7,0.34-1.15,0.44c-0.32,0.07-0.82,0.1-1.5,0.1h-2.92l0.08-0.22
					c0.31-0.01,0.51-0.04,0.62-0.09c0.16-0.07,0.27-0.15,0.33-0.26c0.09-0.15,0.22-0.49,0.38-1.02l1.43-4.8
					c0.12-0.4,0.18-0.69,0.18-0.85c0-0.14-0.05-0.26-0.16-0.34s-0.31-0.13-0.61-0.13C206.01,62.82,205.94,62.82,205.89,62.82z
					 M205.92,70.01c0.42,0.05,0.75,0.08,0.99,0.08c0.61,0,1.15-0.18,1.62-0.55c0.47-0.37,0.71-0.86,0.71-1.49
					c0-0.48-0.15-0.85-0.44-1.12c-0.29-0.27-0.76-0.4-1.41-0.4c-0.13,0-0.28,0.01-0.46,0.02L205.92,70.01z M207.08,66.11
					c0.25,0.01,0.44,0.01,0.55,0.01c0.81,0,1.42-0.18,1.82-0.53s0.6-0.79,0.6-1.32c0-0.4-0.12-0.71-0.36-0.94
					c-0.24-0.22-0.63-0.34-1.16-0.34c-0.14,0-0.32,0.02-0.54,0.07L207.08,66.11z"/>
			</g>
		</g>
		<g style="clip-path:url(#SVGID_22_);">
			<defs>
				<rect id="SVGID_25_" x="194.64" y="55.92" width="34.56" height="18.96"/>
			</defs>
			<clipPath id="SVGID_26_">
				<use xlink:href="#SVGID_25_"  style="overflow:visible;"/>
			</clipPath>
			<g style="clip-path:url(#SVGID_26_);">
			</g>
		</g>
	</g>
	
		<line style="fill:none;stroke:#000000;stroke-linecap:round;stroke-linejoin:round;stroke-miterlimit:8;" x1="238.9" y1="151" x2="252.55" y2="151"/>
	<polygon style="fill-rule:evenodd;clip-rule:evenodd;" points="251.55,148 255.55,151 251.55,154 251.55,148 	"/>
	
		<line style="fill:none;stroke:#000000;stroke-linecap:round;stroke-linejoin:round;stroke-miterlimit:8;" x1="239.4" y1="150.62" x2="251.24" y2="143.83"/>
	<polygon style="fill-rule:evenodd;clip-rule:evenodd;" points="248.88,141.72 253.85,142.33 251.87,146.93 248.88,141.72 	"/>
	
		<line style="fill:none;stroke:#000000;stroke-linecap:round;stroke-linejoin:round;stroke-miterlimit:8;" x1="238.69" y1="150.47" x2="245.55" y2="138.67"/>
	<polygon style="fill-rule:evenodd;clip-rule:evenodd;" points="242.46,138.03 247.06,136.08 247.64,141.04 242.46,138.03 	"/>
	
		<line style="fill:none;stroke:#000000;stroke-linecap:round;stroke-linejoin:round;stroke-miterlimit:8;" x1="238.83" y1="151.24" x2="250.63" y2="158.1"/>
	<polygon style="fill-rule:evenodd;clip-rule:evenodd;" points="251.27,155 253.22,159.61 248.26,160.19 251.27,155 	"/>
	
		<line style="fill:none;stroke:#000000;stroke-linecap:round;stroke-linejoin:round;stroke-miterlimit:8;" x1="238.18" y1="150.9" x2="244.97" y2="162.75"/>
	<polygon style="fill-rule:evenodd;clip-rule:evenodd;" points="247.08,160.38 246.47,165.35 241.87,163.37 247.08,160.38 	"/>
	
		<line style="fill:none;stroke:#000000;stroke-linecap:round;stroke-linejoin:round;stroke-miterlimit:8;" x1="255.05" y1="206.35" x2="241.4" y2="206.35"/>
	<polygon style="fill-rule:evenodd;clip-rule:evenodd;" points="242.4,209.35 238.4,206.35 242.4,203.35 242.4,209.35 	"/>
	
		<line style="fill:none;stroke:#000000;stroke-linecap:round;stroke-linejoin:round;stroke-miterlimit:8;" x1="254.55" y1="206.68" x2="242.71" y2="213.47"/>
	<polygon style="fill-rule:evenodd;clip-rule:evenodd;" points="245.07,215.58 240.1,214.97 242.08,210.37 245.07,215.58 	"/>
	
		<line style="fill:none;stroke:#000000;stroke-linecap:round;stroke-linejoin:round;stroke-miterlimit:8;" x1="255.26" y1="206.83" x2="248.4" y2="218.63"/>
	<polygon style="fill-rule:evenodd;clip-rule:evenodd;" points="251.49,219.27 246.89,221.22 246.31,216.26 251.49,219.27 	"/>
	
		<line style="fill:none;stroke:#000000;stroke-linecap:round;stroke-linejoin:round;stroke-miterlimit:8;" x1="255.12" y1="206.06" x2="243.32" y2="199.2"/>
	<polygon style="fill-rule:evenodd;clip-rule:evenodd;" points="242.68,202.29 240.73,197.69 245.69,197.11 242.68,202.29 	"/>
	
		<line style="fill:none;stroke:#000000;stroke-linecap:round;stroke-linejoin:round;stroke-miterlimit:8;" x1="255.77" y1="206.4" x2="248.98" y2="194.56"/>
	<polygon style="fill-rule:evenodd;clip-rule:evenodd;" points="246.87,196.92 247.48,191.95 252.08,193.93 246.87,196.92 	"/>
	<g>
		<defs>
			<polygon id="SVGID_27_" points="231.72,112.8 264.12,112.8 264.12,131.76 231.72,131.76 231.72,112.8 			"/>
		</defs>
		<clipPath id="SVGID_28_">
			<use xlink:href="#SVGID_27_"  style="overflow:visible;"/>
		</clipPath>
		<g style="clip-path:url(#SVGID_28_);">
			<defs>
				<polygon id="SVGID_29_" points="238.96,133.36 256.96,133.36 256.96,114.41 238.96,114.41 238.96,133.36 				"/>
			</defs>
			<clipPath id="SVGID_30_">
				<use xlink:href="#SVGID_29_"  style="overflow:visible;"/>
			</clipPath>
			<g style="clip-path:url(#SVGID_30_);">
				<path d="M250.77,120.05h3.59v0.34h-3.59V120.05z"/>
			</g>
			<g style="clip-path:url(#SVGID_30_);">
				<path d="M251.04,127.28l-0.68,2.39c-0.04,0.16-0.07,0.26-0.07,0.29c0,0.04,0.01,0.07,0.03,0.09c0.02,0.02,0.05,0.03,0.08,0.03
					c0.03,0,0.08-0.02,0.12-0.05c0.13-0.1,0.26-0.25,0.39-0.44l0.12,0.08c-0.15,0.24-0.34,0.44-0.55,0.6
					c-0.15,0.12-0.3,0.18-0.44,0.18c-0.09,0-0.17-0.03-0.23-0.08c-0.06-0.05-0.09-0.13-0.09-0.21s0.03-0.22,0.08-0.42l0.44-1.53
					c0.07-0.25,0.11-0.41,0.11-0.47c0-0.05-0.02-0.09-0.05-0.12s-0.08-0.05-0.15-0.05c-0.05,0-0.15,0.01-0.31,0.04v-0.13
					L251.04,127.28z M251,125.92c0.1,0,0.18,0.03,0.24,0.1c0.07,0.07,0.1,0.15,0.1,0.24c0,0.09-0.03,0.17-0.1,0.24
					c-0.07,0.07-0.15,0.1-0.24,0.1s-0.17-0.03-0.24-0.1c-0.07-0.07-0.1-0.15-0.1-0.24c0-0.1,0.03-0.18,0.1-0.24
					C250.82,125.96,250.9,125.92,251,125.92z"/>
			</g>
			<g style="clip-path:url(#SVGID_30_);">
				<path d="M242.91,119.67l0.07-0.22h2.54c1.07,0,1.87,0.12,2.39,0.37s0.93,0.63,1.24,1.16c0.31,0.53,0.46,1.09,0.46,1.7
					c0,0.52-0.09,1.02-0.27,1.51c-0.18,0.49-0.38,0.88-0.6,1.17s-0.57,0.62-1.03,0.97s-0.97,0.62-1.51,0.79s-1.22,0.25-2.03,0.25
					h-3.36l0.08-0.22c0.31-0.01,0.52-0.04,0.62-0.08c0.16-0.07,0.27-0.16,0.35-0.27c0.11-0.16,0.24-0.49,0.38-0.99l1.41-4.79
					c0.11-0.38,0.16-0.67,0.16-0.89c0-0.15-0.05-0.27-0.15-0.35s-0.3-0.12-0.6-0.12H242.91z M244.99,119.89l-1.72,5.93
					c-0.13,0.44-0.19,0.72-0.19,0.82c0,0.06,0.02,0.12,0.06,0.18s0.1,0.1,0.17,0.12c0.1,0.04,0.27,0.05,0.49,0.05
					c0.61,0,1.18-0.06,1.71-0.19s0.96-0.31,1.29-0.56c0.48-0.36,0.86-0.86,1.14-1.5c0.29-0.63,0.43-1.36,0.43-2.17
					c0-0.92-0.22-1.6-0.66-2.04s-1.08-0.67-1.92-0.67C245.59,119.87,245.32,119.87,244.99,119.89z"/>
			</g>
		</g>
		<g style="clip-path:url(#SVGID_28_);">
			<defs>
				<rect id="SVGID_31_" x="231.72" y="112.8" width="32.4" height="18.96"/>
			</defs>
			<clipPath id="SVGID_32_">
				<use xlink:href="#SVGID_31_"  style="overflow:visible;"/>
			</clipPath>
			<g style="clip-path:url(#SVGID_32_);">
			</g>
		</g>
	</g>
	<g>
		<defs>
			<polygon id="SVGID_33_" points="232.92,170.64 265.32,170.64 265.32,189.72 232.92,189.72 232.92,170.64 			"/>
		</defs>
		<clipPath id="SVGID_34_">
			<use xlink:href="#SVGID_33_"  style="overflow:visible;"/>
		</clipPath>
		<g style="clip-path:url(#SVGID_34_);">
			<defs>
				<polygon id="SVGID_35_" points="240.16,191.11 258.16,191.11 258.16,172.16 240.16,172.16 240.16,191.11 				"/>
			</defs>
			<clipPath id="SVGID_36_">
				<use xlink:href="#SVGID_35_"  style="overflow:visible;"/>
			</clipPath>
			<g style="clip-path:url(#SVGID_36_);">
				<path d="M253.64,176.18h0.33v1.63h1.62v0.33h-1.62v1.62h-0.33v-1.62H252v-0.33h1.63V176.18z"/>
			</g>
			<g style="clip-path:url(#SVGID_36_);">
				<path d="M252.27,185.02l-0.68,2.39c-0.04,0.16-0.07,0.26-0.07,0.29c0,0.04,0.01,0.07,0.03,0.09c0.02,0.02,0.05,0.03,0.08,0.03
					c0.03,0,0.08-0.02,0.12-0.05c0.13-0.1,0.26-0.25,0.39-0.44l0.12,0.08c-0.15,0.24-0.34,0.44-0.55,0.6
					c-0.15,0.12-0.3,0.18-0.44,0.18c-0.09,0-0.17-0.03-0.23-0.08s-0.09-0.13-0.09-0.21s0.03-0.22,0.08-0.42l0.44-1.53
					c0.07-0.25,0.11-0.41,0.11-0.47c0-0.05-0.02-0.09-0.05-0.12s-0.08-0.05-0.15-0.05c-0.05,0-0.15,0.01-0.31,0.04v-0.13
					L252.27,185.02z M252.23,183.66c0.1,0,0.18,0.03,0.24,0.1c0.07,0.07,0.1,0.15,0.1,0.24c0,0.09-0.03,0.17-0.1,0.24
					c-0.07,0.07-0.15,0.1-0.24,0.1s-0.17-0.03-0.24-0.1c-0.07-0.07-0.1-0.15-0.1-0.24c0-0.1,0.03-0.18,0.1-0.24
					C252.05,183.7,252.13,183.66,252.23,183.66z"/>
			</g>
			<g style="clip-path:url(#SVGID_36_);">
				<path d="M244.11,177.42l0.07-0.22h2.54c1.07,0,1.87,0.12,2.39,0.37c0.52,0.25,0.93,0.63,1.24,1.16c0.31,0.53,0.46,1.09,0.46,1.7
					c0,0.52-0.09,1.02-0.27,1.51c-0.18,0.49-0.38,0.88-0.6,1.17c-0.22,0.29-0.57,0.62-1.03,0.97s-0.97,0.62-1.51,0.79
					c-0.54,0.17-1.22,0.25-2.03,0.25h-3.36l0.08-0.22c0.31-0.01,0.52-0.04,0.62-0.08c0.16-0.07,0.27-0.16,0.35-0.27
					c0.11-0.16,0.24-0.49,0.38-0.99l1.41-4.79c0.11-0.38,0.16-0.67,0.16-0.89c0-0.15-0.05-0.27-0.15-0.35
					c-0.1-0.08-0.3-0.12-0.6-0.12H244.11z M246.19,177.64l-1.72,5.93c-0.13,0.44-0.19,0.72-0.19,0.82c0,0.06,0.02,0.12,0.06,0.18
					c0.04,0.06,0.1,0.1,0.17,0.12c0.1,0.04,0.27,0.05,0.49,0.05c0.61,0,1.18-0.06,1.71-0.19c0.53-0.13,0.96-0.32,1.29-0.56
					c0.48-0.36,0.86-0.86,1.14-1.5s0.43-1.36,0.43-2.17c0-0.92-0.22-1.6-0.66-2.04c-0.44-0.45-1.08-0.67-1.92-0.67
					C246.78,177.62,246.51,177.62,246.19,177.64z"/>
			</g>
		</g>
		<g style="clip-path:url(#SVGID_34_);">
			<defs>
				<rect id="SVGID_37_" x="232.92" y="170.64" width="32.4" height="19.08"/>
			</defs>
			<clipPath id="SVGID_38_">
				<use xlink:href="#SVGID_37_"  style="overflow:visible;"/>
			</clipPath>
			<g style="clip-path:url(#SVGID_38_);">
			</g>
		</g>
	</g>
	<g>
		<defs>
			<polygon id="SVGID_39_" points="244.92,182.64 264.36,182.64 264.36,204.36 244.92,204.36 244.92,182.64 			"/>
		</defs>
		<clipPath id="SVGID_40_">
			<use xlink:href="#SVGID_39_"  style="overflow:visible;"/>
		</clipPath>
		<g style="clip-path:url(#SVGID_40_);">
			<defs>
				<rect id="SVGID_41_" x="244.92" y="182.64" width="19.44" height="21.72"/>
			</defs>
			<clipPath id="SVGID_42_">
				<use xlink:href="#SVGID_41_"  style="overflow:visible;"/>
			</clipPath>
			<g style="clip-path:url(#SVGID_42_);">
			</g>
		</g>
	</g>
	<g>
		<defs>
			<polygon id="SVGID_43_" points="244.92,182.64 264.36,182.64 264.36,204.36 244.92,204.36 244.92,182.64 			"/>
		</defs>
		<clipPath id="SVGID_44_">
			<use xlink:href="#SVGID_43_"  style="overflow:visible;"/>
		</clipPath>
		<g style="clip-path:url(#SVGID_44_);">
			<defs>
				<rect id="SVGID_45_" x="244.92" y="182.64" width="19.44" height="21.72"/>
			</defs>
			<clipPath id="SVGID_46_">
				<use xlink:href="#SVGID_45_"  style="overflow:visible;"/>
			</clipPath>
			<g style="clip-path:url(#SVGID_46_);">
			</g>
		</g>
	</g>
	
		<line style="fill:none;stroke:#000000;stroke-linecap:round;stroke-linejoin:round;stroke-miterlimit:8;" x1="204.9" y1="150.95" x2="218.55" y2="150.95"/>
	<polygon style="fill-rule:evenodd;clip-rule:evenodd;" points="217.55,147.95 221.55,150.95 217.55,153.95 217.55,147.95 	"/>
	
		<line style="fill:none;stroke:#000000;stroke-linecap:round;stroke-linejoin:round;stroke-miterlimit:8;" x1="205.4" y1="150.57" x2="217.24" y2="143.78"/>
	<polygon style="fill-rule:evenodd;clip-rule:evenodd;" points="214.88,141.67 219.85,142.28 217.87,146.88 214.88,141.67 	"/>
	
		<line style="fill:none;stroke:#000000;stroke-linecap:round;stroke-linejoin:round;stroke-miterlimit:8;" x1="204.69" y1="150.42" x2="211.55" y2="138.62"/>
	<polygon style="fill-rule:evenodd;clip-rule:evenodd;" points="208.46,137.98 213.06,136.03 213.64,140.99 208.46,137.98 	"/>
	
		<line style="fill:none;stroke:#000000;stroke-linecap:round;stroke-linejoin:round;stroke-miterlimit:8;" x1="204.83" y1="151.19" x2="216.63" y2="158.05"/>
	<polygon style="fill-rule:evenodd;clip-rule:evenodd;" points="217.27,154.96 219.22,159.56 214.26,160.14 217.27,154.96 	"/>
	
		<line style="fill:none;stroke:#000000;stroke-linecap:round;stroke-linejoin:round;stroke-miterlimit:8;" x1="204.18" y1="150.85" x2="210.97" y2="162.69"/>
	<polygon style="fill-rule:evenodd;clip-rule:evenodd;" points="213.08,160.33 212.47,165.3 207.87,163.32 213.08,160.33 	"/>
	
		<line style="fill:none;stroke:#000000;stroke-linecap:round;stroke-linejoin:round;stroke-miterlimit:8;" x1="221.05" y1="206.3" x2="207.4" y2="206.3"/>
	<polygon style="fill-rule:evenodd;clip-rule:evenodd;" points="208.4,209.3 204.4,206.3 208.4,203.3 208.4,209.3 	"/>
	
		<line style="fill:none;stroke:#000000;stroke-linecap:round;stroke-linejoin:round;stroke-miterlimit:8;" x1="220.55" y1="206.63" x2="208.71" y2="213.42"/>
	<polygon style="fill-rule:evenodd;clip-rule:evenodd;" points="211.06,215.53 206.1,214.92 208.08,210.32 211.06,215.53 	"/>
	
		<line style="fill:none;stroke:#000000;stroke-linecap:round;stroke-linejoin:round;stroke-miterlimit:8;" x1="221.26" y1="206.78" x2="214.4" y2="218.58"/>
	<polygon style="fill-rule:evenodd;clip-rule:evenodd;" points="217.49,219.22 212.89,221.17 212.31,216.21 217.49,219.22 	"/>
	
		<line style="fill:none;stroke:#000000;stroke-linecap:round;stroke-linejoin:round;stroke-miterlimit:8;" x1="221.12" y1="206.01" x2="209.32" y2="199.15"/>
	<polygon style="fill-rule:evenodd;clip-rule:evenodd;" points="208.68,202.25 206.73,197.64 211.69,197.06 208.68,202.25 	"/>
	
		<line style="fill:none;stroke:#000000;stroke-linecap:round;stroke-linejoin:round;stroke-miterlimit:8;" x1="221.77" y1="206.35" x2="214.98" y2="194.51"/>
	<polygon style="fill-rule:evenodd;clip-rule:evenodd;" points="212.87,196.87 213.48,191.9 218.08,193.88 212.87,196.87 	"/>
	<g>
		<defs>
			<polygon id="SVGID_47_" points="197.64,112.68 233.16,112.68 233.16,131.64 197.64,131.64 197.64,112.68 			"/>
		</defs>
		<clipPath id="SVGID_48_">
			<use xlink:href="#SVGID_47_"  style="overflow:visible;"/>
		</clipPath>
		<g style="clip-path:url(#SVGID_48_);">
			<defs>
				<polygon id="SVGID_49_" points="204.91,133.26 225.91,133.26 225.91,114.31 204.91,114.31 204.91,133.26 				"/>
			</defs>
			<clipPath id="SVGID_50_">
				<use xlink:href="#SVGID_49_"  style="overflow:visible;"/>
			</clipPath>
			<g style="clip-path:url(#SVGID_50_);">
				<path d="M216.76,119.95h3.59v0.34h-3.59V119.95z"/>
			</g>
			<g style="clip-path:url(#SVGID_50_);">
				<path d="M217.88,128.31h3.59v0.34h-3.59V128.31z"/>
			</g>
			<g style="clip-path:url(#SVGID_50_);">
				<path d="M221.89,126.11l1.13-0.55h0.11v3.9c0,0.26,0.01,0.42,0.03,0.49c0.02,0.06,0.07,0.11,0.14,0.15
					c0.07,0.03,0.21,0.05,0.42,0.06v0.13h-1.74v-0.13c0.22,0,0.36-0.02,0.42-0.06c0.06-0.03,0.11-0.08,0.13-0.13s0.04-0.22,0.04-0.5
					v-2.49c0-0.34-0.01-0.55-0.03-0.65c-0.02-0.07-0.04-0.13-0.09-0.16c-0.04-0.03-0.09-0.05-0.15-0.05c-0.08,0-0.2,0.04-0.35,0.11
					L221.89,126.11z"/>
			</g>
			<g style="clip-path:url(#SVGID_50_);">
				<path d="M217.02,127.19l-0.68,2.39c-0.05,0.16-0.07,0.26-0.07,0.29c0,0.04,0.01,0.07,0.03,0.09c0.02,0.02,0.05,0.03,0.08,0.03
					c0.03,0,0.08-0.02,0.12-0.05c0.13-0.1,0.26-0.25,0.39-0.44l0.12,0.08c-0.15,0.24-0.34,0.44-0.55,0.6
					c-0.15,0.12-0.3,0.18-0.44,0.18c-0.09,0-0.17-0.03-0.23-0.08c-0.06-0.05-0.09-0.13-0.09-0.21s0.03-0.22,0.09-0.42l0.44-1.53
					c0.07-0.25,0.11-0.41,0.11-0.47c0-0.05-0.02-0.09-0.05-0.12c-0.04-0.03-0.08-0.05-0.15-0.05c-0.05,0-0.15,0.01-0.31,0.04v-0.13
					L217.02,127.19z M216.98,125.84c0.1,0,0.18,0.03,0.24,0.1c0.07,0.07,0.1,0.15,0.1,0.24c0,0.09-0.03,0.17-0.1,0.24
					c-0.07,0.07-0.15,0.1-0.24,0.1s-0.17-0.03-0.24-0.1c-0.07-0.07-0.1-0.15-0.1-0.24c0-0.1,0.03-0.18,0.1-0.24
					C216.8,125.87,216.88,125.84,216.98,125.84z"/>
			</g>
			<g style="clip-path:url(#SVGID_50_);">
				<path d="M208.86,119.57l0.07-0.22h2.54c1.07,0,1.87,0.12,2.39,0.37s0.93,0.63,1.24,1.16c0.31,0.53,0.46,1.09,0.46,1.7
					c0,0.52-0.09,1.02-0.27,1.51c-0.18,0.49-0.38,0.88-0.6,1.17s-0.57,0.62-1.03,0.97s-0.97,0.62-1.51,0.79s-1.22,0.25-2.03,0.25
					h-3.36l0.08-0.22c0.31-0.01,0.52-0.04,0.62-0.08c0.16-0.07,0.27-0.16,0.35-0.27c0.11-0.16,0.24-0.49,0.38-0.99l1.41-4.79
					c0.11-0.38,0.16-0.67,0.16-0.89c0-0.15-0.05-0.27-0.15-0.35s-0.3-0.12-0.6-0.12H208.86z M210.94,119.79l-1.72,5.93
					c-0.13,0.44-0.19,0.72-0.19,0.82c0,0.06,0.02,0.12,0.06,0.18s0.1,0.1,0.17,0.12c0.1,0.04,0.27,0.05,0.49,0.05
					c0.61,0,1.18-0.06,1.71-0.19s0.96-0.31,1.29-0.56c0.48-0.36,0.86-0.86,1.14-1.5c0.29-0.63,0.43-1.36,0.43-2.17
					c0-0.92-0.22-1.6-0.66-2.04s-1.08-0.67-1.92-0.67C211.53,119.77,211.26,119.77,210.94,119.79z"/>
			</g>
		</g>
		<g style="clip-path:url(#SVGID_48_);">
			<defs>
				<rect id="SVGID_51_" x="197.64" y="112.68" width="35.52" height="18.96"/>
			</defs>
			<clipPath id="SVGID_52_">
				<use xlink:href="#SVGID_51_"  style="overflow:visible;"/>
			</clipPath>
			<g style="clip-path:url(#SVGID_52_);">
			</g>
		</g>
	</g>
	<g>
		<defs>
			<polygon id="SVGID_53_" points="198.96,170.64 234.36,170.64 234.36,189.6 198.96,189.6 198.96,170.64 			"/>
		</defs>
		<clipPath id="SVGID_54_">
			<use xlink:href="#SVGID_53_"  style="overflow:visible;"/>
		</clipPath>
		<g style="clip-path:url(#SVGID_54_);">
			<defs>
				<polygon id="SVGID_55_" points="206.21,191.21 227.21,191.21 227.21,172.26 206.21,172.26 206.21,191.21 				"/>
			</defs>
			<clipPath id="SVGID_56_">
				<use xlink:href="#SVGID_55_"  style="overflow:visible;"/>
			</clipPath>
			<g style="clip-path:url(#SVGID_56_);">
				<path d="M219.68,176.27h0.33v1.63h1.62v0.33h-1.62v1.62h-0.33v-1.62h-1.63v-0.33h1.63V176.27z"/>
			</g>
			<g style="clip-path:url(#SVGID_56_);">
				<path d="M219.18,186.25h3.59v0.34h-3.59V186.25z"/>
			</g>
			<g style="clip-path:url(#SVGID_56_);">
				<path d="M223.18,184.04l1.13-0.55h0.11v3.9c0,0.26,0.01,0.42,0.03,0.48c0.02,0.06,0.07,0.11,0.14,0.15
					c0.07,0.03,0.21,0.05,0.42,0.06v0.13h-1.74v-0.13c0.22,0,0.36-0.02,0.42-0.06c0.06-0.03,0.11-0.08,0.13-0.13s0.04-0.22,0.04-0.5
					v-2.5c0-0.34-0.01-0.55-0.03-0.65c-0.02-0.07-0.04-0.13-0.09-0.16c-0.04-0.03-0.09-0.05-0.15-0.05c-0.08,0-0.2,0.04-0.35,0.11
					L223.18,184.04z"/>
			</g>
			<g style="clip-path:url(#SVGID_56_);">
				<path d="M218.32,185.13l-0.68,2.39c-0.05,0.16-0.07,0.26-0.07,0.29c0,0.04,0.01,0.07,0.03,0.09c0.02,0.02,0.05,0.03,0.08,0.03
					c0.03,0,0.08-0.02,0.12-0.05c0.13-0.1,0.26-0.25,0.39-0.44l0.12,0.08c-0.15,0.24-0.34,0.44-0.55,0.6
					c-0.15,0.12-0.3,0.18-0.44,0.18c-0.09,0-0.17-0.03-0.23-0.08s-0.09-0.13-0.09-0.21s0.03-0.22,0.09-0.42l0.44-1.53
					c0.07-0.25,0.11-0.41,0.11-0.47c0-0.05-0.02-0.09-0.05-0.12c-0.04-0.03-0.08-0.05-0.15-0.05c-0.05,0-0.15,0.01-0.31,0.04v-0.13
					L218.32,185.13z M218.27,183.77c0.1,0,0.18,0.03,0.24,0.1c0.07,0.07,0.1,0.15,0.1,0.24c0,0.09-0.03,0.17-0.1,0.24
					c-0.07,0.07-0.15,0.1-0.24,0.1s-0.17-0.03-0.24-0.1c-0.07-0.07-0.1-0.15-0.1-0.24c0-0.1,0.03-0.18,0.1-0.24
					C218.1,183.81,218.18,183.77,218.27,183.77z"/>
			</g>
			<g style="clip-path:url(#SVGID_56_);">
				<path d="M210.15,177.52l0.07-0.22h2.54c1.07,0,1.87,0.12,2.39,0.37c0.52,0.25,0.93,0.63,1.24,1.16c0.31,0.53,0.46,1.09,0.46,1.7
					c0,0.52-0.09,1.02-0.27,1.51c-0.18,0.49-0.38,0.88-0.6,1.17c-0.22,0.29-0.57,0.62-1.03,0.97s-0.97,0.62-1.51,0.79
					c-0.54,0.17-1.22,0.25-2.03,0.25h-3.36l0.08-0.22c0.31-0.01,0.52-0.04,0.62-0.08c0.16-0.07,0.27-0.16,0.35-0.27
					c0.11-0.16,0.24-0.49,0.38-0.99l1.41-4.79c0.11-0.38,0.16-0.67,0.16-0.89c0-0.15-0.05-0.27-0.15-0.35
					c-0.1-0.08-0.3-0.12-0.6-0.12H210.15z M212.23,177.74l-1.72,5.93c-0.13,0.44-0.19,0.72-0.19,0.82c0,0.06,0.02,0.12,0.06,0.18
					c0.04,0.06,0.1,0.1,0.17,0.12c0.1,0.04,0.27,0.05,0.49,0.05c0.61,0,1.18-0.06,1.71-0.19c0.53-0.13,0.96-0.32,1.29-0.56
					c0.48-0.36,0.86-0.86,1.14-1.5s0.43-1.36,0.43-2.17c0-0.92-0.22-1.6-0.66-2.04c-0.44-0.45-1.08-0.67-1.92-0.67
					C212.83,177.72,212.56,177.73,212.23,177.74z"/>
			</g>
		</g>
		<g style="clip-path:url(#SVGID_54_);">
			<defs>
				<rect id="SVGID_57_" x="198.96" y="170.64" width="35.4" height="18.96"/>
			</defs>
			<clipPath id="SVGID_58_">
				<use xlink:href="#SVGID_57_"  style="overflow:visible;"/>
			</clipPath>
			<g style="clip-path:url(#SVGID_58_);">
			</g>
		</g>
	</g>
	<polygon style="fill:none;stroke:#000000;stroke-width:1.5;stroke-linecap:round;stroke-miterlimit:8;" points="280.6,25.15 
		280.6,235.1 284.8,235.1 284.8,25.15 280.6,25.15 	"/>
	<polygon style="fill:none;stroke:#000000;stroke-width:1.5;stroke-linecap:round;stroke-miterlimit:8;" points="176.7,25.5 
		176.7,235.45 180.9,235.45 180.9,25.5 176.7,25.5 	"/>
	<polygon style="fill:none;stroke:#000000;stroke-width:1.5;stroke-linecap:round;stroke-miterlimit:8;" points="99.9,25.05 
		99.9,235 104.1,235 104.1,25.05 99.9,25.05 	"/>
	<polygon style="fill:none;stroke:#000000;stroke-width:1.5;stroke-linecap:round;stroke-miterlimit:8;" points="348.8,25.5 
		348.8,235.45 353,235.45 353,25.5 348.8,25.5 	"/>
	<g>
		<defs>
			<polygon id="SVGID_59_" points="222.48,236.64 242.16,236.64 242.16,247.8 222.48,247.8 222.48,236.64 			"/>
		</defs>
		<clipPath id="SVGID_60_">
			<use xlink:href="#SVGID_59_"  style="overflow:visible;"/>
		</clipPath>
		<g style="clip-path:url(#SVGID_60_);">
			<defs>
				<rect id="SVGID_61_" x="222.48" y="236.64" width="19.68" height="11.16"/>
			</defs>
			<clipPath id="SVGID_62_">
				<use xlink:href="#SVGID_61_"  style="overflow:visible;"/>
			</clipPath>
			<g style="clip-path:url(#SVGID_62_);">
				<path d="M231.73,241.52v3.97c0,0.31,0.02,0.52,0.07,0.62c0.04,0.1,0.11,0.18,0.2,0.23c0.09,0.05,0.25,0.08,0.48,0.08v0.19h-2.4
					v-0.19c0.24,0,0.4-0.02,0.49-0.07c0.08-0.05,0.15-0.12,0.2-0.23c0.05-0.11,0.07-0.31,0.07-0.62v-1.9c0-0.54-0.02-0.88-0.05-1.04
					c-0.02-0.11-0.06-0.19-0.12-0.24c-0.05-0.04-0.13-0.07-0.22-0.07c-0.1,0-0.22,0.03-0.37,0.08l-0.08-0.19l1.49-0.6H231.73z
					 M231.28,238.94c0.15,0,0.28,0.05,0.39,0.16c0.11,0.11,0.16,0.24,0.16,0.39c0,0.15-0.05,0.28-0.16,0.39
					c-0.11,0.11-0.23,0.16-0.39,0.16s-0.28-0.05-0.39-0.16c-0.11-0.11-0.16-0.24-0.16-0.39c0-0.15,0.05-0.28,0.16-0.39
					C231,238.99,231.13,238.94,231.28,238.94z"/>
			</g>
		</g>
		<g style="clip-path:url(#SVGID_60_);">
			<defs>
				<rect id="SVGID_63_" x="222.48" y="236.64" width="19.68" height="11.16"/>
			</defs>
			<clipPath id="SVGID_64_">
				<use xlink:href="#SVGID_63_"  style="overflow:visible;"/>
			</clipPath>
			<g style="clip-path:url(#SVGID_64_);">
			</g>
		</g>
	</g>
	<g>
		<defs>
			<polygon id="SVGID_65_" points="268.68,236.64 301.68,236.64 301.68,247.8 268.68,247.8 268.68,236.64 			"/>
		</defs>
		<clipPath id="SVGID_66_">
			<use xlink:href="#SVGID_65_"  style="overflow:visible;"/>
		</clipPath>
		<g style="clip-path:url(#SVGID_66_);">
			<defs>
				<rect id="SVGID_67_" x="268.68" y="236.64" width="33" height="11.16"/>
			</defs>
			<clipPath id="SVGID_68_">
				<use xlink:href="#SVGID_67_"  style="overflow:visible;"/>
			</clipPath>
			<g style="clip-path:url(#SVGID_68_);">
				<path d="M277.94,241.52v3.97c0,0.31,0.02,0.52,0.07,0.62c0.04,0.1,0.11,0.18,0.2,0.23c0.09,0.05,0.25,0.08,0.48,0.08v0.19h-2.4
					v-0.19c0.24,0,0.4-0.02,0.49-0.07c0.08-0.05,0.15-0.12,0.2-0.23c0.05-0.11,0.07-0.31,0.07-0.62v-1.9c0-0.54-0.02-0.88-0.05-1.04
					c-0.03-0.11-0.07-0.19-0.12-0.24s-0.13-0.07-0.22-0.07c-0.1,0-0.22,0.03-0.37,0.08l-0.08-0.19l1.49-0.6H277.94z M277.49,238.94
					c0.15,0,0.28,0.05,0.39,0.16c0.11,0.11,0.16,0.24,0.16,0.39c0,0.15-0.05,0.28-0.16,0.39c-0.11,0.11-0.23,0.16-0.39,0.16
					c-0.15,0-0.28-0.05-0.39-0.16c-0.11-0.11-0.16-0.24-0.16-0.39c0-0.15,0.05-0.28,0.16-0.39
					C277.2,238.99,277.33,238.94,277.49,238.94z"/>
				<path d="M281.88,245.84v-2.69h-2.68v-0.44h2.68v-2.68h0.43v2.68h2.7v0.44h-2.7v2.69H281.88z"/>
				<path d="M286.53,240.01l1.78-0.87h0.18v6.17c0,0.41,0.02,0.67,0.05,0.77s0.11,0.18,0.21,0.23s0.33,0.08,0.66,0.09v0.2h-2.75
					v-0.2c0.35-0.01,0.57-0.04,0.67-0.09c0.1-0.05,0.17-0.12,0.21-0.21c0.04-0.09,0.06-0.35,0.06-0.79v-3.95
					c0-0.53-0.02-0.87-0.05-1.02c-0.03-0.11-0.07-0.2-0.14-0.25s-0.15-0.08-0.24-0.08c-0.13,0-0.32,0.06-0.55,0.17L286.53,240.01z"
					/>
			</g>
		</g>
		<g style="clip-path:url(#SVGID_66_);">
			<defs>
				<rect id="SVGID_69_" x="268.68" y="236.64" width="33" height="11.16"/>
			</defs>
			<clipPath id="SVGID_70_">
				<use xlink:href="#SVGID_69_"  style="overflow:visible;"/>
			</clipPath>
			<g style="clip-path:url(#SVGID_70_);">
			</g>
		</g>
	</g>
	<g>
		<defs>
			<polygon id="SVGID_71_" points="163.44,236.64 193.44,236.64 193.44,247.8 163.44,247.8 163.44,236.64 			"/>
		</defs>
		<clipPath id="SVGID_72_">
			<use xlink:href="#SVGID_71_"  style="overflow:visible;"/>
		</clipPath>
		<g style="clip-path:url(#SVGID_72_);">
			<defs>
				<rect id="SVGID_73_" x="163.44" y="236.64" width="30" height="11.16"/>
			</defs>
			<clipPath id="SVGID_74_">
				<use xlink:href="#SVGID_73_"  style="overflow:visible;"/>
			</clipPath>
			<g style="clip-path:url(#SVGID_74_);">
				<path d="M172.69,241.52v3.97c0,0.31,0.02,0.52,0.07,0.62c0.04,0.1,0.11,0.18,0.2,0.23c0.09,0.05,0.25,0.08,0.48,0.08v0.19h-2.4
					v-0.19c0.24,0,0.4-0.02,0.49-0.07c0.08-0.05,0.15-0.12,0.2-0.23c0.05-0.11,0.07-0.31,0.07-0.62v-1.9c0-0.54-0.02-0.88-0.05-1.04
					c-0.02-0.11-0.06-0.19-0.12-0.24c-0.05-0.04-0.13-0.07-0.22-0.07c-0.1,0-0.22,0.03-0.37,0.08l-0.08-0.19l1.49-0.6H172.69z
					 M172.25,238.94c0.15,0,0.28,0.05,0.39,0.16c0.11,0.11,0.16,0.24,0.16,0.39c0,0.15-0.05,0.28-0.16,0.39
					c-0.11,0.11-0.23,0.16-0.39,0.16s-0.28-0.05-0.39-0.16c-0.11-0.11-0.16-0.24-0.16-0.39c0-0.15,0.05-0.28,0.16-0.39
					C171.96,238.99,172.09,238.94,172.25,238.94z"/>
			</g>
		</g>
		<g style="clip-path:url(#SVGID_72_);">
			<defs>
				<rect id="SVGID_75_" x="163.44" y="236.64" width="30" height="11.16"/>
			</defs>
			<clipPath id="SVGID_76_">
				<use xlink:href="#SVGID_75_"  style="overflow:visible;"/>
			</clipPath>
			<g style="clip-path:url(#SVGID_76_);">
				<path d="M174.2,243.72h2.79v0.81h-2.79V243.72z"/>
			</g>
		</g>
		<g style="clip-path:url(#SVGID_72_);">
			<defs>
				<rect id="SVGID_77_" x="163.44" y="236.64" width="30" height="11.16"/>
			</defs>
			<clipPath id="SVGID_78_">
				<use xlink:href="#SVGID_77_"  style="overflow:visible;"/>
			</clipPath>
			<g style="clip-path:url(#SVGID_78_);">
				<path d="M178.54,240.01l1.78-0.87h0.18v6.17c0,0.41,0.02,0.67,0.05,0.77s0.1,0.18,0.21,0.23s0.33,0.08,0.66,0.09v0.2h-2.75v-0.2
					c0.34-0.01,0.57-0.04,0.67-0.09c0.1-0.05,0.17-0.12,0.21-0.21c0.04-0.09,0.06-0.35,0.06-0.79v-3.95c0-0.53-0.02-0.87-0.05-1.02
					c-0.02-0.11-0.07-0.2-0.14-0.25c-0.07-0.05-0.15-0.08-0.24-0.08c-0.13,0-0.32,0.06-0.56,0.17L178.54,240.01z"/>
			</g>
		</g>
		<g style="clip-path:url(#SVGID_72_);">
			<defs>
				<rect id="SVGID_79_" x="163.44" y="236.64" width="30" height="11.16"/>
			</defs>
			<clipPath id="SVGID_80_">
				<use xlink:href="#SVGID_79_"  style="overflow:visible;"/>
			</clipPath>
			<g style="clip-path:url(#SVGID_80_);">
			</g>
		</g>
	</g>
	<g>
		<defs>
			<polygon id="SVGID_81_" points="122.16,112.8 172.2,112.8 172.2,127.8 122.16,127.8 122.16,112.8 			"/>
		</defs>
		<clipPath id="SVGID_82_">
			<use xlink:href="#SVGID_81_"  style="overflow:visible;"/>
		</clipPath>
		<g style="clip-path:url(#SVGID_82_);">
			<defs>
				<rect id="SVGID_83_" x="122.16" y="112.8" width="50.04" height="15"/>
			</defs>
			<clipPath id="SVGID_84_">
				<use xlink:href="#SVGID_83_"  style="overflow:visible;"/>
			</clipPath>
			<g style="clip-path:url(#SVGID_84_);">
				<path d="M142.49,124.18c0.21,0,0.4,0.07,0.54,0.22c0.15,0.15,0.22,0.33,0.22,0.54c0,0.21-0.07,0.39-0.22,0.54
					s-0.33,0.22-0.54,0.22c-0.21,0-0.39-0.07-0.54-0.22c-0.15-0.15-0.22-0.33-0.22-0.54c0-0.21,0.07-0.4,0.22-0.54
					C142.1,124.25,142.28,124.18,142.49,124.18z M147.17,124.18c0.21,0,0.39,0.07,0.54,0.22c0.15,0.15,0.22,0.33,0.22,0.54
					c0,0.21-0.07,0.39-0.22,0.54s-0.33,0.22-0.54,0.22c-0.21,0-0.39-0.07-0.54-0.22s-0.22-0.33-0.22-0.54c0-0.21,0.07-0.4,0.22-0.54
					C146.78,124.25,146.96,124.18,147.17,124.18z M151.85,124.18c0.21,0,0.39,0.07,0.54,0.22c0.15,0.15,0.22,0.33,0.22,0.54
					c0,0.21-0.07,0.39-0.22,0.54s-0.33,0.22-0.54,0.22c-0.21,0-0.39-0.07-0.54-0.22s-0.22-0.33-0.22-0.54c0-0.21,0.07-0.4,0.22-0.54
					C151.46,124.25,151.64,124.18,151.85,124.18z"/>
			</g>
		</g>
		<g style="clip-path:url(#SVGID_82_);">
			<defs>
				<rect id="SVGID_85_" x="122.16" y="112.8" width="50.04" height="15"/>
			</defs>
			<clipPath id="SVGID_86_">
				<use xlink:href="#SVGID_85_"  style="overflow:visible;"/>
			</clipPath>
			<g style="clip-path:url(#SVGID_86_);">
			</g>
		</g>
	</g>
	<g>
		<defs>
			<polygon id="SVGID_87_" points="284.88,112.68 334.92,112.68 334.92,127.68 284.88,127.68 284.88,112.68 			"/>
		</defs>
		<clipPath id="SVGID_88_">
			<use xlink:href="#SVGID_87_"  style="overflow:visible;"/>
		</clipPath>
		<g style="clip-path:url(#SVGID_88_);">
			<defs>
				<rect id="SVGID_89_" x="284.88" y="112.68" width="50.04" height="15"/>
			</defs>
			<clipPath id="SVGID_90_">
				<use xlink:href="#SVGID_89_"  style="overflow:visible;"/>
			</clipPath>
			<g style="clip-path:url(#SVGID_90_);">
				<path d="M305.21,124.06c0.21,0,0.4,0.07,0.54,0.22c0.15,0.15,0.22,0.33,0.22,0.54c0,0.21-0.07,0.39-0.22,0.54
					s-0.33,0.22-0.54,0.22s-0.39-0.07-0.54-0.22s-0.22-0.33-0.22-0.54c0-0.21,0.07-0.4,0.22-0.54
					C304.82,124.13,305,124.06,305.21,124.06z M309.89,124.06c0.21,0,0.39,0.07,0.54,0.22c0.15,0.15,0.22,0.33,0.22,0.54
					c0,0.21-0.07,0.39-0.22,0.54c-0.15,0.15-0.33,0.22-0.54,0.22c-0.21,0-0.39-0.07-0.54-0.22s-0.22-0.33-0.22-0.54
					c0-0.21,0.07-0.4,0.22-0.54C309.5,124.13,309.68,124.06,309.89,124.06z M314.57,124.06c0.21,0,0.39,0.07,0.54,0.22
					c0.15,0.15,0.22,0.33,0.22,0.54c0,0.21-0.07,0.39-0.22,0.54s-0.33,0.22-0.54,0.22s-0.39-0.07-0.54-0.22s-0.22-0.33-0.22-0.54
					c0-0.21,0.07-0.4,0.22-0.54C314.18,124.13,314.36,124.06,314.57,124.06z"/>
			</g>
		</g>
		<g style="clip-path:url(#SVGID_88_);">
			<defs>
				<rect id="SVGID_91_" x="284.88" y="112.68" width="50.04" height="15"/>
			</defs>
			<clipPath id="SVGID_92_">
				<use xlink:href="#SVGID_91_"  style="overflow:visible;"/>
			</clipPath>
			<g style="clip-path:url(#SVGID_92_);">
			</g>
		</g>
	</g>
	<g>
		<defs>
			<polygon id="SVGID_93_" points="324.48,236.64 357.6,236.64 357.6,247.8 324.48,247.8 324.48,236.64 			"/>
		</defs>
		<clipPath id="SVGID_94_">
			<use xlink:href="#SVGID_93_"  style="overflow:visible;"/>
		</clipPath>
		<g style="clip-path:url(#SVGID_94_);">
			<defs>
				<rect id="SVGID_95_" x="324.48" y="236.64" width="33.12" height="11.16"/>
			</defs>
			<clipPath id="SVGID_96_">
				<use xlink:href="#SVGID_95_"  style="overflow:visible;"/>
			</clipPath>
			<g style="clip-path:url(#SVGID_96_);">
				<path d="M331.53,239.29h1.98l4.47,5.48v-4.22c0-0.45-0.05-0.73-0.15-0.84c-0.13-0.15-0.34-0.23-0.63-0.23h-0.25v-0.2h2.54v0.2
					h-0.26c-0.31,0-0.53,0.09-0.66,0.28c-0.08,0.12-0.12,0.38-0.12,0.79v6.16h-0.19l-4.82-5.89v4.5c0,0.45,0.05,0.73,0.15,0.84
					c0.14,0.15,0.35,0.23,0.63,0.23h0.26v0.2h-2.54v-0.2h0.25c0.31,0,0.53-0.09,0.66-0.28c0.08-0.12,0.12-0.38,0.12-0.79v-5.08
					c-0.21-0.25-0.37-0.41-0.48-0.49c-0.11-0.08-0.27-0.15-0.48-0.22c-0.1-0.03-0.26-0.05-0.47-0.05V239.29z"/>
				<path d="M345.93,244.58l0.18,0.04l-0.63,1.98h-5.66v-0.2h0.28c0.31,0,0.53-0.1,0.66-0.3c0.08-0.12,0.11-0.38,0.11-0.8v-4.72
					c0-0.46-0.05-0.74-0.15-0.86c-0.14-0.16-0.35-0.24-0.63-0.24h-0.28v-0.2h3.31v0.2c-0.39,0-0.66,0.03-0.82,0.11
					c-0.16,0.08-0.26,0.17-0.32,0.29s-0.09,0.39-0.09,0.83v4.59c0,0.3,0.03,0.5,0.09,0.61c0.04,0.08,0.11,0.13,0.2,0.17
					s0.37,0.05,0.84,0.05h0.53c0.56,0,0.95-0.04,1.18-0.12c0.23-0.08,0.43-0.23,0.62-0.44
					C345.56,245.37,345.75,245.03,345.93,244.58z"/>
			</g>
		</g>
		<g style="clip-path:url(#SVGID_94_);">
			<defs>
				<rect id="SVGID_97_" x="324.48" y="236.64" width="33.12" height="11.16"/>
			</defs>
			<clipPath id="SVGID_98_">
				<use xlink:href="#SVGID_97_"  style="overflow:visible;"/>
			</clipPath>
			<g style="clip-path:url(#SVGID_98_);">
			</g>
		</g>
	</g>
	<g>
		<defs>
			<polygon id="SVGID_99_" points="91.2,236.64 113.4,236.64 113.4,247.8 91.2,247.8 91.2,236.64 			"/>
		</defs>
		<clipPath id="SVGID_100_">
			<use xlink:href="#SVGID_99_"  style="overflow:visible;"/>
		</clipPath>
		<g style="clip-path:url(#SVGID_100_);">
			<defs>
				<rect id="SVGID_101_" x="91.2" y="236.64" width="22.2" height="11.16"/>
			</defs>
			<clipPath id="SVGID_102_">
				<use xlink:href="#SVGID_101_"  style="overflow:visible;"/>
			</clipPath>
			<g style="clip-path:url(#SVGID_102_);">
				<path d="M99.7,240.01l1.78-0.87h0.18v6.17c0,0.41,0.02,0.67,0.05,0.77s0.1,0.18,0.21,0.23s0.33,0.08,0.66,0.09v0.2h-2.75v-0.2
					c0.34-0.01,0.57-0.04,0.67-0.09c0.1-0.05,0.17-0.12,0.21-0.21c0.04-0.09,0.06-0.35,0.06-0.79v-3.95c0-0.53-0.02-0.87-0.05-1.02
					c-0.02-0.11-0.07-0.2-0.14-0.25c-0.07-0.05-0.15-0.08-0.24-0.08c-0.13,0-0.32,0.06-0.56,0.17L99.7,240.01z"/>
			</g>
		</g>
		<g style="clip-path:url(#SVGID_100_);">
			<defs>
				<rect id="SVGID_103_" x="91.2" y="236.64" width="22.2" height="11.16"/>
			</defs>
			<clipPath id="SVGID_104_">
				<use xlink:href="#SVGID_103_"  style="overflow:visible;"/>
			</clipPath>
			<g style="clip-path:url(#SVGID_104_);">
			</g>
		</g>
	</g>
	<g>
		<defs>
			<polygon id="SVGID_105_" points="20.4,130.92 72.24,130.92 72.24,143.4 20.4,143.4 20.4,130.92 			"/>
		</defs>
		<clipPath id="SVGID_106_">
			<use xlink:href="#SVGID_105_"  style="overflow:visible;"/>
		</clipPath>
		<g style="clip-path:url(#SVGID_106_);">
			<defs>
				<rect id="SVGID_107_" x="20.4" y="130.92" width="51.84" height="12.48"/>
			</defs>
			<clipPath id="SVGID_108_">
				<use xlink:href="#SVGID_107_"  style="overflow:visible;"/>
			</clipPath>
			<g style="clip-path:url(#SVGID_108_);">
				<path d="M31.64,133.4c0.95,0,1.77,0.36,2.47,1.08c0.7,0.72,1.04,1.62,1.04,2.7c0,1.11-0.35,2.03-1.05,2.77s-1.55,1.1-2.54,1.1
					c-1.01,0-1.85-0.36-2.54-1.07c-0.68-0.72-1.03-1.64-1.03-2.78c0-1.16,0.4-2.11,1.19-2.84C29.87,133.72,30.69,133.4,31.64,133.4z
					 M31.54,133.79c-0.65,0-1.18,0.24-1.57,0.73c-0.49,0.6-0.74,1.49-0.74,2.65c0,1.19,0.26,2.11,0.77,2.75
					c0.39,0.49,0.91,0.73,1.55,0.73c0.69,0,1.25-0.27,1.7-0.8c0.45-0.54,0.67-1.38,0.67-2.53c0-1.25-0.25-2.18-0.74-2.8
					C32.78,134.04,32.24,133.79,31.54,133.79z"/>
				<path d="M40.21,135.94v2.99c0,0.57,0.01,0.92,0.04,1.05c0.03,0.13,0.07,0.22,0.13,0.27c0.06,0.05,0.13,0.08,0.21,0.08
					c0.11,0,0.24-0.03,0.38-0.09l0.08,0.19l-1.48,0.61h-0.24v-1.05c-0.42,0.46-0.75,0.75-0.97,0.87c-0.22,0.12-0.46,0.18-0.71,0.18
					c-0.28,0-0.52-0.08-0.72-0.24s-0.34-0.37-0.42-0.62s-0.12-0.61-0.12-1.07v-2.21c0-0.23-0.02-0.4-0.08-0.49s-0.13-0.16-0.22-0.21
					c-0.1-0.05-0.28-0.07-0.54-0.07v-0.2h1.73v3.3c0,0.46,0.08,0.76,0.24,0.91c0.16,0.14,0.35,0.22,0.58,0.22
					c0.15,0,0.33-0.05,0.53-0.15c0.2-0.1,0.43-0.28,0.7-0.56v-2.8c0-0.28-0.05-0.47-0.15-0.57c-0.1-0.1-0.31-0.15-0.64-0.16v-0.2
					H40.21z"/>
				<path d="M42.83,134.32v1.62h1.15v0.38h-1.15v3.2c0,0.32,0.05,0.54,0.14,0.65c0.09,0.11,0.21,0.17,0.35,0.17
					c0.12,0,0.23-0.04,0.34-0.11c0.11-0.07,0.2-0.18,0.26-0.33h0.21c-0.13,0.35-0.3,0.62-0.53,0.8c-0.23,0.18-0.47,0.27-0.71,0.27
					c-0.17,0-0.33-0.05-0.49-0.14s-0.27-0.22-0.35-0.39c-0.08-0.17-0.11-0.43-0.11-0.79v-3.32h-0.78v-0.18
					c0.2-0.08,0.4-0.21,0.61-0.4c0.21-0.19,0.39-0.41,0.55-0.67c0.08-0.14,0.2-0.39,0.35-0.75H42.83z"/>
				<path d="M48,140.32c-0.24,0.25-0.48,0.43-0.71,0.54s-0.48,0.17-0.74,0.17c-0.54,0-1.01-0.23-1.41-0.68s-0.6-1.03-0.6-1.74
					s0.22-1.36,0.67-1.94c0.45-0.59,1.02-0.88,1.72-0.88c0.44,0,0.79,0.14,1.08,0.42v-0.91c0-0.56-0.01-0.91-0.04-1.04
					c-0.03-0.13-0.07-0.22-0.13-0.26c-0.06-0.05-0.13-0.07-0.22-0.07c-0.09,0-0.22,0.03-0.37,0.09l-0.07-0.19l1.47-0.6h0.24v5.71
					c0,0.58,0.01,0.93,0.04,1.06s0.07,0.22,0.13,0.27c0.06,0.05,0.13,0.08,0.21,0.08c0.1,0,0.23-0.03,0.39-0.09l0.06,0.19
					l-1.47,0.61H48V140.32z M48,139.94v-2.54c-0.02-0.25-0.09-0.47-0.19-0.67s-0.25-0.35-0.43-0.46c-0.18-0.1-0.35-0.15-0.52-0.15
					c-0.32,0-0.6,0.14-0.85,0.43c-0.33,0.37-0.49,0.92-0.49,1.64c0,0.73,0.16,1.28,0.47,1.67c0.32,0.39,0.67,0.58,1.06,0.58
					C47.38,140.43,47.69,140.27,48,139.94z"/>
				<path d="M52.45,135.79c0.75,0,1.35,0.28,1.8,0.85c0.38,0.49,0.58,1.04,0.58,1.67c0,0.44-0.11,0.89-0.32,1.34
					c-0.21,0.45-0.5,0.79-0.88,1.02c-0.37,0.23-0.79,0.35-1.24,0.35c-0.74,0-1.33-0.3-1.77-0.89c-0.37-0.5-0.56-1.06-0.56-1.68
					c0-0.45,0.11-0.9,0.34-1.35s0.52-0.78,0.89-0.99S52.04,135.79,52.45,135.79z M52.28,136.14c-0.19,0-0.38,0.06-0.57,0.17
					c-0.19,0.11-0.35,0.31-0.47,0.6c-0.12,0.28-0.18,0.65-0.18,1.09c0,0.72,0.14,1.34,0.43,1.86c0.29,0.52,0.66,0.78,1.13,0.78
					c0.35,0,0.64-0.14,0.86-0.43s0.34-0.78,0.34-1.48c0-0.88-0.19-1.57-0.57-2.07C53,136.32,52.67,136.14,52.28,136.14z"/>
				<path d="M57.97,135.79c0.75,0,1.35,0.28,1.8,0.85c0.38,0.49,0.58,1.04,0.58,1.67c0,0.44-0.11,0.89-0.32,1.34
					c-0.21,0.45-0.5,0.79-0.88,1.02c-0.37,0.23-0.79,0.35-1.24,0.35c-0.74,0-1.33-0.3-1.77-0.89c-0.37-0.5-0.56-1.06-0.56-1.68
					c0-0.45,0.11-0.9,0.34-1.35s0.52-0.78,0.89-0.99S57.56,135.79,57.97,135.79z M57.8,136.14c-0.19,0-0.38,0.06-0.57,0.17
					c-0.19,0.11-0.35,0.31-0.47,0.6c-0.12,0.28-0.18,0.65-0.18,1.09c0,0.72,0.14,1.34,0.43,1.86c0.29,0.52,0.66,0.78,1.13,0.78
					c0.35,0,0.64-0.14,0.86-0.43s0.34-0.78,0.34-1.48c0-0.88-0.19-1.57-0.57-2.07C58.52,136.32,58.19,136.14,57.8,136.14z"/>
				<path d="M62.52,135.79v1.11c0.41-0.74,0.84-1.11,1.27-1.11c0.2,0,0.36,0.06,0.49,0.18c0.13,0.12,0.19,0.26,0.19,0.42
					c0,0.14-0.05,0.26-0.14,0.36c-0.09,0.1-0.21,0.15-0.33,0.15c-0.13,0-0.27-0.06-0.42-0.19c-0.16-0.12-0.27-0.19-0.35-0.19
					c-0.06,0-0.13,0.04-0.21,0.11c-0.16,0.15-0.33,0.39-0.5,0.73v2.37c0,0.27,0.03,0.48,0.1,0.62c0.05,0.1,0.13,0.18,0.25,0.24
					s0.29,0.1,0.51,0.1v0.19h-2.53v-0.19c0.25,0,0.44-0.04,0.56-0.12c0.09-0.06,0.15-0.15,0.19-0.28c0.02-0.06,0.03-0.24,0.03-0.52
					v-1.91c0-0.57-0.01-0.92-0.04-1.03s-0.07-0.19-0.13-0.24c-0.06-0.05-0.14-0.08-0.23-0.08c-0.11,0-0.24,0.03-0.38,0.08
					l-0.05-0.19l1.49-0.6H62.52z"/>
			</g>
		</g>
		<g style="clip-path:url(#SVGID_106_);">
			<defs>
				<rect id="SVGID_109_" x="20.4" y="130.92" width="51.84" height="12.48"/>
			</defs>
			<clipPath id="SVGID_110_">
				<use xlink:href="#SVGID_109_"  style="overflow:visible;"/>
			</clipPath>
			<g style="clip-path:url(#SVGID_110_);">
			</g>
		</g>
	</g>
	<g>
		<defs>
			<polygon id="SVGID_111_" points="372,115.08 417.48,115.08 417.48,128.4 372,128.4 372,115.08 			"/>
		</defs>
		<clipPath id="SVGID_112_">
			<use xlink:href="#SVGID_111_"  style="overflow:visible;"/>
		</clipPath>
		<g style="clip-path:url(#SVGID_112_);">
			<defs>
				<rect id="SVGID_113_" x="372" y="115.08" width="45.48" height="13.32"/>
			</defs>
			<clipPath id="SVGID_114_">
				<use xlink:href="#SVGID_113_"  style="overflow:visible;"/>
			</clipPath>
			<g style="clip-path:url(#SVGID_114_);">
				<path d="M382.61,125.2v0.2h-3.13v-0.2h0.26c0.3,0,0.52-0.09,0.66-0.26c0.09-0.12,0.13-0.39,0.13-0.83v-4.72
					c0-0.37-0.02-0.61-0.07-0.73c-0.04-0.09-0.11-0.17-0.22-0.23c-0.16-0.09-0.32-0.13-0.5-0.13h-0.26v-0.2h3.13v0.2h-0.26
					c-0.3,0-0.52,0.09-0.65,0.26c-0.09,0.12-0.13,0.39-0.13,0.83v4.72c0,0.37,0.02,0.61,0.07,0.73c0.04,0.09,0.11,0.17,0.23,0.23
					c0.15,0.09,0.32,0.13,0.49,0.13H382.61z"/>
				<path d="M384.47,121.36c0.58-0.7,1.13-1.05,1.66-1.05c0.27,0,0.5,0.07,0.7,0.2s0.35,0.36,0.46,0.67
					c0.08,0.22,0.12,0.55,0.12,0.99v2.11c0,0.31,0.03,0.52,0.08,0.64c0.04,0.09,0.1,0.16,0.19,0.21s0.25,0.08,0.49,0.08v0.19h-2.44
					v-0.19h0.1c0.23,0,0.39-0.04,0.48-0.11c0.09-0.07,0.16-0.17,0.19-0.31c0.01-0.05,0.02-0.22,0.02-0.51v-2.02
					c0-0.45-0.06-0.78-0.17-0.98c-0.12-0.2-0.31-0.3-0.59-0.3c-0.43,0-0.85,0.23-1.28,0.7v2.6c0,0.33,0.02,0.54,0.06,0.62
					c0.05,0.1,0.12,0.18,0.21,0.23c0.09,0.05,0.27,0.07,0.54,0.07v0.19h-2.44v-0.19h0.11c0.25,0,0.42-0.06,0.51-0.19
					c0.09-0.13,0.13-0.37,0.13-0.73v-1.83c0-0.59-0.01-0.95-0.04-1.08s-0.07-0.22-0.12-0.26c-0.06-0.05-0.13-0.07-0.22-0.07
					c-0.1,0-0.22,0.03-0.36,0.08l-0.08-0.19l1.49-0.6h0.23V121.36z"/>
				<path d="M392.04,124.84c-0.24,0.25-0.48,0.43-0.71,0.54c-0.23,0.11-0.48,0.16-0.74,0.16c-0.54,0-1.01-0.23-1.41-0.68
					c-0.4-0.45-0.6-1.03-0.6-1.74s0.22-1.36,0.67-1.94c0.45-0.59,1.02-0.88,1.72-0.88c0.43,0,0.79,0.14,1.08,0.42v-0.91
					c0-0.56-0.01-0.91-0.04-1.04c-0.03-0.13-0.07-0.22-0.13-0.26c-0.06-0.05-0.13-0.07-0.22-0.07c-0.09,0-0.22,0.03-0.37,0.09
					l-0.07-0.19l1.47-0.6h0.24v5.71c0,0.58,0.01,0.93,0.04,1.06s0.07,0.22,0.13,0.27c0.06,0.05,0.13,0.08,0.21,0.08
					c0.1,0,0.23-0.03,0.39-0.09l0.06,0.19l-1.47,0.61h-0.25V124.84z M392.04,124.47v-2.54c-0.02-0.24-0.09-0.47-0.19-0.67
					c-0.11-0.2-0.25-0.35-0.43-0.46c-0.18-0.1-0.35-0.15-0.52-0.15c-0.32,0-0.6,0.14-0.85,0.43c-0.33,0.37-0.49,0.92-0.49,1.64
					c0,0.73,0.16,1.28,0.47,1.67s0.67,0.58,1.06,0.58C391.42,124.96,391.74,124.79,392.04,124.47z"/>
				<path d="M396.49,120.32c0.75,0,1.35,0.28,1.8,0.85c0.38,0.48,0.58,1.04,0.58,1.67c0,0.44-0.11,0.89-0.32,1.34
					s-0.5,0.79-0.88,1.02c-0.37,0.23-0.79,0.34-1.24,0.34c-0.74,0-1.34-0.3-1.77-0.89c-0.37-0.5-0.55-1.06-0.55-1.68
					c0-0.45,0.11-0.9,0.34-1.35c0.22-0.45,0.52-0.78,0.89-0.99S396.08,120.32,396.49,120.32z M396.32,120.67
					c-0.19,0-0.38,0.06-0.57,0.17c-0.19,0.11-0.35,0.31-0.47,0.6c-0.12,0.28-0.18,0.65-0.18,1.09c0,0.72,0.14,1.34,0.43,1.86
					c0.29,0.52,0.66,0.78,1.13,0.78c0.35,0,0.64-0.14,0.86-0.43s0.34-0.78,0.34-1.48c0-0.88-0.19-1.57-0.57-2.07
					C397.04,120.84,396.72,120.67,396.32,120.67z"/>
				<path d="M402.01,120.32c0.75,0,1.35,0.28,1.8,0.85c0.38,0.48,0.58,1.04,0.58,1.67c0,0.44-0.11,0.89-0.32,1.34
					s-0.5,0.79-0.88,1.02c-0.37,0.23-0.79,0.34-1.24,0.34c-0.74,0-1.34-0.3-1.77-0.89c-0.37-0.5-0.55-1.06-0.55-1.68
					c0-0.45,0.11-0.9,0.34-1.35c0.22-0.45,0.52-0.78,0.89-0.99S401.6,120.32,402.01,120.32z M401.84,120.67
					c-0.19,0-0.38,0.06-0.57,0.17c-0.19,0.11-0.35,0.31-0.47,0.6c-0.12,0.28-0.18,0.65-0.18,1.09c0,0.72,0.14,1.34,0.43,1.86
					c0.29,0.52,0.66,0.78,1.13,0.78c0.35,0,0.64-0.14,0.86-0.43s0.34-0.78,0.34-1.48c0-0.88-0.19-1.57-0.57-2.07
					C402.56,120.84,402.24,120.67,401.84,120.67z"/>
				<path d="M406.56,120.32v1.11c0.41-0.74,0.84-1.11,1.27-1.11c0.2,0,0.36,0.06,0.49,0.18c0.13,0.12,0.19,0.26,0.19,0.42
					c0,0.14-0.05,0.26-0.14,0.36c-0.09,0.1-0.21,0.15-0.33,0.15c-0.13,0-0.27-0.06-0.42-0.19c-0.16-0.12-0.27-0.19-0.35-0.19
					c-0.06,0-0.13,0.04-0.21,0.11c-0.16,0.15-0.33,0.39-0.5,0.73v2.37c0,0.27,0.03,0.48,0.1,0.62c0.05,0.1,0.13,0.18,0.25,0.24
					c0.12,0.06,0.29,0.1,0.51,0.1v0.19h-2.53v-0.19c0.25,0,0.44-0.04,0.56-0.12c0.09-0.06,0.15-0.15,0.19-0.27
					c0.02-0.06,0.03-0.24,0.03-0.52v-1.91c0-0.58-0.01-0.92-0.04-1.03c-0.02-0.11-0.07-0.19-0.13-0.24
					c-0.06-0.05-0.14-0.08-0.23-0.08c-0.11,0-0.24,0.03-0.38,0.08l-0.05-0.19l1.49-0.6H406.56z"/>
			</g>
		</g>
		<g style="clip-path:url(#SVGID_112_);">
			<defs>
				<rect id="SVGID_115_" x="372" y="115.08" width="45.48" height="13.32"/>
			</defs>
			<clipPath id="SVGID_116_">
				<use xlink:href="#SVGID_115_"  style="overflow:visible;"/>
			</clipPath>
			<g style="clip-path:url(#SVGID_116_);">
			</g>
		</g>
	</g>
	
		<polygon style="fill:none;stroke:#000000;stroke-width:0.75;stroke-linecap:round;stroke-linejoin:round;stroke-miterlimit:8;" points="
		87.91,41.3 87.91,43.9 68,43.9 68,49.1 87.91,49.1 87.91,51.7 94.55,46.5 87.91,41.3 	"/>
	
		<polygon style="fill:none;stroke:#000000;stroke-width:0.75;stroke-linecap:round;stroke-linejoin:round;stroke-miterlimit:8;" points="
		129.11,43.5 129.11,46.1 109.2,46.1 109.2,51.3 129.11,51.3 129.11,53.9 135.75,48.7 129.11,43.5 	"/>
	
		<polygon style="fill:none;stroke:#000000;stroke-width:0.75;stroke-linecap:round;stroke-linejoin:round;stroke-miterlimit:8;" points="
		113.44,88.3 113.44,85.7 133.35,85.7 133.35,80.5 113.44,80.5 113.44,77.9 106.8,83.1 113.44,88.3 	"/>
	
		<polygon style="fill:none;stroke:#000000;stroke-width:0.75;stroke-linecap:round;stroke-linejoin:round;stroke-miterlimit:8;" points="
		74.64,88.1 74.64,85.5 94.55,85.5 94.55,80.3 74.64,80.3 74.64,77.7 68,82.9 74.64,88.1 	"/>
	
		<polygon style="fill:none;stroke:#000000;stroke-width:0.75;stroke-linecap:round;stroke-linejoin:round;stroke-miterlimit:8;" points="
		337.36,42.9 337.36,45.5 317.45,45.5 317.45,50.7 337.36,50.7 337.36,53.3 344,48.1 337.36,42.9 	"/>
	
		<polygon style="fill:none;stroke:#000000;stroke-width:0.75;stroke-linecap:round;stroke-linejoin:round;stroke-miterlimit:8;" points="
		378.56,42.9 378.56,45.5 358.65,45.5 358.65,50.7 378.56,50.7 378.56,53.3 385.2,48.1 378.56,42.9 	"/>
	
		<polygon style="fill:none;stroke:#000000;stroke-width:0.75;stroke-linecap:round;stroke-linejoin:round;stroke-miterlimit:8;" points="
		362.89,87.7 362.89,85.1 382.8,85.1 382.8,79.9 362.89,79.9 362.89,77.3 356.25,82.5 362.89,87.7 	"/>
	
		<polygon style="fill:none;stroke:#000000;stroke-width:0.75;stroke-linecap:round;stroke-linejoin:round;stroke-miterlimit:8;" points="
		324.09,87.5 324.09,84.9 344,84.9 344,79.7 324.09,79.7 324.09,77.1 317.45,82.3 324.09,87.5 	"/>
	
		<line style="fill:none;stroke:#000000;stroke-linecap:round;stroke-linejoin:round;stroke-miterlimit:8;" x1="359.85" y1="148.6" x2="373.5" y2="148.6"/>
	<polygon style="fill-rule:evenodd;clip-rule:evenodd;" points="372.5,145.6 376.5,148.6 372.5,151.6 372.5,145.6 	"/>
	
		<line style="fill:none;stroke:#000000;stroke-linecap:round;stroke-linejoin:round;stroke-miterlimit:8;" x1="360.35" y1="148.22" x2="372.19" y2="141.43"/>
	<polygon style="fill-rule:evenodd;clip-rule:evenodd;" points="369.83,139.32 374.8,139.93 372.82,144.53 369.83,139.32 	"/>
	
		<line style="fill:none;stroke:#000000;stroke-linecap:round;stroke-linejoin:round;stroke-miterlimit:8;" x1="359.64" y1="148.07" x2="366.5" y2="136.27"/>
	<polygon style="fill-rule:evenodd;clip-rule:evenodd;" points="363.41,135.63 368.01,133.68 368.59,138.64 363.41,135.63 	"/>
	
		<line style="fill:none;stroke:#000000;stroke-linecap:round;stroke-linejoin:round;stroke-miterlimit:8;" x1="359.78" y1="148.84" x2="371.58" y2="155.7"/>
	<polygon style="fill-rule:evenodd;clip-rule:evenodd;" points="372.22,152.61 374.17,157.21 369.21,157.79 372.22,152.61 	"/>
	
		<line style="fill:none;stroke:#000000;stroke-linecap:round;stroke-linejoin:round;stroke-miterlimit:8;" x1="359.13" y1="148.5" x2="365.92" y2="160.34"/>
	<polygon style="fill-rule:evenodd;clip-rule:evenodd;" points="368.03,157.99 367.42,162.95 362.82,160.97 368.03,157.99 	"/>
	
		<line style="fill:none;stroke:#000000;stroke-linecap:round;stroke-linejoin:round;stroke-miterlimit:8;" x1="325.85" y1="148.55" x2="339.5" y2="148.55"/>
	<polygon style="fill-rule:evenodd;clip-rule:evenodd;" points="338.5,145.55 342.5,148.55 338.5,151.55 338.5,145.55 	"/>
	
		<line style="fill:none;stroke:#000000;stroke-linecap:round;stroke-linejoin:round;stroke-miterlimit:8;" x1="326.35" y1="148.17" x2="338.19" y2="141.38"/>
	<polygon style="fill-rule:evenodd;clip-rule:evenodd;" points="335.83,139.27 340.8,139.88 338.82,144.48 335.83,139.27 	"/>
	
		<line style="fill:none;stroke:#000000;stroke-linecap:round;stroke-linejoin:round;stroke-miterlimit:8;" x1="325.64" y1="148.02" x2="332.5" y2="136.22"/>
	<polygon style="fill-rule:evenodd;clip-rule:evenodd;" points="329.41,135.58 334.01,133.63 334.59,138.59 329.41,135.58 	"/>
	
		<line style="fill:none;stroke:#000000;stroke-linecap:round;stroke-linejoin:round;stroke-miterlimit:8;" x1="325.78" y1="148.79" x2="337.58" y2="155.65"/>
	<polygon style="fill-rule:evenodd;clip-rule:evenodd;" points="338.22,152.56 340.17,157.16 335.21,157.74 338.22,152.56 	"/>
	
		<line style="fill:none;stroke:#000000;stroke-linecap:round;stroke-linejoin:round;stroke-miterlimit:8;" x1="325.13" y1="148.45" x2="331.92" y2="160.29"/>
	<polygon style="fill-rule:evenodd;clip-rule:evenodd;" points="334.03,157.93 333.42,162.9 328.82,160.92 334.03,157.93 	"/>
	
		<line style="fill:none;stroke:#000000;stroke-linecap:round;stroke-linejoin:round;stroke-miterlimit:8;" x1="374.05" y1="198.8" x2="360.4" y2="198.8"/>
	<polygon style="fill-rule:evenodd;clip-rule:evenodd;" points="361.4,201.8 357.4,198.8 361.4,195.8 361.4,201.8 	"/>
	
		<line style="fill:none;stroke:#000000;stroke-linecap:round;stroke-linejoin:round;stroke-miterlimit:8;" x1="373.55" y1="199.13" x2="361.71" y2="205.92"/>
	<polygon style="fill-rule:evenodd;clip-rule:evenodd;" points="364.07,208.03 359.1,207.42 361.08,202.82 364.07,208.03 	"/>
	
		<line style="fill:none;stroke:#000000;stroke-linecap:round;stroke-linejoin:round;stroke-miterlimit:8;" x1="374.26" y1="199.28" x2="367.4" y2="211.08"/>
	<polygon style="fill-rule:evenodd;clip-rule:evenodd;" points="370.49,211.72 365.89,213.67 365.31,208.71 370.49,211.72 	"/>
	
		<line style="fill:none;stroke:#000000;stroke-linecap:round;stroke-linejoin:round;stroke-miterlimit:8;" x1="374.12" y1="198.51" x2="362.32" y2="191.65"/>
	<polygon style="fill-rule:evenodd;clip-rule:evenodd;" points="361.68,194.75 359.73,190.14 364.69,189.56 361.68,194.75 	"/>
	
		<line style="fill:none;stroke:#000000;stroke-linecap:round;stroke-linejoin:round;stroke-miterlimit:8;" x1="374.77" y1="198.85" x2="367.98" y2="187.01"/>
	<polygon style="fill-rule:evenodd;clip-rule:evenodd;" points="365.87,189.37 366.48,184.4 371.08,186.38 365.87,189.37 	"/>
	
		<line style="fill:none;stroke:#000000;stroke-linecap:round;stroke-linejoin:round;stroke-miterlimit:8;" x1="340.05" y1="198.75" x2="326.4" y2="198.75"/>
	<polygon style="fill-rule:evenodd;clip-rule:evenodd;" points="327.4,201.75 323.4,198.75 327.4,195.75 327.4,201.75 	"/>
	
		<line style="fill:none;stroke:#000000;stroke-linecap:round;stroke-linejoin:round;stroke-miterlimit:8;" x1="339.55" y1="199.08" x2="327.71" y2="205.87"/>
	<polygon style="fill-rule:evenodd;clip-rule:evenodd;" points="330.07,207.98 325.1,207.37 327.08,202.77 330.07,207.98 	"/>
	
		<line style="fill:none;stroke:#000000;stroke-linecap:round;stroke-linejoin:round;stroke-miterlimit:8;" x1="340.26" y1="199.23" x2="333.4" y2="211.03"/>
	<polygon style="fill-rule:evenodd;clip-rule:evenodd;" points="336.49,211.67 331.89,213.62 331.31,208.66 336.49,211.67 	"/>
	
		<line style="fill:none;stroke:#000000;stroke-linecap:round;stroke-linejoin:round;stroke-miterlimit:8;" x1="340.12" y1="198.46" x2="328.32" y2="191.6"/>
	<polygon style="fill-rule:evenodd;clip-rule:evenodd;" points="327.68,194.69 325.73,190.09 330.69,189.51 327.68,194.69 	"/>
	
		<line style="fill:none;stroke:#000000;stroke-linecap:round;stroke-linejoin:round;stroke-miterlimit:8;" x1="340.77" y1="198.8" x2="333.98" y2="186.96"/>
	<polygon style="fill-rule:evenodd;clip-rule:evenodd;" points="331.87,189.32 332.48,184.35 337.08,186.33 331.87,189.32 	"/>
	
		<line style="fill:none;stroke:#000000;stroke-linecap:round;stroke-linejoin:round;stroke-miterlimit:8;" x1="110.4" y1="149.75" x2="124.05" y2="149.75"/>
	<polygon style="fill-rule:evenodd;clip-rule:evenodd;" points="123.05,146.75 127.05,149.75 123.05,152.75 123.05,146.75 	"/>
	
		<line style="fill:none;stroke:#000000;stroke-linecap:round;stroke-linejoin:round;stroke-miterlimit:8;" x1="110.9" y1="149.37" x2="122.74" y2="142.58"/>
	<polygon style="fill-rule:evenodd;clip-rule:evenodd;" points="120.38,140.47 125.35,141.08 123.37,145.68 120.38,140.47 	"/>
	
		<line style="fill:none;stroke:#000000;stroke-linecap:round;stroke-linejoin:round;stroke-miterlimit:8;" x1="110.19" y1="149.22" x2="117.05" y2="137.42"/>
	<polygon style="fill-rule:evenodd;clip-rule:evenodd;" points="113.96,136.78 118.56,134.83 119.14,139.79 113.96,136.78 	"/>
	
		<line style="fill:none;stroke:#000000;stroke-linecap:round;stroke-linejoin:round;stroke-miterlimit:8;" x1="110.33" y1="149.99" x2="122.13" y2="156.85"/>
	<polygon style="fill-rule:evenodd;clip-rule:evenodd;" points="122.77,153.75 124.72,158.36 119.76,158.94 122.77,153.75 	"/>
	
		<line style="fill:none;stroke:#000000;stroke-linecap:round;stroke-linejoin:round;stroke-miterlimit:8;" x1="109.68" y1="149.65" x2="116.47" y2="161.5"/>
	<polygon style="fill-rule:evenodd;clip-rule:evenodd;" points="118.58,159.13 117.97,164.1 113.37,162.12 118.58,159.13 	"/>
	
		<line style="fill:none;stroke:#000000;stroke-linecap:round;stroke-linejoin:round;stroke-miterlimit:8;" x1="76.4" y1="149.7" x2="90.05" y2="149.7"/>
	<polygon style="fill-rule:evenodd;clip-rule:evenodd;" points="89.05,146.7 93.05,149.7 89.05,152.7 89.05,146.7 	"/>
	
		<line style="fill:none;stroke:#000000;stroke-linecap:round;stroke-linejoin:round;stroke-miterlimit:8;" x1="76.9" y1="149.32" x2="88.74" y2="142.53"/>
	<polygon style="fill-rule:evenodd;clip-rule:evenodd;" points="86.38,140.42 91.35,141.03 89.37,145.63 86.38,140.42 	"/>
	
		<line style="fill:none;stroke:#000000;stroke-linecap:round;stroke-linejoin:round;stroke-miterlimit:8;" x1="76.19" y1="149.17" x2="83.05" y2="137.37"/>
	<polygon style="fill-rule:evenodd;clip-rule:evenodd;" points="79.96,136.73 84.56,134.78 85.14,139.74 79.96,136.73 	"/>
	
		<line style="fill:none;stroke:#000000;stroke-linecap:round;stroke-linejoin:round;stroke-miterlimit:8;" x1="76.33" y1="149.94" x2="88.13" y2="156.8"/>
	<polygon style="fill-rule:evenodd;clip-rule:evenodd;" points="88.77,153.71 90.72,158.31 85.76,158.89 88.77,153.71 	"/>
	
		<line style="fill:none;stroke:#000000;stroke-linecap:round;stroke-linejoin:round;stroke-miterlimit:8;" x1="75.68" y1="149.6" x2="82.47" y2="161.44"/>
	<polygon style="fill-rule:evenodd;clip-rule:evenodd;" points="84.58,159.08 83.97,164.05 79.37,162.07 84.58,159.08 	"/>
	
		<line style="fill:none;stroke:#000000;stroke-linecap:round;stroke-linejoin:round;stroke-miterlimit:8;" x1="124.6" y1="199.95" x2="110.95" y2="199.95"/>
	<polygon style="fill-rule:evenodd;clip-rule:evenodd;" points="111.95,202.95 107.95,199.95 111.95,196.95 111.95,202.95 	"/>
	
		<line style="fill:none;stroke:#000000;stroke-linecap:round;stroke-linejoin:round;stroke-miterlimit:8;" x1="124.1" y1="200.28" x2="112.26" y2="207.07"/>
	<polygon style="fill-rule:evenodd;clip-rule:evenodd;" points="114.62,209.18 109.65,208.57 111.63,203.97 114.62,209.18 	"/>
	
		<line style="fill:none;stroke:#000000;stroke-linecap:round;stroke-linejoin:round;stroke-miterlimit:8;" x1="124.81" y1="200.43" x2="117.95" y2="212.23"/>
	<polygon style="fill-rule:evenodd;clip-rule:evenodd;" points="121.04,212.87 116.44,214.82 115.86,209.86 121.04,212.87 	"/>
	
		<line style="fill:none;stroke:#000000;stroke-linecap:round;stroke-linejoin:round;stroke-miterlimit:8;" x1="124.67" y1="199.66" x2="112.87" y2="192.8"/>
	<polygon style="fill-rule:evenodd;clip-rule:evenodd;" points="112.23,195.89 110.28,191.29 115.24,190.71 112.23,195.89 	"/>
	
		<line style="fill:none;stroke:#000000;stroke-linecap:round;stroke-linejoin:round;stroke-miterlimit:8;" x1="125.32" y1="200" x2="118.53" y2="188.16"/>
	<polygon style="fill-rule:evenodd;clip-rule:evenodd;" points="116.42,190.52 117.03,185.55 121.63,187.53 116.42,190.52 	"/>
	
		<line style="fill:none;stroke:#000000;stroke-linecap:round;stroke-linejoin:round;stroke-miterlimit:8;" x1="90.65" y1="199.9" x2="77" y2="199.9"/>
	<polygon style="fill-rule:evenodd;clip-rule:evenodd;" points="78,202.9 74,199.9 78,196.9 78,202.9 	"/>
	
		<line style="fill:none;stroke:#000000;stroke-linecap:round;stroke-linejoin:round;stroke-miterlimit:8;" x1="90.15" y1="200.23" x2="78.31" y2="207.02"/>
	<polygon style="fill-rule:evenodd;clip-rule:evenodd;" points="80.67,209.13 75.7,208.52 77.68,203.92 80.67,209.13 	"/>
	
		<line style="fill:none;stroke:#000000;stroke-linecap:round;stroke-linejoin:round;stroke-miterlimit:8;" x1="90.86" y1="200.38" x2="84" y2="212.18"/>
	<polygon style="fill-rule:evenodd;clip-rule:evenodd;" points="87.09,212.82 82.49,214.77 81.91,209.81 87.09,212.82 	"/>
	
		<line style="fill:none;stroke:#000000;stroke-linecap:round;stroke-linejoin:round;stroke-miterlimit:8;" x1="90.72" y1="199.61" x2="78.92" y2="192.75"/>
	<polygon style="fill-rule:evenodd;clip-rule:evenodd;" points="78.28,195.84 76.33,191.24 81.29,190.66 78.28,195.84 	"/>
	
		<line style="fill:none;stroke:#000000;stroke-linecap:round;stroke-linejoin:round;stroke-miterlimit:8;" x1="91.37" y1="199.95" x2="84.58" y2="188.11"/>
	<polygon style="fill-rule:evenodd;clip-rule:evenodd;" points="82.47,190.46 83.08,185.5 87.68,187.48 82.47,190.46 	"/>
	<polygon style="fill-rule:evenodd;clip-rule:evenodd;fill:#FF0000;" points="62.25,113.25 58.25,111.05 61.1,107.45 56.55,106.95 
		57.8,102.55 53.4,103.8 52.9,99.25 49.3,102.1 47.1,98.1 44.9,102.1 41.3,99.25 40.8,103.8 36.4,102.55 37.65,106.95 33.1,107.45 
		35.95,111.05 31.95,113.25 35.95,115.5 33.1,119.05 37.65,119.6 36.4,124 40.8,122.7 41.3,127.25 44.9,124.4 47.1,128.45 
		49.3,124.4 52.9,127.25 53.4,122.7 57.8,124 56.55,119.6 61.1,119.05 58.25,115.5 62.25,113.25 62.25,113.25 	"/>
	<polygon style="fill-rule:evenodd;clip-rule:evenodd;fill:#FF0000;" points="62.25,113.25 58.25,111.05 61.1,107.45 56.55,106.95 
		57.8,102.55 53.4,103.8 52.9,99.25 49.3,102.1 47.1,98.1 44.9,102.1 41.3,99.25 40.8,103.8 36.4,102.55 37.65,106.95 33.1,107.45 
		35.95,111.05 31.95,113.25 35.95,115.5 33.1,119.05 37.65,119.6 36.4,124 40.8,122.7 41.3,127.25 44.9,124.4 47.1,128.45 
		49.3,124.4 52.9,127.25 53.4,122.7 57.8,124 56.55,119.6 61.1,119.05 58.25,115.5 62.25,113.25 62.25,113.25 	"/>
	
		<polygon style="fill:none;stroke:#000000;stroke-width:0.12;stroke-linecap:round;stroke-linejoin:round;stroke-miterlimit:8;" points="
		62.25,113.25 58.25,111.05 61.1,107.45 56.55,106.95 57.8,102.55 53.4,103.8 52.9,99.25 49.3,102.1 47.1,98.1 44.9,102.1 
		41.3,99.25 40.8,103.8 36.4,102.55 37.65,106.95 33.1,107.45 35.95,111.05 31.95,113.25 35.95,115.5 33.1,119.05 37.65,119.6 
		36.4,124 40.8,122.7 41.3,127.25 44.9,124.4 47.1,128.45 49.3,124.4 52.9,127.25 53.4,122.7 57.8,124 56.55,119.6 61.1,119.05 
		58.25,115.5 62.25,113.25 62.25,113.25 	"/>
	<path style="fill-rule:evenodd;clip-rule:evenodd;fill:#FFFF00;" d="M47.13,104.2c-4.98,0-9.02,4.05-9.02,9.05s4.04,9.05,9.02,9.05
		c4.98,0,9.02-4.05,9.02-9.05S52.11,104.2,47.13,104.2L47.13,104.2z"/>
	<path style="fill:none;stroke:#000000;stroke-width:0.12;stroke-linecap:round;stroke-linejoin:round;stroke-miterlimit:8;" d="
		M47.13,104.2c-4.98,0-9.02,4.05-9.02,9.05s4.04,9.05,9.02,9.05c4.98,0,9.02-4.05,9.02-9.05S52.11,104.2,47.13,104.2L47.13,104.2z"
		/>
	<path style="fill-rule:evenodd;clip-rule:evenodd;fill:#FFFF00;" d="M47.13,104.2c-4.98,0-9.02,4.05-9.02,9.05s4.04,9.05,9.02,9.05
		c4.98,0,9.02-4.05,9.02-9.05S52.11,104.2,47.13,104.2L47.13,104.2z"/>
	<path style="fill:none;stroke:#000000;stroke-width:0.12;stroke-linecap:round;stroke-linejoin:round;stroke-miterlimit:8;" d="
		M47.13,104.2c-4.98,0-9.02,4.05-9.02,9.05s4.04,9.05,9.02,9.05c4.98,0,9.02-4.05,9.02-9.05S52.11,104.2,47.13,104.2L47.13,104.2z"
		/>
</g>
</svg>
