<?xml version="1.0" encoding="iso-8859-1"?>
<!-- Generator: Adobe Illustrator 16.0.3, SVG Export Plug-In . SVG Version: 6.00 Build 0)  -->
<!DOCTYPE svg PUBLIC "-//W3C//DTD SVG 1.1//EN" "http://www.w3.org/Graphics/SVG/1.1/DTD/svg11.dtd">
<svg version="1.1" id="Layer_1" xmlns="http://www.w3.org/2000/svg" xmlns:xlink="http://www.w3.org/1999/xlink" x="0px" y="0px"
	 width="360.72px" height="270px" viewBox="0 0 360.72 270" style="enable-background:new 0 0 360.72 270;" xml:space="preserve">
<g>
	
		<line style="fill:none;stroke:#CC0000;stroke-width:2.88;stroke-linecap:square;stroke-miterlimit:10;" x1="324.36" y1="12.24" x2="288.36" y2="12.24"/>
	<polygon style="fill-rule:evenodd;clip-rule:evenodd;fill:#333399;" points="259.92,0 262.08,0.36 264.24,0.36 266.04,1.08 
		268.2,1.8 270,2.52 271.8,3.6 273.24,5.04 274.68,6.12 276.12,7.56 277.2,9.36 278.28,11.16 279.36,12.96 280.08,14.76 
		280.44,16.92 280.8,19.08 280.8,21.24 280.8,23.04 280.44,25.2 280.08,27.36 279.36,29.16 278.28,30.96 277.2,32.76 276.12,34.56 
		274.68,36 273.24,37.44 271.8,38.52 270,39.6 268.2,40.32 266.04,41.04 264.24,41.76 262.08,42.12 259.92,42.12 257.76,42.12 
		255.6,41.76 253.8,41.04 251.64,40.32 249.84,39.6 248.04,38.52 246.6,37.44 245.16,36 243.72,34.56 242.64,32.76 241.56,30.96 
		240.48,29.16 239.76,27.36 239.4,25.2 239.04,23.04 239.04,21.24 239.04,19.08 239.4,16.92 239.76,14.76 240.48,12.96 
		241.56,11.16 242.64,9.36 243.72,7.56 245.16,6.12 246.6,5.04 248.04,3.6 249.84,2.52 251.64,1.8 253.8,1.08 255.6,0.36 
		257.76,0.36 259.92,0 	"/>
	<polyline style="fill-rule:evenodd;clip-rule:evenodd;fill:#333399;" points="257.04,0 257.04,24.12 293.04,24.12 293.04,0 
		257.04,0 	"/>
	<polyline style="fill-rule:evenodd;clip-rule:evenodd;fill:#BBE0E3;" points="0.36,54 0.36,78.12 72.36,78.12 72.36,54 0.36,54 	
		"/>
	
		<rect x="0.36" y="54" style="fill:none;stroke:#000000;stroke-width:0.72;stroke-linecap:square;stroke-miterlimit:10;" width="72" height="24.12"/>
	<g>
		<path d="M16.1,73.08V60.2h2.57l3.05,9.12c0.28,0.85,0.49,1.49,0.62,1.91c0.15-0.47,0.38-1.16,0.69-2.07l3.08-8.96h2.29v12.88
			h-1.64V62.3L23,73.08h-1.54l-3.73-10.97v10.97H16.1z"/>
		<path d="M30.72,62.01V60.2h1.58v1.82H30.72z M30.72,73.08v-9.33h1.58v9.33H30.72z"/>
		<path d="M33.96,73.08l3.41-4.85l-3.16-4.48h1.98l1.43,2.19c0.27,0.42,0.49,0.76,0.65,1.05c0.26-0.39,0.5-0.73,0.71-1.03l1.57-2.21
			h1.89l-3.23,4.39l3.47,4.94h-1.94l-1.92-2.9l-0.51-0.78l-2.45,3.68H33.96z"/>
		<path d="M50.06,70.07l1.63,0.2c-0.26,0.96-0.74,1.7-1.43,2.22s-1.59,0.79-2.67,0.79c-1.37,0-2.45-0.42-3.25-1.26
			s-1.2-2.02-1.2-3.54c0-1.57,0.4-2.79,1.21-3.66s1.86-1.3,3.15-1.3c1.25,0,2.27,0.42,3.06,1.27s1.19,2.04,1.19,3.59
			c0,0.09,0,0.23-0.01,0.42h-6.96c0.06,1.03,0.35,1.81,0.87,2.36s1.17,0.82,1.95,0.82c0.58,0,1.08-0.15,1.49-0.46
			S49.82,70.74,50.06,70.07z M44.86,67.52h5.21c-0.07-0.79-0.27-1.37-0.6-1.77c-0.5-0.61-1.16-0.91-1.96-0.91
			c-0.73,0-1.34,0.24-1.83,0.73S44.92,66.7,44.86,67.52z"/>
		<path d="M53.72,73.08v-9.33h1.42v1.42c0.36-0.66,0.7-1.1,1.01-1.31s0.65-0.32,1.02-0.32c0.53,0,1.08,0.17,1.63,0.51l-0.54,1.47
			c-0.39-0.23-0.77-0.34-1.16-0.34c-0.35,0-0.66,0.1-0.93,0.31s-0.47,0.5-0.59,0.87c-0.18,0.56-0.26,1.18-0.26,1.85v4.89H53.72z"/>
	</g>
	<polygon style="fill-rule:evenodd;clip-rule:evenodd;fill:#333399;" points="105.48,228.24 103.32,228.24 101.16,228.6 
		99.36,228.96 97.2,229.68 95.4,230.76 93.6,231.48 92.16,232.92 90.72,234.36 89.28,235.8 87.84,237.24 87.12,239.04 86.04,240.84 
		85.32,243 84.96,244.8 84.6,246.96 84.6,249.12 84.6,251.28 84.96,253.44 85.32,255.24 86.04,257.4 87.12,259.2 87.84,261 
		89.28,262.44 90.72,263.88 92.16,265.32 93.6,266.4 95.4,267.48 97.2,268.56 99.36,269.28 101.16,269.64 103.32,270 105.48,270 
		107.64,270 109.8,269.64 111.6,269.28 113.76,268.56 115.56,267.48 117.36,266.4 118.8,265.32 120.24,263.88 121.68,262.44 
		122.76,261 123.84,259.2 124.92,257.4 125.64,255.24 126,253.44 126.36,251.28 126.36,249.12 126.36,246.96 126,244.8 125.64,243 
		124.92,240.84 123.84,239.04 122.76,237.24 121.68,235.8 120.24,234.36 118.8,232.92 117.36,231.48 115.56,230.76 113.76,229.68 
		111.6,228.96 109.8,228.6 107.64,228.24 105.48,228.24 	"/>
	<polyline style="fill-rule:evenodd;clip-rule:evenodd;fill:#333399;" points="72.36,228.24 72.36,252 108.36,252 108.36,228.24 
		72.36,228.24 	"/>
	<path style="fill:#CC0000;stroke:#CC0000;stroke-width:0.36;stroke-linecap:square;stroke-miterlimit:10;" d="M156.6,259.56h-28.8
		v-2.88h28.8V259.56L156.6,259.56z M129.6,262.44l-9-4.32l9-4.68V262.44L129.6,262.44z"/>
	
		<line style="fill:none;stroke:#CC0000;stroke-width:2.88;stroke-linecap:square;stroke-miterlimit:10;" x1="72.36" y1="240.12" x2="36.36" y2="240.12"/>
	<polyline style="fill-rule:evenodd;clip-rule:evenodd;fill:#BBE0E3;" points="0.36,108 0.36,162 24.48,162 24.48,108 0.36,108 	"/>
	
		<rect x="0.36" y="108" style="fill:none;stroke:#000000;stroke-width:0.72;stroke-linecap:square;stroke-miterlimit:10;" width="24.12" height="54"/>
	<g>
		<path d="M16.7,126.88l1.71,0.43c-0.36,1.4-1,2.47-1.93,3.2s-2.06,1.1-3.41,1.1c-1.39,0-2.52-0.28-3.39-0.85s-1.53-1.38-1.99-2.46
			s-0.68-2.22-0.68-3.45c0-1.34,0.26-2.51,0.77-3.51s1.24-1.76,2.19-2.28s1.99-0.78,3.12-0.78c1.29,0,2.37,0.33,3.25,0.98
			s1.49,1.58,1.84,2.77l-1.68,0.4c-0.3-0.94-0.73-1.62-1.3-2.05s-1.28-0.64-2.14-0.64c-0.99,0-1.82,0.24-2.48,0.71
			s-1.13,1.11-1.4,1.91s-0.4,1.62-0.4,2.47c0,1.1,0.16,2.05,0.48,2.87s0.82,1.43,1.49,1.83s1.4,0.61,2.19,0.61
			c0.96,0,1.76-0.28,2.43-0.83S16.47,127.97,16.7,126.88z"/>
	</g>
	<g>
		<path d="M16.7,148.48l1.71,0.43c-0.36,1.4-1,2.47-1.93,3.2s-2.06,1.1-3.41,1.1c-1.39,0-2.52-0.28-3.39-0.85
			c-0.87-0.56-1.53-1.38-1.99-2.46s-0.68-2.22-0.68-3.45c0-1.34,0.26-2.51,0.77-3.51c0.51-1,1.24-1.76,2.19-2.28
			c0.95-0.52,1.99-0.78,3.12-0.78c1.29,0,2.37,0.33,3.25,0.98s1.49,1.58,1.84,2.77l-1.68,0.4c-0.3-0.94-0.73-1.62-1.3-2.05
			s-1.28-0.64-2.14-0.64c-0.99,0-1.82,0.24-2.48,0.71s-1.13,1.11-1.4,1.91c-0.27,0.8-0.4,1.62-0.4,2.47c0,1.1,0.16,2.05,0.48,2.87
			c0.32,0.82,0.82,1.43,1.49,1.83s1.4,0.61,2.19,0.61c0.96,0,1.76-0.28,2.43-0.83S16.47,149.57,16.7,148.48z"/>
	</g>
	<polyline style="fill-rule:evenodd;clip-rule:evenodd;fill:#BBE0E3;" points="42.48,108 42.48,162 66.6,162 66.6,108 42.48,108 	
		"/>
	
		<rect x="42.48" y="108" style="fill:none;stroke:#000000;stroke-width:0.72;stroke-linecap:square;stroke-miterlimit:10;" width="24.12" height="54"/>
	<g>
		<path d="M58.82,126.88l1.71,0.43c-0.36,1.4-1,2.47-1.93,3.2s-2.06,1.1-3.41,1.1c-1.39,0-2.52-0.28-3.39-0.85s-1.53-1.38-1.99-2.46
			s-0.68-2.22-0.68-3.45c0-1.34,0.26-2.51,0.77-3.51s1.24-1.76,2.19-2.28s1.99-0.78,3.12-0.78c1.29,0,2.37,0.33,3.25,0.98
			s1.49,1.58,1.84,2.77l-1.68,0.4c-0.3-0.94-0.73-1.62-1.3-2.05s-1.28-0.64-2.14-0.64c-0.99,0-1.82,0.24-2.48,0.71
			s-1.13,1.11-1.4,1.91s-0.4,1.62-0.4,2.47c0,1.1,0.16,2.05,0.48,2.87s0.82,1.43,1.49,1.83s1.4,0.61,2.19,0.61
			c0.96,0,1.76-0.28,2.43-0.83S58.58,127.97,58.82,126.88z"/>
	</g>
	<g>
		<path d="M58.82,148.48l1.71,0.43c-0.36,1.4-1,2.47-1.93,3.2s-2.06,1.1-3.41,1.1c-1.39,0-2.52-0.28-3.39-0.85
			c-0.87-0.56-1.53-1.38-1.99-2.46s-0.68-2.22-0.68-3.45c0-1.34,0.26-2.51,0.77-3.51c0.51-1,1.24-1.76,2.19-2.28
			c0.95-0.52,1.99-0.78,3.12-0.78c1.29,0,2.37,0.33,3.25,0.98s1.49,1.58,1.84,2.77l-1.68,0.4c-0.3-0.94-0.73-1.62-1.3-2.05
			s-1.28-0.64-2.14-0.64c-0.99,0-1.82,0.24-2.48,0.71s-1.13,1.11-1.4,1.91c-0.27,0.8-0.4,1.62-0.4,2.47c0,1.1,0.16,2.05,0.48,2.87
			c0.32,0.82,0.82,1.43,1.49,1.83s1.4,0.61,2.19,0.61c0.96,0,1.76-0.28,2.43-0.83S58.58,149.57,58.82,148.48z"/>
	</g>
	<path style="fill:#CC0000;stroke:#CC0000;stroke-width:0.36;stroke-linecap:square;stroke-miterlimit:10;" d="M34.92,240.12v-16.56
		h2.88v16.56H34.92L34.92,240.12z M32.04,225l4.32-9l4.68,9H32.04L32.04,225z"/>
	<polyline style="fill-rule:evenodd;clip-rule:evenodd;fill:#BBE0E3;" points="0.36,192.24 0.36,216 72.36,216 72.36,192.24 
		0.36,192.24 	"/>
	
		<rect x="0.36" y="192.24" style="fill:none;stroke:#000000;stroke-width:0.72;stroke-linecap:square;stroke-miterlimit:10;" width="72" height="23.76"/>
	<g>
		<path d="M9.44,207.18l1.61-0.14c0.08,0.64,0.25,1.17,0.53,1.59c0.28,0.41,0.71,0.75,1.3,1c0.59,0.25,1.25,0.38,1.98,0.38
			c0.65,0,1.22-0.1,1.72-0.29s0.87-0.46,1.11-0.79s0.36-0.71,0.36-1.1c0-0.4-0.12-0.76-0.35-1.06s-0.62-0.56-1.16-0.76
			c-0.35-0.13-1.11-0.34-2.29-0.63s-2.01-0.55-2.49-0.8c-0.62-0.32-1.07-0.72-1.38-1.2s-0.45-1.01-0.45-1.6
			c0-0.65,0.18-1.26,0.55-1.82s0.91-1,1.62-1.29s1.5-0.44,2.36-0.44c0.96,0,1.8,0.15,2.53,0.46c0.73,0.31,1.29,0.76,1.68,1.36
			s0.6,1.27,0.63,2.03l-1.63,0.12c-0.09-0.81-0.39-1.43-0.89-1.85s-1.26-0.62-2.25-0.62c-1.03,0-1.78,0.19-2.25,0.57
			c-0.47,0.38-0.71,0.83-0.71,1.37c0,0.46,0.17,0.84,0.5,1.14c0.33,0.3,1.19,0.61,2.57,0.92c1.39,0.31,2.34,0.59,2.85,0.82
			c0.75,0.35,1.3,0.78,1.66,1.31s0.54,1.14,0.54,1.83c0,0.69-0.2,1.33-0.59,1.94c-0.39,0.61-0.96,1.08-1.69,1.42
			c-0.74,0.34-1.56,0.5-2.48,0.5c-1.17,0-2.14-0.17-2.93-0.51s-1.41-0.85-1.85-1.53C9.7,208.82,9.47,208.04,9.44,207.18z"/>
		<path d="M21.72,214.9v-12.91h1.44v1.21c0.34-0.47,0.72-0.83,1.15-1.07c0.43-0.24,0.95-0.36,1.56-0.36c0.8,0,1.5,0.21,2.11,0.62
			s1.07,0.99,1.38,1.74c0.31,0.75,0.47,1.57,0.47,2.46c0,0.96-0.17,1.82-0.51,2.58c-0.34,0.77-0.84,1.35-1.49,1.76
			c-0.65,0.41-1.34,0.61-2.06,0.61c-0.53,0-1-0.11-1.42-0.33s-0.76-0.5-1.03-0.84v4.54H21.72z M23.15,206.71
			c0,1.2,0.24,2.09,0.73,2.66s1.08,0.86,1.77,0.86c0.7,0,1.31-0.3,1.81-0.89c0.5-0.59,0.75-1.52,0.75-2.76
			c0-1.19-0.24-2.08-0.73-2.67s-1.07-0.89-1.75-0.89c-0.67,0-1.27,0.32-1.79,0.94C23.41,204.59,23.15,205.51,23.15,206.71z"/>
		<path d="M31.75,211.32v-12.88h1.58v12.88H31.75z"/>
		<path d="M35.76,200.26v-1.82h1.58v1.82H35.76z M35.76,211.32v-9.33h1.58v9.33H35.76z"/>
		<path d="M43.51,209.91l0.23,1.4c-0.45,0.09-0.84,0.14-1.2,0.14c-0.57,0-1.02-0.09-1.34-0.27s-0.54-0.42-0.67-0.72
			s-0.19-0.92-0.19-1.87v-5.37h-1.16v-1.23h1.16v-2.31l1.57-0.95v3.26h1.59v1.23h-1.59v5.46c0,0.45,0.03,0.74,0.08,0.87
			s0.15,0.23,0.27,0.31s0.31,0.11,0.54,0.11C42.99,209.97,43.22,209.95,43.51,209.91z"/>
		<path d="M48.54,209.91l0.23,1.4c-0.45,0.09-0.84,0.14-1.2,0.14c-0.57,0-1.02-0.09-1.34-0.27s-0.54-0.42-0.67-0.72
			s-0.19-0.92-0.19-1.87v-5.37h-1.16v-1.23h1.16v-2.31l1.57-0.95v3.26h1.59v1.23h-1.59v5.46c0,0.45,0.03,0.74,0.08,0.87
			s0.15,0.23,0.27,0.31s0.31,0.11,0.54,0.11C48.02,209.97,48.26,209.95,48.54,209.91z"/>
		<path d="M56.52,208.32l1.63,0.2c-0.26,0.96-0.74,1.7-1.43,2.22s-1.59,0.79-2.67,0.79c-1.37,0-2.45-0.42-3.25-1.26
			c-0.8-0.84-1.2-2.02-1.2-3.54c0-1.57,0.4-2.79,1.21-3.66s1.86-1.3,3.15-1.3c1.25,0,2.27,0.42,3.06,1.27s1.19,2.04,1.19,3.59
			c0,0.09,0,0.23-0.01,0.42h-6.96c0.06,1.03,0.35,1.81,0.87,2.36s1.17,0.82,1.95,0.82c0.58,0,1.08-0.15,1.49-0.46
			S56.28,208.98,56.52,208.32z M51.32,205.76h5.21c-0.07-0.79-0.27-1.37-0.6-1.77c-0.5-0.61-1.16-0.91-1.96-0.91
			c-0.73,0-1.34,0.24-1.83,0.73S51.37,204.94,51.32,205.76z"/>
		<path d="M60.17,211.32v-9.33h1.42v1.42c0.36-0.66,0.7-1.1,1.01-1.31s0.65-0.32,1.02-0.32c0.53,0,1.08,0.17,1.63,0.51l-0.54,1.47
			c-0.39-0.23-0.77-0.34-1.16-0.34c-0.35,0-0.66,0.1-0.93,0.31s-0.47,0.5-0.59,0.87c-0.18,0.56-0.26,1.18-0.26,1.85v4.89H60.17z"/>
	</g>
	<path style="fill:#CC0000;stroke:#CC0000;stroke-width:0.36;stroke-linecap:square;stroke-miterlimit:10;" d="M10.8,192.24v-22.68
		h3.24v22.68H10.8L10.8,192.24z M7.92,171l4.68-9l4.32,9H7.92L7.92,171z"/>
	<path style="fill:#CC0000;stroke:#CC0000;stroke-width:0.36;stroke-linecap:square;stroke-miterlimit:10;" d="M52.92,192.24v-22.68
		h2.88v22.68H52.92L52.92,192.24z M50.04,171l4.32-9l4.68,9H50.04L50.04,171z"/>
	<path style="fill:#CC0000;stroke:#CC0000;stroke-width:0.36;stroke-linecap:square;stroke-miterlimit:10;" d="M52.92,108V85.68
		h2.88V108H52.92L52.92,108z M50.04,87.12l4.32-9l4.68,9H50.04L50.04,87.12z"/>
	<path style="fill:#CC0000;stroke:#CC0000;stroke-width:0.36;stroke-linecap:square;stroke-miterlimit:10;" d="M10.8,108V85.68h3.24
		V108H10.8L10.8,108z M7.92,87.12l4.68-9l4.32,9H7.92L7.92,87.12z"/>
	
		<line style="fill:none;stroke:#CC0000;stroke-width:2.88;stroke-linecap:square;stroke-miterlimit:10;" x1="36.36" y1="54" x2="36.36" y2="30.24"/>
	<path style="fill:#CC0000;stroke:#CC0000;stroke-width:0.36;stroke-linecap:square;stroke-miterlimit:10;" d="M36.36,28.44h106.56
		v3.24H36.36V28.44L36.36,28.44z M141.48,25.56l9,4.68l-9,4.32V25.56L141.48,25.56z"/>
	<polygon style="fill-rule:evenodd;clip-rule:evenodd;fill:#808080;" points="156.6,24.12 155.16,24.12 154.08,24.48 153,25.2 
		152.28,25.92 151.56,26.64 150.84,27.72 150.48,28.8 150.48,30.24 150.48,31.32 150.84,32.4 151.56,33.48 152.28,34.2 153,34.92 
		154.08,35.64 155.16,36 156.6,36 157.68,36 158.76,35.64 159.84,34.92 160.56,34.2 161.28,33.48 162,32.4 162.36,31.32 
		162.36,30.24 162.36,28.8 162,27.72 161.28,26.64 160.56,25.92 159.84,25.2 158.76,24.48 157.68,24.12 156.6,24.12 	"/>
	<polyline style="fill:none;stroke:#000000;stroke-width:2.16;stroke-linecap:square;stroke-miterlimit:10;" points="156.6,24.12 
		155.16,24.12 154.08,24.48 153,25.2 152.28,25.92 151.56,26.64 150.84,27.72 150.48,28.8 150.48,30.24 150.48,31.32 150.84,32.4 
		151.56,33.48 152.28,34.2 153,34.92 154.08,35.64 155.16,36 156.6,36 157.68,36 158.76,35.64 159.84,34.92 160.56,34.2 
		161.28,33.48 162,32.4 162.36,31.32 162.36,30.24 162.36,28.8 162,27.72 161.28,26.64 160.56,25.92 159.84,25.2 158.76,24.48 
		157.68,24.12 156.6,24.12 	"/>
	<polygon style="fill-rule:evenodd;clip-rule:evenodd;fill:#808080;" points="36.36,24.12 35.28,24.12 34.2,24.48 33.12,25.2 
		32.04,25.92 31.32,26.64 30.96,27.72 30.6,28.8 30.6,30.24 30.6,31.32 30.96,32.4 31.32,33.48 32.04,34.2 33.12,34.92 34.2,35.64 
		35.28,36 36.36,36 37.8,36 38.88,35.64 39.96,34.92 40.68,34.2 41.4,33.48 42.12,32.4 42.48,31.32 42.48,30.24 42.48,28.8 
		42.12,27.72 41.4,26.64 40.68,25.92 39.96,25.2 38.88,24.48 37.8,24.12 36.36,24.12 	"/>
	<polyline style="fill:none;stroke:#000000;stroke-width:2.16;stroke-linecap:square;stroke-miterlimit:10;" points="36.36,24.12 
		35.28,24.12 34.2,24.48 33.12,25.2 32.04,25.92 31.32,26.64 30.96,27.72 30.6,28.8 30.6,30.24 30.6,31.32 30.96,32.4 31.32,33.48 
		32.04,34.2 33.12,34.92 34.2,35.64 35.28,36 36.36,36 37.8,36 38.88,35.64 39.96,34.92 40.68,34.2 41.4,33.48 42.12,32.4 
		42.48,31.32 42.48,30.24 42.48,28.8 42.12,27.72 41.4,26.64 40.68,25.92 39.96,25.2 38.88,24.48 37.8,24.12 36.36,24.12 	"/>
	<polygon style="fill-rule:evenodd;clip-rule:evenodd;fill:#808080;" points="12.6,174.24 11.16,174.24 10.08,174.6 9,174.96 
		8.28,175.68 7.56,176.76 6.84,177.84 6.48,178.92 6.48,180 6.48,181.44 6.84,182.52 7.56,183.6 8.28,184.32 9,185.04 10.08,185.76 
		11.16,186.12 12.6,186.12 13.68,186.12 14.76,185.76 15.84,185.04 16.56,184.32 17.28,183.6 18,182.52 18.36,181.44 18.36,180 
		18.36,178.92 18,177.84 17.28,176.76 16.56,175.68 15.84,174.96 14.76,174.6 13.68,174.24 12.6,174.24 	"/>
	<polyline style="fill:none;stroke:#000000;stroke-width:2.16;stroke-linecap:square;stroke-miterlimit:10;" points="12.6,174.24 
		11.16,174.24 10.08,174.6 9,174.96 8.28,175.68 7.56,176.76 6.84,177.84 6.48,178.92 6.48,180 6.48,181.44 6.84,182.52 7.56,183.6 
		8.28,184.32 9,185.04 10.08,185.76 11.16,186.12 12.6,186.12 13.68,186.12 14.76,185.76 15.84,185.04 16.56,184.32 17.28,183.6 
		18,182.52 18.36,181.44 18.36,180 18.36,178.92 18,177.84 17.28,176.76 16.56,175.68 15.84,174.96 14.76,174.6 13.68,174.24 
		12.6,174.24 	"/>
	<polygon style="fill-rule:evenodd;clip-rule:evenodd;fill:#808080;" points="54.36,174.24 53.28,174.24 52.2,174.6 51.12,174.96 
		50.04,175.68 49.32,176.76 48.96,177.84 48.6,178.92 48.6,180 48.6,181.44 48.96,182.52 49.32,183.6 50.04,184.32 51.12,185.04 
		52.2,185.76 53.28,186.12 54.36,186.12 55.8,186.12 56.88,185.76 57.96,185.04 58.68,184.32 59.4,183.6 60.12,182.52 60.48,181.44 
		60.48,180 60.48,178.92 60.12,177.84 59.4,176.76 58.68,175.68 57.96,174.96 56.88,174.6 55.8,174.24 54.36,174.24 	"/>
	<polyline style="fill:none;stroke:#000000;stroke-width:2.16;stroke-linecap:square;stroke-miterlimit:10;" points="54.36,174.24 
		53.28,174.24 52.2,174.6 51.12,174.96 50.04,175.68 49.32,176.76 48.96,177.84 48.6,178.92 48.6,180 48.6,181.44 48.96,182.52 
		49.32,183.6 50.04,184.32 51.12,185.04 52.2,185.76 53.28,186.12 54.36,186.12 55.8,186.12 56.88,185.76 57.96,185.04 
		58.68,184.32 59.4,183.6 60.12,182.52 60.48,181.44 60.48,180 60.48,178.92 60.12,177.84 59.4,176.76 58.68,175.68 57.96,174.96 
		56.88,174.6 55.8,174.24 54.36,174.24 	"/>
	<polygon style="fill-rule:evenodd;clip-rule:evenodd;fill:#808080;" points="12.6,90 11.16,90.36 10.08,90.72 9,91.08 8.28,91.8 
		7.56,92.88 6.84,93.6 6.48,95.04 6.48,96.12 6.48,97.2 6.84,98.28 7.56,99.36 8.28,100.44 9,101.16 10.08,101.52 11.16,101.88 
		12.6,102.24 13.68,101.88 14.76,101.52 15.84,101.16 16.56,100.44 17.28,99.36 18,98.28 18.36,97.2 18.36,96.12 18.36,95.04 
		18,93.6 17.28,92.88 16.56,91.8 15.84,91.08 14.76,90.72 13.68,90.36 12.6,90 	"/>
	<polyline style="fill:none;stroke:#000000;stroke-width:2.16;stroke-linecap:square;stroke-miterlimit:10;" points="12.6,90 
		11.16,90.36 10.08,90.72 9,91.08 8.28,91.8 7.56,92.88 6.84,93.6 6.48,95.04 6.48,96.12 6.48,97.2 6.84,98.28 7.56,99.36 
		8.28,100.44 9,101.16 10.08,101.52 11.16,101.88 12.6,102.24 13.68,101.88 14.76,101.52 15.84,101.16 16.56,100.44 17.28,99.36 
		18,98.28 18.36,97.2 18.36,96.12 18.36,95.04 18,93.6 17.28,92.88 16.56,91.8 15.84,91.08 14.76,90.72 13.68,90.36 12.6,90 	"/>
	<polygon style="fill-rule:evenodd;clip-rule:evenodd;fill:#808080;" points="54.36,90 53.28,90.36 52.2,90.72 51.12,91.08 
		50.04,91.8 49.32,92.88 48.96,93.6 48.6,95.04 48.6,96.12 48.6,97.2 48.96,98.28 49.32,99.36 50.04,100.44 51.12,101.16 
		52.2,101.52 53.28,101.88 54.36,102.24 55.8,101.88 56.88,101.52 57.96,101.16 58.68,100.44 59.4,99.36 60.12,98.28 60.48,97.2 
		60.48,96.12 60.48,95.04 60.12,93.6 59.4,92.88 58.68,91.8 57.96,91.08 56.88,90.72 55.8,90.36 54.36,90 	"/>
	<polyline style="fill:none;stroke:#000000;stroke-width:2.16;stroke-linecap:square;stroke-miterlimit:10;" points="54.36,90 
		53.28,90.36 52.2,90.72 51.12,91.08 50.04,91.8 49.32,92.88 48.96,93.6 48.6,95.04 48.6,96.12 48.6,97.2 48.96,98.28 49.32,99.36 
		50.04,100.44 51.12,101.16 52.2,101.52 53.28,101.88 54.36,102.24 55.8,101.88 56.88,101.52 57.96,101.16 58.68,100.44 59.4,99.36 
		60.12,98.28 60.48,97.2 60.48,96.12 60.48,95.04 60.12,93.6 59.4,92.88 58.68,91.8 57.96,91.08 56.88,90.72 55.8,90.36 54.36,90 	
		"/>
	<polygon style="fill-rule:evenodd;clip-rule:evenodd;fill:#808080;" points="36.36,234 35.28,234.36 34.2,234.72 33.12,235.08 
		32.04,235.8 31.32,236.88 30.96,237.6 30.6,239.04 30.6,240.12 30.6,241.2 30.96,242.28 31.32,243.36 32.04,244.44 33.12,245.16 
		34.2,245.52 35.28,245.88 36.36,246.24 37.8,245.88 38.88,245.52 39.96,245.16 40.68,244.44 41.4,243.36 42.12,242.28 42.48,241.2 
		42.48,240.12 42.48,239.04 42.12,237.6 41.4,236.88 40.68,235.8 39.96,235.08 38.88,234.72 37.8,234.36 36.36,234 	"/>
	<polyline style="fill:none;stroke:#000000;stroke-width:2.16;stroke-linecap:square;stroke-miterlimit:10;" points="36.36,234 
		35.28,234.36 34.2,234.72 33.12,235.08 32.04,235.8 31.32,236.88 30.96,237.6 30.6,239.04 30.6,240.12 30.6,241.2 30.96,242.28 
		31.32,243.36 32.04,244.44 33.12,245.16 34.2,245.52 35.28,245.88 36.36,246.24 37.8,245.88 38.88,245.52 39.96,245.16 
		40.68,244.44 41.4,243.36 42.12,242.28 42.48,241.2 42.48,240.12 42.48,239.04 42.12,237.6 41.4,236.88 40.68,235.8 39.96,235.08 
		38.88,234.72 37.8,234.36 36.36,234 	"/>
	<polygon style="fill-rule:evenodd;clip-rule:evenodd;fill:#808080;" points="156.6,252 155.16,252.36 154.08,252.72 153,253.08 
		152.28,253.8 151.56,254.88 150.84,255.6 150.48,257.04 150.48,258.12 150.48,259.2 150.84,260.28 151.56,261.36 152.28,262.44 
		153,263.16 154.08,263.52 155.16,263.88 156.6,264.24 157.68,263.88 158.76,263.52 159.84,263.16 160.56,262.44 161.28,261.36 
		162,260.28 162.36,259.2 162.36,258.12 162.36,257.04 162,255.6 161.28,254.88 160.56,253.8 159.84,253.08 158.76,252.72 
		157.68,252.36 156.6,252 	"/>
	<polyline style="fill:none;stroke:#000000;stroke-width:2.16;stroke-linecap:square;stroke-miterlimit:10;" points="156.6,252 
		155.16,252.36 154.08,252.72 153,253.08 152.28,253.8 151.56,254.88 150.84,255.6 150.48,257.04 150.48,258.12 150.48,259.2 
		150.84,260.28 151.56,261.36 152.28,262.44 153,263.16 154.08,263.52 155.16,263.88 156.6,264.24 157.68,263.88 158.76,263.52 
		159.84,263.16 160.56,262.44 161.28,261.36 162,260.28 162.36,259.2 162.36,258.12 162.36,257.04 162,255.6 161.28,254.88 
		160.56,253.8 159.84,253.08 158.76,252.72 157.68,252.36 156.6,252 	"/>
	<g>
		<path style="fill:#BBE0E3;" d="M78.97,250.56v-11.34h4.28c0.75,0,1.33,0.04,1.73,0.11c0.56,0.09,1.02,0.27,1.4,0.53
			c0.38,0.26,0.68,0.63,0.91,1.09c0.23,0.47,0.34,0.99,0.34,1.55c0,0.96-0.31,1.78-0.92,2.45c-0.61,0.67-1.72,1-3.33,1h-2.91v4.61
			H78.97z M80.47,244.61h2.93c0.97,0,1.66-0.18,2.06-0.54c0.41-0.36,0.61-0.87,0.61-1.52c0-0.47-0.12-0.88-0.36-1.22
			c-0.24-0.34-0.56-0.56-0.95-0.67c-0.25-0.07-0.72-0.1-1.4-0.1h-2.9V244.61z"/>
		<path style="fill:#BBE0E3;" d="M94.63,250.56v-1.21c-0.64,0.93-1.51,1.39-2.61,1.39c-0.48,0-0.94-0.09-1.36-0.28
			s-0.73-0.42-0.94-0.7s-0.35-0.63-0.43-1.03c-0.06-0.27-0.08-0.71-0.08-1.3v-5.09h1.39v4.56c0,0.73,0.03,1.22,0.08,1.47
			c0.09,0.37,0.27,0.65,0.56,0.86s0.63,0.31,1.05,0.31c0.42,0,0.81-0.11,1.18-0.32s0.63-0.51,0.78-0.87
			c0.15-0.37,0.23-0.9,0.23-1.61v-4.4h1.39v8.21H94.63z"/>
		<path style="fill:#BBE0E3;" d="M97.9,250.56v-8.21h1.25v1.15c0.26-0.4,0.6-0.73,1.03-0.97c0.43-0.25,0.92-0.37,1.46-0.37
			c0.61,0,1.11,0.13,1.5,0.38s0.66,0.61,0.82,1.06c0.65-0.96,1.5-1.44,2.54-1.44c0.81,0,1.44,0.23,1.88,0.68
			c0.44,0.45,0.66,1.15,0.66,2.08v5.64h-1.38v-5.17c0-0.56-0.05-0.96-0.14-1.2c-0.09-0.25-0.25-0.44-0.49-0.59
			c-0.24-0.15-0.52-0.22-0.84-0.22c-0.58,0-1.06,0.19-1.44,0.58c-0.38,0.38-0.57,1-0.57,1.84v4.77h-1.39v-5.34
			c0-0.62-0.11-1.08-0.34-1.39c-0.23-0.31-0.6-0.46-1.11-0.46c-0.39,0-0.75,0.1-1.09,0.31s-0.57,0.51-0.72,0.91
			c-0.15,0.4-0.22,0.97-0.22,1.72v4.26H97.9z"/>
		<path style="fill:#BBE0E3;" d="M111.57,253.7v-11.36h1.27v1.07c0.3-0.42,0.64-0.73,1.01-0.94c0.38-0.21,0.83-0.31,1.37-0.31
			c0.7,0,1.32,0.18,1.86,0.54c0.54,0.36,0.94,0.87,1.21,1.53c0.27,0.66,0.41,1.38,0.41,2.16c0,0.84-0.15,1.6-0.45,2.27
			s-0.74,1.19-1.31,1.55c-0.57,0.36-1.18,0.54-1.81,0.54c-0.46,0-0.88-0.1-1.25-0.29c-0.37-0.2-0.67-0.44-0.91-0.74v4H111.57z
			 M112.83,246.5c0,1.06,0.21,1.84,0.64,2.34c0.43,0.5,0.95,0.76,1.55,0.76c0.62,0,1.15-0.26,1.59-0.79s0.66-1.33,0.66-2.43
			c0-1.05-0.22-1.83-0.65-2.35c-0.43-0.52-0.95-0.78-1.54-0.78c-0.59,0-1.12,0.28-1.57,0.83
			C113.06,244.63,112.83,245.44,112.83,246.5z"/>
	</g>
	<path style="fill:#CC0000;stroke:#CC0000;stroke-width:0.36;stroke-linecap:square;stroke-miterlimit:10;" d="M216.36,28.44h28.44
		v3.24h-28.44V28.44L216.36,28.44z M243.36,25.56l9,4.68l-9,4.32V25.56L243.36,25.56z"/>
	<polygon style="fill-rule:evenodd;clip-rule:evenodd;fill:#808080;" points="216.36,24.12 215.28,24.12 214.2,24.48 213.12,25.2 
		212.04,25.92 211.32,26.64 210.96,27.72 210.6,28.8 210.6,30.24 210.6,31.32 210.96,32.4 211.32,33.48 212.04,34.2 213.12,34.92 
		214.2,35.64 215.28,36 216.36,36 217.8,36 218.88,35.64 219.96,34.92 220.68,34.2 221.4,33.48 222.12,32.4 222.48,31.32 
		222.48,30.24 222.48,28.8 222.12,27.72 221.4,26.64 220.68,25.92 219.96,25.2 218.88,24.48 217.8,24.12 216.36,24.12 	"/>
	<polyline style="fill:none;stroke:#000000;stroke-width:2.16;stroke-linecap:square;stroke-miterlimit:10;" points="216.36,24.12 
		215.28,24.12 214.2,24.48 213.12,25.2 212.04,25.92 211.32,26.64 210.96,27.72 210.6,28.8 210.6,30.24 210.6,31.32 210.96,32.4 
		211.32,33.48 212.04,34.2 213.12,34.92 214.2,35.64 215.28,36 216.36,36 217.8,36 218.88,35.64 219.96,34.92 220.68,34.2 
		221.4,33.48 222.12,32.4 222.48,31.32 222.48,30.24 222.48,28.8 222.12,27.72 221.4,26.64 220.68,25.92 219.96,25.2 218.88,24.48 
		217.8,24.12 216.36,24.12 	"/>
	<g>
		<path style="fill:#BBE0E3;" d="M246.75,19.42V8.09h4.28c0.75,0,1.33,0.04,1.72,0.11c0.56,0.09,1.02,0.27,1.4,0.53
			c0.38,0.26,0.68,0.63,0.91,1.09s0.34,0.98,0.34,1.55c0,0.96-0.31,1.78-0.92,2.45c-0.61,0.67-1.72,1-3.33,1h-2.91v4.61H246.75z
			 M248.25,13.48h2.93c0.97,0,1.66-0.18,2.06-0.54c0.41-0.36,0.61-0.87,0.61-1.52c0-0.47-0.12-0.88-0.36-1.22
			c-0.24-0.34-0.56-0.56-0.95-0.67c-0.25-0.07-0.72-0.1-1.4-0.1h-2.9V13.48z"/>
		<path style="fill:#BBE0E3;" d="M262.41,19.42v-1.21c-0.64,0.93-1.51,1.39-2.61,1.39c-0.48,0-0.94-0.09-1.36-0.28
			c-0.42-0.19-0.73-0.42-0.94-0.7c-0.2-0.28-0.35-0.63-0.43-1.03c-0.06-0.27-0.08-0.71-0.08-1.3v-5.09h1.39v4.56
			c0,0.73,0.03,1.22,0.08,1.47c0.09,0.37,0.27,0.65,0.56,0.86c0.28,0.21,0.63,0.31,1.05,0.31c0.42,0,0.81-0.11,1.17-0.32
			s0.63-0.51,0.78-0.87c0.15-0.37,0.23-0.9,0.23-1.6v-4.4h1.39v8.21H262.41z"/>
		<path style="fill:#BBE0E3;" d="M265.67,19.42v-8.21h1.25v1.15c0.26-0.4,0.6-0.73,1.03-0.97c0.43-0.24,0.92-0.37,1.46-0.37
			c0.61,0,1.11,0.13,1.5,0.38s0.66,0.61,0.82,1.06c0.65-0.96,1.5-1.44,2.54-1.44c0.82,0,1.44,0.23,1.88,0.68s0.66,1.15,0.66,2.08
			v5.64h-1.38v-5.17c0-0.56-0.04-0.96-0.13-1.2c-0.09-0.25-0.25-0.44-0.49-0.59c-0.24-0.15-0.52-0.22-0.83-0.22
			c-0.58,0-1.06,0.19-1.44,0.58c-0.38,0.38-0.57,1-0.57,1.84v4.77h-1.39v-5.34c0-0.62-0.11-1.08-0.34-1.39
			c-0.23-0.31-0.6-0.46-1.11-0.46c-0.39,0-0.75,0.1-1.09,0.31c-0.33,0.21-0.57,0.51-0.72,0.91c-0.15,0.4-0.22,0.97-0.22,1.72v4.26
			H265.67z"/>
		<path style="fill:#BBE0E3;" d="M279.34,22.57V11.21h1.27v1.07c0.3-0.42,0.64-0.73,1.01-0.94c0.38-0.21,0.83-0.31,1.37-0.31
			c0.7,0,1.32,0.18,1.86,0.54s0.94,0.87,1.21,1.53c0.27,0.66,0.41,1.38,0.41,2.16c0,0.84-0.15,1.6-0.45,2.27s-0.74,1.19-1.31,1.55
			c-0.58,0.36-1.18,0.54-1.81,0.54c-0.46,0-0.88-0.1-1.25-0.29c-0.37-0.2-0.67-0.44-0.91-0.74v4H279.34z M280.61,15.36
			c0,1.06,0.21,1.84,0.64,2.34c0.43,0.51,0.95,0.76,1.55,0.76c0.62,0,1.15-0.26,1.59-0.79s0.66-1.33,0.66-2.43
			c0-1.05-0.21-1.83-0.65-2.35c-0.43-0.52-0.95-0.78-1.54-0.78c-0.59,0-1.12,0.28-1.57,0.83S280.61,14.31,280.61,15.36z"/>
	</g>
	<path style="fill:#CC0000;stroke:#CC0000;stroke-width:0.36;stroke-linecap:square;stroke-miterlimit:10;" d="M325.8,12.24v40.32
		h-2.88V12.24H325.8L325.8,12.24z M329.04,51.12l-4.68,9l-4.32-9H329.04L329.04,51.12z"/>
	<polygon style="fill-rule:evenodd;clip-rule:evenodd;fill:#808080;" points="324.36,6.12 323.28,6.12 322.2,6.48 321.12,7.2 
		320.04,7.92 319.32,8.64 318.96,9.72 318.6,10.8 318.6,12.24 318.6,13.32 318.96,14.4 319.32,15.48 320.04,16.2 321.12,16.92 
		322.2,17.64 323.28,18 324.36,18 325.8,18 326.88,17.64 327.96,16.92 328.68,16.2 329.4,15.48 330.12,14.4 330.48,13.32 
		330.48,12.24 330.48,10.8 330.12,9.72 329.4,8.64 328.68,7.92 327.96,7.2 326.88,6.48 325.8,6.12 324.36,6.12 	"/>
	<polyline style="fill:none;stroke:#000000;stroke-width:2.16;stroke-linecap:square;stroke-miterlimit:10;" points="324.36,6.12 
		323.28,6.12 322.2,6.48 321.12,7.2 320.04,7.92 319.32,8.64 318.96,9.72 318.6,10.8 318.6,12.24 318.6,13.32 318.96,14.4 
		319.32,15.48 320.04,16.2 321.12,16.92 322.2,17.64 323.28,18 324.36,18 325.8,18 326.88,17.64 327.96,16.92 328.68,16.2 
		329.4,15.48 330.12,14.4 330.48,13.32 330.48,12.24 330.48,10.8 330.12,9.72 329.4,8.64 328.68,7.92 327.96,7.2 326.88,6.48 
		325.8,6.12 324.36,6.12 	"/>
	<polyline style="fill-rule:evenodd;clip-rule:evenodd;fill:#BBE0E3;" points="288.36,60.12 288.36,108 360.36,108 360.36,60.12 
		288.36,60.12 	"/>
	
		<rect x="288.36" y="60.12" style="fill:none;stroke:#000000;stroke-width:0.72;stroke-linecap:square;stroke-miterlimit:10;" width="72" height="47.88"/>
	<g>
		<path d="M309.75,86.55l1.71,0.43c-0.36,1.4-1,2.47-1.93,3.2s-2.06,1.1-3.41,1.1c-1.39,0-2.52-0.28-3.39-0.85
			c-0.87-0.57-1.53-1.38-1.99-2.46c-0.46-1.07-0.68-2.22-0.68-3.45c0-1.34,0.26-2.51,0.77-3.51c0.51-1,1.24-1.76,2.19-2.28
			s1.99-0.78,3.13-0.78c1.29,0,2.37,0.33,3.25,0.98s1.49,1.58,1.84,2.77l-1.68,0.4c-0.3-0.94-0.73-1.62-1.3-2.05
			s-1.28-0.64-2.14-0.64c-0.99,0-1.82,0.24-2.48,0.71c-0.67,0.47-1.13,1.11-1.4,1.91s-0.4,1.62-0.4,2.47c0,1.1,0.16,2.05,0.48,2.87
			s0.82,1.43,1.49,1.83s1.4,0.61,2.19,0.61c0.96,0,1.76-0.28,2.43-0.83S309.51,87.63,309.75,86.55z"/>
		<path d="M313.32,91.06V78.18h1.58v4.62c0.74-0.86,1.67-1.28,2.79-1.28c0.69,0,1.29,0.14,1.8,0.41s0.88,0.65,1.09,1.13
			c0.22,0.48,0.33,1.18,0.33,2.09v5.92h-1.58v-5.92c0-0.79-0.17-1.37-0.51-1.73c-0.34-0.36-0.83-0.54-1.46-0.54
			c-0.47,0-0.91,0.12-1.32,0.36c-0.41,0.24-0.71,0.57-0.88,0.99s-0.26,0.99-0.26,1.72v5.11H313.32z"/>
		<path d="M323.39,80v-1.82h1.58V80H323.39z M323.39,91.06v-9.33h1.58v9.33H323.39z"/>
		<path d="M327.31,91.06V78.18h1.58v12.88H327.31z"/>
		<path d="M331.27,91.06V78.18h1.58v12.88H331.27z"/>
		<path d="M342,88.06l1.63,0.2c-0.26,0.96-0.74,1.7-1.43,2.22s-1.59,0.79-2.67,0.79c-1.37,0-2.45-0.42-3.25-1.26
			c-0.8-0.84-1.2-2.02-1.2-3.54c0-1.57,0.4-2.79,1.21-3.66s1.86-1.3,3.15-1.3c1.25,0,2.27,0.42,3.06,1.27s1.19,2.04,1.19,3.59
			c0,0.09,0,0.23-0.01,0.42h-6.96c0.06,1.03,0.35,1.81,0.87,2.36s1.17,0.82,1.95,0.82c0.58,0,1.08-0.15,1.49-0.46
			S341.76,88.73,342,88.06z M336.81,85.5h5.21c-0.07-0.79-0.27-1.37-0.6-1.77c-0.5-0.61-1.16-0.91-1.96-0.91
			c-0.73,0-1.34,0.24-1.83,0.73S336.86,84.69,336.81,85.5z"/>
		<path d="M345.66,91.06v-9.33h1.42v1.42c0.36-0.66,0.7-1.1,1.01-1.31c0.31-0.21,0.65-0.32,1.01-0.32c0.53,0,1.08,0.17,1.63,0.51
			l-0.54,1.47c-0.39-0.23-0.77-0.34-1.16-0.34c-0.35,0-0.66,0.1-0.93,0.31s-0.47,0.5-0.59,0.87c-0.18,0.56-0.26,1.18-0.26,1.85v4.89
			H345.66z"/>
	</g>
	<path style="fill:#CC0000;stroke:#CC0000;stroke-width:0.36;stroke-linecap:square;stroke-miterlimit:10;" d="M325.8,108v52.56
		h-2.88V108H325.8L325.8,108z M329.04,159.12l-4.68,9l-4.32-9H329.04L329.04,159.12z"/>
	<polygon style="fill-rule:evenodd;clip-rule:evenodd;fill:#808080;" points="324.36,132.12 323.28,132.12 322.2,132.48 
		321.12,133.2 320.04,133.92 319.32,134.64 318.96,135.72 318.6,136.8 318.6,138.24 318.6,139.32 318.96,140.4 319.32,141.48 
		320.04,142.2 321.12,142.92 322.2,143.64 323.28,144 324.36,144 325.8,144 326.88,143.64 327.96,142.92 328.68,142.2 329.4,141.48 
		330.12,140.4 330.48,139.32 330.48,138.24 330.48,136.8 330.12,135.72 329.4,134.64 328.68,133.92 327.96,133.2 326.88,132.48 
		325.8,132.12 324.36,132.12 	"/>
	<polyline style="fill:none;stroke:#000000;stroke-width:2.16;stroke-linecap:square;stroke-miterlimit:10;" points="324.36,132.12 
		323.28,132.12 322.2,132.48 321.12,133.2 320.04,133.92 319.32,134.64 318.96,135.72 318.6,136.8 318.6,138.24 318.6,139.32 
		318.96,140.4 319.32,141.48 320.04,142.2 321.12,142.92 322.2,143.64 323.28,144 324.36,144 325.8,144 326.88,143.64 
		327.96,142.92 328.68,142.2 329.4,141.48 330.12,140.4 330.48,139.32 330.48,138.24 330.48,136.8 330.12,135.72 329.4,134.64 
		328.68,133.92 327.96,133.2 326.88,132.48 325.8,132.12 324.36,132.12 	"/>
	<polyline style="fill-rule:evenodd;clip-rule:evenodd;fill:#BBE0E3;" points="288.36,168.12 288.36,216 360.36,216 360.36,168.12 
		288.36,168.12 	"/>
	
		<rect x="288.36" y="168.12" style="fill:none;stroke:#000000;stroke-width:0.72;stroke-linecap:square;stroke-miterlimit:10;" width="72" height="47.88"/>
	<g>
		<path d="M311.75,199.07v-11.36h-4.25v-1.52h10.21v1.52h-4.26v11.36H311.75z"/>
		<path d="M319.67,199.07v-12.88h9.32v1.52h-7.61v3.95h7.13v1.51h-7.13v4.39h7.91v1.52H319.67z"/>
		<path d="M330.95,194.93l1.61-0.14c0.08,0.64,0.25,1.17,0.53,1.59c0.28,0.41,0.71,0.75,1.3,1c0.59,0.25,1.25,0.38,1.98,0.38
			c0.65,0,1.22-0.1,1.72-0.29s0.87-0.46,1.11-0.79s0.37-0.71,0.37-1.1c0-0.4-0.12-0.76-0.35-1.06s-0.62-0.56-1.16-0.76
			c-0.35-0.13-1.11-0.34-2.29-0.63s-2.01-0.55-2.49-0.8c-0.62-0.32-1.07-0.72-1.38-1.2c-0.3-0.48-0.45-1.01-0.45-1.6
			c0-0.65,0.18-1.26,0.55-1.82s0.91-1,1.62-1.29s1.5-0.44,2.36-0.44c0.96,0,1.8,0.15,2.53,0.46c0.73,0.31,1.29,0.76,1.68,1.36
			s0.6,1.27,0.63,2.03l-1.63,0.12c-0.09-0.81-0.39-1.43-0.89-1.85c-0.51-0.42-1.26-0.62-2.25-0.62c-1.03,0-1.78,0.19-2.25,0.57
			c-0.47,0.38-0.71,0.83-0.71,1.37c0,0.46,0.17,0.84,0.5,1.14c0.33,0.3,1.18,0.61,2.57,0.92c1.39,0.31,2.34,0.59,2.85,0.82
			c0.75,0.35,1.3,0.78,1.66,1.31s0.54,1.14,0.54,1.83c0,0.69-0.2,1.33-0.59,1.94c-0.39,0.61-0.96,1.08-1.69,1.42
			c-0.74,0.34-1.56,0.5-2.48,0.5c-1.17,0-2.14-0.17-2.93-0.51c-0.79-0.34-1.41-0.85-1.86-1.53
			C331.21,196.57,330.97,195.79,330.95,194.93z"/>
	</g>
	<path style="fill:#CC0000;stroke:#CC0000;stroke-width:0.36;stroke-linecap:square;stroke-miterlimit:10;" d="M325.8,216v34.56
		h-2.88V216H325.8L325.8,216z M329.04,249.12l-4.68,9l-4.32-9H329.04L329.04,249.12z"/>
	<polygon style="fill-rule:evenodd;clip-rule:evenodd;fill:#808080;" points="216.36,252 215.28,252.36 214.2,252.72 213.12,253.08 
		212.04,253.8 211.32,254.88 210.96,255.6 210.6,257.04 210.6,258.12 210.6,259.2 210.96,260.28 211.32,261.36 212.04,262.44 
		213.12,263.16 214.2,263.52 215.28,263.88 216.36,264.24 217.8,263.88 218.88,263.52 219.96,263.16 220.68,262.44 221.4,261.36 
		222.12,260.28 222.48,259.2 222.48,258.12 222.48,257.04 222.12,255.6 221.4,254.88 220.68,253.8 219.96,253.08 218.88,252.72 
		217.8,252.36 216.36,252 	"/>
	<polyline style="fill:none;stroke:#000000;stroke-width:2.16;stroke-linecap:square;stroke-miterlimit:10;" points="216.36,252 
		215.28,252.36 214.2,252.72 213.12,253.08 212.04,253.8 211.32,254.88 210.96,255.6 210.6,257.04 210.6,258.12 210.6,259.2 
		210.96,260.28 211.32,261.36 212.04,262.44 213.12,263.16 214.2,263.52 215.28,263.88 216.36,264.24 217.8,263.88 218.88,263.52 
		219.96,263.16 220.68,262.44 221.4,261.36 222.12,260.28 222.48,259.2 222.48,258.12 222.48,257.04 222.12,255.6 221.4,254.88 
		220.68,253.8 219.96,253.08 218.88,252.72 217.8,252.36 216.36,252 	"/>
	<path style="fill:#CC0000;stroke:#CC0000;stroke-width:0.36;stroke-linecap:square;stroke-miterlimit:10;" d="M324.36,259.56
		h-94.32v-2.88h94.32V259.56L324.36,259.56z M231.48,262.44l-9-4.32l9-4.68V262.44L231.48,262.44z"/>
	<path style="fill:#00CC00;stroke:#00CC00;stroke-width:0.36;stroke-linecap:square;stroke-miterlimit:10;" d="M214.92,252v-2.88
		h2.88V252H214.92L214.92,252z M214.92,246.24V243h2.88v3.24H214.92L214.92,246.24z M214.92,240.12v-2.88h2.88v2.88H214.92
		L214.92,240.12z M214.92,234v-2.88h2.88V234H214.92L214.92,234z M214.92,228.24V225h2.88v3.24H214.92L214.92,228.24z
		 M214.92,222.12v-2.88h2.88v2.88H214.92L214.92,222.12z M214.92,216v-2.88h2.88V216H214.92L214.92,216z M214.92,210.24V207h2.88
		v3.24H214.92L214.92,210.24z M214.92,204.12v-2.88h2.88v2.88H214.92L214.92,204.12z M214.92,198v-2.88h2.88V198H214.92L214.92,198z
		 M214.92,192.24V189h2.88v3.24H214.92L214.92,192.24z M214.92,186.12v-2.88h2.88v2.88H214.92L214.92,186.12z M214.92,180v-2.88
		h2.88V180H214.92L214.92,180z M214.92,174.24V171h2.88v3.24H214.92L214.92,174.24z M214.92,168.12v-2.88h2.88v2.88H214.92
		L214.92,168.12z M214.92,162v-2.88h2.88V162H214.92L214.92,162z M214.92,156.24V153h2.88v3.24H214.92L214.92,156.24z
		 M214.92,150.12v-2.88h2.88v2.88H214.92L214.92,150.12z M214.92,144v-2.88h2.88V144H214.92L214.92,144z M214.92,138.24V135h2.88
		v3.24H214.92L214.92,138.24z M214.92,132.12v-2.88h2.88v2.88H214.92L214.92,132.12z M214.92,126v-2.88h2.88V126H214.92L214.92,126z
		 M214.92,120.24V117h2.88v3.24H214.92L214.92,120.24z M214.92,114.12v-2.88h2.88v2.88H214.92L214.92,114.12z M214.92,108v-2.88
		h2.88V108H214.92L214.92,108z M214.92,102.24V99h2.88v3.24H214.92L214.92,102.24z M214.92,96.12v-2.88h2.88v2.88H214.92
		L214.92,96.12z M214.92,90v-2.88h2.88V90H214.92L214.92,90z M214.92,84.24V81h2.88v3.24H214.92L214.92,84.24z M214.92,78.12v-2.88
		h2.88v2.88H214.92L214.92,78.12z M214.92,72v-2.88h2.88V72H214.92L214.92,72z M214.92,66.24V63h2.88v3.24H214.92L214.92,66.24z
		 M214.92,60.12v-2.88h2.88v2.88H214.92L214.92,60.12z M214.92,54v-2.88h2.88V54H214.92L214.92,54z M214.92,48.24V45h2.88v3.24
		H214.92L214.92,48.24z M212.04,45l4.32-9l4.68,9H212.04L212.04,45z"/>
	<path style="fill:#00CC00;stroke:#00CC00;stroke-width:0.36;stroke-linecap:square;stroke-miterlimit:10;" d="M158.04,36v3.24
		h-3.24V36H158.04L158.04,36z M158.04,42.12V45h-3.24v-2.88H158.04L158.04,42.12z M158.04,48.24v2.88h-3.24v-2.88H158.04
		L158.04,48.24z M158.04,54v3.24h-3.24V54H158.04L158.04,54z M158.04,60.12V63h-3.24v-2.88H158.04L158.04,60.12z M158.04,66.24v2.88
		h-3.24v-2.88H158.04L158.04,66.24z M158.04,72v3.24h-3.24V72H158.04L158.04,72z M158.04,78.12V81h-3.24v-2.88H158.04L158.04,78.12z
		 M158.04,84.24v2.88h-3.24v-2.88H158.04L158.04,84.24z M158.04,90v3.24h-3.24V90H158.04L158.04,90z M158.04,96.12V99h-3.24v-2.88
		H158.04L158.04,96.12z M158.04,102.24v2.88h-3.24v-2.88H158.04L158.04,102.24z M158.04,108v3.24h-3.24V108H158.04L158.04,108z
		 M158.04,114.12V117h-3.24v-2.88H158.04L158.04,114.12z M158.04,120.24v2.88h-3.24v-2.88H158.04L158.04,120.24z M158.04,126v3.24
		h-3.24V126H158.04L158.04,126z M158.04,132.12V135h-3.24v-2.88H158.04L158.04,132.12z M158.04,138.24v2.88h-3.24v-2.88H158.04
		L158.04,138.24z M158.04,144v3.24h-3.24V144H158.04L158.04,144z M158.04,150.12V153h-3.24v-2.88H158.04L158.04,150.12z
		 M158.04,156.24v2.88h-3.24v-2.88H158.04L158.04,156.24z M158.04,162v3.24h-3.24V162H158.04L158.04,162z M158.04,168.12V171h-3.24
		v-2.88H158.04L158.04,168.12z M158.04,174.24v2.88h-3.24v-2.88H158.04L158.04,174.24z M158.04,180v3.24h-3.24V180H158.04
		L158.04,180z M158.04,186.12V189h-3.24v-2.88H158.04L158.04,186.12z M158.04,192.24v2.88h-3.24v-2.88H158.04L158.04,192.24z
		 M158.04,198v3.24h-3.24V198H158.04L158.04,198z M158.04,204.12V207h-3.24v-2.88H158.04L158.04,204.12z M158.04,210.24v2.88h-3.24
		v-2.88H158.04L158.04,210.24z M158.04,216v3.24h-3.24V216H158.04L158.04,216z M158.04,222.12V225h-3.24v-2.88H158.04L158.04,222.12
		z M158.04,228.24v2.88h-3.24v-2.88H158.04L158.04,228.24z M158.04,234v3.24h-3.24V234H158.04L158.04,234z M158.04,240.12V243h-3.24
		v-2.88H158.04L158.04,240.12z M160.92,243l-4.32,9l-4.68-9H160.92L160.92,243z"/>
	<path style="fill:#00CC00;stroke:#00CC00;stroke-width:0.36;stroke-linecap:square;stroke-miterlimit:10;" d="M162.36,28.44h40.68
		v3.24h-40.68V28.44L162.36,28.44z M201.6,25.56l9,4.68l-9,4.32V25.56L201.6,25.56z"/>
	<path style="fill:#00CC00;stroke:#00CC00;stroke-width:0.36;stroke-linecap:square;stroke-miterlimit:10;" d="M210.6,259.56h-40.68
		v-2.88h40.68V259.56L210.6,259.56z M171.36,262.44l-9-4.32l9-4.68V262.44L171.36,262.44z"/>
	
		<line style="fill:none;stroke:#CC0000;stroke-width:2.88;stroke-linecap:square;stroke-miterlimit:10;" x1="324.36" y1="12.24" x2="288.36" y2="12.24"/>
	<polygon style="fill-rule:evenodd;clip-rule:evenodd;fill:#333399;" points="259.92,0 262.08,0.36 264.24,0.36 266.04,1.08 
		268.2,1.8 270,2.52 271.8,3.6 273.24,5.04 274.68,6.12 276.12,7.56 277.2,9.36 278.28,11.16 279.36,12.96 280.08,14.76 
		280.44,16.92 280.8,19.08 280.8,21.24 280.8,23.04 280.44,25.2 280.08,27.36 279.36,29.16 278.28,30.96 277.2,32.76 276.12,34.56 
		274.68,36 273.24,37.44 271.8,38.52 270,39.6 268.2,40.32 266.04,41.04 264.24,41.76 262.08,42.12 259.92,42.12 257.76,42.12 
		255.6,41.76 253.8,41.04 251.64,40.32 249.84,39.6 248.04,38.52 246.6,37.44 245.16,36 243.72,34.56 242.64,32.76 241.56,30.96 
		240.48,29.16 239.76,27.36 239.4,25.2 239.04,23.04 239.04,21.24 239.04,19.08 239.4,16.92 239.76,14.76 240.48,12.96 
		241.56,11.16 242.64,9.36 243.72,7.56 245.16,6.12 246.6,5.04 248.04,3.6 249.84,2.52 251.64,1.8 253.8,1.08 255.6,0.36 
		257.76,0.36 259.92,0 	"/>
	<polyline style="fill-rule:evenodd;clip-rule:evenodd;fill:#333399;" points="257.04,0 257.04,24.12 293.04,24.12 293.04,0 
		257.04,0 	"/>
	<polygon style="fill-rule:evenodd;clip-rule:evenodd;fill:#333399;" points="259.92,0 262.08,0.36 264.24,0.36 266.04,1.08 
		268.2,1.8 270,2.52 271.8,3.6 273.24,5.04 274.68,6.12 276.12,7.56 277.2,9.36 278.28,11.16 279.36,12.96 280.08,14.76 
		280.44,16.92 280.8,19.08 280.8,21.24 280.8,23.04 280.44,25.2 280.08,27.36 279.36,29.16 278.28,30.96 277.2,32.76 276.12,34.56 
		274.68,36 273.24,37.44 271.8,38.52 270,39.6 268.2,40.32 266.04,41.04 264.24,41.76 262.08,42.12 259.92,42.12 257.76,42.12 
		255.6,41.76 253.8,41.04 251.64,40.32 249.84,39.6 248.04,38.52 246.6,37.44 245.16,36 243.72,34.56 242.64,32.76 241.56,30.96 
		240.48,29.16 239.76,27.36 239.4,25.2 239.04,23.04 239.04,21.24 239.04,19.08 239.4,16.92 239.76,14.76 240.48,12.96 
		241.56,11.16 242.64,9.36 243.72,7.56 245.16,6.12 246.6,5.04 248.04,3.6 249.84,2.52 251.64,1.8 253.8,1.08 255.6,0.36 
		257.76,0.36 259.92,0 	"/>
	<polyline style="fill-rule:evenodd;clip-rule:evenodd;fill:#333399;" points="257.04,0 257.04,24.12 293.04,24.12 293.04,0 
		257.04,0 	"/>
	<polyline style="fill-rule:evenodd;clip-rule:evenodd;fill:#BBE0E3;" points="0.36,54 0.36,78.12 72.36,78.12 72.36,54 0.36,54 	
		"/>
	
		<rect x="0.36" y="54" style="fill:none;stroke:#000000;stroke-width:0.72;stroke-linecap:square;stroke-miterlimit:10;" width="72" height="24.12"/>
	<g>
		<path d="M16.1,73.08V60.2h2.57l3.05,9.12c0.28,0.85,0.49,1.49,0.62,1.91c0.15-0.47,0.38-1.16,0.69-2.07l3.08-8.96h2.29v12.88
			h-1.64V62.3L23,73.08h-1.54l-3.73-10.97v10.97H16.1z"/>
		<path d="M30.72,62.01V60.2h1.58v1.82H30.72z M30.72,73.08v-9.33h1.58v9.33H30.72z"/>
		<path d="M33.96,73.08l3.41-4.85l-3.16-4.48h1.98l1.43,2.19c0.27,0.42,0.49,0.76,0.65,1.05c0.26-0.39,0.5-0.73,0.71-1.03l1.57-2.21
			h1.89l-3.23,4.39l3.47,4.94h-1.94l-1.92-2.9l-0.51-0.78l-2.45,3.68H33.96z"/>
		<path d="M50.06,70.07l1.63,0.2c-0.26,0.96-0.74,1.7-1.43,2.22s-1.59,0.79-2.67,0.79c-1.37,0-2.45-0.42-3.25-1.26
			s-1.2-2.02-1.2-3.54c0-1.57,0.4-2.79,1.21-3.66s1.86-1.3,3.15-1.3c1.25,0,2.27,0.42,3.06,1.27s1.19,2.04,1.19,3.59
			c0,0.09,0,0.23-0.01,0.42h-6.96c0.06,1.03,0.35,1.81,0.87,2.36s1.17,0.82,1.95,0.82c0.58,0,1.08-0.15,1.49-0.46
			S49.82,70.74,50.06,70.07z M44.86,67.52h5.21c-0.07-0.79-0.27-1.37-0.6-1.77c-0.5-0.61-1.16-0.91-1.96-0.91
			c-0.73,0-1.34,0.24-1.83,0.73S44.92,66.7,44.86,67.52z"/>
		<path d="M53.72,73.08v-9.33h1.42v1.42c0.36-0.66,0.7-1.1,1.01-1.31s0.65-0.32,1.02-0.32c0.53,0,1.08,0.17,1.63,0.51l-0.54,1.47
			c-0.39-0.23-0.77-0.34-1.16-0.34c-0.35,0-0.66,0.1-0.93,0.31s-0.47,0.5-0.59,0.87c-0.18,0.56-0.26,1.18-0.26,1.85v4.89H53.72z"/>
	</g>
	<polygon style="fill-rule:evenodd;clip-rule:evenodd;fill:#333399;" points="105.48,228.24 103.32,228.24 101.16,228.6 
		99.36,228.96 97.2,229.68 95.4,230.76 93.6,231.48 92.16,232.92 90.72,234.36 89.28,235.8 87.84,237.24 87.12,239.04 86.04,240.84 
		85.32,243 84.96,244.8 84.6,246.96 84.6,249.12 84.6,251.28 84.96,253.44 85.32,255.24 86.04,257.4 87.12,259.2 87.84,261 
		89.28,262.44 90.72,263.88 92.16,265.32 93.6,266.4 95.4,267.48 97.2,268.56 99.36,269.28 101.16,269.64 103.32,270 105.48,270 
		107.64,270 109.8,269.64 111.6,269.28 113.76,268.56 115.56,267.48 117.36,266.4 118.8,265.32 120.24,263.88 121.68,262.44 
		122.76,261 123.84,259.2 124.92,257.4 125.64,255.24 126,253.44 126.36,251.28 126.36,249.12 126.36,246.96 126,244.8 125.64,243 
		124.92,240.84 123.84,239.04 122.76,237.24 121.68,235.8 120.24,234.36 118.8,232.92 117.36,231.48 115.56,230.76 113.76,229.68 
		111.6,228.96 109.8,228.6 107.64,228.24 105.48,228.24 	"/>
	<polyline style="fill-rule:evenodd;clip-rule:evenodd;fill:#333399;" points="72.36,228.24 72.36,252 108.36,252 108.36,228.24 
		72.36,228.24 	"/>
	<polygon style="fill-rule:evenodd;clip-rule:evenodd;fill:#333399;" points="105.48,228.24 103.32,228.24 101.16,228.6 
		99.36,228.96 97.2,229.68 95.4,230.76 93.6,231.48 92.16,232.92 90.72,234.36 89.28,235.8 87.84,237.24 87.12,239.04 86.04,240.84 
		85.32,243 84.96,244.8 84.6,246.96 84.6,249.12 84.6,251.28 84.96,253.44 85.32,255.24 86.04,257.4 87.12,259.2 87.84,261 
		89.28,262.44 90.72,263.88 92.16,265.32 93.6,266.4 95.4,267.48 97.2,268.56 99.36,269.28 101.16,269.64 103.32,270 105.48,270 
		107.64,270 109.8,269.64 111.6,269.28 113.76,268.56 115.56,267.48 117.36,266.4 118.8,265.32 120.24,263.88 121.68,262.44 
		122.76,261 123.84,259.2 124.92,257.4 125.64,255.24 126,253.44 126.36,251.28 126.36,249.12 126.36,246.96 126,244.8 125.64,243 
		124.92,240.84 123.84,239.04 122.76,237.24 121.68,235.8 120.24,234.36 118.8,232.92 117.36,231.48 115.56,230.76 113.76,229.68 
		111.6,228.96 109.8,228.6 107.64,228.24 105.48,228.24 	"/>
	<polyline style="fill-rule:evenodd;clip-rule:evenodd;fill:#333399;" points="72.36,228.24 72.36,252 108.36,252 108.36,228.24 
		72.36,228.24 	"/>
	<path style="fill:#CC0000;stroke:#CC0000;stroke-width:0.36;stroke-linecap:square;stroke-miterlimit:10;" d="M156.6,259.56h-28.8
		v-2.88h28.8V259.56L156.6,259.56z M129.6,262.44l-9-4.32l9-4.68V262.44L129.6,262.44z"/>
	
		<line style="fill:none;stroke:#CC0000;stroke-width:2.88;stroke-linecap:square;stroke-miterlimit:10;" x1="72.36" y1="240.12" x2="36.36" y2="240.12"/>
	<polyline style="fill-rule:evenodd;clip-rule:evenodd;fill:#BBE0E3;" points="0.36,108 0.36,162 24.48,162 24.48,108 0.36,108 	"/>
	
		<rect x="0.36" y="108" style="fill:none;stroke:#000000;stroke-width:0.72;stroke-linecap:square;stroke-miterlimit:10;" width="24.12" height="54"/>
	<g>
		<path d="M16.7,126.88l1.71,0.43c-0.36,1.4-1,2.47-1.93,3.2s-2.06,1.1-3.41,1.1c-1.39,0-2.52-0.28-3.39-0.85s-1.53-1.38-1.99-2.46
			s-0.68-2.22-0.68-3.45c0-1.34,0.26-2.51,0.77-3.51s1.24-1.76,2.19-2.28s1.99-0.78,3.12-0.78c1.29,0,2.37,0.33,3.25,0.98
			s1.49,1.58,1.84,2.77l-1.68,0.4c-0.3-0.94-0.73-1.62-1.3-2.05s-1.28-0.64-2.14-0.64c-0.99,0-1.82,0.24-2.48,0.71
			s-1.13,1.11-1.4,1.91s-0.4,1.62-0.4,2.47c0,1.1,0.16,2.05,0.48,2.87s0.82,1.43,1.49,1.83s1.4,0.61,2.19,0.61
			c0.96,0,1.76-0.28,2.43-0.83S16.47,127.97,16.7,126.88z"/>
	</g>
	<g>
		<path d="M16.7,148.48l1.71,0.43c-0.36,1.4-1,2.47-1.93,3.2s-2.06,1.1-3.41,1.1c-1.39,0-2.52-0.28-3.39-0.85
			c-0.87-0.56-1.53-1.38-1.99-2.46s-0.68-2.22-0.68-3.45c0-1.34,0.26-2.51,0.77-3.51c0.51-1,1.24-1.76,2.19-2.28
			c0.95-0.52,1.99-0.78,3.12-0.78c1.29,0,2.37,0.33,3.25,0.98s1.49,1.58,1.84,2.77l-1.68,0.4c-0.3-0.94-0.73-1.62-1.3-2.05
			s-1.28-0.64-2.14-0.64c-0.99,0-1.82,0.24-2.48,0.71s-1.13,1.11-1.4,1.91c-0.27,0.8-0.4,1.62-0.4,2.47c0,1.1,0.16,2.05,0.48,2.87
			c0.32,0.82,0.82,1.43,1.49,1.83s1.4,0.61,2.19,0.61c0.96,0,1.76-0.28,2.43-0.83S16.47,149.57,16.7,148.48z"/>
	</g>
	<polyline style="fill-rule:evenodd;clip-rule:evenodd;fill:#BBE0E3;" points="42.48,108 42.48,162 66.6,162 66.6,108 42.48,108 	
		"/>
	
		<rect x="42.48" y="108" style="fill:none;stroke:#000000;stroke-width:0.72;stroke-linecap:square;stroke-miterlimit:10;" width="24.12" height="54"/>
	<g>
		<path d="M58.82,126.88l1.71,0.43c-0.36,1.4-1,2.47-1.93,3.2s-2.06,1.1-3.41,1.1c-1.39,0-2.52-0.28-3.39-0.85s-1.53-1.38-1.99-2.46
			s-0.68-2.22-0.68-3.45c0-1.34,0.26-2.51,0.77-3.51s1.24-1.76,2.19-2.28s1.99-0.78,3.12-0.78c1.29,0,2.37,0.33,3.25,0.98
			s1.49,1.58,1.84,2.77l-1.68,0.4c-0.3-0.94-0.73-1.62-1.3-2.05s-1.28-0.64-2.14-0.64c-0.99,0-1.82,0.24-2.48,0.71
			s-1.13,1.11-1.4,1.91s-0.4,1.62-0.4,2.47c0,1.1,0.16,2.05,0.48,2.87s0.82,1.43,1.49,1.83s1.4,0.61,2.19,0.61
			c0.96,0,1.76-0.28,2.43-0.83S58.58,127.97,58.82,126.88z"/>
	</g>
	<g>
		<path d="M58.82,148.48l1.71,0.43c-0.36,1.4-1,2.47-1.93,3.2s-2.06,1.1-3.41,1.1c-1.39,0-2.52-0.28-3.39-0.85
			c-0.87-0.56-1.53-1.38-1.99-2.46s-0.68-2.22-0.68-3.45c0-1.34,0.26-2.51,0.77-3.51c0.51-1,1.24-1.76,2.19-2.28
			c0.95-0.52,1.99-0.78,3.12-0.78c1.29,0,2.37,0.33,3.25,0.98s1.49,1.58,1.84,2.77l-1.68,0.4c-0.3-0.94-0.73-1.62-1.3-2.05
			s-1.28-0.64-2.14-0.64c-0.99,0-1.82,0.24-2.48,0.71s-1.13,1.11-1.4,1.91c-0.27,0.8-0.4,1.62-0.4,2.47c0,1.1,0.16,2.05,0.48,2.87
			c0.32,0.82,0.82,1.43,1.49,1.83s1.4,0.61,2.19,0.61c0.96,0,1.76-0.28,2.43-0.83S58.58,149.57,58.82,148.48z"/>
	</g>
	<path style="fill:#CC0000;stroke:#CC0000;stroke-width:0.36;stroke-linecap:square;stroke-miterlimit:10;" d="M34.92,240.12v-16.56
		h2.88v16.56H34.92L34.92,240.12z M32.04,225l4.32-9l4.68,9H32.04L32.04,225z"/>
	<polyline style="fill-rule:evenodd;clip-rule:evenodd;fill:#BBE0E3;" points="0.36,192.24 0.36,216 72.36,216 72.36,192.24 
		0.36,192.24 	"/>
	
		<rect x="0.36" y="192.24" style="fill:none;stroke:#000000;stroke-width:0.72;stroke-linecap:square;stroke-miterlimit:10;" width="72" height="23.76"/>
	<g>
		<path d="M9.44,207.18l1.61-0.14c0.08,0.64,0.25,1.17,0.53,1.59c0.28,0.41,0.71,0.75,1.3,1c0.59,0.25,1.25,0.38,1.98,0.38
			c0.65,0,1.22-0.1,1.72-0.29s0.87-0.46,1.11-0.79s0.36-0.71,0.36-1.1c0-0.4-0.12-0.76-0.35-1.06s-0.62-0.56-1.16-0.76
			c-0.35-0.13-1.11-0.34-2.29-0.63s-2.01-0.55-2.49-0.8c-0.62-0.32-1.07-0.72-1.38-1.2s-0.45-1.01-0.45-1.6
			c0-0.65,0.18-1.26,0.55-1.82s0.91-1,1.62-1.29s1.5-0.44,2.36-0.44c0.96,0,1.8,0.15,2.53,0.46c0.73,0.31,1.29,0.76,1.68,1.36
			s0.6,1.27,0.63,2.03l-1.63,0.12c-0.09-0.81-0.39-1.43-0.89-1.85s-1.26-0.62-2.25-0.62c-1.03,0-1.78,0.19-2.25,0.57
			c-0.47,0.38-0.71,0.83-0.71,1.37c0,0.46,0.17,0.84,0.5,1.14c0.33,0.3,1.19,0.61,2.57,0.92c1.39,0.31,2.34,0.59,2.85,0.82
			c0.75,0.35,1.3,0.78,1.66,1.31s0.54,1.14,0.54,1.83c0,0.69-0.2,1.33-0.59,1.94c-0.39,0.61-0.96,1.08-1.69,1.42
			c-0.74,0.34-1.56,0.5-2.48,0.5c-1.17,0-2.14-0.17-2.93-0.51s-1.41-0.85-1.85-1.53C9.7,208.82,9.47,208.04,9.44,207.18z"/>
		<path d="M21.72,214.9v-12.91h1.44v1.21c0.34-0.47,0.72-0.83,1.15-1.07c0.43-0.24,0.95-0.36,1.56-0.36c0.8,0,1.5,0.21,2.11,0.62
			s1.07,0.99,1.38,1.74c0.31,0.75,0.47,1.57,0.47,2.46c0,0.96-0.17,1.82-0.51,2.58c-0.34,0.77-0.84,1.35-1.49,1.76
			c-0.65,0.41-1.34,0.61-2.06,0.61c-0.53,0-1-0.11-1.42-0.33s-0.76-0.5-1.03-0.84v4.54H21.72z M23.15,206.71
			c0,1.2,0.24,2.09,0.73,2.66s1.08,0.86,1.77,0.86c0.7,0,1.31-0.3,1.81-0.89c0.5-0.59,0.75-1.52,0.75-2.76
			c0-1.19-0.24-2.08-0.73-2.67s-1.07-0.89-1.75-0.89c-0.67,0-1.27,0.32-1.79,0.94C23.41,204.59,23.15,205.51,23.15,206.71z"/>
		<path d="M31.75,211.32v-12.88h1.58v12.88H31.75z"/>
		<path d="M35.76,200.26v-1.82h1.58v1.82H35.76z M35.76,211.32v-9.33h1.58v9.33H35.76z"/>
		<path d="M43.51,209.91l0.23,1.4c-0.45,0.09-0.84,0.14-1.2,0.14c-0.57,0-1.02-0.09-1.34-0.27s-0.54-0.42-0.67-0.72
			s-0.19-0.92-0.19-1.87v-5.37h-1.16v-1.23h1.16v-2.31l1.57-0.95v3.26h1.59v1.23h-1.59v5.46c0,0.45,0.03,0.74,0.08,0.87
			s0.15,0.23,0.27,0.31s0.31,0.11,0.54,0.11C42.99,209.97,43.22,209.95,43.51,209.91z"/>
		<path d="M48.54,209.91l0.23,1.4c-0.45,0.09-0.84,0.14-1.2,0.14c-0.57,0-1.02-0.09-1.34-0.27s-0.54-0.42-0.67-0.72
			s-0.19-0.92-0.19-1.87v-5.37h-1.16v-1.23h1.16v-2.31l1.57-0.95v3.26h1.59v1.23h-1.59v5.46c0,0.45,0.03,0.74,0.08,0.87
			s0.15,0.23,0.27,0.31s0.31,0.11,0.54,0.11C48.02,209.97,48.26,209.95,48.54,209.91z"/>
		<path d="M56.52,208.32l1.63,0.2c-0.26,0.96-0.74,1.7-1.43,2.22s-1.59,0.79-2.67,0.79c-1.37,0-2.45-0.42-3.25-1.26
			c-0.8-0.84-1.2-2.02-1.2-3.54c0-1.57,0.4-2.79,1.21-3.66s1.86-1.3,3.15-1.3c1.25,0,2.27,0.42,3.06,1.27s1.19,2.04,1.19,3.59
			c0,0.09,0,0.23-0.01,0.42h-6.96c0.06,1.03,0.35,1.81,0.87,2.36s1.17,0.82,1.95,0.82c0.58,0,1.08-0.15,1.49-0.46
			S56.28,208.98,56.52,208.32z M51.32,205.76h5.21c-0.07-0.79-0.27-1.37-0.6-1.77c-0.5-0.61-1.16-0.91-1.96-0.91
			c-0.73,0-1.34,0.24-1.83,0.73S51.37,204.94,51.32,205.76z"/>
		<path d="M60.17,211.32v-9.33h1.42v1.42c0.36-0.66,0.7-1.1,1.01-1.31s0.65-0.32,1.02-0.32c0.53,0,1.08,0.17,1.63,0.51l-0.54,1.47
			c-0.39-0.23-0.77-0.34-1.16-0.34c-0.35,0-0.66,0.1-0.93,0.31s-0.47,0.5-0.59,0.87c-0.18,0.56-0.26,1.18-0.26,1.85v4.89H60.17z"/>
	</g>
	<path style="fill:#CC0000;stroke:#CC0000;stroke-width:0.36;stroke-linecap:square;stroke-miterlimit:10;" d="M10.8,192.24v-22.68
		h3.24v22.68H10.8L10.8,192.24z M7.92,171l4.68-9l4.32,9H7.92L7.92,171z"/>
	<path style="fill:#CC0000;stroke:#CC0000;stroke-width:0.36;stroke-linecap:square;stroke-miterlimit:10;" d="M52.92,192.24v-22.68
		h2.88v22.68H52.92L52.92,192.24z M50.04,171l4.32-9l4.68,9H50.04L50.04,171z"/>
	<path style="fill:#CC0000;stroke:#CC0000;stroke-width:0.36;stroke-linecap:square;stroke-miterlimit:10;" d="M52.92,108V85.68
		h2.88V108H52.92L52.92,108z M50.04,87.12l4.32-9l4.68,9H50.04L50.04,87.12z"/>
	<path style="fill:#CC0000;stroke:#CC0000;stroke-width:0.36;stroke-linecap:square;stroke-miterlimit:10;" d="M10.8,108V85.68h3.24
		V108H10.8L10.8,108z M7.92,87.12l4.68-9l4.32,9H7.92L7.92,87.12z"/>
	
		<line style="fill:none;stroke:#CC0000;stroke-width:2.88;stroke-linecap:square;stroke-miterlimit:10;" x1="36.36" y1="54" x2="36.36" y2="30.24"/>
	<path style="fill:#CC0000;stroke:#CC0000;stroke-width:0.36;stroke-linecap:square;stroke-miterlimit:10;" d="M36.36,28.44h106.56
		v3.24H36.36V28.44L36.36,28.44z M141.48,25.56l9,4.68l-9,4.32V25.56L141.48,25.56z"/>
	<polygon style="fill-rule:evenodd;clip-rule:evenodd;fill:#808080;" points="156.6,24.12 155.16,24.12 154.08,24.48 153,25.2 
		152.28,25.92 151.56,26.64 150.84,27.72 150.48,28.8 150.48,30.24 150.48,31.32 150.84,32.4 151.56,33.48 152.28,34.2 153,34.92 
		154.08,35.64 155.16,36 156.6,36 157.68,36 158.76,35.64 159.84,34.92 160.56,34.2 161.28,33.48 162,32.4 162.36,31.32 
		162.36,30.24 162.36,28.8 162,27.72 161.28,26.64 160.56,25.92 159.84,25.2 158.76,24.48 157.68,24.12 156.6,24.12 	"/>
	<polyline style="fill:none;stroke:#000000;stroke-width:2.16;stroke-linecap:square;stroke-miterlimit:10;" points="156.6,24.12 
		155.16,24.12 154.08,24.48 153,25.2 152.28,25.92 151.56,26.64 150.84,27.72 150.48,28.8 150.48,30.24 150.48,31.32 150.84,32.4 
		151.56,33.48 152.28,34.2 153,34.92 154.08,35.64 155.16,36 156.6,36 157.68,36 158.76,35.64 159.84,34.92 160.56,34.2 
		161.28,33.48 162,32.4 162.36,31.32 162.36,30.24 162.36,28.8 162,27.72 161.28,26.64 160.56,25.92 159.84,25.2 158.76,24.48 
		157.68,24.12 156.6,24.12 	"/>
	<polygon style="fill-rule:evenodd;clip-rule:evenodd;fill:#808080;" points="36.36,24.12 35.28,24.12 34.2,24.48 33.12,25.2 
		32.04,25.92 31.32,26.64 30.96,27.72 30.6,28.8 30.6,30.24 30.6,31.32 30.96,32.4 31.32,33.48 32.04,34.2 33.12,34.92 34.2,35.64 
		35.28,36 36.36,36 37.8,36 38.88,35.64 39.96,34.92 40.68,34.2 41.4,33.48 42.12,32.4 42.48,31.32 42.48,30.24 42.48,28.8 
		42.12,27.72 41.4,26.64 40.68,25.92 39.96,25.2 38.88,24.48 37.8,24.12 36.36,24.12 	"/>
	<polyline style="fill:none;stroke:#000000;stroke-width:2.16;stroke-linecap:square;stroke-miterlimit:10;" points="36.36,24.12 
		35.28,24.12 34.2,24.48 33.12,25.2 32.04,25.92 31.32,26.64 30.96,27.72 30.6,28.8 30.6,30.24 30.6,31.32 30.96,32.4 31.32,33.48 
		32.04,34.2 33.12,34.92 34.2,35.64 35.28,36 36.36,36 37.8,36 38.88,35.64 39.96,34.92 40.68,34.2 41.4,33.48 42.12,32.4 
		42.48,31.32 42.48,30.24 42.48,28.8 42.12,27.72 41.4,26.64 40.68,25.92 39.96,25.2 38.88,24.48 37.8,24.12 36.36,24.12 	"/>
	<polygon style="fill-rule:evenodd;clip-rule:evenodd;fill:#808080;" points="12.6,174.24 11.16,174.24 10.08,174.6 9,174.96 
		8.28,175.68 7.56,176.76 6.84,177.84 6.48,178.92 6.48,180 6.48,181.44 6.84,182.52 7.56,183.6 8.28,184.32 9,185.04 10.08,185.76 
		11.16,186.12 12.6,186.12 13.68,186.12 14.76,185.76 15.84,185.04 16.56,184.32 17.28,183.6 18,182.52 18.36,181.44 18.36,180 
		18.36,178.92 18,177.84 17.28,176.76 16.56,175.68 15.84,174.96 14.76,174.6 13.68,174.24 12.6,174.24 	"/>
	<polyline style="fill:none;stroke:#000000;stroke-width:2.16;stroke-linecap:square;stroke-miterlimit:10;" points="12.6,174.24 
		11.16,174.24 10.08,174.6 9,174.96 8.28,175.68 7.56,176.76 6.84,177.84 6.48,178.92 6.48,180 6.48,181.44 6.84,182.52 7.56,183.6 
		8.28,184.32 9,185.04 10.08,185.76 11.16,186.12 12.6,186.12 13.68,186.12 14.76,185.76 15.84,185.04 16.56,184.32 17.28,183.6 
		18,182.52 18.36,181.44 18.36,180 18.36,178.92 18,177.84 17.28,176.76 16.56,175.68 15.84,174.96 14.76,174.6 13.68,174.24 
		12.6,174.24 	"/>
	<polygon style="fill-rule:evenodd;clip-rule:evenodd;fill:#808080;" points="54.36,174.24 53.28,174.24 52.2,174.6 51.12,174.96 
		50.04,175.68 49.32,176.76 48.96,177.84 48.6,178.92 48.6,180 48.6,181.44 48.96,182.52 49.32,183.6 50.04,184.32 51.12,185.04 
		52.2,185.76 53.28,186.12 54.36,186.12 55.8,186.12 56.88,185.76 57.96,185.04 58.68,184.32 59.4,183.6 60.12,182.52 60.48,181.44 
		60.48,180 60.48,178.92 60.12,177.84 59.4,176.76 58.68,175.68 57.96,174.96 56.88,174.6 55.8,174.24 54.36,174.24 	"/>
	<polyline style="fill:none;stroke:#000000;stroke-width:2.16;stroke-linecap:square;stroke-miterlimit:10;" points="54.36,174.24 
		53.28,174.24 52.2,174.6 51.12,174.96 50.04,175.68 49.32,176.76 48.96,177.84 48.6,178.92 48.6,180 48.6,181.44 48.96,182.52 
		49.32,183.6 50.04,184.32 51.12,185.04 52.2,185.76 53.28,186.12 54.36,186.12 55.8,186.12 56.88,185.76 57.96,185.04 
		58.68,184.32 59.4,183.6 60.12,182.52 60.48,181.44 60.48,180 60.48,178.92 60.12,177.84 59.4,176.76 58.68,175.68 57.96,174.96 
		56.88,174.6 55.8,174.24 54.36,174.24 	"/>
	<polygon style="fill-rule:evenodd;clip-rule:evenodd;fill:#808080;" points="12.6,90 11.16,90.36 10.08,90.72 9,91.08 8.28,91.8 
		7.56,92.88 6.84,93.6 6.48,95.04 6.48,96.12 6.48,97.2 6.84,98.28 7.56,99.36 8.28,100.44 9,101.16 10.08,101.52 11.16,101.88 
		12.6,102.24 13.68,101.88 14.76,101.52 15.84,101.16 16.56,100.44 17.28,99.36 18,98.28 18.36,97.2 18.36,96.12 18.36,95.04 
		18,93.6 17.28,92.88 16.56,91.8 15.84,91.08 14.76,90.72 13.68,90.36 12.6,90 	"/>
	<polyline style="fill:none;stroke:#000000;stroke-width:2.16;stroke-linecap:square;stroke-miterlimit:10;" points="12.6,90 
		11.16,90.36 10.08,90.72 9,91.08 8.28,91.8 7.56,92.88 6.84,93.6 6.48,95.04 6.48,96.12 6.48,97.2 6.84,98.28 7.56,99.36 
		8.28,100.44 9,101.16 10.08,101.52 11.16,101.88 12.6,102.24 13.68,101.88 14.76,101.52 15.84,101.16 16.56,100.44 17.28,99.36 
		18,98.28 18.36,97.2 18.36,96.12 18.36,95.04 18,93.6 17.28,92.88 16.56,91.8 15.84,91.08 14.76,90.72 13.68,90.36 12.6,90 	"/>
	<polygon style="fill-rule:evenodd;clip-rule:evenodd;fill:#808080;" points="54.36,90 53.28,90.36 52.2,90.72 51.12,91.08 
		50.04,91.8 49.32,92.88 48.96,93.6 48.6,95.04 48.6,96.12 48.6,97.2 48.96,98.28 49.32,99.36 50.04,100.44 51.12,101.16 
		52.2,101.52 53.28,101.88 54.36,102.24 55.8,101.88 56.88,101.52 57.96,101.16 58.68,100.44 59.4,99.36 60.12,98.28 60.48,97.2 
		60.48,96.12 60.48,95.04 60.12,93.6 59.4,92.88 58.68,91.8 57.96,91.08 56.88,90.72 55.8,90.36 54.36,90 	"/>
	<polyline style="fill:none;stroke:#000000;stroke-width:2.16;stroke-linecap:square;stroke-miterlimit:10;" points="54.36,90 
		53.28,90.36 52.2,90.72 51.12,91.08 50.04,91.8 49.32,92.88 48.96,93.6 48.6,95.04 48.6,96.12 48.6,97.2 48.96,98.28 49.32,99.36 
		50.04,100.44 51.12,101.16 52.2,101.52 53.28,101.88 54.36,102.24 55.8,101.88 56.88,101.52 57.96,101.16 58.68,100.44 59.4,99.36 
		60.12,98.28 60.48,97.2 60.48,96.12 60.48,95.04 60.12,93.6 59.4,92.88 58.68,91.8 57.96,91.08 56.88,90.72 55.8,90.36 54.36,90 	
		"/>
	<polygon style="fill-rule:evenodd;clip-rule:evenodd;fill:#808080;" points="36.36,234 35.28,234.36 34.2,234.72 33.12,235.08 
		32.04,235.8 31.32,236.88 30.96,237.6 30.6,239.04 30.6,240.12 30.6,241.2 30.96,242.28 31.32,243.36 32.04,244.44 33.12,245.16 
		34.2,245.52 35.28,245.88 36.36,246.24 37.8,245.88 38.88,245.52 39.96,245.16 40.68,244.44 41.4,243.36 42.12,242.28 42.48,241.2 
		42.48,240.12 42.48,239.04 42.12,237.6 41.4,236.88 40.68,235.8 39.96,235.08 38.88,234.72 37.8,234.36 36.36,234 	"/>
	<polyline style="fill:none;stroke:#000000;stroke-width:2.16;stroke-linecap:square;stroke-miterlimit:10;" points="36.36,234 
		35.28,234.36 34.2,234.72 33.12,235.08 32.04,235.8 31.32,236.88 30.96,237.6 30.6,239.04 30.6,240.12 30.6,241.2 30.96,242.28 
		31.32,243.36 32.04,244.44 33.12,245.16 34.2,245.52 35.28,245.88 36.36,246.24 37.8,245.88 38.88,245.52 39.96,245.16 
		40.68,244.44 41.4,243.36 42.12,242.28 42.48,241.2 42.48,240.12 42.48,239.04 42.12,237.6 41.4,236.88 40.68,235.8 39.96,235.08 
		38.88,234.72 37.8,234.36 36.36,234 	"/>
	<polygon style="fill-rule:evenodd;clip-rule:evenodd;fill:#808080;" points="156.6,252 155.16,252.36 154.08,252.72 153,253.08 
		152.28,253.8 151.56,254.88 150.84,255.6 150.48,257.04 150.48,258.12 150.48,259.2 150.84,260.28 151.56,261.36 152.28,262.44 
		153,263.16 154.08,263.52 155.16,263.88 156.6,264.24 157.68,263.88 158.76,263.52 159.84,263.16 160.56,262.44 161.28,261.36 
		162,260.28 162.36,259.2 162.36,258.12 162.36,257.04 162,255.6 161.28,254.88 160.56,253.8 159.84,253.08 158.76,252.72 
		157.68,252.36 156.6,252 	"/>
	<polyline style="fill:none;stroke:#000000;stroke-width:2.16;stroke-linecap:square;stroke-miterlimit:10;" points="156.6,252 
		155.16,252.36 154.08,252.72 153,253.08 152.28,253.8 151.56,254.88 150.84,255.6 150.48,257.04 150.48,258.12 150.48,259.2 
		150.84,260.28 151.56,261.36 152.28,262.44 153,263.16 154.08,263.52 155.16,263.88 156.6,264.24 157.68,263.88 158.76,263.52 
		159.84,263.16 160.56,262.44 161.28,261.36 162,260.28 162.36,259.2 162.36,258.12 162.36,257.04 162,255.6 161.28,254.88 
		160.56,253.8 159.84,253.08 158.76,252.72 157.68,252.36 156.6,252 	"/>
	<g>
		<path style="fill:#BBE0E3;" d="M78.97,250.56v-11.34h4.28c0.75,0,1.33,0.04,1.73,0.11c0.56,0.09,1.02,0.27,1.4,0.53
			c0.38,0.26,0.68,0.63,0.91,1.09c0.23,0.47,0.34,0.99,0.34,1.55c0,0.96-0.31,1.78-0.92,2.45c-0.61,0.67-1.72,1-3.33,1h-2.91v4.61
			H78.97z M80.47,244.61h2.93c0.97,0,1.66-0.18,2.06-0.54c0.41-0.36,0.61-0.87,0.61-1.52c0-0.47-0.12-0.88-0.36-1.22
			c-0.24-0.34-0.56-0.56-0.95-0.67c-0.25-0.07-0.72-0.1-1.4-0.1h-2.9V244.61z"/>
		<path style="fill:#BBE0E3;" d="M94.63,250.56v-1.21c-0.64,0.93-1.51,1.39-2.61,1.39c-0.48,0-0.94-0.09-1.36-0.28
			s-0.73-0.42-0.94-0.7s-0.35-0.63-0.43-1.03c-0.06-0.27-0.08-0.71-0.08-1.3v-5.09h1.39v4.56c0,0.73,0.03,1.22,0.08,1.47
			c0.09,0.37,0.27,0.65,0.56,0.86s0.63,0.31,1.05,0.31c0.42,0,0.81-0.11,1.18-0.32s0.63-0.51,0.78-0.87
			c0.15-0.37,0.23-0.9,0.23-1.61v-4.4h1.39v8.21H94.63z"/>
		<path style="fill:#BBE0E3;" d="M97.9,250.56v-8.21h1.25v1.15c0.26-0.4,0.6-0.73,1.03-0.97c0.43-0.25,0.92-0.37,1.46-0.37
			c0.61,0,1.11,0.13,1.5,0.38s0.66,0.61,0.82,1.06c0.65-0.96,1.5-1.44,2.54-1.44c0.81,0,1.44,0.23,1.88,0.68
			c0.44,0.45,0.66,1.15,0.66,2.08v5.64h-1.38v-5.17c0-0.56-0.05-0.96-0.14-1.2c-0.09-0.25-0.25-0.44-0.49-0.59
			c-0.24-0.15-0.52-0.22-0.84-0.22c-0.58,0-1.06,0.19-1.44,0.58c-0.38,0.38-0.57,1-0.57,1.84v4.77h-1.39v-5.34
			c0-0.62-0.11-1.08-0.34-1.39c-0.23-0.31-0.6-0.46-1.11-0.46c-0.39,0-0.75,0.1-1.09,0.31s-0.57,0.51-0.72,0.91
			c-0.15,0.4-0.22,0.97-0.22,1.72v4.26H97.9z"/>
		<path style="fill:#BBE0E3;" d="M111.57,253.7v-11.36h1.27v1.07c0.3-0.42,0.64-0.73,1.01-0.94c0.38-0.21,0.83-0.31,1.37-0.31
			c0.7,0,1.32,0.18,1.86,0.54c0.54,0.36,0.94,0.87,1.21,1.53c0.27,0.66,0.41,1.38,0.41,2.16c0,0.84-0.15,1.6-0.45,2.27
			s-0.74,1.19-1.31,1.55c-0.57,0.36-1.18,0.54-1.81,0.54c-0.46,0-0.88-0.1-1.25-0.29c-0.37-0.2-0.67-0.44-0.91-0.74v4H111.57z
			 M112.83,246.5c0,1.06,0.21,1.84,0.64,2.34c0.43,0.5,0.95,0.76,1.55,0.76c0.62,0,1.15-0.26,1.59-0.79s0.66-1.33,0.66-2.43
			c0-1.05-0.22-1.83-0.65-2.35c-0.43-0.52-0.95-0.78-1.54-0.78c-0.59,0-1.12,0.28-1.57,0.83
			C113.06,244.63,112.83,245.44,112.83,246.5z"/>
	</g>
	<path style="fill:#CC0000;stroke:#CC0000;stroke-width:0.36;stroke-linecap:square;stroke-miterlimit:10;" d="M216.36,28.44h28.44
		v3.24h-28.44V28.44L216.36,28.44z M243.36,25.56l9,4.68l-9,4.32V25.56L243.36,25.56z"/>
	<polygon style="fill-rule:evenodd;clip-rule:evenodd;fill:#808080;" points="216.36,24.12 215.28,24.12 214.2,24.48 213.12,25.2 
		212.04,25.92 211.32,26.64 210.96,27.72 210.6,28.8 210.6,30.24 210.6,31.32 210.96,32.4 211.32,33.48 212.04,34.2 213.12,34.92 
		214.2,35.64 215.28,36 216.36,36 217.8,36 218.88,35.64 219.96,34.92 220.68,34.2 221.4,33.48 222.12,32.4 222.48,31.32 
		222.48,30.24 222.48,28.8 222.12,27.72 221.4,26.64 220.68,25.92 219.96,25.2 218.88,24.48 217.8,24.12 216.36,24.12 	"/>
	<polyline style="fill:none;stroke:#000000;stroke-width:2.16;stroke-linecap:square;stroke-miterlimit:10;" points="216.36,24.12 
		215.28,24.12 214.2,24.48 213.12,25.2 212.04,25.92 211.32,26.64 210.96,27.72 210.6,28.8 210.6,30.24 210.6,31.32 210.96,32.4 
		211.32,33.48 212.04,34.2 213.12,34.92 214.2,35.64 215.28,36 216.36,36 217.8,36 218.88,35.64 219.96,34.92 220.68,34.2 
		221.4,33.48 222.12,32.4 222.48,31.32 222.48,30.24 222.48,28.8 222.12,27.72 221.4,26.64 220.68,25.92 219.96,25.2 218.88,24.48 
		217.8,24.12 216.36,24.12 	"/>
	<g>
		<path style="fill:#BBE0E3;" d="M246.75,19.42V8.09h4.28c0.75,0,1.33,0.04,1.72,0.11c0.56,0.09,1.02,0.27,1.4,0.53
			c0.38,0.26,0.68,0.63,0.91,1.09s0.34,0.98,0.34,1.55c0,0.96-0.31,1.78-0.92,2.45c-0.61,0.67-1.72,1-3.33,1h-2.91v4.61H246.75z
			 M248.25,13.48h2.93c0.97,0,1.66-0.18,2.06-0.54c0.41-0.36,0.61-0.87,0.61-1.52c0-0.47-0.12-0.88-0.36-1.22
			c-0.24-0.34-0.56-0.56-0.95-0.67c-0.25-0.07-0.72-0.1-1.4-0.1h-2.9V13.48z"/>
		<path style="fill:#BBE0E3;" d="M262.41,19.42v-1.21c-0.64,0.93-1.51,1.39-2.61,1.39c-0.48,0-0.94-0.09-1.36-0.28
			c-0.42-0.19-0.73-0.42-0.94-0.7c-0.2-0.28-0.35-0.63-0.43-1.03c-0.06-0.27-0.08-0.71-0.08-1.3v-5.09h1.39v4.56
			c0,0.73,0.03,1.22,0.08,1.47c0.09,0.37,0.27,0.65,0.56,0.86c0.28,0.21,0.63,0.31,1.05,0.31c0.42,0,0.81-0.11,1.17-0.32
			s0.63-0.51,0.78-0.87c0.15-0.37,0.23-0.9,0.23-1.6v-4.4h1.39v8.21H262.41z"/>
		<path style="fill:#BBE0E3;" d="M265.67,19.42v-8.21h1.25v1.15c0.26-0.4,0.6-0.73,1.03-0.97c0.43-0.24,0.92-0.37,1.46-0.37
			c0.61,0,1.11,0.13,1.5,0.38s0.66,0.61,0.82,1.06c0.65-0.96,1.5-1.44,2.54-1.44c0.82,0,1.44,0.23,1.88,0.68s0.66,1.15,0.66,2.08
			v5.64h-1.38v-5.17c0-0.56-0.04-0.96-0.13-1.2c-0.09-0.25-0.25-0.44-0.49-0.59c-0.24-0.15-0.52-0.22-0.83-0.22
			c-0.58,0-1.06,0.19-1.44,0.58c-0.38,0.38-0.57,1-0.57,1.84v4.77h-1.39v-5.34c0-0.62-0.11-1.08-0.34-1.39
			c-0.23-0.31-0.6-0.46-1.11-0.46c-0.39,0-0.75,0.1-1.09,0.31c-0.33,0.21-0.57,0.51-0.72,0.91c-0.15,0.4-0.22,0.97-0.22,1.72v4.26
			H265.67z"/>
		<path style="fill:#BBE0E3;" d="M279.34,22.57V11.21h1.27v1.07c0.3-0.42,0.64-0.73,1.01-0.94c0.38-0.21,0.83-0.31,1.37-0.31
			c0.7,0,1.32,0.18,1.86,0.54s0.94,0.87,1.21,1.53c0.27,0.66,0.41,1.38,0.41,2.16c0,0.84-0.15,1.6-0.45,2.27s-0.74,1.19-1.31,1.55
			c-0.58,0.36-1.18,0.54-1.81,0.54c-0.46,0-0.88-0.1-1.25-0.29c-0.37-0.2-0.67-0.44-0.91-0.74v4H279.34z M280.61,15.36
			c0,1.06,0.21,1.84,0.64,2.34c0.43,0.51,0.95,0.76,1.55,0.76c0.62,0,1.15-0.26,1.59-0.79s0.66-1.33,0.66-2.43
			c0-1.05-0.21-1.83-0.65-2.35c-0.43-0.52-0.95-0.78-1.54-0.78c-0.59,0-1.12,0.28-1.57,0.83S280.61,14.31,280.61,15.36z"/>
	</g>
	<path style="fill:#CC0000;stroke:#CC0000;stroke-width:0.36;stroke-linecap:square;stroke-miterlimit:10;" d="M325.8,12.24v40.32
		h-2.88V12.24H325.8L325.8,12.24z M329.04,51.12l-4.68,9l-4.32-9H329.04L329.04,51.12z"/>
	<polygon style="fill-rule:evenodd;clip-rule:evenodd;fill:#808080;" points="324.36,6.12 323.28,6.12 322.2,6.48 321.12,7.2 
		320.04,7.92 319.32,8.64 318.96,9.72 318.6,10.8 318.6,12.24 318.6,13.32 318.96,14.4 319.32,15.48 320.04,16.2 321.12,16.92 
		322.2,17.64 323.28,18 324.36,18 325.8,18 326.88,17.64 327.96,16.92 328.68,16.2 329.4,15.48 330.12,14.4 330.48,13.32 
		330.48,12.24 330.48,10.8 330.12,9.72 329.4,8.64 328.68,7.92 327.96,7.2 326.88,6.48 325.8,6.12 324.36,6.12 	"/>
	<polyline style="fill:none;stroke:#000000;stroke-width:2.16;stroke-linecap:square;stroke-miterlimit:10;" points="324.36,6.12 
		323.28,6.12 322.2,6.48 321.12,7.2 320.04,7.92 319.32,8.64 318.96,9.72 318.6,10.8 318.6,12.24 318.6,13.32 318.96,14.4 
		319.32,15.48 320.04,16.2 321.12,16.92 322.2,17.64 323.28,18 324.36,18 325.8,18 326.88,17.64 327.96,16.92 328.68,16.2 
		329.4,15.48 330.12,14.4 330.48,13.32 330.48,12.24 330.48,10.8 330.12,9.72 329.4,8.64 328.68,7.92 327.96,7.2 326.88,6.48 
		325.8,6.12 324.36,6.12 	"/>
	<polyline style="fill-rule:evenodd;clip-rule:evenodd;fill:#BBE0E3;" points="288.36,60.12 288.36,108 360.36,108 360.36,60.12 
		288.36,60.12 	"/>
	
		<rect x="288.36" y="60.12" style="fill:none;stroke:#000000;stroke-width:0.72;stroke-linecap:square;stroke-miterlimit:10;" width="72" height="47.88"/>
	<g>
		<path d="M309.75,86.55l1.71,0.43c-0.36,1.4-1,2.47-1.93,3.2s-2.06,1.1-3.41,1.1c-1.39,0-2.52-0.28-3.39-0.85
			c-0.87-0.57-1.53-1.38-1.99-2.46c-0.46-1.07-0.68-2.22-0.68-3.45c0-1.34,0.26-2.51,0.77-3.51c0.51-1,1.24-1.76,2.19-2.28
			s1.99-0.78,3.13-0.78c1.29,0,2.37,0.33,3.25,0.98s1.49,1.58,1.84,2.77l-1.68,0.4c-0.3-0.94-0.73-1.62-1.3-2.05
			s-1.28-0.64-2.14-0.64c-0.99,0-1.82,0.24-2.48,0.71c-0.67,0.47-1.13,1.11-1.4,1.91s-0.4,1.62-0.4,2.47c0,1.1,0.16,2.05,0.48,2.87
			s0.82,1.43,1.49,1.83s1.4,0.61,2.19,0.61c0.96,0,1.76-0.28,2.43-0.83S309.51,87.63,309.75,86.55z"/>
		<path d="M313.32,91.06V78.18h1.58v4.62c0.74-0.86,1.67-1.28,2.79-1.28c0.69,0,1.29,0.14,1.8,0.41s0.88,0.65,1.09,1.13
			c0.22,0.48,0.33,1.18,0.33,2.09v5.92h-1.58v-5.92c0-0.79-0.17-1.37-0.51-1.73c-0.34-0.36-0.83-0.54-1.46-0.54
			c-0.47,0-0.91,0.12-1.32,0.36c-0.41,0.24-0.71,0.57-0.88,0.99s-0.26,0.99-0.26,1.72v5.11H313.32z"/>
		<path d="M323.39,80v-1.82h1.58V80H323.39z M323.39,91.06v-9.33h1.58v9.33H323.39z"/>
		<path d="M327.31,91.06V78.18h1.58v12.88H327.31z"/>
		<path d="M331.27,91.06V78.18h1.58v12.88H331.27z"/>
		<path d="M342,88.06l1.63,0.2c-0.26,0.96-0.74,1.7-1.43,2.22s-1.59,0.79-2.67,0.79c-1.37,0-2.45-0.42-3.25-1.26
			c-0.8-0.84-1.2-2.02-1.2-3.54c0-1.57,0.4-2.79,1.21-3.66s1.86-1.3,3.15-1.3c1.25,0,2.27,0.42,3.06,1.27s1.19,2.04,1.19,3.59
			c0,0.09,0,0.23-0.01,0.42h-6.96c0.06,1.03,0.35,1.81,0.87,2.36s1.17,0.82,1.95,0.82c0.58,0,1.08-0.15,1.49-0.46
			S341.76,88.73,342,88.06z M336.81,85.5h5.21c-0.07-0.79-0.27-1.37-0.6-1.77c-0.5-0.61-1.16-0.91-1.96-0.91
			c-0.73,0-1.34,0.24-1.83,0.73S336.86,84.69,336.81,85.5z"/>
		<path d="M345.66,91.06v-9.33h1.42v1.42c0.36-0.66,0.7-1.1,1.01-1.31c0.31-0.21,0.65-0.32,1.01-0.32c0.53,0,1.08,0.17,1.63,0.51
			l-0.54,1.47c-0.39-0.23-0.77-0.34-1.16-0.34c-0.35,0-0.66,0.1-0.93,0.31s-0.47,0.5-0.59,0.87c-0.18,0.56-0.26,1.18-0.26,1.85v4.89
			H345.66z"/>
	</g>
	<path style="fill:#CC0000;stroke:#CC0000;stroke-width:0.36;stroke-linecap:square;stroke-miterlimit:10;" d="M325.8,108v52.56
		h-2.88V108H325.8L325.8,108z M329.04,159.12l-4.68,9l-4.32-9H329.04L329.04,159.12z"/>
	<polygon style="fill-rule:evenodd;clip-rule:evenodd;fill:#808080;" points="324.36,132.12 323.28,132.12 322.2,132.48 
		321.12,133.2 320.04,133.92 319.32,134.64 318.96,135.72 318.6,136.8 318.6,138.24 318.6,139.32 318.96,140.4 319.32,141.48 
		320.04,142.2 321.12,142.92 322.2,143.64 323.28,144 324.36,144 325.8,144 326.88,143.64 327.96,142.92 328.68,142.2 329.4,141.48 
		330.12,140.4 330.48,139.32 330.48,138.24 330.48,136.8 330.12,135.72 329.4,134.64 328.68,133.92 327.96,133.2 326.88,132.48 
		325.8,132.12 324.36,132.12 	"/>
	<polyline style="fill:none;stroke:#000000;stroke-width:2.16;stroke-linecap:square;stroke-miterlimit:10;" points="324.36,132.12 
		323.28,132.12 322.2,132.48 321.12,133.2 320.04,133.92 319.32,134.64 318.96,135.72 318.6,136.8 318.6,138.24 318.6,139.32 
		318.96,140.4 319.32,141.48 320.04,142.2 321.12,142.92 322.2,143.64 323.28,144 324.36,144 325.8,144 326.88,143.64 
		327.96,142.92 328.68,142.2 329.4,141.48 330.12,140.4 330.48,139.32 330.48,138.24 330.48,136.8 330.12,135.72 329.4,134.64 
		328.68,133.92 327.96,133.2 326.88,132.48 325.8,132.12 324.36,132.12 	"/>
	<polyline style="fill-rule:evenodd;clip-rule:evenodd;fill:#BBE0E3;" points="288.36,168.12 288.36,216 360.36,216 360.36,168.12 
		288.36,168.12 	"/>
	
		<rect x="288.36" y="168.12" style="fill:none;stroke:#000000;stroke-width:0.72;stroke-linecap:square;stroke-miterlimit:10;" width="72" height="47.88"/>
	<g>
		<path d="M311.75,199.07v-11.36h-4.25v-1.52h10.21v1.52h-4.26v11.36H311.75z"/>
		<path d="M319.67,199.07v-12.88h9.32v1.52h-7.61v3.95h7.13v1.51h-7.13v4.39h7.91v1.52H319.67z"/>
		<path d="M330.95,194.93l1.61-0.14c0.08,0.64,0.25,1.17,0.53,1.59c0.28,0.41,0.71,0.75,1.3,1c0.59,0.25,1.25,0.38,1.98,0.38
			c0.65,0,1.22-0.1,1.72-0.29s0.87-0.46,1.11-0.79s0.37-0.71,0.37-1.1c0-0.4-0.12-0.76-0.35-1.06s-0.62-0.56-1.16-0.76
			c-0.35-0.13-1.11-0.34-2.29-0.63s-2.01-0.55-2.49-0.8c-0.62-0.32-1.07-0.72-1.38-1.2c-0.3-0.48-0.45-1.01-0.45-1.6
			c0-0.65,0.18-1.26,0.55-1.82s0.91-1,1.62-1.29s1.5-0.44,2.36-0.44c0.96,0,1.8,0.15,2.53,0.46c0.73,0.31,1.29,0.76,1.68,1.36
			s0.6,1.27,0.63,2.03l-1.63,0.12c-0.09-0.81-0.39-1.43-0.89-1.85c-0.51-0.42-1.26-0.62-2.25-0.62c-1.03,0-1.78,0.19-2.25,0.57
			c-0.47,0.38-0.71,0.83-0.71,1.37c0,0.46,0.17,0.84,0.5,1.14c0.33,0.3,1.18,0.61,2.57,0.92c1.39,0.31,2.34,0.59,2.85,0.82
			c0.75,0.35,1.3,0.78,1.66,1.31s0.54,1.14,0.54,1.83c0,0.69-0.2,1.33-0.59,1.94c-0.39,0.61-0.96,1.08-1.69,1.42
			c-0.74,0.34-1.56,0.5-2.48,0.5c-1.17,0-2.14-0.17-2.93-0.51c-0.79-0.34-1.41-0.85-1.86-1.53
			C331.21,196.57,330.97,195.79,330.95,194.93z"/>
	</g>
	<path style="fill:#CC0000;stroke:#CC0000;stroke-width:0.36;stroke-linecap:square;stroke-miterlimit:10;" d="M325.8,216v34.56
		h-2.88V216H325.8L325.8,216z M329.04,249.12l-4.68,9l-4.32-9H329.04L329.04,249.12z"/>
	<polygon style="fill-rule:evenodd;clip-rule:evenodd;fill:#808080;" points="216.36,252 215.28,252.36 214.2,252.72 213.12,253.08 
		212.04,253.8 211.32,254.88 210.96,255.6 210.6,257.04 210.6,258.12 210.6,259.2 210.96,260.28 211.32,261.36 212.04,262.44 
		213.12,263.16 214.2,263.52 215.28,263.88 216.36,264.24 217.8,263.88 218.88,263.52 219.96,263.16 220.68,262.44 221.4,261.36 
		222.12,260.28 222.48,259.2 222.48,258.12 222.48,257.04 222.12,255.6 221.4,254.88 220.68,253.8 219.96,253.08 218.88,252.72 
		217.8,252.36 216.36,252 	"/>
	<polyline style="fill:none;stroke:#000000;stroke-width:2.16;stroke-linecap:square;stroke-miterlimit:10;" points="216.36,252 
		215.28,252.36 214.2,252.72 213.12,253.08 212.04,253.8 211.32,254.88 210.96,255.6 210.6,257.04 210.6,258.12 210.6,259.2 
		210.96,260.28 211.32,261.36 212.04,262.44 213.12,263.16 214.2,263.52 215.28,263.88 216.36,264.24 217.8,263.88 218.88,263.52 
		219.96,263.16 220.68,262.44 221.4,261.36 222.12,260.28 222.48,259.2 222.48,258.12 222.48,257.04 222.12,255.6 221.4,254.88 
		220.68,253.8 219.96,253.08 218.88,252.72 217.8,252.36 216.36,252 	"/>
	<path style="fill:#CC0000;stroke:#CC0000;stroke-width:0.36;stroke-linecap:square;stroke-miterlimit:10;" d="M324.36,259.56
		h-94.32v-2.88h94.32V259.56L324.36,259.56z M231.48,262.44l-9-4.32l9-4.68V262.44L231.48,262.44z"/>
	<path style="fill:#00CC00;stroke:#00CC00;stroke-width:0.36;stroke-linecap:square;stroke-miterlimit:10;" d="M214.92,252v-2.88
		h2.88V252H214.92L214.92,252z M214.92,246.24V243h2.88v3.24H214.92L214.92,246.24z M214.92,240.12v-2.88h2.88v2.88H214.92
		L214.92,240.12z M214.92,234v-2.88h2.88V234H214.92L214.92,234z M214.92,228.24V225h2.88v3.24H214.92L214.92,228.24z
		 M214.92,222.12v-2.88h2.88v2.88H214.92L214.92,222.12z M214.92,216v-2.88h2.88V216H214.92L214.92,216z M214.92,210.24V207h2.88
		v3.24H214.92L214.92,210.24z M214.92,204.12v-2.88h2.88v2.88H214.92L214.92,204.12z M214.92,198v-2.88h2.88V198H214.92L214.92,198z
		 M214.92,192.24V189h2.88v3.24H214.92L214.92,192.24z M214.92,186.12v-2.88h2.88v2.88H214.92L214.92,186.12z M214.92,180v-2.88
		h2.88V180H214.92L214.92,180z M214.92,174.24V171h2.88v3.24H214.92L214.92,174.24z M214.92,168.12v-2.88h2.88v2.88H214.92
		L214.92,168.12z M214.92,162v-2.88h2.88V162H214.92L214.92,162z M214.92,156.24V153h2.88v3.24H214.92L214.92,156.24z
		 M214.92,150.12v-2.88h2.88v2.88H214.92L214.92,150.12z M214.92,144v-2.88h2.88V144H214.92L214.92,144z M214.92,138.24V135h2.88
		v3.24H214.92L214.92,138.24z M214.92,132.12v-2.88h2.88v2.88H214.92L214.92,132.12z M214.92,126v-2.88h2.88V126H214.92L214.92,126z
		 M214.92,120.24V117h2.88v3.24H214.92L214.92,120.24z M214.92,114.12v-2.88h2.88v2.88H214.92L214.92,114.12z M214.92,108v-2.88
		h2.88V108H214.92L214.92,108z M214.92,102.24V99h2.88v3.24H214.92L214.92,102.24z M214.92,96.12v-2.88h2.88v2.88H214.92
		L214.92,96.12z M214.92,90v-2.88h2.88V90H214.92L214.92,90z M214.92,84.24V81h2.88v3.24H214.92L214.92,84.24z M214.92,78.12v-2.88
		h2.88v2.88H214.92L214.92,78.12z M214.92,72v-2.88h2.88V72H214.92L214.92,72z M214.92,66.24V63h2.88v3.24H214.92L214.92,66.24z
		 M214.92,60.12v-2.88h2.88v2.88H214.92L214.92,60.12z M214.92,54v-2.88h2.88V54H214.92L214.92,54z M214.92,48.24V45h2.88v3.24
		H214.92L214.92,48.24z M212.04,45l4.32-9l4.68,9H212.04L212.04,45z"/>
	<path style="fill:#00CC00;stroke:#00CC00;stroke-width:0.36;stroke-linecap:square;stroke-miterlimit:10;" d="M158.04,36v3.24
		h-3.24V36H158.04L158.04,36z M158.04,42.12V45h-3.24v-2.88H158.04L158.04,42.12z M158.04,48.24v2.88h-3.24v-2.88H158.04
		L158.04,48.24z M158.04,54v3.24h-3.24V54H158.04L158.04,54z M158.04,60.12V63h-3.24v-2.88H158.04L158.04,60.12z M158.04,66.24v2.88
		h-3.24v-2.88H158.04L158.04,66.24z M158.04,72v3.24h-3.24V72H158.04L158.04,72z M158.04,78.12V81h-3.24v-2.88H158.04L158.04,78.12z
		 M158.04,84.24v2.88h-3.24v-2.88H158.04L158.04,84.24z M158.04,90v3.24h-3.24V90H158.04L158.04,90z M158.04,96.12V99h-3.24v-2.88
		H158.04L158.04,96.12z M158.04,102.24v2.88h-3.24v-2.88H158.04L158.04,102.24z M158.04,108v3.24h-3.24V108H158.04L158.04,108z
		 M158.04,114.12V117h-3.24v-2.88H158.04L158.04,114.12z M158.04,120.24v2.88h-3.24v-2.88H158.04L158.04,120.24z M158.04,126v3.24
		h-3.24V126H158.04L158.04,126z M158.04,132.12V135h-3.24v-2.88H158.04L158.04,132.12z M158.04,138.24v2.88h-3.24v-2.88H158.04
		L158.04,138.24z M158.04,144v3.24h-3.24V144H158.04L158.04,144z M158.04,150.12V153h-3.24v-2.88H158.04L158.04,150.12z
		 M158.04,156.24v2.88h-3.24v-2.88H158.04L158.04,156.24z M158.04,162v3.24h-3.24V162H158.04L158.04,162z M158.04,168.12V171h-3.24
		v-2.88H158.04L158.04,168.12z M158.04,174.24v2.88h-3.24v-2.88H158.04L158.04,174.24z M158.04,180v3.24h-3.24V180H158.04
		L158.04,180z M158.04,186.12V189h-3.24v-2.88H158.04L158.04,186.12z M158.04,192.24v2.88h-3.24v-2.88H158.04L158.04,192.24z
		 M158.04,198v3.24h-3.24V198H158.04L158.04,198z M158.04,204.12V207h-3.24v-2.88H158.04L158.04,204.12z M158.04,210.24v2.88h-3.24
		v-2.88H158.04L158.04,210.24z M158.04,216v3.24h-3.24V216H158.04L158.04,216z M158.04,222.12V225h-3.24v-2.88H158.04L158.04,222.12
		z M158.04,228.24v2.88h-3.24v-2.88H158.04L158.04,228.24z M158.04,234v3.24h-3.24V234H158.04L158.04,234z M158.04,240.12V243h-3.24
		v-2.88H158.04L158.04,240.12z M160.92,243l-4.32,9l-4.68-9H160.92L160.92,243z"/>
	<path style="fill:#00CC00;stroke:#00CC00;stroke-width:0.36;stroke-linecap:square;stroke-miterlimit:10;" d="M162.36,28.44h40.68
		v3.24h-40.68V28.44L162.36,28.44z M201.6,25.56l9,4.68l-9,4.32V25.56L201.6,25.56z"/>
	<path style="fill:#00CC00;stroke:#00CC00;stroke-width:0.36;stroke-linecap:square;stroke-miterlimit:10;" d="M210.6,259.56h-40.68
		v-2.88h40.68V259.56L210.6,259.56z M171.36,262.44l-9-4.32l9-4.68V262.44L171.36,262.44z"/>
</g>
</svg>
