<?xml version="1.0" encoding="iso-8859-1"?>
<!-- Generator: Adobe Illustrator 16.0.3, SVG Export Plug-In . SVG Version: 6.00 Build 0)  -->
<!DOCTYPE svg PUBLIC "-//W3C//DTD SVG 1.1//EN" "http://www.w3.org/Graphics/SVG/1.1/DTD/svg11.dtd">
<svg version="1.1" id="Layer_1" xmlns="http://www.w3.org/2000/svg" xmlns:xlink="http://www.w3.org/1999/xlink" x="0px" y="0px"
	 width="362.7px" height="231.89px" viewBox="0 0 362.7 231.89" style="enable-background:new 0 0 362.7 231.89;"
	 xml:space="preserve">
<g>
	<g>
		<path style="fill:#FFFFFF;" d="M169.66,39.83c0,0.04-0.01,0.07-0.02,0.09c-0.01,0.03-0.04,0.05-0.08,0.06
			c-0.04,0.02-0.1,0.03-0.18,0.04s-0.18,0.01-0.31,0.01c-0.11,0-0.21,0-0.28-0.01c-0.07-0.01-0.13-0.02-0.17-0.04
			s-0.08-0.05-0.1-0.08c-0.02-0.03-0.04-0.08-0.06-0.13l-0.77-1.99c-0.09-0.23-0.19-0.43-0.28-0.62c-0.1-0.19-0.21-0.35-0.35-0.49
			s-0.29-0.24-0.47-0.32c-0.18-0.08-0.4-0.11-0.66-0.11h-0.75v3.59c0,0.04-0.01,0.07-0.03,0.09s-0.05,0.05-0.09,0.06
			c-0.04,0.02-0.1,0.03-0.17,0.04c-0.07,0.01-0.16,0.02-0.27,0.02s-0.2-0.01-0.27-0.02c-0.07-0.01-0.13-0.02-0.17-0.04
			s-0.07-0.04-0.09-0.06c-0.02-0.03-0.03-0.06-0.03-0.09v-7.8c0-0.17,0.04-0.29,0.13-0.35c0.09-0.07,0.18-0.1,0.28-0.1h1.79
			c0.21,0,0.39,0.01,0.53,0.02s0.27,0.02,0.38,0.04c0.33,0.06,0.61,0.15,0.86,0.27s0.46,0.28,0.63,0.46c0.17,0.19,0.3,0.4,0.38,0.64
			c0.08,0.24,0.13,0.51,0.13,0.8c0,0.28-0.04,0.54-0.11,0.76c-0.08,0.22-0.19,0.42-0.33,0.59c-0.14,0.17-0.31,0.32-0.51,0.45
			c-0.2,0.13-0.42,0.23-0.67,0.32c0.14,0.06,0.26,0.14,0.38,0.23s0.22,0.21,0.32,0.34c0.1,0.13,0.19,0.28,0.28,0.45
			c0.09,0.17,0.17,0.36,0.26,0.57l0.75,1.86c0.06,0.16,0.1,0.27,0.12,0.33C169.65,39.75,169.66,39.79,169.66,39.83z M167.98,33.91
			c0-0.33-0.07-0.61-0.22-0.84s-0.39-0.39-0.74-0.49c-0.11-0.03-0.23-0.05-0.37-0.06s-0.32-0.02-0.54-0.02h-0.94v2.84h1.09
			c0.29,0,0.55-0.04,0.76-0.11c0.21-0.07,0.39-0.17,0.54-0.3c0.14-0.13,0.25-0.28,0.32-0.45C167.94,34.3,167.98,34.12,167.98,33.91z
			"/>
	</g>
	
		<polyline style="fill:none;stroke:#FFFFFF;stroke-width:0.3333;stroke-linecap:round;stroke-linejoin:round;stroke-miterlimit:10;" points="
		142.69,45.86 190.67,45.86 190.67,25.86 142.69,25.86 142.69,45.86 	"/>
	
		<polyline style="fill:none;stroke:#404040;stroke-width:0.3333;stroke-linecap:round;stroke-linejoin:round;stroke-miterlimit:10;" points="
		140.7,43.86 188.67,43.86 188.67,23.86 140.7,23.86 140.7,43.86 	"/>
	<g>
		<path d="M167.75,37.9c0,0.04-0.01,0.07-0.02,0.09c-0.01,0.03-0.04,0.05-0.08,0.06c-0.04,0.02-0.1,0.03-0.18,0.04
			s-0.18,0.01-0.31,0.01c-0.11,0-0.21,0-0.28-0.01c-0.07-0.01-0.13-0.02-0.17-0.04s-0.08-0.05-0.1-0.08
			c-0.02-0.03-0.04-0.08-0.06-0.13l-0.77-1.99c-0.09-0.23-0.19-0.43-0.28-0.62c-0.1-0.19-0.21-0.35-0.35-0.49s-0.29-0.24-0.47-0.32
			c-0.18-0.08-0.4-0.11-0.66-0.11h-0.75v3.59c0,0.04-0.01,0.07-0.03,0.09s-0.05,0.05-0.09,0.06c-0.04,0.02-0.1,0.03-0.17,0.04
			c-0.07,0.01-0.16,0.02-0.27,0.02s-0.2-0.01-0.27-0.02c-0.07-0.01-0.13-0.02-0.17-0.04s-0.07-0.04-0.09-0.06
			c-0.02-0.03-0.03-0.06-0.03-0.09v-7.8c0-0.17,0.04-0.29,0.13-0.35c0.09-0.07,0.18-0.1,0.28-0.1h1.79c0.21,0,0.39,0.01,0.53,0.02
			s0.27,0.02,0.38,0.04c0.33,0.06,0.61,0.15,0.86,0.27s0.46,0.28,0.63,0.46c0.17,0.19,0.3,0.4,0.38,0.64
			c0.08,0.24,0.13,0.51,0.13,0.8c0,0.28-0.04,0.54-0.11,0.76c-0.08,0.22-0.19,0.42-0.33,0.59c-0.14,0.17-0.31,0.32-0.51,0.45
			c-0.2,0.13-0.42,0.23-0.67,0.32c0.14,0.06,0.26,0.14,0.38,0.23s0.22,0.21,0.32,0.34c0.1,0.13,0.19,0.28,0.28,0.45
			c0.09,0.17,0.17,0.36,0.26,0.57l0.75,1.86c0.06,0.16,0.1,0.27,0.12,0.33C167.74,37.82,167.75,37.86,167.75,37.9z M166.06,31.98
			c0-0.33-0.07-0.61-0.22-0.84s-0.39-0.39-0.74-0.49c-0.11-0.03-0.23-0.05-0.37-0.06s-0.32-0.02-0.54-0.02h-0.94v2.84h1.09
			c0.29,0,0.55-0.04,0.76-0.11c0.21-0.07,0.39-0.17,0.54-0.3c0.14-0.13,0.25-0.28,0.32-0.45C166.03,32.37,166.06,32.19,166.06,31.98
			z"/>
	</g>
	
		<line style="fill:none;stroke:#CDCDCD;stroke-width:0.3333;stroke-linecap:round;stroke-linejoin:round;stroke-miterlimit:10;" x1="274.63" y1="129.86" x2="322.61" y2="129.86"/>
	
		<line style="fill:none;stroke:#404040;stroke-width:0.3333;stroke-linecap:round;stroke-linejoin:round;stroke-miterlimit:10;" x1="272.63" y1="127.86" x2="320.61" y2="127.86"/>
	
		<line style="fill:none;stroke:#CDCDCD;stroke-width:0.3333;stroke-linecap:round;stroke-linejoin:round;stroke-miterlimit:10;" x1="290.62" y1="141.86" x2="312.61" y2="141.86"/>
	
		<line style="fill:none;stroke:#404040;stroke-width:0.3333;stroke-linecap:round;stroke-linejoin:round;stroke-miterlimit:10;" x1="288.62" y1="139.86" x2="310.61" y2="139.86"/>
	
		<polyline style="fill:none;stroke:#404040;stroke-width:1.3333;stroke-linecap:round;stroke-linejoin:round;stroke-miterlimit:10;" points="
		188.67,33.86 296.62,33.86 296.62,120.86 	"/>
	<path style="fill-rule:evenodd;clip-rule:evenodd;fill:#404040;" d="M296.62,127.86l-5-9l0.25,0.11c2.95,1.48,6.43,1.48,9.38,0
		l0.36-0.11L296.62,127.86L296.62,127.86L296.62,127.86z"/>
	
		<polyline style="fill:none;stroke:#404040;stroke-width:1.3333;stroke-linecap:round;stroke-linejoin:round;stroke-miterlimit:10;" points="
		296.62,139.86 296.62,222.86 57.74,222.86 	"/>
	<path style="fill-rule:evenodd;clip-rule:evenodd;fill:#404040;" d="M50.74,222.86l9-4l0.33-0.39c-1.48,2.96-1.48,6.43,0,9.39
		l-0.33,0.01L50.74,222.86L50.74,222.86L50.74,222.86z"/>
	
		<line style="fill:none;stroke:#CDCDCD;stroke-width:0.3333;stroke-linecap:round;stroke-linejoin:round;stroke-miterlimit:10;" x1="40.74" y1="46.86" x2="40.74" y2="215.86"/>
	<polygon style="opacity:0.498;fill-rule:evenodd;clip-rule:evenodd;fill:#CDCDCD;" points="36.75,47.86 40.74,39.86 44.74,47.86 
		36.75,47.86 36.75,47.86 	"/>
	<g>
		<defs>
			<path id="SVGID_1_" d="M-2146426496-2147483392v4294966784h4292852992v-4294966784H-2146426496L-2146426496-2147483392z
				 M36.75,47.86l4-8l4,8H36.75L36.75,47.86L36.75,47.86z"/>
		</defs>
		<clipPath id="SVGID_2_">
			<use xlink:href="#SVGID_1_"  style="overflow:visible;"/>
		</clipPath>
	</g>
	<polygon style="opacity:0.498;fill-rule:evenodd;clip-rule:evenodd;fill:#CDCDCD;" points="44.74,214.86 40.74,222.86 
		36.75,214.86 44.74,214.86 44.74,214.86 	"/>
	<g>
		<defs>
			<path id="SVGID_3_" d="M-2146426496-2147483392v4294966784h4292852992v-4294966784H-2146426496L-2146426496-2147483392z
				 M44.74,214.86l-4,8l-4-8H44.74L44.74,214.86L44.74,214.86z"/>
		</defs>
		<clipPath id="SVGID_4_">
			<use xlink:href="#SVGID_3_"  style="overflow:visible;"/>
		</clipPath>
	</g>
	
		<line style="opacity:0.498;fill:none;stroke:#404040;stroke-width:0.3333;stroke-linecap:round;stroke-linejoin:round;stroke-miterlimit:10;" x1="38.75" y1="44.86" x2="38.75" y2="213.86"/>
	<polygon style="fill-rule:evenodd;clip-rule:evenodd;fill:#404040;" points="34.75,45.86 38.75,37.86 42.74,45.86 34.75,45.86 
		34.75,45.86 	"/>
	<polygon style="fill-rule:evenodd;clip-rule:evenodd;fill:#404040;" points="42.74,213.86 38.75,220.86 34.75,213.86 42.74,213.86 
		42.74,213.86 	"/>
	
		<line style="fill:none;stroke:#CDCDCD;stroke-width:0.3333;stroke-linecap:round;stroke-linejoin:round;stroke-miterlimit:10;" x1="334.6" y1="117.86" x2="334.6" y2="159.86"/>
	<polygon style="opacity:0.498;fill-rule:evenodd;clip-rule:evenodd;fill:#CDCDCD;" points="338.6,158.86 334.6,165.86 
		330.6,158.86 338.6,158.86 338.6,158.86 	"/>
	<g>
		<defs>
			<path id="SVGID_5_" d="M-2146426496-2147483392v4294966784h4292852992v-4294966784H-2146426496L-2146426496-2147483392z
				 M338.6,158.86l-4,7l-4-7H338.6L338.6,158.86L338.6,158.86z"/>
		</defs>
		<clipPath id="SVGID_6_">
			<use xlink:href="#SVGID_5_"  style="overflow:visible;"/>
		</clipPath>
	</g>
	
		<line style="opacity:0.498;fill:none;stroke:#404040;stroke-width:0.3333;stroke-linecap:round;stroke-linejoin:round;stroke-miterlimit:10;" x1="332.6" y1="115.86" x2="332.6" y2="157.86"/>
	<polygon style="fill-rule:evenodd;clip-rule:evenodd;fill:#404040;" points="336.6,156.86 332.6,163.86 328.6,156.86 336.6,156.86 
		336.6,156.86 	"/>
	<g>
		<path d="M8.02,141.37l-3.7-9.54H5.7l2.48,6.93c0.2,0.56,0.37,1.08,0.5,1.56c0.15-0.52,0.32-1.04,0.51-1.56l2.58-6.93h1.29
			l-3.74,9.54H8.02z"/>
	</g>
	<g>
		<path d="M353.14,138.36v-9.54h6.9v1.13h-5.64v2.92h5.28v1.12h-5.28v3.25h5.86v1.13H353.14z"/>
	</g>
	
		<line style="fill:none;stroke:#404040;stroke-width:1.3333;stroke-linecap:round;stroke-linejoin:round;stroke-miterlimit:10;" x1="52.74" y1="33.86" x2="133.7" y2="33.86"/>
	<path style="fill-rule:evenodd;clip-rule:evenodd;fill:#404040;" d="M140.7,33.86l-9,5l-0.44-0.09c1.48-2.95,1.48-6.43,0-9.39
		l0.44,0.48L140.7,33.86L140.7,33.86L140.7,33.86z"/>
	<g>
		<path d="M92.06,12.37V2.82h1.26v9.54H92.06z"/>
	</g>
</g>
</svg>
