<?xml version="1.0" encoding="iso-8859-1"?>
<!-- Generator: Adobe Illustrator 16.0.3, SVG Export Plug-In . SVG Version: 6.00 Build 0)  -->
<!DOCTYPE svg PUBLIC "-//W3C//DTD SVG 1.1//EN" "http://www.w3.org/Graphics/SVG/1.1/DTD/svg11.dtd">
<svg version="1.1" id="Layer_1" xmlns="http://www.w3.org/2000/svg" xmlns:xlink="http://www.w3.org/1999/xlink" x="0px" y="0px"
	 width="1175.12px" height="946.69px" viewBox="0 0 1175.12 946.69" style="enable-background:new 0 0 1175.12 946.69;"
	 xml:space="preserve">
<g>
	<polygon style="fill-rule:evenodd;clip-rule:evenodd;fill:#B3B3B3;" points="5,129 1175,129 1175,135 5,135 5,129 	"/>
	<path style="fill:none;stroke:#000000;stroke-width:0.2396;stroke-linecap:round;stroke-linejoin:round;stroke-miterlimit:10;" d="
		M5,132v-3h1170v3 M5,132v3h1170v-3"/>
	<polygon style="fill-rule:evenodd;clip-rule:evenodd;fill:#B3B3B3;" points="50,939 1175,939 1175,945 50,945 50,939 	"/>
	<path style="fill:none;stroke:#000000;stroke-width:0.2396;stroke-linecap:round;stroke-linejoin:round;stroke-miterlimit:10;" d="
		M50,942v-3h1125v3 M50,942v3h1125v-3"/>
	<polygon style="fill-rule:evenodd;clip-rule:evenodd;fill:#B3B3B3;" points="590,135 596,135 596,939 590,939 590,135 	"/>
	<polygon style="fill-rule:evenodd;clip-rule:evenodd;fill:#B3B3B3;" points="590,134.4 596,134.4 596,135 590,135 590,134.4 	"/>
	<polygon style="fill-rule:evenodd;clip-rule:evenodd;fill:#B3B3B3;" points="590,939 596,939 596,939.6 590,939.6 590,939 	"/>
	<path style="fill:none;stroke:#000000;stroke-width:0.2396;stroke-linecap:round;stroke-linejoin:round;stroke-miterlimit:10;" d="
		M596,135v804 M590,135v804"/>
	<path style="fill:none;stroke:#000000;stroke-width:0.7187;stroke-linecap:round;stroke-linejoin:round;stroke-miterlimit:10;" d="
		M797.18,180c-3.25,51.65-49.16,92.38-97.71,121.55c-82.22,49.4-172.03,65.65-248.04,124.69c-35.09,27.25-67.24,63.61-73.73,100.63
		C366.27,592,434.31,659.15,493.51,700.26c45.96,31.91,86.59,48.13,139.54,59.93c30.76,6.86,65.66,12.22,101.43,43.53
		c33.57,29.38,67.89,81.61,75.79,92.43c5.76,7.9-2.54-6.23-3.31-5.22"/>
	
		<line style="fill:none;stroke:#000000;stroke-width:0.7187;stroke-linecap:round;stroke-linejoin:round;stroke-miterlimit:10;" x1="599" y1="891" x2="599" y2="5.67"/>
	<polygon style="fill-rule:evenodd;clip-rule:evenodd;" points="595.76,6.48 599,0 602.24,6.48 595.76,6.48 595.76,6.48 	"/>
	
		<line style="fill:none;stroke:#000000;stroke-width:0.7187;stroke-linecap:round;stroke-linejoin:round;stroke-miterlimit:10;" x1="596" y1="180" x2="797.13" y2="180.74"/>
	
		<line style="fill:none;stroke:#000000;stroke-width:0.7187;stroke-linecap:round;stroke-linejoin:round;stroke-miterlimit:10;" x1="596" y1="238.5" x2="767.91" y2="239.1"/>
	<polygon style="fill-rule:evenodd;clip-rule:evenodd;" points="767.11,235.85 773.58,239.12 767.09,242.33 767.11,235.85 
		767.11,235.85 	"/>
	
		<line style="fill:none;stroke:#000000;stroke-width:0.7187;stroke-linecap:round;stroke-linejoin:round;stroke-miterlimit:10;" x1="686.68" y1="238.81" x2="681.22" y2="238.8"/>
	<polygon style="fill-rule:evenodd;clip-rule:evenodd;" points="687.69,242.06 681.22,238.8 687.71,235.58 687.69,242.06 
		687.69,242.06 	"/>
	
		<line style="fill:none;stroke:#000000;stroke-width:0.7187;stroke-linecap:round;stroke-linejoin:round;stroke-miterlimit:10;" x1="596" y1="301.5" x2="691.59" y2="302.79"/>
	<polygon style="fill-rule:evenodd;clip-rule:evenodd;" points="690.83,299.54 697.26,302.87 690.74,306.02 690.83,299.54 
		690.83,299.54 	"/>
	
		<line style="fill:none;stroke:#000000;stroke-width:0.7187;stroke-linecap:round;stroke-linejoin:round;stroke-miterlimit:10;" x1="590" y1="895.5" x2="804.88" y2="896.5"/>
	<polygon style="fill-rule:evenodd;clip-rule:evenodd;" points="804.08,893.26 810.55,896.53 804.05,899.74 804.08,893.26 
		804.08,893.26 	"/>
	
		<line style="fill:none;stroke:#000000;stroke-width:0.7187;stroke-linecap:round;stroke-linejoin:round;stroke-miterlimit:10;" x1="590" y1="837" x2="760.52" y2="837"/>
	<polygon style="fill-rule:evenodd;clip-rule:evenodd;" points="759.71,833.76 766.19,837 759.71,840.24 759.71,833.76 
		759.71,833.76 	"/>
	
		<line style="fill:none;stroke:#000000;stroke-width:0.7187;stroke-linecap:round;stroke-linejoin:round;stroke-miterlimit:10;" x1="596" y1="585" x2="386.41" y2="583.88"/>
	
		<line style="fill:none;stroke:#000000;stroke-width:0.7187;stroke-linecap:round;stroke-linejoin:round;stroke-miterlimit:10;" x1="433.57" y1="441.18" x2="599" y2="441"/>
	
		<line style="fill:none;stroke:#000000;stroke-width:0.7187;stroke-linecap:round;stroke-linejoin:round;stroke-miterlimit:10;" x1="385.15" y1="503.33" x2="599" y2="504"/>
	
		<line style="fill:none;stroke:#000000;stroke-width:0.7187;stroke-linecap:round;stroke-linejoin:round;stroke-miterlimit:10;" x1="432.85" y1="649.71" x2="599" y2="648"/>
	<polygon style="fill-rule:evenodd;clip-rule:evenodd;fill:#FFFFFF;" points="589.85,177 596.14,177 596.14,894 589.85,894 
		589.85,177 	"/>
	
		<polygon style="fill:none;stroke:#FFFFFF;stroke-width:0.2396;stroke-linecap:round;stroke-linejoin:round;stroke-miterlimit:10;" points="
		596.14,894 596.14,177 589.85,177 589.85,894 596.14,894 596.14,894 	"/>
	<path style="fill-rule:evenodd;clip-rule:evenodd;fill:#FFFFFF;" d="M596,177h-6v3h6V177L596,177L596,177z M596,894h-6v-3h6V894
		L596,894L596,894z"/>
	<path style="fill:none;stroke:#000000;stroke-width:0.2396;stroke-linecap:round;stroke-linejoin:round;stroke-miterlimit:10;" d="
		M596,177h-6v3h6V177L596,177L596,177z M596,894h-6v-3h6V894L596,894L596,894z"/>
	<path style="fill:none;stroke:#000000;stroke-width:0.2396;stroke-linecap:round;stroke-linejoin:round;stroke-miterlimit:10;" d="
		M596,177h-6 M596,894h-6"/>
	
		<line style="fill:none;stroke:#000000;stroke-width:0.7187;stroke-linecap:round;stroke-linejoin:round;stroke-miterlimit:10;" x1="203" y1="180" x2="1085" y2="180"/>
	
		<line style="fill:none;stroke:#000000;stroke-width:0.7187;stroke-linecap:round;stroke-linejoin:round;stroke-miterlimit:10;" x1="149" y1="891" x2="1085" y2="891"/>
	
		<line style="fill:none;stroke:#000000;stroke-width:0.7187;stroke-linecap:round;stroke-linejoin:round;stroke-miterlimit:10;" x1="329" y1="180" x2="254.75" y2="891"/>
	
		<line style="fill:none;stroke:#000000;stroke-width:0.7187;stroke-linecap:round;stroke-linejoin:round;stroke-miterlimit:10;" x1="1049" y1="180" x2="995" y2="891"/>
	
		<line style="fill:none;stroke:#000000;stroke-width:0.7187;stroke-linecap:round;stroke-linejoin:round;stroke-miterlimit:10;stroke-dasharray:6.7276,4.8054;" x1="221" y1="180" x2="149" y2="891"/>
	<g>
		<path d="M50.64,314.83h-2c0.29-0.9,0.43-2.26,0.43-4.08v-6.61c0-1.87,0.53-3.25,1.58-4.15s2.22-1.35,3.49-1.35
			c1.38,0,2.5,0.47,3.34,1.42s1.27,2.19,1.27,3.73c0,1.68-0.52,3.14-1.57,4.37s-2.24,1.85-3.59,1.85c-0.91,0-1.77-0.29-2.59-0.87
			v1.54C51,312.33,50.88,313.71,50.64,314.83z M51,306.44c0,0.95,0.25,1.67,0.75,2.16s1.14,0.74,1.91,0.74
			c0.91,0,1.68-0.39,2.29-1.18s0.92-1.82,0.92-3.11c0-1.63-0.42-2.93-1.25-3.88s-1.77-1.43-2.79-1.43c-0.7,0-1.17,0.22-1.44,0.65
			S51,301.54,51,302.51V306.44z"/>
	</g>
	<g>
		<path d="M61.44,308.15l2.58-1.26h0.26v8.95c0,0.59,0.02,0.96,0.07,1.11c0.05,0.15,0.15,0.26,0.31,0.34
			c0.16,0.08,0.47,0.12,0.95,0.13v0.29h-3.99v-0.29c0.5-0.01,0.82-0.05,0.97-0.13c0.15-0.08,0.25-0.18,0.3-0.31
			c0.06-0.13,0.09-0.51,0.09-1.15v-5.72c0-0.77-0.03-1.27-0.08-1.48c-0.04-0.17-0.1-0.29-0.2-0.37c-0.1-0.08-0.21-0.12-0.35-0.12
			c-0.19,0-0.46,0.08-0.81,0.24L61.44,308.15z"/>
	</g>
	<g>
		<path d="M75.03,314.4v0.43c-1.18-0.59-2.16-1.29-2.95-2.09c-1.13-1.13-1.99-2.47-2.6-4.01s-0.91-3.14-0.91-4.79
			c0-2.42,0.6-4.63,1.79-6.63s2.75-3.42,4.68-4.28v0.49c-0.96,0.53-1.75,1.26-2.37,2.18s-1.08,2.09-1.38,3.5s-0.46,2.89-0.46,4.43
			c0,1.67,0.13,3.19,0.39,4.56c0.2,1.08,0.45,1.94,0.74,2.6s0.68,1.28,1.17,1.88S74.24,313.85,75.03,314.4z"/>
		<path d="M85.65,306.4l-0.13,3.29h-9.47v-0.42l7.13-9.49h-3.52c-0.76,0-1.25,0.05-1.49,0.15s-0.43,0.28-0.57,0.56
			c-0.21,0.39-0.33,0.88-0.36,1.45h-0.47l0.07-2.98h9v0.43l-7.2,9.52h3.91c0.82,0,1.38-0.07,1.67-0.21s0.53-0.38,0.71-0.72
			c0.13-0.25,0.23-0.78,0.32-1.58H85.65z"/>
		<path d="M86.76,293.53v-0.49c1.19,0.59,2.18,1.28,2.96,2.07c1.12,1.14,1.98,2.48,2.59,4.01s0.91,3.13,0.91,4.8
			c0,2.42-0.6,4.63-1.79,6.63s-2.75,3.42-4.68,4.28v-0.43c0.96-0.54,1.75-1.27,2.37-2.19s1.08-2.09,1.38-3.5s0.45-2.9,0.45-4.44
			c0-1.66-0.13-3.18-0.39-4.56c-0.2-1.08-0.44-1.94-0.73-2.59s-0.68-1.27-1.17-1.88S87.56,294.07,86.76,293.53z"/>
	</g>
	<g>
	</g>
	<g>
		<path d="M110.9,299.6H99.55v-1.97h11.34V299.6z M110.9,304.81H99.55v-1.97h11.34V304.81z"/>
	</g>
	<g>
		<path d="M115.27,314.83h-2c0.29-0.9,0.43-2.26,0.43-4.08v-6.61c0-1.87,0.53-3.25,1.58-4.15s2.22-1.35,3.49-1.35
			c1.38,0,2.5,0.47,3.34,1.42s1.27,2.19,1.27,3.73c0,1.68-0.52,3.14-1.57,4.37s-2.24,1.85-3.59,1.85c-0.91,0-1.77-0.29-2.59-0.87
			v1.54C115.63,312.33,115.51,313.71,115.27,314.83z M115.63,306.44c0,0.95,0.25,1.67,0.75,2.16s1.14,0.74,1.91,0.74
			c0.91,0,1.68-0.39,2.29-1.18s0.92-1.82,0.92-3.11c0-1.63-0.42-2.93-1.25-3.88s-1.77-1.43-2.79-1.43c-0.7,0-1.17,0.22-1.44,0.65
			s-0.39,1.14-0.39,2.12V306.44z"/>
	</g>
	<g>
		<path d="M124.78,312.47c0-1.21,0.18-2.25,0.55-3.12c0.36-0.87,0.85-1.52,1.45-1.95c0.47-0.34,0.95-0.51,1.45-0.51
			c0.81,0,1.54,0.41,2.19,1.24c0.81,1.03,1.21,2.42,1.21,4.17c0,1.23-0.18,2.27-0.53,3.13s-0.81,1.48-1.36,1.87
			c-0.55,0.39-1.08,0.58-1.59,0.58c-1.01,0-1.85-0.6-2.52-1.79C125.07,315.1,124.78,313.89,124.78,312.47z M126.31,312.66
			c0,1.46,0.18,2.65,0.54,3.57c0.3,0.78,0.74,1.17,1.33,1.17c0.28,0,0.57-0.13,0.88-0.38c0.3-0.25,0.53-0.68,0.69-1.27
			c0.24-0.9,0.36-2.16,0.36-3.79c0-1.21-0.13-2.22-0.38-3.02c-0.19-0.6-0.43-1.02-0.73-1.27c-0.21-0.17-0.47-0.26-0.77-0.26
			c-0.35,0-0.67,0.16-0.95,0.48c-0.38,0.43-0.63,1.11-0.77,2.04C126.38,310.85,126.31,311.76,126.31,312.66z"/>
		<path d="M134.08,308.15l2.58-1.26h0.26v8.95c0,0.59,0.02,0.96,0.07,1.11c0.05,0.15,0.15,0.26,0.31,0.34
			c0.16,0.08,0.47,0.12,0.95,0.13v0.29h-3.99v-0.29c0.5-0.01,0.82-0.05,0.97-0.13c0.15-0.08,0.25-0.18,0.3-0.31
			c0.06-0.13,0.09-0.51,0.09-1.15v-5.72c0-0.77-0.03-1.27-0.08-1.48c-0.04-0.17-0.1-0.29-0.2-0.37c-0.1-0.08-0.21-0.12-0.35-0.12
			c-0.19,0-0.46,0.08-0.81,0.24L134.08,308.15z"/>
	</g>
	<g>
		<path d="M152.48,308.04v-5.85h-5.84v-0.96h5.84v-5.82h0.94v5.82h5.86v0.96h-5.86v5.85H152.48z"/>
		<path d="M169.44,300.81c1.04-1.45,2.16-2.17,3.36-2.17c1.1,0,2.06,0.47,2.88,1.41s1.23,2.23,1.23,3.86c0,1.91-0.63,3.44-1.9,4.61
			c-1.09,1-2.3,1.5-3.63,1.5c-0.63,0-1.26-0.11-1.9-0.34s-1.3-0.57-1.97-1.02v-11.12c0-1.22-0.03-1.97-0.09-2.25
			s-0.15-0.47-0.28-0.57s-0.28-0.15-0.47-0.15c-0.22,0-0.49,0.06-0.82,0.19l-0.16-0.41l3.22-1.31h0.53V300.81z M169.44,301.56v6.42
			c0.4,0.39,0.81,0.69,1.24,0.88s0.86,0.3,1.31,0.3c0.71,0,1.37-0.39,1.99-1.17s0.92-1.92,0.92-3.41c0-1.38-0.31-2.43-0.92-3.17
			s-1.31-1.11-2.09-1.11c-0.41,0-0.83,0.11-1.24,0.32C170.32,300.78,169.92,301.1,169.44,301.56z"/>
	</g>
	<g>
		<path d="M179.61,308.15l2.58-1.26h0.26v8.95c0,0.59,0.02,0.96,0.07,1.11c0.05,0.15,0.15,0.26,0.31,0.34
			c0.16,0.08,0.47,0.12,0.95,0.13v0.29h-3.99v-0.29c0.5-0.01,0.82-0.05,0.97-0.13c0.15-0.08,0.25-0.18,0.3-0.31
			c0.06-0.13,0.09-0.51,0.09-1.15v-5.72c0-0.77-0.03-1.27-0.08-1.48c-0.04-0.17-0.1-0.29-0.2-0.37c-0.1-0.08-0.21-0.12-0.35-0.12
			c-0.19,0-0.46,0.08-0.81,0.24L179.61,308.15z"/>
	</g>
	<g>
		<path d="M195.84,306.4l-0.13,3.29h-9.47v-0.42l7.13-9.49h-3.52c-0.76,0-1.25,0.05-1.49,0.15s-0.43,0.28-0.57,0.56
			c-0.21,0.39-0.33,0.88-0.36,1.45h-0.47l0.07-2.98h9v0.43l-7.2,9.52h3.91c0.82,0,1.38-0.07,1.67-0.21s0.53-0.38,0.71-0.72
			c0.13-0.25,0.23-0.78,0.32-1.58H195.84z"/>
	</g>
	<g>
		<path d="M347.75,225.21v-17.18h6.48c1.14,0,2.01,0.05,2.61,0.16c0.84,0.14,1.55,0.41,2.12,0.8s1.03,0.95,1.38,1.66
			s0.52,1.49,0.52,2.34c0,1.46-0.46,2.7-1.39,3.71s-2.61,1.52-5.04,1.52h-4.41v6.98H347.75z M350.02,216.19h4.44
			c1.47,0,2.51-0.27,3.13-0.82s0.93-1.32,0.93-2.31c0-0.72-0.18-1.33-0.54-1.85s-0.84-0.85-1.44-1.01c-0.38-0.1-1.09-0.15-2.12-0.15
			h-4.39V216.19z"/>
	</g>
	<g>
		<path d="M364.48,223.68v2.35h1.67v0.55h-1.67v4.64c0,0.46,0.07,0.78,0.2,0.94s0.3,0.24,0.51,0.24c0.17,0,0.34-0.05,0.5-0.16
			s0.29-0.26,0.38-0.47h0.31c-0.18,0.51-0.44,0.89-0.77,1.15c-0.33,0.26-0.68,0.39-1.03,0.39c-0.24,0-0.47-0.07-0.7-0.2
			c-0.23-0.13-0.4-0.32-0.51-0.57c-0.11-0.25-0.16-0.63-0.16-1.15v-4.81h-1.13v-0.26c0.29-0.11,0.58-0.31,0.88-0.58
			c0.3-0.27,0.57-0.6,0.8-0.97c0.12-0.2,0.29-0.56,0.5-1.09H364.48z"/>
	</g>
	<g>
		<path d="M373.8,229.9v0.43c-1.18-0.59-2.16-1.29-2.95-2.09c-1.13-1.13-1.99-2.47-2.6-4.01s-0.91-3.14-0.91-4.79
			c0-2.42,0.6-4.63,1.79-6.63s2.75-3.42,4.68-4.28v0.49c-0.96,0.53-1.75,1.26-2.37,2.18s-1.08,2.09-1.38,3.5s-0.46,2.89-0.46,4.43
			c0,1.67,0.13,3.19,0.39,4.56c0.2,1.08,0.45,1.94,0.74,2.6s0.68,1.28,1.17,1.88S373.01,229.36,373.8,229.9z"/>
		<path d="M384.41,221.91l-0.13,3.29h-9.47v-0.42l7.13-9.49h-3.52c-0.76,0-1.25,0.05-1.49,0.15s-0.43,0.28-0.57,0.56
			c-0.21,0.39-0.33,0.88-0.36,1.45h-0.47l0.07-2.98h9v0.43l-7.2,9.52h3.91c0.82,0,1.38-0.07,1.67-0.21s0.53-0.38,0.71-0.72
			c0.13-0.25,0.23-0.78,0.32-1.58H384.41z"/>
		<path d="M385.53,209.03v-0.49c1.19,0.59,2.18,1.28,2.96,2.07c1.12,1.14,1.98,2.48,2.59,4.01s0.91,3.13,0.91,4.8
			c0,2.42-0.6,4.63-1.79,6.63s-2.75,3.42-4.68,4.28v-0.43c0.96-0.54,1.75-1.27,2.37-2.19s1.08-2.09,1.38-3.5s0.45-2.9,0.45-4.44
			c0-1.66-0.13-3.18-0.39-4.56c-0.2-1.08-0.44-1.94-0.73-2.59s-0.68-1.27-1.17-1.88S386.32,209.58,385.53,209.03z"/>
	</g>
	<g>
	</g>
	<g>
		<path d="M409.66,215.1h-11.34v-1.97h11.34V215.1z M409.66,220.32h-11.34v-1.97h11.34V220.32z"/>
		<path d="M412.85,225.21v-17.18h6.48c1.14,0,2.01,0.05,2.61,0.16c0.84,0.14,1.55,0.41,2.12,0.8s1.03,0.95,1.38,1.66
			s0.52,1.49,0.52,2.34c0,1.46-0.46,2.7-1.39,3.71s-2.61,1.52-5.04,1.52h-4.41v6.98H412.85z M415.13,216.19h4.44
			c1.47,0,2.51-0.27,3.13-0.82s0.93-1.32,0.93-2.31c0-0.72-0.18-1.33-0.54-1.85s-0.84-0.85-1.44-1.01c-0.38-0.1-1.09-0.15-2.12-0.15
			h-4.39V216.19z"/>
	</g>
	<g>
		<path d="M429.58,223.68v2.35h1.67v0.55h-1.67v4.64c0,0.46,0.07,0.78,0.2,0.94s0.3,0.24,0.51,0.24c0.17,0,0.34-0.05,0.5-0.16
			s0.29-0.26,0.38-0.47h0.31c-0.18,0.51-0.44,0.89-0.77,1.15c-0.33,0.26-0.68,0.39-1.03,0.39c-0.24,0-0.47-0.07-0.7-0.2
			c-0.23-0.13-0.4-0.32-0.51-0.57c-0.11-0.25-0.16-0.63-0.16-1.15v-4.81h-1.13v-0.26c0.29-0.11,0.58-0.31,0.88-0.58
			c0.3-0.27,0.57-0.6,0.8-0.97c0.12-0.2,0.29-0.56,0.5-1.09H429.58z"/>
		<path d="M432.03,227.95c0-1.21,0.18-2.25,0.55-3.12c0.36-0.87,0.85-1.52,1.45-1.95c0.47-0.34,0.95-0.51,1.45-0.51
			c0.81,0,1.54,0.41,2.19,1.24c0.81,1.03,1.21,2.42,1.21,4.17c0,1.23-0.18,2.27-0.53,3.13s-0.81,1.48-1.36,1.87
			c-0.55,0.39-1.08,0.58-1.59,0.58c-1.01,0-1.85-0.6-2.52-1.79C432.31,230.58,432.03,229.37,432.03,227.95z M433.56,228.15
			c0,1.46,0.18,2.65,0.54,3.57c0.3,0.78,0.74,1.17,1.33,1.17c0.28,0,0.57-0.13,0.88-0.38c0.3-0.25,0.53-0.68,0.69-1.27
			c0.24-0.9,0.36-2.16,0.36-3.79c0-1.21-0.13-2.22-0.38-3.02c-0.19-0.6-0.43-1.02-0.73-1.27c-0.21-0.17-0.47-0.26-0.77-0.26
			c-0.35,0-0.67,0.16-0.95,0.48c-0.38,0.43-0.63,1.11-0.77,2.04C433.63,226.33,433.56,227.25,433.56,228.15z"/>
	</g>
	<g>
		<path d="M451.74,223.55v-5.85h-5.84v-0.96h5.84v-5.82h0.94v5.82h5.86v0.96h-5.86v5.85H451.74z"/>
		<path d="M468.7,216.32c1.04-1.45,2.16-2.17,3.36-2.17c1.1,0,2.06,0.47,2.88,1.41s1.23,2.23,1.23,3.86c0,1.91-0.63,3.44-1.9,4.61
			c-1.09,1-2.3,1.5-3.63,1.5c-0.63,0-1.26-0.11-1.9-0.34s-1.3-0.57-1.97-1.02v-11.12c0-1.22-0.03-1.97-0.09-2.25
			s-0.15-0.47-0.28-0.57s-0.28-0.15-0.47-0.15c-0.22,0-0.49,0.06-0.82,0.19l-0.16-0.41l3.22-1.31h0.53V216.32z M468.7,217.07v6.42
			c0.4,0.39,0.81,0.69,1.24,0.88s0.86,0.3,1.31,0.3c0.71,0,1.37-0.39,1.99-1.17s0.92-1.92,0.92-3.41c0-1.38-0.31-2.43-0.92-3.17
			s-1.31-1.11-2.09-1.11c-0.41,0-0.83,0.11-1.24,0.32C469.58,216.29,469.18,216.6,468.7,217.07z"/>
	</g>
	<g>
		<path d="M479.57,223.68v2.35h1.67v0.55h-1.67v4.64c0,0.46,0.07,0.78,0.2,0.94s0.3,0.24,0.51,0.24c0.17,0,0.34-0.05,0.5-0.16
			s0.29-0.26,0.38-0.47h0.31c-0.18,0.51-0.44,0.89-0.77,1.15c-0.33,0.26-0.68,0.39-1.03,0.39c-0.24,0-0.47-0.07-0.7-0.2
			c-0.23-0.13-0.4-0.32-0.51-0.57c-0.11-0.25-0.16-0.63-0.16-1.15v-4.81h-1.13v-0.26c0.29-0.11,0.58-0.31,0.88-0.58
			c0.3-0.27,0.57-0.6,0.8-0.97c0.12-0.2,0.29-0.56,0.5-1.09H479.57z"/>
	</g>
	<g>
		<path d="M491.52,221.91l-0.13,3.29h-9.47v-0.42l7.13-9.49h-3.52c-0.76,0-1.25,0.05-1.49,0.15s-0.43,0.28-0.57,0.56
			c-0.21,0.39-0.33,0.88-0.36,1.45h-0.47l0.07-2.98h9v0.43l-7.2,9.52h3.91c0.82,0,1.38-0.07,1.67-0.21s0.53-0.38,0.71-0.72
			c0.13-0.25,0.23-0.78,0.32-1.58H491.52z"/>
	</g>
	<g>
	</g>
	<g>
		<path d="M869.65,360.82h-2c0.29-0.9,0.43-2.26,0.43-4.08v-6.61c0-1.87,0.53-3.25,1.58-4.15s2.22-1.35,3.49-1.35
			c1.38,0,2.5,0.47,3.34,1.42s1.27,2.19,1.27,3.73c0,1.68-0.52,3.14-1.57,4.37s-2.24,1.85-3.59,1.85c-0.91,0-1.77-0.29-2.59-0.87
			v1.54C870.01,358.32,869.89,359.7,869.65,360.82z M870.01,352.43c0,0.95,0.25,1.67,0.75,2.16s1.14,0.74,1.91,0.74
			c0.91,0,1.68-0.39,2.29-1.18s0.92-1.82,0.92-3.11c0-1.63-0.42-2.93-1.25-3.88s-1.77-1.43-2.79-1.43c-0.7,0-1.17,0.22-1.44,0.65
			s-0.39,1.14-0.39,2.12V352.43z"/>
	</g>
	<g>
		<path d="M885.9,361.66l-0.74,2.04h-6.25v-0.29c1.84-1.68,3.13-3.05,3.88-4.11c0.75-1.06,1.13-2.03,1.13-2.92
			c0-0.67-0.21-1.22-0.62-1.66c-0.41-0.43-0.9-0.65-1.48-0.65c-0.52,0-0.99,0.15-1.4,0.46c-0.41,0.3-0.72,0.75-0.92,1.34h-0.29
			c0.13-0.96,0.47-1.7,1-2.22c0.54-0.52,1.21-0.77,2.02-0.77c0.86,0,1.58,0.28,2.15,0.83s0.86,1.2,0.86,1.95
			c0,0.54-0.13,1.07-0.38,1.61c-0.39,0.84-1.01,1.74-1.88,2.68c-1.3,1.42-2.11,2.27-2.43,2.56h2.77c0.56,0,0.96-0.02,1.18-0.06
			c0.23-0.04,0.43-0.13,0.61-0.25c0.18-0.13,0.34-0.31,0.48-0.54H885.9z"/>
	</g>
	<g>
		<path d="M894.03,360.39v0.43c-1.18-0.59-2.16-1.29-2.95-2.09c-1.13-1.13-1.99-2.47-2.6-4.01s-0.91-3.14-0.91-4.79
			c0-2.42,0.6-4.63,1.79-6.63s2.75-3.42,4.68-4.28v0.49c-0.96,0.53-1.75,1.26-2.37,2.18s-1.08,2.09-1.38,3.5s-0.46,2.89-0.46,4.43
			c0,1.67,0.13,3.19,0.39,4.56c0.2,1.08,0.45,1.94,0.74,2.6s0.68,1.28,1.17,1.88S893.24,359.84,894.03,360.39z"/>
		<path d="M904.65,352.4l-0.13,3.29h-9.47v-0.42l7.13-9.49h-3.52c-0.76,0-1.25,0.05-1.49,0.15s-0.43,0.28-0.57,0.56
			c-0.21,0.39-0.33,0.88-0.36,1.45h-0.47l0.07-2.98h9v0.43l-7.2,9.52h3.91c0.82,0,1.38-0.07,1.67-0.21s0.53-0.38,0.71-0.72
			c0.13-0.25,0.23-0.78,0.32-1.58H904.65z"/>
		<path d="M905.76,339.52v-0.49c1.19,0.59,2.18,1.28,2.96,2.07c1.12,1.14,1.98,2.48,2.59,4.01s0.91,3.13,0.91,4.8
			c0,2.42-0.6,4.63-1.79,6.63s-2.75,3.42-4.68,4.28v-0.43c0.96-0.54,1.75-1.27,2.37-2.19s1.08-2.09,1.38-3.5s0.45-2.9,0.45-4.44
			c0-1.66-0.13-3.18-0.39-4.56c-0.2-1.08-0.44-1.94-0.73-2.59s-0.68-1.27-1.17-1.88S906.56,340.06,905.76,339.52z"/>
	</g>
	<g>
	</g>
	<g>
		<path d="M929.88,345.59h-11.34v-1.97h11.34V345.59z M929.88,350.8h-11.34v-1.97h11.34V350.8z"/>
	</g>
	<g>
		<path d="M934.27,360.82h-2c0.29-0.9,0.43-2.26,0.43-4.08v-6.61c0-1.87,0.53-3.25,1.58-4.15s2.22-1.35,3.49-1.35
			c1.38,0,2.5,0.47,3.34,1.42s1.27,2.19,1.27,3.73c0,1.68-0.52,3.14-1.57,4.37s-2.24,1.85-3.59,1.85c-0.91,0-1.77-0.29-2.59-0.87
			v1.54C934.64,358.32,934.52,359.7,934.27,360.82z M934.64,352.43c0,0.95,0.25,1.67,0.75,2.16s1.14,0.74,1.91,0.74
			c0.91,0,1.68-0.39,2.29-1.18s0.92-1.82,0.92-3.11c0-1.63-0.42-2.93-1.25-3.88s-1.77-1.43-2.79-1.43c-0.7,0-1.17,0.22-1.44,0.65
			s-0.39,1.14-0.39,2.12V352.43z"/>
	</g>
	<g>
		<path d="M943.77,358.46c0-1.21,0.18-2.25,0.55-3.12c0.36-0.87,0.85-1.52,1.45-1.95c0.47-0.34,0.95-0.51,1.45-0.51
			c0.81,0,1.54,0.41,2.19,1.24c0.81,1.03,1.21,2.42,1.21,4.17c0,1.23-0.18,2.27-0.53,3.13c-0.35,0.86-0.81,1.48-1.36,1.87
			s-1.08,0.58-1.59,0.58c-1.01,0-1.85-0.6-2.52-1.79C944.06,361.09,943.77,359.88,943.77,358.46z M945.31,358.66
			c0,1.46,0.18,2.65,0.54,3.57c0.3,0.78,0.74,1.17,1.33,1.17c0.28,0,0.57-0.13,0.88-0.38c0.3-0.25,0.53-0.68,0.69-1.27
			c0.24-0.9,0.36-2.16,0.36-3.79c0-1.21-0.13-2.22-0.38-3.02c-0.19-0.6-0.43-1.02-0.73-1.27c-0.21-0.17-0.47-0.26-0.77-0.26
			c-0.35,0-0.67,0.16-0.95,0.48c-0.38,0.43-0.63,1.11-0.77,2.04C945.37,356.84,945.31,357.75,945.31,358.66z"/>
		<path d="M958.54,361.66l-0.74,2.04h-6.25v-0.29c1.84-1.68,3.13-3.05,3.88-4.11c0.75-1.06,1.13-2.03,1.13-2.92
			c0-0.67-0.21-1.22-0.62-1.66c-0.41-0.43-0.9-0.65-1.48-0.65c-0.52,0-0.99,0.15-1.4,0.46c-0.41,0.3-0.72,0.75-0.92,1.34h-0.29
			c0.13-0.96,0.47-1.7,1-2.22c0.54-0.52,1.21-0.77,2.02-0.77c0.86,0,1.58,0.28,2.15,0.83s0.86,1.2,0.86,1.95
			c0,0.54-0.13,1.07-0.38,1.61c-0.39,0.84-1.01,1.74-1.88,2.68c-1.3,1.42-2.11,2.27-2.43,2.56h2.77c0.56,0,0.96-0.02,1.18-0.06
			c0.23-0.04,0.43-0.13,0.61-0.25c0.18-0.13,0.34-0.31,0.48-0.54H958.54z"/>
	</g>
	<g>
		<path d="M971.49,354.04v-5.85h-5.84v-0.96h5.84v-5.82h0.94v5.82h5.86v0.96h-5.86v5.85H971.49z"/>
		<path d="M988.45,346.81c1.04-1.45,2.16-2.17,3.36-2.17c1.1,0,2.06,0.47,2.88,1.41s1.23,2.23,1.23,3.86c0,1.91-0.63,3.44-1.9,4.61
			c-1.09,1-2.3,1.5-3.63,1.5c-0.63,0-1.26-0.11-1.9-0.34s-1.3-0.57-1.97-1.02v-11.12c0-1.22-0.03-1.97-0.09-2.25
			s-0.15-0.47-0.28-0.57s-0.28-0.15-0.47-0.15c-0.22,0-0.49,0.06-0.82,0.19l-0.16-0.41l3.22-1.31h0.53V346.81z M988.45,347.56v6.42
			c0.4,0.39,0.81,0.69,1.24,0.88s0.86,0.3,1.31,0.3c0.71,0,1.37-0.39,1.99-1.17s0.92-1.92,0.92-3.41c0-1.38-0.31-2.43-0.92-3.17
			s-1.31-1.11-2.09-1.11c-0.41,0-0.83,0.11-1.24,0.32C989.33,346.78,988.93,347.09,988.45,347.56z"/>
	</g>
	<g>
		<path d="M1004.09,361.66l-0.74,2.04h-6.25v-0.29c1.84-1.68,3.13-3.05,3.88-4.11c0.75-1.06,1.13-2.03,1.13-2.92
			c0-0.67-0.21-1.22-0.62-1.66c-0.41-0.43-0.9-0.65-1.48-0.65c-0.52,0-0.99,0.15-1.4,0.46c-0.41,0.3-0.72,0.75-0.92,1.34h-0.29
			c0.13-0.96,0.47-1.7,1-2.22c0.54-0.52,1.21-0.77,2.02-0.77c0.86,0,1.58,0.28,2.15,0.83s0.86,1.2,0.86,1.95
			c0,0.54-0.13,1.07-0.38,1.61c-0.39,0.84-1.01,1.74-1.88,2.68c-1.3,1.42-2.11,2.27-2.43,2.56h2.77c0.56,0,0.96-0.02,1.18-0.06
			c0.23-0.04,0.43-0.13,0.61-0.25c0.18-0.13,0.34-0.31,0.48-0.54H1004.09z"/>
	</g>
	<g>
		<path d="M1014.82,352.4l-0.13,3.29h-9.47v-0.42l7.13-9.49h-3.52c-0.76,0-1.25,0.05-1.49,0.15s-0.43,0.28-0.57,0.56
			c-0.21,0.39-0.33,0.88-0.36,1.45h-0.47l0.07-2.98h9v0.43l-7.2,9.52h3.91c0.82,0,1.38-0.07,1.67-0.21s0.53-0.38,0.71-0.72
			c0.13-0.25,0.23-0.78,0.32-1.58H1014.82z"/>
	</g>
	<g>
	</g>
	<g>
		<path d="M249.12,913.7v-17.18h6.48c1.14,0,2.01,0.05,2.61,0.16c0.84,0.14,1.55,0.41,2.12,0.8s1.03,0.95,1.38,1.66
			s0.52,1.49,0.52,2.34c0,1.46-0.46,2.7-1.39,3.71s-2.61,1.52-5.04,1.52h-4.41v6.98H249.12z M251.39,904.69h4.44
			c1.47,0,2.51-0.27,3.13-0.82s0.93-1.32,0.93-2.31c0-0.72-0.18-1.33-0.54-1.85s-0.84-0.85-1.44-1.01c-0.38-0.1-1.09-0.15-2.12-0.15
			h-4.39V904.69z"/>
	</g>
	<g>
		<path d="M265.85,912.18v2.35h1.67v0.55h-1.67v4.64c0,0.46,0.07,0.78,0.2,0.94c0.13,0.16,0.3,0.24,0.51,0.24
			c0.17,0,0.34-0.05,0.5-0.16c0.16-0.11,0.29-0.26,0.38-0.47h0.31c-0.18,0.51-0.44,0.9-0.77,1.15s-0.68,0.39-1.03,0.39
			c-0.24,0-0.47-0.07-0.7-0.2c-0.23-0.13-0.4-0.32-0.51-0.57c-0.11-0.25-0.16-0.63-0.16-1.15v-4.81h-1.13v-0.26
			c0.29-0.11,0.58-0.31,0.88-0.58s0.57-0.6,0.8-0.97c0.12-0.2,0.29-0.56,0.5-1.09H265.85z"/>
		<path d="M268.3,916.45c0-1.21,0.18-2.25,0.55-3.12s0.85-1.52,1.45-1.95c0.47-0.34,0.95-0.51,1.45-0.51c0.81,0,1.54,0.42,2.19,1.24
			c0.81,1.03,1.21,2.42,1.21,4.17c0,1.23-0.18,2.27-0.53,3.13c-0.35,0.86-0.81,1.48-1.36,1.87c-0.55,0.39-1.08,0.58-1.59,0.58
			c-1.01,0-1.85-0.6-2.52-1.79C268.58,919.08,268.3,917.87,268.3,916.45z M269.83,916.65c0,1.46,0.18,2.65,0.54,3.57
			c0.3,0.78,0.74,1.17,1.33,1.17c0.28,0,0.57-0.13,0.88-0.38s0.53-0.68,0.69-1.27c0.24-0.9,0.36-2.16,0.36-3.79
			c0-1.21-0.13-2.22-0.38-3.02c-0.19-0.6-0.43-1.02-0.73-1.27c-0.21-0.17-0.47-0.26-0.77-0.26c-0.35,0-0.67,0.16-0.95,0.48
			c-0.38,0.43-0.63,1.11-0.77,2.04C269.9,914.83,269.83,915.75,269.83,916.65z"/>
	</g>
	<g>
	</g>
	<g>
		<path d="M13.34,891.2v-17.18h6.48c1.14,0,2.01,0.05,2.61,0.16c0.84,0.14,1.55,0.41,2.12,0.8s1.03,0.95,1.38,1.66
			s0.52,1.49,0.52,2.34c0,1.46-0.46,2.7-1.39,3.71s-2.61,1.52-5.04,1.52h-4.41v6.98H13.34z M15.61,882.19h4.44
			c1.47,0,2.51-0.27,3.13-0.82s0.93-1.32,0.93-2.31c0-0.72-0.18-1.33-0.54-1.85s-0.84-0.85-1.44-1.01c-0.38-0.1-1.09-0.15-2.12-0.15
			h-4.39V882.19z"/>
	</g>
	<g>
		<path d="M28.07,893.95c0-1.21,0.18-2.25,0.55-3.12s0.85-1.52,1.45-1.95c0.47-0.34,0.95-0.51,1.45-0.51c0.81,0,1.54,0.42,2.19,1.24
			c0.81,1.03,1.21,2.42,1.21,4.17c0,1.23-0.18,2.27-0.53,3.13c-0.35,0.86-0.81,1.48-1.36,1.87c-0.55,0.39-1.08,0.58-1.59,0.58
			c-1.01,0-1.85-0.6-2.52-1.79C28.35,896.58,28.07,895.37,28.07,893.95z M29.6,894.15c0,1.46,0.18,2.65,0.54,3.57
			c0.3,0.78,0.74,1.17,1.33,1.17c0.28,0,0.57-0.13,0.88-0.38s0.53-0.68,0.69-1.27c0.24-0.9,0.36-2.16,0.36-3.79
			c0-1.21-0.13-2.22-0.38-3.02c-0.19-0.6-0.43-1.02-0.73-1.27c-0.21-0.17-0.47-0.26-0.77-0.26c-0.35,0-0.67,0.16-0.95,0.48
			c-0.38,0.43-0.63,1.11-0.77,2.04C29.67,892.33,29.6,893.25,29.6,894.15z"/>
		<path d="M37.37,889.63l2.58-1.26h0.26v8.95c0,0.59,0.02,0.96,0.07,1.11c0.05,0.15,0.15,0.26,0.31,0.34s0.47,0.12,0.95,0.13v0.29
			h-3.99v-0.29c0.5-0.01,0.82-0.05,0.97-0.13c0.15-0.08,0.25-0.18,0.3-0.3c0.06-0.13,0.09-0.51,0.09-1.15v-5.72
			c0-0.77-0.03-1.27-0.08-1.49c-0.04-0.17-0.1-0.29-0.2-0.37c-0.1-0.08-0.21-0.12-0.35-0.12c-0.19,0-0.46,0.08-0.81,0.24
			L37.37,889.63z"/>
	</g>
	<g>
	</g>
	<g>
		<path d="M142.55,917.84h-2c0.29-0.9,0.43-2.26,0.43-4.08v-6.61c0-1.87,0.53-3.25,1.58-4.15s2.22-1.35,3.49-1.35
			c1.38,0,2.5,0.47,3.34,1.42s1.27,2.19,1.27,3.73c0,1.68-0.52,3.14-1.57,4.37s-2.24,1.85-3.59,1.85c-0.91,0-1.77-0.29-2.59-0.87
			v1.54C142.92,915.33,142.8,916.71,142.55,917.84z M142.92,909.45c0,0.95,0.25,1.67,0.75,2.16s1.14,0.74,1.91,0.74
			c0.91,0,1.68-0.39,2.29-1.18s0.92-1.82,0.92-3.11c0-1.63-0.42-2.93-1.25-3.88s-1.77-1.43-2.79-1.43c-0.7,0-1.17,0.22-1.44,0.65
			s-0.39,1.14-0.39,2.12V909.45z"/>
	</g>
	<g>
		<path d="M152.06,915.45c0-1.21,0.18-2.25,0.55-3.12s0.85-1.52,1.45-1.95c0.47-0.34,0.95-0.51,1.45-0.51
			c0.81,0,1.54,0.42,2.19,1.24c0.81,1.03,1.21,2.42,1.21,4.17c0,1.23-0.18,2.27-0.53,3.13c-0.35,0.86-0.81,1.48-1.36,1.87
			c-0.55,0.39-1.08,0.58-1.59,0.58c-1.01,0-1.85-0.6-2.52-1.79C152.34,918.08,152.06,916.87,152.06,915.45z M153.59,915.65
			c0,1.46,0.18,2.65,0.54,3.57c0.3,0.78,0.74,1.17,1.33,1.17c0.28,0,0.57-0.13,0.88-0.38s0.53-0.68,0.69-1.27
			c0.24-0.9,0.36-2.16,0.36-3.79c0-1.21-0.13-2.22-0.38-3.02c-0.19-0.6-0.43-1.02-0.73-1.27c-0.21-0.17-0.47-0.26-0.77-0.26
			c-0.35,0-0.67,0.16-0.95,0.48c-0.38,0.43-0.63,1.11-0.77,2.04C153.65,913.83,153.59,914.75,153.59,915.65z"/>
		<path d="M161.36,911.13l2.58-1.26h0.26v8.95c0,0.59,0.02,0.96,0.07,1.11c0.05,0.15,0.15,0.26,0.31,0.34s0.47,0.12,0.95,0.13v0.29
			h-3.99v-0.29c0.5-0.01,0.82-0.05,0.97-0.13c0.15-0.08,0.25-0.18,0.3-0.3c0.06-0.13,0.09-0.51,0.09-1.15v-5.72
			c0-0.77-0.03-1.27-0.08-1.49c-0.04-0.17-0.1-0.29-0.2-0.37c-0.1-0.08-0.21-0.12-0.35-0.12c-0.19,0-0.46,0.08-0.81,0.24
			L161.36,911.13z"/>
	</g>
	<g>
		<path d="M988.55,917.84h-2c0.29-0.9,0.43-2.26,0.43-4.08v-6.61c0-1.87,0.53-3.25,1.58-4.15s2.22-1.35,3.49-1.35
			c1.38,0,2.5,0.47,3.34,1.42s1.27,2.19,1.27,3.73c0,1.68-0.52,3.14-1.57,4.37s-2.24,1.85-3.59,1.85c-0.91,0-1.77-0.29-2.59-0.87
			v1.54C988.91,915.33,988.79,916.71,988.55,917.84z M988.91,909.45c0,0.95,0.25,1.67,0.75,2.16s1.14,0.74,1.91,0.74
			c0.91,0,1.68-0.39,2.29-1.18s0.92-1.82,0.92-3.11c0-1.63-0.42-2.93-1.25-3.88s-1.77-1.43-2.79-1.43c-0.7,0-1.17,0.22-1.44,0.65
			s-0.39,1.14-0.39,2.12V909.45z"/>
	</g>
	<g>
		<path d="M998.05,915.45c0-1.21,0.18-2.25,0.55-3.12c0.36-0.87,0.85-1.52,1.45-1.95c0.47-0.34,0.95-0.51,1.45-0.51
			c0.81,0,1.54,0.42,2.19,1.24c0.81,1.03,1.21,2.42,1.21,4.17c0,1.23-0.18,2.27-0.53,3.13c-0.35,0.86-0.81,1.48-1.36,1.87
			c-0.55,0.39-1.08,0.58-1.59,0.58c-1.01,0-1.85-0.6-2.52-1.79C998.33,918.08,998.05,916.87,998.05,915.45z M999.58,915.65
			c0,1.46,0.18,2.65,0.54,3.57c0.3,0.78,0.74,1.17,1.33,1.17c0.28,0,0.57-0.13,0.88-0.38c0.3-0.25,0.53-0.68,0.69-1.27
			c0.24-0.9,0.36-2.16,0.36-3.79c0-1.21-0.13-2.22-0.38-3.02c-0.19-0.6-0.43-1.02-0.73-1.27c-0.21-0.17-0.47-0.26-0.77-0.26
			c-0.35,0-0.67,0.16-0.95,0.48c-0.38,0.43-0.63,1.11-0.77,2.04S999.58,914.75,999.58,915.65z"/>
		<path d="M1012.81,918.65l-0.74,2.04h-6.25v-0.29c1.84-1.68,3.13-3.05,3.88-4.11c0.75-1.06,1.13-2.04,1.13-2.92
			c0-0.67-0.21-1.22-0.62-1.66c-0.41-0.43-0.9-0.65-1.48-0.65c-0.52,0-0.99,0.15-1.4,0.46s-0.72,0.75-0.92,1.34h-0.29
			c0.13-0.96,0.47-1.7,1-2.22s1.21-0.77,2.02-0.77c0.86,0,1.58,0.28,2.15,0.83s0.86,1.2,0.86,1.95c0,0.54-0.13,1.07-0.38,1.61
			c-0.39,0.84-1.01,1.74-1.88,2.68c-1.3,1.42-2.11,2.27-2.43,2.56h2.77c0.56,0,0.96-0.02,1.18-0.06c0.23-0.04,0.43-0.13,0.61-0.25
			c0.18-0.13,0.34-0.31,0.48-0.54H1012.81z"/>
	</g>
	<g>
		<path d="M1111.34,891.2v-17.18h6.48c1.14,0,2.01,0.05,2.61,0.16c0.84,0.14,1.55,0.41,2.12,0.8s1.03,0.95,1.38,1.66
			s0.52,1.49,0.52,2.34c0,1.46-0.46,2.7-1.39,3.71s-2.61,1.52-5.04,1.52h-4.41v6.98H1111.34z M1113.61,882.19h4.44
			c1.47,0,2.51-0.27,3.13-0.82s0.93-1.32,0.93-2.31c0-0.72-0.18-1.33-0.54-1.85s-0.84-0.85-1.44-1.01c-0.38-0.1-1.09-0.15-2.12-0.15
			h-4.39V882.19z"/>
	</g>
	<g>
		<path d="M1126.07,893.95c0-1.21,0.18-2.25,0.55-3.12c0.36-0.87,0.85-1.52,1.45-1.95c0.47-0.34,0.95-0.51,1.45-0.51
			c0.81,0,1.54,0.42,2.19,1.24c0.81,1.03,1.21,2.42,1.21,4.17c0,1.23-0.18,2.27-0.53,3.13c-0.35,0.86-0.81,1.48-1.36,1.87
			c-0.55,0.39-1.08,0.58-1.59,0.58c-1.01,0-1.85-0.6-2.52-1.79C1126.35,896.58,1126.07,895.37,1126.07,893.95z M1127.6,894.15
			c0,1.46,0.18,2.65,0.54,3.57c0.3,0.78,0.74,1.17,1.33,1.17c0.28,0,0.57-0.13,0.88-0.38c0.3-0.25,0.53-0.68,0.69-1.27
			c0.24-0.9,0.36-2.16,0.36-3.79c0-1.21-0.13-2.22-0.38-3.02c-0.19-0.6-0.43-1.02-0.73-1.27c-0.21-0.17-0.47-0.26-0.77-0.26
			c-0.35,0-0.67,0.16-0.95,0.48c-0.38,0.43-0.63,1.11-0.77,2.04S1127.6,893.25,1127.6,894.15z"/>
		<path d="M1140.84,897.15l-0.74,2.04h-6.25v-0.29c1.84-1.68,3.13-3.05,3.88-4.11c0.75-1.06,1.13-2.04,1.13-2.92
			c0-0.67-0.21-1.22-0.62-1.66c-0.41-0.43-0.9-0.65-1.48-0.65c-0.52,0-0.99,0.15-1.4,0.46s-0.72,0.75-0.92,1.34h-0.29
			c0.13-0.96,0.47-1.7,1-2.22s1.21-0.77,2.02-0.77c0.86,0,1.58,0.28,2.15,0.83s0.86,1.2,0.86,1.95c0,0.54-0.13,1.07-0.38,1.61
			c-0.39,0.84-1.01,1.74-1.88,2.68c-1.3,1.42-2.11,2.27-2.43,2.56h2.77c0.56,0,0.96-0.02,1.18-0.06c0.23-0.04,0.43-0.13,0.61-0.25
			c0.18-0.13,0.34-0.31,0.48-0.54H1140.84z"/>
	</g>
	<g>
	</g>
	
		<line style="fill:none;stroke:#000000;stroke-width:0.7187;stroke-linecap:round;stroke-linejoin:round;stroke-miterlimit:10;" x1="1121" y1="450" x2="1121" y2="552.33"/>
	<polygon style="fill-rule:evenodd;clip-rule:evenodd;" points="1124.24,551.52 1121,558 1117.76,551.52 1124.24,551.52 
		1124.24,551.52 	"/>
	
		<line style="fill:none;stroke:#000000;stroke-width:0.7187;stroke-linecap:round;stroke-linejoin:round;stroke-miterlimit:10;stroke-dasharray:0,4.8054;" x1="509" y1="351" x2="662" y2="351"/>
	
		<line style="fill:none;stroke:#000000;stroke-width:0.7187;stroke-linecap:round;stroke-linejoin:round;stroke-miterlimit:10;stroke-dasharray:0,4.8054;" x1="518" y1="751.5" x2="671" y2="751.5"/>
	<g>
		<path d="M673.97,359.28v-2.11l8.8-11c0.63-0.78,1.22-1.46,1.78-2.04h-9.59v-2.03h12.3v2.03l-9.64,11.92l-1.04,1.21h10.97v2.03
			H673.97z"/>
		<path d="M689.98,359.28V342.1h2.33l9.02,13.49V342.1h2.18v17.18h-2.33l-9.02-13.5v13.5H689.98z"/>
	</g>
	<g>
		<path d="M707.37,357.72l2.58-1.26h0.26v8.95c0,0.59,0.03,0.96,0.07,1.11c0.05,0.15,0.15,0.26,0.31,0.34
			c0.16,0.08,0.47,0.12,0.95,0.13v0.29h-3.99v-0.29c0.5-0.01,0.82-0.05,0.97-0.13c0.15-0.08,0.25-0.18,0.3-0.31
			c0.06-0.13,0.09-0.51,0.09-1.15v-5.72c0-0.77-0.03-1.27-0.08-1.48c-0.04-0.17-0.1-0.29-0.2-0.37c-0.1-0.08-0.21-0.12-0.35-0.12
			c-0.19,0-0.46,0.08-0.8,0.24L707.37,357.72z"/>
	</g>
	<g>
	</g>
	<g>
		<path d="M709.97,747.2v-2.11l8.8-11c0.63-0.78,1.22-1.46,1.78-2.04h-9.59v-2.03h12.3v2.03l-9.64,11.92l-1.04,1.21h10.97v2.03
			H709.97z"/>
		<path d="M725.98,747.2v-17.18h2.33l9.02,13.49v-13.49h2.18v17.18h-2.33l-9.02-13.5v13.5H725.98z"/>
	</g>
	<g>
		<path d="M748.82,753.17l-0.74,2.04h-6.25v-0.29c1.84-1.68,3.13-3.05,3.88-4.11c0.75-1.06,1.13-2.04,1.13-2.92
			c0-0.67-0.21-1.22-0.62-1.66c-0.41-0.43-0.9-0.65-1.48-0.65c-0.52,0-0.99,0.15-1.4,0.46s-0.72,0.75-0.92,1.34h-0.29
			c0.13-0.96,0.47-1.7,1-2.22s1.21-0.77,2.02-0.77c0.86,0,1.58,0.28,2.15,0.83s0.86,1.2,0.86,1.95c0,0.54-0.13,1.07-0.38,1.61
			c-0.39,0.84-1.01,1.74-1.88,2.68c-1.3,1.42-2.11,2.27-2.43,2.56h2.77c0.56,0,0.96-0.02,1.18-0.06c0.23-0.04,0.43-0.13,0.61-0.25
			c0.18-0.13,0.34-0.31,0.48-0.54H748.82z"/>
	</g>
	<g>
	</g>
	<g>
		<path d="M1071.09,445.61l2.05,0.3c0.09,0.63,0.32,1.09,0.71,1.38c0.52,0.39,1.24,0.59,2.14,0.59c0.98,0,1.73-0.2,2.26-0.59
			s0.89-0.94,1.08-1.64c0.11-0.43,0.16-1.33,0.15-2.71c-0.92,1.09-2.07,1.63-3.45,1.63c-1.71,0-3.04-0.62-3.97-1.85
			s-1.41-2.71-1.41-4.44c0-1.19,0.21-2.28,0.64-3.29s1.05-1.78,1.87-2.33s1.78-0.82,2.88-0.82c1.47,0,2.68,0.59,3.63,1.78v-1.5h1.95
			v10.76c0,1.94-0.2,3.31-0.59,4.12s-1.02,1.45-1.88,1.92s-1.91,0.7-3.16,0.7c-1.48,0-2.68-0.33-3.6-1
			S1071.06,446.96,1071.09,445.61z M1072.84,438.13c0,1.63,0.32,2.82,0.97,3.57s1.46,1.13,2.44,1.13c0.97,0,1.78-0.37,2.44-1.12
			s0.98-1.92,0.98-3.51c0-1.52-0.34-2.67-1.01-3.45s-1.49-1.16-2.44-1.16c-0.94,0-1.73,0.38-2.39,1.14
			S1072.84,436.63,1072.84,438.13z"/>
		<path d="M1084.8,444.58v-12.45h1.9v1.89c0.48-0.88,0.93-1.46,1.34-1.75s0.86-0.42,1.35-0.42c0.71,0,1.43,0.23,2.17,0.68
			l-0.73,1.96c-0.52-0.3-1.03-0.46-1.55-0.46c-0.46,0-0.88,0.14-1.24,0.42s-0.63,0.66-0.79,1.15c-0.23,0.75-0.35,1.57-0.35,2.46
			v6.52H1084.8z"/>
		<path d="M1100.94,443.04c-0.78,0.66-1.53,1.13-2.26,1.41s-1.5,0.41-2.33,0.41c-1.37,0-2.42-0.33-3.15-1s-1.1-1.52-1.1-2.56
			c0-0.61,0.14-1.17,0.42-1.67s0.64-0.91,1.09-1.21s0.96-0.54,1.52-0.69c0.41-0.11,1.04-0.21,1.88-0.32c1.7-0.2,2.96-0.45,3.76-0.73
			c0.01-0.29,0.01-0.47,0.01-0.55c0-0.86-0.2-1.46-0.6-1.82c-0.54-0.48-1.34-0.71-2.4-0.71c-0.99,0-1.72,0.17-2.2,0.52
			s-0.82,0.96-1.05,1.85l-2.06-0.28c0.19-0.88,0.5-1.6,0.93-2.14s1.05-0.96,1.86-1.25s1.75-0.44,2.82-0.44
			c1.06,0,1.93,0.13,2.59,0.38s1.15,0.56,1.46,0.94s0.53,0.86,0.66,1.44c0.07,0.36,0.11,1.01,0.11,1.95v2.81
			c0,1.96,0.04,3.2,0.13,3.72s0.27,1.02,0.53,1.49h-2.2C1101.14,444.14,1101,443.63,1100.94,443.04z M1100.77,438.33
			c-0.77,0.31-1.91,0.58-3.45,0.8c-0.87,0.13-1.48,0.27-1.84,0.42s-0.64,0.38-0.83,0.69s-0.29,0.63-0.29,1
			c0,0.56,0.21,1.03,0.64,1.41s1.05,0.56,1.87,0.56c0.81,0,1.54-0.18,2.17-0.53s1.1-0.84,1.39-1.46c0.23-0.48,0.34-1.18,0.34-2.11
			V438.33z"/>
		<path d="M1109.63,444.58l-4.73-12.45h2.23l2.67,7.45c0.29,0.8,0.55,1.64,0.8,2.51c0.19-0.66,0.45-1.45,0.79-2.37l2.77-7.59h2.17
			l-4.71,12.45H1109.63z"/>
		<path d="M1118.18,429.83v-2.43h2.11v2.43H1118.18z M1118.18,444.58v-12.45h2.11v12.45H1118.18z"/>
		<path d="M1128.11,442.69l0.3,1.86c-0.59,0.13-1.13,0.19-1.59,0.19c-0.77,0-1.36-0.12-1.78-0.36s-0.72-0.56-0.89-0.96
			s-0.26-1.22-0.26-2.49v-7.16h-1.55v-1.64h1.55v-3.08l2.1-1.27v4.35h2.12v1.64h-2.12v7.28c0,0.6,0.04,0.99,0.11,1.16
			s0.2,0.31,0.36,0.41s0.41,0.15,0.72,0.15C1127.41,442.78,1127.72,442.75,1128.11,442.69z"/>
		<path d="M1130.07,449.37l-0.23-1.98c0.46,0.13,0.86,0.19,1.21,0.19c0.47,0,0.84-0.08,1.13-0.23s0.51-0.38,0.69-0.66
			c0.13-0.21,0.35-0.73,0.64-1.57c0.04-0.12,0.1-0.29,0.19-0.52l-4.72-12.47h2.27l2.59,7.21c0.34,0.91,0.64,1.88,0.9,2.88
			c0.24-0.97,0.53-1.91,0.87-2.84l2.66-7.25h2.11l-4.73,12.66c-0.51,1.37-0.9,2.31-1.18,2.82c-0.38,0.7-0.8,1.21-1.29,1.53
			s-1.06,0.49-1.73,0.49C1131.03,449.63,1130.57,449.54,1130.07,449.37z"/>
	</g>
	<g>
		<path d="M623.76,163.11v-17.18h2.27v7.05h8.93v-7.05h2.27v17.18h-2.27v-8.1h-8.93v8.1H623.76z"/>
	</g>
	<g>
	</g>
	<g>
		<path d="M615.82,915.34c0-2.03,0.21-3.67,0.63-4.9s1.04-2.19,1.86-2.87s1.86-1.01,3.11-1.01c0.92,0,1.73,0.19,2.43,0.56
			s1.27,0.91,1.72,1.61s0.81,1.55,1.07,2.55s0.39,2.36,0.39,4.06c0,2.02-0.21,3.64-0.62,4.88s-1.03,2.2-1.86,2.87
			s-1.87,1.01-3.12,1.01c-1.66,0-2.96-0.59-3.9-1.78C616.38,920.9,615.82,918.57,615.82,915.34z M617.98,915.34
			c0,2.82,0.33,4.7,0.99,5.63s1.47,1.4,2.44,1.4s1.78-0.47,2.44-1.41s0.99-2.81,0.99-5.63c0-2.83-0.33-4.71-0.99-5.64
			s-1.48-1.39-2.47-1.39c-0.97,0-1.74,0.41-2.32,1.23C618.35,910.59,617.98,912.52,617.98,915.34z"/>
	</g>
</g>
</svg>
