<?xml version="1.0" encoding="iso-8859-1"?>
<!-- Generator: Adobe Illustrator 16.0.3, SVG Export Plug-In . SVG Version: 6.00 Build 0)  -->
<!DOCTYPE svg PUBLIC "-//W3C//DTD SVG 1.1//EN" "http://www.w3.org/Graphics/SVG/1.1/DTD/svg11.dtd">
<svg version="1.1" id="Layer_1" xmlns="http://www.w3.org/2000/svg" xmlns:xlink="http://www.w3.org/1999/xlink" x="0px" y="0px"
	 width="385.14px" height="417.51px" viewBox="0 0 385.14 417.51" style="enable-background:new 0 0 385.14 417.51;"
	 xml:space="preserve">
<g>
	
		<polygon style="fill-rule:evenodd;clip-rule:evenodd;fill:#FFFFFF;stroke:#000000;stroke-width:2.1564;stroke-linecap:square;stroke-miterlimit:10;" points="
		42.64,380.49 384.07,380.49 384.07,1.08 42.64,1.08 42.64,380.49 	"/>
	
		<line style="fill:none;stroke:#000000;stroke-width:3.1148;stroke-linecap:square;stroke-miterlimit:10;" x1="295.17" y1="18.45" x2="153.93" y2="352.09"/>
	<polygon style="fill-rule:evenodd;clip-rule:evenodd;" points="291.58,26.83 289.78,25.76 288.35,24.44 287.15,22.76 286.43,20.85 
		286.07,18.81 286.19,16.89 286.79,14.85 287.75,13.06 289.18,11.62 290.86,10.42 292.66,9.7 294.7,9.34 296.73,9.46 298.65,10.06 
		300.45,11.02 302,12.46 303.08,14.14 303.92,15.93 304.16,17.97 304.04,20.01 303.44,21.92 302.48,23.72 301.16,25.28 
		299.49,26.36 297.57,27.19 295.53,27.43 293.5,27.31 291.58,26.83 	"/>
	<polygon style="fill-rule:evenodd;clip-rule:evenodd;" points="157.52,343.71 159.32,344.79 160.76,346.1 161.96,347.78 
		162.68,349.7 163.03,351.73 162.91,353.65 162.32,355.69 161.36,357.48 159.92,358.92 158.24,360.12 156.45,360.84 154.41,361.2 
		152.37,361.08 150.46,360.48 148.66,359.52 147.1,358.08 146.02,356.41 145.18,354.61 144.94,352.57 145.06,350.54 145.66,348.62 
		146.62,346.82 147.94,345.26 149.62,344.19 151.53,343.35 153.57,343.11 155.61,343.23 157.52,343.71 	"/>
	<g>
		<path d="M163.99,404.56V397h-2.83v-1.01h6.8V397h-2.84v7.56H163.99z"/>
		<path d="M173.35,402.56l1.09,0.13c-0.17,0.64-0.49,1.13-0.95,1.48c-0.46,0.35-1.06,0.53-1.78,0.53c-0.91,0-1.63-0.28-2.16-0.84
			s-0.8-1.34-0.8-2.35c0-1.04,0.27-1.86,0.81-2.43s1.24-0.87,2.09-0.87c0.83,0,1.51,0.28,2.04,0.85c0.53,0.57,0.79,1.36,0.79,2.39
			c0,0.06,0,0.16-0.01,0.28h-4.63c0.04,0.68,0.23,1.21,0.58,1.57c0.35,0.36,0.78,0.54,1.3,0.54c0.39,0,0.72-0.1,0.99-0.3
			C172.97,403.33,173.19,403.01,173.35,402.56z M169.89,400.86h3.47c-0.05-0.52-0.18-0.91-0.4-1.18c-0.34-0.41-0.77-0.61-1.3-0.61
			c-0.48,0-0.89,0.16-1.22,0.49C170.11,399.89,169.93,400.32,169.89,400.86z"/>
		<path d="M175.8,404.56v-6.21h0.94v0.87c0.19-0.3,0.45-0.55,0.78-0.73c0.32-0.18,0.69-0.28,1.11-0.28c0.46,0,0.84,0.1,1.13,0.29
			c0.29,0.19,0.5,0.46,0.62,0.8c0.49-0.73,1.13-1.09,1.92-1.09c0.62,0,1.09,0.17,1.42,0.51c0.33,0.34,0.5,0.87,0.5,1.58v4.26h-1.05
			v-3.91c0-0.42-0.04-0.72-0.1-0.91c-0.07-0.18-0.19-0.33-0.37-0.45s-0.39-0.17-0.63-0.17c-0.44,0-0.8,0.15-1.09,0.44
			c-0.29,0.29-0.43,0.75-0.43,1.39v3.61h-1.05v-4.04c0-0.47-0.09-0.82-0.26-1.05c-0.17-0.23-0.45-0.35-0.84-0.35
			c-0.3,0-0.57,0.08-0.82,0.23s-0.43,0.38-0.55,0.68c-0.11,0.3-0.17,0.73-0.17,1.3v3.22H175.8z"/>
		<path d="M185.85,406.95v-8.59h0.96v0.81c0.23-0.32,0.48-0.55,0.77-0.71c0.28-0.16,0.63-0.24,1.04-0.24c0.53,0,1,0.14,1.4,0.41
			c0.41,0.27,0.71,0.66,0.92,1.16s0.31,1.04,0.31,1.63c0,0.64-0.11,1.21-0.34,1.72c-0.23,0.51-0.56,0.9-0.99,1.17
			c-0.44,0.27-0.89,0.41-1.37,0.41c-0.35,0-0.67-0.07-0.94-0.22c-0.28-0.15-0.51-0.33-0.69-0.56v3.02H185.85z M186.8,401.49
			c0,0.8,0.16,1.39,0.49,1.77c0.32,0.38,0.72,0.57,1.18,0.57c0.47,0,0.87-0.2,1.2-0.59c0.33-0.4,0.5-1.01,0.5-1.84
			c0-0.79-0.16-1.38-0.49-1.78c-0.33-0.39-0.71-0.59-1.17-0.59c-0.45,0-0.84,0.21-1.19,0.63
			C186.97,400.08,186.8,400.69,186.8,401.49z"/>
		<path d="M196.8,402.56l1.09,0.13c-0.17,0.64-0.49,1.13-0.95,1.48c-0.46,0.35-1.06,0.53-1.78,0.53c-0.91,0-1.63-0.28-2.16-0.84
			c-0.53-0.56-0.8-1.34-0.8-2.35c0-1.04,0.27-1.86,0.81-2.43c0.54-0.58,1.24-0.87,2.09-0.87c0.83,0,1.51,0.28,2.04,0.85
			c0.53,0.57,0.79,1.36,0.79,2.39c0,0.06,0,0.16-0.01,0.28h-4.63c0.04,0.68,0.23,1.21,0.58,1.57c0.35,0.36,0.78,0.54,1.3,0.54
			c0.39,0,0.72-0.1,0.99-0.3C196.42,403.33,196.64,403.01,196.8,402.56z M193.34,400.86h3.47c-0.05-0.52-0.18-0.91-0.4-1.18
			c-0.33-0.41-0.77-0.61-1.3-0.61c-0.48,0-0.89,0.16-1.22,0.49C193.56,399.89,193.38,400.32,193.34,400.86z"/>
		<path d="M199.23,404.56v-6.21h0.95v0.94c0.24-0.44,0.46-0.73,0.67-0.87c0.21-0.14,0.43-0.21,0.68-0.21c0.35,0,0.71,0.11,1.08,0.34
			l-0.36,0.98c-0.26-0.15-0.52-0.23-0.77-0.23c-0.23,0-0.44,0.07-0.62,0.21c-0.18,0.14-0.31,0.33-0.39,0.58
			c-0.12,0.37-0.18,0.78-0.18,1.23v3.25H199.23z"/>
		<path d="M207.25,403.8c-0.39,0.33-0.77,0.57-1.13,0.7c-0.36,0.14-0.75,0.21-1.16,0.21c-0.68,0-1.21-0.17-1.57-0.5
			c-0.37-0.33-0.55-0.76-0.55-1.28c0-0.3,0.07-0.58,0.21-0.83c0.14-0.25,0.32-0.45,0.54-0.61c0.22-0.15,0.48-0.27,0.76-0.34
			c0.21-0.05,0.52-0.11,0.94-0.16c0.85-0.1,1.48-0.22,1.88-0.36c0-0.14,0.01-0.24,0.01-0.28c0-0.43-0.1-0.73-0.3-0.91
			c-0.27-0.24-0.67-0.36-1.2-0.36c-0.49,0-0.86,0.09-1.1,0.26s-0.41,0.48-0.52,0.92l-1.03-0.14c0.09-0.44,0.25-0.8,0.46-1.07
			c0.21-0.27,0.53-0.48,0.93-0.63c0.4-0.15,0.88-0.22,1.41-0.22c0.53,0,0.96,0.06,1.29,0.19c0.33,0.12,0.58,0.28,0.73,0.47
			c0.15,0.19,0.26,0.43,0.33,0.72c0.04,0.18,0.05,0.5,0.05,0.97v1.4c0,0.98,0.02,1.6,0.07,1.86c0.04,0.26,0.13,0.51,0.27,0.75h-1.1
			C207.35,404.35,207.28,404.09,207.25,403.8z M207.16,401.45c-0.38,0.16-0.96,0.29-1.72,0.4c-0.43,0.06-0.74,0.13-0.92,0.21
			c-0.18,0.08-0.32,0.19-0.41,0.34c-0.1,0.15-0.15,0.32-0.15,0.5c0,0.28,0.11,0.51,0.32,0.7c0.21,0.19,0.52,0.28,0.93,0.28
			c0.4,0,0.77-0.09,1.08-0.27c0.32-0.18,0.55-0.42,0.7-0.73c0.11-0.24,0.17-0.59,0.17-1.05V401.45z"/>
		<path d="M212.2,403.62l0.15,0.93c-0.29,0.06-0.56,0.09-0.79,0.09c-0.38,0-0.68-0.06-0.89-0.18s-0.36-0.28-0.45-0.48
			s-0.13-0.61-0.13-1.24v-3.57h-0.77v-0.82h0.77v-1.54l1.05-0.63v2.17h1.06v0.82h-1.06v3.63c0,0.3,0.02,0.49,0.05,0.58
			s0.1,0.15,0.18,0.21s0.2,0.08,0.36,0.08C211.85,403.66,212.01,403.65,212.2,403.62z"/>
		<path d="M217.32,404.56v-0.91c-0.48,0.7-1.14,1.05-1.97,1.05c-0.37,0-0.71-0.07-1.03-0.21s-0.55-0.32-0.71-0.53
			s-0.26-0.47-0.32-0.78c-0.04-0.21-0.06-0.53-0.06-0.98v-3.85h1.05v3.45c0,0.55,0.02,0.92,0.06,1.11c0.07,0.28,0.21,0.49,0.42,0.65
			c0.21,0.16,0.48,0.24,0.8,0.24c0.31,0,0.61-0.08,0.89-0.24c0.28-0.16,0.47-0.38,0.59-0.66c0.12-0.28,0.17-0.68,0.17-1.21v-3.33
			h1.05v6.21H217.32z"/>
		<path d="M219.94,404.56v-6.21h0.95v0.94c0.24-0.44,0.46-0.73,0.67-0.87c0.21-0.14,0.43-0.21,0.68-0.21c0.35,0,0.71,0.11,1.08,0.34
			l-0.36,0.98c-0.26-0.15-0.52-0.23-0.77-0.23c-0.23,0-0.44,0.07-0.62,0.21c-0.18,0.14-0.31,0.33-0.39,0.58
			c-0.12,0.37-0.18,0.78-0.18,1.23v3.25H219.94z"/>
		<path d="M228.15,402.56l1.09,0.13c-0.17,0.64-0.49,1.13-0.95,1.48c-0.46,0.35-1.06,0.53-1.78,0.53c-0.91,0-1.63-0.28-2.16-0.84
			c-0.53-0.56-0.8-1.34-0.8-2.35c0-1.04,0.27-1.86,0.81-2.43c0.54-0.58,1.24-0.87,2.09-0.87c0.83,0,1.51,0.28,2.04,0.85
			c0.53,0.57,0.79,1.36,0.79,2.39c0,0.06,0,0.16-0.01,0.28h-4.63c0.04,0.68,0.23,1.21,0.58,1.57c0.35,0.36,0.78,0.54,1.3,0.54
			c0.39,0,0.72-0.1,0.99-0.3C227.78,403.33,227.99,403.01,228.15,402.56z M224.7,400.86h3.47c-0.05-0.52-0.18-0.91-0.4-1.18
			c-0.33-0.41-0.77-0.61-1.3-0.61c-0.48,0-0.89,0.16-1.22,0.49C224.91,399.89,224.73,400.32,224.7,400.86z"/>
	</g>
	<g>
		<path d="M10.28,280.81H9.23l-5.49-4.39c-0.39-0.31-0.73-0.61-1.02-0.89v4.79H1.71v-6.14h1.01l5.95,4.81l0.6,0.52v-5.48h1.01
			V280.81z"/>
		<path d="M7.71,273.47H6.65v-3.24h1.06V273.47z"/>
		<path d="M10.28,265.2H9.5c0.62,0.39,0.92,0.97,0.92,1.74c0,0.5-0.14,0.95-0.41,1.37s-0.65,0.74-1.14,0.96
			c-0.49,0.23-1.05,0.34-1.69,0.34c-0.62,0-1.18-0.1-1.69-0.31c-0.5-0.21-0.89-0.52-1.16-0.93s-0.4-0.88-0.4-1.39
			c0-0.37,0.08-0.71,0.24-1c0.16-0.29,0.36-0.53,0.62-0.71H1.71v-1.05h8.58V265.2z M7.18,268.53c0.8,0,1.39-0.17,1.78-0.5
			c0.39-0.33,0.59-0.73,0.59-1.19c0-0.46-0.19-0.85-0.56-1.17c-0.38-0.32-0.95-0.48-1.72-0.48c-0.85,0-1.47,0.16-1.87,0.49
			C5,266,4.8,266.4,4.8,266.88c0,0.47,0.19,0.86,0.57,1.17C5.76,268.37,6.36,268.53,7.18,268.53z"/>
		<path d="M2.92,262.63H1.71v-1.05h1.21V262.63z M10.28,262.63H4.07v-1.05h6.21V262.63z"/>
		<path d="M10.28,260.13H4.07v-0.95h0.94c-0.44-0.24-0.73-0.46-0.87-0.67c-0.14-0.21-0.21-0.43-0.21-0.68
			c0-0.35,0.11-0.72,0.34-1.08l0.98,0.36c-0.15,0.26-0.23,0.52-0.23,0.77c0,0.23,0.07,0.44,0.21,0.62c0.14,0.18,0.33,0.31,0.58,0.39
			c0.37,0.12,0.78,0.18,1.23,0.18h3.25V260.13z"/>
		<path d="M8.28,252.03l0.13-1.09c0.64,0.17,1.13,0.49,1.48,0.95c0.35,0.46,0.53,1.06,0.53,1.78c0,0.91-0.28,1.63-0.84,2.16
			c-0.56,0.53-1.34,0.8-2.35,0.8c-1.04,0-1.86-0.27-2.43-0.81s-0.87-1.24-0.87-2.09c0-0.83,0.28-1.51,0.85-2.04s1.36-0.79,2.39-0.79
			c0.06,0,0.16,0,0.28,0.01v4.63c0.68-0.04,1.21-0.23,1.57-0.58c0.36-0.35,0.54-0.78,0.54-1.3c0-0.39-0.1-0.72-0.3-0.99
			C9.05,252.41,8.72,252.19,8.28,252.03z M6.58,255.49v-3.47c-0.52,0.05-0.91,0.18-1.18,0.4c-0.41,0.33-0.61,0.77-0.61,1.3
			c0,0.48,0.16,0.89,0.49,1.22C5.6,255.27,6.04,255.45,6.58,255.49z"/>
		<path d="M8.01,245.64l0.13-1.04c0.71,0.11,1.27,0.4,1.68,0.87c0.4,0.47,0.61,1.04,0.61,1.72c0,0.85-0.28,1.53-0.83,2.05
			s-1.35,0.78-2.39,0.78c-0.67,0-1.26-0.11-1.76-0.33c-0.5-0.22-0.88-0.56-1.13-1.01c-0.25-0.45-0.38-0.95-0.38-1.48
			c0-0.67,0.17-1.23,0.51-1.66c0.34-0.43,0.83-0.7,1.45-0.82l0.16,1.02c-0.42,0.1-0.73,0.27-0.94,0.52
			c-0.21,0.25-0.32,0.55-0.32,0.9c0,0.53,0.19,0.96,0.57,1.29c0.38,0.33,0.98,0.5,1.8,0.5c0.83,0,1.44-0.16,1.82-0.48
			c0.38-0.32,0.57-0.74,0.57-1.25c0-0.41-0.13-0.76-0.38-1.04C8.92,245.89,8.53,245.71,8.01,245.64z"/>
		<path d="M9.34,241.51l0.93-0.15c0.06,0.3,0.09,0.56,0.09,0.79c0,0.38-0.06,0.68-0.18,0.89c-0.12,0.21-0.28,0.36-0.48,0.44
			s-0.61,0.13-1.24,0.13H4.89v0.77H4.07v-0.77H2.53l-0.63-1.05h2.17v-1.06h0.82v1.06h3.63c0.3,0,0.49-0.02,0.58-0.05
			s0.15-0.1,0.2-0.18c0.05-0.08,0.08-0.2,0.08-0.36C9.38,241.86,9.37,241.7,9.34,241.51z"/>
		<path d="M2.92,240.56H1.71v-1.05h1.21V240.56z M10.28,240.56H4.07v-1.05h6.21V240.56z"/>
		<path d="M7.17,238.44c-1.15,0-2-0.32-2.56-0.96c-0.46-0.53-0.69-1.19-0.69-1.95c0-0.85,0.28-1.55,0.84-2.09s1.33-0.81,2.32-0.81
			c0.8,0,1.43,0.12,1.89,0.36c0.46,0.24,0.81,0.59,1.07,1.05s0.38,0.96,0.38,1.5c0,0.87-0.28,1.57-0.84,2.11
			C9.03,238.17,8.22,238.44,7.17,238.44z M7.17,237.36c0.8,0,1.39-0.17,1.79-0.52c0.4-0.35,0.59-0.78,0.59-1.31
			c0-0.52-0.2-0.96-0.6-1.3c-0.4-0.35-1-0.52-1.82-0.52c-0.77,0-1.35,0.17-1.75,0.52c-0.4,0.35-0.59,0.78-0.59,1.3
			c0,0.53,0.2,0.96,0.59,1.31C5.78,237.19,6.38,237.36,7.17,237.36z"/>
		<path d="M10.28,231.46H4.07v-0.95h0.88c-0.68-0.46-1.02-1.12-1.02-1.98c0-0.37,0.07-0.72,0.2-1.03c0.13-0.31,0.31-0.55,0.53-0.71
			c0.22-0.16,0.48-0.26,0.78-0.33c0.19-0.04,0.54-0.06,1.02-0.06h3.82v1.05H6.5c-0.43,0-0.75,0.04-0.96,0.12
			c-0.21,0.08-0.38,0.23-0.51,0.44c-0.13,0.21-0.19,0.45-0.19,0.73c0,0.45,0.14,0.84,0.43,1.16s0.82,0.49,1.62,0.49h3.39V231.46z"/>
		<path d="M10.28,221.62H1.71v-1.05h3.08c-0.57-0.49-0.85-1.11-0.85-1.86c0-0.46,0.09-0.86,0.27-1.2c0.18-0.34,0.43-0.58,0.75-0.73
			s0.78-0.22,1.39-0.22h3.94v1.05H6.34c-0.53,0-0.91,0.11-1.15,0.34c-0.24,0.23-0.36,0.55-0.36,0.97c0,0.31,0.08,0.61,0.24,0.88
			c0.16,0.28,0.38,0.47,0.66,0.59c0.28,0.12,0.66,0.18,1.15,0.18h3.4V221.62z"/>
		<path d="M8.28,210.78l0.13-1.09c0.64,0.17,1.13,0.49,1.48,0.95c0.35,0.46,0.53,1.06,0.53,1.78c0,0.91-0.28,1.63-0.84,2.16
			c-0.56,0.53-1.34,0.8-2.35,0.8c-1.04,0-1.86-0.27-2.43-0.81s-0.87-1.24-0.87-2.09c0-0.83,0.28-1.51,0.85-2.04s1.36-0.79,2.39-0.79
			c0.06,0,0.16,0,0.28,0.01v4.63c0.68-0.04,1.21-0.23,1.57-0.58c0.36-0.35,0.54-0.78,0.54-1.3c0-0.39-0.1-0.72-0.3-0.99
			C9.05,211.16,8.72,210.94,8.28,210.78z M6.58,214.24v-3.47c-0.52,0.05-0.91,0.18-1.18,0.4c-0.41,0.34-0.61,0.77-0.61,1.3
			c0,0.48,0.16,0.89,0.49,1.22C5.6,214.02,6.04,214.2,6.58,214.24z"/>
		<path d="M2.92,208.44H1.71v-1.05h1.21V208.44z M10.28,208.44H4.07v-1.05h6.21V208.44z"/>
		<path d="M10.8,206.12l0.15-1.02c0.32-0.04,0.55-0.16,0.69-0.36c0.2-0.26,0.29-0.62,0.29-1.07c0-0.49-0.1-0.86-0.29-1.13
			c-0.19-0.27-0.47-0.44-0.82-0.54c-0.21-0.05-0.66-0.08-1.35-0.08c0.54,0.46,0.81,1.03,0.81,1.72c0,0.85-0.31,1.52-0.92,1.98
			c-0.62,0.47-1.35,0.7-2.22,0.7c-0.59,0-1.14-0.11-1.64-0.32c-0.5-0.21-0.89-0.53-1.16-0.93c-0.27-0.41-0.41-0.89-0.41-1.44
			c0-0.73,0.3-1.34,0.89-1.81H4.07v-0.97h5.37c0.97,0,1.65,0.1,2.06,0.3c0.4,0.2,0.72,0.51,0.96,0.94c0.23,0.43,0.35,0.95,0.35,1.58
			c0,0.74-0.17,1.34-0.5,1.8C11.97,205.91,11.47,206.13,10.8,206.12z M7.06,205.25c0.81,0,1.41-0.16,1.78-0.49s0.56-0.73,0.56-1.22
			c0-0.48-0.19-0.89-0.56-1.22s-0.96-0.49-1.75-0.49c-0.76,0-1.33,0.17-1.72,0.51c-0.39,0.34-0.58,0.74-0.58,1.22
			c0,0.47,0.19,0.87,0.57,1.19C5.75,205.08,6.31,205.25,7.06,205.25z"/>
		<path d="M10.28,199.33H1.71v-1.05h3.08c-0.57-0.49-0.85-1.11-0.85-1.86c0-0.46,0.09-0.86,0.27-1.2c0.18-0.34,0.43-0.58,0.75-0.73
			c0.32-0.15,0.78-0.22,1.39-0.22h3.94v1.05H6.34c-0.53,0-0.91,0.11-1.15,0.34c-0.24,0.23-0.36,0.55-0.36,0.97
			c0,0.31,0.08,0.61,0.24,0.88c0.16,0.27,0.38,0.47,0.66,0.59c0.28,0.12,0.66,0.18,1.15,0.18h3.4V199.33z"/>
		<path d="M9.34,190.44l0.93-0.15c0.06,0.3,0.09,0.56,0.09,0.8c0,0.38-0.06,0.68-0.18,0.89c-0.12,0.21-0.28,0.36-0.48,0.44
			s-0.61,0.13-1.24,0.13H4.89v0.77H4.07v-0.77H2.53L1.9,191.5h2.17v-1.06h0.82v1.06h3.63c0.3,0,0.49-0.02,0.58-0.06
			s0.15-0.1,0.2-0.18c0.05-0.08,0.08-0.2,0.08-0.36C9.38,190.79,9.37,190.63,9.34,190.44z"/>
	</g>
	
		<line style="fill:none;stroke:#000000;stroke-width:3.1148;stroke-linecap:square;stroke-miterlimit:10;" x1="209.76" y1="220.55" x2="172.02" y2="307.29"/>
	<polygon style="fill-rule:evenodd;clip-rule:evenodd;" points="206.04,228.82 204.37,227.86 202.81,226.42 201.73,224.75 
		200.89,222.95 200.65,220.91 200.77,218.88 201.37,216.96 202.45,215.16 203.77,213.72 205.44,212.53 207.36,211.81 209.4,211.45 
		211.43,211.69 213.35,212.29 215.03,213.24 216.59,214.56 217.66,216.24 218.5,218.16 218.74,220.19 218.62,222.23 218.02,224.15 
		217.06,225.94 215.63,227.38 213.95,228.58 212.03,229.3 210,229.66 208.08,229.42 206.04,228.82 	"/>
	<polygon style="fill-rule:evenodd;clip-rule:evenodd;" points="175.61,298.9 177.41,299.98 178.85,301.3 180.05,302.97 
		180.77,304.89 181.12,306.93 180.88,308.96 180.29,310.88 179.33,312.56 177.89,314.12 176.21,315.2 174.42,316.03 172.38,316.27 
		170.34,316.15 168.43,315.55 166.63,314.6 165.19,313.16 163.99,311.48 163.27,309.56 162.91,307.53 163.15,305.61 163.63,303.57 
		164.71,301.9 166.03,300.34 167.71,299.26 169.62,298.42 171.66,298.18 173.7,298.3 175.61,298.9 	"/>
	
		<line style="fill:none;stroke:#000000;stroke-width:3.1148;stroke-linecap:square;stroke-miterlimit:10;" x1="285.35" y1="46" x2="356.39" y2="46"/>
	<polygon style="fill-rule:evenodd;clip-rule:evenodd;" points="294.34,46 294.1,43.97 293.5,42.05 292.42,40.37 290.98,38.94 
		289.18,37.86 287.27,37.14 285.35,36.9 283.31,37.14 281.4,37.86 279.6,38.94 278.16,40.37 277.08,42.05 276.49,43.97 276.25,46 
		276.49,48.04 277.08,49.96 278.16,51.63 279.6,53.07 281.4,54.15 283.31,54.87 285.35,55.11 287.27,54.87 289.18,54.15 
		290.98,53.07 292.42,51.63 293.5,49.96 294.1,48.04 294.34,46 	"/>
	<polygon style="fill-rule:evenodd;clip-rule:evenodd;" points="354,33.9 366.1,46 354,58.1 354,33.9 	"/>
	<g>
		<path d="M173.45,355.09v-7.56h-2.83v-1.01h6.8v1.01h-2.84v7.56H173.45z"/>
	</g>
	<g>
		<path d="M180.96,358.52c-0.26,0.22-0.5,0.38-0.74,0.47c-0.24,0.09-0.49,0.14-0.77,0.14c-0.45,0-0.79-0.11-1.04-0.33
			s-0.36-0.51-0.36-0.86c0-0.2,0.05-0.39,0.14-0.56c0.09-0.17,0.21-0.3,0.36-0.41c0.15-0.1,0.31-0.18,0.5-0.23
			c0.14-0.04,0.34-0.07,0.62-0.11c0.56-0.07,0.97-0.15,1.24-0.24c0-0.1,0-0.16,0-0.18c0-0.29-0.07-0.49-0.2-0.61
			c-0.18-0.16-0.44-0.24-0.79-0.24c-0.33,0-0.57,0.06-0.72,0.17c-0.16,0.12-0.27,0.32-0.34,0.62l-0.68-0.09
			c0.06-0.29,0.16-0.53,0.3-0.72c0.14-0.18,0.35-0.32,0.61-0.42s0.58-0.15,0.93-0.15c0.35,0,0.63,0.04,0.85,0.13
			c0.22,0.08,0.38,0.19,0.48,0.32c0.1,0.13,0.17,0.29,0.22,0.48c0.02,0.12,0.03,0.34,0.03,0.65v0.94c0,0.66,0.02,1.07,0.04,1.24
			c0.03,0.17,0.09,0.34,0.18,0.5h-0.72C181.03,358.89,180.98,358.72,180.96,358.52z M180.91,356.94c-0.25,0.1-0.63,0.19-1.13,0.27
			c-0.29,0.04-0.49,0.09-0.6,0.14c-0.12,0.05-0.21,0.13-0.27,0.23c-0.06,0.1-0.1,0.21-0.1,0.33c0,0.19,0.07,0.34,0.21,0.47
			c0.14,0.13,0.34,0.19,0.61,0.19c0.27,0,0.5-0.06,0.71-0.18s0.36-0.28,0.46-0.49c0.07-0.16,0.11-0.39,0.11-0.71V356.94z"/>
		<path d="M182.9,359.03v-0.8h0.79v0.8c0,0.29-0.05,0.53-0.15,0.71c-0.1,0.18-0.27,0.32-0.49,0.42l-0.19-0.3
			c0.15-0.07,0.25-0.16,0.32-0.29c0.07-0.13,0.11-0.31,0.12-0.55H182.9z"/>
		<path d="M187.43,359.03v-3.61h-0.61v-0.55h0.61v-0.44c0-0.28,0.02-0.49,0.07-0.62c0.07-0.18,0.18-0.33,0.35-0.44
			c0.17-0.11,0.4-0.17,0.71-0.17c0.2,0,0.41,0.02,0.65,0.07l-0.1,0.62c-0.14-0.03-0.28-0.04-0.41-0.04c-0.21,0-0.36,0.05-0.45,0.14
			s-0.13,0.26-0.13,0.51v0.38h0.8v0.55h-0.8v3.61H187.43z"/>
		<path d="M189.52,359.03v-5.75h0.69v5.75H189.52z"/>
		<path d="M191.07,356.95c0-0.77,0.21-1.34,0.63-1.71c0.35-0.31,0.78-0.46,1.29-0.46c0.56,0,1.02,0.19,1.38,0.56
			c0.36,0.38,0.54,0.89,0.54,1.55c0,0.54-0.08,0.96-0.24,1.26s-0.39,0.55-0.69,0.71c-0.3,0.17-0.63,0.25-0.99,0.25
			c-0.57,0-1.04-0.19-1.39-0.56C191.25,358.19,191.07,357.66,191.07,356.95z M191.78,356.95c0,0.53,0.11,0.93,0.34,1.2
			c0.23,0.27,0.52,0.4,0.86,0.4c0.34,0,0.63-0.13,0.86-0.4s0.34-0.67,0.34-1.22c0-0.51-0.12-0.91-0.34-1.17
			c-0.23-0.27-0.52-0.4-0.86-0.4c-0.35,0-0.63,0.13-0.86,0.4C191.9,356.02,191.78,356.42,191.78,356.95z"/>
		<path d="M195.5,356.95c0-0.77,0.21-1.34,0.63-1.71c0.35-0.31,0.78-0.46,1.29-0.46c0.56,0,1.02,0.19,1.38,0.56
			c0.36,0.38,0.54,0.89,0.54,1.55c0,0.54-0.08,0.96-0.24,1.26s-0.39,0.55-0.69,0.71c-0.3,0.17-0.63,0.25-0.99,0.25
			c-0.57,0-1.04-0.19-1.39-0.56C195.68,358.19,195.5,357.66,195.5,356.95z M196.21,356.95c0,0.53,0.11,0.93,0.34,1.2
			c0.23,0.27,0.52,0.4,0.86,0.4c0.34,0,0.63-0.13,0.86-0.4s0.34-0.67,0.34-1.22c0-0.51-0.12-0.91-0.34-1.17
			c-0.23-0.27-0.52-0.4-0.86-0.4c-0.35,0-0.63,0.13-0.86,0.4C196.33,356.02,196.21,356.42,196.21,356.95z"/>
		<path d="M200.18,359.03v-4.16h0.62v0.63c0.16-0.29,0.31-0.49,0.44-0.58s0.28-0.14,0.45-0.14c0.23,0,0.47,0.08,0.71,0.23
			l-0.24,0.66c-0.17-0.1-0.34-0.15-0.51-0.15c-0.15,0-0.29,0.05-0.41,0.14c-0.12,0.09-0.21,0.22-0.26,0.39
			c-0.08,0.25-0.12,0.53-0.12,0.82v2.18H200.18z"/>
	</g>
	<g>
		<path d="M193.7,310.16v-7.56h-2.82v-1.01h6.8v1.01h-2.84v7.56H193.7z"/>
	</g>
	<g>
		<path d="M201.21,313.59c-0.26,0.22-0.51,0.38-0.74,0.47c-0.24,0.09-0.49,0.14-0.77,0.14c-0.45,0-0.79-0.11-1.04-0.33
			c-0.24-0.22-0.36-0.51-0.36-0.86c0-0.2,0.04-0.39,0.14-0.56c0.09-0.17,0.21-0.3,0.36-0.41c0.15-0.1,0.31-0.18,0.5-0.23
			c0.14-0.04,0.34-0.07,0.62-0.11c0.56-0.07,0.97-0.15,1.24-0.24c0-0.1,0-0.16,0-0.18c0-0.29-0.07-0.49-0.2-0.61
			c-0.18-0.16-0.44-0.24-0.79-0.24c-0.33,0-0.57,0.06-0.72,0.17c-0.16,0.12-0.27,0.32-0.35,0.62l-0.68-0.09
			c0.06-0.29,0.16-0.53,0.3-0.72c0.14-0.18,0.35-0.32,0.61-0.42c0.27-0.1,0.58-0.15,0.93-0.15c0.35,0,0.63,0.04,0.85,0.13
			s0.38,0.19,0.48,0.32c0.1,0.13,0.17,0.29,0.21,0.48c0.02,0.12,0.04,0.34,0.04,0.65v0.94c0,0.66,0.02,1.07,0.04,1.24
			s0.09,0.34,0.18,0.5h-0.72C201.27,313.96,201.23,313.79,201.21,313.59z M201.15,312.01c-0.25,0.1-0.63,0.19-1.13,0.27
			c-0.29,0.04-0.49,0.09-0.61,0.14c-0.12,0.05-0.21,0.13-0.27,0.23s-0.1,0.21-0.1,0.33c0,0.19,0.07,0.34,0.21,0.47
			c0.14,0.13,0.35,0.19,0.62,0.19c0.27,0,0.5-0.06,0.71-0.18c0.21-0.12,0.36-0.28,0.46-0.49c0.07-0.16,0.11-0.39,0.11-0.71V312.01z"
			/>
		<path d="M203.14,314.1v-0.8h0.79v0.8c0,0.29-0.05,0.53-0.15,0.71s-0.27,0.32-0.49,0.42l-0.19-0.3c0.15-0.07,0.25-0.16,0.32-0.29
			c0.07-0.13,0.11-0.31,0.12-0.55H203.14z"/>
		<path d="M207.66,314.1h-0.69v-4.5c-0.17,0.16-0.39,0.32-0.66,0.49c-0.27,0.16-0.52,0.28-0.73,0.37v-0.68
			c0.39-0.19,0.73-0.41,1.02-0.67c0.29-0.26,0.5-0.52,0.62-0.77h0.45V314.1z"/>
	</g>
	<g>
		<path d="M164.82,227.5v-7.56h-2.83v-1.01h6.8v1.01h-2.84v7.56H164.82z"/>
	</g>
	<g>
		<path d="M169.39,230.21l0.69-0.11c0.04,0.28,0.15,0.49,0.32,0.64c0.18,0.15,0.42,0.22,0.74,0.22c0.32,0,0.55-0.07,0.71-0.2
			s0.23-0.29,0.23-0.46c0-0.16-0.07-0.28-0.2-0.38c-0.09-0.06-0.33-0.14-0.71-0.24c-0.51-0.13-0.86-0.24-1.06-0.34
			c-0.2-0.1-0.35-0.23-0.45-0.4c-0.1-0.17-0.15-0.36-0.15-0.56c0-0.19,0.04-0.36,0.13-0.52c0.08-0.16,0.2-0.29,0.34-0.39
			c0.11-0.08,0.25-0.15,0.44-0.21c0.19-0.06,0.39-0.08,0.6-0.08c0.32,0,0.6,0.05,0.85,0.14c0.24,0.09,0.42,0.22,0.54,0.38
			c0.12,0.16,0.19,0.38,0.24,0.65l-0.68,0.09c-0.03-0.21-0.12-0.38-0.27-0.5c-0.15-0.12-0.36-0.18-0.63-0.18
			c-0.32,0-0.55,0.05-0.68,0.16s-0.2,0.23-0.2,0.38c0,0.09,0.03,0.17,0.08,0.25c0.06,0.08,0.15,0.14,0.27,0.19
			c0.07,0.03,0.27,0.09,0.61,0.18c0.49,0.13,0.83,0.24,1.03,0.33s0.35,0.21,0.46,0.37c0.11,0.16,0.17,0.36,0.17,0.6
			c0,0.24-0.07,0.46-0.2,0.66c-0.13,0.21-0.33,0.37-0.58,0.48c-0.25,0.11-0.54,0.17-0.86,0.17c-0.53,0-0.94-0.11-1.22-0.34
			S169.47,230.65,169.39,230.21z"/>
		<path d="M175.13,230.82l0.1,0.62c-0.2,0.04-0.37,0.06-0.52,0.06c-0.25,0-0.45-0.04-0.59-0.12c-0.14-0.08-0.24-0.19-0.29-0.32
			c-0.06-0.13-0.08-0.41-0.08-0.83v-2.39h-0.51v-0.55h0.51v-1.03l0.69-0.42v1.45h0.7v0.55h-0.7v2.43c0,0.2,0.01,0.33,0.04,0.39
			s0.06,0.1,0.12,0.14c0.06,0.03,0.13,0.05,0.24,0.05C174.9,230.84,175,230.83,175.13,230.82z"/>
		<path d="M178.56,230.93c-0.26,0.22-0.5,0.38-0.74,0.47c-0.24,0.09-0.49,0.14-0.77,0.14c-0.45,0-0.79-0.11-1.04-0.33
			s-0.36-0.51-0.36-0.86c0-0.2,0.05-0.39,0.14-0.56c0.09-0.17,0.21-0.3,0.36-0.41c0.15-0.1,0.31-0.18,0.5-0.23
			c0.14-0.04,0.34-0.07,0.62-0.11c0.56-0.07,0.97-0.15,1.24-0.24c0-0.1,0-0.16,0-0.18c0-0.29-0.07-0.49-0.2-0.61
			c-0.18-0.16-0.44-0.24-0.79-0.24c-0.33,0-0.57,0.06-0.72,0.17c-0.16,0.12-0.27,0.32-0.34,0.62l-0.68-0.09
			c0.06-0.29,0.16-0.53,0.3-0.72c0.14-0.18,0.35-0.32,0.61-0.42s0.58-0.15,0.93-0.15c0.35,0,0.63,0.04,0.85,0.13
			c0.22,0.08,0.38,0.19,0.48,0.32c0.1,0.13,0.17,0.29,0.22,0.48c0.02,0.12,0.03,0.34,0.03,0.65v0.94c0,0.66,0.02,1.07,0.04,1.24
			c0.03,0.17,0.09,0.34,0.18,0.5h-0.72C178.62,231.3,178.58,231.13,178.56,230.93z M178.5,229.36c-0.25,0.1-0.63,0.19-1.13,0.27
			c-0.29,0.04-0.49,0.09-0.6,0.14c-0.12,0.05-0.21,0.13-0.27,0.23c-0.06,0.1-0.1,0.21-0.1,0.33c0,0.19,0.07,0.34,0.21,0.47
			c0.14,0.13,0.34,0.19,0.61,0.19c0.27,0,0.5-0.06,0.71-0.18s0.36-0.28,0.46-0.49c0.07-0.16,0.11-0.39,0.11-0.71V229.36z"/>
		<path d="M181.83,230.82l0.1,0.62c-0.2,0.04-0.37,0.06-0.52,0.06c-0.25,0-0.45-0.04-0.59-0.12c-0.14-0.08-0.24-0.19-0.29-0.32
			c-0.06-0.13-0.08-0.41-0.08-0.83v-2.39h-0.51v-0.55h0.51v-1.03l0.69-0.42v1.45h0.7v0.55h-0.7v2.43c0,0.2,0.01,0.33,0.04,0.39
			s0.06,0.1,0.12,0.14c0.06,0.03,0.13,0.05,0.24,0.05C181.6,230.84,181.7,230.83,181.83,230.82z"/>
		<path d="M182.68,231.45v-5.75h1.95c0.44,0,0.78,0.03,1.01,0.08c0.32,0.08,0.6,0.21,0.83,0.41c0.3,0.26,0.52,0.58,0.67,0.98
			c0.15,0.4,0.22,0.85,0.22,1.37c0,0.44-0.05,0.82-0.15,1.16c-0.1,0.34-0.23,0.62-0.39,0.84s-0.33,0.39-0.51,0.52
			c-0.19,0.13-0.41,0.22-0.67,0.29c-0.26,0.07-0.57,0.1-0.91,0.1H182.68z M183.42,230.77h1.21c0.37,0,0.67-0.04,0.88-0.11
			c0.21-0.07,0.38-0.17,0.51-0.3c0.18-0.18,0.32-0.42,0.41-0.73c0.1-0.3,0.15-0.67,0.15-1.11c0-0.6-0.1-1.06-0.29-1.39
			c-0.19-0.32-0.43-0.54-0.71-0.65c-0.2-0.08-0.52-0.12-0.97-0.12h-1.19V230.77z"/>
		<path d="M188.39,231.45v-5.75h2.12c0.43,0,0.78,0.06,1.04,0.17s0.46,0.29,0.61,0.54c0.15,0.24,0.22,0.49,0.22,0.76
			c0,0.25-0.07,0.48-0.2,0.69s-0.33,0.39-0.59,0.53c0.34,0.1,0.6,0.28,0.79,0.52c0.18,0.25,0.28,0.54,0.28,0.87
			c0,0.27-0.06,0.52-0.17,0.75s-0.25,0.41-0.41,0.54c-0.17,0.13-0.37,0.22-0.62,0.28c-0.25,0.06-0.55,0.1-0.91,0.1H188.39z
			 M189.14,228.12h1.22c0.33,0,0.57-0.02,0.71-0.07c0.19-0.06,0.33-0.15,0.43-0.29c0.1-0.13,0.14-0.3,0.14-0.5
			c0-0.19-0.04-0.36-0.13-0.5c-0.09-0.14-0.22-0.24-0.39-0.3s-0.45-0.08-0.86-0.08h-1.13V228.12z M189.14,230.77h1.41
			c0.24,0,0.41-0.01,0.51-0.03c0.17-0.03,0.32-0.08,0.43-0.16s0.21-0.18,0.29-0.32s0.11-0.3,0.11-0.48c0-0.21-0.05-0.4-0.16-0.56
			c-0.11-0.16-0.26-0.27-0.45-0.33c-0.19-0.06-0.47-0.1-0.83-0.1h-1.31V230.77z"/>
	</g>
	<g>
		<path d="M252.04,197.91v-7.56h-2.82v-1.01h6.8v1.01h-2.84v7.56H252.04z"/>
	</g>
	<g>
		<path d="M259.55,201.34c-0.26,0.22-0.51,0.38-0.74,0.47c-0.24,0.09-0.49,0.14-0.77,0.14c-0.45,0-0.79-0.11-1.04-0.34
			c-0.24-0.22-0.36-0.51-0.36-0.86c0-0.2,0.04-0.39,0.14-0.56c0.09-0.17,0.21-0.3,0.36-0.41c0.15-0.1,0.31-0.18,0.5-0.23
			c0.14-0.04,0.34-0.07,0.62-0.11c0.56-0.07,0.97-0.15,1.24-0.24c0-0.1,0-0.16,0-0.18c0-0.29-0.07-0.49-0.2-0.61
			c-0.18-0.16-0.44-0.24-0.79-0.24c-0.33,0-0.57,0.06-0.72,0.17c-0.16,0.12-0.27,0.32-0.35,0.62l-0.68-0.09
			c0.06-0.3,0.16-0.53,0.3-0.72c0.14-0.18,0.35-0.32,0.61-0.42c0.27-0.1,0.58-0.15,0.93-0.15c0.35,0,0.63,0.04,0.85,0.13
			s0.38,0.19,0.48,0.32c0.1,0.13,0.17,0.29,0.21,0.48c0.02,0.12,0.04,0.34,0.04,0.65v0.94c0,0.66,0.02,1.07,0.04,1.24
			s0.09,0.34,0.18,0.5h-0.72C259.62,201.71,259.57,201.54,259.55,201.34z M259.49,199.76c-0.25,0.1-0.63,0.19-1.13,0.27
			c-0.29,0.04-0.49,0.09-0.61,0.14c-0.12,0.05-0.21,0.13-0.27,0.23s-0.1,0.21-0.1,0.33c0,0.19,0.07,0.35,0.21,0.47
			c0.14,0.13,0.35,0.19,0.62,0.19c0.27,0,0.5-0.06,0.71-0.18c0.21-0.12,0.36-0.28,0.46-0.49c0.07-0.16,0.11-0.39,0.11-0.71V199.76z"
			/>
		<path d="M261.49,201.85v-0.8h0.79v0.8c0,0.3-0.05,0.53-0.15,0.72s-0.27,0.32-0.49,0.42l-0.19-0.3c0.15-0.07,0.25-0.16,0.32-0.29
			c0.07-0.13,0.11-0.31,0.12-0.55H261.49z"/>
		<path d="M267.03,201.18v0.68h-3.73c-0.01-0.17,0.02-0.33,0.08-0.49c0.09-0.26,0.25-0.51,0.46-0.76c0.21-0.25,0.51-0.54,0.91-0.87
			c0.61-0.51,1.03-0.92,1.24-1.22c0.22-0.3,0.32-0.58,0.32-0.85c0-0.28-0.1-0.52-0.29-0.71c-0.2-0.19-0.45-0.29-0.77-0.29
			c-0.33,0-0.6,0.1-0.8,0.31c-0.2,0.2-0.3,0.49-0.3,0.85l-0.71-0.07c0.05-0.54,0.23-0.95,0.55-1.24c0.32-0.28,0.75-0.43,1.28-0.43
			c0.54,0,0.97,0.15,1.29,0.46c0.32,0.31,0.47,0.68,0.47,1.14c0,0.23-0.04,0.46-0.14,0.68c-0.09,0.22-0.25,0.46-0.46,0.7
			s-0.57,0.58-1.07,1.01c-0.42,0.36-0.68,0.6-0.8,0.72c-0.12,0.13-0.21,0.25-0.29,0.38H267.03z"/>
	</g>
	<g>
		<path d="M283.55,99.07v-7.56h-2.82V90.5h6.8v1.01h-2.84v7.56H283.55z"/>
	</g>
	<g>
		<path d="M291.06,102.5c-0.26,0.22-0.51,0.38-0.74,0.47c-0.24,0.09-0.49,0.14-0.77,0.14c-0.45,0-0.79-0.11-1.04-0.34
			c-0.24-0.22-0.36-0.51-0.36-0.86c0-0.2,0.04-0.39,0.14-0.56c0.09-0.17,0.21-0.3,0.36-0.41c0.15-0.1,0.31-0.18,0.5-0.23
			c0.14-0.04,0.34-0.07,0.62-0.11c0.56-0.07,0.97-0.15,1.24-0.24c0-0.1,0-0.16,0-0.18c0-0.29-0.07-0.49-0.2-0.61
			c-0.18-0.16-0.44-0.24-0.79-0.24c-0.33,0-0.57,0.06-0.72,0.17c-0.16,0.12-0.27,0.32-0.35,0.62l-0.68-0.09
			c0.06-0.3,0.16-0.53,0.3-0.72c0.14-0.18,0.35-0.32,0.61-0.42c0.27-0.1,0.58-0.15,0.93-0.15c0.35,0,0.63,0.04,0.85,0.13
			s0.38,0.19,0.48,0.32c0.1,0.13,0.17,0.29,0.21,0.48c0.02,0.12,0.04,0.34,0.04,0.65v0.94c0,0.66,0.02,1.07,0.04,1.24
			s0.09,0.34,0.18,0.5h-0.72C291.13,102.87,291.08,102.7,291.06,102.5z M291,100.93c-0.25,0.1-0.63,0.19-1.13,0.27
			c-0.29,0.04-0.49,0.09-0.61,0.14c-0.12,0.05-0.21,0.13-0.27,0.23s-0.1,0.21-0.1,0.33c0,0.19,0.07,0.35,0.21,0.47
			c0.14,0.13,0.35,0.19,0.62,0.19c0.27,0,0.5-0.06,0.71-0.18c0.21-0.12,0.36-0.28,0.46-0.49c0.07-0.16,0.11-0.39,0.11-0.71V100.93z"
			/>
		<path d="M293,103.02v-0.8h0.79v0.8c0,0.3-0.05,0.53-0.15,0.72s-0.27,0.32-0.49,0.42l-0.19-0.3c0.15-0.07,0.25-0.16,0.32-0.29
			c0.07-0.13,0.11-0.31,0.12-0.55H293z"/>
		<path d="M294.9,101.5l0.7-0.09c0.08,0.4,0.21,0.69,0.41,0.86s0.42,0.26,0.7,0.26c0.33,0,0.6-0.12,0.83-0.35
			c0.22-0.23,0.34-0.51,0.34-0.85c0-0.32-0.1-0.59-0.31-0.8s-0.47-0.32-0.79-0.32c-0.13,0-0.29,0.03-0.49,0.08l0.08-0.62
			c0.05,0.01,0.08,0.01,0.11,0.01c0.29,0,0.56-0.08,0.8-0.23s0.36-0.4,0.36-0.73c0-0.26-0.09-0.47-0.26-0.64
			c-0.17-0.17-0.39-0.25-0.67-0.25c-0.27,0-0.49,0.09-0.67,0.26c-0.18,0.17-0.3,0.43-0.35,0.78l-0.69-0.13
			c0.08-0.47,0.28-0.84,0.58-1.1c0.3-0.26,0.67-0.39,1.12-0.39c0.31,0,0.59,0.07,0.85,0.2c0.26,0.13,0.46,0.32,0.6,0.55
			s0.21,0.48,0.21,0.74c0,0.25-0.07,0.47-0.2,0.68c-0.13,0.2-0.32,0.37-0.58,0.49c0.33,0.08,0.59,0.24,0.78,0.49
			c0.18,0.25,0.28,0.56,0.28,0.93c0,0.5-0.18,0.93-0.54,1.28c-0.36,0.35-0.81,0.52-1.36,0.52c-0.5,0-0.91-0.15-1.23-0.45
			C295.13,102.37,294.95,101.98,294.9,101.5z"/>
	</g>
	
		<line style="fill:none;stroke:#000000;stroke-width:3.1148;stroke-linecap:square;stroke-miterlimit:10;" x1="263.55" y1="94.76" x2="221.5" y2="190.48"/>
	<polygon style="fill-rule:evenodd;clip-rule:evenodd;" points="259.95,103.03 258.16,102.07 256.72,100.63 255.52,98.95 
		254.8,97.04 254.56,95 254.68,93.08 255.28,91.05 256.24,89.37 257.68,87.81 259.35,86.74 261.27,86.02 263.31,85.66 265.34,85.78 
		267.26,86.5 268.94,87.45 270.5,88.89 271.57,90.57 272.29,92.37 272.65,94.4 272.53,96.44 271.93,98.36 270.86,100.15 
		269.42,101.59 267.74,102.79 265.94,103.51 263.91,103.87 261.87,103.63 259.95,103.03 	"/>
	<polygon style="fill-rule:evenodd;clip-rule:evenodd;" points="225.09,182.1 226.89,183.17 228.33,184.49 229.52,186.17 
		230.24,188.09 230.48,190.12 230.36,192.16 229.76,194.08 228.8,195.87 227.37,197.31 225.69,198.51 223.77,199.23 221.74,199.47 
		219.7,199.35 217.78,198.75 216.11,197.67 214.55,196.35 213.47,194.68 212.75,192.76 212.39,190.72 212.51,188.69 213.11,186.77 
		214.19,184.97 215.63,183.53 217.3,182.46 219.1,181.62 221.14,181.38 223.17,181.5 225.09,182.1 	"/>
	<g>
		<path d="M312.3,22.63v-7.56h-2.82v-1.01h6.8v1.01h-2.84v7.56H312.3z"/>
	</g>
	<g>
		<path d="M319.81,26.07c-0.26,0.22-0.51,0.38-0.74,0.47c-0.24,0.09-0.49,0.14-0.77,0.14c-0.45,0-0.79-0.11-1.04-0.34
			c-0.24-0.22-0.36-0.51-0.36-0.86c0-0.2,0.04-0.39,0.14-0.56c0.09-0.17,0.21-0.3,0.36-0.41c0.15-0.1,0.31-0.18,0.5-0.23
			c0.14-0.04,0.34-0.07,0.62-0.11c0.56-0.07,0.97-0.15,1.24-0.24c0-0.1,0-0.16,0-0.18c0-0.29-0.07-0.49-0.2-0.61
			c-0.18-0.16-0.44-0.24-0.79-0.24c-0.33,0-0.57,0.06-0.72,0.17c-0.16,0.12-0.27,0.32-0.35,0.62l-0.68-0.09
			c0.06-0.3,0.16-0.53,0.3-0.72c0.14-0.18,0.35-0.32,0.61-0.42c0.27-0.1,0.58-0.15,0.93-0.15c0.35,0,0.63,0.04,0.85,0.13
			s0.38,0.19,0.48,0.32c0.1,0.13,0.17,0.29,0.21,0.48c0.02,0.12,0.04,0.34,0.04,0.65v0.94c0,0.66,0.02,1.07,0.04,1.24
			s0.09,0.34,0.18,0.5h-0.72C319.88,26.43,319.83,26.26,319.81,26.07z M319.75,24.49c-0.25,0.1-0.63,0.19-1.13,0.27
			c-0.29,0.04-0.49,0.09-0.61,0.14c-0.12,0.05-0.21,0.13-0.27,0.23s-0.1,0.21-0.1,0.33c0,0.19,0.07,0.35,0.21,0.47
			c0.14,0.13,0.35,0.19,0.62,0.19c0.27,0,0.5-0.06,0.71-0.18c0.21-0.12,0.36-0.28,0.46-0.49c0.07-0.16,0.11-0.39,0.11-0.71V24.49z"
			/>
		<path d="M321.75,26.58v-0.8h0.79v0.8c0,0.3-0.05,0.53-0.15,0.72s-0.27,0.32-0.49,0.42l-0.19-0.3c0.15-0.07,0.25-0.16,0.32-0.29
			c0.07-0.13,0.11-0.31,0.12-0.55H321.75z"/>
		<path d="M328.78,25.06l0.68,0.09c-0.07,0.48-0.27,0.85-0.57,1.12s-0.68,0.41-1.13,0.41c-0.56,0-1.01-0.19-1.35-0.56
			c-0.34-0.37-0.51-0.91-0.51-1.6c0-0.45,0.07-0.84,0.22-1.18s0.37-0.59,0.67-0.76c0.3-0.17,0.63-0.25,0.98-0.25
			c0.44,0,0.81,0.11,1.09,0.34c0.28,0.23,0.46,0.55,0.54,0.97l-0.67,0.11c-0.06-0.28-0.18-0.49-0.34-0.63
			c-0.16-0.14-0.36-0.21-0.59-0.21c-0.35,0-0.63,0.13-0.85,0.38c-0.22,0.25-0.33,0.66-0.33,1.21c0,0.56,0.11,0.97,0.31,1.22
			c0.21,0.25,0.49,0.38,0.83,0.38c0.27,0,0.5-0.08,0.68-0.25S328.73,25.41,328.78,25.06z"/>
		<path d="M332.86,25.24l0.72,0.09c-0.11,0.43-0.32,0.76-0.63,0.99c-0.31,0.24-0.7,0.35-1.17,0.35c-0.6,0-1.07-0.19-1.42-0.56
			c-0.35-0.38-0.53-0.9-0.53-1.58c0-0.7,0.18-1.24,0.53-1.63c0.35-0.39,0.81-0.58,1.38-0.58c0.55,0,0.99,0.19,1.34,0.57
			c0.35,0.38,0.52,0.91,0.52,1.6c0,0.04,0,0.1,0,0.19h-3.05c0.03,0.46,0.15,0.81,0.38,1.05c0.23,0.24,0.51,0.36,0.86,0.36
			c0.25,0,0.47-0.07,0.65-0.2C332.61,25.75,332.75,25.54,332.86,25.24z M330.58,24.1h2.29c-0.03-0.35-0.12-0.61-0.26-0.79
			c-0.22-0.27-0.51-0.41-0.86-0.41c-0.32,0-0.59,0.11-0.8,0.33C330.72,23.45,330.6,23.74,330.58,24.1z"/>
		<path d="M334.49,21.65v-0.81h0.69v0.81H334.49z M334.49,26.58v-4.16h0.69v4.16H334.49z"/>
		<path d="M336.26,26.58v-5.75h0.69v5.75H336.26z"/>
	</g>
	<g>
		<path d="M238.25,49.59v-7.56h-2.82v-1.01h6.8v1.01h-2.84v7.56H238.25z"/>
	</g>
	<g>
		<path d="M243.09,53.55V47.8h0.69v5.75H243.09z"/>
		<path d="M247.7,52.21l0.72,0.09c-0.11,0.43-0.32,0.76-0.63,0.99c-0.31,0.24-0.7,0.35-1.17,0.35c-0.6,0-1.07-0.19-1.42-0.56
			c-0.35-0.38-0.53-0.9-0.53-1.58c0-0.7,0.18-1.24,0.53-1.63c0.36-0.39,0.81-0.58,1.38-0.58c0.55,0,1,0.19,1.34,0.57
			c0.35,0.38,0.52,0.91,0.52,1.6c0,0.04,0,0.1,0,0.19h-3.05c0.03,0.46,0.15,0.81,0.38,1.05c0.23,0.24,0.51,0.36,0.86,0.36
			c0.25,0,0.47-0.07,0.65-0.2C247.45,52.72,247.6,52.51,247.7,52.21z M245.42,51.07h2.29c-0.03-0.35-0.12-0.61-0.26-0.79
			c-0.22-0.27-0.51-0.41-0.86-0.41c-0.32,0-0.59,0.11-0.8,0.33S245.45,50.7,245.42,51.07z"/>
		<path d="M252,53.04c-0.26,0.22-0.5,0.38-0.74,0.47c-0.24,0.09-0.49,0.14-0.76,0.14c-0.45,0-0.8-0.11-1.04-0.34
			c-0.24-0.22-0.36-0.51-0.36-0.86c0-0.2,0.05-0.39,0.14-0.56c0.09-0.17,0.21-0.3,0.36-0.41c0.15-0.1,0.31-0.18,0.5-0.23
			c0.14-0.04,0.34-0.07,0.62-0.11c0.56-0.07,0.97-0.15,1.24-0.24c0-0.1,0-0.16,0-0.18c0-0.29-0.06-0.49-0.2-0.61
			c-0.18-0.16-0.44-0.24-0.79-0.24c-0.33,0-0.57,0.06-0.72,0.17c-0.15,0.12-0.27,0.32-0.34,0.62l-0.68-0.09
			c0.06-0.3,0.16-0.53,0.3-0.72c0.14-0.18,0.35-0.32,0.61-0.42s0.58-0.15,0.93-0.15c0.35,0,0.63,0.04,0.85,0.13
			c0.22,0.08,0.38,0.19,0.48,0.32c0.1,0.13,0.18,0.29,0.22,0.48c0.02,0.12,0.04,0.34,0.04,0.65v0.94c0,0.66,0.01,1.07,0.04,1.24
			s0.09,0.34,0.18,0.5h-0.72C252.06,53.4,252.02,53.23,252,53.04z M251.94,51.46c-0.25,0.1-0.63,0.19-1.13,0.27
			c-0.29,0.04-0.49,0.09-0.6,0.14c-0.12,0.05-0.21,0.13-0.28,0.23c-0.06,0.1-0.1,0.21-0.1,0.33c0,0.19,0.07,0.35,0.21,0.47
			c0.14,0.13,0.34,0.19,0.61,0.19c0.27,0,0.51-0.06,0.71-0.18c0.21-0.12,0.36-0.28,0.46-0.49c0.07-0.16,0.11-0.39,0.11-0.71V51.46z"
			/>
		<path d="M254.89,53.55l-1.56-4.16h0.73l0.88,2.49c0.1,0.27,0.18,0.55,0.26,0.84c0.06-0.22,0.15-0.48,0.26-0.79l0.91-2.54h0.71
			l-1.55,4.16H254.89z"/>
		<path d="M257.71,48.61V47.8h0.69v0.81H257.71z M257.71,53.55v-4.16h0.69v4.16H257.71z"/>
		<path d="M259.5,53.55v-4.16h0.63v0.59c0.3-0.46,0.73-0.69,1.3-0.69c0.25,0,0.47,0.04,0.68,0.14s0.36,0.21,0.46,0.35
			c0.1,0.15,0.17,0.32,0.21,0.52c0.03,0.13,0.04,0.36,0.04,0.69v2.56h-0.69v-2.53c0-0.29-0.03-0.5-0.08-0.65
			c-0.05-0.14-0.15-0.26-0.29-0.34c-0.14-0.08-0.3-0.13-0.48-0.13c-0.3,0-0.55,0.1-0.77,0.29c-0.21,0.19-0.32,0.55-0.32,1.09v2.27
			H259.5z"/>
		<path d="M263.8,53.89l0.67,0.1c0.03,0.21,0.11,0.37,0.23,0.46c0.17,0.13,0.41,0.2,0.71,0.2c0.32,0,0.57-0.07,0.74-0.2
			c0.18-0.13,0.29-0.31,0.36-0.55c0.04-0.14,0.05-0.45,0.05-0.91c-0.3,0.36-0.68,0.54-1.13,0.54c-0.56,0-1-0.21-1.31-0.62
			c-0.31-0.41-0.46-0.91-0.46-1.49c0-0.4,0.07-0.76,0.21-1.1c0.14-0.34,0.35-0.59,0.62-0.78c0.27-0.18,0.58-0.27,0.95-0.27
			c0.48,0,0.88,0.2,1.2,0.6v-0.5h0.64v3.6c0,0.65-0.06,1.11-0.19,1.38c-0.13,0.27-0.34,0.48-0.62,0.64s-0.63,0.23-1.04,0.23
			c-0.49,0-0.88-0.11-1.18-0.33C263.93,54.68,263.79,54.34,263.8,53.89z M264.37,51.39c0,0.55,0.11,0.94,0.32,1.2
			c0.21,0.25,0.48,0.38,0.8,0.38c0.32,0,0.59-0.12,0.8-0.37c0.22-0.25,0.32-0.64,0.32-1.17c0-0.51-0.11-0.89-0.33-1.15
			c-0.22-0.26-0.49-0.39-0.8-0.39c-0.31,0-0.57,0.13-0.79,0.38C264.48,50.51,264.37,50.89,264.37,51.39z"/>
	</g>
	
		<line style="fill:none;stroke:#000000;stroke-width:3.1148;stroke-linecap:square;stroke-miterlimit:10;" x1="154.89" y1="351.49" x2="74.02" y2="335.32"/>
	<polygon style="fill-rule:evenodd;clip-rule:evenodd;" points="82.89,337.12 83.01,335.08 82.77,333.04 82.05,331.13 80.85,329.45 
		79.41,328.01 77.74,327.05 75.7,326.46 73.66,326.22 71.75,326.46 69.83,327.29 68.15,328.37 66.72,329.81 65.64,331.61 
		65.04,333.52 64.92,335.56 65.16,337.6 65.88,339.51 67.07,341.19 68.51,342.51 70.31,343.59 72.23,344.19 74.26,344.43 
		76.18,344.07 78.1,343.35 79.77,342.27 81.21,340.71 82.29,339.04 82.89,337.12 	"/>
	<g>
		<path d="M61.92,319.14v-7.56h-2.83v-1.01h6.8v1.01h-2.84v7.56H61.92z"/>
	</g>
	<g>
		<path d="M69.42,322.58c-0.26,0.22-0.5,0.38-0.74,0.47c-0.24,0.09-0.49,0.14-0.77,0.14c-0.45,0-0.79-0.11-1.04-0.33
			s-0.36-0.51-0.36-0.86c0-0.2,0.05-0.39,0.14-0.56c0.09-0.17,0.21-0.3,0.36-0.41c0.15-0.1,0.31-0.18,0.5-0.23
			c0.14-0.04,0.34-0.07,0.62-0.11c0.56-0.07,0.97-0.15,1.24-0.24c0-0.1,0-0.16,0-0.18c0-0.29-0.07-0.49-0.2-0.61
			c-0.18-0.16-0.44-0.24-0.79-0.24c-0.33,0-0.57,0.06-0.72,0.17c-0.16,0.12-0.27,0.32-0.34,0.62l-0.68-0.09
			c0.06-0.29,0.16-0.53,0.3-0.72c0.14-0.18,0.35-0.32,0.61-0.42s0.58-0.15,0.93-0.15c0.35,0,0.63,0.04,0.85,0.13
			c0.22,0.08,0.38,0.19,0.48,0.32c0.1,0.13,0.17,0.29,0.22,0.48c0.02,0.12,0.03,0.34,0.03,0.65v0.94c0,0.66,0.02,1.07,0.04,1.24
			c0.03,0.17,0.09,0.34,0.18,0.5h-0.72C69.49,322.95,69.45,322.78,69.42,322.58z M69.37,321.01c-0.25,0.1-0.63,0.19-1.13,0.27
			c-0.29,0.04-0.49,0.09-0.6,0.14c-0.12,0.05-0.21,0.13-0.27,0.23c-0.06,0.1-0.1,0.21-0.1,0.33c0,0.19,0.07,0.34,0.21,0.47
			c0.14,0.13,0.34,0.19,0.61,0.19c0.27,0,0.5-0.06,0.71-0.18s0.36-0.28,0.46-0.49c0.07-0.16,0.11-0.39,0.11-0.71V321.01z"/>
		<path d="M71.36,323.1v-0.8h0.79v0.8c0,0.29-0.05,0.53-0.15,0.71c-0.1,0.18-0.27,0.32-0.49,0.42l-0.19-0.3
			c0.15-0.07,0.25-0.16,0.32-0.29s0.11-0.31,0.12-0.55H71.36z"/>
		<path d="M75.45,321.85l0.69-0.11c0.04,0.28,0.15,0.49,0.32,0.64c0.18,0.15,0.42,0.22,0.74,0.22c0.32,0,0.55-0.07,0.71-0.2
			s0.23-0.29,0.23-0.46c0-0.16-0.07-0.28-0.2-0.38c-0.09-0.06-0.33-0.14-0.71-0.24c-0.51-0.13-0.86-0.24-1.06-0.34
			c-0.2-0.1-0.35-0.23-0.45-0.4c-0.1-0.17-0.15-0.36-0.15-0.56c0-0.19,0.04-0.36,0.13-0.52c0.08-0.16,0.2-0.29,0.34-0.39
			c0.11-0.08,0.25-0.15,0.44-0.21c0.19-0.06,0.39-0.08,0.6-0.08c0.32,0,0.6,0.05,0.85,0.14c0.24,0.09,0.42,0.22,0.54,0.38
			c0.12,0.16,0.19,0.38,0.24,0.65l-0.68,0.09c-0.03-0.21-0.12-0.38-0.27-0.5c-0.15-0.12-0.36-0.18-0.63-0.18
			c-0.32,0-0.55,0.05-0.68,0.16s-0.2,0.23-0.2,0.38c0,0.09,0.03,0.17,0.08,0.25c0.06,0.08,0.15,0.14,0.27,0.19
			c0.07,0.03,0.27,0.09,0.61,0.18c0.49,0.13,0.83,0.24,1.03,0.33s0.35,0.21,0.46,0.37c0.11,0.16,0.17,0.36,0.17,0.6
			c0,0.24-0.07,0.46-0.2,0.66c-0.13,0.21-0.33,0.37-0.58,0.48c-0.25,0.11-0.54,0.17-0.86,0.17c-0.53,0-0.94-0.11-1.22-0.34
			S75.53,322.29,75.45,321.85z"/>
		<path d="M82.36,323.1v-0.61c-0.32,0.47-0.75,0.71-1.3,0.71c-0.24,0-0.47-0.05-0.68-0.14s-0.36-0.21-0.47-0.35
			c-0.1-0.14-0.17-0.32-0.21-0.52c-0.03-0.14-0.04-0.36-0.04-0.66v-2.58h0.69v2.31c0,0.37,0.01,0.62,0.04,0.74
			c0.04,0.19,0.14,0.33,0.28,0.44c0.14,0.11,0.32,0.16,0.52,0.16s0.4-0.05,0.59-0.16c0.18-0.11,0.31-0.26,0.39-0.44
			c0.08-0.19,0.11-0.46,0.11-0.81v-2.23h0.69v4.16H82.36z"/>
		<path d="M84.1,324.69v-5.76h0.63v0.54c0.15-0.21,0.32-0.37,0.5-0.48s0.42-0.16,0.68-0.16c0.35,0,0.66,0.09,0.92,0.27
			c0.27,0.18,0.47,0.44,0.6,0.77s0.2,0.7,0.2,1.1c0,0.43-0.08,0.81-0.23,1.15s-0.37,0.6-0.66,0.78s-0.59,0.27-0.9,0.27
			c-0.23,0-0.44-0.05-0.62-0.15c-0.18-0.1-0.33-0.22-0.45-0.38v2.03H84.1z M84.73,321.04c0,0.54,0.11,0.93,0.32,1.19
			s0.47,0.38,0.77,0.38c0.31,0,0.57-0.13,0.79-0.4s0.33-0.68,0.33-1.23c0-0.53-0.11-0.93-0.32-1.19c-0.21-0.26-0.47-0.4-0.77-0.4
			c-0.3,0-0.56,0.14-0.78,0.42C84.84,320.09,84.73,320.5,84.73,321.04z"/>
		<path d="M88.53,324.69v-5.76h0.63v0.54c0.15-0.21,0.32-0.37,0.5-0.48s0.42-0.16,0.68-0.16c0.35,0,0.66,0.09,0.92,0.27
			c0.27,0.18,0.47,0.44,0.6,0.77s0.2,0.7,0.2,1.1c0,0.43-0.08,0.81-0.23,1.15s-0.37,0.6-0.66,0.78s-0.59,0.27-0.9,0.27
			c-0.23,0-0.44-0.05-0.62-0.15c-0.18-0.1-0.33-0.22-0.45-0.38v2.03H88.53z M89.16,321.04c0,0.54,0.11,0.93,0.32,1.19
			s0.47,0.38,0.77,0.38c0.31,0,0.57-0.13,0.79-0.4s0.33-0.68,0.33-1.23c0-0.53-0.11-0.93-0.32-1.19c-0.21-0.26-0.47-0.4-0.77-0.4
			c-0.3,0-0.56,0.14-0.78,0.42C89.27,320.09,89.16,320.5,89.16,321.04z"/>
		<path d="M92.95,323.1v-5.75h0.69v5.75H92.95z"/>
		<path d="M94.72,324.7l-0.08-0.66c0.15,0.04,0.28,0.06,0.4,0.06c0.15,0,0.28-0.03,0.37-0.08c0.09-0.05,0.17-0.13,0.23-0.22
			c0.04-0.07,0.11-0.25,0.21-0.52c0.01-0.04,0.03-0.1,0.06-0.17l-1.55-4.17h0.75l0.85,2.41c0.11,0.31,0.21,0.63,0.3,0.96
			c0.08-0.32,0.17-0.64,0.29-0.95l0.87-2.43h0.69l-1.56,4.23c-0.17,0.46-0.3,0.77-0.39,0.94c-0.12,0.23-0.26,0.4-0.42,0.51
			s-0.35,0.16-0.57,0.16C95.04,324.79,94.89,324.76,94.72,324.7z"/>
	</g>
	
		<line style="fill:none;stroke:#000000;stroke-width:2.1564;stroke-linecap:square;stroke-miterlimit:10;" x1="127.93" y1="409.96" x2="289.66" y2="409.96"/>
	<polyline style="fill:none;stroke:#000000;stroke-width:2.1564;stroke-linecap:square;stroke-miterlimit:10;" points="
		277.44,416.07 289.66,409.96 277.44,403.85 	"/>
	
		<line style="fill:none;stroke:#000000;stroke-width:2.1564;stroke-linecap:square;stroke-miterlimit:10;" x1="24.67" y1="306.57" x2="24.67" y2="144.84"/>
	<polyline style="fill:none;stroke:#000000;stroke-width:2.1564;stroke-linecap:square;stroke-miterlimit:10;" points="
		30.77,157.06 24.67,144.84 18.56,157.06 	"/>
</g>
</svg>
