<?xml version="1.0" encoding="iso-8859-1"?>
<!-- Generator: Adobe Illustrator 16.0.3, SVG Export Plug-In . SVG Version: 6.00 Build 0)  -->
<!DOCTYPE svg PUBLIC "-//W3C//DTD SVG 1.1//EN" "http://www.w3.org/Graphics/SVG/1.1/DTD/svg11.dtd">
<svg version="1.1" id="Layer_1" xmlns="http://www.w3.org/2000/svg" xmlns:xlink="http://www.w3.org/1999/xlink" x="0px" y="0px"
	 width="219.91px" height="114.8px" viewBox="0 0 219.91 114.8" style="enable-background:new 0 0 219.91 114.8;"
	 xml:space="preserve">
<g>
	<path style="fill-rule:evenodd;clip-rule:evenodd;fill:#FFFFFF;stroke:#000000;stroke-linecap:square;stroke-miterlimit:10;" d="
		M8.5,69.61c0-10.04,8.03-18.06,18.06-18.06s18.06,8.03,18.06,18.06S36.6,87.67,26.56,87.67S8.5,79.64,8.5,69.61L8.5,69.61z"/>
	<polygon style="fill-rule:evenodd;clip-rule:evenodd;" points="80.5,81.55 68.5,57.55 92.5,57.55 	"/>
	<path style="fill:#333333;" d="M69.38,57.17l-0.88,0.38v1h24v-1l-0.88-0.38l-12,24l0.88,0.38l0.88-0.38L69.38,57.17L69.38,57.17z
		 M79.63,82.05l0.88,1.75l0.88-1.75l12-24l0.75-1.5H92.5h-24h-1.63l0.75,1.5L79.63,82.05L79.63,82.05z"/>
	<rect x="112.47" y="20.24" transform="matrix(-0.7071 -0.7071 0.7071 -0.7071 176.3369 122.0099)" width="1.94" height="8.49"/>
	<rect x="118.47" y="20.24" transform="matrix(0.7071 -0.7071 0.7071 0.7071 17.6694 91.6264)" width="1.94" height="8.49"/>
	<rect x="124.47" y="20.24" transform="matrix(-0.7071 -0.7071 0.7071 -0.7071 196.8221 130.4951)" width="1.94" height="8.49"/>
	<rect x="130.47" y="20.24" transform="matrix(0.7071 -0.7071 0.7071 0.7071 21.1841 100.1117)" width="1.94" height="8.49"/>
	<rect x="136.47" y="20.24" transform="matrix(-0.7071 -0.7071 0.7071 -0.7071 217.3074 138.9804)" width="1.94" height="8.49"/>
	<rect x="142.47" y="20.24" transform="matrix(0.7071 -0.7071 0.7071 0.7071 24.6988 108.5969)" width="1.94" height="8.49"/>
	<rect x="26.5" y="26.55" width="84" height="2"/>
	<rect x="25.5" y="27.55" width="2" height="24"/>
	<rect x="79.5" y="27.55" width="2" height="30"/>
	<rect x="68.5" y="79.67" width="24" height="3.75"/>
	<rect x="158.5" y="26.55" width="12" height="2"/>
	<rect x="146.5" y="26.55" width="36" height="2"/>
	<rect x="79.5" y="81.55" width="2" height="30"/>
	<rect x="25.5" y="87.55" width="2" height="12"/>
	<rect x="25.5" y="99.55" width="2" height="12"/>
	<rect x="26.5" y="110.55" width="156" height="2"/>
	
		<path style="fill-rule:evenodd;clip-rule:evenodd;fill:#FFFFFF;stroke:#000000;stroke-width:0.25;stroke-linecap:square;stroke-miterlimit:10;" d="
		M181,27.61c0-1.7,1.36-3.06,3.06-3.06s3.06,1.36,3.06,3.06s-1.36,3.06-3.06,3.06S181,29.31,181,27.61L181,27.61z"/>
	
		<path style="fill-rule:evenodd;clip-rule:evenodd;fill:#FFFFFF;stroke:#000000;stroke-width:0.25;stroke-linecap:square;stroke-miterlimit:10;" d="
		M181.75,111.61c0-1.7,1.36-3.06,3.06-3.06s3.06,1.36,3.06,3.06s-1.36,3.06-3.06,3.06S181.75,113.31,181.75,111.61L181.75,111.61z"
		/>
	<line style="fill:none;stroke:#000000;stroke-linecap:square;stroke-miterlimit:10;" x1="26.5" y1="78.55" x2="26.5" y2="67.17"/>
	<polygon style="fill-rule:evenodd;clip-rule:evenodd;" points="29.25,67.42 26.5,62.05 23.88,67.42 	"/>
	
		<line style="fill:none;stroke:#000000;stroke-linecap:square;stroke-miterlimit:10;" x1="200.5" y1="27.55" x2="212.5" y2="27.55"/>
	
		<line style="fill:none;stroke:#000000;stroke-linecap:square;stroke-miterlimit:10;" x1="212.5" y1="27.55" x2="212.5" y2="57.55"/>
	
		<line style="fill:none;stroke:#000000;stroke-linecap:square;stroke-miterlimit:10;" x1="200.5" y1="111.55" x2="212.5" y2="111.55"/>
	
		<line style="fill:none;stroke:#000000;stroke-linecap:square;stroke-miterlimit:10;" x1="212.5" y1="81.55" x2="212.5" y2="111.55"/>
	
		<line style="fill:none;stroke:#000000;stroke-linecap:square;stroke-miterlimit:10;" x1="104.5" y1="57.55" x2="104.5" y2="80.92"/>
	<polygon style="fill-rule:evenodd;clip-rule:evenodd;" points="101.75,80.67 104.5,86.05 107.13,80.67 	"/>
	<line style="fill:none;stroke:#000000;stroke-linecap:square;stroke-miterlimit:10;" x1="104.5" y1="9.55" x2="147.63" y2="9.55"/>
	<polygon style="fill-rule:evenodd;clip-rule:evenodd;" points="147.38,12.3 152.75,9.55 147.38,6.92 	"/>
	<g>
		<path d="M213.75,74.55l-4.44-11.45h1.64l2.98,8.32c0.24,0.67,0.44,1.29,0.6,1.88c0.18-0.63,0.38-1.25,0.62-1.88l3.09-8.32h1.55
			l-4.48,11.45H213.75z"/>
	</g>
	<g>
		<path d="M167.19,13.01v0.29h-4.54v-0.29h0.38c0.44,0,0.75-0.13,0.95-0.38c0.13-0.17,0.19-0.57,0.19-1.2V4.58
			c0-0.54-0.03-0.89-0.1-1.06c-0.05-0.13-0.16-0.24-0.32-0.34c-0.23-0.13-0.47-0.19-0.72-0.19h-0.38V2.7h4.54v0.29h-0.38
			c-0.43,0-0.75,0.13-0.95,0.38c-0.13,0.17-0.2,0.57-0.2,1.2v6.84c0,0.54,0.03,0.89,0.1,1.06c0.05,0.13,0.16,0.24,0.33,0.34
			c0.22,0.13,0.46,0.19,0.71,0.19H167.19z"/>
	</g>
	<g>
		<path d="M144.31,45.67h-2.83l-3.59-4.95c-0.27,0.01-0.48,0.02-0.65,0.02c-0.07,0-0.14,0-0.22,0c-0.08,0-0.16-0.01-0.24-0.01v3.08
			c0,0.67,0.07,1.08,0.22,1.24c0.2,0.23,0.5,0.34,0.89,0.34h0.41v0.29h-4.54v-0.29h0.4c0.45,0,0.77-0.15,0.96-0.44
			c0.11-0.16,0.16-0.54,0.16-1.15v-6.84c0-0.67-0.07-1.08-0.22-1.24c-0.2-0.23-0.5-0.34-0.91-0.34h-0.4v-0.29h3.86
			c1.13,0,1.95,0.08,2.49,0.25s0.99,0.47,1.36,0.91c0.37,0.44,0.56,0.96,0.56,1.57c0,0.65-0.21,1.22-0.64,1.7
			c-0.42,0.48-1.08,0.82-1.97,1.02l2.19,3.04c0.5,0.7,0.93,1.16,1.29,1.39c0.36,0.23,0.83,0.38,1.41,0.44V45.67z M136.79,40.23
			c0.1,0,0.18,0,0.26,0c0.07,0,0.13,0,0.18,0c1.01,0,1.77-0.22,2.29-0.66s0.77-0.99,0.77-1.67c0-0.66-0.21-1.2-0.62-1.61
			s-0.96-0.62-1.64-0.62c-0.3,0-0.71,0.05-1.23,0.15V40.23z"/>
	</g>
	<g>
		<path d="M147.65,44.61v1.68h-0.18c-0.14-0.53-0.31-0.88-0.52-1.07s-0.48-0.28-0.81-0.28c-0.25,0-0.45,0.07-0.61,0.2
			c-0.15,0.13-0.23,0.28-0.23,0.44c0,0.2,0.06,0.37,0.17,0.52c0.11,0.15,0.34,0.3,0.68,0.47l0.78,0.38c0.73,0.35,1.09,0.82,1.09,1.4
			c0,0.45-0.17,0.81-0.51,1.08c-0.34,0.27-0.72,0.41-1.14,0.41c-0.3,0-0.64-0.05-1.03-0.16c-0.12-0.04-0.21-0.05-0.29-0.05
			c-0.08,0-0.15,0.05-0.19,0.14h-0.18v-1.76h0.18c0.1,0.5,0.29,0.88,0.57,1.13s0.6,0.38,0.95,0.38c0.25,0,0.45-0.07,0.6-0.22
			c0.16-0.15,0.23-0.32,0.23-0.52c0-0.25-0.09-0.45-0.26-0.62s-0.52-0.38-1.04-0.64c-0.52-0.26-0.86-0.49-1.02-0.7
			c-0.16-0.2-0.24-0.46-0.24-0.77c0-0.4,0.14-0.74,0.42-1.02s0.64-0.41,1.08-0.41c0.19,0,0.43,0.04,0.7,0.12
			c0.18,0.05,0.3,0.08,0.37,0.08c0.06,0,0.1-0.01,0.13-0.04s0.07-0.08,0.11-0.17H147.65z"/>
	</g>
	<g>
		<path d="M115.94,91.13v0.29h-4.54v-0.29h0.38c0.44,0,0.75-0.13,0.95-0.38c0.13-0.17,0.19-0.57,0.19-1.2V82.7
			c0-0.54-0.03-0.89-0.1-1.06c-0.05-0.13-0.16-0.24-0.32-0.34c-0.23-0.13-0.47-0.19-0.72-0.19h-0.38v-0.29h4.54v0.29h-0.38
			c-0.43,0-0.75,0.13-0.95,0.38c-0.13,0.17-0.2,0.57-0.2,1.2v6.84c0,0.54,0.03,0.89,0.1,1.06c0.05,0.13,0.16,0.24,0.33,0.34
			c0.22,0.13,0.46,0.19,0.71,0.19H115.94z"/>
	</g>
	<g>
		<path d="M116.56,95.41v-0.2h0.27c0.31,0,0.53-0.1,0.66-0.29c0.08-0.12,0.12-0.38,0.12-0.79v-4.71c0-0.46-0.05-0.74-0.15-0.85
			c-0.14-0.16-0.35-0.24-0.62-0.24h-0.27v-0.2h2.96c1.09,0,1.92,0.12,2.48,0.37c0.57,0.25,1.02,0.66,1.37,1.23
			c0.35,0.58,0.52,1.24,0.52,2c0,1.01-0.31,1.86-0.92,2.54c-0.69,0.76-1.74,1.14-3.16,1.14H116.56z M118.64,94.89
			c0.46,0.1,0.84,0.15,1.14,0.15c0.83,0,1.52-0.29,2.07-0.88c0.55-0.58,0.82-1.38,0.82-2.37c0-1.01-0.27-1.8-0.82-2.38
			s-1.25-0.87-2.11-0.87c-0.32,0-0.69,0.05-1.1,0.16V94.89z"/>
	</g>
	<g>
		<path d="M4.94,46.88v0.29H0.4v-0.29h0.38c0.44,0,0.75-0.13,0.95-0.38c0.13-0.17,0.19-0.57,0.19-1.2v-6.84
			c0-0.54-0.03-0.89-0.1-1.06c-0.05-0.13-0.16-0.24-0.32-0.34c-0.23-0.13-0.47-0.19-0.72-0.19H0.4v-0.29h4.54v0.29H4.55
			c-0.43,0-0.75,0.13-0.95,0.38c-0.13,0.17-0.2,0.57-0.2,1.2v6.84c0,0.54,0.03,0.89,0.1,1.06c0.05,0.13,0.16,0.24,0.33,0.34
			c0.22,0.13,0.46,0.19,0.71,0.19H4.94z"/>
	</g>
	<g>
		<path d="M11.68,49.16l0.18,0.04l-0.62,1.98H5.6v-0.2h0.27c0.31,0,0.53-0.1,0.66-0.3c0.08-0.11,0.11-0.38,0.11-0.79v-4.7
			c0-0.45-0.05-0.74-0.15-0.85c-0.14-0.16-0.35-0.24-0.62-0.24H5.6v-0.2h3.3v0.2c-0.39,0-0.66,0.03-0.81,0.11
			c-0.16,0.08-0.26,0.17-0.32,0.28s-0.09,0.39-0.09,0.82v4.58c0,0.3,0.03,0.5,0.09,0.61c0.04,0.08,0.11,0.13,0.2,0.17
			s0.37,0.05,0.84,0.05h0.53c0.56,0,0.95-0.04,1.18-0.12s0.43-0.23,0.62-0.44C11.31,49.94,11.49,49.61,11.68,49.16z"/>
	</g>
</g>
</svg>
