<?xml version="1.0" encoding="iso-8859-1"?>
<!-- Generator: Adobe Illustrator 16.0.3, SVG Export Plug-In . SVG Version: 6.00 Build 0)  -->
<!DOCTYPE svg PUBLIC "-//W3C//DTD SVG 1.1//EN" "http://www.w3.org/Graphics/SVG/1.1/DTD/svg11.dtd">
<svg version="1.1" id="Layer_1" xmlns="http://www.w3.org/2000/svg" xmlns:xlink="http://www.w3.org/1999/xlink" x="0px" y="0px"
	 width="269.76px" height="153.92px" viewBox="0 0 269.76 153.92" style="enable-background:new 0 0 269.76 153.92;"
	 xml:space="preserve">
<g>
	<g>
		<path d="M186.1,42.54v2.3h-0.68V39.8h3.38v0.62h-2.71v1.53h2.37v0.59H186.1z"/>
		<path d="M190.21,44.23h2.54v0.61h-3.21V39.8h0.68V44.23z"/>
		<path d="M195.49,39.66c0.78,0.01,1.37,0.26,1.77,0.74s0.61,1.13,0.61,1.94c0,0.81-0.21,1.45-0.63,1.92s-1.01,0.71-1.8,0.72
			c-0.78-0.01-1.37-0.26-1.77-0.74c-0.4-0.48-0.6-1.12-0.6-1.93c0.01-0.8,0.21-1.44,0.63-1.92
			C194.12,39.91,194.72,39.67,195.49,39.66z M193.78,42.32c0,0.59,0.13,1.09,0.4,1.48c0.27,0.39,0.7,0.59,1.28,0.61
			c0.59-0.01,1.02-0.22,1.3-0.6c0.28-0.39,0.42-0.88,0.42-1.46c0-0.59-0.13-1.08-0.41-1.48s-0.71-0.6-1.29-0.62
			c-0.58,0.01-1.01,0.22-1.28,0.6C193.91,41.23,193.78,41.73,193.78,42.32z"/>
		<path d="M199.94,43.88l1.08-4.08h0.71l1.1,4.04l1.08-4.04h0.64l-1.35,5.05h-0.67l-1.16-4.19l-1.13,4.19h-0.68l-1.32-5.05h0.67
			L199.94,43.88z"/>
		<path d="M209.13,42.69h-1.39v2.16h-0.68V39.8h2.15c0.48,0,0.86,0.12,1.14,0.35c0.28,0.23,0.42,0.58,0.43,1.03
			c0,0.3-0.06,0.55-0.19,0.73c-0.12,0.18-0.29,0.33-0.5,0.43c0.25,0.08,0.41,0.22,0.49,0.44s0.11,0.45,0.1,0.72
			c0,0.27,0,0.51,0.02,0.73s0.1,0.38,0.24,0.48v0.13h-0.76c-0.11-0.25-0.17-0.51-0.17-0.76c0-0.25-0.01-0.48-0.02-0.69
			c-0.01-0.21-0.07-0.38-0.19-0.51C209.7,42.75,209.47,42.69,209.13,42.69z M207.74,40.38v1.73h1.42c0.32,0,0.55-0.09,0.71-0.25
			c0.15-0.16,0.23-0.36,0.23-0.62c0-0.28-0.07-0.49-0.22-0.64c-0.15-0.15-0.39-0.22-0.71-0.23H207.74z"/>
		<path d="M211.88,44.84h-0.69l1.88-5.05h0.75l1.88,5.05h-0.75l-0.52-1.5h-2L211.88,44.84z M213.45,40.49l-0.82,2.27h1.6
			L213.45,40.49z"/>
		<path d="M219.66,40.39h-1.6v4.45h-0.68v-4.45h-1.6v-0.6h3.88V40.39z"/>
		<path d="M223.88,39.8v0.62h-2.93v1.53h2.71v0.57h-2.71v1.71h2.99v0.61h-3.67V39.8H223.88z"/>
	</g>
	<polygon style="fill-rule:evenodd;clip-rule:evenodd;" points="129.41,37.18 136.49,35.41 136.49,37.18 136.49,38.95 129.41,37.18 
			"/>
	<polygon style="fill-rule:evenodd;clip-rule:evenodd;" points="166.59,37.18 159.51,38.95 159.51,37.18 159.51,35.41 166.59,37.18 
			"/>
	
		<line style="fill:none;stroke:#000000;stroke-width:0.5902;stroke-linecap:square;stroke-miterlimit:10;" x1="136.49" y1="37.18" x2="159.51" y2="37.18"/>
	<g>
		<path d="M106.22,147.79v-0.58h3.67v0.62l-3.05,3.82h3.05v0.6H106v-0.56l3.1-3.91H106.22z"/>
		<path d="M112.76,147.06c0.77,0.01,1.36,0.26,1.77,0.74c0.4,0.48,0.61,1.13,0.61,1.94c0,0.81-0.21,1.45-0.63,1.92
			c-0.41,0.47-1.01,0.71-1.8,0.72c-0.78-0.01-1.37-0.26-1.77-0.74c-0.4-0.48-0.6-1.12-0.6-1.93c0-0.8,0.21-1.44,0.63-1.92
			C111.39,147.32,111.98,147.08,112.76,147.06z M111.05,149.73c0,0.59,0.13,1.09,0.4,1.48c0.27,0.39,0.7,0.59,1.28,0.61
			c0.59-0.01,1.02-0.21,1.3-0.6c0.28-0.39,0.42-0.88,0.42-1.46c0-0.59-0.14-1.08-0.42-1.48c-0.28-0.39-0.71-0.6-1.29-0.62
			c-0.58,0.01-1.01,0.22-1.28,0.61S111.04,149.13,111.05,149.73z"/>
		<path d="M119.37,151.27v-4.06h0.64v5.04h-0.74l-2.62-4.04v4.04h-0.64v-5.04h0.74L119.37,151.27z"/>
		<path d="M124.71,147.21v0.62h-2.93v1.53h2.71v0.57h-2.71v1.71h2.99v0.61h-3.67v-5.04H124.71z"/>
		<path d="M130.96,147.8h-1.6v4.45h-0.68v-4.45h-1.6v-0.59h3.88V147.8z"/>
		<path d="M135.18,147.21v0.62h-2.93v1.53h2.71v0.57h-2.71v1.71h2.99v0.61h-3.67v-5.04H135.18z"/>
		<path d="M136.07,147.21h0.98l1.38,4.25l1.44-4.25h0.96v5.04h-0.65V148l-1.44,4.25h-0.64l-1.4-4.29v4.29h-0.62V147.21z"/>
		<path d="M144.08,150.11h-1.47v2.14h-0.68v-5.04h2.15c0.48,0,0.84,0.13,1.09,0.39c0.25,0.26,0.38,0.61,0.38,1.07
			c-0.01,0.45-0.14,0.8-0.41,1.05S144.52,150.1,144.08,150.11z M142.6,147.8v1.71h1.42c0.28,0,0.49-0.08,0.63-0.24
			s0.21-0.36,0.21-0.61c0-0.28-0.08-0.49-0.22-0.64s-0.35-0.22-0.62-0.22H142.6z"/>
		<path d="M149.98,147.21v0.62h-2.93v1.53h2.71v0.57h-2.71v1.71h2.99v0.61h-3.67v-5.04H149.98z"/>
		<path d="M152.95,150.09h-1.39v2.16h-0.68v-5.04h2.15c0.48,0,0.86,0.12,1.14,0.35c0.28,0.24,0.42,0.58,0.43,1.03
			c0,0.3-0.06,0.54-0.19,0.73c-0.12,0.18-0.29,0.33-0.49,0.43c0.25,0.08,0.41,0.22,0.49,0.44c0.07,0.21,0.11,0.45,0.1,0.72
			c0,0.27,0,0.51,0.02,0.73s0.1,0.38,0.24,0.48v0.13h-0.77c-0.11-0.25-0.16-0.51-0.17-0.76c0-0.25-0.01-0.48-0.02-0.69
			c-0.01-0.21-0.07-0.38-0.19-0.51C153.51,150.16,153.29,150.09,152.95,150.09z M151.56,147.79v1.73h1.42
			c0.32,0,0.55-0.09,0.71-0.25s0.23-0.36,0.23-0.62c0-0.28-0.07-0.49-0.22-0.64c-0.15-0.15-0.39-0.22-0.71-0.22H151.56z"/>
		<path d="M155.7,152.25h-0.68l1.88-5.04h0.75l1.88,5.04h-0.75l-0.52-1.5h-2L155.7,152.25z M157.27,147.9l-0.82,2.27h1.6
			L157.27,147.9z"/>
		<path d="M163.47,147.8h-1.6v4.45h-0.68v-4.45h-1.6v-0.59h3.88V147.8z"/>
		<path d="M167.34,147.21h0.68v3.27c0,0.53-0.16,0.98-0.49,1.34c-0.33,0.36-0.85,0.55-1.56,0.56c-0.69-0.02-1.19-0.21-1.48-0.57
			c-0.29-0.36-0.44-0.81-0.43-1.33v-3.27h0.68v3.27c0,0.4,0.11,0.71,0.32,0.93c0.21,0.22,0.53,0.33,0.94,0.33
			c0.5-0.01,0.85-0.14,1.05-0.38c0.2-0.25,0.3-0.56,0.29-0.95V147.21z"/>
		<path d="M171.15,150.09h-1.39v2.16h-0.68v-5.04h2.15c0.48,0,0.86,0.12,1.14,0.35c0.28,0.24,0.42,0.58,0.43,1.03
			c0,0.3-0.06,0.54-0.19,0.73c-0.12,0.18-0.29,0.33-0.49,0.43c0.25,0.08,0.41,0.22,0.49,0.44c0.07,0.21,0.11,0.45,0.1,0.72
			c0,0.27,0,0.51,0.02,0.73s0.1,0.38,0.24,0.48v0.13h-0.77c-0.11-0.25-0.16-0.51-0.17-0.76c0-0.25-0.01-0.48-0.02-0.69
			c-0.01-0.21-0.07-0.38-0.19-0.51C171.71,150.16,171.48,150.09,171.15,150.09z M169.76,147.79v1.73h1.42
			c0.32,0,0.55-0.09,0.71-0.25s0.23-0.36,0.23-0.62c0-0.28-0.07-0.49-0.22-0.64c-0.15-0.15-0.39-0.22-0.71-0.22H169.76z"/>
		<path d="M177.38,147.21v0.62h-2.93v1.53h2.71v0.57h-2.71v1.71h2.99v0.61h-3.67v-5.04H177.38z"/>
	</g>
	<g>
		<path d="M6.19,95.07c-0.01,0.67-0.19,1.17-0.51,1.5c-0.33,0.33-0.75,0.49-1.27,0.49v-0.64c0.41-0.01,0.72-0.14,0.92-0.4
			c0.2-0.25,0.3-0.58,0.3-0.98c0-0.37-0.09-0.66-0.25-0.88c-0.17-0.22-0.4-0.33-0.71-0.34C4.34,93.84,4.13,94,4.01,94.31
			c-0.11,0.3-0.2,0.66-0.28,1.06s-0.2,0.75-0.39,1.06s-0.52,0.46-0.98,0.48c-0.4,0-0.75-0.16-1.04-0.46
			c-0.29-0.3-0.44-0.75-0.45-1.34c0.01-0.62,0.18-1.07,0.49-1.36c0.31-0.29,0.69-0.44,1.12-0.44v0.65c-0.27,0-0.51,0.09-0.72,0.28
			c-0.21,0.19-0.32,0.5-0.33,0.92c0,0.36,0.09,0.64,0.24,0.82s0.37,0.28,0.64,0.28c0.3-0.01,0.5-0.17,0.61-0.48s0.19-0.66,0.26-1.06
			s0.2-0.76,0.4-1.07c0.2-0.31,0.54-0.47,1.02-0.5c0.48,0,0.86,0.17,1.14,0.51C6.04,94,6.18,94.47,6.19,95.07z"/>
		<path d="M1.02,89.02v-0.68h3.27c0.53,0,0.98,0.16,1.34,0.49c0.36,0.33,0.55,0.85,0.56,1.56c-0.02,0.69-0.21,1.19-0.57,1.48
			c-0.36,0.29-0.81,0.44-1.33,0.43H1.02v-0.68h3.27c0.4,0,0.71-0.11,0.93-0.32c0.22-0.21,0.33-0.53,0.33-0.94
			c-0.01-0.5-0.14-0.85-0.38-1.05c-0.25-0.2-0.56-0.3-0.95-0.29H1.02z"/>
		<path d="M3.92,85.12v1.47h2.14v0.68H1.02v-2.15c0-0.48,0.14-0.84,0.39-1.09s0.61-0.38,1.07-0.38c0.45,0.01,0.8,0.14,1.05,0.41
			S3.91,84.68,3.92,85.12z M1.61,86.6h1.71v-1.42c0-0.28-0.08-0.49-0.24-0.63c-0.15-0.14-0.36-0.21-0.61-0.21
			c-0.28,0-0.49,0.08-0.64,0.22s-0.22,0.35-0.22,0.61V86.6z"/>
		<path d="M3.92,80.68v1.47h2.14v0.68H1.02v-2.15c0-0.48,0.14-0.84,0.39-1.09s0.61-0.38,1.07-0.38c0.45,0.01,0.8,0.14,1.05,0.41
			S3.91,80.24,3.92,80.68z M1.61,82.15h1.71v-1.42c0-0.28-0.08-0.49-0.24-0.63c-0.15-0.14-0.36-0.21-0.61-0.21
			c-0.28,0-0.49,0.08-0.64,0.22s-0.22,0.35-0.22,0.61V82.15z"/>
		<path d="M5.45,77.7v-2.54h0.61v3.21H1.02V77.7H5.45z"/>
		<path d="M6.06,72.66v0.68H4.03L1.02,75.2v-0.84L3.42,73l-2.41-1.35c0-0.1,0-0.23,0-0.4s0-0.31,0-0.4l2.97,1.81H6.06z"/>
		<path d="M6.06,68.28v0.68l-5.05-1.87v-0.75l5.05-1.88v0.75l-1.5,0.52v2L6.06,68.28z M1.71,66.71l2.27,0.82v-1.6L1.71,66.71z"/>
		<path d="M6.06,63.21v0.68H1.02v-0.68H6.06z"/>
		<path d="M3.9,60.03v1.39h2.16v0.68H1.02v-2.15c0-0.48,0.12-0.86,0.35-1.14c0.23-0.28,0.58-0.42,1.03-0.43
			c0.3,0,0.55,0.06,0.73,0.19c0.18,0.12,0.33,0.29,0.43,0.49C3.64,58.8,3.79,58.64,4,58.57s0.45-0.11,0.72-0.1
			c0.27,0,0.51,0,0.73-0.02s0.38-0.1,0.48-0.24h0.13v0.76c-0.25,0.11-0.51,0.17-0.76,0.17c-0.25,0-0.48,0.01-0.69,0.02
			c-0.21,0.01-0.38,0.07-0.51,0.19C3.97,59.46,3.9,59.69,3.9,60.03z M1.6,61.42h1.73V60c0-0.32-0.09-0.55-0.25-0.71
			c-0.16-0.15-0.36-0.23-0.62-0.23c-0.28,0-0.49,0.07-0.64,0.22C1.67,59.44,1.6,59.68,1.6,60V61.42z"/>
		<path d="M1.61,52.05v1.6h4.45v0.68H1.61v1.6h-0.6v-3.88H1.61z"/>
		<path d="M1.02,47.83h0.62v2.93h1.53v-2.71h0.57v2.71h1.71v-2.99h0.61v3.67H1.02V47.83z"/>
		<path d="M1.02,46.94v-0.98l4.25-1.38l-4.25-1.44v-0.96h5.05v0.65H1.81l4.25,1.44v0.64l-4.29,1.4h4.29v0.62H1.02z"/>
		<path d="M3.92,38.94v1.47h2.14v0.68H1.02v-2.15c0-0.48,0.14-0.84,0.39-1.09c0.26-0.25,0.61-0.38,1.07-0.38
			c0.45,0.01,0.8,0.14,1.05,0.41S3.91,38.5,3.92,38.94z M1.61,40.41h1.71v-1.42c0-0.28-0.08-0.49-0.24-0.63
			c-0.15-0.14-0.36-0.21-0.61-0.21c-0.28,0-0.49,0.08-0.64,0.22c-0.15,0.15-0.22,0.35-0.22,0.61V40.41z"/>
		<path d="M6.06,35.88v0.7H5.32v-0.7H6.06z"/>
	</g>
	<g>
		<path d="M253.61,104.34l4.28-1.46l-4.28-1.43v-0.71l5.04,1.78v0.71l-5.04,1.8V104.34z"/>
		<path d="M253.47,98c0.01-0.77,0.26-1.36,0.74-1.77s1.13-0.61,1.94-0.61c0.81,0,1.45,0.21,1.92,0.63c0.47,0.41,0.71,1.01,0.72,1.8
			c-0.01,0.78-0.26,1.37-0.74,1.77c-0.48,0.4-1.12,0.6-1.93,0.6c-0.8,0-1.44-0.21-1.92-0.63C253.72,99.37,253.48,98.78,253.47,98z
			 M256.13,99.71c0.6,0,1.09-0.13,1.48-0.4c0.39-0.27,0.59-0.7,0.61-1.28c-0.01-0.59-0.21-1.02-0.6-1.3s-0.88-0.42-1.46-0.42
			c-0.59,0-1.08,0.14-1.48,0.42c-0.39,0.28-0.6,0.71-0.62,1.29c0.02,0.58,0.22,1.01,0.61,1.28
			C255.04,99.58,255.54,99.72,256.13,99.71z"/>
		<path d="M258.04,94.06v-2.54h0.61v3.21h-5.04v-0.68H258.04z"/>
		<path d="M253.61,87.72v-0.68h3.27c0.53,0,0.98,0.16,1.34,0.49s0.55,0.85,0.56,1.56c-0.02,0.69-0.21,1.19-0.57,1.48
			s-0.8,0.44-1.33,0.43h-3.27v-0.68h3.27c0.4,0,0.71-0.11,0.93-0.32c0.22-0.21,0.33-0.53,0.33-0.94c-0.01-0.5-0.14-0.85-0.38-1.05
			c-0.25-0.2-0.56-0.3-0.95-0.29H253.61z"/>
		<path d="M253.61,85.97V85l4.25-1.38l-4.25-1.44v-0.96h5.04v0.65h-4.25l4.25,1.44v0.64l-4.29,1.4h4.29v0.62H253.61z"/>
		<path d="M253.61,76.51h0.62v2.93h1.53v-2.71h0.57v2.71h1.71v-2.99h0.61v3.67h-5.04V76.51z"/>
		<path d="M256.36,73h2.3v0.68h-5.04v-3.39h0.62V73h1.53v-2.37h0.59V73z"/>
		<path d="M258.04,68.89v-2.53h0.61v3.21h-5.04v-0.68H258.04z"/>
		<path d="M253.47,63.6c0.01-0.77,0.26-1.36,0.74-1.77c0.48-0.4,1.13-0.61,1.94-0.61c0.81,0,1.45,0.21,1.92,0.63
			c0.47,0.41,0.71,1.01,0.72,1.8c-0.01,0.78-0.26,1.37-0.74,1.77c-0.48,0.4-1.12,0.6-1.93,0.6c-0.8,0-1.44-0.21-1.92-0.63
			C253.72,64.97,253.48,64.38,253.47,63.6z M256.13,65.32c0.6,0,1.09-0.13,1.48-0.4c0.39-0.27,0.59-0.7,0.61-1.28
			c-0.01-0.59-0.21-1.02-0.6-1.3c-0.39-0.28-0.88-0.42-1.46-0.42c-0.59,0-1.08,0.14-1.48,0.42c-0.39,0.28-0.6,0.71-0.62,1.29
			c0.02,0.58,0.22,1.01,0.61,1.28C255.04,65.18,255.54,65.32,256.13,65.32z"/>
		<path d="M257.69,59.16l-4.08-1.08v-0.71l4.04-1.1l-4.04-1.08v-0.64l5.04,1.35v0.67l-4.2,1.16l4.2,1.13v0.68l-5.04,1.32v-0.67
			L257.69,59.16z"/>
		<path d="M256.5,49.96v1.39h2.16v0.68h-5.04v-2.15c0-0.48,0.12-0.86,0.35-1.14c0.24-0.28,0.58-0.42,1.04-0.43
			c0.3,0,0.54,0.06,0.73,0.19c0.19,0.12,0.33,0.29,0.43,0.49c0.08-0.25,0.22-0.41,0.44-0.49c0.21-0.07,0.45-0.11,0.72-0.1
			c0.27,0,0.51,0,0.73-0.02c0.22-0.02,0.38-0.1,0.48-0.24h0.13v0.76c-0.25,0.11-0.51,0.17-0.76,0.17c-0.25,0-0.48,0.01-0.69,0.02
			c-0.21,0.01-0.38,0.07-0.51,0.19C256.56,49.4,256.5,49.63,256.5,49.96z M254.19,51.35h1.73v-1.42c-0.01-0.32-0.09-0.55-0.25-0.71
			c-0.16-0.15-0.37-0.23-0.62-0.23c-0.28,0-0.49,0.07-0.64,0.22c-0.15,0.15-0.22,0.39-0.22,0.71V51.35z"/>
		<path d="M258.66,47.22v0.68l-5.04-1.87v-0.75l5.04-1.88v0.75l-1.5,0.52v2L258.66,47.22z M254.3,45.65l2.27,0.82v-1.6L254.3,45.65z
			"/>
		<path d="M254.21,39.44v1.6h4.45v0.68h-4.45v1.6h-0.59v-3.88H254.21z"/>
		<path d="M253.61,35.22h0.62v2.93h1.53v-2.71h0.57v2.71h1.71v-2.99h0.61v3.67h-5.04V35.22z"/>
	</g>
	<g>
		<path d="M265.79,86.11h2.3v0.68h-5.04V83.4h0.62v2.71h1.53v-2.37h0.59V86.11z"/>
		<path d="M265.94,80.61V82h2.16v0.68h-5.04v-2.15c0-0.48,0.12-0.86,0.35-1.14c0.24-0.28,0.58-0.42,1.04-0.43
			c0.3,0,0.54,0.06,0.73,0.19c0.19,0.12,0.33,0.29,0.43,0.5c0.08-0.25,0.22-0.41,0.44-0.49c0.21-0.07,0.45-0.11,0.72-0.1
			c0.27,0,0.51,0,0.73-0.02c0.22-0.02,0.38-0.1,0.48-0.24h0.13v0.76c-0.25,0.11-0.51,0.17-0.76,0.17c-0.25,0-0.48,0.01-0.69,0.02
			c-0.21,0.01-0.38,0.07-0.51,0.19C266,80.05,265.94,80.27,265.94,80.61z M263.63,82h1.73v-1.42c-0.01-0.32-0.09-0.55-0.25-0.71
			c-0.16-0.15-0.37-0.23-0.62-0.23c-0.28,0-0.49,0.07-0.64,0.22c-0.15,0.15-0.22,0.39-0.22,0.71V82z"/>
		<path d="M268.09,77.87v0.68l-5.04-1.88v-0.75l5.04-1.88v0.75l-1.5,0.52v2L268.09,77.87z M263.74,76.29l2.27,0.82v-1.6
			L263.74,76.29z"/>
		<path d="M263.52,71.34c0.02,0.65,0.24,1.09,0.65,1.33c0.41,0.24,0.89,0.36,1.43,0.35c0.54,0,1.01-0.13,1.4-0.4
			c0.4-0.26,0.6-0.67,0.63-1.22c-0.03-0.54-0.19-0.92-0.51-1.14c-0.31-0.22-0.61-0.33-0.9-0.32V69.3c0.53,0.01,0.99,0.2,1.38,0.57
			c0.39,0.37,0.6,0.9,0.62,1.57c-0.03,0.79-0.3,1.37-0.82,1.74c-0.52,0.37-1.14,0.55-1.86,0.55c-0.7,0.01-1.31-0.18-1.82-0.55
			s-0.79-0.98-0.81-1.81c0.02-0.63,0.2-1.12,0.53-1.47c0.33-0.35,0.7-0.53,1.11-0.54v0.65c-0.14-0.01-0.33,0.09-0.6,0.28
			S263.54,70.83,263.52,71.34z"/>
		<path d="M263.64,65.06v1.6h4.45v0.68h-4.45v1.6h-0.59v-3.88H263.64z"/>
		<path d="M268.09,63.75v0.68h-5.04v-0.68H268.09z"/>
		<path d="M262.91,60.43c0.01-0.77,0.26-1.36,0.74-1.77c0.48-0.4,1.13-0.61,1.94-0.61c0.81,0,1.45,0.21,1.92,0.63
			c0.47,0.41,0.71,1.01,0.72,1.8c-0.01,0.78-0.26,1.37-0.74,1.77c-0.48,0.4-1.12,0.6-1.93,0.6c-0.8,0-1.44-0.21-1.92-0.63
			C263.16,61.8,262.92,61.21,262.91,60.43z M265.57,62.15c0.6,0,1.09-0.13,1.48-0.4c0.39-0.27,0.59-0.7,0.61-1.28
			c-0.01-0.59-0.21-1.02-0.6-1.3c-0.39-0.28-0.88-0.42-1.46-0.42c-0.59,0-1.08,0.14-1.48,0.42c-0.39,0.28-0.6,0.71-0.62,1.29
			c0.02,0.58,0.22,1.01,0.61,1.28C264.48,62.01,264.97,62.15,265.57,62.15z"/>
		<path d="M267.11,53.82h-4.06v-0.64h5.04v0.74l-4.04,2.62h4.04v0.64h-5.04v-0.74L267.11,53.82z"/>
	</g>
	
		<rect x="35.58" y="10.62" style="fill:none;stroke:#000000;stroke-width:0.5902;stroke-linecap:square;stroke-miterlimit:10;" width="192.98" height="118.62"/>
	
		<line style="fill:none;stroke:#000000;stroke-width:1.1803;stroke-linecap:square;stroke-miterlimit:10;" x1="35.58" y1="108" x2="127.64" y2="108"/>
	
		<line style="fill:none;stroke:#000000;stroke-width:1.1803;stroke-linecap:square;stroke-miterlimit:10;" x1="128.82" y1="108" x2="167.18" y2="46.62"/>
	
		<line style="fill:none;stroke:#000000;stroke-width:1.1803;stroke-linecap:square;stroke-miterlimit:10;" x1="167.77" y1="46.62" x2="227.97" y2="46.62"/>
	<polygon style="fill-rule:evenodd;clip-rule:evenodd;" points="242.13,128.66 235.05,130.43 235.05,128.66 235.05,126.89 
		242.13,128.66 	"/>
	
		<line style="fill:none;stroke:#000000;stroke-width:0.5902;stroke-linecap:square;stroke-miterlimit:10;" x1="235.05" y1="128.66" x2="217.94" y2="128.66"/>
	
		<line style="fill:none;stroke:#000000;stroke-width:0.5902;stroke-linecap:square;stroke-miterlimit:10;" x1="128.82" y1="12.39" x2="128.82" y2="17.11"/>
	
		<line style="fill:none;stroke:#000000;stroke-width:0.5902;stroke-linecap:square;stroke-miterlimit:10;" x1="128.82" y1="23.02" x2="128.82" y2="27.74"/>
	
		<line style="fill:none;stroke:#000000;stroke-width:0.5902;stroke-linecap:square;stroke-miterlimit:10;" x1="128.82" y1="33.64" x2="128.82" y2="38.36"/>
	
		<line style="fill:none;stroke:#000000;stroke-width:0.5902;stroke-linecap:square;stroke-miterlimit:10;" x1="128.82" y1="44.26" x2="128.82" y2="48.98"/>
	
		<line style="fill:none;stroke:#000000;stroke-width:0.5902;stroke-linecap:square;stroke-miterlimit:10;" x1="128.82" y1="54.89" x2="128.82" y2="59.61"/>
	
		<line style="fill:none;stroke:#000000;stroke-width:0.5902;stroke-linecap:square;stroke-miterlimit:10;" x1="128.82" y1="65.51" x2="128.82" y2="70.23"/>
	
		<line style="fill:none;stroke:#000000;stroke-width:0.5902;stroke-linecap:square;stroke-miterlimit:10;" x1="128.82" y1="76.13" x2="128.82" y2="80.85"/>
	
		<line style="fill:none;stroke:#000000;stroke-width:0.5902;stroke-linecap:square;stroke-miterlimit:10;" x1="128.82" y1="86.75" x2="128.82" y2="91.48"/>
	
		<line style="fill:none;stroke:#000000;stroke-width:0.5902;stroke-linecap:square;stroke-miterlimit:10;" x1="128.82" y1="97.38" x2="128.82" y2="102.1"/>
	
		<line style="fill:none;stroke:#000000;stroke-width:0.5902;stroke-linecap:square;stroke-miterlimit:10;" x1="128.82" y1="108" x2="128.82" y2="112.72"/>
	
		<line style="fill:none;stroke:#000000;stroke-width:0.5902;stroke-linecap:square;stroke-miterlimit:10;" x1="128.82" y1="118.62" x2="128.82" y2="123.34"/>
	
		<line style="fill:none;stroke:#000000;stroke-width:0.5902;stroke-linecap:square;stroke-miterlimit:10;" x1="167.18" y1="11.8" x2="167.18" y2="16.52"/>
	
		<line style="fill:none;stroke:#000000;stroke-width:0.5902;stroke-linecap:square;stroke-miterlimit:10;" x1="167.18" y1="22.43" x2="167.18" y2="27.15"/>
	
		<line style="fill:none;stroke:#000000;stroke-width:0.5902;stroke-linecap:square;stroke-miterlimit:10;" x1="167.18" y1="33.05" x2="167.18" y2="37.77"/>
	
		<line style="fill:none;stroke:#000000;stroke-width:0.5902;stroke-linecap:square;stroke-miterlimit:10;" x1="167.18" y1="43.67" x2="167.18" y2="48.39"/>
	
		<line style="fill:none;stroke:#000000;stroke-width:0.5902;stroke-linecap:square;stroke-miterlimit:10;" x1="167.18" y1="54.3" x2="167.18" y2="59.02"/>
	
		<line style="fill:none;stroke:#000000;stroke-width:0.5902;stroke-linecap:square;stroke-miterlimit:10;" x1="167.18" y1="64.92" x2="167.18" y2="69.64"/>
	
		<line style="fill:none;stroke:#000000;stroke-width:0.5902;stroke-linecap:square;stroke-miterlimit:10;" x1="167.18" y1="75.54" x2="167.18" y2="80.26"/>
	
		<line style="fill:none;stroke:#000000;stroke-width:0.5902;stroke-linecap:square;stroke-miterlimit:10;" x1="167.18" y1="86.16" x2="167.18" y2="90.89"/>
	
		<line style="fill:none;stroke:#000000;stroke-width:0.5902;stroke-linecap:square;stroke-miterlimit:10;" x1="167.18" y1="96.79" x2="167.18" y2="101.51"/>
	
		<line style="fill:none;stroke:#000000;stroke-width:0.5902;stroke-linecap:square;stroke-miterlimit:10;" x1="167.18" y1="107.41" x2="167.18" y2="112.13"/>
	
		<line style="fill:none;stroke:#000000;stroke-width:0.5902;stroke-linecap:square;stroke-miterlimit:10;" x1="167.18" y1="118.03" x2="167.18" y2="122.75"/>
	<polygon style="fill-rule:evenodd;clip-rule:evenodd;" points="35.58,0 37.35,7.08 35.58,7.08 33.81,7.08 35.58,0 	"/>
	
		<line style="fill:none;stroke:#000000;stroke-width:0.5902;stroke-linecap:square;stroke-miterlimit:10;" x1="35.58" y1="7.08" x2="35.58" y2="23.02"/>
	
		<line style="fill:none;stroke:#000000;stroke-width:1.1803;stroke-linecap:square;stroke-miterlimit:10;" x1="35.58" y1="43.08" x2="40.3" y2="43.08"/>
	
		<line style="fill:none;stroke:#000000;stroke-width:1.1803;stroke-linecap:square;stroke-miterlimit:10;" x1="46.2" y1="43.08" x2="50.92" y2="43.08"/>
	<polygon style="fill-rule:evenodd;clip-rule:evenodd;" points="53.28,43.08 55.64,47.8 54.46,48.39 52.1,43.67 53.28,43.08 	"/>
	<polygon style="fill-rule:evenodd;clip-rule:evenodd;" points="58.59,52.52 61.54,57.25 60.36,57.84 57.41,53.11 58.59,52.52 	"/>
	<polygon style="fill-rule:evenodd;clip-rule:evenodd;" points="63.9,61.38 66.86,66.1 65.68,66.69 62.72,61.97 63.9,61.38 	"/>
	<polygon style="fill-rule:evenodd;clip-rule:evenodd;" points="69.22,70.82 72.17,75.54 70.99,76.13 68.04,71.41 69.22,70.82 	"/>
	<polygon style="fill-rule:evenodd;clip-rule:evenodd;" points="74.53,79.67 77.48,84.39 76.3,84.98 73.35,80.26 74.53,79.67 	"/>
	<polygon style="fill-rule:evenodd;clip-rule:evenodd;" points="80.43,89.12 82.79,93.84 81.61,94.43 79.25,89.71 80.43,89.12 	"/>
	
		<line style="fill:none;stroke:#000000;stroke-width:1.1803;stroke-linecap:square;stroke-miterlimit:10;" x1="85.74" y1="98.56" x2="90.46" y2="98.56"/>
	
		<line style="fill:none;stroke:#000000;stroke-width:1.1803;stroke-linecap:square;stroke-miterlimit:10;" x1="96.36" y1="98.56" x2="101.08" y2="98.56"/>
	
		<line style="fill:none;stroke:#000000;stroke-width:1.1803;stroke-linecap:square;stroke-miterlimit:10;" x1="106.99" y1="98.56" x2="111.71" y2="98.56"/>
	
		<line style="fill:none;stroke:#000000;stroke-width:1.1803;stroke-linecap:square;stroke-miterlimit:10;" x1="117.61" y1="98.56" x2="122.33" y2="98.56"/>
	
		<line style="fill:none;stroke:#000000;stroke-width:1.1803;stroke-linecap:square;stroke-miterlimit:10;" x1="128.23" y1="98.56" x2="132.95" y2="98.56"/>
	
		<line style="fill:none;stroke:#000000;stroke-width:1.1803;stroke-linecap:square;stroke-miterlimit:10;" x1="138.86" y1="98.56" x2="143.58" y2="98.56"/>
	
		<line style="fill:none;stroke:#000000;stroke-width:1.1803;stroke-linecap:square;stroke-miterlimit:10;" x1="149.48" y1="98.56" x2="154.2" y2="98.56"/>
	
		<line style="fill:none;stroke:#000000;stroke-width:1.1803;stroke-linecap:square;stroke-miterlimit:10;" x1="160.1" y1="98.56" x2="164.82" y2="98.56"/>
	
		<line style="fill:none;stroke:#000000;stroke-width:1.1803;stroke-linecap:square;stroke-miterlimit:10;" x1="170.72" y1="98.56" x2="175.45" y2="98.56"/>
	
		<line style="fill:none;stroke:#000000;stroke-width:1.1803;stroke-linecap:square;stroke-miterlimit:10;" x1="181.35" y1="98.56" x2="186.07" y2="98.56"/>
	
		<line style="fill:none;stroke:#000000;stroke-width:1.1803;stroke-linecap:square;stroke-miterlimit:10;" x1="191.97" y1="98.56" x2="196.69" y2="98.56"/>
	
		<line style="fill:none;stroke:#000000;stroke-width:1.1803;stroke-linecap:square;stroke-miterlimit:10;" x1="202.59" y1="98.56" x2="207.31" y2="98.56"/>
	
		<line style="fill:none;stroke:#000000;stroke-width:1.1803;stroke-linecap:square;stroke-miterlimit:10;" x1="213.22" y1="98.56" x2="217.94" y2="98.56"/>
	
		<line style="fill:none;stroke:#000000;stroke-width:1.1803;stroke-linecap:square;stroke-miterlimit:10;" x1="223.84" y1="98.56" x2="225.61" y2="98.56"/>
	
		<line style="fill:none;stroke:#000000;stroke-width:0.5902;stroke-linecap:square;stroke-miterlimit:10;" x1="53.87" y1="12.39" x2="53.87" y2="17.11"/>
	
		<line style="fill:none;stroke:#000000;stroke-width:0.5902;stroke-linecap:square;stroke-miterlimit:10;" x1="53.87" y1="23.02" x2="53.87" y2="27.74"/>
	
		<line style="fill:none;stroke:#000000;stroke-width:0.5902;stroke-linecap:square;stroke-miterlimit:10;" x1="53.87" y1="33.64" x2="53.87" y2="38.36"/>
	
		<line style="fill:none;stroke:#000000;stroke-width:0.5902;stroke-linecap:square;stroke-miterlimit:10;" x1="53.87" y1="44.26" x2="53.87" y2="48.98"/>
	
		<line style="fill:none;stroke:#000000;stroke-width:0.5902;stroke-linecap:square;stroke-miterlimit:10;" x1="53.87" y1="54.89" x2="53.87" y2="59.61"/>
	
		<line style="fill:none;stroke:#000000;stroke-width:0.5902;stroke-linecap:square;stroke-miterlimit:10;" x1="53.87" y1="65.51" x2="53.87" y2="70.23"/>
	
		<line style="fill:none;stroke:#000000;stroke-width:0.5902;stroke-linecap:square;stroke-miterlimit:10;" x1="53.87" y1="76.13" x2="53.87" y2="80.85"/>
	
		<line style="fill:none;stroke:#000000;stroke-width:0.5902;stroke-linecap:square;stroke-miterlimit:10;" x1="53.87" y1="86.75" x2="53.87" y2="91.48"/>
	
		<line style="fill:none;stroke:#000000;stroke-width:0.5902;stroke-linecap:square;stroke-miterlimit:10;" x1="53.87" y1="97.38" x2="53.87" y2="102.1"/>
	
		<line style="fill:none;stroke:#000000;stroke-width:0.5902;stroke-linecap:square;stroke-miterlimit:10;" x1="53.87" y1="108" x2="53.87" y2="112.72"/>
	
		<line style="fill:none;stroke:#000000;stroke-width:0.5902;stroke-linecap:square;stroke-miterlimit:10;" x1="53.87" y1="118.62" x2="53.87" y2="123.34"/>
	
		<line style="fill:none;stroke:#000000;stroke-width:0.5902;stroke-linecap:square;stroke-miterlimit:10;" x1="83.38" y1="11.8" x2="83.38" y2="16.52"/>
	
		<line style="fill:none;stroke:#000000;stroke-width:0.5902;stroke-linecap:square;stroke-miterlimit:10;" x1="83.38" y1="22.43" x2="83.38" y2="27.15"/>
	
		<line style="fill:none;stroke:#000000;stroke-width:0.5902;stroke-linecap:square;stroke-miterlimit:10;" x1="83.38" y1="33.05" x2="83.38" y2="37.77"/>
	
		<line style="fill:none;stroke:#000000;stroke-width:0.5902;stroke-linecap:square;stroke-miterlimit:10;" x1="83.38" y1="43.67" x2="83.38" y2="48.39"/>
	
		<line style="fill:none;stroke:#000000;stroke-width:0.5902;stroke-linecap:square;stroke-miterlimit:10;" x1="83.38" y1="54.3" x2="83.38" y2="59.02"/>
	
		<line style="fill:none;stroke:#000000;stroke-width:0.5902;stroke-linecap:square;stroke-miterlimit:10;" x1="83.38" y1="64.92" x2="83.38" y2="69.64"/>
	
		<line style="fill:none;stroke:#000000;stroke-width:0.5902;stroke-linecap:square;stroke-miterlimit:10;" x1="83.38" y1="75.54" x2="83.38" y2="80.26"/>
	
		<line style="fill:none;stroke:#000000;stroke-width:0.5902;stroke-linecap:square;stroke-miterlimit:10;" x1="83.38" y1="86.16" x2="83.38" y2="90.89"/>
	
		<line style="fill:none;stroke:#000000;stroke-width:0.5902;stroke-linecap:square;stroke-miterlimit:10;" x1="83.38" y1="96.79" x2="83.38" y2="101.51"/>
	
		<line style="fill:none;stroke:#000000;stroke-width:0.5902;stroke-linecap:square;stroke-miterlimit:10;" x1="83.38" y1="107.41" x2="83.38" y2="112.13"/>
	
		<line style="fill:none;stroke:#000000;stroke-width:0.5902;stroke-linecap:square;stroke-miterlimit:10;" x1="83.38" y1="118.03" x2="83.38" y2="122.75"/>
	<polygon style="fill-rule:evenodd;clip-rule:evenodd;" points="53.87,42.49 60.95,40.72 60.95,42.49 60.95,44.26 53.87,42.49 	"/>
	<polygon style="fill-rule:evenodd;clip-rule:evenodd;" points="83.38,42.49 76.3,44.26 76.3,42.49 76.3,40.72 83.38,42.49 	"/>
	
		<line style="fill:none;stroke:#000000;stroke-width:0.5902;stroke-linecap:square;stroke-miterlimit:10;" x1="60.95" y1="42.49" x2="76.3" y2="42.49"/>
	<g>
		<path d="M233.37,48.98h-0.64V45.5h-1.13v-0.48c0.44-0.01,0.77-0.11,0.98-0.29c0.21-0.18,0.31-0.4,0.31-0.66h0.48V48.98z"/>
		<path d="M236.09,48.98h-0.7v-0.74h0.7V48.98z"/>
		<path d="M238.61,44.07c0.44-0.02,0.83,0.14,1.17,0.5s0.52,1.04,0.54,2.03c-0.02,1-0.2,1.67-0.54,2.01
			c-0.34,0.34-0.73,0.51-1.17,0.49c-0.44,0.02-0.82-0.15-1.14-0.51c-0.33-0.36-0.5-1.02-0.51-1.99c0.02-0.98,0.19-1.65,0.51-2.01
			S238.17,44.06,238.61,44.07z M237.62,46.61c0.01,0.77,0.11,1.3,0.3,1.56c0.19,0.27,0.43,0.39,0.72,0.38
			c0.29,0.02,0.53-0.11,0.72-0.38c0.19-0.27,0.29-0.79,0.3-1.56c-0.01-0.77-0.11-1.29-0.3-1.57c-0.19-0.28-0.43-0.41-0.72-0.39
			c-0.29-0.02-0.53,0.11-0.72,0.38C237.72,45.3,237.63,45.83,237.62,46.61z"/>
	</g>
	<g>
		<path d="M232.63,105.89h0.97l1.38,4.25l1.44-4.25h0.96v5.04h-0.65v-4.25l-1.44,4.25h-0.64l-1.4-4.29v4.29h-0.62V105.89z"/>
		<path d="M239.19,110.94h-0.68v-5.04h0.68V110.94z"/>
		<path d="M243.66,109.96v-4.06h0.64v5.04h-0.74l-2.62-4.04v4.04h-0.64v-5.04h0.74L243.66,109.96z"/>
		<path d="M246.16,110.94h-0.7v-0.74h0.7V110.94z"/>
	</g>
	<g>
		<path d="M18.49,38.94v2.37h-0.68v-5.05h0.68v2.08h2.65v-2.08h0.68v5.05h-0.68v-2.37H18.49z"/>
		<path d="M25.11,36.12c0.77,0.01,1.36,0.26,1.77,0.74c0.4,0.48,0.61,1.13,0.61,1.94c0,0.81-0.21,1.45-0.63,1.92
			c-0.41,0.47-1.01,0.71-1.8,0.72c-0.78-0.01-1.37-0.26-1.77-0.74c-0.4-0.48-0.6-1.12-0.6-1.93c0-0.8,0.21-1.44,0.63-1.92
			C23.74,36.37,24.33,36.13,25.11,36.12z M23.39,38.78c0,0.59,0.13,1.09,0.4,1.48c0.27,0.39,0.7,0.59,1.28,0.61
			c0.59-0.01,1.02-0.22,1.3-0.6c0.28-0.39,0.42-0.88,0.42-1.46c0-0.59-0.14-1.08-0.42-1.48s-0.71-0.6-1.29-0.62
			c-0.58,0.01-1.01,0.22-1.28,0.6S23.39,38.19,23.39,38.78z"/>
		<path d="M31.78,36.86h-1.6v4.45H29.5v-4.45h-1.6v-0.6h3.88V36.86z"/>
	</g>
	<g>
		<path d="M16.05,50.74V45.7h1.94c0.8,0.02,1.36,0.26,1.69,0.73c0.33,0.47,0.49,1.03,0.48,1.7c0,0.77-0.18,1.39-0.55,1.87
			s-0.9,0.73-1.62,0.74H16.05z M16.72,50.15h1.22c0.54-0.01,0.93-0.2,1.17-0.56c0.24-0.36,0.35-0.83,0.35-1.4
			c0-0.55-0.11-1.01-0.35-1.37c-0.24-0.36-0.63-0.54-1.16-0.56h-1.22V50.15z"/>
		<path d="M24.64,45.7v0.62h-2.93v1.53h2.71v0.57h-2.71v1.71h2.99v0.61h-3.67V45.7H24.64z"/>
		<path d="M27.7,46.16c-0.65,0.02-1.09,0.24-1.33,0.65c-0.24,0.41-0.36,0.89-0.35,1.43c0,0.54,0.13,1,0.4,1.4
			c0.26,0.4,0.67,0.6,1.22,0.63c0.54-0.03,0.92-0.19,1.14-0.5c0.22-0.31,0.33-0.61,0.32-0.9h0.65c-0.01,0.53-0.2,0.99-0.57,1.38
			s-0.9,0.6-1.57,0.62c-0.79-0.03-1.37-0.3-1.74-0.82c-0.37-0.52-0.55-1.14-0.55-1.86c-0.01-0.7,0.18-1.31,0.55-1.82
			c0.38-0.52,0.98-0.79,1.81-0.81c0.63,0.02,1.12,0.2,1.47,0.53c0.35,0.33,0.53,0.7,0.54,1.11h-0.65c0.01-0.14-0.09-0.33-0.28-0.6
			C28.57,46.34,28.21,46.19,27.7,46.16z"/>
		<path d="M31.24,48.15l2.47-2.45h0.88l-2.05,2.01l2.11,3.04h-0.82l-1.8-2.54l-0.78,0.76v1.77h-0.68V45.7h0.68V48.15z"/>
	</g>
	<g>
		<path d="M16.44,88.07c-0.65,0.02-1.09,0.24-1.33,0.65c-0.24,0.41-0.36,0.89-0.35,1.43c0,0.54,0.13,1,0.4,1.4
			c0.26,0.4,0.67,0.6,1.22,0.63c0.54-0.03,0.92-0.19,1.14-0.5c0.22-0.31,0.33-0.61,0.32-0.9h0.65c-0.01,0.53-0.2,0.99-0.57,1.38
			c-0.37,0.39-0.9,0.6-1.57,0.62c-0.79-0.03-1.37-0.3-1.74-0.82c-0.37-0.52-0.55-1.14-0.55-1.86c-0.01-0.7,0.18-1.31,0.55-1.82
			c0.38-0.52,0.98-0.79,1.81-0.81c0.63,0.02,1.12,0.2,1.47,0.53c0.35,0.33,0.53,0.7,0.54,1.11h-0.65c0.01-0.14-0.09-0.33-0.28-0.6
			S16.95,88.1,16.44,88.07z"/>
		<path d="M21.5,87.46c0.77,0.01,1.36,0.26,1.77,0.74c0.4,0.48,0.61,1.13,0.61,1.94c0,0.81-0.21,1.45-0.63,1.92
			c-0.41,0.47-1.01,0.71-1.8,0.72c-0.78-0.01-1.37-0.26-1.77-0.74c-0.4-0.48-0.6-1.12-0.6-1.93c0-0.8,0.21-1.44,0.63-1.92
			C20.13,87.72,20.72,87.47,21.5,87.46z M19.78,90.13c0,0.59,0.13,1.09,0.4,1.48c0.27,0.39,0.7,0.59,1.28,0.61
			c0.59-0.01,1.02-0.21,1.3-0.6c0.28-0.39,0.42-0.88,0.42-1.46c0-0.59-0.14-1.08-0.42-1.48c-0.28-0.39-0.71-0.6-1.29-0.62
			c-0.58,0.01-1.01,0.22-1.28,0.61S19.78,89.53,19.78,90.13z"/>
		<path d="M25.43,92.04h2.53v0.61h-3.21V87.6h0.68V92.04z"/>
		<path d="M28.52,92.65V87.6h1.94c0.8,0.02,1.36,0.26,1.69,0.73c0.33,0.47,0.49,1.03,0.48,1.71c0,0.76-0.18,1.39-0.55,1.87
			s-0.9,0.73-1.62,0.74H28.52z M29.2,92.05h1.22c0.54-0.01,0.93-0.2,1.17-0.56c0.24-0.36,0.35-0.83,0.35-1.4
			c0-0.55-0.11-1.01-0.35-1.37c-0.24-0.36-0.63-0.54-1.16-0.56H29.2V92.05z"/>
	</g>
	<g>
		<path d="M14.27,102.09v-5.04h1.94c0.8,0.02,1.36,0.26,1.69,0.73c0.33,0.47,0.49,1.03,0.48,1.71c0,0.76-0.18,1.39-0.55,1.87
			s-0.9,0.73-1.62,0.74H14.27z M14.95,101.5h1.22c0.54-0.01,0.93-0.2,1.17-0.56c0.24-0.36,0.35-0.83,0.35-1.4
			c0-0.55-0.11-1.01-0.35-1.37c-0.24-0.36-0.63-0.54-1.16-0.56h-1.22V101.5z"/>
		<path d="M22.87,97.05v0.62h-2.93v1.53h2.71v0.57h-2.71v1.71h2.99v0.61h-3.67v-5.04H22.87z"/>
		<path d="M25.93,97.52c-0.65,0.02-1.09,0.24-1.33,0.65c-0.24,0.41-0.36,0.89-0.35,1.43c0,0.54,0.13,1,0.4,1.4
			c0.26,0.4,0.67,0.6,1.22,0.63c0.54-0.03,0.92-0.19,1.14-0.5c0.22-0.31,0.33-0.61,0.32-0.9h0.65c-0.01,0.53-0.2,0.99-0.57,1.38
			c-0.37,0.39-0.9,0.6-1.57,0.62c-0.79-0.03-1.37-0.3-1.74-0.82c-0.37-0.52-0.55-1.14-0.55-1.86c-0.01-0.7,0.18-1.31,0.55-1.82
			c0.38-0.52,0.98-0.79,1.81-0.81c0.63,0.02,1.12,0.2,1.47,0.53c0.35,0.33,0.53,0.7,0.54,1.11h-0.65c0.01-0.14-0.09-0.33-0.28-0.6
			S26.44,97.55,25.93,97.52z"/>
		<path d="M29.47,99.5l2.47-2.45h0.88l-2.05,2.01l2.11,3.04h-0.82l-1.8-2.54l-0.78,0.76v1.77h-0.68v-5.04h0.68V99.5z"/>
	</g>
	<polygon style="fill-rule:evenodd;clip-rule:evenodd;fill:#FFFFFF;" points="40.3,16.52 98.13,16.52 98.13,31.87 40.3,31.87 
		40.3,16.52 	"/>
	<g>
		<path d="M60.17,20.62h-1.16v1.8h-0.56v-4.2h1.79c0.4,0,0.72,0.1,0.95,0.29c0.23,0.2,0.35,0.48,0.36,0.86
			c0,0.25-0.05,0.45-0.16,0.61c-0.1,0.15-0.24,0.27-0.41,0.36c0.21,0.06,0.34,0.18,0.4,0.36s0.09,0.38,0.08,0.6
			c0,0.22,0,0.42,0.02,0.61c0.02,0.19,0.08,0.32,0.2,0.4v0.11h-0.64c-0.09-0.21-0.14-0.42-0.14-0.63c0-0.21-0.01-0.4-0.01-0.58
			s-0.06-0.32-0.16-0.42C60.65,20.68,60.45,20.62,60.17,20.62z M59.01,18.7v1.44h1.18c0.27,0,0.46-0.07,0.59-0.2
			c0.13-0.13,0.19-0.3,0.19-0.51c0-0.23-0.06-0.41-0.19-0.53c-0.13-0.12-0.32-0.19-0.59-0.19H59.01z"/>
		<path d="M65.37,18.22v0.52h-2.44v1.27h2.26v0.47h-2.26v1.43h2.49v0.51h-3.06v-4.2H65.37z"/>
		<path d="M66.68,20.45v1.97h-0.56v-4.2h0.56v1.73h2.21v-1.73h0.57v4.2h-0.57v-1.97H66.68z"/>
		<path d="M73.37,18.22v0.52h-2.44v1.27h2.26v0.47h-2.26v1.43h2.49v0.51h-3.06v-4.2H73.37z"/>
		<path d="M74.22,22.42h-0.57l1.56-4.2h0.63l1.57,4.2h-0.63l-0.44-1.25h-1.67L74.22,22.42z M75.53,18.79l-0.68,1.89h1.33
			L75.53,18.79z"/>
		<path d="M80.7,18.71h-1.33v3.71H78.8v-3.71h-1.33v-0.5h3.24V18.71z"/>
	</g>
	<g>
		<path d="M44.18,26.39h-1.33v3.71h-0.57v-3.71h-1.33v-0.5h3.24V26.39z"/>
		<path d="M45.26,28.13v1.97h-0.56v-4.2h0.56v1.73h2.21V25.9h0.57v4.2h-0.57v-1.97H45.26z"/>
		<path d="M50.66,28.3h-1.16v1.8h-0.56v-4.2h1.79c0.4,0,0.72,0.1,0.95,0.29c0.23,0.2,0.35,0.48,0.36,0.86
			c0,0.25-0.05,0.45-0.16,0.61c-0.1,0.15-0.24,0.27-0.41,0.36c0.21,0.06,0.34,0.18,0.4,0.36s0.09,0.38,0.08,0.6
			c0,0.22,0,0.42,0.02,0.61c0.02,0.19,0.08,0.32,0.2,0.4v0.11h-0.64c-0.09-0.21-0.14-0.42-0.14-0.63c0-0.21-0.01-0.4-0.01-0.58
			s-0.06-0.32-0.16-0.42C51.14,28.36,50.95,28.3,50.66,28.3z M49.51,26.38v1.44h1.18c0.27,0,0.46-0.07,0.59-0.2
			c0.13-0.13,0.19-0.3,0.19-0.51c0-0.23-0.06-0.41-0.19-0.53c-0.13-0.12-0.32-0.19-0.59-0.19H49.51z"/>
		<path d="M54.68,25.78c0.65,0.01,1.14,0.21,1.47,0.62c0.34,0.4,0.51,0.94,0.51,1.61c0,0.68-0.18,1.21-0.52,1.6
			c-0.34,0.39-0.84,0.59-1.5,0.6c-0.65-0.01-1.14-0.22-1.47-0.62c-0.33-0.4-0.5-0.93-0.5-1.6c0-0.67,0.18-1.2,0.52-1.6
			C53.54,25.99,54.03,25.79,54.68,25.78z M53.25,28c0,0.5,0.11,0.91,0.33,1.23c0.22,0.32,0.58,0.49,1.07,0.5
			c0.49-0.01,0.85-0.18,1.08-0.5s0.35-0.73,0.35-1.22c0-0.49-0.11-0.9-0.35-1.23c-0.23-0.33-0.59-0.5-1.07-0.51
			c-0.48,0.01-0.84,0.18-1.07,0.5S53.25,27.5,53.25,28z"/>
		<path d="M60.24,26.39H58.9v3.71h-0.57v-3.71H57v-0.5h3.24V26.39z"/>
		<path d="M63.59,26.39h-1.33v3.71h-0.57v-3.71h-1.33v-0.5h3.24V26.39z"/>
		<path d="M64.66,29.59h2.11v0.51H64.1v-4.2h0.56V29.59z"/>
		<path d="M67.83,30.1h-0.56v-4.2h0.56V30.1z"/>
		<path d="M71.55,29.28V25.9h0.53v4.2h-0.61l-2.18-3.37v3.37h-0.53v-4.2h0.61L71.55,29.28z"/>
		<path d="M73.4,28.02c0,0.45,0.11,0.84,0.33,1.17c0.22,0.33,0.58,0.5,1.07,0.52c0.37,0,0.69-0.11,0.94-0.34
			c0.25-0.23,0.38-0.58,0.39-1.07h-1.31v-0.46h1.82v2.25h-0.35l-0.13-0.54c-0.13,0.16-0.31,0.31-0.54,0.44
			c-0.23,0.13-0.5,0.2-0.81,0.21c-0.69-0.02-1.2-0.25-1.51-0.68c-0.32-0.43-0.47-0.95-0.47-1.55c0-0.59,0.16-1.1,0.49-1.53
			c0.33-0.43,0.84-0.65,1.54-0.67c0.57,0.02,1,0.18,1.29,0.47c0.28,0.29,0.43,0.6,0.43,0.91h-0.54c0.01-0.15-0.08-0.33-0.26-0.54
			s-0.48-0.33-0.9-0.35c-0.53,0.01-0.91,0.19-1.14,0.52C73.5,27.13,73.39,27.54,73.4,28.02z"/>
		<path d="M80.82,28.3h-1.16v1.8H79.1v-4.2h1.79c0.4,0,0.72,0.1,0.95,0.29c0.23,0.2,0.35,0.48,0.36,0.86c0,0.25-0.05,0.45-0.16,0.61
			c-0.1,0.15-0.24,0.27-0.41,0.36c0.21,0.06,0.34,0.18,0.4,0.36s0.09,0.38,0.08,0.6c0,0.22,0,0.42,0.02,0.61
			c0.02,0.19,0.08,0.32,0.2,0.4v0.11H81.7c-0.09-0.21-0.14-0.42-0.14-0.63c0-0.21-0.01-0.4-0.01-0.58s-0.06-0.32-0.16-0.42
			C81.29,28.36,81.1,28.3,80.82,28.3z M79.66,26.38v1.44h1.18c0.27,0,0.46-0.07,0.59-0.2c0.13-0.13,0.19-0.3,0.19-0.51
			c0-0.23-0.06-0.41-0.19-0.53c-0.13-0.12-0.32-0.19-0.59-0.19H79.66z"/>
		<path d="M83.11,30.1h-0.57l1.56-4.2h0.63l1.57,4.2h-0.63l-0.44-1.25h-1.67L83.11,30.1z M84.42,26.47l-0.68,1.89h1.33L84.42,26.47z
			"/>
		<path d="M89.54,29.28V25.9h0.53v4.2h-0.61l-2.18-3.37v3.37h-0.53v-4.2h0.61L89.54,29.28z"/>
		<path d="M91.38,28.02c0,0.45,0.11,0.84,0.33,1.17c0.22,0.33,0.58,0.5,1.07,0.52c0.37,0,0.69-0.11,0.94-0.34
			c0.25-0.23,0.38-0.58,0.39-1.07h-1.31v-0.46h1.82v2.25h-0.35l-0.13-0.54C94,29.72,93.82,29.87,93.59,30
			c-0.23,0.13-0.5,0.2-0.81,0.21c-0.69-0.02-1.2-0.25-1.51-0.68c-0.32-0.43-0.47-0.95-0.47-1.55c0-0.59,0.16-1.1,0.49-1.53
			c0.33-0.43,0.84-0.65,1.54-0.67c0.57,0.02,1,0.18,1.29,0.47c0.28,0.29,0.43,0.6,0.43,0.91H94c0.01-0.15-0.08-0.33-0.26-0.54
			s-0.48-0.33-0.9-0.35c-0.53,0.01-0.91,0.19-1.14,0.52C91.48,27.13,91.37,27.54,91.38,28.02z"/>
		<path d="M98.47,25.9v0.52h-2.44v1.27h2.26v0.47h-2.26v1.43h2.49v0.51h-3.06v-4.2H98.47z"/>
	</g>
	<polygon style="fill-rule:evenodd;clip-rule:evenodd;fill:#FFFFFF;" points="122.92,17.11 168.95,17.11 168.95,32.46 122.92,32.46 
		122.92,17.11 	"/>
	<g>
		<path d="M128.22,18.8l1.22,3.56l1.19-3.56h0.59l-1.49,4.2h-0.59l-1.5-4.2H128.22z"/>
		<path d="M131.78,23.01h-0.57l1.56-4.2h0.63l1.57,4.2h-0.63l-0.44-1.25h-1.67L131.78,23.01z M133.09,19.38l-0.68,1.89h1.33
			L133.09,19.38z"/>
		<path d="M135.55,18.8l1.22,3.56l1.19-3.56h0.59l-1.49,4.2h-0.59l-1.5-4.2H135.55z"/>
		<path d="M140.62,23.01v-4.2h1.62c0.66,0.02,1.13,0.22,1.41,0.61s0.41,0.86,0.4,1.42c0,0.64-0.15,1.16-0.46,1.56
			c-0.3,0.4-0.75,0.61-1.35,0.62H140.62z M141.19,22.51h1.02c0.45-0.01,0.77-0.16,0.97-0.47c0.2-0.3,0.29-0.69,0.29-1.16
			c0-0.46-0.1-0.84-0.3-1.14c-0.2-0.3-0.52-0.45-0.97-0.47h-1.02V22.51z"/>
		<path d="M144.88,23.01h-0.57l1.56-4.2h0.63l1.57,4.2h-0.63l-0.44-1.25h-1.67L144.88,23.01z M146.19,19.38l-0.68,1.89h1.33
			L146.19,19.38z"/>
		<path d="M148.52,18.8h0.81l1.15,3.54l1.2-3.54h0.8v4.2h-0.54v-3.54l-1.2,3.54h-0.53l-1.17-3.58v3.58h-0.52V18.8z"/>
		<path d="M155.19,21.22h-1.23v1.79h-0.57v-4.2h1.79c0.4,0,0.7,0.11,0.91,0.33c0.21,0.21,0.32,0.51,0.32,0.89
			c-0.01,0.37-0.12,0.67-0.34,0.88S155.55,21.22,155.19,21.22z M153.96,19.3v1.43h1.18c0.23,0,0.4-0.07,0.52-0.2
			c0.12-0.13,0.18-0.3,0.18-0.51c0-0.23-0.06-0.41-0.19-0.53c-0.12-0.12-0.29-0.19-0.51-0.19H153.96z"/>
		<path d="M160.11,18.8v0.52h-2.44v1.27h2.26v0.47h-2.26v1.43h2.49v0.51h-3.06v-4.2H160.11z"/>
		<path d="M162.58,21.21h-1.16v1.8h-0.57v-4.2h1.79c0.4,0,0.72,0.1,0.95,0.29c0.23,0.2,0.35,0.48,0.36,0.86
			c0,0.25-0.05,0.45-0.15,0.61c-0.1,0.15-0.24,0.27-0.41,0.36c0.21,0.06,0.34,0.18,0.4,0.36s0.09,0.38,0.09,0.6
			c0,0.22,0,0.42,0.02,0.61c0.02,0.19,0.08,0.32,0.2,0.4v0.11h-0.64c-0.09-0.21-0.14-0.42-0.14-0.63c0-0.21-0.01-0.4-0.01-0.58
			s-0.06-0.32-0.16-0.42C163.05,21.27,162.86,21.21,162.58,21.21z M161.42,19.29v1.44h1.18c0.26,0,0.46-0.07,0.59-0.2
			c0.13-0.13,0.19-0.3,0.19-0.51c0-0.23-0.06-0.41-0.19-0.53c-0.13-0.12-0.32-0.19-0.59-0.19H161.42z"/>
	</g>
	<g>
		<path d="M138.66,28.89h-1.16v1.8h-0.56v-4.2h1.79c0.4,0,0.72,0.1,0.95,0.29c0.23,0.2,0.35,0.48,0.36,0.86
			c0,0.25-0.05,0.45-0.16,0.61c-0.1,0.15-0.24,0.27-0.41,0.36c0.21,0.06,0.35,0.18,0.41,0.36s0.09,0.38,0.08,0.6
			c0,0.22,0,0.42,0.02,0.61c0.02,0.19,0.08,0.32,0.2,0.4v0.11h-0.64c-0.09-0.21-0.14-0.42-0.14-0.63c0-0.21-0.01-0.4-0.02-0.58
			c0-0.17-0.06-0.32-0.16-0.42S138.95,28.89,138.66,28.89z M137.51,26.97v1.44h1.18c0.27,0,0.46-0.07,0.59-0.2
			c0.13-0.13,0.19-0.3,0.19-0.51c0-0.23-0.06-0.41-0.19-0.53c-0.13-0.12-0.32-0.19-0.59-0.19H137.51z"/>
		<path d="M140.96,30.69h-0.57l1.56-4.2h0.63l1.57,4.2h-0.63l-0.44-1.25h-1.66L140.96,30.69z M142.26,27.06l-0.68,1.89h1.33
			L142.26,27.06z"/>
		<path d="M147.38,29.87v-3.39h0.53v4.2h-0.62l-2.18-3.37v3.37h-0.53v-4.2h0.62L147.38,29.87z"/>
		<path d="M149.22,28.61c0,0.45,0.11,0.84,0.34,1.17c0.22,0.33,0.58,0.5,1.07,0.52c0.38,0,0.69-0.11,0.94-0.34
			c0.25-0.23,0.38-0.58,0.39-1.07h-1.31v-0.46h1.82v2.25h-0.36l-0.13-0.54c-0.13,0.16-0.31,0.31-0.54,0.44
			c-0.23,0.13-0.5,0.2-0.81,0.21c-0.69-0.02-1.2-0.25-1.51-0.68c-0.32-0.43-0.47-0.95-0.47-1.55c0-0.59,0.16-1.1,0.49-1.53
			c0.33-0.43,0.84-0.65,1.54-0.67c0.57,0.02,1,0.18,1.29,0.47c0.29,0.29,0.43,0.6,0.43,0.91h-0.54c0.01-0.15-0.08-0.33-0.26-0.54
			s-0.48-0.33-0.9-0.35c-0.53,0.01-0.91,0.19-1.13,0.52C149.33,27.71,149.22,28.12,149.22,28.61z"/>
		<path d="M156.32,26.48V27h-2.44v1.27h2.26v0.47h-2.26v1.43h2.49v0.51h-3.06v-4.2H156.32z"/>
	</g>
	<g>
		<path d="M179.39,92.33h-1.6v4.45h-0.68v-4.45h-1.6v-0.59h3.88V92.33z"/>
		<path d="M183.61,91.74v0.62h-2.93v1.53h2.71v0.57h-2.71v1.71h2.99v0.61H180v-5.04H183.61z"/>
		<path d="M184.5,91.74h0.97l1.38,4.25l1.44-4.25h0.96v5.04h-0.65v-4.25l-1.44,4.25h-0.64l-1.4-4.29v4.29h-0.62V91.74z"/>
		<path d="M192.51,94.64h-1.47v2.14h-0.68v-5.04h2.15c0.48,0,0.84,0.13,1.09,0.39c0.25,0.26,0.38,0.61,0.38,1.07
			c-0.01,0.45-0.14,0.8-0.41,1.05S192.95,94.63,192.51,94.64z M191.03,92.33v1.71h1.42c0.28,0,0.49-0.08,0.63-0.24
			s0.21-0.36,0.21-0.61c0-0.28-0.08-0.49-0.22-0.64s-0.35-0.22-0.62-0.22H191.03z"/>
		<path d="M198.41,91.74v0.62h-2.93v1.53h2.71v0.57h-2.71v1.71h2.99v0.61h-3.67v-5.04H198.41z"/>
		<path d="M201.38,94.62h-1.39v2.16h-0.68v-5.04h2.15c0.48,0,0.86,0.12,1.14,0.35c0.28,0.24,0.42,0.58,0.43,1.03
			c0,0.3-0.06,0.54-0.19,0.73c-0.12,0.18-0.29,0.33-0.5,0.43c0.25,0.08,0.41,0.22,0.49,0.44c0.07,0.21,0.11,0.45,0.1,0.72
			c0,0.27,0,0.51,0.02,0.73s0.1,0.38,0.24,0.48v0.13h-0.76c-0.11-0.25-0.17-0.51-0.17-0.76c0-0.25-0.01-0.48-0.02-0.69
			c-0.01-0.21-0.07-0.38-0.19-0.51C201.94,94.69,201.71,94.62,201.38,94.62z M199.98,92.32v1.73h1.42c0.32,0,0.55-0.09,0.71-0.25
			c0.15-0.16,0.23-0.36,0.23-0.62c0-0.28-0.07-0.49-0.22-0.64s-0.39-0.22-0.71-0.22H199.98z"/>
		<path d="M204.13,96.78h-0.69l1.88-5.04h0.75l1.88,5.04h-0.75l-0.52-1.5h-2L204.13,96.78z M205.7,92.43l-0.82,2.27h1.6L205.7,92.43
			z"/>
		<path d="M211.9,92.33h-1.6v4.45h-0.68v-4.45h-1.6v-0.59h3.88V92.33z"/>
		<path d="M215.76,91.74h0.68v3.27c0.01,0.53-0.16,0.98-0.49,1.34c-0.33,0.36-0.85,0.55-1.56,0.56c-0.69-0.02-1.19-0.21-1.48-0.57
			c-0.29-0.36-0.44-0.81-0.43-1.33v-3.27h0.68v3.27c0,0.4,0.11,0.71,0.32,0.93c0.21,0.22,0.53,0.33,0.94,0.33
			c0.5-0.01,0.85-0.14,1.05-0.38c0.2-0.25,0.3-0.56,0.29-0.95V91.74z"/>
		<path d="M219.57,94.62h-1.39v2.16h-0.68v-5.04h2.15c0.48,0,0.86,0.12,1.14,0.35c0.28,0.24,0.42,0.58,0.43,1.03
			c0,0.3-0.06,0.54-0.19,0.73c-0.12,0.18-0.29,0.33-0.5,0.43c0.25,0.08,0.41,0.22,0.49,0.44c0.07,0.21,0.11,0.45,0.1,0.72
			c0,0.27,0,0.51,0.02,0.73s0.1,0.38,0.24,0.48v0.13h-0.76c-0.11-0.25-0.17-0.51-0.17-0.76c0-0.25-0.01-0.48-0.02-0.69
			c-0.01-0.21-0.07-0.38-0.19-0.51C220.14,94.69,219.91,94.62,219.57,94.62z M218.18,92.32v1.73h1.42c0.32,0,0.55-0.09,0.71-0.25
			c0.15-0.16,0.23-0.36,0.23-0.62c0-0.28-0.07-0.49-0.22-0.64s-0.39-0.22-0.71-0.22H218.18z"/>
		<path d="M225.81,91.74v0.62h-2.93v1.53h2.71v0.57h-2.71v1.71h2.99v0.61h-3.67v-5.04H225.81z"/>
	</g>
	<g>
		<path d="M168.77,133.64h-1.6v4.45h-0.68v-4.45h-1.6v-0.59h3.88V133.64z"/>
	</g>
	<g>
		<path d="M173.08,139.73c0,0.39-0.14,0.72-0.42,0.99c-0.28,0.27-0.68,0.42-1.2,0.43c-0.59-0.02-1.01-0.22-1.27-0.59
			c-0.26-0.38-0.38-0.83-0.38-1.35c0-0.56,0.14-1.02,0.42-1.39s0.7-0.55,1.27-0.57c0.46,0.01,0.83,0.13,1.12,0.37
			c0.29,0.24,0.44,0.56,0.45,0.96h-0.6c0-0.19-0.07-0.36-0.21-0.53s-0.39-0.25-0.72-0.26c-0.41,0.01-0.69,0.16-0.85,0.44
			s-0.23,0.6-0.23,0.98c-0.01,0.37,0.07,0.7,0.22,0.97c0.15,0.27,0.43,0.42,0.81,0.43c0.38-0.02,0.64-0.13,0.78-0.33
			s0.22-0.38,0.21-0.55H173.08z"/>
		<path d="M174.32,137.37v2.48c0,0.24,0.06,0.43,0.19,0.57c0.12,0.14,0.31,0.21,0.56,0.21c0.35-0.01,0.62-0.11,0.81-0.32
			s0.29-0.47,0.29-0.78v-2.16h0.61v3.7h-0.58v-0.56c-0.11,0.19-0.26,0.34-0.47,0.46c-0.21,0.12-0.46,0.18-0.75,0.19
			c-0.41,0-0.73-0.1-0.95-0.3c-0.22-0.2-0.33-0.49-0.33-0.88v-2.61H174.32z"/>
	</g>
	<g>
		<path d="M128.05,132.46h-1.6v4.45h-0.68v-4.45h-1.6v-0.59h3.88V132.46z"/>
	</g>
	<g>
		<path d="M132.95,138.55c0,0.39-0.14,0.72-0.42,0.99s-0.68,0.42-1.19,0.43c-0.59-0.02-1.01-0.22-1.27-0.59
			c-0.26-0.38-0.38-0.83-0.38-1.35c0-0.56,0.14-1.02,0.42-1.39c0.28-0.37,0.7-0.55,1.27-0.57c0.46,0.01,0.83,0.13,1.12,0.37
			c0.29,0.24,0.44,0.56,0.44,0.96h-0.59c0-0.19-0.07-0.36-0.21-0.53c-0.15-0.17-0.39-0.25-0.72-0.26c-0.41,0.01-0.69,0.16-0.85,0.44
			c-0.16,0.28-0.23,0.6-0.23,0.98c-0.01,0.37,0.07,0.7,0.22,0.97c0.15,0.27,0.42,0.42,0.81,0.43c0.38-0.02,0.64-0.13,0.78-0.33
			c0.15-0.2,0.22-0.38,0.21-0.55H132.95z"/>
		<path d="M133.6,134.82h0.61v5.04h-0.61V134.82z"/>
	</g>
	<g>
		<path d="M83.19,132.46h-1.6v4.45h-0.68v-4.45h-1.6v-0.59h3.88V132.46z"/>
	</g>
	<g>
		<path d="M86.22,136.7c0.43,0,0.75,0.1,0.96,0.29s0.33,0.48,0.33,0.85v2.61H86.9v-2.34c0.01-0.24-0.04-0.44-0.14-0.61
			c-0.1-0.17-0.32-0.26-0.66-0.27c-0.33,0.01-0.59,0.11-0.78,0.31c-0.19,0.2-0.28,0.43-0.28,0.71v2.2h-0.61v-5.04h0.61v1.91
			c0.09-0.17,0.23-0.31,0.42-0.43C85.65,136.77,85.9,136.7,86.22,136.7z"/>
		<path d="M89.06,136.78v2.48c0,0.24,0.06,0.43,0.19,0.57c0.12,0.14,0.31,0.21,0.57,0.21c0.35-0.01,0.62-0.11,0.81-0.32
			s0.29-0.47,0.29-0.78v-2.16h0.61v3.7h-0.58v-0.56c-0.11,0.19-0.26,0.34-0.47,0.46c-0.21,0.12-0.46,0.18-0.75,0.19
			c-0.41,0-0.73-0.1-0.95-0.3c-0.22-0.2-0.33-0.49-0.33-0.88v-2.61H89.06z"/>
	</g>
	<g>
		<path d="M50.15,133.05h-1.6v4.45h-0.68v-4.45h-1.6v-0.59h3.88V133.05z"/>
	</g>
	<g>
		<path d="M53.76,136.7c0.43,0,0.75,0.1,0.96,0.29s0.33,0.48,0.33,0.85v2.61h-0.61v-2.34c0.01-0.24-0.04-0.44-0.14-0.61
			c-0.1-0.17-0.32-0.26-0.66-0.27c-0.33,0.01-0.59,0.11-0.78,0.31c-0.19,0.2-0.28,0.43-0.28,0.71v2.2h-0.61v-5.04h0.61v1.91
			c0.09-0.17,0.23-0.31,0.42-0.43C53.19,136.77,53.44,136.7,53.76,136.7z"/>
		<path d="M56.01,135.41h0.61v5.04h-0.61V135.41z"/>
	</g>
	<g>
		<path d="M65.78,50.16h-4.15l2.17-4.8L65.78,50.16z M64.96,49.87l-1.38-3.34l-1.52,3.34H64.96z"/>
	</g>
	<g>
		<path d="M70.21,45.71h-1.6v4.45h-0.68v-4.45h-1.6v-0.6h3.88V45.71z"/>
	</g>
	<g>
		<path d="M72.05,48.76c0.43,0,0.75,0.1,0.96,0.29c0.22,0.19,0.33,0.48,0.33,0.85v2.61h-0.61v-2.34c0.01-0.24-0.04-0.44-0.14-0.61
			c-0.1-0.17-0.32-0.26-0.66-0.27c-0.33,0.01-0.59,0.11-0.78,0.31s-0.28,0.43-0.28,0.71v2.2h-0.61v-5.05h0.61v1.91
			c0.09-0.17,0.23-0.31,0.42-0.43S71.73,48.77,72.05,48.76z"/>
	</g>
	<g>
		<path d="M146.04,45.43h-4.15l2.17-4.8L146.04,45.43z M145.22,45.15l-1.38-3.34l-1.52,3.34H145.22z"/>
	</g>
	<g>
		<path d="M150.47,40.98h-1.6v4.45h-0.68v-4.45h-1.6v-0.6h3.88V40.98z"/>
	</g>
	<g>
		<path d="M153.6,46.49c0,0.39-0.14,0.72-0.42,0.99c-0.28,0.27-0.68,0.42-1.2,0.43c-0.59-0.02-1.01-0.22-1.27-0.59
			s-0.38-0.82-0.38-1.35c0-0.56,0.14-1.02,0.42-1.39c0.28-0.37,0.7-0.55,1.27-0.57c0.46,0.01,0.83,0.13,1.12,0.37
			s0.44,0.56,0.45,0.96h-0.6c0-0.19-0.07-0.36-0.21-0.53c-0.14-0.17-0.39-0.25-0.72-0.26c-0.41,0.01-0.69,0.16-0.85,0.44
			s-0.23,0.6-0.23,0.98c-0.01,0.37,0.07,0.7,0.22,0.97c0.15,0.27,0.43,0.42,0.81,0.43c0.38-0.02,0.64-0.13,0.78-0.33
			s0.22-0.38,0.21-0.55H153.6z"/>
	</g>
</g>
</svg>
