<?xml version="1.0" encoding="iso-8859-1"?>
<!-- Generator: Adobe Illustrator 16.0.3, SVG Export Plug-In . SVG Version: 6.00 Build 0)  -->
<!DOCTYPE svg PUBLIC "-//W3C//DTD SVG 1.1//EN" "http://www.w3.org/Graphics/SVG/1.1/DTD/svg11.dtd">
<svg version="1.1" id="Layer_1" xmlns="http://www.w3.org/2000/svg" xmlns:xlink="http://www.w3.org/1999/xlink" x="0px" y="0px"
	 width="292.2px" height="234.96px" viewBox="0 0 292.2 234.96" style="enable-background:new 0 0 292.2 234.96;"
	 xml:space="preserve">
<g>
	<polygon style="fill:none;stroke:#000000;stroke-width:0.96;stroke-linejoin:round;stroke-miterlimit:10;" points="32.52,66 
		162.12,66 162.12,162 32.52,162 32.52,66 	"/>
	<g>
		<path d="M62.83,100.27v-0.88l3.65-4.57c0.26-0.32,0.51-0.61,0.74-0.85h-3.98v-0.84h5.11v0.84l-4,4.95l-0.43,0.5h4.55v0.84H62.83z"
			/>
		<path d="M69.07,97.69c0-0.96,0.27-1.66,0.8-2.13c0.44-0.38,0.99-0.57,1.62-0.57c0.71,0,1.29,0.23,1.74,0.7s0.68,1.11,0.68,1.93
			c0,0.66-0.1,1.19-0.3,1.57s-0.49,0.68-0.87,0.89c-0.38,0.21-0.8,0.32-1.25,0.32c-0.72,0-1.31-0.23-1.75-0.7
			C69.3,99.23,69.07,98.56,69.07,97.69z M69.97,97.69c0,0.66,0.14,1.16,0.43,1.49s0.65,0.49,1.09,0.49c0.43,0,0.8-0.17,1.08-0.5
			s0.43-0.83,0.43-1.51c0-0.64-0.15-1.12-0.44-1.45c-0.29-0.33-0.65-0.49-1.08-0.49c-0.44,0-0.8,0.16-1.09,0.49
			C70.12,96.53,69.97,97.02,69.97,97.69z"/>
		<path d="M74.93,100.27V95.1h0.79v0.73c0.38-0.57,0.93-0.85,1.64-0.85c0.31,0,0.6,0.06,0.86,0.17c0.26,0.11,0.46,0.26,0.59,0.44
			c0.13,0.18,0.22,0.4,0.27,0.65c0.03,0.16,0.05,0.45,0.05,0.85v3.18h-0.88v-3.14c0-0.36-0.03-0.62-0.1-0.8
			c-0.07-0.18-0.19-0.32-0.36-0.42s-0.38-0.16-0.61-0.16c-0.37,0-0.69,0.12-0.97,0.35c-0.27,0.24-0.41,0.69-0.41,1.35v2.82H74.93z"
			/>
		<path d="M83.99,98.6l0.9,0.11c-0.14,0.53-0.41,0.94-0.79,1.23c-0.39,0.29-0.88,0.44-1.48,0.44c-0.76,0-1.35-0.23-1.8-0.7
			c-0.44-0.47-0.66-1.12-0.66-1.96c0-0.87,0.22-1.54,0.67-2.02c0.45-0.48,1.03-0.72,1.74-0.72c0.69,0,1.25,0.24,1.69,0.71
			c0.44,0.47,0.66,1.13,0.66,1.98c0,0.05,0,0.13,0,0.23h-3.85c0.03,0.57,0.19,1,0.48,1.3c0.29,0.3,0.65,0.45,1.08,0.45
			c0.32,0,0.59-0.08,0.82-0.25S83.86,98.97,83.99,98.6z M81.12,97.19H84c-0.04-0.43-0.15-0.76-0.33-0.98
			c-0.28-0.34-0.64-0.51-1.08-0.51c-0.4,0-0.74,0.13-1.01,0.4S81.15,96.74,81.12,97.19z"/>
		<path d="M91.69,100.27h-0.88v-5.58c-0.21,0.2-0.49,0.4-0.83,0.6c-0.34,0.2-0.65,0.35-0.92,0.45V94.9
			c0.49-0.23,0.92-0.51,1.28-0.84c0.37-0.33,0.63-0.65,0.78-0.95h0.56V100.27z"/>
	</g>
	
		<line style="fill:none;stroke:#953735;stroke-width:0.72;stroke-linejoin:round;stroke-miterlimit:10;" x1="139.08" y1="207.24" x2="139.08" y2="161.16"/>
	<polygon style="fill-rule:evenodd;clip-rule:evenodd;fill:#953735;" points="136.08,206.24 139.08,212.24 142.08,206.24 
		136.08,206.24 	"/>
	
		<line style="fill:none;stroke:#4A7EBB;stroke-width:0.72;stroke-linejoin:round;stroke-miterlimit:10;" x1="78.12" y1="35.88" x2="78.12" y2="60.99"/>
	<polygon style="fill-rule:evenodd;clip-rule:evenodd;fill:#4A7EBB;" points="81.12,59.99 78.12,65.99 75.12,59.99 81.12,59.99 	"/>
	<g>
		<defs>
			<polygon id="SVGID_1_" points="84.72,62.4 109.92,62.4 109.92,39.48 84.72,39.48 84.72,62.4 			"/>
		</defs>
		<clipPath id="SVGID_2_">
			<use xlink:href="#SVGID_1_"  style="overflow:visible;"/>
		</clipPath>
		<g style="clip-path:url(#SVGID_2_);">
			<path d="M98.46,58.82l0.5-2.17h0.15c-0.02,0.21-0.03,0.38-0.03,0.52c0,0.39,0.13,0.71,0.39,0.96c0.26,0.25,0.6,0.37,1.03,0.37
				c0.39,0,0.69-0.12,0.89-0.35c0.2-0.23,0.31-0.5,0.31-0.8c0-0.2-0.05-0.37-0.14-0.53c-0.14-0.24-0.52-0.66-1.13-1.26
				c-0.3-0.29-0.49-0.5-0.57-0.64c-0.14-0.23-0.21-0.48-0.21-0.73c0-0.41,0.16-0.76,0.48-1.05s0.72-0.44,1.22-0.44
				c0.17,0,0.33,0.02,0.48,0.05c0.09,0.02,0.26,0.07,0.51,0.17c0.17,0.07,0.27,0.1,0.29,0.11c0.04,0.01,0.09,0.01,0.14,0.01
				c0.09,0,0.16-0.02,0.22-0.06s0.14-0.14,0.22-0.28h0.17l-0.47,1.94h-0.15c0.01-0.17,0.02-0.31,0.02-0.42
				c0-0.35-0.12-0.63-0.36-0.85c-0.24-0.22-0.56-0.33-0.95-0.33c-0.31,0-0.56,0.09-0.76,0.26c-0.19,0.18-0.29,0.38-0.29,0.61
				c0,0.2,0.06,0.39,0.19,0.58c0.12,0.18,0.41,0.48,0.86,0.89s0.74,0.73,0.87,0.97c0.13,0.23,0.2,0.48,0.2,0.74
				c0,0.3-0.08,0.58-0.24,0.86s-0.4,0.49-0.7,0.65s-0.64,0.23-1,0.23c-0.18,0-0.35-0.02-0.5-0.05c-0.16-0.03-0.4-0.11-0.75-0.23
				c-0.12-0.04-0.21-0.06-0.29-0.06c-0.18,0-0.31,0.12-0.41,0.35H98.46z"/>
			<path d="M106.84,52.72l-1.45,4.84c-0.08,0.28-0.13,0.49-0.13,0.62c0,0.11,0.04,0.19,0.11,0.24c0.08,0.06,0.26,0.09,0.54,0.11
				l-0.04,0.16h-2.31l0.06-0.16c0.25-0.01,0.41-0.02,0.49-0.06c0.13-0.05,0.22-0.12,0.28-0.21c0.1-0.13,0.2-0.37,0.3-0.71l1.04-3.47
				c0.06-0.21,0.1-0.33,0.1-0.36c0.01-0.06,0.01-0.11,0.01-0.17c0-0.1-0.03-0.18-0.09-0.24c-0.06-0.06-0.13-0.09-0.23-0.09
				c-0.08,0-0.2,0.02-0.36,0.05l-0.06-0.16l1.51-0.41H106.84z"/>
		</g>
		<g style="clip-path:url(#SVGID_2_);">
			<path d="M90.58,48.02l-1.01,3.36c0.45-0.79,0.83-1.39,1.15-1.78c0.49-0.62,0.97-1.06,1.44-1.34c0.27-0.16,0.56-0.24,0.86-0.24
				c0.26,0,0.47,0.08,0.65,0.24s0.26,0.36,0.26,0.61c0,0.24-0.06,0.56-0.18,0.95l-0.55,1.9c0.84-1.52,1.65-2.58,2.4-3.19
				c0.42-0.34,0.83-0.51,1.24-0.51c0.24,0,0.43,0.08,0.59,0.23s0.23,0.4,0.23,0.73c0,0.29-0.05,0.59-0.14,0.92l-0.85,2.9
				c-0.19,0.63-0.28,0.98-0.28,1.05c0,0.07,0.02,0.13,0.07,0.18c0.03,0.04,0.07,0.05,0.12,0.05c0.05,0,0.14-0.05,0.27-0.14
				c0.3-0.22,0.57-0.51,0.83-0.87l0.26,0.16c-0.13,0.2-0.36,0.47-0.69,0.82s-0.61,0.58-0.84,0.71c-0.23,0.12-0.45,0.19-0.65,0.19
				c-0.18,0-0.33-0.06-0.46-0.18c-0.12-0.12-0.18-0.27-0.18-0.44c0-0.24,0.11-0.72,0.32-1.44l0.71-2.39
				c0.16-0.55,0.25-0.86,0.26-0.92c0.02-0.09,0.02-0.19,0.02-0.28c0-0.12-0.03-0.22-0.09-0.29c-0.06-0.07-0.13-0.1-0.21-0.1
				c-0.22,0-0.45,0.11-0.69,0.32c-0.71,0.63-1.38,1.52-2,2.66c-0.41,0.75-0.79,1.71-1.15,2.89h-1.17l1.33-4.51
				c0.15-0.49,0.22-0.81,0.22-0.98c0-0.13-0.03-0.23-0.09-0.3c-0.06-0.06-0.13-0.1-0.21-0.1c-0.17,0-0.35,0.06-0.54,0.18
				c-0.31,0.19-0.71,0.61-1.2,1.25c-0.49,0.64-0.87,1.25-1.14,1.83c-0.13,0.27-0.44,1.15-0.92,2.63H87.4l1.44-4.83l0.19-0.63
				c0.04-0.09,0.05-0.16,0.05-0.21c0-0.11-0.05-0.21-0.16-0.29c-0.1-0.09-0.24-0.13-0.4-0.13c-0.07,0-0.25,0.03-0.56,0.09
				l-0.07-0.28L90.58,48.02z"/>
		</g>
		<g style="clip-path:url(#SVGID_2_);">
			<path d="M94.25,45.85c-0.14,0.13-0.34,0.2-0.58,0.2c-0.24,0-0.44-0.07-0.58-0.21s-0.21-0.32-0.21-0.56s0.07-0.42,0.21-0.56
				c0.14-0.14,0.34-0.21,0.58-0.21c0.24,0,0.44,0.07,0.58,0.21c0.14,0.14,0.21,0.32,0.21,0.56C94.47,45.53,94.39,45.72,94.25,45.85z
				"/>
		</g>
	</g>
	<g>
		<defs>
			<polygon id="SVGID_3_" points="63.6,189 87.6,189 87.6,167.88 63.6,167.88 63.6,189 			"/>
		</defs>
		<clipPath id="SVGID_4_">
			<use xlink:href="#SVGID_3_"  style="overflow:visible;"/>
		</clipPath>
		<g style="clip-path:url(#SVGID_4_);">
			<path d="M82.09,180.73l1.34-0.64h0.13v4.55c0,0.3,0.01,0.49,0.04,0.56s0.08,0.13,0.16,0.17c0.08,0.04,0.25,0.06,0.5,0.07v0.15
				h-2.07v-0.15c0.26,0,0.43-0.03,0.5-0.07c0.08-0.04,0.13-0.09,0.16-0.15c0.03-0.07,0.04-0.26,0.04-0.58v-2.91
				c0-0.39-0.01-0.64-0.04-0.75c-0.02-0.08-0.05-0.15-0.1-0.19c-0.05-0.04-0.11-0.06-0.18-0.06c-0.1,0-0.24,0.04-0.42,0.12
				L82.09,180.73z"/>
		</g>
		<g style="clip-path:url(#SVGID_4_);">
			<path d="M79.55,185.59l-0.88-2.62c-0.21,0-0.42-0.02-0.63-0.06l-0.48,1.63c-0.06,0.21-0.09,0.39-0.09,0.54
				c0,0.11,0.04,0.2,0.12,0.26c0.06,0.05,0.22,0.08,0.49,0.1l-0.04,0.15H75.9l0.04-0.15c0.2-0.01,0.34-0.03,0.41-0.06
				c0.11-0.04,0.19-0.11,0.24-0.18c0.09-0.12,0.18-0.34,0.27-0.66l0.96-3.26c0.06-0.22,0.1-0.39,0.1-0.5c0-0.12-0.05-0.22-0.15-0.31
				s-0.25-0.13-0.44-0.12l0.05-0.15h1.8c0.6,0,1.04,0.11,1.3,0.33s0.4,0.52,0.4,0.88c0,0.35-0.14,0.67-0.41,0.95
				c-0.27,0.29-0.65,0.47-1.12,0.55l0.54,1.58c0.13,0.39,0.26,0.64,0.39,0.75s0.34,0.18,0.63,0.2l-0.04,0.15H79.55z M78.1,182.68
				c0.17,0.02,0.33,0.04,0.46,0.04c0.47,0,0.83-0.13,1.11-0.38s0.41-0.57,0.41-0.94c0-0.29-0.08-0.52-0.25-0.68
				c-0.17-0.16-0.42-0.23-0.76-0.23c-0.09,0-0.19,0.01-0.31,0.03L78.1,182.68z"/>
		</g>
		<g style="clip-path:url(#SVGID_4_);">
			<path d="M68.9,175.74l-0.91,3.1c0.41-0.73,0.75-1.28,1.04-1.64c0.45-0.57,0.88-0.98,1.3-1.24c0.25-0.15,0.51-0.22,0.78-0.22
				c0.23,0,0.43,0.07,0.58,0.22c0.15,0.15,0.23,0.33,0.23,0.56c0,0.22-0.05,0.52-0.16,0.88l-0.5,1.75c0.76-1.4,1.49-2.38,2.17-2.94
				c0.38-0.31,0.75-0.47,1.13-0.47c0.22,0,0.39,0.07,0.53,0.22c0.14,0.14,0.21,0.37,0.21,0.67c0,0.27-0.04,0.55-0.13,0.85
				l-0.77,2.67c-0.17,0.58-0.25,0.91-0.25,0.97s0.02,0.12,0.06,0.17c0.03,0.03,0.07,0.05,0.11,0.05s0.13-0.04,0.25-0.13
				c0.27-0.2,0.52-0.47,0.75-0.8l0.23,0.14c-0.12,0.18-0.32,0.44-0.62,0.76c-0.3,0.32-0.55,0.54-0.76,0.65s-0.41,0.17-0.58,0.17
				c-0.16,0-0.3-0.05-0.41-0.17c-0.11-0.11-0.17-0.25-0.17-0.41c0-0.22,0.1-0.66,0.29-1.33l0.64-2.21c0.15-0.51,0.22-0.79,0.23-0.85
				c0.01-0.09,0.02-0.17,0.02-0.25c0-0.12-0.03-0.2-0.08-0.27c-0.06-0.06-0.12-0.1-0.19-0.1c-0.2,0-0.41,0.1-0.63,0.29
				c-0.65,0.58-1.25,1.4-1.81,2.45c-0.37,0.69-0.72,1.58-1.04,2.66h-1.06l1.2-4.16c0.13-0.45,0.2-0.75,0.2-0.9
				c0-0.12-0.03-0.22-0.08-0.28s-0.11-0.09-0.19-0.09c-0.15,0-0.32,0.06-0.49,0.17c-0.28,0.18-0.64,0.56-1.09,1.15
				c-0.44,0.59-0.79,1.15-1.03,1.68c-0.12,0.25-0.4,1.06-0.84,2.43h-1.04l1.3-4.46l0.17-0.58c0.03-0.09,0.05-0.15,0.05-0.19
				c0-0.1-0.05-0.19-0.14-0.27c-0.09-0.08-0.21-0.12-0.36-0.12c-0.06,0-0.23,0.03-0.51,0.08l-0.06-0.25L68.9,175.74z"/>
		</g>
		<g style="clip-path:url(#SVGID_4_);">
			<path d="M72.21,173.75c-0.13,0.12-0.3,0.18-0.53,0.18c-0.22,0-0.4-0.06-0.53-0.19c-0.13-0.13-0.19-0.3-0.19-0.51
				s0.06-0.39,0.19-0.51c0.13-0.13,0.3-0.19,0.53-0.19c0.22,0,0.4,0.06,0.53,0.19c0.13,0.13,0.19,0.3,0.19,0.51
				C72.4,173.46,72.34,173.63,72.21,173.75z"/>
		</g>
	</g>
	<g>
		<defs>
			<polygon id="SVGID_5_" points="129.6,233.4 161.4,233.4 161.4,212.16 129.6,212.16 129.6,233.4 			"/>
		</defs>
		<clipPath id="SVGID_6_">
			<use xlink:href="#SVGID_5_"  style="overflow:visible;"/>
		</clipPath>
		<g style="clip-path:url(#SVGID_6_);">
			<path d="M155.84,225.07l1.42-0.64h0.14v4.58c0,0.3,0.01,0.49,0.04,0.57c0.03,0.07,0.08,0.13,0.17,0.17s0.26,0.06,0.53,0.07v0.15
				h-2.2v-0.15c0.28-0.01,0.45-0.03,0.53-0.07s0.14-0.09,0.17-0.16c0.03-0.06,0.05-0.26,0.05-0.58v-2.93c0-0.39-0.02-0.65-0.04-0.76
				c-0.02-0.08-0.06-0.15-0.11-0.19c-0.05-0.04-0.12-0.06-0.19-0.06c-0.11,0-0.25,0.04-0.44,0.12L155.84,225.07z"/>
		</g>
		<g style="clip-path:url(#SVGID_6_);">
			<path d="M145.69,224.83l-0.67,2.14h0.55c0.39,0,0.67-0.05,0.85-0.17c0.17-0.11,0.33-0.32,0.45-0.61h0.16l-0.6,1.97h-0.17
				c0.05-0.17,0.08-0.31,0.08-0.42c0-0.11-0.03-0.21-0.08-0.28s-0.12-0.12-0.21-0.15c-0.09-0.03-0.27-0.05-0.55-0.05h-0.56
				l-0.56,1.79c-0.05,0.17-0.08,0.3-0.08,0.4c0,0.07,0.04,0.13,0.11,0.18c0.05,0.04,0.17,0.06,0.37,0.06h0.52
				c0.56,0,1.01-0.09,1.35-0.28c0.34-0.18,0.64-0.5,0.91-0.96h0.16l-0.55,1.51h-4.52l0.06-0.15c0.22-0.01,0.38-0.02,0.45-0.06
				c0.12-0.05,0.2-0.11,0.25-0.18c0.08-0.11,0.17-0.34,0.28-0.69l1.03-3.27c0.08-0.26,0.12-0.46,0.12-0.6c0-0.1-0.04-0.18-0.11-0.24
				c-0.08-0.06-0.22-0.09-0.45-0.09h-0.09l0.05-0.15h4.2l-0.36,1.31h-0.16c0.02-0.12,0.03-0.22,0.03-0.31
				c0-0.14-0.04-0.26-0.11-0.36c-0.1-0.12-0.24-0.22-0.43-0.28c-0.14-0.05-0.46-0.07-0.95-0.07H145.69z"/>
			<path d="M152.76,224.54h1.98l-0.05,0.15c-0.28,0.04-0.52,0.12-0.73,0.23c-0.21,0.12-0.49,0.35-0.85,0.71l-1.52,1.44l0.43,1.45
				c0.04,0.14,0.12,0.35,0.22,0.64c0.07,0.19,0.14,0.32,0.21,0.4c0.07,0.08,0.16,0.14,0.26,0.18s0.26,0.07,0.48,0.07l-0.05,0.15
				h-2.29l0.05-0.15c0.24-0.01,0.4-0.05,0.51-0.12c0.08-0.05,0.12-0.12,0.12-0.21c0-0.08-0.04-0.24-0.11-0.49l-0.41-1.36l-1.37,1.28
				c-0.27,0.25-0.43,0.42-0.48,0.5c-0.03,0.05-0.05,0.09-0.05,0.14c0,0.08,0.04,0.15,0.13,0.2c0.04,0.02,0.16,0.04,0.37,0.07
				l-0.04,0.15h-1.94l0.05-0.15c0.24-0.02,0.45-0.07,0.6-0.16c0.23-0.13,0.54-0.37,0.94-0.75l1.7-1.58l-0.46-1.56
				c-0.14-0.48-0.26-0.77-0.37-0.88c-0.11-0.11-0.29-0.17-0.55-0.19l0.04-0.15h2.09l-0.05,0.15c-0.19,0-0.32,0.01-0.39,0.03
				c-0.07,0.02-0.12,0.06-0.16,0.1c-0.04,0.05-0.05,0.1-0.05,0.16c0,0.06,0.03,0.21,0.1,0.45l0.4,1.34l0.92-0.85
				c0.36-0.34,0.61-0.61,0.74-0.81c0.05-0.07,0.07-0.14,0.07-0.19c0-0.06-0.03-0.11-0.08-0.14c-0.08-0.05-0.22-0.08-0.44-0.08
				L152.76,224.54z"/>
		</g>
		<g style="clip-path:url(#SVGID_6_);">
			<path d="M135.2,220.07l-0.97,3.12c0.43-0.73,0.8-1.28,1.1-1.65c0.47-0.57,0.93-0.99,1.38-1.25c0.26-0.15,0.54-0.22,0.83-0.22
				c0.25,0,0.45,0.07,0.62,0.22s0.25,0.34,0.25,0.57c0,0.23-0.06,0.52-0.17,0.88l-0.53,1.76c0.81-1.41,1.58-2.39,2.3-2.96
				c0.4-0.31,0.8-0.47,1.19-0.47c0.23,0,0.42,0.07,0.56,0.22c0.15,0.14,0.22,0.37,0.22,0.67c0,0.27-0.04,0.55-0.13,0.85l-0.82,2.69
				c-0.18,0.58-0.27,0.91-0.27,0.97s0.02,0.12,0.07,0.17c0.03,0.03,0.07,0.05,0.12,0.05c0.05,0,0.14-0.04,0.26-0.13
				c0.28-0.2,0.55-0.47,0.8-0.8l0.25,0.15c-0.12,0.18-0.34,0.44-0.66,0.76c-0.32,0.32-0.58,0.54-0.81,0.66s-0.43,0.17-0.62,0.17
				c-0.17,0-0.32-0.06-0.44-0.17s-0.18-0.25-0.18-0.41c0-0.22,0.1-0.67,0.31-1.33l0.68-2.22c0.15-0.51,0.24-0.79,0.25-0.85
				c0.01-0.09,0.02-0.17,0.02-0.26c0-0.12-0.03-0.21-0.08-0.27c-0.06-0.06-0.13-0.1-0.2-0.1c-0.21,0-0.43,0.1-0.66,0.3
				c-0.69,0.58-1.33,1.41-1.92,2.46c-0.39,0.7-0.76,1.59-1.1,2.68h-1.13l1.27-4.18c0.14-0.45,0.21-0.75,0.21-0.91
				c0-0.12-0.03-0.22-0.08-0.28s-0.12-0.09-0.2-0.09c-0.16,0-0.34,0.06-0.52,0.17c-0.3,0.18-0.68,0.56-1.15,1.15
				s-0.83,1.16-1.09,1.69c-0.12,0.25-0.42,1.07-0.89,2.44h-1.1l1.38-4.48l0.18-0.58c0.03-0.09,0.05-0.15,0.05-0.19
				c0-0.1-0.05-0.19-0.15-0.27c-0.1-0.08-0.23-0.12-0.38-0.12c-0.06,0-0.24,0.03-0.54,0.08l-0.07-0.26L135.2,220.07z"/>
		</g>
		<g style="clip-path:url(#SVGID_6_);">
			<path d="M138.73,218.07c-0.14,0.12-0.32,0.18-0.56,0.18s-0.42-0.06-0.56-0.19c-0.14-0.13-0.21-0.3-0.21-0.52
				c0-0.22,0.07-0.39,0.21-0.52c0.14-0.13,0.32-0.19,0.56-0.19s0.42,0.06,0.56,0.19c0.14,0.13,0.21,0.3,0.21,0.52
				C138.93,217.77,138.87,217.95,138.73,218.07z"/>
		</g>
	</g>
	
		<line style="fill:none;stroke:#632523;stroke-width:0.72;stroke-linejoin:round;stroke-miterlimit:10;" x1="96.72" y1="189.92" x2="96.72" y2="162"/>
	<polygon style="fill-rule:evenodd;clip-rule:evenodd;fill:#632523;" points="93.72,188.92 96.72,194.92 99.72,188.92 93.72,188.92 
			"/>
	
		<line style="fill:none;stroke:#632523;stroke-width:0.72;stroke-linejoin:round;stroke-miterlimit:10;" x1="178.78" y1="120.08" x2="139.08" y2="120"/>
	<polygon style="fill-rule:evenodd;clip-rule:evenodd;fill:#632523;" points="177.79,117.08 183.78,120.09 177.78,123.08 
		177.79,117.08 	"/>
	<g>
		<defs>
			<polygon id="SVGID_7_" points="198,130.32 224.64,130.32 224.64,109.68 198,109.68 198,130.32 			"/>
		</defs>
		<clipPath id="SVGID_8_">
			<use xlink:href="#SVGID_7_"  style="overflow:visible;"/>
		</clipPath>
		<g style="clip-path:url(#SVGID_8_);">
			<path d="M215.31,121.73h1.88l-0.04,0.14c-0.27,0.04-0.5,0.11-0.7,0.23c-0.2,0.12-0.47,0.35-0.81,0.69l-1.44,1.4l0.41,1.41
				c0.04,0.13,0.11,0.34,0.21,0.63c0.07,0.18,0.13,0.31,0.2,0.38s0.15,0.13,0.25,0.17s0.25,0.06,0.45,0.07l-0.04,0.14h-2.18
				l0.04-0.14c0.22-0.01,0.38-0.05,0.48-0.12c0.07-0.05,0.11-0.12,0.11-0.2c0-0.07-0.04-0.23-0.11-0.48l-0.39-1.32l-1.3,1.25
				c-0.25,0.25-0.41,0.41-0.46,0.49c-0.03,0.05-0.04,0.09-0.04,0.14c0,0.08,0.04,0.14,0.12,0.19c0.04,0.02,0.15,0.04,0.35,0.07
				l-0.04,0.14h-1.85l0.04-0.14c0.23-0.02,0.42-0.07,0.57-0.15c0.21-0.12,0.51-0.36,0.89-0.73l1.62-1.54l-0.44-1.52
				c-0.13-0.47-0.25-0.75-0.35-0.86c-0.1-0.11-0.27-0.17-0.52-0.18l0.04-0.14h1.99l-0.05,0.14c-0.18,0-0.31,0.01-0.37,0.03
				c-0.06,0.02-0.11,0.06-0.15,0.1c-0.03,0.04-0.05,0.1-0.05,0.15c0,0.06,0.03,0.21,0.1,0.43l0.38,1.3l0.87-0.82
				c0.35-0.33,0.58-0.59,0.71-0.79c0.05-0.07,0.07-0.13,0.07-0.19c0-0.06-0.03-0.11-0.08-0.14c-0.07-0.05-0.21-0.07-0.41-0.08
				L215.31,121.73z"/>
			<path d="M219.58,126.99l-0.89-2.56c-0.21,0-0.42-0.02-0.64-0.06l-0.48,1.59c-0.06,0.21-0.09,0.38-0.09,0.52
				c0,0.11,0.04,0.19,0.12,0.26c0.06,0.05,0.22,0.08,0.49,0.1l-0.04,0.14h-2.15l0.04-0.14c0.2-0.01,0.34-0.03,0.41-0.06
				c0.11-0.04,0.2-0.1,0.25-0.18c0.09-0.12,0.18-0.34,0.28-0.64l0.97-3.18c0.06-0.21,0.1-0.38,0.1-0.49c0-0.12-0.05-0.22-0.15-0.3
				c-0.1-0.08-0.25-0.12-0.44-0.12l0.05-0.14h1.81c0.61,0,1.04,0.11,1.31,0.33c0.27,0.22,0.4,0.5,0.4,0.86
				c0,0.34-0.14,0.65-0.41,0.93c-0.28,0.28-0.65,0.46-1.13,0.53l0.54,1.54c0.13,0.38,0.26,0.62,0.39,0.74s0.34,0.18,0.64,0.19
				l-0.05,0.14H219.58z M218.12,124.15c0.18,0.02,0.33,0.04,0.47,0.04c0.47,0,0.84-0.12,1.12-0.37c0.27-0.25,0.41-0.55,0.41-0.92
				c0-0.29-0.09-0.51-0.26-0.66c-0.17-0.15-0.43-0.23-0.77-0.23c-0.09,0-0.19,0.01-0.31,0.03L218.12,124.15z"/>
		</g>
		<g style="clip-path:url(#SVGID_8_);">
			<path d="M203.34,117.36l-0.92,3.03c0.41-0.71,0.76-1.25,1.05-1.61c0.45-0.56,0.89-0.96,1.31-1.21c0.25-0.14,0.51-0.21,0.79-0.21
				c0.24,0,0.43,0.07,0.59,0.21s0.23,0.33,0.23,0.55c0,0.22-0.05,0.51-0.16,0.86l-0.5,1.71c0.77-1.37,1.5-2.32,2.19-2.88
				c0.38-0.3,0.76-0.46,1.14-0.46c0.22,0,0.39,0.07,0.54,0.21c0.14,0.14,0.21,0.36,0.21,0.66c0,0.26-0.04,0.54-0.13,0.83l-0.78,2.61
				c-0.17,0.57-0.26,0.88-0.26,0.95s0.02,0.12,0.06,0.16c0.03,0.03,0.07,0.05,0.11,0.05s0.13-0.04,0.25-0.13
				c0.27-0.2,0.52-0.46,0.76-0.78l0.23,0.14c-0.12,0.18-0.33,0.43-0.63,0.74s-0.56,0.53-0.77,0.64c-0.21,0.11-0.41,0.17-0.59,0.17
				c-0.17,0-0.3-0.05-0.42-0.16s-0.17-0.24-0.17-0.4c0-0.21,0.1-0.65,0.29-1.3l0.64-2.16c0.15-0.5,0.22-0.77,0.23-0.83
				c0.01-0.09,0.02-0.17,0.02-0.25c0-0.11-0.03-0.2-0.08-0.26c-0.06-0.06-0.12-0.09-0.19-0.09c-0.2,0-0.41,0.1-0.63,0.29
				c-0.65,0.57-1.26,1.37-1.83,2.39c-0.37,0.68-0.72,1.54-1.05,2.6h-1.07l1.21-4.06c0.13-0.44,0.2-0.73,0.2-0.88
				c0-0.12-0.03-0.21-0.08-0.27c-0.05-0.06-0.12-0.09-0.19-0.09c-0.16,0-0.32,0.05-0.5,0.16c-0.29,0.17-0.65,0.55-1.1,1.12
				c-0.45,0.57-0.79,1.12-1.04,1.65c-0.12,0.25-0.4,1.04-0.84,2.37h-1.05l1.31-4.35l0.17-0.56c0.03-0.08,0.05-0.15,0.05-0.19
				c0-0.1-0.05-0.19-0.14-0.27c-0.09-0.08-0.21-0.12-0.36-0.12c-0.06,0-0.23,0.03-0.51,0.08l-0.06-0.25L203.34,117.36z"/>
		</g>
		<g style="clip-path:url(#SVGID_8_);">
			<path d="M206.69,115.42c-0.13,0.12-0.31,0.18-0.53,0.18s-0.4-0.06-0.53-0.19c-0.13-0.12-0.2-0.29-0.2-0.5s0.07-0.38,0.2-0.5
				s0.31-0.19,0.53-0.19s0.4,0.06,0.53,0.19s0.2,0.29,0.2,0.5C206.88,115.13,206.82,115.3,206.69,115.42z"/>
		</g>
	</g>
	<polygon style="fill:none;stroke:#000000;stroke-width:0.96;stroke-linejoin:round;stroke-miterlimit:10;" points="162.12,66 
		291.72,66 291.72,162 162.12,162 162.12,66 	"/>
	
		<line style="fill:none;stroke:#4A7EBB;stroke-width:0.72;stroke-linejoin:round;stroke-miterlimit:10;" x1="244.8" y1="35.88" x2="244.8" y2="60.99"/>
	<polygon style="fill-rule:evenodd;clip-rule:evenodd;fill:#4A7EBB;" points="247.8,59.99 244.8,65.99 241.8,59.99 247.8,59.99 	"/>
	
		<line style="fill:none;stroke:#953735;stroke-width:0.72;stroke-linejoin:round;stroke-miterlimit:10;" x1="270.72" y1="162" x2="270.72" y2="207.21"/>
	<polygon style="fill-rule:evenodd;clip-rule:evenodd;fill:#953735;" points="273.72,206.21 270.72,212.21 267.72,206.21 
		273.72,206.21 	"/>
	<g>
		<defs>
			<polygon id="SVGID_9_" points="187.2,189 212.52,189 212.52,167.88 187.2,167.88 187.2,189 			"/>
		</defs>
		<clipPath id="SVGID_10_">
			<use xlink:href="#SVGID_9_"  style="overflow:visible;"/>
		</clipPath>
		<g style="clip-path:url(#SVGID_10_);">
			<path d="M209.54,184.55l-0.39,1.04h-3.27v-0.15c0.96-0.85,1.64-1.55,2.03-2.09c0.39-0.54,0.59-1.04,0.59-1.48
				c0-0.34-0.11-0.62-0.32-0.84c-0.21-0.22-0.47-0.33-0.77-0.33c-0.27,0-0.52,0.08-0.73,0.23s-0.38,0.38-0.48,0.68h-0.15
				c0.07-0.49,0.24-0.87,0.53-1.13c0.28-0.26,0.63-0.39,1.05-0.39c0.45,0,0.82,0.14,1.13,0.42c0.3,0.28,0.45,0.61,0.45,0.99
				c0,0.27-0.06,0.55-0.2,0.82c-0.2,0.43-0.53,0.88-0.98,1.36c-0.68,0.72-1.1,1.16-1.27,1.3h1.45c0.29,0,0.5-0.01,0.62-0.03
				c0.12-0.02,0.22-0.06,0.32-0.13c0.1-0.07,0.18-0.16,0.25-0.28H209.54z"/>
		</g>
		<g style="clip-path:url(#SVGID_10_);">
			<path d="M203.22,185.59l-0.89-2.62c-0.21,0-0.42-0.02-0.64-0.06l-0.48,1.63c-0.06,0.21-0.09,0.39-0.09,0.54
				c0,0.11,0.04,0.2,0.12,0.26c0.06,0.05,0.22,0.08,0.49,0.1l-0.04,0.15h-2.14l0.04-0.15c0.2-0.01,0.34-0.03,0.41-0.06
				c0.11-0.04,0.19-0.11,0.25-0.18c0.09-0.12,0.18-0.34,0.27-0.66l0.97-3.26c0.07-0.22,0.1-0.39,0.1-0.5c0-0.12-0.05-0.22-0.15-0.31
				s-0.25-0.13-0.44-0.12l0.05-0.15h1.81c0.6,0,1.04,0.11,1.31,0.33c0.27,0.22,0.4,0.52,0.4,0.88c0,0.35-0.14,0.67-0.41,0.95
				c-0.28,0.29-0.65,0.47-1.13,0.55l0.54,1.58c0.13,0.39,0.26,0.64,0.39,0.75s0.34,0.18,0.63,0.2l-0.04,0.15H203.22z M201.77,182.68
				c0.18,0.02,0.33,0.04,0.47,0.04c0.47,0,0.84-0.13,1.11-0.38c0.27-0.25,0.41-0.57,0.41-0.94c0-0.29-0.09-0.52-0.26-0.68
				s-0.43-0.23-0.77-0.23c-0.09,0-0.19,0.01-0.31,0.03L201.77,182.68z"/>
		</g>
		<g style="clip-path:url(#SVGID_10_);">
			<path d="M192.52,175.74l-0.92,3.1c0.41-0.73,0.76-1.28,1.04-1.64c0.45-0.57,0.88-0.98,1.31-1.24c0.25-0.15,0.51-0.22,0.78-0.22
				c0.24,0,0.43,0.07,0.59,0.22c0.16,0.15,0.23,0.33,0.23,0.56c0,0.22-0.05,0.52-0.16,0.88l-0.5,1.75c0.77-1.4,1.49-2.38,2.18-2.94
				c0.38-0.31,0.76-0.47,1.13-0.47c0.22,0,0.39,0.07,0.53,0.22c0.14,0.14,0.21,0.37,0.21,0.67c0,0.27-0.04,0.55-0.13,0.85
				l-0.78,2.67c-0.17,0.58-0.25,0.91-0.25,0.97s0.02,0.12,0.06,0.17c0.03,0.03,0.07,0.05,0.11,0.05s0.13-0.04,0.25-0.13
				c0.27-0.2,0.52-0.47,0.76-0.8l0.23,0.14c-0.12,0.18-0.33,0.44-0.63,0.76c-0.3,0.32-0.55,0.54-0.77,0.65
				c-0.21,0.11-0.41,0.17-0.59,0.17c-0.16,0-0.3-0.05-0.41-0.17c-0.11-0.11-0.17-0.25-0.17-0.41c0-0.22,0.1-0.66,0.29-1.33
				l0.64-2.21c0.15-0.51,0.22-0.79,0.23-0.85c0.01-0.09,0.02-0.17,0.02-0.25c0-0.12-0.03-0.2-0.08-0.27
				c-0.06-0.06-0.12-0.1-0.19-0.1c-0.2,0-0.41,0.1-0.63,0.29c-0.65,0.58-1.26,1.4-1.82,2.45c-0.37,0.69-0.72,1.58-1.05,2.66H193
				l1.21-4.16c0.13-0.45,0.2-0.75,0.2-0.9c0-0.12-0.03-0.22-0.08-0.28c-0.05-0.06-0.12-0.09-0.19-0.09c-0.16,0-0.32,0.06-0.5,0.17
				c-0.28,0.18-0.65,0.56-1.09,1.15c-0.45,0.59-0.79,1.15-1.04,1.68c-0.12,0.25-0.4,1.06-0.84,2.43h-1.04l1.31-4.46l0.17-0.58
				c0.03-0.09,0.05-0.15,0.05-0.19c0-0.1-0.05-0.19-0.14-0.27c-0.09-0.08-0.21-0.12-0.36-0.12c-0.06,0-0.23,0.03-0.51,0.08
				l-0.06-0.25L192.52,175.74z"/>
		</g>
		<g style="clip-path:url(#SVGID_10_);">
			<path d="M195.86,173.75c-0.13,0.12-0.3,0.18-0.53,0.18s-0.4-0.06-0.53-0.19c-0.13-0.13-0.2-0.3-0.2-0.51s0.06-0.39,0.2-0.51
				c0.13-0.13,0.3-0.19,0.53-0.19s0.4,0.06,0.53,0.19c0.13,0.13,0.2,0.3,0.2,0.51C196.05,173.46,195.99,173.63,195.86,173.75z"/>
		</g>
	</g>
	<g>
		<defs>
			<polygon id="SVGID_11_" points="212.28,62.4 240.12,62.4 240.12,39.48 212.28,39.48 212.28,62.4 			"/>
		</defs>
		<clipPath id="SVGID_12_">
			<use xlink:href="#SVGID_11_"  style="overflow:visible;"/>
		</clipPath>
		<g style="clip-path:url(#SVGID_12_);">
			<path d="M236.3,57.56l-0.43,1.13h-3.59v-0.16c1.06-0.93,1.8-1.68,2.23-2.27c0.43-0.59,0.65-1.12,0.65-1.61
				c0-0.37-0.12-0.68-0.35-0.91s-0.52-0.36-0.85-0.36c-0.3,0-0.57,0.08-0.81,0.25c-0.24,0.17-0.41,0.42-0.53,0.74h-0.17
				c0.07-0.53,0.27-0.94,0.58-1.22c0.31-0.28,0.7-0.43,1.16-0.43c0.49,0,0.91,0.15,1.24,0.46c0.33,0.31,0.5,0.66,0.5,1.08
				c0,0.3-0.07,0.59-0.21,0.89c-0.22,0.47-0.58,0.96-1.08,1.48c-0.74,0.78-1.21,1.25-1.4,1.41h1.59c0.32,0,0.55-0.01,0.68-0.03
				c0.13-0.02,0.25-0.07,0.35-0.14c0.11-0.07,0.2-0.17,0.27-0.3H236.3z"/>
		</g>
		<g style="clip-path:url(#SVGID_12_);">
			<path d="M226.01,58.82l0.5-2.17h0.15c-0.02,0.21-0.03,0.38-0.03,0.52c0,0.39,0.13,0.71,0.39,0.96c0.26,0.25,0.6,0.37,1.03,0.37
				c0.39,0,0.69-0.12,0.89-0.35s0.31-0.5,0.31-0.8c0-0.2-0.05-0.37-0.14-0.53c-0.14-0.24-0.52-0.66-1.13-1.26
				c-0.3-0.29-0.49-0.5-0.57-0.64c-0.14-0.23-0.21-0.48-0.21-0.73c0-0.41,0.16-0.76,0.48-1.05c0.32-0.29,0.72-0.44,1.22-0.44
				c0.17,0,0.33,0.02,0.48,0.05c0.09,0.02,0.26,0.07,0.51,0.17c0.17,0.07,0.27,0.1,0.29,0.11c0.04,0.01,0.09,0.01,0.14,0.01
				c0.09,0,0.16-0.02,0.22-0.06c0.06-0.04,0.14-0.14,0.22-0.28h0.17l-0.47,1.94h-0.15c0.01-0.17,0.02-0.31,0.02-0.42
				c0-0.35-0.12-0.63-0.36-0.85c-0.24-0.22-0.55-0.33-0.95-0.33c-0.31,0-0.56,0.09-0.76,0.26c-0.2,0.18-0.29,0.38-0.29,0.61
				c0,0.2,0.06,0.39,0.19,0.58c0.12,0.18,0.41,0.48,0.86,0.89s0.74,0.73,0.87,0.97c0.13,0.23,0.2,0.48,0.2,0.74
				c0,0.3-0.08,0.58-0.24,0.86c-0.16,0.28-0.4,0.49-0.7,0.65c-0.31,0.15-0.64,0.23-1,0.23c-0.18,0-0.35-0.02-0.5-0.05
				c-0.15-0.03-0.4-0.11-0.74-0.23c-0.12-0.04-0.21-0.06-0.29-0.06c-0.18,0-0.31,0.12-0.41,0.35H226.01z"/>
		</g>
		<g style="clip-path:url(#SVGID_12_);">
			<path d="M218.13,48.01l-1.01,3.36c0.45-0.79,0.83-1.39,1.15-1.78c0.49-0.62,0.97-1.06,1.44-1.34c0.28-0.16,0.56-0.24,0.86-0.24
				c0.26,0,0.47,0.08,0.64,0.24c0.17,0.16,0.26,0.36,0.26,0.61c0,0.24-0.06,0.56-0.18,0.95l-0.55,1.9c0.85-1.52,1.64-2.58,2.4-3.19
				c0.42-0.34,0.83-0.51,1.24-0.51c0.24,0,0.43,0.08,0.59,0.23s0.23,0.4,0.23,0.73c0,0.29-0.05,0.59-0.14,0.92l-0.86,2.9
				c-0.19,0.63-0.28,0.98-0.28,1.05c0,0.07,0.02,0.13,0.07,0.18c0.03,0.04,0.07,0.05,0.12,0.05c0.05,0,0.14-0.05,0.27-0.14
				c0.29-0.22,0.57-0.51,0.83-0.87l0.26,0.16c-0.13,0.2-0.36,0.47-0.69,0.82c-0.33,0.35-0.61,0.58-0.84,0.71
				c-0.23,0.12-0.45,0.19-0.64,0.19c-0.18,0-0.33-0.06-0.46-0.18s-0.18-0.27-0.18-0.44c0-0.24,0.11-0.72,0.32-1.44l0.71-2.39
				c0.16-0.55,0.25-0.86,0.26-0.92c0.02-0.09,0.02-0.19,0.02-0.28c0-0.12-0.03-0.22-0.09-0.29c-0.06-0.07-0.13-0.1-0.21-0.1
				c-0.22,0-0.45,0.11-0.69,0.32c-0.71,0.63-1.38,1.52-2,2.66c-0.41,0.75-0.79,1.71-1.15,2.89h-1.17l1.33-4.51
				c0.14-0.49,0.22-0.81,0.22-0.98c0-0.13-0.03-0.23-0.09-0.3c-0.06-0.06-0.13-0.1-0.21-0.1c-0.17,0-0.35,0.06-0.54,0.18
				c-0.31,0.19-0.71,0.61-1.2,1.25s-0.87,1.25-1.14,1.83c-0.13,0.27-0.44,1.15-0.92,2.63h-1.15l1.44-4.83l0.19-0.63
				c0.04-0.09,0.05-0.16,0.05-0.21c0-0.11-0.05-0.21-0.16-0.29s-0.24-0.13-0.4-0.13c-0.07,0-0.25,0.03-0.56,0.09l-0.07-0.28
				L218.13,48.01z"/>
		</g>
		<g style="clip-path:url(#SVGID_12_);">
			<path d="M221.78,45.85c-0.14,0.13-0.34,0.2-0.58,0.2s-0.44-0.07-0.58-0.21s-0.21-0.32-0.21-0.56s0.07-0.42,0.21-0.56
				c0.14-0.14,0.34-0.21,0.58-0.21s0.44,0.07,0.58,0.21c0.14,0.14,0.21,0.32,0.21,0.56C222,45.53,221.92,45.72,221.78,45.85z"/>
		</g>
	</g>
	<g>
		<defs>
			<polygon id="SVGID_13_" points="247.44,234.96 280.44,234.96 280.44,213.72 247.44,213.72 247.44,234.96 			"/>
		</defs>
		<clipPath id="SVGID_14_">
			<use xlink:href="#SVGID_13_"  style="overflow:visible;"/>
		</clipPath>
		<g style="clip-path:url(#SVGID_14_);">
			<path d="M277.57,230.49l-0.41,1.04h-3.44v-0.15c1.01-0.86,1.72-1.56,2.14-2.1c0.41-0.54,0.62-1.04,0.62-1.49
				c0-0.34-0.11-0.63-0.34-0.85c-0.23-0.22-0.5-0.33-0.81-0.33c-0.29,0-0.54,0.08-0.77,0.23c-0.23,0.16-0.4,0.38-0.51,0.69h-0.16
				c0.07-0.49,0.26-0.87,0.55-1.14s0.67-0.4,1.11-0.4c0.47,0,0.87,0.14,1.18,0.42s0.48,0.62,0.48,1c0,0.27-0.07,0.55-0.21,0.82
				c-0.21,0.43-0.56,0.89-1.03,1.37c-0.71,0.73-1.16,1.16-1.34,1.31h1.52c0.31,0,0.53-0.01,0.65-0.03s0.24-0.06,0.34-0.13
				c0.1-0.07,0.19-0.16,0.26-0.28H277.57z"/>
		</g>
		<g style="clip-path:url(#SVGID_14_);">
			<path d="M263.5,226.41l-0.67,2.14h0.54c0.39,0,0.67-0.05,0.85-0.17c0.17-0.11,0.32-0.32,0.45-0.61h0.16l-0.6,1.97h-0.17
				c0.05-0.17,0.08-0.31,0.08-0.42c0-0.11-0.03-0.21-0.08-0.28c-0.05-0.07-0.12-0.12-0.21-0.15c-0.09-0.03-0.27-0.05-0.55-0.05
				h-0.55l-0.56,1.79c-0.05,0.17-0.08,0.3-0.08,0.4c0,0.07,0.04,0.13,0.11,0.18c0.05,0.04,0.17,0.06,0.37,0.06h0.52
				c0.56,0,1.01-0.09,1.34-0.28c0.34-0.18,0.64-0.5,0.9-0.96h0.16l-0.55,1.51h-4.51l0.06-0.15c0.22-0.01,0.37-0.02,0.45-0.06
				c0.11-0.05,0.2-0.11,0.25-0.18c0.08-0.11,0.17-0.34,0.28-0.69l1.02-3.27c0.08-0.26,0.12-0.46,0.12-0.6c0-0.1-0.04-0.18-0.11-0.24
				c-0.08-0.06-0.22-0.09-0.45-0.09h-0.09l0.05-0.15h4.19l-0.36,1.31h-0.16c0.02-0.12,0.03-0.22,0.03-0.31
				c0-0.14-0.04-0.26-0.11-0.36c-0.1-0.12-0.24-0.22-0.43-0.28c-0.14-0.05-0.46-0.07-0.95-0.07H263.5z"/>
			<path d="M270.55,226.11h1.97l-0.05,0.15c-0.28,0.04-0.52,0.12-0.73,0.23c-0.21,0.12-0.49,0.35-0.85,0.71l-1.51,1.44l0.43,1.45
				c0.04,0.14,0.11,0.35,0.22,0.64c0.07,0.19,0.14,0.32,0.21,0.4s0.15,0.14,0.26,0.18c0.1,0.04,0.26,0.07,0.47,0.07l-0.05,0.15
				h-2.29l0.05-0.15c0.23-0.01,0.4-0.05,0.51-0.12c0.08-0.05,0.12-0.12,0.12-0.21c0-0.08-0.04-0.24-0.11-0.49l-0.41-1.36l-1.37,1.28
				c-0.27,0.25-0.43,0.42-0.48,0.5c-0.03,0.05-0.05,0.09-0.05,0.14c0,0.08,0.04,0.15,0.13,0.2c0.04,0.02,0.16,0.04,0.37,0.07
				l-0.04,0.15h-1.94l0.05-0.15c0.24-0.02,0.44-0.07,0.6-0.16c0.23-0.13,0.54-0.37,0.94-0.75l1.69-1.58l-0.46-1.56
				c-0.14-0.48-0.26-0.77-0.37-0.88c-0.1-0.11-0.29-0.17-0.55-0.19l0.04-0.15h2.09l-0.05,0.15c-0.19,0-0.32,0.01-0.39,0.03
				c-0.07,0.02-0.12,0.06-0.15,0.1c-0.04,0.05-0.05,0.1-0.05,0.16c0,0.06,0.03,0.21,0.1,0.45l0.39,1.34l0.92-0.85
				c0.36-0.34,0.61-0.61,0.74-0.81c0.05-0.07,0.07-0.14,0.07-0.19c0-0.06-0.03-0.11-0.08-0.14c-0.08-0.05-0.22-0.08-0.43-0.08
				L270.55,226.11z"/>
		</g>
		<g style="clip-path:url(#SVGID_14_);">
			<path d="M253.05,221.64l-0.97,3.12c0.43-0.73,0.8-1.28,1.1-1.65c0.47-0.57,0.93-0.99,1.38-1.25c0.26-0.15,0.54-0.22,0.82-0.22
				c0.25,0,0.46,0.07,0.62,0.22c0.16,0.15,0.24,0.34,0.24,0.57c0,0.23-0.06,0.52-0.17,0.88l-0.53,1.76c0.81-1.41,1.57-2.39,2.3-2.96
				c0.4-0.31,0.8-0.47,1.19-0.47c0.23,0,0.42,0.07,0.56,0.22c0.14,0.14,0.22,0.37,0.22,0.67c0,0.27-0.04,0.55-0.13,0.85l-0.82,2.69
				c-0.18,0.58-0.27,0.91-0.27,0.97s0.02,0.12,0.07,0.17c0.03,0.03,0.07,0.05,0.12,0.05c0.05,0,0.13-0.04,0.26-0.13
				c0.28-0.2,0.55-0.47,0.79-0.8l0.25,0.15c-0.13,0.18-0.34,0.44-0.66,0.76c-0.31,0.32-0.58,0.54-0.81,0.66s-0.43,0.17-0.62,0.17
				c-0.17,0-0.32-0.06-0.44-0.17s-0.17-0.25-0.17-0.41c0-0.22,0.1-0.67,0.3-1.33l0.68-2.22c0.15-0.51,0.24-0.79,0.25-0.85
				c0.01-0.09,0.02-0.17,0.02-0.26c0-0.12-0.03-0.21-0.08-0.27c-0.06-0.06-0.13-0.1-0.2-0.1c-0.21,0-0.43,0.1-0.66,0.3
				c-0.69,0.58-1.32,1.41-1.92,2.46c-0.39,0.7-0.76,1.59-1.1,2.68h-1.12l1.27-4.18c0.14-0.45,0.21-0.75,0.21-0.91
				c0-0.12-0.03-0.22-0.08-0.28s-0.12-0.09-0.2-0.09c-0.16,0-0.34,0.06-0.52,0.17c-0.3,0.18-0.68,0.56-1.15,1.15
				s-0.83,1.16-1.09,1.69c-0.12,0.25-0.42,1.07-0.88,2.44h-1.1l1.38-4.48l0.18-0.58c0.04-0.09,0.05-0.15,0.05-0.19
				c0-0.1-0.05-0.19-0.15-0.27c-0.1-0.08-0.23-0.12-0.38-0.12c-0.06,0-0.24,0.03-0.54,0.08l-0.07-0.26L253.05,221.64z"/>
		</g>
		<g style="clip-path:url(#SVGID_14_);">
			<path d="M256.55,219.64c-0.14,0.12-0.32,0.18-0.55,0.18c-0.23,0-0.42-0.06-0.56-0.19c-0.14-0.13-0.21-0.3-0.21-0.52
				c0-0.22,0.07-0.39,0.21-0.52c0.14-0.13,0.32-0.19,0.56-0.19c0.23,0,0.42,0.06,0.55,0.19c0.14,0.13,0.21,0.3,0.21,0.52
				C256.76,219.34,256.69,219.52,256.55,219.64z"/>
		</g>
	</g>
	<g>
		<path d="M248.62,100.27v-0.88l3.65-4.57c0.26-0.32,0.51-0.61,0.74-0.85h-3.98v-0.84h5.11v0.84l-4,4.95l-0.43,0.5h4.55v0.84H248.62
			z"/>
		<path d="M254.86,97.69c0-0.96,0.27-1.66,0.8-2.13c0.45-0.38,0.99-0.57,1.63-0.57c0.71,0,1.29,0.23,1.74,0.7
			c0.45,0.47,0.68,1.11,0.68,1.93c0,0.66-0.1,1.19-0.3,1.57c-0.2,0.38-0.49,0.68-0.87,0.89c-0.38,0.21-0.8,0.32-1.25,0.32
			c-0.72,0-1.31-0.23-1.75-0.7C255.09,99.23,254.86,98.56,254.86,97.69z M255.76,97.69c0,0.66,0.14,1.16,0.43,1.49
			c0.29,0.33,0.65,0.49,1.09,0.49c0.44,0,0.8-0.17,1.08-0.5c0.29-0.33,0.43-0.83,0.43-1.51c0-0.64-0.14-1.12-0.44-1.45
			c-0.29-0.33-0.65-0.49-1.08-0.49c-0.44,0-0.8,0.16-1.09,0.49C255.91,96.53,255.76,97.02,255.76,97.69z"/>
		<path d="M260.72,100.27V95.1h0.79v0.73c0.38-0.57,0.93-0.85,1.64-0.85c0.31,0,0.6,0.06,0.86,0.17c0.26,0.11,0.46,0.26,0.59,0.44
			c0.13,0.18,0.22,0.4,0.27,0.65c0.03,0.16,0.05,0.45,0.05,0.85v3.18h-0.88v-3.14c0-0.36-0.04-0.62-0.1-0.8
			c-0.07-0.18-0.19-0.32-0.36-0.42s-0.38-0.16-0.61-0.16c-0.37,0-0.69,0.12-0.96,0.35c-0.27,0.24-0.41,0.69-0.41,1.35v2.82H260.72z"
			/>
		<path d="M269.78,98.6l0.9,0.11c-0.14,0.53-0.41,0.94-0.79,1.23c-0.38,0.29-0.88,0.44-1.48,0.44c-0.75,0-1.35-0.23-1.8-0.7
			c-0.44-0.47-0.66-1.12-0.66-1.96c0-0.87,0.22-1.54,0.67-2.02c0.45-0.48,1.03-0.72,1.74-0.72c0.69,0,1.25,0.24,1.69,0.71
			c0.44,0.47,0.66,1.13,0.66,1.98c0,0.05,0,0.13,0,0.23h-3.85c0.03,0.57,0.19,1,0.48,1.3c0.29,0.3,0.65,0.45,1.08,0.45
			c0.32,0,0.6-0.08,0.82-0.25S269.65,98.97,269.78,98.6z M266.91,97.19h2.88c-0.04-0.43-0.15-0.76-0.33-0.98
			c-0.28-0.34-0.64-0.51-1.08-0.51c-0.4,0-0.74,0.13-1.02,0.4C267.09,96.38,266.94,96.74,266.91,97.19z"/>
		<path d="M278.78,99.43v0.84h-4.71c-0.01-0.21,0.03-0.41,0.1-0.61c0.12-0.32,0.31-0.64,0.58-0.95c0.26-0.31,0.65-0.67,1.14-1.08
			c0.78-0.64,1.3-1.14,1.57-1.51c0.27-0.37,0.41-0.72,0.41-1.05c0-0.35-0.13-0.64-0.37-0.88s-0.57-0.36-0.97-0.36
			c-0.42,0-0.76,0.13-1.01,0.38c-0.25,0.25-0.38,0.6-0.38,1.05l-0.9-0.09c0.06-0.67,0.29-1.18,0.7-1.53
			c0.4-0.35,0.94-0.53,1.62-0.53c0.68,0,1.22,0.19,1.62,0.57s0.6,0.85,0.6,1.41c0,0.29-0.06,0.57-0.17,0.84
			c-0.12,0.28-0.31,0.57-0.58,0.87c-0.27,0.3-0.72,0.72-1.35,1.25c-0.53,0.44-0.86,0.74-1.01,0.9c-0.15,0.16-0.27,0.32-0.37,0.47
			H278.78z"/>
	</g>
	
		<line style="fill:none;stroke:#632523;stroke-width:0.72;stroke-linejoin:round;stroke-miterlimit:10;" x1="183.72" y1="189.8" x2="183.72" y2="161.88"/>
	<polygon style="fill-rule:evenodd;clip-rule:evenodd;fill:#632523;" points="180.72,188.8 183.72,194.8 186.72,188.8 180.72,188.8 
			"/>
	
		<line style="fill:none;stroke:#4A7EBB;stroke-width:0.72;stroke-linejoin:round;stroke-miterlimit:10;" x1="0" y1="35.86" x2="244.85" y2="35.76"/>
	
		<line style="fill:none;stroke:#953735;stroke-width:0.72;stroke-linejoin:round;stroke-miterlimit:10;" x1="0" y1="194.04" x2="184.27" y2="194.16"/>
	<g>
		<defs>
			<polygon id="SVGID_15_" points="92.64,130.32 118.08,130.32 118.08,109.68 92.64,109.68 92.64,130.32 			"/>
		</defs>
		<clipPath id="SVGID_16_">
			<use xlink:href="#SVGID_15_"  style="overflow:visible;"/>
		</clipPath>
		<g style="clip-path:url(#SVGID_16_);">
			<path d="M109.96,121.73h1.88l-0.04,0.14c-0.27,0.04-0.5,0.11-0.7,0.23s-0.47,0.35-0.81,0.69l-1.44,1.4l0.41,1.41
				c0.04,0.13,0.11,0.34,0.21,0.63c0.07,0.18,0.13,0.31,0.2,0.38c0.07,0.08,0.15,0.13,0.25,0.17s0.25,0.06,0.45,0.07l-0.05,0.14
				h-2.18l0.05-0.14c0.22-0.01,0.39-0.05,0.48-0.12c0.07-0.05,0.11-0.12,0.11-0.2c0-0.07-0.04-0.23-0.11-0.48l-0.39-1.32l-1.3,1.25
				c-0.25,0.25-0.41,0.41-0.46,0.49c-0.03,0.05-0.05,0.09-0.05,0.14c0,0.08,0.04,0.14,0.12,0.19c0.04,0.02,0.15,0.04,0.35,0.07
				l-0.04,0.14h-1.85l0.04-0.14c0.23-0.02,0.42-0.07,0.57-0.15c0.22-0.12,0.51-0.36,0.89-0.73l1.62-1.54l-0.44-1.52
				c-0.13-0.47-0.25-0.75-0.35-0.86c-0.1-0.11-0.27-0.17-0.52-0.18l0.04-0.14h1.99l-0.05,0.14c-0.18,0-0.31,0.01-0.37,0.03
				c-0.06,0.02-0.11,0.06-0.15,0.1s-0.05,0.1-0.05,0.15c0,0.06,0.03,0.21,0.1,0.43l0.38,1.3l0.87-0.82
				c0.34-0.33,0.58-0.59,0.71-0.79c0.05-0.07,0.07-0.13,0.07-0.19c0-0.06-0.03-0.11-0.08-0.14c-0.07-0.05-0.21-0.07-0.41-0.08
				L109.96,121.73z"/>
			<path d="M110.8,127.11l0.46-1.95h0.14c-0.02,0.19-0.03,0.35-0.03,0.47c0,0.35,0.12,0.64,0.36,0.87s0.55,0.33,0.94,0.33
				c0.36,0,0.63-0.1,0.82-0.31c0.19-0.21,0.28-0.45,0.28-0.72c0-0.18-0.04-0.34-0.13-0.48c-0.13-0.21-0.47-0.59-1.03-1.13
				c-0.27-0.26-0.44-0.45-0.52-0.58c-0.13-0.21-0.19-0.43-0.19-0.66c0-0.37,0.15-0.68,0.43-0.94c0.29-0.26,0.66-0.39,1.12-0.39
				c0.15,0,0.3,0.01,0.44,0.04c0.08,0.02,0.24,0.07,0.46,0.16c0.16,0.06,0.25,0.09,0.26,0.1c0.04,0.01,0.08,0.01,0.13,0.01
				c0.08,0,0.15-0.02,0.21-0.06c0.06-0.04,0.12-0.12,0.2-0.25h0.16l-0.43,1.75h-0.14c0.01-0.16,0.02-0.28,0.02-0.38
				c0-0.31-0.11-0.57-0.33-0.77s-0.51-0.3-0.87-0.3c-0.28,0-0.52,0.08-0.69,0.24c-0.18,0.16-0.27,0.34-0.27,0.55
				c0,0.18,0.06,0.35,0.17,0.52c0.11,0.16,0.38,0.43,0.78,0.8c0.41,0.37,0.67,0.66,0.79,0.87c0.12,0.21,0.18,0.43,0.18,0.67
				c0,0.27-0.07,0.53-0.22,0.78c-0.15,0.25-0.36,0.44-0.64,0.58c-0.28,0.14-0.58,0.21-0.92,0.21c-0.16,0-0.32-0.01-0.46-0.04
				c-0.14-0.03-0.37-0.1-0.68-0.21c-0.11-0.04-0.2-0.06-0.27-0.06c-0.16,0-0.29,0.1-0.38,0.31H110.8z"/>
		</g>
		<g style="clip-path:url(#SVGID_16_);">
			<path d="M97.98,117.36l-0.92,3.03c0.41-0.71,0.76-1.25,1.05-1.61c0.45-0.56,0.89-0.96,1.31-1.21c0.25-0.14,0.51-0.21,0.79-0.21
				c0.24,0,0.43,0.07,0.59,0.21s0.23,0.33,0.23,0.55c0,0.22-0.05,0.51-0.16,0.86l-0.5,1.71c0.77-1.37,1.5-2.32,2.19-2.88
				c0.38-0.3,0.76-0.46,1.14-0.46c0.22,0,0.4,0.07,0.54,0.21c0.14,0.14,0.21,0.36,0.21,0.66c0,0.26-0.04,0.54-0.13,0.83l-0.78,2.61
				c-0.17,0.57-0.26,0.88-0.26,0.95s0.02,0.12,0.06,0.16c0.03,0.03,0.07,0.05,0.11,0.05c0.05,0,0.13-0.04,0.25-0.13
				c0.27-0.2,0.52-0.46,0.76-0.78l0.23,0.14c-0.12,0.18-0.33,0.43-0.63,0.74s-0.56,0.53-0.77,0.64c-0.21,0.11-0.41,0.17-0.59,0.17
				c-0.17,0-0.3-0.05-0.42-0.16c-0.11-0.11-0.17-0.24-0.17-0.4c0-0.21,0.1-0.65,0.29-1.3l0.65-2.16c0.15-0.5,0.22-0.77,0.23-0.83
				c0.01-0.09,0.02-0.17,0.02-0.25c0-0.11-0.03-0.2-0.08-0.26c-0.06-0.06-0.12-0.09-0.19-0.09c-0.2,0-0.41,0.1-0.63,0.29
				c-0.65,0.57-1.26,1.37-1.83,2.39c-0.37,0.68-0.72,1.54-1.05,2.6h-1.07l1.21-4.06c0.13-0.44,0.2-0.73,0.2-0.88
				c0-0.12-0.03-0.21-0.08-0.27c-0.05-0.06-0.12-0.09-0.19-0.09c-0.16,0-0.32,0.05-0.5,0.16c-0.28,0.17-0.65,0.55-1.1,1.12
				s-0.79,1.12-1.04,1.65c-0.12,0.25-0.4,1.04-0.84,2.37h-1.05l1.31-4.35l0.17-0.56c0.03-0.08,0.05-0.15,0.05-0.19
				c0-0.1-0.05-0.19-0.14-0.27c-0.09-0.08-0.22-0.12-0.36-0.12c-0.06,0-0.23,0.03-0.51,0.08l-0.06-0.25L97.98,117.36z"/>
		</g>
		<g style="clip-path:url(#SVGID_16_);">
			<path d="M101.34,115.42c-0.13,0.12-0.31,0.18-0.53,0.18s-0.4-0.06-0.53-0.19c-0.13-0.12-0.2-0.29-0.2-0.5s0.07-0.38,0.2-0.5
				c0.13-0.12,0.31-0.19,0.53-0.19s0.4,0.06,0.53,0.19s0.2,0.29,0.2,0.5C101.54,115.13,101.47,115.3,101.34,115.42z"/>
		</g>
	</g>
	
		<line style="fill:none;stroke:#4A7EBB;stroke-width:0.72;stroke-linejoin:round;stroke-miterlimit:10;" x1="124.8" y1="18" x2="124.8" y2="61.01"/>
	<polygon style="fill-rule:evenodd;clip-rule:evenodd;fill:#4A7EBB;" points="127.8,60.01 124.8,66.01 121.8,60.01 127.8,60.01 	"/>
	<g>
		<defs>
			<polygon id="SVGID_17_" points="126,24.24 155.16,24.24 155.16,0 126,0 126,24.24 			"/>
		</defs>
		<clipPath id="SVGID_18_">
			<use xlink:href="#SVGID_17_"  style="overflow:visible;"/>
		</clipPath>
		<g style="clip-path:url(#SVGID_18_);">
			<path d="M142.06,19.1l-0.05,0.16h-2.51l0.06-0.16c0.25-0.01,0.42-0.03,0.5-0.06c0.13-0.05,0.23-0.12,0.29-0.2
				c0.1-0.14,0.2-0.38,0.31-0.73l1.06-3.54c0.09-0.29,0.13-0.52,0.13-0.67c0-0.08-0.02-0.14-0.06-0.19
				c-0.04-0.05-0.1-0.09-0.18-0.12s-0.23-0.04-0.46-0.04l0.05-0.16h2.35l-0.05,0.16c-0.19,0-0.33,0.02-0.43,0.06
				c-0.13,0.06-0.24,0.14-0.31,0.25c-0.07,0.11-0.16,0.34-0.27,0.71l-1.06,3.54c-0.1,0.33-0.14,0.53-0.14,0.62
				c0,0.07,0.02,0.13,0.06,0.18c0.04,0.05,0.1,0.09,0.18,0.12C141.63,19.06,141.8,19.08,142.06,19.1z"/>
			<path d="M144.81,15.35l-0.6,1.97c0.56-0.8,0.99-1.33,1.29-1.59s0.58-0.38,0.86-0.38c0.15,0,0.27,0.05,0.37,0.14
				s0.15,0.22,0.15,0.37c0,0.17-0.04,0.4-0.13,0.69l-0.55,1.82c-0.06,0.21-0.09,0.34-0.09,0.38c0,0.04,0.01,0.07,0.04,0.1
				s0.05,0.04,0.08,0.04c0.04,0,0.08-0.02,0.13-0.06c0.16-0.12,0.33-0.31,0.52-0.55l0.14,0.08c-0.28,0.38-0.54,0.66-0.79,0.82
				c-0.17,0.11-0.33,0.17-0.47,0.17c-0.11,0-0.2-0.03-0.26-0.1c-0.07-0.06-0.1-0.15-0.1-0.26c0-0.14,0.05-0.38,0.15-0.71l0.52-1.74
				c0.06-0.22,0.1-0.38,0.1-0.51c0-0.06-0.02-0.1-0.06-0.14c-0.04-0.04-0.09-0.05-0.14-0.05c-0.08,0-0.18,0.03-0.3,0.1
				c-0.22,0.13-0.45,0.34-0.69,0.64c-0.24,0.3-0.49,0.68-0.76,1.14c-0.14,0.25-0.26,0.51-0.35,0.8l-0.22,0.71h-0.67l0.82-2.71
				c0.1-0.33,0.14-0.52,0.14-0.59c0-0.06-0.03-0.12-0.08-0.17c-0.05-0.05-0.12-0.07-0.2-0.07c-0.04,0-0.1,0.01-0.19,0.02l-0.17,0.03
				l-0.03-0.16L144.81,15.35z"/>
			<path d="M150.11,15.45l-0.08,0.29h-0.65l-0.49,1.89c-0.22,0.83-0.44,1.48-0.66,1.93c-0.31,0.64-0.65,1.09-1.02,1.33
				c-0.28,0.19-0.55,0.28-0.83,0.28c-0.18,0-0.33-0.05-0.46-0.16c-0.09-0.07-0.14-0.17-0.14-0.28c0-0.09,0.04-0.17,0.11-0.24
				c0.08-0.07,0.17-0.1,0.28-0.1c0.08,0,0.15,0.02,0.2,0.07c0.06,0.05,0.08,0.11,0.08,0.17c0,0.06-0.03,0.12-0.09,0.18
				c-0.05,0.04-0.07,0.07-0.07,0.09c0,0.03,0.01,0.05,0.03,0.06c0.03,0.02,0.07,0.03,0.13,0.03c0.13,0,0.27-0.04,0.41-0.12
				c0.14-0.08,0.27-0.19,0.38-0.35c0.11-0.15,0.21-0.38,0.31-0.67c0.04-0.12,0.15-0.52,0.34-1.2l0.78-2.93h-0.78l0.06-0.29
				c0.25,0,0.42-0.02,0.52-0.05c0.1-0.03,0.19-0.1,0.27-0.19c0.08-0.09,0.19-0.27,0.32-0.52c0.18-0.35,0.35-0.61,0.51-0.8
				c0.22-0.26,0.46-0.45,0.7-0.58c0.24-0.13,0.47-0.19,0.69-0.19c0.23,0,0.41,0.06,0.55,0.17c0.14,0.11,0.21,0.23,0.21,0.36
				c0,0.1-0.04,0.19-0.1,0.25c-0.07,0.07-0.16,0.1-0.27,0.1c-0.09,0-0.17-0.03-0.23-0.08s-0.09-0.11-0.09-0.19
				c0-0.05,0.02-0.1,0.06-0.17c0.04-0.07,0.06-0.11,0.06-0.14c0-0.04-0.01-0.07-0.04-0.09c-0.04-0.03-0.1-0.04-0.17-0.04
				c-0.19,0-0.36,0.06-0.51,0.17c-0.2,0.15-0.38,0.39-0.54,0.72c-0.08,0.17-0.23,0.59-0.44,1.27H150.11z"/>
		</g>
		<g style="clip-path:url(#SVGID_18_);">
			<path d="M131.86,8.56l-1.01,3.37c0.45-0.79,0.83-1.39,1.15-1.79c0.49-0.62,0.97-1.07,1.44-1.35c0.27-0.16,0.56-0.24,0.86-0.24
				c0.26,0,0.47,0.08,0.64,0.24c0.17,0.16,0.26,0.36,0.26,0.61c0,0.24-0.06,0.56-0.18,0.96l-0.55,1.9c0.84-1.52,1.64-2.59,2.4-3.2
				c0.42-0.34,0.83-0.51,1.24-0.51c0.24,0,0.43,0.08,0.59,0.24c0.15,0.16,0.23,0.4,0.23,0.73c0,0.29-0.05,0.6-0.14,0.92l-0.85,2.91
				c-0.19,0.63-0.28,0.98-0.28,1.05s0.02,0.13,0.07,0.18c0.03,0.04,0.07,0.05,0.12,0.05s0.14-0.05,0.27-0.14
				c0.29-0.22,0.57-0.51,0.83-0.87l0.26,0.16c-0.13,0.2-0.36,0.47-0.69,0.82c-0.33,0.35-0.61,0.59-0.84,0.71s-0.45,0.19-0.64,0.19
				c-0.18,0-0.33-0.06-0.45-0.18c-0.12-0.12-0.18-0.27-0.18-0.44c0-0.24,0.11-0.72,0.32-1.44l0.71-2.4
				c0.16-0.55,0.25-0.86,0.26-0.92c0.02-0.09,0.02-0.19,0.02-0.28c0-0.12-0.03-0.22-0.09-0.29c-0.06-0.07-0.13-0.1-0.21-0.1
				c-0.22,0-0.45,0.11-0.69,0.32c-0.71,0.63-1.38,1.52-2,2.66c-0.41,0.75-0.79,1.72-1.15,2.89h-1.17l1.33-4.52
				c0.15-0.49,0.22-0.81,0.22-0.98c0-0.13-0.03-0.23-0.09-0.3c-0.06-0.06-0.13-0.1-0.21-0.1c-0.17,0-0.35,0.06-0.54,0.18
				c-0.31,0.19-0.71,0.61-1.2,1.25c-0.49,0.64-0.87,1.25-1.14,1.83c-0.13,0.27-0.44,1.15-0.92,2.64h-1.15l1.44-4.84l0.19-0.63
				c0.04-0.09,0.05-0.16,0.05-0.21c0-0.11-0.05-0.21-0.16-0.3c-0.1-0.09-0.24-0.13-0.4-0.13c-0.07,0-0.25,0.03-0.56,0.09l-0.07-0.28
				L131.86,8.56z"/>
		</g>
		<g style="clip-path:url(#SVGID_18_);">
			<path d="M135.51,6.39c-0.14,0.13-0.34,0.2-0.58,0.2c-0.24,0-0.44-0.07-0.58-0.21c-0.14-0.14-0.21-0.32-0.21-0.56
				c0-0.23,0.07-0.42,0.21-0.56c0.14-0.14,0.34-0.21,0.58-0.21c0.24,0,0.44,0.07,0.58,0.21s0.21,0.32,0.21,0.56
				C135.73,6.07,135.66,6.26,135.51,6.39z"/>
		</g>
	</g>
</g>
</svg>
