<?xml version="1.0" encoding="iso-8859-1"?>
<!-- Generator: Adobe Illustrator 16.0.3, SVG Export Plug-In . SVG Version: 6.00 Build 0)  -->
<!DOCTYPE svg PUBLIC "-//W3C//DTD SVG 1.1//EN" "http://www.w3.org/Graphics/SVG/1.1/DTD/svg11.dtd">
<svg version="1.1" id="Layer_1" xmlns="http://www.w3.org/2000/svg" xmlns:xlink="http://www.w3.org/1999/xlink" x="0px" y="0px"
	 width="469px" height="162.9px" viewBox="0 0 469 162.9" style="enable-background:new 0 0 469 162.9;" xml:space="preserve">
<g>
	<polygon style="fill-rule:evenodd;clip-rule:evenodd;" points="289,126 286,114 289,114 292,114 289,126 	"/>
	<line style="fill:none;stroke:#000000;stroke-linecap:square;stroke-miterlimit:10;" x1="289" y1="69" x2="289" y2="114"/>
	<polygon style="fill-rule:evenodd;clip-rule:evenodd;" points="232,126 229,114 232,114 235,114 232,126 	"/>
	<line style="fill:none;stroke:#000000;stroke-linecap:square;stroke-miterlimit:10;" x1="232" y1="12" x2="232" y2="114"/>
	<polygon style="fill-rule:evenodd;clip-rule:evenodd;" points="179,126 176,114 179,114 182,114 179,126 	"/>
	<line style="fill:none;stroke:#000000;stroke-linecap:square;stroke-miterlimit:10;" x1="179" y1="12" x2="179" y2="114"/>
	<polygon style="fill-rule:evenodd;clip-rule:evenodd;" points="119,126 116,114 119,114 122,114 119,126 	"/>
	<line style="fill:none;stroke:#000000;stroke-linecap:square;stroke-miterlimit:10;" x1="119" y1="12" x2="119" y2="114"/>
	<polygon style="fill-rule:evenodd;clip-rule:evenodd;" points="233,12 221,15 221,12 221,9 233,12 	"/>
	<line style="fill:none;stroke:#000000;stroke-linecap:square;stroke-miterlimit:10;" x1="10" y1="12" x2="221" y2="12"/>
	<polygon style="fill-rule:evenodd;clip-rule:evenodd;" points="261,40 249,43 249,40 249,37 261,40 	"/>
	<line style="fill:none;stroke:#000000;stroke-linecap:square;stroke-miterlimit:10;" x1="38" y1="40" x2="249" y2="40"/>
	<polygon style="fill-rule:evenodd;clip-rule:evenodd;" points="289,68 277,71 277,68 277,65 289,68 	"/>
	<line style="fill:none;stroke:#000000;stroke-linecap:square;stroke-miterlimit:10;" x1="66" y1="68" x2="277" y2="68"/>
	<polygon style="fill-rule:evenodd;clip-rule:evenodd;" points="318,97 306,100 306,97 306,94 318,97 	"/>
	<line style="fill:none;stroke:#000000;stroke-linecap:square;stroke-miterlimit:10;" x1="95" y1="97" x2="306" y2="97"/>
	<polygon style="fill-rule:evenodd;clip-rule:evenodd;" points="346,125 334,128 334,125 334,122 346,125 	"/>
	<line style="fill:none;stroke:#000000;stroke-linecap:square;stroke-miterlimit:10;" x1="123" y1="125" x2="334" y2="125"/>
	<polygon style="fill-rule:evenodd;clip-rule:evenodd;fill:#FFFFFF;" points="31,27 43,27 43,50 31,50 31,27 	"/>
	<g>
		<path d="M32.73,39.19c0-0.82,0.2-1.61,0.61-2.38s0.98-1.35,1.72-1.76s1.57-0.61,2.48-0.61c1.41,0,2.57,0.46,3.47,1.38
			s1.35,2.08,1.35,3.48c0,1.41-0.46,2.58-1.37,3.51s-2.06,1.39-3.44,1.39c-0.86,0-1.67-0.19-2.45-0.58s-1.37-0.95-1.77-1.7
			S32.73,40.27,32.73,39.19z M35.26,39.33c0,0.93,0.22,1.63,0.66,2.13s0.98,0.74,1.63,0.74s1.19-0.25,1.62-0.74s0.65-1.21,0.65-2.14
			c0-0.91-0.22-1.62-0.65-2.11s-0.98-0.74-1.62-0.74s-1.19,0.25-1.63,0.74S35.26,38.4,35.26,39.33z"/>
	</g>
	<polygon style="fill-rule:evenodd;clip-rule:evenodd;fill:#FFFFFF;" points="88,27 100,27 100,50 88,50 88,27 	"/>
	<g>
		<path d="M89.72,39.19c0-0.82,0.2-1.61,0.61-2.38s0.98-1.35,1.72-1.76s1.57-0.61,2.48-0.61c1.41,0,2.57,0.46,3.47,1.38
			s1.35,2.08,1.35,3.48c0,1.41-0.46,2.58-1.37,3.51s-2.06,1.39-3.44,1.39c-0.86,0-1.67-0.19-2.45-0.58s-1.37-0.95-1.77-1.7
			S89.72,40.27,89.72,39.19z M92.25,39.33c0,0.93,0.22,1.63,0.66,2.13s0.98,0.74,1.63,0.74s1.19-0.25,1.62-0.74s0.65-1.21,0.65-2.14
			c0-0.91-0.22-1.62-0.65-2.11s-0.98-0.74-1.62-0.74s-1.19,0.25-1.63,0.74S92.25,38.4,92.25,39.33z"/>
	</g>
	<polygon style="fill-rule:evenodd;clip-rule:evenodd;fill:#FFFFFF;" points="145,27 157,27 157,50 145,50 145,27 	"/>
	<g>
		<path d="M146.72,39.19c0-0.82,0.2-1.61,0.61-2.38s0.98-1.35,1.72-1.76s1.57-0.61,2.48-0.61c1.41,0,2.57,0.46,3.47,1.38
			s1.35,2.08,1.35,3.48c0,1.41-0.46,2.58-1.37,3.51s-2.06,1.39-3.44,1.39c-0.86,0-1.67-0.19-2.45-0.58s-1.37-0.95-1.77-1.7
			S146.72,40.27,146.72,39.19z M149.25,39.33c0,0.93,0.22,1.63,0.66,2.13s0.98,0.74,1.63,0.74s1.19-0.25,1.62-0.74
			s0.65-1.21,0.65-2.14c0-0.91-0.22-1.62-0.65-2.11s-0.98-0.74-1.62-0.74s-1.19,0.25-1.63,0.74S149.25,38.4,149.25,39.33z"/>
	</g>
	<polygon style="fill-rule:evenodd;clip-rule:evenodd;fill:#FFFFFF;" points="201,27 213,27 213,50 201,50 201,27 	"/>
	<g>
		<path d="M202.72,39.19c0-0.82,0.2-1.61,0.61-2.38s0.98-1.35,1.72-1.76s1.57-0.61,2.48-0.61c1.41,0,2.57,0.46,3.47,1.38
			s1.35,2.08,1.35,3.48c0,1.41-0.46,2.58-1.37,3.51s-2.06,1.39-3.44,1.39c-0.86,0-1.67-0.19-2.45-0.58s-1.37-0.95-1.77-1.7
			S202.72,40.27,202.72,39.19z M205.25,39.33c0,0.93,0.22,1.63,0.66,2.13s0.98,0.74,1.63,0.74s1.19-0.25,1.62-0.74
			s0.65-1.21,0.65-2.14c0-0.91-0.22-1.62-0.65-2.11s-0.98-0.74-1.62-0.74s-1.19,0.25-1.63,0.74S205.25,38.4,205.25,39.33z"/>
	</g>
	<polygon style="fill-rule:evenodd;clip-rule:evenodd;fill:#FFFFFF;" points="258,27 270,27 270,50 258,50 258,27 	"/>
	<g>
		<path d="M259.72,39.19c0-0.82,0.2-1.61,0.61-2.38s0.98-1.35,1.72-1.76s1.57-0.61,2.48-0.61c1.41,0,2.57,0.46,3.47,1.38
			s1.35,2.08,1.35,3.48c0,1.41-0.46,2.58-1.37,3.51s-2.06,1.39-3.44,1.39c-0.86,0-1.67-0.19-2.45-0.58s-1.37-0.95-1.77-1.7
			S259.72,40.27,259.72,39.19z M262.25,39.33c0,0.93,0.22,1.63,0.66,2.13s0.98,0.74,1.63,0.74s1.18-0.25,1.62-0.74
			s0.66-1.21,0.66-2.14c0-0.91-0.22-1.62-0.66-2.11s-0.98-0.74-1.62-0.74s-1.19,0.25-1.63,0.74S262.25,38.4,262.25,39.33z"/>
	</g>
	<polygon style="fill-rule:evenodd;clip-rule:evenodd;fill:#FFFFFF;" points="0,0 17,0 17,23 0,23 0,0 	"/>
	<g>
		<path d="M1.11,17l3.37-4.81L1.25,7.67h3.01l1.65,2.57l1.74-2.57h2.9l-3.16,4.42L10.84,17H7.81l-1.9-2.89L4,17H1.11z"/>
	</g>
	<polygon style="fill-rule:evenodd;clip-rule:evenodd;fill:#FFFFFF;" points="57,0 73,0 73,23 57,23 57,0 	"/>
	<g>
		<path d="M58.11,17l3.37-4.81l-3.23-4.53h3.01l1.65,2.57l1.74-2.57h2.9l-3.16,4.42L67.84,17h-3.03l-1.9-2.89L61,17H58.11z"/>
	</g>
	<polygon style="fill-rule:evenodd;clip-rule:evenodd;fill:#FFFFFF;" points="113,0 130,0 130,23 113,23 113,0 	"/>
	<g>
		<path d="M114.11,17l3.37-4.81l-3.23-4.53h3.01l1.65,2.57l1.74-2.57h2.9l-3.16,4.42l3.45,4.91h-3.03l-1.9-2.89L117,17H114.11z"/>
	</g>
	<polygon style="fill-rule:evenodd;clip-rule:evenodd;fill:#FFFFFF;" points="170,0 187,0 187,23 170,23 170,0 	"/>
	<g>
		<path d="M171.11,17l3.37-4.81l-3.23-4.53h3.01l1.65,2.57l1.74-2.57h2.9l-3.16,4.42l3.45,4.91h-3.03l-1.9-2.89L174,17H171.11z"/>
	</g>
	<polygon style="fill-rule:evenodd;clip-rule:evenodd;fill:#FFFFFF;" points="227,0 243,0 243,23 227,23 227,0 	"/>
	<g>
		<path d="M228.11,17l3.37-4.81l-3.23-4.53h3.01l1.65,2.57l1.74-2.57h2.9l-3.16,4.42l3.45,4.91h-3.03l-1.9-2.89L231,17H228.11z"/>
	</g>
	<polygon style="fill-rule:evenodd;clip-rule:evenodd;fill:#FFFFFF;" points="85,86 97,86 97,109 85,109 85,86 	"/>
	<g>
		<path d="M86.72,98.2c0-0.82,0.2-1.61,0.61-2.38s0.98-1.35,1.72-1.76s1.57-0.61,2.48-0.61c1.41,0,2.57,0.46,3.47,1.38
			c0.9,0.92,1.35,2.08,1.35,3.48c0,1.41-0.46,2.58-1.37,3.51s-2.06,1.39-3.44,1.39c-0.86,0-1.67-0.19-2.45-0.58s-1.37-0.95-1.77-1.7
			C86.92,100.18,86.72,99.27,86.72,98.2z M89.25,98.33c0,0.93,0.22,1.63,0.66,2.13s0.98,0.74,1.63,0.74s1.19-0.25,1.62-0.74
			s0.65-1.21,0.65-2.14c0-0.91-0.22-1.62-0.65-2.11s-0.98-0.74-1.62-0.74s-1.19,0.25-1.63,0.74S89.25,97.41,89.25,98.33z"/>
	</g>
	<polygon style="fill-rule:evenodd;clip-rule:evenodd;fill:#FFFFFF;" points="142,86 154,86 154,109 142,109 142,86 	"/>
	<g>
		<path d="M143.72,98.2c0-0.82,0.2-1.61,0.61-2.38s0.98-1.35,1.72-1.76s1.57-0.61,2.48-0.61c1.41,0,2.57,0.46,3.47,1.38
			c0.9,0.92,1.35,2.08,1.35,3.48c0,1.41-0.46,2.58-1.37,3.51s-2.06,1.39-3.44,1.39c-0.86,0-1.67-0.19-2.45-0.58s-1.37-0.95-1.77-1.7
			C143.92,100.18,143.72,99.27,143.72,98.2z M146.25,98.33c0,0.93,0.22,1.63,0.66,2.13s0.98,0.74,1.63,0.74s1.19-0.25,1.62-0.74
			s0.65-1.21,0.65-2.14c0-0.91-0.22-1.62-0.65-2.11s-0.98-0.74-1.62-0.74s-1.19,0.25-1.63,0.74S146.25,97.41,146.25,98.33z"/>
	</g>
	<polygon style="fill-rule:evenodd;clip-rule:evenodd;fill:#FFFFFF;" points="199,86 211,86 211,109 199,109 199,86 	"/>
	<g>
		<path d="M200.72,98.2c0-0.82,0.2-1.61,0.61-2.38s0.98-1.35,1.72-1.76s1.57-0.61,2.48-0.61c1.41,0,2.57,0.46,3.47,1.38
			c0.9,0.92,1.35,2.08,1.35,3.48c0,1.41-0.46,2.58-1.37,3.51s-2.06,1.39-3.44,1.39c-0.86,0-1.67-0.19-2.45-0.58s-1.37-0.95-1.77-1.7
			C200.92,100.18,200.72,99.27,200.72,98.2z M203.25,98.33c0,0.93,0.22,1.63,0.66,2.13s0.98,0.74,1.63,0.74s1.19-0.25,1.62-0.74
			s0.65-1.21,0.65-2.14c0-0.91-0.22-1.62-0.65-2.11s-0.98-0.74-1.62-0.74s-1.19,0.25-1.63,0.74S203.25,97.41,203.25,98.33z"/>
	</g>
	<polygon style="fill-rule:evenodd;clip-rule:evenodd;fill:#FFFFFF;" points="255,86 267,86 267,109 255,109 255,86 	"/>
	<g>
		<path d="M256.72,98.2c0-0.82,0.2-1.61,0.61-2.38s0.98-1.35,1.72-1.76s1.57-0.61,2.48-0.61c1.41,0,2.57,0.46,3.47,1.38
			c0.9,0.92,1.35,2.08,1.35,3.48c0,1.41-0.46,2.58-1.37,3.51s-2.06,1.39-3.44,1.39c-0.86,0-1.67-0.19-2.45-0.58s-1.37-0.95-1.77-1.7
			C256.92,100.18,256.72,99.27,256.72,98.2z M259.25,98.33c0,0.93,0.22,1.63,0.66,2.13s0.98,0.74,1.63,0.74s1.18-0.25,1.62-0.74
			s0.66-1.21,0.66-2.14c0-0.91-0.22-1.62-0.66-2.11s-0.98-0.74-1.62-0.74s-1.19,0.25-1.63,0.74S259.25,97.41,259.25,98.33z"/>
	</g>
	<polygon style="fill-rule:evenodd;clip-rule:evenodd;fill:#FFFFFF;" points="312,86 324,86 324,109 312,109 312,86 	"/>
	<g>
		<path d="M313.72,98.2c0-0.82,0.2-1.61,0.61-2.38s0.98-1.35,1.72-1.76s1.57-0.61,2.48-0.61c1.41,0,2.57,0.46,3.47,1.38
			c0.9,0.92,1.35,2.08,1.35,3.48c0,1.41-0.46,2.58-1.37,3.51s-2.06,1.39-3.44,1.39c-0.86,0-1.67-0.19-2.45-0.58s-1.37-0.95-1.77-1.7
			C313.92,100.18,313.72,99.27,313.72,98.2z M316.25,98.33c0,0.93,0.22,1.63,0.66,2.13s0.98,0.74,1.63,0.74s1.18-0.25,1.62-0.74
			s0.66-1.21,0.66-2.14c0-0.91-0.22-1.62-0.66-2.11s-0.98-0.74-1.62-0.74s-1.19,0.25-1.63,0.74S316.25,97.41,316.25,98.33z"/>
	</g>
	<polygon style="fill-rule:evenodd;clip-rule:evenodd;fill:#FFFFFF;" points="113,113 130,113 130,136 113,136 113,113 	"/>
	<g>
		<path d="M114.11,129.99l3.37-4.81l-3.23-4.53h3.01l1.65,2.57l1.74-2.57h2.9l-3.16,4.42l3.45,4.91h-3.03l-1.9-2.89l-1.92,2.89
			H114.11z"/>
	</g>
	<polygon style="fill-rule:evenodd;clip-rule:evenodd;fill:#FFFFFF;" points="170,113 187,113 187,136 170,136 170,113 	"/>
	<g>
		<path d="M171.11,129.99l3.37-4.81l-3.23-4.53h3.01l1.65,2.57l1.74-2.57h2.9l-3.16,4.42l3.45,4.91h-3.03l-1.9-2.89l-1.92,2.89
			H171.11z"/>
	</g>
	<polygon style="fill-rule:evenodd;clip-rule:evenodd;fill:#FFFFFF;" points="227,113 243,113 243,136 227,136 227,113 	"/>
	<g>
		<path d="M228.11,129.99l3.37-4.81l-3.23-4.53h3.01l1.65,2.57l1.74-2.57h2.9l-3.16,4.42l3.45,4.91h-3.03l-1.9-2.89l-1.92,2.89
			H228.11z"/>
	</g>
	<polygon style="fill-rule:evenodd;clip-rule:evenodd;fill:#FFFFFF;" points="283,113 300,113 300,136 283,136 283,113 	"/>
	<g>
		<path d="M284.11,129.99l3.37-4.81l-3.23-4.53h3.01l1.65,2.57l1.74-2.57h2.9l-3.16,4.42l3.45,4.91h-3.03l-1.9-2.89l-1.92,2.89
			H284.11z"/>
	</g>
	<polygon style="fill-rule:evenodd;clip-rule:evenodd;fill:#FFFFFF;" points="340,113 357,113 357,136 340,136 340,113 	"/>
	<g>
		<path d="M341.11,129.99l3.37-4.81l-3.23-4.53h3.01l1.65,2.57l1.74-2.57h2.9l-3.16,4.42l3.45,4.91h-3.03l-1.9-2.89l-1.92,2.89
			H341.11z"/>
	</g>
	<line style="fill:none;stroke:#000000;stroke-linecap:square;stroke-miterlimit:10;" x1="9" y1="21" x2="9" y2="126"/>
	<line style="fill:none;stroke:#000000;stroke-linecap:square;stroke-miterlimit:10;" x1="65" y1="21" x2="65" y2="126"/>
	<polygon style="fill-rule:evenodd;clip-rule:evenodd;" points="11,120 23,117 23,120 23,123 11,120 	"/>
	<polygon style="fill-rule:evenodd;clip-rule:evenodd;" points="62,120 50,123 50,120 50,117 62,120 	"/>
	<line style="fill:none;stroke:#000000;stroke-linecap:square;stroke-miterlimit:10;" x1="23" y1="120" x2="50" y2="120"/>
	<polygon style="fill-rule:evenodd;clip-rule:evenodd;fill:#FFFFFF;" points="29,112 44,112 44,128 29,128 29,112 	"/>
	<g>
		<path d="M34.83,124v-0.79c-0.39,0.62-0.97,0.93-1.74,0.93c-0.5,0-0.95-0.14-1.37-0.41s-0.74-0.66-0.97-1.15s-0.34-1.05-0.34-1.69
			c0-0.62,0.1-1.18,0.31-1.69s0.52-0.89,0.93-1.16s0.88-0.4,1.39-0.4c0.38,0,0.71,0.08,1,0.24s0.53,0.36,0.71,0.62v-3.08h1.05V124
			H34.83z M31.49,120.89c0,0.8,0.17,1.39,0.5,1.79s0.73,0.59,1.19,0.59c0.46,0,0.85-0.19,1.17-0.57s0.48-0.95,0.48-1.73
			c0-0.85-0.16-1.48-0.49-1.88s-0.73-0.6-1.21-0.6c-0.47,0-0.86,0.19-1.17,0.57S31.49,120.07,31.49,120.89z"/>
		<path d="M39.77,123.06l0.15,0.93c-0.3,0.06-0.56,0.09-0.8,0.09c-0.38,0-0.68-0.06-0.89-0.18s-0.36-0.28-0.45-0.48
			s-0.13-0.61-0.13-1.25v-3.58h-0.77v-0.82h0.77v-1.54l1.05-0.63v2.17h1.06v0.82h-1.06v3.64c0,0.3,0.02,0.49,0.06,0.58
			s0.1,0.15,0.18,0.21s0.2,0.08,0.36,0.08C39.42,123.1,39.58,123.08,39.77,123.06z"/>
	</g>
	<polygon style="fill-rule:evenodd;clip-rule:evenodd;" points="31,32 20,28 21,25 23,23 31,32 	"/>
	<line style="fill:none;stroke:#000000;stroke-linecap:square;stroke-miterlimit:10;" x1="11" y1="18" x2="21" y2="25"/>
	<polygon style="fill-rule:evenodd;clip-rule:evenodd;" points="87,32 75,28 77,25 79,23 87,32 	"/>
	<line style="fill:none;stroke:#000000;stroke-linecap:square;stroke-miterlimit:10;" x1="67" y1="18" x2="77" y2="25"/>
	<polygon style="fill-rule:evenodd;clip-rule:evenodd;" points="145,32 133,28 135,25 137,23 145,32 	"/>
	<line style="fill:none;stroke:#000000;stroke-linecap:square;stroke-miterlimit:10;" x1="125" y1="18" x2="135" y2="25"/>
	<polygon style="fill-rule:evenodd;clip-rule:evenodd;" points="201,32 190,28 192,25 193,23 201,32 	"/>
	<line style="fill:none;stroke:#000000;stroke-linecap:square;stroke-miterlimit:10;" x1="181" y1="18" x2="192" y2="25"/>
	<polygon style="fill-rule:evenodd;clip-rule:evenodd;" points="41,32 52,28 50,25 49,23 41,32 	"/>
	<line style="fill:none;stroke:#000000;stroke-linecap:square;stroke-miterlimit:10;" x1="60" y1="18" x2="50" y2="25"/>
	<polygon style="fill-rule:evenodd;clip-rule:evenodd;" points="96,33 108,29 106,26 104,24 96,33 	"/>
	<line style="fill:none;stroke:#000000;stroke-linecap:square;stroke-miterlimit:10;" x1="116" y1="19" x2="106" y2="26"/>
	<polygon style="fill-rule:evenodd;clip-rule:evenodd;" points="153,32 165,28 163,25 161,23 153,32 	"/>
	<line style="fill:none;stroke:#000000;stroke-linecap:square;stroke-miterlimit:10;" x1="173" y1="18" x2="163" y2="25"/>
	<polygon style="fill-rule:evenodd;clip-rule:evenodd;" points="210,32 222,28 220,25 218,23 210,32 	"/>
	<line style="fill:none;stroke:#000000;stroke-linecap:square;stroke-miterlimit:10;" x1="230" y1="18" x2="220" y2="25"/>
	<polygon style="fill-rule:evenodd;clip-rule:evenodd;fill:#FFFFFF;" points="57,57 73,57 73,80 57,80 57,57 	"/>
	<g>
		<path d="M58.11,74l3.37-4.81l-3.23-4.53h3.01l1.65,2.57l1.74-2.57h2.9l-3.16,4.42L67.84,74h-3.03l-1.9-2.89L61,74H58.11z"/>
	</g>
	<polygon style="fill-rule:evenodd;clip-rule:evenodd;fill:#FFFFFF;" points="113,57 130,57 130,80 113,80 113,57 	"/>
	<g>
		<path d="M114.11,74l3.37-4.81l-3.23-4.53h3.01l1.65,2.57l1.74-2.57h2.9l-3.16,4.42l3.45,4.91h-3.03l-1.9-2.89L117,74H114.11z"/>
	</g>
	<polygon style="fill-rule:evenodd;clip-rule:evenodd;fill:#FFFFFF;" points="170,57 187,57 187,80 170,80 170,57 	"/>
	<g>
		<path d="M171.11,74l3.37-4.81l-3.23-4.53h3.01l1.65,2.57l1.74-2.57h2.9l-3.16,4.42l3.45,4.91h-3.03l-1.9-2.89L174,74H171.11z"/>
	</g>
	<polygon style="fill-rule:evenodd;clip-rule:evenodd;fill:#FFFFFF;" points="227,57 243,57 243,80 227,80 227,57 	"/>
	<g>
		<path d="M228.11,74l3.37-4.81l-3.23-4.53h3.01l1.65,2.57l1.74-2.57h2.9l-3.16,4.42l3.45,4.91h-3.03l-1.9-2.89L231,74H228.11z"/>
	</g>
	<polygon style="fill-rule:evenodd;clip-rule:evenodd;fill:#FFFFFF;" points="283,57 300,57 300,80 283,80 283,57 	"/>
	<g>
		<path d="M284.11,74l3.37-4.81l-3.23-4.53h3.01l1.65,2.57l1.74-2.57h2.9l-3.16,4.42l3.45,4.91h-3.03l-1.9-2.89L287,74H284.11z"/>
	</g>
	<polygon style="fill-rule:evenodd;clip-rule:evenodd;" points="91,89 79,84 81,82 83,79 91,89 	"/>
	<line style="fill:none;stroke:#000000;stroke-linecap:square;stroke-miterlimit:10;" x1="71" y1="75" x2="81" y2="82"/>
	<polygon style="fill-rule:evenodd;clip-rule:evenodd;" points="144,89 133,84 135,82 136,79 144,89 	"/>
	<line style="fill:none;stroke:#000000;stroke-linecap:square;stroke-miterlimit:10;" x1="125" y1="75" x2="135" y2="82"/>
	<polygon style="fill-rule:evenodd;clip-rule:evenodd;" points="202,89 191,84 192,82 194,79 202,89 	"/>
	<line style="fill:none;stroke:#000000;stroke-linecap:square;stroke-miterlimit:10;" x1="182" y1="75" x2="192" y2="82"/>
	<polygon style="fill-rule:evenodd;clip-rule:evenodd;" points="258,89 246,84 248,82 250,79 258,89 	"/>
	<line style="fill:none;stroke:#000000;stroke-linecap:square;stroke-miterlimit:10;" x1="238" y1="75" x2="248" y2="82"/>
	<polygon style="fill-rule:evenodd;clip-rule:evenodd;" points="98,89 110,84 108,82 106,79 98,89 	"/>
	<line style="fill:none;stroke:#000000;stroke-linecap:square;stroke-miterlimit:10;" x1="118" y1="75" x2="108" y2="82"/>
	<polygon style="fill-rule:evenodd;clip-rule:evenodd;" points="154,89 165,84 164,82 162,79 154,89 	"/>
	<line style="fill:none;stroke:#000000;stroke-linecap:square;stroke-miterlimit:10;" x1="174" y1="75" x2="164" y2="82"/>
	<polygon style="fill-rule:evenodd;clip-rule:evenodd;" points="210,89 221,84 220,82 218,79 210,89 	"/>
	<line style="fill:none;stroke:#000000;stroke-linecap:square;stroke-miterlimit:10;" x1="230" y1="75" x2="220" y2="82"/>
	<polygon style="fill-rule:evenodd;clip-rule:evenodd;" points="267,89 278,84 276,82 275,79 267,89 	"/>
	<line style="fill:none;stroke:#000000;stroke-linecap:square;stroke-miterlimit:10;" x1="287" y1="75" x2="276" y2="82"/>
	<polygon style="fill-rule:evenodd;clip-rule:evenodd;fill:#FFFFFF;" points="334,14 346,14 346,37 334,37 334,14 	"/>
	<g>
		<path d="M335.13,31l3.41-4.85l-3.16-4.48h1.98l1.43,2.19c0.27,0.42,0.49,0.76,0.65,1.05c0.26-0.39,0.5-0.73,0.71-1.03l1.57-2.21
			h1.89l-3.23,4.39l3.47,4.94h-1.94l-1.92-2.9l-0.51-0.78L337.05,31H335.13z"/>
	</g>
	<polygon style="fill-rule:evenodd;clip-rule:evenodd;fill:#FFFFFF;" points="375,13 388,13 388,36 375,36 375,13 	"/>
	<g>
		<path d="M376.13,29.99l3.41-4.85l-3.16-4.48h1.98l1.43,2.19c0.27,0.42,0.49,0.76,0.65,1.05c0.26-0.39,0.5-0.73,0.71-1.03
			l1.57-2.21h1.89l-3.23,4.39l3.47,4.94h-1.94l-1.92-2.9l-0.51-0.78l-2.45,3.68H376.13z"/>
	</g>
	<line style="fill:none;stroke:#000000;stroke-linecap:square;stroke-miterlimit:10;" x1="347" y1="26" x2="375" y2="26"/>
	<polygon style="fill-rule:evenodd;clip-rule:evenodd;fill:#FFFFFF;" points="412,16 469,16 469,32 412,32 412,16 	"/>
	<g>
		<path d="M413.79,28v-8.59h1.05v3.08c0.49-0.57,1.11-0.86,1.86-0.86c0.46,0,0.86,0.09,1.2,0.27s0.58,0.43,0.73,0.75
			s0.22,0.79,0.22,1.39V28h-1.05v-3.94c0-0.53-0.11-0.91-0.34-1.15s-0.55-0.36-0.97-0.36c-0.31,0-0.61,0.08-0.88,0.24
			s-0.47,0.38-0.59,0.66s-0.18,0.66-0.18,1.15V28H413.79z"/>
		<path d="M420.47,20.62v-1.21h1.05v1.21H420.47z M420.47,28v-6.22h1.05V28H420.47z"/>
		<path d="M422.71,26.14l1.04-0.16c0.06,0.42,0.22,0.74,0.49,0.96s0.64,0.33,1.12,0.33c0.48,0,0.84-0.1,1.08-0.3
			s0.35-0.43,0.35-0.69c0-0.24-0.1-0.43-0.31-0.56c-0.14-0.09-0.5-0.21-1.08-0.36c-0.77-0.2-1.31-0.36-1.61-0.51
			s-0.53-0.34-0.68-0.59s-0.23-0.53-0.23-0.83c0-0.28,0.06-0.53,0.19-0.77s0.3-0.43,0.52-0.59c0.16-0.12,0.39-0.22,0.67-0.31
			s0.59-0.13,0.91-0.13c0.49,0,0.92,0.07,1.29,0.21s0.64,0.33,0.82,0.57s0.3,0.56,0.36,0.96l-1.03,0.14
			c-0.05-0.32-0.18-0.57-0.41-0.75s-0.54-0.27-0.95-0.27c-0.48,0-0.83,0.08-1.04,0.24s-0.31,0.35-0.31,0.56
			c0,0.14,0.04,0.26,0.13,0.37c0.09,0.11,0.22,0.21,0.4,0.28c0.11,0.04,0.42,0.13,0.93,0.27c0.75,0.2,1.27,0.36,1.56,0.49
			s0.53,0.31,0.69,0.55s0.25,0.54,0.25,0.9c0,0.35-0.1,0.68-0.31,0.99s-0.5,0.55-0.89,0.72s-0.82,0.25-1.31,0.25
			c-0.81,0-1.42-0.17-1.85-0.5S422.83,26.8,422.71,26.14z"/>
		<path d="M431.43,27.06l0.15,0.93c-0.3,0.06-0.56,0.09-0.8,0.09c-0.38,0-0.68-0.06-0.89-0.18s-0.36-0.28-0.45-0.48
			s-0.13-0.61-0.13-1.25V22.6h-0.77v-0.82h0.77v-1.54l1.05-0.63v2.17h1.06v0.82h-1.06v3.64c0,0.3,0.02,0.49,0.06,0.58
			s0.1,0.15,0.18,0.21s0.2,0.08,0.36,0.08C431.09,27.1,431.24,27.08,431.43,27.06z"/>
		<path d="M432.07,24.89c0-1.15,0.32-2.01,0.96-2.56c0.54-0.46,1.19-0.69,1.96-0.69c0.86,0,1.55,0.28,2.1,0.84s0.81,1.33,0.81,2.32
			c0,0.8-0.12,1.43-0.36,1.89s-0.59,0.82-1.05,1.07s-0.96,0.38-1.5,0.38c-0.87,0-1.58-0.28-2.11-0.84S432.07,25.94,432.07,24.89z
			 M433.16,24.89c0,0.8,0.17,1.39,0.52,1.79s0.79,0.59,1.31,0.59c0.52,0,0.96-0.2,1.31-0.6s0.52-1.01,0.52-1.82
			c0-0.77-0.17-1.35-0.52-1.75s-0.78-0.59-1.3-0.59c-0.53,0-0.96,0.2-1.31,0.59S433.16,24.09,433.16,24.89z"/>
		<path d="M439.13,28v-6.22h0.95v0.94c0.24-0.44,0.47-0.73,0.67-0.87s0.43-0.21,0.68-0.21c0.36,0,0.72,0.11,1.08,0.34l-0.36,0.98
			c-0.26-0.15-0.52-0.23-0.77-0.23c-0.23,0-0.44,0.07-0.62,0.21s-0.31,0.33-0.39,0.58c-0.12,0.38-0.18,0.79-0.18,1.23V28H439.13z"/>
		<path d="M443.09,30.4l-0.12-0.99c0.23,0.06,0.43,0.09,0.6,0.09c0.23,0,0.42-0.04,0.56-0.12s0.26-0.19,0.35-0.33
			c0.07-0.11,0.17-0.37,0.32-0.79c0.02-0.06,0.05-0.14,0.09-0.26l-2.36-6.23h1.14l1.29,3.6c0.17,0.46,0.32,0.94,0.45,1.44
			c0.12-0.48,0.27-0.96,0.43-1.42l1.33-3.63h1.05l-2.37,6.33c-0.25,0.68-0.45,1.15-0.59,1.41c-0.19,0.35-0.4,0.6-0.64,0.76
			s-0.53,0.24-0.87,0.24C443.56,30.53,443.34,30.48,443.09,30.4z"/>
		<path d="M456.15,28h-1.05v-6.72c-0.25,0.24-0.59,0.48-1,0.73s-0.78,0.42-1.11,0.54v-1.02c0.59-0.28,1.11-0.61,1.55-1.01
			s0.75-0.78,0.94-1.15h0.68V28z"/>
	</g>
	<line style="fill:none;stroke:#000000;stroke-linecap:square;stroke-miterlimit:10;" x1="345" y1="48" x2="371" y2="48"/>
	<polygon style="fill-rule:evenodd;clip-rule:evenodd;fill:#FFFFFF;" points="332,36 345,36 345,59 332,59 332,36 	"/>
	<g>
		<path d="M333.6,48.33c0-1.73,0.48-3.01,1.44-3.84c0.8-0.69,1.78-1.04,2.94-1.04c1.28,0,2.33,0.42,3.15,1.26s1.22,2,1.22,3.48
			c0,1.2-0.18,2.15-0.54,2.83c-0.36,0.69-0.89,1.22-1.57,1.6s-1.44,0.57-2.25,0.57c-1.31,0-2.36-0.42-3.17-1.26
			C334,51.12,333.6,49.91,333.6,48.33z M335.22,48.33c0,1.2,0.26,2.09,0.78,2.69s1.18,0.89,1.97,0.89c0.79,0,1.44-0.3,1.96-0.9
			s0.78-1.51,0.78-2.73c0-1.15-0.26-2.03-0.79-2.62s-1.18-0.89-1.96-0.89c-0.79,0-1.45,0.3-1.97,0.89S335.22,47.14,335.22,48.33z"/>
	</g>
	<polygon style="fill-rule:evenodd;clip-rule:evenodd;fill:#FFFFFF;" points="375,36 388,36 388,59 375,59 375,36 	"/>
	<g>
		<path d="M376.6,48.33c0-1.73,0.48-3.01,1.44-3.84c0.8-0.69,1.78-1.04,2.94-1.04c1.28,0,2.33,0.42,3.15,1.26s1.22,2,1.22,3.48
			c0,1.2-0.18,2.15-0.54,2.83c-0.36,0.69-0.89,1.22-1.57,1.6s-1.44,0.57-2.25,0.57c-1.31,0-2.36-0.42-3.17-1.26
			C377,51.12,376.6,49.91,376.6,48.33z M378.22,48.33c0,1.2,0.26,2.09,0.78,2.69s1.18,0.89,1.97,0.89c0.79,0,1.44-0.3,1.96-0.9
			s0.78-1.51,0.78-2.73c0-1.15-0.26-2.03-0.79-2.62s-1.18-0.89-1.96-0.89c-0.79,0-1.45,0.3-1.97,0.89S378.22,47.14,378.22,48.33z"/>
	</g>
	<polygon style="fill-rule:evenodd;clip-rule:evenodd;fill:#FFFFFF;" points="411,40 468,40 468,56 411,56 411,40 	"/>
	<g>
		<path d="M412.8,52v-8.59h1.05v3.08c0.49-0.57,1.11-0.86,1.86-0.86c0.46,0,0.86,0.09,1.2,0.27s0.58,0.43,0.73,0.75
			s0.22,0.79,0.22,1.39V52h-1.05v-3.94c0-0.53-0.11-0.91-0.34-1.15s-0.55-0.36-0.97-0.36c-0.31,0-0.61,0.08-0.88,0.24
			s-0.47,0.38-0.59,0.66s-0.18,0.66-0.18,1.15V52H412.8z"/>
		<path d="M419.48,44.62v-1.21h1.05v1.21H419.48z M419.48,52v-6.22h1.05V52H419.48z"/>
		<path d="M421.72,50.14l1.04-0.16c0.06,0.42,0.22,0.74,0.49,0.96s0.64,0.33,1.12,0.33c0.48,0,0.84-0.1,1.08-0.3
			s0.35-0.43,0.35-0.69c0-0.24-0.1-0.43-0.31-0.56c-0.14-0.09-0.5-0.21-1.08-0.36c-0.77-0.2-1.31-0.36-1.61-0.51
			s-0.53-0.34-0.68-0.59s-0.23-0.53-0.23-0.83c0-0.28,0.06-0.53,0.19-0.77s0.3-0.43,0.52-0.59c0.16-0.12,0.39-0.22,0.67-0.31
			s0.59-0.13,0.91-0.13c0.49,0,0.92,0.07,1.29,0.21s0.64,0.33,0.82,0.57s0.3,0.56,0.36,0.96l-1.03,0.14
			c-0.05-0.32-0.18-0.57-0.41-0.75s-0.54-0.27-0.95-0.27c-0.48,0-0.83,0.08-1.04,0.24s-0.31,0.35-0.31,0.56
			c0,0.14,0.04,0.26,0.13,0.37c0.09,0.11,0.22,0.21,0.4,0.28c0.11,0.04,0.42,0.13,0.93,0.27c0.75,0.2,1.27,0.36,1.56,0.49
			s0.53,0.31,0.69,0.55s0.25,0.54,0.25,0.9c0,0.35-0.1,0.68-0.31,0.99s-0.5,0.55-0.89,0.72s-0.82,0.25-1.31,0.25
			c-0.81,0-1.42-0.17-1.85-0.5S421.83,50.8,421.72,50.14z"/>
		<path d="M430.44,51.06l0.15,0.93c-0.3,0.06-0.56,0.09-0.8,0.09c-0.38,0-0.68-0.06-0.89-0.18s-0.36-0.28-0.45-0.48
			s-0.13-0.61-0.13-1.25V46.6h-0.77v-0.82h0.77v-1.54l1.05-0.63v2.17h1.06v0.82h-1.06v3.64c0,0.3,0.02,0.49,0.06,0.58
			s0.1,0.15,0.18,0.21s0.2,0.08,0.36,0.08C430.1,51.1,430.25,51.08,430.44,51.06z"/>
		<path d="M431.08,48.89c0-1.15,0.32-2.01,0.96-2.56c0.54-0.46,1.19-0.69,1.96-0.69c0.86,0,1.55,0.28,2.1,0.84s0.81,1.33,0.81,2.32
			c0,0.8-0.12,1.43-0.36,1.89s-0.59,0.82-1.05,1.07s-0.96,0.38-1.5,0.38c-0.87,0-1.58-0.28-2.11-0.84S431.08,49.94,431.08,48.89z
			 M432.16,48.89c0,0.8,0.17,1.39,0.52,1.79s0.79,0.59,1.31,0.59c0.52,0,0.96-0.2,1.31-0.6s0.52-1.01,0.52-1.82
			c0-0.77-0.17-1.35-0.52-1.75s-0.78-0.59-1.3-0.59c-0.53,0-0.96,0.2-1.31,0.59S432.16,48.09,432.16,48.89z"/>
		<path d="M438.13,52v-6.22h0.95v0.94c0.24-0.44,0.47-0.73,0.67-0.87s0.43-0.21,0.68-0.21c0.36,0,0.72,0.11,1.08,0.34l-0.36,0.98
			c-0.26-0.15-0.52-0.23-0.77-0.23c-0.23,0-0.44,0.07-0.62,0.21s-0.31,0.33-0.39,0.58c-0.12,0.38-0.18,0.79-0.18,1.23V52H438.13z"/>
		<path d="M442.1,54.4l-0.12-0.99c0.23,0.06,0.43,0.09,0.6,0.09c0.23,0,0.42-0.04,0.56-0.12s0.26-0.19,0.35-0.33
			c0.07-0.11,0.17-0.37,0.32-0.79c0.02-0.06,0.05-0.14,0.09-0.26l-2.36-6.23h1.14l1.29,3.6c0.17,0.46,0.32,0.94,0.45,1.44
			c0.12-0.48,0.27-0.96,0.43-1.42l1.33-3.63h1.05l-2.37,6.33c-0.25,0.68-0.45,1.15-0.59,1.41c-0.19,0.35-0.4,0.6-0.64,0.76
			s-0.53,0.24-0.87,0.24C442.57,54.53,442.35,54.48,442.1,54.4z"/>
		<path d="M456.73,50.99V52h-5.68c-0.01-0.25,0.03-0.5,0.12-0.73c0.14-0.39,0.38-0.77,0.69-1.14s0.78-0.81,1.38-1.3
			c0.93-0.77,1.56-1.37,1.89-1.82s0.49-0.87,0.49-1.27c0-0.42-0.15-0.77-0.45-1.06s-0.69-0.43-1.17-0.43
			c-0.51,0-0.91,0.15-1.22,0.46s-0.46,0.73-0.46,1.27l-1.08-0.11c0.07-0.81,0.35-1.42,0.84-1.85s1.13-0.64,1.95-0.64
			c0.82,0,1.48,0.23,1.96,0.69s0.72,1.02,0.72,1.7c0,0.34-0.07,0.68-0.21,1.01s-0.37,0.68-0.7,1.05s-0.87,0.87-1.63,1.51
			c-0.63,0.53-1.04,0.89-1.22,1.08s-0.33,0.38-0.45,0.57H456.73z"/>
	</g>
	<polygon style="fill-rule:evenodd;clip-rule:evenodd;" points="354,145 342,148 342,145 342,142 354,145 	"/>
	<line style="fill:none;stroke:#000000;stroke-linecap:square;stroke-miterlimit:10;" x1="4" y1="145" x2="342" y2="145"/>
	<g>
		<path d="M310.1,158.06l0.15,0.93c-0.3,0.06-0.56,0.09-0.8,0.09c-0.38,0-0.68-0.06-0.89-0.18s-0.36-0.28-0.45-0.48
			s-0.13-0.61-0.13-1.25v-3.58h-0.77v-0.82h0.77v-1.54l1.05-0.63v2.17h1.06v0.82h-1.06v3.64c0,0.3,0.02,0.49,0.06,0.58
			s0.1,0.15,0.18,0.21s0.2,0.08,0.36,0.08C309.76,158.1,309.91,158.08,310.1,158.06z"/>
		<path d="M311.14,151.62v-1.21h1.05v1.21H311.14z M311.14,159v-6.22h1.05V159H311.14z"/>
		<path d="M313.8,159v-6.22h0.94v0.87c0.2-0.3,0.46-0.55,0.78-0.74s0.69-0.28,1.11-0.28c0.46,0,0.84,0.1,1.13,0.29
			s0.5,0.46,0.62,0.8c0.49-0.73,1.13-1.09,1.92-1.09c0.62,0,1.09,0.17,1.42,0.51s0.5,0.87,0.5,1.58V159h-1.05v-3.92
			c0-0.42-0.03-0.73-0.1-0.91s-0.19-0.33-0.37-0.45s-0.39-0.17-0.63-0.17c-0.44,0-0.8,0.15-1.09,0.44s-0.43,0.76-0.43,1.4V159h-1.05
			v-4.04c0-0.47-0.09-0.82-0.26-1.05s-0.45-0.35-0.84-0.35c-0.3,0-0.57,0.08-0.82,0.23s-0.43,0.38-0.55,0.69s-0.17,0.73-0.17,1.3
			V159H313.8z"/>
		<path d="M328.05,157l1.09,0.13c-0.17,0.64-0.49,1.13-0.96,1.48s-1.06,0.53-1.78,0.53c-0.91,0-1.63-0.28-2.17-0.84
			s-0.8-1.35-0.8-2.36c0-1.05,0.27-1.86,0.81-2.44s1.24-0.87,2.1-0.87c0.83,0,1.51,0.28,2.04,0.85s0.79,1.36,0.79,2.39
			c0,0.06,0,0.16-0.01,0.28h-4.64c0.04,0.68,0.23,1.21,0.58,1.57s0.78,0.54,1.3,0.54c0.39,0,0.72-0.1,0.99-0.3
			S327.89,157.44,328.05,157z M324.59,155.29h3.47c-0.05-0.52-0.18-0.92-0.4-1.18c-0.34-0.41-0.77-0.61-1.31-0.61
			c-0.48,0-0.89,0.16-1.22,0.49S324.63,154.75,324.59,155.29z"/>
	</g>
</g>
</svg>
