<?xml version="1.0" encoding="iso-8859-1"?>
<!-- Generator: Adobe Illustrator 16.0.3, SVG Export Plug-In . SVG Version: 6.00 Build 0)  -->
<!DOCTYPE svg PUBLIC "-//W3C//DTD SVG 1.1//EN" "http://www.w3.org/Graphics/SVG/1.1/DTD/svg11.dtd">
<svg version="1.1" id="Layer_1" xmlns="http://www.w3.org/2000/svg" xmlns:xlink="http://www.w3.org/1999/xlink" x="0px" y="0px"
	 width="468px" height="190.35px" viewBox="0 0 468 190.35" style="enable-background:new 0 0 468 190.35;" xml:space="preserve">
<g>
	<g>
		<defs>
			<rect id="SVGID_1_" width="468" height="186.96"/>
		</defs>
		<clipPath id="SVGID_2_">
			<use xlink:href="#SVGID_1_"  style="overflow:visible;"/>
		</clipPath>
		<g style="clip-path:url(#SVGID_2_);">
		</g>
	</g>
	<polygon style="fill:none;stroke:#000000;stroke-width:0.12;stroke-linecap:round;stroke-miterlimit:8;" points="130.55,10.75 
		130.55,166.15 136.65,166.15 136.65,10.75 130.55,10.75 	"/>
	<g>
		<defs>
			<polygon id="SVGID_3_" points="204.96,158.52 208.44,158.52 208.44,179.76 204.96,179.76 204.96,158.52 			"/>
		</defs>
		<clipPath id="SVGID_4_">
			<use xlink:href="#SVGID_3_"  style="overflow:visible;"/>
		</clipPath>
		<g style="clip-path:url(#SVGID_4_);">
			<defs>
				<rect id="SVGID_5_" x="204.96" y="158.52" width="3.48" height="21.24"/>
			</defs>
			<clipPath id="SVGID_6_">
				<use xlink:href="#SVGID_5_"  style="overflow:visible;"/>
			</clipPath>
			<g style="clip-path:url(#SVGID_6_);">
				<path d="M208.29,173l-1.04,4.57c-0.05,0.17-0.07,0.3-0.07,0.4c0,0.11,0.03,0.21,0.08,0.27c0.06,0.07,0.13,0.1,0.21,0.1
					c0.1,0,0.19-0.04,0.28-0.12c0.14-0.12,0.32-0.33,0.54-0.64l0.38,0.33c-0.21,0.31-0.45,0.56-0.72,0.73s-0.53,0.26-0.77,0.26
					c-0.26,0-0.48-0.09-0.66-0.28s-0.27-0.4-0.27-0.65c0-0.17,0.03-0.39,0.1-0.65l0.76-3.36h-1.33l0.12-0.49
					c0.33-0.02,0.62-0.06,0.9-0.12c0.27-0.07,0.6-0.18,0.99-0.34H208.29z M208.18,170.2c0.17,0,0.31,0.06,0.42,0.17
					s0.17,0.26,0.17,0.44c0,0.2-0.07,0.38-0.21,0.52s-0.31,0.22-0.5,0.22c-0.17,0-0.32-0.06-0.44-0.18s-0.18-0.26-0.18-0.43
					c0-0.2,0.07-0.37,0.22-0.52S207.98,170.2,208.18,170.2z"/>
			</g>
		</g>
		<g style="clip-path:url(#SVGID_4_);">
			<defs>
				<rect id="SVGID_7_" x="204.96" y="158.52" width="3.48" height="21.24"/>
			</defs>
			<clipPath id="SVGID_8_">
				<use xlink:href="#SVGID_7_"  style="overflow:visible;"/>
			</clipPath>
			<g style="clip-path:url(#SVGID_8_);">
			</g>
		</g>
	</g>
	<g>
		<defs>
			<polygon id="SVGID_9_" points="93.36,77.16 119.76,77.16 119.76,99.36 93.36,99.36 93.36,77.16 			"/>
		</defs>
		<clipPath id="SVGID_10_">
			<use xlink:href="#SVGID_9_"  style="overflow:visible;"/>
		</clipPath>
		<g style="clip-path:url(#SVGID_10_);">
			<defs>
				<rect id="SVGID_11_" x="93.36" y="77.16" width="26.4" height="22.2"/>
			</defs>
			<clipPath id="SVGID_12_">
				<use xlink:href="#SVGID_11_"  style="overflow:visible;"/>
			</clipPath>
			<g style="clip-path:url(#SVGID_12_);">
				<path d="M100.9,96.52c0,0.31-0.11,0.57-0.32,0.78c-0.21,0.21-0.47,0.32-0.77,0.32c-0.3,0-0.56-0.11-0.77-0.32
					s-0.32-0.47-0.32-0.78c0-0.3,0.11-0.56,0.32-0.77s0.47-0.32,0.77-0.32c0.3,0,0.56,0.11,0.77,0.32
					C100.8,95.96,100.9,96.22,100.9,96.52z M107.59,96.52c0,0.31-0.11,0.57-0.32,0.78s-0.47,0.32-0.77,0.32
					c-0.3,0-0.56-0.11-0.77-0.32s-0.32-0.47-0.32-0.78c0-0.3,0.11-0.56,0.32-0.77s0.47-0.32,0.77-0.32c0.3,0,0.56,0.11,0.77,0.32
					S107.59,96.22,107.59,96.52z M114.27,96.52c0,0.31-0.11,0.57-0.32,0.78s-0.47,0.32-0.77,0.32c-0.3,0-0.56-0.11-0.77-0.32
					s-0.32-0.47-0.32-0.78c0-0.3,0.11-0.56,0.32-0.77s0.47-0.32,0.77-0.32c0.3,0,0.56,0.11,0.77,0.32S114.27,96.22,114.27,96.52z"/>
			</g>
		</g>
		<g style="clip-path:url(#SVGID_10_);">
			<defs>
				<rect id="SVGID_13_" x="93.36" y="77.16" width="26.4" height="22.2"/>
			</defs>
			<clipPath id="SVGID_14_">
				<use xlink:href="#SVGID_13_"  style="overflow:visible;"/>
			</clipPath>
			<g style="clip-path:url(#SVGID_14_);">
			</g>
		</g>
	</g>
	<g>
		<defs>
			<polygon id="SVGID_15_" points="298.68,77.16 325.56,77.16 325.56,105.84 298.68,105.84 298.68,77.16 			"/>
		</defs>
		<clipPath id="SVGID_16_">
			<use xlink:href="#SVGID_15_"  style="overflow:visible;"/>
		</clipPath>
		<g style="clip-path:url(#SVGID_16_);">
			<defs>
				<rect id="SVGID_17_" x="298.68" y="77.16" width="26.88" height="28.68"/>
			</defs>
			<clipPath id="SVGID_18_">
				<use xlink:href="#SVGID_17_"  style="overflow:visible;"/>
			</clipPath>
			<g style="clip-path:url(#SVGID_18_);">
				<path d="M303.1,96.4c0,0.31-0.11,0.57-0.32,0.78s-0.47,0.32-0.77,0.32c-0.3,0-0.56-0.11-0.77-0.32s-0.32-0.47-0.32-0.78
					c0-0.3,0.11-0.56,0.32-0.77s0.47-0.32,0.77-0.32c0.3,0,0.56,0.11,0.77,0.32S303.1,96.1,303.1,96.4z M309.78,96.4
					c0,0.31-0.11,0.57-0.32,0.78S309,97.5,308.7,97.5c-0.3,0-0.56-0.11-0.77-0.32s-0.32-0.47-0.32-0.78c0-0.3,0.11-0.56,0.32-0.77
					s0.47-0.32,0.77-0.32c0.3,0,0.56,0.11,0.77,0.32S309.78,96.1,309.78,96.4z M316.46,96.4c0,0.31-0.11,0.57-0.32,0.78
					s-0.47,0.32-0.77,0.32s-0.56-0.11-0.77-0.32c-0.21-0.21-0.32-0.47-0.32-0.78c0-0.3,0.11-0.56,0.32-0.77
					c0.21-0.21,0.47-0.32,0.77-0.32s0.56,0.11,0.77,0.32S316.46,96.1,316.46,96.4z"/>
			</g>
		</g>
		<g style="clip-path:url(#SVGID_16_);">
			<defs>
				<rect id="SVGID_19_" x="298.68" y="77.16" width="26.88" height="28.68"/>
			</defs>
			<clipPath id="SVGID_20_">
				<use xlink:href="#SVGID_19_"  style="overflow:visible;"/>
			</clipPath>
			<g style="clip-path:url(#SVGID_20_);">
			</g>
		</g>
	</g>
	<g>
		<defs>
			<polygon id="SVGID_21_" points="234.12,122.88 249.6,122.88 249.6,150 234.12,150 234.12,122.88 			"/>
		</defs>
		<clipPath id="SVGID_22_">
			<use xlink:href="#SVGID_21_"  style="overflow:visible;"/>
		</clipPath>
		<g style="clip-path:url(#SVGID_22_);">
			<defs>
				<rect id="SVGID_23_" x="234.12" y="122.88" width="15.48" height="27.12"/>
			</defs>
			<clipPath id="SVGID_24_">
				<use xlink:href="#SVGID_23_"  style="overflow:visible;"/>
			</clipPath>
			<g style="clip-path:url(#SVGID_24_);">
				<path d="M244.05,135.8l0.35,2.84l-0.67,0.13c-0.1-0.53-0.25-0.94-0.44-1.23s-0.44-0.5-0.72-0.63c-0.28-0.13-0.71-0.19-1.29-0.19
					c-0.15,0-0.24,0.02-0.29,0.07s-0.09,0.15-0.13,0.32l-1.62,7.09c-0.04,0.17-0.05,0.3-0.05,0.41c0,0.11,0.03,0.21,0.1,0.29
					c0.07,0.08,0.16,0.14,0.27,0.16c0.12,0.03,0.37,0.04,0.74,0.04l-0.12,0.58h-3.76l0.14-0.58c0.33,0,0.56-0.02,0.72-0.04
					c0.16-0.02,0.28-0.06,0.36-0.13c0.08-0.06,0.15-0.15,0.21-0.26c0.09-0.19,0.15-0.34,0.17-0.45l1.59-7.01
					c0.03-0.14,0.05-0.25,0.05-0.32c0-0.06-0.02-0.1-0.07-0.13s-0.16-0.04-0.33-0.04c-0.45,0-0.83,0.07-1.15,0.22
					s-0.64,0.4-0.98,0.76c-0.22,0.23-0.5,0.62-0.85,1.17l-0.56-0.32l1.47-2.74h0.47v0.3h5.6l0.28-0.3H244.05z"/>
			</g>
		</g>
		<g style="clip-path:url(#SVGID_22_);">
			<defs>
				<rect id="SVGID_25_" x="234.12" y="122.88" width="15.48" height="27.12"/>
			</defs>
			<clipPath id="SVGID_26_">
				<use xlink:href="#SVGID_25_"  style="overflow:visible;"/>
			</clipPath>
			<g style="clip-path:url(#SVGID_26_);">
				<path d="M245.14,142.3l-0.78,3.42c-0.04,0.13-0.05,0.22-0.05,0.3c0,0.08,0.02,0.15,0.06,0.2c0.04,0.05,0.09,0.07,0.16,0.07
					c0.07,0,0.15-0.03,0.21-0.09c0.11-0.09,0.24-0.25,0.4-0.48l0.28,0.25c-0.16,0.23-0.33,0.42-0.54,0.55
					c-0.2,0.13-0.4,0.2-0.58,0.2c-0.2,0-0.36-0.07-0.5-0.21c-0.13-0.14-0.2-0.3-0.2-0.49c0-0.13,0.03-0.29,0.08-0.49l0.57-2.52h-1
					l0.09-0.37c0.24-0.01,0.47-0.04,0.67-0.09c0.2-0.05,0.45-0.13,0.75-0.26H245.14z M245.05,140.19c0.13,0,0.23,0.04,0.31,0.13
					c0.08,0.08,0.13,0.19,0.13,0.33c0,0.15-0.05,0.28-0.16,0.39c-0.11,0.11-0.23,0.17-0.37,0.17c-0.13,0-0.24-0.04-0.33-0.13
					c-0.09-0.09-0.14-0.2-0.14-0.32c0-0.15,0.05-0.28,0.17-0.39C244.77,140.25,244.9,140.19,245.05,140.19z"/>
			</g>
		</g>
		<g style="clip-path:url(#SVGID_22_);">
			<defs>
				<rect id="SVGID_27_" x="234.12" y="122.88" width="15.48" height="27.12"/>
			</defs>
			<clipPath id="SVGID_28_">
				<use xlink:href="#SVGID_27_"  style="overflow:visible;"/>
			</clipPath>
			<g style="clip-path:url(#SVGID_28_);">
			</g>
		</g>
	</g>
	<polygon style="fill:none;stroke:#000000;stroke-width:0.12;stroke-linecap:round;stroke-miterlimit:8;" points="279.3,11.2 
		279.3,166.15 285.4,166.15 285.4,11.2 279.3,11.2 	"/>
	<polygon style="fill:none;stroke:#000000;stroke-width:0.75;stroke-linecap:round;stroke-miterlimit:8;" points="204.95,10.75 
		204.95,166.15 211.05,166.15 211.05,10.75 204.95,10.75 	"/>
	<polygon style="fill:none;stroke:#000000;stroke-width:1;stroke-linecap:round;stroke-miterlimit:8;" points="204.95,10.75 
		204.95,166.15 211.05,166.15 211.05,10.75 204.95,10.75 	"/>
	<polygon style="fill:none;stroke:#000000;stroke-width:0.25;stroke-linecap:round;stroke-miterlimit:8;" points="73.7,11.2 
		73.7,166.15 79.8,166.15 79.8,11.2 73.7,11.2 	"/>
	<polygon style="fill:none;stroke:#000000;stroke-width:0.25;stroke-linecap:round;stroke-miterlimit:8;" points="73.7,11.2 
		73.7,166.15 79.8,166.15 79.8,11.2 73.7,11.2 	"/>
	<polygon style="fill:none;stroke:#000000;stroke-width:0.12;stroke-linecap:round;stroke-miterlimit:8;" points="337.9,11.2 
		337.9,166.15 344.05,166.15 344.05,11.2 337.9,11.2 	"/>
	
		<line style="fill:none;stroke:#000000;stroke-width:1;stroke-linejoin:round;stroke-miterlimit:8;" x1="8.05" y1="10.75" x2="8.05" y2="169.95"/>
	
		<line style="fill:none;stroke:#000000;stroke-width:1;stroke-linejoin:round;stroke-miterlimit:8;" x1="8.05" y1="10.75" x2="21.2" y2="10.75"/>
	
		<line style="fill:none;stroke:#000000;stroke-width:1;stroke-linejoin:round;stroke-miterlimit:8;" x1="8.05" y1="169.95" x2="21.2" y2="169.95"/>
	
		<line style="fill:none;stroke:#000000;stroke-width:1;stroke-linejoin:round;stroke-miterlimit:8;" x1="406.4" y1="6.35" x2="406.4" y2="169.95"/>
	
		<line style="fill:none;stroke:#000000;stroke-width:1;stroke-linejoin:round;stroke-miterlimit:8;" x1="393.3" y1="6.35" x2="406.4" y2="6.35"/>
	
		<line style="fill:none;stroke:#000000;stroke-width:1;stroke-linejoin:round;stroke-miterlimit:8;" x1="393.3" y1="169.95" x2="406.4" y2="169.95"/>
	<g>
		<defs>
			<polygon id="SVGID_29_" points="273.48,158.52 291.6,158.52 291.6,179.76 273.48,179.76 273.48,158.52 			"/>
		</defs>
		<clipPath id="SVGID_30_">
			<use xlink:href="#SVGID_29_"  style="overflow:visible;"/>
		</clipPath>
		<g style="clip-path:url(#SVGID_30_);">
			<defs>
				<rect id="SVGID_31_" x="273.48" y="158.52" width="18.12" height="21.24"/>
			</defs>
			<clipPath id="SVGID_32_">
				<use xlink:href="#SVGID_31_"  style="overflow:visible;"/>
			</clipPath>
			<g style="clip-path:url(#SVGID_32_);">
				<path d="M276.81,173l-1.04,4.57c-0.05,0.17-0.07,0.3-0.07,0.4c0,0.11,0.03,0.21,0.08,0.27c0.06,0.07,0.13,0.1,0.21,0.1
					c0.1,0,0.19-0.04,0.28-0.12c0.14-0.12,0.32-0.33,0.54-0.64l0.38,0.33c-0.21,0.31-0.45,0.56-0.72,0.73
					c-0.27,0.17-0.53,0.26-0.77,0.26c-0.26,0-0.48-0.09-0.66-0.28c-0.18-0.19-0.27-0.4-0.27-0.65c0-0.17,0.03-0.39,0.1-0.65
					l0.76-3.36h-1.33l0.12-0.49c0.33-0.02,0.63-0.06,0.9-0.12c0.27-0.07,0.6-0.18,0.99-0.34H276.81z M276.7,170.2
					c0.17,0,0.31,0.06,0.42,0.17s0.17,0.26,0.17,0.44c0,0.2-0.07,0.38-0.21,0.52s-0.31,0.22-0.5,0.22c-0.17,0-0.32-0.06-0.44-0.18
					s-0.18-0.26-0.18-0.43c0-0.2,0.07-0.37,0.22-0.52S276.5,170.2,276.7,170.2z"/>
				<path d="M284.02,174.35v0.72h-2.5v2.5h-0.72v-2.5h-2.5v-0.72h2.5v-2.5h0.72v2.5H284.02z"/>
				<path d="M290.24,170.62l-1.58,6.93c-0.04,0.15-0.06,0.25-0.06,0.32c0,0.09,0.03,0.17,0.08,0.24c0.05,0.07,0.12,0.12,0.21,0.15
					s0.25,0.04,0.48,0.04h0.49l-0.11,0.49h-3.79l0.12-0.49h0.45c0.37,0,0.61-0.02,0.73-0.07s0.21-0.13,0.29-0.24
					s0.15-0.33,0.22-0.64l1.25-5.51h-1.8l0.13-0.5c0.38-0.06,0.8-0.16,1.25-0.29s0.83-0.28,1.15-0.42H290.24z"/>
			</g>
		</g>
		<g style="clip-path:url(#SVGID_30_);">
			<defs>
				<rect id="SVGID_33_" x="273.48" y="158.52" width="18.12" height="21.24"/>
			</defs>
			<clipPath id="SVGID_34_">
				<use xlink:href="#SVGID_33_"  style="overflow:visible;"/>
			</clipPath>
			<g style="clip-path:url(#SVGID_34_);">
			</g>
		</g>
	</g>
	<g>
		<defs>
			<polygon id="SVGID_35_" points="125.76,157.92 140.4,157.92 140.4,179.16 125.76,179.16 125.76,157.92 			"/>
		</defs>
		<clipPath id="SVGID_36_">
			<use xlink:href="#SVGID_35_"  style="overflow:visible;"/>
		</clipPath>
		<g style="clip-path:url(#SVGID_36_);">
			<defs>
				<rect id="SVGID_37_" x="125.76" y="157.92" width="14.64" height="21.24"/>
			</defs>
			<clipPath id="SVGID_38_">
				<use xlink:href="#SVGID_37_"  style="overflow:visible;"/>
			</clipPath>
			<g style="clip-path:url(#SVGID_38_);">
				<path d="M129.09,172.41l-1.04,4.57c-0.05,0.17-0.07,0.3-0.07,0.4c0,0.11,0.03,0.21,0.08,0.27c0.06,0.07,0.13,0.1,0.21,0.1
					c0.1,0,0.19-0.04,0.28-0.12c0.14-0.12,0.32-0.33,0.54-0.64l0.38,0.33c-0.21,0.31-0.45,0.56-0.72,0.73s-0.53,0.26-0.77,0.26
					c-0.26,0-0.48-0.09-0.66-0.28s-0.27-0.4-0.27-0.65c0-0.17,0.03-0.39,0.1-0.65l0.76-3.36h-1.33l0.12-0.49
					c0.33-0.02,0.62-0.06,0.9-0.12c0.27-0.07,0.6-0.18,0.99-0.34H129.09z M128.98,169.61c0.17,0,0.31,0.06,0.42,0.17
					s0.17,0.26,0.17,0.44c0,0.2-0.07,0.38-0.21,0.52s-0.31,0.22-0.5,0.22c-0.17,0-0.32-0.06-0.44-0.18s-0.18-0.26-0.18-0.43
					c0-0.2,0.07-0.37,0.22-0.52S128.79,169.61,128.98,169.61z"/>
			</g>
		</g>
		<g style="clip-path:url(#SVGID_36_);">
			<defs>
				<rect id="SVGID_39_" x="125.76" y="157.92" width="14.64" height="21.24"/>
			</defs>
			<clipPath id="SVGID_40_">
				<use xlink:href="#SVGID_39_"  style="overflow:visible;"/>
			</clipPath>
			<g style="clip-path:url(#SVGID_40_);">
				<path d="M130.16,174.91h3.06l-0.15,0.65h-3.07L130.16,174.91z"/>
			</g>
		</g>
		<g style="clip-path:url(#SVGID_36_);">
			<defs>
				<rect id="SVGID_41_" x="125.76" y="157.92" width="14.64" height="21.24"/>
			</defs>
			<clipPath id="SVGID_42_">
				<use xlink:href="#SVGID_41_"  style="overflow:visible;"/>
			</clipPath>
			<g style="clip-path:url(#SVGID_42_);">
				<path d="M139.15,170.03l-1.58,6.93c-0.04,0.15-0.06,0.25-0.06,0.32c0,0.09,0.03,0.17,0.08,0.24c0.05,0.07,0.12,0.12,0.21,0.15
					s0.25,0.04,0.48,0.04h0.49l-0.11,0.49h-3.79l0.12-0.49h0.45c0.37,0,0.61-0.02,0.73-0.07s0.21-0.13,0.29-0.24
					s0.15-0.33,0.22-0.64l1.25-5.51h-1.8l0.12-0.5c0.38-0.06,0.8-0.16,1.25-0.29c0.45-0.13,0.83-0.28,1.15-0.42H139.15z"/>
			</g>
		</g>
		<g style="clip-path:url(#SVGID_36_);">
			<defs>
				<rect id="SVGID_43_" x="125.76" y="157.92" width="14.64" height="21.24"/>
			</defs>
			<clipPath id="SVGID_44_">
				<use xlink:href="#SVGID_43_"  style="overflow:visible;"/>
			</clipPath>
			<g style="clip-path:url(#SVGID_44_);">
			</g>
		</g>
	</g>
	
		<line style="fill:none;stroke:#000000;stroke-linecap:round;stroke-linejoin:round;stroke-miterlimit:8;" x1="229.35" y1="132.95" x2="211.8" y2="141.92"/>
	<polygon style="fill-rule:evenodd;clip-rule:evenodd;" points="214.06,144.14 207.35,144.2 211.33,138.8 214.06,144.14 	"/>
	
		<line style="fill:none;stroke:#000000;stroke-width:1;stroke-linejoin:round;stroke-miterlimit:8;" x1="211.15" y1="52.05" x2="216.99" y2="46.11"/>
	<polygon style="fill-rule:evenodd;clip-rule:evenodd;" points="214.87,45.42 220.5,42.55 217.72,48.23 214.87,45.42 	"/>
	
		<line style="fill:none;stroke:#000000;stroke-width:1;stroke-linejoin:round;stroke-miterlimit:8;" x1="211.15" y1="52.05" x2="220.4" y2="52.08"/>
	<polygon style="fill-rule:evenodd;clip-rule:evenodd;" points="219.41,50.08 225.4,52.1 219.39,54.08 219.41,50.08 	"/>
	
		<line style="fill:none;stroke:#000000;stroke-width:1;stroke-linejoin:round;stroke-miterlimit:8;" x1="211.2" y1="52.5" x2="216.24" y2="57.19"/>
	<polygon style="fill-rule:evenodd;clip-rule:evenodd;" points="216.87,55.05 219.9,60.6 214.15,57.97 216.87,55.05 	"/>
	
		<line style="fill:none;stroke:#000000;stroke-width:1;stroke-linejoin:round;stroke-miterlimit:8;" x1="204.4" y1="52.85" x2="199.39" y2="57.97"/>
	<polygon style="fill-rule:evenodd;clip-rule:evenodd;" points="201.52,58.66 195.9,61.55 198.66,55.86 201.52,58.66 	"/>
	
		<line style="fill:none;stroke:#000000;stroke-width:1;stroke-linejoin:round;stroke-miterlimit:8;" x1="204.5" y1="52.4" x2="195.35" y2="52.43"/>
	<polygon style="fill-rule:evenodd;clip-rule:evenodd;" points="196.36,54.43 190.35,52.45 196.34,50.43 196.36,54.43 	"/>
	
		<line style="fill:none;stroke:#000000;stroke-width:1;stroke-linejoin:round;stroke-miterlimit:8;" x1="204.6" y1="51.9" x2="199.56" y2="47.21"/>
	<polygon style="fill-rule:evenodd;clip-rule:evenodd;" points="198.93,49.35 195.9,43.8 201.65,46.42 198.93,49.35 	"/>
	<g>
		<defs>
			<polygon id="SVGID_45_" points="155.52,35.16 183.96,35.16 183.96,59.76 155.52,59.76 155.52,35.16 			"/>
		</defs>
		<clipPath id="SVGID_46_">
			<use xlink:href="#SVGID_45_"  style="overflow:visible;"/>
		</clipPath>
		<g style="clip-path:url(#SVGID_46_);">
			<defs>
				<rect id="SVGID_47_" x="155.52" y="35.16" width="28.44" height="24.6"/>
			</defs>
			<clipPath id="SVGID_48_">
				<use xlink:href="#SVGID_47_"  style="overflow:visible;"/>
			</clipPath>
			<g style="clip-path:url(#SVGID_48_);">
				<path d="M163.31,40.78h4.82l-0.16,0.74h-0.47c-0.38,0-0.66,0.05-0.83,0.16s-0.31,0.26-0.41,0.47c-0.06,0.15-0.14,0.44-0.23,0.88
					l-1.44,6.43c-0.17,0.75-0.38,1.32-0.62,1.71c-0.24,0.39-0.57,0.75-0.99,1.06s-0.92,0.57-1.48,0.75
					c-0.56,0.18-1.14,0.27-1.73,0.27c-0.72,0-1.35-0.13-1.9-0.4s-0.96-0.62-1.24-1.07c-0.28-0.45-0.42-0.94-0.42-1.48
					c0-0.5,0.13-0.92,0.38-1.24s0.53-0.49,0.84-0.49c0.22,0,0.41,0.07,0.55,0.22s0.22,0.33,0.22,0.56c0,0.21-0.09,0.45-0.27,0.74
					c-0.18,0.29-0.26,0.52-0.26,0.68c0,0.41,0.19,0.77,0.57,1.09c0.38,0.32,0.88,0.48,1.49,0.48c0.49,0,0.93-0.08,1.32-0.26
					c0.39-0.17,0.74-0.42,1.03-0.74c0.29-0.32,0.53-0.72,0.7-1.18c0.12-0.31,0.23-0.72,0.34-1.22l1.4-6.09
					c0.06-0.27,0.1-0.5,0.1-0.67c0-0.15-0.04-0.29-0.13-0.4c-0.09-0.11-0.2-0.18-0.33-0.22c-0.13-0.03-0.46-0.05-0.99-0.05
					L163.31,40.78z"/>
			</g>
		</g>
		<g style="clip-path:url(#SVGID_46_);">
			<defs>
				<rect id="SVGID_49_" x="155.52" y="35.16" width="28.44" height="24.6"/>
			</defs>
			<clipPath id="SVGID_50_">
				<use xlink:href="#SVGID_49_"  style="overflow:visible;"/>
			</clipPath>
			<g style="clip-path:url(#SVGID_50_);">
				<path d="M170.01,49.02l-0.13,0.54h-1.22l-1.01,4.37c-0.09,0.41-0.22,0.81-0.39,1.22c-0.17,0.41-0.42,0.72-0.74,0.95
					c-0.32,0.22-0.67,0.33-1.05,0.33c-0.31,0-0.55-0.07-0.73-0.2c-0.18-0.13-0.27-0.28-0.27-0.44c0-0.11,0.04-0.21,0.12-0.29
					c0.08-0.08,0.18-0.12,0.3-0.12c0.14,0,0.29,0.08,0.46,0.23c0.12,0.11,0.21,0.18,0.26,0.21c0.06,0.03,0.12,0.05,0.18,0.05
					c0.2,0,0.37-0.09,0.52-0.27s0.29-0.56,0.42-1.14l1.11-4.88h-0.9l0.11-0.54h0.92l0.12-0.51c0.16-0.73,0.43-1.26,0.8-1.59
					s0.84-0.49,1.41-0.49c0.38,0,0.69,0.08,0.9,0.24c0.22,0.16,0.33,0.33,0.33,0.52c0,0.11-0.04,0.21-0.13,0.3
					c-0.09,0.09-0.19,0.13-0.31,0.13c-0.08,0-0.16-0.02-0.23-0.06c-0.09-0.05-0.19-0.13-0.3-0.26c-0.13-0.14-0.23-0.24-0.32-0.29
					c-0.08-0.05-0.17-0.07-0.26-0.07c-0.12,0-0.23,0.03-0.34,0.1c-0.11,0.06-0.2,0.16-0.28,0.28c-0.08,0.12-0.17,0.31-0.26,0.58
					c-0.05,0.13-0.09,0.3-0.14,0.53l-0.14,0.58H170.01z"/>
			</g>
		</g>
		<g style="clip-path:url(#SVGID_46_);">
			<defs>
				<rect id="SVGID_51_" x="155.52" y="35.16" width="28.44" height="24.6"/>
			</defs>
			<clipPath id="SVGID_52_">
				<use xlink:href="#SVGID_51_"  style="overflow:visible;"/>
			</clipPath>
			<g style="clip-path:url(#SVGID_52_);">
				<path d="M169.96,55.8l-0.23-0.35c0.32-0.18,0.59-0.36,0.81-0.54c0.21-0.18,0.37-0.35,0.47-0.51c0.06-0.09,0.1-0.22,0.13-0.4
					c-0.1,0.02-0.18,0.03-0.24,0.03c-0.14,0-0.26-0.05-0.36-0.16c-0.1-0.11-0.15-0.25-0.15-0.42c0-0.18,0.06-0.33,0.17-0.44
					c0.11-0.11,0.26-0.17,0.43-0.17c0.21,0,0.39,0.08,0.54,0.24c0.15,0.16,0.22,0.37,0.22,0.63c0,0.23-0.06,0.46-0.17,0.69
					c-0.11,0.23-0.29,0.46-0.55,0.69S170.43,55.55,169.96,55.8z"/>
			</g>
		</g>
		<g style="clip-path:url(#SVGID_46_);">
			<defs>
				<rect id="SVGID_53_" x="155.52" y="35.16" width="28.44" height="24.6"/>
			</defs>
			<clipPath id="SVGID_54_">
				<use xlink:href="#SVGID_53_"  style="overflow:visible;"/>
			</clipPath>
			<g style="clip-path:url(#SVGID_54_);">
				<path d="M178.06,49.65l-0.78,3.42c-0.04,0.13-0.05,0.23-0.05,0.3c0,0.09,0.02,0.15,0.06,0.2c0.04,0.05,0.1,0.07,0.16,0.07
					c0.07,0,0.15-0.03,0.21-0.09c0.11-0.09,0.24-0.25,0.4-0.48l0.28,0.25c-0.16,0.23-0.34,0.42-0.54,0.55
					c-0.2,0.13-0.4,0.2-0.58,0.2c-0.2,0-0.36-0.07-0.5-0.21c-0.13-0.14-0.2-0.3-0.2-0.49c0-0.13,0.02-0.29,0.07-0.49l0.57-2.52h-1
					l0.09-0.37c0.24-0.01,0.47-0.04,0.67-0.09c0.2-0.05,0.45-0.13,0.74-0.26H178.06z M177.98,47.55c0.13,0,0.23,0.04,0.31,0.13
					c0.08,0.08,0.13,0.19,0.13,0.33c0,0.15-0.05,0.28-0.16,0.39c-0.11,0.11-0.23,0.16-0.37,0.16c-0.13,0-0.24-0.04-0.33-0.13
					c-0.09-0.09-0.14-0.2-0.14-0.32c0-0.15,0.06-0.28,0.17-0.39C177.7,47.61,177.83,47.55,177.98,47.55z"/>
			</g>
		</g>
		<g style="clip-path:url(#SVGID_46_);">
			<defs>
				<rect id="SVGID_55_" x="155.52" y="35.16" width="28.44" height="24.6"/>
			</defs>
			<clipPath id="SVGID_56_">
				<use xlink:href="#SVGID_55_"  style="overflow:visible;"/>
			</clipPath>
			<g style="clip-path:url(#SVGID_56_);">
			</g>
		</g>
	</g>
	<g>
		<defs>
			<polygon id="SVGID_57_" points="234.12,35.16 264,35.16 264,59.76 234.12,59.76 234.12,35.16 			"/>
		</defs>
		<clipPath id="SVGID_58_">
			<use xlink:href="#SVGID_57_"  style="overflow:visible;"/>
		</clipPath>
		<g style="clip-path:url(#SVGID_58_);">
			<defs>
				<rect id="SVGID_59_" x="234.12" y="35.16" width="29.88" height="24.6"/>
			</defs>
			<clipPath id="SVGID_60_">
				<use xlink:href="#SVGID_59_"  style="overflow:visible;"/>
			</clipPath>
			<g style="clip-path:url(#SVGID_60_);">
				<path d="M241.9,40.78h4.82l-0.16,0.74h-0.47c-0.38,0-0.66,0.05-0.84,0.16s-0.31,0.26-0.41,0.47c-0.07,0.15-0.14,0.44-0.23,0.88
					l-1.45,6.43c-0.17,0.75-0.38,1.32-0.62,1.71s-0.57,0.75-0.99,1.06s-0.92,0.57-1.48,0.75c-0.56,0.18-1.14,0.27-1.73,0.27
					c-0.72,0-1.35-0.13-1.9-0.4c-0.55-0.27-0.96-0.62-1.24-1.07s-0.42-0.94-0.42-1.48c0-0.5,0.13-0.92,0.38-1.24
					s0.53-0.49,0.84-0.49c0.22,0,0.41,0.07,0.55,0.22s0.22,0.33,0.22,0.56c0,0.21-0.09,0.45-0.27,0.74
					c-0.18,0.29-0.26,0.52-0.26,0.68c0,0.41,0.19,0.77,0.57,1.09c0.38,0.32,0.88,0.48,1.49,0.48c0.49,0,0.93-0.08,1.32-0.26
					c0.39-0.17,0.74-0.42,1.03-0.74c0.29-0.32,0.53-0.72,0.7-1.18c0.12-0.31,0.23-0.72,0.34-1.22l1.4-6.09
					c0.06-0.27,0.1-0.5,0.1-0.67c0-0.15-0.04-0.29-0.13-0.4c-0.09-0.11-0.2-0.18-0.33-0.22c-0.13-0.03-0.46-0.05-0.99-0.05
					L241.9,40.78z"/>
			</g>
		</g>
		<g style="clip-path:url(#SVGID_58_);">
			<defs>
				<rect id="SVGID_61_" x="234.12" y="35.16" width="29.88" height="24.6"/>
			</defs>
			<clipPath id="SVGID_62_">
				<use xlink:href="#SVGID_61_"  style="overflow:visible;"/>
			</clipPath>
			<g style="clip-path:url(#SVGID_62_);">
				<path d="M248.13,46.35l-0.99,4.4c0.19-0.31,0.38-0.56,0.55-0.74c0.32-0.33,0.64-0.58,0.96-0.74s0.65-0.24,0.98-0.24
					c0.48,0,0.88,0.17,1.21,0.52c0.32,0.34,0.48,0.79,0.48,1.32c0,0.67-0.17,1.32-0.5,1.94c-0.33,0.63-0.75,1.1-1.26,1.43
					s-1.04,0.49-1.6,0.49c-0.31,0-0.59-0.05-0.85-0.15c-0.25-0.1-0.52-0.28-0.81-0.53l-0.26,0.55h-0.7l1.66-7.31h-1.07l0.11-0.47
					c0.58-0.05,1.12-0.21,1.63-0.47H248.13z M246.5,53.6c0.2,0.2,0.41,0.34,0.63,0.44c0.22,0.1,0.44,0.15,0.67,0.15
					c0.38,0,0.76-0.13,1.12-0.4c0.37-0.26,0.68-0.67,0.95-1.23c0.27-0.56,0.41-1.1,0.41-1.63c0-0.27-0.04-0.51-0.13-0.73
					c-0.06-0.15-0.17-0.27-0.32-0.37s-0.31-0.14-0.47-0.14c-0.36,0-0.72,0.15-1.08,0.44c-0.48,0.4-0.89,0.96-1.22,1.66
					C246.84,52.26,246.65,52.86,246.5,53.6z"/>
			</g>
		</g>
		<g style="clip-path:url(#SVGID_58_);">
			<defs>
				<rect id="SVGID_63_" x="234.12" y="35.16" width="29.88" height="24.6"/>
			</defs>
			<clipPath id="SVGID_64_">
				<use xlink:href="#SVGID_63_"  style="overflow:visible;"/>
			</clipPath>
			<g style="clip-path:url(#SVGID_64_);">
				<path d="M251.79,55.8l-0.23-0.35c0.32-0.18,0.59-0.36,0.81-0.54c0.21-0.18,0.37-0.35,0.47-0.51c0.06-0.09,0.1-0.22,0.13-0.4
					c-0.1,0.02-0.18,0.03-0.24,0.03c-0.14,0-0.26-0.05-0.36-0.16c-0.1-0.11-0.15-0.25-0.15-0.42c0-0.18,0.06-0.33,0.17-0.44
					s0.26-0.17,0.43-0.17c0.21,0,0.39,0.08,0.54,0.24s0.22,0.37,0.22,0.63c0,0.23-0.06,0.46-0.17,0.69
					c-0.11,0.23-0.29,0.46-0.55,0.69C252.63,55.31,252.27,55.55,251.79,55.8z"/>
			</g>
		</g>
		<g style="clip-path:url(#SVGID_58_);">
			<defs>
				<rect id="SVGID_65_" x="234.12" y="35.16" width="29.88" height="24.6"/>
			</defs>
			<clipPath id="SVGID_66_">
				<use xlink:href="#SVGID_65_"  style="overflow:visible;"/>
			</clipPath>
			<g style="clip-path:url(#SVGID_66_);">
				<path d="M259.9,49.65l-0.78,3.42c-0.04,0.13-0.05,0.23-0.05,0.3c0,0.09,0.02,0.15,0.06,0.2c0.04,0.05,0.09,0.07,0.16,0.07
					c0.07,0,0.15-0.03,0.21-0.09c0.11-0.09,0.24-0.25,0.4-0.48l0.28,0.25c-0.16,0.23-0.33,0.42-0.54,0.55
					c-0.2,0.13-0.4,0.2-0.58,0.2c-0.2,0-0.36-0.07-0.5-0.21c-0.13-0.14-0.2-0.3-0.2-0.49c0-0.13,0.03-0.29,0.08-0.49l0.57-2.52h-1
					l0.09-0.37c0.24-0.01,0.47-0.04,0.67-0.09c0.2-0.05,0.45-0.13,0.75-0.26H259.9z M259.82,47.55c0.13,0,0.23,0.04,0.31,0.13
					c0.08,0.08,0.13,0.19,0.13,0.33c0,0.15-0.05,0.28-0.16,0.39c-0.11,0.11-0.23,0.16-0.37,0.16c-0.13,0-0.24-0.04-0.33-0.13
					c-0.09-0.09-0.14-0.2-0.14-0.32c0-0.15,0.05-0.28,0.17-0.39C259.54,47.61,259.67,47.55,259.82,47.55z"/>
			</g>
		</g>
		<g style="clip-path:url(#SVGID_58_);">
			<defs>
				<rect id="SVGID_67_" x="234.12" y="35.16" width="29.88" height="24.6"/>
			</defs>
			<clipPath id="SVGID_68_">
				<use xlink:href="#SVGID_67_"  style="overflow:visible;"/>
			</clipPath>
			<g style="clip-path:url(#SVGID_68_);">
			</g>
		</g>
	</g>
	<g>
		<defs>
			<polygon id="SVGID_69_" points="72.36,159.36 79.8,159.36 79.8,180.6 72.36,180.6 72.36,159.36 			"/>
		</defs>
		<clipPath id="SVGID_70_">
			<use xlink:href="#SVGID_69_"  style="overflow:visible;"/>
		</clipPath>
		<g style="clip-path:url(#SVGID_70_);">
			<defs>
				<rect id="SVGID_71_" x="72.36" y="159.36" width="7.44" height="21.24"/>
			</defs>
			<clipPath id="SVGID_72_">
				<use xlink:href="#SVGID_71_"  style="overflow:visible;"/>
			</clipPath>
			<g style="clip-path:url(#SVGID_72_);">
				<path d="M78.67,171.47l-1.58,6.93c-0.04,0.15-0.06,0.25-0.06,0.32c0,0.09,0.03,0.17,0.08,0.24c0.05,0.07,0.12,0.12,0.21,0.15
					s0.25,0.04,0.48,0.04h0.49l-0.11,0.49H74.4l0.12-0.49h0.45c0.37,0,0.61-0.02,0.73-0.07s0.21-0.13,0.29-0.24s0.15-0.33,0.22-0.64
					l1.25-5.51h-1.8l0.12-0.5c0.38-0.06,0.8-0.16,1.25-0.29c0.45-0.13,0.83-0.28,1.15-0.42H78.67z"/>
			</g>
		</g>
		<g style="clip-path:url(#SVGID_70_);">
			<defs>
				<rect id="SVGID_73_" x="72.36" y="159.36" width="7.44" height="21.24"/>
			</defs>
			<clipPath id="SVGID_74_">
				<use xlink:href="#SVGID_73_"  style="overflow:visible;"/>
			</clipPath>
			<g style="clip-path:url(#SVGID_74_);">
			</g>
		</g>
	</g>
	<g>
		<defs>
			<polygon id="SVGID_75_" points="336.24,158.16 344.16,158.16 344.16,179.4 336.24,179.4 336.24,158.16 			"/>
		</defs>
		<clipPath id="SVGID_76_">
			<use xlink:href="#SVGID_75_"  style="overflow:visible;"/>
		</clipPath>
		<g style="clip-path:url(#SVGID_76_);">
			<defs>
				<rect id="SVGID_77_" x="336.24" y="158.16" width="7.92" height="21.24"/>
			</defs>
			<clipPath id="SVGID_78_">
				<use xlink:href="#SVGID_77_"  style="overflow:visible;"/>
			</clipPath>
			<g style="clip-path:url(#SVGID_78_);">
				<path d="M339.73,172.64l-0.42,1.84c0.19-0.32,0.37-0.58,0.54-0.76c0.33-0.36,0.67-0.63,1.02-0.81c0.35-0.18,0.68-0.27,1.01-0.27
					c0.25,0,0.48,0.05,0.67,0.16c0.19,0.1,0.34,0.25,0.46,0.44c0.11,0.19,0.17,0.38,0.17,0.58c0,0.17-0.04,0.41-0.11,0.72l-0.58,2.5
					c-0.06,0.27-0.09,0.45-0.09,0.55c0,0.11,0.04,0.19,0.11,0.26c0.07,0.07,0.16,0.1,0.27,0.1c0.28,0,0.63-0.26,1.07-0.78l0.37,0.35
					c-0.34,0.4-0.64,0.67-0.9,0.81s-0.52,0.22-0.8,0.22c-0.21,0-0.39-0.04-0.55-0.12c-0.16-0.08-0.28-0.2-0.37-0.35
					s-0.13-0.32-0.13-0.49c0-0.15,0.03-0.35,0.08-0.59l0.59-2.6c0.05-0.22,0.08-0.39,0.08-0.52c0-0.17-0.05-0.31-0.16-0.41
					c-0.11-0.1-0.25-0.15-0.43-0.15c-0.21,0-0.42,0.06-0.65,0.17c-0.23,0.11-0.47,0.3-0.72,0.56c-0.25,0.26-0.49,0.59-0.7,0.97
					c-0.21,0.39-0.41,0.85-0.58,1.38c-0.09,0.25-0.18,0.62-0.29,1.11l-0.2,0.93h-0.97l1.1-4.83h-1.1l0.12-0.48
					c0.38-0.05,0.67-0.11,0.88-0.18c0.21-0.06,0.48-0.17,0.81-0.31H339.73z"/>
			</g>
		</g>
		<g style="clip-path:url(#SVGID_76_);">
			<defs>
				<rect id="SVGID_79_" x="336.24" y="158.16" width="7.92" height="21.24"/>
			</defs>
			<clipPath id="SVGID_80_">
				<use xlink:href="#SVGID_79_"  style="overflow:visible;"/>
			</clipPath>
			<g style="clip-path:url(#SVGID_80_);">
			</g>
		</g>
	</g>
	<g>
		<defs>
			<polygon id="SVGID_81_" points="152.64,85.2 190.32,85.2 190.32,109.8 152.64,109.8 152.64,85.2 			"/>
		</defs>
		<clipPath id="SVGID_82_">
			<use xlink:href="#SVGID_81_"  style="overflow:visible;"/>
		</clipPath>
		<g style="clip-path:url(#SVGID_82_);">
			<defs>
				<rect id="SVGID_83_" x="152.64" y="85.2" width="37.68" height="24.6"/>
			</defs>
			<clipPath id="SVGID_84_">
				<use xlink:href="#SVGID_83_"  style="overflow:visible;"/>
			</clipPath>
			<g style="clip-path:url(#SVGID_84_);">
				<path d="M160.43,90.82h4.82l-0.16,0.74h-0.47c-0.38,0-0.66,0.05-0.83,0.16s-0.31,0.26-0.41,0.47c-0.06,0.15-0.14,0.44-0.23,0.88
					l-1.44,6.43c-0.17,0.75-0.38,1.32-0.62,1.71c-0.24,0.39-0.57,0.75-0.99,1.07s-0.92,0.57-1.48,0.75
					c-0.56,0.18-1.14,0.27-1.73,0.27c-0.72,0-1.35-0.13-1.9-0.4c-0.55-0.27-0.96-0.62-1.24-1.07c-0.28-0.45-0.42-0.94-0.42-1.48
					c0-0.5,0.13-0.92,0.38-1.24c0.25-0.32,0.53-0.49,0.84-0.49c0.22,0,0.41,0.07,0.55,0.22c0.15,0.15,0.22,0.33,0.22,0.56
					c0,0.21-0.09,0.45-0.27,0.74c-0.18,0.29-0.26,0.52-0.26,0.68c0,0.41,0.19,0.77,0.57,1.09c0.38,0.32,0.88,0.48,1.49,0.48
					c0.49,0,0.93-0.08,1.32-0.26c0.39-0.17,0.74-0.42,1.03-0.74c0.29-0.32,0.53-0.72,0.7-1.18c0.12-0.31,0.23-0.72,0.34-1.22
					l1.4-6.09c0.06-0.27,0.1-0.5,0.1-0.67c0-0.15-0.04-0.29-0.13-0.4c-0.09-0.11-0.2-0.18-0.33-0.22c-0.13-0.03-0.46-0.05-0.99-0.05
					L160.43,90.82z"/>
			</g>
		</g>
		<g style="clip-path:url(#SVGID_82_);">
			<defs>
				<rect id="SVGID_85_" x="152.64" y="85.2" width="37.68" height="24.6"/>
			</defs>
			<clipPath id="SVGID_86_">
				<use xlink:href="#SVGID_85_"  style="overflow:visible;"/>
			</clipPath>
			<g style="clip-path:url(#SVGID_86_);">
				<path d="M166.65,96.39l-0.99,4.4c0.19-0.31,0.38-0.56,0.55-0.74c0.32-0.33,0.64-0.58,0.96-0.73c0.32-0.16,0.65-0.24,0.98-0.24
					c0.48,0,0.88,0.17,1.21,0.52c0.32,0.35,0.48,0.79,0.48,1.32c0,0.67-0.17,1.32-0.5,1.94s-0.75,1.1-1.26,1.43s-1.04,0.49-1.6,0.49
					c-0.31,0-0.59-0.05-0.85-0.15c-0.25-0.1-0.52-0.28-0.81-0.53l-0.26,0.55h-0.7l1.66-7.31h-1.07l0.11-0.47
					c0.58-0.05,1.12-0.21,1.63-0.47H166.65z M165.02,103.64c0.2,0.2,0.41,0.34,0.63,0.44s0.44,0.15,0.67,0.15
					c0.38,0,0.76-0.13,1.12-0.4c0.37-0.26,0.68-0.67,0.95-1.23c0.27-0.55,0.4-1.1,0.4-1.63c0-0.27-0.04-0.51-0.13-0.73
					c-0.06-0.15-0.17-0.27-0.32-0.37c-0.15-0.1-0.31-0.14-0.47-0.14c-0.36,0-0.72,0.15-1.08,0.45c-0.48,0.4-0.89,0.95-1.22,1.66
					C165.36,102.3,165.18,102.9,165.02,103.64z"/>
			</g>
		</g>
		<g style="clip-path:url(#SVGID_82_);">
			<defs>
				<rect id="SVGID_87_" x="152.64" y="85.2" width="37.68" height="24.6"/>
			</defs>
			<clipPath id="SVGID_88_">
				<use xlink:href="#SVGID_87_"  style="overflow:visible;"/>
			</clipPath>
			<g style="clip-path:url(#SVGID_88_);">
				<path d="M170.31,105.84l-0.23-0.35c0.32-0.18,0.59-0.36,0.81-0.54s0.37-0.35,0.47-0.51c0.06-0.09,0.1-0.22,0.13-0.4
					c-0.1,0.02-0.18,0.03-0.24,0.03c-0.14,0-0.26-0.05-0.36-0.16s-0.15-0.25-0.15-0.42c0-0.18,0.06-0.33,0.17-0.44
					c0.11-0.11,0.26-0.17,0.43-0.17c0.21,0,0.39,0.08,0.54,0.24c0.15,0.16,0.22,0.37,0.22,0.63c0,0.23-0.06,0.46-0.17,0.69
					c-0.11,0.23-0.29,0.46-0.55,0.69C171.14,105.36,170.78,105.6,170.31,105.84z"/>
			</g>
		</g>
		<g style="clip-path:url(#SVGID_82_);">
			<defs>
				<rect id="SVGID_89_" x="152.64" y="85.2" width="37.68" height="24.6"/>
			</defs>
			<clipPath id="SVGID_90_">
				<use xlink:href="#SVGID_89_"  style="overflow:visible;"/>
			</clipPath>
			<g style="clip-path:url(#SVGID_90_);">
				<path d="M178.42,99.69l-0.78,3.42c-0.04,0.13-0.05,0.22-0.05,0.3c0,0.08,0.02,0.15,0.06,0.2c0.04,0.05,0.1,0.07,0.16,0.07
					c0.07,0,0.15-0.03,0.21-0.09c0.11-0.09,0.24-0.25,0.4-0.48l0.28,0.25c-0.16,0.23-0.34,0.42-0.54,0.55
					c-0.2,0.13-0.4,0.2-0.58,0.2c-0.2,0-0.36-0.07-0.5-0.21c-0.13-0.14-0.2-0.3-0.2-0.49c0-0.13,0.02-0.29,0.07-0.49l0.57-2.52h-1
					l0.09-0.37c0.24-0.01,0.47-0.04,0.67-0.09c0.2-0.05,0.45-0.13,0.74-0.26H178.42z M178.33,97.58c0.13,0,0.23,0.04,0.31,0.13
					c0.08,0.08,0.13,0.19,0.13,0.33c0,0.15-0.05,0.28-0.16,0.39c-0.11,0.11-0.23,0.17-0.37,0.17c-0.13,0-0.24-0.04-0.33-0.13
					c-0.09-0.09-0.14-0.2-0.14-0.32c0-0.15,0.06-0.28,0.17-0.39C178.06,97.64,178.19,97.58,178.33,97.58z"/>
			</g>
		</g>
		<g style="clip-path:url(#SVGID_82_);">
			<defs>
				<rect id="SVGID_91_" x="152.64" y="85.2" width="37.68" height="24.6"/>
			</defs>
			<clipPath id="SVGID_92_">
				<use xlink:href="#SVGID_91_"  style="overflow:visible;"/>
			</clipPath>
			<g style="clip-path:url(#SVGID_92_);">
				<path d="M179.31,101.56h2.29l-0.11,0.49h-2.3L179.31,101.56z"/>
			</g>
		</g>
		<g style="clip-path:url(#SVGID_82_);">
			<defs>
				<rect id="SVGID_93_" x="152.64" y="85.2" width="37.68" height="24.6"/>
			</defs>
			<clipPath id="SVGID_94_">
				<use xlink:href="#SVGID_93_"  style="overflow:visible;"/>
			</clipPath>
			<g style="clip-path:url(#SVGID_94_);">
				<path d="M186.05,97.9l-1.19,5.2c-0.03,0.11-0.04,0.19-0.04,0.24c0,0.07,0.02,0.13,0.06,0.18s0.09,0.09,0.16,0.11
					s0.19,0.03,0.36,0.03h0.37l-0.08,0.37h-2.84l0.09-0.37h0.33c0.28,0,0.46-0.02,0.55-0.05c0.09-0.03,0.16-0.09,0.22-0.18
					s0.11-0.25,0.16-0.48l0.94-4.14h-1.35l0.09-0.38c0.29-0.04,0.6-0.12,0.94-0.22c0.34-0.1,0.62-0.21,0.86-0.32H186.05z"/>
			</g>
		</g>
		<g style="clip-path:url(#SVGID_82_);">
			<defs>
				<rect id="SVGID_95_" x="152.64" y="85.2" width="37.68" height="24.6"/>
			</defs>
			<clipPath id="SVGID_96_">
				<use xlink:href="#SVGID_95_"  style="overflow:visible;"/>
			</clipPath>
			<g style="clip-path:url(#SVGID_96_);">
			</g>
		</g>
	</g>
	<g>
		<defs>
			<polygon id="SVGID_97_" points="225.36,89.4 264,89.4 264,114 225.36,114 225.36,89.4 			"/>
		</defs>
		<clipPath id="SVGID_98_">
			<use xlink:href="#SVGID_97_"  style="overflow:visible;"/>
		</clipPath>
		<g style="clip-path:url(#SVGID_98_);">
			<defs>
				<rect id="SVGID_99_" x="225.36" y="89.4" width="38.64" height="24.6"/>
			</defs>
			<clipPath id="SVGID_100_">
				<use xlink:href="#SVGID_99_"  style="overflow:visible;"/>
			</clipPath>
			<g style="clip-path:url(#SVGID_100_);">
				<path d="M233.14,95.01h4.82l-0.16,0.74h-0.47c-0.38,0-0.66,0.05-0.84,0.16c-0.18,0.11-0.31,0.26-0.41,0.47
					c-0.07,0.15-0.14,0.44-0.23,0.88l-1.45,6.43c-0.17,0.75-0.38,1.32-0.62,1.71c-0.24,0.39-0.57,0.75-0.99,1.07
					s-0.92,0.57-1.48,0.75c-0.56,0.18-1.14,0.27-1.73,0.27c-0.72,0-1.35-0.13-1.9-0.4c-0.55-0.27-0.96-0.62-1.24-1.07
					c-0.28-0.45-0.42-0.94-0.42-1.48c0-0.5,0.13-0.92,0.38-1.24c0.25-0.32,0.53-0.49,0.84-0.49c0.22,0,0.41,0.07,0.55,0.22
					c0.15,0.15,0.22,0.33,0.22,0.56c0,0.21-0.09,0.45-0.27,0.74c-0.18,0.29-0.26,0.52-0.26,0.68c0,0.41,0.19,0.77,0.57,1.09
					c0.38,0.32,0.88,0.48,1.49,0.48c0.49,0,0.93-0.08,1.32-0.26c0.39-0.17,0.74-0.42,1.03-0.74c0.29-0.32,0.53-0.72,0.7-1.18
					c0.12-0.31,0.23-0.72,0.34-1.22l1.4-6.09c0.07-0.27,0.1-0.5,0.1-0.67c0-0.15-0.04-0.29-0.13-0.4c-0.09-0.11-0.2-0.18-0.32-0.22
					s-0.46-0.05-0.99-0.05L233.14,95.01z"/>
			</g>
		</g>
		<g style="clip-path:url(#SVGID_98_);">
			<defs>
				<rect id="SVGID_101_" x="225.36" y="89.4" width="38.64" height="24.6"/>
			</defs>
			<clipPath id="SVGID_102_">
				<use xlink:href="#SVGID_101_"  style="overflow:visible;"/>
			</clipPath>
			<g style="clip-path:url(#SVGID_102_);">
				<path d="M239.85,103.27l-0.13,0.54h-1.22l-1.01,4.37c-0.09,0.41-0.22,0.81-0.39,1.22c-0.17,0.41-0.42,0.72-0.74,0.95
					c-0.32,0.22-0.67,0.33-1.05,0.33c-0.31,0-0.55-0.07-0.73-0.2c-0.18-0.13-0.27-0.28-0.27-0.44c0-0.11,0.04-0.21,0.12-0.29
					s0.18-0.12,0.3-0.12c0.14,0,0.29,0.08,0.46,0.23c0.12,0.11,0.21,0.18,0.26,0.21c0.06,0.03,0.12,0.05,0.17,0.05
					c0.2,0,0.37-0.09,0.52-0.27s0.29-0.56,0.42-1.14l1.11-4.88h-0.9l0.11-0.54h0.92l0.12-0.51c0.16-0.73,0.43-1.26,0.8-1.59
					c0.37-0.33,0.84-0.49,1.41-0.49c0.38,0,0.68,0.08,0.9,0.24c0.22,0.16,0.33,0.33,0.33,0.52c0,0.11-0.04,0.21-0.13,0.3
					c-0.09,0.09-0.19,0.13-0.31,0.13c-0.08,0-0.16-0.02-0.23-0.06c-0.09-0.05-0.19-0.13-0.3-0.26c-0.13-0.14-0.23-0.24-0.32-0.29
					s-0.17-0.07-0.26-0.07c-0.12,0-0.23,0.03-0.34,0.1c-0.11,0.06-0.21,0.16-0.28,0.28s-0.17,0.31-0.26,0.58
					c-0.04,0.13-0.09,0.3-0.14,0.53l-0.14,0.58H239.85z"/>
			</g>
		</g>
		<g style="clip-path:url(#SVGID_98_);">
			<defs>
				<rect id="SVGID_103_" x="225.36" y="89.4" width="38.64" height="24.6"/>
			</defs>
			<clipPath id="SVGID_104_">
				<use xlink:href="#SVGID_103_"  style="overflow:visible;"/>
			</clipPath>
			<g style="clip-path:url(#SVGID_104_);">
				<path d="M239.79,110.05l-0.23-0.35c0.32-0.18,0.59-0.36,0.81-0.54s0.37-0.35,0.47-0.51c0.06-0.09,0.1-0.22,0.13-0.4
					c-0.1,0.02-0.18,0.03-0.24,0.03c-0.14,0-0.26-0.05-0.36-0.16c-0.1-0.11-0.15-0.25-0.15-0.42c0-0.18,0.06-0.33,0.17-0.44
					s0.26-0.17,0.43-0.17c0.21,0,0.39,0.08,0.54,0.24c0.15,0.16,0.22,0.37,0.22,0.63c0,0.23-0.06,0.46-0.17,0.69
					c-0.11,0.23-0.29,0.46-0.55,0.69C240.63,109.56,240.27,109.8,239.79,110.05z"/>
			</g>
		</g>
		<g style="clip-path:url(#SVGID_98_);">
			<defs>
				<rect id="SVGID_105_" x="225.36" y="89.4" width="38.64" height="24.6"/>
			</defs>
			<clipPath id="SVGID_106_">
				<use xlink:href="#SVGID_105_"  style="overflow:visible;"/>
			</clipPath>
			<g style="clip-path:url(#SVGID_106_);">
				<path d="M247.9,103.9l-0.78,3.42c-0.04,0.13-0.05,0.22-0.05,0.3c0,0.08,0.02,0.15,0.06,0.2c0.04,0.05,0.09,0.07,0.16,0.07
					c0.07,0,0.15-0.03,0.21-0.09c0.11-0.09,0.24-0.25,0.4-0.48l0.28,0.25c-0.16,0.23-0.33,0.42-0.54,0.55
					c-0.2,0.13-0.4,0.2-0.58,0.2c-0.2,0-0.36-0.07-0.5-0.21c-0.13-0.14-0.2-0.3-0.2-0.49c0-0.13,0.03-0.29,0.08-0.49l0.57-2.52h-1
					l0.09-0.37c0.24-0.01,0.47-0.04,0.67-0.09c0.2-0.05,0.45-0.13,0.75-0.26H247.9z M247.82,101.8c0.13,0,0.23,0.04,0.31,0.13
					c0.08,0.08,0.13,0.19,0.13,0.33c0,0.15-0.05,0.28-0.16,0.39c-0.11,0.11-0.23,0.17-0.37,0.17c-0.13,0-0.24-0.04-0.33-0.13
					c-0.09-0.09-0.14-0.2-0.14-0.32c0-0.15,0.05-0.28,0.17-0.39C247.54,101.85,247.67,101.8,247.82,101.8z"/>
				<path d="M253.39,104.91v0.54h-1.87v1.87h-0.54v-1.87h-1.87v-0.54h1.87v-1.87h0.54v1.87H253.39z"/>
				<path d="M258.05,102.11l-1.19,5.2c-0.03,0.11-0.04,0.19-0.04,0.24c0,0.07,0.02,0.13,0.06,0.18c0.04,0.05,0.09,0.09,0.16,0.11
					c0.07,0.02,0.19,0.03,0.36,0.03h0.37l-0.08,0.37h-2.84l0.09-0.37h0.33c0.28,0,0.46-0.02,0.55-0.05
					c0.09-0.03,0.16-0.09,0.22-0.18c0.06-0.09,0.12-0.25,0.17-0.48l0.94-4.14h-1.35l0.09-0.38c0.29-0.04,0.6-0.12,0.94-0.22
					c0.34-0.1,0.62-0.21,0.86-0.32H258.05z"/>
			</g>
		</g>
		<g style="clip-path:url(#SVGID_98_);">
			<defs>
				<rect id="SVGID_107_" x="225.36" y="89.4" width="38.64" height="24.6"/>
			</defs>
			<clipPath id="SVGID_108_">
				<use xlink:href="#SVGID_107_"  style="overflow:visible;"/>
			</clipPath>
			<g style="clip-path:url(#SVGID_108_);">
			</g>
		</g>
	</g>
	<g>
		<defs>
			<polygon id="SVGID_109_" points="12.6,89.4 67.68,89.4 67.68,103.44 12.6,103.44 12.6,89.4 			"/>
		</defs>
		<clipPath id="SVGID_110_">
			<use xlink:href="#SVGID_109_"  style="overflow:visible;"/>
		</clipPath>
		<g style="clip-path:url(#SVGID_110_);">
			<defs>
				<rect id="SVGID_111_" x="12.6" y="89.4" width="55.08" height="14.04"/>
			</defs>
			<clipPath id="SVGID_112_">
				<use xlink:href="#SVGID_111_"  style="overflow:visible;"/>
			</clipPath>
			<g style="clip-path:url(#SVGID_112_);">
				<path d="M24,92.37c0.99,0,1.81,0.3,2.45,0.9c0.68,0.64,1.01,1.49,1.01,2.57c0,0.88-0.23,1.71-0.68,2.49s-1.07,1.39-1.84,1.84
					c-0.75,0.43-1.57,0.65-2.48,0.65c-0.69,0-1.28-0.14-1.79-0.43s-0.9-0.68-1.2-1.2s-0.44-1.1-0.44-1.76
					c0-0.89,0.23-1.74,0.68-2.53s1.06-1.41,1.83-1.86S23.12,92.37,24,92.37z M24.03,92.99c-0.66,0-1.28,0.18-1.84,0.55
					s-1.03,0.93-1.4,1.68s-0.56,1.54-0.56,2.37c0,0.52,0.1,0.99,0.3,1.4s0.47,0.72,0.81,0.92s0.73,0.31,1.17,0.31
					c0.63,0,1.23-0.19,1.79-0.56s1.03-0.94,1.41-1.7s0.57-1.55,0.57-2.38c0-0.52-0.1-0.97-0.3-1.36s-0.47-0.69-0.81-0.91
					S24.45,92.99,24.03,92.99z"/>
				<path d="M33.14,95.03h0.96l-1.05,4.28c-0.05,0.19-0.07,0.38-0.07,0.57c0,0.1,0.03,0.19,0.09,0.25c0.06,0.06,0.13,0.09,0.22,0.09
					c0.1,0,0.21-0.04,0.33-0.14c0.21-0.16,0.41-0.37,0.59-0.63l0.38,0.32c-0.29,0.37-0.56,0.63-0.81,0.79s-0.51,0.23-0.77,0.23
					c-0.29,0-0.53-0.09-0.71-0.26c-0.18-0.18-0.27-0.39-0.27-0.65c0-0.16,0.04-0.42,0.11-0.77c-0.18,0.29-0.35,0.53-0.53,0.7
					c-0.33,0.34-0.68,0.59-1.05,0.76s-0.71,0.25-1.05,0.25c-0.27,0-0.5-0.05-0.7-0.14c-0.2-0.09-0.35-0.23-0.46-0.4
					c-0.11-0.18-0.17-0.36-0.17-0.54s0.04-0.45,0.11-0.78l0.7-3.08h-1.38l0.13-0.49c0.34-0.03,0.64-0.08,0.91-0.14
					c0.27-0.07,0.61-0.19,1.03-0.35h0.5l-1,4.36c-0.04,0.18-0.06,0.3-0.06,0.38c0,0.17,0.05,0.31,0.16,0.42
					c0.11,0.1,0.25,0.16,0.42,0.16c0.37,0,0.76-0.15,1.15-0.45c0.51-0.38,0.92-0.88,1.23-1.48s0.54-1.23,0.69-1.88L33.14,95.03z"/>
				<path d="M38.15,93.05l-0.45,1.98h1.28l-0.11,0.6h-1.3l-0.77,3.43c-0.07,0.3-0.1,0.52-0.1,0.64c0,0.15,0.04,0.27,0.12,0.36
					c0.08,0.09,0.18,0.13,0.3,0.13c0.09,0,0.18-0.02,0.27-0.06c0.12-0.05,0.24-0.14,0.36-0.25c0.06-0.06,0.22-0.24,0.47-0.54
					l0.39,0.33c-0.35,0.45-0.65,0.75-0.92,0.91c-0.27,0.16-0.54,0.24-0.82,0.24c-0.32,0-0.59-0.1-0.79-0.31
					c-0.21-0.21-0.31-0.46-0.31-0.74c0-0.18,0.03-0.38,0.08-0.6l0.8-3.54h-1.35l0.12-0.45c0.39-0.09,0.71-0.21,0.96-0.36
					c0.24-0.15,0.48-0.36,0.7-0.64c0.22-0.28,0.44-0.66,0.65-1.13H38.15z"/>
				<path d="M41.98,97.14l1.04,0.36c0.11,0.04,0.3,0.13,0.57,0.26c0.27,0.13,0.47,0.25,0.58,0.35c0.14,0.13,0.26,0.28,0.34,0.46
					s0.13,0.36,0.13,0.55c0,0.29-0.1,0.56-0.29,0.83c-0.19,0.27-0.48,0.48-0.85,0.64s-0.83,0.24-1.38,0.24
					c-0.59,0-1.13-0.09-1.6-0.26s-0.82-0.38-1.03-0.63s-0.32-0.47-0.32-0.67c0-0.13,0.05-0.24,0.14-0.33s0.21-0.13,0.35-0.13
					c0.09,0,0.17,0.02,0.24,0.05s0.15,0.09,0.22,0.16c0.05,0.05,0.13,0.18,0.25,0.38c0.1,0.17,0.17,0.28,0.2,0.31
					c0.09,0.11,0.21,0.21,0.36,0.3s0.32,0.17,0.51,0.22s0.41,0.07,0.67,0.07c0.37,0,0.67-0.05,0.92-0.14s0.43-0.21,0.54-0.37
					c0.12-0.15,0.18-0.31,0.18-0.46c0-0.22-0.11-0.42-0.33-0.59c-0.22-0.17-0.54-0.32-0.96-0.45c-0.04-0.01-0.07-0.03-0.11-0.04
					l-0.82-0.29c-0.5-0.18-0.86-0.39-1.08-0.65c-0.22-0.25-0.33-0.53-0.33-0.84c0-0.26,0.09-0.52,0.27-0.77s0.44-0.45,0.79-0.59
					s0.78-0.22,1.3-0.22c0.79,0,1.44,0.16,1.95,0.47c0.38,0.24,0.57,0.51,0.57,0.81c0,0.13-0.04,0.25-0.13,0.34s-0.2,0.14-0.33,0.14
					c-0.13,0-0.24-0.04-0.36-0.14c-0.08-0.06-0.19-0.2-0.35-0.42c-0.16-0.22-0.35-0.39-0.57-0.5c-0.22-0.11-0.5-0.17-0.83-0.17
					c-0.45,0-0.79,0.09-1.03,0.26c-0.24,0.17-0.37,0.37-0.37,0.58c0,0.17,0.07,0.33,0.2,0.47C41.34,96.88,41.6,97.01,41.98,97.14z"
					/>
				<path d="M48.2,94.89l-1.04,4.57c-0.05,0.17-0.07,0.3-0.07,0.4c0,0.11,0.03,0.21,0.08,0.27c0.06,0.07,0.13,0.1,0.21,0.1
					c0.1,0,0.19-0.04,0.28-0.12c0.14-0.12,0.32-0.33,0.54-0.64l0.38,0.33c-0.21,0.31-0.45,0.56-0.72,0.73s-0.53,0.26-0.77,0.26
					c-0.26,0-0.48-0.09-0.66-0.28s-0.27-0.4-0.27-0.65c0-0.17,0.03-0.39,0.1-0.65l0.76-3.36h-1.33l0.12-0.49
					c0.33-0.02,0.62-0.06,0.9-0.12c0.27-0.07,0.6-0.18,0.99-0.34H48.2z M48.09,92.08c0.17,0,0.31,0.06,0.42,0.17
					s0.17,0.26,0.17,0.44c0,0.2-0.07,0.38-0.21,0.52s-0.31,0.22-0.5,0.22c-0.17,0-0.32-0.06-0.44-0.18s-0.18-0.26-0.18-0.43
					c0-0.2,0.07-0.37,0.22-0.52S47.89,92.08,48.09,92.08z"/>
				<path d="M56.2,92.08l-1.66,7.22c-0.07,0.29-0.1,0.47-0.1,0.56c0,0.1,0.04,0.18,0.11,0.25c0.07,0.07,0.16,0.1,0.27,0.1
					c0.09,0,0.18-0.02,0.26-0.05s0.18-0.09,0.3-0.18c0.05-0.04,0.22-0.21,0.51-0.51l0.36,0.32c-0.3,0.32-0.52,0.54-0.67,0.65
					s-0.31,0.19-0.5,0.25s-0.37,0.09-0.55,0.09c-0.2,0-0.38-0.04-0.53-0.12c-0.15-0.08-0.27-0.2-0.36-0.35s-0.13-0.31-0.13-0.48
					c0-0.14,0.04-0.38,0.13-0.73c-0.3,0.44-0.58,0.78-0.86,1.02c-0.28,0.24-0.56,0.42-0.85,0.53c-0.29,0.11-0.59,0.17-0.9,0.17
					c-0.38,0-0.69-0.08-0.94-0.23s-0.46-0.39-0.62-0.72s-0.24-0.7-0.24-1.12c0-0.68,0.17-1.32,0.5-1.93s0.77-1.09,1.31-1.43
					c0.54-0.34,1.1-0.51,1.68-0.51c0.34,0,0.65,0.05,0.94,0.16c0.28,0.11,0.55,0.28,0.8,0.51l0.59-2.5H53.7l0.12-0.49
					c0.31-0.03,0.64-0.09,1-0.18c0.36-0.1,0.65-0.2,0.87-0.31H56.2z M54.33,96.1c-0.2-0.19-0.44-0.34-0.71-0.45
					s-0.54-0.16-0.79-0.16c-0.39,0-0.78,0.14-1.16,0.41c-0.38,0.27-0.7,0.69-0.97,1.26s-0.4,1.16-0.4,1.77
					c0,0.39,0.09,0.7,0.28,0.92s0.42,0.34,0.7,0.34c0.33,0,0.66-0.12,1-0.35c0.47-0.32,0.87-0.76,1.19-1.32
					C53.79,97.97,54.07,97.16,54.33,96.1z"/>
				<path d="M61.91,99.13l0.33,0.38c-0.49,0.44-1,0.76-1.54,0.98c-0.53,0.22-1.05,0.33-1.56,0.33c-0.68,0-1.23-0.21-1.65-0.63
					s-0.63-0.98-0.63-1.67c0-0.62,0.17-1.21,0.52-1.77s0.83-1.01,1.45-1.35s1.28-0.51,1.99-0.51c0.56,0,1,0.13,1.32,0.39
					s0.47,0.56,0.47,0.91c0,0.21-0.07,0.42-0.21,0.65s-0.37,0.44-0.7,0.64s-0.8,0.36-1.42,0.49s-1.38,0.22-2.29,0.26
					c-0.02,0.15-0.03,0.27-0.03,0.35c0,0.31,0.07,0.58,0.2,0.83s0.32,0.43,0.56,0.58s0.49,0.21,0.75,0.21
					c0.33,0,0.72-0.09,1.16-0.27S61.5,99.48,61.91,99.13z M58.06,97.76c0.89-0.1,1.53-0.19,1.93-0.29c0.64-0.15,1.08-0.34,1.31-0.55
					c0.23-0.22,0.35-0.46,0.35-0.71c0-0.22-0.09-0.4-0.26-0.55c-0.17-0.15-0.42-0.22-0.74-0.22c-0.34,0-0.69,0.1-1.07,0.3
					c-0.38,0.2-0.69,0.47-0.96,0.82S58.18,97.3,58.06,97.76z"/>
			</g>
		</g>
		<g style="clip-path:url(#SVGID_110_);">
			<defs>
				<rect id="SVGID_113_" x="12.6" y="89.4" width="55.08" height="14.04"/>
			</defs>
			<clipPath id="SVGID_114_">
				<use xlink:href="#SVGID_113_"  style="overflow:visible;"/>
			</clipPath>
			<g style="clip-path:url(#SVGID_114_);">
			</g>
		</g>
	</g>
	<g>
		<defs>
			<polygon id="SVGID_115_" points="349.8,89.4 399.72,89.4 399.72,103.44 349.8,103.44 349.8,89.4 			"/>
		</defs>
		<clipPath id="SVGID_116_">
			<use xlink:href="#SVGID_115_"  style="overflow:visible;"/>
		</clipPath>
		<g style="clip-path:url(#SVGID_116_);">
			<defs>
				<rect id="SVGID_117_" x="349.8" y="89.4" width="49.92" height="14.04"/>
			</defs>
			<clipPath id="SVGID_118_">
				<use xlink:href="#SVGID_117_"  style="overflow:visible;"/>
			</clipPath>
			<g style="clip-path:url(#SVGID_118_);">
				<path d="M359.26,92.51h3.21L362.37,93h-0.19c-0.29,0-0.5,0.03-0.62,0.08s-0.21,0.14-0.28,0.25s-0.14,0.34-0.21,0.66l-1.21,5.31
					c-0.05,0.23-0.08,0.39-0.08,0.47c0,0.14,0.06,0.25,0.19,0.33c0.09,0.05,0.25,0.08,0.5,0.08h0.28l-0.12,0.49h-3.21l0.11-0.49
					h0.23c0.26,0,0.45-0.03,0.57-0.08s0.21-0.13,0.28-0.23s0.14-0.29,0.2-0.57l1.24-5.44c0.04-0.19,0.06-0.33,0.06-0.41
					c0-0.11-0.02-0.19-0.07-0.26c-0.05-0.07-0.11-0.12-0.2-0.15S359.6,93,359.37,93h-0.21L359.26,92.51z"/>
				<path d="M364.33,94.89l-0.42,1.84c0.19-0.32,0.37-0.58,0.54-0.76c0.33-0.36,0.67-0.63,1.02-0.81c0.35-0.18,0.68-0.27,1.01-0.27
					c0.25,0,0.48,0.05,0.67,0.16c0.19,0.1,0.34,0.25,0.46,0.44c0.11,0.19,0.17,0.38,0.17,0.58c0,0.17-0.04,0.41-0.11,0.72l-0.58,2.5
					c-0.06,0.27-0.09,0.45-0.09,0.55c0,0.11,0.04,0.19,0.11,0.26c0.07,0.07,0.16,0.1,0.27,0.1c0.28,0,0.63-0.26,1.07-0.78l0.37,0.35
					c-0.34,0.4-0.64,0.67-0.9,0.81s-0.52,0.22-0.8,0.22c-0.21,0-0.39-0.04-0.55-0.12c-0.16-0.08-0.28-0.2-0.37-0.35
					s-0.13-0.32-0.13-0.49c0-0.15,0.03-0.35,0.08-0.59l0.59-2.6c0.05-0.22,0.08-0.39,0.08-0.52c0-0.17-0.05-0.31-0.16-0.41
					c-0.11-0.1-0.25-0.15-0.43-0.15c-0.21,0-0.42,0.06-0.65,0.17c-0.23,0.11-0.47,0.3-0.72,0.56c-0.25,0.26-0.49,0.59-0.7,0.97
					c-0.21,0.39-0.41,0.85-0.58,1.38c-0.09,0.25-0.18,0.62-0.29,1.11l-0.2,0.93h-0.97l1.1-4.83h-1.1l0.12-0.48
					c0.38-0.05,0.67-0.11,0.88-0.18c0.21-0.06,0.48-0.17,0.81-0.31H364.33z"/>
				<path d="M371.98,97.14l1.04,0.36c0.11,0.04,0.3,0.13,0.57,0.26s0.47,0.25,0.58,0.35c0.14,0.13,0.26,0.28,0.34,0.46
					s0.13,0.36,0.13,0.55c0,0.29-0.1,0.56-0.29,0.83c-0.19,0.27-0.48,0.48-0.85,0.64s-0.83,0.24-1.38,0.24
					c-0.59,0-1.13-0.09-1.6-0.26s-0.82-0.38-1.03-0.63s-0.32-0.47-0.32-0.67c0-0.13,0.05-0.24,0.14-0.33s0.21-0.13,0.35-0.13
					c0.09,0,0.17,0.02,0.24,0.05s0.15,0.09,0.22,0.16c0.05,0.05,0.13,0.18,0.25,0.38c0.1,0.17,0.17,0.28,0.2,0.31
					c0.09,0.11,0.21,0.21,0.36,0.3s0.32,0.17,0.51,0.22s0.41,0.07,0.67,0.07c0.37,0,0.67-0.05,0.92-0.14s0.43-0.21,0.54-0.37
					c0.12-0.15,0.18-0.31,0.18-0.46c0-0.22-0.11-0.42-0.33-0.59c-0.22-0.17-0.54-0.32-0.96-0.45c-0.04-0.01-0.07-0.03-0.11-0.04
					l-0.82-0.29c-0.5-0.18-0.86-0.39-1.08-0.65c-0.22-0.25-0.33-0.53-0.33-0.84c0-0.26,0.09-0.52,0.27-0.77s0.44-0.45,0.79-0.59
					s0.78-0.22,1.3-0.22c0.79,0,1.44,0.16,1.95,0.47c0.38,0.24,0.57,0.51,0.57,0.81c0,0.13-0.04,0.25-0.13,0.34s-0.2,0.14-0.33,0.14
					c-0.13,0-0.24-0.04-0.36-0.14c-0.08-0.06-0.19-0.2-0.35-0.42c-0.16-0.22-0.35-0.39-0.57-0.5c-0.22-0.11-0.5-0.17-0.83-0.17
					c-0.45,0-0.79,0.09-1.03,0.26c-0.24,0.17-0.37,0.37-0.37,0.58c0,0.17,0.07,0.33,0.2,0.47C371.35,96.88,371.6,97.01,371.98,97.14
					z"/>
				<path d="M378.21,94.89l-1.04,4.57c-0.05,0.17-0.07,0.3-0.07,0.4c0,0.11,0.03,0.21,0.08,0.27c0.06,0.07,0.13,0.1,0.21,0.1
					c0.1,0,0.19-0.04,0.28-0.12c0.14-0.12,0.32-0.33,0.54-0.64l0.38,0.33c-0.21,0.31-0.45,0.56-0.72,0.73
					c-0.27,0.17-0.53,0.26-0.77,0.26c-0.26,0-0.48-0.09-0.66-0.28c-0.18-0.19-0.27-0.4-0.27-0.65c0-0.17,0.03-0.39,0.1-0.65
					l0.76-3.36h-1.33l0.12-0.49c0.33-0.02,0.63-0.06,0.9-0.12c0.27-0.07,0.6-0.18,0.99-0.34H378.21z M378.1,92.08
					c0.17,0,0.31,0.06,0.42,0.17s0.17,0.26,0.17,0.44c0,0.2-0.07,0.38-0.21,0.52s-0.31,0.22-0.5,0.22c-0.17,0-0.32-0.06-0.44-0.18
					s-0.18-0.26-0.18-0.43c0-0.2,0.07-0.37,0.22-0.52S377.9,92.08,378.1,92.08z"/>
				<path d="M386.21,92.08l-1.66,7.22c-0.07,0.29-0.1,0.47-0.1,0.56c0,0.1,0.04,0.18,0.11,0.25c0.07,0.07,0.16,0.1,0.27,0.1
					c0.09,0,0.18-0.02,0.26-0.05s0.18-0.09,0.3-0.18c0.05-0.04,0.22-0.21,0.51-0.51l0.36,0.32c-0.3,0.32-0.52,0.54-0.67,0.65
					c-0.15,0.11-0.31,0.19-0.5,0.25s-0.37,0.09-0.55,0.09c-0.2,0-0.38-0.04-0.53-0.12s-0.27-0.2-0.36-0.35s-0.13-0.31-0.13-0.48
					c0-0.14,0.04-0.38,0.13-0.73c-0.3,0.44-0.58,0.78-0.86,1.02c-0.27,0.24-0.56,0.42-0.85,0.53s-0.59,0.17-0.9,0.17
					c-0.38,0-0.69-0.08-0.94-0.23c-0.25-0.15-0.46-0.39-0.62-0.72s-0.24-0.7-0.24-1.12c0-0.68,0.17-1.32,0.5-1.93
					s0.77-1.09,1.31-1.43c0.54-0.34,1.09-0.51,1.68-0.51c0.34,0,0.65,0.05,0.94,0.16c0.28,0.11,0.55,0.28,0.8,0.51l0.59-2.5h-1.33
					l0.12-0.49c0.31-0.03,0.64-0.09,1-0.18c0.36-0.1,0.65-0.2,0.87-0.31H386.21z M384.33,96.1c-0.2-0.19-0.44-0.34-0.71-0.45
					c-0.27-0.11-0.54-0.16-0.79-0.16c-0.39,0-0.78,0.14-1.16,0.41s-0.7,0.69-0.97,1.26c-0.27,0.57-0.4,1.16-0.4,1.77
					c0,0.39,0.09,0.7,0.28,0.92c0.19,0.22,0.42,0.34,0.69,0.34c0.33,0,0.66-0.12,1-0.35c0.47-0.32,0.87-0.76,1.19-1.32
					C383.79,97.97,384.08,97.16,384.33,96.1z"/>
				<path d="M391.92,99.13l0.33,0.38c-0.49,0.44-1,0.76-1.54,0.98c-0.53,0.22-1.05,0.33-1.56,0.33c-0.68,0-1.23-0.21-1.65-0.63
					s-0.63-0.98-0.63-1.67c0-0.62,0.17-1.21,0.52-1.77s0.83-1.01,1.45-1.35s1.28-0.51,1.99-0.51c0.56,0,1,0.13,1.32,0.39
					s0.47,0.56,0.47,0.91c0,0.21-0.07,0.42-0.21,0.65s-0.37,0.44-0.7,0.64s-0.8,0.36-1.42,0.49s-1.38,0.22-2.29,0.26
					c-0.02,0.15-0.03,0.27-0.03,0.35c0,0.31,0.07,0.58,0.2,0.83s0.32,0.43,0.56,0.58s0.49,0.21,0.75,0.21
					c0.33,0,0.72-0.09,1.16-0.27S391.5,99.48,391.92,99.13z M388.07,97.76c0.89-0.1,1.53-0.19,1.93-0.29
					c0.64-0.15,1.08-0.34,1.31-0.55c0.23-0.22,0.35-0.46,0.35-0.71c0-0.22-0.09-0.4-0.26-0.55c-0.17-0.15-0.42-0.22-0.74-0.22
					c-0.34,0-0.69,0.1-1.07,0.3c-0.38,0.2-0.69,0.47-0.96,0.82S388.18,97.3,388.07,97.76z"/>
			</g>
		</g>
		<g style="clip-path:url(#SVGID_116_);">
			<defs>
				<rect id="SVGID_119_" x="349.8" y="89.4" width="49.92" height="14.04"/>
			</defs>
			<clipPath id="SVGID_120_">
				<use xlink:href="#SVGID_119_"  style="overflow:visible;"/>
			</clipPath>
			<g style="clip-path:url(#SVGID_120_);">
			</g>
		</g>
	</g>
	
		<line style="fill:none;stroke:#000000;stroke-width:1;stroke-linejoin:round;stroke-miterlimit:8;" x1="279" y1="96.85" x2="273.99" y2="101.97"/>
	<polygon style="fill-rule:evenodd;clip-rule:evenodd;" points="276.12,102.66 270.5,105.55 273.26,99.86 276.12,102.66 	"/>
	
		<line style="fill:none;stroke:#000000;stroke-width:1;stroke-linejoin:round;stroke-miterlimit:8;" x1="279.1" y1="96.4" x2="269.95" y2="96.43"/>
	<polygon style="fill-rule:evenodd;clip-rule:evenodd;" points="270.96,98.43 264.95,96.45 270.94,94.43 270.96,98.43 	"/>
	
		<line style="fill:none;stroke:#000000;stroke-width:1;stroke-linejoin:round;stroke-miterlimit:8;" x1="279.2" y1="95.9" x2="274.16" y2="91.21"/>
	<polygon style="fill-rule:evenodd;clip-rule:evenodd;" points="273.53,93.35 270.5,87.8 276.25,90.42 273.53,93.35 	"/>
	
		<line style="fill:none;stroke:#000000;stroke-width:1;stroke-linejoin:round;stroke-miterlimit:8;" x1="136.65" y1="97.3" x2="142.49" y2="91.36"/>
	<polygon style="fill-rule:evenodd;clip-rule:evenodd;" points="140.37,90.67 146,87.8 143.22,93.48 140.37,90.67 	"/>
	
		<line style="fill:none;stroke:#000000;stroke-width:1;stroke-linejoin:round;stroke-miterlimit:8;" x1="136.65" y1="97.3" x2="145.9" y2="97.33"/>
	<polygon style="fill-rule:evenodd;clip-rule:evenodd;" points="144.91,95.33 150.9,97.35 144.89,99.33 144.91,95.33 	"/>
	
		<line style="fill:none;stroke:#000000;stroke-width:1;stroke-linejoin:round;stroke-miterlimit:8;" x1="136.7" y1="97.75" x2="141.74" y2="102.44"/>
	<polygon style="fill-rule:evenodd;clip-rule:evenodd;" points="142.37,100.3 145.4,105.85 139.65,103.22 142.37,100.3 	"/>
</g>
</svg>
