<?xml version="1.0" encoding="iso-8859-1"?>
<!-- Generator: Adobe Illustrator 16.0.3, SVG Export Plug-In . SVG Version: 6.00 Build 0)  -->
<!DOCTYPE svg PUBLIC "-//W3C//DTD SVG 1.1//EN" "http://www.w3.org/Graphics/SVG/1.1/DTD/svg11.dtd">
<svg version="1.1" id="Layer_1" xmlns="http://www.w3.org/2000/svg" xmlns:xlink="http://www.w3.org/1999/xlink" x="0px" y="0px"
	 width="468px" height="186.98px" viewBox="0 0 468 186.98" style="enable-background:new 0 0 468 186.98;" xml:space="preserve">
<g>
	<g>
		<defs>
			<rect id="SVGID_1_" width="468" height="183.72"/>
		</defs>
		<clipPath id="SVGID_2_">
			<use xlink:href="#SVGID_1_"  style="overflow:visible;"/>
		</clipPath>
		<g style="clip-path:url(#SVGID_2_);">
		</g>
	</g>
	
		<line style="fill:none;stroke:#000000;stroke-linecap:round;stroke-linejoin:round;stroke-miterlimit:8;" x1="214.76" y1="137.15" x2="214.79" y2="149.65"/>
	<polygon style="fill-rule:evenodd;clip-rule:evenodd;" points="217.79,148.64 214.8,154.65 211.79,148.66 217.79,148.64 	"/>
	<polygon style="fill-rule:evenodd;clip-rule:evenodd;" points="211.76,138.16 214.75,132.15 217.76,138.14 211.76,138.16 	"/>
	
		<line style="fill:none;stroke:#000000;stroke-linecap:round;stroke-linejoin:round;stroke-miterlimit:8;" x1="192.2" y1="160.91" x2="203.45" y2="160.94"/>
	<polygon style="fill-rule:evenodd;clip-rule:evenodd;" points="202.46,157.94 208.45,160.95 202.44,163.94 202.46,157.94 	"/>
	<polygon style="fill-rule:evenodd;clip-rule:evenodd;" points="193.19,163.91 187.2,160.9 193.21,157.91 193.19,163.91 	"/>
	
		<line style="fill:none;stroke:#000000;stroke-linecap:round;stroke-linejoin:round;stroke-miterlimit:8;" x1="150.85" y1="46.5" x2="188.24" y2="96.16"/>
	<polygon style="fill-rule:evenodd;clip-rule:evenodd;" points="190.04,93.55 191.25,100.15 185.24,97.16 190.04,93.55 	"/>
	<polygon style="fill-rule:evenodd;clip-rule:evenodd;fill:#CC3300;" points="142.45,40.66 139.92,39.26 141.72,36.98 138.84,36.66 
		139.63,33.87 136.84,34.67 136.53,31.78 134.24,33.59 132.85,31.05 131.46,33.59 129.17,31.78 128.86,34.67 126.07,33.87 
		126.86,36.66 123.98,36.98 125.78,39.26 123.25,40.66 125.78,42.09 123.98,44.34 126.86,44.69 126.07,47.48 128.86,46.65 
		129.17,49.54 131.46,47.73 132.85,50.3 134.24,47.73 136.53,49.54 136.84,46.65 139.63,47.48 138.84,44.69 141.72,44.34 
		139.92,42.09 142.45,40.66 142.45,40.66 	"/>
	
		<polygon style="fill:none;stroke:#000000;stroke-width:0.12;stroke-linecap:round;stroke-linejoin:round;stroke-miterlimit:8;" points="
		142.45,40.66 139.92,39.26 141.72,36.98 138.84,36.66 139.63,33.87 136.84,34.67 136.53,31.78 134.24,33.59 132.85,31.05 
		131.46,33.59 129.17,31.78 128.86,34.67 126.07,33.87 126.86,36.66 123.98,36.98 125.78,39.26 123.25,40.66 125.78,42.09 
		123.98,44.34 126.86,44.69 126.07,47.48 128.86,46.65 129.17,49.54 131.46,47.73 132.85,50.3 134.24,47.73 136.53,49.54 
		136.84,46.65 139.63,47.48 138.84,44.69 141.72,44.34 139.92,42.09 142.45,40.66 142.45,40.66 	"/>
	<path style="fill-rule:evenodd;clip-rule:evenodd;fill:#FFFF99;" d="M131.88,33.95c-3.16,0-5.73,2.56-5.73,5.73
		s2.56,5.73,5.73,5.73s5.73-2.56,5.73-5.73S135.04,33.95,131.88,33.95L131.88,33.95z"/>
	<path style="fill:none;stroke:#000000;stroke-width:0.12;stroke-linecap:round;stroke-linejoin:round;stroke-miterlimit:8;" d="
		M131.88,33.95c-3.16,0-5.73,2.56-5.73,5.73s2.56,5.73,5.73,5.73s5.73-2.56,5.73-5.73S135.04,33.95,131.88,33.95L131.88,33.95z"/>
	<path style="fill:none;stroke:#000000;stroke-width:0.12;stroke-linecap:round;stroke-linejoin:round;stroke-miterlimit:8;" d="
		M131.88,33.95c-3.16,0-5.73,2.56-5.73,5.73s2.56,5.73,5.73,5.73s5.73-2.56,5.73-5.73S135.04,33.95,131.88,33.95L131.88,33.95z"/>
	<polygon style="fill-rule:evenodd;clip-rule:evenodd;fill:#FF0000;" points="142.45,40.66 139.92,39.26 141.72,36.98 138.84,36.66 
		139.63,33.87 136.84,34.67 136.53,31.78 134.24,33.59 132.85,31.05 131.46,33.59 129.17,31.78 128.86,34.67 126.07,33.87 
		126.86,36.66 123.98,36.98 125.78,39.26 123.25,40.66 125.78,42.09 123.98,44.34 126.86,44.69 126.07,47.48 128.86,46.65 
		129.17,49.54 131.46,47.73 132.85,50.3 134.24,47.73 136.53,49.54 136.84,46.65 139.63,47.48 138.84,44.69 141.72,44.34 
		139.92,42.09 142.45,40.66 142.45,40.66 	"/>
	<polygon style="fill-rule:evenodd;clip-rule:evenodd;fill:#FF0000;" points="142.45,40.66 139.92,39.26 141.72,36.98 138.84,36.66 
		139.63,33.87 136.84,34.67 136.53,31.78 134.24,33.59 132.85,31.05 131.46,33.59 129.17,31.78 128.86,34.67 126.07,33.87 
		126.86,36.66 123.98,36.98 125.78,39.26 123.25,40.66 125.78,42.09 123.98,44.34 126.86,44.69 126.07,47.48 128.86,46.65 
		129.17,49.54 131.46,47.73 132.85,50.3 134.24,47.73 136.53,49.54 136.84,46.65 139.63,47.48 138.84,44.69 141.72,44.34 
		139.92,42.09 142.45,40.66 142.45,40.66 	"/>
	
		<polygon style="fill:none;stroke:#000000;stroke-width:0.12;stroke-linecap:round;stroke-linejoin:round;stroke-miterlimit:8;" points="
		142.45,40.66 139.92,39.26 141.72,36.98 138.84,36.66 139.63,33.87 136.84,34.67 136.53,31.78 134.24,33.59 132.85,31.05 
		131.46,33.59 129.17,31.78 128.86,34.67 126.07,33.87 126.86,36.66 123.98,36.98 125.78,39.26 123.25,40.66 125.78,42.09 
		123.98,44.34 126.86,44.69 126.07,47.48 128.86,46.65 129.17,49.54 131.46,47.73 132.85,50.3 134.24,47.73 136.53,49.54 
		136.84,46.65 139.63,47.48 138.84,44.69 141.72,44.34 139.92,42.09 142.45,40.66 142.45,40.66 	"/>
	<path style="fill-rule:evenodd;clip-rule:evenodd;fill:#FFFF00;" d="M132.92,35c-3.16,0-5.72,2.57-5.72,5.75s2.56,5.75,5.72,5.75
		s5.73-2.57,5.73-5.75S136.09,35,132.92,35L132.92,35z"/>
	<path style="fill:none;stroke:#000000;stroke-width:0.12;stroke-linecap:round;stroke-linejoin:round;stroke-miterlimit:8;" d="
		M132.92,35c-3.16,0-5.72,2.57-5.72,5.75s2.56,5.75,5.72,5.75s5.73-2.57,5.73-5.75S136.09,35,132.92,35L132.92,35z"/>
	<path style="fill-rule:evenodd;clip-rule:evenodd;fill:#FFFF00;" d="M132.92,35c-3.16,0-5.72,2.57-5.72,5.75s2.56,5.75,5.72,5.75
		s5.73-2.57,5.73-5.75S136.09,35,132.92,35L132.92,35z"/>
	<path style="fill:none;stroke:#000000;stroke-width:0.12;stroke-linecap:round;stroke-linejoin:round;stroke-miterlimit:8;" d="
		M132.92,35c-3.16,0-5.72,2.57-5.72,5.75s2.56,5.75,5.72,5.75s5.73-2.57,5.73-5.75S136.09,35,132.92,35L132.92,35z"/>
	
		<line style="fill:none;stroke:#000000;stroke-width:0.75;stroke-linecap:round;stroke-linejoin:round;stroke-miterlimit:8;" x1="154.85" y1="79.75" x2="172.1" y2="79.8"/>
	<g>
		<defs>
			<polygon id="SVGID_3_" points="144,63.84 173.88,63.84 173.88,77.4 144,77.4 144,63.84 			"/>
		</defs>
		<clipPath id="SVGID_4_">
			<use xlink:href="#SVGID_3_"  style="overflow:visible;"/>
		</clipPath>
		<g style="clip-path:url(#SVGID_4_);">
			<defs>
				<rect id="SVGID_5_" x="144" y="63.84" width="29.88" height="13.56"/>
			</defs>
			<clipPath id="SVGID_6_">
				<use xlink:href="#SVGID_5_"  style="overflow:visible;"/>
			</clipPath>
			<g style="clip-path:url(#SVGID_6_);">
				<path d="M159.38,74.64h-3.06l0.13-1.5c0.51-0.21,0.88-0.51,1.12-0.91c0.24-0.39,0.36-0.94,0.36-1.65c0-0.98-0.24-1.73-0.71-2.25
					s-1.08-0.78-1.8-0.78c-0.7,0-1.29,0.27-1.77,0.8c-0.48,0.53-0.72,1.25-0.72,2.16c0,0.72,0.12,1.29,0.37,1.72
					s0.62,0.73,1.11,0.91l0.13,1.5h-3.04v-1.5h0.19c0.01,0.22,0.07,0.37,0.17,0.45c0.16,0.13,0.41,0.19,0.74,0.19h1.46v-0.38
					c-0.75-0.22-1.34-0.59-1.75-1.13c-0.41-0.53-0.62-1.16-0.62-1.88c0-0.91,0.33-1.67,1.01-2.29c0.67-0.62,1.58-0.93,2.72-0.93
					c0.7,0,1.35,0.13,1.93,0.4s1.04,0.65,1.36,1.16c0.32,0.51,0.48,1.06,0.48,1.67c0,0.74-0.22,1.39-0.65,1.94
					c-0.44,0.55-1.01,0.91-1.71,1.06l-0.04,0.38h1.48c0.33,0,0.56-0.05,0.69-0.15c0.13-0.1,0.21-0.26,0.23-0.48h0.21V74.64z"/>
			</g>
		</g>
		<g style="clip-path:url(#SVGID_4_);">
			<defs>
				<rect id="SVGID_7_" x="144" y="63.84" width="29.88" height="13.56"/>
			</defs>
			<clipPath id="SVGID_8_">
				<use xlink:href="#SVGID_7_"  style="overflow:visible;"/>
			</clipPath>
			<g style="clip-path:url(#SVGID_8_);">
				<path d="M161.27,73.72h2.14V72.4c0-0.24-0.01-0.39-0.04-0.47c-0.02-0.06-0.07-0.11-0.14-0.15c-0.1-0.05-0.2-0.08-0.31-0.08
					h-0.16v-0.13h1.97v0.13h-0.16c-0.11,0-0.21,0.03-0.31,0.08c-0.07,0.04-0.12,0.09-0.15,0.16c-0.03,0.07-0.04,0.22-0.04,0.45v2.97
					c0,0.23,0.01,0.39,0.04,0.46c0.02,0.06,0.07,0.11,0.14,0.15c0.1,0.05,0.2,0.08,0.31,0.08h0.16v0.13h-1.97v-0.13h0.16
					c0.19,0,0.33-0.06,0.41-0.17c0.06-0.07,0.08-0.25,0.08-0.52v-1.4h-2.14v1.4c0,0.23,0.01,0.39,0.04,0.46
					c0.02,0.06,0.07,0.11,0.14,0.15c0.1,0.05,0.2,0.08,0.31,0.08h0.17v0.13h-1.97v-0.13h0.16c0.19,0,0.33-0.06,0.41-0.17
					c0.05-0.07,0.08-0.25,0.08-0.52V72.4c0-0.24-0.01-0.39-0.04-0.47c-0.02-0.06-0.07-0.11-0.14-0.15c-0.1-0.05-0.2-0.08-0.31-0.08
					h-0.16v-0.13h1.97v0.13h-0.17c-0.11,0-0.21,0.03-0.31,0.08c-0.07,0.04-0.12,0.09-0.15,0.16c-0.03,0.07-0.04,0.22-0.04,0.45
					V73.72z"/>
			</g>
		</g>
		<g style="clip-path:url(#SVGID_4_);">
			<defs>
				<rect id="SVGID_9_" x="144" y="63.84" width="29.88" height="13.56"/>
			</defs>
			<clipPath id="SVGID_10_">
				<use xlink:href="#SVGID_9_"  style="overflow:visible;"/>
			</clipPath>
			<g style="clip-path:url(#SVGID_10_);">
			</g>
		</g>
	</g>
	<g>
		<defs>
			<polygon id="SVGID_11_" points="218.16,138.36 237.72,138.36 237.72,147.96 218.16,147.96 218.16,138.36 			"/>
		</defs>
		<clipPath id="SVGID_12_">
			<use xlink:href="#SVGID_11_"  style="overflow:visible;"/>
		</clipPath>
		<g style="clip-path:url(#SVGID_12_);">
			<defs>
				<rect id="SVGID_13_" x="218.16" y="138.36" width="19.56" height="9.6"/>
			</defs>
			<clipPath id="SVGID_14_">
				<use xlink:href="#SVGID_13_"  style="overflow:visible;"/>
			</clipPath>
			<g style="clip-path:url(#SVGID_14_);">
				<path d="M230.42,140.85v2.53h-0.2c-0.06-0.49-0.18-0.87-0.35-1.16c-0.17-0.29-0.41-0.52-0.71-0.68s-0.63-0.25-0.96-0.25
					c-0.37,0-0.68,0.11-0.93,0.34c-0.24,0.23-0.37,0.49-0.37,0.78c0,0.22,0.08,0.43,0.23,0.61c0.22,0.27,0.75,0.63,1.59,1.08
					c0.68,0.37,1.15,0.65,1.4,0.84c0.25,0.2,0.44,0.43,0.58,0.69c0.13,0.27,0.2,0.54,0.2,0.84c0,0.55-0.21,1.03-0.64,1.43
					c-0.43,0.4-0.98,0.6-1.66,0.6c-0.21,0-0.41-0.02-0.6-0.05c-0.11-0.02-0.34-0.08-0.69-0.2s-0.57-0.17-0.67-0.17
					c-0.09,0-0.16,0.03-0.21,0.08c-0.05,0.05-0.09,0.17-0.12,0.33h-0.2v-2.51h0.2c0.09,0.53,0.22,0.92,0.38,1.18
					c0.16,0.26,0.4,0.48,0.73,0.65c0.33,0.17,0.68,0.26,1.07,0.26c0.45,0,0.8-0.12,1.06-0.36c0.26-0.24,0.39-0.52,0.39-0.84
					c0-0.18-0.05-0.36-0.15-0.54c-0.1-0.18-0.25-0.35-0.46-0.51c-0.14-0.11-0.52-0.34-1.15-0.69c-0.63-0.35-1.07-0.63-1.33-0.84
					c-0.26-0.21-0.46-0.44-0.6-0.69c-0.14-0.25-0.21-0.53-0.21-0.83c0-0.52,0.2-0.98,0.6-1.36c0.4-0.38,0.91-0.57,1.54-0.57
					c0.39,0,0.8,0.09,1.23,0.29c0.2,0.09,0.34,0.13,0.43,0.13c0.09,0,0.17-0.03,0.23-0.08c0.06-0.06,0.11-0.17,0.14-0.34H230.42z"/>
			</g>
		</g>
		<g style="clip-path:url(#SVGID_12_);">
			<defs>
				<rect id="SVGID_15_" x="218.16" y="138.36" width="19.56" height="9.6"/>
			</defs>
			<clipPath id="SVGID_16_">
				<use xlink:href="#SVGID_15_"  style="overflow:visible;"/>
			</clipPath>
			<g style="clip-path:url(#SVGID_16_);">
			</g>
		</g>
	</g>
	<g>
		<defs>
			<polygon id="SVGID_17_" points="187.2,168 206.76,168 206.76,177.72 187.2,177.72 187.2,168 			"/>
		</defs>
		<clipPath id="SVGID_18_">
			<use xlink:href="#SVGID_17_"  style="overflow:visible;"/>
		</clipPath>
		<g style="clip-path:url(#SVGID_18_);">
			<defs>
				<rect id="SVGID_19_" x="187.2" y="168" width="19.56" height="9.72"/>
			</defs>
			<clipPath id="SVGID_20_">
				<use xlink:href="#SVGID_19_"  style="overflow:visible;"/>
			</clipPath>
			<g style="clip-path:url(#SVGID_20_);">
				<path d="M194.47,173.02h2.07v0.2c-0.19,0.01-0.32,0.05-0.37,0.1c-0.06,0.05-0.09,0.13-0.09,0.23c0,0.11,0.03,0.25,0.09,0.4
					l1.06,2.84l1.06-2.31l-0.28-0.73c-0.09-0.22-0.2-0.37-0.34-0.45c-0.08-0.05-0.23-0.08-0.44-0.09v-0.2h2.35v0.2
					c-0.26,0.01-0.44,0.06-0.55,0.14c-0.07,0.06-0.11,0.15-0.11,0.28c0,0.07,0.01,0.15,0.04,0.22l1.12,2.84l1.04-2.73
					c0.07-0.19,0.11-0.35,0.11-0.46c0-0.07-0.04-0.13-0.11-0.18c-0.07-0.05-0.21-0.08-0.41-0.09v-0.2h1.56v0.2
					c-0.31,0.05-0.54,0.26-0.69,0.64l-1.65,4.25h-0.22l-1.23-3.15l-1.44,3.15h-0.2l-1.58-4.15c-0.1-0.26-0.21-0.44-0.31-0.53
					c-0.1-0.09-0.26-0.16-0.47-0.21V173.02z"/>
			</g>
		</g>
		<g style="clip-path:url(#SVGID_18_);">
			<defs>
				<rect id="SVGID_21_" x="187.2" y="168" width="19.56" height="9.72"/>
			</defs>
			<clipPath id="SVGID_22_">
				<use xlink:href="#SVGID_21_"  style="overflow:visible;"/>
			</clipPath>
			<g style="clip-path:url(#SVGID_22_);">
			</g>
		</g>
	</g>
	<polyline style="fill:none;stroke:#C0504D;stroke-width:1.5;stroke-miterlimit:8;" points="187.2,34.85 187.2,24.75 207.4,24.75 
		207.4,14.65 	"/>
	
		<line style="fill:none;stroke:#C0504D;stroke-width:1.5;stroke-linejoin:round;stroke-miterlimit:8;" x1="187.2" y1="67.7" x2="207.4" y2="67.75"/>
	<polyline style="fill:none;stroke:#C0504D;stroke-width:1.5;stroke-miterlimit:8;" points="187.2,24.55 187.2,46.15 207.4,46.15 
		207.4,67.75 	"/>
	<polyline style="fill:none;stroke:#C0504D;stroke-width:1.5;stroke-miterlimit:8;" points="187.2,111.45 187.2,133.05 
		207.4,133.05 207.4,154.65 	"/>
	
		<line style="fill:none;stroke:#C0504D;stroke-width:1.5;stroke-linejoin:round;stroke-miterlimit:8;" x1="187.2" y1="110.85" x2="207.4" y2="110.9"/>
	<polyline style="fill:none;stroke:#C0504D;stroke-width:1.5;stroke-miterlimit:8;" points="187.2,67.7 187.2,89.3 207.4,89.3 
		207.4,110.9 	"/>
</g>
</svg>
