<?xml version="1.0" encoding="iso-8859-1"?>
<!-- Generator: Adobe Illustrator 16.0.3, SVG Export Plug-In . SVG Version: 6.00 Build 0)  -->
<!DOCTYPE svg PUBLIC "-//W3C//DTD SVG 1.1//EN" "http://www.w3.org/Graphics/SVG/1.1/DTD/svg11.dtd">
<svg version="1.1" id="Layer_1" xmlns="http://www.w3.org/2000/svg" xmlns:xlink="http://www.w3.org/1999/xlink" x="0px" y="0px"
	 width="300px" height="128.76px" viewBox="0 0 300 128.76" style="enable-background:new 0 0 300 128.76;" xml:space="preserve">
<g>
	
		<rect x="126.86" y="78.36" style="fill-rule:evenodd;clip-rule:evenodd;fill:#FFFFFF;stroke:#000000;stroke-width:0.6857;stroke-linecap:square;stroke-miterlimit:10;" width="50.06" height="50.06"/>
	
		<rect x="126.86" y="14.59" style="fill-rule:evenodd;clip-rule:evenodd;fill:#FFFFFF;stroke:#000000;stroke-width:0.6857;stroke-linecap:square;stroke-miterlimit:10;" width="50.06" height="43.89"/>
	
		<path style="fill-rule:evenodd;clip-rule:evenodd;fill:#FFFFFF;stroke:#000000;stroke-width:0.6857;stroke-linecap:square;stroke-miterlimit:10;" d="
		M200.91,45.79c0-7.05,5.64-12.69,12.69-12.69s12.69,5.64,12.69,12.69c0,7.05-5.64,12.69-12.69,12.69S200.91,52.83,200.91,45.79
		L200.91,45.79z"/>
	<path style="fill:none;stroke:#000000;stroke-width:0.6857;stroke-linecap:square;stroke-miterlimit:10;" d="M221.03,25.56
		c-11.15,0.06-20.05,8.97-20.11,20.11"/>
	
		<line style="fill:none;stroke:#000000;stroke-width:0.6857;stroke-linecap:square;stroke-miterlimit:10;" x1="220.11" y1="25.56" x2="220.11" y2="33.79"/>
	<polygon style="fill-rule:evenodd;clip-rule:evenodd;" points="201.6,45.44 193.37,47.5 193.37,45.44 193.37,43.39 201.6,45.44 	
		"/>
	
		<line style="fill:none;stroke:#000000;stroke-width:0.6857;stroke-linecap:square;stroke-miterlimit:10;" x1="176.23" y1="45.44" x2="193.37" y2="45.44"/>
	
		<rect x="201.6" y="84.53" style="fill-rule:evenodd;clip-rule:evenodd;fill:#FFFFFF;stroke:#000000;stroke-width:0.6857;stroke-linecap:square;stroke-miterlimit:10;" width="22.63" height="31.54"/>
	
		<rect x="235.2" y="83.84" style="fill-rule:evenodd;clip-rule:evenodd;fill:#FFFFFF;stroke:#000000;stroke-width:0.6857;stroke-linecap:square;stroke-miterlimit:10;" width="21.26" height="30.86"/>
	
		<line style="fill:none;stroke:#000000;stroke-width:0.6857;stroke-linecap:square;stroke-miterlimit:10;" x1="255.08" y1="84.53" x2="236.57" y2="113.33"/>
	
		<path style="fill-rule:evenodd;clip-rule:evenodd;fill:#FFFFFF;stroke:#000000;stroke-width:0.6857;stroke-linecap:square;stroke-miterlimit:10;" d="
		M243.43,99.27c0-1.71,1.37-3.09,3.09-3.09c1.71,0,3.09,1.37,3.09,3.09c0,1.71-1.37,3.09-3.09,3.09
		C244.8,102.36,243.43,100.98,243.43,99.27L243.43,99.27z"/>
	<polygon style="fill-rule:evenodd;clip-rule:evenodd;" points="223.54,99.61 231.77,97.56 231.77,99.61 231.77,101.67 
		223.54,99.61 	"/>
	
		<line style="fill:none;stroke:#000000;stroke-width:0.6857;stroke-linecap:square;stroke-miterlimit:10;" x1="235.2" y1="99.61" x2="231.77" y2="99.61"/>
	<polygon style="fill-rule:evenodd;clip-rule:evenodd;" points="175.54,100.3 183.77,98.24 183.77,100.3 183.77,102.36 
		175.54,100.3 	"/>
	
		<line style="fill:none;stroke:#000000;stroke-width:0.6857;stroke-linecap:square;stroke-miterlimit:10;" x1="201.6" y1="100.3" x2="183.77" y2="100.3"/>
	
		<line style="fill:none;stroke:#000000;stroke-width:0.6857;stroke-linecap:square;stroke-miterlimit:10;" x1="220.8" y1="28.99" x2="298.97" y2="28.99"/>
	
		<line style="fill:none;stroke:#000000;stroke-width:0.6857;stroke-linecap:square;stroke-miterlimit:10;" x1="299.66" y1="28.99" x2="299.66" y2="102.36"/>
	<polygon style="fill-rule:evenodd;clip-rule:evenodd;" points="256.46,102.36 264.69,100.3 264.69,102.36 264.69,104.41 
		256.46,102.36 	"/>
	
		<line style="fill:none;stroke:#000000;stroke-width:0.6857;stroke-linecap:square;stroke-miterlimit:10;" x1="299.66" y1="102.36" x2="264.69" y2="102.36"/>
	
		<line style="fill:none;stroke:#000000;stroke-width:0.6857;stroke-linecap:square;stroke-miterlimit:10;" x1="126.86" y1="100.3" x2="52.8" y2="100.3"/>
	<polygon style="fill-rule:evenodd;clip-rule:evenodd;" points="52.11,57.79 54.17,66.01 52.11,66.01 50.06,66.01 52.11,57.79 	"/>
	
		<line style="fill:none;stroke:#000000;stroke-width:0.6857;stroke-linecap:square;stroke-miterlimit:10;" x1="52.11" y1="99.61" x2="52.11" y2="66.01"/>
	
		<rect x="30.86" y="15.96" style="fill-rule:evenodd;clip-rule:evenodd;fill:#FFFFFF;stroke:#000000;stroke-width:0.6857;stroke-linecap:square;stroke-miterlimit:10;" width="47.31" height="43.2"/>
	<polygon style="fill-rule:evenodd;clip-rule:evenodd;" points="30.17,21.44 21.94,23.5 21.94,21.44 21.94,19.39 30.17,21.44 	"/>
	
		<line style="fill:none;stroke:#000000;stroke-width:0.6857;stroke-linecap:square;stroke-miterlimit:10;" x1="9.6" y1="21.44" x2="21.94" y2="21.44"/>
	<polygon style="fill-rule:evenodd;clip-rule:evenodd;" points="8.23,49.56 16.46,47.5 16.46,49.56 16.46,51.61 8.23,49.56 	"/>
	
		<line style="fill:none;stroke:#000000;stroke-width:0.6857;stroke-linecap:square;stroke-miterlimit:10;" x1="30.17" y1="49.56" x2="16.46" y2="49.56"/>
	
		<line style="fill:none;stroke:#000000;stroke-width:0.6857;stroke-linecap:square;stroke-miterlimit:10;" x1="30.86" y1="20.76" x2="52.8" y2="20.76"/>
	
		<line style="fill:none;stroke:#000000;stroke-width:0.6857;stroke-linecap:square;stroke-miterlimit:10;" x1="52.11" y1="58.47" x2="52.11" y2="20.76"/>
	
		<line style="fill:none;stroke:#000000;stroke-width:0.6857;stroke-linecap:square;stroke-miterlimit:10;" x1="51.43" y1="49.56" x2="30.17" y2="49.56"/>
	
		<line style="fill:none;stroke:#000000;stroke-width:0.6857;stroke-linecap:square;stroke-miterlimit:10;" x1="52.11" y1="20.76" x2="77.49" y2="20.76"/>
	<polygon style="fill-rule:evenodd;clip-rule:evenodd;" points="126.86,20.76 118.63,22.81 118.63,20.76 118.63,18.7 126.86,20.76 	
		"/>
	
		<line style="fill:none;stroke:#000000;stroke-width:0.6857;stroke-linecap:square;stroke-miterlimit:10;" x1="77.49" y1="20.76" x2="118.63" y2="20.76"/>
	<g>
		<path d="M147.14,33.96c-0.75,0.03-1.27,0.28-1.55,0.76c-0.28,0.48-0.42,1.03-0.41,1.66c0,0.62,0.15,1.17,0.46,1.63
			c0.31,0.46,0.78,0.7,1.41,0.73c0.62-0.03,1.06-0.23,1.32-0.59c0.26-0.36,0.38-0.71,0.37-1.04h0.76c-0.01,0.62-0.23,1.15-0.66,1.6
			c-0.43,0.45-1.04,0.69-1.82,0.72c-0.92-0.03-1.59-0.35-2.02-0.95c-0.43-0.6-0.64-1.32-0.64-2.16c-0.01-0.81,0.21-1.52,0.65-2.12
			s1.14-0.91,2.1-0.94c0.73,0.02,1.3,0.23,1.71,0.62c0.41,0.39,0.62,0.82,0.63,1.29h-0.76c0.01-0.16-0.1-0.39-0.33-0.69
			C148.15,34.16,147.73,33.99,147.14,33.96z"/>
		<path d="M151.82,33.25h0.49l-1.99,6.78h-0.48L151.82,33.25z"/>
		<path d="M155.45,33.96c-0.75,0.03-1.27,0.28-1.55,0.76s-0.42,1.03-0.41,1.66c0,0.62,0.15,1.17,0.46,1.63
			c0.31,0.46,0.78,0.7,1.41,0.73c0.62-0.03,1.06-0.23,1.32-0.59c0.26-0.36,0.38-0.71,0.37-1.04h0.76c-0.01,0.62-0.23,1.15-0.66,1.6
			c-0.43,0.45-1.04,0.69-1.82,0.72c-0.92-0.03-1.59-0.35-2.02-0.95s-0.64-1.32-0.63-2.16c-0.01-0.81,0.21-1.52,0.64-2.12
			c0.44-0.6,1.14-0.91,2.1-0.94c0.73,0.02,1.3,0.23,1.71,0.62c0.41,0.39,0.62,0.82,0.63,1.29h-0.76c0.01-0.16-0.1-0.39-0.33-0.69
			C156.45,34.16,156.04,33.99,155.45,33.96z"/>
	</g>
	<g>
		<path d="M194.86,3.92l1.7,4.97l1.66-4.97h0.82l-2.07,5.86h-0.82l-2.09-5.86H194.86z"/>
		<path d="M199.83,9.79h-0.8l2.18-5.86h0.87l2.19,5.86h-0.87l-0.61-1.75h-2.32L199.83,9.79z M201.66,4.73l-0.95,2.64h1.86
			L201.66,4.73z"/>
		<path d="M207.3,7.28h-1.62v2.51h-0.79V3.92h2.5c0.56,0,1,0.14,1.33,0.41c0.33,0.27,0.49,0.67,0.5,1.2c0,0.35-0.08,0.63-0.22,0.85
			c-0.14,0.21-0.33,0.38-0.58,0.5c0.29,0.09,0.48,0.26,0.56,0.51c0.08,0.25,0.12,0.53,0.12,0.84c-0.01,0.31,0,0.59,0.03,0.85
			c0.02,0.26,0.12,0.44,0.28,0.55v0.15h-0.89c-0.13-0.29-0.19-0.59-0.2-0.88c-0.01-0.29-0.01-0.56-0.02-0.81s-0.08-0.44-0.22-0.59
			S207.7,7.28,207.3,7.28z M205.69,4.6v2h1.65c0.37-0.01,0.64-0.1,0.82-0.29c0.18-0.19,0.27-0.42,0.27-0.72
			c0-0.32-0.08-0.57-0.26-0.74c-0.18-0.17-0.45-0.26-0.83-0.26H205.69z"/>
		<path d="M211.17,9.79h-0.79V3.92h0.79V9.79z"/>
		<path d="M212.62,9.79h-0.8L214,3.92h0.87l2.19,5.86h-0.87l-0.61-1.75h-2.32L212.62,9.79z M214.44,4.73l-0.95,2.64h1.86
			L214.44,4.73z"/>
		<path d="M217.68,9.79V3.92h2.47c0.61,0.01,1.05,0.13,1.32,0.38c0.28,0.25,0.41,0.59,0.41,1.01c0,0.35-0.09,0.63-0.25,0.86
			s-0.36,0.38-0.59,0.46c0.39,0.07,0.68,0.24,0.86,0.51c0.18,0.27,0.27,0.58,0.26,0.93c-0.01,0.51-0.19,0.92-0.53,1.23
			s-0.79,0.47-1.34,0.47H217.68z M218.47,6.41h1.55c0.36,0,0.63-0.09,0.81-0.26s0.27-0.4,0.27-0.69c0-0.27-0.08-0.48-0.26-0.64
			c-0.17-0.16-0.45-0.24-0.82-0.25h-1.55V6.41z M218.47,9.11h1.71c0.39-0.01,0.69-0.11,0.88-0.31c0.19-0.2,0.29-0.44,0.29-0.75
			c0-0.29-0.09-0.53-0.28-0.72c-0.19-0.19-0.48-0.29-0.89-0.3h-1.71V9.11z"/>
		<path d="M223.9,9.07h2.95v0.71h-3.73V3.92h0.79V9.07z"/>
		<path d="M231.69,3.92v0.72h-3.41v1.78h3.15v0.66h-3.15v1.99h3.48v0.71h-4.26V3.92H231.69z"/>
	</g>
	<g>
		<path d="M191.43,14.89l1.7,4.97l1.66-4.97h0.82l-2.07,5.86h-0.82l-2.09-5.86H191.43z"/>
		<path d="M198.8,14.73c0.9,0.01,1.58,0.3,2.06,0.86c0.47,0.56,0.71,1.31,0.71,2.25c0,0.94-0.25,1.69-0.73,2.23
			c-0.48,0.54-1.18,0.82-2.09,0.84c-0.91-0.02-1.59-0.3-2.05-0.86c-0.46-0.56-0.7-1.3-0.7-2.24c0-0.93,0.25-1.68,0.73-2.23
			C197.21,15.02,197.9,14.74,198.8,14.73z M196.81,17.82c0,0.69,0.15,1.26,0.47,1.72s0.81,0.69,1.49,0.7
			c0.68-0.02,1.18-0.25,1.51-0.7c0.33-0.45,0.49-1.02,0.48-1.7c0-0.69-0.16-1.26-0.48-1.72c-0.32-0.46-0.82-0.7-1.49-0.72
			c-0.67,0.02-1.17,0.25-1.49,0.7C196.97,16.56,196.81,17.13,196.81,17.82z"/>
		<path d="M203.38,20.04h2.95v0.71h-3.73v-5.86h0.79V20.04z"/>
		<path d="M210.75,14.89h0.79v3.8c0,0.62-0.18,1.14-0.57,1.55c-0.38,0.42-0.99,0.64-1.82,0.65c-0.8-0.02-1.38-0.24-1.72-0.66
			s-0.51-0.94-0.5-1.55v-3.8h0.79v3.8c0,0.46,0.13,0.82,0.38,1.08s0.61,0.38,1.09,0.39c0.58-0.01,0.99-0.16,1.23-0.45
			s0.35-0.65,0.34-1.1V14.89z"/>
		<path d="M212.78,14.89h1.13l1.6,4.94l1.67-4.94h1.12v5.86h-0.76v-4.94l-1.67,4.94h-0.74l-1.63-4.99v4.99h-0.72V14.89z"/>
		<path d="M223.77,14.89v0.72h-3.41v1.78h3.15v0.66h-3.15v1.99h3.48v0.71h-4.26v-5.86H223.77z"/>
		<path d="M227.85,18.08v2.67h-0.79v-5.86H231v0.72h-3.15v1.78h2.75v0.69H227.85z"/>
		<path d="M231.99,20.75h-0.8l2.18-5.86h0.87l2.19,5.86h-0.87l-0.61-1.75h-2.32L231.99,20.75z M233.81,15.7l-0.95,2.64h1.86
			L233.81,15.7z"/>
		<path d="M240.95,19.61v-4.72h0.74v5.86h-0.86l-3.04-4.69v4.69h-0.74v-5.86h0.86L240.95,19.61z"/>
	</g>
	<g>
		<path d="M206.45,99.61v2.75h-0.79V96.5h0.79v2.42h3.08V96.5h0.79v5.86h-0.79v-2.75H206.45z"/>
		<path d="M212.93,96.34h0.49l-1.99,6.78h-0.48L212.93,96.34z"/>
		<path d="M216.57,97.04c-0.75,0.03-1.27,0.28-1.55,0.76s-0.42,1.03-0.41,1.66c0,0.63,0.15,1.17,0.46,1.63
			c0.31,0.46,0.78,0.7,1.41,0.73c0.62-0.03,1.06-0.22,1.32-0.59c0.26-0.36,0.38-0.71,0.37-1.04h0.76c-0.01,0.62-0.23,1.15-0.66,1.61
			s-1.04,0.69-1.82,0.72c-0.92-0.03-1.59-0.35-2.02-0.95c-0.43-0.6-0.64-1.32-0.63-2.16c-0.01-0.81,0.21-1.52,0.64-2.12
			c0.44-0.6,1.14-0.91,2.1-0.94c0.73,0.02,1.3,0.23,1.71,0.62c0.41,0.39,0.62,0.82,0.63,1.29h-0.76c0.01-0.16-0.1-0.39-0.33-0.69
			C217.57,97.25,217.16,97.08,216.57,97.04z"/>
	</g>
	<g>
		<path d="M228.97,81.09v-5.86h2.25c0.93,0.02,1.58,0.31,1.96,0.85s0.57,1.2,0.55,1.98c0,0.89-0.21,1.61-0.63,2.17
			c-0.42,0.56-1.05,0.85-1.88,0.86H228.97z M229.76,80.4h1.42c0.63-0.01,1.08-0.23,1.35-0.65c0.28-0.42,0.41-0.96,0.41-1.62
			c0-0.64-0.13-1.17-0.41-1.59c-0.28-0.42-0.73-0.63-1.35-0.65h-1.42V80.4z"/>
		<path d="M234.91,81.09h-0.8l2.18-5.86h0.87l2.19,5.86h-0.87l-0.61-1.75h-2.32L234.91,81.09z M236.74,76.03l-0.95,2.64h1.86
			L236.74,76.03z"/>
		<path d="M239.98,75.23h1.13l1.6,4.94l1.67-4.94h1.12v5.86h-0.76v-4.94l-1.67,4.94h-0.74l-1.63-4.99v4.99h-0.72V75.23z"/>
		<path d="M249.28,78.6h-1.71v2.49h-0.79v-5.86h2.5c0.55,0.01,0.98,0.16,1.27,0.45c0.29,0.3,0.44,0.71,0.44,1.24
			c-0.01,0.52-0.17,0.93-0.48,1.23C250.2,78.44,249.79,78.59,249.28,78.6z M247.57,75.92v1.99h1.65c0.32,0,0.56-0.1,0.73-0.28
			c0.16-0.18,0.25-0.42,0.25-0.71c0-0.32-0.09-0.57-0.26-0.74c-0.17-0.17-0.41-0.26-0.71-0.26H247.57z"/>
		<path d="M256.14,75.23v0.72h-3.41v1.78h3.15v0.66h-3.15v1.99h3.48v0.71h-4.26v-5.86H256.14z"/>
		<path d="M259.58,78.58h-1.62v2.51h-0.79v-5.86h2.5c0.56,0,1,0.14,1.33,0.41c0.33,0.27,0.49,0.67,0.5,1.2
			c0,0.35-0.08,0.63-0.22,0.85c-0.14,0.21-0.33,0.38-0.58,0.5c0.29,0.09,0.48,0.26,0.56,0.51c0.08,0.25,0.12,0.53,0.12,0.84
			c-0.01,0.31,0,0.59,0.03,0.85c0.02,0.26,0.12,0.44,0.28,0.55v0.15h-0.89c-0.13-0.29-0.19-0.59-0.2-0.88
			c-0.01-0.29-0.01-0.56-0.02-0.81s-0.08-0.44-0.22-0.59S259.98,78.58,259.58,78.58z M257.97,75.9v2h1.65c0.37,0,0.64-0.1,0.82-0.29
			c0.18-0.18,0.27-0.42,0.27-0.71c0-0.32-0.08-0.57-0.26-0.74c-0.18-0.17-0.45-0.26-0.83-0.26H257.97z"/>
	</g>
	<g>
		<path d="M143.11,97.86v-0.67h4.26v0.72l-3.54,4.44h3.54v0.7h-4.51v-0.65l3.6-4.54H143.11z"/>
		<path d="M150.72,97.02c0.9,0.01,1.58,0.3,2.05,0.86s0.71,1.31,0.71,2.25c0,0.94-0.25,1.69-0.73,2.23
			c-0.48,0.54-1.18,0.82-2.09,0.84c-0.9-0.02-1.59-0.3-2.05-0.86c-0.46-0.56-0.69-1.3-0.7-2.24c0.01-0.93,0.25-1.68,0.73-2.23
			S149.81,97.03,150.72,97.02z M148.72,100.11c0,0.69,0.15,1.26,0.47,1.71c0.31,0.45,0.81,0.69,1.49,0.7
			c0.68-0.02,1.18-0.25,1.51-0.7c0.33-0.45,0.49-1.02,0.48-1.7c0-0.69-0.16-1.26-0.48-1.72c-0.32-0.46-0.82-0.7-1.49-0.72
			c-0.67,0.02-1.17,0.25-1.49,0.7C148.88,98.85,148.72,99.42,148.72,100.11z"/>
		<path d="M158.4,101.9v-4.72h0.74v5.86h-0.86l-3.04-4.69v4.69h-0.74v-5.86h0.86L158.4,101.9z"/>
		<path d="M164.6,97.18v0.72h-3.41v1.78h3.15v0.66h-3.15v1.99h3.48v0.71h-4.26v-5.86H164.6z"/>
	</g>
	<g>
		<path d="M69.54,93.68h-1.62v2.51h-0.79v-5.86h2.5c0.56,0,1,0.14,1.33,0.41c0.33,0.27,0.49,0.67,0.5,1.2
			c0,0.35-0.08,0.63-0.22,0.85c-0.14,0.21-0.33,0.38-0.57,0.5c0.29,0.09,0.48,0.26,0.56,0.51s0.12,0.53,0.12,0.84
			c-0.01,0.31,0,0.59,0.03,0.85s0.12,0.44,0.28,0.55v0.15h-0.89c-0.13-0.29-0.19-0.59-0.2-0.88s-0.01-0.56-0.02-0.81
			c-0.01-0.24-0.08-0.44-0.22-0.59C70.2,93.75,69.94,93.68,69.54,93.68z M67.93,91v2h1.65c0.37,0,0.64-0.1,0.82-0.29
			c0.18-0.18,0.27-0.42,0.27-0.71c0-0.32-0.08-0.57-0.26-0.74C70.23,91.09,69.95,91,69.58,91H67.93z"/>
		<path d="M76.79,90.32v0.72h-3.41v1.78h3.15v0.66h-3.15v1.99h3.48v0.71h-4.26v-5.86H76.79z"/>
		<path d="M81.79,91.01h-1.86v5.17h-0.79v-5.17h-1.86v-0.69h4.51V91.01z"/>
		<path d="M86.28,90.32h0.79v3.8c0.01,0.62-0.18,1.14-0.57,1.56c-0.38,0.42-0.99,0.64-1.82,0.65c-0.8-0.02-1.38-0.24-1.72-0.66
			c-0.34-0.42-0.51-0.94-0.5-1.55v-3.8h0.79v3.8c0,0.46,0.13,0.82,0.38,1.08s0.61,0.38,1.09,0.39c0.58-0.01,0.99-0.16,1.23-0.45
			c0.23-0.29,0.35-0.65,0.34-1.1V90.32z"/>
		<path d="M90.71,93.68H89.1v2.51h-0.79v-5.86h2.5c0.56,0,1,0.14,1.33,0.41c0.33,0.27,0.49,0.67,0.5,1.2c0,0.35-0.08,0.63-0.22,0.85
			c-0.14,0.21-0.33,0.38-0.57,0.5c0.29,0.09,0.48,0.26,0.56,0.51s0.12,0.53,0.12,0.84c-0.01,0.31,0,0.59,0.03,0.85
			s0.12,0.44,0.28,0.55v0.15h-0.89c-0.13-0.29-0.19-0.59-0.2-0.88s-0.01-0.56-0.02-0.81c-0.01-0.24-0.08-0.44-0.22-0.59
			C91.37,93.75,91.1,93.68,90.71,93.68z M89.1,91v2h1.65c0.37,0,0.64-0.1,0.82-0.29c0.18-0.18,0.27-0.42,0.27-0.71
			c0-0.32-0.08-0.57-0.26-0.74C91.39,91.09,91.12,91,90.74,91H89.1z"/>
		<path d="M97.65,95.04v-4.72h0.74v5.86h-0.86l-3.05-4.69v4.69h-0.74v-5.86h0.86L97.65,95.04z"/>
		<path d="M102.07,96.18h-0.8l2.18-5.86h0.87l2.19,5.86h-0.87l-0.61-1.75h-2.32L102.07,96.18z M103.89,91.13l-0.95,2.64h1.86
			L103.89,91.13z"/>
		<path d="M107.95,96.18h-0.79v-5.86h0.79V96.18z"/>
		<path d="M111.66,93.68h-1.62v2.51h-0.79v-5.86h2.5c0.56,0,1,0.14,1.33,0.41c0.33,0.27,0.49,0.67,0.5,1.2
			c0,0.35-0.08,0.63-0.22,0.85c-0.14,0.21-0.33,0.38-0.57,0.5c0.29,0.09,0.48,0.26,0.56,0.51s0.12,0.53,0.12,0.84
			c-0.01,0.31,0,0.59,0.03,0.85s0.12,0.44,0.28,0.55v0.15h-0.89c-0.13-0.29-0.19-0.59-0.2-0.88s-0.01-0.56-0.02-0.81
			c-0.01-0.24-0.08-0.44-0.22-0.59C112.32,93.75,112.05,93.68,111.66,93.68z M110.04,91v2h1.65c0.37,0,0.64-0.1,0.82-0.29
			c0.18-0.18,0.27-0.42,0.27-0.71c0-0.32-0.08-0.57-0.26-0.74c-0.18-0.17-0.45-0.26-0.83-0.26H110.04z"/>
	</g>
	<g>
		<path d="M7.3,1.02c0.9,0.01,1.58,0.3,2.06,0.86c0.47,0.56,0.71,1.31,0.71,2.25c-0.01,0.94-0.25,1.69-0.73,2.23
			C8.85,6.9,8.15,7.18,7.24,7.19c-0.91-0.02-1.59-0.3-2.05-0.86s-0.69-1.3-0.7-2.24C4.5,3.16,4.74,2.42,5.22,1.86
			C5.7,1.31,6.39,1.03,7.3,1.02z M5.3,4.11c0,0.69,0.15,1.26,0.47,1.72s0.81,0.69,1.49,0.7c0.68-0.02,1.18-0.25,1.51-0.7
			c0.33-0.45,0.49-1.02,0.48-1.7c0-0.69-0.16-1.26-0.48-1.72c-0.32-0.46-0.82-0.7-1.49-0.72C6.6,1.71,6.11,1.94,5.78,2.4
			S5.3,3.42,5.3,4.11z"/>
		<path d="M14.86,1.18h0.79v3.8c0.01,0.62-0.18,1.14-0.57,1.55c-0.38,0.42-0.99,0.64-1.82,0.65c-0.8-0.02-1.38-0.24-1.72-0.66
			s-0.51-0.94-0.5-1.55v-3.8h0.79v3.8c0,0.46,0.13,0.82,0.38,1.08s0.61,0.38,1.09,0.39c0.58-0.01,0.99-0.16,1.23-0.45
			s0.35-0.65,0.34-1.1V1.18z"/>
		<path d="M20.86,1.87H19v5.17H18.2V1.87h-1.86V1.18h4.51V1.87z"/>
		<path d="M23.62,7.19c-0.78-0.02-1.36-0.21-1.74-0.6c-0.38-0.38-0.57-0.88-0.57-1.48h0.74c0.01,0.48,0.16,0.83,0.46,1.06
			s0.67,0.35,1.14,0.35c0.43,0,0.77-0.1,1.02-0.29c0.26-0.19,0.39-0.47,0.39-0.83c-0.02-0.37-0.21-0.61-0.56-0.74
			c-0.35-0.13-0.76-0.24-1.23-0.32c-0.47-0.09-0.88-0.24-1.23-0.46c-0.35-0.22-0.54-0.6-0.55-1.14c0-0.47,0.18-0.87,0.53-1.2
			s0.87-0.51,1.56-0.52c0.71,0.02,1.24,0.21,1.58,0.57c0.34,0.37,0.51,0.8,0.51,1.3h-0.76c0-0.32-0.11-0.6-0.33-0.84
			c-0.22-0.24-0.58-0.37-1.07-0.38c-0.42,0.01-0.74,0.1-0.96,0.28c-0.22,0.18-0.33,0.43-0.33,0.74c0.02,0.35,0.2,0.58,0.55,0.7
			c0.35,0.12,0.76,0.23,1.23,0.31c0.47,0.08,0.88,0.24,1.24,0.46c0.36,0.23,0.55,0.62,0.57,1.19c-0.01,0.56-0.2,1-0.59,1.33
			C24.86,7.01,24.32,7.18,23.62,7.19z"/>
		<path d="M27.68,7.04h-0.79V1.18h0.79V7.04z"/>
		<path d="M28.98,7.04V1.18h2.25c0.93,0.02,1.58,0.31,1.96,0.85c0.38,0.54,0.57,1.2,0.55,1.98c0,0.89-0.21,1.61-0.63,2.17
			s-1.05,0.85-1.88,0.86H28.98z M29.77,6.35h1.42c0.63-0.01,1.08-0.23,1.35-0.65c0.28-0.42,0.41-0.96,0.41-1.62
			c0.01-0.64-0.13-1.17-0.41-1.59s-0.73-0.63-1.35-0.65h-1.42V6.35z"/>
		<path d="M38.97,1.18V1.9h-3.41v1.78h3.15v0.66h-3.15v1.99h3.48v0.71h-4.26V1.18H38.97z"/>
	</g>
	<g>
		<path d="M15.17,18h-0.8l2.18-5.86h0.87L19.61,18h-0.87l-0.61-1.75h-2.32L15.17,18z M17,12.95l-0.95,2.64h1.86L17,12.95z"/>
		<path d="M21.06,18h-0.79v-5.86h0.79V18z"/>
		<path d="M24.76,15.5h-1.62V18h-0.79v-5.86h2.5c0.56,0,1,0.14,1.33,0.41c0.33,0.27,0.49,0.67,0.5,1.2c0,0.35-0.08,0.63-0.22,0.85
			c-0.14,0.21-0.33,0.38-0.57,0.5c0.29,0.09,0.48,0.26,0.56,0.51s0.12,0.53,0.12,0.84c-0.01,0.31,0,0.59,0.03,0.85
			s0.12,0.44,0.28,0.55V18H26c-0.13-0.29-0.19-0.59-0.2-0.88s-0.01-0.56-0.02-0.81c-0.01-0.24-0.08-0.44-0.22-0.59
			C25.42,15.57,25.16,15.5,24.76,15.5z M23.15,12.82v2h1.65c0.37-0.01,0.64-0.1,0.82-0.29c0.18-0.19,0.27-0.42,0.27-0.72
			c0-0.32-0.08-0.57-0.26-0.74s-0.45-0.26-0.83-0.26H23.15z"/>
	</g>
	<g>
		<path d="M3.03,56.65H1.41v2.51H0.63V53.3h2.5c0.56,0,1,0.14,1.33,0.41c0.33,0.27,0.49,0.67,0.5,1.2c0,0.35-0.08,0.63-0.22,0.85
			c-0.14,0.21-0.33,0.38-0.57,0.5c0.29,0.09,0.48,0.26,0.56,0.51s0.12,0.53,0.12,0.84c-0.01,0.31,0,0.59,0.03,0.85
			s0.12,0.44,0.28,0.55v0.15H4.26c-0.13-0.29-0.19-0.59-0.2-0.88s-0.01-0.56-0.02-0.81c-0.01-0.24-0.08-0.44-0.22-0.59
			C3.69,56.73,3.42,56.65,3.03,56.65z M1.41,53.97v2h1.65c0.37-0.01,0.64-0.1,0.82-0.29c0.18-0.19,0.27-0.42,0.27-0.72
			c0-0.32-0.08-0.57-0.26-0.74s-0.45-0.26-0.83-0.26H1.41z"/>
		<path d="M10.27,53.3v0.72H6.86v1.78h3.15v0.66H6.86v1.99h3.48v0.71H6.08V53.3H10.27z"/>
		<path d="M12.1,58.45h2.95v0.71h-3.73V53.3h0.79V58.45z"/>
		<path d="M16.51,59.16h-0.79V53.3h0.79V59.16z"/>
		<path d="M22.01,53.3v0.72H18.6v1.78h3.15v0.66H18.6v1.99h3.48v0.71h-4.26V53.3H22.01z"/>
		<path d="M23.83,56.49v2.67h-0.79V53.3h3.93v0.72h-3.15v1.78h2.75v0.69H23.83z"/>
	</g>
	<g>
		<path d="M6.95,70.13h-0.8l2.18-5.86H9.2l2.19,5.86h-0.87l-0.61-1.75H7.59L6.95,70.13z M8.77,65.07l-0.95,2.64h1.86L8.77,65.07z"/>
		<path d="M12.83,70.13h-0.79v-5.86h0.79V70.13z"/>
		<path d="M16.54,67.62h-1.62v2.51h-0.79v-5.86h2.5c0.56,0,1,0.14,1.33,0.41c0.33,0.27,0.49,0.67,0.5,1.2
			c0,0.35-0.08,0.63-0.22,0.85c-0.14,0.21-0.33,0.38-0.57,0.5c0.29,0.09,0.48,0.26,0.56,0.51s0.12,0.53,0.12,0.84
			c-0.01,0.31,0,0.59,0.03,0.85s0.12,0.44,0.28,0.55v0.15h-0.89c-0.13-0.29-0.19-0.59-0.2-0.88s-0.01-0.56-0.02-0.81
			c-0.01-0.24-0.08-0.44-0.22-0.59C17.2,67.7,16.93,67.62,16.54,67.62z M14.92,64.94v2h1.65c0.37,0,0.64-0.1,0.82-0.29
			c0.18-0.18,0.27-0.42,0.27-0.71c0-0.32-0.08-0.57-0.26-0.74c-0.18-0.17-0.45-0.26-0.83-0.26H14.92z"/>
	</g>
	<polygon style="fill-rule:evenodd;clip-rule:evenodd;fill:#FFFFFF;" points="37.71,24.87 67.2,24.87 67.2,46.81 37.71,46.81 
		37.71,24.87 	"/>
	<g>
		<path d="M39.03,27.24h1.13l1.6,4.94l1.68-4.94h1.12v5.86h-0.76v-4.94l-1.68,4.94h-0.74l-1.63-4.99v4.99h-0.72V27.24z"/>
		<path d="M46.64,33.11h-0.79v-5.86h0.79V33.11z"/>
		<path d="M51.25,27.24h0.9l-1.91,2.88l2.01,2.98h-0.97l-1.5-2.37l-1.51,2.37h-0.96l2.01-2.98l-1.89-2.88h0.95l1.41,2.15
			L51.25,27.24z"/>
		<path d="M53.73,33.11h-0.79v-5.86h0.79V33.11z"/>
		<path d="M58.93,31.96v-4.72h0.74v5.86h-0.86l-3.05-4.69v4.69h-0.74v-5.86h0.86L58.93,31.96z"/>
		<path d="M61.5,30.21c0,0.62,0.15,1.17,0.47,1.63c0.31,0.46,0.81,0.7,1.49,0.73c0.52,0,0.96-0.16,1.3-0.47
			c0.35-0.32,0.53-0.81,0.54-1.49h-1.83v-0.64h2.54v3.14h-0.49l-0.18-0.76c-0.18,0.23-0.43,0.43-0.75,0.61
			c-0.32,0.18-0.69,0.28-1.13,0.29c-0.96-0.03-1.67-0.35-2.11-0.95c-0.44-0.6-0.66-1.32-0.66-2.17c0-0.83,0.23-1.54,0.69-2.13
			c0.46-0.59,1.18-0.9,2.15-0.93c0.8,0.03,1.4,0.25,1.79,0.66c0.4,0.41,0.59,0.83,0.59,1.27h-0.76c0.01-0.2-0.11-0.46-0.36-0.76
			c-0.25-0.3-0.66-0.46-1.26-0.49c-0.74,0.02-1.27,0.26-1.58,0.73C61.65,28.95,61.49,29.53,61.5,30.21z"/>
	</g>
	<g>
		<path d="M45.2,44.07v-5.86h2.47c0.61,0.01,1.05,0.13,1.32,0.38s0.41,0.59,0.41,1.01c-0.01,0.35-0.09,0.63-0.25,0.86
			c-0.16,0.22-0.36,0.38-0.59,0.46c0.39,0.07,0.68,0.24,0.86,0.51s0.27,0.58,0.26,0.93c-0.01,0.51-0.19,0.92-0.53,1.23
			s-0.79,0.47-1.34,0.47H45.2z M45.98,40.7h1.55c0.36,0,0.63-0.09,0.81-0.26s0.27-0.4,0.27-0.69c0-0.27-0.08-0.48-0.26-0.64
			c-0.17-0.16-0.45-0.24-0.82-0.25h-1.55V40.7z M45.98,43.4h1.71c0.39-0.01,0.69-0.11,0.88-0.31s0.29-0.44,0.29-0.75
			c0-0.29-0.09-0.53-0.27-0.72c-0.19-0.19-0.48-0.29-0.89-0.3h-1.71V43.4z"/>
		<path d="M53.18,38.05c0.9,0.01,1.58,0.3,2.06,0.86c0.47,0.56,0.71,1.31,0.71,2.25c-0.01,0.94-0.25,1.69-0.73,2.23
			c-0.48,0.54-1.18,0.82-2.09,0.84c-0.91-0.02-1.59-0.3-2.05-0.86s-0.69-1.3-0.7-2.24c0.01-0.93,0.25-1.68,0.73-2.23
			C51.59,38.34,52.28,38.06,53.18,38.05z M51.19,41.14c0,0.69,0.15,1.26,0.47,1.72s0.81,0.69,1.49,0.7c0.68-0.02,1.18-0.25,1.51-0.7
			c0.33-0.45,0.49-1.02,0.48-1.7c0-0.69-0.16-1.26-0.48-1.72c-0.32-0.46-0.82-0.7-1.49-0.72c-0.67,0.02-1.17,0.25-1.49,0.7
			S51.19,40.45,51.19,41.14z"/>
		<path d="M60.27,38.21h0.9l-1.91,2.88l2.01,2.98H60.3l-1.5-2.37l-1.51,2.37h-0.96l2.01-2.98l-1.89-2.88h0.95l1.41,2.15L60.27,38.21
			z"/>
	</g>
</g>
</svg>
