<?xml version="1.0" encoding="iso-8859-1"?>
<!-- Generator: Adobe Illustrator 16.0.3, SVG Export Plug-In . SVG Version: 6.00 Build 0)  -->
<!DOCTYPE svg PUBLIC "-//W3C//DTD SVG 1.1//EN" "http://www.w3.org/Graphics/SVG/1.1/DTD/svg11.dtd">
<svg version="1.1" id="Layer_1" xmlns="http://www.w3.org/2000/svg" xmlns:xlink="http://www.w3.org/1999/xlink" x="0px" y="0px"
	 width="440.35px" height="174.89px" viewBox="0 0 440.35 174.89" style="enable-background:new 0 0 440.35 174.89;"
	 xml:space="preserve">
<g>
	<line style="fill:none;stroke:#000000;stroke-linecap:square;stroke-miterlimit:10;" x1="65" y1="19" x2="65" y2="112"/>
	<polygon style="fill-rule:evenodd;clip-rule:evenodd;" points="123,143 120,131 123,131 126,131 123,143 	"/>
	<line style="fill:none;stroke:#000000;stroke-linecap:square;stroke-miterlimit:10;" x1="123" y1="10" x2="123" y2="131"/>
	<polygon style="fill-rule:evenodd;clip-rule:evenodd;" points="239,144 236,132 239,132 242,132 239,144 	"/>
	<line style="fill:none;stroke:#000000;stroke-linecap:square;stroke-miterlimit:10;" x1="239" y1="10" x2="239" y2="132"/>
	<polygon style="fill-rule:evenodd;clip-rule:evenodd;" points="181,144 178,132 181,132 184,132 181,144 	"/>
	<line style="fill:none;stroke:#000000;stroke-linecap:square;stroke-miterlimit:10;" x1="181" y1="10" x2="181" y2="132"/>
	<polygon style="fill-rule:evenodd;clip-rule:evenodd;" points="327,146 324,134 327,134 330,134 327,146 	"/>
	<line style="fill:none;stroke:#000000;stroke-linecap:square;stroke-miterlimit:10;" x1="327" y1="86" x2="327" y2="94"/>
	<line style="fill:none;stroke:#000000;stroke-linecap:square;stroke-miterlimit:10;" x1="327" y1="104" x2="327" y2="112"/>
	<line style="fill:none;stroke:#000000;stroke-linecap:square;stroke-miterlimit:10;" x1="327" y1="122" x2="327" y2="130"/>
	<polygon style="fill-rule:evenodd;clip-rule:evenodd;" points="244,10 232,13 232,10 232,7 244,10 	"/>
	<line style="fill:none;stroke:#000000;stroke-linecap:square;stroke-miterlimit:10;" x1="16" y1="10" x2="232" y2="10"/>
	<line style="fill:none;stroke:#000000;stroke-linecap:square;stroke-miterlimit:10;" x1="39" y1="36" x2="267" y2="36"/>
	<line style="fill:none;stroke:#000000;stroke-linecap:square;stroke-miterlimit:10;" x1="72" y1="61" x2="300" y2="61"/>
	<polygon style="fill-rule:evenodd;clip-rule:evenodd;fill:#FFFFFF;" points="59,50 76,50 76,73 59,73 59,50 	"/>
	<g>
		<path d="M60.1,67l3.37-4.81l-3.23-4.53h3.01l1.65,2.57l1.74-2.57h2.9l-3.16,4.42L69.84,67H66.8l-1.9-2.89L62.99,67H60.1z"/>
	</g>
	<polygon style="fill-rule:evenodd;clip-rule:evenodd;fill:#FFFFFF;" points="117,50 134,50 134,73 117,73 117,50 	"/>
	<g>
		<path d="M118.11,67l3.37-4.81l-3.23-4.53h3.01l1.65,2.57l1.74-2.57h2.9l-3.16,4.42l3.45,4.91h-3.03l-1.9-2.89L121,67H118.11z"/>
	</g>
	<polygon style="fill-rule:evenodd;clip-rule:evenodd;fill:#FFFFFF;" points="175,50 192,50 192,73 175,73 175,50 	"/>
	<g>
		<path d="M176.11,67l3.37-4.81l-3.23-4.53h3.01l1.65,2.57l1.74-2.57h2.9l-3.16,4.42l3.45,4.91h-3.03l-1.9-2.89L179,67H176.11z"/>
	</g>
	<polygon style="fill-rule:evenodd;clip-rule:evenodd;fill:#FFFFFF;" points="233,50 250,50 250,73 233,73 233,50 	"/>
	<g>
		<path d="M234.11,67l3.37-4.81l-3.23-4.53h3.01l1.65,2.57l1.74-2.57h2.9l-3.16,4.42l3.45,4.91h-3.03l-1.9-2.89L237,67H234.11z"/>
	</g>
	<polygon style="fill-rule:evenodd;clip-rule:evenodd;fill:#FFFFFF;" points="291,50 308,50 308,73 291,73 291,50 	"/>
	<g>
		<path d="M292.11,67l3.37-4.81l-3.23-4.53h3.01l1.65,2.57l1.74-2.57h2.9l-3.16,4.42l3.45,4.91h-3.03l-1.9-2.89L295,67H292.11z"/>
	</g>
	<polygon style="fill-rule:evenodd;clip-rule:evenodd;fill:#FFFFFF;" points="0,0 17,0 17,23 0,23 0,0 	"/>
	<g>
		<path d="M1.11,17l3.37-4.81L1.25,7.67h3.01l1.65,2.57l1.74-2.57h2.9l-3.16,4.42L10.84,17H7.81l-1.9-2.89L4,17H1.11z"/>
	</g>
	<polygon style="fill-rule:evenodd;clip-rule:evenodd;fill:#FFFFFF;" points="58,0 75,0 75,23 58,23 58,0 	"/>
	<g>
		<path d="M59.11,17l3.37-4.81l-3.23-4.53h3.01l1.65,2.57l1.74-2.57h2.9l-3.16,4.42L68.84,17h-3.03l-1.9-2.89L62,17H59.11z"/>
	</g>
	<polygon style="fill-rule:evenodd;clip-rule:evenodd;fill:#FFFFFF;" points="116,0 133,0 133,23 116,23 116,0 	"/>
	<g>
		<path d="M117.11,17l3.37-4.81l-3.23-4.53h3.01l1.65,2.57l1.74-2.57h2.9l-3.16,4.42l3.45,4.91h-3.03l-1.9-2.89L120,17H117.11z"/>
	</g>
	<polygon style="fill-rule:evenodd;clip-rule:evenodd;fill:#FFFFFF;" points="174,0 191,0 191,23 174,23 174,0 	"/>
	<g>
		<path d="M175.11,17l3.37-4.81l-3.23-4.53h3.01l1.65,2.57l1.74-2.57h2.9l-3.16,4.42l3.45,4.91h-3.03l-1.9-2.89L178,17H175.11z"/>
	</g>
	<polygon style="fill-rule:evenodd;clip-rule:evenodd;fill:#FFFFFF;" points="232,0 249,0 249,23 232,23 232,0 	"/>
	<g>
		<path d="M233.11,17l3.37-4.81l-3.23-4.53h3.01l1.65,2.57l1.74-2.57h2.9l-3.16,4.42l3.45,4.91h-3.03l-1.9-2.89L236,17H233.11z"/>
	</g>
	<line style="fill:none;stroke:#000000;stroke-linecap:square;stroke-miterlimit:10;" x1="8" y1="19" x2="8" y2="112"/>
	<polygon style="fill-rule:evenodd;clip-rule:evenodd;" points="9,107 21,104 21,107 21,110 9,107 	"/>
	<polygon style="fill-rule:evenodd;clip-rule:evenodd;" points="64,107 52,110 52,107 52,104 64,107 	"/>
	<line style="fill:none;stroke:#000000;stroke-linecap:square;stroke-miterlimit:10;" x1="21" y1="107" x2="52" y2="107"/>
	<polygon style="fill-rule:evenodd;clip-rule:evenodd;fill:#FFFFFF;" points="29,100 45,100 45,116 29,116 29,100 	"/>
	<g>
		<path d="M34.83,112v-0.79c-0.39,0.62-0.97,0.93-1.74,0.93c-0.5,0-0.95-0.14-1.37-0.41s-0.74-0.66-0.97-1.15s-0.34-1.05-0.34-1.69
			c0-0.62,0.1-1.18,0.31-1.69s0.52-0.89,0.93-1.16s0.88-0.4,1.39-0.4c0.38,0,0.71,0.08,1,0.24s0.53,0.36,0.71,0.62v-3.08h1.05V112
			H34.83z M31.49,108.89c0,0.8,0.17,1.39,0.5,1.79s0.73,0.59,1.19,0.59c0.46,0,0.85-0.19,1.17-0.57s0.48-0.95,0.48-1.73
			c0-0.85-0.16-1.48-0.49-1.88s-0.73-0.6-1.21-0.6c-0.47,0-0.86,0.19-1.17,0.57S31.49,108.07,31.49,108.89z"/>
		<path d="M39.77,111.06l0.15,0.93c-0.3,0.06-0.56,0.09-0.8,0.09c-0.38,0-0.68-0.06-0.89-0.18s-0.36-0.28-0.45-0.48
			s-0.13-0.61-0.13-1.25v-3.58h-0.77v-0.82h0.77v-1.54l1.05-0.63v2.17h1.06v0.82h-1.06v3.64c0,0.3,0.02,0.49,0.06,0.58
			s0.1,0.15,0.18,0.21s0.2,0.08,0.36,0.08C39.42,111.1,39.58,111.08,39.77,111.06z"/>
	</g>
	<polygon style="fill-rule:evenodd;clip-rule:evenodd;" points="297,144 294,132 297,132 300,132 297,144 	"/>
	<line style="fill:none;stroke:#000000;stroke-linecap:square;stroke-miterlimit:10;" x1="297" y1="61" x2="297" y2="132"/>
	<polygon style="fill-rule:evenodd;clip-rule:evenodd;" points="154,138 151,126 154,126 157,126 154,138 	"/>
	<line style="fill:none;stroke:#000000;stroke-linecap:square;stroke-miterlimit:10;" x1="154" y1="35" x2="154" y2="43"/>
	<line style="fill:none;stroke:#000000;stroke-linecap:square;stroke-miterlimit:10;" x1="154" y1="53" x2="154" y2="61"/>
	<line style="fill:none;stroke:#000000;stroke-linecap:square;stroke-miterlimit:10;" x1="154" y1="71" x2="154" y2="79"/>
	<line style="fill:none;stroke:#000000;stroke-linecap:square;stroke-miterlimit:10;" x1="154" y1="89" x2="154" y2="97"/>
	<line style="fill:none;stroke:#000000;stroke-linecap:square;stroke-miterlimit:10;" x1="154" y1="107" x2="154" y2="115"/>
	<line style="fill:none;stroke:#000000;stroke-linecap:square;stroke-miterlimit:10;" x1="154" y1="125" x2="154" y2="125"/>
	<polygon style="fill-rule:evenodd;clip-rule:evenodd;" points="212,138 209,126 212,126 215,126 212,138 	"/>
	<line style="fill:none;stroke:#000000;stroke-linecap:square;stroke-miterlimit:10;" x1="212" y1="35" x2="212" y2="43"/>
	<line style="fill:none;stroke:#000000;stroke-linecap:square;stroke-miterlimit:10;" x1="212" y1="53" x2="212" y2="61"/>
	<line style="fill:none;stroke:#000000;stroke-linecap:square;stroke-miterlimit:10;" x1="212" y1="71" x2="212" y2="79"/>
	<line style="fill:none;stroke:#000000;stroke-linecap:square;stroke-miterlimit:10;" x1="212" y1="89" x2="212" y2="97"/>
	<line style="fill:none;stroke:#000000;stroke-linecap:square;stroke-miterlimit:10;" x1="212" y1="107" x2="212" y2="115"/>
	<line style="fill:none;stroke:#000000;stroke-linecap:square;stroke-miterlimit:10;" x1="212" y1="125" x2="212" y2="125"/>
	<polygon style="fill-rule:evenodd;clip-rule:evenodd;" points="270,138 267,126 270,126 273,126 270,138 	"/>
	<line style="fill:none;stroke:#000000;stroke-linecap:square;stroke-miterlimit:10;" x1="270" y1="35" x2="270" y2="43"/>
	<line style="fill:none;stroke:#000000;stroke-linecap:square;stroke-miterlimit:10;" x1="270" y1="53" x2="270" y2="61"/>
	<line style="fill:none;stroke:#000000;stroke-linecap:square;stroke-miterlimit:10;" x1="270" y1="71" x2="270" y2="79"/>
	<line style="fill:none;stroke:#000000;stroke-linecap:square;stroke-miterlimit:10;" x1="270" y1="89" x2="270" y2="97"/>
	<line style="fill:none;stroke:#000000;stroke-linecap:square;stroke-miterlimit:10;" x1="270" y1="107" x2="270" y2="115"/>
	<line style="fill:none;stroke:#000000;stroke-linecap:square;stroke-miterlimit:10;" x1="270" y1="125" x2="270" y2="125"/>
	<line style="fill:none;stroke:#000000;stroke-linecap:square;stroke-miterlimit:10;" x1="99" y1="87" x2="327" y2="87"/>
	<polygon style="fill-rule:evenodd;clip-rule:evenodd;fill:#FFFFFF;" points="89,76 102,76 102,99 89,99 89,76 	"/>
	<g>
		<path d="M90.72,88.2c0-0.82,0.2-1.61,0.61-2.38s0.98-1.35,1.72-1.76s1.57-0.61,2.48-0.61c1.41,0,2.57,0.46,3.47,1.38
			s1.35,2.08,1.35,3.48c0,1.41-0.46,2.58-1.37,3.51s-2.06,1.39-3.44,1.39c-0.86,0-1.67-0.19-2.45-0.58s-1.37-0.95-1.77-1.7
			C90.92,90.18,90.72,89.27,90.72,88.2z M93.25,88.33c0,0.93,0.22,1.63,0.66,2.13s0.98,0.74,1.63,0.74s1.19-0.25,1.62-0.74
			s0.65-1.21,0.65-2.14c0-0.91-0.22-1.62-0.65-2.11s-0.98-0.74-1.62-0.74s-1.19,0.25-1.63,0.74S93.25,87.41,93.25,88.33z"/>
	</g>
	<polygon style="fill-rule:evenodd;clip-rule:evenodd;fill:#FFFFFF;" points="147,76 160,76 160,99 147,99 147,76 	"/>
	<g>
		<path d="M148.73,88.2c0-0.82,0.2-1.61,0.61-2.38s0.98-1.35,1.72-1.76s1.57-0.61,2.48-0.61c1.41,0,2.57,0.46,3.47,1.38
			s1.35,2.08,1.35,3.48c0,1.41-0.46,2.58-1.37,3.51s-2.06,1.39-3.44,1.39c-0.86,0-1.67-0.19-2.45-0.58s-1.37-0.95-1.77-1.7
			C148.93,90.18,148.73,89.27,148.73,88.2z M151.26,88.33c0,0.93,0.22,1.63,0.66,2.13s0.98,0.74,1.63,0.74s1.19-0.25,1.62-0.74
			s0.65-1.21,0.65-2.14c0-0.91-0.22-1.62-0.65-2.11s-0.98-0.74-1.62-0.74s-1.19,0.25-1.63,0.74S151.26,87.41,151.26,88.33z"/>
	</g>
	<polygon style="fill-rule:evenodd;clip-rule:evenodd;fill:#FFFFFF;" points="205,76 218,76 218,99 205,99 205,76 	"/>
	<g>
		<path d="M206.73,88.2c0-0.82,0.2-1.61,0.61-2.38s0.98-1.35,1.72-1.76s1.57-0.61,2.48-0.61c1.41,0,2.57,0.46,3.47,1.38
			s1.35,2.08,1.35,3.48c0,1.41-0.46,2.58-1.37,3.51s-2.06,1.39-3.44,1.39c-0.86,0-1.67-0.19-2.45-0.58s-1.37-0.95-1.77-1.7
			C206.93,90.18,206.73,89.27,206.73,88.2z M209.26,88.33c0,0.93,0.22,1.63,0.66,2.13s0.98,0.74,1.63,0.74s1.19-0.25,1.62-0.74
			s0.65-1.21,0.65-2.14c0-0.91-0.22-1.62-0.65-2.11s-0.98-0.74-1.62-0.74s-1.19,0.25-1.63,0.74S209.26,87.41,209.26,88.33z"/>
	</g>
	<polygon style="fill-rule:evenodd;clip-rule:evenodd;fill:#FFFFFF;" points="263,76 276,76 276,99 263,99 263,76 	"/>
	<g>
		<path d="M264.72,88.2c0-0.82,0.2-1.61,0.61-2.38s0.98-1.35,1.72-1.76s1.57-0.61,2.48-0.61c1.41,0,2.57,0.46,3.47,1.38
			s1.35,2.08,1.35,3.48c0,1.41-0.46,2.58-1.37,3.51s-2.06,1.39-3.44,1.39c-0.86,0-1.67-0.19-2.45-0.58s-1.37-0.95-1.77-1.7
			C264.92,90.18,264.72,89.27,264.72,88.2z M267.25,88.33c0,0.93,0.22,1.63,0.66,2.13s0.98,0.74,1.63,0.74s1.18-0.25,1.62-0.74
			s0.66-1.21,0.66-2.14c0-0.91-0.22-1.62-0.66-2.11s-0.98-0.74-1.62-0.74s-1.19,0.25-1.63,0.74S267.25,87.41,267.25,88.33z"/>
	</g>
	<polygon style="fill-rule:evenodd;clip-rule:evenodd;fill:#FFFFFF;" points="321,76 334,76 334,99 321,99 321,76 	"/>
	<g>
		<path d="M322.71,88.2c0-0.82,0.2-1.61,0.61-2.38s0.98-1.35,1.72-1.76s1.57-0.61,2.48-0.61c1.41,0,2.57,0.46,3.47,1.38
			s1.35,2.08,1.35,3.48c0,1.41-0.46,2.58-1.37,3.51s-2.06,1.39-3.44,1.39c-0.86,0-1.67-0.19-2.45-0.58s-1.37-0.95-1.77-1.7
			C322.92,90.18,322.71,89.27,322.71,88.2z M325.24,88.33c0,0.93,0.22,1.63,0.66,2.13s0.98,0.74,1.63,0.74s1.18-0.25,1.62-0.74
			s0.66-1.21,0.66-2.14c0-0.91-0.22-1.62-0.66-2.11s-0.98-0.74-1.62-0.74s-1.19,0.25-1.63,0.74S325.24,87.41,325.24,88.33z"/>
	</g>
	<polygon style="fill-rule:evenodd;clip-rule:evenodd;fill:#FFFFFF;" points="32,24 44,24 44,47 32,47 32,24 	"/>
	<g>
		<path d="M33.73,36.19c0-0.82,0.2-1.61,0.61-2.38s0.98-1.35,1.72-1.76s1.57-0.61,2.48-0.61c1.41,0,2.57,0.46,3.47,1.38
			s1.35,2.08,1.35,3.48c0,1.41-0.46,2.58-1.37,3.51s-2.06,1.39-3.44,1.39c-0.86,0-1.67-0.19-2.45-0.58s-1.37-0.95-1.77-1.7
			S33.73,37.27,33.73,36.19z M36.26,36.33c0,0.93,0.22,1.63,0.66,2.13s0.98,0.74,1.63,0.74s1.19-0.25,1.62-0.74s0.65-1.21,0.65-2.14
			c0-0.91-0.22-1.62-0.65-2.11s-0.98-0.74-1.62-0.74s-1.19,0.25-1.63,0.74S36.26,35.4,36.26,36.33z"/>
	</g>
	<polygon style="fill-rule:evenodd;clip-rule:evenodd;fill:#FFFFFF;" points="90,24 102,24 102,47 90,47 90,24 	"/>
	<g>
		<path d="M91.72,36.19c0-0.82,0.2-1.61,0.61-2.38s0.98-1.35,1.72-1.76s1.57-0.61,2.48-0.61c1.41,0,2.57,0.46,3.47,1.38
			s1.35,2.08,1.35,3.48c0,1.41-0.46,2.58-1.37,3.51s-2.06,1.39-3.44,1.39c-0.86,0-1.67-0.19-2.45-0.58s-1.37-0.95-1.77-1.7
			S91.72,37.27,91.72,36.19z M94.25,36.33c0,0.93,0.22,1.63,0.66,2.13s0.98,0.74,1.63,0.74s1.19-0.25,1.62-0.74s0.65-1.21,0.65-2.14
			c0-0.91-0.22-1.62-0.65-2.11s-0.98-0.74-1.62-0.74s-1.19,0.25-1.63,0.74S94.25,35.4,94.25,36.33z"/>
	</g>
	<polygon style="fill-rule:evenodd;clip-rule:evenodd;fill:#FFFFFF;" points="148,24 160,24 160,47 148,47 148,24 	"/>
	<g>
		<path d="M149.72,36.19c0-0.82,0.2-1.61,0.61-2.38s0.98-1.35,1.72-1.76s1.57-0.61,2.48-0.61c1.41,0,2.57,0.46,3.47,1.38
			s1.35,2.08,1.35,3.48c0,1.41-0.46,2.58-1.37,3.51s-2.06,1.39-3.44,1.39c-0.86,0-1.67-0.19-2.45-0.58s-1.37-0.95-1.77-1.7
			S149.72,37.27,149.72,36.19z M152.25,36.33c0,0.93,0.22,1.63,0.66,2.13s0.98,0.74,1.63,0.74s1.19-0.25,1.62-0.74
			s0.65-1.21,0.65-2.14c0-0.91-0.22-1.62-0.65-2.11s-0.98-0.74-1.62-0.74s-1.19,0.25-1.63,0.74S152.25,35.4,152.25,36.33z"/>
	</g>
	<polygon style="fill-rule:evenodd;clip-rule:evenodd;fill:#FFFFFF;" points="206,24 219,24 219,47 206,47 206,24 	"/>
	<g>
		<path d="M207.72,36.19c0-0.82,0.2-1.61,0.61-2.38s0.98-1.35,1.72-1.76s1.57-0.61,2.48-0.61c1.41,0,2.57,0.46,3.47,1.38
			s1.35,2.08,1.35,3.48c0,1.41-0.46,2.58-1.37,3.51s-2.06,1.39-3.44,1.39c-0.86,0-1.67-0.19-2.45-0.58s-1.37-0.95-1.77-1.7
			S207.72,37.27,207.72,36.19z M210.25,36.33c0,0.93,0.22,1.63,0.66,2.13s0.98,0.74,1.63,0.74s1.19-0.25,1.62-0.74
			s0.65-1.21,0.65-2.14c0-0.91-0.22-1.62-0.65-2.11s-0.98-0.74-1.62-0.74s-1.19,0.25-1.63,0.74S210.25,35.4,210.25,36.33z"/>
	</g>
	<polygon style="fill-rule:evenodd;clip-rule:evenodd;fill:#FFFFFF;" points="264,24 277,24 277,47 264,47 264,24 	"/>
	<g>
		<path d="M265.72,36.19c0-0.82,0.2-1.61,0.61-2.38s0.98-1.35,1.72-1.76s1.57-0.61,2.48-0.61c1.41,0,2.57,0.46,3.47,1.38
			s1.35,2.08,1.35,3.48c0,1.41-0.46,2.58-1.37,3.51s-2.06,1.39-3.44,1.39c-0.86,0-1.67-0.19-2.45-0.58s-1.37-0.95-1.77-1.7
			S265.72,37.27,265.72,36.19z M268.25,36.33c0,0.93,0.22,1.63,0.66,2.13s0.98,0.74,1.63,0.74s1.18-0.25,1.62-0.74
			s0.66-1.21,0.66-2.14c0-0.91-0.22-1.62-0.66-2.11s-0.98-0.74-1.62-0.74s-1.19,0.25-1.63,0.74S268.25,35.4,268.25,36.33z"/>
	</g>
	<line style="fill:none;stroke:#000000;stroke-linecap:square;stroke-miterlimit:10;" x1="129" y1="111" x2="357" y2="111"/>
	<polygon style="fill-rule:evenodd;clip-rule:evenodd;fill:#FFFFFF;" points="116,101 133,101 133,124 116,124 116,101 	"/>
	<g>
		<path d="M117.11,118l3.37-4.81l-3.23-4.53h3.01l1.65,2.57l1.74-2.57h2.9l-3.16,4.42l3.45,4.91h-3.03l-1.9-2.89L120,118H117.11z"/>
	</g>
	<polygon style="fill-rule:evenodd;clip-rule:evenodd;fill:#FFFFFF;" points="174,101 191,101 191,124 174,124 174,101 	"/>
	<g>
		<path d="M175.11,118l3.37-4.81l-3.23-4.53h3.01l1.65,2.57l1.74-2.57h2.9l-3.16,4.42l3.45,4.91h-3.03l-1.9-2.89L178,118H175.11z"/>
	</g>
	<polygon style="fill-rule:evenodd;clip-rule:evenodd;fill:#FFFFFF;" points="232,101 249,101 249,124 232,124 232,101 	"/>
	<g>
		<path d="M233.11,118l3.37-4.81l-3.23-4.53h3.01l1.65,2.57l1.74-2.57h2.9l-3.16,4.42l3.45,4.91h-3.03l-1.9-2.89L236,118H233.11z"/>
	</g>
	<polygon style="fill-rule:evenodd;clip-rule:evenodd;fill:#FFFFFF;" points="290,101 307,101 307,124 290,124 290,101 	"/>
	<g>
		<path d="M291.11,118l3.37-4.81l-3.23-4.53h3.01l1.65,2.57l1.74-2.57h2.9l-3.16,4.42l3.45,4.91h-3.03l-1.9-2.89L294,118H291.11z"/>
	</g>
	<polygon style="fill-rule:evenodd;clip-rule:evenodd;fill:#FFFFFF;" points="348,101 365,101 365,124 348,124 348,101 	"/>
	<g>
		<path d="M349.11,118l3.37-4.81l-3.23-4.53h3.01l1.65,2.57l1.74-2.57h2.9l-3.16,4.42l3.45,4.91h-3.03l-1.9-2.89L352,118H349.11z"/>
	</g>
	<g>
		<path d="M315.13,20l3.41-4.85l-3.16-4.48h1.98l1.43,2.19c0.27,0.42,0.49,0.76,0.65,1.05c0.26-0.39,0.5-0.73,0.71-1.03l1.57-2.21
			h1.89l-3.23,4.39l3.47,4.94h-1.94l-1.92-2.9l-0.51-0.78L317.05,20H315.13z"/>
	</g>
	<g>
		<path d="M357.13,20l3.41-4.85l-3.16-4.48h1.98l1.43,2.19c0.27,0.42,0.49,0.76,0.65,1.05c0.26-0.39,0.5-0.73,0.71-1.03l1.57-2.21
			h1.89l-3.23,4.39l3.47,4.94h-1.94l-1.92-2.9l-0.51-0.78L359.05,20H357.13z"/>
	</g>
	<line style="fill:none;stroke:#000000;stroke-linecap:square;stroke-miterlimit:10;" x1="325" y1="15" x2="359" y2="15"/>
	<g>
		<path d="M395.79,17V8.41h1.05v3.08c0.49-0.57,1.11-0.86,1.86-0.86c0.46,0,0.86,0.09,1.2,0.27s0.58,0.43,0.73,0.75
			s0.22,0.79,0.22,1.39V17h-1.05v-3.94c0-0.53-0.11-0.91-0.34-1.15s-0.55-0.36-0.97-0.36c-0.31,0-0.61,0.08-0.88,0.24
			s-0.47,0.38-0.59,0.66s-0.18,0.66-0.18,1.15V17H395.79z"/>
		<path d="M402.47,9.62V8.41h1.05v1.21H402.47z M402.47,17v-6.22h1.05V17H402.47z"/>
		<path d="M404.71,15.14l1.04-0.16c0.06,0.42,0.22,0.74,0.49,0.96s0.64,0.33,1.12,0.33c0.48,0,0.84-0.1,1.08-0.3
			s0.35-0.43,0.35-0.69c0-0.24-0.1-0.43-0.31-0.56c-0.14-0.09-0.5-0.21-1.08-0.36c-0.77-0.2-1.31-0.36-1.61-0.51
			s-0.53-0.34-0.68-0.59s-0.23-0.53-0.23-0.83c0-0.28,0.06-0.53,0.19-0.77s0.3-0.43,0.52-0.59c0.16-0.12,0.39-0.22,0.67-0.31
			s0.59-0.13,0.91-0.13c0.49,0,0.92,0.07,1.29,0.21s0.64,0.33,0.82,0.57s0.3,0.56,0.36,0.96l-1.03,0.14
			c-0.05-0.32-0.18-0.57-0.41-0.75s-0.54-0.27-0.95-0.27c-0.48,0-0.83,0.08-1.04,0.24s-0.31,0.35-0.31,0.56
			c0,0.14,0.04,0.26,0.13,0.37c0.09,0.11,0.22,0.21,0.4,0.28c0.11,0.04,0.42,0.13,0.93,0.27c0.75,0.2,1.27,0.36,1.56,0.49
			s0.53,0.31,0.69,0.55s0.25,0.54,0.25,0.9c0,0.35-0.1,0.68-0.31,0.99s-0.5,0.55-0.89,0.72s-0.82,0.25-1.31,0.25
			c-0.81,0-1.42-0.17-1.85-0.5S404.83,15.8,404.71,15.14z"/>
		<path d="M413.43,16.06l0.15,0.93c-0.3,0.06-0.56,0.09-0.8,0.09c-0.38,0-0.68-0.06-0.89-0.18s-0.36-0.28-0.45-0.48
			s-0.13-0.61-0.13-1.25V11.6h-0.77v-0.82h0.77V9.24l1.05-0.63v2.17h1.06v0.82h-1.06v3.64c0,0.3,0.02,0.49,0.06,0.58
			s0.1,0.15,0.18,0.21s0.2,0.08,0.36,0.08C413.09,16.1,413.24,16.08,413.43,16.06z"/>
		<path d="M414.07,13.89c0-1.15,0.32-2.01,0.96-2.56c0.54-0.46,1.19-0.69,1.96-0.69c0.86,0,1.55,0.28,2.1,0.84s0.81,1.33,0.81,2.32
			c0,0.8-0.12,1.43-0.36,1.89s-0.59,0.82-1.05,1.07s-0.96,0.38-1.5,0.38c-0.87,0-1.58-0.28-2.11-0.84S414.07,14.94,414.07,13.89z
			 M415.16,13.89c0,0.8,0.17,1.39,0.52,1.79s0.79,0.59,1.31,0.59c0.52,0,0.96-0.2,1.31-0.6s0.52-1.01,0.52-1.82
			c0-0.77-0.17-1.35-0.52-1.75s-0.78-0.59-1.3-0.59c-0.53,0-0.96,0.2-1.31,0.59S415.16,13.09,415.16,13.89z"/>
		<path d="M421.13,17v-6.22h0.95v0.94c0.24-0.44,0.47-0.73,0.67-0.87s0.43-0.21,0.68-0.21c0.36,0,0.72,0.11,1.08,0.34l-0.36,0.98
			c-0.26-0.15-0.52-0.23-0.77-0.23c-0.23,0-0.44,0.07-0.62,0.21s-0.31,0.33-0.39,0.58c-0.12,0.38-0.18,0.79-0.18,1.23V17H421.13z"/>
		<path d="M425.09,19.4l-0.12-0.99c0.23,0.06,0.43,0.09,0.6,0.09c0.23,0,0.42-0.04,0.56-0.12s0.26-0.19,0.35-0.33
			c0.07-0.11,0.17-0.37,0.32-0.79c0.02-0.06,0.05-0.14,0.09-0.26l-2.36-6.23h1.14l1.29,3.6c0.17,0.46,0.32,0.94,0.45,1.44
			c0.12-0.48,0.27-0.96,0.43-1.42l1.33-3.63h1.05l-2.37,6.33c-0.25,0.68-0.45,1.15-0.59,1.41c-0.19,0.35-0.4,0.6-0.64,0.76
			s-0.53,0.24-0.87,0.24C425.56,19.53,425.34,19.48,425.09,19.4z"/>
		<path d="M438.15,17h-1.05v-6.72c-0.25,0.24-0.59,0.48-1,0.73s-0.78,0.42-1.11,0.54v-1.02c0.59-0.28,1.11-0.61,1.55-1.01
			s0.75-0.78,0.94-1.15h0.68V17z"/>
	</g>
	<line style="fill:none;stroke:#000000;stroke-linecap:square;stroke-miterlimit:10;" x1="323" y1="38" x2="356" y2="38"/>
	<g>
		<path d="M314.6,38.33c0-1.73,0.48-3.01,1.44-3.84c0.8-0.69,1.78-1.04,2.94-1.04c1.28,0,2.33,0.42,3.15,1.26s1.22,2,1.22,3.48
			c0,1.2-0.18,2.15-0.54,2.83c-0.36,0.69-0.89,1.22-1.57,1.6s-1.44,0.57-2.25,0.57c-1.31,0-2.36-0.42-3.17-1.26
			C315,41.12,314.6,39.91,314.6,38.33z M316.22,38.33c0,1.2,0.26,2.09,0.78,2.69s1.18,0.89,1.97,0.89c0.79,0,1.44-0.3,1.96-0.9
			s0.78-1.51,0.78-2.73c0-1.15-0.26-2.03-0.79-2.62s-1.18-0.89-1.96-0.89c-0.79,0-1.45,0.3-1.97,0.89S316.22,37.14,316.22,38.33z"/>
	</g>
	<g>
		<path d="M357.6,38.33c0-1.73,0.48-3.01,1.44-3.84c0.8-0.69,1.78-1.04,2.94-1.04c1.28,0,2.33,0.42,3.15,1.26s1.22,2,1.22,3.48
			c0,1.2-0.18,2.15-0.54,2.83c-0.36,0.69-0.89,1.22-1.57,1.6s-1.44,0.57-2.25,0.57c-1.31,0-2.36-0.42-3.17-1.26
			C358,41.12,357.6,39.91,357.6,38.33z M359.22,38.33c0,1.2,0.26,2.09,0.78,2.69s1.18,0.89,1.97,0.89c0.79,0,1.44-0.3,1.96-0.9
			s0.78-1.51,0.78-2.73c0-1.15-0.26-2.03-0.79-2.62s-1.18-0.89-1.96-0.89c-0.79,0-1.45,0.3-1.97,0.89S359.22,37.14,359.22,38.33z"/>
	</g>
	<g>
		<path d="M393.8,42v-8.59h1.05v3.08c0.49-0.57,1.11-0.86,1.86-0.86c0.46,0,0.86,0.09,1.2,0.27s0.58,0.43,0.73,0.75
			s0.22,0.79,0.22,1.39V42h-1.05v-3.94c0-0.53-0.11-0.91-0.34-1.15s-0.55-0.36-0.97-0.36c-0.31,0-0.61,0.08-0.88,0.24
			s-0.47,0.38-0.59,0.66s-0.18,0.66-0.18,1.15V42H393.8z"/>
		<path d="M400.48,34.62v-1.21h1.05v1.21H400.48z M400.48,42v-6.22h1.05V42H400.48z"/>
		<path d="M402.72,40.14l1.04-0.16c0.06,0.42,0.22,0.74,0.49,0.96s0.64,0.33,1.12,0.33c0.48,0,0.84-0.1,1.08-0.3
			s0.35-0.43,0.35-0.69c0-0.24-0.1-0.43-0.31-0.56c-0.14-0.09-0.5-0.21-1.08-0.36c-0.77-0.2-1.31-0.36-1.61-0.51
			s-0.53-0.34-0.68-0.59s-0.23-0.53-0.23-0.83c0-0.28,0.06-0.53,0.19-0.77s0.3-0.43,0.52-0.59c0.16-0.12,0.39-0.22,0.67-0.31
			s0.59-0.13,0.91-0.13c0.49,0,0.92,0.07,1.29,0.21s0.64,0.33,0.82,0.57s0.3,0.56,0.36,0.96l-1.03,0.14
			c-0.05-0.32-0.18-0.57-0.41-0.75s-0.54-0.27-0.95-0.27c-0.48,0-0.83,0.08-1.04,0.24s-0.31,0.35-0.31,0.56
			c0,0.14,0.04,0.26,0.13,0.37c0.09,0.11,0.22,0.21,0.4,0.28c0.11,0.04,0.42,0.13,0.93,0.27c0.75,0.2,1.27,0.36,1.56,0.49
			s0.53,0.31,0.69,0.55s0.25,0.54,0.25,0.9c0,0.35-0.1,0.68-0.31,0.99s-0.5,0.55-0.89,0.72s-0.82,0.25-1.31,0.25
			c-0.81,0-1.42-0.17-1.85-0.5S402.83,40.8,402.72,40.14z"/>
		<path d="M411.44,41.06l0.15,0.93c-0.3,0.06-0.56,0.09-0.8,0.09c-0.38,0-0.68-0.06-0.89-0.18s-0.36-0.28-0.45-0.48
			s-0.13-0.61-0.13-1.25V36.6h-0.77v-0.82h0.77v-1.54l1.05-0.63v2.17h1.06v0.82h-1.06v3.64c0,0.3,0.02,0.49,0.06,0.58
			s0.1,0.15,0.18,0.21s0.2,0.08,0.36,0.08C411.1,41.1,411.25,41.08,411.44,41.06z"/>
		<path d="M412.08,38.89c0-1.15,0.32-2.01,0.96-2.56c0.54-0.46,1.19-0.69,1.96-0.69c0.86,0,1.55,0.28,2.1,0.84s0.81,1.33,0.81,2.32
			c0,0.8-0.12,1.43-0.36,1.89s-0.59,0.82-1.05,1.07s-0.96,0.38-1.5,0.38c-0.87,0-1.58-0.28-2.11-0.84S412.08,39.94,412.08,38.89z
			 M413.16,38.89c0,0.8,0.17,1.39,0.52,1.79s0.79,0.59,1.31,0.59c0.52,0,0.96-0.2,1.31-0.6s0.52-1.01,0.52-1.82
			c0-0.77-0.17-1.35-0.52-1.75s-0.78-0.59-1.3-0.59c-0.53,0-0.96,0.2-1.31,0.59S413.16,38.09,413.16,38.89z"/>
		<path d="M419.13,42v-6.22h0.95v0.94c0.24-0.44,0.47-0.73,0.67-0.87s0.43-0.21,0.68-0.21c0.36,0,0.72,0.11,1.08,0.34l-0.36,0.98
			c-0.26-0.15-0.52-0.23-0.77-0.23c-0.23,0-0.44,0.07-0.62,0.21s-0.31,0.33-0.39,0.58c-0.12,0.38-0.18,0.79-0.18,1.23V42H419.13z"/>
		<path d="M423.1,44.4l-0.12-0.99c0.23,0.06,0.43,0.09,0.6,0.09c0.23,0,0.42-0.04,0.56-0.12s0.26-0.19,0.35-0.33
			c0.07-0.11,0.17-0.37,0.32-0.79c0.02-0.06,0.05-0.14,0.09-0.26l-2.36-6.23h1.14l1.29,3.6c0.17,0.46,0.32,0.94,0.45,1.44
			c0.12-0.48,0.27-0.96,0.43-1.42l1.33-3.63h1.05l-2.37,6.33c-0.25,0.68-0.45,1.15-0.59,1.41c-0.19,0.35-0.4,0.6-0.64,0.76
			s-0.53,0.24-0.87,0.24C423.57,44.53,423.35,44.48,423.1,44.4z"/>
		<path d="M437.73,40.99V42h-5.68c-0.01-0.25,0.03-0.5,0.12-0.73c0.14-0.39,0.38-0.77,0.69-1.14s0.78-0.81,1.38-1.3
			c0.93-0.77,1.56-1.37,1.89-1.82s0.49-0.87,0.49-1.27c0-0.42-0.15-0.77-0.45-1.06s-0.69-0.43-1.17-0.43
			c-0.51,0-0.91,0.15-1.22,0.46s-0.46,0.73-0.46,1.27l-1.08-0.11c0.07-0.81,0.35-1.42,0.84-1.85s1.13-0.64,1.95-0.64
			c0.82,0,1.48,0.23,1.96,0.69s0.72,1.02,0.72,1.7c0,0.34-0.07,0.68-0.21,1.01s-0.37,0.68-0.7,1.05s-0.87,0.87-1.63,1.51
			c-0.63,0.53-1.04,0.89-1.22,1.08s-0.33,0.38-0.45,0.57H437.73z"/>
	</g>
	<polygon style="fill-rule:evenodd;clip-rule:evenodd;" points="381,156 369,159 369,156 369,153 381,156 	"/>
	<line style="fill:none;stroke:#000000;stroke-linecap:square;stroke-miterlimit:10;" x1="3" y1="156" x2="369" y2="156"/>
	<g>
		<path d="M340.09,170.05l0.15,0.93c-0.3,0.06-0.56,0.09-0.8,0.09c-0.38,0-0.68-0.06-0.89-0.18s-0.36-0.28-0.45-0.48
			s-0.13-0.61-0.13-1.25v-3.58h-0.77v-0.82h0.77v-1.54l1.05-0.63v2.17h1.06v0.82h-1.06v3.64c0,0.3,0.02,0.49,0.06,0.58
			s0.1,0.15,0.18,0.21s0.2,0.08,0.36,0.08C339.75,170.09,339.9,170.08,340.09,170.05z"/>
		<path d="M341.13,163.62v-1.21h1.05v1.21H341.13z M341.13,170.99v-6.22h1.05v6.22H341.13z"/>
		<path d="M343.79,170.99v-6.22h0.94v0.87c0.2-0.3,0.46-0.55,0.78-0.74s0.69-0.28,1.11-0.28c0.46,0,0.84,0.1,1.13,0.29
			s0.5,0.46,0.62,0.8c0.49-0.73,1.13-1.09,1.92-1.09c0.62,0,1.09,0.17,1.42,0.51s0.5,0.87,0.5,1.58v4.27h-1.05v-3.92
			c0-0.42-0.03-0.73-0.1-0.91s-0.19-0.33-0.37-0.45s-0.39-0.17-0.63-0.17c-0.44,0-0.8,0.15-1.09,0.44s-0.43,0.76-0.43,1.4v3.62
			h-1.05v-4.04c0-0.47-0.09-0.82-0.26-1.05s-0.45-0.35-0.84-0.35c-0.3,0-0.57,0.08-0.82,0.23s-0.43,0.38-0.55,0.69
			s-0.17,0.73-0.17,1.3v3.23H343.79z"/>
		<path d="M358.05,168.99l1.09,0.13c-0.17,0.64-0.49,1.13-0.96,1.48s-1.06,0.53-1.78,0.53c-0.91,0-1.63-0.28-2.17-0.84
			s-0.8-1.35-0.8-2.36c0-1.05,0.27-1.86,0.81-2.44s1.24-0.87,2.1-0.87c0.83,0,1.51,0.28,2.04,0.85s0.79,1.36,0.79,2.39
			c0,0.06,0,0.16-0.01,0.28h-4.64c0.04,0.68,0.23,1.21,0.58,1.57s0.78,0.54,1.3,0.54c0.39,0,0.72-0.1,0.99-0.3
			S357.89,169.43,358.05,168.99z M354.58,167.28h3.47c-0.05-0.52-0.18-0.92-0.4-1.18c-0.34-0.41-0.77-0.61-1.31-0.61
			c-0.48,0-0.89,0.16-1.22,0.49S354.62,166.74,354.58,167.28z"/>
	</g>
</g>
</svg>
