<?xml version="1.0" encoding="iso-8859-1"?>
<!-- Generator: Adobe Illustrator 16.0.3, SVG Export Plug-In . SVG Version: 6.00 Build 0)  -->
<!DOCTYPE svg PUBLIC "-//W3C//DTD SVG 1.1//EN" "http://www.w3.org/Graphics/SVG/1.1/DTD/svg11.dtd">
<svg version="1.1" id="Layer_1" xmlns="http://www.w3.org/2000/svg" xmlns:xlink="http://www.w3.org/1999/xlink" x="0px" y="0px"
	 width="468px" height="207.38px" viewBox="0 0 468 207.38" style="enable-background:new 0 0 468 207.38;" xml:space="preserve">
<g>
	<g>
		<defs>
			<rect id="SVGID_1_" width="468" height="204"/>
		</defs>
		<clipPath id="SVGID_2_">
			<use xlink:href="#SVGID_1_"  style="overflow:visible;"/>
		</clipPath>
		<g style="clip-path:url(#SVGID_2_);">
		</g>
	</g>
	<path style="fill-rule:evenodd;clip-rule:evenodd;fill:#FFFFFF;" d="M206.52,23.65c-5.87,0-10.63,4.72-10.63,10.55
		c0,5.83,4.76,10.55,10.63,10.55c5.87,0,10.63-4.72,10.63-10.55C217.15,28.37,212.39,23.65,206.52,23.65L206.52,23.65z"/>
	<path style="fill:none;stroke:#000000;stroke-width:0.75;stroke-linecap:round;stroke-linejoin:round;stroke-miterlimit:8;" d="
		M206.52,23.65c-5.87,0-10.63,4.72-10.63,10.55c0,5.83,4.76,10.55,10.63,10.55c5.87,0,10.63-4.72,10.63-10.55
		C217.15,28.37,212.39,23.65,206.52,23.65L206.52,23.65z"/>
	<path style="fill-rule:evenodd;clip-rule:evenodd;fill:#FFFFFF;" d="M206.52,85.45c-5.87,0-10.63,4.72-10.63,10.55
		c0,5.83,4.76,10.55,10.63,10.55c5.87,0,10.63-4.72,10.63-10.55C217.15,90.17,212.39,85.45,206.52,85.45L206.52,85.45z"/>
	<path style="fill:none;stroke:#000000;stroke-width:0.75;stroke-linecap:round;stroke-linejoin:round;stroke-miterlimit:8;" d="
		M206.52,85.45c-5.87,0-10.63,4.72-10.63,10.55c0,5.83,4.76,10.55,10.63,10.55c5.87,0,10.63-4.72,10.63-10.55
		C217.15,90.17,212.39,85.45,206.52,85.45L206.52,85.45z"/>
	<path style="fill-rule:evenodd;clip-rule:evenodd;fill:#FFFFFF;" d="M206.52,141.65c-5.87,0-10.63,4.72-10.63,10.55
		c0,5.83,4.76,10.55,10.63,10.55c5.87,0,10.63-4.72,10.63-10.55C217.15,146.37,212.39,141.65,206.52,141.65L206.52,141.65z"/>
	<path style="fill:none;stroke:#000000;stroke-width:0.75;stroke-linecap:round;stroke-linejoin:round;stroke-miterlimit:8;" d="
		M206.52,141.65c-5.87,0-10.63,4.72-10.63,10.55c0,5.83,4.76,10.55,10.63,10.55c5.87,0,10.63-4.72,10.63-10.55
		C217.15,146.37,212.39,141.65,206.52,141.65L206.52,141.65z"/>
	
		<line style="fill:none;stroke:#000000;stroke-width:0.75;stroke-linecap:round;stroke-linejoin:round;stroke-miterlimit:8;stroke-dasharray:18.75,25;" x1="217.15" y1="31.65" x2="217.2" y2="153.2"/>
	
		<line style="fill:none;stroke:#000000;stroke-width:0.75;stroke-linecap:round;stroke-linejoin:round;stroke-miterlimit:8;stroke-dasharray:18.75,25;" x1="196.5" y1="31.65" x2="196.55" y2="153.2"/>
	
		<line style="fill:none;stroke:#000000;stroke-linecap:round;stroke-linejoin:round;stroke-miterlimit:8;" x1="225.85" y1="36.65" x2="225.8" y2="87.55"/>
	<polygon style="fill-rule:evenodd;clip-rule:evenodd;" points="228.8,86.55 225.8,92.55 222.8,86.55 228.8,86.55 	"/>
	<polygon style="fill-rule:evenodd;clip-rule:evenodd;" points="222.84,37.65 225.85,31.65 228.84,37.65 222.84,37.65 	"/>
	
		<line style="fill:none;stroke:#000000;stroke-linecap:round;stroke-linejoin:round;stroke-miterlimit:8;" x1="201.5" y1="170.21" x2="212.75" y2="170.24"/>
	<polygon style="fill-rule:evenodd;clip-rule:evenodd;" points="211.76,167.24 217.75,170.25 211.74,173.24 211.76,167.24 	"/>
	<polygon style="fill-rule:evenodd;clip-rule:evenodd;" points="202.49,173.21 196.5,170.2 202.51,167.21 202.49,173.21 	"/>
	
		<line style="fill:none;stroke:#000000;stroke-linecap:round;stroke-linejoin:round;stroke-miterlimit:8;" x1="163.6" y1="44.75" x2="192.79" y2="81.53"/>
	<polygon style="fill-rule:evenodd;clip-rule:evenodd;" points="194.52,78.89 195.9,85.45 189.82,82.61 194.52,78.89 	"/>
	<polygon style="fill-rule:evenodd;clip-rule:evenodd;fill:#CC3300;" points="163.6,33.66 161.07,32.26 162.87,29.98 159.99,29.66 
		160.78,26.87 157.99,27.67 157.68,24.78 155.39,26.59 154,24.05 152.61,26.59 150.32,24.78 150.01,27.67 147.22,26.87 
		148.01,29.66 145.13,29.98 146.93,32.26 144.4,33.66 146.93,35.09 145.13,37.34 148.01,37.69 147.22,40.48 150.01,39.65 
		150.32,42.54 152.61,40.73 154,43.3 155.39,40.73 157.68,42.54 157.99,39.65 160.78,40.48 159.99,37.69 162.87,37.34 161.07,35.09 
		163.6,33.66 163.6,33.66 	"/>
	
		<polygon style="fill:none;stroke:#000000;stroke-width:0.12;stroke-linecap:round;stroke-linejoin:round;stroke-miterlimit:8;" points="
		163.6,33.66 161.07,32.26 162.87,29.98 159.99,29.66 160.78,26.87 157.99,27.67 157.68,24.78 155.39,26.59 154,24.05 152.61,26.59 
		150.32,24.78 150.01,27.67 147.22,26.87 148.01,29.66 145.13,29.98 146.93,32.26 144.4,33.66 146.93,35.09 145.13,37.34 
		148.01,37.69 147.22,40.48 150.01,39.65 150.32,42.54 152.61,40.73 154,43.3 155.39,40.73 157.68,42.54 157.99,39.65 160.78,40.48 
		159.99,37.69 162.87,37.34 161.07,35.09 163.6,33.66 163.6,33.66 	"/>
	<path style="fill-rule:evenodd;clip-rule:evenodd;fill:#FFFF99;" d="M153.02,26.95c-3.16,0-5.73,2.56-5.73,5.73
		s2.56,5.73,5.73,5.73s5.73-2.56,5.73-5.73S156.19,26.95,153.02,26.95L153.02,26.95z"/>
	<path style="fill:none;stroke:#000000;stroke-width:0.12;stroke-linecap:round;stroke-linejoin:round;stroke-miterlimit:8;" d="
		M153.02,26.95c-3.16,0-5.73,2.56-5.73,5.73s2.56,5.73,5.73,5.73s5.73-2.56,5.73-5.73S156.19,26.95,153.02,26.95L153.02,26.95z"/>
	<path style="fill:none;stroke:#000000;stroke-width:0.12;stroke-linecap:round;stroke-linejoin:round;stroke-miterlimit:8;" d="
		M153.02,26.95c-3.16,0-5.73,2.56-5.73,5.73s2.56,5.73,5.73,5.73s5.73-2.56,5.73-5.73S156.19,26.95,153.02,26.95L153.02,26.95z"/>
	<polygon style="fill-rule:evenodd;clip-rule:evenodd;fill:#FF0000;" points="163.6,33.66 161.07,32.26 162.87,29.98 159.99,29.66 
		160.78,26.87 157.99,27.67 157.68,24.78 155.39,26.59 154,24.05 152.61,26.59 150.32,24.78 150.01,27.67 147.22,26.87 
		148.01,29.66 145.13,29.98 146.93,32.26 144.4,33.66 146.93,35.09 145.13,37.34 148.01,37.69 147.22,40.48 150.01,39.65 
		150.32,42.54 152.61,40.73 154,43.3 155.39,40.73 157.68,42.54 157.99,39.65 160.78,40.48 159.99,37.69 162.87,37.34 161.07,35.09 
		163.6,33.66 163.6,33.66 	"/>
	<polygon style="fill-rule:evenodd;clip-rule:evenodd;fill:#FF0000;" points="163.6,33.66 161.07,32.26 162.87,29.98 159.99,29.66 
		160.78,26.87 157.99,27.67 157.68,24.78 155.39,26.59 154,24.05 152.61,26.59 150.32,24.78 150.01,27.67 147.22,26.87 
		148.01,29.66 145.13,29.98 146.93,32.26 144.4,33.66 146.93,35.09 145.13,37.34 148.01,37.69 147.22,40.48 150.01,39.65 
		150.32,42.54 152.61,40.73 154,43.3 155.39,40.73 157.68,42.54 157.99,39.65 160.78,40.48 159.99,37.69 162.87,37.34 161.07,35.09 
		163.6,33.66 163.6,33.66 	"/>
	
		<polygon style="fill:none;stroke:#000000;stroke-width:0.12;stroke-linecap:round;stroke-linejoin:round;stroke-miterlimit:8;" points="
		163.6,33.66 161.07,32.26 162.87,29.98 159.99,29.66 160.78,26.87 157.99,27.67 157.68,24.78 155.39,26.59 154,24.05 152.61,26.59 
		150.32,24.78 150.01,27.67 147.22,26.87 148.01,29.66 145.13,29.98 146.93,32.26 144.4,33.66 146.93,35.09 145.13,37.34 
		148.01,37.69 147.22,40.48 150.01,39.65 150.32,42.54 152.61,40.73 154,43.3 155.39,40.73 157.68,42.54 157.99,39.65 160.78,40.48 
		159.99,37.69 162.87,37.34 161.07,35.09 163.6,33.66 163.6,33.66 	"/>
	<path style="fill-rule:evenodd;clip-rule:evenodd;fill:#FFFF00;" d="M154.08,28c-3.16,0-5.73,2.57-5.73,5.75s2.56,5.75,5.73,5.75
		c3.16,0,5.72-2.57,5.72-5.75S157.24,28,154.08,28L154.08,28z"/>
	<path style="fill:none;stroke:#000000;stroke-width:0.12;stroke-linecap:round;stroke-linejoin:round;stroke-miterlimit:8;" d="
		M154.08,28c-3.16,0-5.73,2.57-5.73,5.75s2.56,5.75,5.73,5.75c3.16,0,5.72-2.57,5.72-5.75S157.24,28,154.08,28L154.08,28z"/>
	<path style="fill-rule:evenodd;clip-rule:evenodd;fill:#FFFF00;" d="M154.08,28c-3.16,0-5.73,2.57-5.73,5.75s2.56,5.75,5.73,5.75
		c3.16,0,5.72-2.57,5.72-5.75S157.24,28,154.08,28L154.08,28z"/>
	<path style="fill:none;stroke:#000000;stroke-width:0.12;stroke-linecap:round;stroke-linejoin:round;stroke-miterlimit:8;" d="
		M154.08,28c-3.16,0-5.73,2.57-5.73,5.75s2.56,5.75,5.73,5.75c3.16,0,5.72-2.57,5.72-5.75S157.24,28,154.08,28L154.08,28z"/>
	
		<line style="fill:none;stroke:#000000;stroke-width:0.75;stroke-linecap:round;stroke-linejoin:round;stroke-miterlimit:8;" x1="162.4" y1="73.75" x2="186.35" y2="73.8"/>
	<g>
		<defs>
			<polygon id="SVGID_3_" points="162.36,60.36 182.4,60.36 182.4,73.92 162.36,73.92 162.36,60.36 			"/>
		</defs>
		<clipPath id="SVGID_4_">
			<use xlink:href="#SVGID_3_"  style="overflow:visible;"/>
		</clipPath>
		<g style="clip-path:url(#SVGID_4_);">
			<defs>
				<rect id="SVGID_5_" x="162.36" y="60.36" width="20.04" height="13.56"/>
			</defs>
			<clipPath id="SVGID_6_">
				<use xlink:href="#SVGID_5_"  style="overflow:visible;"/>
			</clipPath>
			<g style="clip-path:url(#SVGID_6_);">
				<path d="M170.04,67.75c0-1.42,0.29-2.51,0.86-3.27c0.43-0.58,0.96-0.86,1.56-0.86c0.59,0,1.09,0.28,1.51,0.83
					c0.58,0.77,0.87,1.82,0.87,3.15c0,1.26-0.29,2.26-0.86,3c-0.45,0.57-0.97,0.85-1.57,0.85c-0.33,0-0.63-0.08-0.89-0.24
					c-0.27-0.16-0.51-0.39-0.72-0.68c-0.21-0.3-0.37-0.61-0.48-0.95C170.13,69,170.04,68.4,170.04,67.75z M173.81,67.37
					c0-0.94-0.09-1.69-0.27-2.26c-0.14-0.43-0.32-0.75-0.54-0.93c-0.17-0.14-0.36-0.2-0.57-0.2c-0.24,0-0.47,0.1-0.67,0.29
					c-0.2,0.19-0.36,0.51-0.47,0.95s-0.18,1.16-0.21,2.16H173.81z M171.07,67.73c0.01,0.64,0.06,1.21,0.15,1.72
					c0.06,0.39,0.17,0.73,0.32,1.01c0.09,0.17,0.22,0.32,0.39,0.44c0.17,0.12,0.36,0.18,0.56,0.18c0.23,0,0.45-0.11,0.65-0.32
					c0.21-0.22,0.36-0.56,0.47-1.04c0.11-0.48,0.17-1.14,0.19-1.99H171.07z"/>
			</g>
		</g>
		<g style="clip-path:url(#SVGID_4_);">
			<defs>
				<rect id="SVGID_7_" x="162.36" y="60.36" width="20.04" height="13.56"/>
			</defs>
			<clipPath id="SVGID_8_">
				<use xlink:href="#SVGID_7_"  style="overflow:visible;"/>
			</clipPath>
			<g style="clip-path:url(#SVGID_8_);">
			</g>
		</g>
	</g>
	<g>
		<defs>
			<polygon id="SVGID_9_" points="230.4,60.36 249.96,60.36 249.96,70.08 230.4,70.08 230.4,60.36 			"/>
		</defs>
		<clipPath id="SVGID_10_">
			<use xlink:href="#SVGID_9_"  style="overflow:visible;"/>
		</clipPath>
		<g style="clip-path:url(#SVGID_10_);">
			<defs>
				<rect id="SVGID_11_" x="230.4" y="60.36" width="19.56" height="9.72"/>
			</defs>
			<clipPath id="SVGID_12_">
				<use xlink:href="#SVGID_11_"  style="overflow:visible;"/>
			</clipPath>
			<g style="clip-path:url(#SVGID_12_);">
				<path d="M242.67,62.85v2.53h-0.2c-0.06-0.48-0.18-0.87-0.35-1.16s-0.41-0.52-0.71-0.68c-0.31-0.17-0.63-0.25-0.96-0.25
					c-0.37,0-0.68,0.11-0.93,0.34c-0.25,0.23-0.37,0.49-0.37,0.78c0,0.22,0.08,0.43,0.23,0.61c0.22,0.27,0.75,0.63,1.59,1.08
					c0.68,0.37,1.15,0.65,1.4,0.84c0.25,0.2,0.44,0.43,0.58,0.69s0.2,0.54,0.2,0.84c0,0.55-0.21,1.03-0.64,1.43
					c-0.43,0.4-0.98,0.6-1.66,0.6c-0.21,0-0.41-0.02-0.6-0.05c-0.11-0.02-0.34-0.08-0.69-0.2s-0.57-0.17-0.67-0.17
					c-0.09,0-0.16,0.03-0.21,0.08c-0.05,0.05-0.09,0.17-0.12,0.33h-0.2v-2.51h0.2c0.09,0.52,0.22,0.92,0.38,1.18s0.4,0.48,0.72,0.65
					s0.68,0.26,1.07,0.26c0.45,0,0.8-0.12,1.06-0.36c0.26-0.24,0.39-0.52,0.39-0.84c0-0.18-0.05-0.36-0.15-0.54
					c-0.1-0.18-0.25-0.35-0.46-0.51c-0.14-0.11-0.52-0.34-1.15-0.69c-0.63-0.35-1.07-0.63-1.33-0.84c-0.26-0.21-0.46-0.44-0.6-0.69
					s-0.2-0.53-0.2-0.83c0-0.52,0.2-0.98,0.6-1.36c0.4-0.38,0.91-0.57,1.54-0.57c0.39,0,0.8,0.1,1.23,0.29
					c0.2,0.09,0.34,0.13,0.43,0.13c0.09,0,0.17-0.03,0.23-0.08c0.06-0.06,0.11-0.17,0.14-0.34H242.67z"/>
			</g>
		</g>
		<g style="clip-path:url(#SVGID_10_);">
			<defs>
				<rect id="SVGID_13_" x="230.4" y="60.36" width="19.56" height="9.72"/>
			</defs>
			<clipPath id="SVGID_14_">
				<use xlink:href="#SVGID_13_"  style="overflow:visible;"/>
			</clipPath>
			<g style="clip-path:url(#SVGID_14_);">
			</g>
		</g>
	</g>
	<g>
		<defs>
			<polygon id="SVGID_15_" points="198.12,181.2 217.68,181.2 217.68,190.8 198.12,190.8 198.12,181.2 			"/>
		</defs>
		<clipPath id="SVGID_16_">
			<use xlink:href="#SVGID_15_"  style="overflow:visible;"/>
		</clipPath>
		<g style="clip-path:url(#SVGID_16_);">
			<defs>
				<rect id="SVGID_17_" x="198.12" y="181.2" width="19.56" height="9.6"/>
			</defs>
			<clipPath id="SVGID_18_">
				<use xlink:href="#SVGID_17_"  style="overflow:visible;"/>
			</clipPath>
			<g style="clip-path:url(#SVGID_18_);">
				<path d="M209.15,190.61c-0.24,0.25-0.48,0.43-0.71,0.54s-0.48,0.17-0.74,0.17c-0.54,0-1.01-0.23-1.41-0.68s-0.6-1.03-0.6-1.74
					s0.22-1.36,0.67-1.94c0.45-0.59,1.02-0.88,1.72-0.88c0.44,0,0.79,0.14,1.08,0.42v-0.91c0-0.56-0.01-0.91-0.04-1.04
					c-0.03-0.13-0.07-0.22-0.13-0.26c-0.06-0.05-0.13-0.07-0.22-0.07c-0.09,0-0.22,0.03-0.37,0.09l-0.07-0.19l1.47-0.6h0.24v5.71
					c0,0.58,0.01,0.93,0.04,1.06s0.07,0.22,0.13,0.27c0.06,0.05,0.13,0.08,0.21,0.08c0.1,0,0.23-0.03,0.39-0.09l0.06,0.19
					l-1.47,0.61h-0.25V190.61z M209.15,190.23v-2.54c-0.02-0.25-0.09-0.47-0.19-0.67s-0.25-0.35-0.43-0.46
					c-0.18-0.1-0.35-0.15-0.52-0.15c-0.32,0-0.6,0.14-0.85,0.43c-0.33,0.37-0.49,0.92-0.49,1.64c0,0.73,0.16,1.28,0.47,1.67
					c0.32,0.39,0.67,0.58,1.06,0.58C208.53,190.72,208.84,190.56,209.15,190.23z"/>
			</g>
		</g>
		<g style="clip-path:url(#SVGID_16_);">
			<defs>
				<rect id="SVGID_19_" x="198.12" y="181.2" width="19.56" height="9.6"/>
			</defs>
			<clipPath id="SVGID_20_">
				<use xlink:href="#SVGID_19_"  style="overflow:visible;"/>
			</clipPath>
			<g style="clip-path:url(#SVGID_20_);">
			</g>
		</g>
	</g>
</g>
</svg>
