<?xml version="1.0" encoding="iso-8859-1"?>
<!-- Generator: Adobe Illustrator 16.0.3, SVG Export Plug-In . SVG Version: 6.00 Build 0)  -->
<!DOCTYPE svg PUBLIC "-//W3C//DTD SVG 1.1//EN" "http://www.w3.org/Graphics/SVG/1.1/DTD/svg11.dtd">
<svg version="1.1" id="Layer_1" xmlns="http://www.w3.org/2000/svg" xmlns:xlink="http://www.w3.org/1999/xlink" x="0px" y="0px"
	 width="294.4px" height="131.08px" viewBox="0 0 294.4 131.08" style="enable-background:new 0 0 294.4 131.08;"
	 xml:space="preserve">
<g>
	
		<rect x="124.49" y="81.62" style="fill-rule:evenodd;clip-rule:evenodd;fill:#FFFFFF;stroke:#000000;stroke-width:0.6729;stroke-linecap:square;stroke-miterlimit:10;" width="49.12" height="49.12"/>
	
		<rect x="124.49" y="14.33" style="fill-rule:evenodd;clip-rule:evenodd;fill:#FFFFFF;stroke:#000000;stroke-width:0.6729;stroke-linecap:square;stroke-miterlimit:10;" width="49.12" height="43.07"/>
	
		<path style="fill-rule:evenodd;clip-rule:evenodd;fill:#FFFFFF;stroke:#000000;stroke-width:0.6729;stroke-linecap:square;stroke-miterlimit:10;" d="
		M249.65,44.94c0-6.92,5.53-12.45,12.45-12.45s12.45,5.53,12.45,12.45s-5.53,12.45-12.45,12.45S249.65,51.86,249.65,44.94
		L249.65,44.94z"/>
	<path style="fill:none;stroke:#000000;stroke-width:0.6729;stroke-linecap:square;stroke-miterlimit:10;" d="M269.39,25.09
		c-10.94,0.06-19.68,8.8-19.74,19.74"/>
	
		<line style="fill:none;stroke:#000000;stroke-width:0.6729;stroke-linecap:square;stroke-miterlimit:10;" x1="268.49" y1="25.09" x2="268.49" y2="33.17"/>
	<polygon style="fill-rule:evenodd;clip-rule:evenodd;" points="189.09,44.61 181.01,46.63 181.01,44.61 181.01,42.59 189.09,44.61 
			"/>
	
		<line style="fill:none;stroke:#000000;stroke-width:0.6729;stroke-linecap:square;stroke-miterlimit:10;" x1="173.61" y1="44.61" x2="181.01" y2="44.61"/>
	
		<rect x="188.41" y="15.67" style="fill-rule:evenodd;clip-rule:evenodd;fill:#FFFFFF;stroke:#000000;stroke-width:0.6729;stroke-linecap:square;stroke-miterlimit:10;" width="38.36" height="42.39"/>
	
		<line style="fill:none;stroke:#000000;stroke-width:0.6729;stroke-linecap:square;stroke-miterlimit:10;" x1="269.16" y1="28.46" x2="293.39" y2="28.46"/>
	
		<line style="fill:none;stroke:#000000;stroke-width:0.6729;stroke-linecap:square;stroke-miterlimit:10;" x1="294.06" y1="28.46" x2="294.06" y2="105.17"/>
	<polygon style="fill-rule:evenodd;clip-rule:evenodd;" points="174.28,105.17 182.36,103.15 182.36,105.17 182.36,107.19 
		174.28,105.17 	"/>
	
		<line style="fill:none;stroke:#000000;stroke-width:0.6729;stroke-linecap:square;stroke-miterlimit:10;" x1="294.06" y1="105.17" x2="182.36" y2="105.17"/>
	
		<line style="fill:none;stroke:#000000;stroke-width:0.6729;stroke-linecap:square;stroke-miterlimit:10;" x1="124.49" y1="105.84" x2="51.82" y2="105.84"/>
	<polygon style="fill-rule:evenodd;clip-rule:evenodd;" points="51.14,56.72 53.16,64.79 51.14,64.79 49.12,64.79 51.14,56.72 	"/>
	
		<line style="fill:none;stroke:#000000;stroke-width:0.6729;stroke-linecap:square;stroke-miterlimit:10;" x1="51.14" y1="105.84" x2="51.14" y2="64.79"/>
	
		<rect x="30.28" y="15.67" style="fill-rule:evenodd;clip-rule:evenodd;fill:#FFFFFF;stroke:#000000;stroke-width:0.6729;stroke-linecap:square;stroke-miterlimit:10;" width="46.43" height="42.39"/>
	<polygon style="fill-rule:evenodd;clip-rule:evenodd;" points="29.61,21.06 21.54,23.08 21.54,21.06 21.54,19.04 29.61,21.06 	"/>
	
		<line style="fill:none;stroke:#000000;stroke-width:0.6729;stroke-linecap:square;stroke-miterlimit:10;" x1="9.42" y1="21.06" x2="21.54" y2="21.06"/>
	<polygon style="fill-rule:evenodd;clip-rule:evenodd;" points="8.08,48.65 16.15,46.63 16.15,48.65 16.15,50.66 8.08,48.65 	"/>
	
		<line style="fill:none;stroke:#000000;stroke-width:0.6729;stroke-linecap:square;stroke-miterlimit:10;" x1="29.61" y1="48.65" x2="16.15" y2="48.65"/>
	
		<line style="fill:none;stroke:#000000;stroke-width:0.6729;stroke-linecap:square;stroke-miterlimit:10;" x1="30.28" y1="20.38" x2="51.82" y2="20.38"/>
	
		<line style="fill:none;stroke:#000000;stroke-width:0.6729;stroke-linecap:square;stroke-miterlimit:10;" x1="51.14" y1="57.39" x2="51.14" y2="20.38"/>
	
		<line style="fill:none;stroke:#000000;stroke-width:0.6729;stroke-linecap:square;stroke-miterlimit:10;" x1="50.47" y1="48.65" x2="29.61" y2="48.65"/>
	
		<line style="fill:none;stroke:#000000;stroke-width:0.6729;stroke-linecap:square;stroke-miterlimit:10;" x1="51.14" y1="20.38" x2="76.04" y2="20.38"/>
	<polygon style="fill-rule:evenodd;clip-rule:evenodd;" points="124.49,20.38 116.41,22.4 116.41,20.38 116.41,18.37 124.49,20.38 	
		"/>
	
		<line style="fill:none;stroke:#000000;stroke-width:0.6729;stroke-linecap:square;stroke-miterlimit:10;" x1="76.04" y1="20.38" x2="116.41" y2="20.38"/>
	<g>
		<path d="M144.39,33.32c-0.74,0.03-1.24,0.27-1.52,0.75c-0.28,0.47-0.41,1.01-0.4,1.63c0,0.61,0.15,1.14,0.45,1.6
			s0.76,0.69,1.39,0.71c0.61-0.03,1.04-0.22,1.3-0.58c0.25-0.35,0.37-0.7,0.37-1.03h0.74c-0.01,0.6-0.23,1.13-0.65,1.58
			c-0.43,0.45-1.02,0.68-1.79,0.71c-0.9-0.03-1.56-0.34-1.98-0.94c-0.42-0.59-0.63-1.3-0.62-2.12c-0.01-0.8,0.2-1.49,0.63-2.08
			c0.43-0.59,1.12-0.9,2.06-0.93c0.72,0.02,1.28,0.23,1.68,0.6c0.4,0.38,0.61,0.8,0.62,1.27h-0.75c0.01-0.15-0.1-0.38-0.32-0.68
			C145.37,33.53,144.97,33.36,144.39,33.32z"/>
		<path d="M148.98,32.63h0.48l-1.95,6.66h-0.47L148.98,32.63z"/>
		<path d="M152.54,33.32c-0.74,0.03-1.24,0.27-1.52,0.75c-0.28,0.47-0.41,1.01-0.4,1.63c0,0.61,0.15,1.14,0.45,1.6
			c0.3,0.45,0.77,0.69,1.39,0.71c0.61-0.03,1.04-0.22,1.3-0.58c0.25-0.35,0.37-0.7,0.37-1.03h0.74c-0.01,0.6-0.22,1.13-0.65,1.58
			c-0.43,0.45-1.02,0.68-1.79,0.71c-0.9-0.03-1.56-0.34-1.98-0.94c-0.42-0.59-0.63-1.3-0.62-2.12c-0.01-0.8,0.2-1.49,0.63-2.08
			c0.43-0.59,1.12-0.9,2.06-0.93c0.72,0.02,1.28,0.23,1.68,0.6c0.4,0.38,0.61,0.8,0.62,1.27h-0.75c0.01-0.15-0.1-0.38-0.32-0.68
			C153.53,33.53,153.12,33.36,152.54,33.32z"/>
	</g>
	<g>
		<path d="M243.3,59.57c-0.74,0.03-1.24,0.27-1.52,0.75c-0.28,0.47-0.41,1.01-0.4,1.63c0,0.61,0.15,1.14,0.45,1.6
			c0.3,0.45,0.77,0.69,1.39,0.71c0.61-0.03,1.04-0.22,1.3-0.58c0.25-0.35,0.37-0.7,0.37-1.03h0.74c-0.01,0.6-0.22,1.13-0.65,1.58
			c-0.43,0.45-1.02,0.68-1.79,0.71c-0.9-0.03-1.56-0.34-1.98-0.94c-0.42-0.59-0.63-1.3-0.62-2.12c-0.01-0.8,0.2-1.49,0.63-2.08
			c0.43-0.59,1.12-0.9,2.06-0.93c0.72,0.02,1.28,0.23,1.68,0.6c0.4,0.38,0.61,0.8,0.62,1.27h-0.75c0.01-0.15-0.1-0.38-0.32-0.68
			C244.29,59.77,243.88,59.6,243.3,59.57z"/>
		<path d="M249.07,58.87c0.88,0.01,1.55,0.29,2.02,0.84c0.46,0.55,0.69,1.28,0.7,2.21c0,0.93-0.24,1.65-0.71,2.19
			c-0.47,0.53-1.16,0.81-2.05,0.82c-0.89-0.02-1.56-0.3-2.01-0.84s-0.68-1.28-0.68-2.2c0-0.92,0.24-1.65,0.71-2.19
			S248.18,58.89,249.07,58.87z M247.11,61.91c0,0.68,0.15,1.24,0.46,1.68c0.31,0.44,0.8,0.67,1.46,0.69
			c0.67-0.02,1.16-0.24,1.48-0.69c0.32-0.44,0.48-1,0.48-1.67c0-0.67-0.16-1.23-0.47-1.69c-0.32-0.45-0.81-0.69-1.47-0.7
			c-0.66,0.02-1.15,0.25-1.46,0.69C247.27,60.67,247.11,61.23,247.11,61.91z"/>
		<path d="M256.61,63.67v-4.63h0.73v5.75h-0.84l-2.99-4.6v4.6h-0.73v-5.75h0.84L256.61,63.67z"/>
		<path d="M260.6,64.93c-0.76-0.02-1.33-0.21-1.71-0.59s-0.56-0.86-0.56-1.45h0.73c0.01,0.47,0.16,0.82,0.45,1.04
			c0.29,0.23,0.66,0.34,1.11,0.34c0.42,0,0.75-0.1,1-0.29s0.38-0.46,0.38-0.81c-0.02-0.36-0.21-0.6-0.55-0.73
			c-0.35-0.13-0.75-0.23-1.21-0.32c-0.46-0.08-0.86-0.23-1.21-0.45c-0.35-0.21-0.53-0.59-0.54-1.12c0-0.46,0.18-0.85,0.52-1.18
			c0.35-0.33,0.86-0.5,1.53-0.51c0.7,0.02,1.22,0.2,1.55,0.56c0.34,0.36,0.5,0.79,0.5,1.28h-0.75c0-0.31-0.11-0.59-0.32-0.82
			s-0.57-0.36-1.05-0.37c-0.41,0.01-0.73,0.1-0.94,0.28s-0.32,0.42-0.32,0.73c0.02,0.34,0.2,0.57,0.54,0.69
			c0.35,0.12,0.75,0.22,1.21,0.3s0.87,0.23,1.22,0.46c0.35,0.22,0.54,0.61,0.56,1.17c-0.01,0.55-0.2,0.98-0.58,1.3
			C261.82,64.76,261.28,64.92,260.6,64.93z"/>
		<path d="M267.67,59.71h-1.83v5.07h-0.78v-5.07h-1.83v-0.68h4.43V59.71z"/>
		<path d="M268.51,64.79h-0.78l2.14-5.75h0.86l2.15,5.75h-0.86l-0.59-1.72h-2.28L268.51,64.79z M270.3,59.82l-0.93,2.59h1.82
			L270.3,59.82z"/>
		<path d="M277.31,63.67v-4.63h0.73v5.75h-0.84l-2.99-4.6v4.6h-0.73v-5.75h0.84L277.31,63.67z"/>
		<path d="M283.17,59.71h-1.83v5.07h-0.78v-5.07h-1.83v-0.68h4.43V59.71z"/>
	</g>
	<g>
		<path d="M237.65,69.8l1.66,4.88l1.63-4.88h0.81l-2.03,5.75h-0.81l-2.05-5.75H237.65z"/>
		<path d="M244.89,69.64c0.88,0.01,1.55,0.29,2.02,0.84c0.46,0.55,0.69,1.28,0.7,2.21c0,0.92-0.24,1.65-0.71,2.19
			c-0.47,0.53-1.16,0.81-2.05,0.82c-0.89-0.02-1.56-0.3-2.01-0.84c-0.45-0.55-0.68-1.28-0.68-2.2c0-0.92,0.24-1.65,0.71-2.19
			C243.32,69.93,244,69.65,244.89,69.64z M242.93,72.67c0,0.68,0.15,1.24,0.46,1.68s0.8,0.67,1.46,0.69
			c0.67-0.02,1.16-0.25,1.48-0.69c0.32-0.44,0.48-1,0.48-1.67c0-0.67-0.16-1.23-0.47-1.69c-0.32-0.45-0.81-0.69-1.47-0.7
			c-0.66,0.02-1.15,0.25-1.46,0.69C243.09,71.44,242.93,72,242.93,72.67z"/>
		<path d="M249.37,74.85h2.89v0.7h-3.66V69.8h0.77V74.85z"/>
		<path d="M256.61,69.8h0.77v3.73c0.01,0.61-0.18,1.12-0.56,1.53s-0.97,0.63-1.78,0.64c-0.79-0.02-1.35-0.24-1.69-0.65
			c-0.34-0.41-0.5-0.92-0.49-1.52V69.8h0.78v3.73c0,0.46,0.13,0.81,0.37,1.06s0.6,0.38,1.07,0.38c0.57-0.01,0.97-0.16,1.2-0.44
			s0.34-0.64,0.33-1.08V69.8z"/>
		<path d="M258.6,69.8h1.11l1.57,4.85l1.64-4.85h1.1v5.75h-0.75V70.7l-1.64,4.85h-0.73l-1.6-4.9v4.9h-0.71V69.8z"/>
		<path d="M269.39,69.8v0.71h-3.34v1.74h3.09v0.65h-3.09v1.96h3.41v0.7h-4.18V69.8H269.39z"/>
		<path d="M273.39,72.93v2.62h-0.77V69.8h3.86v0.71h-3.09v1.74h2.7v0.68H273.39z"/>
		<path d="M277.45,75.55h-0.78l2.14-5.75h0.86l2.15,5.75h-0.86l-0.59-1.71h-2.28L277.45,75.55z M279.24,70.59l-0.93,2.59h1.82
			L279.24,70.59z"/>
		<path d="M286.25,74.43V69.8h0.73v5.75h-0.84l-2.99-4.61v4.61h-0.73V69.8h0.84L286.25,74.43z"/>
	</g>
	<g>
		<path d="M203.25,37.19v2.7h-0.77v-5.75h0.77v2.37h3.02v-2.37h0.78v5.75h-0.78v-2.7H203.25z"/>
		<path d="M209.62,33.97h0.48l-1.95,6.66h-0.47L209.62,33.97z"/>
		<path d="M213.19,34.67c-0.74,0.03-1.24,0.27-1.52,0.75c-0.28,0.47-0.41,1.01-0.4,1.63c0,0.61,0.15,1.14,0.45,1.6
			c0.3,0.45,0.77,0.69,1.39,0.71c0.61-0.03,1.04-0.22,1.3-0.58c0.25-0.35,0.37-0.7,0.37-1.03h0.74c-0.01,0.6-0.22,1.13-0.65,1.58
			c-0.43,0.45-1.02,0.68-1.79,0.71c-0.9-0.03-1.56-0.34-1.98-0.94c-0.42-0.59-0.63-1.3-0.62-2.12c-0.01-0.8,0.2-1.49,0.63-2.08
			c0.43-0.59,1.12-0.9,2.06-0.93c0.72,0.02,1.28,0.23,1.68,0.6c0.4,0.38,0.61,0.8,0.62,1.27h-0.75c0.01-0.15-0.1-0.38-0.32-0.68
			C214.17,34.87,213.77,34.7,213.19,34.67z"/>
	</g>
	<g>
		<path d="M140.43,106.13v-0.66h4.18v0.71l-3.47,4.36h3.47v0.68h-4.43v-0.63l3.54-4.46H140.43z"/>
		<path d="M147.89,105.3c0.88,0.01,1.55,0.29,2.02,0.84s0.69,1.28,0.7,2.21c0,0.92-0.24,1.65-0.71,2.19
			c-0.47,0.53-1.15,0.81-2.05,0.82c-0.89-0.02-1.56-0.3-2.01-0.84c-0.45-0.55-0.68-1.28-0.68-2.2c0.01-0.92,0.24-1.65,0.71-2.19
			C146.33,105.59,147.01,105.32,147.89,105.3z M145.94,108.34c0,0.68,0.15,1.24,0.46,1.68s0.79,0.67,1.46,0.69
			c0.67-0.02,1.16-0.25,1.48-0.69c0.32-0.44,0.48-1,0.48-1.67c0-0.67-0.16-1.23-0.47-1.69c-0.32-0.45-0.81-0.69-1.47-0.7
			c-0.66,0.02-1.15,0.25-1.46,0.69S145.94,107.66,145.94,108.34z"/>
		<path d="M155.43,110.1v-4.63h0.73v5.75h-0.84l-2.99-4.61v4.61h-0.73v-5.75h0.84L155.43,110.1z"/>
		<path d="M161.52,105.46v0.71h-3.34v1.74h3.09v0.65h-3.09v1.96h3.41v0.7h-4.18v-5.75H161.52z"/>
	</g>
	<g>
		<path d="M63.54,99.33h-1.58v2.46h-0.77v-5.75h2.45c0.55,0,0.98,0.13,1.3,0.4c0.32,0.27,0.48,0.66,0.49,1.18
			c0,0.34-0.07,0.62-0.21,0.83c-0.14,0.21-0.33,0.38-0.56,0.49c0.29,0.09,0.47,0.25,0.55,0.5c0.08,0.24,0.12,0.52,0.12,0.82
			c-0.01,0.3,0,0.58,0.03,0.84c0.02,0.26,0.11,0.44,0.27,0.54v0.15h-0.87c-0.12-0.29-0.19-0.58-0.19-0.87
			c-0.01-0.29-0.01-0.55-0.02-0.79s-0.08-0.43-0.21-0.58S63.92,99.33,63.54,99.33z M61.95,96.71v1.97h1.62c0.36,0,0.63-0.1,0.8-0.28
			c0.17-0.18,0.26-0.42,0.26-0.7c0-0.32-0.08-0.56-0.25-0.73c-0.17-0.17-0.44-0.25-0.81-0.26H61.95z"/>
		<path d="M70.64,96.04v0.71H67.3v1.74h3.09v0.65H67.3v1.96h3.41v0.7h-4.18v-5.75H70.64z"/>
		<path d="M75.55,96.72h-1.83v5.07h-0.78v-5.07h-1.83v-0.68h4.43V96.72z"/>
		<path d="M79.96,96.04h0.77v3.73c0,0.61-0.18,1.12-0.56,1.53c-0.38,0.41-0.97,0.63-1.78,0.64c-0.79-0.02-1.35-0.24-1.69-0.65
			c-0.34-0.41-0.5-0.92-0.49-1.52v-3.73h0.78v3.73c0,0.46,0.13,0.81,0.37,1.06s0.6,0.38,1.07,0.38c0.57-0.01,0.97-0.16,1.2-0.44
			c0.23-0.28,0.34-0.64,0.33-1.08V96.04z"/>
		<path d="M84.31,99.33h-1.58v2.46h-0.77v-5.75h2.45c0.55,0,0.98,0.13,1.3,0.4c0.32,0.27,0.48,0.66,0.49,1.18
			c0,0.34-0.07,0.62-0.21,0.83c-0.14,0.21-0.33,0.38-0.56,0.49c0.29,0.09,0.47,0.25,0.55,0.5c0.08,0.24,0.12,0.52,0.12,0.82
			c-0.01,0.3,0,0.58,0.03,0.84c0.02,0.26,0.11,0.44,0.27,0.54v0.15h-0.87c-0.12-0.29-0.19-0.58-0.19-0.87
			c-0.01-0.29-0.01-0.55-0.02-0.79s-0.08-0.43-0.21-0.58S84.69,99.33,84.31,99.33z M82.72,96.71v1.97h1.62c0.36,0,0.63-0.1,0.8-0.28
			c0.17-0.18,0.26-0.42,0.26-0.7c0-0.32-0.08-0.56-0.25-0.73c-0.17-0.17-0.44-0.25-0.81-0.26H82.72z"/>
		<path d="M91.12,100.67v-4.63h0.73v5.75h-0.84l-2.99-4.61v4.61h-0.73v-5.75h0.84L91.12,100.67z"/>
		<path d="M95.45,101.79h-0.78l2.14-5.75h0.86l2.15,5.75h-0.86l-0.6-1.71h-2.28L95.45,101.79z M97.24,96.83l-0.93,2.59h1.82
			L97.24,96.83z"/>
		<path d="M101.22,101.79h-0.77v-5.75h0.77V101.79z"/>
		<path d="M104.86,99.33h-1.58v2.46h-0.77v-5.75h2.45c0.55,0,0.98,0.13,1.3,0.4c0.32,0.27,0.48,0.66,0.49,1.18
			c0,0.34-0.07,0.62-0.21,0.83c-0.14,0.21-0.33,0.38-0.56,0.49c0.29,0.09,0.47,0.25,0.55,0.5c0.08,0.24,0.12,0.52,0.12,0.82
			c-0.01,0.3,0,0.58,0.03,0.84c0.02,0.26,0.11,0.44,0.27,0.54v0.15h-0.87c-0.12-0.29-0.19-0.58-0.19-0.87
			c-0.01-0.29-0.01-0.55-0.02-0.79s-0.08-0.43-0.21-0.58S105.25,99.33,104.86,99.33z M103.27,96.71v1.97h1.62
			c0.36,0,0.63-0.1,0.8-0.28c0.17-0.18,0.26-0.42,0.26-0.7c0-0.32-0.08-0.56-0.25-0.73c-0.17-0.17-0.44-0.25-0.81-0.26H103.27z"/>
	</g>
	<g>
		<path d="M7.16,1c0.88,0.01,1.56,0.29,2.02,0.84c0.46,0.55,0.69,1.28,0.7,2.21C9.87,4.98,9.63,5.7,9.15,6.24S8,7.04,7.11,7.06
			c-0.89-0.02-1.56-0.3-2.01-0.84s-0.68-1.28-0.68-2.2C4.42,3.1,4.65,2.37,5.12,1.83C5.59,1.29,6.27,1.01,7.16,1z M5.2,4.03
			c0,0.68,0.15,1.24,0.46,1.68c0.31,0.44,0.79,0.67,1.46,0.69C7.79,6.39,8.28,6.16,8.6,5.72c0.32-0.44,0.48-1,0.48-1.67
			c0-0.67-0.16-1.23-0.47-1.69C8.29,1.91,7.8,1.68,7.14,1.66C6.48,1.68,5.99,1.91,5.67,2.35C5.36,2.79,5.2,3.36,5.2,4.03z"/>
		<path d="M14.59,1.16h0.77v3.73c0,0.61-0.18,1.12-0.56,1.53c-0.38,0.41-0.97,0.62-1.78,0.64c-0.79-0.02-1.35-0.24-1.69-0.65
			c-0.34-0.41-0.5-0.92-0.49-1.52V1.16h0.78v3.73c0,0.45,0.13,0.81,0.37,1.06c0.24,0.25,0.6,0.38,1.07,0.38
			c0.57-0.01,0.97-0.16,1.2-0.44c0.23-0.28,0.34-0.64,0.33-1.08V1.16z"/>
		<path d="M20.46,1.84h-1.83v5.07h-0.78V1.84h-1.83V1.16h4.43V1.84z"/>
		<path d="M23.18,7.06c-0.77-0.02-1.33-0.21-1.71-0.59c-0.37-0.37-0.56-0.86-0.56-1.45h0.73c0.01,0.47,0.16,0.82,0.45,1.04
			c0.29,0.23,0.66,0.34,1.11,0.34c0.42,0,0.75-0.1,1-0.29c0.25-0.19,0.38-0.46,0.38-0.81c-0.02-0.36-0.21-0.6-0.55-0.73
			c-0.35-0.13-0.75-0.23-1.21-0.32c-0.46-0.08-0.86-0.23-1.2-0.45c-0.35-0.21-0.53-0.59-0.54-1.12c0-0.46,0.18-0.85,0.52-1.18
			c0.35-0.33,0.85-0.5,1.53-0.51c0.7,0.02,1.22,0.2,1.56,0.56c0.33,0.36,0.5,0.79,0.5,1.28h-0.75c0-0.31-0.1-0.59-0.32-0.82
			s-0.57-0.36-1.05-0.37c-0.41,0.01-0.73,0.1-0.94,0.28s-0.32,0.42-0.32,0.73c0.02,0.34,0.2,0.57,0.54,0.69
			c0.35,0.12,0.75,0.22,1.21,0.3s0.87,0.23,1.22,0.46c0.35,0.22,0.54,0.61,0.56,1.17c-0.01,0.55-0.2,0.98-0.58,1.3
			C24.39,6.88,23.86,7.05,23.18,7.06z"/>
		<path d="M27.16,6.91h-0.77V1.16h0.77V6.91z"/>
		<path d="M28.44,6.91V1.16h2.21c0.91,0.02,1.55,0.3,1.93,0.83c0.37,0.53,0.56,1.18,0.54,1.94c0,0.87-0.21,1.58-0.62,2.13
			c-0.42,0.55-1.03,0.83-1.85,0.85H28.44z M29.21,6.23h1.39c0.61-0.01,1.06-0.23,1.33-0.64c0.27-0.41,0.4-0.94,0.4-1.59
			c0.01-0.63-0.13-1.15-0.4-1.56c-0.27-0.41-0.72-0.62-1.32-0.64h-1.39V6.23z"/>
		<path d="M38.24,1.16v0.71H34.9v1.74h3.09v0.65H34.9v1.96h3.41v0.7h-4.18V1.16H38.24z"/>
	</g>
	<g>
		<path d="M14.89,17.69h-0.78l2.14-5.75h0.86l2.15,5.75H18.4l-0.6-1.72h-2.28L14.89,17.69z M16.68,12.72l-0.93,2.59h1.82
			L16.68,12.72z"/>
		<path d="M20.67,17.69H19.9v-5.75h0.77V17.69z"/>
		<path d="M24.3,15.23h-1.58v2.46h-0.77v-5.75h2.45c0.55,0,0.98,0.13,1.3,0.4c0.32,0.27,0.48,0.66,0.49,1.18
			c0,0.34-0.07,0.62-0.21,0.83c-0.14,0.21-0.33,0.37-0.56,0.49c0.29,0.09,0.47,0.25,0.55,0.5c0.08,0.24,0.12,0.52,0.12,0.82
			s0,0.58,0.03,0.84c0.02,0.25,0.11,0.44,0.27,0.54v0.15h-0.87c-0.12-0.29-0.19-0.58-0.19-0.87c-0.01-0.29-0.01-0.55-0.02-0.79
			s-0.08-0.43-0.21-0.58S24.69,15.23,24.3,15.23z M22.72,12.6v1.97h1.62c0.36-0.01,0.63-0.1,0.8-0.28c0.17-0.18,0.26-0.42,0.26-0.7
			c0-0.32-0.08-0.56-0.25-0.73c-0.17-0.17-0.44-0.25-0.81-0.26H22.72z"/>
	</g>
	<g>
		<path d="M2.97,55.59H1.39v2.46H0.62V52.3h2.45c0.55,0,0.98,0.13,1.3,0.4c0.32,0.27,0.48,0.66,0.49,1.18
			c0,0.34-0.07,0.62-0.21,0.83c-0.14,0.21-0.33,0.37-0.56,0.49c0.29,0.09,0.47,0.25,0.55,0.5c0.08,0.24,0.12,0.52,0.12,0.82
			s0,0.58,0.03,0.84c0.02,0.25,0.11,0.44,0.27,0.54v0.15H4.18C4.06,57.76,4,57.48,3.99,57.19c-0.01-0.29-0.01-0.55-0.02-0.79
			s-0.08-0.43-0.21-0.58S3.36,55.59,2.97,55.59z M1.39,52.96v1.97H3c0.36-0.01,0.63-0.1,0.8-0.28c0.17-0.18,0.26-0.42,0.26-0.7
			c0-0.32-0.08-0.56-0.25-0.73C3.64,53.05,3.37,52.97,3,52.96H1.39z"/>
		<path d="M10.08,52.3v0.71H6.73v1.74h3.09v0.65H6.73v1.96h3.41v0.7H5.96V52.3H10.08z"/>
		<path d="M11.87,57.35h2.89v0.7H11.1V52.3h0.77V57.35z"/>
		<path d="M16.2,58.05h-0.77V52.3h0.77V58.05z"/>
		<path d="M21.59,52.3v0.71h-3.34v1.74h3.09v0.65h-3.09v1.96h3.41v0.7h-4.18V52.3H21.59z"/>
		<path d="M23.39,55.43v2.62h-0.77V52.3h3.86v0.71h-3.09v1.74h2.7v0.68H23.39z"/>
	</g>
	<g>
		<path d="M6.81,68.83H6.03l2.14-5.75h0.86l2.15,5.75h-0.86l-0.6-1.71H7.43L6.81,68.83z M8.6,63.86l-0.93,2.59h1.82L8.6,63.86z"/>
		<path d="M12.58,68.83h-0.77v-5.75h0.77V68.83z"/>
		<path d="M16.22,66.37h-1.58v2.46h-0.77v-5.75h2.45c0.55,0,0.98,0.13,1.3,0.4c0.32,0.27,0.48,0.66,0.49,1.18
			c0,0.34-0.07,0.62-0.21,0.83c-0.14,0.21-0.33,0.38-0.56,0.49c0.29,0.09,0.47,0.25,0.55,0.5c0.08,0.24,0.12,0.52,0.12,0.82
			c-0.01,0.3,0,0.58,0.03,0.84c0.02,0.26,0.11,0.44,0.27,0.54v0.15h-0.87c-0.12-0.29-0.19-0.58-0.19-0.87
			c-0.01-0.29-0.01-0.55-0.02-0.79s-0.08-0.43-0.21-0.58S16.61,66.37,16.22,66.37z M14.63,63.74v1.97h1.62c0.36,0,0.63-0.1,0.8-0.28
			c0.17-0.18,0.26-0.42,0.26-0.7c0-0.32-0.08-0.56-0.25-0.73c-0.17-0.17-0.44-0.25-0.81-0.26H14.63z"/>
	</g>
	<polygon style="fill-rule:evenodd;clip-rule:evenodd;fill:#FFFFFF;" points="37.01,24.42 65.95,24.42 65.95,45.95 37.01,45.95 
		37.01,24.42 	"/>
	<g>
		<path d="M38.29,26.74h1.11l1.57,4.85l1.64-4.85h1.1v5.75h-0.75v-4.85l-1.64,4.85H40.6l-1.6-4.9v4.9h-0.71V26.74z"/>
		<path d="M45.77,32.49H45v-5.75h0.77V32.49z"/>
		<path d="M50.29,26.74h0.89l-1.87,2.83l1.97,2.93h-0.95l-1.47-2.33l-1.48,2.33h-0.94l1.97-2.93l-1.86-2.83h0.93l1.39,2.11
			L50.29,26.74z"/>
		<path d="M52.73,32.49h-0.77v-5.75h0.77V32.49z"/>
		<path d="M57.83,31.37v-4.63h0.73v5.75h-0.84l-2.99-4.6v4.6h-0.73v-5.75h0.84L57.83,31.37z"/>
		<path d="M60.35,29.64c0,0.61,0.15,1.14,0.46,1.6s0.79,0.69,1.46,0.71c0.51,0,0.94-0.15,1.28-0.47s0.52-0.8,0.53-1.46h-1.79V29.4
			h2.49v3.08h-0.48l-0.18-0.74c-0.18,0.22-0.42,0.42-0.73,0.6c-0.31,0.18-0.68,0.28-1.11,0.29c-0.95-0.03-1.64-0.34-2.07-0.93
			s-0.65-1.3-0.64-2.13c0-0.81,0.22-1.51,0.67-2.09c0.45-0.58,1.15-0.89,2.11-0.91c0.78,0.03,1.37,0.24,1.76,0.65
			s0.58,0.82,0.58,1.24h-0.75c0.01-0.2-0.11-0.45-0.35-0.74c-0.24-0.29-0.65-0.46-1.23-0.49c-0.73,0.02-1.25,0.26-1.55,0.72
			C60.49,28.42,60.34,28.98,60.35,29.64z"/>
	</g>
	<g>
		<path d="M44.35,43.25V37.5h2.42c0.59,0.01,1.03,0.13,1.3,0.38c0.27,0.25,0.4,0.58,0.4,1c-0.01,0.34-0.09,0.62-0.24,0.84
			c-0.16,0.22-0.35,0.37-0.58,0.45c0.39,0.07,0.67,0.24,0.84,0.5s0.26,0.57,0.26,0.92c-0.01,0.5-0.18,0.9-0.52,1.2
			s-0.78,0.46-1.32,0.47H44.35z M45.12,39.93h1.52c0.35,0,0.62-0.09,0.79-0.25c0.17-0.17,0.26-0.39,0.26-0.68
			c0-0.26-0.08-0.47-0.25-0.63c-0.17-0.16-0.44-0.24-0.8-0.24h-1.52V39.93z M45.12,42.58h1.68c0.39-0.01,0.67-0.11,0.86-0.3
			c0.19-0.19,0.28-0.44,0.28-0.73c0-0.28-0.09-0.52-0.27-0.71c-0.18-0.19-0.48-0.29-0.88-0.3h-1.68V42.58z"/>
		<path d="M52.18,37.33c0.88,0.01,1.56,0.29,2.02,0.84c0.46,0.55,0.69,1.28,0.7,2.21c-0.01,0.93-0.24,1.65-0.72,2.19
			s-1.15,0.81-2.05,0.82c-0.89-0.02-1.56-0.3-2.01-0.84s-0.68-1.28-0.68-2.2c0.01-0.92,0.24-1.65,0.71-2.19
			C50.62,37.62,51.3,37.35,52.18,37.33z M50.23,40.37c0,0.68,0.15,1.24,0.46,1.68c0.31,0.44,0.79,0.67,1.46,0.69
			c0.67-0.02,1.16-0.24,1.48-0.69c0.32-0.44,0.48-1,0.48-1.67c0-0.67-0.16-1.23-0.47-1.69c-0.32-0.45-0.81-0.69-1.47-0.7
			c-0.66,0.02-1.15,0.25-1.46,0.69C50.38,39.13,50.23,39.69,50.23,40.37z"/>
		<path d="M59.14,37.5h0.89l-1.87,2.83l1.97,2.93h-0.95l-1.47-2.33l-1.48,2.33h-0.94l1.97-2.93L55.4,37.5h0.93l1.39,2.11L59.14,37.5
			z"/>
	</g>
	<polygon style="fill-rule:evenodd;clip-rule:evenodd;" points="248.98,44.61 240.9,46.63 240.9,44.61 240.9,42.59 248.98,44.61 	
		"/>
	
		<line style="fill:none;stroke:#000000;stroke-width:0.6729;stroke-linecap:square;stroke-miterlimit:10;" x1="226.1" y1="44.61" x2="240.9" y2="44.61"/>
</g>
</svg>
