<?xml version="1.0" encoding="utf-8"?>
<!-- Generator: Adobe Illustrator 16.0.0, SVG Export Plug-In . SVG Version: 6.00 Build 0)  -->
<!DOCTYPE svg PUBLIC "-//W3C//DTD SVG 1.1//EN" "http://www.w3.org/Graphics/SVG/1.1/DTD/svg11.dtd">
<svg version="1.1" id="Layer_1" xmlns="http://www.w3.org/2000/svg" xmlns:xlink="http://www.w3.org/1999/xlink" x="0px" y="0px"
	 width="356.986px" height="53.729px" viewBox="0 0 356.986 53.729" enable-background="new 0 0 356.986 53.729"
	 xml:space="preserve">
<g>
	<defs>
		<rect id="SVGID_1_" width="210.502" height="50.399"/>
	</defs>
	<clipPath id="SVGID_2_">
		<use xlink:href="#SVGID_1_"  overflow="visible"/>
	</clipPath>
	<g clip-path="url(#SVGID_2_)">
		<defs>
			<rect id="SVGID_3_" y="0" width="210.552" height="50.016"/>
		</defs>
		<clipPath id="SVGID_4_">
			<use xlink:href="#SVGID_3_"  overflow="visible"/>
		</clipPath>
		<g clip-path="url(#SVGID_4_)">
			<path d="M3.207,9.919V2.823h0.946v2.914h3.718V2.823h0.946v7.096H7.872V6.574H4.153v3.345H3.207z"/>
			<path d="M13.829,8.264l0.907,0.111c-0.143,0.526-0.408,0.934-0.795,1.225c-0.387,0.291-0.881,0.436-1.483,0.436
				c-0.758,0-1.359-0.231-1.803-0.695c-0.444-0.463-0.666-1.112-0.666-1.948c0-0.865,0.225-1.536,0.673-2.013
				c0.449-0.478,1.031-0.717,1.747-0.717c0.693,0,1.259,0.234,1.698,0.702c0.439,0.468,0.659,1.126,0.659,1.975
				c0,0.052-0.001,0.129-0.005,0.232h-3.864c0.033,0.565,0.193,0.997,0.483,1.297c0.29,0.3,0.651,0.45,1.083,0.45
				c0.322,0,0.597-0.084,0.824-0.252C13.515,8.899,13.695,8.631,13.829,8.264z M10.945,6.855h2.894
				c-0.039-0.432-0.15-0.757-0.332-0.973c-0.28-0.336-0.643-0.503-1.088-0.503c-0.403,0-0.743,0.134-1.018,0.401
				C11.126,6.048,10.975,6.407,10.945,6.855z"/>
			<path d="M19.161,9.285c-0.325,0.274-0.639,0.468-0.939,0.581s-0.624,0.169-0.968,0.169c-0.569,0-1.007-0.138-1.313-0.414
				s-0.459-0.628-0.459-1.058c0-0.251,0.058-0.481,0.173-0.689c0.116-0.208,0.267-0.375,0.454-0.501
				c0.187-0.126,0.397-0.221,0.632-0.286c0.172-0.045,0.432-0.089,0.78-0.131c0.709-0.084,1.231-0.184,1.566-0.3
				c0.003-0.12,0.005-0.195,0.005-0.228c0-0.355-0.083-0.605-0.249-0.75c-0.224-0.197-0.558-0.295-1-0.295
				c-0.413,0-0.718,0.072-0.915,0.215s-0.342,0.397-0.437,0.762l-0.859-0.116c0.078-0.365,0.207-0.659,0.386-0.883
				c0.179-0.224,0.438-0.397,0.775-0.518c0.338-0.121,0.73-0.182,1.176-0.182c0.442,0,0.802,0.052,1.078,0.155
				c0.276,0.103,0.48,0.233,0.61,0.39c0.13,0.156,0.221,0.354,0.273,0.593c0.029,0.148,0.044,0.417,0.044,0.804v1.162
				c0,0.81,0.019,1.322,0.056,1.537c0.037,0.215,0.111,0.42,0.222,0.617h-0.917C19.245,9.738,19.187,9.527,19.161,9.285z
				 M19.087,7.339c-0.319,0.129-0.797,0.239-1.435,0.329c-0.361,0.052-0.616,0.11-0.766,0.174c-0.149,0.065-0.265,0.159-0.346,0.283
				c-0.082,0.125-0.122,0.262-0.122,0.414c0,0.232,0.088,0.426,0.266,0.581c0.177,0.155,0.437,0.232,0.778,0.232
				c0.338,0,0.639-0.073,0.903-0.22s0.457-0.348,0.581-0.603c0.094-0.197,0.142-0.487,0.142-0.871V7.339z"/>
			<path d="M23.214,9.14l0.127,0.77c-0.247,0.052-0.468,0.078-0.664,0.078c-0.319,0-0.566-0.05-0.742-0.15
				c-0.176-0.1-0.299-0.231-0.371-0.394c-0.072-0.163-0.107-0.506-0.107-1.029V5.456h-0.644V4.778h0.644V3.505l0.873-0.522v1.795
				h0.883v0.678h-0.883v3.006c0,0.249,0.016,0.408,0.046,0.479c0.031,0.071,0.082,0.127,0.151,0.169
				c0.07,0.042,0.17,0.063,0.3,0.063C22.927,9.173,23.055,9.162,23.214,9.14z"/>
			<path d="M26.961,9.919V2.823h2.698c0.475,0,0.837,0.022,1.088,0.067c0.352,0.058,0.646,0.169,0.883,0.332
				c0.237,0.163,0.428,0.392,0.573,0.685c0.145,0.294,0.217,0.616,0.217,0.968c0,0.604-0.194,1.114-0.581,1.532
				c-0.387,0.418-1.086,0.627-2.098,0.627h-1.835v2.885H26.961z M27.908,6.197h1.85c0.611,0,1.045-0.113,1.303-0.339
				c0.257-0.226,0.385-0.544,0.385-0.954c0-0.297-0.076-0.551-0.227-0.762c-0.151-0.211-0.351-0.351-0.598-0.419
				c-0.159-0.042-0.454-0.063-0.883-0.063h-1.83V6.197z"/>
			<path d="M36.83,9.919V9.164c-0.403,0.581-0.952,0.871-1.645,0.871c-0.306,0-0.591-0.058-0.856-0.174s-0.462-0.262-0.59-0.438
				c-0.129-0.176-0.219-0.391-0.271-0.646c-0.036-0.171-0.054-0.442-0.054-0.813V4.778h0.878v2.851c0,0.455,0.018,0.762,0.054,0.92
				c0.055,0.229,0.172,0.409,0.351,0.54s0.4,0.196,0.664,0.196s0.511-0.067,0.742-0.201s0.395-0.316,0.49-0.547
				c0.096-0.231,0.144-0.565,0.144-1.004V4.778h0.878v5.141H36.83z"/>
			<path d="M38.952,9.919V4.778h0.786V5.5c0.163-0.251,0.379-0.454,0.649-0.607c0.27-0.153,0.577-0.23,0.922-0.23
				c0.384,0,0.699,0.08,0.944,0.237c0.246,0.158,0.419,0.379,0.52,0.663c0.41-0.6,0.943-0.9,1.601-0.9
				c0.514,0,0.909,0.142,1.186,0.424s0.415,0.717,0.415,1.304v3.529H45.1V6.681c0-0.349-0.029-0.599-0.085-0.752
				c-0.057-0.153-0.16-0.277-0.31-0.371c-0.149-0.093-0.325-0.14-0.527-0.14c-0.364,0-0.667,0.12-0.908,0.36
				c-0.241,0.241-0.361,0.625-0.361,1.155v2.986H42.03v-3.34c0-0.387-0.071-0.678-0.214-0.871c-0.144-0.194-0.377-0.291-0.703-0.291
				c-0.248,0-0.476,0.064-0.686,0.193c-0.21,0.129-0.362,0.318-0.457,0.566c-0.094,0.249-0.141,0.607-0.141,1.075v2.667H38.952z"/>
			<path d="M47.456,11.889V4.778h0.8v0.668c0.188-0.261,0.401-0.457,0.639-0.588c0.237-0.131,0.525-0.196,0.864-0.196
				c0.442,0,0.833,0.113,1.171,0.339c0.338,0.226,0.593,0.545,0.766,0.956c0.172,0.412,0.258,0.862,0.258,1.353
				c0,0.526-0.095,1-0.285,1.42c-0.19,0.421-0.467,0.744-0.83,0.968s-0.744,0.336-1.144,0.336c-0.293,0-0.556-0.062-0.788-0.184
				c-0.233-0.123-0.424-0.277-0.573-0.464v2.502H47.456z M48.251,7.378c0,0.662,0.135,1.15,0.405,1.466
				c0.27,0.316,0.597,0.475,0.981,0.475c0.39,0,0.725-0.164,1.002-0.491c0.278-0.328,0.417-0.835,0.417-1.522
				c0-0.655-0.136-1.146-0.408-1.472c-0.271-0.326-0.596-0.489-0.973-0.489c-0.375,0-0.705,0.174-0.993,0.521
				C48.395,6.212,48.251,6.716,48.251,7.378z"/>
			<path d="M60.965,7.431l0.947,0.237c-0.199,0.771-0.556,1.359-1.071,1.765c-0.516,0.405-1.146,0.607-1.891,0.607
				c-0.771,0-1.398-0.156-1.881-0.467c-0.483-0.311-0.851-0.762-1.103-1.353c-0.252-0.591-0.378-1.225-0.378-1.902
				c0-0.739,0.143-1.384,0.427-1.934c0.284-0.55,0.689-0.968,1.215-1.253s1.104-0.428,1.734-0.428c0.716,0,1.317,0.181,1.805,0.542
				c0.488,0.361,0.828,0.87,1.02,1.525l-0.932,0.218c-0.166-0.517-0.407-0.893-0.722-1.128s-0.712-0.354-1.19-0.354
				c-0.55,0-1.009,0.131-1.378,0.392c-0.369,0.262-0.628,0.612-0.778,1.053c-0.149,0.44-0.224,0.895-0.224,1.363
				c0,0.604,0.088,1.13,0.266,1.58c0.177,0.45,0.453,0.787,0.827,1.009s0.779,0.334,1.215,0.334c0.53,0,0.979-0.151,1.347-0.455
				C60.586,8.478,60.835,8.028,60.965,7.431z"/>
			<path d="M62.639,7.349c0-0.952,0.267-1.657,0.8-2.115c0.446-0.38,0.989-0.571,1.63-0.571c0.712,0,1.294,0.232,1.747,0.695
				s0.678,1.103,0.678,1.919c0,0.661-0.1,1.182-0.3,1.561c-0.2,0.379-0.491,0.674-0.874,0.884c-0.382,0.209-0.799,0.314-1.251,0.314
				c-0.726,0-1.312-0.231-1.759-0.692S62.639,8.217,62.639,7.349z M63.542,7.349c0,0.658,0.145,1.151,0.434,1.479
				c0.29,0.327,0.654,0.491,1.093,0.491c0.436,0,0.798-0.165,1.088-0.494s0.435-0.831,0.435-1.505c0-0.636-0.146-1.117-0.437-1.445
				s-0.653-0.491-1.085-0.491c-0.439,0-0.804,0.163-1.093,0.489C63.686,6.198,63.542,6.69,63.542,7.349z"/>
			<path d="M68.453,9.919V4.778h0.791v0.731c0.38-0.564,0.93-0.847,1.649-0.847c0.313,0,0.6,0.056,0.861,0.167
				s0.458,0.258,0.588,0.438s0.221,0.395,0.273,0.644c0.032,0.162,0.049,0.444,0.049,0.847v3.161h-0.878V6.792
				c0-0.355-0.034-0.62-0.103-0.796C71.615,5.82,71.494,5.68,71.32,5.575c-0.174-0.105-0.378-0.157-0.612-0.157
				c-0.375,0-0.697,0.118-0.969,0.354c-0.271,0.235-0.407,0.682-0.407,1.34v2.808H68.453z"/>
			<path d="M77.333,9.919V9.271c-0.329,0.51-0.812,0.765-1.449,0.765c-0.413,0-0.793-0.113-1.139-0.339
				c-0.347-0.226-0.615-0.542-0.805-0.946s-0.286-0.871-0.286-1.396c0-0.513,0.086-0.979,0.259-1.396s0.431-0.738,0.776-0.961
				s0.73-0.334,1.156-0.334c0.313,0,0.59,0.065,0.834,0.196s0.442,0.301,0.595,0.511V2.823h0.874v7.096H77.333z M74.556,7.354
				c0,0.658,0.14,1.15,0.419,1.477c0.28,0.326,0.61,0.489,0.991,0.489c0.384,0,0.71-0.156,0.979-0.467
				c0.268-0.311,0.402-0.787,0.402-1.425c0-0.704-0.137-1.22-0.41-1.549c-0.273-0.329-0.61-0.494-1.01-0.494
				c-0.39,0-0.716,0.158-0.978,0.474C74.687,6.174,74.556,6.673,74.556,7.354z"/>
			<path d="M79.493,3.825V2.823h0.878v1.002H79.493z M79.493,9.919V4.778h0.878v5.141H79.493z"/>
			<path d="M83.576,9.14l0.127,0.77c-0.247,0.052-0.468,0.078-0.664,0.078c-0.319,0-0.566-0.05-0.742-0.15
				c-0.176-0.1-0.299-0.231-0.371-0.394c-0.072-0.163-0.107-0.506-0.107-1.029V5.456h-0.644V4.778h0.644V3.505l0.873-0.522v1.795
				h0.883v0.678h-0.883v3.006c0,0.249,0.016,0.408,0.046,0.479c0.031,0.071,0.082,0.127,0.151,0.169
				c0.07,0.042,0.17,0.063,0.3,0.063C83.288,9.173,83.417,9.162,83.576,9.14z"/>
			<path d="M84.439,3.825V2.823h0.878v1.002H84.439z M84.439,9.919V4.778h0.878v5.141H84.439z"/>
			<path d="M86.267,7.349c0-0.952,0.267-1.657,0.8-2.115c0.446-0.38,0.989-0.571,1.63-0.571c0.712,0,1.294,0.232,1.747,0.695
				s0.678,1.103,0.678,1.919c0,0.661-0.1,1.182-0.3,1.561c-0.2,0.379-0.491,0.674-0.874,0.884c-0.382,0.209-0.799,0.314-1.251,0.314
				c-0.726,0-1.312-0.231-1.759-0.692S86.267,8.217,86.267,7.349z M87.17,7.349c0,0.658,0.145,1.151,0.434,1.479
				c0.29,0.327,0.654,0.491,1.093,0.491c0.436,0,0.798-0.165,1.088-0.494S90.22,7.994,90.22,7.32c0-0.636-0.146-1.117-0.437-1.445
				s-0.653-0.491-1.085-0.491c-0.439,0-0.804,0.163-1.093,0.489C87.314,6.198,87.17,6.69,87.17,7.349z"/>
			<path d="M92.112,9.919V4.778h0.791v0.731c0.38-0.564,0.93-0.847,1.649-0.847c0.313,0,0.6,0.056,0.861,0.167
				S95.871,5.087,96,5.268s0.221,0.395,0.273,0.644c0.032,0.162,0.049,0.444,0.049,0.847v3.161h-0.878V6.792
				c0-0.355-0.034-0.62-0.103-0.796c-0.068-0.176-0.189-0.316-0.363-0.421C94.804,5.47,94.6,5.417,94.366,5.417
				c-0.375,0-0.697,0.118-0.969,0.354c-0.271,0.235-0.407,0.682-0.407,1.34v2.808H92.112z"/>
		</g>
		<g clip-path="url(#SVGID_4_)">
			<path d="M105.627,9.919V2.823h3.171c0.638,0,1.122,0.063,1.454,0.191c0.332,0.127,0.597,0.353,0.795,0.675
				c0.198,0.323,0.297,0.679,0.297,1.07c0,0.503-0.164,0.928-0.493,1.273s-0.836,0.564-1.522,0.658
				c0.25,0.12,0.441,0.237,0.571,0.354c0.276,0.251,0.539,0.566,0.786,0.944l1.244,1.931h-1.19l-0.946-1.476
				c-0.277-0.426-0.504-0.752-0.683-0.978c-0.179-0.226-0.339-0.384-0.481-0.474s-0.285-0.153-0.432-0.189
				c-0.107-0.022-0.283-0.034-0.527-0.034h-1.098v3.151H105.627z M106.573,5.955h2.035c0.433,0,0.771-0.044,1.015-0.133
				c0.244-0.089,0.429-0.231,0.556-0.426c0.127-0.195,0.19-0.407,0.19-0.636c0-0.336-0.123-0.612-0.369-0.828
				c-0.246-0.216-0.633-0.325-1.164-0.325h-2.264V5.955z"/>
			<path d="M116.264,8.264l0.907,0.111c-0.143,0.526-0.408,0.934-0.795,1.225c-0.387,0.291-0.881,0.436-1.483,0.436
				c-0.758,0-1.359-0.231-1.803-0.695c-0.444-0.463-0.666-1.112-0.666-1.948c0-0.865,0.225-1.536,0.673-2.013
				c0.449-0.478,1.031-0.717,1.747-0.717c0.693,0,1.259,0.234,1.698,0.702c0.439,0.468,0.659,1.126,0.659,1.975
				c0,0.052-0.001,0.129-0.005,0.232h-3.864c0.033,0.565,0.193,0.997,0.483,1.297c0.29,0.3,0.651,0.45,1.083,0.45
				c0.322,0,0.597-0.084,0.824-0.252C115.95,8.899,116.13,8.631,116.264,8.264z M113.38,6.855h2.894
				c-0.039-0.432-0.15-0.757-0.332-0.973c-0.28-0.336-0.643-0.503-1.088-0.503c-0.403,0-0.743,0.134-1.018,0.401
				C113.561,6.048,113.409,6.407,113.38,6.855z"/>
			<path d="M121.595,8.036l0.864,0.111c-0.095,0.59-0.336,1.053-0.725,1.387s-0.866,0.501-1.432,0.501
				c-0.709,0-1.279-0.23-1.71-0.69c-0.431-0.459-0.646-1.119-0.646-1.977c0-0.555,0.093-1.041,0.278-1.457
				c0.186-0.416,0.468-0.729,0.847-0.937s0.791-0.313,1.237-0.313c0.563,0,1.023,0.142,1.381,0.424
				c0.357,0.282,0.587,0.683,0.688,1.203l-0.854,0.131c-0.082-0.345-0.225-0.605-0.432-0.779s-0.457-0.261-0.749-0.261
				c-0.442,0-0.802,0.157-1.079,0.472c-0.276,0.314-0.415,0.813-0.415,1.493c0,0.691,0.133,1.192,0.4,1.505
				c0.267,0.313,0.615,0.47,1.044,0.47c0.345,0,0.632-0.105,0.864-0.315C121.387,8.794,121.533,8.472,121.595,8.036z"/>
			<path d="M122.913,7.349c0-0.952,0.267-1.657,0.8-2.115c0.446-0.38,0.989-0.571,1.63-0.571c0.712,0,1.294,0.232,1.747,0.695
				s0.678,1.103,0.678,1.919c0,0.661-0.1,1.182-0.3,1.561c-0.2,0.379-0.491,0.674-0.874,0.884c-0.382,0.209-0.799,0.314-1.251,0.314
				c-0.726,0-1.312-0.231-1.759-0.692S122.913,8.217,122.913,7.349z M123.816,7.349c0,0.658,0.145,1.151,0.434,1.479
				c0.29,0.327,0.654,0.491,1.093,0.491c0.436,0,0.798-0.165,1.088-0.494s0.435-0.831,0.435-1.505c0-0.636-0.146-1.117-0.437-1.445
				s-0.653-0.491-1.085-0.491c-0.439,0-0.804,0.163-1.093,0.489C123.96,6.198,123.816,6.69,123.816,7.349z"/>
			<path d="M128.757,9.919V4.778h0.786V5.5c0.163-0.251,0.379-0.454,0.649-0.607c0.27-0.153,0.577-0.23,0.922-0.23
				c0.384,0,0.699,0.08,0.944,0.237c0.246,0.158,0.419,0.379,0.52,0.663c0.41-0.6,0.943-0.9,1.601-0.9
				c0.514,0,0.909,0.142,1.186,0.424s0.415,0.717,0.415,1.304v3.529h-0.873V6.681c0-0.349-0.029-0.599-0.085-0.752
				c-0.057-0.153-0.16-0.277-0.31-0.371c-0.149-0.093-0.325-0.14-0.527-0.14c-0.364,0-0.667,0.12-0.908,0.36
				c-0.241,0.241-0.361,0.625-0.361,1.155v2.986h-0.878v-3.34c0-0.387-0.071-0.678-0.214-0.871
				c-0.144-0.194-0.377-0.291-0.703-0.291c-0.248,0-0.476,0.064-0.686,0.193c-0.21,0.129-0.362,0.318-0.457,0.566
				c-0.094,0.249-0.141,0.607-0.141,1.075v2.667H128.757z"/>
			<path d="M137.261,9.919V4.778h0.786V5.5c0.163-0.251,0.379-0.454,0.649-0.607c0.27-0.153,0.577-0.23,0.922-0.23
				c0.384,0,0.699,0.08,0.944,0.237c0.246,0.158,0.419,0.379,0.52,0.663c0.41-0.6,0.943-0.9,1.601-0.9
				c0.514,0,0.909,0.142,1.186,0.424s0.415,0.717,0.415,1.304v3.529h-0.873V6.681c0-0.349-0.029-0.599-0.085-0.752
				c-0.057-0.153-0.16-0.277-0.31-0.371c-0.149-0.093-0.325-0.14-0.527-0.14c-0.364,0-0.667,0.12-0.908,0.36
				c-0.241,0.241-0.361,0.625-0.361,1.155v2.986h-0.878v-3.34c0-0.387-0.071-0.678-0.214-0.871
				c-0.144-0.194-0.377-0.291-0.703-0.291c-0.248,0-0.476,0.064-0.686,0.193c-0.21,0.129-0.362,0.318-0.457,0.566
				c-0.094,0.249-0.141,0.607-0.141,1.075v2.667H137.261z"/>
			<path d="M149.313,8.264l0.907,0.111c-0.143,0.526-0.408,0.934-0.795,1.225c-0.387,0.291-0.881,0.436-1.483,0.436
				c-0.758,0-1.359-0.231-1.803-0.695c-0.444-0.463-0.666-1.112-0.666-1.948c0-0.865,0.225-1.536,0.673-2.013
				c0.449-0.478,1.031-0.717,1.747-0.717c0.693,0,1.259,0.234,1.698,0.702c0.439,0.468,0.659,1.126,0.659,1.975
				c0,0.052-0.001,0.129-0.005,0.232h-3.864c0.033,0.565,0.193,0.997,0.483,1.297c0.29,0.3,0.651,0.45,1.083,0.45
				c0.322,0,0.597-0.084,0.824-0.252C148.999,8.899,149.179,8.631,149.313,8.264z M146.429,6.855h2.894
				c-0.039-0.432-0.15-0.757-0.332-0.973c-0.28-0.336-0.643-0.503-1.088-0.503c-0.403,0-0.743,0.134-1.018,0.401
				C146.61,6.048,146.458,6.407,146.429,6.855z"/>
			<path d="M151.283,9.919V4.778h0.791v0.731c0.38-0.564,0.93-0.847,1.649-0.847c0.313,0,0.6,0.056,0.861,0.167
				s0.458,0.258,0.588,0.438s0.221,0.395,0.273,0.644c0.032,0.162,0.049,0.444,0.049,0.847v3.161h-0.878V6.792
				c0-0.355-0.034-0.62-0.103-0.796c-0.068-0.176-0.189-0.316-0.363-0.421c-0.174-0.105-0.378-0.157-0.612-0.157
				c-0.375,0-0.697,0.118-0.969,0.354c-0.271,0.235-0.407,0.682-0.407,1.34v2.808H151.283z"/>
			<path d="M160.162,9.919V9.271c-0.329,0.51-0.812,0.765-1.449,0.765c-0.413,0-0.793-0.113-1.139-0.339
				c-0.347-0.226-0.615-0.542-0.805-0.946s-0.286-0.871-0.286-1.396c0-0.513,0.086-0.979,0.259-1.396s0.431-0.738,0.776-0.961
				s0.73-0.334,1.156-0.334c0.313,0,0.59,0.065,0.834,0.196s0.442,0.301,0.595,0.511V2.823h0.874v7.096H160.162z M157.385,7.354
				c0,0.658,0.14,1.15,0.419,1.477c0.28,0.326,0.61,0.489,0.991,0.489c0.384,0,0.71-0.156,0.979-0.467
				c0.268-0.311,0.402-0.787,0.402-1.425c0-0.704-0.137-1.22-0.41-1.549c-0.273-0.329-0.61-0.494-1.01-0.494
				c-0.39,0-0.716,0.158-0.978,0.474C157.516,6.174,157.385,6.673,157.385,7.354z"/>
			<path d="M165.865,8.264l0.907,0.111c-0.143,0.526-0.408,0.934-0.795,1.225c-0.387,0.291-0.881,0.436-1.483,0.436
				c-0.758,0-1.359-0.231-1.803-0.695c-0.444-0.463-0.666-1.112-0.666-1.948c0-0.865,0.225-1.536,0.673-2.013
				c0.449-0.478,1.031-0.717,1.747-0.717c0.693,0,1.259,0.234,1.698,0.702c0.439,0.468,0.659,1.126,0.659,1.975
				c0,0.052-0.001,0.129-0.005,0.232h-3.864c0.033,0.565,0.193,0.997,0.483,1.297c0.29,0.3,0.651,0.45,1.083,0.45
				c0.322,0,0.597-0.084,0.824-0.252C165.551,8.899,165.731,8.631,165.865,8.264z M162.981,6.855h2.894
				c-0.039-0.432-0.15-0.757-0.332-0.973c-0.28-0.336-0.643-0.503-1.088-0.503c-0.403,0-0.743,0.134-1.018,0.401
				C163.162,6.048,163.01,6.407,162.981,6.855z"/>
			<path d="M171.197,9.919V9.271c-0.329,0.51-0.812,0.765-1.449,0.765c-0.413,0-0.793-0.113-1.139-0.339
				c-0.347-0.226-0.615-0.542-0.805-0.946s-0.286-0.871-0.286-1.396c0-0.513,0.086-0.979,0.259-1.396s0.431-0.738,0.776-0.961
				s0.73-0.334,1.156-0.334c0.313,0,0.59,0.065,0.834,0.196s0.442,0.301,0.595,0.511V2.823h0.874v7.096H171.197z M168.42,7.354
				c0,0.658,0.14,1.15,0.419,1.477c0.28,0.326,0.61,0.489,0.991,0.489c0.384,0,0.71-0.156,0.979-0.467
				c0.268-0.311,0.402-0.787,0.402-1.425c0-0.704-0.137-1.22-0.41-1.549c-0.273-0.329-0.61-0.494-1.01-0.494
				c-0.39,0-0.716,0.158-0.978,0.474C168.551,6.174,168.42,6.673,168.42,7.354z"/>
			<path d="M178.285,9.919l-2.771-7.096h1.024l1.859,5.155c0.149,0.413,0.274,0.8,0.375,1.162c0.11-0.387,0.239-0.774,0.385-1.162
				l1.933-5.155h0.966l-2.801,7.096H178.285z"/>
			<path d="M186.105,9.285c-0.325,0.274-0.639,0.468-0.939,0.581s-0.624,0.169-0.968,0.169c-0.569,0-1.007-0.138-1.313-0.414
				s-0.459-0.628-0.459-1.058c0-0.251,0.058-0.481,0.173-0.689c0.116-0.208,0.267-0.375,0.454-0.501
				c0.187-0.126,0.397-0.221,0.632-0.286c0.172-0.045,0.432-0.089,0.78-0.131c0.709-0.084,1.231-0.184,1.566-0.3
				c0.003-0.12,0.005-0.195,0.005-0.228c0-0.355-0.083-0.605-0.249-0.75c-0.224-0.197-0.558-0.295-1-0.295
				c-0.413,0-0.718,0.072-0.915,0.215s-0.342,0.397-0.437,0.762l-0.859-0.116c0.078-0.365,0.207-0.659,0.386-0.883
				c0.179-0.224,0.438-0.397,0.775-0.518c0.338-0.121,0.73-0.182,1.176-0.182c0.442,0,0.802,0.052,1.078,0.155
				c0.276,0.103,0.48,0.233,0.61,0.39c0.13,0.156,0.221,0.354,0.273,0.593c0.029,0.148,0.044,0.417,0.044,0.804v1.162
				c0,0.81,0.019,1.322,0.056,1.537c0.037,0.215,0.111,0.42,0.222,0.617h-0.917C186.189,9.738,186.131,9.527,186.105,9.285z
				 M186.032,7.339c-0.319,0.129-0.797,0.239-1.435,0.329c-0.361,0.052-0.616,0.11-0.766,0.174
				c-0.149,0.065-0.265,0.159-0.346,0.283c-0.082,0.125-0.122,0.262-0.122,0.414c0,0.232,0.088,0.426,0.266,0.581
				c0.177,0.155,0.437,0.232,0.778,0.232c0.338,0,0.639-0.073,0.903-0.22s0.457-0.348,0.581-0.603
				c0.094-0.197,0.142-0.487,0.142-0.871V7.339z"/>
			<path d="M188.222,9.919V2.823h0.878v7.096H188.222z"/>
			<path d="M193.807,9.919V9.164c-0.403,0.581-0.952,0.871-1.645,0.871c-0.306,0-0.591-0.058-0.856-0.174s-0.462-0.262-0.59-0.438
				c-0.129-0.176-0.219-0.391-0.271-0.646c-0.036-0.171-0.054-0.442-0.054-0.813V4.778h0.878v2.851c0,0.455,0.018,0.762,0.054,0.92
				c0.055,0.229,0.172,0.409,0.351,0.54s0.4,0.196,0.664,0.196s0.511-0.067,0.742-0.201s0.395-0.316,0.49-0.547
				c0.096-0.231,0.144-0.565,0.144-1.004V4.778h0.878v5.141H193.807z"/>
			<path d="M199.476,8.264l0.907,0.111c-0.143,0.526-0.408,0.934-0.795,1.225c-0.387,0.291-0.881,0.436-1.483,0.436
				c-0.758,0-1.359-0.231-1.803-0.695c-0.444-0.463-0.666-1.112-0.666-1.948c0-0.865,0.225-1.536,0.673-2.013
				c0.449-0.478,1.031-0.717,1.747-0.717c0.693,0,1.259,0.234,1.698,0.702c0.439,0.468,0.659,1.126,0.659,1.975
				c0,0.052-0.001,0.129-0.005,0.232h-3.864c0.033,0.565,0.193,0.997,0.483,1.297c0.29,0.3,0.651,0.45,1.083,0.45
				c0.322,0,0.597-0.084,0.824-0.252C199.162,8.899,199.342,8.631,199.476,8.264z M196.592,6.855h2.894
				c-0.039-0.432-0.15-0.757-0.332-0.973c-0.28-0.336-0.643-0.503-1.088-0.503c-0.403,0-0.743,0.134-1.018,0.401
				C196.773,6.048,196.622,6.407,196.592,6.855z"/>
			<path d="M201.095,8.385l0.868-0.136c0.049,0.345,0.185,0.61,0.408,0.794c0.223,0.184,0.534,0.276,0.934,0.276
				c0.403,0,0.703-0.082,0.898-0.245c0.195-0.163,0.292-0.354,0.292-0.574c0-0.197-0.086-0.352-0.258-0.464
				c-0.121-0.078-0.42-0.176-0.898-0.295c-0.644-0.161-1.09-0.301-1.339-0.418c-0.249-0.118-0.438-0.281-0.566-0.489
				c-0.128-0.208-0.193-0.438-0.193-0.689c0-0.229,0.053-0.441,0.159-0.637c0.105-0.195,0.25-0.357,0.432-0.486
				c0.137-0.1,0.323-0.185,0.559-0.254c0.236-0.069,0.488-0.104,0.758-0.104c0.407,0,0.764,0.058,1.071,0.174
				c0.307,0.116,0.534,0.273,0.681,0.472c0.146,0.198,0.247,0.464,0.302,0.796l-0.858,0.116c-0.039-0.264-0.152-0.471-0.339-0.619
				s-0.451-0.223-0.793-0.223c-0.403,0-0.691,0.066-0.863,0.198c-0.173,0.132-0.259,0.287-0.259,0.465
				c0,0.113,0.036,0.214,0.107,0.305c0.071,0.094,0.184,0.171,0.336,0.232c0.088,0.032,0.347,0.106,0.776,0.223
				c0.622,0.165,1.055,0.299,1.3,0.404s0.438,0.257,0.578,0.458c0.14,0.2,0.21,0.448,0.21,0.745c0,0.291-0.085,0.564-0.256,0.82
				c-0.17,0.257-0.417,0.455-0.739,0.596c-0.322,0.14-0.687,0.21-1.093,0.21c-0.673,0-1.187-0.139-1.539-0.417
				C201.418,9.341,201.192,8.93,201.095,8.385z"/>
		</g>
		<g clip-path="url(#SVGID_4_)">
			<path d="M4.998,22.209V15.95H2.641v-0.837h5.669v0.837H5.944v6.259H4.998z"/>
			<path d="M9.25,24.188l-0.098-0.818c0.192,0.052,0.359,0.078,0.502,0.078c0.195,0,0.352-0.032,0.469-0.097
				c0.117-0.064,0.213-0.155,0.288-0.271c0.056-0.087,0.145-0.303,0.269-0.648c0.016-0.048,0.042-0.12,0.078-0.213l-1.966-5.15
				h0.946l1.079,2.977c0.14,0.377,0.265,0.774,0.375,1.19c0.101-0.4,0.221-0.791,0.361-1.171l1.107-2.997h0.878l-1.971,5.228
				c-0.212,0.565-0.376,0.954-0.493,1.167c-0.156,0.288-0.335,0.498-0.537,0.632s-0.442,0.201-0.722,0.201
				C9.647,24.295,9.458,24.26,9.25,24.188z"/>
			<path d="M13.966,24.179v-7.111h0.8v0.668c0.188-0.261,0.401-0.457,0.639-0.588c0.237-0.131,0.525-0.196,0.864-0.196
				c0.442,0,0.833,0.113,1.171,0.339c0.338,0.226,0.593,0.545,0.766,0.956c0.172,0.412,0.258,0.862,0.258,1.353
				c0,0.526-0.095,1-0.285,1.42c-0.19,0.421-0.467,0.744-0.83,0.968s-0.744,0.336-1.144,0.336c-0.293,0-0.556-0.062-0.788-0.184
				c-0.233-0.123-0.424-0.277-0.573-0.464v2.502H13.966z M14.761,19.668c0,0.662,0.135,1.15,0.405,1.466
				c0.27,0.316,0.597,0.475,0.981,0.475c0.39,0,0.725-0.164,1.002-0.491c0.278-0.328,0.417-0.835,0.417-1.522
				c0-0.655-0.136-1.146-0.408-1.472c-0.271-0.326-0.596-0.489-0.973-0.489c-0.375,0-0.705,0.174-0.993,0.521
				C14.905,18.502,14.761,19.006,14.761,19.668z"/>
			<path d="M19.488,16.115v-1.002h0.878v1.002H19.488z M19.488,22.209v-5.141h0.878v5.141H19.488z"/>
			<path d="M25.035,20.326l0.864,0.111c-0.095,0.59-0.336,1.053-0.725,1.387s-0.866,0.501-1.432,0.501
				c-0.709,0-1.279-0.23-1.71-0.69c-0.431-0.459-0.646-1.119-0.646-1.977c0-0.555,0.093-1.041,0.278-1.457
				c0.186-0.416,0.468-0.729,0.847-0.937s0.791-0.313,1.237-0.313c0.563,0,1.023,0.142,1.381,0.424
				c0.357,0.282,0.587,0.683,0.688,1.203l-0.854,0.131c-0.082-0.345-0.225-0.605-0.432-0.779s-0.457-0.261-0.749-0.261
				c-0.442,0-0.802,0.157-1.079,0.472c-0.276,0.314-0.415,0.813-0.415,1.493c0,0.691,0.133,1.192,0.4,1.505
				c0.267,0.313,0.615,0.47,1.044,0.47c0.345,0,0.632-0.105,0.864-0.315C24.826,21.084,24.973,20.762,25.035,20.326z"/>
			<path d="M30.061,21.575c-0.325,0.274-0.639,0.468-0.939,0.581s-0.624,0.169-0.968,0.169c-0.569,0-1.007-0.138-1.313-0.414
				s-0.459-0.628-0.459-1.058c0-0.251,0.058-0.481,0.173-0.689c0.116-0.208,0.267-0.375,0.454-0.501
				c0.187-0.126,0.397-0.221,0.632-0.286c0.172-0.045,0.432-0.089,0.78-0.131c0.709-0.084,1.231-0.184,1.566-0.3
				c0.003-0.12,0.005-0.195,0.005-0.228c0-0.355-0.083-0.605-0.249-0.75c-0.224-0.197-0.558-0.295-1-0.295
				c-0.413,0-0.718,0.072-0.915,0.215s-0.342,0.397-0.437,0.762l-0.859-0.116c0.078-0.365,0.207-0.659,0.386-0.883
				c0.179-0.224,0.438-0.397,0.775-0.518c0.338-0.121,0.73-0.182,1.176-0.182c0.442,0,0.802,0.052,1.078,0.155
				c0.276,0.103,0.48,0.233,0.61,0.39c0.13,0.156,0.221,0.354,0.273,0.593c0.029,0.148,0.044,0.417,0.044,0.804v1.162
				c0,0.81,0.019,1.322,0.056,1.537c0.037,0.215,0.111,0.42,0.222,0.617h-0.917C30.146,22.028,30.087,21.817,30.061,21.575z
				 M29.988,19.629c-0.319,0.129-0.797,0.239-1.435,0.329c-0.361,0.052-0.616,0.11-0.766,0.174
				c-0.149,0.065-0.265,0.159-0.346,0.283c-0.082,0.125-0.122,0.262-0.122,0.414c0,0.232,0.088,0.426,0.266,0.581
				c0.177,0.155,0.437,0.232,0.778,0.232c0.338,0,0.639-0.073,0.903-0.22s0.457-0.348,0.581-0.603
				c0.094-0.197,0.142-0.487,0.142-0.871V19.629z"/>
			<path d="M32.177,22.209v-7.096h0.878v7.096H32.177z"/>
		</g>
		<g clip-path="url(#SVGID_4_)">
			<path d="M147.735,18.709c0-0.839,0.087-1.514,0.261-2.026c0.174-0.511,0.433-0.906,0.776-1.183
				c0.343-0.278,0.775-0.417,1.295-0.417c0.384,0,0.72,0.077,1.01,0.23s0.529,0.375,0.717,0.663
				c0.189,0.289,0.337,0.641,0.444,1.055c0.107,0.415,0.161,0.974,0.161,1.677c0,0.833-0.086,1.504-0.258,2.016
				c-0.172,0.511-0.43,0.907-0.773,1.186c-0.343,0.279-0.777,0.419-1.3,0.419c-0.69,0-1.231-0.245-1.625-0.736
				C147.971,21.004,147.735,20.042,147.735,18.709z M148.638,18.709c0,1.165,0.137,1.94,0.412,2.326s0.614,0.579,1.018,0.579
				s0.742-0.194,1.017-0.581s0.413-1.162,0.413-2.323c0-1.168-0.138-1.944-0.413-2.328c-0.275-0.384-0.617-0.576-1.027-0.576
				c-0.403,0-0.726,0.169-0.966,0.508C148.789,16.746,148.638,17.544,148.638,18.709z"/>
			<path d="M153.746,22.209v-0.992h1v0.992H153.746z"/>
			<path d="M156.029,18.709c0-0.839,0.087-1.514,0.261-2.026c0.174-0.511,0.433-0.906,0.776-1.183
				c0.343-0.278,0.775-0.417,1.295-0.417c0.384,0,0.72,0.077,1.01,0.23s0.529,0.375,0.717,0.663
				c0.189,0.289,0.337,0.641,0.444,1.055c0.107,0.415,0.161,0.974,0.161,1.677c0,0.833-0.086,1.504-0.258,2.016
				c-0.172,0.511-0.43,0.907-0.773,1.186c-0.343,0.279-0.777,0.419-1.3,0.419c-0.69,0-1.231-0.245-1.625-0.736
				C156.265,21.004,156.029,20.042,156.029,18.709z M156.932,18.709c0,1.165,0.137,1.94,0.412,2.326s0.614,0.579,1.018,0.579
				s0.742-0.194,1.017-0.581s0.413-1.162,0.413-2.323c0-1.168-0.138-1.944-0.413-2.328c-0.275-0.384-0.617-0.576-1.027-0.576
				c-0.403,0-0.726,0.169-0.966,0.508C157.083,16.746,156.932,17.544,156.932,18.709z"/>
			<path d="M164.844,22.209h-0.878v-5.552c-0.211,0.2-0.489,0.4-0.832,0.6s-0.651,0.35-0.925,0.45v-0.842
				c0.491-0.229,0.921-0.506,1.288-0.833c0.368-0.326,0.628-0.642,0.781-0.949h0.566V22.209z"/>
		</g>
		<g clip-path="url(#SVGID_4_)">
			<path d="M6.525,31.715v-0.833l3.03-0.005v2.633c-0.465,0.368-0.945,0.645-1.439,0.83c-0.494,0.186-1.002,0.278-1.522,0.278
				c-0.703,0-1.341-0.149-1.915-0.448c-0.574-0.298-1.008-0.73-1.3-1.295c-0.293-0.564-0.439-1.195-0.439-1.893
				c0-0.69,0.146-1.335,0.437-1.934c0.291-0.599,0.709-1.043,1.256-1.333c0.546-0.291,1.176-0.436,1.888-0.436
				c0.517,0,0.985,0.083,1.403,0.249c0.418,0.167,0.746,0.398,0.983,0.695s0.418,0.684,0.542,1.162l-0.854,0.232
				c-0.107-0.361-0.241-0.646-0.4-0.852c-0.159-0.207-0.387-0.372-0.683-0.496s-0.625-0.187-0.985-0.187
				c-0.433,0-0.807,0.065-1.123,0.196c-0.315,0.13-0.57,0.302-0.763,0.515c-0.194,0.213-0.344,0.447-0.452,0.702
				c-0.182,0.439-0.273,0.915-0.273,1.428c0,0.633,0.11,1.162,0.329,1.588c0.22,0.426,0.539,0.742,0.959,0.949
				c0.419,0.207,0.865,0.31,1.337,0.31c0.41,0,0.81-0.078,1.2-0.235c0.39-0.156,0.686-0.323,0.888-0.501v-1.321H6.525z"/>
			<path d="M10.511,31.928c0-0.952,0.267-1.657,0.8-2.115c0.446-0.38,0.989-0.571,1.63-0.571c0.712,0,1.294,0.232,1.747,0.695
				s0.678,1.103,0.678,1.919c0,0.661-0.1,1.182-0.3,1.561c-0.2,0.379-0.491,0.674-0.874,0.884c-0.382,0.209-0.799,0.314-1.251,0.314
				c-0.726,0-1.312-0.231-1.759-0.692S10.511,32.796,10.511,31.928z M11.414,31.928c0,0.658,0.145,1.151,0.434,1.479
				c0.29,0.327,0.654,0.491,1.093,0.491c0.436,0,0.798-0.165,1.088-0.494s0.435-0.831,0.435-1.505c0-0.636-0.146-1.117-0.437-1.445
				s-0.653-0.491-1.085-0.491c-0.439,0-0.804,0.163-1.093,0.489C11.558,30.777,11.414,31.27,11.414,31.928z"/>
			<path d="M16.068,31.928c0-0.952,0.267-1.657,0.8-2.115c0.446-0.38,0.989-0.571,1.63-0.571c0.712,0,1.294,0.232,1.747,0.695
				s0.678,1.103,0.678,1.919c0,0.661-0.1,1.182-0.3,1.561c-0.2,0.379-0.491,0.674-0.874,0.884c-0.382,0.209-0.799,0.314-1.251,0.314
				c-0.726,0-1.312-0.231-1.759-0.692S16.068,32.796,16.068,31.928z M16.971,31.928c0,0.658,0.145,1.151,0.434,1.479
				c0.29,0.327,0.654,0.491,1.093,0.491c0.436,0,0.798-0.165,1.088-0.494s0.435-0.831,0.435-1.505c0-0.636-0.146-1.117-0.437-1.445
				s-0.653-0.491-1.085-0.491c-0.439,0-0.804,0.163-1.093,0.489C17.116,30.777,16.971,31.27,16.971,31.928z"/>
			<path d="M25.255,34.498V33.85c-0.329,0.51-0.812,0.765-1.449,0.765c-0.413,0-0.793-0.113-1.139-0.339
				c-0.347-0.226-0.615-0.542-0.805-0.946s-0.286-0.871-0.286-1.396c0-0.513,0.086-0.979,0.259-1.396s0.431-0.738,0.776-0.961
				s0.73-0.334,1.156-0.334c0.313,0,0.59,0.065,0.834,0.196s0.442,0.301,0.595,0.511v-2.546h0.874v7.096H25.255z M22.479,31.933
				c0,0.658,0.14,1.15,0.419,1.477c0.28,0.326,0.61,0.489,0.991,0.489c0.384,0,0.71-0.156,0.979-0.467
				c0.268-0.311,0.402-0.787,0.402-1.425c0-0.704-0.137-1.22-0.41-1.549c-0.273-0.329-0.61-0.494-1.01-0.494
				c-0.39,0-0.716,0.158-0.978,0.474C22.609,30.753,22.479,31.252,22.479,31.933z"/>
		</g>
		<g clip-path="url(#SVGID_4_)">
			<path d="M147.735,30.999c0-0.839,0.087-1.514,0.261-2.026c0.174-0.511,0.433-0.906,0.776-1.183
				c0.343-0.278,0.775-0.417,1.295-0.417c0.384,0,0.72,0.077,1.01,0.23s0.529,0.375,0.717,0.663
				c0.189,0.289,0.337,0.641,0.444,1.055c0.107,0.415,0.161,0.974,0.161,1.677c0,0.833-0.086,1.504-0.258,2.016
				c-0.172,0.511-0.43,0.907-0.773,1.186c-0.343,0.279-0.777,0.419-1.3,0.419c-0.69,0-1.231-0.245-1.625-0.736
				C147.971,33.293,147.735,32.331,147.735,30.999z M148.638,30.999c0,1.165,0.137,1.94,0.412,2.326s0.614,0.579,1.018,0.579
				s0.742-0.194,1.017-0.581s0.413-1.162,0.413-2.323c0-1.168-0.138-1.944-0.413-2.328c-0.275-0.384-0.617-0.576-1.027-0.576
				c-0.403,0-0.726,0.169-0.966,0.508C148.789,29.035,148.638,29.833,148.638,30.999z"/>
			<path d="M153.746,34.498v-0.992h1v0.992H153.746z"/>
			<path d="M156.029,30.999c0-0.839,0.087-1.514,0.261-2.026c0.174-0.511,0.433-0.906,0.776-1.183
				c0.343-0.278,0.775-0.417,1.295-0.417c0.384,0,0.72,0.077,1.01,0.23s0.529,0.375,0.717,0.663
				c0.189,0.289,0.337,0.641,0.444,1.055c0.107,0.415,0.161,0.974,0.161,1.677c0,0.833-0.086,1.504-0.258,2.016
				c-0.172,0.511-0.43,0.907-0.773,1.186c-0.343,0.279-0.777,0.419-1.3,0.419c-0.69,0-1.231-0.245-1.625-0.736
				C156.265,33.293,156.029,32.331,156.029,30.999z M156.932,30.999c0,1.165,0.137,1.94,0.412,2.326s0.614,0.579,1.018,0.579
				s0.742-0.194,1.017-0.581s0.413-1.162,0.413-2.323c0-1.168-0.138-1.944-0.413-2.328c-0.275-0.384-0.617-0.576-1.027-0.576
				c-0.403,0-0.726,0.169-0.966,0.508C157.083,29.035,156.932,29.833,156.932,30.999z"/>
			<path d="M164.844,34.498h-0.878v-5.552c-0.211,0.2-0.489,0.4-0.832,0.6s-0.651,0.35-0.925,0.45v-0.842
				c0.491-0.229,0.921-0.506,1.288-0.833c0.368-0.326,0.628-0.642,0.781-0.949h0.566V34.498z"/>
		</g>
		<g clip-path="url(#SVGID_4_)">
			<path d="M3.178,46.811v-7.096h2.698c0.475,0,0.837,0.022,1.088,0.067c0.352,0.058,0.646,0.169,0.883,0.332
				c0.237,0.163,0.428,0.392,0.573,0.685c0.145,0.294,0.217,0.616,0.217,0.968c0,0.604-0.194,1.114-0.581,1.532
				c-0.387,0.418-1.086,0.627-2.098,0.627H4.124v2.885H3.178z M4.124,43.088h1.85c0.611,0,1.045-0.113,1.303-0.339
				c0.257-0.226,0.385-0.544,0.385-0.954c0-0.297-0.076-0.551-0.227-0.762c-0.151-0.211-0.351-0.351-0.598-0.419
				c-0.159-0.042-0.454-0.063-0.883-0.063h-1.83V43.088z"/>
			<path d="M9.343,44.24c0-0.952,0.267-1.657,0.8-2.115c0.446-0.38,0.989-0.571,1.63-0.571c0.712,0,1.294,0.232,1.747,0.695
				s0.678,1.103,0.678,1.919c0,0.661-0.1,1.182-0.3,1.561c-0.2,0.379-0.491,0.674-0.874,0.884c-0.382,0.209-0.799,0.314-1.251,0.314
				c-0.726,0-1.312-0.231-1.759-0.692S9.343,45.108,9.343,44.24z M10.246,44.24c0,0.658,0.145,1.151,0.434,1.479
				c0.29,0.327,0.654,0.491,1.093,0.491c0.436,0,0.798-0.165,1.088-0.494s0.435-0.831,0.435-1.505c0-0.636-0.146-1.117-0.437-1.445
				s-0.653-0.491-1.085-0.491c-0.439,0-0.804,0.163-1.093,0.489C10.391,43.09,10.246,43.582,10.246,44.24z"/>
			<path d="M14.861,44.24c0-0.952,0.267-1.657,0.8-2.115c0.446-0.38,0.989-0.571,1.63-0.571c0.712,0,1.294,0.232,1.747,0.695
				s0.678,1.103,0.678,1.919c0,0.661-0.1,1.182-0.3,1.561c-0.2,0.379-0.491,0.674-0.874,0.884c-0.382,0.209-0.799,0.314-1.251,0.314
				c-0.726,0-1.312-0.231-1.759-0.692S14.861,45.108,14.861,44.24z M15.764,44.24c0,0.658,0.145,1.151,0.434,1.479
				c0.29,0.327,0.654,0.491,1.093,0.491c0.436,0,0.798-0.165,1.088-0.494s0.435-0.831,0.435-1.505c0-0.636-0.146-1.117-0.437-1.445
				s-0.653-0.491-1.085-0.491c-0.439,0-0.804,0.163-1.093,0.489C15.908,43.09,15.764,43.582,15.764,44.24z"/>
			<path d="M20.696,46.811V41.67h0.791v0.779c0.202-0.364,0.388-0.605,0.559-0.721s0.358-0.174,0.563-0.174
				c0.296,0,0.597,0.094,0.903,0.281l-0.303,0.809c-0.214-0.126-0.429-0.189-0.644-0.189c-0.192,0-0.364,0.058-0.517,0.172
				c-0.153,0.115-0.262,0.273-0.327,0.477c-0.097,0.31-0.146,0.648-0.146,1.016v2.691H20.696z"/>
		</g>
		<g clip-path="url(#SVGID_4_)">
			<path d="M147.735,43.311c0-0.839,0.087-1.514,0.261-2.026c0.174-0.511,0.433-0.906,0.776-1.183
				c0.343-0.278,0.775-0.417,1.295-0.417c0.384,0,0.72,0.077,1.01,0.23s0.529,0.375,0.717,0.663
				c0.189,0.289,0.337,0.641,0.444,1.055c0.107,0.415,0.161,0.974,0.161,1.677c0,0.833-0.086,1.504-0.258,2.016
				c-0.172,0.511-0.43,0.907-0.773,1.186c-0.343,0.279-0.777,0.419-1.3,0.419c-0.69,0-1.231-0.245-1.625-0.736
				C147.971,45.605,147.735,44.644,147.735,43.311z M148.638,43.311c0,1.165,0.137,1.94,0.412,2.326s0.614,0.579,1.018,0.579
				s0.742-0.194,1.017-0.581s0.413-1.162,0.413-2.323c0-1.168-0.138-1.944-0.413-2.328c-0.275-0.384-0.617-0.576-1.027-0.576
				c-0.403,0-0.726,0.169-0.966,0.508C148.789,41.348,148.638,42.146,148.638,43.311z"/>
			<path d="M153.746,46.811v-0.992h1v0.992H153.746z"/>
			<path d="M156.029,43.311c0-0.839,0.087-1.514,0.261-2.026c0.174-0.511,0.433-0.906,0.776-1.183
				c0.343-0.278,0.775-0.417,1.295-0.417c0.384,0,0.72,0.077,1.01,0.23s0.529,0.375,0.717,0.663
				c0.189,0.289,0.337,0.641,0.444,1.055c0.107,0.415,0.161,0.974,0.161,1.677c0,0.833-0.086,1.504-0.258,2.016
				c-0.172,0.511-0.43,0.907-0.773,1.186c-0.343,0.279-0.777,0.419-1.3,0.419c-0.69,0-1.231-0.245-1.625-0.736
				C156.265,45.605,156.029,44.644,156.029,43.311z M156.932,43.311c0,1.165,0.137,1.94,0.412,2.326s0.614,0.579,1.018,0.579
				s0.742-0.194,1.017-0.581s0.413-1.162,0.413-2.323c0-1.168-0.138-1.944-0.413-2.328c-0.275-0.384-0.617-0.576-1.027-0.576
				c-0.403,0-0.726,0.169-0.966,0.508C157.083,41.348,156.932,42.146,156.932,43.311z"/>
			<path d="M161.541,44.938l0.878-0.116c0.101,0.494,0.272,0.849,0.515,1.067c0.242,0.218,0.538,0.327,0.886,0.327
				c0.413,0,0.762-0.142,1.046-0.426c0.285-0.284,0.427-0.635,0.427-1.055c0-0.4-0.132-0.73-0.396-0.99
				c-0.263-0.26-0.599-0.39-1.005-0.39c-0.166,0-0.373,0.032-0.62,0.097l0.098-0.765c0.059,0.006,0.105,0.01,0.141,0.01
				c0.374,0,0.711-0.097,1.01-0.291c0.299-0.193,0.449-0.492,0.449-0.896c0-0.319-0.109-0.584-0.327-0.793
				c-0.218-0.21-0.5-0.315-0.844-0.315c-0.342,0-0.626,0.106-0.854,0.319c-0.228,0.213-0.374,0.533-0.439,0.958l-0.878-0.155
				c0.107-0.584,0.352-1.037,0.732-1.358c0.381-0.321,0.854-0.481,1.42-0.481c0.39,0,0.75,0.083,1.078,0.25
				c0.329,0.166,0.58,0.393,0.754,0.68c0.174,0.288,0.261,0.592,0.261,0.915c0,0.307-0.083,0.585-0.249,0.837
				c-0.166,0.251-0.412,0.452-0.737,0.6c0.423,0.097,0.751,0.298,0.986,0.603c0.234,0.305,0.351,0.687,0.351,1.145
				c0,0.62-0.228,1.145-0.683,1.575c-0.455,0.431-1.031,0.646-1.727,0.646c-0.628,0-1.149-0.186-1.564-0.557
				C161.836,46.009,161.6,45.528,161.541,44.938z"/>
		</g>
	</g>
	<g clip-path="url(#SVGID_2_)">
		<defs>
			<rect id="SVGID_5_" y="0" width="210.671" height="50.136"/>
		</defs>
		<clipPath id="SVGID_6_">
			<use xlink:href="#SVGID_5_"  overflow="visible"/>
		</clipPath>
		
			<line clip-path="url(#SVGID_6_)" fill="none" stroke="#000000" stroke-width="0.1388" stroke-linecap="square" stroke-linejoin="round" stroke-miterlimit="10" x1="0.373" y1="0.371" x2="0.373" y2="50.387"/>
		<rect y="0" clip-path="url(#SVGID_6_)" fill-rule="evenodd" clip-rule="evenodd" width="0.963" height="50.136"/>
		
			<line clip-path="url(#SVGID_6_)" fill="none" stroke="#000000" stroke-width="0.1388" stroke-linecap="square" stroke-linejoin="round" stroke-miterlimit="10" x1="102.833" y1="1.327" x2="102.833" y2="50.387"/>
		<rect x="102.454" y="0.956" clip-path="url(#SVGID_6_)" fill-rule="evenodd" clip-rule="evenodd" width="0.963" height="49.18"/>
		
			<line clip-path="url(#SVGID_6_)" fill="none" stroke="#000000" stroke-width="0.1388" stroke-linecap="square" stroke-linejoin="round" stroke-miterlimit="10" x1="210.084" y1="1.327" x2="210.084" y2="50.387"/>
		<rect x="209.706" y="0.956" clip-path="url(#SVGID_6_)" fill-rule="evenodd" clip-rule="evenodd" width="0.963" height="49.18"/>
		
			<line clip-path="url(#SVGID_6_)" fill="none" stroke="#000000" stroke-width="0.1388" stroke-linecap="square" stroke-linejoin="round" stroke-miterlimit="10" x1="1.336" y1="0.371" x2="210.92" y2="0.371"/>
		<rect x="0.963" clip-path="url(#SVGID_6_)" fill-rule="evenodd" clip-rule="evenodd" width="209.706" height="0.957"/>
		
			<line clip-path="url(#SVGID_6_)" fill="none" stroke="#000000" stroke-width="0.1388" stroke-linecap="square" stroke-linejoin="round" stroke-miterlimit="10" x1="1.336" y1="12.66" x2="210.92" y2="12.66"/>
		<rect x="0.963" y="12.289" clip-path="url(#SVGID_6_)" fill-rule="evenodd" clip-rule="evenodd" width="209.706" height="0.957"/>
		
			<line clip-path="url(#SVGID_6_)" fill="none" stroke="#000000" stroke-width="0.1388" stroke-linecap="square" stroke-linejoin="round" stroke-miterlimit="10" x1="1.336" y1="24.973" x2="210.92" y2="24.973"/>
		<rect x="0.963" y="24.602" clip-path="url(#SVGID_6_)" fill-rule="evenodd" clip-rule="evenodd" width="209.706" height="0.957"/>
		
			<line clip-path="url(#SVGID_6_)" fill="none" stroke="#000000" stroke-width="0.1388" stroke-linecap="square" stroke-linejoin="round" stroke-miterlimit="10" x1="1.336" y1="37.261" x2="210.92" y2="37.261"/>
		<rect x="0.963" y="36.891" clip-path="url(#SVGID_6_)" fill-rule="evenodd" clip-rule="evenodd" width="209.706" height="0.956"/>
		
			<line clip-path="url(#SVGID_6_)" fill="none" stroke="#000000" stroke-width="0.1388" stroke-linecap="square" stroke-linejoin="round" stroke-miterlimit="10" x1="1.336" y1="49.55" x2="210.92" y2="49.55"/>
		<rect x="0.963" y="49.18" clip-path="url(#SVGID_6_)" fill-rule="evenodd" clip-rule="evenodd" width="209.706" height="0.957"/>
	</g>
</g>
<g>
</g>
<g>
</g>
</svg>
