<?xml version="1.0" encoding="utf-8"?>
<!-- Generator: Adobe Illustrator 16.0.0, SVG Export Plug-In . SVG Version: 6.00 Build 0)  -->
<!DOCTYPE svg PUBLIC "-//W3C//DTD SVG 1.1//EN" "http://www.w3.org/Graphics/SVG/1.1/DTD/svg11.dtd">
<svg version="1.1" id="Layer_1" xmlns="http://www.w3.org/2000/svg" xmlns:xlink="http://www.w3.org/1999/xlink" x="0px" y="0px"
	 width="213.001px" height="73.29px" viewBox="0 0 213.001 73.29" enable-background="new 0 0 213.001 73.29" xml:space="preserve">
<g>
	<defs>
		<rect id="SVGID_1_" x="0.036" width="210.502" height="50.399"/>
	</defs>
	<clipPath id="SVGID_2_">
		<use xlink:href="#SVGID_1_"  overflow="visible"/>
	</clipPath>
	<g clip-path="url(#SVGID_2_)">
		<defs>
			<rect id="SVGID_3_" x="0.036" y="0" width="210.552" height="50.016"/>
		</defs>
		<clipPath id="SVGID_4_">
			<use xlink:href="#SVGID_3_"  overflow="visible"/>
		</clipPath>
		<g clip-path="url(#SVGID_4_)">
			<path d="M3.243,9.919V2.823h0.946v2.914h3.718V2.823h0.946v7.096H7.908V6.574H4.189v3.345H3.243z"/>
			<path d="M13.865,8.264l0.907,0.111c-0.143,0.526-0.408,0.934-0.795,1.225c-0.387,0.291-0.881,0.436-1.483,0.436
				c-0.758,0-1.359-0.231-1.803-0.695c-0.444-0.463-0.666-1.112-0.666-1.948c0-0.865,0.225-1.536,0.673-2.013
				c0.449-0.478,1.031-0.717,1.747-0.717c0.693,0,1.259,0.234,1.698,0.702c0.439,0.468,0.659,1.126,0.659,1.975
				c0,0.052-0.001,0.129-0.005,0.232h-3.864c0.033,0.565,0.193,0.997,0.483,1.297c0.29,0.3,0.651,0.45,1.083,0.45
				c0.322,0,0.597-0.084,0.824-0.252C13.551,8.899,13.731,8.631,13.865,8.264z M10.981,6.855h2.894
				c-0.039-0.432-0.15-0.757-0.332-0.973c-0.28-0.336-0.643-0.503-1.088-0.503c-0.403,0-0.743,0.134-1.018,0.401
				C11.163,6.048,11.011,6.407,10.981,6.855z"/>
			<path d="M19.197,9.285c-0.325,0.274-0.639,0.468-0.939,0.581s-0.624,0.169-0.968,0.169c-0.569,0-1.007-0.138-1.313-0.414
				s-0.459-0.628-0.459-1.058c0-0.251,0.058-0.481,0.173-0.689c0.116-0.208,0.267-0.375,0.454-0.501
				c0.187-0.126,0.397-0.221,0.632-0.286c0.172-0.045,0.432-0.089,0.78-0.131c0.709-0.084,1.231-0.184,1.566-0.3
				c0.003-0.12,0.005-0.195,0.005-0.228c0-0.355-0.083-0.605-0.249-0.75c-0.224-0.197-0.558-0.295-1-0.295
				c-0.413,0-0.718,0.072-0.915,0.215s-0.342,0.397-0.437,0.762l-0.859-0.116c0.078-0.365,0.207-0.659,0.386-0.883
				c0.179-0.224,0.438-0.397,0.775-0.518c0.338-0.121,0.73-0.182,1.176-0.182c0.442,0,0.802,0.052,1.078,0.155
				c0.276,0.103,0.48,0.233,0.61,0.39c0.13,0.156,0.221,0.354,0.273,0.593c0.029,0.148,0.044,0.417,0.044,0.804v1.162
				c0,0.81,0.019,1.322,0.056,1.537c0.037,0.215,0.111,0.42,0.222,0.617h-0.917C19.281,9.738,19.223,9.527,19.197,9.285z
				 M19.124,7.339c-0.319,0.129-0.797,0.239-1.435,0.329c-0.361,0.052-0.616,0.11-0.766,0.174c-0.149,0.065-0.265,0.159-0.346,0.283
				c-0.082,0.125-0.122,0.262-0.122,0.414c0,0.232,0.088,0.426,0.266,0.581c0.177,0.155,0.437,0.232,0.778,0.232
				c0.338,0,0.639-0.073,0.903-0.22s0.457-0.348,0.581-0.603c0.094-0.197,0.142-0.487,0.142-0.871V7.339z"/>
			<path d="M23.25,9.14l0.127,0.77c-0.247,0.052-0.468,0.078-0.664,0.078c-0.319,0-0.566-0.05-0.742-0.15
				c-0.176-0.1-0.299-0.231-0.371-0.394c-0.072-0.163-0.107-0.506-0.107-1.029V5.456H20.85V4.778h0.644V3.505l0.873-0.522v1.795
				h0.883v0.678h-0.883v3.006c0,0.249,0.016,0.408,0.046,0.479c0.031,0.071,0.082,0.127,0.151,0.169
				c0.07,0.042,0.17,0.063,0.3,0.063C22.963,9.173,23.091,9.162,23.25,9.14z"/>
			<path d="M26.998,9.919V2.823h2.698c0.475,0,0.837,0.022,1.088,0.067c0.352,0.058,0.646,0.169,0.883,0.332
				c0.237,0.163,0.428,0.392,0.573,0.685c0.145,0.294,0.217,0.616,0.217,0.968c0,0.604-0.194,1.114-0.581,1.532
				c-0.387,0.418-1.086,0.627-2.098,0.627h-1.835v2.885H26.998z M27.944,6.197h1.85c0.611,0,1.045-0.113,1.303-0.339
				c0.257-0.226,0.385-0.544,0.385-0.954c0-0.297-0.076-0.551-0.227-0.762c-0.151-0.211-0.351-0.351-0.598-0.419
				c-0.159-0.042-0.454-0.063-0.883-0.063h-1.83V6.197z"/>
			<path d="M36.866,9.919V9.164c-0.403,0.581-0.952,0.871-1.645,0.871c-0.306,0-0.591-0.058-0.856-0.174s-0.462-0.262-0.59-0.438
				c-0.129-0.176-0.219-0.391-0.271-0.646c-0.036-0.171-0.054-0.442-0.054-0.813V4.778h0.878v2.851c0,0.455,0.018,0.762,0.054,0.92
				c0.055,0.229,0.172,0.409,0.351,0.54s0.4,0.196,0.664,0.196s0.511-0.067,0.742-0.201s0.395-0.316,0.49-0.547
				c0.096-0.231,0.144-0.565,0.144-1.004V4.778h0.878v5.141H36.866z"/>
			<path d="M38.988,9.919V4.778h0.786V5.5c0.163-0.251,0.379-0.454,0.649-0.607c0.27-0.153,0.577-0.23,0.922-0.23
				c0.384,0,0.699,0.08,0.944,0.237c0.246,0.158,0.419,0.379,0.52,0.663c0.41-0.6,0.943-0.9,1.601-0.9
				c0.514,0,0.909,0.142,1.186,0.424s0.415,0.717,0.415,1.304v3.529h-0.873V6.681c0-0.349-0.029-0.599-0.085-0.752
				c-0.057-0.153-0.16-0.277-0.31-0.371c-0.149-0.093-0.325-0.14-0.527-0.14c-0.364,0-0.667,0.12-0.908,0.36
				c-0.241,0.241-0.361,0.625-0.361,1.155v2.986h-0.878v-3.34c0-0.387-0.071-0.678-0.214-0.871
				c-0.144-0.194-0.377-0.291-0.703-0.291c-0.248,0-0.476,0.064-0.686,0.193c-0.21,0.129-0.362,0.318-0.457,0.566
				c-0.094,0.249-0.141,0.607-0.141,1.075v2.667H38.988z"/>
			<path d="M47.492,11.889V4.778h0.8v0.668c0.188-0.261,0.401-0.457,0.639-0.588c0.237-0.131,0.525-0.196,0.864-0.196
				c0.442,0,0.833,0.113,1.171,0.339c0.338,0.226,0.593,0.545,0.766,0.956c0.172,0.412,0.258,0.862,0.258,1.353
				c0,0.526-0.095,1-0.285,1.42c-0.19,0.421-0.467,0.744-0.83,0.968s-0.744,0.336-1.144,0.336c-0.293,0-0.556-0.062-0.788-0.184
				C48.71,9.729,48.52,9.574,48.37,9.387v2.502H47.492z M48.287,7.378c0,0.662,0.135,1.15,0.405,1.466
				c0.27,0.316,0.597,0.475,0.981,0.475c0.39,0,0.725-0.164,1.002-0.491c0.278-0.328,0.417-0.835,0.417-1.522
				c0-0.655-0.136-1.146-0.408-1.472c-0.271-0.326-0.596-0.489-0.973-0.489c-0.375,0-0.705,0.174-0.993,0.521
				C48.431,6.212,48.287,6.716,48.287,7.378z"/>
			<path d="M61.001,7.431l0.947,0.237c-0.199,0.771-0.556,1.359-1.071,1.765c-0.516,0.405-1.146,0.607-1.891,0.607
				c-0.771,0-1.398-0.156-1.881-0.467c-0.483-0.311-0.851-0.762-1.103-1.353c-0.252-0.591-0.378-1.225-0.378-1.902
				c0-0.739,0.143-1.384,0.427-1.934c0.284-0.55,0.689-0.968,1.215-1.253S58.37,2.702,59,2.702c0.716,0,1.317,0.181,1.805,0.542
				c0.488,0.361,0.828,0.87,1.02,1.525l-0.932,0.218c-0.166-0.517-0.407-0.893-0.722-1.128s-0.712-0.354-1.19-0.354
				c-0.55,0-1.009,0.131-1.378,0.392c-0.369,0.262-0.628,0.612-0.778,1.053C56.675,5.391,56.6,5.845,56.6,6.313
				c0,0.604,0.088,1.13,0.266,1.58c0.177,0.45,0.453,0.787,0.827,1.009s0.779,0.334,1.215,0.334c0.53,0,0.979-0.151,1.347-0.455
				C60.622,8.478,60.871,8.028,61.001,7.431z"/>
			<path d="M62.675,7.349c0-0.952,0.267-1.657,0.8-2.115c0.446-0.38,0.989-0.571,1.63-0.571c0.712,0,1.294,0.232,1.747,0.695
				S67.53,6.46,67.53,7.276c0,0.661-0.1,1.182-0.3,1.561c-0.2,0.379-0.491,0.674-0.874,0.884c-0.382,0.209-0.799,0.314-1.251,0.314
				c-0.726,0-1.312-0.231-1.759-0.692S62.675,8.217,62.675,7.349z M63.578,7.349c0,0.658,0.145,1.151,0.434,1.479
				c0.29,0.327,0.654,0.491,1.093,0.491c0.436,0,0.798-0.165,1.088-0.494s0.435-0.831,0.435-1.505c0-0.636-0.146-1.117-0.437-1.445
				s-0.653-0.491-1.085-0.491c-0.439,0-0.804,0.163-1.093,0.489C63.722,6.198,63.578,6.69,63.578,7.349z"/>
			<path d="M68.489,9.919V4.778h0.791v0.731c0.38-0.564,0.93-0.847,1.649-0.847c0.313,0,0.6,0.056,0.861,0.167
				s0.458,0.258,0.588,0.438s0.221,0.395,0.273,0.644C72.684,6.073,72.7,6.355,72.7,6.758v3.161h-0.878V6.792
				c0-0.355-0.034-0.62-0.103-0.796C71.651,5.82,71.53,5.68,71.356,5.575c-0.174-0.105-0.378-0.157-0.612-0.157
				c-0.375,0-0.697,0.118-0.969,0.354c-0.271,0.235-0.407,0.682-0.407,1.34v2.808H68.489z"/>
			<path d="M77.369,9.919V9.271c-0.329,0.51-0.812,0.765-1.449,0.765c-0.413,0-0.793-0.113-1.139-0.339
				c-0.347-0.226-0.615-0.542-0.805-0.946s-0.286-0.871-0.286-1.396c0-0.513,0.086-0.979,0.259-1.396s0.431-0.738,0.776-0.961
				s0.73-0.334,1.156-0.334c0.313,0,0.59,0.065,0.834,0.196s0.442,0.301,0.595,0.511V2.823h0.874v7.096H77.369z M74.592,7.354
				c0,0.658,0.14,1.15,0.419,1.477c0.28,0.326,0.61,0.489,0.991,0.489c0.384,0,0.71-0.156,0.979-0.467
				c0.268-0.311,0.402-0.787,0.402-1.425c0-0.704-0.137-1.22-0.41-1.549c-0.273-0.329-0.61-0.494-1.01-0.494
				c-0.39,0-0.716,0.158-0.978,0.474C74.723,6.174,74.592,6.673,74.592,7.354z"/>
			<path d="M79.529,3.825V2.823h0.878v1.002H79.529z M79.529,9.919V4.778h0.878v5.141H79.529z"/>
			<path d="M83.612,9.14l0.127,0.77c-0.247,0.052-0.468,0.078-0.664,0.078c-0.319,0-0.566-0.05-0.742-0.15
				c-0.176-0.1-0.299-0.231-0.371-0.394c-0.072-0.163-0.107-0.506-0.107-1.029V5.456h-0.644V4.778h0.644V3.505l0.873-0.522v1.795
				h0.883v0.678h-0.883v3.006c0,0.249,0.016,0.408,0.046,0.479c0.031,0.071,0.082,0.127,0.151,0.169
				c0.07,0.042,0.17,0.063,0.3,0.063C83.324,9.173,83.453,9.162,83.612,9.14z"/>
			<path d="M84.475,3.825V2.823h0.878v1.002H84.475z M84.475,9.919V4.778h0.878v5.141H84.475z"/>
			<path d="M86.303,7.349c0-0.952,0.267-1.657,0.8-2.115c0.446-0.38,0.989-0.571,1.63-0.571c0.712,0,1.294,0.232,1.747,0.695
				s0.678,1.103,0.678,1.919c0,0.661-0.1,1.182-0.3,1.561c-0.2,0.379-0.491,0.674-0.874,0.884c-0.382,0.209-0.799,0.314-1.251,0.314
				c-0.726,0-1.312-0.231-1.759-0.692S86.303,8.217,86.303,7.349z M87.206,7.349c0,0.658,0.145,1.151,0.434,1.479
				c0.29,0.327,0.654,0.491,1.093,0.491c0.436,0,0.798-0.165,1.088-0.494s0.435-0.831,0.435-1.505c0-0.636-0.146-1.117-0.437-1.445
				s-0.653-0.491-1.085-0.491c-0.439,0-0.804,0.163-1.093,0.489C87.351,6.198,87.206,6.69,87.206,7.349z"/>
			<path d="M92.148,9.919V4.778h0.791v0.731c0.38-0.564,0.93-0.847,1.649-0.847c0.313,0,0.6,0.056,0.861,0.167
				s0.458,0.258,0.588,0.438s0.221,0.395,0.273,0.644c0.032,0.162,0.049,0.444,0.049,0.847v3.161H95.48V6.792
				c0-0.355-0.034-0.62-0.103-0.796C95.31,5.82,95.188,5.68,95.015,5.575c-0.174-0.105-0.378-0.157-0.612-0.157
				c-0.375,0-0.697,0.118-0.969,0.354c-0.271,0.235-0.407,0.682-0.407,1.34v2.808H92.148z"/>
		</g>
		<g clip-path="url(#SVGID_4_)">
			<path d="M105.663,9.919V2.823h3.171c0.638,0,1.122,0.063,1.454,0.191c0.332,0.127,0.597,0.353,0.795,0.675
				c0.198,0.323,0.297,0.679,0.297,1.07c0,0.503-0.164,0.928-0.493,1.273s-0.836,0.564-1.522,0.658
				c0.25,0.12,0.441,0.237,0.571,0.354c0.276,0.251,0.539,0.566,0.786,0.944l1.244,1.931h-1.19l-0.946-1.476
				c-0.277-0.426-0.504-0.752-0.683-0.978c-0.179-0.226-0.339-0.384-0.481-0.474s-0.285-0.153-0.432-0.189
				c-0.107-0.022-0.283-0.034-0.527-0.034h-1.098v3.151H105.663z M106.609,5.955h2.035c0.433,0,0.771-0.044,1.015-0.133
				c0.244-0.089,0.429-0.231,0.556-0.426c0.127-0.195,0.19-0.407,0.19-0.636c0-0.336-0.123-0.612-0.369-0.828
				c-0.246-0.216-0.633-0.325-1.164-0.325h-2.264V5.955z"/>
			<path d="M116.3,8.264l0.907,0.111c-0.143,0.526-0.408,0.934-0.795,1.225c-0.387,0.291-0.881,0.436-1.483,0.436
				c-0.758,0-1.359-0.231-1.803-0.695c-0.444-0.463-0.666-1.112-0.666-1.948c0-0.865,0.225-1.536,0.673-2.013
				c0.449-0.478,1.031-0.717,1.747-0.717c0.693,0,1.259,0.234,1.698,0.702c0.439,0.468,0.659,1.126,0.659,1.975
				c0,0.052-0.001,0.129-0.005,0.232h-3.864c0.033,0.565,0.193,0.997,0.483,1.297c0.29,0.3,0.651,0.45,1.083,0.45
				c0.322,0,0.597-0.084,0.824-0.252C115.986,8.899,116.166,8.631,116.3,8.264z M113.416,6.855h2.894
				c-0.039-0.432-0.15-0.757-0.332-0.973c-0.28-0.336-0.643-0.503-1.088-0.503c-0.403,0-0.743,0.134-1.018,0.401
				C113.597,6.048,113.445,6.407,113.416,6.855z"/>
			<path d="M121.631,8.036l0.864,0.111c-0.095,0.59-0.336,1.053-0.725,1.387s-0.866,0.501-1.432,0.501
				c-0.709,0-1.279-0.23-1.71-0.69c-0.431-0.459-0.646-1.119-0.646-1.977c0-0.555,0.093-1.041,0.278-1.457
				c0.186-0.416,0.468-0.729,0.847-0.937s0.791-0.313,1.237-0.313c0.563,0,1.023,0.142,1.381,0.424
				c0.357,0.282,0.587,0.683,0.688,1.203l-0.854,0.131c-0.082-0.345-0.225-0.605-0.432-0.779s-0.457-0.261-0.749-0.261
				c-0.442,0-0.802,0.157-1.079,0.472c-0.276,0.314-0.415,0.813-0.415,1.493c0,0.691,0.133,1.192,0.4,1.505
				c0.267,0.313,0.615,0.47,1.044,0.47c0.345,0,0.632-0.105,0.864-0.315C121.423,8.794,121.569,8.472,121.631,8.036z"/>
			<path d="M122.949,7.349c0-0.952,0.267-1.657,0.8-2.115c0.446-0.38,0.989-0.571,1.63-0.571c0.712,0,1.294,0.232,1.747,0.695
				s0.678,1.103,0.678,1.919c0,0.661-0.1,1.182-0.3,1.561c-0.2,0.379-0.491,0.674-0.874,0.884c-0.382,0.209-0.799,0.314-1.251,0.314
				c-0.726,0-1.312-0.231-1.759-0.692S122.949,8.217,122.949,7.349z M123.852,7.349c0,0.658,0.145,1.151,0.434,1.479
				c0.29,0.327,0.654,0.491,1.093,0.491c0.436,0,0.798-0.165,1.088-0.494s0.435-0.831,0.435-1.505c0-0.636-0.146-1.117-0.437-1.445
				s-0.653-0.491-1.085-0.491c-0.439,0-0.804,0.163-1.093,0.489C123.997,6.198,123.852,6.69,123.852,7.349z"/>
			<path d="M128.793,9.919V4.778h0.786V5.5c0.163-0.251,0.379-0.454,0.649-0.607c0.27-0.153,0.577-0.23,0.922-0.23
				c0.384,0,0.699,0.08,0.944,0.237c0.246,0.158,0.419,0.379,0.52,0.663c0.41-0.6,0.943-0.9,1.601-0.9
				c0.514,0,0.909,0.142,1.186,0.424s0.415,0.717,0.415,1.304v3.529h-0.873V6.681c0-0.349-0.029-0.599-0.085-0.752
				c-0.057-0.153-0.16-0.277-0.31-0.371c-0.149-0.093-0.325-0.14-0.527-0.14c-0.364,0-0.667,0.12-0.908,0.36
				c-0.241,0.241-0.361,0.625-0.361,1.155v2.986h-0.878v-3.34c0-0.387-0.071-0.678-0.214-0.871
				c-0.144-0.194-0.377-0.291-0.703-0.291c-0.248,0-0.476,0.064-0.686,0.193c-0.21,0.129-0.362,0.318-0.457,0.566
				c-0.094,0.249-0.141,0.607-0.141,1.075v2.667H128.793z"/>
			<path d="M137.297,9.919V4.778h0.786V5.5c0.163-0.251,0.379-0.454,0.649-0.607c0.27-0.153,0.577-0.23,0.922-0.23
				c0.384,0,0.699,0.08,0.944,0.237c0.246,0.158,0.419,0.379,0.52,0.663c0.41-0.6,0.943-0.9,1.601-0.9
				c0.514,0,0.909,0.142,1.186,0.424s0.415,0.717,0.415,1.304v3.529h-0.873V6.681c0-0.349-0.029-0.599-0.085-0.752
				c-0.057-0.153-0.16-0.277-0.31-0.371c-0.149-0.093-0.325-0.14-0.527-0.14c-0.364,0-0.667,0.12-0.908,0.36
				c-0.241,0.241-0.361,0.625-0.361,1.155v2.986h-0.878v-3.34c0-0.387-0.071-0.678-0.214-0.871
				c-0.144-0.194-0.377-0.291-0.703-0.291c-0.248,0-0.476,0.064-0.686,0.193c-0.21,0.129-0.362,0.318-0.457,0.566
				c-0.094,0.249-0.141,0.607-0.141,1.075v2.667H137.297z"/>
			<path d="M149.349,8.264l0.907,0.111c-0.143,0.526-0.408,0.934-0.795,1.225c-0.387,0.291-0.881,0.436-1.483,0.436
				c-0.758,0-1.359-0.231-1.803-0.695c-0.444-0.463-0.666-1.112-0.666-1.948c0-0.865,0.225-1.536,0.673-2.013
				c0.449-0.478,1.031-0.717,1.747-0.717c0.693,0,1.259,0.234,1.698,0.702c0.439,0.468,0.659,1.126,0.659,1.975
				c0,0.052-0.001,0.129-0.005,0.232h-3.864c0.033,0.565,0.193,0.997,0.483,1.297c0.29,0.3,0.651,0.45,1.083,0.45
				c0.322,0,0.597-0.084,0.824-0.252C149.035,8.899,149.215,8.631,149.349,8.264z M146.465,6.855h2.894
				c-0.039-0.432-0.15-0.757-0.332-0.973c-0.28-0.336-0.643-0.503-1.088-0.503c-0.403,0-0.743,0.134-1.018,0.401
				C146.646,6.048,146.494,6.407,146.465,6.855z"/>
			<path d="M151.319,9.919V4.778h0.791v0.731c0.38-0.564,0.93-0.847,1.649-0.847c0.313,0,0.6,0.056,0.861,0.167
				s0.458,0.258,0.588,0.438s0.221,0.395,0.273,0.644c0.032,0.162,0.049,0.444,0.049,0.847v3.161h-0.878V6.792
				c0-0.355-0.034-0.62-0.103-0.796c-0.068-0.176-0.189-0.316-0.363-0.421c-0.174-0.105-0.378-0.157-0.612-0.157
				c-0.375,0-0.697,0.118-0.969,0.354c-0.271,0.235-0.407,0.682-0.407,1.34v2.808H151.319z"/>
			<path d="M160.198,9.919V9.271c-0.329,0.51-0.812,0.765-1.449,0.765c-0.413,0-0.793-0.113-1.139-0.339
				c-0.347-0.226-0.615-0.542-0.805-0.946s-0.286-0.871-0.286-1.396c0-0.513,0.086-0.979,0.259-1.396s0.431-0.738,0.776-0.961
				s0.73-0.334,1.156-0.334c0.313,0,0.59,0.065,0.834,0.196s0.442,0.301,0.595,0.511V2.823h0.874v7.096H160.198z M157.421,7.354
				c0,0.658,0.14,1.15,0.419,1.477c0.28,0.326,0.61,0.489,0.991,0.489c0.384,0,0.71-0.156,0.979-0.467
				c0.268-0.311,0.402-0.787,0.402-1.425c0-0.704-0.137-1.22-0.41-1.549c-0.273-0.329-0.61-0.494-1.01-0.494
				c-0.39,0-0.716,0.158-0.978,0.474C157.552,6.174,157.421,6.673,157.421,7.354z"/>
			<path d="M165.901,8.264l0.907,0.111c-0.143,0.526-0.408,0.934-0.795,1.225c-0.387,0.291-0.881,0.436-1.483,0.436
				c-0.758,0-1.359-0.231-1.803-0.695c-0.444-0.463-0.666-1.112-0.666-1.948c0-0.865,0.225-1.536,0.673-2.013
				c0.449-0.478,1.031-0.717,1.747-0.717c0.693,0,1.259,0.234,1.698,0.702c0.439,0.468,0.659,1.126,0.659,1.975
				c0,0.052-0.001,0.129-0.005,0.232h-3.864c0.033,0.565,0.193,0.997,0.483,1.297c0.29,0.3,0.651,0.45,1.083,0.45
				c0.322,0,0.597-0.084,0.824-0.252C165.587,8.899,165.767,8.631,165.901,8.264z M163.017,6.855h2.894
				c-0.039-0.432-0.15-0.757-0.332-0.973c-0.28-0.336-0.643-0.503-1.088-0.503c-0.403,0-0.743,0.134-1.018,0.401
				C163.198,6.048,163.046,6.407,163.017,6.855z"/>
			<path d="M171.233,9.919V9.271c-0.329,0.51-0.812,0.765-1.449,0.765c-0.413,0-0.793-0.113-1.139-0.339
				c-0.347-0.226-0.615-0.542-0.805-0.946s-0.286-0.871-0.286-1.396c0-0.513,0.086-0.979,0.259-1.396s0.431-0.738,0.776-0.961
				s0.73-0.334,1.156-0.334c0.313,0,0.59,0.065,0.834,0.196s0.442,0.301,0.595,0.511V2.823h0.874v7.096H171.233z M168.457,7.354
				c0,0.658,0.14,1.15,0.419,1.477c0.28,0.326,0.61,0.489,0.991,0.489c0.384,0,0.71-0.156,0.979-0.467
				c0.268-0.311,0.402-0.787,0.402-1.425c0-0.704-0.137-1.22-0.41-1.549c-0.273-0.329-0.61-0.494-1.01-0.494
				c-0.39,0-0.716,0.158-0.978,0.474C168.587,6.174,168.457,6.673,168.457,7.354z"/>
			<path d="M178.321,9.919l-2.771-7.096h1.024l1.859,5.155c0.149,0.413,0.274,0.8,0.375,1.162c0.11-0.387,0.239-0.774,0.385-1.162
				l1.933-5.155h0.966l-2.801,7.096H178.321z"/>
			<path d="M186.141,9.285c-0.325,0.274-0.639,0.468-0.939,0.581s-0.624,0.169-0.968,0.169c-0.569,0-1.007-0.138-1.313-0.414
				s-0.459-0.628-0.459-1.058c0-0.251,0.058-0.481,0.173-0.689c0.116-0.208,0.267-0.375,0.454-0.501
				c0.187-0.126,0.397-0.221,0.632-0.286c0.172-0.045,0.432-0.089,0.78-0.131c0.709-0.084,1.231-0.184,1.566-0.3
				c0.003-0.12,0.005-0.195,0.005-0.228c0-0.355-0.083-0.605-0.249-0.75c-0.224-0.197-0.558-0.295-1-0.295
				c-0.413,0-0.718,0.072-0.915,0.215s-0.342,0.397-0.437,0.762l-0.859-0.116c0.078-0.365,0.207-0.659,0.386-0.883
				c0.179-0.224,0.438-0.397,0.775-0.518c0.338-0.121,0.73-0.182,1.176-0.182c0.442,0,0.802,0.052,1.078,0.155
				c0.276,0.103,0.48,0.233,0.61,0.39c0.13,0.156,0.221,0.354,0.273,0.593c0.029,0.148,0.044,0.417,0.044,0.804v1.162
				c0,0.81,0.019,1.322,0.056,1.537c0.037,0.215,0.111,0.42,0.222,0.617h-0.917C186.226,9.738,186.167,9.527,186.141,9.285z
				 M186.068,7.339c-0.319,0.129-0.797,0.239-1.435,0.329c-0.361,0.052-0.616,0.11-0.766,0.174
				c-0.149,0.065-0.265,0.159-0.346,0.283c-0.082,0.125-0.122,0.262-0.122,0.414c0,0.232,0.088,0.426,0.266,0.581
				c0.177,0.155,0.437,0.232,0.778,0.232c0.338,0,0.639-0.073,0.903-0.22s0.457-0.348,0.581-0.603
				c0.094-0.197,0.142-0.487,0.142-0.871V7.339z"/>
			<path d="M188.258,9.919V2.823h0.878v7.096H188.258z"/>
			<path d="M193.843,9.919V9.164c-0.403,0.581-0.952,0.871-1.645,0.871c-0.306,0-0.591-0.058-0.856-0.174s-0.462-0.262-0.59-0.438
				c-0.129-0.176-0.219-0.391-0.271-0.646c-0.036-0.171-0.054-0.442-0.054-0.813V4.778h0.878v2.851c0,0.455,0.018,0.762,0.054,0.92
				c0.055,0.229,0.172,0.409,0.351,0.54s0.4,0.196,0.664,0.196s0.511-0.067,0.742-0.201s0.395-0.316,0.49-0.547
				c0.096-0.231,0.144-0.565,0.144-1.004V4.778h0.878v5.141H193.843z"/>
			<path d="M199.512,8.264l0.907,0.111c-0.143,0.526-0.408,0.934-0.795,1.225c-0.387,0.291-0.881,0.436-1.483,0.436
				c-0.758,0-1.359-0.231-1.803-0.695c-0.444-0.463-0.666-1.112-0.666-1.948c0-0.865,0.225-1.536,0.673-2.013
				c0.449-0.478,1.031-0.717,1.747-0.717c0.693,0,1.259,0.234,1.698,0.702c0.439,0.468,0.659,1.126,0.659,1.975
				c0,0.052-0.001,0.129-0.005,0.232h-3.864c0.033,0.565,0.193,0.997,0.483,1.297c0.29,0.3,0.651,0.45,1.083,0.45
				c0.322,0,0.597-0.084,0.824-0.252C199.198,8.899,199.378,8.631,199.512,8.264z M196.628,6.855h2.894
				c-0.039-0.432-0.15-0.757-0.332-0.973c-0.28-0.336-0.643-0.503-1.088-0.503c-0.403,0-0.743,0.134-1.018,0.401
				C196.81,6.048,196.658,6.407,196.628,6.855z"/>
			<path d="M201.131,8.385L202,8.249c0.049,0.345,0.185,0.61,0.408,0.794c0.223,0.184,0.534,0.276,0.934,0.276
				c0.403,0,0.703-0.082,0.898-0.245c0.195-0.163,0.292-0.354,0.292-0.574c0-0.197-0.086-0.352-0.258-0.464
				c-0.121-0.078-0.42-0.176-0.898-0.295c-0.644-0.161-1.09-0.301-1.339-0.418c-0.249-0.118-0.438-0.281-0.566-0.489
				c-0.128-0.208-0.193-0.438-0.193-0.689c0-0.229,0.053-0.441,0.159-0.637c0.105-0.195,0.25-0.357,0.432-0.486
				c0.137-0.1,0.323-0.185,0.559-0.254c0.236-0.069,0.488-0.104,0.758-0.104c0.407,0,0.764,0.058,1.071,0.174
				c0.307,0.116,0.534,0.273,0.681,0.472c0.146,0.198,0.247,0.464,0.302,0.796l-0.858,0.116c-0.039-0.264-0.152-0.471-0.339-0.619
				s-0.451-0.223-0.793-0.223c-0.403,0-0.691,0.066-0.863,0.198c-0.173,0.132-0.259,0.287-0.259,0.465
				c0,0.113,0.036,0.214,0.107,0.305c0.071,0.094,0.184,0.171,0.336,0.232c0.088,0.032,0.347,0.106,0.776,0.223
				c0.622,0.165,1.055,0.299,1.3,0.404s0.438,0.257,0.578,0.458c0.14,0.2,0.21,0.448,0.21,0.745c0,0.291-0.085,0.564-0.256,0.82
				c-0.17,0.257-0.417,0.455-0.739,0.596c-0.322,0.14-0.687,0.21-1.093,0.21c-0.673,0-1.187-0.139-1.539-0.417
				C201.454,9.341,201.229,8.93,201.131,8.385z"/>
		</g>
		<g clip-path="url(#SVGID_4_)">
			<path d="M5.034,22.209V15.95H2.677v-0.837h5.669v0.837H5.98v6.259H5.034z"/>
			<path d="M9.286,24.188l-0.098-0.818c0.192,0.052,0.359,0.078,0.502,0.078c0.195,0,0.352-0.032,0.469-0.097
				c0.117-0.064,0.213-0.155,0.288-0.271c0.056-0.087,0.145-0.303,0.269-0.648c0.016-0.048,0.042-0.12,0.078-0.213l-1.966-5.15
				h0.946l1.079,2.977c0.14,0.377,0.265,0.774,0.375,1.19c0.101-0.4,0.221-0.791,0.361-1.171l1.107-2.997h0.878l-1.971,5.228
				c-0.212,0.565-0.376,0.954-0.493,1.167c-0.156,0.288-0.335,0.498-0.537,0.632s-0.442,0.201-0.722,0.201
				C9.683,24.295,9.494,24.26,9.286,24.188z"/>
			<path d="M14.002,24.179v-7.111h0.8v0.668c0.188-0.261,0.401-0.457,0.639-0.588c0.237-0.131,0.525-0.196,0.864-0.196
				c0.442,0,0.833,0.113,1.171,0.339c0.338,0.226,0.593,0.545,0.766,0.956c0.172,0.412,0.258,0.862,0.258,1.353
				c0,0.526-0.095,1-0.285,1.42c-0.19,0.421-0.467,0.744-0.83,0.968s-0.744,0.336-1.144,0.336c-0.293,0-0.556-0.062-0.788-0.184
				c-0.233-0.123-0.424-0.277-0.573-0.464v2.502H14.002z M14.797,19.668c0,0.662,0.135,1.15,0.405,1.466
				c0.27,0.316,0.597,0.475,0.981,0.475c0.39,0,0.725-0.164,1.002-0.491c0.278-0.328,0.417-0.835,0.417-1.522
				c0-0.655-0.136-1.146-0.408-1.472c-0.271-0.326-0.596-0.489-0.973-0.489c-0.375,0-0.705,0.174-0.993,0.521
				C14.941,18.502,14.797,19.006,14.797,19.668z"/>
			<path d="M19.524,16.115v-1.002h0.878v1.002H19.524z M19.524,22.209v-5.141h0.878v5.141H19.524z"/>
			<path d="M25.071,20.326l0.864,0.111c-0.095,0.59-0.336,1.053-0.725,1.387s-0.866,0.501-1.432,0.501
				c-0.709,0-1.279-0.23-1.71-0.69c-0.431-0.459-0.646-1.119-0.646-1.977c0-0.555,0.093-1.041,0.278-1.457
				c0.186-0.416,0.468-0.729,0.847-0.937s0.791-0.313,1.237-0.313c0.563,0,1.023,0.142,1.381,0.424
				c0.357,0.282,0.587,0.683,0.688,1.203l-0.854,0.131c-0.082-0.345-0.225-0.605-0.432-0.779s-0.457-0.261-0.749-0.261
				c-0.442,0-0.802,0.157-1.079,0.472c-0.276,0.314-0.415,0.813-0.415,1.493c0,0.691,0.133,1.192,0.4,1.505
				c0.267,0.313,0.615,0.47,1.044,0.47c0.345,0,0.632-0.105,0.864-0.315C24.862,21.084,25.009,20.762,25.071,20.326z"/>
			<path d="M30.097,21.575c-0.325,0.274-0.639,0.468-0.939,0.581s-0.624,0.169-0.968,0.169c-0.569,0-1.007-0.138-1.313-0.414
				s-0.459-0.628-0.459-1.058c0-0.251,0.058-0.481,0.173-0.689c0.116-0.208,0.267-0.375,0.454-0.501
				c0.187-0.126,0.397-0.221,0.632-0.286c0.172-0.045,0.432-0.089,0.78-0.131c0.709-0.084,1.231-0.184,1.566-0.3
				c0.003-0.12,0.005-0.195,0.005-0.228c0-0.355-0.083-0.605-0.249-0.75c-0.224-0.197-0.558-0.295-1-0.295
				c-0.413,0-0.718,0.072-0.915,0.215s-0.342,0.397-0.437,0.762l-0.859-0.116c0.078-0.365,0.207-0.659,0.386-0.883
				c0.179-0.224,0.438-0.397,0.775-0.518c0.338-0.121,0.73-0.182,1.176-0.182c0.442,0,0.802,0.052,1.078,0.155
				c0.276,0.103,0.48,0.233,0.61,0.39c0.13,0.156,0.221,0.354,0.273,0.593c0.029,0.148,0.044,0.417,0.044,0.804v1.162
				c0,0.81,0.019,1.322,0.056,1.537c0.037,0.215,0.111,0.42,0.222,0.617h-0.917C30.182,22.028,30.123,21.817,30.097,21.575z
				 M30.024,19.629c-0.319,0.129-0.797,0.239-1.435,0.329c-0.361,0.052-0.616,0.11-0.766,0.174
				c-0.149,0.065-0.265,0.159-0.346,0.283c-0.082,0.125-0.122,0.262-0.122,0.414c0,0.232,0.088,0.426,0.266,0.581
				c0.177,0.155,0.437,0.232,0.778,0.232c0.338,0,0.639-0.073,0.903-0.22s0.457-0.348,0.581-0.603
				c0.094-0.197,0.142-0.487,0.142-0.871V19.629z"/>
			<path d="M32.213,22.209v-7.096h0.878v7.096H32.213z"/>
		</g>
		<g clip-path="url(#SVGID_4_)">
			<path d="M155.153,21.372v0.837h-4.728c-0.007-0.21,0.027-0.412,0.102-0.605c0.121-0.319,0.313-0.634,0.579-0.944
				c0.265-0.31,0.648-0.668,1.149-1.075c0.777-0.632,1.303-1.133,1.576-1.503c0.273-0.369,0.41-0.719,0.41-1.048
				c0-0.345-0.125-0.637-0.374-0.874c-0.249-0.237-0.573-0.356-0.973-0.356c-0.423,0-0.761,0.126-1.015,0.377
				c-0.253,0.252-0.382,0.601-0.385,1.046l-0.903-0.092c0.062-0.668,0.294-1.177,0.698-1.527s0.945-0.525,1.625-0.525
				c0.686,0,1.229,0.189,1.629,0.566c0.4,0.377,0.6,0.845,0.6,1.404c0,0.284-0.059,0.563-0.175,0.837
				c-0.117,0.274-0.312,0.563-0.583,0.866c-0.272,0.303-0.723,0.72-1.354,1.249c-0.527,0.438-0.866,0.736-1.015,0.893
				c-0.149,0.156-0.273,0.313-0.371,0.472H155.153z"/>
			<path d="M156.548,22.209v-0.992h1v0.992H156.548z"/>
			<path d="M158.832,20.35l0.922-0.077c0.068,0.445,0.227,0.78,0.476,1.004c0.249,0.224,0.549,0.336,0.9,0.336
				c0.423,0,0.781-0.158,1.073-0.475c0.293-0.316,0.439-0.736,0.439-1.258c0-0.497-0.141-0.889-0.422-1.176
				s-0.649-0.431-1.105-0.431c-0.283,0-0.539,0.063-0.766,0.191s-0.407,0.293-0.537,0.496l-0.825-0.106l0.693-3.645h3.557v0.833
				h-2.854l-0.385,1.907c0.429-0.297,0.88-0.445,1.352-0.445c0.625,0,1.151,0.214,1.581,0.644c0.43,0.429,0.644,0.981,0.644,1.655
				c0,0.642-0.188,1.197-0.566,1.665c-0.458,0.575-1.085,0.862-1.878,0.862c-0.651,0-1.182-0.181-1.593-0.542
				S158.89,20.947,158.832,20.35z"/>
		</g>
		<g clip-path="url(#SVGID_4_)">
			<path d="M6.561,31.715v-0.833l3.03-0.005v2.633c-0.465,0.368-0.945,0.645-1.439,0.83c-0.494,0.186-1.002,0.278-1.522,0.278
				c-0.703,0-1.341-0.149-1.915-0.448c-0.574-0.298-1.008-0.73-1.3-1.295c-0.293-0.564-0.439-1.195-0.439-1.893
				c0-0.69,0.146-1.335,0.437-1.934c0.291-0.599,0.709-1.043,1.256-1.333c0.546-0.291,1.176-0.436,1.888-0.436
				c0.517,0,0.985,0.083,1.403,0.249c0.418,0.167,0.746,0.398,0.983,0.695s0.418,0.684,0.542,1.162L8.63,29.619
				c-0.107-0.361-0.241-0.646-0.4-0.852c-0.159-0.207-0.387-0.372-0.683-0.496s-0.625-0.187-0.985-0.187
				c-0.433,0-0.807,0.065-1.123,0.196c-0.315,0.13-0.57,0.302-0.763,0.515c-0.194,0.213-0.344,0.447-0.452,0.702
				c-0.182,0.439-0.273,0.915-0.273,1.428c0,0.633,0.11,1.162,0.329,1.588c0.22,0.426,0.539,0.742,0.959,0.949
				c0.419,0.207,0.865,0.31,1.337,0.31c0.41,0,0.81-0.078,1.2-0.235c0.39-0.156,0.686-0.323,0.888-0.501v-1.321H6.561z"/>
			<path d="M10.547,31.928c0-0.952,0.267-1.657,0.8-2.115c0.446-0.38,0.989-0.571,1.63-0.571c0.712,0,1.294,0.232,1.747,0.695
				s0.678,1.103,0.678,1.919c0,0.661-0.1,1.182-0.3,1.561c-0.2,0.379-0.491,0.674-0.874,0.884c-0.382,0.209-0.799,0.314-1.251,0.314
				c-0.726,0-1.312-0.231-1.759-0.692S10.547,32.796,10.547,31.928z M11.45,31.928c0,0.658,0.145,1.151,0.434,1.479
				c0.29,0.327,0.654,0.491,1.093,0.491c0.436,0,0.798-0.165,1.088-0.494s0.435-0.831,0.435-1.505c0-0.636-0.146-1.117-0.437-1.445
				s-0.653-0.491-1.085-0.491c-0.439,0-0.804,0.163-1.093,0.489C11.594,30.777,11.45,31.27,11.45,31.928z"/>
			<path d="M16.104,31.928c0-0.952,0.267-1.657,0.8-2.115c0.446-0.38,0.989-0.571,1.63-0.571c0.712,0,1.294,0.232,1.747,0.695
				s0.678,1.103,0.678,1.919c0,0.661-0.1,1.182-0.3,1.561c-0.2,0.379-0.491,0.674-0.874,0.884c-0.382,0.209-0.799,0.314-1.251,0.314
				c-0.726,0-1.312-0.231-1.759-0.692S16.104,32.796,16.104,31.928z M17.007,31.928c0,0.658,0.145,1.151,0.434,1.479
				c0.29,0.327,0.654,0.491,1.093,0.491c0.436,0,0.798-0.165,1.088-0.494s0.435-0.831,0.435-1.505c0-0.636-0.146-1.117-0.437-1.445
				s-0.653-0.491-1.085-0.491c-0.439,0-0.804,0.163-1.093,0.489C17.152,30.777,17.007,31.27,17.007,31.928z"/>
			<path d="M25.291,34.498V33.85c-0.329,0.51-0.812,0.765-1.449,0.765c-0.413,0-0.793-0.113-1.139-0.339
				c-0.347-0.226-0.615-0.542-0.805-0.946s-0.286-0.871-0.286-1.396c0-0.513,0.086-0.979,0.259-1.396s0.431-0.738,0.776-0.961
				s0.73-0.334,1.156-0.334c0.313,0,0.59,0.065,0.834,0.196s0.442,0.301,0.595,0.511v-2.546h0.874v7.096H25.291z M22.515,31.933
				c0,0.658,0.14,1.15,0.419,1.477c0.28,0.326,0.61,0.489,0.991,0.489c0.384,0,0.71-0.156,0.979-0.467
				c0.268-0.311,0.402-0.787,0.402-1.425c0-0.704-0.137-1.22-0.41-1.549c-0.273-0.329-0.61-0.494-1.01-0.494
				c-0.39,0-0.716,0.158-0.978,0.474C22.646,30.753,22.515,31.252,22.515,31.933z"/>
		</g>
		<g clip-path="url(#SVGID_4_)">
			<path d="M155.153,33.661v0.837h-4.728c-0.007-0.21,0.027-0.412,0.102-0.605c0.121-0.319,0.313-0.634,0.579-0.944
				c0.265-0.31,0.648-0.668,1.149-1.075c0.777-0.632,1.303-1.133,1.576-1.503c0.273-0.369,0.41-0.719,0.41-1.048
				c0-0.345-0.125-0.637-0.374-0.874c-0.249-0.237-0.573-0.356-0.973-0.356c-0.423,0-0.761,0.126-1.015,0.377
				c-0.253,0.252-0.382,0.601-0.385,1.046l-0.903-0.092c0.062-0.668,0.294-1.177,0.698-1.527s0.945-0.525,1.625-0.525
				c0.686,0,1.229,0.189,1.629,0.566c0.4,0.377,0.6,0.845,0.6,1.404c0,0.284-0.059,0.563-0.175,0.837
				c-0.117,0.274-0.312,0.563-0.583,0.866c-0.272,0.303-0.723,0.72-1.354,1.249c-0.527,0.438-0.866,0.736-1.015,0.893
				c-0.149,0.156-0.273,0.313-0.371,0.472H155.153z"/>
			<path d="M156.548,34.498v-0.992h1v0.992H156.548z"/>
			<path d="M158.832,32.639l0.922-0.077c0.068,0.445,0.227,0.78,0.476,1.004c0.249,0.224,0.549,0.336,0.9,0.336
				c0.423,0,0.781-0.158,1.073-0.475c0.293-0.316,0.439-0.736,0.439-1.258c0-0.497-0.141-0.889-0.422-1.176
				s-0.649-0.431-1.105-0.431c-0.283,0-0.539,0.063-0.766,0.191s-0.407,0.293-0.537,0.496l-0.825-0.106l0.693-3.645h3.557v0.833
				h-2.854l-0.385,1.907c0.429-0.297,0.88-0.445,1.352-0.445c0.625,0,1.151,0.214,1.581,0.644c0.43,0.429,0.644,0.981,0.644,1.655
				c0,0.642-0.188,1.197-0.566,1.665c-0.458,0.575-1.085,0.862-1.878,0.862c-0.651,0-1.182-0.181-1.593-0.542
				S158.89,33.236,158.832,32.639z"/>
		</g>
		<g clip-path="url(#SVGID_4_)">
			<path d="M3.214,46.811v-7.096h2.698c0.475,0,0.837,0.022,1.088,0.067c0.352,0.058,0.646,0.169,0.883,0.332
				c0.237,0.163,0.428,0.392,0.573,0.685c0.145,0.294,0.217,0.616,0.217,0.968c0,0.604-0.194,1.114-0.581,1.532
				c-0.387,0.418-1.086,0.627-2.098,0.627H4.16v2.885H3.214z M4.16,43.088h1.85c0.611,0,1.045-0.113,1.303-0.339
				c0.257-0.226,0.385-0.544,0.385-0.954c0-0.297-0.076-0.551-0.227-0.762c-0.151-0.211-0.351-0.351-0.598-0.419
				c-0.159-0.042-0.454-0.063-0.883-0.063H4.16V43.088z"/>
			<path d="M9.379,44.24c0-0.952,0.267-1.657,0.8-2.115c0.446-0.38,0.989-0.571,1.63-0.571c0.712,0,1.294,0.232,1.747,0.695
				s0.678,1.103,0.678,1.919c0,0.661-0.1,1.182-0.3,1.561c-0.2,0.379-0.491,0.674-0.874,0.884c-0.382,0.209-0.799,0.314-1.251,0.314
				c-0.726,0-1.312-0.231-1.759-0.692S9.379,45.108,9.379,44.24z M10.282,44.24c0,0.658,0.145,1.151,0.434,1.479
				c0.29,0.327,0.654,0.491,1.093,0.491c0.436,0,0.798-0.165,1.088-0.494s0.435-0.831,0.435-1.505c0-0.636-0.146-1.117-0.437-1.445
				s-0.653-0.491-1.085-0.491c-0.439,0-0.804,0.163-1.093,0.489C10.427,43.09,10.282,43.582,10.282,44.24z"/>
			<path d="M14.897,44.24c0-0.952,0.267-1.657,0.8-2.115c0.446-0.38,0.989-0.571,1.63-0.571c0.712,0,1.294,0.232,1.747,0.695
				s0.678,1.103,0.678,1.919c0,0.661-0.1,1.182-0.3,1.561c-0.2,0.379-0.491,0.674-0.874,0.884c-0.382,0.209-0.799,0.314-1.251,0.314
				c-0.726,0-1.312-0.231-1.759-0.692S14.897,45.108,14.897,44.24z M15.8,44.24c0,0.658,0.145,1.151,0.434,1.479
				c0.29,0.327,0.654,0.491,1.093,0.491c0.436,0,0.798-0.165,1.088-0.494s0.435-0.831,0.435-1.505c0-0.636-0.146-1.117-0.437-1.445
				s-0.653-0.491-1.085-0.491c-0.439,0-0.804,0.163-1.093,0.489C15.944,43.09,15.8,43.582,15.8,44.24z"/>
			<path d="M20.732,46.811V41.67h0.791v0.779c0.202-0.364,0.388-0.605,0.559-0.721s0.358-0.174,0.563-0.174
				c0.296,0,0.597,0.094,0.903,0.281l-0.303,0.809c-0.214-0.126-0.429-0.189-0.644-0.189c-0.192,0-0.364,0.058-0.517,0.172
				c-0.153,0.115-0.262,0.273-0.327,0.477c-0.097,0.31-0.146,0.648-0.146,1.016v2.691H20.732z"/>
		</g>
		<g clip-path="url(#SVGID_4_)">
			<path d="M150.542,44.938l0.878-0.116c0.101,0.494,0.272,0.849,0.515,1.067c0.242,0.218,0.538,0.327,0.886,0.327
				c0.413,0,0.762-0.142,1.046-0.426c0.285-0.284,0.427-0.635,0.427-1.055c0-0.4-0.132-0.73-0.396-0.99
				c-0.263-0.26-0.599-0.39-1.005-0.39c-0.166,0-0.373,0.032-0.62,0.097l0.098-0.765c0.059,0.006,0.105,0.01,0.141,0.01
				c0.374,0,0.711-0.097,1.01-0.291c0.299-0.193,0.449-0.492,0.449-0.896c0-0.319-0.109-0.584-0.327-0.793
				c-0.218-0.21-0.5-0.315-0.844-0.315c-0.342,0-0.626,0.106-0.854,0.319c-0.228,0.213-0.374,0.533-0.439,0.958l-0.878-0.155
				c0.107-0.584,0.352-1.037,0.732-1.358c0.381-0.321,0.854-0.481,1.42-0.481c0.39,0,0.75,0.083,1.078,0.25
				c0.329,0.166,0.58,0.393,0.754,0.68c0.174,0.288,0.261,0.592,0.261,0.915c0,0.307-0.083,0.585-0.249,0.837
				c-0.166,0.251-0.412,0.452-0.737,0.6c0.423,0.097,0.751,0.298,0.986,0.603c0.234,0.305,0.351,0.687,0.351,1.145
				c0,0.62-0.228,1.145-0.683,1.575c-0.455,0.431-1.031,0.646-1.727,0.646c-0.628,0-1.149-0.186-1.564-0.557
				C150.838,46.009,150.601,45.528,150.542,44.938z"/>
			<path d="M156.548,46.811v-0.992h1v0.992H156.548z"/>
			<path d="M158.832,43.311c0-0.839,0.087-1.514,0.261-2.026c0.174-0.511,0.433-0.906,0.776-1.183
				c0.343-0.278,0.775-0.417,1.295-0.417c0.384,0,0.72,0.077,1.01,0.23s0.529,0.375,0.717,0.663
				c0.189,0.289,0.337,0.641,0.444,1.055c0.107,0.415,0.161,0.974,0.161,1.677c0,0.833-0.086,1.504-0.258,2.016
				c-0.172,0.511-0.43,0.907-0.773,1.186c-0.343,0.279-0.777,0.419-1.3,0.419c-0.69,0-1.231-0.245-1.625-0.736
				C159.067,45.605,158.832,44.644,158.832,43.311z M159.734,43.311c0,1.165,0.137,1.94,0.412,2.326s0.614,0.579,1.018,0.579
				s0.742-0.194,1.017-0.581s0.413-1.162,0.413-2.323c0-1.168-0.138-1.944-0.413-2.328c-0.275-0.384-0.617-0.576-1.027-0.576
				c-0.403,0-0.726,0.169-0.966,0.508C159.886,41.348,159.734,42.146,159.734,43.311z"/>
		</g>
	</g>
	<g clip-path="url(#SVGID_2_)">
		<defs>
			<rect id="SVGID_5_" x="0.036" y="0" width="210.671" height="50.136"/>
		</defs>
		<clipPath id="SVGID_6_">
			<use xlink:href="#SVGID_5_"  overflow="visible"/>
		</clipPath>
		
			<line clip-path="url(#SVGID_6_)" fill="none" stroke="#000000" stroke-width="0.1388" stroke-linecap="square" stroke-linejoin="round" stroke-miterlimit="10" x1="0.409" y1="0.371" x2="0.409" y2="50.387"/>
		<rect x="0.036" y="0" clip-path="url(#SVGID_6_)" fill-rule="evenodd" clip-rule="evenodd" width="0.963" height="50.136"/>
		
			<line clip-path="url(#SVGID_6_)" fill="none" stroke="#000000" stroke-width="0.1388" stroke-linecap="square" stroke-linejoin="round" stroke-miterlimit="10" x1="102.869" y1="1.327" x2="102.869" y2="50.387"/>
		<rect x="102.49" y="0.956" clip-path="url(#SVGID_6_)" fill-rule="evenodd" clip-rule="evenodd" width="0.963" height="49.18"/>
		
			<line clip-path="url(#SVGID_6_)" fill="none" stroke="#000000" stroke-width="0.1388" stroke-linecap="square" stroke-linejoin="round" stroke-miterlimit="10" x1="210.12" y1="1.327" x2="210.12" y2="50.387"/>
		<rect x="209.742" y="0.956" clip-path="url(#SVGID_6_)" fill-rule="evenodd" clip-rule="evenodd" width="0.963" height="49.18"/>
		
			<line clip-path="url(#SVGID_6_)" fill="none" stroke="#000000" stroke-width="0.1388" stroke-linecap="square" stroke-linejoin="round" stroke-miterlimit="10" x1="1.373" y1="0.371" x2="210.956" y2="0.371"/>
		<rect x="0.999" clip-path="url(#SVGID_6_)" fill-rule="evenodd" clip-rule="evenodd" width="209.706" height="0.957"/>
		
			<line clip-path="url(#SVGID_6_)" fill="none" stroke="#000000" stroke-width="0.1388" stroke-linecap="square" stroke-linejoin="round" stroke-miterlimit="10" x1="1.373" y1="12.66" x2="210.956" y2="12.66"/>
		<rect x="0.999" y="12.289" clip-path="url(#SVGID_6_)" fill-rule="evenodd" clip-rule="evenodd" width="209.706" height="0.957"/>
		
			<line clip-path="url(#SVGID_6_)" fill="none" stroke="#000000" stroke-width="0.1388" stroke-linecap="square" stroke-linejoin="round" stroke-miterlimit="10" x1="1.373" y1="24.973" x2="210.956" y2="24.973"/>
		<rect x="0.999" y="24.602" clip-path="url(#SVGID_6_)" fill-rule="evenodd" clip-rule="evenodd" width="209.706" height="0.957"/>
		
			<line clip-path="url(#SVGID_6_)" fill="none" stroke="#000000" stroke-width="0.1388" stroke-linecap="square" stroke-linejoin="round" stroke-miterlimit="10" x1="1.373" y1="37.261" x2="210.956" y2="37.261"/>
		<rect x="0.999" y="36.891" clip-path="url(#SVGID_6_)" fill-rule="evenodd" clip-rule="evenodd" width="209.706" height="0.956"/>
		
			<line clip-path="url(#SVGID_6_)" fill="none" stroke="#000000" stroke-width="0.1388" stroke-linecap="square" stroke-linejoin="round" stroke-miterlimit="10" x1="1.373" y1="49.55" x2="210.956" y2="49.55"/>
		<rect x="0.999" y="49.18" clip-path="url(#SVGID_6_)" fill-rule="evenodd" clip-rule="evenodd" width="209.706" height="0.957"/>
	</g>
</g>
<g>
</g>
<g>
</g>
<g>
</g>
</svg>
