<?xml version="1.0" encoding="iso-8859-1"?>
<!-- Generator: Adobe Illustrator 16.0.3, SVG Export Plug-In . SVG Version: 6.00 Build 0)  -->
<!DOCTYPE svg PUBLIC "-//W3C//DTD SVG 1.1//EN" "http://www.w3.org/Graphics/SVG/1.1/DTD/svg11.dtd">
<svg version="1.1" id="Layer_1" xmlns="http://www.w3.org/2000/svg" xmlns:xlink="http://www.w3.org/1999/xlink" x="0px" y="0px"
	 width="321px" height="218.01px" viewBox="0 0 321 218.01" style="enable-background:new 0 0 321 218.01;" xml:space="preserve">
<g>
	<line style="fill:none;stroke:#000000;stroke-linecap:square;stroke-miterlimit:10;" x1="7.5" y1="105.01" x2="34.5" y2="105.01"/>
	
		<line style="fill:none;stroke:#000000;stroke-linecap:square;stroke-miterlimit:10;" x1="64.5" y1="105.01" x2="97.5" y2="105.01"/>
	
		<line style="fill:none;stroke:#000000;stroke-linecap:square;stroke-miterlimit:10;" x1="98.5" y1="105.01" x2="149.5" y2="105.01"/>
	
		<line style="fill:none;stroke:#000000;stroke-linecap:square;stroke-miterlimit:10;" x1="180.5" y1="105.01" x2="227.5" y2="105.01"/>
	
		<line style="fill:none;stroke:#000000;stroke-linecap:square;stroke-miterlimit:10;" x1="228.5" y1="105.01" x2="255.5" y2="105.01"/>
	
		<line style="fill:none;stroke:#000000;stroke-linecap:square;stroke-miterlimit:10;" x1="286.5" y1="105.01" x2="313.5" y2="105.01"/>
	<path style="fill-rule:evenodd;clip-rule:evenodd;stroke:#000000;stroke-linecap:square;stroke-miterlimit:10;" d="M0.5,105.51
		c0-2.5,2-4.5,4.5-4.5s4.5,2,4.5,4.5s-2,4.5-4.5,4.5S0.5,108.01,0.5,105.51L0.5,105.51z"/>
	<path style="fill-rule:evenodd;clip-rule:evenodd;stroke:#000000;stroke-linecap:square;stroke-miterlimit:10;" d="M93.5,105.51
		c0-2.5,2-4.5,4.5-4.5s4.5,2,4.5,4.5s-2,4.5-4.5,4.5S93.5,108.01,93.5,105.51L93.5,105.51z"/>
	<path style="fill-rule:evenodd;clip-rule:evenodd;stroke:#000000;stroke-linecap:square;stroke-miterlimit:10;" d="M224.5,105.51
		c0-2.5,2-4.5,4.5-4.5s4.5,2,4.5,4.5s-2,4.5-4.5,4.5S224.5,108.01,224.5,105.51L224.5,105.51z"/>
	<path style="fill-rule:evenodd;clip-rule:evenodd;stroke:#000000;stroke-linecap:square;stroke-miterlimit:10;" d="M311.5,105.51
		c0-2.5,2-4.5,4.5-4.5s4.5,2,4.5,4.5s-2,4.5-4.5,4.5S311.5,108.01,311.5,105.51L311.5,105.51z"/>
	
		<line style="fill:none;stroke:#000000;stroke-width:2;stroke-linecap:square;stroke-miterlimit:10;" x1="98.5" y1="2.01" x2="98.5" y2="217.01"/>
	
		<line style="fill:none;stroke:#000000;stroke-width:2;stroke-linecap:square;stroke-miterlimit:10;" x1="228.5" y1="2.01" x2="228.5" y2="217.01"/>
	<path style="fill-rule:evenodd;clip-rule:evenodd;fill:#FFFFFF;" d="M138.5,1.01L98.5,1c0,0,0,0.01,0,0.01
		c0,8.33,17.76,14.99,39.97,15L138.5,1.01L138.5,1.01z"/>
	<path style="fill:none;stroke:#000000;stroke-width:2;stroke-linecap:square;stroke-miterlimit:10;" d="M97.5,1c0,0,0,0.01,0,0.01
		c0,8.88,18.2,15.99,40.97,16"/>
	
		<line style="fill:none;stroke:#000000;stroke-width:2;stroke-linecap:square;stroke-miterlimit:10;" x1="137.5" y1="16.01" x2="177.5" y2="16.01"/>
	<path style="fill-rule:evenodd;clip-rule:evenodd;fill:#FFFFFF;" d="M177.5,2.01l-0.04,14c0.01,0,0.03,0,0.04,0
		c28.33,0,51-6.22,51-14c0,0,0-0.01,0-0.01L177.5,2.01L177.5,2.01z"/>
	<path style="fill:none;stroke:#000000;stroke-width:2;stroke-linecap:square;stroke-miterlimit:10;" d="M177.46,17.01
		c0.01,0,0.03,0,0.04,0c28.89,0,52-6.67,52-15c0,0,0-0.01,0-0.01"/>
	
		<line style="fill:none;stroke:#000000;stroke-linecap:square;stroke-miterlimit:10;" x1="256.5" y1="105.01" x2="264.5" y2="89.01"/>
	
		<line style="fill:none;stroke:#000000;stroke-linecap:square;stroke-miterlimit:10;" x1="264.5" y1="89.01" x2="276.5" y2="119.01"/>
	
		<line style="fill:none;stroke:#000000;stroke-linecap:square;stroke-miterlimit:10;" x1="276.5" y1="119.01" x2="285.5" y2="105.01"/>
	
		<line style="fill:none;stroke:#000000;stroke-linecap:square;stroke-miterlimit:10;" x1="150.5" y1="105.01" x2="158.5" y2="89.01"/>
	
		<line style="fill:none;stroke:#000000;stroke-linecap:square;stroke-miterlimit:10;" x1="158.5" y1="89.01" x2="170.5" y2="119.01"/>
	
		<line style="fill:none;stroke:#000000;stroke-linecap:square;stroke-miterlimit:10;" x1="170.5" y1="119.01" x2="179.5" y2="105.01"/>
	<line style="fill:none;stroke:#000000;stroke-linecap:square;stroke-miterlimit:10;" x1="34.5" y1="105.01" x2="42.5" y2="89.01"/>
	<line style="fill:none;stroke:#000000;stroke-linecap:square;stroke-miterlimit:10;" x1="42.5" y1="89.01" x2="54.5" y2="119.01"/>
	
		<line style="fill:none;stroke:#000000;stroke-linecap:square;stroke-miterlimit:10;" x1="54.5" y1="119.01" x2="63.5" y2="105.01"/>
	<path style="fill-rule:evenodd;clip-rule:evenodd;fill:#FFFFFF;" d="M183.5,217.01l-0.07-17c-47.17,0.01-84.89,7.55-84.93,16.99
		L183.5,217.01L183.5,217.01z"/>
	<path style="fill:none;stroke:#000000;stroke-width:2;stroke-linecap:square;stroke-miterlimit:10;" d="M183.43,199.01
		c-47.72,0.01-85.89,8-85.93,17.98"/>
	<path style="fill-rule:evenodd;clip-rule:evenodd;fill:#FFFFFF;" d="M182.5,217.01l46-0.01c-0.02-9.44-20.46-16.99-46-16.99
		c-0.01,0-0.03,0-0.04,0L182.5,217.01L182.5,217.01z"/>
	<path style="fill:none;stroke:#000000;stroke-width:2;stroke-linecap:square;stroke-miterlimit:10;" d="M229.5,217
		c-0.02-9.99-20.9-17.98-47-17.98c-0.01,0-0.03,0-0.04,0"/>
	
		<line style="fill:none;stroke:#000000;stroke-linecap:square;stroke-miterlimit:10;" x1="98.5" y1="105.01" x2="125.5" y2="132.01"/>
	
		<line style="fill:none;stroke:#000000;stroke-linecap:square;stroke-miterlimit:10;" x1="228.5" y1="105.01" x2="201.5" y2="132.01"/>
	
		<line style="fill:none;stroke:#000000;stroke-linecap:square;stroke-miterlimit:10;" x1="125.5" y1="133.01" x2="125.5" y2="149.01"/>
	
		<line style="fill:none;stroke:#000000;stroke-linecap:square;stroke-miterlimit:10;" x1="201.5" y1="133.01" x2="201.5" y2="149.01"/>
	
		<line style="fill:none;stroke:#000000;stroke-width:3;stroke-linecap:square;stroke-miterlimit:10;" x1="118.5" y1="141.01" x2="131.5" y2="141.01"/>
	
		<line style="fill:none;stroke:#000000;stroke-width:3;stroke-linecap:square;stroke-miterlimit:10;" x1="194.5" y1="141.01" x2="207.5" y2="141.01"/>
	
		<line style="fill:none;stroke:#000000;stroke-linecap:square;stroke-miterlimit:10;" x1="116.5" y1="150.01" x2="134.5" y2="150.01"/>
	
		<line style="fill:none;stroke:#000000;stroke-linecap:square;stroke-miterlimit:10;" x1="118.5" y1="153.01" x2="131.5" y2="153.01"/>
	
		<line style="fill:none;stroke:#000000;stroke-linecap:square;stroke-miterlimit:10;" x1="121.5" y1="156.01" x2="128.5" y2="156.01"/>
	
		<line style="fill:none;stroke:#000000;stroke-linecap:square;stroke-miterlimit:10;" x1="123.5" y1="159.01" x2="126.5" y2="159.01"/>
	<g>
		<path d="M7.45,90.07l0.09,1.86H7.32c-0.04-0.33-0.1-0.56-0.18-0.7c-0.12-0.23-0.28-0.39-0.48-0.5s-0.47-0.16-0.79-0.16H4.74v6.07
			c0,0.49,0.05,0.79,0.16,0.91c0.15,0.16,0.38,0.25,0.69,0.25h0.28v0.22H2.49V97.8h0.28c0.34,0,0.57-0.1,0.71-0.3
			c0.09-0.13,0.13-0.41,0.13-0.86v-6.07H2.66c-0.37,0-0.63,0.03-0.79,0.08c-0.2,0.07-0.38,0.22-0.52,0.43s-0.23,0.5-0.26,0.86H0.87
			l0.09-1.86H7.45z"/>
	</g>
	<g>
		<path d="M91.44,90.07l0.09,1.86h-0.22c-0.04-0.33-0.1-0.56-0.18-0.7c-0.12-0.23-0.28-0.39-0.48-0.5s-0.47-0.16-0.79-0.16h-1.12
			v6.07c0,0.49,0.05,0.79,0.16,0.91c0.15,0.16,0.38,0.25,0.69,0.25h0.28v0.22h-3.37V97.8h0.28c0.34,0,0.57-0.1,0.71-0.3
			c0.09-0.13,0.13-0.41,0.13-0.86v-6.07h-0.96c-0.37,0-0.63,0.03-0.79,0.08c-0.2,0.07-0.38,0.22-0.52,0.43s-0.23,0.5-0.26,0.86
			h-0.22l0.09-1.86H91.44z"/>
	</g>
	<g>
		<path d="M221.44,90.07l0.09,1.86h-0.22c-0.04-0.33-0.1-0.56-0.18-0.7c-0.12-0.23-0.28-0.39-0.48-0.5s-0.47-0.16-0.79-0.16h-1.12
			v6.07c0,0.49,0.05,0.79,0.16,0.91c0.15,0.16,0.38,0.25,0.69,0.25h0.28v0.22h-3.37V97.8h0.28c0.34,0,0.57-0.1,0.71-0.3
			c0.09-0.13,0.13-0.41,0.13-0.86v-6.07h-0.96c-0.37,0-0.63,0.03-0.79,0.08c-0.2,0.07-0.38,0.22-0.52,0.43s-0.23,0.5-0.26,0.86
			h-0.22l0.09-1.86H221.44z"/>
	</g>
	<g>
		<path d="M316.44,90.07l0.09,1.86h-0.22c-0.04-0.33-0.1-0.56-0.18-0.7c-0.12-0.23-0.28-0.39-0.48-0.5s-0.47-0.16-0.79-0.16h-1.12
			v6.07c0,0.49,0.05,0.79,0.16,0.91c0.15,0.16,0.38,0.25,0.69,0.25h0.28v0.22h-3.37V97.8h0.28c0.34,0,0.57-0.1,0.71-0.3
			c0.09-0.13,0.13-0.41,0.13-0.86v-6.07h-0.96c-0.37,0-0.63,0.03-0.79,0.08c-0.2,0.07-0.38,0.22-0.52,0.43s-0.23,0.5-0.26,0.86
			h-0.22l0.09-1.86H316.44z"/>
	</g>
	<g>
		<path d="M114.72,138.89l0.18,2.7h-0.18c-0.24-0.81-0.59-1.39-1.04-1.75s-0.99-0.53-1.62-0.53c-0.53,0-1,0.13-1.43,0.4
			s-0.76,0.69-1,1.28s-0.37,1.31-0.37,2.19c0,0.72,0.12,1.34,0.35,1.87s0.58,0.93,1.04,1.21s0.99,0.42,1.58,0.42
			c0.52,0,0.97-0.11,1.37-0.33s0.83-0.66,1.3-1.32l0.18,0.12c-0.4,0.71-0.86,1.22-1.39,1.55s-1.16,0.49-1.89,0.49
			c-1.32,0-2.34-0.49-3.06-1.46c-0.54-0.73-0.81-1.58-0.81-2.57c0-0.79,0.18-1.52,0.53-2.19s0.84-1.18,1.47-1.54s1.3-0.55,2.04-0.55
			c0.57,0,1.14,0.14,1.7,0.42c0.16,0.09,0.28,0.13,0.35,0.13c0.11,0,0.2-0.04,0.28-0.11c0.1-0.11,0.17-0.25,0.22-0.44H114.72z"/>
	</g>
	<g>
		<path d="M190.72,138.89l0.18,2.7h-0.18c-0.24-0.81-0.59-1.39-1.04-1.75s-0.99-0.53-1.62-0.53c-0.53,0-1,0.13-1.43,0.4
			s-0.76,0.69-1,1.28s-0.37,1.31-0.37,2.19c0,0.72,0.12,1.34,0.35,1.87s0.58,0.93,1.04,1.21s0.99,0.42,1.58,0.42
			c0.52,0,0.97-0.11,1.37-0.33s0.83-0.66,1.3-1.32l0.18,0.12c-0.4,0.71-0.86,1.22-1.39,1.55s-1.16,0.49-1.89,0.49
			c-1.32,0-2.34-0.49-3.06-1.46c-0.54-0.73-0.81-1.58-0.81-2.57c0-0.79,0.18-1.52,0.53-2.19s0.84-1.18,1.47-1.54s1.3-0.55,2.04-0.55
			c0.57,0,1.14,0.14,1.7,0.42c0.16,0.09,0.28,0.13,0.35,0.13c0.11,0,0.2-0.04,0.28-0.11c0.1-0.11,0.17-0.25,0.22-0.44H190.72z"/>
	</g>
	<g>
		<path d="M156.61,121.01h-2.12l-2.69-3.71c-0.2,0.01-0.36,0.01-0.49,0.01c-0.05,0-0.11,0-0.16,0s-0.12,0-0.18-0.01v2.31
			c0,0.5,0.05,0.81,0.16,0.93c0.15,0.17,0.37,0.26,0.67,0.26h0.31v0.22h-3.4v-0.22h0.3c0.34,0,0.58-0.11,0.72-0.33
			c0.08-0.12,0.12-0.41,0.12-0.86v-5.13c0-0.5-0.05-0.81-0.16-0.93c-0.15-0.17-0.38-0.26-0.68-0.26h-0.3v-0.22h2.89
			c0.84,0,1.47,0.06,1.87,0.18s0.74,0.35,1.02,0.68s0.42,0.72,0.42,1.18c0,0.49-0.16,0.91-0.48,1.27s-0.81,0.61-1.48,0.76l1.64,2.28
			c0.38,0.52,0.7,0.87,0.97,1.04s0.62,0.28,1.05,0.33V121.01z M150.97,116.93c0.07,0,0.14,0,0.19,0s0.1,0,0.13,0
			c0.76,0,1.33-0.16,1.71-0.49s0.58-0.75,0.58-1.25c0-0.5-0.16-0.9-0.47-1.21s-0.72-0.47-1.23-0.47c-0.23,0-0.53,0.04-0.92,0.11
			V116.93z"/>
	</g>
	<g>
		<path d="M258.45,123.68v3.93c0.43-0.48,0.78-0.78,1.03-0.92s0.51-0.2,0.76-0.2c0.3,0,0.57,0.08,0.79,0.25s0.38,0.43,0.49,0.79
			c0.07,0.25,0.11,0.71,0.11,1.37v1.9c0,0.34,0.03,0.57,0.08,0.7c0.04,0.09,0.11,0.17,0.2,0.22s0.27,0.08,0.52,0.08v0.21h-2.64
			v-0.21h0.12c0.25,0,0.42-0.04,0.52-0.11s0.17-0.19,0.21-0.34c0.01-0.06,0.02-0.25,0.02-0.55v-1.9c0-0.59-0.03-0.97-0.09-1.15
			s-0.16-0.32-0.29-0.41s-0.29-0.14-0.48-0.14c-0.19,0-0.39,0.05-0.6,0.15s-0.46,0.31-0.74,0.62v2.84c0,0.37,0.02,0.6,0.06,0.69
			s0.12,0.17,0.23,0.23s0.3,0.09,0.58,0.09v0.21h-2.66v-0.21c0.24,0,0.43-0.04,0.56-0.11c0.08-0.04,0.14-0.11,0.19-0.22
			s0.07-0.33,0.07-0.67v-4.86c0-0.61-0.01-0.99-0.04-1.13s-0.07-0.24-0.13-0.29s-0.14-0.08-0.24-0.08c-0.08,0-0.21,0.03-0.4,0.09
			l-0.08-0.21l1.61-0.66H258.45z"/>
	</g>
	<g>
		<path d="M267.99,129.35h-3.08l-0.54,1.25c-0.13,0.31-0.2,0.54-0.2,0.69c0,0.12,0.06,0.23,0.17,0.32s0.36,0.15,0.75,0.18v0.22h-2.5
			v-0.22c0.33-0.06,0.55-0.13,0.64-0.23c0.2-0.19,0.42-0.57,0.66-1.14l2.79-6.54h0.21l2.77,6.61c0.22,0.53,0.42,0.88,0.61,1.03
			s0.43,0.25,0.76,0.27v0.22h-3.13v-0.22c0.32-0.02,0.53-0.07,0.64-0.16s0.17-0.2,0.17-0.33c0-0.17-0.08-0.44-0.23-0.81
			L267.99,129.35z M267.83,128.92l-1.35-3.21l-1.38,3.21H267.83z"/>
	</g>
	<g>
		<path d="M262.91,109.85l1.93-0.94h0.19v6.71c0,0.45,0.02,0.72,0.06,0.83s0.11,0.19,0.23,0.25s0.36,0.09,0.71,0.1v0.22h-2.99v-0.22
			c0.38-0.01,0.62-0.04,0.73-0.1s0.19-0.13,0.23-0.23s0.06-0.38,0.06-0.86v-4.29c0-0.58-0.02-0.95-0.06-1.11
			c-0.03-0.13-0.08-0.22-0.15-0.28s-0.16-0.09-0.26-0.09c-0.14,0-0.35,0.06-0.6,0.18L262.91,109.85z"/>
	</g>
	
		<line style="fill:none;stroke:#000000;stroke-linecap:square;stroke-miterlimit:10;" x1="254.5" y1="118.01" x2="271.5" y2="118.01"/>
	<g>
		<path d="M36.45,123.68v3.93c0.43-0.48,0.78-0.78,1.03-0.92s0.51-0.2,0.76-0.2c0.3,0,0.57,0.08,0.79,0.25s0.38,0.43,0.49,0.79
			c0.07,0.25,0.11,0.71,0.11,1.37v1.9c0,0.34,0.03,0.57,0.08,0.7c0.04,0.09,0.11,0.17,0.2,0.22s0.27,0.08,0.52,0.08v0.21h-2.64
			v-0.21h0.12c0.25,0,0.42-0.04,0.52-0.11s0.17-0.19,0.21-0.34c0.01-0.06,0.02-0.25,0.02-0.55v-1.9c0-0.59-0.03-0.97-0.09-1.15
			s-0.16-0.32-0.29-0.41s-0.29-0.14-0.48-0.14c-0.19,0-0.39,0.05-0.6,0.15s-0.46,0.31-0.74,0.62v2.84c0,0.37,0.02,0.6,0.06,0.69
			s0.12,0.17,0.23,0.23s0.3,0.09,0.58,0.09v0.21h-2.66v-0.21c0.24,0,0.43-0.04,0.56-0.11c0.08-0.04,0.14-0.11,0.19-0.22
			s0.07-0.33,0.07-0.67v-4.86c0-0.61-0.01-0.99-0.04-1.13s-0.07-0.24-0.13-0.29s-0.14-0.08-0.24-0.08c-0.08,0-0.21,0.03-0.4,0.09
			l-0.08-0.21l1.61-0.66H36.45z"/>
	</g>
	<g>
		<path d="M46,129.35h-3.08l-0.54,1.25c-0.13,0.31-0.2,0.54-0.2,0.69c0,0.12,0.06,0.23,0.17,0.32s0.36,0.15,0.75,0.18v0.22h-2.5
			v-0.22c0.33-0.06,0.55-0.13,0.64-0.23c0.2-0.19,0.42-0.57,0.66-1.14l2.79-6.54h0.21l2.77,6.61c0.22,0.53,0.42,0.88,0.61,1.03
			s0.43,0.25,0.76,0.27v0.22H45.9v-0.22c0.32-0.02,0.53-0.07,0.64-0.16s0.17-0.2,0.17-0.33c0-0.17-0.08-0.44-0.23-0.81L46,129.35z
			 M45.83,128.92l-1.35-3.21l-1.38,3.21H45.83z"/>
	</g>
	<g>
		<path d="M40.91,109.85l1.93-0.94h0.19v6.71c0,0.45,0.02,0.72,0.06,0.83s0.11,0.19,0.23,0.25s0.36,0.09,0.71,0.1v0.22h-2.99v-0.22
			c0.38-0.01,0.62-0.04,0.73-0.1s0.19-0.13,0.23-0.23s0.06-0.38,0.06-0.86v-4.29c0-0.58-0.02-0.95-0.06-1.11
			c-0.03-0.13-0.08-0.22-0.15-0.28s-0.16-0.09-0.26-0.09c-0.14,0-0.35,0.06-0.6,0.18L40.91,109.85z"/>
	</g>
	
		<line style="fill:none;stroke:#000000;stroke-linecap:square;stroke-miterlimit:10;" x1="32.5" y1="118.01" x2="49.5" y2="118.01"/>
	<g>
		<path d="M319.17,95.86v3.23c0,0.25,0.02,0.42,0.05,0.5c0.04,0.08,0.09,0.15,0.16,0.19c0.07,0.04,0.2,0.06,0.39,0.06v0.16h-1.96
			v-0.16c0.2,0,0.33-0.02,0.4-0.06s0.12-0.1,0.16-0.19c0.04-0.09,0.06-0.26,0.06-0.51v-1.55c0-0.44-0.01-0.72-0.04-0.85
			c-0.02-0.09-0.05-0.16-0.1-0.2c-0.04-0.04-0.1-0.05-0.18-0.05c-0.08,0-0.18,0.02-0.3,0.07l-0.06-0.16l1.21-0.49H319.17z
			 M318.8,93.76c0.12,0,0.23,0.04,0.31,0.13c0.09,0.09,0.13,0.19,0.13,0.31s-0.04,0.23-0.13,0.32c-0.09,0.09-0.19,0.13-0.31,0.13
			s-0.23-0.04-0.32-0.13s-0.13-0.19-0.13-0.32s0.04-0.23,0.13-0.31C318.57,93.8,318.68,93.76,318.8,93.76z"/>
	</g>
	<g>
		<path d="M9.75,95.86c0.61,0,1.1,0.23,1.47,0.69c0.31,0.4,0.47,0.85,0.47,1.36c0,0.36-0.09,0.73-0.26,1.09s-0.41,0.65-0.71,0.83
			c-0.3,0.19-0.64,0.28-1.01,0.28c-0.61,0-1.09-0.24-1.45-0.73C7.95,99,7.8,98.54,7.8,98.03c0-0.37,0.09-0.74,0.27-1.1
			c0.18-0.36,0.42-0.63,0.72-0.81C9.1,95.95,9.42,95.86,9.75,95.86z M9.61,96.15c-0.16,0-0.31,0.05-0.47,0.14
			c-0.16,0.09-0.28,0.25-0.38,0.49s-0.15,0.53-0.15,0.89c0,0.59,0.12,1.09,0.35,1.52c0.23,0.42,0.54,0.64,0.92,0.64
			c0.28,0,0.52-0.12,0.7-0.35s0.28-0.64,0.28-1.21c0-0.71-0.15-1.28-0.46-1.69C10.2,96.29,9.94,96.15,9.61,96.15z"/>
	</g>
	<g>
		<path d="M91.55,94.63L93,93.92h0.15v5.03c0,0.33,0.01,0.54,0.04,0.62s0.09,0.15,0.17,0.19s0.27,0.07,0.54,0.07v0.16h-2.24v-0.16
			c0.28-0.01,0.46-0.03,0.54-0.07c0.08-0.04,0.14-0.1,0.17-0.17s0.05-0.29,0.05-0.64v-3.22c0-0.43-0.01-0.71-0.04-0.83
			c-0.02-0.09-0.06-0.16-0.11-0.21s-0.12-0.07-0.2-0.07c-0.11,0-0.26,0.05-0.45,0.14L91.55,94.63z"/>
	</g>
	<g>
		<path d="M225.63,98.86l-0.42,1.15h-3.52v-0.16c1.03-0.94,1.76-1.71,2.18-2.31s0.63-1.14,0.63-1.64c0-0.38-0.12-0.69-0.35-0.93
			s-0.51-0.36-0.83-0.36c-0.29,0-0.56,0.09-0.79,0.26c-0.23,0.17-0.41,0.42-0.52,0.75h-0.16c0.07-0.54,0.26-0.96,0.56-1.25
			c0.3-0.29,0.68-0.44,1.14-0.44c0.48,0,0.89,0.16,1.21,0.47c0.32,0.31,0.49,0.68,0.49,1.1c0,0.3-0.07,0.6-0.21,0.91
			c-0.22,0.47-0.57,0.98-1.05,1.51c-0.73,0.8-1.19,1.28-1.37,1.44h1.56c0.32,0,0.54-0.01,0.67-0.04c0.13-0.02,0.24-0.07,0.34-0.14
			c0.1-0.07,0.19-0.17,0.27-0.31H225.63z"/>
	</g>
	
		<line style="fill:none;stroke:#000000;stroke-linecap:square;stroke-miterlimit:10;" x1="161.5" y1="20.01" x2="161.5" y2="28.01"/>
	
		<line style="fill:none;stroke:#000000;stroke-linecap:square;stroke-miterlimit:10;" x1="161.5" y1="38.01" x2="161.5" y2="46.01"/>
	
		<line style="fill:none;stroke:#000000;stroke-linecap:square;stroke-miterlimit:10;" x1="161.5" y1="56.01" x2="161.5" y2="64.01"/>
	
		<line style="fill:none;stroke:#000000;stroke-linecap:square;stroke-miterlimit:10;" x1="161.5" y1="74.01" x2="161.5" y2="82.01"/>
	
		<line style="fill:none;stroke:#000000;stroke-linecap:square;stroke-miterlimit:10;" x1="161.5" y1="92.01" x2="161.5" y2="100.01"/>
	
		<line style="fill:none;stroke:#000000;stroke-linecap:square;stroke-miterlimit:10;" x1="161.5" y1="110.01" x2="161.5" y2="118.01"/>
	
		<line style="fill:none;stroke:#000000;stroke-linecap:square;stroke-miterlimit:10;" x1="161.5" y1="128.01" x2="161.5" y2="136.01"/>
	
		<line style="fill:none;stroke:#000000;stroke-linecap:square;stroke-miterlimit:10;" x1="161.5" y1="146.01" x2="161.5" y2="154.01"/>
	
		<line style="fill:none;stroke:#000000;stroke-linecap:square;stroke-miterlimit:10;" x1="161.5" y1="164.01" x2="161.5" y2="172.01"/>
	
		<line style="fill:none;stroke:#000000;stroke-linecap:square;stroke-miterlimit:10;" x1="161.5" y1="182.01" x2="161.5" y2="190.01"/>
	
		<line style="fill:none;stroke:#000000;stroke-linecap:square;stroke-miterlimit:10;" x1="161.5" y1="200.01" x2="161.5" y2="200.01"/>
	
		<line style="fill:none;stroke:#000000;stroke-linecap:square;stroke-miterlimit:10;" x1="192.5" y1="150.01" x2="210.5" y2="150.01"/>
	
		<line style="fill:none;stroke:#000000;stroke-linecap:square;stroke-miterlimit:10;" x1="194.5" y1="153.01" x2="207.5" y2="153.01"/>
	
		<line style="fill:none;stroke:#000000;stroke-linecap:square;stroke-miterlimit:10;" x1="197.5" y1="156.01" x2="205.5" y2="156.01"/>
	
		<line style="fill:none;stroke:#000000;stroke-linecap:square;stroke-miterlimit:10;" x1="199.5" y1="159.01" x2="202.5" y2="159.01"/>
	<polygon style="fill-rule:evenodd;clip-rule:evenodd;" points="101.5,103.01 108.5,91.01 110.5,93.01 113.5,96.01 101.5,103.01 	
		"/>
	
		<line style="fill:none;stroke:#000000;stroke-linecap:square;stroke-miterlimit:10;" x1="110.5" y1="93.01" x2="128.5" y2="76.01"/>
	<g>
		<path d="M136.63,75.49v6.9c0,0.34,0.02,0.56,0.07,0.66s0.12,0.17,0.22,0.23s0.29,0.08,0.58,0.08v0.22h-2.71v-0.22h0.11
			c0.22,0,0.38-0.03,0.5-0.09c0.08-0.04,0.14-0.12,0.19-0.23s0.07-0.33,0.07-0.65v-2.31c-0.36,0.42-0.67,0.71-0.93,0.86
			s-0.54,0.23-0.83,0.23c-0.52,0-0.98-0.24-1.39-0.71s-0.61-1.11-0.61-1.9c0-0.91,0.27-1.65,0.81-2.22s1.19-0.86,1.95-0.86
			c0.22,0,0.43,0.03,0.62,0.09s0.36,0.16,0.5,0.28c0.23-0.11,0.44-0.23,0.65-0.38H136.63z M135.66,79.71v-2.52
			c0-0.29-0.04-0.52-0.11-0.69s-0.21-0.31-0.41-0.43s-0.42-0.18-0.66-0.18c-0.44,0-0.81,0.19-1.13,0.56s-0.47,0.93-0.47,1.69
			c0,0.72,0.16,1.27,0.48,1.65s0.7,0.56,1.15,0.56c0.23,0,0.44-0.05,0.62-0.15S135.48,79.94,135.66,79.71z"/>
	</g>
	<g>
		<path d="M141.38,78.87v1.37h-0.15c-0.11-0.43-0.25-0.72-0.43-0.88c-0.17-0.16-0.4-0.23-0.67-0.23c-0.21,0-0.37,0.05-0.5,0.16
			s-0.19,0.23-0.19,0.36c0,0.16,0.05,0.3,0.14,0.42c0.09,0.12,0.28,0.25,0.55,0.38l0.64,0.31c0.59,0.29,0.89,0.67,0.89,1.15
			c0,0.37-0.14,0.66-0.42,0.89c-0.28,0.22-0.59,0.34-0.93,0.34c-0.25,0-0.53-0.04-0.84-0.13c-0.1-0.03-0.18-0.04-0.24-0.04
			c-0.07,0-0.12,0.04-0.16,0.11h-0.15v-1.44h0.15c0.08,0.41,0.24,0.72,0.47,0.93s0.49,0.31,0.78,0.31c0.2,0,0.37-0.06,0.49-0.18
			c0.13-0.12,0.19-0.26,0.19-0.43c0-0.2-0.07-0.37-0.21-0.51s-0.43-0.31-0.85-0.52s-0.7-0.4-0.83-0.57c-0.13-0.17-0.2-0.38-0.2-0.63
			c0-0.33,0.11-0.61,0.34-0.83c0.23-0.22,0.52-0.33,0.88-0.33c0.16,0,0.35,0.03,0.58,0.1c0.15,0.04,0.25,0.07,0.3,0.07
			c0.05,0,0.08-0.01,0.11-0.03s0.06-0.07,0.09-0.14H141.38z"/>
	</g>
	<g>
		<path d="M143.75,78.87c0.61,0,1.1,0.23,1.47,0.69c0.31,0.4,0.47,0.85,0.47,1.36c0,0.36-0.09,0.73-0.26,1.09s-0.41,0.65-0.71,0.83
			c-0.3,0.19-0.64,0.28-1.01,0.28c-0.61,0-1.09-0.24-1.45-0.73c-0.3-0.41-0.45-0.86-0.45-1.37c0-0.37,0.09-0.74,0.27-1.1
			c0.18-0.36,0.42-0.63,0.72-0.81C143.1,78.96,143.42,78.87,143.75,78.87z M143.61,79.16c-0.16,0-0.31,0.05-0.47,0.14
			c-0.16,0.09-0.28,0.25-0.38,0.49s-0.15,0.53-0.15,0.89c0,0.59,0.12,1.09,0.35,1.52c0.23,0.42,0.54,0.64,0.92,0.64
			c0.28,0,0.52-0.12,0.7-0.35s0.28-0.64,0.28-1.21c0-0.71-0.15-1.28-0.46-1.69C144.2,79.3,143.94,79.16,143.61,79.16z"/>
	</g>
	<g>
		<path d="M150.31,78.99v2.44c0,0.47,0.01,0.75,0.03,0.85c0.02,0.1,0.06,0.18,0.11,0.22c0.05,0.04,0.1,0.06,0.17,0.06
			c0.09,0,0.19-0.02,0.31-0.07l0.06,0.15l-1.2,0.5h-0.2v-0.85c-0.35,0.38-0.61,0.61-0.79,0.71s-0.37,0.15-0.58,0.15
			c-0.23,0-0.42-0.07-0.59-0.2c-0.17-0.13-0.28-0.3-0.35-0.5s-0.1-0.5-0.1-0.87v-1.8c0-0.19-0.02-0.32-0.06-0.4s-0.1-0.13-0.18-0.17
			c-0.08-0.04-0.23-0.06-0.44-0.06v-0.16h1.41v2.69c0,0.38,0.06,0.62,0.2,0.74c0.13,0.12,0.29,0.18,0.47,0.18
			c0.13,0,0.27-0.04,0.43-0.12s0.35-0.23,0.57-0.45v-2.28c0-0.23-0.04-0.38-0.13-0.46c-0.08-0.08-0.26-0.12-0.52-0.13v-0.16H150.31z
			"/>
	</g>
	<g>
		<path d="M151.96,78.87v0.91c0.34-0.6,0.68-0.91,1.04-0.91c0.16,0,0.29,0.05,0.4,0.15c0.11,0.1,0.16,0.21,0.16,0.34
			c0,0.11-0.04,0.21-0.11,0.29s-0.17,0.12-0.27,0.12c-0.1,0-0.22-0.05-0.35-0.15c-0.13-0.1-0.22-0.15-0.28-0.15
			c-0.05,0-0.11,0.03-0.17,0.09c-0.13,0.12-0.27,0.32-0.41,0.59v1.93c0,0.22,0.03,0.39,0.08,0.51c0.04,0.08,0.11,0.15,0.2,0.2
			s0.24,0.08,0.42,0.08v0.16h-2.06v-0.16c0.21,0,0.36-0.03,0.46-0.1c0.07-0.05,0.12-0.12,0.15-0.22c0.01-0.05,0.02-0.19,0.02-0.43
			v-1.56c0-0.47-0.01-0.75-0.03-0.84c-0.02-0.09-0.05-0.15-0.11-0.2s-0.11-0.06-0.19-0.06c-0.09,0-0.19,0.02-0.31,0.07l-0.04-0.16
			l1.22-0.49H151.96z"/>
	</g>
	<g>
		<path d="M157.2,81.48c-0.11,0.53-0.32,0.94-0.64,1.22c-0.32,0.29-0.67,0.43-1.05,0.43c-0.46,0-0.86-0.19-1.2-0.58
			s-0.51-0.9-0.51-1.56c0-0.63,0.19-1.15,0.56-1.54s0.83-0.59,1.36-0.59c0.4,0,0.72,0.1,0.98,0.31c0.25,0.21,0.38,0.43,0.38,0.65
			c0,0.11-0.04,0.2-0.11,0.27c-0.07,0.07-0.17,0.1-0.3,0.1c-0.17,0-0.3-0.06-0.39-0.17c-0.05-0.06-0.08-0.18-0.1-0.35
			c-0.02-0.17-0.08-0.3-0.18-0.4c-0.1-0.09-0.24-0.13-0.43-0.13c-0.29,0-0.53,0.11-0.71,0.33c-0.24,0.29-0.36,0.67-0.36,1.14
			c0,0.48,0.12,0.9,0.35,1.27c0.24,0.37,0.55,0.55,0.96,0.55c0.29,0,0.54-0.1,0.77-0.29c0.16-0.13,0.32-0.38,0.47-0.73L157.2,81.48z
			"/>
	</g>
	<g>
		<path d="M158.46,80.5c0,0.6,0.14,1.07,0.44,1.41s0.64,0.51,1.03,0.51c0.26,0,0.49-0.07,0.69-0.22c0.2-0.15,0.36-0.39,0.49-0.75
			l0.14,0.09c-0.06,0.4-0.24,0.77-0.54,1.1c-0.3,0.33-0.67,0.49-1.11,0.49c-0.48,0-0.9-0.19-1.24-0.56
			c-0.34-0.38-0.52-0.88-0.52-1.52c0-0.69,0.18-1.23,0.53-1.61s0.8-0.58,1.33-0.58c0.45,0,0.82,0.15,1.11,0.45s0.44,0.69,0.44,1.19
			H158.46z M158.46,80.25h1.86c-0.01-0.26-0.05-0.44-0.09-0.54c-0.07-0.16-0.18-0.29-0.33-0.39c-0.14-0.09-0.3-0.14-0.45-0.14
			c-0.24,0-0.46,0.09-0.65,0.28C158.6,79.65,158.49,79.91,158.46,80.25z"/>
	</g>
</g>
</svg>
