<?xml version="1.0" encoding="iso-8859-1"?>
<!-- Generator: Adobe Illustrator 16.0.3, SVG Export Plug-In . SVG Version: 6.00 Build 0)  -->
<!DOCTYPE svg PUBLIC "-//W3C//DTD SVG 1.1//EN" "http://www.w3.org/Graphics/SVG/1.1/DTD/svg11.dtd">
<svg version="1.1" id="Layer_1" xmlns="http://www.w3.org/2000/svg" xmlns:xlink="http://www.w3.org/1999/xlink" x="0px" y="0px"
	 width="468px" height="197.67px" viewBox="0 0 468 197.67" style="enable-background:new 0 0 468 197.67;" xml:space="preserve">
<g>
	<g>
		<defs>
			<rect id="SVGID_1_" width="468" height="194.28"/>
		</defs>
		<clipPath id="SVGID_2_">
			<use xlink:href="#SVGID_1_"  style="overflow:visible;"/>
		</clipPath>
		<g style="clip-path:url(#SVGID_2_);">
		</g>
	</g>
	
		<line style="fill:none;stroke:#000000;stroke-linecap:round;stroke-linejoin:round;stroke-miterlimit:8;" x1="176.51" y1="136" x2="176.54" y2="162"/>
	<polygon style="fill-rule:evenodd;clip-rule:evenodd;" points="179.54,161 176.55,167 173.54,161 179.54,161 	"/>
	<polygon style="fill-rule:evenodd;clip-rule:evenodd;" points="173.51,137 176.5,131 179.51,137 173.51,137 	"/>
	
		<line style="fill:none;stroke:#000000;stroke-linecap:round;stroke-linejoin:round;stroke-miterlimit:8;" x1="147.8" y1="42.4" x2="176.99" y2="79.18"/>
	<polygon style="fill-rule:evenodd;clip-rule:evenodd;" points="178.72,76.54 180.1,83.1 174.02,80.26 178.72,76.54 	"/>
	<polygon style="fill-rule:evenodd;clip-rule:evenodd;fill:#CC3300;" points="147.2,34.31 144.67,32.91 146.47,30.63 143.59,30.31 
		144.38,27.52 141.59,28.32 141.28,25.43 138.99,27.24 137.6,24.7 136.21,27.24 133.92,25.43 133.61,28.32 130.82,27.52 
		131.61,30.31 128.73,30.63 130.53,32.91 128,34.31 130.53,35.74 128.73,37.99 131.61,38.34 130.82,41.13 133.61,40.3 133.92,43.19 
		136.21,41.38 137.6,43.95 138.99,41.38 141.28,43.19 141.59,40.3 144.38,41.13 143.59,38.34 146.47,37.99 144.67,35.74 
		147.2,34.31 147.2,34.31 	"/>
	
		<polygon style="fill:none;stroke:#000000;stroke-width:0.12;stroke-linecap:round;stroke-linejoin:round;stroke-miterlimit:8;" points="
		147.2,34.31 144.67,32.91 146.47,30.63 143.59,30.31 144.38,27.52 141.59,28.32 141.28,25.43 138.99,27.24 137.6,24.7 
		136.21,27.24 133.92,25.43 133.61,28.32 130.82,27.52 131.61,30.31 128.73,30.63 130.53,32.91 128,34.31 130.53,35.74 
		128.73,37.99 131.61,38.34 130.82,41.13 133.61,40.3 133.92,43.19 136.21,41.38 137.6,43.95 138.99,41.38 141.28,43.19 
		141.59,40.3 144.38,41.13 143.59,38.34 146.47,37.99 144.67,35.74 147.2,34.31 147.2,34.31 	"/>
	<path style="fill-rule:evenodd;clip-rule:evenodd;fill:#FFFF99;" d="M136.63,27.6c-3.16,0-5.73,2.56-5.73,5.73s2.56,5.73,5.73,5.73
		s5.73-2.56,5.73-5.73S139.79,27.6,136.63,27.6L136.63,27.6z"/>
	<path style="fill:none;stroke:#000000;stroke-width:0.12;stroke-linecap:round;stroke-linejoin:round;stroke-miterlimit:8;" d="
		M136.63,27.6c-3.16,0-5.73,2.56-5.73,5.73s2.56,5.73,5.73,5.73s5.73-2.56,5.73-5.73S139.79,27.6,136.63,27.6L136.63,27.6z"/>
	<path style="fill:none;stroke:#000000;stroke-width:0.12;stroke-linecap:round;stroke-linejoin:round;stroke-miterlimit:8;" d="
		M136.63,27.6c-3.16,0-5.73,2.56-5.73,5.73s2.56,5.73,5.73,5.73s5.73-2.56,5.73-5.73S139.79,27.6,136.63,27.6L136.63,27.6z"/>
	<polygon style="fill-rule:evenodd;clip-rule:evenodd;fill:#FF0000;" points="147.2,34.31 144.67,32.91 146.47,30.63 143.59,30.31 
		144.38,27.52 141.59,28.32 141.28,25.43 138.99,27.24 137.6,24.7 136.21,27.24 133.92,25.43 133.61,28.32 130.82,27.52 
		131.61,30.31 128.73,30.63 130.53,32.91 128,34.31 130.53,35.74 128.73,37.99 131.61,38.34 130.82,41.13 133.61,40.3 133.92,43.19 
		136.21,41.38 137.6,43.95 138.99,41.38 141.28,43.19 141.59,40.3 144.38,41.13 143.59,38.34 146.47,37.99 144.67,35.74 
		147.2,34.31 147.2,34.31 	"/>
	<polygon style="fill-rule:evenodd;clip-rule:evenodd;fill:#FF0000;" points="147.2,34.31 144.67,32.91 146.47,30.63 143.59,30.31 
		144.38,27.52 141.59,28.32 141.28,25.43 138.99,27.24 137.6,24.7 136.21,27.24 133.92,25.43 133.61,28.32 130.82,27.52 
		131.61,30.31 128.73,30.63 130.53,32.91 128,34.31 130.53,35.74 128.73,37.99 131.61,38.34 130.82,41.13 133.61,40.3 133.92,43.19 
		136.21,41.38 137.6,43.95 138.99,41.38 141.28,43.19 141.59,40.3 144.38,41.13 143.59,38.34 146.47,37.99 144.67,35.74 
		147.2,34.31 147.2,34.31 	"/>
	
		<polygon style="fill:none;stroke:#000000;stroke-width:0.12;stroke-linecap:round;stroke-linejoin:round;stroke-miterlimit:8;" points="
		147.2,34.31 144.67,32.91 146.47,30.63 143.59,30.31 144.38,27.52 141.59,28.32 141.28,25.43 138.99,27.24 137.6,24.7 
		136.21,27.24 133.92,25.43 133.61,28.32 130.82,27.52 131.61,30.31 128.73,30.63 130.53,32.91 128,34.31 130.53,35.74 
		128.73,37.99 131.61,38.34 130.82,41.13 133.61,40.3 133.92,43.19 136.21,41.38 137.6,43.95 138.99,41.38 141.28,43.19 
		141.59,40.3 144.38,41.13 143.59,38.34 146.47,37.99 144.67,35.74 147.2,34.31 147.2,34.31 	"/>
	<path style="fill-rule:evenodd;clip-rule:evenodd;fill:#FFFF00;" d="M137.67,28.65c-3.16,0-5.72,2.57-5.72,5.75
		s2.56,5.75,5.72,5.75s5.73-2.57,5.73-5.75S140.84,28.65,137.67,28.65L137.67,28.65z"/>
	<path style="fill:none;stroke:#000000;stroke-width:0.12;stroke-linecap:round;stroke-linejoin:round;stroke-miterlimit:8;" d="
		M137.67,28.65c-3.16,0-5.72,2.57-5.72,5.75s2.56,5.75,5.72,5.75s5.73-2.57,5.73-5.75S140.84,28.65,137.67,28.65L137.67,28.65z"/>
	<path style="fill-rule:evenodd;clip-rule:evenodd;fill:#FFFF00;" d="M137.67,28.65c-3.16,0-5.72,2.57-5.72,5.75
		s2.56,5.75,5.72,5.75s5.73-2.57,5.73-5.75S140.84,28.65,137.67,28.65L137.67,28.65z"/>
	<path style="fill:none;stroke:#000000;stroke-width:0.12;stroke-linecap:round;stroke-linejoin:round;stroke-miterlimit:8;" d="
		M137.67,28.65c-3.16,0-5.72,2.57-5.72,5.75s2.56,5.75,5.72,5.75s5.73-2.57,5.73-5.75S140.84,28.65,137.67,28.65L137.67,28.65z"/>
	
		<line style="fill:none;stroke:#000000;stroke-width:0.75;stroke-linecap:round;stroke-linejoin:round;stroke-miterlimit:8;" x1="143.4" y1="67.4" x2="165.15" y2="67.45"/>
	<g>
		<defs>
			<polygon id="SVGID_3_" points="142.8,52.68 162.84,52.68 162.84,66.24 142.8,66.24 142.8,52.68 			"/>
		</defs>
		<clipPath id="SVGID_4_">
			<use xlink:href="#SVGID_3_"  style="overflow:visible;"/>
		</clipPath>
		<g style="clip-path:url(#SVGID_4_);">
			<defs>
				<rect id="SVGID_5_" x="142.8" y="52.68" width="20.04" height="13.56"/>
			</defs>
			<clipPath id="SVGID_6_">
				<use xlink:href="#SVGID_5_"  style="overflow:visible;"/>
			</clipPath>
			<g style="clip-path:url(#SVGID_6_);">
				<path d="M158.17,63.59h-3.06l0.13-1.5c0.51-0.21,0.88-0.51,1.12-0.91c0.24-0.39,0.36-0.94,0.36-1.65c0-0.98-0.24-1.73-0.71-2.25
					s-1.08-0.78-1.8-0.78c-0.7,0-1.29,0.27-1.77,0.8c-0.48,0.53-0.72,1.25-0.72,2.16c0,0.72,0.12,1.29,0.37,1.72
					s0.62,0.73,1.11,0.91l0.13,1.5h-3.04v-1.5h0.19c0.01,0.22,0.07,0.37,0.17,0.45c0.16,0.13,0.41,0.19,0.74,0.19h1.46v-0.38
					c-0.75-0.22-1.34-0.59-1.75-1.13c-0.41-0.53-0.62-1.16-0.62-1.88c0-0.91,0.33-1.67,1.01-2.29c0.67-0.62,1.58-0.93,2.72-0.93
					c0.7,0,1.35,0.13,1.93,0.4s1.04,0.65,1.36,1.16c0.32,0.51,0.48,1.06,0.48,1.67c0,0.74-0.22,1.39-0.65,1.94
					c-0.44,0.55-1.01,0.91-1.71,1.06l-0.04,0.38h1.48c0.33,0,0.56-0.05,0.69-0.15c0.13-0.1,0.21-0.26,0.23-0.48h0.21V63.59z"/>
			</g>
		</g>
		<g style="clip-path:url(#SVGID_4_);">
			<defs>
				<rect id="SVGID_7_" x="142.8" y="52.68" width="20.04" height="13.56"/>
			</defs>
			<clipPath id="SVGID_8_">
				<use xlink:href="#SVGID_7_"  style="overflow:visible;"/>
			</clipPath>
			<g style="clip-path:url(#SVGID_8_);">
			</g>
		</g>
	</g>
	<g>
		<defs>
			<polygon id="SVGID_9_" points="157.44,143.64 177,143.64 177,153.36 157.44,153.36 157.44,143.64 			"/>
		</defs>
		<clipPath id="SVGID_10_">
			<use xlink:href="#SVGID_9_"  style="overflow:visible;"/>
		</clipPath>
		<g style="clip-path:url(#SVGID_10_);">
			<defs>
				<rect id="SVGID_11_" x="157.44" y="143.64" width="19.56" height="9.72"/>
			</defs>
			<clipPath id="SVGID_12_">
				<use xlink:href="#SVGID_11_"  style="overflow:visible;"/>
			</clipPath>
			<g style="clip-path:url(#SVGID_12_);">
				<path d="M169.71,146.12v2.53h-0.2c-0.06-0.49-0.18-0.87-0.35-1.16c-0.17-0.29-0.41-0.52-0.71-0.68s-0.63-0.25-0.96-0.25
					c-0.37,0-0.68,0.11-0.93,0.34c-0.24,0.23-0.37,0.49-0.37,0.78c0,0.22,0.08,0.43,0.23,0.61c0.22,0.27,0.75,0.63,1.59,1.08
					c0.68,0.37,1.15,0.65,1.4,0.84c0.25,0.2,0.44,0.43,0.58,0.69c0.13,0.27,0.2,0.54,0.2,0.84c0,0.55-0.21,1.03-0.64,1.43
					c-0.43,0.4-0.98,0.6-1.66,0.6c-0.21,0-0.41-0.02-0.6-0.05c-0.11-0.02-0.34-0.08-0.69-0.2s-0.57-0.17-0.67-0.17
					c-0.09,0-0.16,0.03-0.21,0.08c-0.05,0.05-0.09,0.17-0.12,0.33h-0.2v-2.51h0.2c0.09,0.53,0.22,0.92,0.38,1.18
					c0.16,0.26,0.4,0.48,0.73,0.65c0.33,0.17,0.68,0.26,1.07,0.26c0.45,0,0.8-0.12,1.06-0.36c0.26-0.24,0.39-0.52,0.39-0.84
					c0-0.18-0.05-0.36-0.15-0.54c-0.1-0.18-0.25-0.35-0.46-0.51c-0.14-0.11-0.52-0.34-1.15-0.69c-0.63-0.35-1.07-0.63-1.33-0.84
					c-0.26-0.21-0.46-0.44-0.6-0.69c-0.14-0.25-0.21-0.53-0.21-0.83c0-0.52,0.2-0.98,0.6-1.36c0.4-0.38,0.91-0.57,1.54-0.57
					c0.39,0,0.8,0.09,1.23,0.29c0.2,0.09,0.34,0.13,0.43,0.13c0.09,0,0.17-0.03,0.23-0.08c0.06-0.06,0.11-0.17,0.14-0.34H169.71z"/>
			</g>
		</g>
		<g style="clip-path:url(#SVGID_10_);">
			<defs>
				<rect id="SVGID_13_" x="157.44" y="143.64" width="19.56" height="9.72"/>
			</defs>
			<clipPath id="SVGID_14_">
				<use xlink:href="#SVGID_13_"  style="overflow:visible;"/>
			</clipPath>
			<g style="clip-path:url(#SVGID_14_);">
			</g>
		</g>
	</g>
	<g>
		<defs>
			<polygon id="SVGID_15_" points="252,56.64 271.56,56.64 271.56,66.36 252,66.36 252,56.64 			"/>
		</defs>
		<clipPath id="SVGID_16_">
			<use xlink:href="#SVGID_15_"  style="overflow:visible;"/>
		</clipPath>
		<g style="clip-path:url(#SVGID_16_);">
			<defs>
				<rect id="SVGID_17_" x="252" y="56.64" width="19.56" height="9.72"/>
			</defs>
			<clipPath id="SVGID_18_">
				<use xlink:href="#SVGID_17_"  style="overflow:visible;"/>
			</clipPath>
			<g style="clip-path:url(#SVGID_18_);">
				<path d="M265.85,59.12l0.17,2.48h-0.17c-0.22-0.74-0.54-1.28-0.95-1.61s-0.91-0.49-1.49-0.49c-0.49,0-0.92,0.12-1.32,0.37
					s-0.7,0.64-0.92,1.18s-0.34,1.21-0.34,2.01c0,0.66,0.11,1.23,0.32,1.72c0.21,0.48,0.53,0.86,0.96,1.12
					c0.43,0.26,0.91,0.39,1.46,0.39c0.47,0,0.89-0.1,1.26-0.3c0.36-0.2,0.76-0.61,1.2-1.21l0.17,0.11
					c-0.37,0.65-0.79,1.13-1.28,1.43c-0.49,0.3-1.07,0.45-1.74,0.45c-1.21,0-2.15-0.45-2.81-1.35c-0.5-0.67-0.74-1.46-0.74-2.36
					c0-0.73,0.16-1.4,0.49-2.01s0.78-1.08,1.35-1.42c0.57-0.34,1.2-0.5,1.88-0.5c0.53,0,1.05,0.13,1.56,0.39
					c0.15,0.08,0.26,0.12,0.32,0.12c0.1,0,0.18-0.03,0.25-0.1c0.09-0.1,0.16-0.23,0.2-0.4H265.85z"/>
			</g>
		</g>
		<g style="clip-path:url(#SVGID_16_);">
			<defs>
				<rect id="SVGID_19_" x="252" y="56.64" width="19.56" height="9.72"/>
			</defs>
			<clipPath id="SVGID_20_">
				<use xlink:href="#SVGID_19_"  style="overflow:visible;"/>
			</clipPath>
			<g style="clip-path:url(#SVGID_20_);">
			</g>
		</g>
	</g>
	<path style="fill:none;stroke:#C00000;stroke-width:1.5;stroke-linejoin:round;stroke-miterlimit:8;" d="M177.03,130.95
		c8.47-6.69,16.95-13.38,26.36-16.15c9.41-2.77,19.76-1.62,30.14-0.48"/>
	<path style="fill:none;stroke:#C00000;stroke-width:1.5;stroke-linejoin:round;stroke-miterlimit:8;" d="M177.03,166.95
		c8.47-6.69,16.95-13.38,26.36-16.15c9.41-2.77,19.76-1.62,30.14-0.48"/>
	<path style="fill:none;stroke:#C00000;stroke-width:1.5;stroke-linejoin:round;stroke-miterlimit:8;" d="M175.83,92.15
		c8.47-6.69,16.95-13.38,26.36-16.15c9.41-2.77,19.76-1.62,30.14-0.48"/>
	
		<line style="fill:none;stroke:#000000;stroke-linecap:round;stroke-linejoin:round;stroke-miterlimit:8;" x1="181.9" y1="168.64" x2="228.8" y2="154.81"/>
	<polygon style="fill-rule:evenodd;clip-rule:evenodd;" points="227,152.22 233.6,153.4 228.69,157.97 227,152.22 	"/>
	<polygon style="fill-rule:evenodd;clip-rule:evenodd;" points="183.7,171.23 177.1,170.05 182.01,165.48 183.7,171.23 	"/>
	<polygon style="fill-rule:evenodd;clip-rule:evenodd;fill:#FFFFFF;" points="193.9,153.4 213.5,153.4 213.5,170.35 193.9,170.35 
		193.9,153.4 	"/>
	<g>
		<defs>
			<polygon id="SVGID_21_" points="193.92,156.96 213.48,156.96 213.48,166.68 193.92,166.68 193.92,156.96 			"/>
		</defs>
		<clipPath id="SVGID_22_">
			<use xlink:href="#SVGID_21_"  style="overflow:visible;"/>
		</clipPath>
		<g style="clip-path:url(#SVGID_22_);">
			<defs>
				<rect id="SVGID_23_" x="193.92" y="156.96" width="19.56" height="9.72"/>
			</defs>
			<clipPath id="SVGID_24_">
				<use xlink:href="#SVGID_23_"  style="overflow:visible;"/>
			</clipPath>
			<g style="clip-path:url(#SVGID_24_);">
				<path d="M201.19,161.98h2.07v0.2c-0.19,0.01-0.32,0.05-0.37,0.1c-0.06,0.05-0.09,0.13-0.09,0.23c0,0.11,0.03,0.25,0.09,0.4
					l1.06,2.84l1.06-2.31l-0.28-0.73c-0.09-0.22-0.2-0.37-0.34-0.45c-0.08-0.05-0.23-0.08-0.44-0.09v-0.2h2.35v0.2
					c-0.26,0.01-0.44,0.06-0.55,0.14c-0.07,0.06-0.11,0.15-0.11,0.28c0,0.07,0.01,0.15,0.04,0.22l1.12,2.84l1.04-2.73
					c0.07-0.19,0.11-0.35,0.11-0.46c0-0.07-0.04-0.13-0.11-0.18c-0.07-0.05-0.21-0.08-0.41-0.09v-0.2h1.56v0.2
					c-0.31,0.05-0.54,0.26-0.69,0.64l-1.65,4.25h-0.22l-1.23-3.15l-1.44,3.15h-0.2l-1.58-4.15c-0.1-0.26-0.21-0.44-0.31-0.53
					c-0.1-0.09-0.26-0.16-0.47-0.21V161.98z"/>
			</g>
		</g>
		<g style="clip-path:url(#SVGID_22_);">
			<defs>
				<rect id="SVGID_25_" x="193.92" y="156.96" width="19.56" height="9.72"/>
			</defs>
			<clipPath id="SVGID_26_">
				<use xlink:href="#SVGID_25_"  style="overflow:visible;"/>
			</clipPath>
			<g style="clip-path:url(#SVGID_26_);">
			</g>
		</g>
	</g>
	
		<line style="fill:none;stroke:#000000;stroke-width:0.25;stroke-linecap:round;stroke-linejoin:round;stroke-miterlimit:8;" x1="206.7" y1="73.55" x2="254.95" y2="59"/>
	
		<line style="fill:none;stroke:#000000;stroke-width:0.25;stroke-linecap:round;stroke-linejoin:round;stroke-miterlimit:8;" x1="209.7" y1="83.4" x2="257.95" y2="68.85"/>
	
		<line style="fill:none;stroke:#000000;stroke-width:1;stroke-linecap:round;stroke-linejoin:round;stroke-miterlimit:8;" x1="244.7" y1="35.65" x2="248.66" y2="50.42"/>
	<polygon style="fill-rule:evenodd;clip-rule:evenodd;" points="251.3,48.68 249.95,55.25 245.5,50.23 251.3,48.68 	"/>
	
		<line style="fill:none;stroke:#000000;stroke-width:1;stroke-linecap:round;stroke-linejoin:round;stroke-miterlimit:8;" x1="257.95" y1="92.15" x2="253.26" y2="74.88"/>
	<polygon style="fill-rule:evenodd;clip-rule:evenodd;" points="250.63,76.63 251.95,70.05 256.42,75.05 250.63,76.63 	"/>
	
		<line style="fill:none;stroke:#000000;stroke-width:0.75;stroke-linecap:round;stroke-linejoin:round;stroke-miterlimit:8;" x1="176.3" y1="131.15" x2="176.35" y2="131.2"/>
	
		<line style="fill:none;stroke:#000000;stroke-width:0.25;stroke-linecap:round;stroke-linejoin:round;stroke-miterlimit:8;" x1="179.35" y1="132.5" x2="228.3" y2="132.55"/>
	
		<line style="fill:none;stroke:#000000;stroke-width:0.25;stroke-linecap:round;stroke-linejoin:round;stroke-miterlimit:8;" x1="222.55" y1="115.5" x2="179.35" y2="132.15"/>
	<g>
		<defs>
			<polygon id="SVGID_27_" points="213.48,116.64 233.04,116.64 233.04,130.92 213.48,130.92 213.48,116.64 			"/>
		</defs>
		<clipPath id="SVGID_28_">
			<use xlink:href="#SVGID_27_"  style="overflow:visible;"/>
		</clipPath>
		<g style="clip-path:url(#SVGID_28_);">
			<defs>
				<rect id="SVGID_29_" x="213.48" y="116.64" width="19.56" height="14.28"/>
			</defs>
			<clipPath id="SVGID_30_">
				<use xlink:href="#SVGID_29_"  style="overflow:visible;"/>
			</clipPath>
			<g style="clip-path:url(#SVGID_30_);">
				<path d="M223.86,122.48c0.71,0.08,1.26,0.36,1.64,0.85s0.56,1.07,0.56,1.74c0,0.31-0.04,0.61-0.13,0.9
					c-0.09,0.29-0.21,0.54-0.35,0.76c-0.15,0.22-0.31,0.4-0.49,0.54c-0.18,0.14-0.38,0.25-0.59,0.33c-0.15,0.05-0.36,0.09-0.63,0.12
					v2.23h-0.6v-2.23c-0.54-0.05-0.98-0.22-1.32-0.51c-0.59-0.5-0.88-1.19-0.88-2.09c0-0.35,0.04-0.67,0.13-0.95
					s0.21-0.53,0.36-0.74s0.32-0.39,0.5-0.52c0.18-0.13,0.37-0.24,0.58-0.3c0.15-0.05,0.35-0.09,0.61-0.12v-2.58h0.6V122.48z
					 M223.26,122.81c-0.24,0.06-0.42,0.14-0.54,0.24c-0.2,0.16-0.37,0.39-0.49,0.69c-0.12,0.3-0.19,0.71-0.19,1.22
					c0,0.57,0.07,1.03,0.22,1.39s0.33,0.63,0.54,0.82c0.1,0.09,0.25,0.17,0.46,0.23V122.81z M223.86,127.4
					c0.22-0.05,0.39-0.12,0.51-0.22c0.22-0.17,0.4-0.41,0.52-0.72s0.18-0.73,0.18-1.28c0-0.5-0.06-0.92-0.17-1.27
					s-0.27-0.61-0.46-0.8c-0.13-0.12-0.32-0.22-0.58-0.31V127.4z"/>
			</g>
		</g>
		<g style="clip-path:url(#SVGID_28_);">
			<defs>
				<rect id="SVGID_31_" x="213.48" y="116.64" width="19.56" height="14.28"/>
			</defs>
			<clipPath id="SVGID_32_">
				<use xlink:href="#SVGID_31_"  style="overflow:visible;"/>
			</clipPath>
			<g style="clip-path:url(#SVGID_32_);">
			</g>
		</g>
	</g>
	<path style="fill:none;stroke:#000000;stroke-linecap:round;stroke-linejoin:round;stroke-miterlimit:8;" d="M214.98,120.41
		 M214.98,120.41c0.95,1.63,1.52,3.87,1.52,6.27c0,1.63-0.26,3.23-0.76,4.62"/>
	<polyline style="fill:none;stroke:#000000;stroke-linecap:round;stroke-miterlimit:8;" points="216.79,126.65 214.98,120.41 
		220.69,123.52 	"/>
</g>
</svg>
