<?xml version="1.0" encoding="utf-8"?>
<!-- Generator: Adobe Illustrator 16.0.0, SVG Export Plug-In . SVG Version: 6.00 Build 0)  -->
<!DOCTYPE svg PUBLIC "-//W3C//DTD SVG 1.1//EN" "http://www.w3.org/Graphics/SVG/1.1/DTD/svg11.dtd">
<svg version="1.1" id="Layer_1" xmlns="http://www.w3.org/2000/svg" xmlns:xlink="http://www.w3.org/1999/xlink" x="0px" y="0px"
	 width="545.196px" height="167.585px" viewBox="0 0 545.196 167.585" enable-background="new 0 0 545.196 167.585"
	 xml:space="preserve">
<g>
	<defs>
		<rect id="SVGID_1_" y="0.07" width="398.636" height="164.155"/>
	</defs>
	<clipPath id="SVGID_2_">
		<use xlink:href="#SVGID_1_"  overflow="visible"/>
	</clipPath>
	
		<rect x="1.689" y="1.505" clip-path="url(#SVGID_2_)" fill="none" stroke="#000000" stroke-width="3.011" stroke-linejoin="round" stroke-miterlimit="10" width="167.552" height="151.551"/>
	
		<rect x="44.922" y="151.251" clip-path="url(#SVGID_2_)" fill-rule="evenodd" clip-rule="evenodd" fill="#FFFFFF" width="81.788" height="3.25"/>
	
		<rect x="44.922" y="151.251" clip-path="url(#SVGID_2_)" fill="none" stroke="#000000" stroke-width="0.7226" stroke-linejoin="round" stroke-miterlimit="10" width="81.788" height="3.25"/>
	<rect x="0.844" y="73.624" clip-path="url(#SVGID_2_)" width="5.766" height="1.42"/>
	<rect x="10.929" y="73.624" clip-path="url(#SVGID_2_)" width="5.767" height="1.42"/>
	<rect x="21.014" y="73.624" clip-path="url(#SVGID_2_)" width="5.766" height="1.42"/>
	<rect x="31.098" y="73.624" clip-path="url(#SVGID_2_)" width="5.766" height="1.42"/>
	<rect x="41.208" y="73.624" clip-path="url(#SVGID_2_)" width="5.766" height="1.42"/>
	<rect x="51.292" y="73.624" clip-path="url(#SVGID_2_)" width="5.767" height="1.42"/>
	<rect x="61.376" y="73.624" clip-path="url(#SVGID_2_)" width="5.766" height="1.42"/>
	<rect x="71.461" y="73.624" clip-path="url(#SVGID_2_)" width="5.766" height="1.42"/>
	<rect x="81.546" y="73.624" clip-path="url(#SVGID_2_)" width="5.766" height="1.42"/>
	<rect x="91.655" y="73.624" clip-path="url(#SVGID_2_)" width="5.742" height="1.42"/>
	<rect x="101.736" y="73.624" clip-path="url(#SVGID_2_)" width="5.766" height="1.42"/>
	<rect x="111.828" y="73.624" clip-path="url(#SVGID_2_)" width="5.766" height="1.42"/>
	<rect x="121.91" y="73.624" clip-path="url(#SVGID_2_)" width="5.766" height="1.42"/>
	<rect x="131.991" y="73.624" clip-path="url(#SVGID_2_)" width="5.766" height="1.42"/>
	<rect x="142.083" y="73.624" clip-path="url(#SVGID_2_)" width="5.766" height="1.42"/>
	<rect x="152.185" y="73.624" clip-path="url(#SVGID_2_)" width="5.766" height="1.42"/>
	<rect x="162.277" y="73.624" clip-path="url(#SVGID_2_)" width="5.766" height="1.42"/>
	<path clip-path="url(#SVGID_2_)" fill-rule="evenodd" clip-rule="evenodd" d="M81.667,28.778c0,2.773,2.172,4.94,4.922,4.94
		c2.774,0,4.945-2.167,4.945-4.94c0-2.763-2.171-4.911-4.945-4.911C83.839,23.867,81.667,26.015,81.667,28.778z"/>
	<path clip-path="url(#SVGID_2_)" fill-rule="evenodd" clip-rule="evenodd" d="M81.667,100.896c0,2.769,2.172,4.935,4.922,4.935
		c2.774,0,4.945-2.166,4.945-4.935s-2.171-4.935-4.945-4.935C83.839,95.961,81.667,98.127,81.667,100.896z"/>
	<g clip-path="url(#SVGID_2_)">
		<defs>
			<rect id="SVGID_3_" x="189.292" y="20.137" width="163.453" height="19.834"/>
		</defs>
		<clipPath id="SVGID_4_">
			<use xlink:href="#SVGID_3_"  overflow="visible"/>
		</clipPath>
		<g clip-path="url(#SVGID_4_)">
			<path d="M189.923,29.881l1.259-0.11c0.06,0.503,0.198,0.916,0.416,1.238s0.556,0.583,1.015,0.782
				c0.458,0.199,0.975,0.298,1.548,0.298c0.509,0,0.959-0.075,1.349-0.226s0.68-0.358,0.87-0.621s0.286-0.55,0.286-0.861
				c0-0.315-0.092-0.591-0.275-0.826c-0.184-0.235-0.486-0.433-0.908-0.593c-0.271-0.105-0.869-0.269-1.796-0.49
				c-0.926-0.222-1.575-0.431-1.947-0.627c-0.481-0.251-0.84-0.563-1.077-0.936s-0.354-0.79-0.354-1.252
				c0-0.507,0.145-0.981,0.434-1.423c0.289-0.441,0.711-0.776,1.266-1.004c0.555-0.229,1.172-0.343,1.851-0.343
				c0.747,0,1.407,0.12,1.978,0.36c0.571,0.24,1.01,0.593,1.317,1.06c0.308,0.466,0.473,0.994,0.496,1.584l-1.28,0.096
				c-0.069-0.636-0.301-1.116-0.698-1.44c-0.396-0.325-0.982-0.487-1.758-0.487c-0.807,0-1.396,0.147-1.765,0.442
				s-0.554,0.65-0.554,1.066c0,0.361,0.131,0.658,0.392,0.892c0.257,0.233,0.928,0.472,2.012,0.716
				c1.085,0.245,1.829,0.458,2.232,0.641c0.587,0.27,1.021,0.612,1.3,1.025c0.28,0.414,0.42,0.891,0.42,1.43
				c0,0.535-0.154,1.039-0.461,1.512c-0.308,0.473-0.749,0.841-1.324,1.104c-0.576,0.263-1.224,0.394-1.944,0.394
				c-0.913,0-1.677-0.133-2.294-0.397c-0.617-0.265-1.101-0.664-1.452-1.197C190.126,31.155,189.942,30.553,189.923,29.881z"/>
			<path d="M204.618,30.766l1.28,0.158c-0.202,0.745-0.576,1.323-1.122,1.735s-1.243,0.617-2.091,0.617
				c-1.069,0-1.916-0.328-2.542-0.984c-0.626-0.656-0.939-1.576-0.939-2.76c0-1.226,0.316-2.176,0.949-2.853
				s1.454-1.015,2.463-1.015c0.977,0,1.775,0.332,2.394,0.995s0.929,1.596,0.929,2.798c0,0.073-0.002,0.183-0.007,0.329h-5.449
				c0.046,0.8,0.273,1.413,0.681,1.838c0.408,0.425,0.917,0.638,1.527,0.638c0.454,0,0.842-0.119,1.163-0.356
				C204.176,31.666,204.43,31.287,204.618,30.766z M200.552,28.77h4.08c-0.055-0.613-0.211-1.072-0.468-1.378
				c-0.395-0.476-0.906-0.713-1.534-0.713c-0.568,0-1.047,0.19-1.434,0.569C200.808,27.627,200.594,28.134,200.552,28.77z"/>
			<path d="M212.221,30.443l1.218,0.158c-0.133,0.836-0.474,1.491-1.021,1.964c-0.548,0.474-1.221,0.71-2.02,0.71
				c-1,0-1.803-0.326-2.411-0.977c-0.608-0.652-0.912-1.585-0.912-2.802c0-0.786,0.131-1.474,0.392-2.064
				c0.262-0.59,0.659-1.032,1.194-1.327c0.534-0.295,1.116-0.442,1.744-0.442c0.793,0,1.442,0.2,1.947,0.6
				c0.504,0.4,0.828,0.968,0.97,1.704l-1.204,0.186c-0.115-0.489-0.318-0.857-0.609-1.104c-0.292-0.247-0.643-0.37-1.056-0.37
				c-0.624,0-1.13,0.223-1.521,0.668c-0.39,0.446-0.584,1.151-0.584,2.116c0,0.979,0.188,1.689,0.564,2.133s0.867,0.665,1.472,0.665
				c0.486,0,0.892-0.148,1.218-0.445C211.927,31.518,212.134,31.061,212.221,30.443z"/>
			<path d="M214.037,29.469c0-1.349,0.376-2.348,1.128-2.997c0.628-0.54,1.394-0.81,2.298-0.81c1.004,0,1.825,0.328,2.463,0.984
				c0.637,0.656,0.956,1.563,0.956,2.719c0,0.937-0.141,1.674-0.423,2.211c-0.282,0.537-0.693,0.955-1.231,1.251
				c-0.539,0.297-1.127,0.446-1.765,0.446c-1.023,0-1.85-0.327-2.48-0.98C214.352,31.641,214.037,30.699,214.037,29.469z
				 M215.31,29.469c0,0.933,0.204,1.631,0.612,2.095s0.922,0.696,1.541,0.696c0.614,0,1.126-0.233,1.534-0.699
				s0.612-1.177,0.612-2.133c0-0.9-0.206-1.583-0.616-2.047c-0.411-0.464-0.921-0.696-1.531-0.696c-0.619,0-1.133,0.231-1.541,0.693
				C215.514,27.839,215.31,28.537,215.31,29.469z"/>
			<path d="M222.333,33.111v-7.283h1.115v1.035c0.537-0.8,1.312-1.2,2.325-1.2c0.44,0,0.845,0.079,1.214,0.237
				s0.646,0.365,0.829,0.621c0.183,0.256,0.312,0.56,0.385,0.912c0.045,0.229,0.068,0.628,0.068,1.2v4.478h-1.238v-4.43
				c0-0.503-0.048-0.879-0.145-1.128c-0.096-0.249-0.267-0.448-0.512-0.597c-0.246-0.148-0.533-0.223-0.863-0.223
				c-0.528,0-0.983,0.167-1.366,0.501c-0.383,0.333-0.575,0.967-0.575,1.899v3.978H222.333z"/>
			<path d="M234.91,33.111v-0.919c-0.463,0.723-1.145,1.083-2.043,1.083c-0.583,0-1.118-0.16-1.606-0.48
				c-0.488-0.32-0.867-0.767-1.135-1.341c-0.269-0.574-0.403-1.233-0.403-1.979c0-0.727,0.122-1.386,0.365-1.979
				c0.243-0.592,0.608-1.045,1.094-1.361c0.486-0.316,1.03-0.474,1.631-0.474c0.44,0,0.832,0.093,1.176,0.278
				c0.344,0.185,0.624,0.426,0.839,0.724v-3.607h1.231v10.054H234.91z M230.995,29.476c0,0.933,0.197,1.63,0.592,2.092
				c0.394,0.462,0.86,0.692,1.396,0.692c0.541,0,1.001-0.22,1.379-0.662c0.378-0.441,0.567-1.114,0.567-2.02
				c0-0.997-0.192-1.728-0.578-2.194c-0.385-0.466-0.86-0.7-1.424-0.7c-0.55,0-1.01,0.224-1.379,0.672
				C231.18,27.805,230.995,28.512,230.995,29.476z"/>
			<path d="M242,33.111V23.057h4.472c0.899,0,1.583,0.09,2.051,0.271s0.841,0.5,1.121,0.957c0.279,0.458,0.42,0.963,0.42,1.516
				c0,0.713-0.231,1.314-0.695,1.804c-0.463,0.489-1.179,0.8-2.146,0.933c0.354,0.169,0.622,0.336,0.805,0.5
				c0.391,0.357,0.76,0.803,1.108,1.337l1.754,2.736h-1.679l-1.335-2.092c-0.39-0.604-0.711-1.065-0.963-1.385
				c-0.252-0.32-0.478-0.544-0.678-0.672c-0.199-0.128-0.402-0.217-0.608-0.268c-0.151-0.032-0.399-0.048-0.743-0.048h-1.548v4.464
				H242z M243.335,27.494h2.869c0.609,0,1.087-0.063,1.431-0.188c0.344-0.125,0.605-0.327,0.784-0.604
				c0.179-0.276,0.269-0.577,0.269-0.902c0-0.475-0.174-0.866-0.52-1.172c-0.347-0.306-0.894-0.459-1.641-0.459h-3.192V27.494z"/>
			<path d="M256.915,30.766l1.279,0.158c-0.202,0.745-0.575,1.323-1.121,1.735s-1.243,0.617-2.092,0.617
				c-1.068,0-1.916-0.328-2.542-0.984c-0.626-0.656-0.939-1.576-0.939-2.76c0-1.226,0.316-2.176,0.95-2.853
				c0.633-0.677,1.453-1.015,2.463-1.015c0.977,0,1.774,0.332,2.394,0.995s0.929,1.596,0.929,2.798c0,0.073-0.002,0.183-0.007,0.329
				h-5.448c0.046,0.8,0.272,1.413,0.681,1.838c0.408,0.425,0.917,0.638,1.527,0.638c0.454,0,0.842-0.119,1.163-0.356
				C256.471,31.666,256.726,31.287,256.915,30.766z M252.848,28.77h4.08c-0.056-0.613-0.211-1.072-0.468-1.378
				c-0.395-0.476-0.906-0.713-1.534-0.713c-0.569,0-1.047,0.19-1.435,0.569S252.889,28.134,252.848,28.77z"/>
			<path d="M260.044,33.111v-6.323h-1.094v-0.96h1.094v-0.775c0-0.489,0.044-0.853,0.131-1.09c0.119-0.32,0.329-0.579,0.629-0.778
				c0.301-0.199,0.722-0.298,1.263-0.298c0.349,0,0.734,0.042,1.156,0.124l-0.187,1.077c-0.257-0.045-0.499-0.068-0.729-0.068
				c-0.376,0-0.643,0.08-0.798,0.24c-0.156,0.16-0.234,0.459-0.234,0.898v0.672h1.424v0.96h-1.424v6.323H260.044z"/>
			<path d="M268.693,30.766l1.279,0.158c-0.202,0.745-0.575,1.323-1.121,1.735s-1.243,0.617-2.092,0.617
				c-1.068,0-1.916-0.328-2.542-0.984c-0.626-0.656-0.939-1.576-0.939-2.76c0-1.226,0.316-2.176,0.95-2.853
				c0.633-0.677,1.453-1.015,2.463-1.015c0.977,0,1.774,0.332,2.394,0.995s0.929,1.596,0.929,2.798c0,0.073-0.002,0.183-0.007,0.329
				h-5.448c0.046,0.8,0.272,1.413,0.681,1.838c0.408,0.425,0.917,0.638,1.527,0.638c0.454,0,0.842-0.119,1.163-0.356
				C268.25,31.666,268.504,31.287,268.693,30.766z M264.626,28.77h4.08c-0.056-0.613-0.211-1.072-0.468-1.378
				c-0.395-0.476-0.906-0.713-1.534-0.713c-0.569,0-1.047,0.19-1.435,0.569S264.667,28.134,264.626,28.77z"/>
			<path d="M271.373,33.111v-7.283h1.114v1.104c0.284-0.517,0.547-0.857,0.788-1.022c0.24-0.165,0.506-0.247,0.795-0.247
				c0.417,0,0.841,0.133,1.272,0.398l-0.427,1.146c-0.303-0.179-0.605-0.268-0.908-0.268c-0.271,0-0.514,0.081-0.729,0.243
				c-0.215,0.163-0.369,0.388-0.461,0.676c-0.138,0.439-0.206,0.919-0.206,1.44v3.813H271.373z"/>
			<path d="M281.08,30.766l1.279,0.158c-0.202,0.745-0.575,1.323-1.121,1.735s-1.243,0.617-2.092,0.617
				c-1.068,0-1.916-0.328-2.542-0.984c-0.626-0.656-0.939-1.576-0.939-2.76c0-1.226,0.316-2.176,0.95-2.853
				c0.633-0.677,1.453-1.015,2.463-1.015c0.977,0,1.774,0.332,2.394,0.995s0.929,1.596,0.929,2.798c0,0.073-0.002,0.183-0.007,0.329
				h-5.448c0.046,0.8,0.272,1.413,0.681,1.838c0.408,0.425,0.917,0.638,1.527,0.638c0.454,0,0.842-0.119,1.163-0.356
				C280.636,31.666,280.891,31.287,281.08,30.766z M277.013,28.77h4.08c-0.056-0.613-0.211-1.072-0.468-1.378
				c-0.395-0.476-0.906-0.713-1.534-0.713c-0.569,0-1.047,0.19-1.435,0.569S277.054,28.134,277.013,28.77z"/>
			<path d="M283.914,33.111v-7.283h1.114v1.035c0.537-0.8,1.312-1.2,2.325-1.2c0.44,0,0.846,0.079,1.215,0.237
				s0.646,0.365,0.829,0.621c0.184,0.256,0.312,0.56,0.385,0.912c0.046,0.229,0.069,0.628,0.069,1.2v4.478h-1.238v-4.43
				c0-0.503-0.049-0.879-0.145-1.128c-0.097-0.249-0.268-0.448-0.513-0.597s-0.533-0.223-0.863-0.223
				c-0.527,0-0.983,0.167-1.366,0.501c-0.383,0.333-0.574,0.967-0.574,1.899v3.978H283.914z"/>
			<path d="M296.475,30.443l1.218,0.158c-0.133,0.836-0.474,1.491-1.021,1.964c-0.548,0.474-1.222,0.71-2.02,0.71
				c-1,0-1.804-0.326-2.411-0.977c-0.607-0.652-0.911-1.585-0.911-2.802c0-0.786,0.13-1.474,0.392-2.064s0.659-1.032,1.193-1.327
				s1.116-0.442,1.744-0.442c0.794,0,1.442,0.2,1.947,0.6c0.505,0.4,0.828,0.968,0.97,1.704l-1.204,0.186
				c-0.114-0.489-0.317-0.857-0.608-1.104c-0.291-0.247-0.644-0.37-1.056-0.37c-0.624,0-1.131,0.223-1.521,0.668
				c-0.391,0.446-0.585,1.151-0.585,2.116c0,0.979,0.188,1.689,0.564,2.133c0.376,0.443,0.866,0.665,1.472,0.665
				c0.486,0,0.893-0.148,1.218-0.445C296.181,31.518,296.388,31.061,296.475,30.443z"/>
			<path d="M303.684,30.766l1.279,0.158c-0.202,0.745-0.575,1.323-1.121,1.735s-1.243,0.617-2.092,0.617
				c-1.068,0-1.916-0.328-2.542-0.984c-0.626-0.656-0.939-1.576-0.939-2.76c0-1.226,0.316-2.176,0.95-2.853
				c0.633-0.677,1.453-1.015,2.463-1.015c0.977,0,1.774,0.332,2.394,0.995s0.929,1.596,0.929,2.798c0,0.073-0.002,0.183-0.007,0.329
				h-5.448c0.046,0.8,0.272,1.413,0.681,1.838c0.408,0.425,0.917,0.638,1.527,0.638c0.454,0,0.842-0.119,1.163-0.356
				C303.241,31.666,303.496,31.287,303.684,30.766z M299.618,28.77h4.08c-0.056-0.613-0.211-1.072-0.468-1.378
				c-0.395-0.476-0.906-0.713-1.534-0.713c-0.569,0-1.047,0.19-1.435,0.569S299.659,28.134,299.618,28.77z"/>
			<path d="M310.619,33.111V23.057h3.805c0.67,0,1.181,0.032,1.534,0.096c0.495,0.083,0.91,0.239,1.245,0.47s0.604,0.555,0.809,0.97
				c0.204,0.417,0.306,0.874,0.306,1.372c0,0.855-0.272,1.579-0.818,2.171c-0.546,0.592-1.532,0.888-2.958,0.888h-2.587v4.087
				H310.619z M311.954,27.837h2.607c0.862,0,1.475-0.16,1.837-0.48c0.362-0.32,0.543-0.77,0.543-1.351
				c0-0.421-0.106-0.781-0.319-1.08c-0.214-0.3-0.494-0.498-0.843-0.593c-0.225-0.06-0.64-0.089-1.245-0.089h-2.58V27.837z"/>
			<path d="M319.397,29.469c0-1.349,0.376-2.348,1.128-2.997c0.629-0.54,1.395-0.81,2.298-0.81c1.005,0,1.826,0.328,2.463,0.984
				c0.638,0.656,0.957,1.563,0.957,2.719c0,0.937-0.142,1.674-0.424,2.211c-0.281,0.537-0.692,0.955-1.231,1.251
				c-0.539,0.297-1.127,0.446-1.765,0.446c-1.022,0-1.85-0.327-2.479-0.98C319.712,31.641,319.397,30.699,319.397,29.469z
				 M320.669,29.469c0,0.933,0.204,1.631,0.612,2.095s0.922,0.696,1.541,0.696c0.615,0,1.126-0.233,1.534-0.699
				s0.612-1.177,0.612-2.133c0-0.9-0.205-1.583-0.615-2.047c-0.411-0.464-0.921-0.696-1.531-0.696c-0.619,0-1.133,0.231-1.541,0.693
				C320.874,27.839,320.669,28.537,320.669,29.469z"/>
			<path d="M327.546,24.477v-1.42h1.238v1.42H327.546z M327.546,33.111v-7.283h1.238v7.283H327.546z"/>
			<path d="M330.669,33.111v-7.283h1.114v1.035c0.537-0.8,1.312-1.2,2.325-1.2c0.44,0,0.846,0.079,1.215,0.237
				s0.646,0.365,0.829,0.621c0.184,0.256,0.312,0.56,0.385,0.912c0.046,0.229,0.069,0.628,0.069,1.2v4.478h-1.238v-4.43
				c0-0.503-0.049-0.879-0.145-1.128c-0.097-0.249-0.268-0.448-0.513-0.597s-0.533-0.223-0.863-0.223
				c-0.527,0-0.983,0.167-1.366,0.501c-0.383,0.333-0.574,0.967-0.574,1.899v3.978H330.669z"/>
			<path d="M341.209,32.007l0.179,1.09c-0.349,0.073-0.66,0.11-0.936,0.11c-0.45,0-0.798-0.071-1.046-0.213
				s-0.422-0.328-0.522-0.559c-0.102-0.231-0.151-0.717-0.151-1.458v-4.19h-0.908v-0.96h0.908v-1.804l1.231-0.741v2.544h1.245v0.96
				h-1.245v4.259c0,0.352,0.021,0.578,0.064,0.679c0.044,0.101,0.115,0.181,0.214,0.24c0.099,0.059,0.239,0.089,0.423,0.089
				C340.803,32.055,340.985,32.039,341.209,32.007z"/>
		</g>
	</g>
	<g clip-path="url(#SVGID_2_)">
		<defs>
			<rect id="SVGID_5_" x="188.454" y="92.231" width="171.511" height="25.37"/>
		</defs>
		<clipPath id="SVGID_6_">
			<use xlink:href="#SVGID_5_"  overflow="visible"/>
		</clipPath>
		<g clip-path="url(#SVGID_6_)">
			<path d="M189.608,105.228V95.174h6.804v1.187h-5.47v3.113h4.733v1.187h-4.733v4.567H189.608z"/>
			<path d="M197.938,96.594v-1.42h1.238v1.42H197.938z M197.938,105.228v-7.283h1.238v7.283H197.938z"/>
			<path d="M201.048,105.228v-7.283h1.114v1.104c0.285-0.517,0.547-0.857,0.788-1.022s0.505-0.247,0.794-0.247
				c0.417,0,0.842,0.133,1.273,0.398l-0.427,1.146c-0.303-0.179-0.605-0.268-0.908-0.268c-0.271,0-0.514,0.081-0.729,0.243
				c-0.216,0.163-0.369,0.388-0.461,0.676c-0.138,0.439-0.207,0.919-0.207,1.44v3.813H201.048z"/>
			<path d="M205.259,103.054l1.225-0.192c0.069,0.489,0.26,0.864,0.574,1.125s0.753,0.391,1.317,0.391
				c0.569,0,0.991-0.115,1.266-0.346c0.275-0.23,0.413-0.501,0.413-0.813c0-0.279-0.122-0.499-0.365-0.658
				c-0.169-0.11-0.591-0.25-1.266-0.418c-0.908-0.229-1.538-0.426-1.889-0.593c-0.351-0.167-0.617-0.398-0.798-0.693
				c-0.181-0.294-0.272-0.621-0.272-0.977c0-0.325,0.075-0.625,0.224-0.902c0.149-0.276,0.352-0.506,0.609-0.689
				c0.193-0.142,0.455-0.262,0.788-0.36c0.333-0.098,0.689-0.147,1.07-0.147c0.573,0,1.077,0.083,1.51,0.247s0.753,0.388,0.96,0.668
				c0.206,0.281,0.348,0.658,0.426,1.128l-1.211,0.165c-0.055-0.375-0.214-0.667-0.478-0.878c-0.264-0.21-0.636-0.315-1.118-0.315
				c-0.569,0-0.975,0.094-1.218,0.281c-0.243,0.188-0.365,0.407-0.365,0.658c0,0.16,0.05,0.304,0.151,0.432
				c0.101,0.133,0.259,0.242,0.475,0.329c0.124,0.046,0.488,0.151,1.094,0.315c0.876,0.233,1.487,0.424,1.833,0.573
				s0.618,0.365,0.815,0.648c0.197,0.284,0.296,0.636,0.296,1.056c0,0.412-0.121,0.799-0.361,1.163
				c-0.241,0.363-0.588,0.645-1.042,0.843c-0.454,0.199-0.968,0.298-1.541,0.298c-0.949,0-1.673-0.196-2.17-0.59
				C205.714,104.41,205.396,103.827,205.259,103.054z"/>
			<path d="M215.53,104.124l0.179,1.09c-0.349,0.073-0.661,0.11-0.936,0.11c-0.449,0-0.798-0.071-1.045-0.213
				s-0.422-0.328-0.523-0.559s-0.151-0.717-0.151-1.458v-4.19h-0.908v-0.96h0.908v-1.804l1.231-0.741v2.544h1.245v0.96h-1.245v4.259
				c0,0.352,0.022,0.578,0.065,0.679s0.115,0.181,0.213,0.24c0.099,0.059,0.239,0.089,0.423,0.089
				C215.125,104.172,215.306,104.156,215.53,104.124z"/>
			<path d="M220.849,105.228V95.174h4.472c0.899,0,1.582,0.09,2.05,0.271c0.468,0.181,0.842,0.5,1.122,0.957
				c0.28,0.458,0.42,0.963,0.42,1.516c0,0.713-0.232,1.314-0.695,1.804c-0.463,0.489-1.179,0.8-2.146,0.933
				c0.354,0.169,0.622,0.336,0.805,0.5c0.39,0.357,0.759,0.803,1.107,1.337l1.754,2.736h-1.679l-1.334-2.092
				c-0.39-0.604-0.711-1.065-0.963-1.385c-0.252-0.32-0.478-0.544-0.677-0.672c-0.2-0.128-0.403-0.217-0.609-0.268
				c-0.151-0.032-0.399-0.048-0.743-0.048h-1.548v4.464H220.849z M222.184,99.611h2.869c0.61,0,1.087-0.063,1.431-0.188
				c0.344-0.125,0.605-0.327,0.784-0.604c0.179-0.276,0.269-0.577,0.269-0.902c0-0.475-0.173-0.866-0.52-1.172
				c-0.347-0.306-0.894-0.459-1.641-0.459h-3.192V99.611z"/>
			<path d="M235.762,102.883l1.279,0.158c-0.202,0.745-0.575,1.323-1.121,1.735s-1.243,0.617-2.092,0.617
				c-1.069,0-1.916-0.328-2.542-0.984c-0.626-0.656-0.939-1.576-0.939-2.76c0-1.226,0.316-2.176,0.949-2.853
				s1.454-1.015,2.463-1.015c0.977,0,1.775,0.332,2.394,0.995s0.929,1.596,0.929,2.798c0,0.073-0.002,0.183-0.007,0.329h-5.449
				c0.046,0.8,0.273,1.413,0.681,1.838c0.408,0.425,0.917,0.638,1.527,0.638c0.454,0,0.842-0.119,1.163-0.356
				C235.319,103.783,235.574,103.404,235.762,102.883z M231.696,100.887h4.08c-0.056-0.613-0.211-1.072-0.468-1.378
				c-0.395-0.476-0.906-0.713-1.535-0.713c-0.568,0-1.047,0.19-1.434,0.569C231.952,99.744,231.737,100.251,231.696,100.887z"/>
			<path d="M238.892,105.228v-6.323h-1.094v-0.96h1.094V97.17c0-0.489,0.044-0.853,0.131-1.09c0.119-0.32,0.329-0.579,0.629-0.778
				c0.301-0.199,0.722-0.298,1.263-0.298c0.349,0,0.734,0.042,1.156,0.124l-0.187,1.077c-0.257-0.045-0.499-0.068-0.729-0.068
				c-0.376,0-0.643,0.08-0.798,0.24c-0.156,0.16-0.234,0.459-0.234,0.898v0.672h1.424v0.96h-1.424v6.323H238.892z"/>
			<path d="M247.542,102.883l1.279,0.158c-0.202,0.745-0.575,1.323-1.121,1.735s-1.243,0.617-2.092,0.617
				c-1.068,0-1.916-0.328-2.542-0.984c-0.626-0.656-0.939-1.576-0.939-2.76c0-1.226,0.316-2.176,0.95-2.853
				c0.633-0.677,1.453-1.015,2.463-1.015c0.977,0,1.774,0.332,2.394,0.995s0.929,1.596,0.929,2.798c0,0.073-0.002,0.183-0.007,0.329
				h-5.448c0.046,0.8,0.272,1.413,0.681,1.838c0.408,0.425,0.917,0.638,1.527,0.638c0.454,0,0.842-0.119,1.163-0.356
				C247.098,103.783,247.353,103.404,247.542,102.883z M243.475,100.887h4.08c-0.056-0.613-0.211-1.072-0.468-1.378
				c-0.395-0.476-0.906-0.713-1.534-0.713c-0.569,0-1.047,0.19-1.435,0.569S243.516,100.251,243.475,100.887z"/>
			<path d="M250.362,105.228v-7.283h1.114v1.104c0.284-0.517,0.547-0.857,0.788-1.022c0.24-0.165,0.506-0.247,0.795-0.247
				c0.417,0,0.841,0.133,1.272,0.398l-0.427,1.146c-0.303-0.179-0.605-0.268-0.908-0.268c-0.271,0-0.514,0.081-0.729,0.243
				c-0.215,0.163-0.369,0.388-0.461,0.676c-0.138,0.439-0.206,0.919-0.206,1.44v3.813H250.362z"/>
			<path d="M259.914,102.883l1.279,0.158c-0.202,0.745-0.575,1.323-1.121,1.735s-1.243,0.617-2.092,0.617
				c-1.068,0-1.916-0.328-2.542-0.984c-0.626-0.656-0.939-1.576-0.939-2.76c0-1.226,0.316-2.176,0.95-2.853
				c0.633-0.677,1.453-1.015,2.463-1.015c0.977,0,1.774,0.332,2.394,0.995s0.929,1.596,0.929,2.798c0,0.073-0.002,0.183-0.007,0.329
				h-5.448c0.046,0.8,0.272,1.413,0.681,1.838c0.408,0.425,0.917,0.638,1.527,0.638c0.454,0,0.842-0.119,1.163-0.356
				C259.47,103.783,259.725,103.404,259.914,102.883z M255.847,100.887h4.08c-0.056-0.613-0.211-1.072-0.468-1.378
				c-0.395-0.476-0.906-0.713-1.534-0.713c-0.569,0-1.047,0.19-1.435,0.569S255.888,100.251,255.847,100.887z"/>
			<path d="M262.749,105.228v-7.283h1.114v1.035c0.537-0.8,1.312-1.2,2.325-1.2c0.44,0,0.846,0.079,1.215,0.237
				s0.646,0.365,0.829,0.621c0.184,0.256,0.312,0.56,0.385,0.912c0.046,0.229,0.069,0.628,0.069,1.2v4.478h-1.238v-4.43
				c0-0.503-0.049-0.879-0.145-1.128c-0.097-0.249-0.268-0.448-0.513-0.597s-0.533-0.223-0.863-0.223
				c-0.527,0-0.983,0.167-1.366,0.501c-0.383,0.333-0.574,0.967-0.574,1.899v3.978H262.749z"/>
			<path d="M275.352,102.561l1.218,0.158c-0.133,0.836-0.474,1.491-1.021,1.964c-0.548,0.474-1.222,0.71-2.02,0.71
				c-1,0-1.804-0.326-2.411-0.977c-0.607-0.652-0.911-1.585-0.911-2.802c0-0.786,0.13-1.474,0.392-2.064s0.659-1.032,1.193-1.327
				s1.116-0.442,1.744-0.442c0.794,0,1.442,0.2,1.947,0.6c0.505,0.4,0.828,0.968,0.97,1.704l-1.204,0.186
				c-0.114-0.489-0.317-0.857-0.608-1.104c-0.291-0.247-0.644-0.37-1.056-0.37c-0.624,0-1.131,0.223-1.521,0.668
				c-0.391,0.446-0.585,1.151-0.585,2.116c0,0.979,0.188,1.689,0.564,2.133c0.376,0.443,0.866,0.665,1.472,0.665
				c0.486,0,0.893-0.148,1.218-0.445C275.058,103.635,275.265,103.178,275.352,102.561z"/>
			<path d="M282.63,102.883l1.279,0.158c-0.202,0.745-0.575,1.323-1.121,1.735s-1.243,0.617-2.092,0.617
				c-1.068,0-1.916-0.328-2.542-0.984c-0.626-0.656-0.939-1.576-0.939-2.76c0-1.226,0.316-2.176,0.95-2.853
				c0.633-0.677,1.453-1.015,2.463-1.015c0.977,0,1.774,0.332,2.394,0.995s0.929,1.596,0.929,2.798c0,0.073-0.002,0.183-0.007,0.329
				h-5.448c0.046,0.8,0.272,1.413,0.681,1.838c0.408,0.425,0.917,0.638,1.527,0.638c0.454,0,0.842-0.119,1.163-0.356
				C282.187,103.783,282.442,103.404,282.63,102.883z M278.564,100.887h4.08c-0.056-0.613-0.211-1.072-0.468-1.378
				c-0.395-0.476-0.906-0.713-1.534-0.713c-0.569,0-1.047,0.19-1.435,0.569S278.605,100.251,278.564,100.887z"/>
			<path d="M289.467,105.228V95.174h3.805c0.67,0,1.181,0.032,1.534,0.096c0.495,0.083,0.91,0.239,1.245,0.47
				s0.604,0.555,0.809,0.97c0.204,0.417,0.306,0.874,0.306,1.372c0,0.855-0.272,1.579-0.818,2.171
				c-0.546,0.592-1.532,0.888-2.958,0.888h-2.587v4.087H289.467z M290.802,99.955h2.607c0.862,0,1.475-0.16,1.837-0.48
				c0.362-0.32,0.543-0.77,0.543-1.351c0-0.421-0.106-0.781-0.319-1.08c-0.214-0.3-0.494-0.498-0.843-0.593
				c-0.225-0.06-0.64-0.089-1.245-0.089h-2.58V99.955z"/>
			<path d="M298.246,101.586c0-1.349,0.376-2.348,1.128-2.997c0.629-0.54,1.395-0.81,2.298-0.81c1.005,0,1.826,0.328,2.463,0.984
				c0.638,0.656,0.957,1.563,0.957,2.719c0,0.937-0.142,1.674-0.424,2.211c-0.281,0.537-0.692,0.955-1.231,1.251
				c-0.539,0.297-1.127,0.446-1.765,0.446c-1.022,0-1.85-0.327-2.479-0.98C298.561,103.758,298.246,102.816,298.246,101.586z
				 M299.518,101.586c0,0.933,0.204,1.631,0.612,2.095s0.922,0.696,1.541,0.696c0.615,0,1.126-0.233,1.534-0.699
				s0.612-1.177,0.612-2.133c0-0.9-0.205-1.583-0.615-2.047c-0.411-0.464-0.921-0.696-1.531-0.696c-0.619,0-1.133,0.231-1.541,0.693
				C299.722,99.957,299.518,100.654,299.518,101.586z"/>
			<path d="M306.549,96.594v-1.42h1.238v1.42H306.549z M306.549,105.228v-7.283h1.238v7.283H306.549z"/>
			<path d="M309.673,105.228v-7.283h1.114v1.035c0.537-0.8,1.312-1.2,2.325-1.2c0.44,0,0.846,0.079,1.215,0.237
				s0.646,0.365,0.829,0.621c0.184,0.256,0.312,0.56,0.385,0.912c0.046,0.229,0.069,0.628,0.069,1.2v4.478h-1.238v-4.43
				c0-0.503-0.049-0.879-0.145-1.128c-0.097-0.249-0.268-0.448-0.513-0.597s-0.533-0.223-0.863-0.223
				c-0.527,0-0.983,0.167-1.366,0.501c-0.383,0.333-0.574,0.967-0.574,1.899v3.978H309.673z"/>
			<path d="M320.058,104.124l0.179,1.09c-0.349,0.073-0.66,0.11-0.936,0.11c-0.45,0-0.798-0.071-1.046-0.213
				s-0.422-0.328-0.522-0.559c-0.102-0.231-0.151-0.717-0.151-1.458v-4.19h-0.908v-0.96h0.908v-1.804l1.231-0.741v2.544h1.245v0.96
				h-1.245v4.259c0,0.352,0.021,0.578,0.064,0.679c0.044,0.101,0.115,0.181,0.214,0.24c0.099,0.059,0.239,0.089,0.423,0.089
				C319.652,104.172,319.833,104.156,320.058,104.124z"/>
		</g>
	</g>
	
		<line clip-path="url(#SVGID_2_)" fill="none" stroke="#000000" stroke-width="0.7226" stroke-linejoin="round" stroke-miterlimit="10" x1="182.201" y1="29.026" x2="102.823" y2="28.897"/>
	<polygon clip-path="url(#SVGID_2_)" fill-rule="evenodd" clip-rule="evenodd" points="103.042,24.951 95.25,28.897 103.042,32.754 
			"/>
	
		<line clip-path="url(#SVGID_2_)" fill="none" stroke="#000000" stroke-width="0.7226" stroke-linejoin="round" stroke-miterlimit="10" x1="180.536" y1="101.137" x2="101.257" y2="101.016"/>
	<polygon clip-path="url(#SVGID_2_)" fill-rule="evenodd" clip-rule="evenodd" points="101.497,97.045 93.682,101.016 
		101.497,104.868 	"/>
	<g clip-path="url(#SVGID_2_)">
		<defs>
			<rect id="SVGID_7_" x="190.139" y="43.441" width="201.767" height="43.759"/>
		</defs>
		<clipPath id="SVGID_8_">
			<use xlink:href="#SVGID_7_"  overflow="visible"/>
		</clipPath>
		<g clip-path="url(#SVGID_8_)">
			<path d="M191.294,56.441V46.387h6.804v1.187h-5.47v3.113h4.733v1.187h-4.733v4.567H191.294z"/>
			<path d="M199.604,56.441v-7.283h1.114v1.104c0.285-0.517,0.547-0.857,0.788-1.022s0.505-0.247,0.794-0.247
				c0.417,0,0.842,0.133,1.273,0.398l-0.427,1.146c-0.303-0.179-0.605-0.268-0.908-0.268c-0.271,0-0.514,0.081-0.729,0.243
				c-0.216,0.163-0.369,0.388-0.461,0.676c-0.138,0.439-0.207,0.919-0.207,1.44v3.813H199.604z"/>
			<path d="M209.077,55.542c-0.458,0.389-0.9,0.663-1.324,0.823c-0.424,0.16-0.879,0.24-1.366,0.24
				c-0.803,0-1.419-0.195-1.851-0.586c-0.431-0.391-0.646-0.89-0.646-1.499c0-0.356,0.081-0.682,0.244-0.977
				c0.163-0.295,0.376-0.531,0.64-0.71c0.264-0.178,0.561-0.313,0.891-0.404c0.243-0.064,0.61-0.126,1.101-0.185
				c1-0.119,1.736-0.261,2.208-0.425c0.004-0.169,0.007-0.277,0.007-0.322c0-0.503-0.117-0.857-0.351-1.063
				c-0.316-0.279-0.787-0.418-1.41-0.418c-0.583,0-1.013,0.102-1.29,0.305c-0.277,0.204-0.482,0.563-0.616,1.08l-1.211-0.165
				c0.11-0.517,0.292-0.934,0.543-1.251c0.252-0.318,0.617-0.563,1.094-0.734s1.029-0.257,1.658-0.257
				c0.624,0,1.131,0.073,1.521,0.22s0.677,0.33,0.86,0.552c0.184,0.222,0.312,0.502,0.385,0.84c0.042,0.21,0.062,0.59,0.062,1.138
				v1.646c0,1.147,0.026,1.874,0.079,2.177c0.053,0.304,0.157,0.596,0.313,0.875h-1.293
				C209.196,56.185,209.113,55.885,209.077,55.542z M208.974,52.786c-0.45,0.183-1.124,0.338-2.022,0.466
				c-0.509,0.073-0.87,0.156-1.081,0.247s-0.374,0.225-0.488,0.401c-0.115,0.176-0.172,0.372-0.172,0.586
				c0,0.329,0.125,0.604,0.375,0.823c0.25,0.219,0.616,0.329,1.097,0.329c0.477,0,0.901-0.104,1.273-0.312
				c0.371-0.208,0.644-0.493,0.818-0.854c0.133-0.279,0.2-0.69,0.2-1.234V52.786z"/>
			<path d="M216.913,53.773l1.218,0.158c-0.133,0.836-0.474,1.491-1.021,1.964c-0.548,0.474-1.221,0.71-2.02,0.71
				c-1,0-1.803-0.326-2.411-0.977c-0.608-0.652-0.912-1.585-0.912-2.802c0-0.786,0.131-1.474,0.392-2.064
				c0.262-0.59,0.659-1.032,1.194-1.327c0.534-0.295,1.116-0.442,1.744-0.442c0.793,0,1.442,0.2,1.947,0.6
				c0.504,0.4,0.828,0.968,0.97,1.704l-1.204,0.186c-0.115-0.489-0.318-0.857-0.609-1.104c-0.292-0.247-0.643-0.37-1.056-0.37
				c-0.624,0-1.13,0.223-1.521,0.668c-0.39,0.446-0.584,1.151-0.584,2.116c0,0.979,0.188,1.689,0.564,2.133s0.867,0.665,1.472,0.665
				c0.486,0,0.892-0.148,1.218-0.445C216.619,54.848,216.826,54.391,216.913,53.773z"/>
			<path d="M221.894,55.337l0.179,1.09c-0.349,0.073-0.661,0.11-0.936,0.11c-0.449,0-0.798-0.071-1.045-0.213
				s-0.422-0.328-0.523-0.559s-0.151-0.717-0.151-1.458v-4.19h-0.908v-0.96h0.908v-1.804l1.231-0.741v2.544h1.245v0.96h-1.245v4.259
				c0,0.352,0.022,0.578,0.065,0.679s0.115,0.181,0.213,0.24c0.099,0.059,0.239,0.089,0.423,0.089
				C221.488,55.385,221.669,55.369,221.894,55.337z"/>
			<path d="M223.182,47.807v-1.42h1.238v1.42H223.182z M223.182,56.441v-7.283h1.238v7.283H223.182z"/>
			<path d="M225.844,52.799c0-1.349,0.376-2.348,1.128-2.997c0.628-0.54,1.394-0.81,2.298-0.81c1.004,0,1.825,0.328,2.463,0.984
				c0.637,0.656,0.956,1.563,0.956,2.719c0,0.937-0.141,1.674-0.423,2.211c-0.282,0.537-0.693,0.955-1.231,1.251
				c-0.539,0.297-1.127,0.446-1.765,0.446c-1.023,0-1.85-0.327-2.48-0.98C226.16,54.971,225.844,54.029,225.844,52.799z
				 M227.117,52.799c0,0.933,0.204,1.631,0.612,2.095s0.922,0.696,1.541,0.696c0.614,0,1.126-0.233,1.534-0.699
				s0.612-1.177,0.612-2.133c0-0.9-0.206-1.583-0.616-2.047c-0.411-0.464-0.921-0.696-1.531-0.696c-0.619,0-1.133,0.231-1.541,0.693
				C227.321,51.169,227.117,51.867,227.117,52.799z"/>
			<path d="M234.014,56.441v-7.283h1.114v1.035c0.537-0.8,1.312-1.2,2.325-1.2c0.44,0,0.846,0.079,1.215,0.237
				s0.646,0.365,0.829,0.621c0.184,0.256,0.312,0.56,0.385,0.912c0.046,0.229,0.069,0.628,0.069,1.2v4.478h-1.238v-4.43
				c0-0.503-0.049-0.879-0.145-1.128c-0.097-0.249-0.268-0.448-0.513-0.597s-0.533-0.223-0.863-0.223
				c-0.527,0-0.983,0.167-1.366,0.501c-0.383,0.333-0.574,0.967-0.574,1.899v3.978H234.014z"/>
			<path d="M245.332,52.799c0-1.349,0.376-2.348,1.128-2.997c0.629-0.54,1.395-0.81,2.298-0.81c1.005,0,1.826,0.328,2.463,0.984
				c0.638,0.656,0.957,1.563,0.957,2.719c0,0.937-0.142,1.674-0.424,2.211c-0.281,0.537-0.692,0.955-1.231,1.251
				c-0.539,0.297-1.127,0.446-1.765,0.446c-1.022,0-1.85-0.327-2.479-0.98C245.647,54.971,245.332,54.029,245.332,52.799z
				 M246.604,52.799c0,0.933,0.204,1.631,0.612,2.095s0.922,0.696,1.541,0.696c0.615,0,1.126-0.233,1.534-0.699
				s0.612-1.177,0.612-2.133c0-0.9-0.205-1.583-0.615-2.047c-0.411-0.464-0.921-0.696-1.531-0.696c-0.619,0-1.133,0.231-1.541,0.693
				C246.808,51.169,246.604,51.867,246.604,52.799z"/>
			<path d="M253.784,56.441v-6.323h-1.094v-0.96h1.094v-0.775c0-0.489,0.044-0.853,0.131-1.09c0.119-0.32,0.329-0.579,0.629-0.778
				c0.301-0.199,0.722-0.298,1.263-0.298c0.349,0,0.734,0.042,1.156,0.124l-0.187,1.077c-0.257-0.045-0.499-0.068-0.729-0.068
				c-0.376,0-0.643,0.08-0.798,0.24c-0.156,0.16-0.234,0.459-0.234,0.898v0.672h1.424v0.96h-1.424v6.323H253.784z"/>
			<path d="M260.784,56.441v-1.234l5.167-6.439c0.366-0.457,0.715-0.855,1.045-1.193h-5.627v-1.187h7.224v1.187l-5.662,6.975
				l-0.612,0.706h6.439v1.187H260.784z"/>
			<path d="M269.519,52.799c0-1.349,0.376-2.348,1.128-2.997c0.629-0.54,1.395-0.81,2.298-0.81c1.005,0,1.826,0.328,2.463,0.984
				c0.638,0.656,0.957,1.563,0.957,2.719c0,0.937-0.142,1.674-0.424,2.211c-0.281,0.537-0.692,0.955-1.231,1.251
				c-0.539,0.297-1.127,0.446-1.765,0.446c-1.022,0-1.85-0.327-2.479-0.98C269.834,54.971,269.519,54.029,269.519,52.799z
				 M270.792,52.799c0,0.933,0.204,1.631,0.612,2.095s0.922,0.696,1.541,0.696c0.615,0,1.126-0.233,1.534-0.699
				s0.612-1.177,0.612-2.133c0-0.9-0.205-1.583-0.615-2.047c-0.411-0.464-0.921-0.696-1.531-0.696c-0.619,0-1.133,0.231-1.541,0.693
				C270.996,51.169,270.792,51.867,270.792,52.799z"/>
			<path d="M277.816,56.441v-7.283h1.114v1.035c0.537-0.8,1.312-1.2,2.325-1.2c0.44,0,0.846,0.079,1.215,0.237
				s0.646,0.365,0.829,0.621c0.184,0.256,0.312,0.56,0.385,0.912c0.046,0.229,0.069,0.628,0.069,1.2v4.478h-1.238v-4.43
				c0-0.503-0.049-0.879-0.145-1.128c-0.097-0.249-0.268-0.448-0.513-0.597s-0.533-0.223-0.863-0.223
				c-0.527,0-0.983,0.167-1.366,0.501c-0.383,0.333-0.574,0.967-0.574,1.899v3.978H277.816z"/>
			<path d="M290.654,54.096l1.279,0.158c-0.202,0.745-0.575,1.323-1.121,1.735s-1.243,0.617-2.092,0.617
				c-1.068,0-1.916-0.328-2.542-0.984c-0.626-0.656-0.939-1.576-0.939-2.76c0-1.226,0.316-2.176,0.95-2.853
				c0.633-0.677,1.453-1.015,2.463-1.015c0.977,0,1.774,0.332,2.394,0.995s0.929,1.596,0.929,2.798c0,0.073-0.002,0.183-0.007,0.329
				h-5.448c0.046,0.8,0.272,1.413,0.681,1.838c0.408,0.425,0.917,0.638,1.527,0.638c0.454,0,0.842-0.119,1.163-0.356
				C290.21,54.996,290.465,54.617,290.654,54.096z M286.587,52.1h4.08c-0.056-0.613-0.211-1.072-0.468-1.378
				c-0.395-0.476-0.906-0.713-1.534-0.713c-0.569,0-1.047,0.19-1.435,0.569S286.628,51.464,286.587,52.1z"/>
			<path d="M304.644,52.916l1.335,0.336c-0.28,1.093-0.783,1.926-1.511,2.5c-0.727,0.574-1.615,0.86-2.666,0.86
				c-1.087,0-1.971-0.221-2.651-0.662c-0.682-0.441-1.2-1.08-1.555-1.917c-0.355-0.836-0.533-1.735-0.533-2.695
				c0-1.047,0.2-1.96,0.602-2.74s0.973-1.372,1.713-1.776c0.741-0.404,1.556-0.607,2.446-0.607c1.009,0,1.857,0.256,2.545,0.768
				c0.688,0.512,1.167,1.232,1.438,2.16l-1.314,0.309c-0.234-0.731-0.573-1.264-1.019-1.598c-0.444-0.333-1.004-0.5-1.679-0.5
				c-0.774,0-1.423,0.185-1.943,0.555c-0.521,0.371-0.886,0.868-1.097,1.492s-0.316,1.268-0.316,1.931
				c0,0.855,0.124,1.601,0.374,2.239s0.639,1.115,1.167,1.43c0.527,0.315,1.098,0.473,1.713,0.473c0.747,0,1.38-0.215,1.898-0.645
				C304.11,54.4,304.46,53.762,304.644,52.916z"/>
			<path d="M306.919,52.799c0-1.349,0.376-2.348,1.128-2.997c0.629-0.54,1.395-0.81,2.298-0.81c1.005,0,1.826,0.328,2.463,0.984
				c0.638,0.656,0.957,1.563,0.957,2.719c0,0.937-0.142,1.674-0.424,2.211c-0.281,0.537-0.692,0.955-1.231,1.251
				c-0.539,0.297-1.127,0.446-1.765,0.446c-1.022,0-1.85-0.327-2.479-0.98C307.235,54.971,306.919,54.029,306.919,52.799z
				 M308.192,52.799c0,0.933,0.204,1.631,0.612,2.095s0.922,0.696,1.541,0.696c0.615,0,1.126-0.233,1.534-0.699
				s0.612-1.177,0.612-2.133c0-0.9-0.205-1.583-0.615-2.047c-0.411-0.464-0.921-0.696-1.531-0.696c-0.619,0-1.133,0.231-1.541,0.693
				C308.396,51.169,308.192,51.867,308.192,52.799z"/>
			<path d="M315.216,56.441v-7.283h1.114v1.035c0.537-0.8,1.312-1.2,2.325-1.2c0.44,0,0.846,0.079,1.215,0.237
				s0.646,0.365,0.829,0.621c0.184,0.256,0.312,0.56,0.385,0.912c0.046,0.229,0.069,0.628,0.069,1.2v4.478h-1.238v-4.43
				c0-0.503-0.049-0.879-0.145-1.128c-0.097-0.249-0.268-0.448-0.513-0.597s-0.533-0.223-0.863-0.223
				c-0.527,0-0.983,0.167-1.366,0.501c-0.383,0.333-0.574,0.967-0.574,1.899v3.978H315.216z"/>
			<path d="M325.601,55.337l0.179,1.09c-0.349,0.073-0.66,0.11-0.936,0.11c-0.45,0-0.798-0.071-1.046-0.213
				s-0.422-0.328-0.522-0.559c-0.102-0.231-0.151-0.717-0.151-1.458v-4.19h-0.908v-0.96h0.908v-1.804l1.231-0.741v2.544h1.245v0.96
				h-1.245v4.259c0,0.352,0.021,0.578,0.064,0.679c0.044,0.101,0.115,0.181,0.214,0.24c0.099,0.059,0.239,0.089,0.423,0.089
				C325.195,55.385,325.376,55.369,325.601,55.337z"/>
			<path d="M326.855,56.441v-7.283h1.114v1.104c0.284-0.517,0.547-0.857,0.788-1.022c0.24-0.165,0.506-0.247,0.795-0.247
				c0.417,0,0.841,0.133,1.272,0.398l-0.427,1.146c-0.303-0.179-0.605-0.268-0.908-0.268c-0.271,0-0.514,0.081-0.729,0.243
				c-0.215,0.163-0.369,0.388-0.461,0.676c-0.138,0.439-0.206,0.919-0.206,1.44v3.813H326.855z"/>
			<path d="M331.099,52.799c0-1.349,0.376-2.348,1.128-2.997c0.629-0.54,1.395-0.81,2.298-0.81c1.005,0,1.826,0.328,2.463,0.984
				c0.638,0.656,0.957,1.563,0.957,2.719c0,0.937-0.142,1.674-0.424,2.211c-0.281,0.537-0.692,0.955-1.231,1.251
				c-0.539,0.297-1.127,0.446-1.765,0.446c-1.022,0-1.85-0.327-2.479-0.98C331.415,54.971,331.099,54.029,331.099,52.799z
				 M332.372,52.799c0,0.933,0.204,1.631,0.612,2.095s0.922,0.696,1.541,0.696c0.615,0,1.126-0.233,1.534-0.699
				s0.612-1.177,0.612-2.133c0-0.9-0.205-1.583-0.615-2.047c-0.411-0.464-0.921-0.696-1.531-0.696c-0.619,0-1.133,0.231-1.541,0.693
				C332.576,51.169,332.372,51.867,332.372,52.799z"/>
			<path d="M339.369,56.441V46.387h1.238v10.054H339.369z"/>
			<path d="M342.5,56.441V46.387h1.238v10.054H342.5z"/>
			<path d="M350.659,54.096l1.279,0.158c-0.202,0.745-0.575,1.323-1.121,1.735s-1.243,0.617-2.092,0.617
				c-1.068,0-1.916-0.328-2.542-0.984c-0.626-0.656-0.939-1.576-0.939-2.76c0-1.226,0.316-2.176,0.95-2.853
				c0.633-0.677,1.453-1.015,2.463-1.015c0.977,0,1.774,0.332,2.394,0.995s0.929,1.596,0.929,2.798c0,0.073-0.002,0.183-0.007,0.329
				h-5.448c0.046,0.8,0.272,1.413,0.681,1.838c0.408,0.425,0.917,0.638,1.527,0.638c0.454,0,0.842-0.119,1.163-0.356
				C350.215,54.996,350.47,54.617,350.659,54.096z M346.592,52.1h4.08c-0.056-0.613-0.211-1.072-0.468-1.378
				c-0.395-0.476-0.906-0.713-1.534-0.713c-0.569,0-1.047,0.19-1.435,0.569S346.633,51.464,346.592,52.1z"/>
			<path d="M358.233,56.441v-0.919c-0.463,0.723-1.145,1.083-2.043,1.083c-0.583,0-1.118-0.16-1.606-0.48
				c-0.489-0.32-0.867-0.767-1.136-1.341c-0.268-0.574-0.402-1.233-0.402-1.979c0-0.727,0.122-1.386,0.365-1.979
				c0.242-0.592,0.607-1.045,1.094-1.361c0.485-0.316,1.029-0.474,1.63-0.474c0.44,0,0.833,0.093,1.177,0.278
				s0.624,0.426,0.839,0.724v-3.607h1.231v10.054H358.233z M354.318,52.806c0,0.933,0.197,1.63,0.592,2.092s0.86,0.692,1.396,0.692
				c0.542,0,1.001-0.22,1.38-0.662c0.378-0.441,0.567-1.114,0.567-2.02c0-0.997-0.192-1.728-0.578-2.194
				c-0.385-0.466-0.859-0.7-1.424-0.7c-0.551,0-1.01,0.224-1.379,0.672C354.502,51.135,354.318,51.842,354.318,52.806z"/>
			<path d="M366.272,56.441h-1.148V46.387h1.238v3.587c0.522-0.654,1.19-0.981,2.002-0.981c0.449,0,0.875,0.09,1.276,0.271
				s0.731,0.435,0.99,0.761c0.26,0.327,0.462,0.721,0.609,1.183c0.146,0.462,0.22,0.956,0.22,1.481c0,1.248-0.31,2.212-0.929,2.894
				c-0.619,0.682-1.362,1.022-2.229,1.022c-0.862,0-1.539-0.359-2.03-1.077V56.441z M366.258,52.745
				c0,0.873,0.119,1.504,0.358,1.893c0.39,0.636,0.917,0.953,1.582,0.953c0.541,0,1.009-0.234,1.403-0.703s0.592-1.167,0.592-2.095
				c0-0.951-0.189-1.653-0.567-2.105c-0.379-0.452-0.836-0.679-1.373-0.679c-0.541,0-1.009,0.234-1.403,0.703
				S366.258,51.858,366.258,52.745z"/>
			<path d="M372.912,59.246l-0.138-1.159c0.271,0.073,0.507,0.109,0.708,0.109c0.275,0,0.496-0.045,0.661-0.137
				c0.165-0.092,0.3-0.22,0.405-0.384c0.078-0.124,0.204-0.43,0.379-0.919c0.022-0.068,0.06-0.169,0.11-0.302l-2.773-7.296h1.335
				l1.521,4.217c0.197,0.535,0.374,1.097,0.53,1.687c0.142-0.567,0.312-1.12,0.509-1.66l1.562-4.245h1.238l-2.779,7.406
				c-0.298,0.8-0.529,1.351-0.695,1.653c-0.22,0.407-0.472,0.705-0.756,0.895c-0.285,0.19-0.624,0.285-1.019,0.285
				C373.471,59.396,373.205,59.346,372.912,59.246z"/>
		</g>
		<g clip-path="url(#SVGID_8_)">
			<path d="M190.771,69.31l1.259-0.11c0.06,0.503,0.198,0.916,0.416,1.238s0.556,0.583,1.015,0.782
				c0.458,0.199,0.975,0.298,1.548,0.298c0.509,0,0.959-0.075,1.349-0.226s0.68-0.358,0.87-0.621s0.286-0.55,0.286-0.861
				c0-0.315-0.092-0.591-0.275-0.826c-0.184-0.235-0.486-0.433-0.908-0.593c-0.271-0.105-0.869-0.269-1.796-0.49
				c-0.926-0.222-1.575-0.431-1.947-0.627c-0.481-0.251-0.84-0.563-1.077-0.936s-0.354-0.79-0.354-1.252
				c0-0.507,0.145-0.981,0.434-1.423c0.289-0.441,0.711-0.776,1.266-1.004c0.555-0.229,1.172-0.343,1.851-0.343
				c0.747,0,1.407,0.12,1.978,0.36c0.571,0.24,1.01,0.593,1.317,1.06c0.308,0.466,0.473,0.994,0.496,1.584l-1.28,0.096
				c-0.069-0.636-0.301-1.116-0.698-1.44c-0.396-0.325-0.982-0.487-1.758-0.487c-0.807,0-1.396,0.147-1.765,0.442
				s-0.554,0.65-0.554,1.066c0,0.361,0.131,0.658,0.392,0.892c0.257,0.233,0.928,0.472,2.012,0.716
				c1.085,0.245,1.829,0.458,2.232,0.641c0.587,0.27,1.021,0.612,1.3,1.025c0.28,0.414,0.42,0.891,0.42,1.43
				c0,0.535-0.154,1.039-0.461,1.512c-0.308,0.473-0.749,0.841-1.324,1.104c-0.576,0.263-1.224,0.394-1.944,0.394
				c-0.913,0-1.677-0.133-2.294-0.397c-0.617-0.265-1.101-0.664-1.452-1.197C190.974,70.584,190.79,69.981,190.771,69.31z"/>
			<path d="M205.466,70.194l1.28,0.158c-0.202,0.745-0.576,1.323-1.122,1.735s-1.243,0.617-2.091,0.617
				c-1.069,0-1.916-0.328-2.542-0.984c-0.626-0.656-0.939-1.576-0.939-2.76c0-1.226,0.316-2.176,0.949-2.853
				s1.454-1.015,2.463-1.015c0.977,0,1.775,0.332,2.394,0.995s0.929,1.596,0.929,2.798c0,0.073-0.002,0.183-0.007,0.329h-5.449
				c0.046,0.8,0.273,1.413,0.681,1.838c0.408,0.425,0.917,0.638,1.527,0.638c0.454,0,0.842-0.119,1.163-0.356
				C205.023,71.095,205.278,70.715,205.466,70.194z M201.4,68.199h4.08c-0.055-0.613-0.211-1.072-0.468-1.378
				c-0.395-0.476-0.906-0.713-1.534-0.713c-0.568,0-1.047,0.19-1.434,0.569C201.656,67.056,201.441,67.563,201.4,68.199z"/>
			<path d="M213.068,69.872l1.218,0.158c-0.133,0.836-0.474,1.491-1.021,1.964c-0.548,0.474-1.221,0.71-2.02,0.71
				c-1,0-1.803-0.326-2.411-0.977c-0.608-0.652-0.912-1.585-0.912-2.802c0-0.786,0.131-1.474,0.392-2.064
				c0.262-0.59,0.659-1.032,1.194-1.327c0.534-0.295,1.116-0.442,1.744-0.442c0.793,0,1.442,0.2,1.947,0.6
				c0.504,0.4,0.828,0.968,0.97,1.704l-1.204,0.186c-0.115-0.489-0.318-0.857-0.609-1.104c-0.292-0.247-0.643-0.37-1.056-0.37
				c-0.624,0-1.13,0.223-1.521,0.668c-0.39,0.446-0.584,1.151-0.584,2.116c0,0.979,0.188,1.689,0.564,2.133s0.867,0.665,1.472,0.665
				c0.486,0,0.892-0.148,1.218-0.445C212.775,70.946,212.981,70.489,213.068,69.872z"/>
			<path d="M214.884,68.898c0-1.349,0.376-2.348,1.128-2.997c0.628-0.54,1.394-0.81,2.298-0.81c1.004,0,1.825,0.328,2.463,0.984
				c0.637,0.656,0.956,1.563,0.956,2.719c0,0.937-0.141,1.674-0.423,2.211c-0.282,0.537-0.693,0.955-1.231,1.251
				c-0.539,0.297-1.127,0.446-1.765,0.446c-1.023,0-1.85-0.327-2.48-0.98C215.2,71.07,214.884,70.128,214.884,68.898z
				 M216.157,68.898c0,0.933,0.204,1.631,0.612,2.095s0.922,0.696,1.541,0.696c0.614,0,1.126-0.233,1.534-0.699
				s0.612-1.177,0.612-2.133c0-0.9-0.206-1.583-0.616-2.047c-0.411-0.464-0.921-0.696-1.531-0.696c-0.619,0-1.133,0.231-1.541,0.693
				C216.361,67.268,216.157,67.965,216.157,68.898z"/>
			<path d="M223.181,72.54v-7.283h1.115v1.035c0.537-0.8,1.312-1.2,2.325-1.2c0.44,0,0.845,0.079,1.214,0.237
				s0.646,0.365,0.829,0.621c0.183,0.256,0.312,0.56,0.385,0.912c0.045,0.229,0.068,0.628,0.068,1.2v4.478h-1.238v-4.43
				c0-0.503-0.048-0.879-0.145-1.128c-0.096-0.249-0.267-0.448-0.512-0.597c-0.246-0.148-0.533-0.223-0.863-0.223
				c-0.528,0-0.983,0.167-1.366,0.501c-0.383,0.333-0.575,0.967-0.575,1.899v3.978H223.181z"/>
			<path d="M235.757,72.54v-0.919c-0.463,0.723-1.145,1.083-2.043,1.083c-0.583,0-1.118-0.16-1.606-0.48
				c-0.488-0.32-0.867-0.767-1.135-1.341c-0.269-0.574-0.403-1.233-0.403-1.979c0-0.727,0.122-1.386,0.365-1.979
				c0.243-0.592,0.608-1.045,1.094-1.361c0.486-0.316,1.03-0.474,1.631-0.474c0.44,0,0.833,0.093,1.176,0.278
				s0.624,0.426,0.839,0.724v-3.607h1.231V72.54H235.757z M231.843,68.905c0,0.933,0.197,1.63,0.592,2.092
				c0.394,0.462,0.86,0.692,1.396,0.692c0.542,0,1-0.22,1.379-0.662c0.378-0.441,0.567-1.114,0.567-2.02
				c0-0.997-0.192-1.728-0.578-2.194c-0.385-0.466-0.859-0.7-1.424-0.7c-0.55,0-1.01,0.224-1.379,0.672
				C232.027,67.234,231.843,67.94,231.843,68.905z"/>
			<path d="M242.848,72.54V62.486h4.472c0.899,0,1.583,0.09,2.051,0.271s0.841,0.5,1.121,0.957c0.279,0.458,0.42,0.963,0.42,1.516
				c0,0.713-0.231,1.314-0.695,1.804c-0.463,0.489-1.179,0.8-2.146,0.933c0.354,0.169,0.622,0.336,0.805,0.5
				c0.391,0.357,0.76,0.803,1.108,1.337l1.754,2.736h-1.679l-1.335-2.092c-0.39-0.604-0.711-1.065-0.963-1.385
				c-0.252-0.32-0.478-0.544-0.678-0.672c-0.199-0.128-0.402-0.217-0.608-0.268c-0.151-0.032-0.399-0.048-0.743-0.048h-1.548v4.464
				H242.848z M244.183,66.923h2.869c0.609,0,1.087-0.063,1.431-0.188c0.344-0.125,0.605-0.327,0.784-0.604
				c0.179-0.276,0.269-0.577,0.269-0.902c0-0.475-0.174-0.866-0.52-1.172c-0.347-0.306-0.894-0.459-1.641-0.459h-3.192V66.923z"/>
			<path d="M257.762,70.194l1.279,0.158c-0.202,0.745-0.575,1.323-1.121,1.735s-1.243,0.617-2.092,0.617
				c-1.068,0-1.916-0.328-2.542-0.984c-0.626-0.656-0.939-1.576-0.939-2.76c0-1.226,0.316-2.176,0.95-2.853
				c0.633-0.677,1.453-1.015,2.463-1.015c0.977,0,1.774,0.332,2.394,0.995s0.929,1.596,0.929,2.798c0,0.073-0.002,0.183-0.007,0.329
				h-5.448c0.046,0.8,0.272,1.413,0.681,1.838c0.408,0.425,0.917,0.638,1.527,0.638c0.454,0,0.842-0.119,1.163-0.356
				C257.319,71.095,257.574,70.715,257.762,70.194z M253.696,68.199h4.08c-0.056-0.613-0.211-1.072-0.468-1.378
				c-0.395-0.476-0.906-0.713-1.534-0.713c-0.569,0-1.047,0.19-1.435,0.569S253.737,67.563,253.696,68.199z"/>
			<path d="M260.892,72.54v-6.323h-1.094v-0.96h1.094v-0.775c0-0.489,0.044-0.853,0.131-1.09c0.119-0.32,0.329-0.579,0.629-0.778
				c0.301-0.199,0.722-0.298,1.263-0.298c0.349,0,0.734,0.042,1.156,0.124l-0.187,1.077c-0.257-0.045-0.499-0.068-0.729-0.068
				c-0.376,0-0.643,0.08-0.798,0.24c-0.156,0.16-0.234,0.459-0.234,0.898v0.672h1.424v0.96h-1.424v6.323H260.892z"/>
			<path d="M269.541,70.194l1.279,0.158c-0.202,0.745-0.575,1.323-1.121,1.735s-1.243,0.617-2.092,0.617
				c-1.068,0-1.916-0.328-2.542-0.984c-0.626-0.656-0.939-1.576-0.939-2.76c0-1.226,0.316-2.176,0.95-2.853
				c0.633-0.677,1.453-1.015,2.463-1.015c0.977,0,1.774,0.332,2.394,0.995s0.929,1.596,0.929,2.798c0,0.073-0.002,0.183-0.007,0.329
				h-5.448c0.046,0.8,0.272,1.413,0.681,1.838c0.408,0.425,0.917,0.638,1.527,0.638c0.454,0,0.842-0.119,1.163-0.356
				C269.097,71.095,269.352,70.715,269.541,70.194z M265.474,68.199h4.08c-0.056-0.613-0.211-1.072-0.468-1.378
				c-0.395-0.476-0.906-0.713-1.534-0.713c-0.569,0-1.047,0.19-1.435,0.569S265.515,67.563,265.474,68.199z"/>
			<path d="M272.22,72.54v-7.283h1.114v1.104c0.284-0.517,0.547-0.857,0.788-1.022c0.24-0.165,0.506-0.247,0.795-0.247
				c0.417,0,0.841,0.133,1.272,0.398l-0.427,1.146c-0.303-0.179-0.605-0.268-0.908-0.268c-0.271,0-0.514,0.081-0.729,0.243
				c-0.215,0.163-0.369,0.388-0.461,0.676c-0.138,0.439-0.206,0.919-0.206,1.44v3.813H272.22z"/>
			<path d="M281.927,70.194l1.279,0.158c-0.202,0.745-0.575,1.323-1.121,1.735s-1.243,0.617-2.092,0.617
				c-1.068,0-1.916-0.328-2.542-0.984c-0.626-0.656-0.939-1.576-0.939-2.76c0-1.226,0.316-2.176,0.95-2.853
				c0.633-0.677,1.453-1.015,2.463-1.015c0.977,0,1.774,0.332,2.394,0.995s0.929,1.596,0.929,2.798c0,0.073-0.002,0.183-0.007,0.329
				h-5.448c0.046,0.8,0.272,1.413,0.681,1.838c0.408,0.425,0.917,0.638,1.527,0.638c0.454,0,0.842-0.119,1.163-0.356
				C281.484,71.095,281.739,70.715,281.927,70.194z M277.861,68.199h4.08c-0.056-0.613-0.211-1.072-0.468-1.378
				c-0.395-0.476-0.906-0.713-1.534-0.713c-0.569,0-1.047,0.19-1.435,0.569S277.902,67.563,277.861,68.199z"/>
			<path d="M284.761,72.54v-7.283h1.114v1.035c0.537-0.8,1.312-1.2,2.325-1.2c0.44,0,0.846,0.079,1.215,0.237
				s0.646,0.365,0.829,0.621c0.184,0.256,0.312,0.56,0.385,0.912c0.046,0.229,0.069,0.628,0.069,1.2v4.478h-1.238v-4.43
				c0-0.503-0.049-0.879-0.145-1.128c-0.097-0.249-0.268-0.448-0.513-0.597s-0.533-0.223-0.863-0.223
				c-0.527,0-0.983,0.167-1.366,0.501c-0.383,0.333-0.574,0.967-0.574,1.899v3.978H284.761z"/>
			<path d="M297.323,69.872l1.218,0.158c-0.133,0.836-0.474,1.491-1.021,1.964c-0.548,0.474-1.222,0.71-2.02,0.71
				c-1,0-1.804-0.326-2.411-0.977c-0.607-0.652-0.911-1.585-0.911-2.802c0-0.786,0.13-1.474,0.392-2.064s0.659-1.032,1.193-1.327
				s1.116-0.442,1.744-0.442c0.794,0,1.442,0.2,1.947,0.6c0.505,0.4,0.828,0.968,0.97,1.704l-1.204,0.186
				c-0.114-0.489-0.317-0.857-0.608-1.104c-0.291-0.247-0.644-0.37-1.056-0.37c-0.624,0-1.131,0.223-1.521,0.668
				c-0.391,0.446-0.585,1.151-0.585,2.116c0,0.979,0.188,1.689,0.564,2.133c0.376,0.443,0.866,0.665,1.472,0.665
				c0.486,0,0.893-0.148,1.218-0.445C297.029,70.946,297.236,70.489,297.323,69.872z"/>
			<path d="M304.532,70.194l1.279,0.158c-0.202,0.745-0.575,1.323-1.121,1.735s-1.243,0.617-2.092,0.617
				c-1.068,0-1.916-0.328-2.542-0.984c-0.626-0.656-0.939-1.576-0.939-2.76c0-1.226,0.316-2.176,0.95-2.853
				c0.633-0.677,1.453-1.015,2.463-1.015c0.977,0,1.774,0.332,2.394,0.995s0.929,1.596,0.929,2.798c0,0.073-0.002,0.183-0.007,0.329
				h-5.448c0.046,0.8,0.272,1.413,0.681,1.838c0.408,0.425,0.917,0.638,1.527,0.638c0.454,0,0.842-0.119,1.163-0.356
				C304.088,71.095,304.343,70.715,304.532,70.194z M300.465,68.199h4.08c-0.056-0.613-0.211-1.072-0.468-1.378
				c-0.395-0.476-0.906-0.713-1.534-0.713c-0.569,0-1.047,0.19-1.435,0.569S300.506,67.563,300.465,68.199z"/>
			<path d="M311.466,72.54V62.486h3.805c0.67,0,1.181,0.032,1.534,0.096c0.495,0.083,0.91,0.239,1.245,0.47s0.604,0.555,0.809,0.97
				c0.204,0.417,0.306,0.874,0.306,1.372c0,0.855-0.272,1.579-0.818,2.171c-0.546,0.592-1.532,0.888-2.958,0.888h-2.587v4.087
				H311.466z M312.801,67.266h2.607c0.862,0,1.475-0.16,1.837-0.48c0.362-0.32,0.543-0.77,0.543-1.351
				c0-0.421-0.106-0.781-0.319-1.08c-0.214-0.3-0.494-0.498-0.843-0.593c-0.225-0.06-0.64-0.089-1.245-0.089h-2.58V67.266z"/>
			<path d="M320.245,68.898c0-1.349,0.376-2.348,1.128-2.997c0.629-0.54,1.395-0.81,2.298-0.81c1.005,0,1.826,0.328,2.463,0.984
				c0.638,0.656,0.957,1.563,0.957,2.719c0,0.937-0.142,1.674-0.424,2.211c-0.281,0.537-0.692,0.955-1.231,1.251
				c-0.539,0.297-1.127,0.446-1.765,0.446c-1.022,0-1.85-0.327-2.479-0.98C320.56,71.07,320.245,70.128,320.245,68.898z
				 M321.517,68.898c0,0.933,0.204,1.631,0.612,2.095s0.922,0.696,1.541,0.696c0.615,0,1.126-0.233,1.534-0.699
				s0.612-1.177,0.612-2.133c0-0.9-0.205-1.583-0.615-2.047c-0.411-0.464-0.921-0.696-1.531-0.696c-0.619,0-1.133,0.231-1.541,0.693
				C321.721,67.268,321.517,67.965,321.517,68.898z"/>
			<path d="M328.394,63.906v-1.42h1.238v1.42H328.394z M328.394,72.54v-7.283h1.238v7.283H328.394z"/>
			<path d="M331.517,72.54v-7.283h1.114v1.035c0.537-0.8,1.312-1.2,2.325-1.2c0.44,0,0.846,0.079,1.215,0.237
				s0.646,0.365,0.829,0.621c0.184,0.256,0.312,0.56,0.385,0.912c0.046,0.229,0.069,0.628,0.069,1.2v4.478h-1.238v-4.43
				c0-0.503-0.049-0.879-0.145-1.128c-0.097-0.249-0.268-0.448-0.513-0.597s-0.533-0.223-0.863-0.223
				c-0.527,0-0.983,0.167-1.366,0.501c-0.383,0.333-0.574,0.967-0.574,1.899v3.978H331.517z"/>
			<path d="M342.057,71.436l0.179,1.09c-0.349,0.073-0.66,0.11-0.936,0.11c-0.45,0-0.798-0.071-1.046-0.213
				s-0.422-0.328-0.522-0.559c-0.102-0.231-0.151-0.717-0.151-1.458v-4.19h-0.908v-0.96h0.908v-1.804l1.231-0.741v2.544h1.245v0.96
				h-1.245v4.259c0,0.352,0.021,0.578,0.064,0.679c0.044,0.101,0.115,0.181,0.214,0.24c0.099,0.059,0.239,0.089,0.423,0.089
				C341.651,71.483,341.833,71.467,342.057,71.436z"/>
			<path d="M353.698,66.628h-6.66v-1.152h6.66V66.628z M353.698,69.68h-6.66v-1.152h6.66V69.68z"/>
			<path d="M358.996,67.582c0-1.189,0.122-2.146,0.368-2.87c0.245-0.725,0.609-1.284,1.094-1.677c0.483-0.393,1.093-0.59,1.826-0.59
				c0.541,0,1.016,0.109,1.425,0.326c0.407,0.217,0.745,0.531,1.011,0.939c0.266,0.41,0.475,0.908,0.626,1.495
				s0.228,1.38,0.228,2.376c0,1.179-0.122,2.131-0.365,2.856s-0.606,1.285-1.09,1.68c-0.484,0.396-1.096,0.593-1.834,0.593
				c-0.973,0-1.735-0.347-2.291-1.042C359.328,70.832,358.996,69.47,358.996,67.582z M360.268,67.582
				c0,1.65,0.193,2.749,0.581,3.295s0.866,0.82,1.435,0.82c0.569,0,1.047-0.274,1.435-0.823c0.388-0.548,0.581-1.646,0.581-3.292
				c0-1.655-0.193-2.754-0.581-3.299c-0.388-0.544-0.87-0.816-1.448-0.816c-0.568,0-1.022,0.24-1.362,0.72
				C360.481,64.799,360.268,65.931,360.268,67.582z"/>
			<path d="M367.385,72.54v-1.406h1.411v1.406H367.385z"/>
			<path d="M370.662,69.906l1.3-0.11c0.097,0.631,0.32,1.105,0.671,1.423c0.351,0.318,0.774,0.477,1.27,0.477
				c0.596,0,1.101-0.224,1.514-0.672c0.412-0.448,0.619-1.042,0.619-1.783c0-0.704-0.198-1.259-0.596-1.666
				c-0.396-0.407-0.916-0.61-1.558-0.61c-0.399,0-0.76,0.09-1.08,0.271c-0.321,0.181-0.573,0.415-0.757,0.703l-1.163-0.151
				l0.978-5.164h5.015v1.18h-4.024l-0.543,2.702c0.604-0.421,1.24-0.631,1.905-0.631c0.881,0,1.624,0.304,2.229,0.912
				c0.605,0.608,0.908,1.39,0.908,2.346c0,0.91-0.266,1.696-0.798,2.359c-0.646,0.814-1.529,1.221-2.648,1.221
				c-0.917,0-1.666-0.256-2.246-0.768C371.076,71.431,370.744,70.752,370.662,69.906z"/>
		</g>
	</g>
	<g clip-path="url(#SVGID_2_)">
		<defs>
			<rect id="SVGID_9_" x="188.454" y="117.12" width="201.916" height="43.735"/>
		</defs>
		<clipPath id="SVGID_10_">
			<use xlink:href="#SVGID_9_"  overflow="visible"/>
		</clipPath>
		<g clip-path="url(#SVGID_10_)">
			<path d="M189.608,130.093V120.04h6.804v1.187h-5.47v3.113h4.733v1.187h-4.733v4.567H189.608z"/>
			<path d="M197.918,130.093v-7.283h1.114v1.104c0.285-0.517,0.547-0.857,0.788-1.022s0.505-0.247,0.794-0.247
				c0.417,0,0.842,0.133,1.273,0.398l-0.427,1.146c-0.303-0.179-0.605-0.268-0.908-0.268c-0.271,0-0.514,0.081-0.729,0.243
				c-0.216,0.163-0.369,0.388-0.461,0.676c-0.138,0.439-0.207,0.919-0.207,1.44v3.813H197.918z"/>
			<path d="M207.391,129.195c-0.458,0.389-0.9,0.663-1.324,0.823c-0.424,0.16-0.879,0.24-1.366,0.24
				c-0.803,0-1.419-0.195-1.851-0.586c-0.431-0.391-0.646-0.89-0.646-1.499c0-0.356,0.081-0.682,0.244-0.977
				c0.163-0.295,0.376-0.531,0.64-0.71c0.264-0.178,0.561-0.313,0.891-0.404c0.243-0.064,0.61-0.126,1.101-0.185
				c1-0.119,1.736-0.261,2.208-0.425c0.004-0.169,0.007-0.277,0.007-0.322c0-0.503-0.117-0.857-0.351-1.063
				c-0.316-0.279-0.787-0.418-1.41-0.418c-0.583,0-1.013,0.102-1.29,0.305c-0.277,0.204-0.482,0.563-0.616,1.08l-1.211-0.165
				c0.11-0.517,0.292-0.934,0.543-1.251c0.252-0.318,0.617-0.563,1.094-0.734s1.029-0.257,1.658-0.257
				c0.624,0,1.131,0.073,1.521,0.22s0.677,0.33,0.86,0.552c0.184,0.222,0.312,0.502,0.385,0.84c0.042,0.21,0.062,0.59,0.062,1.138
				v1.646c0,1.147,0.026,1.874,0.079,2.177c0.053,0.304,0.157,0.596,0.313,0.875h-1.293
				C207.51,129.837,207.428,129.538,207.391,129.195z M207.288,126.438c-0.45,0.183-1.124,0.338-2.022,0.466
				c-0.509,0.073-0.87,0.156-1.081,0.247s-0.374,0.225-0.488,0.401c-0.115,0.176-0.172,0.372-0.172,0.586
				c0,0.329,0.125,0.604,0.375,0.823c0.25,0.219,0.616,0.329,1.097,0.329c0.477,0,0.901-0.104,1.273-0.312
				c0.371-0.208,0.644-0.493,0.818-0.854c0.133-0.279,0.2-0.69,0.2-1.234V126.438z"/>
			<path d="M215.227,127.426l1.218,0.158c-0.133,0.836-0.474,1.491-1.021,1.964c-0.548,0.474-1.221,0.71-2.02,0.71
				c-1,0-1.803-0.326-2.411-0.977c-0.608-0.652-0.912-1.585-0.912-2.802c0-0.786,0.131-1.474,0.392-2.064
				c0.262-0.59,0.659-1.032,1.194-1.327c0.534-0.295,1.116-0.442,1.744-0.442c0.793,0,1.442,0.2,1.947,0.6
				c0.504,0.4,0.828,0.968,0.97,1.704l-1.204,0.186c-0.115-0.489-0.318-0.857-0.609-1.104c-0.292-0.247-0.643-0.37-1.056-0.37
				c-0.624,0-1.13,0.223-1.521,0.668c-0.39,0.446-0.584,1.151-0.584,2.116c0,0.979,0.188,1.689,0.564,2.133s0.867,0.665,1.472,0.665
				c0.486,0,0.892-0.148,1.218-0.445C214.934,128.5,215.14,128.043,215.227,127.426z"/>
			<path d="M220.208,128.989l0.179,1.09c-0.349,0.073-0.661,0.11-0.936,0.11c-0.449,0-0.798-0.071-1.045-0.213
				s-0.422-0.328-0.523-0.559s-0.151-0.717-0.151-1.458v-4.19h-0.908v-0.96h0.908v-1.804l1.231-0.741v2.544h1.245v0.96h-1.245v4.259
				c0,0.352,0.022,0.578,0.065,0.679s0.115,0.181,0.213,0.24c0.099,0.059,0.239,0.089,0.423,0.089
				C219.802,129.037,219.983,129.021,220.208,128.989z"/>
			<path d="M221.496,121.459v-1.42h1.238v1.42H221.496z M221.496,130.093v-7.283h1.238v7.283H221.496z"/>
			<path d="M224.159,126.452c0-1.349,0.376-2.348,1.128-2.997c0.628-0.54,1.394-0.81,2.298-0.81c1.004,0,1.825,0.328,2.463,0.984
				c0.637,0.656,0.956,1.563,0.956,2.719c0,0.937-0.141,1.674-0.423,2.211c-0.282,0.537-0.693,0.955-1.231,1.251
				c-0.539,0.297-1.127,0.446-1.765,0.446c-1.023,0-1.85-0.327-2.48-0.98C224.474,128.624,224.159,127.682,224.159,126.452z
				 M225.432,126.452c0,0.933,0.204,1.631,0.612,2.095s0.922,0.696,1.541,0.696c0.614,0,1.126-0.233,1.534-0.699
				s0.612-1.177,0.612-2.133c0-0.9-0.206-1.583-0.616-2.047c-0.411-0.464-0.921-0.696-1.531-0.696c-0.619,0-1.133,0.231-1.541,0.693
				C225.636,124.822,225.432,125.519,225.432,126.452z"/>
			<path d="M232.329,130.093v-7.283h1.115v1.035c0.537-0.8,1.311-1.2,2.325-1.2c0.44,0,0.846,0.079,1.215,0.237
				s0.646,0.365,0.829,0.621c0.184,0.256,0.312,0.56,0.385,0.912c0.046,0.229,0.069,0.628,0.069,1.2v4.478h-1.238v-4.43
				c0-0.503-0.049-0.879-0.145-1.128c-0.097-0.249-0.268-0.448-0.513-0.597s-0.533-0.223-0.863-0.223
				c-0.527,0-0.983,0.167-1.366,0.501c-0.383,0.333-0.574,0.967-0.574,1.899v3.978H232.329z"/>
			<path d="M243.646,126.452c0-1.349,0.376-2.348,1.128-2.997c0.629-0.54,1.395-0.81,2.298-0.81c1.005,0,1.826,0.328,2.463,0.984
				c0.638,0.656,0.957,1.563,0.957,2.719c0,0.937-0.142,1.674-0.424,2.211c-0.281,0.537-0.692,0.955-1.231,1.251
				c-0.539,0.297-1.127,0.446-1.765,0.446c-1.022,0-1.85-0.327-2.479-0.98C243.961,128.624,243.646,127.682,243.646,126.452z
				 M244.918,126.452c0,0.933,0.204,1.631,0.612,2.095s0.922,0.696,1.541,0.696c0.615,0,1.126-0.233,1.534-0.699
				s0.612-1.177,0.612-2.133c0-0.9-0.205-1.583-0.615-2.047c-0.411-0.464-0.921-0.696-1.531-0.696c-0.619,0-1.133,0.231-1.541,0.693
				C245.123,124.822,244.918,125.519,244.918,126.452z"/>
			<path d="M252.098,130.093v-6.323h-1.094v-0.96h1.094v-0.775c0-0.489,0.044-0.853,0.131-1.09c0.119-0.32,0.329-0.579,0.629-0.778
				c0.301-0.199,0.722-0.298,1.263-0.298c0.349,0,0.734,0.042,1.156,0.124l-0.187,1.077c-0.257-0.045-0.499-0.068-0.729-0.068
				c-0.376,0-0.643,0.08-0.798,0.24c-0.156,0.16-0.234,0.459-0.234,0.898v0.672h1.424v0.96h-1.424v6.323H252.098z"/>
			<path d="M259.098,130.093v-1.234l5.167-6.439c0.366-0.457,0.715-0.855,1.045-1.193h-5.627v-1.187h7.224v1.187l-5.662,6.975
				l-0.612,0.706h6.439v1.187H259.098z"/>
			<path d="M267.833,126.452c0-1.349,0.376-2.348,1.128-2.997c0.629-0.54,1.395-0.81,2.298-0.81c1.005,0,1.826,0.328,2.463,0.984
				c0.638,0.656,0.957,1.563,0.957,2.719c0,0.937-0.142,1.674-0.424,2.211c-0.281,0.537-0.692,0.955-1.231,1.251
				c-0.539,0.297-1.127,0.446-1.765,0.446c-1.022,0-1.85-0.327-2.479-0.98C268.149,128.624,267.833,127.682,267.833,126.452z
				 M269.106,126.452c0,0.933,0.204,1.631,0.612,2.095s0.922,0.696,1.541,0.696c0.615,0,1.126-0.233,1.534-0.699
				s0.612-1.177,0.612-2.133c0-0.9-0.205-1.583-0.615-2.047c-0.411-0.464-0.921-0.696-1.531-0.696c-0.619,0-1.133,0.231-1.541,0.693
				C269.31,124.822,269.106,125.519,269.106,126.452z"/>
			<path d="M276.13,130.093v-7.283h1.114v1.035c0.537-0.8,1.312-1.2,2.325-1.2c0.44,0,0.846,0.079,1.215,0.237
				s0.646,0.365,0.829,0.621c0.184,0.256,0.312,0.56,0.385,0.912c0.046,0.229,0.069,0.628,0.069,1.2v4.478h-1.238v-4.43
				c0-0.503-0.049-0.879-0.145-1.128c-0.097-0.249-0.268-0.448-0.513-0.597s-0.533-0.223-0.863-0.223
				c-0.527,0-0.983,0.167-1.366,0.501c-0.383,0.333-0.574,0.967-0.574,1.899v3.978H276.13z"/>
			<path d="M288.968,127.748l1.279,0.158c-0.202,0.745-0.575,1.323-1.121,1.735s-1.243,0.617-2.092,0.617
				c-1.068,0-1.916-0.328-2.542-0.984c-0.626-0.656-0.939-1.576-0.939-2.76c0-1.226,0.316-2.176,0.95-2.853
				c0.633-0.677,1.453-1.015,2.463-1.015c0.977,0,1.774,0.332,2.394,0.995s0.929,1.596,0.929,2.798c0,0.073-0.002,0.183-0.007,0.329
				h-5.448c0.046,0.8,0.272,1.413,0.681,1.838c0.408,0.425,0.917,0.638,1.527,0.638c0.454,0,0.842-0.119,1.163-0.356
				C288.525,128.648,288.78,128.269,288.968,127.748z M284.902,125.752h4.08c-0.056-0.613-0.211-1.072-0.468-1.378
				c-0.395-0.476-0.906-0.713-1.534-0.713c-0.569,0-1.047,0.19-1.435,0.569S284.943,125.117,284.902,125.752z"/>
			<path d="M302.958,126.568l1.335,0.336c-0.28,1.093-0.783,1.926-1.511,2.5c-0.727,0.574-1.615,0.86-2.666,0.86
				c-1.087,0-1.971-0.221-2.651-0.662c-0.682-0.441-1.2-1.08-1.555-1.917c-0.355-0.836-0.533-1.735-0.533-2.695
				c0-1.047,0.2-1.96,0.602-2.74s0.973-1.372,1.713-1.776c0.741-0.404,1.556-0.607,2.446-0.607c1.009,0,1.857,0.256,2.545,0.768
				c0.688,0.512,1.167,1.232,1.438,2.16l-1.314,0.309c-0.234-0.731-0.573-1.264-1.019-1.598c-0.444-0.333-1.004-0.5-1.679-0.5
				c-0.774,0-1.423,0.185-1.943,0.555c-0.521,0.371-0.886,0.868-1.097,1.492s-0.316,1.268-0.316,1.931
				c0,0.855,0.124,1.601,0.374,2.239s0.639,1.115,1.167,1.43c0.527,0.315,1.098,0.473,1.713,0.473c0.747,0,1.38-0.215,1.898-0.645
				C302.424,128.052,302.775,127.414,302.958,126.568z"/>
			<path d="M305.234,126.452c0-1.349,0.376-2.348,1.128-2.997c0.629-0.54,1.395-0.81,2.298-0.81c1.005,0,1.826,0.328,2.463,0.984
				c0.638,0.656,0.957,1.563,0.957,2.719c0,0.937-0.142,1.674-0.424,2.211c-0.281,0.537-0.692,0.955-1.231,1.251
				c-0.539,0.297-1.127,0.446-1.765,0.446c-1.022,0-1.85-0.327-2.479-0.98C305.549,128.624,305.234,127.682,305.234,126.452z
				 M306.506,126.452c0,0.933,0.204,1.631,0.612,2.095s0.922,0.696,1.541,0.696c0.615,0,1.126-0.233,1.534-0.699
				s0.612-1.177,0.612-2.133c0-0.9-0.205-1.583-0.615-2.047c-0.411-0.464-0.921-0.696-1.531-0.696c-0.619,0-1.133,0.231-1.541,0.693
				C306.71,124.822,306.506,125.519,306.506,126.452z"/>
			<path d="M313.531,130.093v-7.283h1.114v1.035c0.537-0.8,1.312-1.2,2.325-1.2c0.44,0,0.846,0.079,1.215,0.237
				s0.646,0.365,0.829,0.621c0.184,0.256,0.312,0.56,0.385,0.912c0.046,0.229,0.069,0.628,0.069,1.2v4.478h-1.238v-4.43
				c0-0.503-0.049-0.879-0.145-1.128c-0.097-0.249-0.268-0.448-0.513-0.597s-0.533-0.223-0.863-0.223
				c-0.527,0-0.983,0.167-1.366,0.501c-0.383,0.333-0.574,0.967-0.574,1.899v3.978H313.531z"/>
			<path d="M323.916,128.989l0.179,1.09c-0.349,0.073-0.66,0.11-0.936,0.11c-0.45,0-0.798-0.071-1.046-0.213
				s-0.422-0.328-0.522-0.559c-0.102-0.231-0.151-0.717-0.151-1.458v-4.19h-0.908v-0.96h0.908v-1.804l1.231-0.741v2.544h1.245v0.96
				h-1.245v4.259c0,0.352,0.021,0.578,0.064,0.679c0.044,0.101,0.115,0.181,0.214,0.24c0.099,0.059,0.239,0.089,0.423,0.089
				C323.509,129.037,323.691,129.021,323.916,128.989z"/>
			<path d="M325.169,130.093v-7.283h1.114v1.104c0.284-0.517,0.547-0.857,0.788-1.022c0.24-0.165,0.506-0.247,0.795-0.247
				c0.417,0,0.841,0.133,1.272,0.398l-0.427,1.146c-0.303-0.179-0.605-0.268-0.908-0.268c-0.271,0-0.514,0.081-0.729,0.243
				c-0.215,0.163-0.369,0.388-0.461,0.676c-0.138,0.439-0.206,0.919-0.206,1.44v3.813H325.169z"/>
			<path d="M329.414,126.452c0-1.349,0.376-2.348,1.128-2.997c0.629-0.54,1.395-0.81,2.298-0.81c1.005,0,1.826,0.328,2.463,0.984
				c0.638,0.656,0.957,1.563,0.957,2.719c0,0.937-0.142,1.674-0.424,2.211c-0.281,0.537-0.692,0.955-1.231,1.251
				c-0.539,0.297-1.127,0.446-1.765,0.446c-1.022,0-1.85-0.327-2.479-0.98C329.729,128.624,329.414,127.682,329.414,126.452z
				 M330.686,126.452c0,0.933,0.204,1.631,0.612,2.095s0.922,0.696,1.541,0.696c0.615,0,1.126-0.233,1.534-0.699
				s0.612-1.177,0.612-2.133c0-0.9-0.205-1.583-0.615-2.047c-0.411-0.464-0.921-0.696-1.531-0.696c-0.619,0-1.133,0.231-1.541,0.693
				C330.89,124.822,330.686,125.519,330.686,126.452z"/>
			<path d="M337.683,130.093V120.04h1.238v10.054H337.683z"/>
			<path d="M340.814,130.093V120.04h1.238v10.054H340.814z"/>
			<path d="M348.973,127.748l1.279,0.158c-0.202,0.745-0.575,1.323-1.121,1.735s-1.243,0.617-2.092,0.617
				c-1.068,0-1.916-0.328-2.542-0.984c-0.626-0.656-0.939-1.576-0.939-2.76c0-1.226,0.316-2.176,0.95-2.853
				c0.633-0.677,1.453-1.015,2.463-1.015c0.977,0,1.774,0.332,2.394,0.995s0.929,1.596,0.929,2.798c0,0.073-0.002,0.183-0.007,0.329
				h-5.448c0.046,0.8,0.272,1.413,0.681,1.838c0.408,0.425,0.917,0.638,1.527,0.638c0.454,0,0.842-0.119,1.163-0.356
				C348.53,128.648,348.785,128.269,348.973,127.748z M344.907,125.752h4.08c-0.056-0.613-0.211-1.072-0.468-1.378
				c-0.395-0.476-0.906-0.713-1.534-0.713c-0.569,0-1.047,0.19-1.435,0.569S344.948,125.117,344.907,125.752z"/>
			<path d="M356.547,130.093v-0.919c-0.463,0.723-1.145,1.083-2.043,1.083c-0.583,0-1.118-0.16-1.606-0.48
				c-0.489-0.32-0.867-0.767-1.136-1.341c-0.268-0.574-0.402-1.233-0.402-1.979c0-0.727,0.122-1.386,0.365-1.979
				c0.242-0.592,0.607-1.045,1.094-1.361c0.485-0.316,1.029-0.474,1.63-0.474c0.44,0,0.833,0.093,1.177,0.278
				s0.624,0.426,0.839,0.724v-3.607h1.231v10.054H356.547z M352.632,126.458c0,0.933,0.197,1.63,0.592,2.092s0.86,0.692,1.396,0.692
				c0.542,0,1.001-0.22,1.38-0.662c0.378-0.441,0.567-1.114,0.567-2.02c0-0.997-0.192-1.728-0.578-2.194
				c-0.385-0.466-0.859-0.7-1.424-0.7c-0.551,0-1.01,0.224-1.379,0.672C352.817,124.788,352.632,125.494,352.632,126.458z"/>
			<path d="M364.586,130.093h-1.148V120.04h1.238v3.587c0.522-0.654,1.19-0.981,2.002-0.981c0.449,0,0.875,0.09,1.276,0.271
				s0.731,0.435,0.99,0.761c0.26,0.327,0.462,0.721,0.609,1.183c0.146,0.462,0.22,0.956,0.22,1.481c0,1.248-0.31,2.212-0.929,2.894
				c-0.619,0.682-1.362,1.022-2.229,1.022c-0.862,0-1.539-0.359-2.03-1.077V130.093z M364.573,126.397
				c0,0.873,0.119,1.504,0.358,1.893c0.39,0.636,0.917,0.953,1.582,0.953c0.541,0,1.009-0.234,1.403-0.703s0.592-1.167,0.592-2.095
				c0-0.951-0.189-1.653-0.567-2.105c-0.379-0.452-0.836-0.679-1.373-0.679c-0.541,0-1.009,0.234-1.403,0.703
				S364.573,125.51,364.573,126.397z"/>
			<path d="M371.226,132.898l-0.138-1.159c0.271,0.073,0.507,0.109,0.708,0.109c0.275,0,0.496-0.045,0.661-0.137
				c0.165-0.092,0.3-0.22,0.405-0.384c0.078-0.124,0.204-0.43,0.379-0.919c0.022-0.068,0.06-0.169,0.11-0.302l-2.773-7.296h1.335
				l1.521,4.217c0.197,0.535,0.374,1.097,0.53,1.687c0.142-0.567,0.312-1.12,0.509-1.66l1.562-4.245h1.238l-2.779,7.406
				c-0.298,0.8-0.529,1.351-0.695,1.653c-0.22,0.407-0.472,0.705-0.756,0.895c-0.285,0.19-0.624,0.285-1.019,0.285
				C371.786,133.049,371.519,132.999,371.226,132.898z"/>
		</g>
		<g clip-path="url(#SVGID_10_)">
			<path d="M189.608,146.196v-10.054h6.804v1.187h-5.47v3.113h4.733v1.187h-4.733v4.567H189.608z"/>
			<path d="M197.938,137.562v-1.42h1.238v1.42H197.938z M197.938,146.196v-7.283h1.238v7.283H197.938z"/>
			<path d="M201.048,146.196v-7.283h1.114v1.104c0.285-0.517,0.547-0.857,0.788-1.022s0.505-0.247,0.794-0.247
				c0.417,0,0.842,0.133,1.273,0.398l-0.427,1.146c-0.303-0.179-0.605-0.268-0.908-0.268c-0.271,0-0.514,0.081-0.729,0.243
				c-0.216,0.163-0.369,0.388-0.461,0.676c-0.138,0.439-0.207,0.919-0.207,1.44v3.813H201.048z"/>
			<path d="M205.259,144.022l1.225-0.192c0.069,0.489,0.26,0.864,0.574,1.125s0.753,0.391,1.317,0.391
				c0.569,0,0.991-0.115,1.266-0.346c0.275-0.23,0.413-0.501,0.413-0.813c0-0.279-0.122-0.499-0.365-0.658
				c-0.169-0.11-0.591-0.25-1.266-0.418c-0.908-0.229-1.538-0.426-1.889-0.593c-0.351-0.167-0.617-0.398-0.798-0.693
				c-0.181-0.294-0.272-0.621-0.272-0.977c0-0.325,0.075-0.625,0.224-0.902c0.149-0.276,0.352-0.506,0.609-0.689
				c0.193-0.142,0.455-0.262,0.788-0.36c0.333-0.098,0.689-0.147,1.07-0.147c0.573,0,1.077,0.083,1.51,0.247s0.753,0.388,0.96,0.668
				c0.206,0.281,0.348,0.658,0.426,1.128l-1.211,0.165c-0.055-0.375-0.214-0.667-0.478-0.878c-0.264-0.21-0.636-0.315-1.118-0.315
				c-0.569,0-0.975,0.094-1.218,0.281c-0.243,0.188-0.365,0.407-0.365,0.658c0,0.16,0.05,0.304,0.151,0.432
				c0.101,0.133,0.259,0.242,0.475,0.329c0.124,0.046,0.488,0.151,1.094,0.315c0.876,0.233,1.487,0.424,1.833,0.573
				s0.618,0.365,0.815,0.648c0.197,0.284,0.296,0.636,0.296,1.056c0,0.412-0.121,0.799-0.361,1.163
				c-0.241,0.363-0.588,0.645-1.042,0.843c-0.454,0.199-0.968,0.298-1.541,0.298c-0.949,0-1.673-0.196-2.17-0.59
				C205.714,145.377,205.396,144.794,205.259,144.022z"/>
			<path d="M215.53,145.092l0.179,1.09c-0.349,0.073-0.661,0.11-0.936,0.11c-0.449,0-0.798-0.071-1.045-0.213
				s-0.422-0.328-0.523-0.559s-0.151-0.717-0.151-1.458v-4.19h-0.908v-0.96h0.908v-1.804l1.231-0.741v2.544h1.245v0.96h-1.245v4.259
				c0,0.352,0.022,0.578,0.065,0.679s0.115,0.181,0.213,0.24c0.099,0.059,0.239,0.089,0.423,0.089
				C215.125,145.14,215.306,145.124,215.53,145.092z"/>
			<path d="M220.849,146.196v-10.054h4.472c0.899,0,1.582,0.09,2.05,0.271c0.468,0.181,0.842,0.5,1.122,0.957
				c0.28,0.458,0.42,0.963,0.42,1.516c0,0.713-0.232,1.314-0.695,1.804c-0.463,0.489-1.179,0.8-2.146,0.933
				c0.354,0.169,0.622,0.336,0.805,0.5c0.39,0.357,0.759,0.803,1.107,1.337l1.754,2.736h-1.679l-1.334-2.092
				c-0.39-0.604-0.711-1.065-0.963-1.385c-0.252-0.32-0.478-0.544-0.677-0.672c-0.2-0.128-0.403-0.217-0.609-0.268
				c-0.151-0.032-0.399-0.048-0.743-0.048h-1.548v4.464H220.849z M222.184,140.579h2.869c0.61,0,1.087-0.063,1.431-0.188
				c0.344-0.125,0.605-0.327,0.784-0.604c0.179-0.276,0.269-0.577,0.269-0.902c0-0.475-0.173-0.866-0.52-1.172
				c-0.347-0.306-0.894-0.459-1.641-0.459h-3.192V140.579z"/>
			<path d="M235.762,143.851l1.279,0.158c-0.202,0.745-0.575,1.323-1.121,1.735s-1.243,0.617-2.092,0.617
				c-1.069,0-1.916-0.328-2.542-0.984c-0.626-0.656-0.939-1.576-0.939-2.76c0-1.226,0.316-2.176,0.949-2.853
				s1.454-1.015,2.463-1.015c0.977,0,1.775,0.332,2.394,0.995s0.929,1.596,0.929,2.798c0,0.073-0.002,0.183-0.007,0.329h-5.449
				c0.046,0.8,0.273,1.413,0.681,1.838c0.408,0.425,0.917,0.638,1.527,0.638c0.454,0,0.842-0.119,1.163-0.356
				C235.319,144.751,235.574,144.372,235.762,143.851z M231.696,141.855h4.08c-0.056-0.613-0.211-1.072-0.468-1.378
				c-0.395-0.476-0.906-0.713-1.535-0.713c-0.568,0-1.047,0.19-1.434,0.569C231.952,140.712,231.737,141.219,231.696,141.855z"/>
			<path d="M238.892,146.196v-6.323h-1.094v-0.96h1.094v-0.775c0-0.489,0.044-0.853,0.131-1.09c0.119-0.32,0.329-0.579,0.629-0.778
				c0.301-0.199,0.722-0.298,1.263-0.298c0.349,0,0.734,0.042,1.156,0.124l-0.187,1.077c-0.257-0.045-0.499-0.068-0.729-0.068
				c-0.376,0-0.643,0.08-0.798,0.24c-0.156,0.16-0.234,0.459-0.234,0.898v0.672h1.424v0.96h-1.424v6.323H238.892z"/>
			<path d="M247.542,143.851l1.279,0.158c-0.202,0.745-0.575,1.323-1.121,1.735s-1.243,0.617-2.092,0.617
				c-1.068,0-1.916-0.328-2.542-0.984c-0.626-0.656-0.939-1.576-0.939-2.76c0-1.226,0.316-2.176,0.95-2.853
				c0.633-0.677,1.453-1.015,2.463-1.015c0.977,0,1.774,0.332,2.394,0.995s0.929,1.596,0.929,2.798c0,0.073-0.002,0.183-0.007,0.329
				h-5.448c0.046,0.8,0.272,1.413,0.681,1.838c0.408,0.425,0.917,0.638,1.527,0.638c0.454,0,0.842-0.119,1.163-0.356
				C247.098,144.751,247.353,144.372,247.542,143.851z M243.475,141.855h4.08c-0.056-0.613-0.211-1.072-0.468-1.378
				c-0.395-0.476-0.906-0.713-1.534-0.713c-0.569,0-1.047,0.19-1.435,0.569S243.516,141.219,243.475,141.855z"/>
			<path d="M250.362,146.196v-7.283h1.114v1.104c0.284-0.517,0.547-0.857,0.788-1.022c0.24-0.165,0.506-0.247,0.795-0.247
				c0.417,0,0.841,0.133,1.272,0.398l-0.427,1.146c-0.303-0.179-0.605-0.268-0.908-0.268c-0.271,0-0.514,0.081-0.729,0.243
				c-0.215,0.163-0.369,0.388-0.461,0.676c-0.138,0.439-0.206,0.919-0.206,1.44v3.813H250.362z"/>
			<path d="M259.914,143.851l1.279,0.158c-0.202,0.745-0.575,1.323-1.121,1.735s-1.243,0.617-2.092,0.617
				c-1.068,0-1.916-0.328-2.542-0.984c-0.626-0.656-0.939-1.576-0.939-2.76c0-1.226,0.316-2.176,0.95-2.853
				c0.633-0.677,1.453-1.015,2.463-1.015c0.977,0,1.774,0.332,2.394,0.995s0.929,1.596,0.929,2.798c0,0.073-0.002,0.183-0.007,0.329
				h-5.448c0.046,0.8,0.272,1.413,0.681,1.838c0.408,0.425,0.917,0.638,1.527,0.638c0.454,0,0.842-0.119,1.163-0.356
				C259.47,144.751,259.725,144.372,259.914,143.851z M255.847,141.855h4.08c-0.056-0.613-0.211-1.072-0.468-1.378
				c-0.395-0.476-0.906-0.713-1.534-0.713c-0.569,0-1.047,0.19-1.435,0.569S255.888,141.219,255.847,141.855z"/>
			<path d="M262.749,146.196v-7.283h1.114v1.035c0.537-0.8,1.312-1.2,2.325-1.2c0.44,0,0.846,0.079,1.215,0.237
				s0.646,0.365,0.829,0.621c0.184,0.256,0.312,0.56,0.385,0.912c0.046,0.229,0.069,0.628,0.069,1.2v4.478h-1.238v-4.43
				c0-0.503-0.049-0.879-0.145-1.128c-0.097-0.249-0.268-0.448-0.513-0.597s-0.533-0.223-0.863-0.223
				c-0.527,0-0.983,0.167-1.366,0.501c-0.383,0.333-0.574,0.967-0.574,1.899v3.978H262.749z"/>
			<path d="M275.352,143.528l1.218,0.158c-0.133,0.836-0.474,1.491-1.021,1.964c-0.548,0.474-1.222,0.71-2.02,0.71
				c-1,0-1.804-0.326-2.411-0.977c-0.607-0.652-0.911-1.585-0.911-2.802c0-0.786,0.13-1.474,0.392-2.064s0.659-1.032,1.193-1.327
				s1.116-0.442,1.744-0.442c0.794,0,1.442,0.2,1.947,0.6c0.505,0.4,0.828,0.968,0.97,1.704l-1.204,0.186
				c-0.114-0.489-0.317-0.857-0.608-1.104c-0.291-0.247-0.644-0.37-1.056-0.37c-0.624,0-1.131,0.223-1.521,0.668
				c-0.391,0.446-0.585,1.151-0.585,2.116c0,0.979,0.188,1.689,0.564,2.133c0.376,0.443,0.866,0.665,1.472,0.665
				c0.486,0,0.893-0.148,1.218-0.445C275.058,144.603,275.265,144.146,275.352,143.528z"/>
			<path d="M282.63,143.851l1.279,0.158c-0.202,0.745-0.575,1.323-1.121,1.735s-1.243,0.617-2.092,0.617
				c-1.068,0-1.916-0.328-2.542-0.984c-0.626-0.656-0.939-1.576-0.939-2.76c0-1.226,0.316-2.176,0.95-2.853
				c0.633-0.677,1.453-1.015,2.463-1.015c0.977,0,1.774,0.332,2.394,0.995s0.929,1.596,0.929,2.798c0,0.073-0.002,0.183-0.007,0.329
				h-5.448c0.046,0.8,0.272,1.413,0.681,1.838c0.408,0.425,0.917,0.638,1.527,0.638c0.454,0,0.842-0.119,1.163-0.356
				C282.187,144.751,282.442,144.372,282.63,143.851z M278.564,141.855h4.08c-0.056-0.613-0.211-1.072-0.468-1.378
				c-0.395-0.476-0.906-0.713-1.534-0.713c-0.569,0-1.047,0.19-1.435,0.569S278.605,141.219,278.564,141.855z"/>
			<path d="M289.467,146.196v-10.054h3.805c0.67,0,1.181,0.032,1.534,0.096c0.495,0.083,0.91,0.239,1.245,0.47
				s0.604,0.555,0.809,0.97c0.204,0.417,0.306,0.874,0.306,1.372c0,0.855-0.272,1.579-0.818,2.171
				c-0.546,0.592-1.532,0.888-2.958,0.888h-2.587v4.087H289.467z M290.802,140.922h2.607c0.862,0,1.475-0.16,1.837-0.48
				c0.362-0.32,0.543-0.77,0.543-1.351c0-0.421-0.106-0.781-0.319-1.08c-0.214-0.3-0.494-0.498-0.843-0.593
				c-0.225-0.06-0.64-0.089-1.245-0.089h-2.58V140.922z"/>
			<path d="M298.246,142.554c0-1.349,0.376-2.348,1.128-2.997c0.629-0.54,1.395-0.81,2.298-0.81c1.005,0,1.826,0.328,2.463,0.984
				c0.638,0.656,0.957,1.563,0.957,2.719c0,0.937-0.142,1.674-0.424,2.211c-0.281,0.537-0.692,0.955-1.231,1.251
				c-0.539,0.297-1.127,0.446-1.765,0.446c-1.022,0-1.85-0.327-2.479-0.98C298.561,144.726,298.246,143.784,298.246,142.554z
				 M299.518,142.554c0,0.933,0.204,1.631,0.612,2.095s0.922,0.696,1.541,0.696c0.615,0,1.126-0.233,1.534-0.699
				s0.612-1.177,0.612-2.133c0-0.9-0.205-1.583-0.615-2.047c-0.411-0.464-0.921-0.696-1.531-0.696c-0.619,0-1.133,0.231-1.541,0.693
				C299.722,140.924,299.518,141.622,299.518,142.554z"/>
			<path d="M306.549,137.562v-1.42h1.238v1.42H306.549z M306.549,146.196v-7.283h1.238v7.283H306.549z"/>
			<path d="M309.673,146.196v-7.283h1.114v1.035c0.537-0.8,1.312-1.2,2.325-1.2c0.44,0,0.846,0.079,1.215,0.237
				s0.646,0.365,0.829,0.621c0.184,0.256,0.312,0.56,0.385,0.912c0.046,0.229,0.069,0.628,0.069,1.2v4.478h-1.238v-4.43
				c0-0.503-0.049-0.879-0.145-1.128c-0.097-0.249-0.268-0.448-0.513-0.597s-0.533-0.223-0.863-0.223
				c-0.527,0-0.983,0.167-1.366,0.501c-0.383,0.333-0.574,0.967-0.574,1.899v3.978H309.673z"/>
			<path d="M320.058,145.092l0.179,1.09c-0.349,0.073-0.66,0.11-0.936,0.11c-0.45,0-0.798-0.071-1.046-0.213
				s-0.422-0.328-0.522-0.559c-0.102-0.231-0.151-0.717-0.151-1.458v-4.19h-0.908v-0.96h0.908v-1.804l1.231-0.741v2.544h1.245v0.96
				h-1.245v4.259c0,0.352,0.021,0.578,0.064,0.679c0.044,0.101,0.115,0.181,0.214,0.24c0.099,0.059,0.239,0.089,0.423,0.089
				C319.652,145.14,319.833,145.124,320.058,145.092z"/>
			<path d="M331.712,140.284h-6.66v-1.152h6.66V140.284z M331.712,143.336h-6.66v-1.152h6.66V143.336z"/>
			<path d="M337.01,141.238c0-1.189,0.122-2.146,0.368-2.87c0.245-0.725,0.609-1.284,1.094-1.677c0.483-0.393,1.093-0.59,1.826-0.59
				c0.541,0,1.016,0.109,1.425,0.326c0.407,0.217,0.745,0.531,1.011,0.939c0.266,0.41,0.475,0.908,0.626,1.495
				s0.228,1.38,0.228,2.376c0,1.179-0.122,2.131-0.365,2.856s-0.606,1.285-1.09,1.68c-0.484,0.396-1.096,0.593-1.834,0.593
				c-0.973,0-1.735-0.347-2.291-1.042C337.342,144.488,337.01,143.126,337.01,141.238z M338.283,141.238
				c0,1.65,0.193,2.749,0.581,3.295s0.866,0.82,1.435,0.82c0.569,0,1.047-0.274,1.435-0.823c0.388-0.548,0.581-1.646,0.581-3.292
				c0-1.655-0.193-2.754-0.581-3.299c-0.388-0.544-0.87-0.816-1.448-0.816c-0.568,0-1.022,0.24-1.362,0.72
				C338.496,138.456,338.283,139.587,338.283,141.238z"/>
			<path d="M345.4,146.196v-1.406h1.411v1.406H345.4z"/>
			<path d="M348.676,143.563l1.3-0.11c0.097,0.631,0.32,1.105,0.671,1.423c0.351,0.318,0.774,0.477,1.27,0.477
				c0.596,0,1.101-0.224,1.514-0.672c0.412-0.448,0.619-1.042,0.619-1.783c0-0.704-0.198-1.259-0.596-1.666
				c-0.396-0.407-0.916-0.61-1.558-0.61c-0.399,0-0.76,0.09-1.08,0.271c-0.321,0.181-0.573,0.415-0.757,0.703l-1.163-0.151
				l0.978-5.164h5.015v1.18h-4.024l-0.543,2.702c0.604-0.421,1.24-0.631,1.905-0.631c0.881,0,1.624,0.304,2.229,0.912
				c0.605,0.608,0.908,1.39,0.908,2.346c0,0.91-0.266,1.696-0.798,2.359c-0.646,0.814-1.529,1.221-2.648,1.221
				c-0.917,0-1.666-0.256-2.246-0.768C349.09,145.087,348.758,144.408,348.676,143.563z"/>
		</g>
	</g>
</g>
<g>
</g>
<g>
</g>
</svg>
