<?xml version="1.0" encoding="utf-8"?>
<!-- Generator: Adobe Illustrator 16.0.0, SVG Export Plug-In . SVG Version: 6.00 Build 0)  -->
<!DOCTYPE svg PUBLIC "-//W3C//DTD SVG 1.1//EN" "http://www.w3.org/Graphics/SVG/1.1/DTD/svg11.dtd">
<svg version="1.1" id="Layer_1" xmlns="http://www.w3.org/2000/svg" xmlns:xlink="http://www.w3.org/1999/xlink" x="0px" y="0px"
	 width="517.836px" height="194.163px" viewBox="0 0 517.836 194.163" enable-background="new 0 0 517.836 194.163"
	 xml:space="preserve">
<g>
	<defs>
		<rect id="SVGID_1_" y="0" width="371.286" height="190.802"/>
	</defs>
	<clipPath id="SVGID_2_">
		<use xlink:href="#SVGID_1_"  overflow="visible"/>
	</clipPath>
	<g clip-path="url(#SVGID_2_)">
		<defs>
			<rect id="SVGID_3_" x="97.675" y="155.417" width="21.732" height="13.058"/>
		</defs>
		<clipPath id="SVGID_4_">
			<use xlink:href="#SVGID_3_"  overflow="visible"/>
		</clipPath>
		<g clip-path="url(#SVGID_4_)">
			<path d="M97.803,166.327v-1.563l4.512-5.565h-4.002v-1.451h6.288v1.346l-4.706,5.788h4.887v1.445H97.803z"/>
			<path d="M108.287,157.713c0.832,0,1.482,0.296,1.951,0.89c0.559,0.702,0.838,1.867,0.838,3.494c0,1.623-0.281,2.79-0.844,3.5
				c-0.465,0.585-1.113,0.878-1.945,0.878c-0.836,0-1.51-0.321-2.022-0.963c-0.512-0.642-0.768-1.786-0.768-3.432
				c0-1.615,0.281-2.778,0.844-3.488C106.806,158.005,107.454,157.713,108.287,157.713z M108.287,159.076
				c-0.2,0-0.377,0.063-0.534,0.19s-0.277,0.354-0.363,0.682c-0.113,0.425-0.17,1.141-0.17,2.148c0,1.006,0.051,1.698,0.152,2.074
				c0.102,0.377,0.229,0.627,0.384,0.752c0.154,0.125,0.331,0.187,0.531,0.187c0.199,0,0.377-0.063,0.533-0.19
				c0.156-0.127,0.277-0.354,0.363-0.682c0.113-0.421,0.17-1.135,0.17-2.142c0-1.007-0.051-1.698-0.152-2.075
				s-0.229-0.628-0.384-0.755C108.662,159.14,108.486,159.076,108.287,159.076z"/>
		</g>
	</g>
	
		<rect x="86.037" y="48.69" clip-path="url(#SVGID_2_)" fill="none" stroke="#000000" stroke-width="2.9923" stroke-linejoin="round" stroke-miterlimit="10" width="174.005" height="138.491"/>
	<rect x="119.41" y="48.565" clip-path="url(#SVGID_2_)" width="2.994" height="139.099"/>
	<polygon clip-path="url(#SVGID_2_)" points="121.436,94.497 121.436,97.49 260.648,97.611 260.648,94.618 	"/>
	<polygon clip-path="url(#SVGID_2_)" points="121.436,141.273 121.436,144.267 260.648,144.387 260.648,141.394 	"/>
	
		<rect x="119.041" y="54.697" clip-path="url(#SVGID_2_)" fill-rule="evenodd" clip-rule="evenodd" fill="#FFFFFF" width="2.994" height="36.567"/>
	
		<rect x="119.041" y="54.697" clip-path="url(#SVGID_2_)" fill="none" stroke="#000000" stroke-width="0.7239" stroke-linejoin="round" stroke-miterlimit="10" width="2.994" height="36.567"/>
	
		<rect x="119.041" y="100.241" clip-path="url(#SVGID_2_)" fill-rule="evenodd" clip-rule="evenodd" fill="#FFFFFF" width="2.994" height="36.592"/>
	
		<rect x="119.041" y="100.241" clip-path="url(#SVGID_2_)" fill="none" stroke="#000000" stroke-width="0.7239" stroke-linejoin="round" stroke-miterlimit="10" width="2.994" height="36.592"/>
	
		<rect x="119.041" y="145.811" clip-path="url(#SVGID_2_)" fill-rule="evenodd" clip-rule="evenodd" fill="#FFFFFF" width="2.994" height="36.591"/>
	
		<rect x="119.041" y="145.811" clip-path="url(#SVGID_2_)" fill="none" stroke="#000000" stroke-width="0.7239" stroke-linejoin="round" stroke-miterlimit="10" width="2.994" height="36.591"/>
	
		<rect x="84.249" y="53.49" clip-path="url(#SVGID_2_)" fill-rule="evenodd" clip-rule="evenodd" fill="#FFFFFF" width="3.477" height="61.162"/>
	
		<rect x="84.249" y="53.49" clip-path="url(#SVGID_2_)" fill="none" stroke="#000000" stroke-width="0.7239" stroke-linejoin="round" stroke-miterlimit="10" width="3.477" height="61.162"/>
	
		<rect x="84.249" y="120.637" clip-path="url(#SVGID_2_)" fill-rule="evenodd" clip-rule="evenodd" fill="#FFFFFF" width="3.477" height="61.162"/>
	
		<rect x="84.249" y="120.637" clip-path="url(#SVGID_2_)" fill="none" stroke="#000000" stroke-width="0.7239" stroke-linejoin="round" stroke-miterlimit="10" width="3.477" height="61.162"/>
	<path clip-path="url(#SVGID_2_)" fill-rule="evenodd" clip-rule="evenodd" d="M167.048,85.493c0,1.575,1.188,2.781,2.635,2.781
		c1.567,0,2.754-1.207,2.754-2.781c0-1.425-1.188-2.631-2.754-2.631C168.236,82.862,167.048,84.068,167.048,85.493z"/>
	
		<path clip-path="url(#SVGID_2_)" fill="none" stroke="#000000" stroke-width="0.7239" stroke-linejoin="round" stroke-miterlimit="10" d="
		M167.048,85.493c0,1.575,1.188,2.781,2.635,2.781c1.567,0,2.754-1.207,2.754-2.781c0-1.425-1.188-2.631-2.754-2.631
		C168.236,82.862,167.048,84.068,167.048,85.493z"/>
	<path clip-path="url(#SVGID_2_)" fill-rule="evenodd" clip-rule="evenodd" d="M167.048,132.271c0,1.569,1.188,2.752,2.635,2.752
		c1.567,0,2.754-1.183,2.754-2.752c0-1.448-1.188-2.63-2.754-2.63C168.236,129.64,167.048,130.822,167.048,132.271z"/>
	
		<path clip-path="url(#SVGID_2_)" fill="none" stroke="#000000" stroke-width="0.7239" stroke-linejoin="round" stroke-miterlimit="10" d="
		M167.048,132.271c0,1.569,1.188,2.752,2.635,2.752c1.567,0,2.754-1.183,2.754-2.752c0-1.448-1.188-2.63-2.754-2.63
		C168.236,129.64,167.048,130.822,167.048,132.271z"/>
	<path clip-path="url(#SVGID_2_)" fill-rule="evenodd" clip-rule="evenodd" d="M167.048,177.237c0,1.569,1.188,2.752,2.635,2.752
		c1.567,0,2.754-1.184,2.754-2.752c0-1.448-1.188-2.63-2.754-2.63C168.236,174.606,167.048,175.789,167.048,177.237z"/>
	
		<path clip-path="url(#SVGID_2_)" fill="none" stroke="#000000" stroke-width="0.7239" stroke-linejoin="round" stroke-miterlimit="10" d="
		M167.048,177.237c0,1.569,1.188,2.752,2.635,2.752c1.567,0,2.754-1.184,2.754-2.752c0-1.448-1.188-2.63-2.754-2.63
		C168.236,174.606,167.048,175.789,167.048,177.237z"/>
	<rect x="166.2" y="85.255" clip-path="url(#SVGID_2_)" width="3.839" height="0.965"/>
	<rect x="159.493" y="85.255" clip-path="url(#SVGID_2_)" width="3.839" height="0.965"/>
	<rect x="152.756" y="85.255" clip-path="url(#SVGID_2_)" width="3.839" height="0.965"/>
	<rect x="146.039" y="85.255" clip-path="url(#SVGID_2_)" width="3.839" height="0.965"/>
	<rect x="139.332" y="85.255" clip-path="url(#SVGID_2_)" width="3.839" height="0.965"/>
	<rect x="132.595" y="85.255" clip-path="url(#SVGID_2_)" width="3.839" height="0.965"/>
	<rect x="125.878" y="85.255" clip-path="url(#SVGID_2_)" width="3.839" height="0.965"/>
	<polygon clip-path="url(#SVGID_2_)" points="123.003,86.221 123.003,85.254 119.17,85.374 119.17,86.34 	"/>
	<rect x="112.454" y="85.375" clip-path="url(#SVGID_2_)" width="3.839" height="0.965"/>
	<rect x="105.716" y="85.375" clip-path="url(#SVGID_2_)" width="3.84" height="0.965"/>
	<rect x="99.003" y="85.375" clip-path="url(#SVGID_2_)" width="3.839" height="0.965"/>
	<rect x="92.291" y="85.375" clip-path="url(#SVGID_2_)" width="3.839" height="0.965"/>
	<rect x="85.553" y="85.375" clip-path="url(#SVGID_2_)" width="3.839" height="0.965"/>
	<rect x="78.84" y="85.375" clip-path="url(#SVGID_2_)" width="3.839" height="0.965"/>
	<rect x="72.127" y="85.375" clip-path="url(#SVGID_2_)" width="3.839" height="0.965"/>
	<polygon clip-path="url(#SVGID_2_)" points="169.923,86.221 170.282,85.374 166.689,83.948 166.33,84.795 	"/>
	<polygon clip-path="url(#SVGID_2_)" points="163.575,83.829 163.915,82.981 160.312,81.536 159.952,82.383 	"/>
	<polygon clip-path="url(#SVGID_2_)" points="157.317,81.417 157.676,80.599 154.083,79.263 153.724,80.11 	"/>
	<polygon clip-path="url(#SVGID_2_)" points="150.969,79.024 151.329,78.177 147.736,76.881 147.366,77.698 	"/>
	<polygon clip-path="url(#SVGID_2_)" points="144.711,76.632 145.071,75.794 141.478,74.469 141.118,75.306 	"/>
	<polygon clip-path="url(#SVGID_2_)" points="138.483,74.339 138.843,73.522 135.25,72.077 134.89,72.924 	"/>
	<polygon clip-path="url(#SVGID_2_)" points="132.136,71.957 132.475,71.11 128.872,69.804 128.513,70.621 	"/>
	<polygon clip-path="url(#SVGID_2_)" points="125.878,69.565 126.237,68.718 122.644,67.392 122.285,68.239 	"/>
	<polygon clip-path="url(#SVGID_2_)" points="119.53,67.152 119.889,66.305 116.296,65 115.927,65.847 	"/>
	<polygon clip-path="url(#SVGID_2_)" points="113.272,64.88 113.631,64.033 110.038,62.587 109.679,63.435 	"/>
	<polygon clip-path="url(#SVGID_2_)" points="107.044,62.468 107.403,61.65 103.81,60.325 103.451,61.162 	"/>
	<polygon clip-path="url(#SVGID_2_)" points="100.696,60.076 101.036,59.238 97.434,57.933 97.071,58.75 	"/>
	<polygon clip-path="url(#SVGID_2_)" points="94.439,57.693 94.801,56.846 91.204,55.521 90.841,56.357 	"/>
	<polygon clip-path="url(#SVGID_2_)" points="88.088,55.4 88.451,54.573 84.853,53.128 84.49,53.975 	"/>
	<polygon clip-path="url(#SVGID_2_)" points="81.834,53.008 82.197,52.161 78.599,50.736 78.236,51.563 	"/>
	<polygon clip-path="url(#SVGID_2_)" points="75.604,50.616 75.967,49.769 72.369,48.443 72.006,49.291 	"/>
	
		<path clip-path="url(#SVGID_2_)" fill="none" stroke="#000000" stroke-width="0.7239" stroke-linejoin="round" stroke-miterlimit="10" d="
		M10.432,52.281c0,4.326,3.501,7.795,7.799,7.795c4.323,0,7.8-3.469,7.8-7.795c0-4.316-3.477-7.795-7.8-7.795
		C13.933,44.486,10.432,47.965,10.432,52.281z"/>
	
		<polygon clip-path="url(#SVGID_2_)" fill="none" stroke="#000000" stroke-width="0.7239" stroke-linejoin="round" stroke-miterlimit="10" points="
		19.318,42.213 28.445,36.572 27.237,45.812 37.331,48.204 29.653,54.214 33.709,63.793 24.485,62.587 22.433,71.837 17.29,64.162 
		8.524,69.445 10.432,59.836 0.483,60.195 6.833,52.64 1.69,44.247 10.069,45.453 12.846,35.386 	"/>
	<rect x="37.669" y="188.992" clip-path="url(#SVGID_2_)" width="263.663" height="1.448"/>
	<polygon clip-path="url(#SVGID_2_)" points="169.803,132.875 170.282,132.15 169.444,131.667 168.955,132.391 	"/>
	<polygon clip-path="url(#SVGID_2_)" points="168.236,131.788 168.715,131.064 167.867,130.581 167.408,131.306 	"/>
	<polygon clip-path="url(#SVGID_2_)" points="166.569,130.822 167.048,130.123 166.2,129.52 165.721,130.219 	"/>
	<polygon clip-path="url(#SVGID_2_)" points="164.993,129.761 165.481,129.037 164.633,128.554 164.154,129.278 	"/>
	<polygon clip-path="url(#SVGID_2_)" points="163.335,128.674 163.815,127.951 162.966,127.468 162.487,128.192 	"/>
	<polygon clip-path="url(#SVGID_2_)" points="161.759,127.709 162.248,126.985 161.399,126.406 160.92,127.105 	"/>
	<polygon clip-path="url(#SVGID_2_)" points="160.072,126.623 160.551,125.923 159.853,125.441 159.373,126.165 	"/>
	<polygon clip-path="url(#SVGID_2_)" points="158.525,125.562 159.004,124.837 158.166,124.354 157.676,125.078 	"/>
	<polygon clip-path="url(#SVGID_2_)" points="156.838,124.596 157.317,123.872 156.599,123.268 156.109,123.992 	"/>
	<polygon clip-path="url(#SVGID_2_)" points="155.291,123.509 155.77,122.785 154.932,122.327 154.443,123.026 	"/>
	
		<rect x="153.045" y="121.407" transform="matrix(-0.5515 0.8342 -0.8342 -0.5515 339.7594 61.0011)" clip-path="url(#SVGID_2_)" width="0.869" height="0.874"/>
	<polygon clip-path="url(#SVGID_2_)" points="152.027,121.481 152.517,120.758 151.688,120.275 151.209,120.999 	"/>
	<polygon clip-path="url(#SVGID_2_)" points="150.361,120.396 150.85,119.671 150.121,119.189 149.642,119.913 	"/>
	<polygon clip-path="url(#SVGID_2_)" points="148.793,119.43 149.272,118.73 148.434,118.126 147.975,118.851 	"/>
	<polygon clip-path="url(#SVGID_2_)" points="147.247,118.369 147.736,117.644 146.887,117.162 146.408,117.885 	"/>
	<polygon clip-path="url(#SVGID_2_)" points="145.56,117.282 146.039,116.559 145.201,116.075 144.711,116.8 	"/>
	<polygon clip-path="url(#SVGID_2_)" points="144.013,116.316 144.472,115.593 143.653,115.014 143.165,115.713 	"/>
	<polygon clip-path="url(#SVGID_2_)" points="142.326,115.231 142.805,114.53 141.957,114.048 141.478,114.772 	"/>
	<polygon clip-path="url(#SVGID_2_)" points="140.749,114.168 141.238,113.445 140.39,112.962 139.931,113.686 	"/>
	<polygon clip-path="url(#SVGID_2_)" points="139.083,113.203 139.571,112.479 138.843,111.876 138.364,112.6 	"/>
	<polygon clip-path="url(#SVGID_2_)" points="137.515,112.117 138.004,111.393 137.156,110.934 136.677,111.634 	"/>
	<polygon clip-path="url(#SVGID_2_)" points="135.849,111.055 136.308,110.331 135.609,109.848 135.13,110.572 	"/>
	<polygon clip-path="url(#SVGID_2_)" points="134.282,110.089 134.761,109.366 133.922,108.762 133.433,109.486 	"/>
	<polygon clip-path="url(#SVGID_2_)" points="132.595,109.003 133.074,108.279 132.345,107.797 131.896,108.521 	"/>
	<polygon clip-path="url(#SVGID_2_)" points="131.048,107.917 131.527,107.217 130.688,106.734 130.199,107.459 	"/>
	<polygon clip-path="url(#SVGID_2_)" points="129.481,106.976 129.96,106.252 129.111,105.648 128.632,106.373 	"/>
	<polygon clip-path="url(#SVGID_2_)" points="127.814,105.89 128.293,105.166 127.445,104.683 126.966,105.407 	"/>
	<polygon clip-path="url(#SVGID_2_)" points="126.237,104.804 126.726,104.08 125.878,103.621 125.398,104.321 	"/>
	<polygon clip-path="url(#SVGID_2_)" points="124.55,103.838 125.029,103.138 124.211,102.535 123.732,103.259 	"/>
	<polygon clip-path="url(#SVGID_2_)" points="123.003,102.776 123.492,102.052 122.644,101.569 122.165,102.294 	"/>
	<polygon clip-path="url(#SVGID_2_)" points="121.316,101.689 121.795,100.966 121.077,100.483 120.588,101.207 	"/>
	<polygon clip-path="url(#SVGID_2_)" points="119.77,100.725 120.249,100.024 119.41,99.421 118.921,100.121 	"/>
	
		<rect x="117.524" y="98.621" transform="matrix(-0.5524 0.8336 -0.8336 -0.5524 265.6888 55.4446)" clip-path="url(#SVGID_2_)" width="0.868" height="0.875"/>
	<polygon clip-path="url(#SVGID_2_)" points="116.506,98.577 116.995,97.852 116.176,97.37 115.688,98.093 	"/>
	<polygon clip-path="url(#SVGID_2_)" points="114.839,97.611 115.328,96.887 114.6,96.404 114.12,97.128 	"/>
	<polygon clip-path="url(#SVGID_2_)" points="113.272,96.524 113.761,95.825 112.913,95.342 112.454,96.066 	"/>
	<polygon clip-path="url(#SVGID_2_)" points="111.605,95.583 112.094,94.859 111.366,94.256 110.887,94.98 	"/>
	<polygon clip-path="url(#SVGID_2_)" points="110.038,94.497 110.517,93.773 109.679,93.291 109.19,94.015 	"/>
	<polygon clip-path="url(#SVGID_2_)" points="108.491,93.412 108.95,92.687 108.132,92.229 107.643,92.928 	"/>
	<polygon clip-path="url(#SVGID_2_)" points="106.804,92.47 107.284,91.746 106.445,91.142 105.956,91.867 	"/>
	<polygon clip-path="url(#SVGID_2_)" points="105.237,91.384 105.716,90.656 104.868,90.178 104.409,90.906 	"/>
	<polygon clip-path="url(#SVGID_2_)" points="103.571,90.298 104.05,89.57 103.201,89.091 102.722,89.819 	"/>
	<polygon clip-path="url(#SVGID_2_)" points="101.994,89.331 102.483,88.633 101.634,88.025 101.155,88.732 	"/>
	<polygon clip-path="url(#SVGID_2_)" points="100.327,88.274 100.786,87.546 100.087,87.068 99.606,87.786 	"/>
	<polygon clip-path="url(#SVGID_2_)" points="98.762,87.188 99.244,86.46 98.399,85.981 97.917,86.699 	"/>
	<polygon clip-path="url(#SVGID_2_)" points="97.071,86.221 97.554,85.493 96.83,84.915 96.371,85.613 	"/>
	<polygon clip-path="url(#SVGID_2_)" points="95.526,85.134 96.009,84.437 95.164,83.948 94.681,84.676 	"/>
	<polygon clip-path="url(#SVGID_2_)" points="93.835,84.068 94.318,83.35 93.594,82.862 93.111,83.589 	"/>
	<polygon clip-path="url(#SVGID_2_)" points="92.291,83.101 92.773,82.383 91.928,81.775 91.445,82.503 	"/>
	<polygon clip-path="url(#SVGID_2_)" points="90.72,82.015 91.204,81.297 90.358,80.838 89.875,81.536 	"/>
	<polygon clip-path="url(#SVGID_2_)" points="89.031,80.958 89.513,80.23 88.692,79.752 88.209,80.469 	"/>
	<polygon clip-path="url(#SVGID_2_)" points="87.484,79.991 87.968,79.263 87.122,78.665 86.639,79.383 	"/>
	<polygon clip-path="url(#SVGID_2_)" points="85.795,78.904 86.278,78.177 85.433,77.698 84.95,78.426 	"/>
	<polygon clip-path="url(#SVGID_2_)" points="84.249,77.818 84.732,77.12 83.887,76.632 83.404,77.359 	"/>
	<polygon clip-path="url(#SVGID_2_)" points="82.559,76.881 83.042,76.153 82.197,75.545 81.714,76.273 	"/>
	<polygon clip-path="url(#SVGID_2_)" points="80.989,75.794 81.472,75.067 80.651,74.588 80.168,75.306 	"/>
	<polygon clip-path="url(#SVGID_2_)" points="79.323,74.708 79.806,73.98 79.082,73.522 78.599,74.22 	"/>
	<polygon clip-path="url(#SVGID_2_)" points="77.753,73.741 78.236,73.043 77.391,72.555 76.933,73.283 	"/>
	<polygon clip-path="url(#SVGID_2_)" points="76.087,72.675 76.571,71.957 75.846,71.469 75.363,72.196 	"/>
	<polygon clip-path="url(#SVGID_2_)" points="74.518,71.708 75,70.99 74.155,70.382 73.673,71.11 	"/>
	<polygon clip-path="url(#SVGID_2_)" points="72.852,70.621 73.311,69.904 72.61,69.445 72.127,70.143 	"/>
	<polygon clip-path="url(#SVGID_2_)" points="71.282,69.565 71.765,68.837 70.919,68.358 70.438,69.086 	"/>
	<polygon clip-path="url(#SVGID_2_)" points="69.713,68.598 70.196,67.87 69.471,67.392 69.012,68.12 	"/>
	<polygon clip-path="url(#SVGID_2_)" points="170.042,132.995 170.163,132.15 169.194,131.909 169.075,132.754 	"/>
	<polygon clip-path="url(#SVGID_2_)" points="168.116,132.512 168.236,131.667 167.288,131.426 167.168,132.271 	"/>
	<polygon clip-path="url(#SVGID_2_)" points="166.2,132.15 166.33,131.306 165.362,131.064 165.242,131.909 	"/>
	<polygon clip-path="url(#SVGID_2_)" points="164.394,131.667 164.513,130.822 163.575,130.702 163.456,131.547 	"/>
	<polygon clip-path="url(#SVGID_2_)" points="162.487,131.306 162.607,130.46 161.639,130.219 161.519,131.064 	"/>
	<polygon clip-path="url(#SVGID_2_)" points="160.551,130.943 160.671,130.123 159.732,129.881 159.613,130.702 	"/>
	<polygon clip-path="url(#SVGID_2_)" points="158.765,130.46 158.884,129.64 157.926,129.52 157.796,130.34 	"/>
	<polygon clip-path="url(#SVGID_2_)" points="156.838,130.123 156.958,129.278 155.99,129.037 155.89,129.881 	"/>
	<polygon clip-path="url(#SVGID_2_)" points="154.932,129.761 155.052,128.916 154.203,128.674 154.083,129.52 	"/>
	<polygon clip-path="url(#SVGID_2_)" points="153.115,129.278 153.235,128.433 152.267,128.313 152.147,129.158 	"/>
	<polygon clip-path="url(#SVGID_2_)" points="151.209,128.916 151.329,128.071 150.361,127.83 150.241,128.674 	"/>
	<polygon clip-path="url(#SVGID_2_)" points="149.272,128.433 149.402,127.589 148.554,127.468 148.434,128.313 	"/>
	<polygon clip-path="url(#SVGID_2_)" points="147.486,128.071 147.616,127.226 146.648,126.985 146.528,127.83 	"/>
	<polygon clip-path="url(#SVGID_2_)" points="145.56,127.709 145.68,126.864 144.711,126.623 144.592,127.468 	"/>
	<polygon clip-path="url(#SVGID_2_)" points="143.773,127.226 143.893,126.406 142.925,126.285 142.805,127.105 	"/>
	<polygon clip-path="url(#SVGID_2_)" points="141.837,126.864 141.957,126.044 140.999,125.803 140.879,126.623 	"/>
	<polygon clip-path="url(#SVGID_2_)" points="139.931,126.502 140.05,125.682 139.083,125.441 138.962,126.285 	"/>
	<polygon clip-path="url(#SVGID_2_)" points="138.124,126.044 138.244,125.199 137.276,125.078 137.156,125.923 	"/>
	<polygon clip-path="url(#SVGID_2_)" points="136.188,125.682 136.308,124.837 135.37,124.596 135.25,125.441 	"/>
	<polygon clip-path="url(#SVGID_2_)" points="134.282,125.319 134.401,124.475 133.433,124.233 133.313,125.078 	"/>
	<polygon clip-path="url(#SVGID_2_)" points="132.475,124.837 132.595,123.992 131.646,123.751 131.527,124.596 	"/>
	<polygon clip-path="url(#SVGID_2_)" points="130.559,124.475 130.688,123.63 129.72,123.389 129.601,124.233 	"/>
	<polygon clip-path="url(#SVGID_2_)" points="128.632,123.992 128.752,123.147 127.934,123.026 127.814,123.872 	"/>
	<polygon clip-path="url(#SVGID_2_)" points="126.846,123.63 126.966,122.785 125.998,122.568 125.878,123.389 	"/>
	<polygon clip-path="url(#SVGID_2_)" points="124.91,123.268 125.029,122.447 124.091,122.206 123.971,123.026 	"/>
	
		<rect x="122.23" y="121.891" transform="matrix(-0.1443 0.9895 -0.9895 -0.1443 261.3769 18.6052)" clip-path="url(#SVGID_2_)" width="0.829" height="0.847"/>
	<polygon clip-path="url(#SVGID_2_)" points="121.197,122.447 121.316,121.602 120.368,121.361 120.249,122.206 	"/>
	<polygon clip-path="url(#SVGID_2_)" points="119.291,122.085 119.41,121.24 118.442,120.999 118.322,121.844 	"/>
	<polygon clip-path="url(#SVGID_2_)" points="117.474,121.602 117.594,120.758 116.625,120.637 116.506,121.481 	"/>
	<polygon clip-path="url(#SVGID_2_)" points="115.567,121.24 115.688,120.396 114.719,120.155 114.6,120.999 	"/>
	<polygon clip-path="url(#SVGID_2_)" points="113.631,120.758 113.761,119.913 112.793,119.792 112.673,120.637 	"/>
	<polygon clip-path="url(#SVGID_2_)" points="111.845,120.396 111.975,119.551 111.006,119.31 110.887,120.155 	"/>
	<polygon clip-path="url(#SVGID_2_)" points="109.918,120.033 110.038,119.189 109.07,118.948 108.95,119.792 	"/>
	
		<rect x="107.233" y="118.652" transform="matrix(-0.1443 0.9895 -0.9895 -0.1443 241.0162 29.7432)" clip-path="url(#SVGID_2_)" width="0.829" height="0.857"/>
	<polygon clip-path="url(#SVGID_2_)" points="106.196,119.189 106.315,118.369 105.357,118.126 105.237,118.948 	"/>
	<polygon clip-path="url(#SVGID_2_)" points="104.289,118.851 104.409,118.006 103.451,117.765 103.321,118.61 	"/>
	
		<rect x="101.572" y="117.457" transform="matrix(-0.1407 0.9901 -0.9901 -0.1407 233.0628 33.4885)" clip-path="url(#SVGID_2_)" width="0.854" height="0.857"/>
	<polygon clip-path="url(#SVGID_2_)" points="100.576,118.006 100.696,117.162 99.727,116.92 99.606,117.765 	"/>
	<polygon clip-path="url(#SVGID_2_)" points="98.641,117.644 98.762,116.8 97.796,116.559 97.675,117.403 	"/>
	<polygon clip-path="url(#SVGID_2_)" points="96.733,117.162 96.83,116.316 96.009,116.075 95.888,116.92 	"/>
	<polygon clip-path="url(#SVGID_2_)" points="94.922,116.8 95.043,115.955 94.077,115.713 93.956,116.559 	"/>
	<polygon clip-path="url(#SVGID_2_)" points="92.99,116.316 93.111,115.472 92.169,115.352 92.049,116.196 	"/>
	<polygon clip-path="url(#SVGID_2_)" points="91.204,115.955 91.324,115.11 90.358,114.893 90.237,115.713 	"/>
	<polygon clip-path="url(#SVGID_2_)" points="89.272,115.593 89.393,114.772 88.451,114.53 88.33,115.352 	"/>
	<polygon clip-path="url(#SVGID_2_)" points="87.364,115.11 87.484,114.289 86.519,114.168 86.399,115.014 	"/>
	<polygon clip-path="url(#SVGID_2_)" points="85.553,114.772 85.674,113.927 84.732,113.686 84.611,114.53 	"/>
	<polygon clip-path="url(#SVGID_2_)" points="83.645,114.41 83.766,113.565 82.801,113.324 82.68,114.168 	"/>
	<polygon clip-path="url(#SVGID_2_)" points="81.714,113.927 81.834,113.083 80.989,112.962 80.892,113.807 	"/>
	<polygon clip-path="url(#SVGID_2_)" points="79.927,113.565 80.048,112.72 79.082,112.479 78.961,113.324 	"/>
	<polygon clip-path="url(#SVGID_2_)" points="77.995,113.083 78.116,112.237 77.149,112.117 77.029,112.962 	"/>
	<polygon clip-path="url(#SVGID_2_)" points="76.087,112.72 76.208,111.875 75.363,111.634 75.242,112.479 	"/>
	<polygon clip-path="url(#SVGID_2_)" points="74.276,112.358 74.397,111.514 73.432,111.296 73.311,112.117 	"/>
	<polygon clip-path="url(#SVGID_2_)" points="72.369,111.875 72.489,111.055 71.523,110.934 71.402,111.755 	"/>
	<polygon clip-path="url(#SVGID_2_)" points="70.438,111.514 70.558,110.692 69.833,110.572 69.713,111.393 	"/>
	<rect x="169.075" y="132.512" clip-path="url(#SVGID_2_)" width="0.966" height="0.965"/>
	<rect x="167.168" y="132.512" clip-path="url(#SVGID_2_)" width="0.941" height="0.965"/>
	<rect x="165.242" y="132.512" clip-path="url(#SVGID_2_)" width="0.966" height="0.965"/>
	<rect x="163.335" y="132.512" clip-path="url(#SVGID_2_)" width="0.942" height="0.965"/>
	<rect x="161.399" y="132.512" clip-path="url(#SVGID_2_)" width="0.966" height="0.965"/>
	<rect x="159.493" y="132.512" clip-path="url(#SVGID_2_)" width="0.941" height="0.965"/>
	<rect x="157.557" y="132.512" clip-path="url(#SVGID_2_)" width="0.966" height="0.965"/>
	<rect x="155.65" y="132.392" clip-path="url(#SVGID_2_)" width="0.942" height="0.965"/>
	<rect x="153.724" y="132.392" clip-path="url(#SVGID_2_)" width="0.966" height="0.965"/>
	<rect x="151.808" y="132.392" clip-path="url(#SVGID_2_)" width="0.942" height="0.965"/>
	<rect x="149.881" y="132.392" clip-path="url(#SVGID_2_)" width="0.966" height="0.965"/>
	<rect x="147.975" y="132.392" clip-path="url(#SVGID_2_)" width="0.942" height="0.965"/>
	<rect x="146.039" y="132.392" clip-path="url(#SVGID_2_)" width="0.966" height="0.965"/>
	<rect x="144.113" y="132.392" clip-path="url(#SVGID_2_)" width="0.966" height="0.965"/>
	<rect x="142.206" y="132.392" clip-path="url(#SVGID_2_)" width="0.966" height="0.965"/>
	<rect x="140.27" y="132.392" clip-path="url(#SVGID_2_)" width="0.966" height="0.965"/>
	<rect x="138.364" y="132.392" clip-path="url(#SVGID_2_)" width="0.966" height="0.965"/>
	<rect x="136.427" y="132.392" clip-path="url(#SVGID_2_)" width="0.966" height="0.965"/>
	<rect x="134.521" y="132.392" clip-path="url(#SVGID_2_)" width="0.966" height="0.965"/>
	<rect x="132.595" y="132.392" clip-path="url(#SVGID_2_)" width="0.966" height="0.965"/>
	<rect x="130.688" y="132.271" clip-path="url(#SVGID_2_)" width="0.966" height="0.965"/>
	<rect x="128.752" y="132.271" clip-path="url(#SVGID_2_)" width="0.966" height="0.965"/>
	<rect x="126.846" y="132.271" clip-path="url(#SVGID_2_)" width="0.966" height="0.965"/>
	<rect x="124.91" y="132.271" clip-path="url(#SVGID_2_)" width="0.966" height="0.965"/>
	<rect x="123.003" y="132.271" clip-path="url(#SVGID_2_)" width="0.966" height="0.965"/>
	<rect x="121.077" y="132.271" clip-path="url(#SVGID_2_)" width="0.966" height="0.965"/>
	<rect x="119.17" y="132.271" clip-path="url(#SVGID_2_)" width="0.966" height="0.965"/>
	<rect x="117.234" y="132.271" clip-path="url(#SVGID_2_)" width="0.966" height="0.965"/>
	<rect x="115.328" y="132.271" clip-path="url(#SVGID_2_)" width="0.966" height="0.965"/>
	<rect x="113.392" y="132.271" clip-path="url(#SVGID_2_)" width="0.966" height="0.965"/>
	<rect x="111.485" y="132.271" clip-path="url(#SVGID_2_)" width="0.966" height="0.965"/>
	<rect x="109.559" y="132.271" clip-path="url(#SVGID_2_)" width="0.966" height="0.965"/>
	<rect x="107.643" y="132.271" clip-path="url(#SVGID_2_)" width="0.942" height="0.965"/>
	<rect x="105.716" y="132.15" clip-path="url(#SVGID_2_)" width="0.966" height="0.965"/>
	<rect x="103.81" y="132.15" clip-path="url(#SVGID_2_)" width="0.942" height="0.965"/>
	<rect x="101.874" y="132.15" clip-path="url(#SVGID_2_)" width="0.966" height="0.965"/>
	<rect x="99.968" y="132.15" clip-path="url(#SVGID_2_)" width="0.941" height="0.965"/>
	<rect x="98.037" y="132.15" clip-path="url(#SVGID_2_)" width="0.966" height="0.965"/>
	<rect x="96.13" y="132.15" clip-path="url(#SVGID_2_)" width="0.942" height="0.965"/>
	<rect x="94.198" y="132.15" clip-path="url(#SVGID_2_)" width="0.966" height="0.965"/>
	<rect x="92.291" y="132.15" clip-path="url(#SVGID_2_)" width="0.941" height="0.965"/>
	<rect x="90.358" y="132.15" clip-path="url(#SVGID_2_)" width="0.966" height="0.965"/>
	<rect x="88.451" y="132.15" clip-path="url(#SVGID_2_)" width="0.942" height="0.965"/>
	<rect x="86.519" y="132.15" clip-path="url(#SVGID_2_)" width="0.966" height="0.965"/>
	<rect x="84.611" y="132.15" clip-path="url(#SVGID_2_)" width="0.941" height="0.965"/>
	<rect x="82.68" y="132.15" clip-path="url(#SVGID_2_)" width="0.966" height="0.965"/>
	<rect x="80.771" y="132.03" clip-path="url(#SVGID_2_)" width="0.942" height="0.965"/>
	<rect x="78.84" y="132.03" clip-path="url(#SVGID_2_)" width="0.966" height="0.965"/>
	<rect x="76.933" y="132.03" clip-path="url(#SVGID_2_)" width="0.941" height="0.965"/>
	<rect x="75" y="132.03" clip-path="url(#SVGID_2_)" width="0.966" height="0.965"/>
	<rect x="73.093" y="132.03" clip-path="url(#SVGID_2_)" width="0.942" height="0.965"/>
	<rect x="71.161" y="132.03" clip-path="url(#SVGID_2_)" width="0.966" height="0.965"/>
	<rect x="70.075" y="132.03" clip-path="url(#SVGID_2_)" width="0.121" height="0.965"/>
	
		<rect x="169.981" y="132.809" transform="matrix(-0.123 0.9924 -0.9924 -0.123 323.7257 -19.4732)" clip-path="url(#SVGID_2_)" width="0.972" height="0.976"/>
	<polygon clip-path="url(#SVGID_2_)" points="168.955,133.598 169.075,132.633 168.116,132.512 167.987,133.478 	"/>
	
		<rect x="166.138" y="132.205" transform="matrix(-0.1234 0.9924 -0.9924 -0.1234 318.8672 -16.2807)" clip-path="url(#SVGID_2_)" width="0.973" height="0.976"/>
	
		<rect x="164.211" y="131.964" transform="matrix(-0.1234 0.9924 -0.9924 -0.1234 316.4639 -14.6401)" clip-path="url(#SVGID_2_)" width="0.973" height="0.976"/>
	<polygon clip-path="url(#SVGID_2_)" points="163.206,132.754 163.335,131.788 162.368,131.667 162.248,132.633 	"/>
	
		<rect x="160.369" y="131.361" transform="matrix(-0.123 0.9924 -0.9924 -0.123 311.4945 -11.5614)" clip-path="url(#SVGID_2_)" width="0.972" height="0.976"/>
	
		<rect x="158.583" y="131.119" transform="matrix(-0.123 0.9924 -0.9924 -0.123 309.2487 -10.0592)" clip-path="url(#SVGID_2_)" width="0.972" height="0.976"/>
	
		<rect x="156.651" y="130.883" transform="matrix(-0.1229 0.9924 -0.9924 -0.1229 306.8225 -8.4324)" clip-path="url(#SVGID_2_)" width="0.973" height="0.966"/>
	<polygon clip-path="url(#SVGID_2_)" points="155.65,131.667 155.77,130.702 154.802,130.46 154.682,131.426 	"/>
	
		<rect x="152.813" y="130.275" transform="matrix(-0.1229 0.9924 -0.9924 -0.1229 301.9149 -5.3013)" clip-path="url(#SVGID_2_)" width="0.973" height="0.975"/>
	<polygon clip-path="url(#SVGID_2_)" points="151.808,131.064 151.938,130.123 150.969,130.002 150.85,130.943 	"/>
	<polygon clip-path="url(#SVGID_2_)" points="149.881,130.822 150.001,129.881 149.033,129.64 148.914,130.581 	"/>
	<polygon clip-path="url(#SVGID_2_)" points="148.065,130.46 148.195,129.52 147.247,129.399 147.127,130.34 	"/>
	<polygon clip-path="url(#SVGID_2_)" points="146.159,130.219 146.278,129.278 145.32,129.158 145.201,130.123 	"/>
	<polygon clip-path="url(#SVGID_2_)" points="144.232,130.002 144.352,129.037 143.414,128.916 143.284,129.881 	"/>
	
		<rect x="141.415" y="128.609" transform="matrix(-0.1229 0.9924 -0.9924 -0.1229 287.4627 4.1402)" clip-path="url(#SVGID_2_)" width="0.973" height="0.976"/>
	<polygon clip-path="url(#SVGID_2_)" points="140.39,129.399 140.51,128.433 139.571,128.313 139.452,129.278 	"/>
	
		<rect x="137.573" y="128.127" transform="matrix(-0.1229 0.9924 -0.9924 -0.1229 282.6691 7.4119)" clip-path="url(#SVGID_2_)" width="0.973" height="0.975"/>
	
		<rect x="135.777" y="127.774" transform="matrix(-0.1235 0.9923 -0.9923 -0.1235 280.3664 8.8777)" clip-path="url(#SVGID_2_)" width="0.972" height="0.956"/>
	<polygon clip-path="url(#SVGID_2_)" points="134.761,128.554 134.89,127.589 133.922,127.468 133.802,128.433 	"/>
	<polygon clip-path="url(#SVGID_2_)" points="132.834,128.313 132.954,127.348 132.016,127.226 131.896,128.192 	"/>
	
		<rect x="130.017" y="126.92" transform="matrix(-0.1229 0.9924 -0.9924 -0.1229 272.9871 13.5546)" clip-path="url(#SVGID_2_)" width="0.973" height="0.976"/>
	<polygon clip-path="url(#SVGID_2_)" points="128.992,127.709 129.111,126.744 128.173,126.623 128.054,127.589 	"/>
	<polygon clip-path="url(#SVGID_2_)" points="127.085,127.468 127.205,126.502 126.237,126.406 126.117,127.348 	"/>
	<polygon clip-path="url(#SVGID_2_)" points="125.279,127.226 125.398,126.285 124.431,126.044 124.331,126.985 	"/>
	<polygon clip-path="url(#SVGID_2_)" points="123.363,126.864 123.492,125.923 122.524,125.803 122.404,126.744 	"/>
	
		<rect x="120.538" y="125.604" transform="matrix(-0.1266 0.9919 -0.9919 -0.1266 261.4131 22.0218)" clip-path="url(#SVGID_2_)" width="0.949" height="0.976"/>
	<polygon clip-path="url(#SVGID_2_)" points="119.53,126.406 119.65,125.441 118.682,125.199 118.562,126.165 	"/>
	<polygon clip-path="url(#SVGID_2_)" points="117.594,126.044 117.713,125.078 116.755,124.958 116.625,125.923 	"/>
	
		<rect x="114.777" y="124.771" transform="matrix(-0.1229 0.9924 -0.9924 -0.1229 253.741 26.2675)" clip-path="url(#SVGID_2_)" width="0.973" height="0.976"/>
	
		<rect x="112.97" y="124.53" transform="matrix(-0.1229 0.9924 -0.9924 -0.1229 251.4729 27.7896)" clip-path="url(#SVGID_2_)" width="0.973" height="0.976"/>
	
		<rect x="111.064" y="124.168" transform="matrix(-0.123 0.9924 -0.9924 -0.123 248.9789 29.2833)" clip-path="url(#SVGID_2_)" width="0.973" height="0.976"/>
	
		<rect x="109.128" y="123.927" transform="matrix(-0.123 0.9924 -0.9924 -0.123 246.5651 30.934)" clip-path="url(#SVGID_2_)" width="0.973" height="0.975"/>
	
		<rect x="107.222" y="123.685" transform="matrix(-0.123 0.9924 -0.9924 -0.123 244.19 32.5625)" clip-path="url(#SVGID_2_)" width="0.972" height="0.975"/>
	
		<rect x="105.29" y="123.328" transform="matrix(-0.1229 0.9924 -0.9924 -0.1229 241.6511 34.0558)" clip-path="url(#SVGID_2_)" width="0.973" height="0.966"/>
	<polygon clip-path="url(#SVGID_2_)" points="104.289,124.113 104.409,123.147 103.451,123.026 103.321,123.992 	"/>
	
		<rect x="101.572" y="122.841" transform="matrix(-0.1229 0.9924 -0.9924 -0.1229 236.992 37.1956)" clip-path="url(#SVGID_2_)" width="0.974" height="0.976"/>
	<polygon clip-path="url(#SVGID_2_)" points="100.576,123.63 100.696,122.665 99.727,122.447 99.606,123.389 	"/>
	
		<rect x="97.744" y="122.25" transform="matrix(-0.1271 0.9919 -0.9919 -0.1271 232.4467 40.9199)" clip-path="url(#SVGID_2_)" width="0.949" height="0.973"/>
	<polygon clip-path="url(#SVGID_2_)" points="96.733,123.026 96.83,122.085 95.888,121.965 95.768,122.906 	"/>
	<polygon clip-path="url(#SVGID_2_)" points="94.801,122.785 94.922,121.844 93.956,121.602 93.835,122.568 	"/>
	
		<rect x="91.972" y="121.43" transform="matrix(-0.1239 0.9923 -0.9923 -0.1239 224.8803 45.2629)" clip-path="url(#SVGID_2_)" width="0.973" height="0.949"/>
	
		<rect x="90.173" y="121.176" transform="matrix(-0.1244 0.9922 -0.9922 -0.1244 222.6562 46.8427)" clip-path="url(#SVGID_2_)" width="0.973" height="0.974"/>
	
		<rect x="88.254" y="120.947" transform="matrix(-0.1239 0.9923 -0.9923 -0.1239 220.2226 48.4103)" clip-path="url(#SVGID_2_)" width="0.973" height="0.95"/>
	
		<rect x="86.335" y="120.573" transform="matrix(-0.124 0.9923 -0.9923 -0.124 217.7144 49.9243)" clip-path="url(#SVGID_2_)" width="0.972" height="0.972"/>
	
		<rect x="84.415" y="120.343" transform="matrix(-0.124 0.9923 -0.9923 -0.124 215.317 51.5583)" clip-path="url(#SVGID_2_)" width="0.972" height="0.95"/>
	
		<rect x="82.496" y="120.09" transform="matrix(-0.1235 0.9923 -0.9923 -0.1235 212.886 53.1264)" clip-path="url(#SVGID_2_)" width="0.972" height="0.973"/>
	
		<rect x="80.575" y="119.74" transform="matrix(-0.1239 0.9923 -0.9923 -0.1239 210.3941 54.6737)" clip-path="url(#SVGID_2_)" width="0.973" height="0.95"/>
	
		<rect x="78.776" y="119.487" transform="matrix(-0.1239 0.9923 -0.9923 -0.1239 208.1333 56.1874)" clip-path="url(#SVGID_2_)" width="0.973" height="0.973"/>
	
		<rect x="76.857" y="119.258" transform="matrix(-0.1239 0.9923 -0.9923 -0.1239 205.7364 57.8211)" clip-path="url(#SVGID_2_)" width="0.973" height="0.949"/>
	<polygon clip-path="url(#SVGID_2_)" points="75.846,119.913 75.967,118.948 75,118.851 74.88,119.792 	"/>
	
		<rect x="73.029" y="118.666" transform="matrix(-0.1276 0.9918 -0.9918 -0.1276 201.0518 61.4461)" clip-path="url(#SVGID_2_)" width="0.949" height="0.949"/>
	
		<rect x="71.109" y="118.413" transform="matrix(-0.1271 0.9919 -0.9919 -0.1271 198.6193 63.0133)" clip-path="url(#SVGID_2_)" width="0.949" height="0.973"/>
	<polygon clip-path="url(#SVGID_2_)" points="70.075,119.189 70.196,118.248 69.833,118.126 69.713,119.068 	"/>
	<polygon clip-path="url(#SVGID_2_)" points="170.282,178.082 170.771,177.357 167.527,175.33 167.048,176.031 	"/>
	<polygon clip-path="url(#SVGID_2_)" points="164.633,174.486 165.122,173.761 161.878,171.71 161.399,172.435 	"/>
	<polygon clip-path="url(#SVGID_2_)" points="158.884,170.89 159.373,170.165 156.109,168.113 155.65,168.838 	"/>
	<polygon clip-path="url(#SVGID_2_)" points="153.235,167.414 153.724,166.689 150.48,164.638 150.001,165.362 	"/>
	<polygon clip-path="url(#SVGID_2_)" points="147.486,163.817 147.975,163.093 144.711,161.042 144.232,161.766 	"/>
	<polygon clip-path="url(#SVGID_2_)" points="141.837,160.221 142.326,159.498 139.083,157.445 138.603,158.17 	"/>
	<polygon clip-path="url(#SVGID_2_)" points="136.188,156.625 136.677,155.901 133.313,153.849 132.834,154.573 	"/>
	<polygon clip-path="url(#SVGID_2_)" points="130.439,153.004 130.928,152.305 127.694,150.252 127.205,150.977 	"/>
	<polygon clip-path="url(#SVGID_2_)" points="124.79,149.529 125.279,148.829 122.035,146.776 121.556,147.501 	"/>
	<polygon clip-path="url(#SVGID_2_)" points="119.041,145.933 119.53,145.232 116.296,143.18 115.807,143.905 	"/>
	<polygon clip-path="url(#SVGID_2_)" points="113.392,142.336 113.881,141.611 110.637,139.584 110.158,140.309 	"/>
	<polygon clip-path="url(#SVGID_2_)" points="107.772,138.74 108.251,138.015 104.868,135.988 104.409,136.712 	"/>
	<polygon clip-path="url(#SVGID_2_)" points="101.994,135.144 102.483,134.418 99.244,132.391 98.762,133.116 	"/>
	<polygon clip-path="url(#SVGID_2_)" points="96.371,131.667 96.83,130.943 93.594,128.795 93.111,129.52 	"/>
	<polygon clip-path="url(#SVGID_2_)" points="90.6,128.071 91.083,127.348 87.847,125.319 87.364,126.044 	"/>
	<polygon clip-path="url(#SVGID_2_)" points="84.95,124.475 85.433,123.751 82.197,121.723 81.714,122.447 	"/>
	<polygon clip-path="url(#SVGID_2_)" points="79.203,120.878 79.686,120.155 76.45,118.126 75.967,118.851 	"/>
	<polygon clip-path="url(#SVGID_2_)" points="73.552,117.282 74.035,116.559 70.799,114.53 70.316,115.231 	"/>
	<rect x="166.689" y="177.237" clip-path="url(#SVGID_2_)" width="3.84" height="0.965"/>
	<rect x="159.952" y="177.237" clip-path="url(#SVGID_2_)" width="3.864" height="0.965"/>
	<rect x="153.235" y="177.237" clip-path="url(#SVGID_2_)" width="3.84" height="0.965"/>
	<rect x="146.528" y="177.237" clip-path="url(#SVGID_2_)" width="3.839" height="0.965"/>
	<rect x="139.811" y="177.237" clip-path="url(#SVGID_2_)" width="3.839" height="0.965"/>
	<rect x="133.074" y="177.237" clip-path="url(#SVGID_2_)" width="3.839" height="0.965"/>
	<rect x="126.357" y="177.237" clip-path="url(#SVGID_2_)" width="3.839" height="0.965"/>
	<rect x="119.65" y="177.237" clip-path="url(#SVGID_2_)" width="3.839" height="0.965"/>
	<rect x="112.913" y="177.237" clip-path="url(#SVGID_2_)" width="3.839" height="0.965"/>
	<rect x="106.196" y="177.237" clip-path="url(#SVGID_2_)" width="3.839" height="0.965"/>
	<rect x="99.485" y="177.237" clip-path="url(#SVGID_2_)" width="3.839" height="0.965"/>
	<rect x="92.773" y="177.237" clip-path="url(#SVGID_2_)" width="3.839" height="0.965"/>
	<rect x="86.037" y="177.237" clip-path="url(#SVGID_2_)" width="3.839" height="0.965"/>
	<rect x="79.323" y="177.237" clip-path="url(#SVGID_2_)" width="3.839" height="0.965"/>
	<rect x="72.61" y="177.237" clip-path="url(#SVGID_2_)" width="3.839" height="0.965"/>
	<g clip-path="url(#SVGID_2_)">
		<defs>
			<rect id="SVGID_5_" x="220.316" y="65.488" width="27.6" height="13.058"/>
		</defs>
		<clipPath id="SVGID_6_">
			<use xlink:href="#SVGID_5_"  overflow="visible"/>
		</clipPath>
		<g clip-path="url(#SVGID_6_)">
			<path d="M220.444,76.392v-1.563l4.512-5.565h-4.002v-1.451h6.288v1.346l-4.706,5.788h4.887v1.445H220.444z"/>
			<path d="M228.501,67.813h3.17c0.715,0,1.26,0.055,1.635,0.164c0.504,0.148,0.936,0.412,1.295,0.79s0.633,0.842,0.82,1.39
				c0.188,0.548,0.281,1.224,0.281,2.028c0,0.706-0.088,1.314-0.264,1.826c-0.215,0.625-0.521,1.129-0.92,1.516
				c-0.301,0.292-0.708,0.521-1.219,0.685c-0.383,0.121-0.895,0.182-1.535,0.182h-3.264V67.813z M230.236,69.264v5.683h1.295
				c0.484,0,0.834-0.027,1.049-0.082c0.281-0.07,0.515-0.189,0.7-0.357c0.186-0.168,0.337-0.444,0.454-0.828
				s0.176-0.908,0.176-1.571s-0.059-1.172-0.176-1.527s-0.281-0.632-0.492-0.831c-0.211-0.199-0.479-0.333-0.803-0.404
				c-0.242-0.055-0.717-0.082-1.424-0.082H230.236z"/>
			<path d="M236.74,74.115l1.594-0.193c0.051,0.406,0.188,0.716,0.41,0.931s0.492,0.322,0.809,0.322c0.34,0,0.626-0.129,0.858-0.386
				s0.349-0.604,0.349-1.042c0-0.414-0.111-0.741-0.334-0.983c-0.223-0.242-0.494-0.363-0.814-0.363
				c-0.211,0-0.463,0.041-0.756,0.123l0.182-1.34c0.445,0.012,0.785-0.085,1.02-0.29c0.234-0.205,0.352-0.477,0.352-0.816
				c0-0.289-0.086-0.519-0.258-0.69c-0.172-0.172-0.4-0.258-0.686-0.258c-0.281,0-0.521,0.098-0.721,0.293
				c-0.199,0.195-0.32,0.479-0.363,0.854l-1.518-0.257c0.105-0.519,0.265-0.933,0.478-1.244c0.213-0.31,0.51-0.554,0.891-0.731
				c0.381-0.177,0.808-0.266,1.28-0.266c0.809,0,1.457,0.257,1.945,0.772c0.402,0.421,0.604,0.897,0.604,1.428
				c0,0.753-0.412,1.354-1.236,1.803c0.492,0.105,0.886,0.341,1.181,0.708s0.442,0.81,0.442,1.329c0,0.753-0.275,1.395-0.826,1.925
				c-0.551,0.53-1.236,0.796-2.057,0.796c-0.777,0-1.422-0.224-1.934-0.67C237.119,75.421,236.822,74.837,236.74,74.115z"/>
		</g>
	</g>
	<g clip-path="url(#SVGID_2_)">
		<defs>
			<rect id="SVGID_7_" x="219.108" y="113.445" width="29.291" height="13.058"/>
		</defs>
		<clipPath id="SVGID_8_">
			<use xlink:href="#SVGID_7_"  overflow="visible"/>
		</clipPath>
		<g clip-path="url(#SVGID_8_)">
			<path d="M219.236,124.354v-1.563l4.512-5.565h-4.002v-1.451h6.288v1.346l-4.706,5.788h4.887v1.445H219.236z"/>
			<path d="M227.293,115.774h3.17c0.715,0,1.26,0.055,1.635,0.164c0.504,0.148,0.936,0.412,1.295,0.79s0.632,0.842,0.82,1.39
				c0.188,0.548,0.282,1.224,0.282,2.028c0,0.706-0.089,1.314-0.265,1.826c-0.215,0.625-0.521,1.129-0.919,1.516
				c-0.301,0.292-0.707,0.521-1.219,0.685c-0.383,0.121-0.895,0.182-1.535,0.182h-3.264V115.774z M229.028,117.226v5.683h1.295
				c0.484,0,0.834-0.027,1.049-0.082c0.281-0.07,0.515-0.189,0.7-0.357c0.186-0.168,0.337-0.444,0.454-0.828
				s0.176-0.908,0.176-1.571s-0.059-1.172-0.176-1.527s-0.281-0.632-0.492-0.831c-0.211-0.199-0.479-0.333-0.803-0.404
				c-0.242-0.055-0.717-0.082-1.424-0.082H229.028z"/>
			<path d="M241.151,122.826v1.527h-5.771c0.063-0.577,0.25-1.125,0.563-1.642c0.313-0.517,0.93-1.203,1.852-2.057
				c0.742-0.69,1.197-1.159,1.365-1.404c0.227-0.339,0.34-0.675,0.34-1.007c0-0.366-0.099-0.648-0.296-0.845
				c-0.197-0.197-0.47-0.296-0.817-0.296c-0.344,0-0.617,0.104-0.82,0.311c-0.203,0.207-0.32,0.55-0.352,1.03l-1.641-0.164
				c0.098-0.905,0.404-1.555,0.92-1.949s1.16-0.591,1.934-0.591c0.848,0,1.514,0.228,1.998,0.685s0.727,1.024,0.727,1.703
				c0,0.386-0.069,0.754-0.208,1.103s-0.358,0.715-0.659,1.097c-0.199,0.254-0.559,0.619-1.078,1.094
				c-0.52,0.476-0.849,0.792-0.987,0.948c-0.139,0.156-0.251,0.308-0.337,0.457H241.151z"/>
		</g>
	</g>
	<g clip-path="url(#SVGID_2_)">
		<defs>
			<rect id="SVGID_9_" x="220.316" y="156.625" width="26.394" height="13.058"/>
		</defs>
		<clipPath id="SVGID_10_">
			<use xlink:href="#SVGID_9_"  overflow="visible"/>
		</clipPath>
		<g clip-path="url(#SVGID_10_)">
			<path d="M220.444,167.534v-1.563l4.512-5.565h-4.002v-1.451h6.288v1.346l-4.706,5.788h4.887v1.445H220.444z"/>
			<path d="M228.501,158.955h3.17c0.715,0,1.26,0.055,1.635,0.164c0.504,0.148,0.936,0.412,1.295,0.79s0.633,0.842,0.82,1.39
				c0.188,0.548,0.281,1.224,0.281,2.028c0,0.706-0.088,1.314-0.264,1.826c-0.215,0.625-0.521,1.129-0.92,1.516
				c-0.301,0.292-0.708,0.521-1.219,0.685c-0.383,0.121-0.895,0.182-1.535,0.182h-3.264V158.955z M230.236,160.406v5.683h1.295
				c0.484,0,0.834-0.027,1.049-0.082c0.281-0.07,0.515-0.189,0.7-0.357c0.186-0.168,0.337-0.444,0.454-0.828
				s0.176-0.908,0.176-1.571s-0.059-1.172-0.176-1.527s-0.281-0.632-0.492-0.831c-0.211-0.199-0.479-0.333-0.803-0.404
				c-0.242-0.055-0.717-0.082-1.424-0.082H230.236z"/>
			<path d="M241.011,167.534h-1.646v-6.197c-0.602,0.562-1.311,0.977-2.127,1.247v-1.493c0.43-0.14,0.896-0.407,1.4-0.799
				s0.85-0.849,1.037-1.372h1.336V167.534z"/>
		</g>
	</g>
	<g clip-path="url(#SVGID_2_)">
		<defs>
			<rect id="SVGID_11_" x="169.075" y="69.685" width="41.533" height="13.058"/>
		</defs>
		<clipPath id="SVGID_12_">
			<use xlink:href="#SVGID_11_"  overflow="visible"/>
		</clipPath>
		<g clip-path="url(#SVGID_12_)">
			<path d="M169.953,80.599V72.02h3.651c0.918,0,1.585,0.077,2.001,0.231c0.416,0.154,0.749,0.428,0.999,0.822
				s0.375,0.845,0.375,1.352c0,0.644-0.189,1.175-0.568,1.595s-0.945,0.684-1.699,0.793c0.375,0.218,0.685,0.458,0.929,0.72
				s0.573,0.726,0.987,1.393l1.049,1.674h-2.074l-1.254-1.867c-0.445-0.667-0.75-1.087-0.914-1.261s-0.338-0.292-0.521-0.357
				c-0.184-0.064-0.475-0.097-0.874-0.097h-0.352v3.582H169.953z M171.687,75.648h1.284c0.832,0,1.352-0.035,1.559-0.105
				s0.369-0.191,0.486-0.363c0.117-0.172,0.176-0.386,0.176-0.644c0-0.289-0.077-0.521-0.231-0.699
				c-0.154-0.177-0.372-0.29-0.653-0.336c-0.141-0.02-0.563-0.029-1.266-0.029h-1.354V75.648z"/>
			<path d="M178.613,80.599V72.02h2.784c1.055,0,1.742,0.043,2.063,0.128c0.492,0.129,0.904,0.409,1.236,0.84
				s0.498,0.988,0.498,1.671c0,0.527-0.096,0.97-0.287,1.329s-0.435,0.641-0.729,0.846c-0.295,0.205-0.595,0.34-0.899,0.407
				c-0.414,0.082-1.014,0.123-1.799,0.123h-1.131v3.236H178.613z M180.348,73.471v2.435h0.95c0.684,0,1.141-0.045,1.371-0.135
				c0.23-0.089,0.411-0.23,0.542-0.421c0.131-0.191,0.196-0.414,0.196-0.667c0-0.312-0.092-0.57-0.275-0.772s-0.416-0.33-0.697-0.38
				c-0.207-0.039-0.623-0.059-1.248-0.059H180.348z"/>
			<path d="M186.196,78.322l1.594-0.193c0.051,0.406,0.188,0.716,0.41,0.931s0.492,0.322,0.809,0.322
				c0.34,0,0.626-0.129,0.858-0.386s0.349-0.604,0.349-1.042c0-0.414-0.111-0.741-0.334-0.983c-0.223-0.242-0.495-0.363-0.814-0.363
				c-0.211,0-0.463,0.041-0.756,0.123l0.182-1.34c0.445,0.012,0.786-0.085,1.02-0.29c0.234-0.205,0.352-0.477,0.352-0.816
				c0-0.289-0.086-0.519-0.258-0.69c-0.172-0.172-0.401-0.258-0.686-0.258c-0.281,0-0.521,0.098-0.721,0.293
				c-0.199,0.195-0.32,0.479-0.363,0.854l-1.518-0.257c0.105-0.519,0.265-0.933,0.478-1.244c0.213-0.31,0.51-0.554,0.891-0.731
				c0.381-0.177,0.808-0.266,1.28-0.266c0.809,0,1.458,0.257,1.946,0.772c0.402,0.421,0.604,0.897,0.604,1.428
				c0,0.753-0.412,1.354-1.236,1.803c0.492,0.105,0.886,0.341,1.181,0.708s0.442,0.81,0.442,1.329c0,0.753-0.275,1.395-0.826,1.925
				c-0.551,0.53-1.236,0.796-2.057,0.796c-0.778,0-1.422-0.224-1.934-0.67C186.575,79.628,186.278,79.044,186.196,78.322z"/>
		</g>
	</g>
	<g clip-path="url(#SVGID_2_)">
		<defs>
			<rect id="SVGID_13_" x="169.684" y="115.834" width="41.509" height="13.082"/>
		</defs>
		<clipPath id="SVGID_14_">
			<use xlink:href="#SVGID_13_"  overflow="visible"/>
		</clipPath>
		<g clip-path="url(#SVGID_14_)">
			<path d="M170.562,126.743v-8.579h3.651c0.918,0,1.585,0.077,2.001,0.231c0.416,0.154,0.749,0.428,0.999,0.822
				s0.375,0.845,0.375,1.352c0,0.644-0.189,1.175-0.568,1.595s-0.945,0.684-1.699,0.793c0.375,0.218,0.685,0.458,0.929,0.72
				s0.573,0.726,0.987,1.393l1.049,1.674h-2.074l-1.254-1.867c-0.445-0.667-0.75-1.087-0.914-1.261s-0.338-0.292-0.521-0.357
				c-0.184-0.064-0.475-0.097-0.874-0.097h-0.352v3.582H170.562z M172.296,121.792h1.284c0.832,0,1.352-0.035,1.559-0.105
				s0.369-0.191,0.486-0.363c0.117-0.172,0.176-0.386,0.176-0.644c0-0.289-0.077-0.521-0.231-0.699
				c-0.154-0.177-0.372-0.29-0.653-0.336c-0.141-0.02-0.563-0.029-1.266-0.029h-1.354V121.792z"/>
			<path d="M179.222,126.743v-8.579h2.784c1.055,0,1.742,0.043,2.063,0.128c0.492,0.129,0.904,0.409,1.236,0.84
				s0.498,0.988,0.498,1.671c0,0.527-0.096,0.97-0.287,1.329s-0.435,0.641-0.729,0.846c-0.295,0.205-0.595,0.34-0.899,0.407
				c-0.414,0.082-1.014,0.123-1.799,0.123h-1.131v3.236H179.222z M180.957,119.615v2.435h0.95c0.684,0,1.141-0.045,1.371-0.135
				c0.23-0.089,0.411-0.23,0.542-0.421c0.131-0.191,0.196-0.414,0.196-0.667c0-0.312-0.092-0.57-0.275-0.772s-0.416-0.33-0.697-0.38
				c-0.207-0.039-0.623-0.059-1.248-0.059H180.957z"/>
			<path d="M192.425,125.216v1.527h-5.772c0.063-0.577,0.25-1.125,0.563-1.642c0.313-0.517,0.93-1.203,1.852-2.057
				c0.742-0.69,1.198-1.159,1.366-1.404c0.227-0.339,0.34-0.675,0.34-1.007c0-0.366-0.099-0.648-0.296-0.845
				c-0.197-0.197-0.47-0.296-0.817-0.296c-0.344,0-0.618,0.104-0.821,0.311c-0.203,0.207-0.32,0.55-0.352,1.03l-1.641-0.164
				c0.098-0.905,0.404-1.555,0.92-1.949s1.16-0.591,1.934-0.591c0.848,0,1.514,0.228,1.998,0.685s0.727,1.024,0.727,1.703
				c0,0.386-0.069,0.754-0.208,1.103s-0.358,0.715-0.659,1.097c-0.199,0.254-0.559,0.619-1.078,1.094
				c-0.52,0.476-0.849,0.792-0.988,0.948c-0.139,0.156-0.251,0.308-0.337,0.457H192.425z"/>
		</g>
	</g>
	<g clip-path="url(#SVGID_2_)">
		<defs>
			<rect id="SVGID_15_" x="169.075" y="161.887" width="41.533" height="13.202"/>
		</defs>
		<clipPath id="SVGID_16_">
			<use xlink:href="#SVGID_15_"  overflow="visible"/>
		</clipPath>
		<g clip-path="url(#SVGID_16_)">
			<path d="M169.953,172.916v-8.579h3.651c0.918,0,1.585,0.077,2.001,0.231c0.416,0.154,0.749,0.428,0.999,0.822
				s0.375,0.845,0.375,1.352c0,0.644-0.189,1.175-0.568,1.595s-0.945,0.684-1.699,0.793c0.375,0.218,0.685,0.458,0.929,0.72
				s0.573,0.726,0.987,1.393l1.049,1.674h-2.074l-1.254-1.867c-0.445-0.667-0.75-1.087-0.914-1.261s-0.338-0.292-0.521-0.357
				c-0.184-0.064-0.475-0.097-0.874-0.097h-0.352v3.582H169.953z M171.687,167.965h1.284c0.832,0,1.352-0.035,1.559-0.105
				s0.369-0.191,0.486-0.363c0.117-0.172,0.176-0.386,0.176-0.644c0-0.289-0.077-0.521-0.231-0.699
				c-0.154-0.177-0.372-0.29-0.653-0.336c-0.141-0.02-0.563-0.029-1.266-0.029h-1.354V167.965z"/>
			<path d="M178.613,172.916v-8.579h2.784c1.055,0,1.742,0.043,2.063,0.128c0.492,0.129,0.904,0.409,1.236,0.84
				s0.498,0.988,0.498,1.671c0,0.527-0.096,0.97-0.287,1.329s-0.435,0.641-0.729,0.846c-0.295,0.205-0.595,0.34-0.899,0.407
				c-0.414,0.082-1.014,0.123-1.799,0.123h-1.131v3.236H178.613z M180.348,165.788v2.435h0.95c0.684,0,1.141-0.045,1.371-0.135
				c0.23-0.089,0.411-0.23,0.542-0.421c0.131-0.191,0.196-0.414,0.196-0.667c0-0.312-0.092-0.57-0.275-0.772s-0.416-0.33-0.697-0.38
				c-0.207-0.039-0.623-0.059-1.248-0.059H180.348z"/>
			<path d="M190.468,172.916h-1.647v-6.197c-0.602,0.562-1.311,0.977-2.127,1.247v-1.493c0.43-0.14,0.896-0.407,1.4-0.799
				s0.85-0.849,1.038-1.372h1.336V172.916z"/>
		</g>
	</g>
	
		<line clip-path="url(#SVGID_2_)" fill="none" stroke="#000000" stroke-width="0.7239" stroke-linejoin="round" stroke-miterlimit="10" x1="170.402" y1="177.841" x2="170.402" y2="188.026"/>
	
		<line clip-path="url(#SVGID_2_)" fill="none" stroke="#000000" stroke-width="0.7239" stroke-linejoin="round" stroke-miterlimit="10" x1="170.042" y1="132.271" x2="170.042" y2="142.457"/>
	
		<line clip-path="url(#SVGID_2_)" fill="none" stroke="#000000" stroke-width="0.7239" stroke-linejoin="round" stroke-miterlimit="10" x1="170.402" y1="86.101" x2="170.402" y2="95.704"/>
	<g clip-path="url(#SVGID_2_)">
		<defs>
			<rect id="SVGID_17_" x="124.091" y="55.396" width="41.509" height="13.202"/>
		</defs>
		<clipPath id="SVGID_18_">
			<use xlink:href="#SVGID_17_"  overflow="visible"/>
		</clipPath>
		<g clip-path="url(#SVGID_18_)">
			<path d="M124.911,66.424v-8.579h1.734v8.579H124.911z"/>
			<path d="M129.517,66.424l-2.051-8.579h1.775l1.295,5.893l1.571-5.893h2.063l1.506,5.993l1.318-5.993h1.747l-2.086,8.579h-1.84
				l-1.711-6.414l-1.705,6.414H129.517z"/>
			<path d="M139.275,64.147l1.594-0.193c0.051,0.406,0.188,0.716,0.41,0.931s0.492,0.322,0.809,0.322
				c0.34,0,0.626-0.129,0.858-0.386s0.349-0.604,0.349-1.042c0-0.414-0.111-0.741-0.334-0.983c-0.223-0.242-0.495-0.363-0.814-0.363
				c-0.211,0-0.463,0.041-0.756,0.123l0.182-1.34c0.445,0.012,0.786-0.085,1.02-0.29c0.234-0.205,0.352-0.477,0.352-0.816
				c0-0.289-0.086-0.519-0.258-0.69c-0.172-0.172-0.401-0.258-0.686-0.258c-0.281,0-0.521,0.098-0.721,0.293
				c-0.199,0.195-0.32,0.479-0.363,0.854l-1.518-0.257c0.105-0.519,0.265-0.933,0.478-1.244c0.213-0.31,0.51-0.554,0.891-0.731
				c0.381-0.177,0.808-0.266,1.28-0.266c0.809,0,1.458,0.257,1.946,0.772c0.402,0.421,0.604,0.897,0.604,1.428
				c0,0.753-0.412,1.354-1.236,1.803c0.492,0.105,0.886,0.341,1.181,0.708s0.442,0.81,0.442,1.329c0,0.753-0.275,1.395-0.826,1.925
				c-0.551,0.53-1.236,0.796-2.057,0.796c-0.778,0-1.422-0.224-1.934-0.67C139.654,65.454,139.357,64.869,139.275,64.147z"/>
		</g>
	</g>
	<g clip-path="url(#SVGID_2_)">
		<defs>
			<rect id="SVGID_19_" x="123.852" y="109.607" width="41.509" height="13.058"/>
		</defs>
		<clipPath id="SVGID_20_">
			<use xlink:href="#SVGID_19_"  overflow="visible"/>
		</clipPath>
		<g clip-path="url(#SVGID_20_)">
			<path d="M124.671,120.637v-8.579h1.734v8.579H124.671z"/>
			<path d="M129.277,120.637l-2.051-8.579h1.775l1.295,5.893l1.571-5.893h2.063l1.506,5.993l1.318-5.993h1.747l-2.086,8.579h-1.84
				l-1.711-6.414l-1.705,6.414H129.277z"/>
			<path d="M144.655,119.109v1.527h-5.772c0.063-0.577,0.25-1.125,0.563-1.642c0.313-0.517,0.93-1.203,1.852-2.057
				c0.742-0.69,1.198-1.159,1.366-1.404c0.227-0.339,0.34-0.675,0.34-1.007c0-0.366-0.099-0.648-0.296-0.845
				c-0.197-0.197-0.47-0.296-0.817-0.296c-0.344,0-0.618,0.104-0.821,0.311c-0.203,0.207-0.32,0.55-0.352,1.03l-1.641-0.164
				c0.098-0.905,0.404-1.555,0.92-1.949s1.16-0.591,1.934-0.591c0.848,0,1.514,0.228,1.998,0.685s0.727,1.024,0.727,1.703
				c0,0.386-0.069,0.754-0.208,1.103s-0.358,0.715-0.659,1.097c-0.199,0.254-0.559,0.619-1.078,1.094
				c-0.52,0.476-0.849,0.792-0.988,0.948c-0.139,0.156-0.251,0.308-0.337,0.457H144.655z"/>
		</g>
	</g>
	<g clip-path="url(#SVGID_2_)">
		<defs>
			<rect id="SVGID_21_" x="123.852" y="161.766" width="41.509" height="13.082"/>
		</defs>
		<clipPath id="SVGID_22_">
			<use xlink:href="#SVGID_21_"  overflow="visible"/>
		</clipPath>
		<g clip-path="url(#SVGID_22_)">
			<path d="M124.671,172.795v-8.579h1.734v8.579H124.671z"/>
			<path d="M129.277,172.795l-2.051-8.579h1.775l1.295,5.893l1.571-5.893h2.063l1.506,5.993l1.318-5.993h1.747l-2.086,8.579h-1.84
				l-1.711-6.414l-1.705,6.414H129.277z"/>
			<path d="M143.308,172.795h-1.647v-6.197c-0.602,0.562-1.311,0.977-2.127,1.247v-1.493c0.43-0.14,0.896-0.407,1.4-0.799
				s0.85-0.849,1.038-1.372h1.336V172.795z"/>
		</g>
	</g>
	<g clip-path="url(#SVGID_2_)">
		<defs>
			<rect id="SVGID_23_" x="57.132" y="148.104" width="41.389" height="13.178"/>
		</defs>
		<clipPath id="SVGID_24_">
			<use xlink:href="#SVGID_23_"  overflow="visible"/>
		</clipPath>
		<g clip-path="url(#SVGID_24_)">
			<path d="M58.004,159.135v-8.579h6.37v1.451h-4.635v1.902h4.313v1.446h-4.313v2.335h4.799v1.445H58.004z"/>
			<path d="M67.251,159.135l-2.051-8.579h1.775l1.295,5.893l1.571-5.893h2.063l1.506,5.993l1.318-5.993h1.747l-2.086,8.579h-1.84
				l-1.711-6.414l-1.705,6.414H67.251z"/>
			<path d="M81.27,159.135h-1.647v-6.197c-0.602,0.562-1.311,0.977-2.127,1.247v-1.493c0.43-0.14,0.896-0.407,1.4-0.799
				s0.85-0.849,1.038-1.372h1.336V159.135z"/>
		</g>
	</g>
	<g clip-path="url(#SVGID_2_)">
		<defs>
			<rect id="SVGID_25_" x="56.649" y="88.029" width="41.509" height="13.058"/>
		</defs>
		<clipPath id="SVGID_26_">
			<use xlink:href="#SVGID_25_"  overflow="visible"/>
		</clipPath>
		<g clip-path="url(#SVGID_26_)">
			<path d="M57.521,99.059v-8.579h6.37v1.451h-4.635v1.902h4.313v1.446h-4.313v2.335h4.799v1.445H57.521z"/>
			<path d="M66.768,99.059l-2.051-8.579h1.775l1.295,5.893l1.571-5.893h2.063l1.506,5.993l1.318-5.993h1.747l-2.086,8.579h-1.84
				l-1.711-6.414l-1.705,6.414H66.768z"/>
			<path d="M82.134,97.531v1.527h-5.772c0.063-0.577,0.25-1.125,0.563-1.642c0.313-0.517,0.93-1.203,1.852-2.057
				c0.742-0.69,1.198-1.159,1.366-1.404c0.227-0.339,0.34-0.675,0.34-1.007c0-0.366-0.099-0.648-0.296-0.845
				c-0.197-0.197-0.47-0.296-0.817-0.296c-0.344,0-0.618,0.104-0.821,0.311c-0.203,0.207-0.32,0.55-0.352,1.03l-1.641-0.164
				c0.098-0.905,0.404-1.555,0.92-1.949s1.16-0.591,1.934-0.591c0.848,0,1.514,0.228,1.998,0.685s0.727,1.024,0.727,1.703
				c0,0.386-0.069,0.754-0.208,1.103s-0.358,0.715-0.659,1.097c-0.199,0.254-0.559,0.619-1.078,1.094
				c-0.52,0.476-0.849,0.792-0.988,0.948c-0.139,0.156-0.251,0.308-0.337,0.457H82.134z"/>
		</g>
	</g>
	<g clip-path="url(#SVGID_2_)">
		<defs>
			<rect id="SVGID_27_" x="87.484" y="3.718" width="38.515" height="31.667"/>
		</defs>
		<clipPath id="SVGID_28_">
			<use xlink:href="#SVGID_27_"  overflow="visible"/>
		</clipPath>
		<g clip-path="url(#SVGID_28_)">
			<path d="M88.363,14.632V6.053h3.223c0.656,0,1.183,0.087,1.579,0.26c0.396,0.174,0.707,0.441,0.932,0.802
				s0.337,0.738,0.337,1.132c0,0.367-0.1,0.712-0.299,1.036c-0.199,0.324-0.5,0.585-0.902,0.784c0.52,0.152,0.919,0.412,1.198,0.778
				s0.419,0.8,0.419,1.299c0,0.402-0.085,0.775-0.255,1.121c-0.17,0.346-0.38,0.612-0.63,0.799c-0.25,0.188-0.563,0.329-0.94,0.424
				c-0.377,0.096-0.839,0.144-1.386,0.144H88.363z M89.5,9.658h1.858c0.504,0,0.865-0.033,1.084-0.1
				c0.289-0.086,0.507-0.229,0.653-0.427c0.146-0.199,0.22-0.449,0.22-0.749c0-0.285-0.068-0.536-0.205-0.752
				c-0.137-0.217-0.332-0.365-0.586-0.445s-0.689-0.12-1.307-0.12H89.5V9.658z M89.5,13.62h2.139c0.367,0,0.625-0.014,0.773-0.041
				c0.262-0.047,0.48-0.125,0.656-0.234c0.176-0.109,0.32-0.268,0.434-0.477c0.113-0.208,0.17-0.449,0.17-0.723
				c0-0.32-0.082-0.598-0.246-0.834c-0.164-0.236-0.392-0.401-0.683-0.497s-0.71-0.144-1.257-0.144H89.5V13.62z"/>
			<path d="M100.382,14.632v-0.913c-0.484,0.703-1.143,1.054-1.975,1.054c-0.367,0-0.71-0.07-1.028-0.211
				c-0.318-0.14-0.555-0.317-0.709-0.529c-0.154-0.213-0.263-0.473-0.325-0.782c-0.043-0.207-0.064-0.534-0.064-0.983V8.417h1.055
				v3.447c0,0.55,0.021,0.921,0.064,1.112c0.066,0.277,0.207,0.495,0.422,0.653c0.215,0.158,0.48,0.237,0.797,0.237
				c0.317,0,0.613-0.081,0.891-0.243c0.277-0.162,0.474-0.382,0.589-0.662c0.115-0.279,0.173-0.684,0.173-1.214v-3.33h1.055v6.215
				H100.382z"/>
			<path d="M103.146,14.632V9.236h-0.932V8.417h0.932V7.755c0-0.417,0.037-0.728,0.111-0.93c0.102-0.273,0.28-0.495,0.536-0.665
				c0.256-0.169,0.614-0.254,1.075-0.254c0.297,0,0.625,0.035,0.985,0.105l-0.158,0.919c-0.219-0.039-0.426-0.059-0.622-0.059
				c-0.32,0-0.547,0.068-0.68,0.205c-0.133,0.137-0.199,0.392-0.199,0.767v0.574h1.213v0.819h-1.213v5.396H103.146z"/>
			<path d="M106.48,14.632V9.236h-0.932V8.417h0.932V7.755c0-0.417,0.037-0.728,0.111-0.93c0.102-0.273,0.28-0.495,0.536-0.665
				c0.256-0.169,0.614-0.254,1.075-0.254c0.297,0,0.625,0.035,0.985,0.105l-0.158,0.919c-0.219-0.039-0.426-0.059-0.622-0.059
				c-0.32,0-0.547,0.068-0.68,0.205c-0.133,0.137-0.199,0.392-0.199,0.767v0.574h1.213v0.819h-1.213v5.396H106.48z"/>
			<path d="M113.966,12.63l1.09,0.135c-0.172,0.636-0.49,1.129-0.955,1.48s-1.059,0.527-1.781,0.527c-0.911,0-1.632-0.28-2.166-0.84
				c-0.533-0.56-0.8-1.345-0.8-2.355c0-1.045,0.27-1.857,0.809-2.435s1.238-0.866,2.098-0.866c0.832,0,1.512,0.283,2.039,0.849
				c0.527,0.566,0.791,1.362,0.791,2.388c0,0.063-0.002,0.156-0.006,0.281h-4.641c0.039,0.683,0.232,1.206,0.58,1.568
				s0.781,0.544,1.301,0.544c0.387,0,0.717-0.102,0.99-0.304C113.589,13.399,113.806,13.075,113.966,12.63z M110.503,10.927h3.475
				c-0.047-0.522-0.18-0.915-0.398-1.176c-0.336-0.406-0.771-0.608-1.307-0.608c-0.485,0-0.892,0.162-1.222,0.486
				S110.538,10.385,110.503,10.927z"/>
			<path d="M116.381,14.632V8.417h0.949v0.942c0.242-0.44,0.466-0.731,0.671-0.872c0.205-0.141,0.431-0.211,0.677-0.211
				c0.355,0,0.717,0.113,1.084,0.339l-0.363,0.978c-0.258-0.152-0.516-0.229-0.774-0.229c-0.23,0-0.438,0.069-0.621,0.208
				s-0.314,0.331-0.393,0.576c-0.117,0.375-0.176,0.784-0.176,1.229v3.254H116.381z"/>
		</g>
		<g clip-path="url(#SVGID_28_)">
			<path d="M91.052,28.527v-0.854l3.961-4.541c-0.449,0.023-0.846,0.035-1.19,0.035h-2.537v-0.854h5.086v0.696l-3.37,3.944
				l-0.65,0.72c0.473-0.035,0.916-0.053,1.33-0.053h2.877v0.907H91.052z"/>
			<path d="M97.133,25.42c0-1.151,0.32-2.003,0.961-2.558c0.535-0.46,1.188-0.69,1.958-0.69c0.855,0,1.555,0.28,2.098,0.84
				c0.543,0.56,0.814,1.333,0.814,2.32c0,0.8-0.12,1.429-0.36,1.887c-0.24,0.458-0.59,0.814-1.049,1.068
				c-0.459,0.253-0.96,0.38-1.503,0.38c-0.872,0-1.576-0.279-2.113-0.837C97.401,27.273,97.133,26.469,97.133,25.42z M98.217,25.42
				c0,0.796,0.174,1.392,0.521,1.788s0.785,0.594,1.313,0.594c0.523,0,0.959-0.199,1.307-0.597s0.521-1.004,0.521-1.82
				c0-0.769-0.175-1.351-0.524-1.747c-0.35-0.396-0.785-0.594-1.304-0.594c-0.528,0-0.965,0.197-1.313,0.591
				C98.391,24.029,98.217,24.624,98.217,25.42z"/>
			<path d="M104.212,28.527v-6.215h0.949v0.884c0.457-0.683,1.117-1.024,1.981-1.024c0.375,0,0.72,0.067,1.034,0.202
				c0.314,0.134,0.55,0.311,0.706,0.529c0.156,0.219,0.266,0.478,0.328,0.778c0.039,0.195,0.059,0.537,0.059,1.024v3.821h-1.055
				v-3.78c0-0.429-0.041-0.75-0.123-0.963c-0.082-0.212-0.228-0.382-0.437-0.509c-0.209-0.126-0.454-0.19-0.735-0.19
				c-0.45,0-0.837,0.143-1.164,0.427s-0.489,0.825-0.489,1.621v3.394H104.212z"/>
			<path d="M115.159,26.526l1.09,0.135c-0.172,0.636-0.49,1.129-0.955,1.48s-1.059,0.527-1.781,0.527
				c-0.911,0-1.632-0.28-2.166-0.84c-0.533-0.56-0.8-1.345-0.8-2.355c0-1.045,0.27-1.857,0.809-2.435s1.238-0.866,2.098-0.866
				c0.832,0,1.512,0.283,2.039,0.849c0.527,0.566,0.791,1.362,0.791,2.388c0,0.063-0.002,0.156-0.006,0.281h-4.641
				c0.039,0.683,0.232,1.206,0.58,1.568s0.781,0.544,1.301,0.544c0.387,0,0.717-0.102,0.99-0.304
				C114.782,27.294,114.999,26.971,115.159,26.526z M111.695,24.823h3.475c-0.047-0.522-0.18-0.915-0.398-1.176
				c-0.336-0.406-0.771-0.608-1.307-0.608c-0.485,0-0.892,0.162-1.222,0.486S111.73,24.281,111.695,24.823z"/>
		</g>
	</g>
	
		<line clip-path="url(#SVGID_2_)" fill="none" stroke="#000000" stroke-width="0.7239" stroke-linejoin="round" stroke-miterlimit="10" x1="105.836" y1="32.365" x2="105.836" y2="66.784"/>
	<polygon clip-path="url(#SVGID_2_)" fill-rule="evenodd" clip-rule="evenodd" points="101.874,66.544 105.836,74.339 
		109.679,66.544 	"/>
	<g clip-path="url(#SVGID_2_)">
		<defs>
			<rect id="SVGID_29_" x="301.689" y="94.86" width="62.517" height="50.832"/>
		</defs>
		<clipPath id="SVGID_30_">
			<use xlink:href="#SVGID_29_"  overflow="visible"/>
		</clipPath>
		<g clip-path="url(#SVGID_30_)">
			<path d="M302.615,105.77V97.19h2.959c0.668,0,1.178,0.041,1.529,0.123c0.492,0.113,0.912,0.318,1.261,0.615
				c0.453,0.382,0.792,0.871,1.017,1.466c0.225,0.595,0.337,1.275,0.337,2.04c0,0.651-0.076,1.229-0.229,1.732
				c-0.152,0.503-0.348,0.919-0.586,1.249c-0.238,0.33-0.5,0.589-0.783,0.778c-0.283,0.189-0.625,0.333-1.025,0.43
				c-0.4,0.098-0.86,0.146-1.38,0.146H302.615z M303.751,104.757h1.834c0.566,0,1.011-0.053,1.333-0.158s0.579-0.253,0.771-0.445
				c0.27-0.269,0.479-0.631,0.631-1.085c0.149-0.455,0.226-1.006,0.226-1.653c0-0.897-0.148-1.587-0.443-2.069
				c-0.295-0.481-0.653-0.805-1.075-0.968c-0.305-0.117-0.795-0.176-1.471-0.176h-1.805V104.757z"/>
			<path d="M315.208,105.003c-0.391,0.332-0.767,0.566-1.128,0.702c-0.361,0.137-0.749,0.205-1.163,0.205
				c-0.684,0-1.209-0.167-1.576-0.5s-0.551-0.76-0.551-1.279c0-0.304,0.069-0.582,0.208-0.834c0.139-0.251,0.32-0.454,0.545-0.605
				c0.225-0.152,0.478-0.267,0.759-0.345c0.207-0.055,0.52-0.107,0.938-0.158c0.852-0.102,1.479-0.222,1.881-0.363
				c0.004-0.145,0.006-0.236,0.006-0.275c0-0.429-0.1-0.731-0.299-0.907c-0.27-0.238-0.67-0.357-1.201-0.357
				c-0.496,0-0.862,0.087-1.099,0.26c-0.236,0.174-0.411,0.481-0.524,0.922l-1.031-0.141c0.094-0.441,0.248-0.797,0.463-1.068
				s0.525-0.48,0.932-0.626c0.406-0.146,0.877-0.22,1.412-0.22c0.531,0,0.963,0.063,1.295,0.188
				c0.332,0.125,0.576,0.282,0.732,0.471c0.156,0.189,0.266,0.428,0.328,0.717c0.035,0.179,0.053,0.503,0.053,0.971v1.405
				c0,0.979,0.022,1.599,0.067,1.858s0.134,0.508,0.267,0.746h-1.102C315.309,105.551,315.239,105.295,315.208,105.003z
				 M315.12,102.65c-0.383,0.156-0.957,0.289-1.723,0.398c-0.434,0.063-0.74,0.133-0.92,0.21c-0.18,0.078-0.318,0.192-0.416,0.342
				c-0.098,0.15-0.146,0.317-0.146,0.5c0,0.281,0.106,0.515,0.319,0.702c0.213,0.188,0.524,0.281,0.935,0.281
				c0.406,0,0.768-0.089,1.084-0.267c0.316-0.177,0.549-0.42,0.697-0.729c0.113-0.238,0.17-0.589,0.17-1.053V102.65z"/>
			<path d="M317.774,108.163l-0.117-0.989c0.23,0.063,0.432,0.094,0.604,0.094c0.234,0,0.422-0.039,0.563-0.117
				c0.141-0.078,0.256-0.188,0.346-0.328c0.066-0.105,0.174-0.367,0.322-0.784c0.02-0.059,0.051-0.144,0.094-0.257l-2.361-6.227
				h1.137l1.295,3.599c0.168,0.456,0.318,0.936,0.451,1.439c0.121-0.484,0.266-0.956,0.434-1.416l1.33-3.623h1.055l-2.367,6.32
				c-0.254,0.683-0.451,1.153-0.592,1.41c-0.188,0.347-0.402,0.602-0.645,0.764c-0.242,0.162-0.531,0.243-0.867,0.243
				C318.25,108.292,318.024,108.249,317.774,108.163z"/>
			<path d="M323.714,105.77V97.19h1.055v8.579H323.714z"/>
			<path d="M326.41,98.402V97.19h1.055v1.211H326.41z M326.41,105.77v-6.215h1.055v6.215H326.41z"/>
			<path d="M331.313,104.827l0.152,0.931c-0.297,0.063-0.563,0.094-0.797,0.094c-0.383,0-0.68-0.061-0.891-0.182
				c-0.211-0.121-0.359-0.28-0.445-0.477c-0.086-0.197-0.129-0.611-0.129-1.243v-3.576h-0.773v-0.819h0.773v-1.539l1.049-0.632
				v2.171h1.061v0.819h-1.061v3.634c0,0.301,0.019,0.494,0.056,0.58s0.098,0.154,0.182,0.205c0.084,0.051,0.204,0.076,0.36,0.076
				C330.967,104.868,331.122,104.854,331.313,104.827z"/>
		</g>
		<g clip-path="url(#SVGID_30_)">
			<path d="M302.087,116.442c0-1.151,0.32-2.003,0.961-2.558c0.535-0.46,1.188-0.69,1.957-0.69c0.855,0,1.555,0.28,2.098,0.84
				c0.543,0.56,0.814,1.333,0.814,2.32c0,0.8-0.12,1.429-0.36,1.887c-0.24,0.458-0.59,0.814-1.049,1.068
				c-0.459,0.253-0.96,0.38-1.503,0.38c-0.871,0-1.575-0.279-2.112-0.837C302.356,118.295,302.087,117.492,302.087,116.442z
				 M303.171,116.442c0,0.796,0.174,1.392,0.521,1.788s0.785,0.594,1.313,0.594c0.523,0,0.959-0.199,1.307-0.597
				s0.521-1.004,0.521-1.82c0-0.769-0.175-1.351-0.524-1.747c-0.35-0.396-0.784-0.594-1.304-0.594c-0.527,0-0.965,0.197-1.313,0.591
				C303.345,115.052,303.171,115.646,303.171,116.442z"/>
			<path d="M313.227,117.273l1.037,0.134c-0.113,0.714-0.403,1.273-0.87,1.677s-1.04,0.606-1.72,0.606
				c-0.852,0-1.536-0.278-2.054-0.834c-0.518-0.556-0.776-1.353-0.776-2.391c0-0.671,0.111-1.258,0.334-1.762
				c0.223-0.503,0.562-0.88,1.017-1.132c0.455-0.251,0.95-0.377,1.485-0.377c0.676,0,1.229,0.171,1.658,0.512
				s0.705,0.826,0.826,1.454l-1.025,0.158c-0.098-0.417-0.271-0.731-0.519-0.942c-0.248-0.21-0.548-0.316-0.899-0.316
				c-0.531,0-0.963,0.19-1.295,0.57s-0.498,0.982-0.498,1.806c0,0.835,0.16,1.441,0.48,1.82s0.738,0.568,1.254,0.568
				c0.414,0,0.76-0.127,1.037-0.38S313.153,117.8,313.227,117.273z"/>
			<path d="M319.227,117.273l1.037,0.134c-0.113,0.714-0.403,1.273-0.87,1.677s-1.04,0.606-1.72,0.606
				c-0.852,0-1.536-0.278-2.054-0.834c-0.518-0.556-0.776-1.353-0.776-2.391c0-0.671,0.111-1.258,0.334-1.762
				c0.223-0.503,0.562-0.88,1.017-1.132c0.455-0.251,0.95-0.377,1.485-0.377c0.676,0,1.229,0.171,1.658,0.512
				s0.705,0.826,0.826,1.454l-1.025,0.158c-0.098-0.417-0.271-0.731-0.519-0.942c-0.248-0.21-0.548-0.316-0.899-0.316
				c-0.531,0-0.963,0.19-1.295,0.57s-0.498,0.982-0.498,1.806c0,0.835,0.16,1.441,0.48,1.82s0.738,0.568,1.254,0.568
				c0.414,0,0.76-0.127,1.037-0.38S319.153,117.8,319.227,117.273z"/>
			<path d="M325.246,119.55v-0.913c-0.484,0.703-1.143,1.054-1.975,1.054c-0.367,0-0.71-0.07-1.028-0.211
				c-0.318-0.14-0.555-0.317-0.709-0.529c-0.154-0.213-0.263-0.473-0.325-0.782c-0.043-0.207-0.064-0.534-0.064-0.983v-3.851h1.055
				v3.447c0,0.55,0.021,0.921,0.064,1.112c0.066,0.277,0.207,0.495,0.422,0.653c0.215,0.158,0.48,0.237,0.797,0.237
				s0.613-0.081,0.891-0.243c0.277-0.162,0.474-0.382,0.589-0.662c0.115-0.279,0.173-0.684,0.173-1.214v-3.33h1.055v6.215H325.246z"
				/>
			<path d="M327.877,121.932v-8.597h0.961v0.808c0.227-0.316,0.482-0.553,0.768-0.711c0.285-0.158,0.631-0.237,1.037-0.237
				c0.531,0,1,0.137,1.406,0.41s0.713,0.658,0.92,1.156s0.311,1.043,0.311,1.636c0,0.636-0.114,1.208-0.343,1.718
				c-0.229,0.509-0.561,0.899-0.996,1.17c-0.436,0.271-0.894,0.407-1.374,0.407c-0.352,0-0.667-0.074-0.946-0.223
				c-0.279-0.148-0.509-0.335-0.688-0.562v3.025H327.877z M328.833,116.478c0,0.8,0.162,1.391,0.486,1.773s0.717,0.574,1.178,0.574
				c0.469,0,0.87-0.198,1.204-0.594s0.501-1.009,0.501-1.84c0-0.792-0.163-1.385-0.489-1.779s-0.716-0.591-1.169-0.591
				c-0.449,0-0.847,0.21-1.192,0.629C329.005,115.068,328.833,115.678,328.833,116.478z"/>
			<path d="M334.57,112.182v-1.211h1.055v1.211H334.57z M334.57,119.55v-6.215h1.055v6.215H334.57z"/>
			<path d="M341.49,117.548l1.09,0.135c-0.172,0.636-0.49,1.129-0.955,1.48s-1.059,0.527-1.781,0.527c-0.91,0-1.632-0.28-2.165-0.84
				c-0.533-0.56-0.8-1.345-0.8-2.355c0-1.045,0.27-1.857,0.809-2.435s1.238-0.866,2.098-0.866c0.832,0,1.512,0.283,2.039,0.849
				c0.527,0.566,0.791,1.362,0.791,2.388c0,0.063-0.002,0.156-0.006,0.281h-4.641c0.039,0.683,0.232,1.206,0.58,1.568
				s0.781,0.544,1.301,0.544c0.387,0,0.717-0.102,0.99-0.304C341.113,118.317,341.33,117.993,341.49,117.548z M338.027,115.845
				h3.475c-0.047-0.522-0.18-0.915-0.398-1.176c-0.336-0.406-0.771-0.608-1.307-0.608c-0.484,0-0.892,0.162-1.222,0.486
				S338.062,115.303,338.027,115.845z"/>
			<path d="M347.833,119.55v-0.784c-0.395,0.617-0.975,0.925-1.74,0.925c-0.496,0-0.952-0.137-1.368-0.41
				c-0.416-0.273-0.738-0.655-0.967-1.144c-0.229-0.49-0.343-1.053-0.343-1.688c0-0.621,0.104-1.183,0.311-1.688
				s0.518-0.893,0.932-1.162s0.877-0.404,1.389-0.404c0.375,0,0.709,0.079,1.002,0.237c0.293,0.158,0.531,0.364,0.715,0.618v-3.078
				h1.049v8.579H347.833z M344.5,116.448c0,0.796,0.168,1.391,0.504,1.785s0.732,0.591,1.189,0.591c0.461,0,0.853-0.188,1.175-0.565
				s0.483-0.951,0.483-1.723c0-0.851-0.164-1.475-0.492-1.873s-0.732-0.597-1.213-0.597c-0.469,0-0.86,0.191-1.175,0.573
				C344.657,115.022,344.5,115.625,344.5,116.448z"/>
		</g>
		<g clip-path="url(#SVGID_30_)">
			<path d="M301.923,133.356v-0.854l3.961-4.541c-0.449,0.023-0.846,0.035-1.189,0.035h-2.537v-0.854h5.086v0.696l-3.369,3.944
				l-0.65,0.72c0.473-0.035,0.916-0.053,1.33-0.053h2.877v0.907H301.923z"/>
			<path d="M307.992,130.249c0-1.151,0.32-2.003,0.961-2.558c0.535-0.46,1.188-0.69,1.957-0.69c0.855,0,1.555,0.28,2.098,0.84
				c0.543,0.56,0.814,1.333,0.814,2.32c0,0.8-0.12,1.429-0.36,1.887c-0.24,0.458-0.59,0.814-1.049,1.068
				c-0.459,0.253-0.96,0.38-1.503,0.38c-0.871,0-1.575-0.279-2.112-0.837C308.26,132.102,307.992,131.298,307.992,130.249z
				 M309.076,130.249c0,0.796,0.174,1.392,0.521,1.788s0.785,0.594,1.313,0.594c0.523,0,0.959-0.199,1.307-0.597
				s0.521-1.004,0.521-1.82c0-0.769-0.175-1.351-0.524-1.747c-0.35-0.396-0.784-0.594-1.304-0.594c-0.527,0-0.965,0.197-1.313,0.591
				C309.25,128.858,309.076,129.453,309.076,130.249z"/>
			<path d="M315.071,133.356v-6.215h0.949v0.884c0.457-0.683,1.117-1.024,1.98-1.024c0.375,0,0.72,0.067,1.034,0.202
				c0.314,0.134,0.55,0.311,0.706,0.529c0.156,0.219,0.266,0.478,0.328,0.778c0.039,0.195,0.059,0.537,0.059,1.024v3.821h-1.055
				v-3.78c0-0.429-0.041-0.75-0.123-0.963c-0.082-0.212-0.228-0.382-0.437-0.509c-0.209-0.126-0.454-0.19-0.735-0.19
				c-0.449,0-0.837,0.143-1.163,0.427s-0.489,0.825-0.489,1.621v3.394H315.071z"/>
			<path d="M326.017,131.355l1.09,0.135c-0.172,0.636-0.49,1.129-0.955,1.48s-1.059,0.527-1.781,0.527
				c-0.91,0-1.632-0.28-2.165-0.84c-0.533-0.56-0.8-1.345-0.8-2.355c0-1.045,0.27-1.857,0.809-2.435s1.238-0.866,2.098-0.866
				c0.832,0,1.512,0.283,2.039,0.849c0.527,0.566,0.791,1.362,0.791,2.388c0,0.063-0.002,0.156-0.006,0.281h-4.641
				c0.039,0.683,0.232,1.206,0.58,1.568s0.781,0.544,1.301,0.544c0.387,0,0.717-0.102,0.99-0.304
				C325.64,132.124,325.857,131.8,326.017,131.355z M322.554,129.652h3.475c-0.047-0.522-0.18-0.915-0.398-1.176
				c-0.336-0.406-0.771-0.608-1.307-0.608c-0.484,0-0.892,0.162-1.222,0.486S322.589,129.11,322.554,129.652z"/>
			<path d="M328.022,131.501l1.043-0.164c0.059,0.417,0.222,0.737,0.489,0.96c0.268,0.222,0.642,0.333,1.122,0.333
				c0.484,0,0.844-0.099,1.078-0.295c0.234-0.197,0.352-0.428,0.352-0.694c0-0.238-0.104-0.425-0.311-0.562
				c-0.145-0.094-0.504-0.213-1.078-0.357c-0.773-0.195-1.31-0.364-1.608-0.506s-0.525-0.339-0.68-0.591
				c-0.154-0.251-0.231-0.529-0.231-0.833c0-0.277,0.063-0.534,0.19-0.77c0.127-0.236,0.3-0.432,0.519-0.588
				c0.164-0.121,0.388-0.223,0.671-0.307s0.587-0.126,0.911-0.126c0.488,0,0.917,0.07,1.286,0.211
				c0.369,0.14,0.642,0.331,0.817,0.57c0.176,0.24,0.297,0.561,0.363,0.963l-1.031,0.14c-0.047-0.32-0.183-0.569-0.407-0.749
				c-0.225-0.179-0.542-0.269-0.952-0.269c-0.484,0-0.83,0.08-1.037,0.24c-0.207,0.16-0.311,0.348-0.311,0.562
				c0,0.137,0.043,0.259,0.129,0.369c0.086,0.113,0.221,0.207,0.404,0.281c0.105,0.039,0.416,0.129,0.932,0.27
				c0.746,0.199,1.267,0.362,1.562,0.488c0.295,0.127,0.526,0.312,0.694,0.553s0.252,0.542,0.252,0.901
				c0,0.351-0.103,0.682-0.308,0.992s-0.501,0.55-0.888,0.72c-0.387,0.17-0.824,0.255-1.313,0.255c-0.809,0-1.425-0.168-1.849-0.503
				S328.139,132.161,328.022,131.501z"/>
		</g>
	</g>
	
		<line clip-path="url(#SVGID_2_)" fill="none" stroke="#000000" stroke-width="0.7239" stroke-linejoin="round" stroke-miterlimit="10" x1="295.442" y1="116.316" x2="254.63" y2="86.46"/>
	<polygon clip-path="url(#SVGID_2_)" fill-rule="evenodd" clip-rule="evenodd" points="257.285,83.589 248.641,82.144 
		252.723,89.819 	"/>
	
		<line clip-path="url(#SVGID_2_)" fill="none" stroke="#000000" stroke-width="0.7239" stroke-linejoin="round" stroke-miterlimit="10" x1="296.041" y1="116.316" x2="255.359" y2="156.842"/>
	<polygon clip-path="url(#SVGID_2_)" fill-rule="evenodd" clip-rule="evenodd" points="252.843,153.849 250.088,162.128 
		258.373,159.376 	"/>
	
		<line clip-path="url(#SVGID_2_)" fill="none" stroke="#000000" stroke-width="0.7239" stroke-linejoin="round" stroke-miterlimit="10" x1="296.041" y1="116.316" x2="251.995" y2="116.437"/>
	<polygon clip-path="url(#SVGID_2_)" fill-rule="evenodd" clip-rule="evenodd" points="252.245,112.479 244.44,116.437 
		252.245,120.275 	"/>
</g>
<g>
</g>
<g>
</g>
</svg>
