<?xml version="1.0" encoding="utf-8"?>
<!-- Generator: Adobe Illustrator 16.0.0, SVG Export Plug-In . SVG Version: 6.00 Build 0)  -->
<!DOCTYPE svg PUBLIC "-//W3C//DTD SVG 1.1//EN" "http://www.w3.org/Graphics/SVG/1.1/DTD/svg11.dtd">
<svg version="1.1" id="Layer_1" xmlns="http://www.w3.org/2000/svg" xmlns:xlink="http://www.w3.org/1999/xlink" x="0px" y="0px"
	 width="491.417px" height="159.481px" viewBox="0 0 491.417 159.481" enable-background="new 0 0 491.417 159.481"
	 xml:space="preserve">
<g>
	<defs>
		<rect id="SVGID_1_" width="344.875" height="156.121"/>
	</defs>
	<clipPath id="SVGID_2_">
		<use xlink:href="#SVGID_1_"  overflow="visible"/>
	</clipPath>
	<rect x="0.845" y="4.073" clip-path="url(#SVGID_2_)" width="2.992" height="150.409"/>
	<rect x="2.413" y="151.772" clip-path="url(#SVGID_2_)" width="340.916" height="3.012"/>
	<rect x="2.413" y="33.316" clip-path="url(#SVGID_2_)" width="318.473" height="2.985"/>
	<rect x="142.499" y="1.564" clip-path="url(#SVGID_2_)" width="2.992" height="150.508"/>
	<rect x="318.591" y="4.073" clip-path="url(#SVGID_2_)" width="3.017" height="150.409"/>
	<rect x="248.13" y="4.073" clip-path="url(#SVGID_2_)" width="3.017" height="150.409"/>
	<polygon clip-path="url(#SVGID_2_)" points="3.958,90.99 3.958,93.977 142.379,93.857 142.379,90.87 	"/>
	
		<rect x="0.362" y="50.051" clip-path="url(#SVGID_2_)" fill-rule="evenodd" clip-rule="evenodd" fill="#FFFFFF" width="3.475" height="27.854"/>
	
		<rect x="0.362" y="50.051" clip-path="url(#SVGID_2_)" fill="none" stroke="#000000" stroke-width="0.7231" stroke-linejoin="round" stroke-miterlimit="10" width="3.475" height="27.854"/>
	
		<rect x="0.362" y="104.074" clip-path="url(#SVGID_2_)" fill-rule="evenodd" clip-rule="evenodd" fill="#FFFFFF" width="2.872" height="31.807"/>
	
		<rect x="0.362" y="104.074" clip-path="url(#SVGID_2_)" fill="none" stroke="#000000" stroke-width="0.7231" stroke-linejoin="round" stroke-miterlimit="10" width="2.872" height="31.807"/>
	
		<rect x="27.125" y="151.591" clip-path="url(#SVGID_2_)" fill-rule="evenodd" clip-rule="evenodd" fill="#FFFFFF" width="81.881" height="3.253"/>
	
		<rect x="27.125" y="151.591" clip-path="url(#SVGID_2_)" fill="none" stroke="#000000" stroke-width="0.7231" stroke-linejoin="round" stroke-miterlimit="10" width="81.881" height="3.253"/>
	
		<rect x="154.378" y="151.35" clip-path="url(#SVGID_2_)" fill-rule="evenodd" clip-rule="evenodd" fill="#FFFFFF" width="31.468" height="2.892"/>
	
		<rect x="154.378" y="151.35" clip-path="url(#SVGID_2_)" fill="none" stroke="#000000" stroke-width="0.7231" stroke-linejoin="round" stroke-miterlimit="10" width="31.468" height="2.892"/>
	
		<rect x="201.798" y="151.35" clip-path="url(#SVGID_2_)" fill-rule="evenodd" clip-rule="evenodd" fill="#FFFFFF" width="31.444" height="2.892"/>
	
		<rect x="201.798" y="151.35" clip-path="url(#SVGID_2_)" fill="none" stroke="#000000" stroke-width="0.7231" stroke-linejoin="round" stroke-miterlimit="10" width="31.444" height="2.892"/>
	
		<rect x="262.175" y="151.35" clip-path="url(#SVGID_2_)" fill-rule="evenodd" clip-rule="evenodd" fill="#FFFFFF" width="45.513" height="2.892"/>
	
		<rect x="262.175" y="151.35" clip-path="url(#SVGID_2_)" fill="none" stroke="#000000" stroke-width="0.7231" stroke-linejoin="round" stroke-miterlimit="10" width="45.513" height="2.892"/>
	<g clip-path="url(#SVGID_2_)">
		<defs>
			<rect id="SVGID_3_" x="63.395" y="55.809" width="56.181" height="26.892"/>
		</defs>
		<clipPath id="SVGID_4_">
			<use xlink:href="#SVGID_3_"  overflow="visible"/>
		</clipPath>
		<g clip-path="url(#SVGID_4_)">
			<path d="M73.5,69.133h-2.212l-0.879-2.282h-4.026l-0.831,2.282h-2.157l3.923-10.047h2.15L73.5,69.133z M69.756,65.158
				l-1.388-3.728l-1.36,3.728H69.756z"/>
		</g>
	</g>
	<g clip-path="url(#SVGID_2_)">
		<defs>
			<rect id="SVGID_5_" x="63.395" y="108.627" width="56.181" height="26.892"/>
		</defs>
		<clipPath id="SVGID_6_">
			<use xlink:href="#SVGID_5_"  overflow="visible"/>
		</clipPath>
		<g clip-path="url(#SVGID_6_)">
			<path d="M64.425,111.905h4.026c0.797,0,1.391,0.033,1.783,0.1s0.742,0.205,1.051,0.415c0.309,0.21,0.566,0.49,0.772,0.84
				c0.206,0.349,0.31,0.741,0.31,1.175c0,0.471-0.127,0.902-0.381,1.295c-0.254,0.393-0.599,0.688-1.034,0.884
				c0.614,0.178,1.085,0.482,1.416,0.912c0.33,0.429,0.495,0.935,0.495,1.515c0,0.457-0.107,0.901-0.32,1.333
				c-0.213,0.432-0.504,0.777-0.873,1.035c-0.369,0.258-0.823,0.417-1.363,0.477c-0.339,0.037-1.157,0.059-2.453,0.068h-3.428
				V111.905z M66.458,113.577v2.323h1.333c0.792,0,1.285-0.011,1.477-0.034c0.348-0.041,0.622-0.161,0.821-0.36
				s0.299-0.46,0.299-0.785c0-0.311-0.086-0.563-0.258-0.757c-0.172-0.194-0.427-0.312-0.766-0.353
				c-0.202-0.022-0.781-0.034-1.738-0.034H66.458z M66.458,117.573v2.687h1.882c0.732,0,1.198-0.021,1.395-0.062
				c0.302-0.055,0.548-0.188,0.738-0.401c0.19-0.212,0.285-0.497,0.285-0.854c0-0.301-0.073-0.557-0.22-0.768
				c-0.146-0.21-0.358-0.363-0.635-0.459c-0.277-0.096-0.878-0.144-1.804-0.144H66.458z"/>
		</g>
	</g>
	<g clip-path="url(#SVGID_2_)">
		<defs>
			<rect id="SVGID_7_" x="189.08" y="77.423" width="56.06" height="26.892"/>
		</defs>
		<clipPath id="SVGID_8_">
			<use xlink:href="#SVGID_7_"  overflow="visible"/>
		</clipPath>
		<g clip-path="url(#SVGID_8_)">
			<path d="M196.547,87.052l1.972,0.624c-0.302,1.097-0.805,1.911-1.508,2.443s-1.595,0.798-2.676,0.798
				c-1.337,0-2.437-0.456-3.297-1.367c-0.861-0.912-1.292-2.158-1.292-3.739c0-1.672,0.433-2.971,1.298-3.896
				s2.003-1.388,3.414-1.388c1.232,0,2.233,0.363,3.002,1.089c0.458,0.43,0.801,1.046,1.03,1.851l-2.013,0.479
				c-0.119-0.521-0.368-0.932-0.746-1.233s-0.837-0.452-1.377-0.452c-0.747,0-1.352,0.267-1.817,0.802s-0.697,1.4-0.697,2.597
				c0,1.271,0.229,2.175,0.687,2.714s1.053,0.809,1.786,0.809c0.54,0,1.005-0.171,1.395-0.514S196.377,87.788,196.547,87.052z"/>
		</g>
	</g>
	<g clip-path="url(#SVGID_2_)">
		<defs>
			<rect id="SVGID_9_" x="279.481" y="77.423" width="56.181" height="26.892"/>
		</defs>
		<clipPath id="SVGID_10_">
			<use xlink:href="#SVGID_9_"  overflow="visible"/>
		</clipPath>
		<g clip-path="url(#SVGID_10_)">
			<path d="M280.498,80.699h3.717c0.838,0,1.477,0.064,1.917,0.192c0.591,0.174,1.097,0.482,1.518,0.925
				c0.422,0.443,0.742,0.986,0.962,1.628s0.33,1.434,0.33,2.375c0,0.827-0.104,1.54-0.31,2.138
				c-0.252,0.731-0.611,1.323-1.078,1.775c-0.353,0.342-0.829,0.61-1.429,0.802c-0.449,0.142-1.049,0.212-1.801,0.212h-3.826V80.699
				z M282.531,82.398v6.655h1.519c0.568,0,0.978-0.032,1.229-0.096c0.33-0.083,0.604-0.222,0.821-0.418
				c0.218-0.196,0.395-0.52,0.532-0.97c0.138-0.45,0.206-1.063,0.206-1.84s-0.068-1.373-0.206-1.789
				c-0.138-0.416-0.33-0.74-0.577-0.973c-0.247-0.233-0.561-0.391-0.941-0.473c-0.283-0.064-0.84-0.096-1.669-0.096H282.531z"/>
		</g>
	</g>
</g>
<g>
</g>
<g>
</g>
</svg>
