<?xml version="1.0" encoding="utf-8"?>
<!-- Generator: Adobe Illustrator 16.0.0, SVG Export Plug-In . SVG Version: 6.00 Build 0)  -->
<!DOCTYPE svg PUBLIC "-//W3C//DTD SVG 1.1//EN" "http://www.w3.org/Graphics/SVG/1.1/DTD/svg11.dtd">
<svg version="1.1" id="Layer_1" xmlns="http://www.w3.org/2000/svg" xmlns:xlink="http://www.w3.org/1999/xlink" x="0px" y="0px"
	 width="507.875px" height="238.829px" viewBox="0 0 507.875 238.829" enable-background="new 0 0 507.875 238.829"
	 xml:space="preserve">
<g>
	<polygon fill-rule="evenodd" clip-rule="evenodd" fill="#99CCFF" points="352.963,237.952 302.754,237.952 302.754,94.283 
		403.92,94.283 403.92,237.952 352.963,237.952 	"/>
	<polyline fill="none" stroke="#000000" stroke-width="0" stroke-linecap="square" stroke-miterlimit="10" points="352.963,237.952 
		302.754,237.952 302.754,94.283 403.92,94.283 403.92,237.952 352.963,237.952 	"/>
	<rect fill-rule="evenodd" clip-rule="evenodd" fill="#FFFFFF" width="0" height="0"/>
	<g>
		<path d="M321.459,172.104v-12.855h8.686v1.518h-6.982v3.98h6.041v1.518h-6.041v5.84H321.459z"/>
		<path d="M338.492,170.955c-0.586,0.497-1.148,0.848-1.689,1.052c-0.543,0.205-1.123,0.308-1.744,0.308
			c-1.023,0-1.813-0.25-2.361-0.75c-0.551-0.5-0.826-1.139-0.826-1.916c0-0.456,0.104-0.873,0.313-1.25
			c0.207-0.377,0.479-0.68,0.816-0.907c0.336-0.229,0.715-0.4,1.137-0.518c0.311-0.082,0.779-0.16,1.404-0.236
			c1.277-0.152,2.217-0.334,2.82-0.544c0.006-0.216,0.008-0.354,0.008-0.412c0-0.644-0.148-1.096-0.447-1.359
			c-0.404-0.356-1.004-0.535-1.801-0.535c-0.744,0-1.293,0.131-1.646,0.391s-0.615,0.721-0.785,1.381l-1.547-0.21
			c0.141-0.661,0.373-1.194,0.695-1.601c0.32-0.406,0.787-0.719,1.395-0.938c0.609-0.219,1.314-0.329,2.117-0.329
			c0.797,0,1.443,0.094,1.941,0.281c0.498,0.187,0.863,0.422,1.098,0.706c0.234,0.283,0.398,0.642,0.492,1.074
			c0.053,0.269,0.078,0.754,0.078,1.455v2.104c0,1.468,0.033,2.396,0.102,2.784c0.066,0.389,0.199,0.762,0.398,1.118h-1.65
			C338.645,171.776,338.539,171.394,338.492,170.955z M338.361,167.43c-0.574,0.234-1.436,0.433-2.582,0.597
			c-0.65,0.093-1.109,0.198-1.379,0.315s-0.477,0.288-0.623,0.513c-0.146,0.226-0.221,0.476-0.221,0.75
			c0,0.421,0.16,0.771,0.479,1.052c0.32,0.281,0.787,0.421,1.4,0.421c0.609,0,1.152-0.133,1.625-0.398
			c0.475-0.266,0.822-0.63,1.045-1.092c0.17-0.356,0.256-0.883,0.256-1.578V167.43z"/>
		<path d="M342.156,172.104v-9.313h1.424v1.324c0.684-1.023,1.674-1.535,2.967-1.535c0.563,0,1.08,0.102,1.551,0.303
			c0.471,0.202,0.824,0.467,1.059,0.794s0.398,0.716,0.492,1.166c0.059,0.293,0.088,0.804,0.088,1.535v5.726h-1.582v-5.665
			c0-0.643-0.061-1.123-0.184-1.442c-0.123-0.318-0.342-0.572-0.654-0.763c-0.314-0.189-0.682-0.285-1.102-0.285
			c-0.674,0-1.256,0.214-1.744,0.641s-0.732,1.236-0.732,2.429v5.086H342.156z"/>
		<path d="M366.527,167.597l1.703,0.43c-0.357,1.396-1,2.462-1.928,3.196c-0.928,0.733-2.063,1.1-3.402,1.1
			c-1.389,0-2.516-0.281-3.385-0.846c-0.871-0.564-1.531-1.381-1.986-2.451c-0.453-1.069-0.68-2.219-0.68-3.446
			c0-1.338,0.256-2.506,0.768-3.503c0.514-0.996,1.242-1.754,2.188-2.271c0.945-0.518,1.986-0.776,3.121-0.776
			c1.289,0,2.371,0.327,3.25,0.982c0.879,0.654,1.49,1.575,1.836,2.762l-1.678,0.395c-0.299-0.936-0.732-1.616-1.301-2.043
			c-0.566-0.427-1.281-0.641-2.143-0.641c-0.988,0-1.816,0.237-2.48,0.711s-1.131,1.109-1.4,1.907s-0.404,1.621-0.404,2.468
			c0,1.094,0.16,2.048,0.479,2.863c0.32,0.815,0.816,1.425,1.488,1.828c0.674,0.403,1.402,0.605,2.188,0.605
			c0.953,0,1.762-0.274,2.424-0.824S366.293,168.678,366.527,167.597z"/>
		<path d="M369.305,167.447c0-1.725,0.48-3.002,1.439-3.832c0.803-0.689,1.781-1.035,2.934-1.035c1.283,0,2.33,0.42,3.145,1.259
			c0.813,0.839,1.221,1.998,1.221,3.477c0,1.199-0.18,2.142-0.541,2.828c-0.359,0.688-0.883,1.221-1.572,1.601
			c-0.688,0.38-1.438,0.57-2.252,0.57c-1.305,0-2.361-0.418-3.166-1.255C369.707,170.224,369.305,169.02,369.305,167.447z
			 M370.93,167.447c0,1.192,0.26,2.086,0.781,2.679c0.521,0.594,1.178,0.891,1.967,0.891c0.785,0,1.438-0.299,1.959-0.895
			c0.521-0.597,0.781-1.506,0.781-2.728c0-1.151-0.262-2.024-0.785-2.617c-0.525-0.594-1.176-0.891-1.955-0.891
			c-0.789,0-1.445,0.296-1.967,0.886C371.189,165.363,370.93,166.255,370.93,167.447z"/>
		<path d="M379.652,161.063v-1.815h1.582v1.815H379.652z M379.652,172.104v-9.313h1.582v9.313H379.652z"/>
		<path d="M383.371,172.104v-12.855h1.58v12.855H383.371z"/>
	</g>
	<polygon fill-rule="evenodd" clip-rule="evenodd" fill="#99CCFF" points="168.613,237.952 117.654,237.952 117.654,94.283 
		218.822,94.283 218.822,237.952 168.613,237.952 	"/>
	<polyline fill="none" stroke="#000000" stroke-width="0" stroke-linecap="square" stroke-miterlimit="10" points="168.613,237.952 
		117.654,237.952 117.654,94.283 218.822,94.283 218.822,237.952 168.613,237.952 	"/>
	<rect fill-rule="evenodd" clip-rule="evenodd" fill="#FFFFFF" width="0" height="0"/>
	<g>
		<path d="M136.552,172.104v-11.338h-4.242v-1.518h10.205v1.518h-4.259v11.338H136.552z"/>
		<path d="M152.963,159.248h1.704v7.428c0,1.292-0.146,2.317-0.439,3.078c-0.292,0.76-0.821,1.378-1.585,1.854
			s-1.767,0.714-3.008,0.714c-1.206,0-2.192-0.207-2.959-0.622s-1.314-1.016-1.642-1.802c-0.328-0.786-0.492-1.86-0.492-3.223
			v-7.428h1.704v7.419c0,1.116,0.104,1.939,0.312,2.469c0.208,0.528,0.565,0.937,1.071,1.223s1.125,0.43,1.857,0.43
			c1.253,0,2.146-0.283,2.679-0.851c0.533-0.566,0.799-1.657,0.799-3.271V159.248z"/>
		<path d="M162.447,172.104v-12.855h2.564l3.047,9.103c0.281,0.848,0.486,1.481,0.615,1.902c0.146-0.467,0.375-1.154,0.685-2.061
			l3.083-8.944h2.292v12.855h-1.642v-10.76l-3.741,10.76h-1.537l-3.724-10.943v10.943H162.447z"/>
		<path d="M177.289,161.063v-1.815h1.581v1.815H177.289z M177.289,172.104v-9.313h1.581v9.313H177.289z"/>
		<path d="M179.988,172.104l3.407-4.841l-3.153-4.472h1.976l1.432,2.184c0.269,0.415,0.486,0.763,0.65,1.043
			c0.257-0.386,0.495-0.728,0.711-1.025l1.572-2.201h1.888l-3.223,4.385l3.469,4.928h-1.941l-1.914-2.894l-0.51-0.78l-2.45,3.674
			H179.988z"/>
		<path d="M196.419,169.104l1.634,0.202c-0.258,0.952-0.735,1.692-1.432,2.218c-0.697,0.526-1.586,0.79-2.67,0.79
			c-1.364,0-2.445-0.42-3.245-1.259s-1.199-2.016-1.199-3.529c0-1.566,0.404-2.783,1.212-3.648c0.808-0.864,1.856-1.298,3.144-1.298
			c1.247,0,2.266,0.425,3.056,1.271c0.79,0.849,1.186,2.041,1.186,3.578c0,0.094-0.003,0.234-0.009,0.421h-6.956
			c0.059,1.023,0.348,1.807,0.87,2.35c0.521,0.544,1.171,0.816,1.949,0.816c0.58,0,1.075-0.152,1.484-0.456
			C195.854,170.256,196.179,169.771,196.419,169.104z M191.229,166.553h5.208c-0.07-0.783-0.269-1.371-0.597-1.763
			c-0.503-0.607-1.156-0.912-1.958-0.912c-0.726,0-1.336,0.243-1.831,0.729C191.555,165.092,191.282,165.74,191.229,166.553z"/>
		<path d="M199.768,172.104v-9.313h1.423v1.412c0.363-0.661,0.698-1.097,1.005-1.307c0.307-0.211,0.646-0.316,1.014-0.316
			c0.533,0,1.074,0.17,1.625,0.509l-0.545,1.465c-0.386-0.229-0.772-0.342-1.159-0.342c-0.345,0-0.656,0.104-0.931,0.311
			c-0.275,0.208-0.471,0.496-0.588,0.864c-0.176,0.562-0.264,1.175-0.264,1.842v4.875H199.768z"/>
	</g>
	
		<line fill="none" stroke="#000000" stroke-width="0" stroke-linecap="square" stroke-miterlimit="10" x1="447.385" y1="166.117" x2="413.662" y2="166.117"/>
	<polygon fill-rule="evenodd" clip-rule="evenodd" points="445.887,165.369 445.887,164.621 446.637,163.872 447.385,163.124 
		447.385,163.124 448.135,162.376 449.633,162.376 450.383,162.376 451.133,162.376 451.881,162.376 452.631,163.124 
		453.381,163.124 453.381,163.872 454.129,164.621 454.129,165.369 454.129,166.117 454.129,166.865 454.129,167.614 
		453.381,168.362 453.381,169.11 452.631,169.858 451.881,170.607 451.133,170.607 450.383,170.607 449.633,170.607 
		448.135,170.607 447.385,169.858 447.385,169.11 446.637,168.362 445.887,167.614 445.887,166.865 445.887,166.117 
		445.887,165.369 	"/>
	<polygon fill-rule="evenodd" clip-rule="evenodd" points="403.92,166.117 416.66,170.607 416.66,162.376 403.92,166.117 	"/>
	
		<line fill="none" stroke="#000000" stroke-width="0" stroke-linecap="square" stroke-miterlimit="10" x1="505.088" y1="166.117" x2="454.129" y2="166.117"/>
	<rect fill-rule="evenodd" clip-rule="evenodd" fill="#FFFFFF" width="0" height="0"/>
	<g>
		<path d="M411.303,140.396l1.271-0.111c0.061,0.509,0.201,0.927,0.42,1.253c0.221,0.326,0.563,0.59,1.027,0.792
			c0.463,0.201,0.984,0.302,1.563,0.302c0.516,0,0.969-0.076,1.363-0.229c0.395-0.152,0.688-0.362,0.879-0.628
			c0.193-0.267,0.289-0.557,0.289-0.871c0-0.319-0.092-0.599-0.277-0.837s-0.492-0.438-0.918-0.601
			c-0.273-0.106-0.879-0.271-1.814-0.496c-0.938-0.225-1.592-0.437-1.969-0.635c-0.486-0.255-0.848-0.57-1.088-0.948
			c-0.238-0.377-0.357-0.799-0.357-1.267c0-0.514,0.146-0.994,0.438-1.44c0.293-0.446,0.719-0.785,1.279-1.018
			c0.561-0.23,1.186-0.347,1.871-0.347c0.756,0,1.422,0.121,1.998,0.364c0.578,0.243,1.021,0.601,1.332,1.073
			c0.311,0.472,0.477,1.006,0.5,1.604l-1.293,0.097c-0.07-0.644-0.305-1.129-0.705-1.458c-0.402-0.328-0.994-0.492-1.777-0.492
			c-0.814,0-1.41,0.148-1.783,0.447s-0.559,0.658-0.559,1.08c0,0.365,0.131,0.666,0.396,0.902c0.258,0.235,0.938,0.478,2.033,0.725
			c1.096,0.248,1.848,0.465,2.256,0.649c0.594,0.273,1.031,0.619,1.314,1.038c0.281,0.419,0.424,0.901,0.424,1.447
			c0,0.542-0.156,1.052-0.467,1.53c-0.311,0.479-0.756,0.853-1.338,1.118s-1.236,0.399-1.965,0.399
			c-0.922,0-1.695-0.135-2.318-0.403c-0.623-0.268-1.111-0.672-1.467-1.211C411.508,141.687,411.32,141.076,411.303,140.396z"/>
		<path d="M425.654,141.292l1.293,0.159c-0.203,0.755-0.582,1.34-1.133,1.757c-0.551,0.416-1.256,0.625-2.113,0.625
			c-1.08,0-1.936-0.332-2.568-0.996s-0.949-1.596-0.949-2.795c0-1.24,0.318-2.202,0.959-2.888c0.639-0.685,1.469-1.027,2.488-1.027
			c0.988,0,1.795,0.336,2.42,1.007s0.939,1.615,0.939,2.832c0,0.074-0.004,0.186-0.008,0.333h-5.506
			c0.045,0.811,0.275,1.431,0.688,1.86c0.412,0.431,0.928,0.646,1.543,0.646c0.459,0,0.852-0.121,1.176-0.361
			S425.465,141.819,425.654,141.292z M421.545,139.271h4.123c-0.055-0.62-0.213-1.085-0.473-1.396
			c-0.398-0.48-0.916-0.722-1.551-0.722c-0.574,0-1.057,0.192-1.449,0.576C421.805,138.115,421.588,138.629,421.545,139.271z"/>
		<path d="M432.924,140.966l1.23,0.159c-0.135,0.847-0.479,1.51-1.033,1.989c-0.555,0.479-1.234,0.719-2.041,0.719
			c-1.01,0-1.822-0.33-2.436-0.989c-0.615-0.66-0.922-1.605-0.922-2.836c0-0.796,0.133-1.493,0.396-2.09s0.666-1.045,1.207-1.343
			c0.539-0.299,1.127-0.448,1.762-0.448c0.801,0,1.457,0.202,1.967,0.607s0.838,0.98,0.98,1.726l-1.217,0.187
			c-0.115-0.495-0.32-0.867-0.615-1.117s-0.65-0.375-1.066-0.375c-0.631,0-1.143,0.226-1.537,0.677s-0.59,1.165-0.59,2.142
			c0,0.99,0.189,1.71,0.568,2.159c0.381,0.449,0.877,0.674,1.488,0.674c0.492,0,0.902-0.15,1.23-0.452
			C432.627,142.053,432.834,141.591,432.924,140.966z"/>
		<path d="M434.389,139.979c0-1.365,0.379-2.376,1.141-3.033c0.635-0.546,1.408-0.819,2.32-0.819c1.016,0,1.846,0.332,2.49,0.996
			s0.967,1.582,0.967,2.753c0,0.948-0.143,1.694-0.428,2.238s-0.701,0.967-1.244,1.268c-0.545,0.301-1.141,0.451-1.785,0.451
			c-1.033,0-1.867-0.331-2.506-0.993C434.707,142.178,434.389,141.225,434.389,139.979z M435.674,139.979
			c0,0.944,0.207,1.651,0.619,2.121s0.932,0.705,1.557,0.705c0.621,0,1.139-0.236,1.551-0.709c0.412-0.472,0.619-1.191,0.619-2.158
			c0-0.912-0.207-1.603-0.623-2.072c-0.414-0.47-0.93-0.705-1.547-0.705c-0.625,0-1.145,0.234-1.557,0.701
			C435.881,138.33,435.674,139.036,435.674,139.979z"/>
		<path d="M442.359,143.666v-7.372h1.127v1.048c0.543-0.81,1.326-1.215,2.35-1.215c0.445,0,0.854,0.08,1.227,0.239
			c0.373,0.16,0.652,0.369,0.838,0.629c0.186,0.259,0.316,0.566,0.391,0.923c0.045,0.231,0.068,0.637,0.068,1.215v4.533h-1.25
			v-4.484c0-0.509-0.049-0.89-0.146-1.143c-0.098-0.252-0.271-0.453-0.518-0.604c-0.248-0.15-0.539-0.226-0.873-0.226
			c-0.533,0-0.994,0.169-1.381,0.507s-0.58,0.979-0.58,1.923v4.026H442.359z"/>
		<path d="M454.656,143.666v-0.931c-0.469,0.731-1.156,1.098-2.064,1.098c-0.59,0-1.131-0.162-1.625-0.486
			c-0.492-0.324-0.875-0.776-1.146-1.357c-0.271-0.58-0.406-1.248-0.406-2.003c0-0.735,0.123-1.403,0.369-2.002
			c0.244-0.6,0.613-1.059,1.105-1.378c0.49-0.319,1.039-0.479,1.646-0.479c0.445,0,0.842,0.094,1.189,0.281s0.631,0.432,0.848,0.732
			v-3.651h1.244v10.177H454.656z M450.699,139.986c0,0.944,0.199,1.65,0.6,2.118c0.398,0.467,0.869,0.701,1.41,0.701
			c0.547,0,1.012-0.224,1.395-0.67c0.383-0.447,0.574-1.129,0.574-2.045c0-1.009-0.195-1.749-0.584-2.222
			c-0.391-0.472-0.869-0.708-1.439-0.708c-0.557,0-1.021,0.227-1.395,0.681C450.887,138.295,450.699,139.011,450.699,139.986z"/>
		<path d="M462.189,142.757c-0.463,0.394-0.91,0.671-1.338,0.833c-0.43,0.162-0.889,0.243-1.381,0.243
			c-0.811,0-1.434-0.198-1.869-0.594s-0.654-0.901-0.654-1.517c0-0.361,0.082-0.691,0.248-0.989
			c0.164-0.299,0.379-0.538,0.646-0.719c0.266-0.181,0.566-0.317,0.9-0.41c0.244-0.064,0.615-0.127,1.111-0.187
			c1.01-0.121,1.754-0.265,2.232-0.431c0.004-0.171,0.006-0.28,0.006-0.326c0-0.51-0.117-0.868-0.354-1.076
			c-0.32-0.282-0.795-0.424-1.426-0.424c-0.588,0-1.023,0.104-1.303,0.31c-0.281,0.205-0.488,0.57-0.623,1.093l-1.223-0.166
			c0.109-0.523,0.293-0.945,0.549-1.268c0.254-0.321,0.623-0.569,1.105-0.742c0.48-0.174,1.039-0.261,1.676-0.261
			c0.629,0,1.141,0.074,1.535,0.223c0.395,0.147,0.684,0.334,0.869,0.559s0.316,0.508,0.391,0.851
			c0.041,0.213,0.063,0.597,0.063,1.152v1.666c0,1.161,0.025,1.896,0.078,2.204c0.055,0.308,0.16,0.603,0.316,0.885h-1.307
			C462.311,143.407,462.227,143.104,462.189,142.757z M462.086,139.966c-0.455,0.186-1.137,0.343-2.045,0.472
			c-0.514,0.074-0.879,0.158-1.092,0.25c-0.213,0.093-0.377,0.229-0.492,0.406c-0.117,0.179-0.174,0.376-0.174,0.594
			c0,0.333,0.125,0.611,0.379,0.833c0.252,0.223,0.621,0.333,1.107,0.333c0.482,0,0.912-0.104,1.287-0.315s0.65-0.499,0.826-0.864
			c0.135-0.282,0.203-0.699,0.203-1.25V139.966z"/>
		<path d="M464.863,143.666v-7.372h1.127v1.117c0.287-0.522,0.553-0.867,0.795-1.034c0.244-0.167,0.512-0.25,0.805-0.25
			c0.42,0,0.85,0.135,1.285,0.402l-0.432,1.159c-0.305-0.18-0.611-0.271-0.916-0.271c-0.275,0-0.52,0.082-0.738,0.247
			c-0.217,0.164-0.373,0.392-0.465,0.684c-0.139,0.444-0.209,0.93-0.209,1.458v3.859H464.863z"/>
		<path d="M469.322,146.505l-0.139-1.173c0.273,0.074,0.512,0.111,0.715,0.111c0.279,0,0.502-0.047,0.668-0.139
			c0.166-0.093,0.303-0.223,0.41-0.389c0.078-0.125,0.207-0.436,0.383-0.931c0.023-0.069,0.061-0.171,0.111-0.306l-2.803-7.386h1.35
			l1.535,4.269c0.199,0.542,0.379,1.111,0.537,1.708c0.143-0.573,0.314-1.134,0.514-1.68l1.578-4.297h1.252l-2.809,7.497
			c-0.303,0.81-0.535,1.367-0.703,1.673c-0.223,0.412-0.477,0.714-0.764,0.906c-0.289,0.191-0.631,0.288-1.029,0.288
			C469.887,146.658,469.619,146.607,469.322,146.505z"/>
		<path d="M484.701,142.757c-0.465,0.394-0.91,0.671-1.34,0.833c-0.428,0.162-0.889,0.243-1.379,0.243
			c-0.813,0-1.436-0.198-1.871-0.594s-0.652-0.901-0.652-1.517c0-0.361,0.082-0.691,0.246-0.989
			c0.164-0.299,0.381-0.538,0.646-0.719c0.268-0.181,0.566-0.317,0.9-0.41c0.246-0.064,0.617-0.127,1.113-0.187
			c1.01-0.121,1.754-0.265,2.23-0.431c0.006-0.171,0.008-0.28,0.008-0.326c0-0.51-0.119-0.868-0.355-1.076
			c-0.32-0.282-0.795-0.424-1.424-0.424c-0.59,0-1.023,0.104-1.305,0.31c-0.281,0.205-0.488,0.57-0.623,1.093l-1.223-0.166
			c0.111-0.523,0.295-0.945,0.549-1.268c0.256-0.321,0.623-0.569,1.105-0.742c0.482-0.174,1.041-0.261,1.676-0.261
			c0.631,0,1.143,0.074,1.537,0.223c0.393,0.147,0.684,0.334,0.869,0.559s0.314,0.508,0.389,0.851
			c0.041,0.213,0.063,0.597,0.063,1.152v1.666c0,1.161,0.027,1.896,0.08,2.204s0.158,0.603,0.316,0.885h-1.307
			C484.82,143.407,484.738,143.104,484.701,142.757z M484.596,139.966c-0.453,0.186-1.135,0.343-2.043,0.472
			c-0.516,0.074-0.879,0.158-1.092,0.25c-0.213,0.093-0.379,0.229-0.494,0.406c-0.115,0.179-0.174,0.376-0.174,0.594
			c0,0.333,0.127,0.611,0.379,0.833c0.252,0.223,0.623,0.333,1.109,0.333c0.482,0,0.91-0.104,1.285-0.315
			c0.377-0.211,0.652-0.499,0.828-0.864c0.135-0.282,0.201-0.699,0.201-1.25V139.966z"/>
		<path d="M487.395,134.926v-1.437h1.252v1.437H487.395z M487.395,143.666v-7.372h1.252v7.372H487.395z"/>
		<path d="M490.381,143.666v-7.372h1.127v1.117c0.287-0.522,0.553-0.867,0.795-1.034c0.244-0.167,0.512-0.25,0.805-0.25
			c0.42,0,0.85,0.135,1.285,0.402l-0.432,1.159c-0.305-0.18-0.611-0.271-0.916-0.271c-0.275,0-0.52,0.082-0.738,0.247
			c-0.217,0.164-0.373,0.392-0.465,0.684c-0.139,0.444-0.209,0.93-0.209,1.458v3.859H490.381z"/>
	</g>
	<rect fill-rule="evenodd" clip-rule="evenodd" fill="#FFFFFF" width="0" height="0"/>
	<g>
		<path d="M411.588,159.377v-7.372h1.125v1.117c0.287-0.522,0.553-0.867,0.797-1.034c0.242-0.167,0.512-0.25,0.803-0.25
			c0.422,0,0.85,0.135,1.287,0.402l-0.432,1.159c-0.307-0.18-0.611-0.271-0.918-0.271c-0.273,0-0.52,0.082-0.736,0.247
			c-0.219,0.164-0.373,0.392-0.467,0.684c-0.139,0.444-0.209,0.93-0.209,1.458v3.859H411.588z"/>
		<path d="M421.154,157.003l1.293,0.159c-0.203,0.755-0.582,1.34-1.133,1.757c-0.551,0.416-1.256,0.625-2.113,0.625
			c-1.08,0-1.936-0.332-2.568-0.996s-0.949-1.596-0.949-2.795c0-1.24,0.318-2.202,0.959-2.888c0.639-0.685,1.469-1.027,2.488-1.027
			c0.988,0,1.795,0.336,2.42,1.007s0.939,1.615,0.939,2.832c0,0.074-0.004,0.186-0.008,0.333h-5.506
			c0.045,0.811,0.275,1.431,0.688,1.86c0.412,0.431,0.928,0.646,1.543,0.646c0.459,0,0.852-0.121,1.176-0.361
			S420.965,157.53,421.154,157.003z M417.045,154.982h4.123c-0.055-0.62-0.213-1.085-0.473-1.396
			c-0.398-0.48-0.916-0.722-1.551-0.722c-0.574,0-1.057,0.192-1.449,0.576C417.305,153.826,417.088,154.34,417.045,154.982z"/>
		<path d="M428.424,156.677l1.23,0.159c-0.135,0.847-0.479,1.51-1.031,1.989c-0.555,0.479-1.234,0.719-2.041,0.719
			c-1.012,0-1.822-0.33-2.438-0.989c-0.613-0.66-0.92-1.605-0.92-2.836c0-0.796,0.131-1.493,0.395-2.09
			c0.266-0.597,0.668-1.045,1.207-1.343c0.539-0.299,1.127-0.448,1.762-0.448c0.803,0,1.459,0.202,1.969,0.607
			s0.836,0.98,0.98,1.726l-1.217,0.187c-0.117-0.495-0.322-0.867-0.615-1.117c-0.295-0.25-0.65-0.375-1.068-0.375
			c-0.629,0-1.143,0.226-1.535,0.677c-0.395,0.451-0.592,1.165-0.592,2.142c0,0.99,0.189,1.71,0.57,2.159
			c0.379,0.449,0.875,0.674,1.488,0.674c0.49,0,0.9-0.15,1.23-0.452C428.127,157.764,428.336,157.302,428.424,156.677z"/>
		<path d="M430.361,150.637V149.2h1.252v1.437H430.361z M430.361,159.377v-7.372h1.252v7.372H430.361z"/>
		<path d="M433.348,159.377v-7.372h1.127v1.117c0.287-0.522,0.553-0.867,0.795-1.034c0.244-0.167,0.512-0.25,0.805-0.25
			c0.42,0,0.85,0.135,1.285,0.402l-0.432,1.159c-0.305-0.18-0.611-0.271-0.916-0.271c-0.275,0-0.52,0.082-0.738,0.247
			c-0.217,0.164-0.373,0.392-0.465,0.684c-0.139,0.444-0.209,0.93-0.209,1.458v3.859H433.348z"/>
		<path d="M442.68,156.677l1.23,0.159c-0.135,0.847-0.479,1.51-1.031,1.989c-0.555,0.479-1.234,0.719-2.041,0.719
			c-1.012,0-1.822-0.33-2.438-0.989c-0.613-0.66-0.92-1.605-0.92-2.836c0-0.796,0.131-1.493,0.395-2.09
			c0.266-0.597,0.668-1.045,1.207-1.343c0.539-0.299,1.127-0.448,1.762-0.448c0.803,0,1.459,0.202,1.969,0.607
			s0.836,0.98,0.98,1.726l-1.217,0.187c-0.117-0.495-0.322-0.867-0.615-1.117c-0.295-0.25-0.65-0.375-1.068-0.375
			c-0.629,0-1.143,0.226-1.535,0.677c-0.395,0.451-0.592,1.165-0.592,2.142c0,0.99,0.189,1.71,0.57,2.159
			c0.379,0.449,0.875,0.674,1.488,0.674c0.49,0,0.9-0.15,1.23-0.452C442.383,157.764,442.592,157.302,442.68,156.677z"/>
		<path d="M448.666,159.377v-6.4h-1.105v-0.972h1.105v-0.785c0-0.495,0.043-0.862,0.131-1.104c0.121-0.324,0.334-0.587,0.637-0.788
			c0.305-0.201,0.729-0.302,1.275-0.302c0.354,0,0.742,0.042,1.168,0.125l-0.188,1.09c-0.26-0.046-0.504-0.069-0.736-0.069
			c-0.381,0-0.648,0.081-0.807,0.243s-0.236,0.465-0.236,0.909v0.681h1.439v0.972h-1.439v6.4H448.666z"/>
		<path d="M452.109,159.377v-7.372h1.127v1.117c0.287-0.522,0.553-0.867,0.795-1.034c0.244-0.167,0.512-0.25,0.805-0.25
			c0.42,0,0.85,0.135,1.285,0.402l-0.432,1.159c-0.305-0.18-0.611-0.271-0.916-0.271c-0.275,0-0.52,0.082-0.738,0.247
			c-0.217,0.164-0.373,0.392-0.465,0.684c-0.139,0.444-0.209,0.93-0.209,1.458v3.859H452.109z"/>
		<path d="M456.156,155.69c0-1.365,0.381-2.376,1.141-3.033c0.635-0.546,1.408-0.819,2.322-0.819c1.016,0,1.844,0.332,2.488,0.996
			s0.967,1.582,0.967,2.753c0,0.948-0.143,1.694-0.428,2.238s-0.699,0.967-1.244,1.268s-1.139,0.451-1.783,0.451
			c-1.033,0-1.869-0.331-2.506-0.993C456.475,157.889,456.156,156.936,456.156,155.69z M457.443,155.69
			c0,0.944,0.205,1.651,0.619,2.121c0.412,0.47,0.932,0.705,1.557,0.705c0.621,0,1.139-0.236,1.551-0.709
			c0.412-0.472,0.619-1.191,0.619-2.158c0-0.912-0.209-1.603-0.623-2.072s-0.93-0.705-1.547-0.705c-0.625,0-1.145,0.234-1.557,0.701
			C457.648,154.041,457.443,154.747,457.443,155.69z"/>
		<path d="M464.129,159.377v-7.372h1.119v1.034c0.232-0.361,0.539-0.651,0.924-0.871s0.824-0.33,1.314-0.33
			c0.547,0,0.996,0.113,1.346,0.34c0.35,0.228,0.596,0.544,0.74,0.951c0.584-0.86,1.344-1.291,2.281-1.291
			c0.73,0,1.295,0.202,1.688,0.607c0.395,0.405,0.592,1.028,0.592,1.871v5.061h-1.244v-4.645c0-0.499-0.041-0.859-0.121-1.079
			c-0.082-0.22-0.229-0.396-0.441-0.531c-0.215-0.134-0.465-0.201-0.752-0.201c-0.52,0-0.949,0.173-1.293,0.518
			s-0.514,0.896-0.514,1.655v4.283h-1.252v-4.79c0-0.556-0.102-0.972-0.307-1.25c-0.203-0.277-0.537-0.416-1-0.416
			c-0.354,0-0.678,0.093-0.977,0.277c-0.299,0.186-0.516,0.456-0.65,0.813s-0.201,0.87-0.201,1.541v3.825H464.129z"/>
		<path d="M478.473,159.377v-1.014l4.699-5.387c-0.531,0.027-1.002,0.042-1.41,0.042h-3.01v-1.014h6.033v0.826l-3.998,4.679
			l-0.771,0.854c0.561-0.042,1.088-0.063,1.578-0.063h3.414v1.076H478.473z"/>
		<path d="M485.416,155.69c0-1.365,0.381-2.376,1.141-3.033c0.635-0.546,1.408-0.819,2.322-0.819c1.016,0,1.844,0.332,2.488,0.996
			s0.967,1.582,0.967,2.753c0,0.948-0.143,1.694-0.428,2.238s-0.699,0.967-1.244,1.268s-1.139,0.451-1.783,0.451
			c-1.033,0-1.869-0.331-2.506-0.993C485.734,157.889,485.416,156.936,485.416,155.69z M486.703,155.69
			c0,0.944,0.205,1.651,0.619,2.121c0.412,0.47,0.932,0.705,1.557,0.705c0.621,0,1.139-0.236,1.551-0.709
			c0.412-0.472,0.619-1.191,0.619-2.158c0-0.912-0.209-1.603-0.623-2.072s-0.93-0.705-1.547-0.705c-0.625,0-1.145,0.234-1.557,0.701
			C486.908,154.041,486.703,154.747,486.703,155.69z"/>
		<path d="M493.389,159.377v-7.372h1.125v1.048c0.543-0.81,1.326-1.215,2.352-1.215c0.443,0,0.854,0.08,1.227,0.239
			c0.373,0.16,0.652,0.369,0.838,0.629c0.186,0.259,0.314,0.566,0.389,0.923c0.047,0.231,0.07,0.637,0.07,1.215v4.533h-1.252v-4.484
			c0-0.509-0.049-0.89-0.146-1.143c-0.098-0.252-0.27-0.453-0.518-0.604s-0.539-0.226-0.873-0.226c-0.533,0-0.992,0.169-1.379,0.507
			s-0.58,0.979-0.58,1.923v4.026H493.389z"/>
		<path d="M505.949,157.003l1.293,0.159c-0.205,0.755-0.582,1.34-1.135,1.757c-0.551,0.416-1.256,0.625-2.113,0.625
			c-1.08,0-1.936-0.332-2.568-0.996s-0.949-1.596-0.949-2.795c0-1.24,0.32-2.202,0.959-2.888c0.641-0.685,1.471-1.027,2.49-1.027
			c0.986,0,1.793,0.336,2.42,1.007c0.625,0.671,0.938,1.615,0.938,2.832c0,0.074-0.002,0.186-0.006,0.333h-5.508
			c0.047,0.811,0.275,1.431,0.689,1.86c0.412,0.431,0.926,0.646,1.543,0.646c0.459,0,0.85-0.121,1.176-0.361
			C505.502,157.915,505.758,157.53,505.949,157.003z M501.84,154.982h4.123c-0.057-0.62-0.213-1.085-0.473-1.396
			c-0.398-0.48-0.916-0.722-1.551-0.722c-0.574,0-1.059,0.192-1.449,0.576C502.098,153.826,501.881,154.34,501.84,154.982z"/>
	</g>
	
		<line fill="none" stroke="#000000" stroke-width="0" stroke-linecap="square" stroke-miterlimit="10" x1="346.217" y1="22.448" x2="296.008" y2="22.448"/>
	<polygon fill-rule="evenodd" clip-rule="evenodd" points="344.719,21.7 345.469,20.952 345.469,20.204 346.217,19.455 
		346.967,19.455 347.717,18.707 348.467,18.707 349.215,18.707 349.965,18.707 350.715,18.707 351.463,19.455 352.213,19.455 
		352.963,20.204 352.963,20.952 352.963,21.7 353.711,22.448 352.963,23.197 352.963,23.945 352.963,24.693 352.213,25.441 
		351.463,26.189 350.715,26.938 349.965,26.938 349.215,26.938 348.467,26.938 347.717,26.938 346.967,26.189 346.217,25.441 
		345.469,24.693 345.469,23.945 344.719,23.197 344.719,22.448 344.719,21.7 	"/>
	<polygon fill-rule="evenodd" clip-rule="evenodd" points="286.266,22.448 299.006,26.938 299.006,18.707 286.266,22.448 	"/>
	
		<line fill="none" stroke="#000000" stroke-width="0" stroke-linecap="square" stroke-miterlimit="10" x1="353.711" y1="22.448" x2="420.406" y2="22.448"/>
	
		<line fill="none" stroke="#000000" stroke-width="0" stroke-linecap="square" stroke-miterlimit="10" x1="286.266" y1="22.448" x2="252.544" y2="22.448"/>
	
		<line fill="none" stroke="#000000" stroke-width="0" stroke-linecap="square" stroke-miterlimit="10" x1="252.544" y1="22.448" x2="252.544" y2="130.2"/>
	
		<line fill="none" stroke="#000000" stroke-width="0" stroke-linecap="square" stroke-miterlimit="10" x1="252.544" y1="130.2" x2="228.563" y2="130.2"/>
	<polygon fill-rule="evenodd" clip-rule="evenodd" points="218.822,130.2 231.561,134.689 231.561,126.459 218.822,130.2 	"/>
	
		<line fill="none" stroke="#000000" stroke-width="0" stroke-linecap="square" stroke-miterlimit="10" x1="228.563" y1="202.034" x2="262.285" y2="202.034"/>
	<polygon fill-rule="evenodd" clip-rule="evenodd" points="218.822,202.034 231.561,206.524 231.561,198.293 218.822,202.034 	"/>
	<polygon fill-rule="evenodd" clip-rule="evenodd" points="260.787,201.286 260.787,200.538 261.537,199.79 262.285,199.041 
		263.035,199.041 263.785,198.293 264.535,198.293 265.283,198.293 266.033,198.293 266.783,198.293 267.531,199.041 
		268.281,199.041 268.281,199.79 269.031,200.538 269.031,201.286 269.031,202.034 269.031,202.783 269.031,203.531 
		268.281,204.279 268.281,205.027 267.531,205.776 266.783,206.524 266.033,206.524 265.283,206.524 264.535,206.524 
		263.785,206.524 263.035,205.776 262.285,205.027 261.537,204.279 260.787,203.531 260.787,202.783 260.787,202.034 
		260.787,201.286 	"/>
	
		<line fill="none" stroke="#000000" stroke-width="0" stroke-linecap="square" stroke-miterlimit="10" x1="302.754" y1="202.034" x2="269.031" y2="202.034"/>
	
		<line fill="none" stroke="#000000" stroke-width="0" stroke-linecap="square" stroke-miterlimit="10" x1="10.492" y1="166.117" x2="60.701" y2="166.117"/>
	<polygon fill-rule="evenodd" clip-rule="evenodd" points="0,166.117 12.74,170.607 12.74,162.376 0,166.117 	"/>
	<polygon fill-rule="evenodd" clip-rule="evenodd" points="59.202,165.369 59.202,164.621 59.202,163.872 59.951,163.124 
		60.701,163.124 61.45,162.376 62.199,162.376 62.949,162.376 63.698,162.376 64.447,162.376 65.197,163.124 65.946,163.124 
		66.696,163.872 66.696,164.621 67.445,165.369 67.445,166.117 67.445,166.865 66.696,167.614 66.696,168.362 65.946,169.11 
		65.197,169.858 64.447,170.607 63.698,170.607 62.949,170.607 62.199,170.607 61.45,170.607 60.701,169.858 59.951,169.11 
		59.202,168.362 59.202,167.614 59.202,166.865 59.202,166.117 59.202,165.369 	"/>
	
		<line fill="none" stroke="#000000" stroke-width="0" stroke-linecap="square" stroke-miterlimit="10" x1="117.654" y1="166.117" x2="67.445" y2="166.117"/>
	<rect fill-rule="evenodd" clip-rule="evenodd" fill="#FFFFFF" width="0" height="0"/>
	<g>
		<path d="M277.621,16.463V6.286h3.844c0.678,0,1.193,0.032,1.551,0.097c0.5,0.083,0.92,0.242,1.258,0.475
			c0.338,0.234,0.611,0.562,0.816,0.982c0.207,0.421,0.311,0.884,0.311,1.389c0,0.865-0.275,1.598-0.828,2.197
			c-0.551,0.6-1.547,0.899-2.988,0.899h-2.615v4.137H277.621z M278.969,11.125h2.635c0.871,0,1.49-0.162,1.857-0.486
			c0.365-0.324,0.549-0.78,0.549-1.368c0-0.426-0.107-0.79-0.324-1.093c-0.215-0.303-0.498-0.503-0.852-0.601
			c-0.227-0.06-0.646-0.09-1.258-0.09h-2.607V11.125z"/>
		<path d="M286.445,16.463V9.09h1.127v1.118c0.287-0.523,0.553-0.868,0.795-1.034c0.244-0.167,0.512-0.25,0.805-0.25
			c0.42,0,0.85,0.134,1.285,0.403l-0.432,1.159c-0.305-0.181-0.611-0.271-0.916-0.271c-0.275,0-0.52,0.083-0.738,0.247
			c-0.217,0.165-0.373,0.392-0.465,0.684c-0.139,0.444-0.209,0.93-0.209,1.458v3.86H286.445z"/>
		<path d="M290.965,7.723V6.286h1.252v1.437H290.965z M290.965,16.463V9.09h1.252v7.373H290.965z"/>
		<path d="M293.965,16.463V9.09h1.119v1.035c0.232-0.361,0.541-0.651,0.926-0.872c0.385-0.22,0.822-0.33,1.314-0.33
			c0.547,0,0.994,0.113,1.344,0.34c0.352,0.227,0.598,0.544,0.74,0.951c0.584-0.86,1.346-1.291,2.281-1.291
			c0.732,0,1.295,0.203,1.689,0.607c0.395,0.405,0.592,1.029,0.592,1.871v5.061h-1.246v-4.644c0-0.5-0.039-0.86-0.121-1.08
			c-0.08-0.22-0.229-0.397-0.441-0.531s-0.463-0.201-0.75-0.201c-0.52,0-0.951,0.172-1.293,0.517
			c-0.344,0.345-0.516,0.897-0.516,1.656v4.283h-1.252v-4.79c0-0.555-0.102-0.972-0.305-1.25c-0.205-0.278-0.539-0.417-1.002-0.417
			c-0.352,0-0.678,0.093-0.977,0.278s-0.516,0.456-0.65,0.812s-0.201,0.87-0.201,1.541v3.825H293.965z"/>
		<path d="M310.771,15.554c-0.463,0.393-0.91,0.671-1.338,0.833c-0.43,0.162-0.889,0.243-1.381,0.243
			c-0.811,0-1.434-0.198-1.869-0.593c-0.436-0.396-0.654-0.901-0.654-1.517c0-0.361,0.082-0.69,0.248-0.989
			c0.164-0.298,0.379-0.538,0.646-0.718c0.266-0.181,0.566-0.317,0.9-0.41c0.244-0.065,0.615-0.127,1.111-0.188
			c1.01-0.12,1.754-0.264,2.232-0.43c0.004-0.171,0.006-0.28,0.006-0.327c0-0.509-0.117-0.868-0.354-1.076
			c-0.32-0.282-0.795-0.424-1.426-0.424c-0.588,0-1.023,0.103-1.303,0.309c-0.281,0.206-0.488,0.57-0.623,1.093l-1.223-0.167
			c0.109-0.523,0.293-0.945,0.549-1.267c0.254-0.321,0.623-0.569,1.105-0.743c0.48-0.173,1.039-0.26,1.676-0.26
			c0.629,0,1.141,0.074,1.535,0.222s0.684,0.334,0.869,0.559c0.186,0.224,0.316,0.508,0.391,0.85
			c0.041,0.213,0.063,0.597,0.063,1.152v1.666c0,1.162,0.025,1.896,0.078,2.204c0.055,0.308,0.16,0.603,0.316,0.885h-1.307
			C310.893,16.204,310.809,15.9,310.771,15.554z M310.668,12.763c-0.455,0.185-1.137,0.343-2.045,0.472
			c-0.514,0.074-0.879,0.157-1.092,0.25s-0.377,0.228-0.492,0.406c-0.117,0.178-0.174,0.376-0.174,0.593
			c0,0.333,0.125,0.611,0.379,0.833c0.252,0.222,0.621,0.333,1.107,0.333c0.482,0,0.912-0.105,1.287-0.316s0.65-0.499,0.826-0.864
			c0.135-0.282,0.203-0.699,0.203-1.25V12.763z"/>
		<path d="M313.445,16.463V9.09h1.127v1.118c0.287-0.523,0.553-0.868,0.795-1.034c0.244-0.167,0.512-0.25,0.805-0.25
			c0.42,0,0.85,0.134,1.285,0.403l-0.432,1.159c-0.305-0.181-0.611-0.271-0.916-0.271c-0.275,0-0.52,0.083-0.738,0.247
			c-0.217,0.165-0.373,0.392-0.465,0.684c-0.139,0.444-0.209,0.93-0.209,1.458v3.86H313.445z"/>
		<path d="M317.904,19.302l-0.139-1.173c0.273,0.074,0.512,0.111,0.715,0.111c0.279,0,0.502-0.046,0.668-0.139
			c0.166-0.092,0.303-0.222,0.41-0.389c0.078-0.125,0.207-0.435,0.383-0.93c0.023-0.069,0.061-0.171,0.111-0.306L317.25,9.09h1.35
			l1.535,4.27c0.199,0.542,0.379,1.111,0.537,1.708c0.143-0.574,0.314-1.134,0.514-1.68l1.578-4.297h1.252l-2.809,7.498
			c-0.303,0.81-0.535,1.368-0.703,1.673c-0.223,0.412-0.477,0.714-0.764,0.906c-0.289,0.192-0.631,0.288-1.029,0.288
			C318.469,19.455,318.201,19.404,317.904,19.302z"/>
		<path d="M333.283,15.554c-0.465,0.393-0.91,0.671-1.34,0.833c-0.428,0.162-0.889,0.243-1.379,0.243
			c-0.813,0-1.436-0.198-1.871-0.593c-0.436-0.396-0.652-0.901-0.652-1.517c0-0.361,0.082-0.69,0.246-0.989
			c0.164-0.298,0.381-0.538,0.646-0.718c0.268-0.181,0.566-0.317,0.9-0.41c0.246-0.065,0.617-0.127,1.113-0.188
			c1.01-0.12,1.754-0.264,2.23-0.43c0.006-0.171,0.008-0.28,0.008-0.327c0-0.509-0.119-0.868-0.355-1.076
			c-0.32-0.282-0.795-0.424-1.424-0.424c-0.59,0-1.023,0.103-1.305,0.309s-0.488,0.57-0.623,1.093l-1.223-0.167
			c0.111-0.523,0.295-0.945,0.549-1.267c0.256-0.321,0.623-0.569,1.105-0.743c0.482-0.173,1.041-0.26,1.676-0.26
			c0.631,0,1.143,0.074,1.537,0.222c0.393,0.148,0.684,0.334,0.869,0.559c0.186,0.224,0.314,0.508,0.389,0.85
			c0.041,0.213,0.063,0.597,0.063,1.152v1.666c0,1.162,0.027,1.896,0.08,2.204c0.053,0.308,0.158,0.603,0.316,0.885h-1.307
			C333.402,16.204,333.32,15.9,333.283,15.554z M333.178,12.763c-0.453,0.185-1.135,0.343-2.043,0.472
			c-0.516,0.074-0.879,0.157-1.092,0.25s-0.379,0.228-0.494,0.406c-0.115,0.178-0.174,0.376-0.174,0.593
			c0,0.333,0.127,0.611,0.379,0.833s0.623,0.333,1.109,0.333c0.482,0,0.91-0.105,1.285-0.316c0.377-0.21,0.652-0.499,0.828-0.864
			c0.135-0.282,0.201-0.699,0.201-1.25V12.763z"/>
		<path d="M335.977,7.723V6.286h1.252v1.437H335.977z M335.977,16.463V9.09h1.252v7.373H335.977z"/>
		<path d="M338.963,16.463V9.09h1.127v1.118c0.287-0.523,0.553-0.868,0.795-1.034c0.244-0.167,0.512-0.25,0.805-0.25
			c0.42,0,0.85,0.134,1.285,0.403l-0.432,1.159c-0.305-0.181-0.611-0.271-0.916-0.271c-0.275,0-0.52,0.083-0.738,0.247
			c-0.217,0.165-0.373,0.392-0.465,0.684c-0.139,0.444-0.209,0.93-0.209,1.458v3.86H338.963z"/>
		<path d="M347.531,16.463v-6.4h-1.105V9.09h1.105V8.306c0-0.495,0.045-0.863,0.133-1.104c0.121-0.324,0.332-0.586,0.637-0.788
			c0.303-0.202,0.729-0.302,1.275-0.302c0.352,0,0.742,0.042,1.168,0.125l-0.188,1.09c-0.26-0.046-0.506-0.069-0.738-0.069
			c-0.379,0-0.648,0.081-0.805,0.243c-0.158,0.162-0.236,0.465-0.236,0.909v0.68h1.438v0.972h-1.438v6.4H347.531z"/>
		<path d="M350.977,16.463V9.09h1.125v1.118c0.287-0.523,0.553-0.868,0.797-1.034c0.242-0.167,0.512-0.25,0.803-0.25
			c0.422,0,0.85,0.134,1.287,0.403l-0.432,1.159c-0.307-0.181-0.611-0.271-0.918-0.271c-0.273,0-0.52,0.083-0.736,0.247
			c-0.219,0.165-0.373,0.392-0.467,0.684c-0.139,0.444-0.209,0.93-0.209,1.458v3.86H350.977z"/>
		<path d="M355.023,12.777c0-1.365,0.379-2.376,1.141-3.034c0.635-0.546,1.408-0.819,2.32-0.819c1.016,0,1.846,0.332,2.49,0.996
			s0.967,1.582,0.967,2.752c0,0.949-0.143,1.695-0.428,2.239c-0.285,0.544-0.701,0.966-1.244,1.267
			c-0.545,0.301-1.141,0.451-1.785,0.451c-1.033,0-1.867-0.331-2.506-0.993C355.342,14.975,355.023,14.021,355.023,12.777z
			 M356.309,12.777c0,0.944,0.207,1.651,0.619,2.121s0.932,0.705,1.557,0.705c0.621,0,1.139-0.236,1.551-0.708
			s0.619-1.192,0.619-2.159c0-0.912-0.207-1.602-0.623-2.072c-0.414-0.469-0.93-0.705-1.547-0.705c-0.625,0-1.145,0.234-1.557,0.701
			C356.516,11.127,356.309,11.833,356.309,12.777z"/>
		<path d="M362.994,16.463V9.09h1.119v1.035c0.232-0.361,0.541-0.651,0.926-0.872c0.385-0.22,0.822-0.33,1.314-0.33
			c0.547,0,0.994,0.113,1.344,0.34c0.352,0.227,0.598,0.544,0.74,0.951c0.584-0.86,1.346-1.291,2.281-1.291
			c0.732,0,1.295,0.203,1.689,0.607C372.803,9.937,373,10.56,373,11.402v5.061h-1.246v-4.644c0-0.5-0.039-0.86-0.121-1.08
			c-0.08-0.22-0.229-0.397-0.441-0.531s-0.463-0.201-0.75-0.201c-0.52,0-0.951,0.172-1.293,0.517
			c-0.344,0.345-0.516,0.897-0.516,1.656v4.283h-1.252v-4.79c0-0.555-0.102-0.972-0.305-1.25c-0.205-0.278-0.539-0.417-1.002-0.417
			c-0.352,0-0.678,0.093-0.977,0.278s-0.516,0.456-0.65,0.812s-0.201,0.87-0.201,1.541v3.825H362.994z"/>
		<path d="M378.9,16.463V6.286h3.51c0.793,0,1.398,0.048,1.814,0.146c0.584,0.134,1.082,0.377,1.496,0.729
			c0.537,0.454,0.939,1.033,1.205,1.739c0.268,0.706,0.4,1.512,0.4,2.419c0,0.773-0.09,1.458-0.271,2.055
			c-0.18,0.597-0.412,1.091-0.695,1.482s-0.592,0.699-0.928,0.923c-0.336,0.224-0.742,0.395-1.217,0.51s-1.021,0.173-1.637,0.173
			H378.9z M380.248,15.262h2.176c0.672,0,1.199-0.063,1.582-0.187c0.383-0.125,0.688-0.301,0.914-0.528
			c0.32-0.319,0.57-0.749,0.748-1.288s0.268-1.193,0.268-1.961c0-1.064-0.176-1.882-0.525-2.454
			c-0.35-0.572-0.775-0.955-1.275-1.149c-0.361-0.139-0.943-0.208-1.744-0.208h-2.143V15.262z"/>
		<path d="M388.246,11.506c0-1.689,0.453-3.012,1.361-3.967s2.082-1.434,3.518-1.434c0.941,0,1.789,0.225,2.545,0.673
			s1.332,1.075,1.729,1.878c0.396,0.803,0.594,1.713,0.594,2.731c0,1.032-0.209,1.956-0.625,2.77
			c-0.418,0.814-1.008,1.431-1.773,1.85c-0.764,0.419-1.59,0.628-2.475,0.628c-0.959,0-1.816-0.231-2.572-0.694
			s-1.328-1.095-1.717-1.896C388.439,13.247,388.246,12.399,388.246,11.506z M389.637,11.527c0,1.226,0.33,2.192,0.99,2.898
			c0.66,0.706,1.488,1.059,2.484,1.059c1.016,0,1.852-0.356,2.508-1.069c0.654-0.713,0.982-1.724,0.982-3.034
			c0-0.829-0.141-1.552-0.42-2.169c-0.281-0.618-0.691-1.097-1.23-1.437c-0.541-0.34-1.146-0.51-1.818-0.51
			c-0.955,0-1.775,0.328-2.465,0.982C389.98,8.902,389.637,9.995,389.637,11.527z"/>
		<path d="M398.77,16.463l3.914-10.177h1.453l4.17,10.177h-1.535l-1.189-3.082h-4.262l-1.119,3.082H398.77z M401.709,12.284h3.455
			l-1.063-2.818c-0.324-0.856-0.566-1.56-0.723-2.11c-0.131,0.652-0.314,1.3-0.551,1.944L401.709,12.284z"/>
	</g>
	<rect fill-rule="evenodd" clip-rule="evenodd" fill="#FFFFFF" width="0" height="0"/>
	<g>
		<path d="M7.388,156.865l1.272-0.111c0.06,0.509,0.2,0.927,0.42,1.253s0.562,0.59,1.025,0.792c0.463,0.201,0.985,0.302,1.564,0.302
			c0.514,0,0.969-0.076,1.363-0.229c0.394-0.152,0.687-0.362,0.879-0.628c0.192-0.267,0.289-0.557,0.289-0.871
			c0-0.319-0.093-0.599-0.278-0.837s-0.491-0.438-0.917-0.601c-0.274-0.106-0.878-0.271-1.815-0.496
			c-0.936-0.225-1.592-0.437-1.967-0.635c-0.487-0.255-0.85-0.57-1.088-0.948c-0.239-0.377-0.358-0.799-0.358-1.267
			c0-0.514,0.146-0.994,0.438-1.44s0.719-0.785,1.279-1.018c0.561-0.23,1.184-0.347,1.87-0.347c0.755,0,1.422,0.121,1.999,0.364
			s1.021,0.601,1.331,1.073c0.311,0.472,0.478,1.006,0.501,1.604l-1.293,0.097c-0.069-0.644-0.305-1.129-0.706-1.458
			c-0.401-0.328-0.993-0.492-1.776-0.492c-0.816,0-1.41,0.148-1.783,0.447s-0.56,0.658-0.56,1.08c0,0.365,0.132,0.666,0.396,0.902
			c0.26,0.235,0.938,0.478,2.034,0.725c1.096,0.248,1.848,0.465,2.256,0.649c0.593,0.273,1.031,0.619,1.314,1.038
			c0.282,0.419,0.424,0.901,0.424,1.447c0,0.542-0.155,1.052-0.466,1.53c-0.311,0.479-0.757,0.853-1.338,1.118
			s-1.236,0.399-1.964,0.399c-0.922,0-1.695-0.135-2.319-0.403c-0.623-0.268-1.112-0.672-1.467-1.211S7.407,157.545,7.388,156.865z"
			/>
		<path d="M21.524,160.135v-1.083c-0.575,0.833-1.355,1.25-2.343,1.25c-0.436,0-0.843-0.084-1.22-0.25
			c-0.378-0.167-0.658-0.376-0.841-0.629c-0.183-0.252-0.312-0.561-0.386-0.927c-0.051-0.245-0.077-0.634-0.077-1.166v-4.567h1.251
			v4.089c0,0.652,0.025,1.092,0.077,1.318c0.079,0.329,0.246,0.587,0.5,0.774s0.57,0.281,0.945,0.281s0.728-0.097,1.057-0.288
			c0.329-0.192,0.562-0.454,0.699-0.785c0.136-0.33,0.205-0.811,0.205-1.44v-3.949h1.251v7.372H21.524z"/>
		<path d="M24.191,162.96v-10.197h1.14v0.958c0.269-0.375,0.572-0.656,0.911-0.844c0.338-0.188,0.748-0.281,1.23-0.281
			c0.63,0,1.187,0.162,1.668,0.486c0.482,0.323,0.846,0.78,1.091,1.371c0.246,0.59,0.369,1.236,0.369,1.939
			c0,0.755-0.136,1.434-0.407,2.038c-0.271,0.604-0.665,1.066-1.182,1.389c-0.517,0.321-1.061,0.482-1.63,0.482
			c-0.417,0-0.792-0.088-1.123-0.265c-0.332-0.176-0.604-0.397-0.817-0.666v3.589H24.191z M25.325,156.49
			c0,0.949,0.192,1.649,0.577,2.104c0.385,0.453,0.851,0.681,1.397,0.681c0.556,0,1.032-0.235,1.429-0.705
			c0.396-0.47,0.594-1.197,0.594-2.184c0-0.939-0.193-1.643-0.581-2.11c-0.387-0.467-0.849-0.701-1.387-0.701
			c-0.533,0-1.005,0.249-1.415,0.747C25.53,154.818,25.325,155.542,25.325,156.49z"/>
		<path d="M31.697,162.96v-10.197h1.14v0.958c0.269-0.375,0.572-0.656,0.911-0.844c0.338-0.188,0.748-0.281,1.23-0.281
			c0.63,0,1.187,0.162,1.668,0.486c0.482,0.323,0.846,0.78,1.091,1.371c0.246,0.59,0.369,1.236,0.369,1.939
			c0,0.755-0.136,1.434-0.407,2.038c-0.271,0.604-0.665,1.066-1.182,1.389c-0.517,0.321-1.061,0.482-1.63,0.482
			c-0.417,0-0.792-0.088-1.123-0.265c-0.332-0.176-0.604-0.397-0.817-0.666v3.589H31.697z M32.831,156.49
			c0,0.949,0.192,1.649,0.577,2.104c0.385,0.453,0.851,0.681,1.397,0.681c0.556,0,1.032-0.235,1.429-0.705
			c0.396-0.47,0.594-1.197,0.594-2.184c0-0.939-0.193-1.643-0.581-2.11c-0.387-0.467-0.849-0.701-1.387-0.701
			c-0.533,0-1.005,0.249-1.415,0.747C33.036,154.818,32.831,155.542,32.831,156.49z"/>
		<path d="M39.175,160.135v-10.177h1.251v10.177H39.175z"/>
		<path d="M42.154,162.974l-0.139-1.173c0.273,0.074,0.512,0.111,0.716,0.111c0.278,0,0.5-0.047,0.667-0.139
			c0.167-0.093,0.304-0.223,0.41-0.389c0.079-0.125,0.206-0.436,0.382-0.931c0.023-0.069,0.06-0.171,0.111-0.306l-2.802-7.386h1.349
			l1.537,4.269c0.199,0.542,0.377,1.111,0.535,1.708c0.144-0.573,0.315-1.134,0.515-1.68l1.578-4.297h1.251l-2.809,7.497
			c-0.302,0.81-0.536,1.367-0.703,1.673c-0.222,0.412-0.477,0.714-0.765,0.906c-0.287,0.191-0.63,0.288-1.029,0.288
			C42.719,163.127,42.451,163.076,42.154,162.974z"/>
		<path d="M57.533,159.226c-0.463,0.394-0.91,0.671-1.338,0.833s-0.889,0.243-1.38,0.243c-0.811,0-1.435-0.198-1.87-0.594
			s-0.653-0.901-0.653-1.517c0-0.361,0.082-0.691,0.247-0.989c0.165-0.299,0.38-0.538,0.646-0.719s0.567-0.317,0.9-0.41
			c0.246-0.064,0.616-0.127,1.112-0.187c1.011-0.121,1.754-0.265,2.232-0.431c0.004-0.171,0.007-0.28,0.007-0.326
			c0-0.51-0.118-0.868-0.354-1.076c-0.32-0.282-0.795-0.424-1.425-0.424c-0.589,0-1.023,0.104-1.304,0.31
			c-0.28,0.205-0.488,0.57-0.622,1.093l-1.224-0.166c0.111-0.523,0.294-0.945,0.549-1.268c0.255-0.321,0.623-0.569,1.105-0.742
			c0.482-0.174,1.041-0.261,1.675-0.261c0.63,0,1.143,0.074,1.537,0.223c0.394,0.147,0.684,0.334,0.869,0.559
			c0.185,0.225,0.315,0.508,0.389,0.851c0.042,0.213,0.063,0.597,0.063,1.152v1.666c0,1.161,0.027,1.896,0.08,2.204
			s0.159,0.603,0.316,0.885h-1.307C57.654,159.876,57.57,159.572,57.533,159.226z M57.429,156.435
			c-0.455,0.186-1.136,0.343-2.044,0.472c-0.515,0.074-0.878,0.158-1.092,0.25c-0.213,0.093-0.377,0.229-0.494,0.406
			c-0.116,0.179-0.174,0.376-0.174,0.594c0,0.333,0.126,0.611,0.379,0.833c0.253,0.223,0.623,0.333,1.109,0.333
			c0.482,0,0.911-0.104,1.287-0.315c0.375-0.211,0.651-0.499,0.827-0.864c0.134-0.282,0.202-0.699,0.202-1.25V156.435z"/>
		<path d="M60.228,151.395v-1.437h1.251v1.437H60.228z M60.228,160.135v-7.372h1.251v7.372H60.228z"/>
		<path d="M63.214,160.135v-7.372h1.126v1.117c0.288-0.522,0.553-0.867,0.796-1.034c0.243-0.167,0.511-0.25,0.803-0.25
			c0.422,0,0.851,0.135,1.286,0.402l-0.431,1.159c-0.306-0.18-0.612-0.271-0.917-0.271c-0.273,0-0.519,0.082-0.737,0.247
			c-0.218,0.164-0.373,0.392-0.466,0.684c-0.139,0.444-0.208,0.93-0.208,1.458v3.859H63.214z"/>
		<path d="M74.216,159.018l0.181,1.104c-0.352,0.074-0.667,0.111-0.945,0.111c-0.455,0-0.807-0.072-1.057-0.216
			c-0.25-0.144-0.426-0.332-0.528-0.565s-0.153-0.726-0.153-1.476v-4.241h-0.917v-0.972h0.917v-1.826l1.245-0.75v2.576h1.258v0.972
			h-1.258v4.311c0,0.356,0.022,0.586,0.066,0.688s0.116,0.183,0.215,0.243s0.242,0.09,0.428,0.09
			C73.806,159.065,73.989,159.05,74.216,159.018z"/>
		<path d="M74.774,156.448c0-1.365,0.38-2.376,1.14-3.033c0.635-0.546,1.409-0.819,2.322-0.819c1.015,0,1.845,0.332,2.489,0.996
			c0.645,0.664,0.966,1.582,0.966,2.753c0,0.948-0.142,1.694-0.427,2.238s-0.7,0.967-1.245,1.268s-1.139,0.451-1.783,0.451
			c-1.034,0-1.869-0.331-2.506-0.993S74.774,157.693,74.774,156.448z M76.061,156.448c0,0.944,0.207,1.651,0.619,2.121
			c0.412,0.47,0.931,0.705,1.557,0.705c0.621,0,1.138-0.236,1.55-0.709c0.413-0.472,0.619-1.191,0.619-2.158
			c0-0.912-0.208-1.603-0.622-2.072c-0.415-0.47-0.931-0.705-1.547-0.705c-0.626,0-1.145,0.234-1.557,0.701
			C76.267,154.799,76.061,155.505,76.061,156.448z"/>
	</g>
	<rect fill-rule="evenodd" clip-rule="evenodd" fill="#FFFFFF" width="0" height="0"/>
	<g>
		<path d="M7.027,175.846v-1.014l4.7-5.387c-0.533,0.027-1.004,0.042-1.412,0.042h-3.01v-1.014h6.035v0.826l-3.998,4.679
			l-0.772,0.854c0.561-0.042,1.087-0.063,1.579-0.063h3.414v1.076H7.027z"/>
		<path d="M13.97,172.159c0-1.365,0.38-2.376,1.14-3.033c0.635-0.546,1.409-0.819,2.322-0.819c1.015,0,1.845,0.332,2.489,0.996
			c0.645,0.664,0.966,1.582,0.966,2.753c0,0.948-0.142,1.694-0.427,2.238s-0.7,0.967-1.245,1.268s-1.139,0.451-1.783,0.451
			c-1.034,0-1.869-0.331-2.506-0.993S13.97,173.404,13.97,172.159z M15.256,172.159c0,0.944,0.207,1.651,0.619,2.121
			c0.412,0.47,0.931,0.705,1.557,0.705c0.621,0,1.138-0.236,1.55-0.709c0.413-0.472,0.619-1.191,0.619-2.158
			c0-0.912-0.208-1.603-0.622-2.072c-0.415-0.47-0.931-0.705-1.547-0.705c-0.626,0-1.145,0.234-1.557,0.701
			C15.463,170.51,15.256,171.216,15.256,172.159z"/>
		<path d="M21.942,175.846v-7.372h1.126v1.048c0.542-0.81,1.325-1.215,2.35-1.215c0.445,0,0.854,0.08,1.227,0.239
			c0.373,0.16,0.652,0.369,0.838,0.629c0.186,0.259,0.315,0.566,0.39,0.923c0.046,0.231,0.069,0.637,0.069,1.215v4.533H26.69v-4.484
			c0-0.509-0.049-0.89-0.146-1.143c-0.097-0.252-0.27-0.453-0.518-0.604s-0.539-0.226-0.873-0.226c-0.533,0-0.993,0.169-1.38,0.507
			c-0.387,0.338-0.581,0.979-0.581,1.923v4.026H21.942z"/>
		<path d="M34.502,173.472l1.293,0.159c-0.204,0.755-0.582,1.34-1.133,1.757c-0.552,0.416-1.256,0.625-2.113,0.625
			c-1.08,0-1.937-0.332-2.569-0.996c-0.632-0.664-0.949-1.596-0.949-2.795c0-1.24,0.32-2.202,0.959-2.888
			c0.64-0.685,1.469-1.027,2.489-1.027c0.987,0,1.794,0.336,2.419,1.007c0.626,0.671,0.938,1.615,0.938,2.832
			c0,0.074-0.002,0.186-0.007,0.333h-5.506c0.046,0.811,0.276,1.431,0.688,1.86c0.413,0.431,0.927,0.646,1.543,0.646
			c0.458,0,0.85-0.121,1.175-0.361C34.055,174.384,34.312,173.999,34.502,173.472z M30.394,171.451h4.123
			c-0.056-0.62-0.213-1.085-0.473-1.396c-0.399-0.48-0.916-0.722-1.55-0.722c-0.575,0-1.058,0.192-1.45,0.576
			C30.652,170.295,30.435,170.809,30.394,171.451z"/>
	</g>
	<rect fill-rule="evenodd" clip-rule="evenodd" fill="#FFFFFF" width="0" height="0"/>
	<g>
		<path d="M226.208,215.225l1.272-0.111c0.06,0.509,0.2,0.927,0.42,1.253s0.562,0.59,1.025,0.792
			c0.463,0.201,0.985,0.302,1.564,0.302c0.514,0,0.969-0.076,1.363-0.229c0.394-0.152,0.687-0.362,0.879-0.628
			c0.192-0.267,0.289-0.557,0.289-0.871c0-0.319-0.093-0.599-0.278-0.837s-0.491-0.438-0.917-0.601
			c-0.274-0.106-0.878-0.271-1.815-0.496c-0.936-0.225-1.592-0.437-1.967-0.635c-0.487-0.255-0.85-0.57-1.088-0.948
			c-0.239-0.377-0.358-0.799-0.358-1.267c0-0.514,0.146-0.994,0.438-1.44s0.719-0.785,1.279-1.018
			c0.561-0.23,1.184-0.347,1.87-0.347c0.755,0,1.422,0.121,1.999,0.364s1.021,0.601,1.331,1.073
			c0.311,0.472,0.478,1.006,0.501,1.604l-1.293,0.097c-0.069-0.644-0.305-1.129-0.706-1.458c-0.401-0.328-0.993-0.492-1.776-0.492
			c-0.816,0-1.41,0.148-1.783,0.447s-0.56,0.658-0.56,1.08c0,0.365,0.132,0.666,0.396,0.902c0.26,0.235,0.938,0.478,2.034,0.725
			c1.096,0.248,1.848,0.465,2.256,0.649c0.593,0.273,1.031,0.619,1.314,1.038c0.282,0.419,0.424,0.901,0.424,1.447
			c0,0.542-0.155,1.052-0.466,1.53c-0.311,0.479-0.757,0.853-1.338,1.118s-1.236,0.399-1.964,0.399
			c-0.922,0-1.695-0.135-2.319-0.403c-0.623-0.268-1.112-0.672-1.467-1.211S226.227,215.904,226.208,215.225z"/>
		<path d="M240.56,216.12l1.293,0.159c-0.204,0.755-0.582,1.34-1.133,1.757c-0.552,0.416-1.256,0.625-2.113,0.625
			c-1.08,0-1.937-0.332-2.569-0.996c-0.632-0.664-0.949-1.596-0.949-2.795c0-1.24,0.32-2.202,0.959-2.888
			c0.64-0.685,1.469-1.027,2.489-1.027c0.987,0,1.794,0.336,2.419,1.007c0.626,0.671,0.938,1.615,0.938,2.832
			c0,0.074-0.002,0.186-0.007,0.333h-5.506c0.046,0.811,0.276,1.431,0.688,1.86c0.413,0.431,0.927,0.646,1.543,0.646
			c0.458,0,0.85-0.121,1.175-0.361C240.113,217.032,240.37,216.647,240.56,216.12z M236.452,214.1h4.123
			c-0.056-0.62-0.213-1.085-0.473-1.396c-0.399-0.48-0.916-0.722-1.55-0.722c-0.575,0-1.058,0.192-1.45,0.576
			C236.71,212.943,236.493,213.457,236.452,214.1z"/>
		<path d="M247.83,215.794l1.231,0.159c-0.135,0.847-0.479,1.51-1.033,1.989c-0.554,0.479-1.234,0.719-2.041,0.719
			c-1.01,0-1.823-0.33-2.437-0.989c-0.614-0.66-0.921-1.605-0.921-2.836c0-0.796,0.132-1.493,0.396-2.09s0.666-1.045,1.206-1.343
			c0.54-0.299,1.127-0.448,1.762-0.448c0.802,0,1.458,0.202,1.968,0.607s0.836,0.98,0.98,1.726l-1.217,0.187
			c-0.116-0.495-0.321-0.867-0.615-1.117c-0.294-0.25-0.65-0.375-1.067-0.375c-0.63,0-1.143,0.226-1.537,0.677
			c-0.394,0.451-0.591,1.165-0.591,2.142c0,0.99,0.19,1.71,0.57,2.159c0.38,0.449,0.876,0.674,1.488,0.674
			c0.491,0,0.901-0.15,1.23-0.452C247.533,216.881,247.742,216.419,247.83,215.794z"/>
		<path d="M249.295,214.808c0-1.365,0.38-2.376,1.14-3.033c0.635-0.546,1.409-0.819,2.322-0.819c1.015,0,1.845,0.332,2.489,0.996
			c0.645,0.664,0.967,1.582,0.967,2.753c0,0.948-0.143,1.694-0.428,2.238s-0.7,0.967-1.245,1.268s-1.139,0.451-1.783,0.451
			c-1.034,0-1.869-0.331-2.506-0.993S249.295,216.053,249.295,214.808z M250.581,214.808c0,0.944,0.207,1.651,0.619,2.121
			c0.412,0.47,0.931,0.705,1.557,0.705c0.621,0,1.138-0.236,1.55-0.709c0.413-0.472,0.619-1.191,0.619-2.158
			c0-0.912-0.208-1.603-0.622-2.072c-0.415-0.47-0.931-0.705-1.547-0.705c-0.626,0-1.145,0.234-1.557,0.701
			C250.788,213.158,250.581,213.864,250.581,214.808z"/>
		<path d="M257.267,218.494v-7.372h1.126v1.048c0.543-0.81,1.326-1.215,2.35-1.215c0.445,0,0.854,0.08,1.227,0.239
			c0.373,0.16,0.652,0.369,0.838,0.629c0.186,0.259,0.316,0.566,0.391,0.923c0.045,0.231,0.068,0.637,0.068,1.215v4.533h-1.25
			v-4.484c0-0.509-0.049-0.89-0.146-1.143c-0.098-0.252-0.271-0.453-0.518-0.604c-0.248-0.15-0.539-0.226-0.873-0.226
			c-0.533,0-0.993,0.169-1.38,0.507c-0.388,0.338-0.581,0.979-0.581,1.923v4.026H257.267z"/>
		<path d="M269.563,218.494v-0.931c-0.469,0.731-1.156,1.098-2.064,1.098c-0.59,0-1.131-0.162-1.625-0.486
			c-0.492-0.324-0.875-0.776-1.146-1.357c-0.271-0.58-0.406-1.248-0.406-2.003c0-0.735,0.123-1.403,0.369-2.002
			c0.244-0.6,0.613-1.059,1.105-1.378c0.49-0.319,1.039-0.479,1.646-0.479c0.445,0,0.842,0.094,1.189,0.281s0.631,0.432,0.848,0.732
			v-3.651h1.244v10.177H269.563z M265.605,214.814c0,0.944,0.199,1.65,0.6,2.118c0.398,0.467,0.869,0.701,1.41,0.701
			c0.547,0,1.012-0.224,1.395-0.67c0.383-0.447,0.574-1.129,0.574-2.045c0-1.009-0.195-1.749-0.584-2.222
			c-0.391-0.472-0.869-0.708-1.439-0.708c-0.557,0-1.021,0.227-1.395,0.681C265.793,213.123,265.605,213.839,265.605,214.814z"/>
		<path d="M277.096,217.585c-0.463,0.394-0.91,0.671-1.338,0.833c-0.43,0.162-0.889,0.243-1.381,0.243
			c-0.811,0-1.434-0.198-1.869-0.594s-0.654-0.901-0.654-1.517c0-0.361,0.082-0.691,0.248-0.989
			c0.164-0.299,0.379-0.538,0.646-0.719c0.266-0.181,0.566-0.317,0.9-0.41c0.244-0.064,0.615-0.127,1.111-0.187
			c1.01-0.121,1.754-0.265,2.232-0.431c0.004-0.171,0.006-0.28,0.006-0.326c0-0.51-0.117-0.868-0.354-1.076
			c-0.32-0.282-0.795-0.424-1.426-0.424c-0.588,0-1.023,0.104-1.303,0.31c-0.281,0.205-0.488,0.57-0.623,1.093l-1.223-0.166
			c0.109-0.523,0.293-0.945,0.549-1.268c0.254-0.321,0.623-0.569,1.105-0.742c0.48-0.174,1.039-0.261,1.676-0.261
			c0.629,0,1.141,0.074,1.535,0.223c0.395,0.147,0.684,0.334,0.869,0.559s0.316,0.508,0.391,0.851
			c0.041,0.213,0.063,0.597,0.063,1.152v1.666c0,1.161,0.025,1.896,0.078,2.204c0.055,0.308,0.16,0.603,0.316,0.885h-1.307
			C277.217,218.235,277.133,217.932,277.096,217.585z M276.992,214.794c-0.455,0.186-1.137,0.343-2.045,0.472
			c-0.514,0.074-0.879,0.158-1.092,0.25c-0.213,0.093-0.377,0.229-0.492,0.406c-0.117,0.179-0.174,0.376-0.174,0.594
			c0,0.333,0.125,0.611,0.379,0.833c0.252,0.223,0.621,0.333,1.107,0.333c0.482,0,0.912-0.104,1.287-0.315s0.65-0.499,0.826-0.864
			c0.135-0.282,0.203-0.699,0.203-1.25V214.794z"/>
		<path d="M279.77,218.494v-7.372h1.127v1.117c0.287-0.522,0.553-0.867,0.795-1.034c0.244-0.167,0.512-0.25,0.805-0.25
			c0.42,0,0.85,0.135,1.285,0.402l-0.432,1.159c-0.305-0.18-0.611-0.271-0.916-0.271c-0.275,0-0.52,0.082-0.738,0.247
			c-0.217,0.164-0.373,0.392-0.465,0.684c-0.139,0.444-0.209,0.93-0.209,1.458v3.859H279.77z"/>
		<path d="M284.229,221.333l-0.139-1.173c0.273,0.074,0.512,0.111,0.715,0.111c0.279,0,0.502-0.047,0.668-0.139
			c0.166-0.093,0.303-0.223,0.41-0.389c0.078-0.125,0.207-0.436,0.383-0.931c0.023-0.069,0.061-0.171,0.111-0.306l-2.803-7.386h1.35
			l1.535,4.269c0.199,0.542,0.379,1.111,0.537,1.708c0.143-0.573,0.314-1.134,0.514-1.68l1.578-4.297h1.252l-2.809,7.497
			c-0.303,0.81-0.535,1.367-0.703,1.673c-0.223,0.412-0.477,0.714-0.764,0.906c-0.289,0.191-0.631,0.288-1.029,0.288
			C284.793,221.486,284.525,221.436,284.229,221.333z"/>
	</g>
	<rect fill-rule="evenodd" clip-rule="evenodd" fill="#FFFFFF" width="0" height="0"/>
	<g>
		<path d="M231.325,233.304c-0.463,0.394-0.91,0.671-1.338,0.833s-0.889,0.243-1.38,0.243c-0.811,0-1.435-0.198-1.87-0.594
			s-0.653-0.901-0.653-1.517c0-0.361,0.082-0.691,0.247-0.989c0.165-0.299,0.38-0.538,0.646-0.719s0.567-0.317,0.9-0.41
			c0.246-0.064,0.616-0.127,1.112-0.187c1.011-0.121,1.754-0.265,2.232-0.431c0.004-0.171,0.007-0.28,0.007-0.326
			c0-0.51-0.118-0.868-0.354-1.076c-0.32-0.282-0.795-0.424-1.425-0.424c-0.589,0-1.023,0.104-1.304,0.31
			c-0.28,0.205-0.488,0.57-0.622,1.093l-1.224-0.166c0.111-0.523,0.294-0.945,0.549-1.268c0.255-0.321,0.623-0.569,1.105-0.742
			c0.482-0.174,1.041-0.261,1.675-0.261c0.63,0,1.143,0.074,1.537,0.223c0.394,0.147,0.684,0.334,0.869,0.559
			c0.185,0.225,0.315,0.508,0.389,0.851c0.042,0.213,0.063,0.597,0.063,1.152v1.666c0,1.161,0.027,1.896,0.08,2.204
			s0.159,0.603,0.316,0.885h-1.307C231.446,233.954,231.362,233.65,231.325,233.304z M231.221,230.513
			c-0.455,0.186-1.136,0.343-2.044,0.472c-0.515,0.074-0.878,0.158-1.092,0.25c-0.213,0.093-0.377,0.229-0.494,0.406
			c-0.116,0.179-0.174,0.376-0.174,0.594c0,0.333,0.126,0.611,0.379,0.833c0.253,0.223,0.623,0.333,1.109,0.333
			c0.482,0,0.911-0.104,1.287-0.315c0.375-0.211,0.651-0.499,0.827-0.864c0.134-0.282,0.202-0.699,0.202-1.25V230.513z"/>
		<path d="M234.02,225.473v-1.437h1.251v1.437H234.02z M234.02,234.213v-7.372h1.251v7.372H234.02z"/>
		<path d="M237.006,234.213v-7.372h1.126v1.117c0.288-0.522,0.553-0.867,0.796-1.034c0.243-0.167,0.511-0.25,0.803-0.25
			c0.422,0,0.851,0.135,1.286,0.402l-0.431,1.159c-0.306-0.18-0.612-0.271-0.917-0.271c-0.273,0-0.519,0.082-0.737,0.247
			c-0.218,0.164-0.373,0.392-0.466,0.684c-0.139,0.444-0.208,0.93-0.208,1.458v3.859H237.006z"/>
	</g>
</g>
</svg>
