<?xml version="1.0" encoding="utf-8"?>
<!-- Generator: Adobe Illustrator 16.0.0, SVG Export Plug-In . SVG Version: 6.00 Build 0)  -->
<!DOCTYPE svg PUBLIC "-//W3C//DTD SVG 1.1//EN" "http://www.w3.org/Graphics/SVG/1.1/DTD/svg11.dtd">
<svg version="1.1" id="Layer_1" xmlns="http://www.w3.org/2000/svg" xmlns:xlink="http://www.w3.org/1999/xlink" x="0px" y="0px"
	 width="449.139px" height="141.732px" viewBox="0 0 449.139 141.732" enable-background="new 0 0 449.139 141.732"
	 xml:space="preserve">
<g>
	<polygon fill-rule="evenodd" clip-rule="evenodd" fill="#99CCFF" points="131.653,141.732 92.756,141.732 92.756,0 170.551,0 
		170.551,141.732 131.653,141.732 	"/>
	<polyline fill="none" stroke="#000000" stroke-width="0" stroke-linecap="square" stroke-miterlimit="10" points="131.653,141.732 
		92.756,141.732 92.756,0 170.551,0 170.551,141.732 131.653,141.732 	"/>
	<rect fill-rule="evenodd" clip-rule="evenodd" fill="#FFFFFF" width="0" height="0"/>
	<g>
		<path d="M99.457,76.771V64.089h8.669v1.497h-6.969v3.927h6.031v1.497h-6.031v5.761H99.457z"/>
		<path d="M116.46,75.638c-0.584,0.49-1.147,0.836-1.688,1.038c-0.541,0.201-1.121,0.303-1.74,0.303
			c-1.022,0-1.809-0.247-2.358-0.74s-0.824-1.123-0.824-1.89c0-0.45,0.104-0.861,0.311-1.233s0.479-0.67,0.815-0.896
			c0.336-0.225,0.715-0.395,1.135-0.51c0.31-0.081,0.777-0.159,1.403-0.233c1.274-0.15,2.212-0.329,2.814-0.537
			c0.005-0.213,0.009-0.349,0.009-0.407c0-0.634-0.149-1.081-0.447-1.341c-0.403-0.352-1.002-0.527-1.797-0.527
			c-0.742,0-1.291,0.128-1.644,0.385c-0.354,0.257-0.615,0.711-0.784,1.362l-1.543-0.208c0.14-0.651,0.371-1.178,0.692-1.579
			s0.786-0.709,1.394-0.926c0.607-0.216,1.312-0.324,2.112-0.324c0.795,0,1.441,0.092,1.938,0.277s0.862,0.417,1.096,0.696
			s0.397,0.633,0.491,1.06c0.053,0.266,0.079,0.744,0.079,1.436v2.076c0,1.447,0.034,2.363,0.101,2.747
			c0.067,0.383,0.2,0.751,0.399,1.103h-1.648C116.612,76.447,116.507,76.069,116.46,75.638z M116.329,72.159
			c-0.573,0.231-1.432,0.428-2.578,0.589c-0.648,0.092-1.107,0.196-1.376,0.312c-0.269,0.115-0.477,0.284-0.623,0.506
			s-0.219,0.469-0.219,0.739c0,0.416,0.159,0.762,0.478,1.038c0.318,0.277,0.785,0.416,1.398,0.416c0.608,0,1.148-0.132,1.622-0.394
			c0.473-0.263,0.821-0.622,1.043-1.077c0.169-0.352,0.254-0.871,0.254-1.558V72.159z"/>
		<path d="M120.119,76.771v-9.187h1.42v1.306c0.684-1.009,1.671-1.514,2.963-1.514c0.561,0,1.077,0.1,1.547,0.298
			c0.47,0.199,0.822,0.46,1.056,0.783c0.234,0.323,0.397,0.707,0.491,1.151c0.059,0.288,0.088,0.793,0.088,1.513v5.649h-1.578
			v-5.589c0-0.634-0.061-1.108-0.184-1.422c-0.123-0.314-0.34-0.565-0.653-0.753c-0.313-0.187-0.679-0.281-1.1-0.281
			c-0.672,0-1.252,0.21-1.74,0.631s-0.732,1.22-0.732,2.396v5.018H120.119z"/>
		<path d="M144.444,72.324l1.701,0.424c-0.356,1.378-0.998,2.43-1.924,3.153s-2.059,1.085-3.396,1.085
			c-1.385,0-2.512-0.277-3.379-0.834s-1.528-1.363-1.981-2.418c-0.453-1.056-0.68-2.189-0.68-3.4c0-1.321,0.256-2.473,0.767-3.456
			c0.511-0.983,1.239-1.73,2.183-2.24c0.944-0.511,1.982-0.766,3.116-0.766c1.286,0,2.367,0.323,3.244,0.969
			s1.487,1.554,1.832,2.725l-1.674,0.389c-0.298-0.923-0.73-1.595-1.297-2.016s-1.28-0.631-2.139-0.631
			c-0.988,0-1.813,0.233-2.477,0.701c-0.663,0.467-1.129,1.094-1.398,1.881c-0.269,0.787-0.403,1.599-0.403,2.435
			c0,1.079,0.159,2.02,0.478,2.825s0.814,1.405,1.486,1.804c0.672,0.397,1.399,0.597,2.183,0.597c0.953,0,1.759-0.271,2.419-0.813
			C143.763,74.195,144.21,73.391,144.444,72.324z"/>
		<path d="M147.217,72.177c0-1.701,0.479-2.961,1.438-3.78c0.801-0.68,1.776-1.021,2.928-1.021c1.28,0,2.326,0.414,3.138,1.241
			c0.813,0.828,1.219,1.971,1.219,3.431c0,1.182-0.18,2.111-0.539,2.789s-0.883,1.204-1.569,1.579s-1.436,0.563-2.249,0.563
			c-1.303,0-2.356-0.413-3.16-1.237C147.619,74.916,147.217,73.729,147.217,72.177z M148.839,72.177c0,1.177,0.26,2.058,0.78,2.643
			c0.52,0.586,1.175,0.879,1.963,0.879c0.783,0,1.435-0.295,1.955-0.883c0.52-0.588,0.78-1.485,0.78-2.69
			c0-1.136-0.262-1.997-0.785-2.582c-0.523-0.585-1.173-0.878-1.951-0.878c-0.789,0-1.443,0.291-1.963,0.874
			C149.099,70.121,148.839,71,148.839,72.177z"/>
		<path d="M157.546,65.879v-1.791h1.578v1.791H157.546z M157.546,76.771v-9.187h1.578v9.187H157.546z"/>
		<path d="M161.258,76.771V64.089h1.578v12.682H161.258z"/>
	</g>
	<polygon fill-rule="evenodd" clip-rule="evenodd" fill="#99CCFF" points="301.457,141.732 263.307,141.732 263.307,0 340.354,0 
		340.354,141.732 301.457,141.732 	"/>
	<polyline fill="none" stroke="#000000" stroke-width="0" stroke-linecap="square" stroke-miterlimit="10" points="301.457,141.732 
		263.307,141.732 263.307,0 340.354,0 340.354,141.732 301.457,141.732 	"/>
	<rect fill-rule="evenodd" clip-rule="evenodd" fill="#FFFFFF" width="0" height="0"/>
	<g>
		<path d="M270.201,76.771V65.585h-4.233v-1.497h10.186v1.497h-4.251v11.185H270.201z"/>
		<path d="M286.583,64.089h1.7v7.327c0,1.274-0.146,2.286-0.438,3.036s-0.819,1.359-1.582,1.83c-0.763,0.47-1.764,0.704-3.003,0.704
			c-1.203,0-2.188-0.204-2.954-0.613c-0.766-0.41-1.312-1.003-1.639-1.778s-0.491-1.835-0.491-3.179v-7.327h1.701v7.318
			c0,1.102,0.104,1.913,0.311,2.435c0.208,0.522,0.564,0.925,1.069,1.207c0.506,0.283,1.124,0.424,1.854,0.424
			c1.25,0,2.142-0.279,2.674-0.839c0.531-0.56,0.798-1.635,0.798-3.227V64.089z"/>
		<path d="M296.049,76.771V64.089h2.561l3.041,8.979c0.281,0.836,0.485,1.462,0.614,1.877c0.146-0.461,0.374-1.139,0.684-2.033
			l3.077-8.823h2.287v12.682h-1.639V66.156l-3.734,10.614h-1.534l-3.717-10.796v10.796H296.049z"/>
		<path d="M310.864,65.879v-1.791h1.578v1.791H310.864z M310.864,76.771v-9.187h1.578v9.187H310.864z"/>
		<path d="M313.559,76.771l3.4-4.775l-3.146-4.412h1.973l1.429,2.154c0.269,0.41,0.484,0.753,0.648,1.03
			c0.257-0.381,0.494-0.718,0.71-1.012l1.569-2.171h1.885l-3.218,4.325l3.463,4.862h-1.938l-1.91-2.854l-0.509-0.771l-2.446,3.625
			H313.559z"/>
		<path d="M329.96,73.812l1.63,0.199c-0.257,0.94-0.733,1.67-1.429,2.188c-0.695,0.52-1.584,0.779-2.665,0.779
			c-1.361,0-2.441-0.414-3.238-1.242c-0.798-0.827-1.197-1.987-1.197-3.481c0-1.545,0.403-2.745,1.21-3.599s1.853-1.28,3.139-1.28
			c1.244,0,2.261,0.418,3.05,1.254c0.789,0.836,1.184,2.013,1.184,3.529c0,0.093-0.003,0.231-0.009,0.416h-6.942
			c0.059,1.009,0.348,1.782,0.867,2.318c0.521,0.536,1.169,0.805,1.946,0.805c0.579,0,1.072-0.15,1.481-0.45
			S329.72,74.47,329.96,73.812z M324.779,71.295h5.198c-0.07-0.773-0.27-1.353-0.597-1.739c-0.503-0.6-1.154-0.899-1.955-0.899
			c-0.725,0-1.333,0.239-1.827,0.718C325.104,69.853,324.831,70.493,324.779,71.295z"/>
		<path d="M333.303,76.771v-9.187h1.42v1.393c0.362-0.651,0.697-1.081,1.004-1.289c0.307-0.208,0.645-0.312,1.013-0.312
			c0.531,0,1.072,0.167,1.621,0.501l-0.543,1.445c-0.386-0.225-0.771-0.337-1.157-0.337c-0.345,0-0.654,0.103-0.93,0.307
			c-0.274,0.205-0.47,0.489-0.587,0.852c-0.176,0.554-0.263,1.159-0.263,1.817v4.81H333.303z"/>
	</g>
	
		<line fill="none" stroke="#000000" stroke-width="0" stroke-linecap="square" stroke-miterlimit="10" x1="395.709" y1="106.299" x2="350.827" y2="106.299"/>
	<polygon fill-rule="evenodd" clip-rule="evenodd" points="394.213,105.561 394.213,104.823 394.961,104.085 394.961,103.347 
		395.709,102.608 396.457,102.608 397.205,101.87 397.953,101.87 398.701,101.87 399.449,102.608 400.197,102.608 400.945,103.347 
		401.693,104.085 401.693,104.823 402.441,105.561 402.441,106.299 402.441,107.037 401.693,107.775 401.693,108.514 
		400.945,109.252 400.197,109.99 399.449,109.99 398.701,110.729 397.953,110.729 397.205,110.729 396.457,109.99 395.709,109.99 
		394.961,109.252 394.961,108.514 394.213,107.775 394.213,107.037 394.213,106.299 394.213,105.561 	"/>
	<polygon fill-rule="evenodd" clip-rule="evenodd" points="340.354,106.299 353.071,110.729 353.071,101.87 340.354,106.299 	"/>
	
		<line fill="none" stroke="#000000" stroke-width="0" stroke-linecap="square" stroke-miterlimit="10" x1="448.819" y1="106.299" x2="402.441" y2="106.299"/>
	<rect fill-rule="evenodd" clip-rule="evenodd" fill="#FFFFFF" width="0" height="0"/>
	<g>
		<path d="M349.975,78.709l1.27-0.109c0.061,0.502,0.2,0.914,0.42,1.236c0.22,0.321,0.562,0.582,1.023,0.78
			c0.463,0.198,0.983,0.298,1.562,0.298c0.514,0,0.967-0.075,1.36-0.226c0.394-0.151,0.686-0.357,0.878-0.62
			s0.288-0.549,0.288-0.859c0-0.315-0.093-0.59-0.277-0.825c-0.186-0.235-0.491-0.433-0.916-0.593
			c-0.273-0.104-0.877-0.268-1.812-0.489s-1.589-0.431-1.964-0.627c-0.486-0.251-0.848-0.563-1.086-0.935s-0.357-0.789-0.357-1.25
			c0-0.507,0.146-0.98,0.437-1.421c0.292-0.44,0.718-0.775,1.277-1.004c0.56-0.228,1.182-0.342,1.867-0.342
			c0.754,0,1.419,0.12,1.995,0.359c0.575,0.24,1.019,0.592,1.329,1.059c0.31,0.465,0.476,0.992,0.499,1.582l-1.291,0.096
			c-0.069-0.635-0.304-1.114-0.704-1.438s-0.991-0.486-1.773-0.486c-0.813,0-1.407,0.147-1.779,0.441
			c-0.373,0.295-0.559,0.65-0.559,1.065c0,0.36,0.132,0.657,0.396,0.891c0.259,0.232,0.936,0.471,2.029,0.715
			c1.095,0.245,1.845,0.458,2.252,0.641c0.593,0.27,1.029,0.61,1.312,1.024c0.282,0.413,0.424,0.889,0.424,1.428
			c0,0.534-0.155,1.037-0.465,1.51c-0.311,0.473-0.756,0.84-1.336,1.103c-0.581,0.263-1.234,0.394-1.961,0.394
			c-0.921,0-1.692-0.132-2.314-0.396c-0.622-0.266-1.11-0.663-1.464-1.195C350.179,79.981,349.993,79.38,349.975,78.709z"/>
		<path d="M364.301,79.593l1.29,0.157c-0.203,0.744-0.58,1.321-1.131,1.732s-1.254,0.616-2.109,0.616
			c-1.078,0-1.933-0.327-2.564-0.982s-0.947-1.574-0.947-2.757c0-1.224,0.319-2.173,0.958-2.849
			c0.638-0.676,1.466-1.014,2.484-1.014c0.985,0,1.79,0.331,2.415,0.993c0.624,0.662,0.937,1.594,0.937,2.794
			c0,0.073-0.002,0.183-0.007,0.329h-5.496c0.046,0.799,0.275,1.41,0.687,1.835c0.412,0.425,0.926,0.637,1.541,0.637
			c0.458,0,0.849-0.118,1.173-0.355C363.854,80.492,364.11,80.113,364.301,79.593z M360.199,77.6h4.115
			c-0.056-0.612-0.213-1.07-0.472-1.377c-0.398-0.475-0.914-0.712-1.548-0.712c-0.574,0-1.056,0.189-1.447,0.568
			C360.457,76.458,360.24,76.965,360.199,77.6z"/>
		<path d="M371.557,79.271l1.229,0.157c-0.135,0.836-0.478,1.49-1.03,1.962c-0.554,0.473-1.232,0.709-2.037,0.709
			c-1.009,0-1.819-0.325-2.433-0.976s-0.919-1.583-0.919-2.798c0-0.785,0.132-1.472,0.396-2.062c0.264-0.589,0.665-1.03,1.204-1.325
			c0.538-0.294,1.125-0.441,1.759-0.441c0.801,0,1.455,0.2,1.964,0.6s0.835,0.967,0.979,1.701l-1.215,0.186
			c-0.115-0.488-0.32-0.856-0.613-1.103c-0.294-0.247-0.649-0.37-1.065-0.37c-0.63,0-1.141,0.223-1.534,0.668
			s-0.59,1.149-0.59,2.112c0,0.978,0.189,1.688,0.569,2.13c0.379,0.443,0.874,0.664,1.485,0.664c0.49,0,0.899-0.147,1.228-0.444
			C371.261,80.344,371.469,79.887,371.557,79.271z"/>
		<path d="M373.019,78.298c0-1.347,0.38-2.344,1.139-2.992c0.634-0.539,1.406-0.809,2.317-0.809c1.014,0,1.842,0.328,2.484,0.982
			c0.644,0.655,0.965,1.561,0.965,2.716c0,0.936-0.143,1.672-0.427,2.209c-0.284,0.536-0.698,0.953-1.242,1.249
			c-0.544,0.297-1.137,0.445-1.78,0.445c-1.031,0-1.865-0.326-2.502-0.979C373.337,80.467,373.019,79.526,373.019,78.298z
			 M374.303,78.298c0,0.932,0.206,1.629,0.617,2.093c0.412,0.463,0.931,0.694,1.555,0.694c0.62,0,1.136-0.232,1.548-0.698
			c0.411-0.466,0.617-1.176,0.617-2.13c0-0.899-0.207-1.581-0.621-2.044c-0.414-0.464-0.929-0.695-1.544-0.695
			c-0.624,0-1.143,0.23-1.555,0.691C374.509,76.671,374.303,77.366,374.303,78.298z"/>
		<path d="M380.976,81.935v-7.273h1.125v1.034c0.541-0.799,1.322-1.198,2.346-1.198c0.443,0,0.852,0.079,1.225,0.236
			c0.372,0.157,0.651,0.364,0.836,0.62s0.314,0.559,0.389,0.91c0.046,0.229,0.069,0.628,0.069,1.199v4.472h-1.249v-4.424
			c0-0.503-0.049-0.878-0.146-1.127c-0.098-0.249-0.27-0.447-0.518-0.596c-0.247-0.148-0.537-0.223-0.871-0.223
			c-0.531,0-0.991,0.167-1.377,0.5c-0.387,0.333-0.58,0.966-0.58,1.897v3.972H380.976z"/>
		<path d="M393.25,81.935v-0.918c-0.468,0.722-1.154,1.082-2.062,1.082c-0.588,0-1.128-0.159-1.62-0.479
			c-0.493-0.319-0.875-0.766-1.146-1.339c-0.271-0.572-0.406-1.231-0.406-1.976c0-0.726,0.123-1.384,0.368-1.976
			c0.245-0.591,0.613-1.044,1.104-1.359s1.038-0.473,1.645-0.473c0.444,0,0.84,0.093,1.187,0.277
			c0.348,0.185,0.63,0.426,0.847,0.723v-3.603h1.242v10.04H393.25z M389.301,78.305c0,0.932,0.199,1.628,0.597,2.089
			c0.398,0.461,0.868,0.691,1.409,0.691c0.546,0,1.01-0.22,1.392-0.66c0.381-0.44,0.572-1.113,0.572-2.018
			c0-0.995-0.194-1.726-0.583-2.191s-0.867-0.698-1.437-0.698c-0.556,0-1.02,0.224-1.392,0.671
			C389.487,76.637,389.301,77.342,389.301,78.305z"/>
		<path d="M400.77,81.037c-0.463,0.389-0.908,0.662-1.336,0.822c-0.428,0.159-0.887,0.239-1.378,0.239
			c-0.81,0-1.432-0.195-1.866-0.585c-0.436-0.391-0.652-0.89-0.652-1.497c0-0.355,0.082-0.681,0.246-0.976
			c0.164-0.294,0.38-0.53,0.646-0.709c0.266-0.178,0.565-0.313,0.898-0.403c0.245-0.064,0.615-0.126,1.11-0.186
			c1.009-0.118,1.751-0.26,2.228-0.425c0.005-0.169,0.008-0.275,0.008-0.321c0-0.502-0.118-0.856-0.354-1.062
			c-0.319-0.278-0.793-0.418-1.423-0.418c-0.587,0-1.021,0.102-1.301,0.305c-0.28,0.203-0.487,0.563-0.621,1.079l-1.222-0.165
			c0.111-0.516,0.294-0.933,0.549-1.25c0.254-0.316,0.622-0.562,1.103-0.732c0.481-0.171,1.039-0.257,1.673-0.257
			c0.629,0,1.141,0.073,1.534,0.22c0.393,0.146,0.682,0.329,0.867,0.551c0.185,0.222,0.314,0.501,0.389,0.839
			c0.041,0.21,0.063,0.589,0.063,1.137v1.644c0,1.146,0.026,1.871,0.079,2.175c0.054,0.304,0.159,0.595,0.316,0.873h-1.305
			C400.89,81.679,400.807,81.38,400.77,81.037z M400.665,78.284c-0.453,0.183-1.133,0.338-2.04,0.466
			c-0.514,0.073-0.877,0.155-1.09,0.247c-0.212,0.091-0.377,0.225-0.492,0.4c-0.116,0.176-0.174,0.371-0.174,0.585
			c0,0.329,0.126,0.603,0.379,0.822c0.252,0.219,0.621,0.329,1.106,0.329c0.481,0,0.909-0.104,1.284-0.313
			c0.374-0.207,0.649-0.491,0.825-0.853c0.135-0.278,0.201-0.689,0.201-1.232V78.284z"/>
		<path d="M403.438,81.935v-7.273h1.124v1.103c0.287-0.516,0.552-0.855,0.795-1.02c0.243-0.165,0.51-0.247,0.802-0.247
			c0.421,0,0.849,0.133,1.283,0.397l-0.43,1.144c-0.306-0.178-0.61-0.268-0.916-0.268c-0.273,0-0.519,0.082-0.735,0.243
			c-0.218,0.162-0.373,0.388-0.466,0.675c-0.139,0.438-0.208,0.918-0.208,1.438v3.808H403.438z"/>
		<path d="M407.889,84.735l-0.14-1.157c0.273,0.073,0.512,0.109,0.715,0.109c0.278,0,0.5-0.046,0.667-0.137
			c0.166-0.092,0.303-0.219,0.409-0.384c0.078-0.123,0.206-0.429,0.382-0.917c0.022-0.069,0.06-0.169,0.11-0.302l-2.796-7.287h1.346
			l1.534,4.212c0.198,0.534,0.377,1.096,0.534,1.685c0.144-0.565,0.314-1.118,0.514-1.657l1.575-4.239h1.249l-2.804,7.396
			c-0.301,0.799-0.534,1.35-0.701,1.65c-0.222,0.406-0.477,0.704-0.763,0.894c-0.287,0.189-0.63,0.285-1.027,0.285
			C408.452,84.887,408.185,84.836,407.889,84.735z"/>
		<path d="M423.24,81.037c-0.463,0.389-0.908,0.662-1.336,0.822c-0.428,0.159-0.887,0.239-1.378,0.239
			c-0.81,0-1.432-0.195-1.866-0.585c-0.436-0.391-0.652-0.89-0.652-1.497c0-0.355,0.082-0.681,0.246-0.976
			c0.164-0.294,0.38-0.53,0.646-0.709c0.266-0.178,0.565-0.313,0.898-0.403c0.245-0.064,0.615-0.126,1.11-0.186
			c1.009-0.118,1.751-0.26,2.228-0.425c0.005-0.169,0.008-0.275,0.008-0.321c0-0.502-0.118-0.856-0.354-1.062
			c-0.319-0.278-0.793-0.418-1.423-0.418c-0.587,0-1.021,0.102-1.301,0.305c-0.28,0.203-0.487,0.563-0.621,1.079l-1.222-0.165
			c0.111-0.516,0.294-0.933,0.549-1.25c0.254-0.316,0.622-0.562,1.103-0.732c0.481-0.171,1.039-0.257,1.673-0.257
			c0.629,0,1.141,0.073,1.534,0.22c0.393,0.146,0.682,0.329,0.867,0.551c0.185,0.222,0.314,0.501,0.389,0.839
			c0.041,0.21,0.063,0.589,0.063,1.137v1.644c0,1.146,0.026,1.871,0.079,2.175c0.054,0.304,0.159,0.595,0.316,0.873h-1.305
			C423.36,81.679,423.277,81.38,423.24,81.037z M423.136,78.284c-0.453,0.183-1.133,0.338-2.04,0.466
			c-0.514,0.073-0.877,0.155-1.09,0.247c-0.212,0.091-0.377,0.225-0.492,0.4c-0.116,0.176-0.174,0.371-0.174,0.585
			c0,0.329,0.126,0.603,0.379,0.822c0.252,0.219,0.621,0.329,1.106,0.329c0.481,0,0.909-0.104,1.284-0.313
			c0.374-0.207,0.649-0.491,0.825-0.853c0.135-0.278,0.201-0.689,0.201-1.232V78.284z"/>
		<path d="M425.93,73.313v-1.418h1.25v1.418H425.93z M425.93,81.935v-7.273h1.25v7.273H425.93z"/>
		<path d="M428.91,81.935v-7.273h1.124v1.103c0.287-0.516,0.552-0.855,0.795-1.02c0.243-0.165,0.51-0.247,0.802-0.247
			c0.421,0,0.849,0.133,1.283,0.397l-0.43,1.144c-0.306-0.178-0.61-0.268-0.916-0.268c-0.273,0-0.519,0.082-0.735,0.243
			c-0.218,0.162-0.373,0.388-0.466,0.675c-0.139,0.438-0.208,0.918-0.208,1.438v3.808H428.91z"/>
	</g>
	<rect fill-rule="evenodd" clip-rule="evenodd" fill="#FFFFFF" width="0" height="0"/>
	<g>
		<path d="M350.259,97.435v-7.273h1.124v1.103c0.287-0.516,0.552-0.855,0.795-1.02c0.243-0.165,0.51-0.247,0.802-0.247
			c0.421,0,0.849,0.133,1.283,0.397l-0.43,1.144c-0.306-0.178-0.61-0.268-0.916-0.268c-0.273,0-0.519,0.082-0.735,0.243
			c-0.218,0.162-0.373,0.388-0.466,0.675c-0.139,0.438-0.208,0.918-0.208,1.438v3.808H350.259z"/>
		<path d="M359.81,95.093l1.29,0.157c-0.203,0.744-0.58,1.321-1.131,1.732s-1.254,0.616-2.109,0.616
			c-1.078,0-1.933-0.327-2.564-0.982s-0.947-1.574-0.947-2.757c0-1.224,0.319-2.173,0.958-2.849
			c0.638-0.676,1.466-1.014,2.484-1.014c0.985,0,1.79,0.331,2.415,0.993c0.624,0.662,0.937,1.594,0.937,2.794
			c0,0.073-0.002,0.183-0.007,0.329h-5.496c0.046,0.799,0.275,1.41,0.687,1.835c0.412,0.425,0.926,0.637,1.541,0.637
			c0.458,0,0.849-0.118,1.173-0.355C359.362,95.992,359.619,95.613,359.81,95.093z M355.708,93.1h4.115
			c-0.056-0.612-0.213-1.07-0.472-1.377c-0.398-0.475-0.914-0.712-1.548-0.712c-0.574,0-1.056,0.189-1.447,0.568
			C355.966,91.958,355.749,92.465,355.708,93.1z"/>
		<path d="M367.065,94.771l1.229,0.157c-0.135,0.836-0.478,1.49-1.03,1.962c-0.554,0.473-1.232,0.709-2.037,0.709
			c-1.009,0-1.819-0.325-2.433-0.976s-0.919-1.583-0.919-2.798c0-0.785,0.132-1.472,0.396-2.062c0.264-0.589,0.665-1.03,1.204-1.325
			c0.538-0.294,1.125-0.441,1.759-0.441c0.801,0,1.455,0.2,1.964,0.6s0.835,0.967,0.979,1.701l-1.215,0.186
			c-0.115-0.488-0.32-0.856-0.613-1.103c-0.294-0.247-0.649-0.37-1.065-0.37c-0.63,0-1.141,0.223-1.534,0.668
			s-0.59,1.149-0.59,2.112c0,0.978,0.189,1.688,0.569,2.13c0.379,0.443,0.874,0.664,1.485,0.664c0.49,0,0.899-0.147,1.228-0.444
			C366.77,95.844,366.978,95.387,367.065,94.771z"/>
		<path d="M369,88.813v-1.418h1.25v1.418H369z M369,97.435v-7.273h1.25v7.273H369z"/>
		<path d="M371.98,97.435v-7.273h1.124v1.103c0.287-0.516,0.552-0.855,0.795-1.02c0.243-0.165,0.51-0.247,0.802-0.247
			c0.421,0,0.849,0.133,1.283,0.397l-0.43,1.144c-0.306-0.178-0.61-0.268-0.916-0.268c-0.273,0-0.519,0.082-0.735,0.243
			c-0.218,0.162-0.373,0.388-0.466,0.675c-0.139,0.438-0.208,0.918-0.208,1.438v3.808H371.98z"/>
		<path d="M381.295,94.771l1.229,0.157c-0.135,0.836-0.478,1.49-1.03,1.962c-0.554,0.473-1.232,0.709-2.037,0.709
			c-1.009,0-1.819-0.325-2.433-0.976s-0.919-1.583-0.919-2.798c0-0.785,0.132-1.472,0.396-2.062c0.264-0.589,0.665-1.03,1.204-1.325
			c0.538-0.294,1.125-0.441,1.759-0.441c0.801,0,1.455,0.2,1.964,0.6s0.835,0.967,0.979,1.701l-1.215,0.186
			c-0.115-0.488-0.32-0.856-0.613-1.103c-0.294-0.247-0.649-0.37-1.065-0.37c-0.63,0-1.141,0.223-1.534,0.668
			s-0.59,1.149-0.59,2.112c0,0.978,0.189,1.688,0.569,2.13c0.379,0.443,0.874,0.664,1.485,0.664c0.49,0,0.899-0.147,1.228-0.444
			C380.999,95.844,381.207,95.387,381.295,94.771z"/>
		<path d="M387.271,97.435V91.12h-1.104v-0.959h1.104v-0.773c0-0.488,0.044-0.852,0.132-1.089c0.12-0.319,0.332-0.579,0.635-0.777
			s0.728-0.298,1.273-0.298c0.352,0,0.74,0.041,1.166,0.123l-0.188,1.075c-0.259-0.046-0.504-0.068-0.735-0.068
			c-0.38,0-0.647,0.08-0.805,0.239c-0.158,0.16-0.236,0.459-0.236,0.897v0.671h1.437v0.959h-1.437v6.314H387.271z"/>
		<path d="M390.708,97.435v-7.273h1.124v1.103c0.287-0.516,0.552-0.855,0.795-1.02c0.243-0.165,0.51-0.247,0.802-0.247
			c0.421,0,0.849,0.133,1.283,0.397l-0.43,1.144c-0.306-0.178-0.61-0.268-0.916-0.268c-0.273,0-0.519,0.082-0.735,0.243
			c-0.218,0.162-0.373,0.388-0.466,0.675c-0.139,0.438-0.208,0.918-0.208,1.438v3.808H390.708z"/>
		<path d="M394.748,93.798c0-1.347,0.38-2.344,1.139-2.992c0.634-0.539,1.406-0.809,2.317-0.809c1.014,0,1.842,0.328,2.484,0.982
			c0.644,0.655,0.965,1.561,0.965,2.716c0,0.936-0.143,1.672-0.427,2.209c-0.284,0.536-0.698,0.953-1.242,1.249
			c-0.544,0.297-1.137,0.445-1.78,0.445c-1.031,0-1.865-0.326-2.502-0.979C395.066,95.967,394.748,95.026,394.748,93.798z
			 M396.032,93.798c0,0.932,0.206,1.629,0.617,2.093c0.412,0.463,0.931,0.694,1.555,0.694c0.62,0,1.136-0.232,1.548-0.698
			c0.411-0.466,0.617-1.176,0.617-2.13c0-0.899-0.207-1.581-0.621-2.044c-0.414-0.464-0.929-0.695-1.544-0.695
			c-0.624,0-1.143,0.23-1.555,0.691C396.238,92.171,396.032,92.866,396.032,93.798z"/>
		<path d="M402.705,97.435v-7.273h1.117v1.021c0.231-0.355,0.539-0.643,0.924-0.859c0.384-0.217,0.82-0.325,1.312-0.325
			c0.546,0,0.993,0.112,1.343,0.336c0.349,0.224,0.596,0.536,0.739,0.938c0.583-0.849,1.341-1.273,2.275-1.273
			c0.731,0,1.294,0.2,1.687,0.6c0.394,0.399,0.59,1.015,0.59,1.846v4.992h-1.242v-4.582c0-0.492-0.04-0.848-0.121-1.064
			s-0.228-0.392-0.44-0.524c-0.213-0.132-0.463-0.198-0.75-0.198c-0.518,0-0.948,0.17-1.291,0.511
			c-0.342,0.34-0.513,0.884-0.513,1.633v4.226h-1.25v-4.726c0-0.548-0.102-0.959-0.305-1.232c-0.204-0.274-0.537-0.411-1-0.411
			c-0.352,0-0.676,0.092-0.975,0.274s-0.515,0.449-0.648,0.801c-0.135,0.352-0.202,0.858-0.202,1.521v3.773H402.705z"/>
		<path d="M417.023,97.435v-1l4.691-5.314c-0.532,0.027-1.002,0.041-1.408,0.041h-3.005v-1h6.023v0.815l-3.99,4.616l-0.771,0.842
			c0.56-0.041,1.085-0.062,1.575-0.062h3.407v1.062H417.023z"/>
		<path d="M423.955,93.798c0-1.347,0.38-2.344,1.139-2.992c0.634-0.539,1.406-0.809,2.317-0.809c1.014,0,1.842,0.328,2.484,0.982
			c0.644,0.655,0.965,1.561,0.965,2.716c0,0.936-0.143,1.672-0.427,2.209c-0.284,0.536-0.698,0.953-1.242,1.249
			c-0.544,0.297-1.137,0.445-1.78,0.445c-1.031,0-1.865-0.326-2.502-0.979C424.273,95.967,423.955,95.026,423.955,93.798z
			 M425.239,93.798c0,0.932,0.206,1.629,0.617,2.093c0.412,0.463,0.931,0.694,1.555,0.694c0.62,0,1.136-0.232,1.548-0.698
			c0.411-0.466,0.617-1.176,0.617-2.13c0-0.899-0.207-1.581-0.621-2.044c-0.414-0.464-0.929-0.695-1.544-0.695
			c-0.624,0-1.143,0.23-1.555,0.691C425.445,92.171,425.239,92.866,425.239,93.798z"/>
		<path d="M431.912,97.435v-7.273h1.125v1.034c0.541-0.799,1.322-1.198,2.346-1.198c0.443,0,0.852,0.079,1.225,0.236
			c0.372,0.157,0.651,0.364,0.836,0.62s0.314,0.559,0.389,0.91c0.046,0.229,0.069,0.628,0.069,1.199v4.472h-1.249v-4.424
			c0-0.503-0.049-0.878-0.146-1.127c-0.098-0.249-0.27-0.447-0.518-0.596c-0.247-0.148-0.537-0.223-0.871-0.223
			c-0.531,0-0.991,0.167-1.377,0.5c-0.387,0.333-0.58,0.966-0.58,1.897v3.972H431.912z"/>
		<path d="M444.45,95.093l1.29,0.157c-0.203,0.744-0.58,1.321-1.131,1.732s-1.254,0.616-2.109,0.616
			c-1.078,0-1.933-0.327-2.564-0.982s-0.947-1.574-0.947-2.757c0-1.224,0.319-2.173,0.958-2.849
			c0.638-0.676,1.466-1.014,2.484-1.014c0.985,0,1.79,0.331,2.415,0.993c0.624,0.662,0.937,1.594,0.937,2.794
			c0,0.073-0.002,0.183-0.007,0.329h-5.496c0.046,0.799,0.275,1.41,0.687,1.835c0.412,0.425,0.926,0.637,1.541,0.637
			c0.458,0,0.849-0.118,1.173-0.355C444.003,95.992,444.26,95.613,444.45,95.093z M440.349,93.1h4.115
			c-0.056-0.612-0.213-1.07-0.472-1.377c-0.398-0.475-0.914-0.712-1.548-0.712c-0.574,0-1.056,0.189-1.447,0.568
			C440.606,91.958,440.39,92.465,440.349,93.1z"/>
	</g>
	
		<line fill="none" stroke="#000000" stroke-width="0" stroke-linecap="square" stroke-miterlimit="10" x1="395.709" y1="35.433" x2="350.827" y2="35.433"/>
	<polygon fill-rule="evenodd" clip-rule="evenodd" points="394.213,34.695 394.213,33.957 394.961,33.219 394.961,32.48 
		395.709,31.742 396.457,31.742 397.205,31.004 397.953,31.004 398.701,31.004 399.449,31.742 400.197,31.742 400.945,32.48 
		401.693,33.219 401.693,33.957 402.441,34.695 402.441,35.433 402.441,36.171 401.693,36.909 401.693,37.647 400.945,38.386 
		400.197,39.124 399.449,39.124 398.701,39.862 397.953,39.862 397.205,39.862 396.457,39.124 395.709,39.124 394.961,38.386 
		394.961,37.647 394.213,36.909 394.213,36.171 394.213,35.433 394.213,34.695 	"/>
	<polygon fill-rule="evenodd" clip-rule="evenodd" points="340.354,35.433 353.071,39.862 353.071,31.004 340.354,35.433 	"/>
	
		<line fill="none" stroke="#000000" stroke-width="0" stroke-linecap="square" stroke-miterlimit="10" x1="402.441" y1="35.433" x2="443.583" y2="35.433"/>
	
		<line fill="none" stroke="#000000" stroke-width="0" stroke-linecap="square" stroke-miterlimit="10" x1="10.473" y1="70.866" x2="50.866" y2="70.866"/>
	<polygon fill-rule="evenodd" clip-rule="evenodd" points="0,70.866 12.716,75.295 12.716,66.437 0,70.866 	"/>
	<polygon fill-rule="evenodd" clip-rule="evenodd" points="49.37,70.128 49.37,69.39 50.118,68.651 50.866,67.913 51.614,67.175 
		52.362,67.175 53.11,66.437 53.858,66.437 54.606,66.437 55.354,67.175 56.103,67.175 56.851,67.913 56.851,68.651 57.599,69.39 
		57.599,70.128 57.599,70.866 57.599,71.604 57.599,72.343 56.851,73.081 56.851,73.819 56.103,74.557 55.354,74.557 54.606,75.295 
		53.858,75.295 53.11,75.295 52.362,74.557 51.614,74.557 50.866,73.819 50.118,73.081 49.37,72.343 49.37,71.604 49.37,70.866 
		49.37,70.128 	"/>
	
		<line fill="none" stroke="#000000" stroke-width="0" stroke-linecap="square" stroke-miterlimit="10" x1="92.756" y1="70.866" x2="49.37" y2="70.866"/>
	<rect fill-rule="evenodd" clip-rule="evenodd" fill="#FFFFFF" width="0" height="0"/>
	<g>
		<path d="M348.94,16.231V6.191h3.838c0.675,0,1.19,0.032,1.547,0.096c0.5,0.082,0.919,0.239,1.257,0.469
			c0.337,0.23,0.609,0.553,0.815,0.969c0.205,0.416,0.309,0.872,0.309,1.37c0,0.854-0.275,1.577-0.826,2.167
			c-0.551,0.591-1.545,0.887-2.984,0.887h-2.609v4.082H348.94z M350.286,10.965h2.631c0.869,0,1.487-0.16,1.853-0.479
			c0.365-0.32,0.548-0.77,0.548-1.35c0-0.42-0.107-0.779-0.322-1.079c-0.215-0.299-0.499-0.496-0.85-0.592
			c-0.228-0.059-0.646-0.089-1.257-0.089h-2.603V10.965z"/>
		<path d="M357.749,16.231V8.958h1.124v1.103c0.287-0.516,0.552-0.856,0.795-1.021c0.243-0.164,0.51-0.247,0.802-0.247
			c0.421,0,0.849,0.133,1.283,0.397l-0.43,1.144c-0.306-0.178-0.61-0.267-0.916-0.267c-0.273,0-0.519,0.081-0.735,0.243
			c-0.218,0.162-0.373,0.387-0.466,0.674c-0.139,0.438-0.208,0.918-0.208,1.438v3.808H357.749z"/>
		<path d="M362.261,7.609V6.191h1.25v1.418H362.261z M362.261,16.231V8.958h1.25v7.273H362.261z"/>
		<path d="M365.255,16.231V8.958h1.117v1.021c0.231-0.356,0.539-0.643,0.924-0.86c0.384-0.217,0.82-0.325,1.312-0.325
			c0.546,0,0.993,0.112,1.343,0.335c0.349,0.224,0.596,0.537,0.739,0.938c0.583-0.849,1.341-1.274,2.275-1.274
			c0.731,0,1.294,0.2,1.687,0.599c0.394,0.4,0.59,1.015,0.59,1.846v4.993h-1.242V11.65c0-0.493-0.04-0.848-0.121-1.065
			s-0.228-0.392-0.44-0.524s-0.463-0.199-0.75-0.199c-0.518,0-0.948,0.17-1.291,0.51c-0.342,0.34-0.513,0.885-0.513,1.633v4.226
			h-1.25v-4.726c0-0.548-0.102-0.958-0.305-1.232c-0.204-0.274-0.537-0.411-1-0.411c-0.352,0-0.676,0.091-0.975,0.274
			s-0.515,0.45-0.648,0.801c-0.135,0.352-0.202,0.858-0.202,1.521v3.773H365.255z"/>
		<path d="M382.031,15.334c-0.463,0.388-0.908,0.662-1.336,0.822s-0.887,0.24-1.378,0.24c-0.81,0-1.432-0.195-1.866-0.586
			c-0.436-0.39-0.652-0.889-0.652-1.496c0-0.356,0.082-0.682,0.246-0.976s0.38-0.531,0.646-0.708
			c0.266-0.178,0.565-0.313,0.898-0.404c0.245-0.064,0.615-0.125,1.11-0.185c1.009-0.119,1.751-0.26,2.228-0.424
			c0.005-0.169,0.008-0.276,0.008-0.322c0-0.502-0.118-0.856-0.354-1.062c-0.319-0.279-0.793-0.418-1.423-0.418
			c-0.587,0-1.021,0.102-1.301,0.305c-0.28,0.203-0.487,0.563-0.621,1.079l-1.222-0.164c0.111-0.516,0.294-0.933,0.549-1.25
			c0.254-0.317,0.622-0.562,1.103-0.733c0.481-0.171,1.039-0.257,1.673-0.257c0.629,0,1.141,0.073,1.534,0.219
			c0.393,0.146,0.682,0.33,0.867,0.551c0.185,0.222,0.314,0.501,0.389,0.839c0.041,0.21,0.063,0.589,0.063,1.137v1.644
			c0,1.146,0.026,1.871,0.079,2.174c0.054,0.304,0.159,0.595,0.316,0.873h-1.305C382.151,15.976,382.068,15.677,382.031,15.334z
			 M381.927,12.581c-0.453,0.183-1.133,0.338-2.04,0.466c-0.514,0.073-0.877,0.155-1.09,0.247c-0.212,0.091-0.377,0.225-0.492,0.401
			c-0.116,0.176-0.174,0.371-0.174,0.585c0,0.329,0.126,0.603,0.379,0.822c0.252,0.219,0.621,0.329,1.106,0.329
			c0.481,0,0.909-0.104,1.284-0.312c0.374-0.208,0.649-0.492,0.825-0.853c0.135-0.279,0.201-0.689,0.201-1.233V12.581z"/>
		<path d="M384.7,16.231V8.958h1.124v1.103c0.287-0.516,0.552-0.856,0.795-1.021c0.243-0.164,0.51-0.247,0.802-0.247
			c0.421,0,0.849,0.133,1.283,0.397l-0.43,1.144c-0.306-0.178-0.61-0.267-0.916-0.267c-0.273,0-0.519,0.081-0.735,0.243
			c-0.218,0.162-0.373,0.387-0.466,0.674c-0.139,0.438-0.208,0.918-0.208,1.438v3.808H384.7z"/>
		<path d="M389.151,19.032l-0.14-1.157c0.273,0.073,0.512,0.11,0.715,0.11c0.278,0,0.5-0.046,0.667-0.137
			c0.166-0.091,0.303-0.219,0.409-0.383c0.078-0.124,0.206-0.429,0.382-0.918c0.022-0.068,0.06-0.169,0.11-0.301l-2.796-7.287h1.346
			l1.534,4.212c0.198,0.534,0.377,1.096,0.534,1.685c0.144-0.566,0.314-1.119,0.514-1.657l1.575-4.239h1.249l-2.804,7.396
			c-0.301,0.799-0.534,1.35-0.701,1.651c-0.222,0.406-0.477,0.704-0.763,0.894c-0.287,0.189-0.63,0.284-1.027,0.284
			C389.715,19.183,389.447,19.133,389.151,19.032z"/>
		<path d="M404.502,15.334c-0.463,0.388-0.908,0.662-1.336,0.822s-0.887,0.24-1.378,0.24c-0.81,0-1.432-0.195-1.866-0.586
			c-0.436-0.39-0.652-0.889-0.652-1.496c0-0.356,0.082-0.682,0.246-0.976s0.38-0.531,0.646-0.708
			c0.266-0.178,0.565-0.313,0.898-0.404c0.245-0.064,0.615-0.125,1.11-0.185c1.009-0.119,1.751-0.26,2.228-0.424
			c0.005-0.169,0.008-0.276,0.008-0.322c0-0.502-0.118-0.856-0.354-1.062c-0.319-0.279-0.793-0.418-1.423-0.418
			c-0.587,0-1.021,0.102-1.301,0.305c-0.28,0.203-0.487,0.563-0.621,1.079l-1.222-0.164c0.111-0.516,0.294-0.933,0.549-1.25
			c0.254-0.317,0.622-0.562,1.103-0.733c0.481-0.171,1.039-0.257,1.673-0.257c0.629,0,1.141,0.073,1.534,0.219
			c0.393,0.146,0.682,0.33,0.867,0.551c0.185,0.222,0.314,0.501,0.389,0.839c0.041,0.21,0.063,0.589,0.063,1.137v1.644
			c0,1.146,0.026,1.871,0.079,2.174c0.054,0.304,0.159,0.595,0.316,0.873h-1.305C404.622,15.976,404.539,15.677,404.502,15.334z
			 M404.397,12.581c-0.453,0.183-1.133,0.338-2.04,0.466c-0.514,0.073-0.877,0.155-1.09,0.247c-0.212,0.091-0.377,0.225-0.492,0.401
			c-0.116,0.176-0.174,0.371-0.174,0.585c0,0.329,0.126,0.603,0.379,0.822c0.252,0.219,0.621,0.329,1.106,0.329
			c0.481,0,0.909-0.104,1.284-0.312c0.374-0.208,0.649-0.492,0.825-0.853c0.135-0.279,0.201-0.689,0.201-1.233V12.581z"/>
		<path d="M407.191,7.609V6.191h1.25v1.418H407.191z M407.191,16.231V8.958h1.25v7.273H407.191z"/>
		<path d="M410.172,16.231V8.958h1.124v1.103c0.287-0.516,0.552-0.856,0.795-1.021c0.243-0.164,0.51-0.247,0.802-0.247
			c0.421,0,0.849,0.133,1.283,0.397l-0.43,1.144c-0.306-0.178-0.61-0.267-0.916-0.267c-0.273,0-0.519,0.081-0.735,0.243
			c-0.218,0.162-0.373,0.387-0.466,0.674c-0.139,0.438-0.208,0.918-0.208,1.438v3.808H410.172z"/>
		<path d="M418.726,16.231V9.917h-1.104V8.958h1.104V8.185c0-0.488,0.044-0.852,0.132-1.089c0.12-0.32,0.332-0.579,0.635-0.777
			s0.728-0.298,1.273-0.298c0.352,0,0.74,0.041,1.166,0.123l-0.188,1.075c-0.259-0.045-0.504-0.068-0.735-0.068
			c-0.38,0-0.647,0.08-0.805,0.24c-0.158,0.16-0.236,0.459-0.236,0.897v0.671h1.437v0.958h-1.437v6.314H418.726z"/>
		<path d="M422.163,16.231V8.958h1.124v1.103c0.287-0.516,0.552-0.856,0.795-1.021c0.243-0.164,0.51-0.247,0.802-0.247
			c0.421,0,0.849,0.133,1.283,0.397l-0.43,1.144c-0.306-0.178-0.61-0.267-0.916-0.267c-0.273,0-0.519,0.081-0.735,0.243
			c-0.218,0.162-0.373,0.387-0.466,0.674c-0.139,0.438-0.208,0.918-0.208,1.438v3.808H422.163z"/>
		<path d="M426.203,12.595c0-1.347,0.38-2.344,1.139-2.993c0.634-0.539,1.406-0.808,2.317-0.808c1.014,0,1.842,0.328,2.484,0.983
			c0.644,0.655,0.965,1.561,0.965,2.715c0,0.936-0.143,1.672-0.427,2.208c-0.284,0.537-0.698,0.953-1.242,1.25
			s-1.137,0.445-1.78,0.445c-1.031,0-1.865-0.327-2.502-0.979C426.521,14.764,426.203,13.823,426.203,12.595z M427.487,12.595
			c0,0.932,0.206,1.629,0.617,2.092c0.412,0.463,0.931,0.695,1.555,0.695c0.62,0,1.136-0.233,1.548-0.699
			c0.411-0.466,0.617-1.175,0.617-2.13c0-0.899-0.207-1.581-0.621-2.044s-0.929-0.695-1.544-0.695c-0.624,0-1.143,0.23-1.555,0.692
			C427.693,10.967,427.487,11.664,427.487,12.595z"/>
		<path d="M434.16,16.231V8.958h1.117v1.021c0.231-0.356,0.539-0.643,0.924-0.86c0.384-0.217,0.82-0.325,1.312-0.325
			c0.546,0,0.993,0.112,1.343,0.335c0.349,0.224,0.596,0.537,0.739,0.938c0.583-0.849,1.341-1.274,2.275-1.274
			c0.731,0,1.294,0.2,1.687,0.599c0.394,0.4,0.59,1.015,0.59,1.846v4.993h-1.242V11.65c0-0.493-0.04-0.848-0.121-1.065
			s-0.228-0.392-0.44-0.524s-0.463-0.199-0.75-0.199c-0.518,0-0.948,0.17-1.291,0.51c-0.342,0.34-0.513,0.885-0.513,1.633v4.226
			h-1.25v-4.726c0-0.548-0.102-0.958-0.305-1.232c-0.204-0.274-0.537-0.411-1-0.411c-0.352,0-0.676,0.091-0.975,0.274
			s-0.515,0.45-0.648,0.801c-0.135,0.352-0.202,0.858-0.202,1.521v3.773H434.16z"/>
	</g>
	<rect fill-rule="evenodd" clip-rule="evenodd" fill="#FFFFFF" width="0" height="0"/>
	<g>
		<path d="M348.94,31.739v-10.04h3.504c0.792,0,1.396,0.048,1.812,0.144c0.583,0.132,1.08,0.372,1.492,0.719
			c0.537,0.447,0.938,1.019,1.204,1.715s0.399,1.492,0.399,2.387c0,0.763-0.091,1.438-0.271,2.027
			c-0.18,0.589-0.411,1.076-0.693,1.462s-0.591,0.689-0.927,0.911c-0.335,0.222-0.74,0.39-1.214,0.503
			c-0.475,0.114-1.02,0.171-1.635,0.171H348.94z M350.286,30.555h2.173c0.671,0,1.197-0.062,1.578-0.185
			c0.382-0.124,0.687-0.297,0.913-0.521c0.319-0.315,0.567-0.738,0.746-1.271c0.178-0.532,0.267-1.177,0.267-1.935
			c0-1.05-0.175-1.857-0.523-2.421c-0.35-0.564-0.774-0.942-1.273-1.133c-0.361-0.137-0.941-0.206-1.742-0.206h-2.138V30.555z"/>
		<path d="M358.27,26.85c0-1.667,0.453-2.971,1.359-3.914c0.907-0.943,2.077-1.414,3.512-1.414c0.939,0,1.786,0.221,2.54,0.664
			s1.329,1.061,1.725,1.853c0.396,0.792,0.594,1.69,0.594,2.695c0,1.019-0.209,1.929-0.625,2.733
			c-0.416,0.803-1.006,1.412-1.77,1.825c-0.764,0.414-1.587,0.62-2.471,0.62c-0.958,0-1.813-0.229-2.567-0.685
			c-0.755-0.457-1.326-1.08-1.715-1.87C358.464,28.566,358.27,27.73,358.27,26.85z M359.657,26.87c0,1.21,0.329,2.163,0.988,2.859
			c0.66,0.696,1.486,1.044,2.481,1.044c1.013,0,1.847-0.352,2.502-1.055c0.654-0.703,0.981-1.7,0.981-2.993
			c0-0.817-0.14-1.53-0.42-2.14c-0.279-0.609-0.689-1.082-1.228-1.417c-0.539-0.335-1.145-0.503-1.815-0.503
			c-0.953,0-1.772,0.323-2.46,0.969C360.001,24.28,359.657,25.359,359.657,26.87z"/>
		<path d="M368.772,31.739l3.907-10.04h1.45l4.164,10.04h-1.534l-1.187-3.041h-4.254l-1.117,3.041H368.772z M371.708,27.617h3.448
			l-1.062-2.781c-0.323-0.845-0.564-1.539-0.722-2.082c-0.13,0.644-0.313,1.283-0.548,1.918L371.708,27.617z"/>
	</g>
	<rect fill-rule="evenodd" clip-rule="evenodd" fill="#FFFFFF" width="0" height="0"/>
	<g>
		<path d="M14.857,45.49l1.27-0.109c0.06,0.502,0.2,0.914,0.42,1.236s0.561,0.582,1.024,0.781c0.462,0.199,0.983,0.298,1.562,0.298
			c0.513,0,0.967-0.075,1.36-0.226c0.393-0.15,0.686-0.357,0.878-0.62s0.288-0.549,0.288-0.859c0-0.315-0.093-0.59-0.278-0.825
			c-0.185-0.235-0.49-0.433-0.916-0.592c-0.273-0.105-0.876-0.269-1.811-0.49c-0.935-0.222-1.589-0.431-1.964-0.627
			c-0.486-0.251-0.848-0.563-1.086-0.935s-0.357-0.789-0.357-1.25c0-0.507,0.146-0.98,0.438-1.421s0.717-0.775,1.277-1.003
			c0.56-0.228,1.182-0.342,1.867-0.342c0.754,0,1.419,0.12,1.995,0.359c0.576,0.24,1.019,0.592,1.329,1.058s0.477,0.993,0.5,1.582
			L21.36,41.6c-0.069-0.634-0.304-1.114-0.705-1.438c-0.4-0.324-0.991-0.486-1.773-0.486c-0.814,0-1.408,0.147-1.78,0.442
			c-0.372,0.294-0.559,0.649-0.559,1.065c0,0.361,0.132,0.657,0.396,0.89c0.259,0.233,0.936,0.472,2.03,0.716
			c1.094,0.244,1.845,0.458,2.252,0.64c0.592,0.27,1.029,0.611,1.312,1.024s0.423,0.889,0.423,1.428c0,0.534-0.155,1.038-0.465,1.51
			c-0.31,0.473-0.755,0.84-1.336,1.103c-0.581,0.263-1.234,0.394-1.96,0.394c-0.92,0-1.692-0.133-2.314-0.397
			c-0.623-0.265-1.11-0.663-1.464-1.195S14.875,46.161,14.857,45.49z"/>
		<path d="M28.968,48.716v-1.068c-0.574,0.822-1.354,1.233-2.339,1.233c-0.435,0-0.841-0.083-1.218-0.247
			c-0.377-0.165-0.657-0.371-0.84-0.62c-0.183-0.249-0.311-0.553-0.385-0.914c-0.051-0.242-0.076-0.625-0.076-1.15v-4.506h1.249
			v4.034c0,0.644,0.025,1.078,0.076,1.301c0.079,0.324,0.246,0.579,0.5,0.764c0.254,0.185,0.569,0.277,0.944,0.277
			c0.375,0,0.726-0.095,1.055-0.284s0.561-0.448,0.697-0.774c0.137-0.327,0.205-0.8,0.205-1.421v-3.896h1.249v7.273H28.968z"/>
		<path d="M31.63,51.503v-10.06h1.138v0.945c0.268-0.37,0.571-0.647,0.909-0.832c0.338-0.185,0.747-0.277,1.229-0.277
			c0.629,0,1.185,0.16,1.666,0.479c0.481,0.32,0.844,0.771,1.089,1.353c0.246,0.582,0.368,1.22,0.368,1.914
			c0,0.744-0.135,1.414-0.406,2.01c-0.271,0.596-0.664,1.052-1.18,1.37c-0.516,0.317-1.058,0.476-1.627,0.476
			c-0.416,0-0.79-0.087-1.121-0.26c-0.331-0.174-0.603-0.393-0.815-0.658v3.541H31.63z M32.761,45.121
			c0,0.936,0.192,1.627,0.576,2.075c0.384,0.448,0.849,0.671,1.395,0.671c0.555,0,1.03-0.232,1.426-0.695
			c0.396-0.463,0.594-1.181,0.594-2.154c0-0.927-0.193-1.621-0.58-2.082c-0.386-0.461-0.848-0.691-1.385-0.691
			c-0.532,0-1.002,0.246-1.412,0.736C32.966,43.471,32.761,44.185,32.761,45.121z"/>
		<path d="M39.123,51.503v-10.06h1.138v0.945c0.268-0.37,0.571-0.647,0.909-0.832c0.338-0.185,0.747-0.277,1.229-0.277
			c0.629,0,1.185,0.16,1.666,0.479c0.481,0.32,0.844,0.771,1.089,1.353c0.246,0.582,0.368,1.22,0.368,1.914
			c0,0.744-0.135,1.414-0.406,2.01c-0.271,0.596-0.664,1.052-1.18,1.37c-0.516,0.317-1.058,0.476-1.627,0.476
			c-0.416,0-0.79-0.087-1.121-0.26c-0.331-0.174-0.603-0.393-0.815-0.658v3.541H39.123z M40.253,45.121
			c0,0.936,0.192,1.627,0.576,2.075c0.384,0.448,0.849,0.671,1.395,0.671c0.555,0,1.03-0.232,1.426-0.695
			c0.396-0.463,0.594-1.181,0.594-2.154c0-0.927-0.193-1.621-0.58-2.082c-0.386-0.461-0.848-0.691-1.385-0.691
			c-0.532,0-1.002,0.246-1.412,0.736C40.458,43.471,40.253,44.185,40.253,45.121z"/>
		<path d="M46.587,48.716v-10.04h1.249v10.04H46.587z"/>
		<path d="M49.56,51.517l-0.139-1.157c0.273,0.073,0.511,0.11,0.715,0.11c0.277,0,0.5-0.046,0.666-0.137s0.303-0.219,0.41-0.383
			c0.079-0.124,0.206-0.429,0.381-0.918c0.023-0.068,0.06-0.169,0.111-0.301l-2.797-7.287h1.346l1.534,4.212
			c0.199,0.534,0.377,1.096,0.535,1.685c0.143-0.566,0.314-1.119,0.513-1.657l1.576-4.239h1.249l-2.804,7.396
			c-0.301,0.799-0.534,1.35-0.701,1.651c-0.222,0.406-0.477,0.704-0.764,0.894c-0.287,0.189-0.629,0.284-1.027,0.284
			C50.125,51.667,49.856,51.617,49.56,51.517z"/>
		<path d="M64.912,47.819c-0.463,0.388-0.908,0.662-1.336,0.822s-0.887,0.24-1.377,0.24c-0.81,0-1.432-0.195-1.867-0.586
			c-0.435-0.39-0.652-0.889-0.652-1.496c0-0.356,0.082-0.682,0.246-0.976s0.379-0.531,0.646-0.708
			c0.266-0.178,0.565-0.313,0.899-0.404c0.245-0.064,0.615-0.125,1.11-0.185c1.008-0.119,1.751-0.26,2.228-0.424
			c0.004-0.169,0.007-0.276,0.007-0.322c0-0.502-0.118-0.856-0.354-1.062c-0.319-0.279-0.793-0.418-1.422-0.418
			c-0.588,0-1.021,0.102-1.301,0.305c-0.28,0.203-0.487,0.563-0.621,1.079l-1.222-0.164c0.111-0.516,0.294-0.933,0.548-1.25
			s0.622-0.562,1.104-0.733c0.481-0.171,1.039-0.257,1.672-0.257c0.629,0,1.141,0.073,1.534,0.219s0.683,0.33,0.868,0.551
			c0.185,0.222,0.314,0.501,0.389,0.839c0.042,0.21,0.063,0.589,0.063,1.137v1.644c0,1.146,0.026,1.871,0.08,2.174
			s0.158,0.595,0.316,0.873h-1.305C65.032,48.46,64.949,48.161,64.912,47.819z M64.808,45.065c-0.454,0.183-1.134,0.338-2.041,0.466
			c-0.513,0.073-0.876,0.155-1.089,0.247s-0.377,0.225-0.493,0.401s-0.173,0.371-0.173,0.585c0,0.329,0.126,0.603,0.378,0.822
			s0.621,0.329,1.107,0.329c0.481,0,0.909-0.104,1.284-0.312c0.375-0.208,0.65-0.492,0.826-0.853
			c0.134-0.279,0.201-0.689,0.201-1.233V45.065z"/>
		<path d="M67.602,40.094v-1.418h1.249v1.418H67.602z M67.602,48.716v-7.273h1.249v7.273H67.602z"/>
		<path d="M70.582,48.716v-7.273h1.125v1.103c0.287-0.516,0.552-0.856,0.794-1.021c0.243-0.164,0.51-0.247,0.802-0.247
			c0.421,0,0.849,0.133,1.284,0.397l-0.43,1.144c-0.306-0.178-0.611-0.267-0.916-0.267c-0.273,0-0.519,0.081-0.736,0.243
			s-0.373,0.387-0.465,0.674c-0.139,0.438-0.208,0.918-0.208,1.438v3.808H70.582z"/>
		<path d="M81.564,47.613l0.181,1.089c-0.352,0.073-0.667,0.109-0.944,0.109c-0.454,0-0.805-0.071-1.055-0.212
			c-0.25-0.142-0.426-0.328-0.528-0.559c-0.102-0.23-0.152-0.715-0.152-1.455v-4.185H78.15v-0.958h0.916v-1.801l1.242-0.74v2.541
			h1.256v0.958h-1.256v4.253c0,0.352,0.022,0.578,0.066,0.678s0.116,0.18,0.215,0.24c0.1,0.059,0.242,0.089,0.427,0.089
			C81.155,47.661,81.337,47.645,81.564,47.613z"/>
		<path d="M82.121,45.079c0-1.347,0.379-2.344,1.138-2.993c0.634-0.539,1.407-0.808,2.318-0.808c1.013,0,1.841,0.328,2.484,0.983
			s0.965,1.561,0.965,2.715c0,0.936-0.142,1.672-0.427,2.208c-0.285,0.537-0.699,0.953-1.242,1.25
			c-0.544,0.297-1.137,0.445-1.78,0.445c-1.032,0-1.866-0.327-2.501-0.979C82.439,47.248,82.121,46.308,82.121,45.079z
			 M83.405,45.079c0,0.932,0.206,1.629,0.618,2.092c0.412,0.463,0.93,0.695,1.554,0.695c0.62,0,1.136-0.233,1.548-0.699
			c0.412-0.466,0.618-1.175,0.618-2.13c0-0.899-0.207-1.581-0.621-2.044s-0.929-0.695-1.544-0.695c-0.625,0-1.143,0.23-1.554,0.692
			C83.611,43.452,83.405,44.148,83.405,45.079z"/>
	</g>
	<rect fill-rule="evenodd" clip-rule="evenodd" fill="#FFFFFF" width="0" height="0"/>
	<g>
		<path d="M14.497,64.224v-1l4.691-5.314c-0.532,0.028-1.001,0.042-1.409,0.042h-3.005v-1h6.024v0.815l-3.991,4.616l-0.77,0.842
			c0.56-0.041,1.085-0.062,1.575-0.062h3.407v1.062H14.497z"/>
		<path d="M21.427,60.587c0-1.347,0.379-2.344,1.138-2.993c0.634-0.539,1.407-0.808,2.318-0.808c1.013,0,1.841,0.328,2.484,0.983
			s0.965,1.561,0.965,2.715c0,0.936-0.142,1.672-0.427,2.208c-0.285,0.537-0.699,0.953-1.242,1.25
			c-0.544,0.297-1.137,0.445-1.78,0.445c-1.032,0-1.866-0.327-2.501-0.979C21.746,62.756,21.427,61.815,21.427,60.587z
			 M22.711,60.587c0,0.932,0.206,1.629,0.618,2.092c0.412,0.463,0.93,0.695,1.554,0.695c0.62,0,1.136-0.233,1.548-0.699
			c0.412-0.466,0.618-1.175,0.618-2.13c0-0.899-0.207-1.581-0.621-2.044s-0.929-0.695-1.544-0.695c-0.625,0-1.143,0.23-1.554,0.692
			C22.917,58.959,22.711,59.656,22.711,60.587z"/>
		<path d="M29.385,64.224v-7.273h1.124v1.034c0.542-0.799,1.323-1.199,2.346-1.199c0.444,0,0.853,0.079,1.225,0.236
			c0.372,0.158,0.651,0.364,0.836,0.62c0.185,0.256,0.314,0.56,0.389,0.911c0.046,0.228,0.069,0.628,0.069,1.198v4.472h-1.249
			v-4.424c0-0.502-0.049-0.877-0.146-1.126c-0.097-0.249-0.27-0.447-0.517-0.596c-0.248-0.148-0.538-0.223-0.871-0.223
			c-0.532,0-0.991,0.167-1.377,0.5c-0.387,0.333-0.58,0.966-0.58,1.897v3.972H29.385z"/>
		<path d="M41.922,61.881l1.291,0.158c-0.204,0.744-0.581,1.322-1.131,1.732c-0.551,0.411-1.254,0.617-2.109,0.617
			c-1.078,0-1.933-0.328-2.564-0.983s-0.947-1.574-0.947-2.756c0-1.224,0.319-2.173,0.958-2.849
			c0.639-0.676,1.467-1.014,2.484-1.014c0.986,0,1.791,0.331,2.415,0.993c0.625,0.662,0.937,1.593,0.937,2.794
			c0,0.073-0.002,0.183-0.007,0.329h-5.497c0.046,0.799,0.275,1.411,0.688,1.835c0.412,0.425,0.925,0.637,1.541,0.637
			c0.458,0,0.849-0.119,1.173-0.356C41.476,62.781,41.732,62.402,41.922,61.881z M37.821,59.889h4.115
			c-0.056-0.612-0.213-1.071-0.472-1.376c-0.398-0.475-0.914-0.712-1.547-0.712c-0.574,0-1.056,0.189-1.447,0.568
			C38.079,58.747,37.862,59.254,37.821,59.889z"/>
	</g>
	
		<line fill="none" stroke="#000000" stroke-width="0" stroke-linecap="square" stroke-miterlimit="10" x1="180.275" y1="70.866" x2="210.197" y2="70.866"/>
	<polygon fill-rule="evenodd" clip-rule="evenodd" points="170.551,70.866 183.268,75.295 183.268,66.437 170.551,70.866 	"/>
	<polygon fill-rule="evenodd" clip-rule="evenodd" points="207.953,70.128 208.701,69.39 208.701,68.651 209.449,67.913 
		210.197,67.175 210.945,67.175 211.693,66.437 212.441,66.437 213.189,66.437 213.937,67.175 214.685,67.175 215.433,67.913 
		216.181,68.651 216.181,69.39 216.929,70.128 216.929,70.866 216.929,71.604 216.181,72.343 216.181,73.081 215.433,73.819 
		214.685,74.557 213.937,74.557 213.189,75.295 212.441,75.295 211.693,75.295 210.945,74.557 210.197,74.557 209.449,73.819 
		208.701,73.081 208.701,72.343 207.953,71.604 207.953,70.866 207.953,70.128 	"/>
	
		<line fill="none" stroke="#000000" stroke-width="0" stroke-linecap="square" stroke-miterlimit="10" x1="263.307" y1="70.866" x2="216.929" y2="70.866"/>
	<rect fill-rule="evenodd" clip-rule="evenodd" fill="#FFFFFF" width="0" height="0"/>
	<g>
		<path d="M187.439,48.716v-10.04h6.863v1.185h-5.517v3.109h4.774v1.185h-4.774v4.561H187.439z"/>
		<path d="M200.261,47.819c-0.463,0.388-0.908,0.662-1.336,0.822s-0.887,0.24-1.377,0.24c-0.81,0-1.432-0.195-1.867-0.586
			c-0.435-0.39-0.652-0.889-0.652-1.496c0-0.356,0.082-0.682,0.246-0.976s0.379-0.531,0.646-0.708
			c0.266-0.178,0.565-0.313,0.899-0.404c0.245-0.064,0.615-0.125,1.11-0.185c1.008-0.119,1.751-0.26,2.228-0.424
			c0.004-0.169,0.007-0.276,0.007-0.322c0-0.502-0.118-0.856-0.354-1.062c-0.319-0.279-0.793-0.418-1.422-0.418
			c-0.588,0-1.021,0.102-1.301,0.305c-0.28,0.203-0.487,0.563-0.621,1.079l-1.222-0.164c0.111-0.516,0.294-0.933,0.548-1.25
			s0.622-0.562,1.104-0.733c0.481-0.171,1.039-0.257,1.672-0.257c0.629,0,1.141,0.073,1.534,0.219s0.683,0.33,0.868,0.551
			c0.185,0.222,0.314,0.501,0.389,0.839c0.042,0.21,0.063,0.589,0.063,1.137v1.644c0,1.146,0.026,1.871,0.08,2.174
			s0.158,0.595,0.316,0.873h-1.305C200.381,48.46,200.298,48.161,200.261,47.819z M200.157,45.065
			c-0.454,0.183-1.134,0.338-2.041,0.466c-0.513,0.073-0.876,0.155-1.089,0.247s-0.377,0.225-0.493,0.401s-0.173,0.371-0.173,0.585
			c0,0.329,0.126,0.603,0.378,0.822s0.621,0.329,1.107,0.329c0.481,0,0.909-0.104,1.284-0.312c0.375-0.208,0.65-0.492,0.826-0.853
			c0.134-0.279,0.201-0.689,0.201-1.233V45.065z"/>
		<path d="M202.944,48.716v-7.273h1.124v1.034c0.542-0.799,1.323-1.199,2.346-1.199c0.444,0,0.853,0.079,1.225,0.236
			c0.372,0.158,0.651,0.364,0.836,0.62c0.185,0.256,0.314,0.56,0.389,0.911c0.046,0.228,0.069,0.628,0.069,1.198v4.472h-1.249
			v-4.424c0-0.502-0.049-0.877-0.146-1.126c-0.097-0.249-0.27-0.447-0.517-0.596c-0.248-0.148-0.538-0.223-0.871-0.223
			c-0.532,0-0.991,0.167-1.377,0.5c-0.387,0.333-0.58,0.966-0.58,1.897v3.972H202.944z"/>
		<path d="M218.995,46.052l1.229,0.158c-0.134,0.835-0.478,1.489-1.031,1.962s-1.232,0.709-2.037,0.709
			c-1.009,0-1.819-0.326-2.433-0.976c-0.613-0.65-0.919-1.583-0.919-2.797c0-0.786,0.132-1.473,0.396-2.062s0.665-1.031,1.204-1.325
			s1.125-0.442,1.759-0.442c0.8,0,1.455,0.2,1.964,0.599c0.509,0.4,0.835,0.967,0.979,1.702l-1.214,0.185
			c-0.116-0.488-0.32-0.856-0.614-1.103s-0.649-0.37-1.065-0.37c-0.629,0-1.14,0.223-1.534,0.667c-0.393,0.445-0.59,1.15-0.59,2.113
			c0,0.977,0.19,1.688,0.569,2.13c0.379,0.443,0.875,0.665,1.485,0.665c0.49,0,0.9-0.148,1.229-0.445S218.907,46.668,218.995,46.052
			z"/>
		<path d="M220.457,45.079c0-1.347,0.379-2.344,1.138-2.993c0.634-0.539,1.407-0.808,2.318-0.808c1.013,0,1.841,0.328,2.484,0.983
			s0.965,1.561,0.965,2.715c0,0.936-0.142,1.672-0.427,2.208c-0.285,0.537-0.699,0.953-1.242,1.25
			c-0.544,0.297-1.137,0.445-1.78,0.445c-1.032,0-1.866-0.327-2.501-0.979C220.775,47.248,220.457,46.308,220.457,45.079z
			 M221.741,45.079c0,0.932,0.206,1.629,0.618,2.092c0.412,0.463,0.93,0.695,1.554,0.695c0.62,0,1.136-0.233,1.548-0.699
			s0.617-1.175,0.617-2.13c0-0.899-0.207-1.581-0.621-2.044s-0.929-0.695-1.544-0.695c-0.625,0-1.143,0.23-1.554,0.692
			C221.947,43.452,221.741,44.148,221.741,45.079z"/>
		<path d="M228.422,40.094v-1.418h1.248v1.418H228.422z M228.422,48.716v-7.273h1.248v7.273H228.422z"/>
		<path d="M231.389,48.716v-10.04h1.248v10.04H231.389z"/>
	</g>
	<rect fill-rule="evenodd" clip-rule="evenodd" fill="#FFFFFF" width="0" height="0"/>
	<g>
		<path d="M187.217,55.602v-1.418h1.249v1.418H187.217z M187.217,64.224v-7.273h1.249v7.273H187.217z"/>
		<path d="M190.212,64.224v-7.273h1.124v1.034c0.542-0.799,1.323-1.199,2.346-1.199c0.444,0,0.853,0.079,1.225,0.236
			c0.372,0.158,0.651,0.364,0.836,0.62c0.185,0.256,0.314,0.56,0.389,0.911c0.046,0.228,0.069,0.628,0.069,1.198v4.472h-1.249
			v-4.424c0-0.502-0.049-0.877-0.146-1.126c-0.097-0.249-0.27-0.447-0.517-0.596c-0.248-0.148-0.538-0.223-0.871-0.223
			c-0.532,0-0.991,0.167-1.377,0.5c-0.387,0.333-0.58,0.966-0.58,1.897v3.972H190.212z"/>
		<path d="M197.676,64.224v-10.04h1.249v10.04H197.676z"/>
		<path d="M205.75,61.881l1.291,0.158c-0.204,0.744-0.581,1.322-1.131,1.732c-0.551,0.411-1.254,0.617-2.109,0.617
			c-1.078,0-1.933-0.328-2.564-0.983s-0.947-1.574-0.947-2.756c0-1.224,0.319-2.173,0.958-2.849
			c0.639-0.676,1.467-1.014,2.484-1.014c0.986,0,1.791,0.331,2.415,0.993c0.625,0.662,0.937,1.593,0.937,2.794
			c0,0.073-0.002,0.183-0.007,0.329h-5.497c0.046,0.799,0.275,1.411,0.688,1.835c0.412,0.425,0.925,0.637,1.541,0.637
			c0.458,0,0.849-0.119,1.173-0.356C205.304,62.781,205.561,62.402,205.75,61.881z M201.649,59.889h4.115
			c-0.056-0.612-0.213-1.071-0.472-1.376c-0.398-0.475-0.914-0.712-1.547-0.712c-0.574,0-1.056,0.189-1.447,0.568
			C201.907,58.747,201.69,59.254,201.649,59.889z"/>
		<path d="M210.924,63.121l0.181,1.089c-0.352,0.073-0.667,0.109-0.944,0.109c-0.454,0-0.805-0.071-1.055-0.212
			c-0.25-0.142-0.426-0.328-0.528-0.559c-0.102-0.23-0.152-0.715-0.152-1.455v-4.185h-0.916v-0.958h0.916v-1.801l1.242-0.74v2.541
			h1.256v0.958h-1.256v4.253c0,0.352,0.022,0.578,0.066,0.678s0.116,0.18,0.215,0.24c0.1,0.059,0.242,0.089,0.427,0.089
			C210.515,63.169,210.698,63.153,210.924,63.121z"/>
	</g>
</g>
</svg>
