<?xml version="1.0" encoding="utf-8"?>
<!-- Generator: Adobe Illustrator 16.0.0, SVG Export Plug-In . SVG Version: 6.00 Build 0)  -->
<!DOCTYPE svg PUBLIC "-//W3C//DTD SVG 1.1//EN" "http://www.w3.org/Graphics/SVG/1.1/DTD/svg11.dtd">
<svg version="1.1" id="Layer_1" xmlns="http://www.w3.org/2000/svg" xmlns:xlink="http://www.w3.org/1999/xlink" x="0px" y="0px"
	 width="439.371px" height="285.015px" viewBox="0 0 439.371 285.015" enable-background="new 0 0 439.371 285.015"
	 xml:space="preserve">
<g>
	<g>
		<defs>
			<polygon id="SVGID_1_" points="0,0 439.371,0 439.371,285.015 0,285.015 0,0 			"/>
		</defs>
		<clipPath id="SVGID_2_">
			<use xlink:href="#SVGID_1_"  overflow="visible"/>
		</clipPath>
		
			<rect x="3.543" y="3.322" clip-path="url(#SVGID_2_)" fill-rule="evenodd" clip-rule="evenodd" fill="#FFFFFF" stroke="#000000" stroke-width="0.6644" stroke-linecap="square" stroke-miterlimit="10" width="431.576" height="278.372"/>
	</g>
	<g>
		<defs>
			<polygon id="SVGID_3_" points="58.11,45.177 422.363,45.177 422.363,241.166 58.11,241.166 58.11,45.177 			"/>
		</defs>
		<clipPath id="SVGID_4_">
			<use xlink:href="#SVGID_3_"  overflow="visible"/>
		</clipPath>
		
			<line clip-path="url(#SVGID_4_)" fill="none" stroke="#000000" stroke-width="0" stroke-linecap="square" stroke-miterlimit="10" stroke-dasharray="2.8346,5.6693" x1="58.11" y1="211.27" x2="422.363" y2="211.27"/>
		
			<line clip-path="url(#SVGID_4_)" fill="none" stroke="#000000" stroke-width="0" stroke-linecap="square" stroke-miterlimit="10" stroke-dasharray="2.8346,5.6693" x1="58.11" y1="184.03" x2="422.363" y2="184.03"/>
		
			<line clip-path="url(#SVGID_4_)" fill="none" stroke="#000000" stroke-width="0" stroke-linecap="square" stroke-miterlimit="10" stroke-dasharray="2.8346,5.6693" x1="58.11" y1="156.791" x2="422.363" y2="156.791"/>
		
			<line clip-path="url(#SVGID_4_)" fill="none" stroke="#000000" stroke-width="0" stroke-linecap="square" stroke-miterlimit="10" stroke-dasharray="2.8346,5.6693" x1="58.11" y1="129.552" x2="422.363" y2="129.552"/>
		
			<line clip-path="url(#SVGID_4_)" fill="none" stroke="#000000" stroke-width="0" stroke-linecap="square" stroke-miterlimit="10" stroke-dasharray="2.8346,5.6693" x1="58.11" y1="102.313" x2="422.363" y2="102.313"/>
		
			<line clip-path="url(#SVGID_4_)" fill="none" stroke="#000000" stroke-width="0" stroke-linecap="square" stroke-miterlimit="10" stroke-dasharray="2.8346,5.6693" x1="58.11" y1="75.074" x2="422.363" y2="75.074"/>
		
			<line clip-path="url(#SVGID_4_)" fill="none" stroke="#000000" stroke-width="0" stroke-linecap="square" stroke-miterlimit="10" stroke-dasharray="2.8346,5.6693" x1="58.11" y1="47.835" x2="422.363" y2="47.835"/>
	</g>
	<g>
		<defs>
			<polygon id="SVGID_5_" points="55.276,47.835 425.197,47.835 425.197,238.509 55.276,238.509 55.276,47.835 			"/>
		</defs>
		<clipPath id="SVGID_6_">
			<use xlink:href="#SVGID_5_"  overflow="visible"/>
		</clipPath>
		
			<line clip-path="url(#SVGID_6_)" fill="none" stroke="#000000" stroke-width="0" stroke-linecap="square" stroke-miterlimit="10" stroke-dasharray="2.8346,5.6693" x1="97.087" y1="47.835" x2="97.087" y2="238.509"/>
		
			<line clip-path="url(#SVGID_6_)" fill="none" stroke="#000000" stroke-width="0" stroke-linecap="square" stroke-miterlimit="10" stroke-dasharray="2.8346,5.6693" x1="136.063" y1="47.835" x2="136.063" y2="238.509"/>
		
			<line clip-path="url(#SVGID_6_)" fill="none" stroke="#000000" stroke-width="0" stroke-linecap="square" stroke-miterlimit="10" stroke-dasharray="2.8346,5.6693" x1="175.04" y1="47.835" x2="175.04" y2="238.509"/>
		
			<line clip-path="url(#SVGID_6_)" fill="none" stroke="#000000" stroke-width="0" stroke-linecap="square" stroke-miterlimit="10" stroke-dasharray="2.8346,5.6693" x1="214.016" y1="47.835" x2="214.016" y2="238.509"/>
		
			<line clip-path="url(#SVGID_6_)" fill="none" stroke="#000000" stroke-width="0" stroke-linecap="square" stroke-miterlimit="10" stroke-dasharray="2.8346,5.6693" x1="252.992" y1="47.835" x2="252.992" y2="238.509"/>
		
			<line clip-path="url(#SVGID_6_)" fill="none" stroke="#000000" stroke-width="0" stroke-linecap="square" stroke-miterlimit="10" stroke-dasharray="2.8346,5.6693" x1="291.969" y1="47.835" x2="291.969" y2="238.509"/>
		
			<line clip-path="url(#SVGID_6_)" fill="none" stroke="#000000" stroke-width="0" stroke-linecap="square" stroke-miterlimit="10" stroke-dasharray="2.8346,5.6693" x1="330.945" y1="47.835" x2="330.945" y2="238.509"/>
		
			<line clip-path="url(#SVGID_6_)" fill="none" stroke="#000000" stroke-width="0" stroke-linecap="square" stroke-miterlimit="10" stroke-dasharray="2.8346,5.6693" x1="370.631" y1="47.835" x2="370.631" y2="238.509"/>
		
			<line clip-path="url(#SVGID_6_)" fill="none" stroke="#000000" stroke-width="0" stroke-linecap="square" stroke-miterlimit="10" stroke-dasharray="2.8346,5.6693" x1="409.607" y1="47.835" x2="409.607" y2="238.509"/>
	</g>
	<g>
		<defs>
			<polygon id="SVGID_7_" points="0,0 439.371,0 439.371,285.015 0,285.015 0,0 			"/>
		</defs>
		<clipPath id="SVGID_8_">
			<use xlink:href="#SVGID_7_"  overflow="visible"/>
		</clipPath>
		
			<line clip-path="url(#SVGID_8_)" fill="none" stroke="#808080" stroke-width="0.6644" stroke-linecap="square" stroke-miterlimit="10" x1="58.11" y1="47.835" x2="422.363" y2="47.835"/>
		
			<line clip-path="url(#SVGID_8_)" fill="none" stroke="#808080" stroke-width="0.6644" stroke-linecap="square" stroke-miterlimit="10" x1="422.363" y1="47.835" x2="422.363" y2="238.509"/>
		
			<line clip-path="url(#SVGID_8_)" fill="none" stroke="#808080" stroke-width="0.6644" stroke-linecap="square" stroke-miterlimit="10" x1="422.363" y1="238.509" x2="58.11" y2="238.509"/>
		
			<line clip-path="url(#SVGID_8_)" fill="none" stroke="#808080" stroke-width="0.6644" stroke-linecap="square" stroke-miterlimit="10" x1="58.11" y1="238.509" x2="58.11" y2="47.835"/>
		
			<line clip-path="url(#SVGID_8_)" fill="none" stroke="#000000" stroke-width="0" stroke-linecap="square" stroke-miterlimit="10" x1="58.11" y1="47.835" x2="58.11" y2="238.509"/>
		
			<line clip-path="url(#SVGID_8_)" fill="none" stroke="#000000" stroke-width="0" stroke-linecap="square" stroke-miterlimit="10" x1="55.276" y1="238.509" x2="58.11" y2="238.509"/>
		
			<line clip-path="url(#SVGID_8_)" fill="none" stroke="#000000" stroke-width="0" stroke-linecap="square" stroke-miterlimit="10" x1="55.276" y1="211.27" x2="58.11" y2="211.27"/>
		
			<line clip-path="url(#SVGID_8_)" fill="none" stroke="#000000" stroke-width="0" stroke-linecap="square" stroke-miterlimit="10" x1="55.276" y1="184.03" x2="58.11" y2="184.03"/>
		
			<line clip-path="url(#SVGID_8_)" fill="none" stroke="#000000" stroke-width="0" stroke-linecap="square" stroke-miterlimit="10" x1="55.276" y1="156.791" x2="58.11" y2="156.791"/>
		
			<line clip-path="url(#SVGID_8_)" fill="none" stroke="#000000" stroke-width="0" stroke-linecap="square" stroke-miterlimit="10" x1="55.276" y1="129.552" x2="58.11" y2="129.552"/>
		
			<line clip-path="url(#SVGID_8_)" fill="none" stroke="#000000" stroke-width="0" stroke-linecap="square" stroke-miterlimit="10" x1="55.276" y1="102.313" x2="58.11" y2="102.313"/>
		
			<line clip-path="url(#SVGID_8_)" fill="none" stroke="#000000" stroke-width="0" stroke-linecap="square" stroke-miterlimit="10" x1="55.276" y1="75.074" x2="58.11" y2="75.074"/>
		
			<line clip-path="url(#SVGID_8_)" fill="none" stroke="#000000" stroke-width="0" stroke-linecap="square" stroke-miterlimit="10" x1="55.276" y1="47.835" x2="58.11" y2="47.835"/>
		
			<line clip-path="url(#SVGID_8_)" fill="none" stroke="#000000" stroke-width="0" stroke-linecap="square" stroke-miterlimit="10" x1="58.11" y1="238.509" x2="422.363" y2="238.509"/>
		
			<line clip-path="url(#SVGID_8_)" fill="none" stroke="#000000" stroke-width="0" stroke-linecap="square" stroke-miterlimit="10" x1="58.11" y1="241.166" x2="58.11" y2="238.509"/>
		
			<line clip-path="url(#SVGID_8_)" fill="none" stroke="#000000" stroke-width="0" stroke-linecap="square" stroke-miterlimit="10" x1="97.087" y1="241.166" x2="97.087" y2="238.509"/>
		
			<line clip-path="url(#SVGID_8_)" fill="none" stroke="#000000" stroke-width="0" stroke-linecap="square" stroke-miterlimit="10" x1="136.063" y1="241.166" x2="136.063" y2="238.509"/>
		
			<line clip-path="url(#SVGID_8_)" fill="none" stroke="#000000" stroke-width="0" stroke-linecap="square" stroke-miterlimit="10" x1="175.04" y1="241.166" x2="175.04" y2="238.509"/>
		
			<line clip-path="url(#SVGID_8_)" fill="none" stroke="#000000" stroke-width="0" stroke-linecap="square" stroke-miterlimit="10" x1="214.016" y1="241.166" x2="214.016" y2="238.509"/>
		
			<line clip-path="url(#SVGID_8_)" fill="none" stroke="#000000" stroke-width="0" stroke-linecap="square" stroke-miterlimit="10" x1="252.992" y1="241.166" x2="252.992" y2="238.509"/>
		
			<line clip-path="url(#SVGID_8_)" fill="none" stroke="#000000" stroke-width="0" stroke-linecap="square" stroke-miterlimit="10" x1="291.969" y1="241.166" x2="291.969" y2="238.509"/>
		
			<line clip-path="url(#SVGID_8_)" fill="none" stroke="#000000" stroke-width="0" stroke-linecap="square" stroke-miterlimit="10" x1="330.945" y1="241.166" x2="330.945" y2="238.509"/>
		
			<line clip-path="url(#SVGID_8_)" fill="none" stroke="#000000" stroke-width="0" stroke-linecap="square" stroke-miterlimit="10" x1="370.631" y1="241.166" x2="370.631" y2="238.509"/>
		
			<line clip-path="url(#SVGID_8_)" fill="none" stroke="#000000" stroke-width="0" stroke-linecap="square" stroke-miterlimit="10" x1="409.607" y1="241.166" x2="409.607" y2="238.509"/>
	</g>
	<g>
		<defs>
			<polygon id="SVGID_9_" points="58.11,47.835 423.07,47.835 423.07,238.509 58.11,238.509 58.11,47.835 			"/>
		</defs>
		<clipPath id="SVGID_10_">
			<use xlink:href="#SVGID_9_"  overflow="visible"/>
		</clipPath>
		
			<line clip-path="url(#SVGID_10_)" fill="none" stroke="#000080" stroke-width="1.9931" stroke-linecap="square" stroke-miterlimit="10" x1="182.835" y1="75.074" x2="238.818" y2="75.074"/>
		
			<line clip-path="url(#SVGID_10_)" fill="none" stroke="#000080" stroke-width="1.9931" stroke-linecap="square" stroke-miterlimit="10" x1="238.818" y1="75.074" x2="270" y2="238.509"/>
		
			<line clip-path="url(#SVGID_10_)" fill="none" stroke="#000080" stroke-width="1.9931" stroke-linecap="square" stroke-miterlimit="10" x1="270" y1="238.509" x2="210.473" y2="238.509"/>
		
			<line clip-path="url(#SVGID_10_)" fill="none" stroke="#000080" stroke-width="1.9931" stroke-linecap="square" stroke-miterlimit="10" x1="210.473" y1="238.509" x2="182.835" y2="75.074"/>
	</g>
	<g>
		<defs>
			<polygon id="SVGID_11_" points="177.166,8.637 262.914,8.637 262.914,27.904 177.166,27.904 177.166,8.637 			"/>
		</defs>
		<clipPath id="SVGID_12_">
			<use xlink:href="#SVGID_11_"  overflow="visible"/>
		</clipPath>
		<g clip-path="url(#SVGID_12_)">
			<path d="M181.266,21.924l-1.938-7.609h1.678l1.224,5.227l1.484-5.227h1.949l1.423,5.315l1.246-5.315h1.65l-1.971,7.609h-1.738
				l-1.617-5.688l-1.611,5.688H181.266z"/>
			<path d="M190.737,15.664v-1.349h1.556v1.349H190.737z M190.737,21.924v-5.512h1.556v5.512H190.737z"/>
			<path d="M198.93,21.924h-1.556v-2.813c0-0.595-0.033-0.98-0.1-1.155c-0.066-0.174-0.175-0.311-0.324-0.407
				s-0.329-0.146-0.54-0.146c-0.27,0-0.511,0.069-0.726,0.208c-0.214,0.138-0.361,0.322-0.44,0.55
				c-0.08,0.229-0.119,0.651-0.119,1.267v2.497h-1.556v-5.512h1.445v0.81c0.513-0.623,1.159-0.934,1.938-0.934
				c0.343,0,0.657,0.058,0.941,0.174c0.284,0.116,0.499,0.264,0.645,0.444c0.146,0.18,0.248,0.384,0.305,0.612
				s0.086,0.556,0.086,0.981V21.924z"/>
			<path d="M203.362,16.412v1.163h-1.063v2.222c0,0.45,0.01,0.712,0.03,0.786c0.02,0.075,0.066,0.136,0.138,0.185
				c0.072,0.048,0.16,0.072,0.263,0.072c0.144,0,0.353-0.046,0.625-0.14l0.133,1.132c-0.361,0.145-0.771,0.218-1.229,0.218
				c-0.28,0-0.533-0.044-0.758-0.132s-0.39-0.203-0.496-0.343c-0.105-0.14-0.178-0.33-0.219-0.568
				c-0.033-0.17-0.05-0.512-0.05-1.028v-2.403h-0.714v-1.163h0.714v-1.095l1.562-0.851v1.946H203.362z"/>
			<path d="M207.62,20.169l1.55,0.244c-0.199,0.533-0.514,0.938-0.944,1.217c-0.43,0.279-0.968,0.418-1.614,0.418
				c-1.022,0-1.779-0.313-2.27-0.939c-0.388-0.501-0.582-1.135-0.582-1.899c0-0.914,0.255-1.629,0.764-2.146
				c0.509-0.517,1.153-0.776,1.932-0.776c0.875,0,1.565,0.271,2.071,0.812c0.505,0.542,0.747,1.372,0.725,2.489h-3.897
				c0.011,0.432,0.136,0.769,0.376,1.009c0.24,0.241,0.539,0.361,0.896,0.361c0.244,0,0.449-0.063,0.615-0.187
				S207.535,20.446,207.62,20.169z M207.708,18.695c-0.011-0.422-0.127-0.743-0.349-0.963c-0.221-0.22-0.491-0.33-0.808-0.33
				c-0.34,0-0.62,0.116-0.842,0.348c-0.221,0.231-0.33,0.546-0.327,0.944H207.708z"/>
			<path d="M212.079,21.924h-1.556v-5.512h1.445v0.784c0.247-0.37,0.47-0.614,0.667-0.732c0.198-0.118,0.422-0.176,0.673-0.176
				c0.354,0,0.696,0.092,1.024,0.275l-0.482,1.272c-0.262-0.159-0.506-0.239-0.73-0.239c-0.218,0-0.402,0.056-0.554,0.168
				s-0.271,0.316-0.357,0.61c-0.086,0.294-0.13,0.91-0.13,1.848V21.924z"/>
			<path d="M220.267,24.161h-1.069c-0.564-0.799-0.995-1.629-1.29-2.491c-0.295-0.861-0.443-1.695-0.443-2.501
				c0-1,0.183-1.947,0.548-2.839c0.317-0.775,0.72-1.49,1.207-2.144h1.063c-0.506,1.048-0.854,1.94-1.044,2.676
				c-0.19,0.735-0.285,1.515-0.285,2.338c0,0.568,0.056,1.149,0.169,1.744s0.267,1.161,0.462,1.697
				C219.715,22.993,219.942,23.5,220.267,24.161z"/>
			<path d="M224.885,21.924h-1.557v-5.497c-0.568,0.498-1.238,0.867-2.01,1.105v-1.324c0.406-0.125,0.848-0.36,1.324-0.708
				c0.477-0.348,0.803-0.753,0.98-1.217h1.262V21.924z"/>
			<path d="M227.609,21.924v-1.458h1.557v1.458H227.609z"/>
			<path d="M232.752,14.284c0.785,0,1.4,0.263,1.844,0.789c0.527,0.623,0.791,1.655,0.791,3.099c0,1.439-0.266,2.474-0.797,3.104
				c-0.439,0.519-1.053,0.779-1.838,0.779c-0.791,0-1.428-0.285-1.91-0.854c-0.484-0.569-0.725-1.584-0.725-3.044
				c0-1.433,0.266-2.464,0.797-3.094C231.354,14.543,231.965,14.284,232.752,14.284z M232.752,15.493
				c-0.189,0-0.357,0.056-0.504,0.168c-0.148,0.112-0.262,0.314-0.344,0.604c-0.107,0.377-0.16,1.012-0.16,1.905
				c0,0.893,0.047,1.506,0.145,1.84c0.096,0.334,0.217,0.556,0.361,0.667c0.146,0.111,0.313,0.166,0.502,0.166
				c0.188,0,0.355-0.056,0.504-0.168c0.146-0.113,0.262-0.314,0.344-0.605c0.105-0.374,0.16-1.007,0.16-1.899
				c0-0.893-0.049-1.506-0.145-1.84s-0.217-0.557-0.363-0.669C233.107,15.549,232.939,15.493,232.752,15.493z"/>
			<path d="M244.877,19.126l1.588,0.473c-0.244,0.831-0.648,1.447-1.215,1.85c-0.566,0.403-1.285,0.605-2.156,0.605
				c-1.078,0-1.965-0.345-2.658-1.036s-1.041-1.634-1.041-2.832c0-1.266,0.35-2.25,1.047-2.951s1.615-1.051,2.752-1.051
				c0.992,0,1.799,0.275,2.42,0.825c0.367,0.325,0.645,0.792,0.83,1.401l-1.623,0.363c-0.096-0.395-0.295-0.706-0.6-0.934
				c-0.305-0.229-0.676-0.343-1.111-0.343c-0.602,0-1.09,0.203-1.465,0.607c-0.373,0.405-0.561,1.061-0.561,1.967
				c0,0.962,0.184,1.647,0.553,2.055s0.85,0.612,1.439,0.612c0.436,0,0.811-0.129,1.125-0.389
				C244.514,20.092,244.74,19.684,244.877,19.126z"/>
			<path d="M248.166,21.924v-7.609h1.557v7.609H248.166z"/>
			<path d="M250.65,19.09c0-0.484,0.127-0.953,0.383-1.407c0.254-0.453,0.615-0.799,1.082-1.038s0.988-0.358,1.564-0.358
				c0.889,0,1.617,0.271,2.186,0.812c0.568,0.542,0.854,1.226,0.854,2.053c0,0.834-0.287,1.525-0.861,2.073
				c-0.574,0.549-1.297,0.823-2.168,0.823c-0.539,0-1.053-0.114-1.541-0.342c-0.488-0.229-0.861-0.563-1.115-1.004
				C250.777,20.26,250.65,19.723,250.65,19.09z M252.246,19.168c0,0.546,0.137,0.965,0.414,1.256s0.619,0.436,1.025,0.436
				c0.404,0,0.746-0.146,1.021-0.436c0.273-0.291,0.412-0.713,0.412-1.267c0-0.54-0.139-0.955-0.412-1.246
				c-0.275-0.291-0.617-0.436-1.021-0.436c-0.406,0-0.748,0.146-1.025,0.436S252.246,18.621,252.246,19.168z"/>
			<path d="M257.664,24.161c0.307-0.616,0.521-1.088,0.646-1.417c0.127-0.329,0.242-0.708,0.35-1.137
				c0.107-0.429,0.186-0.837,0.238-1.223c0.051-0.386,0.078-0.781,0.078-1.186c0-0.823-0.096-1.603-0.283-2.338
				c-0.188-0.735-0.535-1.627-1.041-2.676h1.059c0.557,0.744,0.99,1.533,1.297,2.367c0.309,0.834,0.463,1.68,0.463,2.538
				c0,0.723-0.121,1.499-0.365,2.325c-0.277,0.927-0.732,1.843-1.367,2.746H257.664z"/>
		</g>
	</g>
	<g>
		<defs>
			<polygon id="SVGID_13_" points="0,0 439.371,0 439.371,285.015 0,285.015 0,0 			"/>
		</defs>
		<clipPath id="SVGID_14_">
			<use xlink:href="#SVGID_13_"  overflow="visible"/>
		</clipPath>
		<g clip-path="url(#SVGID_14_)">
			<path d="M46.438,238.773c0-0.731,0.08-1.319,0.241-1.765c0.16-0.446,0.399-0.79,0.715-1.031c0.316-0.242,0.714-0.363,1.194-0.363
				c0.354,0,0.664,0.067,0.931,0.2c0.267,0.134,0.487,0.326,0.661,0.578s0.311,0.559,0.409,0.919
				c0.099,0.361,0.148,0.849,0.148,1.462c0,0.726-0.079,1.311-0.238,1.756c-0.159,0.446-0.396,0.79-0.713,1.033
				s-0.716,0.365-1.199,0.365c-0.636,0-1.135-0.214-1.498-0.641C46.655,240.772,46.438,239.935,46.438,238.773z M47.27,238.773
				c0,1.015,0.127,1.69,0.38,2.026s0.566,0.504,0.938,0.504c0.372,0,0.684-0.169,0.938-0.506c0.253-0.338,0.38-1.013,0.38-2.024
				c0-1.018-0.127-1.694-0.38-2.028c-0.254-0.335-0.569-0.502-0.947-0.502c-0.372,0-0.668,0.147-0.891,0.442
				C47.409,237.063,47.27,237.759,47.27,238.773z"/>
		</g>
		<g clip-path="url(#SVGID_14_)">
			<path d="M28.727,211.531c0-0.731,0.08-1.319,0.241-1.765c0.16-0.446,0.399-0.79,0.715-1.031c0.316-0.242,0.714-0.363,1.194-0.363
				c0.354,0,0.664,0.067,0.931,0.2c0.267,0.134,0.487,0.326,0.661,0.578s0.311,0.559,0.409,0.919
				c0.099,0.361,0.148,0.849,0.148,1.462c0,0.726-0.079,1.311-0.238,1.756c-0.159,0.446-0.396,0.79-0.713,1.033
				s-0.716,0.365-1.199,0.365c-0.636,0-1.135-0.214-1.498-0.641C28.944,213.53,28.727,212.692,28.727,211.531z M29.559,211.531
				c0,1.015,0.127,1.69,0.38,2.026s0.566,0.504,0.938,0.504c0.372,0,0.684-0.169,0.938-0.506c0.253-0.338,0.38-1.013,0.38-2.024
				c0-1.018-0.127-1.694-0.38-2.028c-0.254-0.335-0.569-0.502-0.947-0.502c-0.372,0-0.668,0.147-0.891,0.442
				C29.698,209.82,29.559,210.517,29.559,211.531z"/>
			<path d="M34.148,214.58v-0.864h0.922v0.864H34.148z"/>
			<path d="M36.521,211.531c0-0.731,0.08-1.319,0.241-1.765c0.16-0.446,0.399-0.79,0.715-1.031c0.316-0.242,0.714-0.363,1.194-0.363
				c0.354,0,0.664,0.067,0.931,0.2c0.267,0.134,0.487,0.326,0.661,0.578s0.311,0.559,0.409,0.919
				c0.099,0.361,0.148,0.849,0.148,1.462c0,0.726-0.079,1.311-0.238,1.756c-0.159,0.446-0.396,0.79-0.713,1.033
				s-0.716,0.365-1.199,0.365c-0.636,0-1.135-0.214-1.498-0.641C36.738,213.53,36.521,212.692,36.521,211.531z M37.353,211.531
				c0,1.015,0.127,1.69,0.38,2.026s0.566,0.504,0.938,0.504c0.372,0,0.684-0.169,0.938-0.506c0.253-0.338,0.38-1.013,0.38-2.024
				c0-1.018-0.127-1.694-0.38-2.028c-0.254-0.335-0.569-0.502-0.947-0.502c-0.372,0-0.668,0.147-0.891,0.442
				C37.492,209.82,37.353,210.517,37.353,211.531z"/>
			<path d="M41.487,211.531c0-0.731,0.08-1.319,0.241-1.765c0.16-0.446,0.399-0.79,0.715-1.031c0.316-0.242,0.714-0.363,1.194-0.363
				c0.354,0,0.664,0.067,0.931,0.2c0.267,0.134,0.487,0.326,0.661,0.578s0.311,0.559,0.409,0.919
				c0.099,0.361,0.148,0.849,0.148,1.462c0,0.726-0.079,1.311-0.238,1.756c-0.159,0.446-0.396,0.79-0.713,1.033
				s-0.716,0.365-1.199,0.365c-0.636,0-1.135-0.214-1.498-0.641C41.705,213.53,41.487,212.692,41.487,211.531z M42.319,211.531
				c0,1.015,0.127,1.69,0.38,2.026s0.566,0.504,0.938,0.504c0.372,0,0.684-0.169,0.938-0.506c0.253-0.338,0.38-1.013,0.38-2.024
				c0-1.018-0.127-1.694-0.38-2.028c-0.254-0.335-0.569-0.502-0.947-0.502c-0.372,0-0.668,0.147-0.891,0.442
				C42.459,209.82,42.319,210.517,42.319,211.531z"/>
			<path d="M50.709,213.851v0.729h-4.359c-0.006-0.183,0.025-0.358,0.095-0.527c0.111-0.278,0.289-0.553,0.533-0.822
				c0.245-0.27,0.598-0.582,1.06-0.937c0.717-0.551,1.201-0.987,1.453-1.309c0.251-0.322,0.377-0.627,0.377-0.913
				c0-0.301-0.114-0.555-0.344-0.762c-0.229-0.206-0.529-0.31-0.897-0.31c-0.39,0-0.702,0.109-0.936,0.329
				c-0.234,0.219-0.353,0.522-0.355,0.91l-0.833-0.08c0.057-0.582,0.271-1.025,0.644-1.33c0.372-0.305,0.871-0.458,1.498-0.458
				c0.632,0,1.133,0.165,1.502,0.494c0.369,0.328,0.553,0.736,0.553,1.223c0,0.247-0.054,0.49-0.162,0.729s-0.287,0.49-0.538,0.755
				s-0.667,0.627-1.248,1.088c-0.486,0.383-0.798,0.642-0.936,0.778c-0.138,0.137-0.251,0.273-0.342,0.411H50.709z"/>
		</g>
		<g clip-path="url(#SVGID_14_)">
			<path d="M28.727,184.297c0-0.731,0.08-1.319,0.241-1.765c0.16-0.446,0.399-0.79,0.715-1.031c0.316-0.242,0.714-0.363,1.194-0.363
				c0.354,0,0.664,0.067,0.931,0.2c0.267,0.134,0.487,0.326,0.661,0.578s0.311,0.559,0.409,0.919
				c0.099,0.361,0.148,0.849,0.148,1.462c0,0.726-0.079,1.311-0.238,1.756c-0.159,0.446-0.396,0.79-0.713,1.033
				s-0.716,0.365-1.199,0.365c-0.636,0-1.135-0.214-1.498-0.641C28.944,186.296,28.727,185.458,28.727,184.297z M29.559,184.297
				c0,1.015,0.127,1.69,0.38,2.026s0.566,0.504,0.938,0.504c0.372,0,0.684-0.169,0.938-0.506c0.253-0.338,0.38-1.013,0.38-2.024
				c0-1.018-0.127-1.694-0.38-2.028c-0.254-0.335-0.569-0.502-0.947-0.502c-0.372,0-0.668,0.147-0.891,0.442
				C29.698,182.586,29.559,183.282,29.559,184.297z"/>
			<path d="M34.148,187.346v-0.864h0.922v0.864H34.148z"/>
			<path d="M36.521,184.297c0-0.731,0.08-1.319,0.241-1.765c0.16-0.446,0.399-0.79,0.715-1.031c0.316-0.242,0.714-0.363,1.194-0.363
				c0.354,0,0.664,0.067,0.931,0.2c0.267,0.134,0.487,0.326,0.661,0.578s0.311,0.559,0.409,0.919
				c0.099,0.361,0.148,0.849,0.148,1.462c0,0.726-0.079,1.311-0.238,1.756c-0.159,0.446-0.396,0.79-0.713,1.033
				s-0.716,0.365-1.199,0.365c-0.636,0-1.135-0.214-1.498-0.641C36.738,186.296,36.521,185.458,36.521,184.297z M37.353,184.297
				c0,1.015,0.127,1.69,0.38,2.026s0.566,0.504,0.938,0.504c0.372,0,0.684-0.169,0.938-0.506c0.253-0.338,0.38-1.013,0.38-2.024
				c0-1.018-0.127-1.694-0.38-2.028c-0.254-0.335-0.569-0.502-0.947-0.502c-0.372,0-0.668,0.147-0.891,0.442
				C37.492,182.586,37.353,183.282,37.353,184.297z"/>
			<path d="M41.487,184.297c0-0.731,0.08-1.319,0.241-1.765c0.16-0.446,0.399-0.79,0.715-1.031c0.316-0.242,0.714-0.363,1.194-0.363
				c0.354,0,0.664,0.067,0.931,0.2c0.267,0.134,0.487,0.326,0.661,0.578s0.311,0.559,0.409,0.919
				c0.099,0.361,0.148,0.849,0.148,1.462c0,0.726-0.079,1.311-0.238,1.756c-0.159,0.446-0.396,0.79-0.713,1.033
				s-0.716,0.365-1.199,0.365c-0.636,0-1.135-0.214-1.498-0.641C41.705,186.296,41.487,185.458,41.487,184.297z M42.319,184.297
				c0,1.015,0.127,1.69,0.38,2.026s0.566,0.504,0.938,0.504c0.372,0,0.684-0.169,0.938-0.506c0.253-0.338,0.38-1.013,0.38-2.024
				c0-1.018-0.127-1.694-0.38-2.028c-0.254-0.335-0.569-0.502-0.947-0.502c-0.372,0-0.668,0.147-0.891,0.442
				C42.459,182.586,42.319,183.282,42.319,184.297z"/>
			<path d="M49.05,187.346v-1.48h-2.861v-0.695l3.009-4.007h0.661v4.007h0.891v0.695h-0.891v1.48H49.05z M49.05,185.17v-2.788
				l-2.065,2.788H49.05z"/>
		</g>
		<g clip-path="url(#SVGID_14_)">
			<path d="M28.727,157.055c0-0.731,0.08-1.319,0.241-1.765c0.16-0.446,0.399-0.79,0.715-1.031c0.316-0.242,0.714-0.363,1.194-0.363
				c0.354,0,0.664,0.067,0.931,0.2c0.267,0.134,0.487,0.326,0.661,0.578s0.311,0.559,0.409,0.919
				c0.099,0.361,0.148,0.849,0.148,1.462c0,0.726-0.079,1.311-0.238,1.756c-0.159,0.446-0.396,0.79-0.713,1.033
				s-0.716,0.365-1.199,0.365c-0.636,0-1.135-0.214-1.498-0.641C28.944,159.054,28.727,158.216,28.727,157.055z M29.559,157.055
				c0,1.015,0.127,1.69,0.38,2.026s0.566,0.504,0.938,0.504c0.372,0,0.684-0.169,0.938-0.506c0.253-0.338,0.38-1.013,0.38-2.024
				c0-1.018-0.127-1.694-0.38-2.028c-0.254-0.335-0.569-0.502-0.947-0.502c-0.372,0-0.668,0.147-0.891,0.442
				C29.698,155.344,29.559,156.04,29.559,157.055z"/>
			<path d="M34.148,160.104v-0.864h0.922v0.864H34.148z"/>
			<path d="M36.521,157.055c0-0.731,0.08-1.319,0.241-1.765c0.16-0.446,0.399-0.79,0.715-1.031c0.316-0.242,0.714-0.363,1.194-0.363
				c0.354,0,0.664,0.067,0.931,0.2c0.267,0.134,0.487,0.326,0.661,0.578s0.311,0.559,0.409,0.919
				c0.099,0.361,0.148,0.849,0.148,1.462c0,0.726-0.079,1.311-0.238,1.756c-0.159,0.446-0.396,0.79-0.713,1.033
				s-0.716,0.365-1.199,0.365c-0.636,0-1.135-0.214-1.498-0.641C36.738,159.054,36.521,158.216,36.521,157.055z M37.353,157.055
				c0,1.015,0.127,1.69,0.38,2.026s0.566,0.504,0.938,0.504c0.372,0,0.684-0.169,0.938-0.506c0.253-0.338,0.38-1.013,0.38-2.024
				c0-1.018-0.127-1.694-0.38-2.028c-0.254-0.335-0.569-0.502-0.947-0.502c-0.372,0-0.668,0.147-0.891,0.442
				C37.492,155.344,37.353,156.04,37.353,157.055z"/>
			<path d="M41.487,157.055c0-0.731,0.08-1.319,0.241-1.765c0.16-0.446,0.399-0.79,0.715-1.031c0.316-0.242,0.714-0.363,1.194-0.363
				c0.354,0,0.664,0.067,0.931,0.2c0.267,0.134,0.487,0.326,0.661,0.578s0.311,0.559,0.409,0.919
				c0.099,0.361,0.148,0.849,0.148,1.462c0,0.726-0.079,1.311-0.238,1.756c-0.159,0.446-0.396,0.79-0.713,1.033
				s-0.716,0.365-1.199,0.365c-0.636,0-1.135-0.214-1.498-0.641C41.705,159.054,41.487,158.216,41.487,157.055z M42.319,157.055
				c0,1.015,0.127,1.69,0.38,2.026s0.566,0.504,0.938,0.504c0.372,0,0.684-0.169,0.938-0.506c0.253-0.338,0.38-1.013,0.38-2.024
				c0-1.018-0.127-1.694-0.38-2.028c-0.254-0.335-0.569-0.502-0.947-0.502c-0.372,0-0.668,0.147-0.891,0.442
				C42.459,155.344,42.319,156.04,42.319,157.055z"/>
			<path d="M50.656,155.436l-0.805,0.059c-0.072-0.298-0.174-0.515-0.306-0.649c-0.219-0.217-0.489-0.325-0.81-0.325
				c-0.258,0-0.484,0.068-0.679,0.203c-0.255,0.174-0.456,0.429-0.603,0.763c-0.147,0.335-0.223,0.812-0.229,1.43
				c0.195-0.278,0.434-0.484,0.715-0.62c0.282-0.135,0.577-0.202,0.886-0.202c0.54,0,1,0.187,1.379,0.559
				c0.379,0.373,0.569,0.854,0.569,1.444c0,0.389-0.089,0.749-0.268,1.082s-0.424,0.589-0.735,0.766
				c-0.312,0.177-0.666,0.266-1.062,0.266c-0.675,0-1.225-0.232-1.651-0.698c-0.426-0.465-0.639-1.231-0.639-2.3
				c0-1.195,0.235-2.064,0.707-2.606c0.411-0.473,0.964-0.709,1.66-0.709c0.519,0,0.944,0.137,1.275,0.409
				S50.589,154.954,50.656,155.436z M47.349,158.101c0,0.261,0.06,0.512,0.178,0.75c0.119,0.239,0.284,0.422,0.497,0.547
				s0.437,0.188,0.67,0.188c0.342,0,0.636-0.13,0.882-0.388c0.246-0.259,0.369-0.61,0.369-1.055c0-0.428-0.122-0.764-0.364-1.01
				c-0.243-0.246-0.549-0.369-0.918-0.369c-0.366,0-0.676,0.123-0.931,0.369S47.349,157.701,47.349,158.101z"/>
		</g>
		<g clip-path="url(#SVGID_14_)">
			<path d="M28.727,129.813c0-0.731,0.08-1.319,0.241-1.765c0.16-0.445,0.399-0.789,0.715-1.031
				c0.316-0.242,0.714-0.362,1.194-0.362c0.354,0,0.664,0.066,0.931,0.2c0.267,0.133,0.487,0.326,0.661,0.578
				s0.311,0.558,0.409,0.919c0.099,0.361,0.148,0.848,0.148,1.461c0,0.725-0.079,1.311-0.238,1.756
				c-0.159,0.445-0.396,0.79-0.713,1.033s-0.716,0.365-1.199,0.365c-0.636,0-1.135-0.214-1.498-0.641
				C28.944,131.811,28.727,130.974,28.727,129.813z M29.559,129.813c0,1.015,0.127,1.69,0.38,2.026s0.566,0.504,0.938,0.504
				c0.372,0,0.684-0.169,0.938-0.506c0.253-0.337,0.38-1.012,0.38-2.024c0-1.018-0.127-1.694-0.38-2.029
				c-0.254-0.334-0.569-0.501-0.947-0.501c-0.372,0-0.668,0.147-0.891,0.442C29.698,128.102,29.559,128.797,29.559,129.813z"/>
			<path d="M34.148,132.861v-0.865h0.922v0.865H34.148z"/>
			<path d="M36.521,129.813c0-0.731,0.08-1.319,0.241-1.765c0.16-0.445,0.399-0.789,0.715-1.031
				c0.316-0.242,0.714-0.362,1.194-0.362c0.354,0,0.664,0.066,0.931,0.2c0.267,0.133,0.487,0.326,0.661,0.578
				s0.311,0.558,0.409,0.919c0.099,0.361,0.148,0.848,0.148,1.461c0,0.725-0.079,1.311-0.238,1.756
				c-0.159,0.445-0.396,0.79-0.713,1.033s-0.716,0.365-1.199,0.365c-0.636,0-1.135-0.214-1.498-0.641
				C36.738,131.811,36.521,130.974,36.521,129.813z M37.353,129.813c0,1.015,0.127,1.69,0.38,2.026s0.566,0.504,0.938,0.504
				c0.372,0,0.684-0.169,0.938-0.506c0.253-0.337,0.38-1.012,0.38-2.024c0-1.018-0.127-1.694-0.38-2.029
				c-0.254-0.334-0.569-0.501-0.947-0.501c-0.372,0-0.668,0.147-0.891,0.442C37.492,128.102,37.353,128.797,37.353,129.813z"/>
			<path d="M41.487,129.813c0-0.731,0.08-1.319,0.241-1.765c0.16-0.445,0.399-0.789,0.715-1.031
				c0.316-0.242,0.714-0.362,1.194-0.362c0.354,0,0.664,0.066,0.931,0.2c0.267,0.133,0.487,0.326,0.661,0.578
				s0.311,0.558,0.409,0.919c0.099,0.361,0.148,0.848,0.148,1.461c0,0.725-0.079,1.311-0.238,1.756
				c-0.159,0.445-0.396,0.79-0.713,1.033s-0.716,0.365-1.199,0.365c-0.636,0-1.135-0.214-1.498-0.641
				C41.705,131.811,41.487,130.974,41.487,129.813z M42.319,129.813c0,1.015,0.127,1.69,0.38,2.026s0.566,0.504,0.938,0.504
				c0.372,0,0.684-0.169,0.938-0.506c0.253-0.337,0.38-1.012,0.38-2.024c0-1.018-0.127-1.694-0.38-2.029
				c-0.254-0.334-0.569-0.501-0.947-0.501c-0.372,0-0.668,0.147-0.891,0.442C42.459,128.102,42.319,128.797,42.319,129.813z"/>
			<path d="M47.7,129.509c-0.336-0.115-0.585-0.28-0.747-0.494c-0.162-0.213-0.243-0.469-0.243-0.768
				c0-0.45,0.172-0.828,0.518-1.134c0.345-0.306,0.804-0.459,1.376-0.459c0.576,0,1.039,0.157,1.39,0.47
				c0.351,0.313,0.526,0.695,0.526,1.145c0,0.287-0.08,0.536-0.241,0.749c-0.16,0.212-0.404,0.376-0.731,0.491
				c0.405,0.124,0.713,0.323,0.925,0.599c0.211,0.276,0.317,0.604,0.317,0.987c0,0.529-0.2,0.973-0.598,1.333
				c-0.399,0.36-0.924,0.54-1.575,0.54c-0.65,0-1.175-0.181-1.574-0.542s-0.598-0.812-0.598-1.352c0-0.402,0.108-0.739,0.326-1.01
				C46.989,129.792,47.298,129.607,47.7,129.509z M47.277,131.078c0,0.216,0.055,0.426,0.164,0.628
				c0.109,0.202,0.272,0.359,0.488,0.47c0.216,0.111,0.448,0.167,0.697,0.167c0.387,0,0.706-0.117,0.958-0.35s0.378-0.53,0.378-0.89
				c0-0.365-0.13-0.667-0.389-0.906c-0.259-0.239-0.584-0.359-0.974-0.359c-0.381,0-0.696,0.118-0.947,0.354
				S47.277,130.723,47.277,131.078z M47.538,128.223c0,0.292,0.101,0.531,0.302,0.717c0.201,0.186,0.461,0.278,0.783,0.278
				c0.312,0,0.567-0.092,0.767-0.276c0.2-0.184,0.299-0.41,0.299-0.677c0-0.278-0.103-0.512-0.308-0.702
				c-0.206-0.19-0.461-0.285-0.767-0.285c-0.309,0-0.565,0.093-0.769,0.278C47.64,127.742,47.538,127.964,47.538,128.223z"/>
		</g>
		<g clip-path="url(#SVGID_14_)">
			<path d="M33.688,102.578c0-0.731,0.08-1.319,0.241-1.765c0.16-0.445,0.399-0.789,0.715-1.031
				c0.316-0.242,0.714-0.362,1.194-0.362c0.354,0,0.664,0.066,0.931,0.2c0.267,0.133,0.487,0.326,0.661,0.578
				s0.311,0.558,0.409,0.919c0.099,0.361,0.148,0.848,0.148,1.461c0,0.725-0.079,1.311-0.238,1.756
				c-0.159,0.445-0.396,0.79-0.713,1.033s-0.716,0.365-1.199,0.365c-0.636,0-1.135-0.214-1.498-0.641
				C33.905,104.577,33.688,103.739,33.688,102.578z M34.52,102.578c0,1.015,0.127,1.69,0.38,2.026s0.566,0.504,0.938,0.504
				c0.372,0,0.684-0.169,0.938-0.506c0.253-0.337,0.38-1.012,0.38-2.024c0-1.018-0.127-1.694-0.38-2.029
				c-0.254-0.334-0.569-0.501-0.947-0.501c-0.372,0-0.668,0.147-0.891,0.442C34.659,100.867,34.52,101.563,34.52,102.578z"/>
			<path d="M39.109,105.627v-0.865h0.922v0.865H39.109z"/>
			<path d="M41.481,102.578c0-0.731,0.08-1.319,0.241-1.765c0.16-0.445,0.399-0.789,0.715-1.031
				c0.316-0.242,0.714-0.362,1.194-0.362c0.354,0,0.664,0.066,0.931,0.2c0.267,0.133,0.487,0.326,0.661,0.578
				s0.311,0.558,0.409,0.919c0.099,0.361,0.148,0.848,0.148,1.461c0,0.725-0.079,1.311-0.238,1.756
				c-0.159,0.445-0.396,0.79-0.713,1.033s-0.716,0.365-1.199,0.365c-0.636,0-1.135-0.214-1.498-0.641
				C41.699,104.577,41.481,103.739,41.481,102.578z M42.313,102.578c0,1.015,0.127,1.69,0.38,2.026s0.566,0.504,0.938,0.504
				c0.372,0,0.684-0.169,0.938-0.506c0.253-0.337,0.38-1.012,0.38-2.024c0-1.018-0.127-1.694-0.38-2.029
				c-0.254-0.334-0.569-0.501-0.947-0.501c-0.372,0-0.668,0.147-0.891,0.442C42.453,100.867,42.313,101.563,42.313,102.578z"/>
			<path d="M49.498,105.627h-0.81v-4.837c-0.195,0.174-0.451,0.349-0.767,0.523s-0.601,0.305-0.853,0.392v-0.734
				c0.453-0.2,0.849-0.441,1.188-0.726c0.339-0.284,0.579-0.559,0.72-0.826h0.521V105.627z"/>
		</g>
		<g clip-path="url(#SVGID_14_)">
			<path d="M28.727,75.344c0-0.731,0.08-1.319,0.241-1.765c0.16-0.445,0.399-0.789,0.715-1.031c0.316-0.242,0.714-0.362,1.194-0.362
				c0.354,0,0.664,0.066,0.931,0.2c0.267,0.133,0.487,0.326,0.661,0.578s0.311,0.558,0.409,0.919
				c0.099,0.361,0.148,0.848,0.148,1.461c0,0.725-0.079,1.311-0.238,1.756c-0.159,0.445-0.396,0.79-0.713,1.033
				s-0.716,0.365-1.199,0.365c-0.636,0-1.135-0.214-1.498-0.641C28.944,77.342,28.727,76.505,28.727,75.344z M29.559,75.344
				c0,1.015,0.127,1.69,0.38,2.026s0.566,0.504,0.938,0.504c0.372,0,0.684-0.169,0.938-0.506c0.253-0.337,0.38-1.012,0.38-2.024
				c0-1.018-0.127-1.694-0.38-2.029c-0.254-0.334-0.569-0.501-0.947-0.501c-0.372,0-0.668,0.147-0.891,0.442
				C29.698,73.633,29.559,74.329,29.559,75.344z"/>
			<path d="M34.148,78.393v-0.865h0.922v0.865H34.148z"/>
			<path d="M36.521,75.344c0-0.731,0.08-1.319,0.241-1.765c0.16-0.445,0.399-0.789,0.715-1.031c0.316-0.242,0.714-0.362,1.194-0.362
				c0.354,0,0.664,0.066,0.931,0.2c0.267,0.133,0.487,0.326,0.661,0.578s0.311,0.558,0.409,0.919
				c0.099,0.361,0.148,0.848,0.148,1.461c0,0.725-0.079,1.311-0.238,1.756c-0.159,0.445-0.396,0.79-0.713,1.033
				s-0.716,0.365-1.199,0.365c-0.636,0-1.135-0.214-1.498-0.641C36.738,77.342,36.521,76.505,36.521,75.344z M37.353,75.344
				c0,1.015,0.127,1.69,0.38,2.026s0.566,0.504,0.938,0.504c0.372,0,0.684-0.169,0.938-0.506c0.253-0.337,0.38-1.012,0.38-2.024
				c0-1.018-0.127-1.694-0.38-2.029c-0.254-0.334-0.569-0.501-0.947-0.501c-0.372,0-0.668,0.147-0.891,0.442
				C37.492,73.633,37.353,74.329,37.353,75.344z"/>
			<path d="M44.537,78.393h-0.81v-4.837c-0.195,0.174-0.451,0.349-0.767,0.523s-0.601,0.305-0.853,0.392v-0.734
				c0.453-0.2,0.849-0.441,1.188-0.726c0.339-0.284,0.579-0.559,0.72-0.826h0.521V78.393z"/>
			<path d="M50.709,77.663v0.729h-4.359c-0.006-0.183,0.025-0.358,0.095-0.527c0.111-0.278,0.289-0.552,0.533-0.822
				c0.245-0.27,0.598-0.582,1.06-0.936c0.717-0.551,1.201-0.988,1.453-1.31c0.251-0.322,0.377-0.626,0.377-0.913
				c0-0.301-0.114-0.554-0.344-0.761c-0.229-0.207-0.529-0.31-0.897-0.31c-0.39,0-0.702,0.109-0.936,0.329
				c-0.234,0.219-0.353,0.523-0.355,0.911l-0.833-0.08c0.057-0.582,0.271-1.025,0.644-1.331c0.372-0.305,0.871-0.458,1.498-0.458
				c0.632,0,1.133,0.164,1.502,0.493c0.369,0.329,0.553,0.737,0.553,1.223c0,0.248-0.054,0.491-0.162,0.729
				s-0.287,0.491-0.538,0.755s-0.667,0.627-1.248,1.088c-0.486,0.382-0.798,0.642-0.936,0.778c-0.138,0.136-0.251,0.273-0.342,0.411
				H50.709z"/>
		</g>
		<g clip-path="url(#SVGID_14_)">
			<path d="M28.727,48.094c0-0.731,0.08-1.319,0.241-1.765c0.16-0.445,0.399-0.789,0.715-1.031c0.316-0.242,0.714-0.362,1.194-0.362
				c0.354,0,0.664,0.066,0.931,0.2c0.267,0.133,0.487,0.326,0.661,0.578s0.311,0.558,0.409,0.919
				c0.099,0.361,0.148,0.848,0.148,1.461c0,0.725-0.079,1.311-0.238,1.756c-0.159,0.445-0.396,0.79-0.713,1.033
				s-0.716,0.365-1.199,0.365c-0.636,0-1.135-0.214-1.498-0.641C28.944,50.092,28.727,49.255,28.727,48.094z M29.559,48.094
				c0,1.015,0.127,1.69,0.38,2.026s0.566,0.504,0.938,0.504c0.372,0,0.684-0.169,0.938-0.506c0.253-0.337,0.38-1.012,0.38-2.024
				c0-1.018-0.127-1.694-0.38-2.029c-0.254-0.334-0.569-0.501-0.947-0.501c-0.372,0-0.668,0.147-0.891,0.442
				C29.698,46.383,29.559,47.079,29.559,48.094z"/>
			<path d="M34.148,51.143v-0.865h0.922v0.865H34.148z"/>
			<path d="M36.521,48.094c0-0.731,0.08-1.319,0.241-1.765c0.16-0.445,0.399-0.789,0.715-1.031c0.316-0.242,0.714-0.362,1.194-0.362
				c0.354,0,0.664,0.066,0.931,0.2c0.267,0.133,0.487,0.326,0.661,0.578s0.311,0.558,0.409,0.919
				c0.099,0.361,0.148,0.848,0.148,1.461c0,0.725-0.079,1.311-0.238,1.756c-0.159,0.445-0.396,0.79-0.713,1.033
				s-0.716,0.365-1.199,0.365c-0.636,0-1.135-0.214-1.498-0.641C36.738,50.092,36.521,49.255,36.521,48.094z M37.353,48.094
				c0,1.015,0.127,1.69,0.38,2.026s0.566,0.504,0.938,0.504c0.372,0,0.684-0.169,0.938-0.506c0.253-0.337,0.38-1.012,0.38-2.024
				c0-1.018-0.127-1.694-0.38-2.029c-0.254-0.334-0.569-0.501-0.947-0.501c-0.372,0-0.668,0.147-0.891,0.442
				C37.492,46.383,37.353,47.079,37.353,48.094z"/>
			<path d="M44.537,51.143h-0.81v-4.837c-0.195,0.174-0.451,0.349-0.767,0.523s-0.601,0.305-0.853,0.392v-0.734
				c0.453-0.2,0.849-0.441,1.188-0.726c0.339-0.284,0.579-0.559,0.72-0.826h0.521V51.143z"/>
			<path d="M49.05,51.143v-1.48h-2.861v-0.696l3.009-4.006h0.661v4.006h0.891v0.696h-0.891v1.48H49.05z M49.05,48.966v-2.788
				l-2.065,2.788H49.05z"/>
		</g>
	</g>
	<g>
		<defs>
			<polygon id="SVGID_15_" points="0,0 439.371,0 439.371,285.015 0,285.015 0,0 			"/>
		</defs>
		<clipPath id="SVGID_16_">
			<use xlink:href="#SVGID_15_"  overflow="visible"/>
		</clipPath>
		<g clip-path="url(#SVGID_16_)">
			<path d="M56.581,254.447h-0.81v-4.837c-0.195,0.174-0.451,0.349-0.767,0.522c-0.316,0.175-0.601,0.306-0.853,0.393v-0.734
				c0.453-0.199,0.849-0.44,1.188-0.725c0.339-0.284,0.579-0.56,0.72-0.827h0.521V254.447z"/>
			<path d="M58.498,251.398c0-0.731,0.08-1.319,0.241-1.765c0.16-0.446,0.399-0.79,0.715-1.031c0.316-0.242,0.714-0.363,1.194-0.363
				c0.354,0,0.664,0.067,0.931,0.2c0.267,0.134,0.487,0.326,0.661,0.578s0.311,0.559,0.409,0.919
				c0.099,0.361,0.148,0.849,0.148,1.462c0,0.726-0.079,1.311-0.238,1.756c-0.159,0.446-0.396,0.79-0.713,1.033
				s-0.716,0.365-1.199,0.365c-0.636,0-1.135-0.214-1.498-0.641C58.715,253.397,58.498,252.56,58.498,251.398z M59.33,251.398
				c0,1.015,0.127,1.69,0.38,2.026s0.566,0.504,0.938,0.504c0.372,0,0.684-0.169,0.938-0.506c0.253-0.338,0.38-1.013,0.38-2.024
				c0-1.018-0.127-1.694-0.38-2.028c-0.254-0.335-0.569-0.502-0.947-0.502c-0.372,0-0.668,0.147-0.891,0.442
				C59.47,249.688,59.33,250.384,59.33,251.398z"/>
		</g>
		<g clip-path="url(#SVGID_16_)">
			<path d="M95.558,254.447h-0.81v-4.837c-0.195,0.174-0.451,0.349-0.767,0.522c-0.316,0.175-0.601,0.306-0.853,0.393v-0.734
				c0.453-0.199,0.849-0.44,1.188-0.725c0.339-0.284,0.579-0.56,0.72-0.827h0.521V254.447z"/>
			<path d="M97.479,252.815l0.81-0.102c0.093,0.431,0.251,0.74,0.474,0.93c0.224,0.19,0.496,0.285,0.817,0.285
				c0.38,0,0.702-0.124,0.965-0.371c0.262-0.247,0.394-0.554,0.394-0.92c0-0.349-0.122-0.636-0.364-0.862
				c-0.243-0.226-0.552-0.339-0.927-0.339c-0.153,0-0.344,0.027-0.571,0.084l0.09-0.666c0.054,0.006,0.098,0.008,0.13,0.008
				c0.345,0,0.655-0.084,0.931-0.253c0.276-0.168,0.414-0.429,0.414-0.78c0-0.278-0.101-0.509-0.302-0.691
				c-0.201-0.183-0.46-0.274-0.778-0.274c-0.315,0-0.578,0.093-0.787,0.278c-0.21,0.186-0.345,0.464-0.405,0.835l-0.81-0.135
				c0.099-0.509,0.324-0.903,0.675-1.183s0.787-0.42,1.309-0.42c0.36,0,0.691,0.072,0.994,0.218
				c0.303,0.145,0.535,0.342,0.695,0.592c0.161,0.251,0.241,0.517,0.241,0.798c0,0.267-0.077,0.51-0.229,0.729
				c-0.153,0.219-0.379,0.394-0.679,0.522c0.39,0.085,0.693,0.26,0.909,0.525s0.324,0.598,0.324,0.997
				c0,0.54-0.21,0.997-0.629,1.373c-0.42,0.375-0.951,0.563-1.593,0.563c-0.579,0-1.059-0.161-1.441-0.484
				S97.533,253.33,97.479,252.815z"/>
		</g>
		<g clip-path="url(#SVGID_16_)">
			<path d="M134.526,254.447h-0.81v-4.837c-0.195,0.174-0.451,0.349-0.767,0.522c-0.316,0.175-0.601,0.306-0.853,0.393v-0.734
				c0.453-0.199,0.849-0.44,1.188-0.725c0.339-0.284,0.579-0.56,0.72-0.827h0.521V254.447z"/>
			<path d="M140.645,249.779l-0.805,0.059c-0.072-0.298-0.174-0.515-0.306-0.649c-0.219-0.217-0.489-0.325-0.81-0.325
				c-0.258,0-0.484,0.068-0.679,0.203c-0.255,0.174-0.456,0.429-0.603,0.763c-0.147,0.335-0.223,0.812-0.229,1.43
				c0.195-0.278,0.434-0.484,0.715-0.62c0.282-0.135,0.577-0.202,0.886-0.202c0.54,0,1,0.187,1.379,0.559
				c0.379,0.373,0.569,0.854,0.569,1.444c0,0.389-0.089,0.749-0.268,1.082s-0.424,0.589-0.735,0.766
				c-0.312,0.177-0.666,0.266-1.062,0.266c-0.675,0-1.225-0.232-1.651-0.698c-0.426-0.465-0.639-1.231-0.639-2.3
				c0-1.195,0.235-2.064,0.707-2.606c0.411-0.473,0.964-0.709,1.66-0.709c0.519,0,0.944,0.137,1.275,0.409
				S140.579,249.298,140.645,249.779z M137.338,252.444c0,0.261,0.06,0.512,0.178,0.75c0.119,0.239,0.284,0.422,0.497,0.547
				s0.437,0.188,0.67,0.188c0.342,0,0.636-0.13,0.882-0.388c0.246-0.259,0.369-0.61,0.369-1.055c0-0.428-0.122-0.764-0.364-1.01
				c-0.243-0.246-0.549-0.369-0.918-0.369c-0.366,0-0.676,0.123-0.931,0.369S137.338,252.045,137.338,252.444z"/>
		</g>
		<g clip-path="url(#SVGID_16_)">
			<path d="M173.511,254.447h-0.81v-4.837c-0.195,0.174-0.451,0.349-0.767,0.522c-0.316,0.175-0.601,0.306-0.853,0.393v-0.734
				c0.453-0.199,0.849-0.44,1.188-0.725c0.339-0.284,0.579-0.56,0.72-0.827h0.521V254.447z"/>
			<path d="M175.549,253.018l0.778-0.067c0.066,0.343,0.192,0.592,0.377,0.746c0.186,0.155,0.424,0.232,0.715,0.232
				c0.249,0,0.467-0.054,0.655-0.16c0.187-0.107,0.341-0.25,0.461-0.429c0.12-0.178,0.22-0.419,0.301-0.723s0.122-0.613,0.122-0.928
				c0-0.034-0.001-0.085-0.004-0.152c-0.162,0.242-0.383,0.438-0.664,0.589s-0.584,0.226-0.911,0.226
				c-0.546,0-1.007-0.186-1.385-0.557s-0.567-0.86-0.567-1.468c0-0.627,0.197-1.132,0.592-1.514
				c0.394-0.383,0.888-0.574,1.482-0.574c0.429,0,0.821,0.108,1.176,0.325s0.625,0.524,0.81,0.926c0.185,0.4,0.277,0.98,0.277,1.739
				c0,0.79-0.091,1.419-0.274,1.888c-0.183,0.468-0.455,0.824-0.816,1.068c-0.361,0.245-0.785,0.367-1.271,0.367
				c-0.516,0-0.937-0.134-1.264-0.402C175.812,253.882,175.615,253.504,175.549,253.018z M178.864,250.289
				c0-0.436-0.124-0.781-0.371-1.037c-0.247-0.256-0.545-0.384-0.893-0.384c-0.36,0-0.673,0.138-0.94,0.413
				c-0.267,0.275-0.4,0.633-0.4,1.071c0,0.394,0.127,0.713,0.38,0.959s0.566,0.369,0.938,0.369c0.375,0,0.683-0.123,0.924-0.369
				C178.744,251.065,178.864,250.725,178.864,250.289z"/>
		</g>
		<g clip-path="url(#SVGID_16_)">
			<path d="M213.685,253.718v0.729h-4.359c-0.006-0.183,0.025-0.358,0.095-0.527c0.111-0.278,0.289-0.553,0.533-0.822
				c0.245-0.27,0.598-0.582,1.06-0.937c0.717-0.551,1.201-0.987,1.453-1.309c0.251-0.322,0.377-0.627,0.377-0.913
				c0-0.301-0.114-0.555-0.344-0.762c-0.229-0.206-0.529-0.31-0.897-0.31c-0.39,0-0.702,0.109-0.936,0.329
				c-0.234,0.219-0.353,0.522-0.355,0.91l-0.833-0.08c0.057-0.582,0.271-1.025,0.644-1.33c0.372-0.305,0.871-0.458,1.498-0.458
				c0.632,0,1.133,0.165,1.502,0.494c0.369,0.328,0.553,0.736,0.553,1.223c0,0.247-0.054,0.49-0.162,0.729s-0.287,0.49-0.538,0.755
				s-0.667,0.627-1.248,1.088c-0.486,0.383-0.798,0.642-0.936,0.778c-0.138,0.137-0.251,0.273-0.342,0.411H213.685z"/>
			<path d="M218.652,253.718v0.729h-4.359c-0.006-0.183,0.025-0.358,0.095-0.527c0.111-0.278,0.289-0.553,0.533-0.822
				c0.245-0.27,0.598-0.582,1.06-0.937c0.717-0.551,1.201-0.987,1.453-1.309c0.251-0.322,0.377-0.627,0.377-0.913
				c0-0.301-0.114-0.555-0.344-0.762c-0.229-0.206-0.529-0.31-0.897-0.31c-0.39,0-0.702,0.109-0.936,0.329
				c-0.234,0.219-0.353,0.522-0.355,0.91l-0.833-0.08c0.057-0.582,0.271-1.025,0.644-1.33c0.372-0.305,0.871-0.458,1.498-0.458
				c0.632,0,1.133,0.165,1.502,0.494c0.369,0.328,0.553,0.736,0.553,1.223c0,0.247-0.054,0.49-0.162,0.729s-0.287,0.49-0.538,0.755
				s-0.667,0.627-1.248,1.088c-0.486,0.383-0.798,0.642-0.936,0.778c-0.138,0.137-0.251,0.273-0.342,0.411H218.652z"/>
		</g>
		<g clip-path="url(#SVGID_16_)">
			<path d="M252.662,253.718v0.729h-4.359c-0.006-0.183,0.025-0.358,0.094-0.527c0.111-0.278,0.289-0.553,0.533-0.822
				s0.598-0.582,1.061-0.937c0.717-0.551,1.201-0.987,1.453-1.309c0.252-0.322,0.377-0.627,0.377-0.913
				c0-0.301-0.115-0.555-0.344-0.762c-0.23-0.206-0.529-0.31-0.898-0.31c-0.389,0-0.701,0.109-0.936,0.329
				c-0.232,0.219-0.352,0.522-0.355,0.91l-0.832-0.08c0.059-0.582,0.271-1.025,0.645-1.33c0.371-0.305,0.871-0.458,1.498-0.458
				c0.633,0,1.133,0.165,1.502,0.494c0.369,0.328,0.553,0.736,0.553,1.223c0,0.247-0.053,0.49-0.162,0.729
				c-0.107,0.239-0.287,0.49-0.537,0.755s-0.666,0.627-1.248,1.088c-0.486,0.383-0.799,0.642-0.936,0.778
				c-0.139,0.137-0.252,0.273-0.342,0.411H252.662z"/>
			<path d="M253.373,252.828l0.85-0.067c0.064,0.388,0.209,0.68,0.439,0.875c0.229,0.195,0.506,0.293,0.83,0.293
				c0.389,0,0.719-0.138,0.988-0.413c0.271-0.275,0.406-0.642,0.406-1.097c0-0.433-0.131-0.774-0.389-1.025
				c-0.26-0.25-0.6-0.375-1.02-0.375c-0.262,0-0.496,0.056-0.707,0.167c-0.209,0.11-0.375,0.255-0.494,0.432l-0.76-0.093
				l0.639-3.175h3.279v0.725h-2.633l-0.355,1.662c0.396-0.259,0.813-0.388,1.246-0.388c0.576,0,1.063,0.187,1.459,0.561
				c0.395,0.374,0.594,0.854,0.594,1.442c0,0.56-0.174,1.043-0.521,1.45c-0.424,0.501-1.002,0.751-1.732,0.751
				c-0.6,0-1.09-0.157-1.469-0.473C253.645,253.766,253.428,253.348,253.373,252.828z"/>
		</g>
		<g clip-path="url(#SVGID_16_)">
			<path d="M291.646,253.718v0.729h-4.359c-0.006-0.183,0.025-0.358,0.094-0.527c0.111-0.278,0.289-0.553,0.533-0.822
				s0.598-0.582,1.061-0.937c0.717-0.551,1.201-0.987,1.453-1.309c0.252-0.322,0.377-0.627,0.377-0.913
				c0-0.301-0.115-0.555-0.344-0.762c-0.23-0.206-0.529-0.31-0.898-0.31c-0.389,0-0.701,0.109-0.936,0.329
				c-0.232,0.219-0.352,0.522-0.355,0.91l-0.832-0.08c0.059-0.582,0.271-1.025,0.645-1.33c0.371-0.305,0.871-0.458,1.498-0.458
				c0.633,0,1.133,0.165,1.502,0.494c0.369,0.328,0.553,0.736,0.553,1.223c0,0.247-0.053,0.49-0.162,0.729
				c-0.107,0.239-0.287,0.49-0.537,0.755s-0.666,0.627-1.248,1.088c-0.486,0.383-0.799,0.642-0.936,0.778
				c-0.139,0.137-0.252,0.273-0.342,0.411H291.646z"/>
			<path d="M293.604,251.095c-0.336-0.115-0.584-0.28-0.746-0.493c-0.162-0.214-0.244-0.47-0.244-0.768
				c0-0.45,0.174-0.828,0.518-1.135c0.346-0.307,0.805-0.46,1.377-0.46c0.576,0,1.039,0.157,1.391,0.471
				c0.35,0.313,0.525,0.695,0.525,1.145c0,0.287-0.08,0.536-0.24,0.749c-0.16,0.212-0.404,0.376-0.73,0.491
				c0.404,0.124,0.713,0.323,0.924,0.599s0.316,0.604,0.316,0.987c0,0.528-0.199,0.973-0.598,1.332
				c-0.398,0.36-0.924,0.54-1.574,0.54s-1.176-0.181-1.574-0.542s-0.6-0.812-0.6-1.352c0-0.402,0.109-0.738,0.326-1.01
				C292.893,251.378,293.201,251.193,293.604,251.095z M293.18,252.663c0,0.217,0.055,0.426,0.166,0.629
				c0.109,0.202,0.271,0.359,0.486,0.47c0.217,0.111,0.449,0.167,0.697,0.167c0.389,0,0.707-0.117,0.959-0.351
				s0.377-0.529,0.377-0.89c0-0.365-0.129-0.667-0.389-0.906s-0.584-0.358-0.973-0.358c-0.381,0-0.697,0.118-0.947,0.354
				C293.307,252.014,293.18,252.31,293.18,252.663z M293.441,249.809c0,0.292,0.102,0.531,0.301,0.717
				c0.201,0.186,0.463,0.278,0.783,0.278c0.313,0,0.568-0.092,0.768-0.276c0.199-0.184,0.299-0.41,0.299-0.677
				c0-0.278-0.104-0.513-0.309-0.702s-0.461-0.285-0.766-0.285c-0.311,0-0.566,0.093-0.77,0.278
				C293.543,249.327,293.441,249.55,293.441,249.809z"/>
		</g>
		<g clip-path="url(#SVGID_16_)">
			<path d="M326.363,252.815l0.811-0.102c0.092,0.431,0.25,0.74,0.475,0.93c0.223,0.19,0.496,0.285,0.816,0.285
				c0.381,0,0.703-0.124,0.965-0.371s0.393-0.554,0.393-0.92c0-0.349-0.121-0.636-0.363-0.862c-0.242-0.226-0.553-0.339-0.928-0.339
				c-0.152,0-0.342,0.027-0.57,0.084l0.09-0.666c0.055,0.006,0.098,0.008,0.131,0.008c0.344,0,0.654-0.084,0.932-0.253
				c0.275-0.168,0.412-0.429,0.412-0.78c0-0.278-0.1-0.509-0.301-0.691s-0.461-0.274-0.777-0.274s-0.578,0.093-0.787,0.278
				c-0.211,0.186-0.346,0.464-0.406,0.835l-0.809-0.135c0.098-0.509,0.324-0.903,0.674-1.183c0.352-0.279,0.787-0.42,1.309-0.42
				c0.361,0,0.691,0.072,0.994,0.218c0.305,0.145,0.535,0.342,0.695,0.592c0.16,0.251,0.242,0.517,0.242,0.798
				c0,0.267-0.078,0.51-0.23,0.729c-0.152,0.219-0.379,0.394-0.68,0.522c0.391,0.085,0.693,0.26,0.91,0.525
				c0.215,0.266,0.322,0.598,0.322,0.997c0,0.54-0.209,0.997-0.629,1.373c-0.42,0.375-0.951,0.563-1.592,0.563
				c-0.58,0-1.061-0.161-1.443-0.484C326.637,253.749,326.418,253.33,326.363,252.815z"/>
			<path d="M334.377,254.447h-0.811v-4.837c-0.195,0.174-0.451,0.349-0.768,0.522c-0.316,0.175-0.6,0.306-0.852,0.393v-0.734
				c0.453-0.199,0.848-0.44,1.188-0.725c0.338-0.284,0.578-0.56,0.719-0.827h0.523V254.447z"/>
		</g>
		<g clip-path="url(#SVGID_16_)">
			<path d="M366.051,252.815l0.811-0.102c0.092,0.431,0.25,0.74,0.475,0.93c0.223,0.19,0.496,0.285,0.816,0.285
				c0.381,0,0.703-0.124,0.965-0.371s0.393-0.554,0.393-0.92c0-0.349-0.121-0.636-0.363-0.862c-0.242-0.226-0.553-0.339-0.928-0.339
				c-0.152,0-0.342,0.027-0.57,0.084l0.09-0.666c0.055,0.006,0.098,0.008,0.131,0.008c0.344,0,0.654-0.084,0.932-0.253
				c0.275-0.168,0.412-0.429,0.412-0.78c0-0.278-0.1-0.509-0.301-0.691s-0.461-0.274-0.777-0.274s-0.578,0.093-0.787,0.278
				c-0.211,0.186-0.346,0.464-0.406,0.835l-0.809-0.135c0.098-0.509,0.324-0.903,0.674-1.183c0.352-0.279,0.787-0.42,1.309-0.42
				c0.361,0,0.691,0.072,0.994,0.218c0.305,0.145,0.535,0.342,0.695,0.592c0.16,0.251,0.242,0.517,0.242,0.798
				c0,0.267-0.078,0.51-0.23,0.729c-0.152,0.219-0.379,0.394-0.68,0.522c0.391,0.085,0.693,0.26,0.91,0.525
				c0.215,0.266,0.322,0.598,0.322,0.997c0,0.54-0.209,0.997-0.629,1.373c-0.42,0.375-0.951,0.563-1.592,0.563
				c-0.58,0-1.061-0.161-1.443-0.484C366.324,253.749,366.105,253.33,366.051,252.815z"/>
			<path d="M373.609,254.447v-1.48h-2.861v-0.695l3.01-4.007h0.662v4.007h0.891v0.695h-0.891v1.48H373.609z M373.609,252.271v-2.788
				l-2.064,2.788H373.609z"/>
		</g>
		<g clip-path="url(#SVGID_16_)">
			<path d="M405.027,252.815l0.811-0.102c0.092,0.431,0.25,0.74,0.475,0.93c0.223,0.19,0.496,0.285,0.816,0.285
				c0.381,0,0.703-0.124,0.965-0.371s0.393-0.554,0.393-0.92c0-0.349-0.121-0.636-0.363-0.862c-0.242-0.226-0.553-0.339-0.928-0.339
				c-0.152,0-0.342,0.027-0.57,0.084l0.09-0.666c0.055,0.006,0.098,0.008,0.131,0.008c0.344,0,0.654-0.084,0.932-0.253
				c0.275-0.168,0.412-0.429,0.412-0.78c0-0.278-0.1-0.509-0.301-0.691s-0.461-0.274-0.777-0.274s-0.578,0.093-0.787,0.278
				c-0.211,0.186-0.346,0.464-0.406,0.835l-0.809-0.135c0.098-0.509,0.324-0.903,0.674-1.183c0.352-0.279,0.787-0.42,1.309-0.42
				c0.361,0,0.691,0.072,0.994,0.218c0.305,0.145,0.535,0.342,0.695,0.592c0.16,0.251,0.242,0.517,0.242,0.798
				c0,0.267-0.078,0.51-0.23,0.729c-0.152,0.219-0.379,0.394-0.68,0.522c0.391,0.085,0.693,0.26,0.91,0.525
				c0.215,0.266,0.322,0.598,0.322,0.997c0,0.54-0.209,0.997-0.629,1.373c-0.42,0.375-0.951,0.563-1.592,0.563
				c-0.58,0-1.061-0.161-1.443-0.484C405.301,253.749,405.082,253.33,405.027,252.815z"/>
			<path d="M410.045,249.074v-0.729h4.268v0.591c-0.42,0.419-0.836,0.976-1.248,1.67s-0.73,1.408-0.955,2.143
				c-0.162,0.517-0.266,1.084-0.311,1.699h-0.832c0.008-0.486,0.111-1.074,0.305-1.763c0.195-0.688,0.475-1.354,0.84-1.993
				c0.365-0.639,0.752-1.179,1.162-1.617H410.045z"/>
		</g>
	</g>
	<g>
		<defs>
			<polygon id="SVGID_17_" points="179.292,259.104 301.891,259.104 301.891,274.385 179.292,274.385 179.292,259.104 			"/>
		</defs>
		<clipPath id="SVGID_18_">
			<use xlink:href="#SVGID_17_"  overflow="visible"/>
		</clipPath>
		<g clip-path="url(#SVGID_18_)">
			<path d="M181.104,266.675c0-0.629,0.101-1.158,0.301-1.585c0.15-0.315,0.354-0.598,0.614-0.848
				c0.259-0.25,0.543-0.436,0.852-0.557c0.411-0.163,0.885-0.245,1.422-0.245c0.972,0,1.749,0.283,2.332,0.848
				c0.583,0.565,0.875,1.352,0.875,2.357c0,0.998-0.29,1.779-0.868,2.343s-1.353,0.846-2.321,0.846c-0.981,0-1.761-0.28-2.339-0.842
				C181.394,268.432,181.104,267.659,181.104,266.675z M182.476,266.633c0,0.7,0.172,1.231,0.517,1.592
				c0.345,0.361,0.783,0.542,1.313,0.542s0.966-0.179,1.307-0.537c0.34-0.358,0.51-0.896,0.51-1.613
				c0-0.708-0.166-1.237-0.497-1.586s-0.771-0.522-1.32-0.522s-0.991,0.177-1.327,0.529
				C182.644,265.39,182.476,265.922,182.476,266.633z"/>
			<path d="M188.421,265.25h1.178v0.658c0.153-0.226,0.36-0.408,0.621-0.549c0.261-0.141,0.55-0.211,0.868-0.211
				c0.555,0,1.025,0.204,1.412,0.611c0.387,0.408,0.581,0.976,0.581,1.704c0,0.748-0.195,1.329-0.585,1.744
				c-0.39,0.414-0.862,0.622-1.417,0.622c-0.264,0-0.503-0.05-0.717-0.148c-0.214-0.098-0.44-0.267-0.677-0.506v2.257h-1.264V265.25
				z M189.672,267.413c0,0.504,0.106,0.875,0.319,1.115c0.213,0.241,0.472,0.361,0.778,0.361c0.293,0,0.538-0.11,0.733-0.331
				s0.292-0.583,0.292-1.086c0-0.47-0.101-0.818-0.301-1.046c-0.201-0.229-0.45-0.342-0.747-0.342c-0.309,0-0.565,0.111-0.769,0.335
				S189.672,266.975,189.672,267.413z"/>
			<path d="M196.888,268.303l1.26,0.198c-0.162,0.434-0.418,0.763-0.767,0.989c-0.35,0.227-0.787,0.34-1.312,0.34
				c-0.831,0-1.445-0.255-1.844-0.764c-0.315-0.407-0.472-0.922-0.472-1.544c0-0.742,0.207-1.323,0.621-1.743
				c0.414-0.421,0.937-0.631,1.57-0.631c0.711,0,1.271,0.221,1.683,0.66c0.411,0.44,0.607,1.114,0.589,2.022h-3.167
				c0.009,0.352,0.111,0.625,0.306,0.82c0.195,0.195,0.438,0.293,0.729,0.293c0.198,0,0.364-0.051,0.5-0.152
				C196.717,268.691,196.819,268.528,196.888,268.303z M196.959,267.105c-0.009-0.343-0.103-0.604-0.283-0.782
				c-0.18-0.179-0.399-0.268-0.657-0.268c-0.276,0-0.504,0.094-0.684,0.282c-0.18,0.188-0.269,0.444-0.266,0.768H196.959z"/>
			<path d="M200.998,269.729h-1.264v-4.479h1.174v0.637c0.201-0.301,0.382-0.499,0.542-0.595c0.161-0.096,0.343-0.144,0.547-0.144
				c0.288,0,0.565,0.075,0.832,0.224l-0.392,1.033c-0.213-0.129-0.411-0.194-0.594-0.194c-0.177,0-0.327,0.046-0.45,0.138
				c-0.123,0.091-0.22,0.257-0.29,0.495c-0.07,0.239-0.106,0.739-0.106,1.502V269.729z"/>
			<path d="M204.281,266.616l-1.147-0.194c0.129-0.433,0.351-0.753,0.666-0.961s0.783-0.313,1.403-0.313
				c0.564,0,0.984,0.063,1.26,0.188c0.276,0.126,0.47,0.284,0.583,0.477c0.112,0.193,0.169,0.547,0.169,1.061l-0.014,1.384
				c0,0.394,0.02,0.684,0.061,0.871c0.041,0.187,0.116,0.387,0.227,0.601h-1.25c-0.033-0.079-0.073-0.195-0.121-0.35
				c-0.021-0.07-0.036-0.117-0.045-0.14c-0.216,0.197-0.447,0.345-0.693,0.442c-0.246,0.099-0.508,0.148-0.787,0.148
				c-0.492,0-0.879-0.125-1.163-0.376c-0.283-0.25-0.425-0.566-0.425-0.948c0-0.253,0.064-0.479,0.193-0.677s0.31-0.351,0.542-0.456
				s0.567-0.197,1.005-0.276c0.591-0.104,1-0.2,1.228-0.291v-0.118c0-0.228-0.06-0.39-0.18-0.486
				c-0.12-0.098-0.346-0.146-0.679-0.146c-0.225,0-0.4,0.041-0.526,0.124S204.359,266.408,204.281,266.616z M205.973,267.578
				c-0.162,0.05-0.418,0.11-0.77,0.181c-0.351,0.07-0.58,0.14-0.688,0.207c-0.165,0.109-0.248,0.249-0.248,0.417
				c0,0.166,0.066,0.31,0.198,0.431c0.132,0.121,0.3,0.182,0.503,0.182c0.228,0,0.445-0.07,0.652-0.211
				c0.153-0.107,0.253-0.238,0.301-0.393c0.033-0.102,0.05-0.294,0.05-0.578V267.578z"/>
			<path d="M211.195,265.25v0.944h-0.864v1.805c0,0.366,0.008,0.579,0.025,0.64c0.016,0.061,0.054,0.11,0.112,0.149
				s0.13,0.059,0.214,0.059c0.117,0,0.286-0.037,0.508-0.113l0.108,0.919c-0.294,0.118-0.627,0.178-0.999,0.178
				c-0.228,0-0.433-0.036-0.616-0.107c-0.183-0.072-0.317-0.165-0.402-0.278c-0.085-0.114-0.145-0.269-0.178-0.462
				c-0.027-0.138-0.041-0.416-0.041-0.835v-1.953h-0.58v-0.944h0.58v-0.89l1.269-0.692v1.582H211.195z"/>
			<path d="M211.841,264.643v-1.097h1.264v1.097H211.841z M211.841,269.729v-4.479h1.264v4.479H211.841z"/>
			<path d="M215.981,269.729l-1.925-4.479h1.327l0.9,2.285l0.261,0.764c0.069-0.194,0.112-0.322,0.13-0.384
				c0.042-0.126,0.087-0.253,0.135-0.38l0.909-2.285h1.3l-1.898,4.479H215.981z"/>
			<path d="M222.4,268.303l1.26,0.198c-0.162,0.434-0.418,0.763-0.768,0.989c-0.348,0.227-0.785,0.34-1.311,0.34
				c-0.83,0-1.445-0.255-1.844-0.764c-0.315-0.407-0.472-0.922-0.472-1.544c0-0.742,0.207-1.323,0.621-1.743
				c0.415-0.421,0.937-0.631,1.57-0.631c0.709,0,1.271,0.221,1.682,0.66c0.41,0.44,0.607,1.114,0.59,2.022h-3.167
				c0.01,0.352,0.111,0.625,0.307,0.82c0.195,0.195,0.437,0.293,0.728,0.293c0.197,0,0.365-0.051,0.5-0.152
				C222.23,268.691,222.332,268.528,222.4,268.303z M222.473,267.105c-0.01-0.343-0.104-0.604-0.283-0.782s-0.398-0.268-0.656-0.268
				c-0.277,0-0.504,0.094-0.683,0.282c-0.181,0.188-0.27,0.444-0.266,0.768H222.473z"/>
			<path d="M229.621,269.729v-5.137h-1.955v-1.046h5.24v1.046h-1.953v5.137H229.621z"/>
			<path d="M236.561,268.303l1.26,0.198c-0.162,0.434-0.418,0.763-0.768,0.989s-0.787,0.34-1.311,0.34
				c-0.832,0-1.447-0.255-1.846-0.764c-0.314-0.407-0.473-0.922-0.473-1.544c0-0.742,0.207-1.323,0.621-1.743
				c0.414-0.421,0.938-0.631,1.57-0.631c0.711,0,1.271,0.221,1.682,0.66c0.412,0.44,0.607,1.114,0.59,2.022h-3.166
				c0.008,0.352,0.111,0.625,0.305,0.82c0.195,0.195,0.439,0.293,0.729,0.293c0.199,0,0.365-0.051,0.5-0.152
				C236.389,268.691,236.49,268.528,236.561,268.303z M236.633,267.105c-0.01-0.343-0.104-0.604-0.283-0.782
				c-0.182-0.179-0.4-0.268-0.658-0.268c-0.275,0-0.504,0.094-0.684,0.282s-0.268,0.444-0.266,0.768H236.633z"/>
			<path d="M239.365,265.25h1.166v0.611c0.416-0.475,0.914-0.713,1.488-0.713c0.307,0,0.572,0.06,0.797,0.178
				s0.41,0.296,0.553,0.535c0.211-0.239,0.438-0.417,0.68-0.535s0.502-0.178,0.777-0.178c0.352,0,0.648,0.067,0.891,0.2
				c0.244,0.134,0.426,0.33,0.545,0.589c0.088,0.191,0.131,0.5,0.131,0.928v2.863h-1.264v-2.56c0-0.444-0.043-0.731-0.131-0.86
				c-0.117-0.169-0.297-0.253-0.539-0.253c-0.178,0-0.344,0.05-0.5,0.151s-0.268,0.25-0.338,0.445
				c-0.068,0.195-0.104,0.504-0.104,0.926v2.15h-1.264v-2.454c0-0.437-0.021-0.717-0.066-0.844
				c-0.047-0.127-0.115-0.221-0.211-0.282c-0.094-0.063-0.223-0.093-0.383-0.093c-0.195,0-0.371,0.049-0.527,0.147
				s-0.268,0.24-0.336,0.426c-0.066,0.186-0.1,0.493-0.1,0.924v2.176h-1.266V265.25z"/>
			<path d="M247.92,265.25h1.178v0.658c0.154-0.226,0.361-0.408,0.621-0.549c0.262-0.141,0.551-0.211,0.869-0.211
				c0.555,0,1.025,0.204,1.412,0.611c0.387,0.408,0.58,0.976,0.58,1.704c0,0.748-0.195,1.329-0.584,1.744
				c-0.391,0.414-0.863,0.622-1.418,0.622c-0.264,0-0.504-0.05-0.717-0.148c-0.215-0.098-0.441-0.267-0.678-0.506v2.257h-1.264
				V265.25z M249.17,267.413c0,0.504,0.107,0.875,0.32,1.115c0.213,0.241,0.473,0.361,0.777,0.361c0.295,0,0.539-0.11,0.734-0.331
				c0.193-0.221,0.291-0.583,0.291-1.086c0-0.47-0.1-0.818-0.301-1.046c-0.201-0.229-0.449-0.342-0.746-0.342
				c-0.311,0-0.566,0.111-0.77,0.335C249.271,266.644,249.17,266.975,249.17,267.413z"/>
			<path d="M256.387,268.303l1.26,0.198c-0.162,0.434-0.418,0.763-0.768,0.989s-0.787,0.34-1.311,0.34
				c-0.832,0-1.447-0.255-1.846-0.764c-0.314-0.407-0.473-0.922-0.473-1.544c0-0.742,0.207-1.323,0.621-1.743
				c0.414-0.421,0.938-0.631,1.57-0.631c0.711,0,1.271,0.221,1.682,0.66c0.412,0.44,0.607,1.114,0.59,2.022h-3.166
				c0.008,0.352,0.111,0.625,0.305,0.82c0.195,0.195,0.439,0.293,0.729,0.293c0.199,0,0.365-0.051,0.5-0.152
				C256.215,268.691,256.316,268.528,256.387,268.303z M256.459,267.105c-0.01-0.343-0.104-0.604-0.283-0.782
				c-0.182-0.179-0.4-0.268-0.658-0.268c-0.275,0-0.504,0.094-0.684,0.282s-0.268,0.444-0.266,0.768H256.459z"/>
			<path d="M260.498,269.729h-1.264v-4.479h1.174v0.637c0.201-0.301,0.381-0.499,0.541-0.595s0.344-0.144,0.547-0.144
				c0.289,0,0.566,0.075,0.832,0.224l-0.391,1.033c-0.213-0.129-0.412-0.194-0.594-0.194c-0.178,0-0.328,0.046-0.449,0.138
				c-0.123,0.091-0.221,0.257-0.291,0.495c-0.07,0.239-0.105,0.739-0.105,1.502V269.729z"/>
			<path d="M263.779,266.616l-1.146-0.194c0.129-0.433,0.352-0.753,0.666-0.961s0.783-0.313,1.404-0.313
				c0.563,0,0.982,0.063,1.26,0.188c0.275,0.126,0.469,0.284,0.582,0.477c0.111,0.193,0.168,0.547,0.168,1.061l-0.014,1.384
				c0,0.394,0.021,0.684,0.061,0.871c0.041,0.187,0.117,0.387,0.229,0.601h-1.252c-0.033-0.079-0.072-0.195-0.121-0.35
				c-0.021-0.07-0.035-0.117-0.045-0.14c-0.215,0.197-0.447,0.345-0.693,0.442c-0.244,0.099-0.508,0.148-0.787,0.148
				c-0.49,0-0.879-0.125-1.162-0.376c-0.283-0.25-0.426-0.566-0.426-0.948c0-0.253,0.064-0.479,0.193-0.677s0.311-0.351,0.543-0.456
				s0.568-0.197,1.006-0.276c0.59-0.104,1-0.2,1.227-0.291v-0.118c0-0.228-0.059-0.39-0.18-0.486
				c-0.119-0.098-0.346-0.146-0.678-0.146c-0.227,0-0.4,0.041-0.527,0.124C263.961,266.263,263.857,266.408,263.779,266.616z
				 M265.471,267.578c-0.16,0.05-0.418,0.11-0.768,0.181c-0.352,0.07-0.58,0.14-0.689,0.207c-0.164,0.109-0.246,0.249-0.246,0.417
				c0,0.166,0.064,0.31,0.197,0.431c0.131,0.121,0.299,0.182,0.504,0.182c0.229,0,0.445-0.07,0.652-0.211
				c0.152-0.107,0.254-0.238,0.301-0.393c0.033-0.102,0.049-0.294,0.049-0.578V267.578z"/>
			<path d="M270.693,265.25v0.944h-0.863v1.805c0,0.366,0.008,0.579,0.023,0.64c0.018,0.061,0.055,0.11,0.113,0.149
				s0.129,0.059,0.213,0.059c0.117,0,0.287-0.037,0.51-0.113l0.107,0.919c-0.295,0.118-0.627,0.178-0.998,0.178
				c-0.229,0-0.434-0.036-0.617-0.107c-0.184-0.072-0.316-0.165-0.402-0.278c-0.086-0.114-0.145-0.269-0.178-0.462
				c-0.027-0.138-0.041-0.416-0.041-0.835v-1.953h-0.58v-0.944h0.58v-0.89l1.27-0.692v1.582H270.693z"/>
			<path d="M274.484,269.729v-0.671c-0.174,0.239-0.402,0.428-0.686,0.565s-0.582,0.207-0.896,0.207
				c-0.322,0-0.609-0.066-0.865-0.198c-0.254-0.133-0.439-0.318-0.553-0.557c-0.113-0.239-0.172-0.569-0.172-0.991v-2.834h1.266
				v2.058c0,0.63,0.023,1.016,0.068,1.158c0.047,0.142,0.133,0.254,0.256,0.337c0.121,0.083,0.277,0.125,0.467,0.125
				c0.217,0,0.41-0.056,0.58-0.167c0.172-0.111,0.289-0.249,0.352-0.413c0.063-0.165,0.094-0.567,0.094-1.209v-1.889h1.264v4.479
				H274.484z"/>
			<path d="M278.215,269.729h-1.264v-4.479h1.174v0.637c0.201-0.301,0.381-0.499,0.541-0.595s0.344-0.144,0.547-0.144
				c0.289,0,0.566,0.075,0.832,0.224l-0.391,1.033c-0.213-0.129-0.412-0.194-0.594-0.194c-0.178,0-0.328,0.046-0.449,0.138
				c-0.123,0.091-0.221,0.257-0.291,0.495c-0.07,0.239-0.105,0.739-0.105,1.502V269.729z"/>
			<path d="M283.318,268.303l1.26,0.198c-0.162,0.434-0.418,0.763-0.768,0.989c-0.348,0.227-0.785,0.34-1.311,0.34
				c-0.83,0-1.445-0.255-1.844-0.764c-0.314-0.407-0.473-0.922-0.473-1.544c0-0.742,0.207-1.323,0.621-1.743
				c0.414-0.421,0.938-0.631,1.57-0.631c0.709,0,1.271,0.221,1.682,0.66c0.41,0.44,0.607,1.114,0.59,2.022h-3.168
				c0.01,0.352,0.111,0.625,0.307,0.82s0.438,0.293,0.729,0.293c0.197,0,0.365-0.051,0.5-0.152
				C283.148,268.691,283.25,268.528,283.318,268.303z M283.391,267.105c-0.01-0.343-0.104-0.604-0.283-0.782
				s-0.398-0.268-0.656-0.268c-0.277,0-0.504,0.094-0.684,0.282s-0.27,0.444-0.266,0.768H283.391z"/>
			<path d="M291.143,271.546h-0.867c-0.459-0.649-0.809-1.324-1.049-2.024c-0.24-0.699-0.359-1.377-0.359-2.032
				c0-0.813,0.148-1.581,0.445-2.307c0.258-0.63,0.584-1.211,0.98-1.742h0.863c-0.41,0.853-0.693,1.577-0.848,2.174
				c-0.154,0.598-0.232,1.231-0.232,1.9c0,0.461,0.047,0.934,0.137,1.417c0.092,0.483,0.217,0.943,0.377,1.379
				C290.695,270.598,290.879,271.009,291.143,271.546z"/>
			<path d="M296.113,267.455l1.291,0.384c-0.199,0.675-0.527,1.177-0.988,1.504c-0.459,0.327-1.043,0.491-1.752,0.491
				c-0.875,0-1.596-0.28-2.158-0.842c-0.564-0.561-0.846-1.327-0.846-2.3c0-1.029,0.283-1.828,0.85-2.397s1.313-0.854,2.236-0.854
				c0.807,0,1.461,0.224,1.965,0.671c0.301,0.265,0.525,0.644,0.676,1.139l-1.318,0.295c-0.078-0.32-0.24-0.573-0.488-0.759
				s-0.549-0.278-0.902-0.278c-0.488,0-0.885,0.164-1.189,0.493s-0.457,0.862-0.457,1.599c0,0.781,0.15,1.338,0.449,1.67
				c0.301,0.332,0.691,0.497,1.17,0.497c0.354,0,0.658-0.105,0.914-0.315C295.818,268.24,296.002,267.908,296.113,267.455z"/>
			<path d="M297.92,271.546c0.248-0.5,0.424-0.884,0.525-1.151c0.102-0.267,0.197-0.574,0.283-0.923
				c0.088-0.349,0.152-0.68,0.193-0.993c0.043-0.313,0.064-0.635,0.064-0.964c0-0.669-0.078-1.303-0.23-1.9
				c-0.152-0.597-0.436-1.321-0.846-2.174h0.859c0.453,0.604,0.805,1.246,1.055,1.923c0.25,0.678,0.375,1.365,0.375,2.063
				c0,0.588-0.098,1.218-0.297,1.89c-0.225,0.753-0.594,1.497-1.111,2.23H297.92z"/>
		</g>
	</g>
	<g>
		<defs>
			<polygon id="SVGID_19_" points="11.339,108.957 26.929,108.957 26.929,176.723 11.339,176.723 11.339,108.957 			"/>
		</defs>
		<clipPath id="SVGID_20_">
			<use xlink:href="#SVGID_19_"  overflow="visible"/>
		</clipPath>
		<g clip-path="url(#SVGID_20_)">
			<path d="M21.969,174.752h-6.595v-1.248h2.596v-2.446h-2.596v-1.248h6.595v1.248h-2.883v2.446h2.883V174.752z"/>
			<path d="M21.969,165.831h-0.715c0.255,0.163,0.456,0.377,0.603,0.643s0.22,0.546,0.22,0.842c0,0.301-0.07,0.57-0.211,0.81
				s-0.339,0.412-0.594,0.519s-0.607,0.16-1.057,0.16h-3.023v-1.185h2.195c0.672,0,1.083-0.022,1.235-0.065
				c0.151-0.044,0.271-0.123,0.36-0.238s0.133-0.262,0.133-0.438c0-0.203-0.06-0.384-0.178-0.544
				c-0.119-0.161-0.266-0.271-0.441-0.329c-0.175-0.06-0.605-0.089-1.289-0.089h-2.015v-1.185h4.777V165.831z"/>
			<path d="M17.192,163.557v-1.093h0.652c-0.507-0.391-0.76-0.855-0.76-1.396c0-0.287,0.063-0.535,0.189-0.746
				s0.316-0.384,0.571-0.519c-0.255-0.197-0.445-0.409-0.571-0.638c-0.126-0.228-0.189-0.471-0.189-0.729
				c0-0.328,0.071-0.607,0.214-0.835c0.142-0.228,0.352-0.397,0.627-0.51c0.204-0.082,0.534-0.122,0.99-0.122h3.054v1.185h-2.73
				c-0.474,0-0.78,0.041-0.917,0.122c-0.18,0.11-0.27,0.278-0.27,0.506c0,0.166,0.054,0.322,0.162,0.469
				c0.108,0.146,0.267,0.251,0.475,0.316c0.208,0.064,0.538,0.097,0.988,0.097h2.294v1.185h-2.618c-0.465,0-0.765,0.021-0.899,0.063
				c-0.135,0.042-0.235,0.107-0.301,0.196c-0.066,0.089-0.099,0.209-0.099,0.36c0,0.183,0.052,0.348,0.157,0.494
				c0.105,0.146,0.256,0.25,0.455,0.313c0.198,0.063,0.526,0.095,0.985,0.095h2.321v1.186H17.192z"/>
			<path d="M16.544,155.503h-1.17v-1.185h1.17V155.503z M21.969,155.503h-4.777v-1.185h4.777V155.503z"/>
			<path d="M21.969,148.746v1.101h-0.702c0.273,0.183,0.476,0.398,0.609,0.647s0.2,0.5,0.2,0.753c0,0.515-0.221,0.955-0.664,1.322
				c-0.442,0.366-1.059,0.55-1.851,0.55c-0.81,0-1.425-0.179-1.847-0.535c-0.421-0.357-0.632-0.809-0.632-1.354
				c0-0.501,0.222-0.934,0.666-1.299h-2.375v-1.186H21.969z M19.477,151.909c0.51,0,0.879-0.066,1.107-0.198
				c0.33-0.191,0.495-0.458,0.495-0.802c0-0.272-0.124-0.504-0.371-0.695s-0.617-0.287-1.109-0.287
				c-0.549,0-0.944,0.093-1.186,0.278c-0.241,0.186-0.362,0.424-0.362,0.713c0,0.281,0.119,0.517,0.357,0.706
				C18.647,151.814,19.003,151.909,19.477,151.909z"/>
			<path d="M16.544,147.543h-1.17v-1.185h1.17V147.543z M21.969,147.543h-4.777v-1.185h4.777V147.543z"/>
			<path d="M17.192,142.839H18.2v0.81h1.925c0.39,0,0.617-0.008,0.682-0.022c0.064-0.016,0.118-0.051,0.16-0.105
				c0.042-0.056,0.063-0.122,0.063-0.201c0-0.109-0.041-0.268-0.122-0.477l0.98-0.101c0.126,0.275,0.189,0.588,0.189,0.936
				c0,0.214-0.038,0.407-0.115,0.578c-0.076,0.172-0.175,0.298-0.297,0.378s-0.286,0.136-0.493,0.166
				c-0.146,0.025-0.444,0.038-0.891,0.038H18.2v0.544h-1.008v-0.544h-0.949l-0.738-1.189h1.687V142.839z"/>
			<path d="M17.192,142.794v-1.261l3.392-1.071l-3.392-1.046v-1.227l4.597,1.581l0.833,0.283c0.279,0.104,0.492,0.203,0.639,0.297
				s0.266,0.203,0.357,0.325c0.092,0.123,0.163,0.273,0.214,0.451c0.051,0.179,0.077,0.38,0.077,0.605
				c0,0.227-0.026,0.451-0.077,0.67l-0.99,0.105c0.039-0.186,0.059-0.353,0.059-0.502c0-0.275-0.086-0.479-0.259-0.611
				c-0.172-0.132-0.392-0.233-0.659-0.304L17.192,142.794z"/>
			<path d="M21.969,134.913h-6.595v-2.627c0-0.661,0.06-1.141,0.178-1.44c0.119-0.299,0.329-0.539,0.632-0.719
				c0.303-0.18,0.649-0.27,1.039-0.27c0.495,0,0.903,0.136,1.226,0.409c0.322,0.272,0.526,0.68,0.609,1.223
				c0.168-0.27,0.353-0.493,0.554-0.668c0.201-0.175,0.558-0.412,1.07-0.71l1.287-0.755v1.493l-1.435,0.902
				c-0.513,0.32-0.836,0.54-0.969,0.658s-0.225,0.243-0.274,0.375s-0.074,0.341-0.074,0.628v0.253h2.753V134.913z M18.164,133.665
				v-0.923c0-0.599-0.027-0.973-0.081-1.122c-0.054-0.149-0.147-0.266-0.279-0.35c-0.132-0.084-0.297-0.126-0.495-0.126
				c-0.222,0-0.401,0.056-0.538,0.167c-0.137,0.111-0.223,0.268-0.259,0.47c-0.015,0.102-0.022,0.405-0.022,0.911v0.974H18.164z"/>
			<path d="M18.649,128.054l-0.207,1.075c-0.461-0.121-0.804-0.329-1.025-0.624c-0.222-0.295-0.333-0.734-0.333-1.316
				c0-0.528,0.067-0.922,0.2-1.181s0.303-0.441,0.508-0.546s0.583-0.158,1.131-0.158l1.476,0.013c0.42,0,0.729-0.019,0.929-0.057
				c0.2-0.038,0.413-0.109,0.641-0.213v1.172c-0.084,0.031-0.208,0.069-0.374,0.114c-0.075,0.02-0.124,0.034-0.148,0.042
				c0.21,0.203,0.368,0.419,0.473,0.649s0.157,0.477,0.157,0.738c0,0.461-0.133,0.824-0.4,1.09
				c-0.267,0.266-0.604,0.399-1.012,0.399c-0.27,0-0.51-0.061-0.722-0.182c-0.211-0.121-0.374-0.29-0.486-0.508
				c-0.113-0.218-0.211-0.532-0.295-0.942c-0.111-0.554-0.214-0.938-0.31-1.151h-0.126c-0.243,0-0.416,0.056-0.52,0.169
				c-0.104,0.112-0.155,0.325-0.155,0.637c0,0.211,0.044,0.375,0.133,0.493C18.272,127.885,18.428,127.981,18.649,128.054z
				 M19.675,126.468c0.054,0.152,0.118,0.392,0.193,0.721c0.075,0.329,0.148,0.544,0.22,0.646c0.117,0.154,0.266,0.232,0.445,0.232
				c0.177,0,0.33-0.062,0.459-0.186c0.129-0.124,0.193-0.281,0.193-0.473c0-0.213-0.075-0.417-0.225-0.611
				c-0.114-0.144-0.253-0.238-0.418-0.283c-0.108-0.031-0.313-0.046-0.617-0.046H19.675z"/>
			<path d="M17.192,122.229H18.2v0.81h1.925c0.39,0,0.617-0.008,0.682-0.023s0.118-0.051,0.16-0.105s0.063-0.122,0.063-0.2
				c0-0.11-0.041-0.269-0.122-0.477l0.98-0.101c0.126,0.275,0.189,0.587,0.189,0.936c0,0.214-0.038,0.406-0.115,0.578
				c-0.076,0.172-0.175,0.297-0.297,0.377s-0.286,0.136-0.493,0.167c-0.146,0.025-0.444,0.038-0.891,0.038H18.2v0.544h-1.008v-0.544
				h-0.949l-0.738-1.189h1.687V122.229z"/>
			<path d="M16.544,121.623h-1.17v-1.185h1.17V121.623z M21.969,121.623h-4.777v-1.185h4.777V121.623z"/>
			<path d="M19.513,119.247c-0.42,0-0.826-0.097-1.219-0.291c-0.393-0.194-0.692-0.469-0.899-0.825
				c-0.207-0.355-0.311-0.752-0.311-1.191c0-0.677,0.235-1.232,0.704-1.666s1.063-0.649,1.779-0.649
				c0.723,0,1.322,0.219,1.797,0.656s0.713,0.987,0.713,1.651c0,0.411-0.099,0.802-0.297,1.175s-0.488,0.656-0.871,0.85
				C20.527,119.15,20.062,119.247,19.513,119.247z M19.581,118.032c0.474,0,0.837-0.105,1.089-0.316
				c0.251-0.211,0.377-0.471,0.377-0.78c0-0.31-0.126-0.569-0.377-0.778c-0.252-0.209-0.618-0.314-1.098-0.314
				c-0.468,0-0.828,0.104-1.08,0.314s-0.378,0.469-0.378,0.778c0,0.309,0.126,0.569,0.378,0.78
				C18.744,117.927,19.107,118.032,19.581,118.032z"/>
		</g>
	</g>
	<g>
		<defs>
			<polygon id="SVGID_21_" points="0,0 439.371,0 439.371,285.015 0,285.015 0,0 			"/>
		</defs>
		<clipPath id="SVGID_22_">
			<use xlink:href="#SVGID_21_"  overflow="visible"/>
		</clipPath>
		
			<rect x="3.543" y="3.322" clip-path="url(#SVGID_22_)" fill="none" stroke="#000000" stroke-width="0.6644" stroke-linecap="square" stroke-miterlimit="10" width="431.576" height="278.372"/>
	</g>
</g>
</svg>
