<?xml version="1.0" encoding="utf-8"?>
<!-- Generator: Adobe Illustrator 16.0.0, SVG Export Plug-In . SVG Version: 6.00 Build 0)  -->
<!DOCTYPE svg PUBLIC "-//W3C//DTD SVG 1.1//EN" "http://www.w3.org/Graphics/SVG/1.1/DTD/svg11.dtd">
<svg version="1.1" id="Layer_1" xmlns="http://www.w3.org/2000/svg" xmlns:xlink="http://www.w3.org/1999/xlink" x="0px" y="0px"
	 width="522.276px" height="215.285px" viewBox="0 0 522.276 215.285" enable-background="new 0 0 522.276 215.285"
	 xml:space="preserve">
<g>
	<defs>
		<rect id="SVGID_1_" width="375.727" height="211.924"/>
	</defs>
	<clipPath id="SVGID_2_">
		<use xlink:href="#SVGID_1_"  overflow="visible"/>
	</clipPath>
	<g clip-path="url(#SVGID_2_)">
		<defs>
			<rect id="SVGID_3_" x="34.574" y="93.51" width="40.562" height="17.61"/>
		</defs>
		<clipPath id="SVGID_4_">
			<use xlink:href="#SVGID_3_"  overflow="visible"/>
		</clipPath>
		<g clip-path="url(#SVGID_4_)">
			<path d="M34.692,104.046v-1.435l4.139-5.11H35.16v-1.333h5.768v1.236l-4.316,5.314h4.483v1.327H34.692z"/>
			<path d="M41.74,101.112c0-0.501,0.124-0.987,0.371-1.456c0.248-0.469,0.598-0.828,1.051-1.075
				c0.453-0.248,0.959-0.371,1.519-0.371c0.864,0,1.571,0.28,2.124,0.841c0.552,0.561,0.828,1.269,0.828,2.125
				c0,0.863-0.279,1.579-0.836,2.147s-1.259,0.852-2.104,0.852c-0.523,0-1.022-0.118-1.497-0.354
				c-0.475-0.236-0.836-0.583-1.083-1.04C41.863,102.324,41.74,101.768,41.74,101.112z M43.288,101.193c0,0.566,0.135,1,0.403,1.3
				c0.269,0.301,0.6,0.452,0.995,0.452c0.394,0,0.725-0.15,0.992-0.452c0.267-0.301,0.4-0.738,0.4-1.311
				c0-0.559-0.133-0.989-0.4-1.29s-0.598-0.451-0.992-0.451c-0.395,0-0.726,0.15-0.995,0.451
				C43.422,100.193,43.288,100.627,43.288,101.193z"/>
			<path d="M54.006,104.046h-1.51v-2.913c0-0.616-0.032-1.015-0.097-1.195c-0.064-0.181-0.169-0.322-0.314-0.422
				c-0.146-0.101-0.32-0.151-0.524-0.151c-0.262,0-0.496,0.072-0.704,0.215c-0.208,0.143-0.351,0.333-0.427,0.569
				c-0.077,0.236-0.116,0.674-0.116,1.311v2.585h-1.511v-5.707h1.403v0.838c0.498-0.645,1.125-0.967,1.881-0.967
				c0.333,0,0.638,0.06,0.914,0.18c0.276,0.12,0.484,0.273,0.626,0.459c0.142,0.187,0.24,0.397,0.296,0.634
				c0.055,0.236,0.083,0.575,0.083,1.016V104.046z"/>
			<path d="M58.812,102.23l1.505,0.252c-0.194,0.552-0.499,0.972-0.917,1.26c-0.417,0.289-0.94,0.433-1.567,0.433
				c-0.993,0-1.727-0.324-2.204-0.973c-0.376-0.52-0.564-1.175-0.564-1.967c0-0.946,0.247-1.686,0.742-2.222s1.12-0.804,1.876-0.804
				c0.85,0,1.52,0.28,2.011,0.841c0.491,0.561,0.726,1.419,0.704,2.577h-3.785c0.011,0.448,0.133,0.796,0.366,1.045
				s0.523,0.374,0.871,0.374c0.237,0,0.436-0.064,0.597-0.193C58.607,102.725,58.729,102.517,58.812,102.23z M58.897,100.704
				c-0.011-0.437-0.124-0.77-0.338-0.997c-0.215-0.228-0.477-0.341-0.785-0.341c-0.33,0-0.602,0.12-0.817,0.36
				c-0.215,0.24-0.321,0.566-0.317,0.978H58.897z"/>
			<path d="M61.457,101.945v-1.51h2.967v1.51H61.457z"/>
			<path d="M68.86,104.046h-1.511v-5.691c-0.552,0.516-1.203,0.897-1.951,1.145V98.13c0.394-0.129,0.822-0.374,1.285-0.733
				s0.779-0.78,0.951-1.26h1.226V104.046z"/>
		</g>
	</g>
	<g clip-path="url(#SVGID_2_)">
		<defs>
			<rect id="SVGID_5_" x="180.619" y="20.975" width="56.545" height="16.185"/>
		</defs>
		<clipPath id="SVGID_6_">
			<use xlink:href="#SVGID_5_"  overflow="visible"/>
		</clipPath>
		<g clip-path="url(#SVGID_6_)">
			<path d="M182.629,30.226l-1.889-7.118h0.966l1.083,4.666c0.117,0.489,0.217,0.974,0.301,1.457
				c0.181-0.761,0.288-1.199,0.321-1.316l1.355-4.807h1.137l1.02,3.603c0.255,0.894,0.44,1.733,0.554,2.52
				c0.09-0.45,0.208-0.966,0.354-1.549l1.117-4.574h0.947l-1.953,7.118h-0.908l-1.5-5.423c-0.126-0.453-0.201-0.731-0.224-0.835
				c-0.075,0.327-0.144,0.605-0.209,0.835l-1.51,5.423H182.629z"/>
			<path d="M190.996,24.113v-1.005h0.874v1.005H190.996z M190.996,30.226V25.07h0.874v5.156H190.996z"/>
			<path d="M193.141,30.226V25.07h0.787v0.733c0.379-0.566,0.926-0.85,1.642-0.85c0.311,0,0.597,0.056,0.857,0.167
				c0.261,0.112,0.456,0.258,0.585,0.439c0.129,0.182,0.22,0.396,0.272,0.646c0.032,0.162,0.048,0.445,0.048,0.85v3.17h-0.874
				v-3.137c0-0.356-0.034-0.622-0.102-0.798s-0.188-0.317-0.362-0.422c-0.173-0.105-0.376-0.158-0.609-0.158
				c-0.373,0-0.694,0.118-0.964,0.354c-0.271,0.236-0.406,0.685-0.406,1.345v2.816H193.141z"/>
			<path d="M202.02,30.226v-0.65c-0.327,0.511-0.808,0.767-1.443,0.767c-0.411,0-0.789-0.113-1.134-0.34
				c-0.345-0.227-0.612-0.543-0.802-0.949s-0.284-0.873-0.284-1.401c0-0.515,0.086-0.981,0.258-1.401
				c0.171-0.419,0.429-0.74,0.772-0.964c0.343-0.223,0.727-0.335,1.151-0.335c0.311,0,0.587,0.066,0.831,0.197
				c0.243,0.131,0.44,0.302,0.592,0.512v-2.554h0.87v7.118H202.02z M199.256,27.653c0,0.66,0.139,1.154,0.417,1.481
				c0.278,0.327,0.607,0.49,0.986,0.49c0.382,0,0.707-0.156,0.974-0.469c0.267-0.312,0.4-0.789,0.4-1.43
				c0-0.706-0.136-1.224-0.408-1.554s-0.607-0.495-1.005-0.495c-0.389,0-0.713,0.159-0.974,0.476
				C199.386,26.47,199.256,26.97,199.256,27.653z"/>
			<path d="M203.88,27.648c0-0.955,0.266-1.662,0.797-2.122c0.443-0.382,0.984-0.573,1.622-0.573c0.709,0,1.289,0.232,1.739,0.697
				c0.45,0.465,0.675,1.106,0.675,1.925c0,0.664-0.1,1.186-0.299,1.566s-0.489,0.675-0.869,0.886
				c-0.381,0.21-0.796,0.316-1.246,0.316c-0.722,0-1.306-0.231-1.751-0.694S203.88,28.519,203.88,27.648z M204.779,27.648
				c0,0.66,0.144,1.155,0.432,1.483s0.651,0.493,1.088,0.493c0.434,0,0.795-0.165,1.083-0.495c0.289-0.33,0.433-0.833,0.433-1.51
				c0-0.638-0.145-1.121-0.435-1.449c-0.29-0.329-0.65-0.493-1.081-0.493c-0.437,0-0.8,0.164-1.088,0.49
				C204.923,26.494,204.779,26.988,204.779,27.648z"/>
			<path d="M210.69,30.226l-1.579-5.156h0.903l0.821,2.976l0.306,1.107c0.013-0.055,0.102-0.409,0.267-1.063l0.821-3.02h0.898
				l0.772,2.991l0.257,0.986l0.296-0.996l0.884-2.981h0.85l-1.613,5.156h-0.908l-0.821-3.088l-0.199-0.879l-1.044,3.967H210.69z"/>
			<path d="M216.472,28.09v-0.879h2.686v0.879H216.472z"/>
			<path d="M224.496,29.386v0.84h-4.707c-0.007-0.21,0.027-0.413,0.102-0.607c0.12-0.32,0.312-0.636,0.575-0.947
				c0.264-0.311,0.646-0.67,1.144-1.078c0.774-0.635,1.297-1.137,1.569-1.508s0.408-0.721,0.408-1.051
				c0-0.346-0.124-0.638-0.371-0.876c-0.248-0.238-0.571-0.357-0.969-0.357c-0.421,0-0.758,0.126-1.01,0.378
				s-0.38,0.602-0.384,1.049l-0.898-0.092c0.062-0.67,0.293-1.181,0.694-1.532c0.402-0.351,0.941-0.527,1.618-0.527
				c0.683,0,1.224,0.189,1.622,0.568c0.398,0.378,0.598,0.848,0.598,1.408c0,0.285-0.059,0.565-0.175,0.84
				c-0.117,0.275-0.31,0.565-0.581,0.869s-0.72,0.722-1.348,1.253c-0.525,0.44-0.862,0.739-1.01,0.896
				c-0.149,0.157-0.272,0.315-0.369,0.474H224.496z"/>
		</g>
	</g>
	
		<rect x="127.937" y="39.089" clip-path="url(#SVGID_2_)" fill="none" stroke="#000000" stroke-width="2.2691" stroke-linejoin="round" stroke-miterlimit="10" width="103.816" height="85.101"/>
	
		<rect x="22.913" y="39.089" clip-path="url(#SVGID_2_)" fill="none" stroke="#000000" stroke-width="2.2691" stroke-linejoin="round" stroke-miterlimit="10" width="103.817" height="85.101"/>
	
		<rect x="127.937" y="124.794" clip-path="url(#SVGID_2_)" fill="none" stroke="#000000" stroke-width="2.2691" stroke-linejoin="round" stroke-miterlimit="10" width="103.816" height="85.101"/>
	
		<rect x="62.653" y="36.671" clip-path="url(#SVGID_2_)" fill-rule="evenodd" clip-rule="evenodd" fill="#FFFFFF" width="12.604" height="6.015"/>
	<rect x="61.929" y="36.573" clip-path="url(#SVGID_2_)" width="1.449" height="6.353"/>
	<rect x="74.291" y="36.573" clip-path="url(#SVGID_2_)" width="1.449" height="6.353"/>
	
		<rect x="174.152" y="121.557" clip-path="url(#SVGID_2_)" fill-rule="evenodd" clip-rule="evenodd" fill="#FFFFFF" width="11.999" height="6.715"/>
	<polygon clip-path="url(#SVGID_2_)" points="174.75,121.557 173.304,121.557 173.423,128.393 174.87,128.393 	"/>
	<rect x="185.06" y="121.557" clip-path="url(#SVGID_2_)" width="1.448" height="6.836"/>
	
		<rect x="124.344" y="78.51" clip-path="url(#SVGID_2_)" fill-rule="evenodd" clip-rule="evenodd" fill="#FFFFFF" width="6.712" height="12.947"/>
	<polygon clip-path="url(#SVGID_2_)" points="131.05,79.237 131.05,77.811 124.225,77.911 124.225,79.357 	"/>
	<polygon clip-path="url(#SVGID_2_)" points="131.05,91.817 131.05,90.4 124.225,90.52 124.225,91.946 	"/>
	
		<rect x="228.879" y="160.617" clip-path="url(#SVGID_2_)" fill-rule="evenodd" clip-rule="evenodd" fill="#FFFFFF" width="6.953" height="12.006"/>
	<polygon clip-path="url(#SVGID_2_)" points="235.834,161.341 235.834,159.917 228.64,160.038 228.64,161.462 	"/>
	<rect x="228.64" y="171.657" clip-path="url(#SVGID_2_)" width="7.195" height="1.449"/>
	<polygon clip-path="url(#SVGID_2_)" points="70.452,17.278 70.331,16.789 70.09,16.43 69.728,16.191 69.245,16.191 68.762,16.191 
		68.399,16.43 68.183,16.789 68.183,17.278 68.183,17.737 68.399,18.096 68.762,18.335 69.245,18.335 69.728,18.335 70.09,18.096 
		70.331,17.737 	"/>
	<polygon clip-path="url(#SVGID_2_)" points="70.331,21.817 70.331,21.338 70.09,20.969 69.607,20.729 69.245,20.63 68.762,20.729 
		68.399,20.969 68.183,21.338 68.062,21.817 68.183,22.296 68.399,22.665 68.762,22.904 69.245,23.024 69.607,22.904 69.969,22.665 
		70.331,22.296 	"/>
	<polygon clip-path="url(#SVGID_2_)" points="70.21,26.386 70.09,25.897 69.848,25.538 69.486,25.298 69.124,25.179 68.641,25.298 
		68.303,25.538 68.062,25.897 67.941,26.386 68.062,26.865 68.303,27.204 68.641,27.443 69.124,27.443 69.486,27.443 69.848,27.204 
		70.09,26.865 	"/>
	<polygon clip-path="url(#SVGID_2_)" points="69.969,30.925 69.848,30.436 69.607,30.107 69.245,29.857 68.762,29.738 
		68.399,29.857 68.062,30.107 67.82,30.436 67.7,30.925 67.82,31.404 68.062,31.773 68.399,32.012 68.762,32.012 69.245,32.012 
		69.607,31.773 69.848,31.404 	"/>
	<polygon clip-path="url(#SVGID_2_)" points="69.728,35.494 69.607,35.005 69.365,34.646 69.003,34.406 68.52,34.277 68.183,34.406 
		67.82,34.646 67.579,35.005 67.458,35.494 67.579,35.973 67.82,36.332 68.183,36.581 68.52,36.581 69.003,36.581 69.365,36.332 
		69.607,35.973 	"/>
	<polygon clip-path="url(#SVGID_2_)" points="69.607,40.033 69.607,39.574 69.365,39.205 68.882,38.965 68.52,38.846 68.062,38.965 
		67.7,39.205 67.458,39.574 67.337,40.033 67.458,40.512 67.7,40.88 68.062,41.12 68.52,41.12 68.882,41.12 69.245,40.88 
		69.607,40.512 	"/>
	<polygon clip-path="url(#SVGID_2_)" points="69.848,44.592 69.848,44.113 69.607,43.753 69.245,43.504 68.762,43.384 
		68.303,43.504 67.941,43.753 67.7,44.113 67.579,44.592 67.7,44.96 67.941,45.32 68.303,45.679 68.762,45.679 69.245,45.679 
		69.607,45.32 69.848,44.96 	"/>
	<polygon clip-path="url(#SVGID_2_)" points="70.693,48.562 70.452,48.193 70.09,47.954 69.607,47.833 69.245,47.954 68.882,48.193 
		68.641,48.562 68.52,49.041 68.52,49.38 68.882,49.859 69.245,50.108 69.607,50.108 70.09,50.108 70.452,49.859 70.693,49.5 
		70.814,49.041 	"/>
	<polygon clip-path="url(#SVGID_2_)" points="72.262,52.861 72.021,52.492 71.659,52.273 71.177,52.153 70.693,52.273 
		70.331,52.492 70.09,52.861 70.09,53.34 70.09,53.7 70.331,54.068 70.693,54.428 71.177,54.428 71.659,54.428 72.021,54.068 
		72.262,53.7 72.383,53.34 	"/>
	<polygon clip-path="url(#SVGID_2_)" points="74.05,57.061 73.688,56.702 73.325,56.453 72.963,56.333 72.48,56.453 72.142,56.702 
		71.9,57.061 71.779,57.54 71.9,57.909 72.142,58.268 72.48,58.627 72.963,58.627 73.325,58.627 73.688,58.268 73.929,57.909 
		74.05,57.54 	"/>
	<polygon clip-path="url(#SVGID_2_)" points="75.498,61.381 75.135,61.021 74.773,60.782 74.412,60.663 73.929,60.782 
		73.566,61.021 73.325,61.381 73.205,61.87 73.325,62.208 73.566,62.688 73.929,62.927 74.412,62.927 74.773,62.927 75.135,62.688 
		75.377,62.329 75.498,61.87 	"/>
	<polygon clip-path="url(#SVGID_2_)" points="77.406,65.561 77.043,65.202 76.681,64.862 76.343,64.862 75.86,64.862 75.498,65.202 
		75.256,65.561 75.135,65.93 75.256,66.409 75.498,66.768 75.86,67.017 76.343,67.137 76.681,67.017 77.043,66.768 77.285,66.409 
		77.406,65.93 	"/>
	<polygon clip-path="url(#SVGID_2_)" points="80.544,68.563 80.303,68.224 79.94,67.975 79.458,67.855 79.095,67.975 78.733,68.224 
		78.492,68.563 78.371,68.922 78.371,69.401 78.733,69.771 79.095,70.01 79.458,70.129 79.94,70.01 80.303,69.771 80.544,69.401 
		80.665,69.042 	"/>
	<polygon clip-path="url(#SVGID_2_)" points="83.176,70.978 82.813,70.978 82.331,71.097 81.968,71.336 81.727,71.676 
		81.606,72.035 81.727,72.523 81.968,72.883 82.331,73.122 82.813,73.242 83.176,73.122 83.538,72.883 83.78,72.523 83.9,72.035 
		83.78,71.676 83.538,71.336 	"/>
	<polygon clip-path="url(#SVGID_2_)" points="87.255,73.002 86.894,73.002 86.411,73.122 86.049,73.362 85.808,73.731 85.687,74.09 
		85.808,74.579 86.049,74.908 86.411,75.157 86.894,75.277 87.255,75.157 87.618,74.908 87.859,74.579 87.98,74.09 87.859,73.731 
		87.618,73.362 	"/>
	<polygon clip-path="url(#SVGID_2_)" points="91.457,74.698 91.095,74.698 90.612,74.698 90.25,74.908 90.009,75.277 89.888,75.756 
		90.009,76.245 90.25,76.604 90.612,76.843 91.095,76.963 91.578,76.843 91.94,76.604 92.181,76.245 92.181,75.756 92.181,75.277 
		91.94,74.908 	"/>
	<polygon clip-path="url(#SVGID_2_)" points="95.658,76.604 95.296,76.484 94.813,76.604 94.451,76.843 94.209,77.202 
		94.088,77.691 94.209,78.03 94.451,78.389 94.813,78.749 95.296,78.749 95.658,78.749 96.021,78.389 96.262,78.03 96.383,77.691 
		96.262,77.202 96.021,76.843 	"/>
	<polygon clip-path="url(#SVGID_2_)" points="99.854,78.389 99.376,78.27 99.014,78.389 98.652,78.629 98.411,78.998 98.29,79.477 
		98.411,79.836 98.652,80.205 99.014,80.564 99.376,80.564 99.854,80.564 100.224,80.205 100.463,79.836 100.583,79.477 
		100.463,78.998 100.224,78.629 	"/>
	<polygon clip-path="url(#SVGID_2_)" points="104.305,79.596 103.816,79.596 103.337,79.596 102.978,79.836 102.729,80.205 
		102.729,80.684 102.729,81.143 102.978,81.502 103.457,81.751 103.816,81.751 104.305,81.751 104.665,81.502 104.904,81.143 
		104.904,80.684 104.904,80.205 104.665,79.836 	"/>
	<polygon clip-path="url(#SVGID_2_)" points="108.626,80.803 108.257,80.803 107.778,80.803 107.419,81.143 107.18,81.502 
		107.05,81.871 107.18,82.35 107.419,82.719 107.778,82.958 108.257,83.078 108.626,82.958 108.986,82.719 109.225,82.35 
		109.345,81.871 109.225,81.502 108.986,81.143 	"/>
	<polygon clip-path="url(#SVGID_2_)" points="112.948,82.35 112.458,82.35 111.979,82.469 111.621,82.719 111.371,83.078 
		111.371,83.437 111.371,83.926 111.621,84.265 112.1,84.504 112.458,84.624 112.948,84.504 113.307,84.265 113.546,83.926 
		113.666,83.437 113.546,83.078 113.307,82.719 	"/>
	<polygon clip-path="url(#SVGID_2_)" points="117.029,82.469 116.54,82.589 116.181,82.838 115.941,83.198 115.822,83.676 
		115.941,84.166 116.181,84.504 116.54,84.744 117.029,84.744 117.508,84.744 117.848,84.504 118.087,84.166 118.207,83.676 
		118.087,83.198 117.848,82.838 117.508,82.589 	"/>
	<polygon clip-path="url(#SVGID_2_)" points="121.59,82.719 121.101,82.719 120.742,82.958 120.502,83.317 120.382,83.806 
		120.502,84.265 120.742,84.624 121.101,84.864 121.59,84.983 122.049,84.864 122.408,84.624 122.648,84.265 122.648,83.806 
		122.648,83.317 122.408,82.958 122.049,82.719 	"/>
	<polygon clip-path="url(#SVGID_2_)" points="126.13,82.958 125.671,83.078 125.302,83.317 125.063,83.676 124.943,84.045 
		125.063,84.504 125.302,84.864 125.671,85.103 126.13,85.223 126.609,85.103 126.969,84.864 127.218,84.504 127.218,84.045 
		127.218,83.676 126.969,83.317 126.609,83.078 	"/>
	<polygon clip-path="url(#SVGID_2_)" points="130.571,83.806 130.212,83.806 129.873,84.166 129.503,84.504 129.503,84.864 
		129.503,85.342 129.753,85.711 130.212,85.951 130.571,86.071 131.05,85.951 131.419,85.711 131.659,85.342 131.779,84.864 
		131.659,84.504 131.419,84.166 131.05,83.806 	"/>
	<polygon clip-path="url(#SVGID_2_)" points="135.132,84.504 134.653,84.624 134.313,84.864 134.074,85.223 133.955,85.711 
		134.074,86.071 134.313,86.43 134.653,86.799 135.132,86.799 135.491,86.799 135.86,86.43 136.1,86.071 136.22,85.711 
		136.1,85.223 135.86,84.864 135.491,84.624 	"/>
	<polygon clip-path="url(#SVGID_2_)" points="139.573,85.103 139.214,85.223 138.854,85.472 138.615,85.832 138.485,86.31 
		138.615,86.799 138.854,87.158 139.214,87.397 139.573,87.397 140.062,87.397 140.421,87.158 140.661,86.799 140.78,86.31 
		140.661,85.832 140.421,85.472 140.062,85.223 	"/>
	<polygon clip-path="url(#SVGID_2_)" points="144.383,86.799 143.894,86.679 143.415,86.799 143.056,87.039 142.806,87.397 
		142.806,87.856 142.806,88.226 143.056,88.584 143.535,88.944 143.894,88.944 144.383,88.824 144.742,88.584 144.982,88.226 
		145.102,87.856 144.982,87.397 144.742,87.039 	"/>
	<polygon clip-path="url(#SVGID_2_)" points="148.704,87.976 148.345,87.856 147.856,87.976 147.497,88.226 147.257,88.584 
		147.137,89.063 147.257,89.433 147.497,89.792 147.856,90.151 148.345,90.151 148.704,90.031 149.063,89.792 149.303,89.433 
		149.423,89.063 149.303,88.584 149.063,88.226 	"/>
	<polygon clip-path="url(#SVGID_2_)" points="152.905,89.792 152.417,89.792 152.057,89.912 151.698,90.151 151.339,90.52 
		151.339,90.859 151.339,91.338 151.578,91.697 152.057,91.946 152.417,92.066 152.905,91.946 153.265,91.697 153.504,91.338 
		153.624,90.859 153.504,90.52 153.265,90.151 	"/>
	<polygon clip-path="url(#SVGID_2_)" points="156.867,91.946 156.498,91.946 156.019,91.946 155.66,92.186 155.41,92.545 
		155.291,93.034 155.41,93.513 155.66,93.852 156.019,94.091 156.498,94.211 156.867,94.091 157.227,93.852 157.586,93.513 
		157.586,93.034 157.586,92.545 157.346,92.186 	"/>
	<polygon clip-path="url(#SVGID_2_)" points="160.819,94.211 160.34,94.211 159.981,94.211 159.612,94.45 159.252,94.819 
		159.252,95.298 159.252,95.787 159.492,96.146 159.981,96.386 160.34,96.505 160.819,96.386 161.188,96.146 161.428,95.787 
		161.548,95.298 161.428,94.819 161.188,94.45 	"/>
	<polygon clip-path="url(#SVGID_2_)" points="165.021,96.875 164.661,96.625 164.182,96.505 163.813,96.625 163.454,96.875 
		163.214,97.204 163.114,97.573 163.214,98.051 163.334,98.42 163.813,98.66 164.182,98.78 164.661,98.66 165.021,98.42 
		165.26,98.051 165.39,97.573 165.26,97.204 	"/>
	<polygon clip-path="url(#SVGID_2_)" points="168.623,99.498 168.134,99.259 167.775,99.139 167.316,99.259 166.957,99.498 
		166.717,99.867 166.597,100.326 166.717,100.805 166.957,101.044 167.316,101.414 167.775,101.414 168.134,101.414 
		168.503,101.174 168.863,100.805 168.863,100.326 168.863,99.867 	"/>
	<polygon clip-path="url(#SVGID_2_)" points="171.397,102.979 171.038,102.74 170.549,102.621 170.07,102.74 169.711,102.979 
		169.461,103.319 169.461,103.678 169.461,104.167 169.711,104.526 170.07,104.765 170.549,104.885 171.038,104.765 
		171.397,104.526 171.617,104.167 171.737,103.678 171.617,103.319 	"/>
	<polygon clip-path="url(#SVGID_2_)" points="174.511,105.972 174.032,105.733 173.663,105.613 173.184,105.733 172.825,105.972 
		172.585,106.341 172.455,106.8 172.585,107.159 172.825,107.519 173.184,107.768 173.663,107.888 174.032,107.768 174.391,107.519 
		174.631,107.159 174.75,106.8 174.631,106.341 	"/>
	<polygon clip-path="url(#SVGID_2_)" points="176.906,109.673 176.537,109.454 176.058,109.334 175.579,109.454 175.24,109.673 
		174.99,110.032 174.99,110.521 174.99,110.88 175.24,111.239 175.579,111.489 176.058,111.608 176.537,111.489 176.906,111.239 
		177.146,110.88 177.265,110.521 177.146,110.032 	"/>
	<polygon clip-path="url(#SVGID_2_)" points="179.321,113.875 179.072,113.513 178.712,113.271 178.233,113.151 177.745,113.271 
		177.385,113.513 177.146,113.875 177.146,114.359 177.146,114.721 177.385,115.204 177.745,115.445 178.233,115.445 
		178.712,115.445 179.072,115.204 179.321,114.842 179.441,114.359 	"/>
	<polygon clip-path="url(#SVGID_2_)" points="179.78,118.924 179.68,118.441 179.441,118.079 179.072,117.837 178.593,117.717 
		178.233,117.837 177.864,118.079 177.625,118.441 177.505,118.924 177.625,119.262 177.864,119.625 178.233,119.867 
		178.593,119.987 179.072,119.867 179.441,119.625 179.68,119.262 	"/>
	<polygon clip-path="url(#SVGID_2_)" points="180.499,122.982 180.259,122.499 179.78,122.282 179.441,122.282 178.952,122.282 
		178.593,122.499 178.353,122.861 178.233,123.345 178.353,123.828 178.593,124.19 178.952,124.431 179.441,124.552 179.78,124.431 
		180.14,124.19 180.499,123.828 180.499,123.345 	"/>
	<polygon clip-path="url(#SVGID_2_)" points="182.065,127.186 181.706,126.824 181.347,126.581 180.978,126.46 180.499,126.581 
		180.14,126.824 179.9,127.186 179.78,127.668 179.9,128.031 180.14,128.393 180.499,128.732 180.978,128.732 181.347,128.732 
		181.706,128.393 181.946,128.031 182.065,127.668 	"/>
	<polygon clip-path="url(#SVGID_2_)" points="183.034,131.63 182.794,131.268 182.435,131.026 181.946,130.906 181.586,131.026 
		181.227,131.268 180.978,131.63 180.858,132.089 180.858,132.452 180.978,132.452 181.227,132.814 181.586,133.055 
		182.065,133.176 182.435,133.055 182.794,132.814 183.034,132.452 183.153,132.089 183.153,131.63 	"/>
	<polygon clip-path="url(#SVGID_2_)" points="184.341,136.051 184.101,135.567 183.762,135.326 183.273,135.326 182.794,135.326 
		182.435,135.567 182.185,135.929 182.065,136.413 182.185,136.896 182.435,137.258 182.794,137.5 183.273,137.621 183.762,137.5 
		184.101,137.258 184.341,136.896 184.46,136.413 	"/>
	<polygon clip-path="url(#SVGID_2_)" points="186.027,140.254 185.788,139.892 185.429,139.65 184.939,139.529 184.581,139.65 
		184.221,139.892 183.972,140.254 183.852,140.616 183.852,141.099 184.221,141.437 184.581,141.679 184.939,141.8 185.429,141.679 
		185.788,141.437 186.027,141.099 186.147,140.616 	"/>
	<polygon clip-path="url(#SVGID_2_)" points="187.714,144.457 187.474,144.094 187.115,143.853 186.636,143.732 186.147,143.853 
		185.788,144.094 185.548,144.457 185.548,144.916 185.548,145.279 185.788,145.641 186.147,145.882 186.636,146.003 
		187.115,145.882 187.474,145.641 187.714,145.279 187.844,144.916 	"/>
	<polygon clip-path="url(#SVGID_2_)" points="190.708,147.911 190.468,147.452 190.109,147.211 189.63,147.211 189.141,147.211 
		188.782,147.452 188.542,147.791 188.542,148.273 188.542,148.757 188.782,149.119 189.141,149.361 189.63,149.481 
		190.109,149.361 190.468,149.119 190.708,148.757 190.837,148.273 	"/>
	<polygon clip-path="url(#SVGID_2_)" points="192.983,151.269 192.624,151.028 192.135,150.931 191.676,151.028 191.316,151.269 
		191.077,151.631 191.077,151.993 191.077,152.477 191.316,152.839 191.676,153.081 192.135,153.201 192.624,153.081 
		192.983,152.839 193.223,152.477 193.342,151.993 193.223,151.631 	"/>
	<polygon clip-path="url(#SVGID_2_)" points="196.576,154.047 196.216,153.684 195.757,153.684 195.278,153.684 194.909,153.926 
		194.669,154.264 194.55,154.748 194.669,155.23 194.909,155.592 195.278,155.834 195.757,155.956 196.216,155.834 196.576,155.592 
		196.825,155.23 196.825,154.748 196.825,154.264 	"/>
	<polygon clip-path="url(#SVGID_2_)" points="200.418,156.921 200.198,156.559 199.839,156.318 199.36,156.197 198.991,156.318 
		198.631,156.559 198.392,156.921 198.272,157.38 198.272,157.742 198.631,158.105 198.991,158.347 199.36,158.467 199.839,158.347 
		200.198,158.105 200.418,157.742 200.538,157.38 	"/>
	<polygon clip-path="url(#SVGID_2_)" points="203.432,158.83 202.953,158.83 202.474,158.83 202.104,159.071 201.865,159.433 
		201.865,159.917 201.865,160.4 202.104,160.738 202.593,160.979 202.953,161.1 203.432,160.979 203.801,160.738 204.041,160.4 
		204.16,159.917 204.041,159.433 203.801,159.071 	"/>
	<polygon clip-path="url(#SVGID_2_)" points="207.763,160.038 207.274,160.038 206.915,160.038 206.555,160.279 206.306,160.617 
		206.186,161.1 206.306,161.584 206.555,161.946 206.915,162.188 207.274,162.308 207.763,162.188 208.122,161.946 208.361,161.584 
		208.481,161.1 208.361,160.617 208.122,160.279 	"/>
	<polygon clip-path="url(#SVGID_2_)" points="212.084,161.584 211.595,161.462 211.116,161.584 210.756,161.825 210.507,162.188 
		210.507,162.67 210.507,163.153 210.756,163.516 211.235,163.734 211.595,163.734 212.084,163.734 212.443,163.516 
		212.683,163.153 212.782,162.67 212.683,162.188 212.443,161.825 	"/>
	<polygon clip-path="url(#SVGID_2_)" points="216.285,163.153 215.796,163.032 215.437,163.153 215.078,163.396 214.828,163.734 
		214.708,164.216 214.828,164.579 215.078,164.941 215.437,165.304 215.796,165.304 216.285,165.183 216.645,164.941 
		216.864,164.579 216.984,164.216 216.864,163.734 216.645,163.396 	"/>
	<polygon clip-path="url(#SVGID_2_)" points="220.237,163.975 219.878,164.096 219.519,164.337 219.279,164.699 219.149,165.183 
		219.279,165.666 219.519,166.028 219.878,166.27 220.237,166.27 220.726,166.27 221.065,166.028 221.305,165.666 221.424,165.183 
		221.305,164.699 221.065,164.337 220.726,164.096 	"/>
	<polygon clip-path="url(#SVGID_2_)" points="224.808,164.337 224.438,164.458 224.079,164.699 223.72,165.062 223.72,165.545 
		223.72,165.907 223.959,166.27 224.438,166.511 224.808,166.632 225.267,166.511 225.626,166.27 225.865,165.908 225.985,165.545 
		225.865,165.062 225.626,164.699 225.267,164.458 	"/>
	<polygon clip-path="url(#SVGID_2_)" points="229.338,164.579 228.879,164.699 228.52,164.941 228.28,165.304 228.28,165.787 
		228.28,166.149 228.52,166.511 228.879,166.752 229.338,166.849 229.827,166.752 230.187,166.511 230.426,166.149 230.546,165.787 
		230.426,165.304 230.187,164.941 229.827,164.699 	"/>
	<polygon clip-path="url(#SVGID_2_)" points="233.909,164.82 233.42,164.941 233.081,165.183 232.841,165.545 232.841,166.028 
		232.841,166.39 233.081,166.752 233.42,166.97 233.909,167.09 234.388,166.97 234.748,166.752 234.997,166.39 235.117,166.028 
		234.997,165.545 234.748,165.183 234.388,164.941 	"/>
	<polygon clip-path="url(#SVGID_2_)" points="238.469,165.062 237.991,165.183 237.622,165.425 237.412,165.787 237.412,166.149 
		237.412,166.632 237.622,166.97 237.991,167.212 238.469,167.333 238.949,167.212 239.318,166.97 239.557,166.632 239.677,166.149 
		239.557,165.787 239.318,165.425 238.949,165.183 	"/>
	<polygon clip-path="url(#SVGID_2_)" points="243.03,165.183 242.551,165.304 242.192,165.545 241.942,165.908 241.942,166.27 
		241.942,166.752 242.192,167.09 242.551,167.333 243.03,167.454 243.519,167.333 243.878,167.09 244.118,166.752 244.238,166.27 
		244.118,165.908 243.878,165.545 243.519,165.304 	"/>
	<polygon clip-path="url(#SVGID_2_)" points="247.59,165.304 247.112,165.304 246.752,165.545 246.513,165.908 246.513,166.39 
		246.513,166.849 246.752,167.212 247.112,167.454 247.59,167.574 248.08,167.454 248.439,167.212 248.678,166.849 248.798,166.39 
		248.678,165.908 248.439,165.545 248.08,165.304 	"/>
	<polygon clip-path="url(#SVGID_2_)" points="252.162,165.304 251.672,165.425 251.313,165.666 251.074,166.028 251.074,166.511 
		251.074,166.849 251.313,167.212 251.672,167.454 252.162,167.574 252.64,167.454 253,167.212 253.25,166.849 253.369,166.511 
		253.25,166.028 253,165.666 252.64,165.425 	"/>
	<polygon clip-path="url(#SVGID_2_)" points="256.722,165.425 256.243,165.545 255.874,165.787 255.634,166.149 255.634,166.511 
		255.634,166.97 255.874,167.333 256.243,167.574 256.722,167.695 257.201,167.574 257.57,167.333 257.81,166.97 257.929,166.511 
		257.81,166.149 257.57,165.787 257.201,165.545 	"/>
	<polygon clip-path="url(#SVGID_2_)" points="261.283,165.425 260.803,165.545 260.444,165.787 260.195,166.149 260.195,166.632 
		260.195,167.09 260.444,167.454 260.803,167.695 261.283,167.695 261.772,167.695 262.131,167.454 262.35,167.09 262.47,166.632 
		262.35,166.149 262.131,165.787 261.772,165.545 	"/>
	<polygon clip-path="url(#SVGID_2_)" points="172.216,107.888 172.216,108.367 172.455,108.726 172.825,108.975 173.304,108.975 
		173.792,108.975 174.152,108.726 174.391,108.367 174.511,107.888 174.391,107.399 174.152,107.04 173.792,106.8 173.304,106.681 
		172.825,106.8 172.455,107.04 172.216,107.399 	"/>
	<polygon clip-path="url(#SVGID_2_)" points="172.216,103.319 172.216,103.797 172.455,104.167 172.825,104.406 173.304,104.526 
		173.792,104.406 174.152,104.167 174.391,103.797 174.511,103.319 174.391,102.86 174.152,102.5 173.792,102.261 173.304,102.131 
		172.825,102.261 172.455,102.5 172.216,102.86 	"/>
	<polygon clip-path="url(#SVGID_2_)" points="172.096,98.78 172.216,99.259 172.455,99.627 172.825,99.867 173.304,99.987 
		173.663,99.867 174.032,99.627 174.271,99.259 174.391,98.78 174.271,98.291 174.032,97.932 173.663,97.692 173.304,97.573 
		172.825,97.692 172.455,97.932 172.216,98.291 	"/>
	<polygon clip-path="url(#SVGID_2_)" points="171.976,94.211 172.096,94.7 172.335,95.059 172.705,95.298 173.184,95.418 
		173.543,95.298 173.912,95.059 174.152,94.7 174.271,94.211 174.152,93.752 173.912,93.393 173.543,93.153 173.184,93.034 
		172.705,93.153 172.335,93.393 172.096,93.752 	"/>
	<polygon clip-path="url(#SVGID_2_)" points="171.856,89.672 171.976,90.151 172.216,90.52 172.585,90.729 173.064,90.859 
		173.423,90.729 173.792,90.52 174.032,90.151 174.152,89.672 174.032,89.193 173.792,88.824 173.423,88.584 173.064,88.584 
		172.585,88.584 172.216,88.824 171.976,89.193 	"/>
	<polygon clip-path="url(#SVGID_2_)" points="171.737,85.103 171.856,85.592 172.096,85.951 172.455,86.19 172.944,86.31 
		173.304,86.19 173.663,85.951 173.912,85.592 174.032,85.103 173.912,84.624 173.663,84.265 173.304,84.045 172.944,84.045 
		172.455,84.045 172.096,84.265 171.856,84.624 	"/>
	<polygon clip-path="url(#SVGID_2_)" points="171.737,80.564 171.856,81.043 172.096,81.382 172.455,81.631 172.944,81.751 
		173.423,81.631 173.792,81.382 174.032,81.043 174.032,80.564 174.032,80.085 173.792,79.716 173.423,79.477 172.944,79.477 
		172.455,79.477 172.096,79.716 171.856,80.085 	"/>
	<polygon clip-path="url(#SVGID_2_)" points="171.976,75.995 172.096,76.484 172.335,76.843 172.705,77.083 173.184,77.202 
		173.543,77.083 173.912,76.843 174.271,76.484 174.271,75.995 174.271,75.516 174.032,75.157 173.543,74.908 173.184,74.908 
		172.705,74.908 172.335,75.157 172.096,75.516 	"/>
	<polygon clip-path="url(#SVGID_2_)" points="172.455,71.456 172.585,71.915 172.825,72.274 173.184,72.524 173.663,72.644 
		174.032,72.524 174.391,72.274 174.631,71.915 174.75,71.456 174.631,71.097 174.391,70.728 174.032,70.489 173.663,70.369 
		173.184,70.489 172.825,70.728 172.585,71.097 	"/>
	<polygon clip-path="url(#SVGID_2_)" points="173.423,66.528 173.304,67.017 173.423,67.496 173.663,67.855 174.032,68.104 
		174.511,68.104 174.87,68.104 175.24,67.855 175.579,67.376 175.579,67.017 175.479,66.528 175.24,66.169 174.87,65.93 
		174.511,65.81 174.032,65.93 173.663,66.169 	"/>
	<polygon clip-path="url(#SVGID_2_)" points="174.511,62.208 174.391,62.568 174.511,63.047 174.75,63.416 175.12,63.655 
		175.579,63.775 175.938,63.655 176.297,63.416 176.657,63.047 176.657,62.568 176.537,62.089 176.297,61.75 175.938,61.5 
		175.579,61.5 175.12,61.5 174.75,61.75 	"/>
	<polygon clip-path="url(#SVGID_2_)" points="174.631,58.029 174.631,58.508 174.87,58.847 175.24,59.086 175.699,59.206 
		176.178,59.086 176.537,58.847 176.786,58.508 176.906,58.029 176.786,57.66 176.537,57.301 176.178,56.941 175.699,56.941 
		175.24,56.941 174.87,57.301 174.631,57.66 	"/>
	<polygon clip-path="url(#SVGID_2_)" points="174.631,53.46 174.75,53.949 174.99,54.308 175.359,54.547 175.699,54.667 
		176.178,54.547 176.537,54.308 176.786,53.949 176.906,53.46 176.786,53.101 176.537,52.742 176.178,52.403 175.699,52.403 
		175.359,52.403 174.99,52.742 174.75,53.101 	"/>
	<polygon clip-path="url(#SVGID_2_)" points="174.631,48.921 174.75,49.38 174.99,49.739 175.359,49.979 175.818,50.108 
		176.178,49.979 176.537,49.739 176.786,49.38 176.906,48.921 176.786,48.562 176.537,48.193 176.178,47.833 175.818,47.833 
		175.359,47.833 174.99,48.193 174.75,48.562 	"/>
	<polygon clip-path="url(#SVGID_2_)" points="174.631,44.352 174.75,44.841 174.99,45.2 175.359,45.439 175.818,45.559 
		176.178,45.439 176.537,45.2 176.786,44.841 176.906,44.352 176.786,43.993 176.537,43.634 176.178,43.265 175.818,43.265 
		175.359,43.265 174.99,43.634 174.75,43.993 	"/>
	<polygon clip-path="url(#SVGID_2_)" points="174.631,39.793 174.75,40.272 174.99,40.631 175.359,40.88 175.818,41 176.297,40.88 
		176.657,40.631 176.906,40.272 176.906,39.793 176.906,39.454 176.657,39.085 176.297,38.726 175.818,38.726 175.359,38.726 
		174.99,39.085 174.75,39.454 	"/>
	<polygon clip-path="url(#SVGID_2_)" points="174.75,35.245 174.87,35.733 175.12,36.092 175.479,36.332 175.818,36.452 
		176.297,36.332 176.657,36.092 176.906,35.733 177.026,35.245 176.906,34.885 176.657,34.526 176.297,34.157 175.818,34.157 
		175.479,34.157 175.12,34.526 174.87,34.885 	"/>
	<polygon clip-path="url(#SVGID_2_)" points="174.75,30.686 174.87,31.165 175.12,31.523 175.479,31.773 175.938,31.893 
		176.297,31.773 176.657,31.523 177.026,31.165 177.026,30.686 177.026,30.316 176.786,29.977 176.297,29.618 175.938,29.618 
		175.479,29.618 175.12,29.977 174.87,30.316 	"/>
	<polygon clip-path="url(#SVGID_2_)" points="174.87,26.137 174.99,26.625 175.24,26.984 175.579,27.204 176.058,27.324 
		176.417,27.204 176.786,26.984 177.026,26.625 177.146,26.137 177.026,25.777 176.786,25.418 176.417,25.049 176.058,25.049 
		175.579,25.049 175.24,25.418 174.99,25.777 	"/>
	<g clip-path="url(#SVGID_2_)">
		<defs>
			<rect id="SVGID_7_" x="190.468" y="96.966" width="54.855" height="17.513"/>
		</defs>
		<clipPath id="SVGID_8_">
			<use xlink:href="#SVGID_7_"  overflow="visible"/>
		</clipPath>
		<g clip-path="url(#SVGID_8_)">
			<path d="M190.586,107.517v-1.435l4.139-5.11h-3.671v-1.333h5.768v1.236l-4.316,5.314h4.483v1.327H190.586z"/>
			<path d="M197.634,104.583c0-0.501,0.124-0.987,0.371-1.456c0.248-0.469,0.598-0.828,1.051-1.075
				c0.453-0.248,0.959-0.371,1.519-0.371c0.864,0,1.571,0.28,2.124,0.841c0.552,0.561,0.828,1.269,0.828,2.125
				c0,0.863-0.279,1.579-0.836,2.147s-1.259,0.852-2.104,0.852c-0.523,0-1.022-0.118-1.497-0.354
				c-0.475-0.236-0.836-0.583-1.083-1.04C197.757,105.795,197.634,105.239,197.634,104.583z M199.182,104.664
				c0,0.566,0.135,1,0.403,1.3c0.269,0.301,0.6,0.452,0.995,0.452c0.394,0,0.725-0.15,0.992-0.452c0.267-0.301,0.4-0.738,0.4-1.311
				c0-0.559-0.133-0.989-0.4-1.29s-0.598-0.451-0.992-0.451c-0.395,0-0.726,0.15-0.995,0.451
				C199.316,103.664,199.182,104.098,199.182,104.664z"/>
			<path d="M209.9,107.517h-1.51v-2.913c0-0.616-0.032-1.015-0.097-1.195c-0.064-0.181-0.169-0.322-0.314-0.422
				c-0.146-0.101-0.32-0.151-0.524-0.151c-0.262,0-0.496,0.072-0.704,0.215c-0.208,0.143-0.351,0.333-0.427,0.569
				c-0.077,0.236-0.116,0.674-0.116,1.311v2.585h-1.511v-5.707h1.403v0.838c0.498-0.645,1.125-0.967,1.881-0.967
				c0.333,0,0.638,0.06,0.914,0.18c0.276,0.12,0.484,0.273,0.626,0.459c0.142,0.187,0.24,0.397,0.296,0.634
				c0.055,0.236,0.083,0.575,0.083,1.016V107.517z"/>
			<path d="M214.706,105.701l1.505,0.252c-0.194,0.552-0.499,0.972-0.917,1.26c-0.417,0.289-0.94,0.433-1.567,0.433
				c-0.993,0-1.727-0.324-2.204-0.973c-0.376-0.52-0.564-1.175-0.564-1.967c0-0.946,0.247-1.686,0.742-2.222s1.12-0.804,1.876-0.804
				c0.85,0,1.52,0.28,2.011,0.841c0.491,0.561,0.726,1.419,0.704,2.577h-3.785c0.011,0.448,0.133,0.796,0.366,1.045
				s0.523,0.374,0.871,0.374c0.237,0,0.436-0.064,0.597-0.193C214.501,106.195,214.623,105.987,214.706,105.701z M214.792,104.175
				c-0.011-0.437-0.124-0.77-0.338-0.997c-0.215-0.228-0.477-0.341-0.785-0.341c-0.33,0-0.602,0.12-0.817,0.36
				c-0.215,0.24-0.321,0.566-0.317,0.978H214.792z"/>
			<path d="M217.351,105.416v-1.51h2.967v1.51H217.351z"/>
			<path d="M225.99,106.115v1.402h-5.295c0.058-0.53,0.229-1.033,0.516-1.507s0.853-1.104,1.699-1.889
				c0.681-0.634,1.099-1.064,1.253-1.29c0.208-0.312,0.312-0.62,0.312-0.924c0-0.337-0.09-0.596-0.271-0.777
				c-0.181-0.181-0.431-0.271-0.75-0.271c-0.315,0-0.566,0.095-0.752,0.285s-0.294,0.505-0.323,0.946l-1.505-0.15
				c0.089-0.831,0.371-1.428,0.844-1.79s1.064-0.543,1.774-0.543c0.778,0,1.389,0.21,1.833,0.629
				c0.444,0.419,0.667,0.94,0.667,1.563c0,0.355-0.064,0.692-0.191,1.013c-0.127,0.321-0.329,0.656-0.605,1.007
				c-0.183,0.233-0.512,0.568-0.989,1.005c-0.477,0.438-0.779,0.728-0.906,0.871c-0.127,0.144-0.23,0.283-0.31,0.419H225.99z"/>
		</g>
	</g>
	<g clip-path="url(#SVGID_2_)">
		<defs>
			<rect id="SVGID_9_" x="145.471" y="185.45" width="42.252" height="17.489"/>
		</defs>
		<clipPath id="SVGID_10_">
			<use xlink:href="#SVGID_9_"  overflow="visible"/>
		</clipPath>
		<g clip-path="url(#SVGID_10_)">
			<path d="M145.588,195.98v-1.435l4.139-5.11h-3.671v-1.333h5.768v1.236l-4.316,5.314h4.483v1.327H145.588z"/>
			<path d="M152.636,193.046c0-0.501,0.124-0.987,0.371-1.456c0.248-0.469,0.598-0.828,1.051-1.075
				c0.453-0.248,0.959-0.371,1.519-0.371c0.864,0,1.571,0.28,2.124,0.841c0.552,0.561,0.828,1.269,0.828,2.125
				c0,0.863-0.279,1.579-0.836,2.147s-1.259,0.852-2.104,0.852c-0.523,0-1.022-0.118-1.497-0.354
				c-0.475-0.236-0.836-0.583-1.083-1.04C152.76,194.258,152.636,193.702,152.636,193.046z M154.184,193.126
				c0,0.566,0.135,1,0.403,1.3c0.269,0.301,0.6,0.452,0.995,0.452c0.394,0,0.725-0.15,0.992-0.452c0.267-0.301,0.4-0.738,0.4-1.311
				c0-0.559-0.133-0.989-0.4-1.29s-0.598-0.451-0.992-0.451c-0.395,0-0.726,0.15-0.995,0.451
				C154.319,192.127,154.184,192.561,154.184,193.126z"/>
			<path d="M164.903,195.98h-1.51v-2.913c0-0.616-0.032-1.015-0.097-1.195c-0.064-0.181-0.169-0.322-0.314-0.422
				c-0.146-0.101-0.32-0.151-0.524-0.151c-0.262,0-0.496,0.072-0.704,0.215c-0.208,0.143-0.351,0.333-0.427,0.569
				c-0.077,0.236-0.116,0.674-0.116,1.311v2.585h-1.511v-5.707h1.403v0.838c0.498-0.645,1.125-0.967,1.881-0.967
				c0.333,0,0.638,0.06,0.914,0.18c0.276,0.12,0.484,0.273,0.626,0.459c0.142,0.187,0.24,0.397,0.296,0.634
				c0.055,0.236,0.083,0.575,0.083,1.016V195.98z"/>
			<path d="M169.708,194.164l1.505,0.252c-0.194,0.552-0.499,0.972-0.917,1.26c-0.417,0.289-0.94,0.433-1.567,0.433
				c-0.993,0-1.727-0.324-2.204-0.973c-0.376-0.52-0.564-1.175-0.564-1.967c0-0.946,0.247-1.686,0.742-2.222s1.12-0.804,1.876-0.804
				c0.85,0,1.52,0.28,2.011,0.841c0.491,0.561,0.726,1.419,0.704,2.577h-3.785c0.011,0.448,0.133,0.796,0.366,1.045
				s0.523,0.374,0.871,0.374c0.237,0,0.436-0.064,0.597-0.193C169.504,194.658,169.625,194.45,169.708,194.164z M169.794,192.638
				c-0.011-0.437-0.124-0.77-0.338-0.997c-0.215-0.228-0.477-0.341-0.785-0.341c-0.33,0-0.602,0.12-0.817,0.36
				c-0.215,0.24-0.321,0.566-0.317,0.978H169.794z"/>
			<path d="M172.353,193.879v-1.51h2.967v1.51H172.353z"/>
			<path d="M175.837,193.89l1.462-0.177c0.047,0.373,0.172,0.657,0.376,0.854c0.204,0.197,0.452,0.295,0.742,0.295
				c0.312,0,0.574-0.118,0.788-0.354c0.213-0.237,0.32-0.556,0.32-0.957c0-0.38-0.102-0.681-0.306-0.903
				c-0.205-0.222-0.454-0.333-0.748-0.333c-0.193,0-0.424,0.038-0.693,0.113l0.167-1.231c0.409,0.011,0.721-0.078,0.936-0.266
				c0.215-0.188,0.323-0.438,0.323-0.75c0-0.265-0.079-0.476-0.237-0.634s-0.367-0.236-0.629-0.236
				c-0.258,0-0.479,0.089-0.661,0.269s-0.294,0.44-0.333,0.785l-1.392-0.237c0.097-0.476,0.243-0.857,0.438-1.142
				c0.195-0.285,0.468-0.509,0.817-0.672c0.349-0.163,0.741-0.245,1.174-0.245c0.742,0,1.337,0.237,1.785,0.709
				c0.369,0.387,0.554,0.824,0.554,1.311c0,0.691-0.378,1.243-1.134,1.655c0.452,0.097,0.813,0.313,1.083,0.65
				c0.271,0.336,0.406,0.743,0.406,1.22c0,0.691-0.253,1.281-0.758,1.768c-0.505,0.487-1.134,0.731-1.887,0.731
				c-0.713,0-1.304-0.205-1.774-0.615C176.185,195.089,175.913,194.552,175.837,193.89z"/>
		</g>
	</g>
	
		<rect x="169.222" y="36.097" clip-path="url(#SVGID_2_)" fill-rule="evenodd" clip-rule="evenodd" fill="#FFFFFF" width="12.603" height="5.991"/>
	<rect x="168.503" y="35.974" clip-path="url(#SVGID_2_)" width="1.449" height="6.353"/>
	<rect x="180.738" y="35.974" clip-path="url(#SVGID_2_)" width="1.449" height="6.353"/>
	<polygon clip-path="url(#SVGID_2_)" fill-rule="evenodd" clip-rule="evenodd" points="179.68,44.352 177.745,44.232 
		177.864,32.251 174.032,32.132 173.912,44.232 172.096,44.232 175.818,48.313 	"/>
	
		<polygon clip-path="url(#SVGID_2_)" fill="none" stroke="#000000" stroke-width="0.7242" stroke-linejoin="round" stroke-miterlimit="10" points="
		179.68,44.352 177.745,44.232 177.864,32.251 174.032,32.132 173.912,44.232 172.096,44.232 175.818,48.313 	"/>
	<polygon clip-path="url(#SVGID_2_)" fill-rule="evenodd" clip-rule="evenodd" points="72.842,43.993 70.935,43.993 71.056,31.893 
		67.217,31.893 67.096,43.993 65.285,43.993 69.003,47.954 	"/>
	
		<polygon clip-path="url(#SVGID_2_)" fill="none" stroke="#000000" stroke-width="0.7242" stroke-linejoin="round" stroke-miterlimit="10" points="
		72.842,43.993 70.935,43.993 71.056,31.893 67.217,31.893 67.096,43.993 65.285,43.993 69.003,47.954 	"/>
	<polygon clip-path="url(#SVGID_2_)" fill-rule="evenodd" clip-rule="evenodd" points="133.465,81.143 133.465,83.078 
		120.981,82.958 120.861,86.679 133.465,86.918 133.465,88.704 137.667,84.983 	"/>
	
		<polygon clip-path="url(#SVGID_2_)" fill="none" stroke="#000000" stroke-width="0.7242" stroke-linejoin="round" stroke-miterlimit="10" points="
		133.465,81.143 133.465,83.078 120.981,82.958 120.861,86.679 133.465,86.918 133.465,88.704 137.667,84.983 	"/>
	<polygon clip-path="url(#SVGID_2_)" fill-rule="evenodd" clip-rule="evenodd" points="237.861,162.912 237.861,164.82 
		225.746,164.82 225.626,168.54 237.741,168.661 237.741,170.569 241.823,166.752 	"/>
	
		<polygon clip-path="url(#SVGID_2_)" fill="none" stroke="#000000" stroke-width="0.7242" stroke-linejoin="round" stroke-miterlimit="10" points="
		237.861,162.912 237.861,164.82 225.746,164.82 225.626,168.54 237.741,168.661 237.741,170.569 241.823,166.752 	"/>
	<polygon clip-path="url(#SVGID_2_)" fill-rule="evenodd" clip-rule="evenodd" points="183.852,130.664 181.946,130.543 
		182.065,118.562 178.233,118.441 178.114,130.543 176.297,130.543 180.02,134.625 	"/>
	
		<polygon clip-path="url(#SVGID_2_)" fill="none" stroke="#000000" stroke-width="0.7242" stroke-linejoin="round" stroke-miterlimit="10" points="
		183.852,130.664 181.946,130.543 182.065,118.562 178.233,118.441 178.114,130.543 176.297,130.543 180.02,134.625 	"/>
	<g clip-path="url(#SVGID_2_)">
		<defs>
			<rect id="SVGID_11_" x="7.195" y="22.781" width="60.746" height="16.185"/>
		</defs>
		<clipPath id="SVGID_12_">
			<use xlink:href="#SVGID_11_"  overflow="visible"/>
		</clipPath>
		<g clip-path="url(#SVGID_12_)">
			<path d="M9.42,33.099l-2.091-7.878h1.07l1.199,5.164c0.129,0.541,0.24,1.079,0.333,1.612c0.201-0.842,0.319-1.327,0.354-1.456
				l1.5-5.32h1.258l1.129,3.987c0.283,0.989,0.487,1.918,0.613,2.789c0.101-0.498,0.231-1.069,0.393-1.714l1.236-5.062h1.048
				l-2.161,7.878h-1.005l-1.661-6.002c-0.14-0.501-0.222-0.81-0.247-0.924c-0.083,0.362-0.16,0.67-0.231,0.924l-1.672,6.002H9.42z"
				/>
			<path d="M18.581,26.333v-1.112h0.968v1.112H18.581z M18.581,33.099v-5.707h0.968v5.707H18.581z"/>
			<path d="M20.845,33.099v-5.707h0.871v0.812c0.419-0.627,1.025-0.94,1.817-0.94c0.344,0,0.66,0.062,0.949,0.186
				s0.504,0.286,0.648,0.486c0.143,0.201,0.244,0.439,0.301,0.715c0.036,0.179,0.054,0.493,0.054,0.94v3.509h-0.967v-3.471
				c0-0.394-0.038-0.689-0.113-0.884c-0.075-0.195-0.208-0.351-0.4-0.467c-0.191-0.117-0.417-0.175-0.674-0.175
				c-0.413,0-0.768,0.131-1.067,0.393c-0.299,0.261-0.449,0.757-0.449,1.488v3.117H20.845z"/>
			<path d="M30.672,33.099v-0.72c-0.362,0.566-0.895,0.849-1.597,0.849c-0.455,0-0.874-0.125-1.255-0.376
				c-0.381-0.251-0.677-0.601-0.887-1.051c-0.21-0.449-0.314-0.966-0.314-1.55c0-0.569,0.095-1.086,0.285-1.55
				s0.475-0.819,0.855-1.066c0.38-0.248,0.804-0.371,1.274-0.371c0.344,0,0.65,0.073,0.919,0.218
				c0.269,0.145,0.488,0.334,0.656,0.567v-2.827h0.962v7.878H30.672z M27.613,30.251c0,0.731,0.154,1.277,0.462,1.639
				s0.672,0.542,1.091,0.542c0.423,0,0.782-0.173,1.078-0.519c0.296-0.346,0.444-0.873,0.444-1.583c0-0.781-0.151-1.354-0.452-1.719
				c-0.301-0.366-0.672-0.548-1.113-0.548c-0.43,0-0.79,0.176-1.078,0.527C27.757,28.942,27.613,29.495,27.613,30.251z"/>
			<path d="M32.731,30.246c0-1.057,0.293-1.839,0.881-2.348c0.491-0.423,1.089-0.634,1.795-0.634c0.785,0,1.426,0.257,1.925,0.771
				c0.498,0.514,0.747,1.224,0.747,2.13c0,0.734-0.11,1.312-0.331,1.733c-0.221,0.421-0.541,0.748-0.962,0.981
				c-0.421,0.233-0.881,0.349-1.379,0.349c-0.799,0-1.445-0.256-1.938-0.769C32.977,31.947,32.731,31.209,32.731,30.246z
				 M33.725,30.246c0,0.731,0.16,1.278,0.479,1.642c0.319,0.364,0.72,0.545,1.204,0.545c0.48,0,0.88-0.183,1.199-0.548
				c0.319-0.366,0.479-0.922,0.479-1.671c0-0.706-0.16-1.24-0.481-1.604c-0.321-0.363-0.72-0.545-1.196-0.545
				c-0.484,0-0.885,0.181-1.204,0.543S33.725,29.515,33.725,30.246z"/>
			<path d="M40.223,33.099l-1.747-5.707h1l0.908,3.294l0.339,1.225c0.014-0.061,0.113-0.453,0.295-1.177l0.909-3.343h0.995
				l0.854,3.311l0.285,1.091l0.328-1.102l0.979-3.3h0.941l-1.785,5.707h-1.005l-0.909-3.417l-0.22-0.973l-1.156,4.39H40.223z"/>
			<path d="M46.59,30.735v-0.973h2.973v0.973H46.59z"/>
			<path d="M54.042,33.099h-0.968v-6.164c-0.233,0.222-0.538,0.444-0.917,0.667c-0.378,0.222-0.717,0.389-1.019,0.5v-0.935
				c0.541-0.254,1.014-0.563,1.419-0.924c0.405-0.362,0.691-0.713,0.86-1.053h0.624V33.099z"/>
		</g>
	</g>
	<g clip-path="url(#SVGID_2_)">
		<defs>
			<rect id="SVGID_13_" x="237.042" y="147.453" width="55.917" height="16.185"/>
		</defs>
		<clipPath id="SVGID_14_">
			<use xlink:href="#SVGID_13_"  overflow="visible"/>
		</clipPath>
		<g clip-path="url(#SVGID_14_)">
			<path d="M239.053,156.679l-1.89-7.118h0.967l1.083,4.666c0.117,0.489,0.217,0.974,0.302,1.457
				c0.181-0.761,0.288-1.199,0.32-1.316l1.354-4.807h1.137l1.021,3.603c0.256,0.894,0.44,1.733,0.554,2.52
				c0.091-0.45,0.209-0.966,0.354-1.549l1.117-4.574h0.947l-1.953,7.118h-0.908l-1.501-5.423c-0.126-0.453-0.2-0.731-0.223-0.835
				c-0.075,0.327-0.145,0.605-0.209,0.835l-1.511,5.423H239.053z"/>
			<path d="M247.419,150.566v-1.005h0.875v1.005H247.419z M247.419,156.679v-5.156h0.875v5.156H247.419z"/>
			<path d="M249.565,156.679v-5.156h0.787v0.733c0.379-0.566,0.926-0.85,1.642-0.85c0.312,0,0.597,0.056,0.857,0.167
				c0.261,0.112,0.456,0.258,0.585,0.439c0.13,0.182,0.221,0.396,0.272,0.646c0.032,0.162,0.049,0.445,0.049,0.85v3.17h-0.875
				v-3.137c0-0.356-0.033-0.622-0.102-0.798s-0.188-0.317-0.362-0.422c-0.173-0.105-0.376-0.158-0.609-0.158
				c-0.372,0-0.693,0.118-0.964,0.354c-0.271,0.236-0.405,0.685-0.405,1.345v2.816H249.565z"/>
			<path d="M258.444,156.679v-0.65c-0.327,0.511-0.808,0.767-1.442,0.767c-0.411,0-0.789-0.113-1.134-0.34s-0.612-0.543-0.802-0.949
				s-0.284-0.873-0.284-1.401c0-0.515,0.086-0.981,0.258-1.401c0.171-0.419,0.429-0.74,0.772-0.964
				c0.343-0.223,0.727-0.335,1.15-0.335c0.312,0,0.588,0.066,0.831,0.197c0.242,0.131,0.44,0.302,0.593,0.512v-2.554h0.869v7.118
				H258.444z M255.68,154.106c0,0.66,0.14,1.154,0.418,1.481c0.278,0.327,0.607,0.49,0.986,0.49c0.382,0,0.706-0.156,0.974-0.469
				c0.267-0.312,0.4-0.789,0.4-1.43c0-0.706-0.136-1.224-0.408-1.554c-0.271-0.33-0.606-0.495-1.005-0.495
				c-0.389,0-0.713,0.159-0.974,0.476C255.811,152.923,255.68,153.423,255.68,154.106z"/>
			<path d="M260.304,154.101c0-0.955,0.266-1.662,0.797-2.122c0.443-0.382,0.984-0.573,1.622-0.573c0.709,0,1.289,0.232,1.739,0.697
				c0.449,0.465,0.675,1.106,0.675,1.925c0,0.664-0.1,1.186-0.299,1.566s-0.489,0.675-0.869,0.886
				c-0.381,0.21-0.796,0.316-1.246,0.316c-0.722,0-1.306-0.231-1.751-0.694S260.304,154.972,260.304,154.101z M261.203,154.101
				c0,0.66,0.145,1.155,0.433,1.483s0.65,0.493,1.088,0.493c0.434,0,0.795-0.165,1.083-0.495s0.433-0.833,0.433-1.51
				c0-0.638-0.146-1.121-0.435-1.449c-0.29-0.329-0.65-0.493-1.081-0.493c-0.438,0-0.8,0.164-1.088,0.49
				C261.347,152.947,261.203,153.441,261.203,154.101z"/>
			<path d="M267.114,156.679l-1.578-5.156h0.903l0.82,2.976l0.307,1.107c0.013-0.055,0.102-0.409,0.267-1.063l0.821-3.02h0.898
				l0.772,2.991l0.257,0.986l0.297-0.996l0.884-2.981h0.85L271,156.679h-0.908l-0.82-3.088l-0.199-0.879l-1.045,3.967H267.114z"/>
			<path d="M272.896,154.543v-0.879h2.687v0.879H272.896z"/>
			<path d="M276.331,154.8l0.874-0.117c0.101,0.495,0.271,0.852,0.513,1.071c0.241,0.218,0.535,0.328,0.881,0.328
				c0.411,0,0.759-0.143,1.042-0.427s0.425-0.638,0.425-1.059c0-0.401-0.131-0.732-0.393-0.993
				c-0.263-0.261-0.597-0.391-1.001-0.391c-0.165,0-0.371,0.033-0.617,0.097l0.098-0.767c0.059,0.006,0.105,0.01,0.141,0.01
				c0.372,0,0.708-0.097,1.006-0.292c0.298-0.194,0.446-0.493,0.446-0.898c0-0.32-0.108-0.586-0.325-0.796s-0.497-0.315-0.84-0.315
				c-0.341,0-0.624,0.107-0.851,0.32c-0.227,0.214-0.372,0.534-0.437,0.961l-0.875-0.155c0.107-0.586,0.35-1.04,0.729-1.362
				c0.379-0.322,0.851-0.483,1.414-0.483c0.389,0,0.746,0.083,1.073,0.25c0.327,0.167,0.577,0.394,0.75,0.682
				c0.174,0.288,0.26,0.594,0.26,0.918c0,0.307-0.082,0.587-0.247,0.84s-0.41,0.453-0.733,0.602c0.421,0.097,0.748,0.298,0.98,0.604
				c0.233,0.306,0.35,0.688,0.35,1.148c0,0.622-0.227,1.148-0.68,1.581s-1.026,0.648-1.72,0.648c-0.625,0-1.144-0.187-1.557-0.559
				C276.625,155.875,276.388,155.393,276.331,154.8z"/>
		</g>
	</g>
	<g clip-path="url(#SVGID_2_)">
		<defs>
			<rect id="SVGID_15_" x="82.813" y="88.102" width="44.521" height="16.185"/>
		</defs>
		<clipPath id="SVGID_16_">
			<use xlink:href="#SVGID_15_"  overflow="visible"/>
		</clipPath>
		<g clip-path="url(#SVGID_16_)">
			<path d="M83.581,97.333v-7.118h2.453c0.554,0,0.976,0.034,1.268,0.102c0.408,0.094,0.756,0.264,1.044,0.51
				c0.375,0.317,0.656,0.723,0.843,1.216c0.186,0.494,0.279,1.058,0.279,1.692c0,0.541-0.063,1.02-0.189,1.437
				c-0.126,0.417-0.289,0.763-0.486,1.037c-0.198,0.273-0.414,0.489-0.648,0.646c-0.235,0.157-0.518,0.276-0.85,0.356
				c-0.332,0.081-0.713,0.122-1.144,0.122H83.581z M84.522,96.493h1.521c0.469,0,0.838-0.044,1.105-0.131s0.48-0.21,0.639-0.369
				c0.224-0.224,0.397-0.524,0.522-0.901c0.125-0.377,0.187-0.834,0.187-1.372c0-0.745-0.122-1.316-0.367-1.716
				s-0.542-0.667-0.891-0.804c-0.252-0.097-0.659-0.146-1.219-0.146h-1.496V96.493z"/>
			<path d="M90.327,94.754c0-0.955,0.266-1.662,0.797-2.122c0.443-0.382,0.984-0.573,1.622-0.573c0.709,0,1.289,0.232,1.739,0.697
				c0.45,0.465,0.675,1.106,0.675,1.925c0,0.664-0.1,1.186-0.299,1.566s-0.489,0.675-0.869,0.886
				c-0.381,0.21-0.796,0.316-1.246,0.316c-0.722,0-1.306-0.231-1.751-0.694S90.327,95.625,90.327,94.754z M91.226,94.754
				c0,0.66,0.144,1.155,0.432,1.483s0.651,0.493,1.088,0.493c0.434,0,0.795-0.165,1.083-0.495c0.289-0.33,0.433-0.833,0.433-1.51
				c0-0.638-0.145-1.121-0.435-1.449c-0.29-0.329-0.65-0.493-1.081-0.493c-0.437,0-0.8,0.164-1.088,0.49
				C91.37,93.601,91.226,94.094,91.226,94.754z"/>
			<path d="M95.859,94.754c0-0.955,0.266-1.662,0.797-2.122c0.443-0.382,0.984-0.573,1.622-0.573c0.709,0,1.289,0.232,1.739,0.697
				c0.45,0.465,0.675,1.106,0.675,1.925c0,0.664-0.1,1.186-0.299,1.566s-0.489,0.675-0.869,0.886
				c-0.381,0.21-0.796,0.316-1.246,0.316c-0.722,0-1.306-0.231-1.751-0.694S95.859,95.625,95.859,94.754z M96.758,94.754
				c0,0.66,0.144,1.155,0.432,1.483s0.651,0.493,1.088,0.493c0.434,0,0.795-0.165,1.083-0.495c0.289-0.33,0.433-0.833,0.433-1.51
				c0-0.638-0.145-1.121-0.435-1.449c-0.29-0.329-0.65-0.493-1.081-0.493c-0.437,0-0.8,0.164-1.088,0.49
				C96.902,93.601,96.758,94.094,96.758,94.754z"/>
			<path d="M101.707,97.333v-5.156h0.787v0.782c0.201-0.366,0.386-0.607,0.556-0.724c0.17-0.116,0.357-0.175,0.561-0.175
				c0.295,0,0.594,0.094,0.899,0.282l-0.301,0.811c-0.214-0.126-0.428-0.189-0.641-0.189c-0.191,0-0.363,0.058-0.515,0.172
				c-0.152,0.115-0.261,0.274-0.325,0.478c-0.097,0.311-0.146,0.651-0.146,1.02v2.7H101.707z"/>
			<path d="M104.719,95.196v-0.879h2.686v0.879H104.719z"/>
			<path d="M111.442,97.333h-0.875v-5.569c-0.21,0.201-0.486,0.401-0.828,0.602c-0.341,0.201-0.648,0.351-0.92,0.452v-0.845
				c0.489-0.229,0.917-0.508,1.282-0.835c0.366-0.327,0.625-0.644,0.777-0.952h0.563V97.333z"/>
			<path d="M118.276,96.493v0.84h-4.707c-0.007-0.21,0.027-0.413,0.102-0.607c0.12-0.32,0.312-0.636,0.575-0.947
				c0.264-0.311,0.646-0.67,1.144-1.078c0.774-0.635,1.297-1.137,1.569-1.508s0.408-0.721,0.408-1.051
				c0-0.346-0.124-0.638-0.371-0.876c-0.248-0.238-0.571-0.357-0.969-0.357c-0.421,0-0.758,0.126-1.01,0.378
				s-0.38,0.602-0.384,1.049l-0.898-0.092c0.062-0.67,0.293-1.181,0.694-1.532c0.402-0.351,0.941-0.527,1.618-0.527
				c0.683,0,1.224,0.189,1.622,0.568c0.398,0.378,0.598,0.848,0.598,1.408c0,0.285-0.059,0.565-0.175,0.84
				c-0.117,0.275-0.31,0.565-0.581,0.869s-0.72,0.722-1.348,1.253c-0.525,0.44-0.862,0.739-1.01,0.896
				c-0.149,0.157-0.272,0.315-0.369,0.474H118.276z"/>
		</g>
	</g>
	<g clip-path="url(#SVGID_2_)">
		<defs>
			<rect id="SVGID_17_" x="136.818" y="129.456" width="43.918" height="16.185"/>
		</defs>
		<clipPath id="SVGID_18_">
			<use xlink:href="#SVGID_17_"  overflow="visible"/>
		</clipPath>
		<g clip-path="url(#SVGID_18_)">
			<path d="M137.586,138.683v-7.118h2.453c0.554,0,0.976,0.034,1.268,0.102c0.408,0.094,0.756,0.264,1.044,0.51
				c0.375,0.317,0.656,0.723,0.843,1.216c0.186,0.494,0.279,1.058,0.279,1.692c0,0.541-0.063,1.02-0.189,1.437
				c-0.126,0.417-0.289,0.763-0.486,1.037c-0.198,0.273-0.414,0.489-0.648,0.646c-0.235,0.157-0.518,0.276-0.85,0.356
				c-0.332,0.081-0.713,0.122-1.144,0.122H137.586z M138.528,137.843h1.521c0.469,0,0.838-0.044,1.105-0.131s0.48-0.21,0.639-0.369
				c0.224-0.224,0.397-0.524,0.522-0.901c0.125-0.377,0.187-0.834,0.187-1.372c0-0.745-0.122-1.316-0.367-1.716
				s-0.542-0.667-0.891-0.804c-0.252-0.097-0.659-0.146-1.219-0.146h-1.496V137.843z"/>
			<path d="M144.332,136.105c0-0.955,0.266-1.662,0.797-2.122c0.443-0.382,0.984-0.573,1.622-0.573c0.709,0,1.289,0.232,1.739,0.697
				c0.45,0.465,0.675,1.106,0.675,1.925c0,0.664-0.1,1.186-0.299,1.566s-0.489,0.675-0.869,0.886
				c-0.381,0.21-0.796,0.316-1.246,0.316c-0.722,0-1.306-0.231-1.751-0.694S144.332,136.976,144.332,136.105z M145.231,136.105
				c0,0.66,0.144,1.155,0.432,1.483s0.651,0.493,1.088,0.493c0.434,0,0.795-0.165,1.083-0.495c0.289-0.33,0.433-0.833,0.433-1.51
				c0-0.638-0.145-1.121-0.435-1.449c-0.29-0.329-0.65-0.493-1.081-0.493c-0.437,0-0.8,0.164-1.088,0.49
				C145.375,134.951,145.231,135.445,145.231,136.105z"/>
			<path d="M149.864,136.105c0-0.955,0.266-1.662,0.797-2.122c0.443-0.382,0.984-0.573,1.622-0.573c0.709,0,1.289,0.232,1.739,0.697
				c0.45,0.465,0.675,1.106,0.675,1.925c0,0.664-0.1,1.186-0.299,1.566s-0.489,0.675-0.869,0.886
				c-0.381,0.21-0.796,0.316-1.246,0.316c-0.722,0-1.306-0.231-1.751-0.694S149.864,136.976,149.864,136.105z M150.763,136.105
				c0,0.66,0.144,1.155,0.432,1.483s0.651,0.493,1.088,0.493c0.434,0,0.795-0.165,1.083-0.495c0.289-0.33,0.433-0.833,0.433-1.51
				c0-0.638-0.145-1.121-0.435-1.449c-0.29-0.329-0.65-0.493-1.081-0.493c-0.437,0-0.8,0.164-1.088,0.49
				C150.907,134.951,150.763,135.445,150.763,136.105z"/>
			<path d="M155.712,138.683v-5.156h0.787v0.782c0.201-0.366,0.386-0.607,0.556-0.724c0.17-0.116,0.357-0.175,0.561-0.175
				c0.295,0,0.594,0.094,0.899,0.282l-0.301,0.811c-0.214-0.126-0.428-0.189-0.641-0.189c-0.191,0-0.363,0.058-0.515,0.172
				c-0.152,0.115-0.261,0.274-0.325,0.478c-0.097,0.311-0.146,0.651-0.146,1.02v2.7H155.712z"/>
			<path d="M158.725,136.547v-0.879h2.686v0.879H158.725z"/>
			<path d="M166.749,137.843v0.84h-4.707c-0.007-0.21,0.027-0.413,0.102-0.607c0.12-0.32,0.312-0.636,0.575-0.947
				c0.264-0.311,0.646-0.67,1.144-1.078c0.774-0.635,1.297-1.137,1.569-1.508s0.408-0.721,0.408-1.051
				c0-0.346-0.124-0.638-0.371-0.876c-0.248-0.238-0.571-0.357-0.969-0.357c-0.421,0-0.758,0.126-1.01,0.378
				s-0.38,0.602-0.384,1.049l-0.898-0.092c0.062-0.67,0.293-1.181,0.694-1.532c0.402-0.351,0.941-0.527,1.618-0.527
				c0.683,0,1.224,0.189,1.622,0.568c0.398,0.378,0.598,0.848,0.598,1.408c0,0.285-0.059,0.565-0.175,0.84
				c-0.117,0.275-0.31,0.565-0.581,0.869s-0.72,0.722-1.348,1.253c-0.525,0.44-0.862,0.739-1.01,0.896
				c-0.149,0.157-0.272,0.315-0.369,0.474H166.749z"/>
			<path d="M167.691,136.804l0.875-0.117c0.1,0.495,0.271,0.852,0.512,1.071c0.241,0.218,0.535,0.328,0.882,0.328
				c0.411,0,0.758-0.143,1.042-0.427c0.283-0.285,0.425-0.638,0.425-1.059c0-0.401-0.131-0.732-0.394-0.993
				c-0.262-0.261-0.596-0.391-1-0.391c-0.165,0-0.371,0.033-0.617,0.097l0.097-0.767c0.058,0.006,0.105,0.01,0.141,0.01
				c0.373,0,0.708-0.097,1.005-0.292c0.298-0.194,0.447-0.493,0.447-0.898c0-0.32-0.108-0.586-0.325-0.796s-0.497-0.315-0.84-0.315
				c-0.34,0-0.624,0.107-0.85,0.32c-0.227,0.214-0.372,0.534-0.437,0.961l-0.874-0.155c0.106-0.586,0.35-1.04,0.729-1.362
				c0.378-0.322,0.85-0.483,1.413-0.483c0.389,0,0.747,0.083,1.074,0.25c0.327,0.167,0.577,0.394,0.75,0.682
				c0.173,0.288,0.26,0.594,0.26,0.918c0,0.307-0.083,0.587-0.248,0.84c-0.165,0.252-0.41,0.453-0.733,0.602
				c0.421,0.097,0.748,0.298,0.981,0.604c0.233,0.306,0.35,0.688,0.35,1.148c0,0.622-0.227,1.148-0.68,1.581
				c-0.453,0.432-1.026,0.648-1.719,0.648c-0.625,0-1.144-0.187-1.557-0.559C167.985,137.879,167.75,137.396,167.691,136.804z"/>
		</g>
	</g>
	<path clip-path="url(#SVGID_2_)" fill-rule="evenodd" clip-rule="evenodd" d="M112.1,9.716c0,2.993,2.395,5.387,5.289,5.387
		c2.874,0,5.259-2.395,5.259-5.387c0-2.873-2.385-5.267-5.259-5.267C114.495,4.449,112.1,6.843,112.1,9.716z"/>
	
		<path clip-path="url(#SVGID_2_)" fill="none" stroke="#000000" stroke-width="0.7242" stroke-linejoin="round" stroke-miterlimit="10" d="
		M112.1,9.716c0,2.993,2.395,5.387,5.289,5.387c2.874,0,5.259-2.395,5.259-5.387c0-2.873-2.385-5.267-5.259-5.267
		C114.495,4.449,112.1,6.843,112.1,9.716z"/>
	<g clip-path="url(#SVGID_2_)">
		<defs>
			<rect id="SVGID_19_" x="128.426" y="3.607" width="97.324" height="16.185"/>
		</defs>
		<clipPath id="SVGID_20_">
			<use xlink:href="#SVGID_19_"  overflow="visible"/>
		</clipPath>
		<g clip-path="url(#SVGID_20_)">
			<path d="M129.212,12.828V5.71h5.149v0.84h-4.207v2.18h3.939v0.835h-3.939v2.423h4.372v0.84H129.212z"/>
			<path d="M135.103,12.828l1.885-2.68l-1.744-2.476h1.093l0.792,1.209c0.149,0.23,0.269,0.422,0.359,0.578
				c0.143-0.213,0.274-0.403,0.394-0.568l0.87-1.219h1.044l-1.782,2.428l1.918,2.729h-1.074l-1.059-1.602l-0.282-0.432l-1.355,2.034
				H135.103z"/>
			<path d="M142.618,12.046l0.126,0.772c-0.246,0.052-0.466,0.078-0.661,0.078c-0.317,0-0.563-0.05-0.738-0.15
				s-0.298-0.232-0.369-0.396c-0.071-0.164-0.107-0.508-0.107-1.032V8.351h-0.641v-0.68h0.641V6.395l0.87-0.524v1.801h0.879v0.68
				h-0.879v3.015c0,0.25,0.015,0.41,0.046,0.48c0.031,0.071,0.081,0.128,0.151,0.17c0.069,0.042,0.169,0.063,0.298,0.063
				C142.332,12.08,142.459,12.069,142.618,12.046z"/>
			<path d="M147.004,11.167l0.903,0.112c-0.143,0.528-0.407,0.937-0.792,1.229c-0.385,0.291-0.877,0.437-1.477,0.437
				c-0.754,0-1.353-0.232-1.794-0.697s-0.663-1.116-0.663-1.955c0-0.867,0.224-1.541,0.67-2.02s1.026-0.719,1.739-0.719
				c0.689,0,1.253,0.235,1.69,0.704c0.437,0.469,0.655,1.13,0.655,1.981c0,0.052-0.001,0.129-0.005,0.233h-3.847
				c0.032,0.567,0.193,1,0.481,1.301c0.288,0.301,0.647,0.452,1.078,0.452c0.321,0,0.594-0.084,0.821-0.252
				S146.872,11.536,147.004,11.167z M144.134,9.754h2.88c-0.039-0.434-0.149-0.759-0.33-0.976c-0.278-0.336-0.64-0.505-1.083-0.505
				c-0.402,0-0.739,0.134-1.013,0.403C144.314,8.945,144.163,9.304,144.134,9.754z"/>
			<path d="M148.996,12.828V7.671h0.787v0.782c0.201-0.366,0.386-0.607,0.556-0.724c0.17-0.116,0.357-0.175,0.561-0.175
				c0.295,0,0.594,0.094,0.899,0.282l-0.301,0.811c-0.214-0.126-0.428-0.189-0.641-0.189c-0.191,0-0.363,0.058-0.515,0.172
				c-0.152,0.115-0.261,0.274-0.325,0.478c-0.097,0.311-0.146,0.651-0.146,1.02v2.7H148.996z"/>
			<path d="M152.318,12.828V7.671h0.787v0.733c0.379-0.566,0.926-0.85,1.642-0.85c0.311,0,0.597,0.056,0.857,0.167
				c0.261,0.112,0.456,0.258,0.585,0.439c0.129,0.182,0.22,0.396,0.272,0.646c0.032,0.162,0.048,0.445,0.048,0.85v3.17h-0.874V9.691
				c0-0.356-0.034-0.622-0.102-0.798s-0.188-0.317-0.362-0.422c-0.173-0.105-0.376-0.158-0.609-0.158
				c-0.373,0-0.694,0.118-0.964,0.354c-0.271,0.236-0.406,0.685-0.406,1.345v2.816H152.318z"/>
			<path d="M161.215,12.191c-0.324,0.275-0.635,0.47-0.935,0.583c-0.299,0.113-0.621,0.17-0.964,0.17
				c-0.567,0-1.002-0.139-1.307-0.416c-0.304-0.276-0.457-0.63-0.457-1.061c0-0.252,0.058-0.483,0.172-0.692
				c0.115-0.209,0.266-0.376,0.452-0.502c0.187-0.126,0.396-0.222,0.629-0.287c0.172-0.045,0.431-0.089,0.777-0.131
				c0.706-0.084,1.226-0.185,1.559-0.301c0.003-0.12,0.005-0.196,0.005-0.228c0-0.356-0.083-0.607-0.248-0.753
				c-0.224-0.197-0.556-0.296-0.996-0.296c-0.412,0-0.715,0.072-0.911,0.216c-0.196,0.144-0.341,0.399-0.435,0.765l-0.855-0.117
				c0.078-0.366,0.206-0.661,0.384-0.886c0.178-0.225,0.436-0.398,0.772-0.52c0.337-0.121,0.727-0.182,1.17-0.182
				c0.44,0,0.798,0.052,1.074,0.156c0.275,0.104,0.478,0.234,0.607,0.391c0.129,0.157,0.22,0.355,0.272,0.595
				c0.029,0.149,0.044,0.417,0.044,0.806v1.165c0,0.813,0.019,1.326,0.056,1.542s0.111,0.422,0.221,0.619h-0.913
				C161.3,12.646,161.241,12.435,161.215,12.191z M161.143,10.24c-0.317,0.129-0.793,0.24-1.428,0.33
				c-0.359,0.052-0.614,0.11-0.763,0.175c-0.149,0.065-0.264,0.16-0.345,0.284c-0.081,0.125-0.122,0.263-0.122,0.415
				c0,0.233,0.088,0.427,0.265,0.583c0.176,0.156,0.435,0.233,0.775,0.233c0.336,0,0.636-0.074,0.898-0.221
				c0.262-0.147,0.455-0.349,0.578-0.604c0.094-0.197,0.141-0.489,0.141-0.874V10.24z"/>
			<path d="M163.492,12.828V5.71h0.875v7.118H163.492z"/>
			<path d="M165.764,12.828V5.71h0.966l3.74,5.588V5.71h0.903v7.118h-0.967l-3.74-5.593v5.593H165.764z"/>
			<path d="M172.52,10.25c0-0.955,0.266-1.662,0.797-2.122c0.443-0.382,0.984-0.573,1.622-0.573c0.709,0,1.289,0.232,1.739,0.697
				c0.45,0.465,0.675,1.106,0.675,1.925c0,0.664-0.1,1.186-0.299,1.566s-0.489,0.675-0.869,0.886
				c-0.381,0.21-0.796,0.316-1.246,0.316c-0.722,0-1.306-0.231-1.751-0.694S172.52,11.12,172.52,10.25z M173.418,10.25
				c0,0.66,0.144,1.155,0.432,1.483s0.651,0.493,1.088,0.493c0.434,0,0.795-0.165,1.083-0.495c0.289-0.33,0.433-0.833,0.433-1.51
				c0-0.638-0.145-1.121-0.435-1.449c-0.29-0.329-0.65-0.493-1.081-0.493c-0.437,0-0.8,0.164-1.088,0.49
				C173.563,9.096,173.418,9.589,173.418,10.25z"/>
			<path d="M181.833,12.828v-0.65c-0.327,0.511-0.808,0.767-1.443,0.767c-0.411,0-0.789-0.113-1.134-0.34
				c-0.345-0.227-0.612-0.543-0.802-0.949s-0.284-0.873-0.284-1.401c0-0.515,0.086-0.981,0.258-1.401
				c0.171-0.419,0.429-0.74,0.772-0.964c0.343-0.223,0.727-0.335,1.151-0.335c0.311,0,0.587,0.066,0.831,0.197
				c0.243,0.131,0.44,0.302,0.592,0.512V5.71h0.87v7.118H181.833z M179.07,10.254c0,0.66,0.139,1.154,0.417,1.481
				c0.278,0.327,0.607,0.49,0.986,0.49c0.382,0,0.707-0.156,0.974-0.469c0.267-0.312,0.4-0.789,0.4-1.43
				c0-0.706-0.136-1.224-0.408-1.554s-0.607-0.495-1.005-0.495c-0.389,0-0.713,0.159-0.974,0.476
				C179.2,9.071,179.07,9.571,179.07,10.254z"/>
			<path d="M187.55,11.167l0.903,0.112c-0.143,0.528-0.407,0.937-0.792,1.229c-0.385,0.291-0.877,0.437-1.477,0.437
				c-0.754,0-1.353-0.232-1.794-0.697s-0.663-1.116-0.663-1.955c0-0.867,0.224-1.541,0.67-2.02s1.026-0.719,1.739-0.719
				c0.689,0,1.253,0.235,1.69,0.704c0.437,0.469,0.655,1.13,0.655,1.981c0,0.052-0.001,0.129-0.005,0.233h-3.847
				c0.032,0.567,0.193,1,0.481,1.301c0.288,0.301,0.647,0.452,1.078,0.452c0.321,0,0.594-0.084,0.821-0.252
				S187.417,11.536,187.55,11.167z M184.68,9.754h2.88c-0.039-0.434-0.149-0.759-0.33-0.976c-0.278-0.336-0.64-0.505-1.083-0.505
				c-0.402,0-0.739,0.134-1.013,0.403C184.86,8.945,184.708,9.304,184.68,9.754z"/>
			<path d="M189.211,10.691V9.813h2.686v0.879H189.211z"/>
			<path d="M195.934,12.828h-0.875V7.259c-0.21,0.201-0.486,0.401-0.828,0.602c-0.341,0.201-0.648,0.351-0.92,0.452V7.467
				c0.489-0.229,0.917-0.508,1.282-0.835c0.366-0.327,0.625-0.644,0.777-0.952h0.563V12.828z"/>
		</g>
	</g>
	<path clip-path="url(#SVGID_2_)" fill-rule="evenodd" clip-rule="evenodd" d="M259.715,118.2c0,2.996,2.416,5.387,5.29,5.387
		s5.289-2.391,5.289-5.387c0-2.875-2.415-5.29-5.289-5.29S259.715,115.325,259.715,118.2z"/>
	
		<path clip-path="url(#SVGID_2_)" fill="none" stroke="#000000" stroke-width="0.7242" stroke-linejoin="round" stroke-miterlimit="10" d="
		M259.715,118.2c0,2.996,2.416,5.387,5.29,5.387s5.289-2.391,5.289-5.387c0-2.875-2.415-5.29-5.289-5.29
		S259.715,115.325,259.715,118.2z"/>
	<g clip-path="url(#SVGID_2_)">
		<defs>
			<rect id="SVGID_21_" x="276.641" y="112.087" width="91.939" height="16.185"/>
		</defs>
		<clipPath id="SVGID_22_">
			<use xlink:href="#SVGID_21_"  overflow="visible"/>
		</clipPath>
		<g clip-path="url(#SVGID_22_)">
			<path d="M277.428,121.194v-7.118h5.148v0.84h-4.206v2.18h3.938v0.835h-3.938v2.423h4.371v0.84H277.428z"/>
			<path d="M283.319,121.194l1.884-2.68l-1.743-2.476h1.093l0.792,1.209c0.148,0.23,0.269,0.422,0.359,0.578
				c0.143-0.213,0.273-0.403,0.394-0.568l0.869-1.219h1.044l-1.782,2.428l1.918,2.729h-1.073l-1.059-1.602l-0.282-0.432
				l-1.354,2.034H283.319z"/>
			<path d="M290.833,120.412l0.126,0.772c-0.246,0.052-0.466,0.078-0.66,0.078c-0.317,0-0.563-0.05-0.738-0.15
				s-0.298-0.232-0.369-0.396c-0.071-0.164-0.106-0.508-0.106-1.032v-2.967h-0.642v-0.68h0.642v-1.277l0.869-0.524v1.801h0.879v0.68
				h-0.879v3.015c0,0.25,0.016,0.41,0.046,0.48c0.031,0.071,0.081,0.128,0.15,0.17c0.07,0.042,0.17,0.063,0.299,0.063
				C290.547,120.446,290.675,120.435,290.833,120.412z"/>
			<path d="M295.219,119.533l0.903,0.112c-0.143,0.528-0.406,0.937-0.791,1.229c-0.386,0.291-0.878,0.437-1.477,0.437
				c-0.755,0-1.353-0.232-1.795-0.697s-0.663-1.116-0.663-1.955c0-0.867,0.224-1.541,0.67-2.02c0.447-0.479,1.026-0.719,1.739-0.719
				c0.689,0,1.253,0.235,1.69,0.704c0.437,0.469,0.655,1.13,0.655,1.981c0,0.052-0.002,0.129-0.005,0.233H292.3
				c0.032,0.567,0.192,1,0.481,1.301c0.288,0.301,0.647,0.452,1.078,0.452c0.32,0,0.594-0.084,0.82-0.252
				S295.086,119.902,295.219,119.533z M292.349,118.121h2.88c-0.039-0.434-0.148-0.759-0.33-0.976
				c-0.278-0.336-0.64-0.505-1.083-0.505c-0.401,0-0.739,0.134-1.013,0.403C292.53,117.312,292.378,117.67,292.349,118.121z"/>
			<path d="M297.21,121.194v-5.156h0.787v0.782c0.201-0.366,0.387-0.607,0.557-0.724c0.17-0.116,0.356-0.175,0.561-0.175
				c0.295,0,0.595,0.094,0.898,0.282l-0.301,0.811c-0.214-0.126-0.428-0.189-0.642-0.189c-0.19,0-0.362,0.058-0.515,0.172
				s-0.261,0.274-0.325,0.478c-0.098,0.311-0.146,0.651-0.146,1.02v2.7H297.21z"/>
			<path d="M300.533,121.194v-5.156h0.787v0.733c0.379-0.566,0.926-0.85,1.642-0.85c0.312,0,0.597,0.056,0.857,0.167
				c0.261,0.112,0.456,0.258,0.585,0.439c0.13,0.182,0.221,0.396,0.272,0.646c0.032,0.162,0.049,0.445,0.049,0.85v3.17h-0.875
				v-3.137c0-0.356-0.033-0.622-0.102-0.798s-0.188-0.317-0.362-0.422c-0.173-0.105-0.376-0.158-0.609-0.158
				c-0.372,0-0.693,0.118-0.964,0.354c-0.271,0.236-0.405,0.685-0.405,1.345v2.816H300.533z"/>
			<path d="M309.431,120.558c-0.323,0.275-0.636,0.47-0.935,0.583c-0.3,0.113-0.621,0.17-0.965,0.17
				c-0.566,0-1.002-0.139-1.306-0.416c-0.305-0.276-0.457-0.63-0.457-1.061c0-0.252,0.058-0.483,0.173-0.692
				c0.114-0.209,0.265-0.376,0.451-0.502c0.187-0.126,0.396-0.222,0.629-0.287c0.172-0.045,0.431-0.089,0.777-0.131
				c0.706-0.084,1.226-0.185,1.56-0.301c0.003-0.12,0.005-0.196,0.005-0.228c0-0.356-0.083-0.607-0.248-0.753
				c-0.224-0.197-0.556-0.296-0.996-0.296c-0.411,0-0.715,0.072-0.91,0.216c-0.196,0.144-0.341,0.399-0.435,0.765l-0.855-0.117
				c0.078-0.366,0.206-0.661,0.384-0.886c0.178-0.225,0.436-0.398,0.772-0.52c0.337-0.121,0.727-0.182,1.171-0.182
				c0.439,0,0.798,0.052,1.073,0.156c0.275,0.104,0.478,0.234,0.606,0.391c0.13,0.157,0.221,0.355,0.272,0.595
				c0.029,0.149,0.044,0.417,0.044,0.806v1.165c0,0.813,0.019,1.326,0.056,1.542s0.11,0.422,0.221,0.619h-0.913
				C309.515,121.013,309.458,120.801,309.431,120.558z M309.359,118.606c-0.317,0.129-0.794,0.24-1.429,0.33
				c-0.359,0.052-0.613,0.11-0.763,0.175c-0.148,0.065-0.264,0.16-0.345,0.284s-0.121,0.263-0.121,0.415
				c0,0.233,0.088,0.427,0.265,0.583c0.177,0.156,0.435,0.233,0.774,0.233c0.337,0,0.637-0.074,0.898-0.221
				c0.263-0.147,0.455-0.349,0.578-0.604c0.094-0.197,0.142-0.489,0.142-0.874V118.606z"/>
			<path d="M311.708,121.194v-7.118h0.874v7.118H311.708z"/>
			<path d="M313.979,121.194v-7.118h0.967l3.739,5.588v-5.588h0.903v7.118h-0.966l-3.74-5.593v5.593H313.979z"/>
			<path d="M320.735,118.616c0-0.955,0.266-1.662,0.797-2.122c0.443-0.382,0.984-0.573,1.622-0.573c0.709,0,1.289,0.232,1.739,0.697
				c0.449,0.465,0.675,1.106,0.675,1.925c0,0.664-0.1,1.186-0.299,1.566s-0.489,0.675-0.869,0.886
				c-0.381,0.21-0.796,0.316-1.246,0.316c-0.722,0-1.306-0.231-1.751-0.694S320.735,119.486,320.735,118.616z M321.633,118.616
				c0,0.66,0.145,1.155,0.433,1.483s0.65,0.493,1.088,0.493c0.434,0,0.795-0.165,1.083-0.495s0.433-0.833,0.433-1.51
				c0-0.638-0.146-1.121-0.435-1.449c-0.29-0.329-0.65-0.493-1.081-0.493c-0.438,0-0.8,0.164-1.088,0.49
				C321.778,117.462,321.633,117.956,321.633,118.616z"/>
			<path d="M330.048,121.194v-0.65c-0.327,0.511-0.808,0.767-1.442,0.767c-0.411,0-0.789-0.113-1.134-0.34s-0.612-0.543-0.802-0.949
				s-0.284-0.873-0.284-1.401c0-0.515,0.086-0.981,0.258-1.401c0.171-0.419,0.429-0.74,0.772-0.964
				c0.343-0.223,0.727-0.335,1.15-0.335c0.312,0,0.588,0.066,0.831,0.197c0.242,0.131,0.44,0.302,0.593,0.512v-2.554h0.869v7.118
				H330.048z M327.285,118.621c0,0.66,0.14,1.154,0.418,1.481c0.278,0.327,0.607,0.49,0.986,0.49c0.382,0,0.706-0.156,0.974-0.469
				c0.267-0.312,0.4-0.789,0.4-1.43c0-0.706-0.136-1.224-0.408-1.554c-0.271-0.33-0.606-0.495-1.005-0.495
				c-0.389,0-0.713,0.159-0.974,0.476C327.416,117.438,327.285,117.938,327.285,118.621z"/>
			<path d="M335.765,119.533l0.903,0.112c-0.143,0.528-0.406,0.937-0.791,1.229c-0.386,0.291-0.878,0.437-1.477,0.437
				c-0.755,0-1.353-0.232-1.795-0.697s-0.663-1.116-0.663-1.955c0-0.867,0.224-1.541,0.67-2.02c0.447-0.479,1.026-0.719,1.739-0.719
				c0.689,0,1.253,0.235,1.69,0.704c0.437,0.469,0.655,1.13,0.655,1.981c0,0.052-0.002,0.129-0.005,0.233h-3.847
				c0.032,0.567,0.192,1,0.481,1.301c0.288,0.301,0.647,0.452,1.078,0.452c0.32,0,0.594-0.084,0.82-0.252
				S335.632,119.902,335.765,119.533z M332.895,118.121h2.88c-0.039-0.434-0.148-0.759-0.33-0.976
				c-0.278-0.336-0.64-0.505-1.083-0.505c-0.401,0-0.739,0.134-1.013,0.403C333.076,117.312,332.924,117.67,332.895,118.121z"/>
			<path d="M337.426,119.058v-0.879h2.687v0.879H337.426z"/>
			<path d="M345.452,120.354v0.84h-4.707c-0.006-0.21,0.027-0.413,0.103-0.607c0.119-0.32,0.312-0.636,0.575-0.947
				s0.646-0.67,1.144-1.078c0.774-0.635,1.297-1.137,1.569-1.508c0.271-0.371,0.408-0.721,0.408-1.051
				c0-0.346-0.124-0.638-0.372-0.876c-0.247-0.238-0.57-0.357-0.969-0.357c-0.421,0-0.758,0.126-1.01,0.378
				c-0.253,0.252-0.381,0.602-0.384,1.049l-0.899-0.092c0.062-0.67,0.294-1.181,0.695-1.532s0.94-0.527,1.617-0.527
				c0.683,0,1.224,0.189,1.622,0.568c0.398,0.378,0.598,0.848,0.598,1.408c0,0.285-0.059,0.565-0.175,0.84
				c-0.117,0.275-0.311,0.565-0.581,0.869c-0.27,0.304-0.719,0.722-1.348,1.253c-0.524,0.44-0.861,0.739-1.01,0.896
				c-0.149,0.157-0.272,0.315-0.369,0.474H345.452z"/>
		</g>
	</g>
</g>
<g>
</g>
<g>
</g>
</svg>
