<?xml version="1.0" encoding="utf-8"?>
<!-- Generator: Adobe Illustrator 16.0.0, SVG Export Plug-In . SVG Version: 6.00 Build 0)  -->
<!DOCTYPE svg PUBLIC "-//W3C//DTD SVG 1.1//EN" "http://www.w3.org/Graphics/SVG/1.1/DTD/svg11.dtd">
<svg version="1.1" id="Layer_1" xmlns="http://www.w3.org/2000/svg" xmlns:xlink="http://www.w3.org/1999/xlink" x="0px" y="0px"
	 width="202.083px" height="149.278px" viewBox="0 0 202.083 149.278" enable-background="new 0 0 202.083 149.278"
	 xml:space="preserve">
<g>
	<defs>
		<rect id="SVGID_1_" width="202.083" height="149.278"/>
	</defs>
	<clipPath id="SVGID_2_">
		<use xlink:href="#SVGID_1_"  overflow="visible"/>
	</clipPath>
	
		<line clip-path="url(#SVGID_2_)" fill="none" stroke="#000000" stroke-width="0.721" stroke-linejoin="round" stroke-miterlimit="10" x1="65.398" y1="36.344" x2="94.255" y2="71.628"/>
	<polygon clip-path="url(#SVGID_2_)" fill-rule="evenodd" clip-rule="evenodd" points="91.969,73.071 97.239,75.335 96.045,69.837 	
		"/>
	
		<line clip-path="url(#SVGID_2_)" fill="none" stroke="#000000" stroke-width="0.721" stroke-linejoin="round" stroke-miterlimit="10" x1="0.472" y1="148.531" x2="201.835" y2="148.656"/>
	
		<line clip-path="url(#SVGID_2_)" fill="none" stroke="#000000" stroke-width="0.721" stroke-linejoin="round" stroke-miterlimit="10" x1="43.151" y1="102.355" x2="98.457" y2="102.454"/>
	
		<line clip-path="url(#SVGID_2_)" fill="none" stroke="#000000" stroke-width="0.721" stroke-linejoin="round" stroke-miterlimit="10" x1="98.457" y1="102.355" x2="98.457" y2="45.948"/>
	
		<line clip-path="url(#SVGID_2_)" fill="none" stroke="#000000" stroke-width="0.721" stroke-linejoin="round" stroke-miterlimit="10" x1="43.151" y1="102.355" x2="98.457" y2="102.454"/>
	
		<line clip-path="url(#SVGID_2_)" fill="none" stroke="#000000" stroke-width="0.721" stroke-linejoin="round" stroke-miterlimit="10" x1="98.457" y1="102.355" x2="98.457" y2="45.948"/>
	
		<line clip-path="url(#SVGID_2_)" fill="none" stroke="#000000" stroke-width="0.721" stroke-linejoin="round" stroke-miterlimit="10" x1="43.747" y1="102.355" x2="99.053" y2="102.454"/>
	
		<line clip-path="url(#SVGID_2_)" fill="none" stroke="#000000" stroke-width="0.721" stroke-linejoin="round" stroke-miterlimit="10" x1="99.053" y1="102.355" x2="99.053" y2="45.948"/>
	
		<line clip-path="url(#SVGID_2_)" fill="none" stroke="#000000" stroke-width="0.721" stroke-linejoin="round" stroke-miterlimit="10" x1="99.053" y1="45.948" x2="154.952" y2="46.077"/>
	
		<line clip-path="url(#SVGID_2_)" fill="none" stroke="#000000" stroke-width="0.721" stroke-linejoin="round" stroke-miterlimit="10" x1="154.952" y1="45.948" x2="154.952" y2="147.934"/>
	
		<line clip-path="url(#SVGID_2_)" fill="none" stroke="#000000" stroke-width="0.721" stroke-linejoin="round" stroke-miterlimit="10" x1="43.275" y1="102.355" x2="43.275" y2="148.531"/>
	
		<rect x="97.239" y="62.274" clip-path="url(#SVGID_2_)" fill-rule="evenodd" clip-rule="evenodd" fill="#FFFFFF" width="2.883" height="27.591"/>
	
		<rect x="97.239" y="62.274" clip-path="url(#SVGID_2_)" fill="none" stroke="#000000" stroke-width="0.721" stroke-linejoin="round" stroke-miterlimit="10" width="2.883" height="27.591"/>
	
		<line clip-path="url(#SVGID_2_)" fill="none" stroke="#000000" stroke-width="0.721" stroke-linejoin="round" stroke-miterlimit="10" x1="97.239" y1="74.987" x2="73.576" y2="97.901"/>
	<polygon clip-path="url(#SVGID_2_)" fill-rule="evenodd" clip-rule="evenodd" points="72.009,95.737 70.194,101.136 75.614,99.469 
			"/>
	
		<line clip-path="url(#SVGID_2_)" fill="none" stroke="#000000" stroke-width="0.721" stroke-linejoin="round" stroke-miterlimit="10" x1="66.118" y1="17.167" x2="94.977" y2="52.421"/>
	<polygon clip-path="url(#SVGID_2_)" fill-rule="evenodd" clip-rule="evenodd" points="92.69,53.864 97.96,56.153 96.766,50.63 	"/>
	<polygon clip-path="url(#SVGID_2_)" points="98.805,56.029 98.805,55.78 98.68,55.681 98.581,55.556 98.457,55.432 98.332,55.556 
		98.208,55.681 96.169,57.721 96.169,57.82 96.169,57.945 96.169,58.069 96.294,58.193 96.418,58.318 96.518,58.318 96.642,58.193 
		96.766,58.069 	"/>
	<polygon clip-path="url(#SVGID_2_)" points="95.325,59.637 95.449,59.512 95.449,59.388 95.325,59.263 95.201,59.139 
		95.076,59.139 94.977,59.139 94.853,59.139 94.728,59.263 92.789,61.428 92.69,61.552 92.69,61.677 92.789,61.801 92.914,61.9 
		93.038,62.025 93.162,62.025 93.287,61.9 93.411,61.801 	"/>
	<polygon clip-path="url(#SVGID_2_)" points="91.969,63.344 91.969,63.219 91.969,63.12 91.969,62.995 91.845,62.871 91.721,62.871 
		91.597,62.871 91.472,62.871 91.348,62.995 89.31,65.16 89.31,65.259 89.31,65.384 89.31,65.508 89.434,65.632 89.558,65.632 
		89.683,65.632 89.807,65.632 89.907,65.508 	"/>
	<polygon clip-path="url(#SVGID_2_)" points="88.464,67.076 88.588,66.951 88.588,66.827 88.464,66.702 88.365,66.578 88.24,66.578 
		88.116,66.578 87.992,66.578 87.868,66.702 85.953,68.867 85.83,68.991 85.83,69.116 85.953,69.24 86.078,69.339 86.177,69.339 
		86.301,69.339 86.426,69.339 86.55,69.24 	"/>
	<polygon clip-path="url(#SVGID_2_)" points="85.109,70.783 85.109,70.658 85.109,70.559 85.109,70.434 84.984,70.31 84.86,70.31 
		84.736,70.31 84.636,70.31 84.512,70.434 82.474,72.599 82.474,72.698 82.474,72.823 82.474,72.947 82.573,73.071 82.698,73.071 
		82.822,73.071 82.946,73.071 83.071,72.947 	"/>
	<polygon clip-path="url(#SVGID_2_)" points="81.629,74.515 81.753,74.39 81.753,74.266 81.629,74.141 81.505,74.017 81.38,73.917 
		81.256,73.917 81.132,74.017 81.032,74.141 79.094,76.306 78.969,76.43 78.969,76.555 79.094,76.679 79.218,76.778 79.342,76.778 
		79.467,76.778 79.591,76.778 79.69,76.679 	"/>
	<polygon clip-path="url(#SVGID_2_)" points="78.248,78.222 78.248,78.097 78.248,77.998 78.248,77.873 78.124,77.749 
		78.024,77.625 77.9,77.625 77.776,77.749 77.652,77.873 75.614,79.914 75.614,80.038 75.614,80.137 75.614,80.262 75.738,80.386 
		75.862,80.511 75.961,80.511 76.085,80.386 76.21,80.262 	"/>
	<polygon clip-path="url(#SVGID_2_)" points="74.769,81.954 74.893,81.829 74.893,81.705 74.769,81.58 74.644,81.456 74.52,81.356 
		74.42,81.356 74.296,81.456 74.171,81.58 72.258,83.621 72.258,83.745 72.258,83.869 72.258,83.994 72.357,84.118 72.481,84.218 
		72.606,84.218 72.73,84.118 72.854,83.994 	"/>
	<polygon clip-path="url(#SVGID_2_)" points="71.413,85.661 71.413,85.536 71.413,85.437 71.413,85.313 71.289,85.188 
		71.165,85.063 71.04,85.063 70.916,85.188 70.792,85.313 68.877,87.353 68.753,87.477 68.753,87.576 68.877,87.701 69.002,87.825 
		69.126,87.95 69.25,87.95 69.35,87.825 69.474,87.701 	"/>
	<polygon clip-path="url(#SVGID_2_)" points="67.908,89.393 68.032,89.268 68.032,89.144 67.908,89.02 67.808,88.895 67.685,88.795 
		67.561,88.795 67.436,88.895 67.312,89.02 65.398,91.06 65.398,91.184 65.398,91.308 65.398,91.433 65.522,91.557 65.646,91.657 
		65.745,91.657 65.869,91.557 65.994,91.433 	"/>
	<polygon clip-path="url(#SVGID_2_)" points="64.552,92.975 64.552,92.875 64.552,92.751 64.552,92.627 64.428,92.502 
		64.304,92.502 64.179,92.502 64.08,92.502 63.956,92.627 62.017,94.792 61.917,94.916 61.917,95.015 62.017,95.14 62.141,95.264 
		62.265,95.389 62.39,95.389 62.514,95.264 62.638,95.14 	"/>
	<polygon clip-path="url(#SVGID_2_)" points="61.073,96.707 61.197,96.583 61.197,96.458 61.073,96.334 60.948,96.234 
		60.824,96.234 60.7,96.234 60.575,96.234 60.476,96.334 60.227,96.832 60.103,96.956 60.227,97.056 60.352,97.18 60.476,97.304 
		60.575,97.18 60.824,97.18 	"/>
	<polygon clip-path="url(#SVGID_2_)" fill-rule="evenodd" clip-rule="evenodd" points="58.786,94.916 57.344,100.414 62.638,98.374 
			"/>
	
		<path clip-path="url(#SVGID_2_)" fill="none" stroke="#000000" stroke-width="0.721" stroke-linejoin="round" stroke-miterlimit="10" d="
		M46.158,14.032c0,3.354,2.635,5.991,6.016,5.991c3.356,0,6.015-2.638,6.015-5.991c0-3.364-2.659-6.001-6.015-6.001
		C48.793,8.031,46.158,10.668,46.158,14.032z"/>
	
		<polygon clip-path="url(#SVGID_2_)" fill="none" stroke="#000000" stroke-width="0.721" stroke-linejoin="round" stroke-miterlimit="10" points="
		52.422,5.274 56.026,0.468 56.026,7.086 64.179,6.24 59.979,11.047 65.025,14.032 60.824,16.44 63.831,21.247 57.22,20.869 
		56.375,28.681 53.019,23.039 48.57,27.835 47.973,20.869 41.362,23.039 45.562,17.635 38.95,14.629 44.369,13.087 42.181,4.678 
		47.973,7.434 49.167,1.443 	"/>
	<g clip-path="url(#SVGID_2_)">
		<defs>
			<rect id="SVGID_3_" x="103.752" y="69.24" width="43.872" height="16.196"/>
		</defs>
		<clipPath id="SVGID_4_">
			<use xlink:href="#SVGID_3_"  overflow="visible"/>
		</clipPath>
		<g clip-path="url(#SVGID_4_)">
			<path d="M105.762,78.344l-1.888-7.12h0.966l1.083,4.667c0.117,0.489,0.217,0.975,0.301,1.457c0.181-0.761,0.288-1.2,0.32-1.316
				l1.354-4.808h1.136l1.02,3.604c0.255,0.894,0.44,1.734,0.553,2.521c0.09-0.45,0.209-0.967,0.354-1.549l1.117-4.575h0.946
				l-1.952,7.12h-0.908l-1.5-5.425c-0.126-0.453-0.201-0.731-0.223-0.835c-0.075,0.327-0.144,0.605-0.209,0.835l-1.51,5.425H105.762
				z"/>
			<path d="M114.145,72.229v-1.005h0.874v1.005H114.145z M114.145,78.344v-5.158h0.874v5.158H114.145z"/>
			<path d="M116.299,78.344v-5.158h0.787v0.733c0.378-0.566,0.926-0.85,1.641-0.85c0.311,0,0.596,0.056,0.856,0.167
				c0.261,0.112,0.456,0.258,0.585,0.439c0.129,0.181,0.22,0.396,0.271,0.646c0.033,0.162,0.049,0.445,0.049,0.85v3.171h-0.874
				v-3.138c0-0.356-0.034-0.623-0.102-0.799s-0.188-0.317-0.361-0.422c-0.173-0.105-0.376-0.158-0.609-0.158
				c-0.373,0-0.693,0.118-0.964,0.354c-0.27,0.237-0.405,0.685-0.405,1.346v2.817H116.299z"/>
			<path d="M125.173,78.344v-0.651c-0.327,0.512-0.808,0.768-1.442,0.768c-0.411,0-0.789-0.113-1.134-0.34
				c-0.345-0.227-0.612-0.543-0.801-0.949c-0.189-0.406-0.284-0.874-0.284-1.401c0-0.515,0.086-0.982,0.257-1.401
				c0.171-0.419,0.429-0.741,0.772-0.964c0.343-0.224,0.727-0.335,1.15-0.335c0.311,0,0.587,0.065,0.83,0.196
				c0.243,0.131,0.44,0.302,0.592,0.513v-2.555h0.869v7.12H125.173z M122.411,75.77c0,0.661,0.139,1.154,0.417,1.481
				s0.607,0.491,0.986,0.491c0.382,0,0.706-0.156,0.973-0.469s0.401-0.79,0.401-1.431c0-0.706-0.136-1.224-0.408-1.554
				c-0.271-0.33-0.606-0.495-1.005-0.495c-0.388,0-0.713,0.159-0.973,0.476C122.541,74.586,122.411,75.086,122.411,75.77z"/>
			<path d="M127.033,75.765c0-0.955,0.266-1.663,0.796-2.123c0.443-0.382,0.984-0.573,1.622-0.573c0.708,0,1.288,0.232,1.738,0.697
				s0.675,1.106,0.675,1.926c0,0.664-0.1,1.186-0.298,1.566c-0.199,0.38-0.489,0.676-0.869,0.886s-0.795,0.316-1.245,0.316
				c-0.722,0-1.305-0.231-1.75-0.695C127.255,77.303,127.033,76.636,127.033,75.765z M127.931,75.765
				c0,0.661,0.144,1.155,0.432,1.484s0.651,0.493,1.088,0.493c0.434,0,0.794-0.166,1.083-0.496s0.432-0.833,0.432-1.511
				c0-0.638-0.145-1.121-0.435-1.45c-0.29-0.329-0.65-0.493-1.08-0.493c-0.437,0-0.8,0.164-1.088,0.49
				C128.075,74.61,127.931,75.104,127.931,75.765z"/>
			<path d="M133.81,78.344l-1.578-5.158h0.903l0.82,2.978l0.306,1.107c0.013-0.055,0.102-0.41,0.267-1.064l0.82-3.021h0.898
				l0.772,2.992l0.257,0.986l0.296-0.996l0.883-2.982h0.85l-1.612,5.158h-0.908l-0.82-3.089l-0.199-0.879l-1.044,3.968H133.81z"/>
		</g>
	</g>
	<g clip-path="url(#SVGID_2_)">
		<defs>
			<rect id="SVGID_5_" x="101.932" y="48.242" width="43.872" height="16.197"/>
		</defs>
		<clipPath id="SVGID_6_">
			<use xlink:href="#SVGID_5_"  overflow="visible"/>
		</clipPath>
		<g clip-path="url(#SVGID_6_)">
			<path d="M103.942,57.346l-1.888-7.12h0.966l1.083,4.667c0.117,0.489,0.217,0.975,0.301,1.457c0.181-0.761,0.288-1.2,0.32-1.316
				l1.354-4.808h1.136l1.02,3.604c0.255,0.894,0.44,1.734,0.553,2.521c0.09-0.45,0.209-0.967,0.354-1.549l1.117-4.575h0.946
				l-1.952,7.12h-0.908l-1.5-5.425c-0.126-0.453-0.201-0.731-0.223-0.835c-0.075,0.327-0.144,0.605-0.209,0.835l-1.51,5.425H103.942
				z"/>
			<path d="M115.684,56.709c-0.323,0.275-0.635,0.47-0.934,0.583c-0.3,0.113-0.621,0.17-0.964,0.17
				c-0.566,0-1.002-0.139-1.306-0.416s-0.456-0.63-0.456-1.061c0-0.252,0.057-0.483,0.172-0.692
				c0.115-0.208,0.265-0.376,0.451-0.502s0.396-0.222,0.629-0.287c0.171-0.045,0.43-0.089,0.777-0.131
				c0.706-0.084,1.225-0.185,1.558-0.301c0.003-0.12,0.005-0.196,0.005-0.229c0-0.356-0.083-0.607-0.248-0.753
				c-0.223-0.197-0.555-0.296-0.995-0.296c-0.411,0-0.714,0.072-0.91,0.216s-0.341,0.399-0.435,0.765l-0.854-0.117
				c0.078-0.366,0.206-0.661,0.383-0.886c0.178-0.225,0.436-0.398,0.772-0.52c0.337-0.122,0.727-0.182,1.17-0.182
				c0.44,0,0.798,0.052,1.073,0.155c0.275,0.104,0.477,0.234,0.607,0.391c0.129,0.157,0.22,0.355,0.271,0.595
				c0.029,0.149,0.044,0.418,0.044,0.806v1.166c0,0.813,0.019,1.327,0.056,1.542s0.111,0.422,0.221,0.619h-0.913
				C115.769,57.165,115.71,56.952,115.684,56.709z M115.611,54.757c-0.317,0.13-0.793,0.24-1.427,0.331
				c-0.359,0.052-0.613,0.11-0.762,0.175c-0.149,0.064-0.264,0.159-0.345,0.284c-0.081,0.125-0.121,0.263-0.121,0.415
				c0,0.233,0.088,0.427,0.265,0.583c0.176,0.155,0.434,0.233,0.774,0.233c0.337,0,0.636-0.074,0.898-0.221
				c0.262-0.147,0.455-0.349,0.578-0.605c0.094-0.197,0.141-0.489,0.141-0.874V54.757z"/>
			<path d="M117.83,57.346v-7.12h0.874v7.12H117.83z"/>
			<path d="M119.979,57.346v-7.12h0.874v7.12H119.979z"/>
		</g>
	</g>
</g>
</svg>
