<?xml version="1.0" encoding="utf-8"?>
<!-- Generator: Adobe Illustrator 16.0.0, SVG Export Plug-In . SVG Version: 6.00 Build 0)  -->
<!DOCTYPE svg PUBLIC "-//W3C//DTD SVG 1.1//EN" "http://www.w3.org/Graphics/SVG/1.1/DTD/svg11.dtd">
<svg version="1.1" id="Layer_1" xmlns="http://www.w3.org/2000/svg" xmlns:xlink="http://www.w3.org/1999/xlink" x="0px" y="0px"
	 width="424.096px" height="274.925px" viewBox="0 0 424.096 274.925" enable-background="new 0 0 424.096 274.925"
	 xml:space="preserve">
<g>
	<defs>
		<rect id="SVGID_1_" y="0.002" width="277.56" height="271.563"/>
	</defs>
	<clipPath id="SVGID_2_">
		<use xlink:href="#SVGID_1_"  overflow="visible"/>
	</clipPath>
	<g clip-path="url(#SVGID_2_)">
	</g>
	
		<rect x="59.151" y="133.044" clip-path="url(#SVGID_2_)" fill="none" stroke="#1F1A17" stroke-width="0.2412" stroke-linejoin="round" stroke-miterlimit="10" width="59.151" height="48.651"/>
	
		<rect x="59.151" y="213.984" clip-path="url(#SVGID_2_)" fill="none" stroke="#1F1A17" stroke-width="0.2412" stroke-linejoin="round" stroke-miterlimit="10" width="59.151" height="48.627"/>
	<g clip-path="url(#SVGID_2_)">
		<defs>
			<rect id="SVGID_3_" x="69.939" y="146.387" width="37.093" height="13.2"/>
		</defs>
		<clipPath id="SVGID_4_">
			<use xlink:href="#SVGID_3_"  overflow="visible"/>
		</clipPath>
		<g clip-path="url(#SVGID_4_)">
			<defs>
				<rect id="SVGID_5_" x="69.939" y="146.387" width="36.973" height="13.2"/>
			</defs>
			<clipPath id="SVGID_6_">
				<use xlink:href="#SVGID_5_"  overflow="visible"/>
			</clipPath>
			<g clip-path="url(#SVGID_6_)">
				<path fill="#1F1A17" d="M76.437,153.823l1.047,0.264c-0.22,0.859-0.615,1.514-1.185,1.965c-0.57,0.451-1.268,0.677-2.092,0.677
					c-0.853,0-1.546-0.173-2.081-0.521c-0.534-0.347-0.941-0.849-1.22-1.507s-0.418-1.364-0.418-2.119
					c0-0.823,0.158-1.542,0.473-2.154c0.314-0.613,0.763-1.079,1.344-1.396c0.581-0.318,1.221-0.478,1.918-0.478
					c0.792,0,1.458,0.202,1.997,0.604c0.54,0.403,0.916,0.969,1.128,1.699l-1.031,0.243c-0.184-0.575-0.45-0.994-0.799-1.256
					c-0.349-0.263-0.788-0.394-1.317-0.394c-0.608,0-1.116,0.146-1.524,0.437c-0.409,0.291-0.696,0.682-0.861,1.173
					c-0.166,0.491-0.249,0.997-0.249,1.518c0,0.672,0.098,1.259,0.294,1.76c0.196,0.501,0.501,0.876,0.915,1.125
					s0.862,0.372,1.344,0.372c0.587,0,1.083-0.169,1.49-0.507S76.293,154.488,76.437,153.823z"/>
				<path fill="#1F1A17" d="M78.222,153.731c0-1.061,0.295-1.846,0.885-2.356c0.493-0.424,1.094-0.636,1.803-0.636
					c0.788,0,1.432,0.258,1.932,0.774c0.5,0.516,0.75,1.229,0.75,2.138c0,0.737-0.111,1.317-0.332,1.739s-0.543,0.75-0.966,0.984
					c-0.423,0.234-0.885,0.351-1.385,0.351c-0.802,0-1.451-0.257-1.946-0.771C78.469,155.438,78.222,154.698,78.222,153.731z
					 M79.221,153.731c0,0.733,0.16,1.283,0.48,1.647s0.723,0.547,1.209,0.547c0.482,0,0.883-0.184,1.204-0.55s0.48-0.925,0.48-1.677
					c0-0.708-0.161-1.245-0.483-1.61c-0.322-0.365-0.723-0.547-1.201-0.547c-0.486,0-0.889,0.182-1.209,0.545
					S79.221,152.998,79.221,153.731z"/>
				<path fill="#1F1A17" d="M84.731,156.594v-5.727h0.875v0.814c0.421-0.629,1.029-0.944,1.824-0.944
					c0.345,0,0.663,0.062,0.953,0.186s0.506,0.287,0.65,0.488c0.144,0.202,0.245,0.44,0.302,0.717
					c0.036,0.18,0.054,0.495,0.054,0.944v3.521h-0.971v-3.483c0-0.396-0.038-0.691-0.113-0.887c-0.076-0.196-0.21-0.352-0.402-0.469
					c-0.192-0.117-0.418-0.175-0.677-0.175c-0.414,0-0.771,0.131-1.071,0.394c-0.301,0.262-0.451,0.76-0.451,1.494v3.127H84.731z"/>
				<path fill="#1F1A17" d="M93,155.726l0.141,0.857c-0.273,0.058-0.518,0.086-0.734,0.086c-0.353,0-0.626-0.056-0.82-0.167
					s-0.331-0.258-0.41-0.439c-0.079-0.181-0.119-0.563-0.119-1.146v-3.295h-0.712v-0.755h0.712v-1.418l0.966-0.583v2H93v0.755
					h-0.977v3.349c0,0.277,0.017,0.455,0.051,0.534c0.034,0.079,0.09,0.142,0.167,0.189c0.078,0.047,0.188,0.07,0.332,0.07
					C92.681,155.764,92.823,155.751,93,155.726z"/>
				<path fill="#1F1A17" d="M93.939,156.594v-5.727h0.875v0.868c0.223-0.406,0.429-0.674,0.618-0.803
					c0.189-0.129,0.397-0.194,0.624-0.194c0.328,0,0.66,0.104,0.999,0.313l-0.334,0.9c-0.238-0.14-0.475-0.21-0.712-0.21
					c-0.212,0-0.403,0.064-0.572,0.191c-0.169,0.127-0.29,0.305-0.362,0.531c-0.108,0.345-0.162,0.723-0.162,1.132v2.998H93.939z"/>
				<path fill="#1F1A17" d="M97.291,153.731c0-1.061,0.295-1.846,0.885-2.356c0.493-0.424,1.094-0.636,1.803-0.636
					c0.788,0,1.432,0.258,1.932,0.774c0.5,0.516,0.75,1.229,0.75,2.138c0,0.737-0.111,1.317-0.332,1.739s-0.543,0.75-0.966,0.984
					c-0.423,0.234-0.885,0.351-1.385,0.351c-0.802,0-1.451-0.257-1.946-0.771C97.538,155.438,97.291,154.698,97.291,153.731z
					 M98.29,153.731c0,0.733,0.16,1.283,0.48,1.647s0.723,0.547,1.209,0.547c0.482,0,0.883-0.184,1.204-0.55s0.48-0.925,0.48-1.677
					c0-0.708-0.161-1.245-0.483-1.61c-0.322-0.365-0.723-0.547-1.201-0.547c-0.486,0-0.889,0.182-1.209,0.545
					S98.29,152.998,98.29,153.731z"/>
				<path fill="#1F1A17" d="M103.778,156.594v-7.905h0.972v7.905H103.778z"/>
			</g>
		</g>
		<g clip-path="url(#SVGID_4_)">
			<defs>
				<rect id="SVGID_7_" x="69.939" y="146.387" width="36.973" height="13.2"/>
			</defs>
			<clipPath id="SVGID_8_">
				<use xlink:href="#SVGID_7_"  overflow="visible"/>
			</clipPath>
			<g clip-path="url(#SVGID_8_)">
			</g>
		</g>
	</g>
	<g clip-path="url(#SVGID_2_)">
		<defs>
			<rect id="SVGID_9_" x="74.38" y="161.039" width="27.608" height="13.2"/>
		</defs>
		<clipPath id="SVGID_10_">
			<use xlink:href="#SVGID_9_"  overflow="visible"/>
		</clipPath>
		<g clip-path="url(#SVGID_10_)">
			<defs>
				<rect id="SVGID_11_" x="74.38" y="161.039" width="27.488" height="13.2"/>
			</defs>
			<clipPath id="SVGID_12_">
				<use xlink:href="#SVGID_11_"  overflow="visible"/>
			</clipPath>
			<g clip-path="url(#SVGID_12_)">
				<path fill="#1F1A17" d="M74.602,171.246v-0.971l4.053-5.063c0.288-0.36,0.562-0.672,0.821-0.938h-4.415v-0.933h5.667v0.933
					l-4.442,5.484l-0.48,0.556h5.052v0.933H74.602z"/>
				<path fill="#1F1A17" d="M81.466,168.382c0-1.061,0.295-1.846,0.885-2.356c0.493-0.424,1.094-0.636,1.803-0.636
					c0.788,0,1.432,0.258,1.932,0.774c0.5,0.516,0.75,1.229,0.75,2.138c0,0.737-0.111,1.317-0.332,1.739s-0.543,0.75-0.966,0.984
					c-0.423,0.234-0.885,0.351-1.385,0.351c-0.802,0-1.451-0.257-1.946-0.771C81.713,170.09,81.466,169.35,81.466,168.382z
					 M82.465,168.382c0,0.733,0.16,1.283,0.48,1.647s0.723,0.547,1.209,0.547c0.482,0,0.883-0.184,1.204-0.55s0.48-0.925,0.48-1.677
					c0-0.708-0.161-1.245-0.483-1.61c-0.322-0.365-0.723-0.547-1.201-0.547c-0.486,0-0.889,0.182-1.209,0.545
					S82.465,167.649,82.465,168.382z"/>
				<path fill="#1F1A17" d="M87.975,171.246v-5.727h0.875v0.814c0.421-0.629,1.029-0.944,1.824-0.944
					c0.345,0,0.663,0.062,0.953,0.186s0.506,0.287,0.65,0.488c0.144,0.202,0.245,0.44,0.302,0.717
					c0.036,0.18,0.054,0.495,0.054,0.944v3.521h-0.971v-3.483c0-0.396-0.038-0.691-0.113-0.887c-0.076-0.196-0.21-0.352-0.402-0.469
					c-0.192-0.117-0.418-0.175-0.677-0.175c-0.414,0-0.771,0.131-1.071,0.394c-0.301,0.262-0.451,0.76-0.451,1.494v3.127H87.975z"/>
				<path fill="#1F1A17" d="M98.046,169.401l1.004,0.124c-0.158,0.586-0.452,1.041-0.88,1.364c-0.428,0.324-0.975,0.485-1.641,0.485
					c-0.838,0-1.503-0.258-1.994-0.774c-0.491-0.516-0.737-1.239-0.737-2.17c0-0.963,0.248-1.711,0.745-2.243
					c0.497-0.532,1.141-0.798,1.933-0.798c0.766,0,1.392,0.261,1.878,0.782c0.486,0.521,0.729,1.255,0.729,2.2
					c0,0.058-0.001,0.144-0.005,0.259h-4.274c0.036,0.629,0.214,1.111,0.534,1.445c0.32,0.334,0.72,0.501,1.198,0.501
					c0.356,0,0.66-0.094,0.912-0.281C97.699,170.11,97.899,169.811,98.046,169.401z M94.857,167.833h3.2
					c-0.043-0.482-0.166-0.843-0.367-1.084c-0.31-0.374-0.711-0.561-1.204-0.561c-0.446,0-0.821,0.149-1.125,0.448
					S94.889,167.333,94.857,167.833z"/>
			</g>
		</g>
		<g clip-path="url(#SVGID_10_)">
			<defs>
				<rect id="SVGID_13_" x="74.38" y="161.039" width="27.488" height="13.2"/>
			</defs>
			<clipPath id="SVGID_14_">
				<use xlink:href="#SVGID_13_"  overflow="visible"/>
			</clipPath>
			<g clip-path="url(#SVGID_14_)">
			</g>
		</g>
	</g>
	
		<rect x="155.972" y="137.606" clip-path="url(#SVGID_2_)" fill="none" stroke="#1F1A17" stroke-width="0.2412" stroke-linejoin="round" stroke-miterlimit="10" width="61.806" height="36.995"/>
	<g clip-path="url(#SVGID_2_)">
		<defs>
			<rect id="SVGID_15_" x="162.825" y="143.736" width="46.191" height="13.2"/>
		</defs>
		<clipPath id="SVGID_16_">
			<use xlink:href="#SVGID_15_"  overflow="visible"/>
		</clipPath>
		<g clip-path="url(#SVGID_16_)">
			<defs>
				<rect id="SVGID_17_" x="162.825" y="143.736" width="46.071" height="13.2"/>
			</defs>
			<clipPath id="SVGID_18_">
				<use xlink:href="#SVGID_17_"  overflow="visible"/>
			</clipPath>
			<g clip-path="url(#SVGID_18_)">
				<path fill="#1F1A17" d="M163.678,153.946v-7.905h2.726c0.616,0,1.085,0.038,1.409,0.113c0.454,0.104,0.84,0.293,1.161,0.566
					c0.417,0.353,0.729,0.803,0.937,1.351c0.207,0.548,0.31,1.175,0.31,1.879c0,0.601-0.07,1.132-0.21,1.596
					c-0.14,0.463-0.32,0.847-0.54,1.151c-0.22,0.304-0.46,0.543-0.721,0.717s-0.576,0.307-0.944,0.396
					c-0.369,0.09-0.792,0.135-1.271,0.135H163.678z M164.725,153.013h1.689c0.521,0,0.931-0.049,1.228-0.146
					c0.297-0.097,0.534-0.233,0.71-0.41c0.248-0.248,0.441-0.582,0.58-1c0.139-0.419,0.208-0.927,0.208-1.523
					c0-0.827-0.136-1.462-0.408-1.906s-0.602-0.741-0.99-0.893c-0.281-0.108-0.732-0.162-1.355-0.162h-1.662V153.013z"/>
				<path fill="#1F1A17" d="M171.475,147.157v-1.116h0.972v1.116H171.475z M171.475,153.946v-5.727h0.972v5.727H171.475z"/>
				<path fill="#1F1A17" d="M173.849,153.946v-5.727h0.875v0.868c0.223-0.406,0.429-0.674,0.618-0.803
					c0.189-0.129,0.397-0.194,0.624-0.194c0.328,0,0.66,0.104,0.999,0.313l-0.334,0.9c-0.238-0.14-0.475-0.21-0.712-0.21
					c-0.212,0-0.403,0.064-0.572,0.191c-0.169,0.127-0.29,0.305-0.362,0.531c-0.108,0.345-0.162,0.723-0.162,1.132v2.998H173.849z"
					/>
				<path fill="#1F1A17" d="M181.475,152.102l1.004,0.124c-0.158,0.586-0.452,1.041-0.88,1.364
					c-0.428,0.324-0.975,0.485-1.641,0.485c-0.838,0-1.503-0.258-1.994-0.774c-0.491-0.516-0.737-1.239-0.737-2.17
					c0-0.963,0.248-1.711,0.745-2.243c0.497-0.532,1.141-0.798,1.933-0.798c0.766,0,1.392,0.261,1.878,0.782
					c0.486,0.521,0.729,1.255,0.729,2.2c0,0.058-0.001,0.144-0.005,0.259h-4.274c0.036,0.629,0.214,1.111,0.534,1.445
					c0.32,0.334,0.72,0.501,1.198,0.501c0.356,0,0.66-0.094,0.912-0.281C181.128,152.81,181.328,152.511,181.475,152.102z
					 M178.286,150.533h3.2c-0.043-0.482-0.166-0.843-0.367-1.084c-0.31-0.374-0.711-0.561-1.204-0.561
					c-0.446,0-0.821,0.149-1.125,0.448S178.318,150.033,178.286,150.533z"/>
				<path fill="#1F1A17" d="M187.439,151.848l0.956,0.124c-0.104,0.658-0.372,1.173-0.802,1.545
					c-0.43,0.372-0.958,0.558-1.584,0.558c-0.784,0-1.415-0.256-1.892-0.769c-0.477-0.512-0.715-1.246-0.715-2.203
					c0-0.618,0.103-1.159,0.308-1.623s0.518-0.812,0.937-1.043s0.875-0.348,1.368-0.348c0.623,0,1.132,0.157,1.527,0.472
					c0.396,0.315,0.649,0.761,0.761,1.34l-0.944,0.146c-0.09-0.385-0.25-0.674-0.478-0.868c-0.229-0.194-0.504-0.292-0.828-0.292
					c-0.49,0-0.887,0.175-1.193,0.526c-0.306,0.351-0.459,0.905-0.459,1.664c0,0.77,0.147,1.328,0.443,1.677
					c0.295,0.349,0.68,0.523,1.155,0.523c0.381,0,0.7-0.117,0.955-0.351C187.209,152.693,187.371,152.333,187.439,151.848z"/>
				<path fill="#1F1A17" d="M191.347,153.078l0.141,0.857c-0.273,0.058-0.518,0.086-0.734,0.086c-0.353,0-0.626-0.056-0.82-0.167
					s-0.331-0.258-0.41-0.439c-0.079-0.181-0.119-0.563-0.119-1.146v-3.295h-0.712v-0.755h0.712v-1.418l0.966-0.583v2h0.977v0.755
					h-0.977v3.349c0,0.277,0.017,0.455,0.051,0.534c0.034,0.079,0.09,0.142,0.167,0.189c0.078,0.047,0.188,0.07,0.332,0.07
					C191.028,153.115,191.17,153.103,191.347,153.078z"/>
				<path fill="#1F1A17" d="M194.678,153.946l3.039-7.905h1.128l3.238,7.905h-1.193l-0.923-2.394h-3.309l-0.869,2.394H194.678z
					 M196.961,150.7h2.683l-0.826-2.189c-0.252-0.665-0.439-1.211-0.562-1.639c-0.101,0.507-0.243,1.01-0.426,1.51L196.961,150.7z"
					/>
				<path fill="#1F1A17" d="M202.756,147.157v-1.116h0.972v1.116H202.756z M202.756,153.946v-5.727h0.972v5.727H202.756z"/>
				<path fill="#1F1A17" d="M205.13,153.946v-5.727h0.875v0.868c0.223-0.406,0.429-0.674,0.618-0.803
					c0.189-0.129,0.397-0.194,0.624-0.194c0.328,0,0.66,0.104,0.999,0.313l-0.334,0.9c-0.238-0.14-0.475-0.21-0.712-0.21
					c-0.212,0-0.403,0.064-0.572,0.191c-0.169,0.127-0.29,0.305-0.362,0.531c-0.108,0.345-0.162,0.723-0.162,1.132v2.998H205.13z"/>
			</g>
		</g>
		<g clip-path="url(#SVGID_16_)">
			<defs>
				<rect id="SVGID_19_" x="162.825" y="143.736" width="46.071" height="13.2"/>
			</defs>
			<clipPath id="SVGID_20_">
				<use xlink:href="#SVGID_19_"  overflow="visible"/>
			</clipPath>
			<g clip-path="url(#SVGID_20_)">
			</g>
		</g>
	</g>
	<g clip-path="url(#SVGID_2_)">
		<defs>
			<rect id="SVGID_21_" x="174.466" y="158.747" width="22.42" height="13.2"/>
		</defs>
		<clipPath id="SVGID_22_">
			<use xlink:href="#SVGID_21_"  overflow="visible"/>
		</clipPath>
		<g clip-path="url(#SVGID_22_)">
			<defs>
				<rect id="SVGID_23_" x="174.466" y="158.747" width="22.299" height="13.2"/>
			</defs>
			<clipPath id="SVGID_24_">
				<use xlink:href="#SVGID_23_"  overflow="visible"/>
			</clipPath>
			<g clip-path="url(#SVGID_24_)">
				<path fill="#1F1A17" d="M180.511,161.049h1.047v4.567c0,0.794-0.09,1.425-0.27,1.893c-0.18,0.468-0.505,0.848-0.975,1.141
					c-0.469,0.293-1.085,0.439-1.848,0.439c-0.741,0-1.348-0.127-1.819-0.383c-0.472-0.255-0.808-0.625-1.009-1.108
					c-0.202-0.483-0.302-1.144-0.302-1.982v-4.567h1.047v4.562c0,0.687,0.064,1.193,0.191,1.518
					c0.128,0.325,0.347,0.576,0.659,0.752c0.311,0.176,0.692,0.265,1.142,0.265c0.77,0,1.318-0.175,1.646-0.523
					s0.491-1.019,0.491-2.011V161.049z"/>
				<path fill="#1F1A17" d="M183.111,168.954v-5.727h0.875v0.814c0.421-0.629,1.029-0.944,1.824-0.944
					c0.345,0,0.663,0.062,0.953,0.186s0.506,0.287,0.65,0.488c0.144,0.202,0.245,0.44,0.302,0.717
					c0.036,0.18,0.054,0.495,0.054,0.944v3.521h-0.971v-3.483c0-0.396-0.038-0.691-0.113-0.887c-0.076-0.196-0.21-0.352-0.402-0.469
					c-0.192-0.117-0.418-0.175-0.677-0.175c-0.414,0-0.771,0.131-1.071,0.394c-0.301,0.262-0.451,0.76-0.451,1.494v3.127H183.111z"
					/>
				<path fill="#1F1A17" d="M189.264,162.165v-1.116h0.972v1.116H189.264z M189.264,168.954v-5.727h0.972v5.727H189.264z"/>
				<path fill="#1F1A17" d="M193.758,168.085l0.141,0.857c-0.273,0.058-0.518,0.086-0.734,0.086c-0.353,0-0.626-0.056-0.82-0.167
					s-0.331-0.258-0.41-0.439c-0.079-0.181-0.119-0.563-0.119-1.146v-3.295h-0.712v-0.755h0.712v-1.418l0.966-0.583v2h0.977v0.755
					h-0.977v3.349c0,0.277,0.017,0.455,0.051,0.534c0.034,0.079,0.09,0.142,0.167,0.189c0.078,0.047,0.188,0.07,0.332,0.07
					C193.439,168.123,193.582,168.111,193.758,168.085z"/>
			</g>
		</g>
		<g clip-path="url(#SVGID_22_)">
			<defs>
				<rect id="SVGID_25_" x="174.466" y="158.747" width="22.299" height="13.2"/>
			</defs>
			<clipPath id="SVGID_26_">
				<use xlink:href="#SVGID_25_"  overflow="visible"/>
			</clipPath>
			<g clip-path="url(#SVGID_26_)">
			</g>
		</g>
	</g>
	
		<rect x="155.374" y="218.908" clip-path="url(#SVGID_2_)" fill="none" stroke="#1F1A17" stroke-width="0.2412" stroke-linejoin="round" stroke-miterlimit="10" width="61.927" height="36.995"/>
	<g clip-path="url(#SVGID_2_)">
		<defs>
			<rect id="SVGID_27_" x="162.346" y="224.796" width="46.191" height="13.2"/>
		</defs>
		<clipPath id="SVGID_28_">
			<use xlink:href="#SVGID_27_"  overflow="visible"/>
		</clipPath>
		<g clip-path="url(#SVGID_28_)">
			<defs>
				<rect id="SVGID_29_" x="162.346" y="224.796" width="46.072" height="13.2"/>
			</defs>
			<clipPath id="SVGID_30_">
				<use xlink:href="#SVGID_29_"  overflow="visible"/>
			</clipPath>
			<g clip-path="url(#SVGID_30_)">
				<path fill="#1F1A17" d="M163.199,235.002v-7.905h2.726c0.616,0,1.085,0.038,1.409,0.113c0.454,0.104,0.84,0.293,1.161,0.566
					c0.417,0.353,0.729,0.803,0.937,1.351c0.207,0.548,0.31,1.175,0.31,1.879c0,0.601-0.07,1.132-0.21,1.596
					c-0.14,0.463-0.32,0.847-0.54,1.151c-0.22,0.304-0.46,0.543-0.721,0.717s-0.576,0.307-0.944,0.396
					c-0.369,0.09-0.792,0.135-1.271,0.135H163.199z M164.247,234.07h1.689c0.521,0,0.931-0.049,1.228-0.146
					c0.297-0.097,0.534-0.233,0.71-0.41c0.248-0.248,0.441-0.582,0.58-1c0.139-0.419,0.208-0.927,0.208-1.523
					c0-0.827-0.136-1.462-0.408-1.906s-0.602-0.741-0.99-0.893c-0.281-0.108-0.732-0.162-1.355-0.162h-1.662V234.07z"/>
				<path fill="#1F1A17" d="M170.997,228.214v-1.116h0.972v1.116H170.997z M170.997,235.002v-5.727h0.972v5.727H170.997z"/>
				<path fill="#1F1A17" d="M173.37,235.002v-5.727h0.875v0.868c0.223-0.406,0.429-0.674,0.618-0.803
					c0.189-0.129,0.397-0.194,0.624-0.194c0.328,0,0.66,0.104,0.999,0.313l-0.334,0.9c-0.238-0.14-0.475-0.21-0.712-0.21
					c-0.212,0-0.403,0.064-0.572,0.191c-0.169,0.127-0.29,0.305-0.362,0.531c-0.108,0.345-0.162,0.723-0.162,1.132v2.998H173.37z"/>
				<path fill="#1F1A17" d="M180.997,233.158l1.004,0.124c-0.158,0.586-0.452,1.041-0.88,1.364
					c-0.428,0.324-0.975,0.485-1.641,0.485c-0.838,0-1.503-0.258-1.994-0.774c-0.491-0.516-0.737-1.239-0.737-2.17
					c0-0.963,0.248-1.711,0.745-2.243c0.497-0.532,1.141-0.798,1.933-0.798c0.766,0,1.392,0.261,1.878,0.782
					c0.486,0.521,0.729,1.255,0.729,2.2c0,0.058-0.001,0.144-0.005,0.259h-4.274c0.036,0.629,0.214,1.111,0.534,1.445
					c0.32,0.334,0.72,0.501,1.198,0.501c0.356,0,0.66-0.094,0.912-0.281C180.649,233.867,180.849,233.568,180.997,233.158z
					 M177.807,231.589h3.2c-0.043-0.482-0.166-0.843-0.367-1.084c-0.31-0.374-0.711-0.561-1.204-0.561
					c-0.446,0-0.821,0.149-1.125,0.448S177.839,231.089,177.807,231.589z"/>
				<path fill="#1F1A17" d="M186.96,232.905l0.956,0.124c-0.104,0.658-0.372,1.173-0.802,1.545c-0.43,0.372-0.958,0.558-1.584,0.558
					c-0.784,0-1.415-0.256-1.892-0.769c-0.477-0.512-0.715-1.246-0.715-2.203c0-0.618,0.103-1.159,0.308-1.623
					s0.518-0.812,0.937-1.043s0.875-0.348,1.368-0.348c0.623,0,1.132,0.157,1.527,0.472c0.396,0.315,0.649,0.761,0.761,1.34
					l-0.944,0.146c-0.09-0.385-0.25-0.674-0.478-0.868c-0.229-0.194-0.504-0.292-0.828-0.292c-0.49,0-0.887,0.175-1.193,0.526
					c-0.306,0.351-0.459,0.905-0.459,1.664c0,0.77,0.147,1.328,0.443,1.677c0.295,0.349,0.68,0.523,1.155,0.523
					c0.381,0,0.7-0.117,0.955-0.351C186.73,233.75,186.892,233.39,186.96,232.905z"/>
				<path fill="#1F1A17" d="M190.868,234.134l0.141,0.857c-0.273,0.058-0.518,0.086-0.734,0.086c-0.353,0-0.626-0.056-0.82-0.167
					s-0.331-0.258-0.41-0.439c-0.079-0.181-0.119-0.563-0.119-1.146v-3.295h-0.712v-0.755h0.712v-1.418l0.966-0.583v2h0.977v0.755
					h-0.977v3.349c0,0.277,0.017,0.455,0.051,0.534c0.034,0.079,0.09,0.142,0.167,0.189c0.078,0.047,0.188,0.07,0.332,0.07
					C190.55,234.172,190.692,234.16,190.868,234.134z"/>
				<path fill="#1F1A17" d="M194.2,235.002l3.039-7.905h1.128l3.238,7.905h-1.193l-0.923-2.394h-3.309l-0.869,2.394H194.2z
					 M196.482,231.756h2.683l-0.826-2.189c-0.252-0.665-0.439-1.211-0.562-1.639c-0.101,0.507-0.243,1.01-0.426,1.51
					L196.482,231.756z"/>
				<path fill="#1F1A17" d="M202.278,228.214v-1.116h0.972v1.116H202.278z M202.278,235.002v-5.727h0.972v5.727H202.278z"/>
				<path fill="#1F1A17" d="M204.651,235.002v-5.727h0.875v0.868c0.223-0.406,0.429-0.674,0.618-0.803
					c0.189-0.129,0.397-0.194,0.624-0.194c0.328,0,0.66,0.104,0.999,0.313l-0.334,0.9c-0.238-0.14-0.475-0.21-0.712-0.21
					c-0.212,0-0.403,0.064-0.572,0.191c-0.169,0.127-0.29,0.305-0.362,0.531c-0.108,0.345-0.162,0.723-0.162,1.132v2.998H204.651z"
					/>
			</g>
		</g>
		<g clip-path="url(#SVGID_28_)">
			<defs>
				<rect id="SVGID_31_" x="162.346" y="224.796" width="46.072" height="13.2"/>
			</defs>
			<clipPath id="SVGID_32_">
				<use xlink:href="#SVGID_31_"  overflow="visible"/>
			</clipPath>
			<g clip-path="url(#SVGID_32_)">
			</g>
		</g>
	</g>
	<g clip-path="url(#SVGID_2_)">
		<defs>
			<rect id="SVGID_33_" x="173.978" y="238.237" width="22.444" height="13.225"/>
		</defs>
		<clipPath id="SVGID_34_">
			<use xlink:href="#SVGID_33_"  overflow="visible"/>
		</clipPath>
		<g clip-path="url(#SVGID_34_)">
			<defs>
				<rect id="SVGID_35_" x="173.978" y="238.237" width="22.323" height="13.225"/>
			</defs>
			<clipPath id="SVGID_36_">
				<use xlink:href="#SVGID_35_"  overflow="visible"/>
			</clipPath>
			<g clip-path="url(#SVGID_36_)">
				<path fill="#1F1A17" d="M180.022,240.538h1.047v4.567c0,0.794-0.09,1.425-0.27,1.893c-0.18,0.468-0.505,0.848-0.975,1.141
					c-0.469,0.293-1.085,0.439-1.848,0.439c-0.741,0-1.348-0.127-1.819-0.383c-0.472-0.255-0.808-0.625-1.009-1.108
					c-0.202-0.483-0.302-1.144-0.302-1.982v-4.567h1.047v4.562c0,0.687,0.064,1.193,0.191,1.518
					c0.128,0.325,0.347,0.576,0.659,0.752c0.311,0.176,0.692,0.265,1.142,0.265c0.77,0,1.318-0.175,1.646-0.523
					s0.491-1.019,0.491-2.011V240.538z"/>
				<path fill="#1F1A17" d="M182.622,248.443v-5.727h0.875v0.814c0.421-0.629,1.029-0.944,1.824-0.944
					c0.345,0,0.663,0.062,0.953,0.186s0.506,0.287,0.65,0.488c0.144,0.202,0.245,0.44,0.302,0.717
					c0.036,0.18,0.054,0.495,0.054,0.944v3.521h-0.971v-3.483c0-0.396-0.038-0.691-0.113-0.887c-0.076-0.196-0.21-0.352-0.402-0.469
					c-0.192-0.117-0.418-0.175-0.677-0.175c-0.414,0-0.771,0.131-1.071,0.394c-0.301,0.262-0.451,0.76-0.451,1.494v3.127H182.622z"
					/>
				<path fill="#1F1A17" d="M188.775,241.654v-1.116h0.972v1.116H188.775z M188.775,248.443v-5.727h0.972v5.727H188.775z"/>
				<path fill="#1F1A17" d="M193.269,247.575l0.141,0.857c-0.273,0.058-0.518,0.086-0.734,0.086c-0.353,0-0.626-0.056-0.82-0.167
					s-0.331-0.258-0.41-0.439c-0.079-0.181-0.119-0.563-0.119-1.146v-3.295h-0.712v-0.755h0.712v-1.418l0.966-0.583v2h0.977v0.755
					h-0.977v3.349c0,0.277,0.017,0.455,0.051,0.534c0.034,0.079,0.09,0.142,0.167,0.189c0.078,0.047,0.188,0.07,0.332,0.07
					C192.951,247.612,193.093,247.6,193.269,247.575z"/>
			</g>
		</g>
		<g clip-path="url(#SVGID_34_)">
			<defs>
				<rect id="SVGID_37_" x="173.978" y="238.237" width="22.323" height="13.225"/>
			</defs>
			<clipPath id="SVGID_38_">
				<use xlink:href="#SVGID_37_"  overflow="visible"/>
			</clipPath>
			<g clip-path="url(#SVGID_38_)">
			</g>
		</g>
	</g>
	
		<rect x="80.269" y="0.121" clip-path="url(#SVGID_2_)" fill="none" stroke="#C3C3C2" stroke-width="0.2412" stroke-linejoin="round" stroke-miterlimit="10" width="141.109" height="74.327"/>
	
		<rect x="100.54" y="18.612" clip-path="url(#SVGID_2_)" fill-rule="evenodd" clip-rule="evenodd" fill="#FFFFFF" width="27.247" height="10.57"/>
	
		<rect x="100.54" y="18.607" clip-path="url(#SVGID_2_)" fill="none" stroke="#1F1A17" stroke-width="0.2412" stroke-linejoin="round" stroke-miterlimit="10" width="26.644" height="9.967"/>
	<polygon clip-path="url(#SVGID_2_)" fill-rule="evenodd" clip-rule="evenodd" fill="#FFFFFF" points="108.331,44.071 
		108.819,44.071 109.298,44.071 109.787,44.071 110.146,43.952 110.625,43.832 110.994,43.703 111.473,43.463 111.832,43.344 
		112.171,43.104 112.66,42.866 113.019,42.616 113.378,42.407 113.618,42.158 113.986,41.799 114.346,41.56 114.705,41.201 
		114.944,40.833 115.193,40.474 115.433,40.115 115.672,39.626 115.912,39.268 116.151,38.779 116.371,38.42 116.49,37.942 
		116.61,37.484 116.859,36.996 116.979,36.517 116.979,36.029 117.099,35.55 117.218,35.072 117.218,34.584 117.218,33.986 
		117.218,33.498 117.218,33.019 117.099,32.441 116.979,31.953 116.979,31.475 116.859,30.986 116.61,30.508 116.49,30.149 
		116.371,29.661 116.151,29.182 115.912,28.813 115.672,28.335 115.433,27.977 115.193,27.607 114.944,27.269 114.705,26.91 
		114.346,26.551 113.986,26.183 113.618,25.943 113.378,25.704 113.019,25.345 112.66,25.106 112.171,24.857 111.832,24.737 
		111.473,24.498 110.994,24.378 110.625,24.259 110.146,24.14 109.787,24.02 109.298,24.02 108.819,23.89 108.331,23.89 
		107.972,23.89 107.513,24.02 107.034,24.02 106.675,24.14 106.186,24.259 105.827,24.378 105.338,24.498 104.979,24.737 
		104.62,24.857 104.261,25.106 103.772,25.345 103.433,25.704 103.193,25.943 102.834,26.183 102.475,26.551 102.226,26.91 
		101.867,27.269 101.627,27.607 101.388,27.977 101.148,28.335 100.899,28.813 100.66,29.182 100.42,29.661 100.301,30.149 
		100.181,30.508 99.941,30.986 99.812,31.475 99.812,31.953 99.696,32.441 99.575,33.019 99.575,33.498 99.575,33.986 
		99.575,34.584 99.575,35.072 99.696,35.55 99.812,36.029 99.812,36.517 99.941,36.996 100.181,37.484 100.301,37.942 100.42,38.42 
		100.66,38.779 100.899,39.268 101.148,39.626 101.388,40.115 101.627,40.474 101.867,40.833 102.226,41.201 102.475,41.56 
		102.834,41.799 103.193,42.158 103.433,42.407 103.772,42.616 104.261,42.866 104.62,43.104 104.979,43.344 105.338,43.463 
		105.827,43.703 106.186,43.832 106.675,43.952 107.034,44.071 107.513,44.071 107.972,44.071 	"/>
	
		<polyline clip-path="url(#SVGID_2_)" fill="none" stroke="#1F1A17" stroke-width="0.2412" stroke-linejoin="round" stroke-miterlimit="10" points="
		108.331,44.071 108.819,44.071 109.298,44.071 109.787,44.071 110.146,43.952 110.625,43.832 110.994,43.703 111.473,43.463 
		111.832,43.344 112.171,43.104 112.66,42.866 113.019,42.616 113.378,42.407 113.618,42.158 113.986,41.799 114.346,41.56 
		114.705,41.201 114.944,40.833 115.193,40.474 115.433,40.115 115.672,39.626 115.912,39.268 116.151,38.779 116.371,38.42 
		116.49,37.942 116.61,37.484 116.859,36.996 116.979,36.517 116.979,36.029 117.099,35.55 117.218,35.072 117.218,34.584 
		117.218,33.986 117.218,33.498 117.218,33.019 117.099,32.441 116.979,31.953 116.979,31.475 116.859,30.986 116.61,30.508 
		116.49,30.149 116.371,29.661 116.151,29.182 115.912,28.813 115.672,28.335 115.433,27.977 115.193,27.607 114.944,27.269 
		114.705,26.91 114.346,26.551 113.986,26.183 113.618,25.943 113.378,25.704 113.019,25.345 112.66,25.106 112.171,24.857 
		111.832,24.737 111.473,24.498 110.994,24.378 110.625,24.259 110.146,24.14 109.787,24.02 109.298,24.02 108.819,23.89 
		108.331,23.89 107.972,23.89 107.513,24.02 107.034,24.02 106.675,24.14 106.186,24.259 105.827,24.378 105.338,24.498 
		104.979,24.737 104.62,24.857 104.261,25.106 103.772,25.345 103.433,25.704 103.193,25.943 102.834,26.183 102.475,26.551 
		102.226,26.91 101.867,27.269 101.627,27.607 101.388,27.977 101.148,28.335 100.899,28.813 100.66,29.182 100.42,29.661 
		100.301,30.149 100.181,30.508 99.941,30.986 99.812,31.475 99.812,31.953 99.696,32.441 99.575,33.019 99.575,33.498 
		99.575,33.986 99.575,34.584 99.575,35.072 99.696,35.55 99.812,36.029 99.812,36.517 99.941,36.996 100.181,37.484 
		100.301,37.942 100.42,38.42 100.66,38.779 100.899,39.268 101.148,39.626 101.388,40.115 101.627,40.474 101.867,40.833 
		102.226,41.201 102.475,41.56 102.834,41.799 103.193,42.158 103.433,42.407 103.772,42.616 104.261,42.866 104.62,43.104 
		104.979,43.344 105.338,43.463 105.827,43.703 106.186,43.832 106.675,43.952 107.034,44.071 107.513,44.071 107.972,44.071 
		108.331,44.071 	"/>
	
		<rect x="173.499" y="12.506" clip-path="url(#SVGID_2_)" fill="none" stroke="#1F1A17" stroke-width="0.2412" stroke-linejoin="round" stroke-miterlimit="10" width="3.234" height="9.122"/>
	
		<rect x="173.499" y="22.234" clip-path="url(#SVGID_2_)" fill="none" stroke="#1F1A17" stroke-width="0.2412" stroke-linejoin="round" stroke-miterlimit="10" width="3.234" height="9.001"/>
	
		<rect x="173.499" y="31.83" clip-path="url(#SVGID_2_)" fill="none" stroke="#1F1A17" stroke-width="0.2412" stroke-linejoin="round" stroke-miterlimit="10" width="3.234" height="9.122"/>
	
		<rect x="177.329" y="12.506" clip-path="url(#SVGID_2_)" fill="none" stroke="#1F1A17" stroke-width="0.2412" stroke-linejoin="round" stroke-miterlimit="10" width="3.113" height="9.122"/>
	
		<rect x="177.329" y="22.234" clip-path="url(#SVGID_2_)" fill="none" stroke="#1F1A17" stroke-width="0.2412" stroke-linejoin="round" stroke-miterlimit="10" width="3.113" height="9.001"/>
	
		<rect x="177.329" y="31.83" clip-path="url(#SVGID_2_)" fill="none" stroke="#1F1A17" stroke-width="0.2412" stroke-linejoin="round" stroke-miterlimit="10" width="3.113" height="9.122"/>
	
		<rect x="181.05" y="12.506" clip-path="url(#SVGID_2_)" fill="none" stroke="#1F1A17" stroke-width="0.2412" stroke-linejoin="round" stroke-miterlimit="10" width="3.113" height="9.122"/>
	
		<rect x="181.05" y="22.234" clip-path="url(#SVGID_2_)" fill="none" stroke="#1F1A17" stroke-width="0.2412" stroke-linejoin="round" stroke-miterlimit="10" width="3.113" height="9.001"/>
	
		<rect x="181.05" y="31.83" clip-path="url(#SVGID_2_)" fill="none" stroke="#1F1A17" stroke-width="0.2412" stroke-linejoin="round" stroke-miterlimit="10" width="3.113" height="9.122"/>
	
		<rect x="184.771" y="12.506" clip-path="url(#SVGID_2_)" fill="none" stroke="#1F1A17" stroke-width="0.2412" stroke-linejoin="round" stroke-miterlimit="10" width="3.137" height="9.122"/>
	
		<rect x="184.771" y="22.234" clip-path="url(#SVGID_2_)" fill="none" stroke="#1F1A17" stroke-width="0.2412" stroke-linejoin="round" stroke-miterlimit="10" width="3.137" height="9.001"/>
	
		<rect x="184.771" y="31.83" clip-path="url(#SVGID_2_)" fill="none" stroke="#1F1A17" stroke-width="0.2412" stroke-linejoin="round" stroke-miterlimit="10" width="3.137" height="9.122"/>
	
		<line clip-path="url(#SVGID_2_)" fill="none" stroke="#1F1A17" stroke-width="0.2412" stroke-linejoin="round" stroke-miterlimit="10" x1="127.782" y1="23.89" x2="172.651" y2="24.02"/>
	
		<polyline clip-path="url(#SVGID_2_)" fill="none" stroke="#1F1A17" stroke-width="0.2412" stroke-linejoin="round" stroke-miterlimit="10" points="
		189.329,23.89 274.756,23.89 274.756,76.74 	"/>
	
		<polyline clip-path="url(#SVGID_2_)" fill="none" stroke="#1F1A17" stroke-width="0.2412" stroke-linejoin="round" stroke-miterlimit="10" points="
		99.575,23.053 1.931,23.053 1.931,65.329 	"/>
	
		<line clip-path="url(#SVGID_2_)" fill="none" stroke="#1F1A17" stroke-width="0.2412" stroke-linejoin="round" stroke-miterlimit="10" x1="2.751" y1="83.696" x2="2.872" y2="241.254"/>
	
		<line clip-path="url(#SVGID_2_)" fill="none" stroke="#1F1A17" stroke-width="0.2412" stroke-linejoin="round" stroke-miterlimit="10" x1="275.006" y1="91.27" x2="275.963" y2="239.203"/>
	
		<line clip-path="url(#SVGID_2_)" fill="none" stroke="#1F1A17" stroke-width="0.2412" stroke-linejoin="round" stroke-miterlimit="10" x1="2.751" y1="159.348" x2="59.151" y2="159.467"/>
	
		<line clip-path="url(#SVGID_2_)" fill="none" stroke="#1F1A17" stroke-width="0.2412" stroke-linejoin="round" stroke-miterlimit="10" x1="119.024" y1="159.348" x2="155.972" y2="159.467"/>
	
		<line clip-path="url(#SVGID_2_)" fill="none" stroke="#1F1A17" stroke-width="0.2412" stroke-linejoin="round" stroke-miterlimit="10" x1="219.205" y1="158.5" x2="275.605" y2="158.5"/>
	
		<line clip-path="url(#SVGID_2_)" fill="none" stroke="#1F1A17" stroke-width="0.2412" stroke-linejoin="round" stroke-miterlimit="10" x1="2.751" y1="240.289" x2="58.186" y2="240.41"/>
	
		<line clip-path="url(#SVGID_2_)" fill="none" stroke="#1F1A17" stroke-width="0.2412" stroke-linejoin="round" stroke-miterlimit="10" x1="118.057" y1="240.289" x2="155.015" y2="240.41"/>
	
		<line clip-path="url(#SVGID_2_)" fill="none" stroke="#1F1A17" stroke-width="0.2412" stroke-linejoin="round" stroke-miterlimit="10" x1="218.357" y1="238.6" x2="275.605" y2="238.6"/>
	<polygon clip-path="url(#SVGID_2_)" fill-rule="evenodd" clip-rule="evenodd" fill="#1F1A17" points="33.593,161.64 33.835,161.64 
		34.076,161.64 34.197,161.52 34.438,161.52 34.68,161.401 34.8,161.281 35.042,161.162 35.163,161.042 35.283,160.792 
		35.404,160.673 35.524,160.554 35.646,160.314 35.766,160.075 35.766,159.956 35.766,159.707 35.766,159.467 35.766,159.228 
		35.766,158.989 35.766,158.75 35.646,158.63 35.524,158.381 35.404,158.261 35.283,158.022 35.163,157.903 35.042,157.783 
		34.8,157.664 34.68,157.544 34.438,157.415 34.197,157.294 34.076,157.294 33.835,157.294 33.593,157.294 33.352,157.294 
		33.112,157.294 32.87,157.294 32.75,157.415 32.508,157.544 32.267,157.664 32.146,157.783 32.025,157.903 31.905,158.022 
		31.687,158.261 31.566,158.381 31.566,158.63 31.446,158.75 31.446,158.989 31.325,159.228 31.325,159.467 31.325,159.707 
		31.446,159.956 31.446,160.075 31.566,160.314 31.566,160.554 31.687,160.673 31.905,160.792 32.025,161.042 32.146,161.162 
		32.267,161.281 32.508,161.401 32.75,161.52 32.87,161.52 33.112,161.64 33.352,161.64 	"/>
	
		<polyline clip-path="url(#SVGID_2_)" fill="none" stroke="#1F1A17" stroke-width="0.2412" stroke-linejoin="round" stroke-miterlimit="10" points="
		33.593,161.64 33.835,161.64 34.076,161.64 34.197,161.52 34.438,161.52 34.68,161.401 34.8,161.281 35.042,161.162 
		35.163,161.042 35.283,160.792 35.404,160.673 35.524,160.554 35.646,160.314 35.766,160.075 35.766,159.956 35.766,159.707 
		35.766,159.467 35.766,159.228 35.766,158.989 35.766,158.75 35.646,158.63 35.524,158.381 35.404,158.261 35.283,158.022 
		35.163,157.903 35.042,157.783 34.8,157.664 34.68,157.544 34.438,157.415 34.197,157.294 34.076,157.294 33.835,157.294 
		33.593,157.294 33.352,157.294 33.112,157.294 32.87,157.294 32.75,157.415 32.508,157.544 32.267,157.664 32.146,157.783 
		32.025,157.903 31.905,158.022 31.687,158.261 31.566,158.381 31.566,158.63 31.446,158.75 31.446,158.989 31.325,159.228 
		31.325,159.467 31.325,159.707 31.446,159.956 31.446,160.075 31.566,160.314 31.566,160.554 31.687,160.673 31.905,160.792 
		32.025,161.042 32.146,161.162 32.267,161.281 32.508,161.401 32.75,161.52 32.87,161.52 33.112,161.64 33.352,161.64 
		33.593,161.64 	"/>
	<polygon clip-path="url(#SVGID_2_)" fill-rule="evenodd" clip-rule="evenodd" fill="#1F1A17" points="136.91,161.759 
		137.149,161.759 137.388,161.759 137.488,161.64 137.728,161.64 137.967,161.52 138.097,161.401 138.336,161.281 138.456,161.162 
		138.575,160.922 138.695,160.792 138.815,160.673 138.935,160.434 139.054,160.195 139.054,159.956 139.054,159.836 
		139.174,159.587 139.054,159.348 139.054,159.108 139.054,158.869 138.935,158.75 138.815,158.5 138.695,158.381 138.575,158.142 
		138.456,158.022 138.336,157.903 138.097,157.664 137.967,157.664 137.728,157.544 137.488,157.415 137.388,157.415 
		137.149,157.294 136.91,157.294 136.67,157.294 136.431,157.415 136.181,157.415 136.062,157.544 135.822,157.664 135.583,157.664 
		135.463,157.903 135.343,158.022 135.104,158.142 134.974,158.381 134.854,158.5 134.854,158.75 134.735,158.869 134.735,159.108 
		134.615,159.348 134.615,159.587 134.615,159.836 134.735,159.956 134.735,160.195 134.854,160.434 134.854,160.673 
		134.974,160.792 135.104,160.922 135.343,161.162 135.463,161.281 135.583,161.401 135.822,161.52 136.062,161.64 136.181,161.64 
		136.431,161.759 136.67,161.759 	"/>
	
		<polyline clip-path="url(#SVGID_2_)" fill="none" stroke="#1F1A17" stroke-width="0.2412" stroke-linejoin="round" stroke-miterlimit="10" points="
		136.91,161.759 137.149,161.759 137.388,161.759 137.488,161.64 137.728,161.64 137.967,161.52 138.097,161.401 138.336,161.281 
		138.456,161.162 138.575,160.922 138.695,160.792 138.815,160.673 138.935,160.434 139.054,160.195 139.054,159.956 
		139.054,159.836 139.174,159.587 139.054,159.348 139.054,159.108 139.054,158.869 138.935,158.75 138.815,158.5 138.695,158.381 
		138.575,158.142 138.456,158.022 138.336,157.903 138.097,157.664 137.967,157.664 137.728,157.544 137.488,157.415 
		137.388,157.415 137.149,157.294 136.91,157.294 136.67,157.294 136.431,157.415 136.181,157.415 136.062,157.544 135.822,157.664 
		135.583,157.664 135.463,157.903 135.343,158.022 135.104,158.142 134.974,158.381 134.854,158.5 134.854,158.75 134.735,158.869 
		134.735,159.108 134.615,159.348 134.615,159.587 134.615,159.836 134.735,159.956 134.735,160.195 134.854,160.434 
		134.854,160.673 134.974,160.792 135.104,160.922 135.343,161.162 135.463,161.281 135.583,161.401 135.822,161.52 136.062,161.64 
		136.181,161.64 136.431,161.759 136.67,161.759 136.91,161.759 	"/>
	<polygon clip-path="url(#SVGID_2_)" fill-rule="evenodd" clip-rule="evenodd" fill="#1F1A17" points="139.054,243.161 
		139.174,243.161 139.423,243.161 139.663,243.04 139.902,243.04 140.022,242.919 140.261,242.799 140.381,242.678 140.63,242.558 
		140.75,242.437 140.87,242.196 140.989,242.075 141.109,241.833 141.109,241.592 141.229,241.495 141.229,241.254 141.229,241.013 
		141.229,240.771 141.229,240.53 141.109,240.41 141.109,240.168 140.989,239.926 140.87,239.806 140.75,239.565 140.63,239.444 
		140.381,239.324 140.261,239.203 140.022,239.083 139.902,238.962 139.663,238.962 139.423,238.841 139.174,238.841 
		139.054,238.841 138.815,238.841 138.575,238.841 138.336,238.962 138.097,238.962 137.967,239.083 137.728,239.203 
		137.608,239.324 137.388,239.444 137.269,239.565 137.149,239.806 137.029,239.926 136.91,240.168 136.91,240.41 136.79,240.53 
		136.79,240.771 136.79,241.013 136.79,241.254 136.79,241.495 136.91,241.592 136.91,241.833 137.029,242.075 137.149,242.196 
		137.269,242.437 137.388,242.558 137.608,242.678 137.728,242.799 137.967,242.919 138.097,243.04 138.336,243.04 138.575,243.161 
		138.815,243.161 	"/>
	
		<polyline clip-path="url(#SVGID_2_)" fill="none" stroke="#1F1A17" stroke-width="0.2412" stroke-linejoin="round" stroke-miterlimit="10" points="
		139.054,243.161 139.174,243.161 139.423,243.161 139.663,243.04 139.902,243.04 140.022,242.919 140.261,242.799 140.381,242.678 
		140.63,242.558 140.75,242.437 140.87,242.196 140.989,242.075 141.109,241.833 141.109,241.592 141.229,241.495 141.229,241.254 
		141.229,241.013 141.229,240.771 141.229,240.53 141.109,240.41 141.109,240.168 140.989,239.926 140.87,239.806 140.75,239.565 
		140.63,239.444 140.381,239.324 140.261,239.203 140.022,239.083 139.902,238.962 139.663,238.962 139.423,238.841 
		139.174,238.841 139.054,238.841 138.815,238.841 138.575,238.841 138.336,238.962 138.097,238.962 137.967,239.083 
		137.728,239.203 137.608,239.324 137.388,239.444 137.269,239.565 137.149,239.806 137.029,239.926 136.91,240.168 136.91,240.41 
		136.79,240.53 136.79,240.771 136.79,241.013 136.79,241.254 136.79,241.495 136.91,241.592 136.91,241.833 137.029,242.075 
		137.149,242.196 137.269,242.437 137.388,242.558 137.608,242.678 137.728,242.799 137.967,242.919 138.097,243.04 138.336,243.04 
		138.575,243.161 138.815,243.161 139.054,243.161 	"/>
	<polygon clip-path="url(#SVGID_2_)" fill-rule="evenodd" clip-rule="evenodd" fill="#1F1A17" points="247.514,241.133 
		247.754,241.133 247.994,241.013 248.233,241.013 248.482,240.892 248.602,240.892 248.841,240.771 248.961,240.651 
		249.201,240.41 249.32,240.289 249.44,240.168 249.57,239.926 249.57,239.806 249.689,239.565 249.809,239.324 249.809,239.083 
		249.809,238.962 249.809,238.721 249.809,238.479 249.689,238.237 249.57,237.996 249.57,237.875 249.44,237.634 249.32,237.514 
		249.201,237.393 248.961,237.152 248.841,237.031 248.602,236.911 248.482,236.911 248.233,236.79 247.994,236.79 247.754,236.669 
		247.514,236.669 247.295,236.669 247.055,236.79 246.936,236.79 246.697,236.911 246.447,236.911 246.328,237.031 246.088,237.152 
		245.968,237.393 245.849,237.514 245.729,237.634 245.609,237.875 245.49,237.996 245.37,238.237 245.37,238.479 245.37,238.721 
		245.37,238.962 245.37,239.083 245.37,239.324 245.37,239.565 245.49,239.806 245.609,239.926 245.729,240.168 245.849,240.289 
		245.968,240.41 246.088,240.651 246.328,240.771 246.447,240.892 246.697,240.892 246.936,241.013 247.055,241.013 
		247.295,241.133 	"/>
	
		<polyline clip-path="url(#SVGID_2_)" fill="none" stroke="#1F1A17" stroke-width="0.2412" stroke-linejoin="round" stroke-miterlimit="10" points="
		247.514,241.133 247.754,241.133 247.994,241.013 248.233,241.013 248.482,240.892 248.602,240.892 248.841,240.771 
		248.961,240.651 249.201,240.41 249.32,240.289 249.44,240.168 249.57,239.926 249.57,239.806 249.689,239.565 249.809,239.324 
		249.809,239.083 249.809,238.962 249.809,238.721 249.809,238.479 249.689,238.237 249.57,237.996 249.57,237.875 249.44,237.634 
		249.32,237.514 249.201,237.393 248.961,237.152 248.841,237.031 248.602,236.911 248.482,236.911 248.233,236.79 247.994,236.79 
		247.754,236.669 247.514,236.669 247.295,236.669 247.055,236.79 246.936,236.79 246.697,236.911 246.447,236.911 246.328,237.031 
		246.088,237.152 245.968,237.393 245.849,237.514 245.729,237.634 245.609,237.875 245.49,237.996 245.37,238.237 245.37,238.479 
		245.37,238.721 245.37,238.962 245.37,239.083 245.37,239.324 245.37,239.565 245.49,239.806 245.609,239.926 245.729,240.168 
		245.849,240.289 245.968,240.41 246.088,240.651 246.328,240.771 246.447,240.892 246.697,240.892 246.936,241.013 
		247.055,241.013 247.295,241.133 247.514,241.133 	"/>
	<polygon clip-path="url(#SVGID_2_)" fill-rule="evenodd" clip-rule="evenodd" fill="#1F1A17" points="275.246,94.26 275.485,94.26 
		275.724,94.26 275.844,94.14 276.083,94.021 276.333,94.021 276.453,93.901 276.692,93.782 276.812,93.662 276.931,93.423 
		277.031,93.303 277.151,93.054 277.271,92.935 277.39,92.695 277.39,92.456 277.39,92.336 277.39,92.117 277.39,91.878 
		277.39,91.639 277.39,91.39 277.271,91.151 277.151,91.031 277.031,90.792 276.931,90.672 276.812,90.553 276.692,90.423 
		276.453,90.184 276.333,90.064 276.083,90.064 275.844,89.945 275.724,89.945 275.485,89.825 275.246,89.825 275.006,89.825 
		274.756,89.945 274.517,89.945 274.278,90.064 274.159,90.064 273.918,90.184 273.799,90.423 273.669,90.553 273.43,90.672 
		273.31,90.792 273.191,91.031 273.191,91.151 273.071,91.39 272.952,91.639 272.952,91.878 272.952,92.117 272.952,92.336 
		272.952,92.456 273.071,92.695 273.191,92.935 273.191,93.054 273.31,93.303 273.43,93.423 273.669,93.662 273.799,93.782 
		273.918,93.901 274.159,94.021 274.278,94.021 274.517,94.14 274.756,94.26 275.006,94.26 	"/>
	
		<polyline clip-path="url(#SVGID_2_)" fill="none" stroke="#1F1A17" stroke-width="0.2412" stroke-linejoin="round" stroke-miterlimit="10" points="
		275.246,94.26 275.485,94.26 275.724,94.26 275.844,94.14 276.083,94.021 276.333,94.021 276.453,93.901 276.692,93.782 
		276.812,93.662 276.931,93.423 277.031,93.303 277.151,93.054 277.271,92.935 277.39,92.695 277.39,92.456 277.39,92.336 
		277.39,92.117 277.39,91.878 277.39,91.639 277.39,91.39 277.271,91.151 277.151,91.031 277.031,90.792 276.931,90.672 
		276.812,90.553 276.692,90.423 276.453,90.184 276.333,90.064 276.083,90.064 275.844,89.945 275.724,89.945 275.485,89.825 
		275.246,89.825 275.006,89.825 274.756,89.945 274.517,89.945 274.278,90.064 274.159,90.064 273.918,90.184 273.799,90.423 
		273.669,90.553 273.43,90.672 273.31,90.792 273.191,91.031 273.191,91.151 273.071,91.39 272.952,91.639 272.952,91.878 
		272.952,92.117 272.952,92.336 272.952,92.456 273.071,92.695 273.191,92.935 273.191,93.054 273.31,93.303 273.43,93.423 
		273.669,93.662 273.799,93.782 273.918,93.901 274.159,94.021 274.278,94.021 274.517,94.14 274.756,94.26 275.006,94.26 
		275.246,94.26 	"/>
	<polygon clip-path="url(#SVGID_2_)" fill-rule="evenodd" clip-rule="evenodd" fill="#1F1A17" points="274.637,78.045 
		275.006,78.045 275.125,78.045 275.366,77.926 275.605,77.926 275.724,77.806 275.963,77.687 276.083,77.567 276.333,77.447 
		276.453,77.328 276.573,77.108 276.692,76.989 276.812,76.74 276.812,76.5 276.931,76.381 276.931,76.142 276.931,75.903 
		276.931,75.654 276.931,75.415 276.812,75.295 276.812,75.056 276.692,74.816 276.573,74.697 276.453,74.448 276.333,74.328 
		276.083,74.208 275.963,74.089 275.724,73.969 275.605,73.85 275.366,73.85 275.125,73.73 275.006,73.73 274.637,73.73 
		274.517,73.73 274.278,73.73 274.039,73.85 273.799,73.85 273.669,73.969 273.43,74.089 273.31,74.208 273.071,74.328 
		272.952,74.448 272.832,74.697 272.732,74.816 272.612,75.056 272.612,75.295 272.493,75.415 272.493,75.654 272.493,75.903 
		272.493,76.142 272.493,76.381 272.612,76.5 272.612,76.74 272.732,76.989 272.832,77.108 272.952,77.328 273.071,77.447 
		273.31,77.567 273.43,77.687 273.669,77.806 273.799,77.926 274.039,77.926 274.278,78.045 274.517,78.045 	"/>
	
		<polyline clip-path="url(#SVGID_2_)" fill="none" stroke="#1F1A17" stroke-width="0.2412" stroke-linejoin="round" stroke-miterlimit="10" points="
		274.637,78.045 275.006,78.045 275.125,78.045 275.366,77.926 275.605,77.926 275.724,77.806 275.963,77.687 276.083,77.567 
		276.333,77.447 276.453,77.328 276.573,77.108 276.692,76.989 276.812,76.74 276.812,76.5 276.931,76.381 276.931,76.142 
		276.931,75.903 276.931,75.654 276.931,75.415 276.812,75.295 276.812,75.056 276.692,74.816 276.573,74.697 276.453,74.448 
		276.333,74.328 276.083,74.208 275.963,74.089 275.724,73.969 275.605,73.85 275.366,73.85 275.125,73.73 275.006,73.73 
		274.637,73.73 274.517,73.73 274.278,73.73 274.039,73.85 273.799,73.85 273.669,73.969 273.43,74.089 273.31,74.208 
		273.071,74.328 272.952,74.448 272.832,74.697 272.732,74.816 272.612,75.056 272.612,75.295 272.493,75.415 272.493,75.654 
		272.493,75.903 272.493,76.142 272.493,76.381 272.612,76.5 272.612,76.74 272.732,76.989 272.832,77.108 272.952,77.328 
		273.071,77.447 273.31,77.567 273.43,77.687 273.669,77.806 273.799,77.926 274.039,77.926 274.278,78.045 274.517,78.045 
		274.637,78.045 	"/>
	<polygon clip-path="url(#SVGID_2_)" fill-rule="evenodd" clip-rule="evenodd" fill="#1F1A17" points="148.66,26.671 148.9,26.671 
		149.149,26.551 149.269,26.551 149.508,26.432 149.748,26.312 149.867,26.183 150.107,26.063 150.207,25.943 150.326,25.824 
		150.446,25.704 150.565,25.465 150.685,25.345 150.815,25.106 150.815,24.857 150.815,24.618 150.815,24.378 150.815,24.14 
		150.815,24.02 150.815,23.771 150.685,23.532 150.565,23.412 150.446,23.173 150.326,23.053 150.207,22.804 150.107,22.685 
		149.867,22.565 149.748,22.475 149.508,22.346 149.269,22.346 149.149,22.226 148.9,22.226 148.66,22.226 148.421,22.226 
		148.182,22.226 147.942,22.346 147.822,22.346 147.573,22.475 147.453,22.565 147.214,22.685 147.094,22.804 146.975,23.053 
		146.855,23.173 146.735,23.412 146.615,23.532 146.486,23.771 146.486,24.02 146.366,24.14 146.366,24.378 146.366,24.618 
		146.486,24.857 146.486,25.106 146.615,25.345 146.735,25.465 146.855,25.704 146.975,25.824 147.094,25.943 147.214,26.063 
		147.453,26.183 147.573,26.312 147.822,26.432 147.942,26.551 148.182,26.551 148.421,26.671 	"/>
	
		<polyline clip-path="url(#SVGID_2_)" fill="none" stroke="#1F1A17" stroke-width="0.2412" stroke-linejoin="round" stroke-miterlimit="10" points="
		148.66,26.671 148.9,26.671 149.149,26.551 149.269,26.551 149.508,26.432 149.748,26.312 149.867,26.183 150.107,26.063 
		150.207,25.943 150.326,25.824 150.446,25.704 150.565,25.465 150.685,25.345 150.815,25.106 150.815,24.857 150.815,24.618 
		150.815,24.378 150.815,24.14 150.815,24.02 150.815,23.771 150.685,23.532 150.565,23.412 150.446,23.173 150.326,23.053 
		150.207,22.804 150.107,22.685 149.867,22.565 149.748,22.475 149.508,22.346 149.269,22.346 149.149,22.226 148.9,22.226 
		148.66,22.226 148.421,22.226 148.182,22.226 147.942,22.346 147.822,22.346 147.573,22.475 147.453,22.565 147.214,22.685 
		147.094,22.804 146.975,23.053 146.855,23.173 146.735,23.412 146.615,23.532 146.486,23.771 146.486,24.02 146.366,24.14 
		146.366,24.378 146.366,24.618 146.486,24.857 146.486,25.106 146.615,25.345 146.735,25.465 146.855,25.704 146.975,25.824 
		147.094,25.943 147.214,26.063 147.453,26.183 147.573,26.312 147.822,26.432 147.942,26.551 148.182,26.551 148.421,26.671 
		148.66,26.671 	"/>
	<polygon clip-path="url(#SVGID_2_)" fill-rule="evenodd" clip-rule="evenodd" fill="#1F1A17" points="2.389,65.817 2.63,65.817 
		2.872,65.817 3.113,65.688 3.234,65.688 3.475,65.568 3.596,65.448 3.837,65.329 3.958,65.209 4.079,65.089 4.32,64.851 
		4.32,64.731 4.44,64.482 4.561,64.243 4.561,64.123 4.682,63.884 4.682,63.645 4.682,63.396 4.561,63.156 4.561,63.037 
		4.44,62.797 4.32,62.558 4.32,62.438 4.079,62.219 3.958,62.1 3.837,61.98 3.596,61.851 3.475,61.731 3.234,61.611 3.113,61.492 
		2.872,61.492 2.63,61.492 2.389,61.492 2.172,61.492 1.931,61.492 1.689,61.492 1.569,61.611 1.327,61.731 1.207,61.851 
		0.965,61.98 0.845,62.1 0.724,62.219 0.482,62.438 0.482,62.558 0.362,62.797 0.241,63.037 0.241,63.156 0.121,63.396 
		0.121,63.645 0.121,63.884 0.241,64.123 0.241,64.243 0.362,64.482 0.482,64.731 0.482,64.851 0.724,65.089 0.845,65.209 
		0.965,65.329 1.207,65.448 1.327,65.568 1.569,65.688 1.689,65.688 1.931,65.817 2.172,65.817 	"/>
	
		<polyline clip-path="url(#SVGID_2_)" fill="none" stroke="#1F1A17" stroke-width="0.2412" stroke-linejoin="round" stroke-miterlimit="10" points="
		2.389,65.817 2.63,65.817 2.872,65.817 3.113,65.688 3.234,65.688 3.475,65.568 3.596,65.448 3.837,65.329 3.958,65.209 
		4.079,65.089 4.32,64.851 4.32,64.731 4.44,64.482 4.561,64.243 4.561,64.123 4.682,63.884 4.682,63.645 4.682,63.396 
		4.561,63.156 4.561,63.037 4.44,62.797 4.32,62.558 4.32,62.438 4.079,62.219 3.958,62.1 3.837,61.98 3.596,61.851 3.475,61.731 
		3.234,61.611 3.113,61.492 2.872,61.492 2.63,61.492 2.389,61.492 2.172,61.492 1.931,61.492 1.689,61.492 1.569,61.611 
		1.327,61.731 1.207,61.851 0.965,61.98 0.845,62.1 0.724,62.219 0.482,62.438 0.482,62.558 0.362,62.797 0.241,63.037 
		0.241,63.156 0.121,63.396 0.121,63.645 0.121,63.884 0.241,64.123 0.241,64.243 0.362,64.482 0.482,64.731 0.482,64.851 
		0.724,65.089 0.845,65.209 0.965,65.329 1.207,65.448 1.327,65.568 1.569,65.688 1.689,65.688 1.931,65.817 2.172,65.817 
		2.389,65.817 	"/>
	<polygon clip-path="url(#SVGID_2_)" fill-rule="evenodd" clip-rule="evenodd" fill="#1F1A17" points="3.113,86.835 3.354,86.835 
		3.596,86.835 3.716,86.716 3.958,86.716 4.199,86.586 4.32,86.466 4.561,86.347 4.682,86.228 4.802,86.108 5.044,85.869 
		5.044,85.749 5.165,85.5 5.285,85.261 5.285,85.141 5.285,84.902 5.406,84.663 5.285,84.414 5.285,84.174 5.285,83.935 
		5.165,83.816 5.044,83.577 5.044,83.457 4.802,83.208 4.682,83.088 4.561,82.968 4.32,82.849 4.199,82.729 3.958,82.61 
		3.716,82.49 3.596,82.49 3.354,82.49 3.113,82.49 2.872,82.49 2.63,82.49 2.389,82.49 2.269,82.61 2.051,82.729 1.81,82.849 
		1.689,82.968 1.569,83.088 1.327,83.208 1.207,83.457 1.086,83.577 1.086,83.816 0.965,83.935 0.965,84.174 0.845,84.414 
		0.845,84.663 0.845,84.902 0.965,85.141 0.965,85.261 1.086,85.5 1.086,85.749 1.207,85.869 1.327,86.108 1.569,86.228 
		1.689,86.347 1.81,86.466 2.051,86.586 2.269,86.716 2.389,86.716 2.63,86.835 2.872,86.835 	"/>
	
		<polyline clip-path="url(#SVGID_2_)" fill="none" stroke="#1F1A17" stroke-width="0.2412" stroke-linejoin="round" stroke-miterlimit="10" points="
		3.113,86.835 3.354,86.835 3.596,86.835 3.716,86.716 3.958,86.716 4.199,86.586 4.32,86.466 4.561,86.347 4.682,86.228 
		4.802,86.108 5.044,85.869 5.044,85.749 5.165,85.5 5.285,85.261 5.285,85.141 5.285,84.902 5.406,84.663 5.285,84.414 
		5.285,84.174 5.285,83.935 5.165,83.816 5.044,83.577 5.044,83.457 4.802,83.208 4.682,83.088 4.561,82.968 4.32,82.849 
		4.199,82.729 3.958,82.61 3.716,82.49 3.596,82.49 3.354,82.49 3.113,82.49 2.872,82.49 2.63,82.49 2.389,82.49 2.269,82.61 
		2.051,82.729 1.81,82.849 1.689,82.968 1.569,83.088 1.327,83.208 1.207,83.457 1.086,83.577 1.086,83.816 0.965,83.935 
		0.965,84.174 0.845,84.414 0.845,84.663 0.845,84.902 0.965,85.141 0.965,85.261 1.086,85.5 1.086,85.749 1.207,85.869 
		1.327,86.108 1.569,86.228 1.689,86.347 1.81,86.466 2.051,86.586 2.269,86.716 2.389,86.716 2.63,86.835 2.872,86.835 
		3.113,86.835 	"/>
	<polygon clip-path="url(#SVGID_2_)" fill-rule="evenodd" clip-rule="evenodd" fill="#1F1A17" points="240.203,160.075 
		240.442,160.075 240.681,159.956 240.801,159.956 241.05,159.956 241.29,159.836 241.41,159.707 241.649,159.587 241.769,159.467 
		241.888,159.228 242.008,159.108 242.127,158.869 242.248,158.75 242.377,158.5 242.377,158.261 242.377,158.142 242.377,157.903 
		242.377,157.664 242.377,157.415 242.377,157.175 242.248,156.936 242.127,156.836 242.008,156.597 241.888,156.478 
		241.769,156.358 241.649,156.119 241.41,155.999 241.29,155.87 241.05,155.87 240.801,155.75 240.681,155.75 240.442,155.63 
		240.203,155.63 239.963,155.63 239.714,155.75 239.474,155.75 239.355,155.87 239.116,155.87 238.896,155.999 238.776,156.119 
		238.657,156.358 238.417,156.478 238.417,156.597 238.178,156.836 238.178,156.936 238.058,157.175 238.058,157.415 
		237.928,157.664 237.928,157.903 237.928,158.142 238.058,158.261 238.058,158.5 238.178,158.75 238.178,158.869 238.417,159.108 
		238.417,159.228 238.657,159.467 238.776,159.587 238.896,159.707 239.116,159.836 239.355,159.956 239.474,159.956 
		239.714,159.956 239.963,160.075 	"/>
	
		<polyline clip-path="url(#SVGID_2_)" fill="none" stroke="#1F1A17" stroke-width="0.2412" stroke-linejoin="round" stroke-miterlimit="10" points="
		240.203,160.075 240.442,160.075 240.681,159.956 240.801,159.956 241.05,159.956 241.29,159.836 241.41,159.707 241.649,159.587 
		241.769,159.467 241.888,159.228 242.008,159.108 242.127,158.869 242.248,158.75 242.377,158.5 242.377,158.261 242.377,158.142 
		242.377,157.903 242.377,157.664 242.377,157.415 242.377,157.175 242.248,156.936 242.127,156.836 242.008,156.597 
		241.888,156.478 241.769,156.358 241.649,156.119 241.41,155.999 241.29,155.87 241.05,155.87 240.801,155.75 240.681,155.75 
		240.442,155.63 240.203,155.63 239.963,155.63 239.714,155.75 239.474,155.75 239.355,155.87 239.116,155.87 238.896,155.999 
		238.776,156.119 238.657,156.358 238.417,156.478 238.417,156.597 238.178,156.836 238.178,156.936 238.058,157.175 
		238.058,157.415 237.928,157.664 237.928,157.903 237.928,158.142 238.058,158.261 238.058,158.5 238.178,158.75 238.178,158.869 
		238.417,159.108 238.417,159.228 238.657,159.467 238.776,159.587 238.896,159.707 239.116,159.836 239.355,159.956 
		239.474,159.956 239.714,159.956 239.963,160.075 240.203,160.075 	"/>
	<polygon clip-path="url(#SVGID_2_)" fill-rule="evenodd" clip-rule="evenodd" fill="#1F1A17" points="24.229,242.678 
		24.471,242.678 24.712,242.558 24.954,242.558 25.075,242.437 25.316,242.437 25.558,242.316 25.678,242.196 25.799,242.075 
		26.04,241.833 26.161,241.712 26.282,241.495 26.282,241.375 26.402,241.133 26.523,240.892 26.523,240.651 26.523,240.41 
		26.523,240.289 26.523,240.048 26.402,239.806 26.282,239.565 26.282,239.444 26.161,239.203 26.04,239.083 25.799,238.962 
		25.678,238.721 25.558,238.6 25.316,238.6 25.075,238.479 24.954,238.359 24.712,238.359 24.471,238.237 24.229,238.237 
		23.988,238.237 23.747,238.359 23.506,238.359 23.386,238.479 23.168,238.6 23.048,238.6 22.806,238.721 22.686,238.962 
		22.565,239.083 22.444,239.203 22.203,239.444 22.203,239.565 22.082,239.806 22.082,240.048 21.961,240.289 21.961,240.41 
		21.961,240.651 22.082,240.892 22.082,241.133 22.203,241.375 22.203,241.495 22.444,241.712 22.565,241.833 22.686,242.075 
		22.806,242.196 23.048,242.316 23.168,242.437 23.386,242.437 23.506,242.558 23.747,242.558 23.988,242.678 	"/>
	
		<polyline clip-path="url(#SVGID_2_)" fill="none" stroke="#1F1A17" stroke-width="0.2412" stroke-linejoin="round" stroke-miterlimit="10" points="
		24.229,242.678 24.471,242.678 24.712,242.558 24.954,242.558 25.075,242.437 25.316,242.437 25.558,242.316 25.678,242.196 
		25.799,242.075 26.04,241.833 26.161,241.712 26.282,241.495 26.282,241.375 26.402,241.133 26.523,240.892 26.523,240.651 
		26.523,240.41 26.523,240.289 26.523,240.048 26.402,239.806 26.282,239.565 26.282,239.444 26.161,239.203 26.04,239.083 
		25.799,238.962 25.678,238.721 25.558,238.6 25.316,238.6 25.075,238.479 24.954,238.359 24.712,238.359 24.471,238.237 
		24.229,238.237 23.988,238.237 23.747,238.359 23.506,238.359 23.386,238.479 23.168,238.6 23.048,238.6 22.806,238.721 
		22.686,238.962 22.565,239.083 22.444,239.203 22.203,239.444 22.203,239.565 22.082,239.806 22.082,240.048 21.961,240.289 
		21.961,240.41 21.961,240.651 22.082,240.892 22.082,241.133 22.203,241.375 22.203,241.495 22.444,241.712 22.565,241.833 
		22.686,242.075 22.806,242.196 23.048,242.316 23.168,242.437 23.386,242.437 23.506,242.558 23.747,242.558 23.988,242.678 
		24.229,242.678 	"/>
	<g clip-path="url(#SVGID_2_)">
		<defs>
			<rect id="SVGID_39_" x="128.75" y="1.811" width="41.63" height="13.2"/>
		</defs>
		<clipPath id="SVGID_40_">
			<use xlink:href="#SVGID_39_"  overflow="visible"/>
		</clipPath>
		<g clip-path="url(#SVGID_40_)">
			<defs>
				<rect id="SVGID_41_" x="128.75" y="1.811" width="41.51" height="13.2"/>
			</defs>
			<clipPath id="SVGID_42_">
				<use xlink:href="#SVGID_41_"  overflow="visible"/>
			</clipPath>
			<g clip-path="url(#SVGID_42_)">
				<path fill="#1F1A17" d="M129.657,12.02V4.115h5.338v0.933h-4.291v2.448h3.713v0.933h-3.713v3.591H129.657z"/>
				<path fill="#1F1A17" d="M139.954,12.02v-0.841c-0.446,0.647-1.052,0.971-1.819,0.971c-0.338,0-0.654-0.064-0.947-0.194
					c-0.293-0.129-0.511-0.292-0.653-0.488s-0.242-0.436-0.299-0.72c-0.04-0.19-0.06-0.493-0.06-0.906V6.293h0.972V9.47
					c0,0.507,0.02,0.848,0.059,1.024c0.061,0.255,0.191,0.456,0.389,0.601s0.442,0.218,0.734,0.218s0.565-0.074,0.82-0.224
					c0.256-0.149,0.437-0.352,0.542-0.609c0.106-0.257,0.159-0.63,0.159-1.119V6.293h0.972v5.727H139.954z"/>
				<path fill="#1F1A17" d="M142.334,12.02V6.293h0.875v0.868c0.223-0.406,0.429-0.674,0.618-0.803
					c0.189-0.129,0.397-0.194,0.624-0.194c0.328,0,0.66,0.104,0.999,0.313l-0.334,0.9c-0.238-0.14-0.475-0.21-0.712-0.21
					c-0.212,0-0.403,0.064-0.572,0.191c-0.169,0.127-0.29,0.305-0.362,0.531c-0.108,0.345-0.162,0.723-0.162,1.132v2.998H142.334z"
					/>
				<path fill="#1F1A17" d="M146.025,12.02V6.293h0.875v0.814c0.421-0.629,1.029-0.944,1.824-0.944c0.345,0,0.663,0.062,0.953,0.186
					s0.506,0.287,0.65,0.488c0.144,0.202,0.245,0.44,0.302,0.717c0.036,0.18,0.054,0.495,0.054,0.944v3.521h-0.971V8.537
					c0-0.396-0.038-0.691-0.113-0.887c-0.076-0.196-0.21-0.352-0.402-0.469c-0.192-0.117-0.418-0.175-0.677-0.175
					c-0.414,0-0.771,0.131-1.071,0.394c-0.301,0.262-0.451,0.76-0.451,1.494v3.127H146.025z"/>
				<path fill="#1F1A17" d="M155.913,11.313c-0.36,0.306-0.706,0.521-1.039,0.647c-0.333,0.125-0.69,0.188-1.072,0.188
					c-0.629,0-1.113-0.154-1.452-0.461c-0.338-0.308-0.507-0.7-0.507-1.178c0-0.28,0.064-0.537,0.191-0.769
					c0.128-0.232,0.295-0.418,0.502-0.558c0.207-0.14,0.44-0.246,0.699-0.318c0.19-0.05,0.479-0.099,0.863-0.146
					c0.785-0.094,1.362-0.205,1.733-0.334c0.003-0.133,0.005-0.218,0.005-0.253c0-0.396-0.092-0.674-0.275-0.836
					c-0.249-0.219-0.617-0.329-1.106-0.329c-0.457,0-0.794,0.08-1.012,0.24s-0.378,0.443-0.483,0.849l-0.95-0.129
					c0.086-0.406,0.228-0.734,0.426-0.984c0.198-0.25,0.484-0.442,0.858-0.577c0.375-0.135,0.808-0.202,1.301-0.202
					c0.489,0,0.887,0.058,1.193,0.172c0.306,0.115,0.531,0.26,0.675,0.434c0.144,0.175,0.245,0.395,0.302,0.661
					c0.032,0.166,0.048,0.464,0.048,0.895v1.294c0,0.902,0.021,1.473,0.062,1.712c0.042,0.239,0.124,0.468,0.246,0.688h-1.015
					C156.007,11.819,155.942,11.583,155.913,11.313z M155.833,9.146c-0.353,0.144-0.882,0.266-1.587,0.367
					c-0.399,0.058-0.682,0.122-0.848,0.194c-0.166,0.072-0.293,0.177-0.383,0.315c-0.09,0.139-0.135,0.292-0.135,0.461
					c0,0.259,0.098,0.474,0.294,0.647c0.196,0.172,0.483,0.259,0.861,0.259c0.374,0,0.707-0.082,0.999-0.246
					c0.291-0.163,0.505-0.387,0.642-0.671c0.104-0.219,0.157-0.543,0.157-0.971V9.146z"/>
				<path fill="#1F1A17" d="M162.061,9.922l0.956,0.124c-0.104,0.658-0.372,1.173-0.802,1.545c-0.43,0.372-0.958,0.558-1.584,0.558
					c-0.784,0-1.415-0.256-1.892-0.769c-0.477-0.512-0.715-1.246-0.715-2.203c0-0.618,0.103-1.159,0.308-1.623
					s0.518-0.812,0.937-1.043s0.875-0.348,1.368-0.348c0.623,0,1.132,0.157,1.527,0.472c0.396,0.315,0.649,0.761,0.761,1.34
					l-0.944,0.146c-0.09-0.385-0.25-0.674-0.478-0.868c-0.229-0.194-0.504-0.292-0.828-0.292c-0.49,0-0.887,0.175-1.193,0.526
					c-0.306,0.351-0.459,0.905-0.459,1.664c0,0.77,0.147,1.328,0.443,1.677c0.295,0.349,0.68,0.523,1.155,0.523
					c0.381,0,0.7-0.117,0.955-0.351C161.831,10.767,161.992,10.408,162.061,9.922z"/>
				<path fill="#1F1A17" d="M167.771,10.176l1.004,0.124c-0.158,0.586-0.452,1.041-0.88,1.364c-0.428,0.324-0.975,0.485-1.641,0.485
					c-0.838,0-1.503-0.258-1.994-0.774c-0.491-0.516-0.737-1.239-0.737-2.17c0-0.963,0.248-1.711,0.745-2.243
					c0.497-0.532,1.141-0.798,1.933-0.798c0.766,0,1.392,0.261,1.878,0.782c0.486,0.521,0.729,1.255,0.729,2.2
					c0,0.058-0.001,0.144-0.005,0.259h-4.274c0.036,0.629,0.214,1.111,0.534,1.445c0.32,0.334,0.72,0.501,1.198,0.501
					c0.356,0,0.66-0.094,0.912-0.281C167.424,10.884,167.624,10.585,167.771,10.176z M164.582,8.607h3.2
					c-0.043-0.482-0.166-0.843-0.367-1.084c-0.31-0.374-0.711-0.561-1.204-0.561c-0.446,0-0.821,0.149-1.125,0.448
					S164.614,8.107,164.582,8.607z"/>
			</g>
		</g>
		<g clip-path="url(#SVGID_40_)">
			<defs>
				<rect id="SVGID_43_" x="128.75" y="1.811" width="41.51" height="13.2"/>
			</defs>
			<clipPath id="SVGID_44_">
				<use xlink:href="#SVGID_43_"  overflow="visible"/>
			</clipPath>
			<g clip-path="url(#SVGID_44_)">
			</g>
		</g>
	</g>
	<g clip-path="url(#SVGID_2_)">
		<defs>
			<rect id="SVGID_45_" x="96.824" y="45.033" width="22.082" height="13.2"/>
		</defs>
		<clipPath id="SVGID_46_">
			<use xlink:href="#SVGID_45_"  overflow="visible"/>
		</clipPath>
		<g clip-path="url(#SVGID_46_)">
			<defs>
				<rect id="SVGID_47_" x="96.824" y="45.033" width="21.961" height="13.2"/>
			</defs>
			<clipPath id="SVGID_48_">
				<use xlink:href="#SVGID_47_"  overflow="visible"/>
			</clipPath>
			<g clip-path="url(#SVGID_48_)">
				<path fill="#1F1A17" d="M97.731,55.242v-7.905h5.338v0.933h-4.291v2.448h3.713v0.933h-3.713v3.591H97.731z"/>
				<path fill="#1F1A17" d="M108.012,54.535c-0.36,0.306-0.706,0.521-1.039,0.647c-0.333,0.125-0.69,0.188-1.072,0.188
					c-0.629,0-1.113-0.154-1.452-0.461c-0.338-0.308-0.507-0.7-0.507-1.178c0-0.28,0.064-0.537,0.191-0.769
					c0.128-0.232,0.295-0.418,0.502-0.558c0.207-0.14,0.44-0.246,0.699-0.318c0.19-0.05,0.479-0.099,0.863-0.146
					c0.785-0.094,1.362-0.205,1.733-0.334c0.003-0.133,0.005-0.218,0.005-0.253c0-0.396-0.092-0.674-0.275-0.836
					c-0.249-0.219-0.617-0.329-1.106-0.329c-0.457,0-0.794,0.08-1.012,0.24s-0.378,0.443-0.483,0.849l-0.95-0.129
					c0.086-0.406,0.228-0.734,0.426-0.984c0.198-0.25,0.484-0.442,0.858-0.577c0.375-0.135,0.808-0.202,1.301-0.202
					c0.489,0,0.887,0.058,1.193,0.172c0.306,0.115,0.531,0.26,0.675,0.434c0.144,0.175,0.245,0.395,0.302,0.661
					c0.032,0.166,0.048,0.464,0.048,0.895v1.294c0,0.902,0.021,1.473,0.062,1.712c0.042,0.239,0.124,0.468,0.246,0.688h-1.015
					C108.105,55.041,108.041,54.805,108.012,54.535z M107.931,52.368c-0.353,0.144-0.882,0.266-1.587,0.367
					c-0.399,0.058-0.682,0.122-0.848,0.194c-0.166,0.072-0.293,0.177-0.383,0.315c-0.09,0.139-0.135,0.292-0.135,0.461
					c0,0.259,0.098,0.474,0.294,0.647c0.196,0.172,0.483,0.259,0.861,0.259c0.374,0,0.707-0.082,0.999-0.246
					c0.291-0.163,0.505-0.387,0.642-0.671c0.104-0.219,0.157-0.543,0.157-0.971V52.368z"/>
				<path fill="#1F1A17" d="M110.419,55.242v-5.727h0.875v0.814c0.421-0.629,1.029-0.944,1.824-0.944
					c0.345,0,0.663,0.062,0.953,0.186s0.506,0.287,0.65,0.488c0.144,0.202,0.245,0.44,0.302,0.717
					c0.036,0.18,0.054,0.495,0.054,0.944v3.521h-0.971v-3.483c0-0.396-0.038-0.691-0.113-0.887c-0.076-0.196-0.21-0.352-0.402-0.469
					c-0.192-0.117-0.418-0.175-0.677-0.175c-0.414,0-0.771,0.131-1.071,0.394c-0.301,0.262-0.451,0.76-0.451,1.494v3.127H110.419z"
					/>
			</g>
		</g>
		<g clip-path="url(#SVGID_46_)">
			<defs>
				<rect id="SVGID_49_" x="96.824" y="45.033" width="21.961" height="13.2"/>
			</defs>
			<clipPath id="SVGID_50_">
				<use xlink:href="#SVGID_49_"  overflow="visible"/>
			</clipPath>
			<g clip-path="url(#SVGID_50_)">
			</g>
		</g>
	</g>
	<g clip-path="url(#SVGID_2_)">
		<defs>
			<rect id="SVGID_51_" x="172.531" y="59.324" width="21.961" height="13.2"/>
		</defs>
		<clipPath id="SVGID_52_">
			<use xlink:href="#SVGID_51_"  overflow="visible"/>
		</clipPath>
		<g clip-path="url(#SVGID_52_)">
			<defs>
				<rect id="SVGID_53_" x="172.531" y="59.324" width="21.841" height="13.2"/>
			</defs>
			<clipPath id="SVGID_54_">
				<use xlink:href="#SVGID_53_"  overflow="visible"/>
			</clipPath>
			<g clip-path="url(#SVGID_54_)">
				<path fill="#1F1A17" d="M179.029,66.751l1.047,0.264c-0.22,0.859-0.615,1.514-1.185,1.965c-0.57,0.451-1.268,0.677-2.092,0.677
					c-0.853,0-1.546-0.173-2.081-0.521c-0.534-0.347-0.941-0.849-1.22-1.507s-0.418-1.364-0.418-2.119
					c0-0.823,0.158-1.542,0.473-2.154c0.314-0.613,0.763-1.079,1.344-1.396c0.581-0.318,1.221-0.478,1.918-0.478
					c0.792,0,1.458,0.202,1.997,0.604c0.54,0.403,0.916,0.969,1.128,1.699l-1.031,0.243c-0.184-0.575-0.45-0.994-0.799-1.256
					c-0.349-0.263-0.788-0.394-1.317-0.394c-0.608,0-1.116,0.146-1.524,0.437c-0.409,0.291-0.696,0.682-0.861,1.173
					c-0.166,0.491-0.249,0.997-0.249,1.518c0,0.672,0.098,1.259,0.294,1.76c0.196,0.501,0.501,0.876,0.915,1.125
					s0.862,0.372,1.344,0.372c0.587,0,1.083-0.169,1.49-0.507S178.886,67.417,179.029,66.751z"/>
				<path fill="#1F1A17" d="M180.814,66.66c0-1.061,0.295-1.846,0.885-2.356c0.493-0.424,1.094-0.636,1.803-0.636
					c0.788,0,1.432,0.258,1.932,0.774c0.5,0.516,0.75,1.229,0.75,2.138c0,0.737-0.111,1.317-0.332,1.739s-0.543,0.75-0.966,0.984
					c-0.423,0.234-0.885,0.351-1.385,0.351c-0.802,0-1.451-0.257-1.946-0.771C181.062,68.367,180.814,67.627,180.814,66.66z
					 M181.813,66.66c0,0.733,0.16,1.283,0.48,1.647s0.723,0.547,1.209,0.547c0.482,0,0.883-0.184,1.204-0.55s0.48-0.925,0.48-1.677
					c0-0.708-0.161-1.245-0.483-1.61c-0.322-0.365-0.723-0.547-1.201-0.547c-0.486,0-0.889,0.182-1.209,0.545
					S181.813,65.926,181.813,66.66z"/>
				<path fill="#1F1A17" d="M187.329,62.734v-1.116h0.972v1.116H187.329z M187.329,69.523v-5.727h0.972v5.727H187.329z"/>
				<path fill="#1F1A17" d="M189.68,69.523v-7.905h0.972v7.905H189.68z"/>
			</g>
		</g>
		<g clip-path="url(#SVGID_52_)">
			<defs>
				<rect id="SVGID_55_" x="172.531" y="59.324" width="21.841" height="13.2"/>
			</defs>
			<clipPath id="SVGID_56_">
				<use xlink:href="#SVGID_55_"  overflow="visible"/>
			</clipPath>
			<g clip-path="url(#SVGID_56_)">
			</g>
		</g>
	</g>
	<g clip-path="url(#SVGID_2_)">
		<defs>
			<rect id="SVGID_57_" x="11.391" y="50.684" width="42.234" height="13.2"/>
		</defs>
		<clipPath id="SVGID_58_">
			<use xlink:href="#SVGID_57_"  overflow="visible"/>
		</clipPath>
		<g clip-path="url(#SVGID_58_)">
			<defs>
				<rect id="SVGID_59_" x="11.391" y="50.684" width="42.113" height="13.2"/>
			</defs>
			<clipPath id="SVGID_60_">
				<use xlink:href="#SVGID_59_"  overflow="visible"/>
			</clipPath>
			<g clip-path="url(#SVGID_60_)">
				<path fill="#1F1A17" d="M11.375,60.892l3.039-7.905h1.128l3.238,7.905h-1.193l-0.923-2.394h-3.309l-0.869,2.394H11.375z
					 M13.657,57.646h2.683l-0.826-2.189c-0.252-0.665-0.439-1.211-0.562-1.639c-0.101,0.507-0.243,1.01-0.426,1.51L13.657,57.646z"
					/>
				<path fill="#1F1A17" d="M19.453,54.104v-1.116h0.972v1.116H19.453z M19.453,60.892v-5.727h0.972v5.727H19.453z"/>
				<path fill="#1F1A17" d="M21.826,60.892v-5.727h0.875v0.868c0.223-0.406,0.429-0.674,0.618-0.803
					c0.189-0.129,0.397-0.194,0.624-0.194c0.328,0,0.66,0.104,0.999,0.313l-0.334,0.9c-0.238-0.14-0.475-0.21-0.712-0.21
					c-0.212,0-0.403,0.064-0.572,0.191c-0.169,0.127-0.29,0.305-0.362,0.531c-0.108,0.345-0.162,0.723-0.162,1.132v2.998H21.826z"/>
				<path fill="#1F1A17" d="M28.714,60.892v-7.905h1.047v6.972h3.897v0.933H28.714z"/>
				<path fill="#1F1A17" d="M34.419,58.029c0-1.061,0.295-1.846,0.885-2.356c0.493-0.424,1.094-0.636,1.803-0.636
					c0.788,0,1.432,0.258,1.932,0.774c0.5,0.516,0.75,1.229,0.75,2.138c0,0.737-0.111,1.317-0.332,1.739s-0.543,0.75-0.966,0.984
					c-0.423,0.234-0.885,0.351-1.385,0.351c-0.802,0-1.451-0.257-1.946-0.771C34.666,59.736,34.419,58.996,34.419,58.029z
					 M35.417,58.029c0,0.733,0.16,1.283,0.48,1.647s0.723,0.547,1.209,0.547c0.482,0,0.883-0.184,1.204-0.55s0.48-0.925,0.48-1.677
					c0-0.708-0.161-1.245-0.483-1.61c-0.322-0.365-0.723-0.547-1.201-0.547c-0.486,0-0.889,0.182-1.209,0.545
					S35.417,57.295,35.417,58.029z"/>
				<path fill="#1F1A17" d="M40.566,58.029c0-1.061,0.295-1.846,0.885-2.356c0.493-0.424,1.094-0.636,1.803-0.636
					c0.788,0,1.432,0.258,1.932,0.774c0.5,0.516,0.75,1.229,0.75,2.138c0,0.737-0.111,1.317-0.332,1.739s-0.543,0.75-0.966,0.984
					c-0.423,0.234-0.885,0.351-1.385,0.351c-0.802,0-1.451-0.257-1.946-0.771C40.813,59.736,40.566,58.996,40.566,58.029z
					 M41.565,58.029c0,0.733,0.16,1.283,0.48,1.647s0.723,0.547,1.209,0.547c0.482,0,0.883-0.184,1.204-0.55s0.48-0.925,0.48-1.677
					c0-0.708-0.161-1.245-0.483-1.61c-0.322-0.365-0.723-0.547-1.201-0.547c-0.486,0-0.889,0.182-1.209,0.545
					S41.565,57.295,41.565,58.029z"/>
				<path fill="#1F1A17" d="M47.031,63.087v-7.921h0.885v0.744c0.208-0.291,0.444-0.51,0.707-0.655s0.581-0.218,0.955-0.218
					c0.49,0,0.921,0.126,1.295,0.377c0.375,0.251,0.657,0.606,0.848,1.065c0.19,0.458,0.286,0.961,0.286,1.507
					c0,0.586-0.105,1.113-0.316,1.583s-0.517,0.829-0.917,1.079c-0.401,0.25-0.823,0.375-1.266,0.375
					c-0.324,0-0.615-0.068-0.872-0.205c-0.257-0.136-0.469-0.309-0.634-0.518v2.788H47.031z M47.911,58.061
					c0,0.737,0.149,1.282,0.448,1.634c0.299,0.353,0.661,0.529,1.085,0.529c0.432,0,0.802-0.183,1.109-0.547s0.461-0.93,0.461-1.696
					c0-0.73-0.15-1.276-0.451-1.64c-0.301-0.363-0.66-0.544-1.077-0.544c-0.414,0-0.78,0.193-1.099,0.58
					C48.07,56.763,47.911,57.324,47.911,58.061z"/>
			</g>
		</g>
		<g clip-path="url(#SVGID_58_)">
			<defs>
				<rect id="SVGID_61_" x="11.391" y="50.684" width="42.113" height="13.2"/>
			</defs>
			<clipPath id="SVGID_62_">
				<use xlink:href="#SVGID_61_"  overflow="visible"/>
			</clipPath>
			<g clip-path="url(#SVGID_62_)">
			</g>
		</g>
	</g>
	<g clip-path="url(#SVGID_2_)">
		<defs>
			<rect id="SVGID_63_" x="7.192" y="87.89" width="101.019" height="18.389"/>
		</defs>
		<clipPath id="SVGID_64_">
			<use xlink:href="#SVGID_63_"  overflow="visible"/>
		</clipPath>
		<g clip-path="url(#SVGID_64_)">
			<defs>
				<rect id="SVGID_65_" x="7.192" y="87.89" width="100.899" height="18.389"/>
			</defs>
			<clipPath id="SVGID_66_">
				<use xlink:href="#SVGID_65_"  overflow="visible"/>
			</clipPath>
			<g clip-path="url(#SVGID_66_)">
				<path fill="#1F1A17" d="M7.413,98.095v-0.971l4.053-5.063c0.288-0.36,0.562-0.672,0.821-0.938H7.872V90.19h5.667v0.933
					l-4.442,5.484l-0.48,0.556h5.052v0.933H7.413z"/>
				<path fill="#1F1A17" d="M14.278,95.232c0-1.061,0.295-1.846,0.885-2.356c0.493-0.424,1.094-0.636,1.803-0.636
					c0.788,0,1.432,0.258,1.932,0.774c0.5,0.516,0.75,1.229,0.75,2.138c0,0.737-0.111,1.317-0.332,1.739s-0.543,0.75-0.966,0.984
					c-0.423,0.234-0.885,0.351-1.385,0.351c-0.802,0-1.451-0.257-1.946-0.771C14.525,96.939,14.278,96.199,14.278,95.232z
					 M15.276,95.232c0,0.733,0.16,1.283,0.48,1.647s0.723,0.547,1.209,0.547c0.482,0,0.883-0.184,1.204-0.55s0.48-0.925,0.48-1.677
					c0-0.708-0.161-1.245-0.483-1.61c-0.322-0.365-0.723-0.547-1.201-0.547c-0.486,0-0.889,0.182-1.209,0.545
					S15.276,94.499,15.276,95.232z"/>
				<path fill="#1F1A17" d="M20.787,98.095v-5.727h0.875v0.814c0.421-0.629,1.029-0.944,1.824-0.944
					c0.345,0,0.663,0.062,0.953,0.186s0.506,0.287,0.65,0.488c0.144,0.202,0.245,0.44,0.302,0.717
					c0.036,0.18,0.054,0.495,0.054,0.944v3.521h-0.971v-3.483c0-0.396-0.038-0.691-0.113-0.887c-0.076-0.196-0.21-0.352-0.402-0.469
					c-0.192-0.117-0.418-0.175-0.677-0.175c-0.414,0-0.771,0.131-1.071,0.394c-0.301,0.262-0.451,0.76-0.451,1.494v3.127H20.787z"/>
				<path fill="#1F1A17" d="M30.858,96.251l1.004,0.124c-0.158,0.586-0.452,1.041-0.88,1.364c-0.428,0.324-0.975,0.485-1.641,0.485
					c-0.838,0-1.503-0.258-1.994-0.774c-0.491-0.516-0.737-1.239-0.737-2.17c0-0.963,0.248-1.711,0.745-2.243
					c0.497-0.532,1.141-0.798,1.933-0.798c0.766,0,1.392,0.261,1.878,0.782c0.486,0.521,0.729,1.255,0.729,2.2
					c0,0.058-0.001,0.144-0.005,0.259h-4.274c0.036,0.629,0.214,1.111,0.534,1.445c0.32,0.334,0.72,0.501,1.198,0.501
					c0.356,0,0.66-0.094,0.912-0.281C30.511,96.959,30.71,96.661,30.858,96.251z M27.668,94.682h3.2
					c-0.043-0.482-0.166-0.843-0.367-1.084c-0.31-0.374-0.711-0.561-1.204-0.561c-0.446,0-0.821,0.149-1.125,0.448
					S27.701,94.182,27.668,94.682z"/>
				<path fill="#1F1A17" d="M36.288,98.095V90.19h5.721v0.933h-4.674v2.421h4.377v0.928h-4.377v2.691h4.857v0.933H36.288z"/>
				<path fill="#1F1A17" d="M47.124,100.29v-2.804c-0.151,0.212-0.362,0.388-0.634,0.528c-0.272,0.14-0.561,0.21-0.866,0.21
					c-0.68,0-1.266-0.271-1.757-0.814c-0.491-0.543-0.737-1.287-0.737-2.232c0-0.575,0.1-1.091,0.299-1.548s0.489-0.802,0.869-1.038
					c0.379-0.235,0.796-0.353,1.25-0.353c0.708,0,1.267,0.298,1.673,0.895v-0.766h0.875v7.921H47.124z M44.128,95.216
					c0,0.737,0.155,1.29,0.464,1.658c0.31,0.368,0.68,0.553,1.112,0.553c0.414,0,0.77-0.175,1.069-0.526s0.448-0.883,0.448-1.599
					c0-0.762-0.157-1.335-0.472-1.72s-0.685-0.577-1.109-0.577c-0.421,0-0.778,0.179-1.071,0.537
					C44.275,93.899,44.128,94.458,44.128,95.216z"/>
				<path fill="#1F1A17" d="M53.462,98.095v-0.841c-0.446,0.647-1.052,0.971-1.819,0.971c-0.338,0-0.654-0.064-0.947-0.194
					c-0.293-0.129-0.511-0.292-0.653-0.488s-0.242-0.436-0.299-0.72c-0.04-0.19-0.06-0.493-0.06-0.906v-3.548h0.972v3.176
					c0,0.507,0.02,0.848,0.059,1.024c0.061,0.255,0.191,0.456,0.389,0.601s0.442,0.218,0.734,0.218s0.565-0.074,0.82-0.224
					c0.256-0.149,0.437-0.352,0.542-0.609c0.106-0.257,0.159-0.63,0.159-1.119v-3.068h0.972v5.727H53.462z"/>
				<path fill="#1F1A17" d="M55.858,91.307V90.19h0.972v1.116H55.858z M55.858,98.095v-5.727h0.972v5.727H55.858z"/>
				<path fill="#1F1A17" d="M58.231,100.29v-7.921h0.885v0.744c0.208-0.291,0.444-0.51,0.707-0.655s0.581-0.218,0.955-0.218
					c0.49,0,0.921,0.126,1.295,0.377c0.375,0.251,0.657,0.606,0.848,1.065c0.19,0.458,0.286,0.961,0.286,1.507
					c0,0.586-0.105,1.113-0.316,1.583s-0.517,0.829-0.917,1.079c-0.401,0.25-0.823,0.375-1.266,0.375
					c-0.324,0-0.615-0.068-0.872-0.205c-0.257-0.136-0.469-0.309-0.634-0.518v2.788H58.231z M59.111,95.264
					c0,0.737,0.149,1.282,0.448,1.634c0.299,0.353,0.661,0.529,1.085,0.529c0.432,0,0.802-0.183,1.109-0.547s0.461-0.93,0.461-1.696
					c0-0.73-0.15-1.276-0.451-1.64C61.463,93.181,61.104,93,60.688,93c-0.414,0-0.78,0.193-1.099,0.58
					C59.271,93.966,59.111,94.527,59.111,95.264z"/>
				<path fill="#1F1A17" d="M64.246,98.095v-5.727h0.869v0.803c0.18-0.28,0.419-0.506,0.718-0.676
					c0.299-0.171,0.639-0.256,1.02-0.256c0.425,0,0.772,0.088,1.044,0.264c0.271,0.176,0.463,0.422,0.575,0.739
					c0.454-0.668,1.043-1.003,1.771-1.003c0.568,0,1.005,0.157,1.312,0.472c0.306,0.315,0.458,0.799,0.458,1.453v3.931h-0.966
					v-3.607c0-0.388-0.032-0.667-0.095-0.838s-0.177-0.308-0.343-0.413c-0.166-0.104-0.36-0.156-0.583-0.156
					c-0.403,0-0.738,0.134-1.004,0.401c-0.267,0.268-0.399,0.697-0.399,1.286v3.327h-0.972v-3.721c0-0.431-0.079-0.755-0.237-0.971
					c-0.159-0.215-0.417-0.323-0.777-0.323c-0.273,0-0.526,0.072-0.758,0.215c-0.232,0.144-0.4,0.354-0.505,0.631
					c-0.104,0.277-0.156,0.676-0.156,1.197v2.971H64.246z"/>
				<path fill="#1F1A17" d="M77.389,96.251l1.004,0.124c-0.158,0.586-0.452,1.041-0.88,1.364c-0.428,0.324-0.975,0.485-1.641,0.485
					c-0.838,0-1.503-0.258-1.994-0.774c-0.491-0.516-0.737-1.239-0.737-2.17c0-0.963,0.248-1.711,0.745-2.243
					c0.497-0.532,1.141-0.798,1.933-0.798c0.766,0,1.392,0.261,1.878,0.782c0.486,0.521,0.729,1.255,0.729,2.2
					c0,0.058-0.001,0.144-0.005,0.259h-4.274c0.036,0.629,0.214,1.111,0.534,1.445c0.32,0.334,0.72,0.501,1.198,0.501
					c0.356,0,0.66-0.094,0.912-0.281C77.042,96.959,77.241,96.661,77.389,96.251z M74.199,94.682h3.2
					c-0.043-0.482-0.166-0.843-0.367-1.084c-0.31-0.374-0.711-0.561-1.204-0.561c-0.446,0-0.821,0.149-1.125,0.448
					S74.231,94.182,74.199,94.682z"/>
				<path fill="#1F1A17" d="M79.612,98.095v-5.727h0.875v0.814c0.421-0.629,1.029-0.944,1.824-0.944
					c0.345,0,0.663,0.062,0.953,0.186s0.506,0.287,0.65,0.488c0.144,0.202,0.245,0.44,0.302,0.717
					c0.036,0.18,0.054,0.495,0.054,0.944v3.521h-0.971v-3.483c0-0.396-0.038-0.691-0.113-0.887c-0.076-0.196-0.21-0.352-0.402-0.469
					c-0.192-0.117-0.418-0.175-0.677-0.175c-0.414,0-0.771,0.131-1.071,0.394c-0.301,0.262-0.451,0.76-0.451,1.494v3.127H79.612z"/>
				<path fill="#1F1A17" d="M87.881,97.227l0.141,0.857c-0.273,0.058-0.518,0.086-0.734,0.086c-0.353,0-0.626-0.056-0.82-0.167
					s-0.331-0.258-0.41-0.439c-0.079-0.181-0.119-0.563-0.119-1.146v-3.295h-0.712v-0.755h0.712v-1.418l0.966-0.583v2h0.977v0.755
					h-0.977v3.349c0,0.277,0.017,0.455,0.051,0.534c0.034,0.079,0.09,0.142,0.167,0.189c0.078,0.047,0.188,0.07,0.332,0.07
					C87.563,97.265,87.705,97.252,87.881,97.227z"/>
			</g>
		</g>
		<g clip-path="url(#SVGID_64_)">
			<defs>
				<rect id="SVGID_67_" x="7.192" y="87.89" width="100.899" height="18.389"/>
			</defs>
			<clipPath id="SVGID_68_">
				<use xlink:href="#SVGID_67_"  overflow="visible"/>
			</clipPath>
			<g clip-path="url(#SVGID_68_)">
			</g>
		</g>
	</g>
	<g clip-path="url(#SVGID_2_)">
		<defs>
			<rect id="SVGID_69_" x="76.431" y="233.315" width="27.584" height="13.2"/>
		</defs>
		<clipPath id="SVGID_70_">
			<use xlink:href="#SVGID_69_"  overflow="visible"/>
		</clipPath>
		<g clip-path="url(#SVGID_70_)">
			<defs>
				<rect id="SVGID_71_" x="76.431" y="233.315" width="27.463" height="13.2"/>
			</defs>
			<clipPath id="SVGID_72_">
				<use xlink:href="#SVGID_71_"  overflow="visible"/>
			</clipPath>
			<g clip-path="url(#SVGID_72_)">
				<path fill="#1F1A17" d="M76.652,243.521v-0.971l4.053-5.063c0.288-0.36,0.562-0.672,0.821-0.938h-4.415v-0.933h5.667v0.933
					l-4.442,5.484l-0.48,0.556h5.052v0.933H76.652z"/>
				<path fill="#1F1A17" d="M83.517,240.658c0-1.061,0.295-1.846,0.885-2.356c0.493-0.424,1.094-0.636,1.803-0.636
					c0.788,0,1.432,0.258,1.932,0.774c0.5,0.516,0.75,1.229,0.75,2.138c0,0.737-0.111,1.317-0.332,1.739s-0.543,0.75-0.966,0.984
					c-0.423,0.234-0.885,0.351-1.385,0.351c-0.802,0-1.451-0.257-1.946-0.771C83.764,242.365,83.517,241.625,83.517,240.658z
					 M84.516,240.658c0,0.733,0.16,1.283,0.48,1.647s0.723,0.547,1.209,0.547c0.482,0,0.883-0.184,1.204-0.55s0.48-0.925,0.48-1.677
					c0-0.708-0.161-1.245-0.483-1.61c-0.322-0.365-0.723-0.547-1.201-0.547c-0.486,0-0.889,0.182-1.209,0.545
					S84.516,239.924,84.516,240.658z"/>
				<path fill="#1F1A17" d="M90.026,243.521v-5.727H90.9v0.814c0.421-0.629,1.029-0.944,1.824-0.944
					c0.345,0,0.663,0.062,0.953,0.186s0.506,0.287,0.65,0.488c0.144,0.202,0.245,0.44,0.302,0.717
					c0.036,0.18,0.054,0.495,0.054,0.944v3.521h-0.971v-3.483c0-0.396-0.038-0.691-0.113-0.887c-0.076-0.196-0.21-0.352-0.402-0.469
					c-0.192-0.117-0.418-0.175-0.677-0.175c-0.414,0-0.771,0.131-1.071,0.394c-0.301,0.262-0.451,0.76-0.451,1.494v3.127H90.026z"/>
				<path fill="#1F1A17" d="M100.097,241.677l1.004,0.124c-0.158,0.586-0.452,1.041-0.88,1.364
					c-0.428,0.324-0.975,0.485-1.641,0.485c-0.838,0-1.503-0.258-1.994-0.774c-0.491-0.516-0.737-1.239-0.737-2.17
					c0-0.963,0.248-1.711,0.745-2.243c0.497-0.532,1.141-0.798,1.933-0.798c0.766,0,1.392,0.261,1.878,0.782
					c0.486,0.521,0.729,1.255,0.729,2.2c0,0.058-0.001,0.144-0.005,0.259h-4.274c0.036,0.629,0.214,1.111,0.534,1.445
					c0.32,0.334,0.72,0.501,1.198,0.501c0.356,0,0.66-0.094,0.912-0.281C99.75,242.385,99.95,242.086,100.097,241.677z
					 M96.908,240.108h3.2c-0.043-0.482-0.166-0.843-0.367-1.084c-0.31-0.374-0.711-0.561-1.204-0.561
					c-0.446,0-0.821,0.149-1.125,0.448S96.94,239.608,96.908,240.108z"/>
			</g>
		</g>
		<g clip-path="url(#SVGID_70_)">
			<defs>
				<rect id="SVGID_73_" x="76.431" y="233.315" width="27.463" height="13.2"/>
			</defs>
			<clipPath id="SVGID_74_">
				<use xlink:href="#SVGID_73_"  overflow="visible"/>
			</clipPath>
			<g clip-path="url(#SVGID_74_)">
			</g>
		</g>
	</g>
	
		<rect x="95.738" y="269.706" clip-path="url(#SVGID_2_)" fill="none" stroke="#FFFFFF" stroke-width="0.2412" stroke-linejoin="round" stroke-miterlimit="10" width="1.81" height="1.448"/>
	<g clip-path="url(#SVGID_2_)">
		<defs>
			<rect id="SVGID_75_" x="162.825" y="44.797" width="40.544" height="16.217"/>
		</defs>
		<clipPath id="SVGID_76_">
			<use xlink:href="#SVGID_75_"  overflow="visible"/>
		</clipPath>
		<g clip-path="url(#SVGID_76_)">
			<defs>
				<rect id="SVGID_77_" x="162.825" y="44.797" width="40.423" height="16.217"/>
			</defs>
			<clipPath id="SVGID_78_">
				<use xlink:href="#SVGID_77_"  overflow="visible"/>
			</clipPath>
			<g clip-path="url(#SVGID_78_)">
				<path d="M163.71,55.002v-7.905h1.047v3.246h4.113v-3.246h1.047v7.905h-1.047v-3.726h-4.113v3.726H163.71z"/>
				<path d="M175.394,53.158l1.004,0.124c-0.158,0.586-0.452,1.041-0.88,1.364c-0.428,0.324-0.975,0.485-1.641,0.485
					c-0.838,0-1.503-0.258-1.994-0.774c-0.491-0.516-0.737-1.239-0.737-2.17c0-0.963,0.248-1.711,0.745-2.243
					c0.497-0.532,1.141-0.798,1.933-0.798c0.766,0,1.392,0.261,1.878,0.782c0.486,0.521,0.729,1.255,0.729,2.2
					c0,0.058-0.001,0.144-0.005,0.259h-4.274c0.036,0.629,0.214,1.111,0.534,1.445c0.32,0.334,0.72,0.501,1.198,0.501
					c0.356,0,0.66-0.094,0.912-0.281C175.046,53.867,175.246,53.568,175.394,53.158z M172.204,51.589h3.2
					c-0.043-0.482-0.166-0.843-0.367-1.084c-0.31-0.374-0.711-0.561-1.204-0.561c-0.446,0-0.821,0.149-1.125,0.448
					S172.236,51.089,172.204,51.589z"/>
				<path d="M181.357,54.296c-0.36,0.306-0.706,0.521-1.039,0.647c-0.333,0.125-0.69,0.188-1.072,0.188
					c-0.629,0-1.113-0.154-1.452-0.461c-0.338-0.308-0.507-0.7-0.507-1.178c0-0.28,0.064-0.537,0.191-0.769
					c0.128-0.232,0.295-0.418,0.502-0.558c0.207-0.14,0.44-0.246,0.699-0.318c0.19-0.05,0.479-0.099,0.863-0.146
					c0.785-0.094,1.362-0.205,1.733-0.334c0.003-0.133,0.005-0.218,0.005-0.253c0-0.396-0.092-0.674-0.275-0.836
					c-0.249-0.219-0.617-0.329-1.106-0.329c-0.457,0-0.794,0.08-1.012,0.24s-0.378,0.443-0.483,0.849l-0.95-0.129
					c0.086-0.406,0.228-0.734,0.426-0.984c0.198-0.25,0.484-0.442,0.858-0.577c0.375-0.135,0.808-0.202,1.301-0.202
					c0.489,0,0.887,0.058,1.193,0.172c0.306,0.115,0.531,0.26,0.675,0.434c0.144,0.175,0.245,0.395,0.302,0.661
					c0.032,0.166,0.048,0.464,0.048,0.895v1.294c0,0.902,0.021,1.473,0.062,1.712c0.042,0.239,0.124,0.468,0.246,0.688h-1.015
					C181.451,54.801,181.386,54.565,181.357,54.296z M181.277,52.128c-0.353,0.144-0.882,0.266-1.587,0.367
					c-0.399,0.058-0.682,0.122-0.848,0.194c-0.166,0.072-0.293,0.177-0.383,0.315c-0.09,0.139-0.135,0.292-0.135,0.461
					c0,0.259,0.098,0.474,0.294,0.647c0.196,0.172,0.483,0.259,0.861,0.259c0.374,0,0.707-0.082,0.999-0.246
					c0.291-0.163,0.505-0.387,0.642-0.671c0.104-0.219,0.157-0.543,0.157-0.971V52.128z"/>
				<path d="M185.886,54.134l0.141,0.857c-0.273,0.058-0.518,0.086-0.734,0.086c-0.353,0-0.626-0.056-0.82-0.167
					s-0.331-0.258-0.41-0.439c-0.079-0.181-0.119-0.563-0.119-1.146v-3.295h-0.712v-0.755h0.712v-1.418l0.966-0.583v2h0.977v0.755
					h-0.977v3.349c0,0.277,0.017,0.455,0.051,0.534c0.034,0.079,0.09,0.142,0.167,0.189c0.078,0.047,0.188,0.07,0.332,0.07
					C185.567,54.172,185.709,54.16,185.886,54.134z"/>
				<path d="M186.841,48.214v-1.116h0.972v1.116H186.841z M186.841,55.002v-5.727h0.972v5.727H186.841z"/>
				<path d="M189.236,55.002v-5.727h0.875v0.814c0.421-0.629,1.029-0.944,1.824-0.944c0.345,0,0.663,0.062,0.953,0.186
					s0.506,0.287,0.65,0.488c0.144,0.202,0.245,0.44,0.302,0.717c0.036,0.18,0.054,0.495,0.054,0.944v3.521h-0.971v-3.483
					c0-0.396-0.038-0.691-0.113-0.887c-0.076-0.196-0.21-0.352-0.402-0.469c-0.192-0.117-0.418-0.175-0.677-0.175
					c-0.414,0-0.771,0.131-1.071,0.394c-0.301,0.262-0.451,0.76-0.451,1.494v3.127H189.236z"/>
				<path d="M195.206,55.477l0.945,0.14c0.04,0.291,0.149,0.503,0.329,0.636c0.241,0.18,0.57,0.27,0.988,0.27
					c0.45,0,0.797-0.09,1.042-0.27s0.41-0.431,0.497-0.755c0.05-0.198,0.074-0.613,0.07-1.246c-0.425,0.5-0.954,0.75-1.587,0.75
					c-0.788,0-1.398-0.284-1.83-0.852c-0.432-0.568-0.647-1.249-0.647-2.043c0-0.546,0.099-1.051,0.296-1.513
					c0.198-0.462,0.485-0.819,0.861-1.07c0.375-0.251,0.817-0.377,1.325-0.377c0.676,0,1.234,0.273,1.673,0.82v-0.69h0.896v4.95
					c0,0.892-0.091,1.523-0.273,1.895s-0.469,0.666-0.863,0.882s-0.879,0.324-1.455,0.324c-0.684,0-1.236-0.154-1.657-0.461
					C195.395,56.558,195.191,56.095,195.206,55.477z M196.01,52.037c0,0.751,0.149,1.3,0.448,1.645
					c0.298,0.345,0.673,0.518,1.123,0.518c0.446,0,0.82-0.172,1.123-0.515s0.454-0.882,0.454-1.615c0-0.701-0.156-1.229-0.467-1.585
					c-0.312-0.356-0.687-0.534-1.125-0.534c-0.432,0-0.799,0.175-1.101,0.526S196.01,51.347,196.01,52.037z"/>
			</g>
		</g>
		<g clip-path="url(#SVGID_76_)">
			<defs>
				<rect id="SVGID_79_" x="162.825" y="44.797" width="40.423" height="16.217"/>
			</defs>
			<clipPath id="SVGID_80_">
				<use xlink:href="#SVGID_79_"  overflow="visible"/>
			</clipPath>
			<g clip-path="url(#SVGID_80_)">
			</g>
		</g>
	</g>
</g>
<g>
</g>
<g>
</g>
</svg>
