<?xml version="1.0" encoding="utf-8"?>
<!-- Generator: Adobe Illustrator 16.0.0, SVG Export Plug-In . SVG Version: 6.00 Build 0)  -->
<!DOCTYPE svg PUBLIC "-//W3C//DTD SVG 1.1//EN" "http://www.w3.org/Graphics/SVG/1.1/DTD/svg11.dtd">
<svg version="1.1" id="Layer_1" xmlns="http://www.w3.org/2000/svg" xmlns:xlink="http://www.w3.org/1999/xlink" x="0px" y="0px"
	 width="313.066px" height="193.202px" viewBox="0 0 313.066 193.202" enable-background="new 0 0 313.066 193.202"
	 xml:space="preserve">
<g>
	<defs>
		<rect id="SVGID_1_" y="0" width="166.549" height="189.801"/>
	</defs>
	<clipPath id="SVGID_2_">
		<use xlink:href="#SVGID_1_"  overflow="visible"/>
	</clipPath>
	
		<line clip-path="url(#SVGID_2_)" fill="none" stroke="#000000" stroke-width="0.2409" stroke-linejoin="round" stroke-miterlimit="10" x1="92.501" y1="25.354" x2="92.501" y2="79.347"/>
	
		<line clip-path="url(#SVGID_2_)" fill="none" stroke="#000000" stroke-width="0.2409" stroke-linejoin="round" stroke-miterlimit="10" x1="128.499" y1="25.354" x2="128.499" y2="34.462"/>
	
		<rect x="83.395" y="79.343" clip-path="url(#SVGID_2_)" fill-rule="evenodd" clip-rule="evenodd" fill="#FFFFFF" width="17.997" height="28.805"/>
	
		<rect x="83.395" y="79.343" clip-path="url(#SVGID_2_)" fill="none" stroke="#000000" stroke-width="0.2409" stroke-linejoin="round" stroke-miterlimit="10" width="17.997" height="28.805"/>
	
		<polyline clip-path="url(#SVGID_2_)" fill="none" stroke="#000000" stroke-width="0.2409" stroke-linejoin="round" stroke-miterlimit="10" points="
		86.744,93.757 87.226,96.167 88.43,97.831 90.358,99.277 92.501,99.518 94.67,99.277 96.598,97.831 97.778,96.167 98.259,93.757 
		97.778,91.587 96.598,89.679 94.67,88.475 92.501,87.997 90.358,88.475 88.43,89.679 87.226,91.587 86.744,93.757 	"/>
	
		<line clip-path="url(#SVGID_2_)" fill="none" stroke="#000000" stroke-width="0.2409" stroke-linejoin="round" stroke-miterlimit="10" x1="90.358" y1="96.625" x2="94.67" y2="96.625"/>
	
		<line clip-path="url(#SVGID_2_)" fill="none" stroke="#000000" stroke-width="0.2409" stroke-linejoin="round" stroke-miterlimit="10" x1="90.358" y1="92.311" x2="94.67" y2="92.311"/>
	
		<line clip-path="url(#SVGID_2_)" fill="none" stroke="#000000" stroke-width="0.2409" stroke-linejoin="round" stroke-miterlimit="10" x1="92.501" y1="90.167" x2="92.501" y2="94.48"/>
	
		<rect x="119.388" y="34.455" clip-path="url(#SVGID_2_)" fill-rule="evenodd" clip-rule="evenodd" fill="#FFFFFF" width="17.997" height="28.805"/>
	
		<rect x="119.388" y="34.455" clip-path="url(#SVGID_2_)" fill="none" stroke="#000000" stroke-width="0.2409" stroke-linejoin="round" stroke-miterlimit="10" width="17.997" height="28.805"/>
	
		<polyline clip-path="url(#SVGID_2_)" fill="none" stroke="#000000" stroke-width="0.2409" stroke-linejoin="round" stroke-miterlimit="10" points="
		122.733,48.876 123.221,51.016 124.426,52.947 126.328,54.152 128.499,54.64 130.66,54.152 132.572,52.947 133.767,51.016 
		134.255,48.876 133.767,46.706 132.572,44.775 130.66,43.6 128.499,43.112 126.328,43.6 124.426,44.775 123.221,46.706 
		122.733,48.876 	"/>
	
		<line clip-path="url(#SVGID_2_)" fill="none" stroke="#000000" stroke-width="0.2409" stroke-linejoin="round" stroke-miterlimit="10" x1="126.328" y1="51.743" x2="130.66" y2="51.743"/>
	
		<line clip-path="url(#SVGID_2_)" fill="none" stroke="#000000" stroke-width="0.2409" stroke-linejoin="round" stroke-miterlimit="10" x1="126.328" y1="47.433" x2="130.66" y2="47.433"/>
	
		<line clip-path="url(#SVGID_2_)" fill="none" stroke="#000000" stroke-width="0.2409" stroke-linejoin="round" stroke-miterlimit="10" x1="128.499" y1="45.263" x2="128.499" y2="49.603"/>
	
		<line clip-path="url(#SVGID_2_)" fill="none" stroke="#000000" stroke-width="0.2409" stroke-linejoin="round" stroke-miterlimit="10" x1="92.501" y1="108.148" x2="92.501" y2="115.355"/>
	<polygon clip-path="url(#SVGID_2_)" fill-rule="evenodd" clip-rule="evenodd" points="92.501,113.451 92.743,113.451 
		93.225,113.451 93.466,113.691 93.707,113.691 93.948,113.908 94.188,114.149 94.43,114.631 94.43,114.873 94.43,115.114 
		94.43,115.355 94.43,115.836 94.43,116.078 94.43,116.318 94.188,116.801 93.948,117.042 93.707,117.042 93.466,117.283 
		93.225,117.524 92.743,117.524 92.501,117.524 92.261,117.524 91.779,117.524 91.538,117.283 91.297,117.042 91.081,117.042 
		90.84,116.801 90.599,116.318 90.599,116.078 90.358,115.836 90.358,115.355 90.358,115.114 90.599,114.873 90.599,114.631 
		90.84,114.149 91.081,113.908 91.297,113.691 91.538,113.691 91.779,113.451 92.261,113.451 	"/>
	
		<polygon clip-path="url(#SVGID_2_)" fill="none" stroke="#000000" stroke-width="0.2409" stroke-linejoin="round" stroke-miterlimit="10" points="
		92.501,113.451 92.743,113.451 93.225,113.451 93.466,113.691 93.707,113.691 93.948,113.908 94.188,114.149 94.43,114.631 
		94.43,114.873 94.43,115.114 94.43,115.355 94.43,115.836 94.43,116.078 94.43,116.318 94.188,116.801 93.948,117.042 
		93.707,117.042 93.466,117.283 93.225,117.524 92.743,117.524 92.501,117.524 92.261,117.524 91.779,117.524 91.538,117.283 
		91.297,117.042 91.081,117.042 90.84,116.801 90.599,116.318 90.599,116.078 90.358,115.836 90.358,115.355 90.358,115.114 
		90.599,114.873 90.599,114.631 90.84,114.149 91.081,113.908 91.297,113.691 91.538,113.691 91.779,113.451 92.261,113.451 	"/>
	
		<line clip-path="url(#SVGID_2_)" fill="none" stroke="#000000" stroke-width="0.2409" stroke-linejoin="round" stroke-miterlimit="10" x1="128.499" y1="63.26" x2="128.499" y2="115.355"/>
	<polygon clip-path="url(#SVGID_2_)" fill-rule="evenodd" clip-rule="evenodd" points="128.499,113.451 128.738,113.451 
		129.216,113.451 129.455,113.691 129.704,113.691 129.943,113.908 130.182,114.149 130.421,114.631 130.421,114.873 
		130.421,115.114 130.421,115.355 130.421,115.836 130.421,116.078 130.421,116.318 130.182,116.801 129.943,117.042 
		129.704,117.042 129.455,117.283 129.216,117.524 128.738,117.524 128.499,117.524 128.25,117.524 127.772,117.524 
		127.533,117.283 127.294,117.042 127.045,117.042 126.806,116.801 126.567,116.318 126.567,116.078 126.328,115.836 
		126.328,115.355 126.328,115.114 126.567,114.873 126.567,114.631 126.806,114.149 127.045,113.908 127.294,113.691 
		127.533,113.691 127.772,113.451 128.25,113.451 	"/>
	
		<polygon clip-path="url(#SVGID_2_)" fill="none" stroke="#000000" stroke-width="0.2409" stroke-linejoin="round" stroke-miterlimit="10" points="
		128.499,113.451 128.738,113.451 129.216,113.451 129.455,113.691 129.704,113.691 129.943,113.908 130.182,114.149 
		130.421,114.631 130.421,114.873 130.421,115.114 130.421,115.355 130.421,115.836 130.421,116.078 130.421,116.318 
		130.182,116.801 129.943,117.042 129.704,117.042 129.455,117.283 129.216,117.524 128.738,117.524 128.499,117.524 
		128.25,117.524 127.772,117.524 127.533,117.283 127.294,117.042 127.045,117.042 126.806,116.801 126.567,116.318 
		126.567,116.078 126.328,115.836 126.328,115.355 126.328,115.114 126.567,114.873 126.567,114.631 126.806,114.149 
		127.045,113.908 127.294,113.691 127.533,113.691 127.772,113.451 128.25,113.451 	"/>
	
		<line clip-path="url(#SVGID_2_)" fill="none" stroke="#000000" stroke-width="0.2409" stroke-linejoin="round" stroke-miterlimit="10" x1="92.501" y1="166.721" x2="92.501" y2="133.36"/>
	<polygon clip-path="url(#SVGID_2_)" fill-rule="evenodd" clip-rule="evenodd" points="92.501,135.53 92.743,135.53 93.225,135.53 
		93.466,135.289 93.707,135.048 93.948,135.048 94.188,134.807 94.43,134.325 94.43,134.084 94.43,133.843 94.43,133.36 
		94.43,133.12 94.43,132.878 94.43,132.638 94.188,132.156 93.948,131.914 93.707,131.673 93.466,131.673 93.225,131.432 
		92.743,131.432 92.501,131.432 92.261,131.432 91.779,131.432 91.538,131.673 91.297,131.673 91.081,131.914 90.84,132.156 
		90.599,132.638 90.599,132.878 90.358,133.12 90.358,133.36 90.358,133.843 90.599,134.084 90.599,134.325 90.84,134.807 
		91.081,135.048 91.297,135.048 91.538,135.289 91.779,135.53 92.261,135.53 	"/>
	
		<polygon clip-path="url(#SVGID_2_)" fill="none" stroke="#000000" stroke-width="0.2409" stroke-linejoin="round" stroke-miterlimit="10" points="
		92.501,135.53 92.743,135.53 93.225,135.53 93.466,135.289 93.707,135.048 93.948,135.048 94.188,134.807 94.43,134.325 
		94.43,134.084 94.43,133.843 94.43,133.36 94.43,133.12 94.43,132.878 94.43,132.638 94.188,132.156 93.948,131.914 
		93.707,131.673 93.466,131.673 93.225,131.432 92.743,131.432 92.501,131.432 92.261,131.432 91.779,131.432 91.538,131.673 
		91.297,131.673 91.081,131.914 90.84,132.156 90.599,132.638 90.599,132.878 90.358,133.12 90.358,133.36 90.358,133.843 
		90.599,134.084 90.599,134.325 90.84,134.807 91.081,135.048 91.297,135.048 91.538,135.289 91.779,135.53 92.261,135.53 	"/>
	
		<line clip-path="url(#SVGID_2_)" fill="none" stroke="#000000" stroke-width="0.2409" stroke-linejoin="round" stroke-miterlimit="10" x1="128.499" y1="166.721" x2="128.499" y2="133.36"/>
	<polygon clip-path="url(#SVGID_2_)" fill-rule="evenodd" clip-rule="evenodd" points="128.499,135.53 128.738,135.53 
		129.216,135.53 129.455,135.289 129.704,135.048 129.943,135.048 130.182,134.807 130.421,134.325 130.421,134.084 
		130.421,133.843 130.421,133.36 130.421,133.12 130.421,132.878 130.421,132.638 130.182,132.156 129.943,131.914 129.704,131.673 
		129.455,131.673 129.216,131.432 128.738,131.432 128.499,131.432 128.25,131.432 127.772,131.432 127.533,131.673 
		127.294,131.673 127.045,131.914 126.806,132.156 126.567,132.638 126.567,132.878 126.328,133.12 126.328,133.36 126.328,133.843 
		126.567,134.084 126.567,134.325 126.806,134.807 127.045,135.048 127.294,135.048 127.533,135.289 127.772,135.53 128.25,135.53 	
		"/>
	
		<polygon clip-path="url(#SVGID_2_)" fill="none" stroke="#000000" stroke-width="0.2409" stroke-linejoin="round" stroke-miterlimit="10" points="
		128.499,135.53 128.738,135.53 129.216,135.53 129.455,135.289 129.704,135.048 129.943,135.048 130.182,134.807 130.421,134.325 
		130.421,134.084 130.421,133.843 130.421,133.36 130.421,133.12 130.421,132.878 130.421,132.638 130.182,132.156 129.943,131.914 
		129.704,131.673 129.455,131.673 129.216,131.432 128.738,131.432 128.499,131.432 128.25,131.432 127.772,131.432 
		127.533,131.673 127.294,131.673 127.045,131.914 126.806,132.156 126.567,132.638 126.567,132.878 126.328,133.12 126.328,133.36 
		126.328,133.843 126.567,134.084 126.567,134.325 126.806,134.807 127.045,135.048 127.294,135.048 127.533,135.289 
		127.772,135.53 128.25,135.53 	"/>
	<g clip-path="url(#SVGID_2_)">
		<path d="M99.619,123.148v-2.056h-3.726v-0.966l3.919-5.563h0.861v5.563h1.16v0.966h-1.16v2.056H99.619z M99.619,120.127v-3.871
			l-2.689,3.871H99.619z"/>
	</g>
	<g clip-path="url(#SVGID_2_)">
		<path d="M78.313,138.25v-1.013h5.559v0.82c-0.546,0.582-1.088,1.355-1.625,2.319c-0.537,0.964-0.952,1.956-1.245,2.975
			c-0.211,0.718-0.346,1.505-0.404,2.36h-1.084c0.012-0.675,0.145-1.491,0.398-2.448s0.618-1.879,1.093-2.767
			c0.474-0.888,0.979-1.637,1.514-2.246H78.313z"/>
	</g>
	<g clip-path="url(#SVGID_2_)">
		<path d="M137.704,116.666l-1.048,0.082c-0.094-0.414-0.227-0.715-0.398-0.902c-0.285-0.301-0.637-0.451-1.054-0.451
			c-0.336,0-0.631,0.094-0.885,0.281c-0.332,0.242-0.594,0.595-0.785,1.06c-0.191,0.464-0.291,1.126-0.299,1.985
			c0.254-0.386,0.564-0.673,0.932-0.861s0.752-0.281,1.154-0.281c0.703,0,1.302,0.258,1.796,0.776
			c0.494,0.517,0.741,1.186,0.741,2.005c0,0.539-0.116,1.04-0.348,1.502c-0.232,0.462-0.552,0.817-0.958,1.063
			c-0.406,0.246-0.867,0.369-1.382,0.369c-0.879,0-1.596-0.323-2.15-0.969c-0.554-0.646-0.832-1.711-0.832-3.194
			c0-1.659,0.307-2.866,0.919-3.619c0.535-0.656,1.256-0.984,2.162-0.984c0.676,0,1.229,0.189,1.661,0.568
			C137.359,115.475,137.618,115.998,137.704,116.666z M133.398,120.367c0,0.363,0.077,0.711,0.231,1.042
			c0.154,0.332,0.37,0.584,0.647,0.758s0.568,0.261,0.873,0.261c0.445,0,0.828-0.18,1.148-0.539c0.32-0.359,0.48-0.847,0.48-1.464
			c0-0.593-0.158-1.061-0.475-1.402s-0.715-0.513-1.195-0.513c-0.477,0-0.881,0.171-1.213,0.513S133.398,119.813,133.398,120.367z"
			/>
	</g>
	<g clip-path="url(#SVGID_2_)">
		<path d="M114.834,145.711h-1.054v-6.717c-0.254,0.242-0.587,0.484-0.999,0.726s-0.782,0.424-1.11,0.544v-1.019
			c0.59-0.277,1.105-0.613,1.547-1.007c0.441-0.395,0.753-0.777,0.937-1.148h0.68V145.711z"/>
		<path d="M121.555,145.711H120.5v-6.717c-0.254,0.242-0.587,0.484-0.999,0.726s-0.782,0.424-1.11,0.544v-1.019
			c0.59-0.277,1.105-0.613,1.547-1.007c0.441-0.395,0.753-0.777,0.937-1.148h0.68V145.711z"/>
	</g>
	<polygon clip-path="url(#SVGID_2_)" fill-rule="evenodd" clip-rule="evenodd" points="95.151,59.189 94.67,57.984 93.707,57.019 
		92.261,57.019 91.081,57.984 90.599,59.189 91.081,60.642 92.261,61.359 93.707,61.359 94.67,60.642 	"/>
	
		<polygon clip-path="url(#SVGID_2_)" fill="none" stroke="#000000" stroke-width="0.2409" stroke-linejoin="round" stroke-miterlimit="10" points="
		95.151,59.189 94.67,57.984 93.707,57.019 92.261,57.019 91.081,57.984 90.599,59.189 91.081,60.642 92.261,61.359 93.707,61.359 
		94.67,60.642 	"/>
	<polygon clip-path="url(#SVGID_2_)" fill-rule="evenodd" clip-rule="evenodd" points="131.148,29.903 130.66,28.698 
		129.704,27.733 128.25,27.733 127.045,28.698 126.567,29.903 127.045,31.346 128.25,32.073 129.704,32.073 130.66,31.346 	"/>
	
		<polygon clip-path="url(#SVGID_2_)" fill="none" stroke="#000000" stroke-width="0.2409" stroke-linejoin="round" stroke-miterlimit="10" points="
		131.148,29.903 130.66,28.698 129.704,27.733 128.25,27.733 127.045,28.698 126.567,29.903 127.045,31.346 128.25,32.073 
		129.704,32.073 130.66,31.346 	"/>
	<g clip-path="url(#SVGID_2_)">
		<path d="M78.249,62.305l1.054-0.141c0.121,0.597,0.327,1.028,0.618,1.291c0.291,0.264,0.646,0.396,1.063,0.396
			c0.496,0,0.915-0.172,1.256-0.516c0.342-0.343,0.513-0.769,0.513-1.276c0-0.484-0.158-0.883-0.475-1.198
			c-0.316-0.314-0.719-0.471-1.207-0.471c-0.199,0-0.447,0.039-0.744,0.117l0.117-0.925c0.07,0.008,0.127,0.012,0.17,0.012
			c0.449,0,0.853-0.117,1.212-0.352c0.359-0.234,0.539-0.595,0.539-1.083c0-0.387-0.131-0.707-0.393-0.96
			c-0.262-0.254-0.6-0.381-1.013-0.381c-0.41,0-0.752,0.129-1.025,0.387c-0.273,0.257-0.449,0.644-0.527,1.159l-1.054-0.187
			c0.129-0.707,0.422-1.254,0.878-1.643c0.457-0.388,1.025-0.583,1.705-0.583c0.468,0,0.9,0.101,1.294,0.302
			s0.696,0.475,0.905,0.823c0.208,0.348,0.313,0.716,0.313,1.107c0,0.371-0.1,0.708-0.299,1.013
			c-0.199,0.305-0.494,0.547-0.885,0.726c0.508,0.117,0.902,0.36,1.184,0.729c0.281,0.369,0.421,0.831,0.421,1.385
			c0,0.75-0.273,1.385-0.82,1.906c-0.547,0.521-1.238,0.782-2.074,0.782c-0.754,0-1.38-0.225-1.878-0.673
			C78.604,63.601,78.319,63.02,78.249,62.305z"/>
	</g>
	<g clip-path="url(#SVGID_2_)">
		<path d="M136.784,30.866l1.107-0.094c0.082,0.539,0.272,0.944,0.571,1.215c0.299,0.271,0.659,0.407,1.081,0.407
			c0.507,0,0.937-0.191,1.289-0.574c0.352-0.383,0.527-0.89,0.527-1.523c0-0.601-0.169-1.075-0.507-1.423s-0.78-0.521-1.327-0.521
			c-0.34,0-0.646,0.077-0.92,0.231c-0.273,0.154-0.488,0.354-0.645,0.601l-0.99-0.129l0.832-4.41h4.271v1.007h-3.427l-0.463,2.307
			c0.516-0.359,1.057-0.539,1.623-0.539c0.75,0,1.382,0.26,1.898,0.779c0.515,0.519,0.773,1.187,0.773,2.002
			c0,0.777-0.227,1.449-0.679,2.015c-0.551,0.695-1.303,1.042-2.255,1.042c-0.781,0-1.419-0.219-1.913-0.656
			C137.136,32.167,136.854,31.588,136.784,30.866z"/>
	</g>
	<rect x="54.954" y="24.253" clip-path="url(#SVGID_2_)" fill-rule="evenodd" clip-rule="evenodd" width="14.143" height="2.146"/>
	<polygon clip-path="url(#SVGID_2_)" fill-rule="evenodd" clip-rule="evenodd" points="67.891,30.012 77.264,25.214 67.891,20.635 	
		"/>
	
		<polygon clip-path="url(#SVGID_2_)" fill="none" stroke="#000000" stroke-width="2.1679" stroke-linejoin="round" stroke-miterlimit="10" points="
		67.891,30.012 77.264,25.214 67.891,20.635 	"/>
	<g clip-path="url(#SVGID_2_)">
		<path d="M71.25,13.206L74.018,6h1.027l2.951,7.206h-1.087l-0.841-2.183h-3.014l-0.792,2.183H71.25z M73.33,10.247h2.444
			l-0.752-1.996c-0.229-0.606-0.4-1.104-0.511-1.495c-0.092,0.462-0.222,0.921-0.389,1.376L73.33,10.247z"/>
		<path d="M78.65,7.018V6h0.885v1.018H78.65z M78.65,13.206v-5.22h0.885v5.22H78.65z"/>
		<path d="M81.034,13.206v-5.22h0.797v0.792c0.203-0.371,0.391-0.615,0.563-0.732c0.172-0.118,0.361-0.177,0.568-0.177
			c0.298,0,0.602,0.095,0.91,0.285l-0.305,0.821c-0.216-0.127-0.433-0.191-0.649-0.191c-0.193,0-0.367,0.058-0.521,0.174
			c-0.154,0.116-0.264,0.278-0.33,0.484c-0.098,0.314-0.147,0.659-0.147,1.032v2.733H81.034z"/>
		<path d="M87.108,13.206V6h0.954v6.355h3.55v0.851H87.108z"/>
		<path d="M91.741,10.596c0-0.966,0.269-1.683,0.806-2.148c0.449-0.387,0.997-0.58,1.643-0.58c0.718,0,1.305,0.235,1.76,0.706
			s0.684,1.12,0.684,1.949c0,0.672-0.101,1.201-0.302,1.585c-0.202,0.385-0.495,0.684-0.88,0.897s-0.806,0.32-1.261,0.32
			c-0.731,0-1.322-0.234-1.772-0.703C91.966,12.152,91.741,11.478,91.741,10.596z M92.651,10.596c0,0.669,0.146,1.169,0.438,1.502
			c0.292,0.333,0.659,0.499,1.102,0.499c0.439,0,0.805-0.167,1.097-0.501c0.292-0.334,0.438-0.844,0.438-1.529
			c0-0.646-0.147-1.135-0.44-1.467C94.991,8.767,94.626,8.6,94.19,8.6c-0.442,0-0.81,0.166-1.102,0.497
			C92.797,9.428,92.651,9.927,92.651,10.596z"/>
		<path d="M97.02,10.596c0-0.966,0.269-1.683,0.806-2.148c0.449-0.387,0.997-0.58,1.643-0.58c0.718,0,1.305,0.235,1.76,0.706
			s0.684,1.12,0.684,1.949c0,0.672-0.101,1.201-0.302,1.585c-0.202,0.385-0.495,0.684-0.88,0.897s-0.806,0.32-1.261,0.32
			c-0.731,0-1.322-0.234-1.772-0.703C97.245,12.152,97.02,11.478,97.02,10.596z M97.93,10.596c0,0.669,0.146,1.169,0.438,1.502
			c0.292,0.333,0.659,0.499,1.102,0.499c0.439,0,0.805-0.167,1.097-0.501c0.292-0.334,0.438-0.844,0.438-1.529
			c0-0.646-0.147-1.135-0.44-1.467C100.27,8.767,99.905,8.6,99.469,8.6c-0.442,0-0.81,0.166-1.102,0.497
			C98.076,9.428,97.93,9.927,97.93,10.596z"/>
		<path d="M102.628,15.207V7.986h0.806v0.678c0.19-0.265,0.405-0.464,0.644-0.597s0.53-0.199,0.871-0.199
			c0.446,0,0.839,0.115,1.18,0.344c0.341,0.229,0.598,0.553,0.772,0.971c0.174,0.418,0.261,0.876,0.261,1.374
			c0,0.534-0.096,1.015-0.288,1.443c-0.192,0.427-0.471,0.755-0.836,0.983c-0.366,0.228-0.75,0.342-1.153,0.342
			c-0.295,0-0.56-0.063-0.794-0.187c-0.235-0.125-0.427-0.282-0.578-0.472v2.541H102.628z M103.429,10.625
			c0,0.672,0.136,1.168,0.408,1.489s0.602,0.482,0.988,0.482c0.394,0,0.73-0.167,1.011-0.499s0.42-0.848,0.42-1.546
			c0-0.665-0.137-1.164-0.411-1.494c-0.274-0.331-0.601-0.497-0.981-0.497c-0.377,0-0.711,0.176-1.001,0.528
			S103.429,9.954,103.429,10.625z"/>
		<path d="M110.794,10.891l0.9-0.079c0.043,0.361,0.142,0.656,0.298,0.887c0.155,0.231,0.397,0.418,0.725,0.561
			s0.697,0.214,1.106,0.214c0.364,0,0.685-0.054,0.964-0.162c0.278-0.108,0.486-0.256,0.622-0.445
			c0.136-0.188,0.204-0.394,0.204-0.617c0-0.226-0.066-0.423-0.197-0.592c-0.131-0.168-0.348-0.31-0.649-0.425
			c-0.194-0.076-0.622-0.193-1.284-0.352c-0.662-0.159-1.126-0.309-1.392-0.45c-0.344-0.18-0.601-0.404-0.77-0.671
			c-0.169-0.267-0.253-0.566-0.253-0.897c0-0.364,0.104-0.704,0.31-1.02c0.207-0.316,0.508-0.556,0.905-0.72
			c0.396-0.164,0.837-0.246,1.323-0.246c0.534,0,1.005,0.086,1.414,0.258c0.408,0.172,0.722,0.425,0.942,0.759
			c0.219,0.334,0.337,0.713,0.354,1.136l-0.915,0.068c-0.049-0.455-0.216-0.799-0.499-1.032c-0.284-0.232-0.703-0.349-1.257-0.349
			c-0.577,0-0.997,0.105-1.261,0.317c-0.264,0.211-0.396,0.466-0.396,0.764c0,0.259,0.093,0.472,0.28,0.639
			c0.184,0.167,0.663,0.338,1.438,0.514s1.307,0.329,1.596,0.459c0.42,0.193,0.729,0.438,0.93,0.735c0.2,0.297,0.3,0.638,0.3,1.025
			c0,0.384-0.11,0.745-0.33,1.084s-0.535,0.603-0.946,0.792c-0.412,0.188-0.875,0.283-1.389,0.283c-0.652,0-1.199-0.095-1.64-0.285
			s-0.787-0.476-1.038-0.858C110.94,11.804,110.808,11.373,110.794,10.891z"/>
		<path d="M117.724,15.207V7.986h0.806v0.678c0.19-0.265,0.405-0.464,0.644-0.597s0.53-0.199,0.871-0.199
			c0.446,0,0.839,0.115,1.18,0.344c0.341,0.229,0.598,0.553,0.772,0.971c0.174,0.418,0.261,0.876,0.261,1.374
			c0,0.534-0.096,1.015-0.288,1.443c-0.192,0.427-0.471,0.755-0.836,0.983c-0.366,0.228-0.75,0.342-1.153,0.342
			c-0.295,0-0.56-0.063-0.794-0.187c-0.235-0.125-0.427-0.282-0.578-0.472v2.541H117.724z M118.525,10.625
			c0,0.672,0.136,1.168,0.408,1.489s0.602,0.482,0.988,0.482c0.394,0,0.73-0.167,1.011-0.499s0.42-0.848,0.42-1.546
			c0-0.665-0.137-1.164-0.411-1.494c-0.274-0.331-0.601-0.497-0.981-0.497c-0.377,0-0.711,0.176-1.001,0.528
			S118.525,9.954,118.525,10.625z"/>
		<path d="M122.982,13.206V6h0.885v7.206H122.982z"/>
		<path d="M125.174,7.018V6h0.885v1.018H125.174z M125.174,13.206v-5.22h0.885v5.22H125.174z"/>
		<path d="M129.268,12.415l0.128,0.782c-0.249,0.052-0.472,0.079-0.668,0.079c-0.322,0-0.571-0.051-0.748-0.152
			c-0.177-0.102-0.302-0.235-0.374-0.401c-0.072-0.165-0.108-0.514-0.108-1.044V8.674h-0.649V7.986h0.649V6.693l0.88-0.531v1.824
			h0.89v0.688h-0.89v3.053c0,0.252,0.015,0.415,0.046,0.486c0.031,0.072,0.082,0.13,0.152,0.172
			c0.071,0.042,0.171,0.064,0.303,0.064C128.978,12.449,129.107,12.438,129.268,12.415z"/>
		<path d="M132.368,12.415l0.128,0.782c-0.249,0.052-0.472,0.079-0.668,0.079c-0.322,0-0.571-0.051-0.748-0.152
			c-0.177-0.102-0.302-0.235-0.374-0.401c-0.072-0.165-0.108-0.514-0.108-1.044V8.674h-0.649V7.986h0.649V6.693l0.88-0.531v1.824
			h0.89v0.688h-0.89v3.053c0,0.252,0.015,0.415,0.046,0.486c0.031,0.072,0.082,0.13,0.152,0.172
			c0.071,0.042,0.171,0.064,0.303,0.064C132.078,12.449,132.208,12.438,132.368,12.415z"/>
		<path d="M136.889,11.525l0.915,0.113c-0.144,0.534-0.412,0.949-0.802,1.244s-0.888,0.442-1.495,0.442
			c-0.764,0-1.37-0.235-1.817-0.706s-0.671-1.13-0.671-1.979c0-0.878,0.227-1.56,0.679-2.045c0.453-0.485,1.039-0.728,1.76-0.728
			c0.698,0,1.269,0.238,1.711,0.713s0.664,1.144,0.664,2.005c0,0.053-0.001,0.131-0.005,0.236h-3.895
			c0.033,0.573,0.195,1.012,0.487,1.317c0.292,0.305,0.656,0.458,1.092,0.458c0.325,0,0.602-0.085,0.831-0.256
			S136.755,11.898,136.889,11.525z M133.983,10.095h2.916c-0.04-0.439-0.151-0.769-0.334-0.988
			c-0.282-0.341-0.647-0.511-1.097-0.511c-0.406,0-0.748,0.136-1.025,0.408C134.166,9.275,134.013,9.639,133.983,10.095z"/>
		<path d="M138.583,13.206v-5.22h0.797v0.792c0.203-0.371,0.391-0.615,0.563-0.732c0.172-0.118,0.361-0.177,0.568-0.177
			c0.298,0,0.602,0.095,0.91,0.285l-0.305,0.821c-0.216-0.127-0.433-0.191-0.649-0.191c-0.193,0-0.367,0.058-0.521,0.174
			c-0.154,0.116-0.264,0.278-0.33,0.484c-0.098,0.314-0.147,0.659-0.147,1.032v2.733H138.583z"/>
	</g>
	<g clip-path="url(#SVGID_2_)">
		<path d="M105.979,43.56l0.954,0.241c-0.2,0.783-0.56,1.38-1.08,1.792c-0.52,0.412-1.155,0.617-1.905,0.617
			c-0.777,0-1.409-0.158-1.896-0.475c-0.487-0.316-0.857-0.774-1.111-1.374c-0.254-0.6-0.381-1.244-0.381-1.932
			c0-0.75,0.144-1.405,0.43-1.964c0.287-0.559,0.695-0.983,1.225-1.273s1.112-0.435,1.748-0.435c0.721,0,1.328,0.184,1.819,0.551
			c0.492,0.367,0.834,0.883,1.028,1.548l-0.939,0.221c-0.167-0.524-0.41-0.906-0.728-1.146s-0.718-0.359-1.2-0.359
			c-0.554,0-1.017,0.133-1.389,0.398c-0.372,0.265-0.634,0.622-0.784,1.069c-0.151,0.447-0.227,0.909-0.227,1.384
			c0,0.613,0.089,1.148,0.268,1.605s0.457,0.799,0.833,1.025s0.785,0.339,1.225,0.339c0.534,0,0.986-0.154,1.357-0.462
			C105.597,44.623,105.847,44.166,105.979,43.56z"/>
		<path d="M112.708,43.56l0.954,0.241c-0.2,0.783-0.56,1.38-1.08,1.792c-0.52,0.412-1.155,0.617-1.905,0.617
			c-0.777,0-1.409-0.158-1.896-0.475c-0.487-0.316-0.857-0.774-1.111-1.374c-0.254-0.6-0.381-1.244-0.381-1.932
			c0-0.75,0.144-1.405,0.43-1.964c0.287-0.559,0.695-0.983,1.225-1.273s1.112-0.435,1.748-0.435c0.721,0,1.328,0.184,1.819,0.551
			c0.492,0.367,0.834,0.883,1.028,1.548l-0.939,0.221c-0.167-0.524-0.41-0.906-0.728-1.146s-0.718-0.359-1.2-0.359
			c-0.554,0-1.017,0.133-1.389,0.398c-0.372,0.265-0.634,0.622-0.784,1.069c-0.151,0.447-0.227,0.909-0.227,1.384
			c0,0.613,0.089,1.148,0.268,1.605s0.457,0.799,0.833,1.025s0.785,0.339,1.225,0.339c0.534,0,0.986-0.154,1.357-0.462
			C112.326,44.623,112.576,44.166,112.708,43.56z"/>
	</g>
	<g clip-path="url(#SVGID_2_)">
		<path d="M64.867,100.105v-7.206h0.954v2.959h3.747v-2.959h0.954v7.206h-0.954v-3.396h-3.747v3.396H64.867z"/>
		<path d="M76.71,97.579l0.954,0.241c-0.2,0.783-0.56,1.38-1.08,1.792c-0.52,0.412-1.155,0.617-1.905,0.617
			c-0.777,0-1.409-0.158-1.896-0.475c-0.487-0.316-0.857-0.774-1.111-1.374c-0.254-0.6-0.381-1.244-0.381-1.932
			c0-0.75,0.144-1.405,0.43-1.964c0.287-0.559,0.695-0.983,1.225-1.273s1.112-0.435,1.748-0.435c0.721,0,1.328,0.184,1.819,0.551
			c0.492,0.367,0.834,0.883,1.028,1.548l-0.939,0.221c-0.167-0.524-0.41-0.906-0.728-1.146s-0.718-0.359-1.2-0.359
			c-0.554,0-1.017,0.133-1.389,0.398c-0.372,0.265-0.634,0.622-0.784,1.069c-0.151,0.447-0.227,0.909-0.227,1.384
			c0,0.613,0.089,1.148,0.268,1.605s0.457,0.799,0.833,1.025s0.785,0.339,1.225,0.339c0.534,0,0.986-0.154,1.357-0.462
			C76.328,98.643,76.579,98.185,76.71,97.579z"/>
	</g>
	
		<line clip-path="url(#SVGID_2_)" fill="none" stroke="#000000" stroke-width="0.2409" stroke-linejoin="round" stroke-miterlimit="10" x1="41.644" y1="25.354" x2="128.499" y2="25.354"/>
	<g clip-path="url(#SVGID_2_)">
		<path d="M42.218,62.889l2.769-7.206h1.027l2.951,7.206h-1.087l-0.841-2.183h-3.014l-0.792,2.183H42.218z M44.298,59.93h2.444
			l-0.752-1.996c-0.229-0.606-0.4-1.104-0.511-1.495c-0.092,0.462-0.222,0.921-0.389,1.376L44.298,59.93z"/>
		<path d="M49.618,56.7v-1.018h0.885V56.7H49.618z M49.618,62.889v-5.22h0.885v5.22H49.618z"/>
		<path d="M52.002,62.889v-5.22h0.797v0.792c0.203-0.371,0.391-0.615,0.563-0.732c0.172-0.118,0.361-0.177,0.568-0.177
			c0.298,0,0.602,0.095,0.91,0.285l-0.305,0.821c-0.216-0.127-0.433-0.191-0.649-0.191c-0.193,0-0.367,0.058-0.521,0.174
			c-0.154,0.116-0.264,0.278-0.33,0.484c-0.098,0.314-0.147,0.659-0.147,1.032v2.733H52.002z"/>
	</g>
	<g clip-path="url(#SVGID_2_)">
		<path d="M38.177,74.895v-7.206h0.954v6.355h3.55v0.851H38.177z"/>
		<path d="M43.052,72.284c0-0.966,0.269-1.683,0.806-2.148c0.449-0.387,0.997-0.58,1.643-0.58c0.718,0,1.305,0.235,1.76,0.706
			s0.684,1.12,0.684,1.949c0,0.672-0.101,1.201-0.302,1.585c-0.202,0.385-0.495,0.684-0.88,0.897s-0.806,0.32-1.261,0.32
			c-0.731,0-1.322-0.234-1.772-0.703C43.277,73.841,43.052,73.166,43.052,72.284z M43.961,72.284c0,0.669,0.146,1.169,0.438,1.502
			c0.292,0.333,0.659,0.499,1.102,0.499c0.439,0,0.805-0.167,1.097-0.501c0.292-0.334,0.438-0.844,0.438-1.529
			c0-0.646-0.147-1.135-0.44-1.467c-0.293-0.333-0.658-0.499-1.094-0.499c-0.442,0-0.81,0.166-1.102,0.497
			C44.107,71.116,43.961,71.616,43.961,72.284z"/>
		<path d="M48.331,72.284c0-0.966,0.269-1.683,0.806-2.148c0.449-0.387,0.997-0.58,1.643-0.58c0.718,0,1.305,0.235,1.76,0.706
			s0.684,1.12,0.684,1.949c0,0.672-0.101,1.201-0.302,1.585c-0.202,0.385-0.495,0.684-0.88,0.897s-0.806,0.32-1.261,0.32
			c-0.731,0-1.322-0.234-1.772-0.703C48.556,73.841,48.331,73.166,48.331,72.284z M49.24,72.284c0,0.669,0.146,1.169,0.438,1.502
			c0.292,0.333,0.659,0.499,1.102,0.499c0.439,0,0.805-0.167,1.097-0.501c0.292-0.334,0.438-0.844,0.438-1.529
			c0-0.646-0.147-1.135-0.44-1.467c-0.293-0.333-0.658-0.499-1.094-0.499c-0.442,0-0.81,0.166-1.102,0.497
			C49.386,71.116,49.24,71.616,49.24,72.284z"/>
		<path d="M53.938,76.895v-7.221h0.806v0.678c0.19-0.265,0.405-0.464,0.644-0.597s0.53-0.199,0.871-0.199
			c0.446,0,0.839,0.115,1.18,0.344c0.341,0.229,0.598,0.553,0.772,0.971c0.174,0.418,0.261,0.876,0.261,1.374
			c0,0.534-0.096,1.015-0.288,1.443c-0.192,0.427-0.471,0.755-0.836,0.983c-0.366,0.228-0.75,0.342-1.153,0.342
			c-0.295,0-0.56-0.063-0.794-0.187c-0.235-0.125-0.427-0.282-0.578-0.472v2.541H53.938z M54.74,72.314
			c0,0.672,0.136,1.168,0.408,1.489s0.602,0.482,0.988,0.482c0.394,0,0.73-0.167,1.011-0.499s0.42-0.848,0.42-1.546
			c0-0.665-0.137-1.164-0.411-1.494c-0.274-0.331-0.601-0.497-0.981-0.497c-0.377,0-0.711,0.176-1.001,0.528
			S54.74,71.642,54.74,72.314z"/>
	</g>
	<g clip-path="url(#SVGID_2_)">
		<path d="M36.436,145.229v-0.885l3.693-4.616c0.262-0.328,0.511-0.613,0.748-0.855h-4.022v-0.85h5.163v0.85l-4.047,5l-0.438,0.506
			h4.603v0.851H36.436z"/>
		<path d="M41.854,142.618c0-0.966,0.269-1.683,0.806-2.148c0.449-0.387,0.997-0.58,1.643-0.58c0.718,0,1.305,0.235,1.76,0.706
			s0.684,1.12,0.684,1.949c0,0.672-0.101,1.201-0.302,1.585c-0.202,0.385-0.495,0.684-0.88,0.897s-0.806,0.32-1.261,0.32
			c-0.731,0-1.322-0.234-1.772-0.703C42.079,144.175,41.854,143.5,41.854,142.618z M42.764,142.618c0,0.669,0.146,1.169,0.438,1.502
			c0.292,0.333,0.659,0.499,1.102,0.499c0.439,0,0.805-0.167,1.097-0.501c0.292-0.334,0.438-0.844,0.438-1.529
			c0-0.646-0.147-1.135-0.44-1.467c-0.293-0.333-0.658-0.499-1.094-0.499c-0.442,0-0.81,0.166-1.102,0.497
			C42.91,141.45,42.764,141.95,42.764,142.618z"/>
		<path d="M47.462,145.229v-5.22h0.796v0.742c0.383-0.573,0.938-0.86,1.662-0.86c0.314,0,0.604,0.057,0.868,0.17
			c0.264,0.113,0.461,0.261,0.593,0.445c0.131,0.184,0.223,0.401,0.275,0.654c0.033,0.164,0.049,0.45,0.049,0.86v3.21H50.82v-3.175
			c0-0.36-0.035-0.63-0.104-0.809s-0.191-0.321-0.366-0.428s-0.381-0.16-0.617-0.16c-0.377,0-0.702,0.12-0.976,0.359
			s-0.411,0.693-0.411,1.361v2.851H47.462z"/>
		<path d="M56.315,143.547l0.915,0.113c-0.144,0.534-0.412,0.949-0.802,1.244s-0.888,0.442-1.495,0.442
			c-0.764,0-1.37-0.235-1.817-0.706s-0.671-1.13-0.671-1.979c0-0.878,0.227-1.56,0.679-2.045c0.453-0.485,1.039-0.728,1.76-0.728
			c0.698,0,1.269,0.238,1.711,0.713s0.664,1.144,0.664,2.005c0,0.053-0.001,0.131-0.005,0.236h-3.895
			c0.033,0.573,0.195,1.012,0.487,1.317c0.292,0.305,0.656,0.458,1.092,0.458c0.325,0,0.602-0.085,0.831-0.256
			S56.181,143.921,56.315,143.547z M53.409,142.117h2.916c-0.04-0.439-0.151-0.769-0.334-0.988
			c-0.282-0.341-0.647-0.511-1.097-0.511c-0.406,0-0.748,0.136-1.025,0.408C53.591,141.298,53.438,141.662,53.409,142.117z"/>
	</g>
	<g clip-path="url(#SVGID_2_)">
		<path d="M24.31,157.233v-7.206h5.212v0.85h-4.258v2.208h3.988v0.845h-3.988v2.453h4.426v0.851H24.31z"/>
		<path d="M34.223,159.234v-2.556c-0.138,0.194-0.33,0.354-0.578,0.482s-0.511,0.192-0.789,0.192c-0.62,0-1.153-0.248-1.601-0.742
			c-0.448-0.495-0.671-1.173-0.671-2.035c0-0.524,0.091-0.995,0.273-1.411c0.182-0.417,0.446-0.732,0.792-0.946
			c0.346-0.215,0.726-0.322,1.139-0.322c0.646,0,1.154,0.272,1.524,0.816v-0.698h0.796v7.221H34.223z M31.494,154.608
			c0,0.672,0.141,1.176,0.423,1.512c0.282,0.336,0.62,0.504,1.013,0.504c0.377,0,0.701-0.16,0.974-0.479
			c0.272-0.319,0.408-0.805,0.408-1.458c0-0.694-0.144-1.217-0.431-1.568c-0.287-0.351-0.624-0.526-1.01-0.526
			c-0.384,0-0.709,0.163-0.976,0.489C31.627,153.408,31.494,153.917,31.494,154.608z"/>
		<path d="M39.595,157.233v-0.767c-0.407,0.59-0.959,0.885-1.657,0.885c-0.308,0-0.596-0.059-0.863-0.177
			c-0.267-0.118-0.465-0.266-0.595-0.445s-0.221-0.397-0.273-0.656c-0.036-0.173-0.054-0.449-0.054-0.826v-3.234h0.885v2.895
			c0,0.462,0.018,0.773,0.054,0.934c0.056,0.233,0.174,0.416,0.354,0.548c0.18,0.132,0.403,0.199,0.668,0.199
			c0.266,0,0.515-0.068,0.748-0.204c0.233-0.136,0.397-0.321,0.494-0.555s0.145-0.574,0.145-1.02v-2.797h0.885v5.22H39.595z"/>
		<path d="M41.456,151.045v-1.018h0.885v1.018H41.456z M41.456,157.233v-5.22h0.885v5.22H41.456z"/>
		<path d="M43.618,159.234v-7.221h0.806v0.678c0.19-0.265,0.405-0.464,0.644-0.597s0.53-0.199,0.871-0.199
			c0.446,0,0.839,0.115,1.18,0.344c0.341,0.229,0.598,0.553,0.772,0.971c0.174,0.418,0.261,0.876,0.261,1.374
			c0,0.534-0.096,1.015-0.288,1.443c-0.192,0.427-0.471,0.755-0.836,0.983c-0.366,0.228-0.75,0.342-1.153,0.342
			c-0.295,0-0.56-0.063-0.794-0.187c-0.235-0.125-0.427-0.282-0.578-0.472v2.541H43.618z M44.419,154.653
			c0,0.672,0.136,1.168,0.408,1.489s0.602,0.482,0.988,0.482c0.394,0,0.73-0.167,1.011-0.499s0.42-0.848,0.42-1.546
			c0-0.665-0.137-1.164-0.411-1.494c-0.274-0.331-0.601-0.497-0.981-0.497c-0.377,0-0.711,0.176-1.001,0.528
			S44.419,153.981,44.419,154.653z"/>
		<path d="M48.896,157.233v-5.22h0.792v0.732c0.164-0.256,0.382-0.461,0.654-0.617c0.272-0.155,0.582-0.233,0.93-0.233
			c0.387,0,0.704,0.081,0.951,0.241s0.422,0.385,0.524,0.673c0.413-0.61,0.951-0.915,1.613-0.915c0.518,0,0.916,0.144,1.195,0.43
			c0.279,0.287,0.418,0.729,0.418,1.325v3.583h-0.88v-3.289c0-0.354-0.029-0.608-0.086-0.764c-0.057-0.156-0.161-0.281-0.312-0.376
			c-0.151-0.095-0.328-0.143-0.531-0.143c-0.367,0-0.672,0.122-0.915,0.366s-0.364,0.635-0.364,1.172v3.033h-0.885v-3.392
			c0-0.394-0.072-0.688-0.216-0.885c-0.145-0.197-0.38-0.295-0.708-0.295c-0.249,0-0.479,0.065-0.691,0.196
			c-0.211,0.131-0.365,0.323-0.46,0.575c-0.095,0.252-0.143,0.616-0.143,1.091v2.708H48.896z"/>
		<path d="M60.86,155.552l0.915,0.113c-0.144,0.534-0.412,0.949-0.802,1.244s-0.888,0.442-1.495,0.442
			c-0.764,0-1.37-0.235-1.817-0.706s-0.671-1.13-0.671-1.979c0-0.878,0.227-1.56,0.679-2.045c0.453-0.485,1.039-0.728,1.76-0.728
			c0.698,0,1.269,0.238,1.711,0.713s0.664,1.144,0.664,2.005c0,0.053-0.001,0.131-0.005,0.236h-3.895
			c0.033,0.573,0.195,1.012,0.487,1.317c0.292,0.305,0.656,0.458,1.092,0.458c0.325,0,0.602-0.085,0.831-0.256
			S60.726,155.926,60.86,155.552z M57.954,154.122h2.916c-0.04-0.439-0.151-0.769-0.334-0.988c-0.282-0.341-0.647-0.511-1.097-0.511
			c-0.406,0-0.748,0.136-1.025,0.408C58.137,153.303,57.984,153.667,57.954,154.122z"/>
		<path d="M62.343,157.233v-5.22h0.796v0.742c0.383-0.573,0.938-0.86,1.662-0.86c0.314,0,0.604,0.057,0.868,0.17
			c0.264,0.113,0.461,0.261,0.593,0.445c0.131,0.184,0.223,0.401,0.275,0.654c0.033,0.164,0.049,0.45,0.049,0.86v3.21h-0.885v-3.175
			c0-0.36-0.035-0.63-0.104-0.809s-0.191-0.321-0.366-0.428s-0.381-0.16-0.617-0.16c-0.377,0-0.702,0.12-0.976,0.359
			s-0.411,0.693-0.411,1.361v2.851H62.343z"/>
		<path d="M69.553,156.442l0.128,0.782c-0.249,0.052-0.472,0.079-0.668,0.079c-0.322,0-0.571-0.051-0.748-0.152
			c-0.177-0.102-0.302-0.235-0.374-0.401c-0.072-0.165-0.108-0.514-0.108-1.044v-3.003h-0.649v-0.688h0.649v-1.293l0.88-0.531v1.824
			h0.89v0.688h-0.89v3.053c0,0.252,0.015,0.415,0.046,0.486c0.031,0.072,0.082,0.13,0.152,0.172
			c0.071,0.042,0.171,0.064,0.303,0.064C69.263,156.477,69.393,156.465,69.553,156.442z"/>
	</g>
	<g clip-path="url(#SVGID_2_)">
		<path d="M13.836,16.322V11.79h-0.782v-0.688h0.782v-0.556c0-0.351,0.031-0.611,0.093-0.781c0.085-0.229,0.235-0.416,0.45-0.558
			c0.215-0.143,0.516-0.214,0.902-0.214c0.249,0,0.524,0.03,0.826,0.088l-0.133,0.772c-0.184-0.033-0.357-0.049-0.521-0.049
			c-0.269,0-0.459,0.058-0.57,0.172c-0.112,0.115-0.167,0.329-0.167,0.644v0.482h1.018v0.688h-1.018v4.532H13.836z"/>
		<path d="M15.788,16.322v-5.22h0.797v0.792c0.203-0.371,0.391-0.615,0.563-0.732c0.172-0.118,0.361-0.177,0.568-0.177
			c0.298,0,0.602,0.095,0.91,0.285l-0.305,0.821c-0.216-0.127-0.433-0.191-0.649-0.191c-0.193,0-0.367,0.058-0.521,0.174
			c-0.154,0.116-0.264,0.278-0.33,0.484c-0.098,0.314-0.147,0.659-0.147,1.032v2.733H15.788z"/>
		<path d="M18.581,13.712c0-0.966,0.269-1.683,0.806-2.148c0.449-0.387,0.997-0.58,1.643-0.58c0.718,0,1.305,0.235,1.76,0.706
			s0.684,1.12,0.684,1.949c0,0.672-0.101,1.201-0.302,1.585c-0.202,0.385-0.495,0.684-0.88,0.897s-0.806,0.32-1.261,0.32
			c-0.731,0-1.322-0.234-1.772-0.703C18.806,15.269,18.581,14.594,18.581,13.712z M19.491,13.712c0,0.669,0.146,1.169,0.438,1.502
			c0.292,0.333,0.659,0.499,1.102,0.499c0.439,0,0.805-0.167,1.097-0.501c0.292-0.334,0.438-0.844,0.438-1.529
			c0-0.646-0.147-1.135-0.44-1.467c-0.293-0.333-0.658-0.499-1.094-0.499c-0.442,0-0.81,0.166-1.102,0.497
			C19.637,12.544,19.491,13.043,19.491,13.712z"/>
		<path d="M24.189,16.322v-5.22h0.792v0.732c0.164-0.256,0.382-0.461,0.654-0.617c0.272-0.155,0.582-0.233,0.93-0.233
			c0.387,0,0.704,0.081,0.951,0.241s0.422,0.385,0.524,0.673c0.413-0.61,0.951-0.915,1.613-0.915c0.518,0,0.916,0.144,1.195,0.43
			c0.279,0.287,0.418,0.729,0.418,1.325v3.583h-0.88v-3.289c0-0.354-0.029-0.608-0.086-0.764c-0.057-0.156-0.161-0.281-0.312-0.376
			c-0.151-0.095-0.328-0.143-0.531-0.143c-0.367,0-0.672,0.122-0.915,0.366s-0.364,0.635-0.364,1.172v3.033h-0.885v-3.392
			c0-0.394-0.072-0.688-0.216-0.885c-0.145-0.197-0.38-0.295-0.708-0.295c-0.249,0-0.479,0.065-0.691,0.196
			c-0.211,0.131-0.365,0.323-0.46,0.575c-0.095,0.252-0.143,0.616-0.143,1.091v2.708H24.189z"/>
	</g>
	<g clip-path="url(#SVGID_2_)">
		<path d="M9.199,26.769l0.875-0.138c0.049,0.351,0.186,0.619,0.411,0.806c0.225,0.187,0.539,0.28,0.941,0.28
			c0.407,0,0.708-0.083,0.905-0.249c0.197-0.165,0.295-0.359,0.295-0.583c0-0.2-0.087-0.357-0.261-0.472
			c-0.122-0.079-0.423-0.179-0.905-0.3c-0.649-0.164-1.099-0.306-1.35-0.425c-0.251-0.12-0.441-0.285-0.571-0.497
			s-0.194-0.445-0.194-0.7c0-0.233,0.053-0.448,0.16-0.646s0.251-0.363,0.435-0.494c0.138-0.102,0.325-0.188,0.563-0.258
			s0.493-0.106,0.765-0.106c0.41,0,0.77,0.059,1.08,0.177c0.31,0.118,0.538,0.278,0.686,0.479c0.147,0.202,0.249,0.471,0.305,0.809
			l-0.866,0.118c-0.039-0.269-0.153-0.479-0.341-0.629c-0.189-0.15-0.455-0.226-0.799-0.226c-0.406,0-0.697,0.067-0.87,0.202
			c-0.174,0.134-0.261,0.292-0.261,0.472c0,0.115,0.036,0.218,0.108,0.31c0.072,0.095,0.186,0.173,0.339,0.236
			c0.089,0.033,0.349,0.108,0.782,0.226c0.626,0.167,1.063,0.304,1.31,0.41c0.248,0.107,0.442,0.262,0.583,0.465
			c0.141,0.203,0.211,0.456,0.211,0.757c0,0.295-0.086,0.573-0.258,0.833c-0.172,0.261-0.42,0.462-0.745,0.605
			c-0.324,0.143-0.691,0.214-1.101,0.214c-0.679,0-1.196-0.141-1.552-0.423C9.524,27.741,9.297,27.323,9.199,26.769z"/>
		<path d="M18.232,28.327v-0.767c-0.407,0.59-0.959,0.885-1.657,0.885c-0.308,0-0.596-0.059-0.863-0.177
			c-0.267-0.118-0.465-0.266-0.595-0.445s-0.221-0.397-0.273-0.656c-0.036-0.173-0.054-0.449-0.054-0.826v-3.234h0.885v2.895
			c0,0.462,0.018,0.773,0.054,0.934c0.056,0.233,0.174,0.416,0.354,0.548c0.18,0.132,0.403,0.199,0.668,0.199
			c0.266,0,0.515-0.068,0.748-0.204c0.233-0.136,0.397-0.321,0.494-0.555s0.145-0.574,0.145-1.02v-2.797h0.885v5.22H18.232z"/>
		<path d="M20.088,30.328v-7.221h0.806v0.678c0.19-0.265,0.405-0.464,0.644-0.597s0.53-0.199,0.871-0.199
			c0.446,0,0.839,0.115,1.18,0.344c0.341,0.229,0.598,0.553,0.772,0.971c0.174,0.418,0.261,0.876,0.261,1.374
			c0,0.534-0.096,1.015-0.288,1.443c-0.192,0.427-0.471,0.755-0.836,0.983c-0.366,0.228-0.75,0.342-1.153,0.342
			c-0.295,0-0.56-0.063-0.794-0.187c-0.235-0.125-0.427-0.282-0.578-0.472v2.541H20.088z M20.89,25.747
			c0,0.672,0.136,1.168,0.408,1.489s0.602,0.482,0.988,0.482c0.394,0,0.73-0.167,1.011-0.499s0.42-0.848,0.42-1.546
			c0-0.665-0.137-1.164-0.411-1.494c-0.274-0.331-0.601-0.497-0.981-0.497c-0.377,0-0.711,0.176-1.001,0.528
			S20.89,25.075,20.89,25.747z"/>
		<path d="M25.367,30.328v-7.221h0.806v0.678c0.19-0.265,0.405-0.464,0.644-0.597s0.53-0.199,0.871-0.199
			c0.446,0,0.839,0.115,1.18,0.344c0.341,0.229,0.598,0.553,0.772,0.971c0.174,0.418,0.261,0.876,0.261,1.374
			c0,0.534-0.096,1.015-0.288,1.443c-0.192,0.427-0.471,0.755-0.836,0.983c-0.366,0.228-0.75,0.342-1.153,0.342
			c-0.295,0-0.56-0.063-0.794-0.187c-0.235-0.125-0.427-0.282-0.578-0.472v2.541H25.367z M26.168,25.747
			c0,0.672,0.136,1.168,0.408,1.489s0.602,0.482,0.988,0.482c0.394,0,0.73-0.167,1.011-0.499s0.42-0.848,0.42-1.546
			c0-0.665-0.137-1.164-0.411-1.494c-0.274-0.331-0.601-0.497-0.981-0.497c-0.377,0-0.711,0.176-1.001,0.528
			S26.168,25.075,26.168,25.747z"/>
		<path d="M30.625,28.327v-7.206h0.885v7.206H30.625z"/>
		<path d="M32.773,30.337l-0.098-0.831c0.193,0.052,0.362,0.079,0.506,0.079c0.197,0,0.354-0.033,0.472-0.098
			c0.118-0.066,0.214-0.157,0.29-0.275c0.056-0.088,0.146-0.308,0.271-0.659c0.016-0.049,0.042-0.121,0.079-0.216l-1.982-5.23h0.954
			l1.087,3.023c0.141,0.383,0.267,0.787,0.378,1.209c0.102-0.407,0.223-0.803,0.364-1.19l1.116-3.042h0.885l-1.986,5.309
			c-0.213,0.574-0.379,0.968-0.497,1.185c-0.157,0.292-0.337,0.505-0.541,0.642c-0.204,0.136-0.446,0.204-0.728,0.204
			C33.173,30.446,32.983,30.41,32.773,30.337z"/>
	</g>
	<g clip-path="url(#SVGID_2_)">
		<path d="M17.185,40.322V35.79h-0.782v-0.688h0.782v-0.556c0-0.351,0.031-0.611,0.093-0.781c0.085-0.229,0.235-0.416,0.45-0.558
			c0.215-0.143,0.516-0.214,0.902-0.214c0.249,0,0.524,0.03,0.826,0.088l-0.133,0.772c-0.184-0.033-0.357-0.049-0.521-0.049
			c-0.269,0-0.459,0.058-0.57,0.172c-0.112,0.115-0.167,0.329-0.167,0.644v0.482h1.018v0.688h-1.018v4.532H17.185z"/>
		<path d="M22.554,39.678c-0.328,0.279-0.643,0.475-0.946,0.59s-0.629,0.172-0.976,0.172c-0.574,0-1.015-0.14-1.323-0.42
			s-0.462-0.638-0.462-1.074c0-0.255,0.058-0.489,0.175-0.7c0.116-0.211,0.269-0.381,0.457-0.509s0.401-0.225,0.637-0.29
			c0.174-0.046,0.436-0.09,0.787-0.133c0.714-0.085,1.241-0.187,1.578-0.305c0.003-0.121,0.005-0.198,0.005-0.231
			c0-0.36-0.083-0.615-0.25-0.762c-0.226-0.2-0.563-0.3-1.008-0.3c-0.416,0-0.724,0.073-0.922,0.219
			c-0.198,0.146-0.345,0.404-0.44,0.774l-0.866-0.118c0.079-0.37,0.208-0.669,0.389-0.897c0.18-0.228,0.441-0.403,0.782-0.526
			s0.736-0.185,1.185-0.185c0.446,0,0.808,0.053,1.087,0.157c0.278,0.105,0.483,0.237,0.615,0.396
			c0.131,0.159,0.223,0.359,0.275,0.602c0.029,0.151,0.044,0.423,0.044,0.816v1.18c0,0.823,0.019,1.343,0.057,1.561
			c0.038,0.218,0.112,0.427,0.224,0.627h-0.924C22.64,40.139,22.581,39.924,22.554,39.678z M22.48,37.702
			c-0.321,0.131-0.803,0.243-1.445,0.334c-0.364,0.052-0.622,0.111-0.772,0.177c-0.151,0.066-0.268,0.162-0.349,0.288
			c-0.082,0.126-0.123,0.267-0.123,0.42c0,0.236,0.089,0.433,0.268,0.59c0.178,0.157,0.44,0.236,0.784,0.236
			c0.341,0,0.644-0.074,0.91-0.224c0.266-0.149,0.46-0.353,0.585-0.612c0.095-0.2,0.143-0.495,0.143-0.885V37.702z"/>
		<path d="M24.426,40.322v-5.22h0.796v0.742c0.383-0.573,0.938-0.86,1.662-0.86c0.314,0,0.604,0.057,0.868,0.17
			c0.264,0.113,0.461,0.261,0.593,0.445c0.131,0.184,0.223,0.401,0.275,0.654c0.033,0.164,0.049,0.45,0.049,0.86v3.21h-0.885v-3.175
			c0-0.36-0.035-0.63-0.104-0.809s-0.191-0.321-0.366-0.428s-0.381-0.16-0.617-0.16c-0.377,0-0.702,0.12-0.976,0.359
			s-0.411,0.693-0.411,1.361v2.851H24.426z"/>
	</g>
	<g clip-path="url(#SVGID_2_)">
		<path d="M92.339,173l0.128,0.782c-0.249,0.052-0.472,0.079-0.668,0.079c-0.322,0-0.571-0.051-0.748-0.152
			c-0.177-0.102-0.302-0.235-0.374-0.401c-0.072-0.165-0.108-0.514-0.108-1.044v-3.003H89.92v-0.688h0.649v-1.293l0.88-0.531v1.824
			h0.89v0.688h-0.89v3.053c0,0.252,0.015,0.415,0.046,0.486c0.031,0.072,0.082,0.13,0.152,0.172
			c0.071,0.042,0.171,0.064,0.303,0.064C92.049,173.035,92.178,173.023,92.339,173z"/>
		<path d="M93.177,171.182c0-0.966,0.269-1.683,0.806-2.148c0.449-0.387,0.997-0.58,1.643-0.58c0.718,0,1.305,0.235,1.76,0.706
			s0.684,1.12,0.684,1.949c0,0.672-0.101,1.201-0.302,1.585c-0.202,0.385-0.495,0.684-0.88,0.897s-0.806,0.32-1.261,0.32
			c-0.731,0-1.322-0.234-1.772-0.703C93.402,172.738,93.177,172.063,93.177,171.182z M94.087,171.182
			c0,0.669,0.146,1.169,0.438,1.502c0.292,0.333,0.659,0.499,1.102,0.499c0.439,0,0.805-0.167,1.097-0.501
			c0.292-0.334,0.438-0.844,0.438-1.529c0-0.646-0.147-1.135-0.44-1.467c-0.293-0.333-0.658-0.499-1.094-0.499
			c-0.442,0-0.81,0.166-1.102,0.497C94.233,170.014,94.087,170.513,94.087,171.182z"/>
		<path d="M101.644,173.792v-5.22h0.792v0.732c0.164-0.256,0.382-0.461,0.654-0.617c0.272-0.155,0.582-0.233,0.93-0.233
			c0.387,0,0.704,0.081,0.951,0.241s0.422,0.385,0.524,0.673c0.413-0.61,0.951-0.915,1.613-0.915c0.518,0,0.916,0.144,1.195,0.43
			c0.279,0.287,0.418,0.729,0.418,1.325v3.583h-0.88v-3.289c0-0.354-0.029-0.608-0.086-0.764c-0.057-0.156-0.161-0.281-0.312-0.376
			c-0.151-0.095-0.328-0.143-0.531-0.143c-0.367,0-0.672,0.122-0.915,0.366s-0.364,0.635-0.364,1.172v3.033h-0.885V170.4
			c0-0.394-0.072-0.688-0.216-0.885c-0.145-0.197-0.38-0.295-0.708-0.295c-0.249,0-0.479,0.065-0.691,0.196
			c-0.211,0.131-0.365,0.323-0.46,0.575c-0.095,0.252-0.143,0.616-0.143,1.091v2.708H101.644z"/>
		<path d="M109.816,167.604v-1.018h0.885v1.018H109.816z M109.816,173.792v-5.22h0.885v5.22H109.816z"/>
		<path d="M111.609,173.792l1.908-2.713l-1.765-2.507h1.106l0.802,1.224c0.15,0.232,0.272,0.427,0.364,0.585
			c0.144-0.216,0.277-0.408,0.398-0.575l0.88-1.234h1.057l-1.805,2.458l1.942,2.763h-1.086l-1.072-1.622l-0.285-0.438l-1.372,2.06
			H111.609z"/>
		<path d="M117.471,167.604v-1.018h0.885v1.018H117.471z M117.471,173.792v-5.22h0.885v5.22H117.471z"/>
		<path d="M119.633,173.792v-5.22h0.796v0.742c0.383-0.573,0.938-0.86,1.662-0.86c0.314,0,0.604,0.057,0.868,0.17
			c0.264,0.113,0.461,0.261,0.593,0.445c0.131,0.184,0.223,0.401,0.275,0.654c0.033,0.164,0.049,0.45,0.049,0.86v3.21h-0.885v-3.175
			c0-0.36-0.035-0.63-0.104-0.809s-0.191-0.321-0.366-0.428s-0.381-0.16-0.617-0.16c-0.377,0-0.702,0.12-0.976,0.359
			s-0.411,0.693-0.411,1.361v2.851H119.633z"/>
		<path d="M124.749,174.225l0.861,0.128c0.036,0.265,0.136,0.458,0.3,0.58c0.22,0.164,0.52,0.246,0.9,0.246
			c0.41,0,0.726-0.082,0.949-0.246c0.223-0.164,0.374-0.394,0.453-0.688c0.046-0.18,0.067-0.559,0.064-1.135
			c-0.387,0.456-0.869,0.683-1.446,0.683c-0.718,0-1.273-0.259-1.667-0.777c-0.394-0.518-0.59-1.139-0.59-1.863
			c0-0.498,0.09-0.958,0.271-1.379c0.18-0.421,0.441-0.746,0.784-0.976c0.342-0.229,0.745-0.344,1.207-0.344
			c0.616,0,1.125,0.249,1.524,0.747v-0.629h0.816v4.512c0,0.813-0.083,1.389-0.249,1.728s-0.428,0.607-0.787,0.804
			s-0.801,0.295-1.325,0.295c-0.623,0-1.126-0.14-1.51-0.42C124.921,175.21,124.736,174.788,124.749,174.225z M125.482,171.088
			c0,0.685,0.136,1.185,0.408,1.5c0.272,0.314,0.613,0.472,1.022,0.472c0.407,0,0.748-0.156,1.023-0.469s0.413-0.804,0.413-1.472
			c0-0.639-0.142-1.121-0.425-1.445c-0.284-0.325-0.625-0.487-1.025-0.487c-0.394,0-0.728,0.16-1.003,0.479
			C125.62,169.985,125.482,170.459,125.482,171.088z"/>
	</g>
	<g clip-path="url(#SVGID_2_)">
		<path d="M94.758,185.797v-0.659c-0.331,0.518-0.818,0.777-1.46,0.777c-0.416,0-0.799-0.115-1.148-0.344s-0.62-0.55-0.812-0.961
			s-0.288-0.884-0.288-1.418c0-0.521,0.087-0.994,0.261-1.418c0.173-0.424,0.434-0.75,0.782-0.976
			c0.347-0.226,0.736-0.339,1.166-0.339c0.314,0,0.595,0.066,0.841,0.199c0.246,0.133,0.446,0.306,0.6,0.519v-2.585h0.88v7.206
			H94.758z M91.96,183.192c0,0.668,0.141,1.168,0.423,1.499s0.615,0.497,0.998,0.497c0.387,0,0.716-0.158,0.986-0.475
			c0.27-0.316,0.405-0.799,0.405-1.447c0-0.714-0.138-1.239-0.413-1.573c-0.275-0.334-0.614-0.501-1.018-0.501
			c-0.394,0-0.722,0.161-0.986,0.482C92.092,181.994,91.96,182.5,91.96,183.192z"/>
		<path d="M100.056,185.153c-0.328,0.279-0.643,0.475-0.946,0.59s-0.629,0.172-0.976,0.172c-0.574,0-1.015-0.14-1.323-0.42
			s-0.462-0.638-0.462-1.074c0-0.255,0.058-0.489,0.175-0.7c0.116-0.211,0.269-0.381,0.457-0.509s0.401-0.225,0.637-0.29
			c0.174-0.046,0.436-0.09,0.787-0.133c0.714-0.085,1.241-0.187,1.578-0.305c0.003-0.121,0.005-0.198,0.005-0.231
			c0-0.36-0.083-0.615-0.25-0.762c-0.226-0.2-0.563-0.3-1.008-0.3c-0.416,0-0.724,0.073-0.922,0.219
			c-0.198,0.146-0.345,0.404-0.44,0.774l-0.866-0.118c0.079-0.37,0.208-0.669,0.389-0.897c0.18-0.228,0.441-0.403,0.782-0.526
			s0.736-0.185,1.185-0.185c0.446,0,0.808,0.053,1.087,0.157c0.278,0.105,0.483,0.237,0.615,0.396
			c0.131,0.159,0.223,0.359,0.275,0.602c0.029,0.151,0.044,0.423,0.044,0.816v1.18c0,0.823,0.019,1.343,0.057,1.561
			c0.038,0.218,0.112,0.427,0.224,0.627h-0.924C100.141,185.613,100.082,185.399,100.056,185.153z M99.982,183.177
			c-0.321,0.131-0.803,0.243-1.445,0.334c-0.364,0.052-0.622,0.111-0.772,0.177c-0.151,0.066-0.268,0.162-0.349,0.288
			c-0.082,0.126-0.123,0.267-0.123,0.42c0,0.236,0.089,0.433,0.268,0.59c0.178,0.157,0.44,0.236,0.784,0.236
			c0.341,0,0.644-0.074,0.91-0.224c0.266-0.149,0.46-0.353,0.585-0.612c0.095-0.2,0.143-0.495,0.143-0.885V183.177z"/>
		<path d="M101.927,185.797v-5.22h0.792v0.732c0.164-0.256,0.382-0.461,0.654-0.617c0.272-0.155,0.582-0.233,0.93-0.233
			c0.387,0,0.704,0.081,0.951,0.241s0.422,0.385,0.524,0.673c0.413-0.61,0.951-0.915,1.613-0.915c0.518,0,0.916,0.144,1.195,0.43
			c0.279,0.287,0.418,0.729,0.418,1.325v3.583h-0.88v-3.289c0-0.354-0.029-0.608-0.086-0.764c-0.057-0.156-0.161-0.281-0.312-0.376
			c-0.151-0.095-0.328-0.143-0.531-0.143c-0.367,0-0.672,0.122-0.915,0.366s-0.364,0.635-0.364,1.172v3.033h-0.885v-3.392
			c0-0.394-0.072-0.688-0.216-0.885c-0.145-0.197-0.38-0.295-0.708-0.295c-0.249,0-0.479,0.065-0.691,0.196
			c-0.211,0.131-0.365,0.323-0.46,0.575c-0.095,0.252-0.143,0.616-0.143,1.091v2.708H101.927z"/>
		<path d="M110.095,187.797v-7.221h0.806v0.678c0.19-0.265,0.405-0.464,0.644-0.597s0.53-0.199,0.871-0.199
			c0.446,0,0.839,0.115,1.18,0.344c0.341,0.229,0.598,0.553,0.772,0.971c0.174,0.418,0.261,0.876,0.261,1.374
			c0,0.534-0.096,1.015-0.288,1.443c-0.192,0.427-0.471,0.755-0.836,0.983c-0.366,0.228-0.75,0.342-1.153,0.342
			c-0.295,0-0.56-0.063-0.794-0.187c-0.235-0.125-0.427-0.282-0.578-0.472v2.541H110.095z M110.896,183.216
			c0,0.672,0.136,1.168,0.408,1.489s0.602,0.482,0.988,0.482c0.394,0,0.73-0.167,1.011-0.499s0.42-0.848,0.42-1.546
			c0-0.665-0.137-1.164-0.411-1.494c-0.274-0.331-0.601-0.497-0.981-0.497c-0.377,0-0.711,0.176-1.001,0.528
			S110.896,182.544,110.896,183.216z"/>
		<path d="M118.948,184.116l0.915,0.113c-0.144,0.534-0.412,0.949-0.802,1.244s-0.888,0.442-1.495,0.442
			c-0.764,0-1.37-0.235-1.817-0.706s-0.671-1.13-0.671-1.979c0-0.878,0.227-1.56,0.679-2.045c0.453-0.485,1.039-0.728,1.76-0.728
			c0.698,0,1.269,0.238,1.711,0.713s0.664,1.144,0.664,2.005c0,0.053-0.001,0.131-0.005,0.236h-3.895
			c0.033,0.573,0.195,1.012,0.487,1.317c0.292,0.305,0.656,0.458,1.092,0.458c0.325,0,0.602-0.085,0.831-0.256
			S118.813,184.489,118.948,184.116z M116.042,182.686h2.916c-0.04-0.439-0.151-0.769-0.334-0.988
			c-0.282-0.341-0.647-0.511-1.097-0.511c-0.406,0-0.748,0.136-1.025,0.408C116.224,181.866,116.071,182.23,116.042,182.686z"/>
		<path d="M120.641,185.797v-5.22h0.797v0.792c0.203-0.371,0.391-0.615,0.563-0.732c0.172-0.118,0.361-0.177,0.568-0.177
			c0.298,0,0.602,0.095,0.91,0.285l-0.305,0.821c-0.216-0.127-0.433-0.191-0.649-0.191c-0.193,0-0.367,0.058-0.521,0.174
			c-0.154,0.116-0.264,0.278-0.33,0.484c-0.098,0.314-0.147,0.659-0.147,1.032v2.733H120.641z"/>
		<path d="M123.188,184.239l0.875-0.138c0.049,0.351,0.186,0.619,0.411,0.806c0.225,0.187,0.539,0.28,0.941,0.28
			c0.407,0,0.708-0.083,0.905-0.249c0.197-0.165,0.295-0.359,0.295-0.583c0-0.2-0.087-0.357-0.261-0.472
			c-0.122-0.079-0.423-0.179-0.905-0.3c-0.649-0.164-1.099-0.306-1.35-0.425c-0.251-0.12-0.441-0.285-0.571-0.497
			s-0.194-0.445-0.194-0.7c0-0.233,0.053-0.448,0.16-0.646s0.251-0.363,0.435-0.494c0.138-0.102,0.325-0.188,0.563-0.258
			s0.493-0.106,0.765-0.106c0.41,0,0.77,0.059,1.08,0.177c0.31,0.118,0.538,0.278,0.686,0.479c0.147,0.202,0.249,0.471,0.305,0.809
			l-0.866,0.118c-0.039-0.269-0.153-0.479-0.341-0.629c-0.189-0.15-0.455-0.226-0.799-0.226c-0.406,0-0.697,0.067-0.87,0.202
			c-0.174,0.134-0.261,0.292-0.261,0.472c0,0.115,0.036,0.218,0.108,0.31c0.072,0.095,0.186,0.173,0.339,0.236
			c0.089,0.033,0.349,0.108,0.782,0.226c0.626,0.167,1.063,0.304,1.31,0.41c0.248,0.107,0.442,0.262,0.583,0.465
			c0.141,0.203,0.211,0.456,0.211,0.757c0,0.295-0.086,0.573-0.258,0.833c-0.172,0.261-0.42,0.462-0.745,0.605
			c-0.324,0.143-0.691,0.214-1.101,0.214c-0.679,0-1.196-0.141-1.552-0.423C123.513,185.21,123.286,184.792,123.188,184.239z"/>
	</g>
</g>
<g>
</g>
<g>
</g>
</svg>
