<?xml version="1.0" encoding="utf-8"?>
<!-- Generator: Adobe Illustrator 16.0.0, SVG Export Plug-In . SVG Version: 6.00 Build 0)  -->
<!DOCTYPE svg PUBLIC "-//W3C//DTD SVG 1.1//EN" "http://www.w3.org/Graphics/SVG/1.1/DTD/svg11.dtd">
<svg version="1.1" id="Layer_1" xmlns="http://www.w3.org/2000/svg" xmlns:xlink="http://www.w3.org/1999/xlink" x="0px" y="0px"
	 width="403.576px" height="135.692px" viewBox="0 0 403.576 135.692" enable-background="new 0 0 403.576 135.692"
	 xml:space="preserve">
<g>
	<defs>
		<rect id="SVGID_1_" y="0" width="257.041" height="132.362"/>
	</defs>
	<clipPath id="SVGID_2_">
		<use xlink:href="#SVGID_1_"  overflow="visible"/>
	</clipPath>
	<polygon clip-path="url(#SVGID_2_)" points="0.844,0.119 0.844,1.574 178.603,1.693 178.603,0.249 	"/>
	<rect x="0.121" y="0.846" clip-path="url(#SVGID_2_)" width="1.446" height="129.852"/>
	<rect x="0.844" y="129.974" clip-path="url(#SVGID_2_)" width="97.161" height="1.447"/>
	<rect x="97.764" y="65.761" clip-path="url(#SVGID_2_)" width="1.446" height="65.419"/>
	<rect x="98.487" y="65.037" clip-path="url(#SVGID_2_)" width="80.602" height="1.447"/>
	<rect x="177.278" y="0.848" clip-path="url(#SVGID_2_)" width="1.446" height="64.913"/>
	<path clip-path="url(#SVGID_2_)" fill-rule="evenodd" clip-rule="evenodd" d="M47.918,106.864c0,1.183,0.964,2.268,2.169,2.268
		c1.206,0,2.291-1.085,2.291-2.268c0-1.206-1.085-2.17-2.291-2.17C48.882,104.694,47.918,105.658,47.918,106.864z"/>
	
		<path clip-path="url(#SVGID_2_)" fill="none" stroke="#000000" stroke-width="0.7231" stroke-linejoin="round" stroke-miterlimit="10" d="
		M47.918,106.864c0,1.183,0.964,2.268,2.169,2.268c1.206,0,2.291-1.085,2.291-2.268c0-1.206-1.085-2.17-2.291-2.17
		C48.882,104.694,47.918,105.658,47.918,106.864z"/>
	
		<rect x="176.561" y="10.425" clip-path="url(#SVGID_2_)" fill-rule="evenodd" clip-rule="evenodd" fill="#FFFFFF" width="2.893" height="44.312"/>
	
		<rect x="176.561" y="10.425" clip-path="url(#SVGID_2_)" fill="none" stroke="#000000" stroke-width="0.7231" stroke-linejoin="round" stroke-miterlimit="10" width="2.893" height="44.312"/>
	<g clip-path="url(#SVGID_2_)">
		<defs>
			<rect id="SVGID_3_" x="186.294" y="23.474" width="63.777" height="13.774"/>
		</defs>
		<clipPath id="SVGID_4_">
			<use xlink:href="#SVGID_3_"  overflow="visible"/>
		</clipPath>
		<g clip-path="url(#SVGID_4_)">
			<path d="M188.302,32.593l-1.886-7.108h0.965l1.082,4.66c0.116,0.488,0.216,0.973,0.301,1.454c0.181-0.759,0.288-1.197,0.32-1.313
				l1.353-4.8h1.135l1.018,3.598c0.255,0.892,0.439,1.731,0.553,2.516c0.09-0.449,0.208-0.965,0.354-1.546l1.115-4.567h0.945
				l-1.949,7.108H192.7l-1.498-5.416c-0.126-0.453-0.201-0.73-0.223-0.834c-0.074,0.326-0.144,0.604-0.208,0.834l-1.508,5.416
				H188.302z"/>
			<path d="M196.685,26.489v-1.004h0.873v1.004H196.685z M196.685,32.593v-5.149h0.873v5.149H196.685z"/>
			<path d="M198.846,32.593v-5.149h0.785v0.732c0.378-0.565,0.925-0.849,1.639-0.849c0.311,0,0.596,0.056,0.856,0.167
				s0.455,0.258,0.584,0.439c0.129,0.181,0.22,0.396,0.271,0.645c0.033,0.162,0.049,0.445,0.049,0.849v3.166h-0.873v-3.132
				c0-0.355-0.034-0.621-0.102-0.797s-0.188-0.317-0.361-0.422s-0.376-0.158-0.608-0.158c-0.372,0-0.693,0.118-0.963,0.354
				c-0.27,0.236-0.405,0.684-0.405,1.343v2.812H198.846z"/>
			<path d="M207.71,32.593v-0.65c-0.327,0.511-0.807,0.766-1.44,0.766c-0.41,0-0.788-0.113-1.132-0.339
				c-0.344-0.226-0.611-0.542-0.8-0.948s-0.284-0.872-0.284-1.399c0-0.514,0.085-0.98,0.257-1.398
				c0.171-0.419,0.429-0.74,0.771-0.962c0.343-0.223,0.726-0.335,1.149-0.335c0.311,0,0.587,0.066,0.829,0.197
				c0.243,0.131,0.439,0.301,0.592,0.511v-2.55h0.868v7.108H207.71z M204.951,30.023c0,0.66,0.139,1.152,0.417,1.479
				c0.278,0.327,0.606,0.49,0.984,0.49c0.381,0,0.706-0.156,0.972-0.468c0.267-0.312,0.4-0.788,0.4-1.428
				c0-0.705-0.136-1.222-0.408-1.551c-0.271-0.33-0.606-0.495-1.003-0.495c-0.388,0-0.712,0.158-0.972,0.475
				S204.951,29.342,204.951,30.023z"/>
			<path d="M209.567,30.019c0-0.953,0.265-1.66,0.795-2.119c0.443-0.381,0.982-0.572,1.62-0.572c0.708,0,1.287,0.232,1.736,0.696
				c0.449,0.464,0.674,1.105,0.674,1.922c0,0.663-0.099,1.184-0.298,1.564c-0.199,0.38-0.488,0.675-0.868,0.885
				s-0.794,0.315-1.244,0.315c-0.721,0-1.304-0.231-1.748-0.693C209.789,31.554,209.567,30.888,209.567,30.019z M210.464,30.019
				c0,0.66,0.144,1.153,0.432,1.481s0.65,0.492,1.086,0.492c0.433,0,0.793-0.165,1.081-0.495s0.432-0.833,0.432-1.508
				c0-0.637-0.145-1.119-0.434-1.447c-0.289-0.328-0.649-0.492-1.079-0.492c-0.437,0-0.799,0.163-1.086,0.49
				S210.464,29.359,210.464,30.019z"/>
			<path d="M216.365,32.593l-1.576-5.149h0.902l0.819,2.972l0.306,1.105c0.013-0.055,0.102-0.409,0.267-1.062l0.819-3.016h0.897
				l0.771,2.986l0.257,0.984l0.296-0.994l0.883-2.977h0.848l-1.609,5.149h-0.907l-0.82-3.083l-0.199-0.877l-1.042,3.961H216.365z"/>
		</g>
	</g>
	<g clip-path="url(#SVGID_2_)">
		<defs>
			<rect id="SVGID_5_" x="101.621" y="91.884" width="51.991" height="13.774"/>
		</defs>
		<clipPath id="SVGID_6_">
			<use xlink:href="#SVGID_5_"  overflow="visible"/>
		</clipPath>
		<g clip-path="url(#SVGID_6_)">
			<path d="M103.627,100.978l-1.886-7.108h0.965l1.082,4.66c0.116,0.488,0.216,0.973,0.301,1.454
				c0.181-0.759,0.288-1.197,0.32-1.313l1.353-4.8h1.135l1.018,3.598c0.255,0.892,0.439,1.731,0.553,2.516
				c0.09-0.449,0.208-0.965,0.354-1.546l1.115-4.567h0.945l-1.949,7.108h-0.907l-1.498-5.416c-0.126-0.453-0.201-0.73-0.223-0.834
				c-0.074,0.326-0.144,0.604-0.208,0.834l-1.508,5.416H103.627z"/>
			<path d="M115.366,100.343c-0.324,0.275-0.635,0.469-0.934,0.582c-0.299,0.113-0.62,0.169-0.962,0.169
				c-0.566,0-1-0.138-1.305-0.415c-0.304-0.276-0.456-0.629-0.456-1.059c0-0.252,0.057-0.482,0.172-0.691s0.265-0.376,0.451-0.502
				s0.395-0.221,0.628-0.286c0.171-0.045,0.43-0.089,0.776-0.131c0.705-0.084,1.224-0.184,1.557-0.301
				c0.003-0.119,0.005-0.195,0.005-0.228c0-0.355-0.083-0.606-0.248-0.751c-0.223-0.197-0.554-0.296-0.994-0.296
				c-0.411,0-0.713,0.072-0.909,0.216c-0.195,0.144-0.34,0.398-0.434,0.764l-0.854-0.117c0.078-0.365,0.205-0.66,0.383-0.885
				s0.435-0.397,0.771-0.519c0.336-0.121,0.726-0.182,1.168-0.182c0.44,0,0.797,0.052,1.072,0.155s0.477,0.234,0.606,0.391
				c0.129,0.157,0.22,0.354,0.272,0.594c0.029,0.148,0.043,0.417,0.043,0.805v1.164c0,0.812,0.019,1.325,0.056,1.54
				s0.111,0.421,0.221,0.618h-0.912C115.45,100.797,115.391,100.585,115.366,100.343z M115.293,98.394
				c-0.317,0.129-0.792,0.239-1.426,0.33c-0.359,0.052-0.613,0.11-0.761,0.174c-0.149,0.065-0.264,0.159-0.344,0.284
				c-0.081,0.125-0.121,0.263-0.121,0.415c0,0.233,0.088,0.427,0.264,0.582c0.176,0.155,0.434,0.232,0.773,0.232
				c0.336,0,0.635-0.073,0.897-0.221c0.262-0.147,0.454-0.348,0.577-0.604c0.094-0.197,0.141-0.488,0.141-0.873V98.394z"/>
			<path d="M117.509,100.978V93.87h0.873v7.108H117.509z"/>
			<path d="M119.675,100.978V93.87h0.873v7.108H119.675z"/>
			<path d="M123.951,100.978l2.73-7.108h1.014l2.909,7.108h-1.072l-0.829-2.153h-2.972l-0.781,2.153H123.951z M126.002,98.059h2.41
				l-0.742-1.968c-0.226-0.598-0.395-1.089-0.504-1.474c-0.09,0.456-0.218,0.909-0.383,1.358L126.002,98.059z"/>
		</g>
	</g>
	<g clip-path="url(#SVGID_2_)">
		<defs>
			<rect id="SVGID_7_" x="120.709" y="67.449" width="50.328" height="13.774"/>
		</defs>
		<clipPath id="SVGID_8_">
			<use xlink:href="#SVGID_7_"  overflow="visible"/>
		</clipPath>
		<g clip-path="url(#SVGID_8_)">
			<path d="M122.716,76.542l-1.886-7.108h0.965l1.082,4.66c0.116,0.488,0.216,0.973,0.301,1.454c0.181-0.759,0.288-1.197,0.32-1.313
				l1.353-4.8h1.135l1.018,3.598c0.255,0.892,0.439,1.731,0.553,2.516c0.09-0.449,0.208-0.965,0.354-1.546l1.115-4.567h0.945
				l-1.949,7.108h-0.907l-1.498-5.416c-0.126-0.453-0.201-0.73-0.223-0.834c-0.074,0.326-0.144,0.604-0.208,0.834l-1.508,5.416
				H122.716z"/>
			<path d="M134.455,75.906c-0.324,0.275-0.635,0.469-0.934,0.582c-0.299,0.113-0.62,0.169-0.962,0.169
				c-0.566,0-1-0.138-1.305-0.415c-0.304-0.276-0.456-0.629-0.456-1.059c0-0.252,0.057-0.482,0.172-0.691s0.265-0.376,0.451-0.502
				s0.395-0.221,0.628-0.286c0.171-0.045,0.43-0.089,0.776-0.131c0.705-0.084,1.224-0.184,1.557-0.301
				c0.003-0.119,0.005-0.195,0.005-0.228c0-0.355-0.083-0.606-0.248-0.751c-0.223-0.197-0.554-0.296-0.994-0.296
				c-0.411,0-0.713,0.072-0.909,0.216c-0.195,0.144-0.34,0.398-0.434,0.764l-0.854-0.117c0.078-0.365,0.205-0.66,0.383-0.885
				s0.435-0.397,0.771-0.519c0.336-0.121,0.726-0.182,1.168-0.182c0.44,0,0.797,0.052,1.072,0.155s0.477,0.234,0.606,0.391
				c0.129,0.157,0.22,0.354,0.272,0.594c0.029,0.148,0.043,0.417,0.043,0.805v1.164c0,0.812,0.019,1.325,0.056,1.54
				s0.111,0.421,0.221,0.618h-0.912C134.539,76.36,134.48,76.149,134.455,75.906z M134.382,73.958
				c-0.317,0.129-0.792,0.239-1.426,0.33c-0.359,0.052-0.613,0.11-0.761,0.174c-0.149,0.065-0.264,0.159-0.344,0.284
				c-0.081,0.125-0.121,0.263-0.121,0.415c0,0.233,0.088,0.427,0.264,0.582c0.176,0.155,0.434,0.232,0.773,0.232
				c0.336,0,0.635-0.073,0.897-0.221c0.262-0.147,0.454-0.348,0.577-0.604c0.094-0.197,0.141-0.488,0.141-0.873V73.958z"/>
			<path d="M136.598,76.542v-7.108h0.873v7.108H136.598z"/>
			<path d="M138.764,76.542v-7.108h0.873v7.108H138.764z"/>
			<path d="M143.782,76.542v-7.108h2.667c0.543,0,0.979,0.072,1.307,0.216c0.328,0.144,0.585,0.365,0.771,0.664
				c0.186,0.299,0.279,0.612,0.279,0.938c0,0.304-0.083,0.59-0.248,0.858c-0.165,0.269-0.414,0.485-0.747,0.65
				c0.43,0.126,0.76,0.341,0.992,0.645c0.231,0.304,0.347,0.663,0.347,1.076c0,0.333-0.07,0.643-0.211,0.928
				c-0.141,0.286-0.314,0.507-0.521,0.662c-0.207,0.155-0.466,0.272-0.778,0.352s-0.694,0.119-1.146,0.119H143.782z M144.723,72.42
				h1.537c0.417,0,0.716-0.027,0.897-0.083c0.239-0.071,0.419-0.189,0.541-0.354c0.121-0.165,0.182-0.372,0.182-0.621
				c0-0.236-0.057-0.443-0.17-0.623c-0.113-0.179-0.274-0.302-0.485-0.368c-0.21-0.066-0.57-0.1-1.081-0.1h-1.421V72.42z
				 M144.723,75.703h1.77c0.304,0,0.517-0.011,0.64-0.034c0.216-0.039,0.397-0.104,0.543-0.194c0.146-0.09,0.265-0.222,0.359-0.395
				s0.141-0.373,0.141-0.599c0-0.265-0.068-0.495-0.204-0.691c-0.136-0.195-0.324-0.333-0.565-0.412
				c-0.241-0.079-0.588-0.119-1.04-0.119h-1.644V75.703z"/>
		</g>
	</g>
	<g clip-path="url(#SVGID_2_)">
		<defs>
			<rect id="SVGID_9_" x="19.813" y="77.87" width="66.068" height="29.212"/>
		</defs>
		<clipPath id="SVGID_10_">
			<use xlink:href="#SVGID_9_"  overflow="visible"/>
		</clipPath>
		<g clip-path="url(#SVGID_10_)">
			<path d="M20.594,87.083v-7.108h3.152c0.633,0,1.115,0.064,1.445,0.191c0.33,0.128,0.593,0.354,0.791,0.677
				c0.197,0.323,0.296,0.68,0.296,1.071c0,0.504-0.164,0.929-0.49,1.275c-0.327,0.346-0.831,0.565-1.513,0.659
				c0.249,0.12,0.438,0.238,0.567,0.354c0.275,0.252,0.535,0.567,0.781,0.945l1.236,1.935h-1.183l-0.94-1.479
				c-0.275-0.426-0.501-0.753-0.679-0.979c-0.178-0.227-0.337-0.385-0.478-0.475c-0.141-0.091-0.284-0.154-0.429-0.189
				c-0.106-0.022-0.281-0.034-0.523-0.034h-1.091v3.156H20.594z M21.534,83.112h2.022c0.43,0,0.766-0.044,1.009-0.133
				s0.427-0.231,0.553-0.427c0.126-0.196,0.189-0.408,0.189-0.638c0-0.336-0.122-0.612-0.366-0.829
				c-0.244-0.216-0.63-0.325-1.157-0.325h-2.25V83.112z"/>
			<path d="M31.184,85.424l0.902,0.111c-0.142,0.527-0.406,0.936-0.79,1.227c-0.385,0.291-0.876,0.436-1.474,0.436
				c-0.753,0-1.351-0.232-1.792-0.696c-0.441-0.463-0.662-1.114-0.662-1.951c0-0.866,0.223-1.539,0.669-2.017
				c0.446-0.479,1.025-0.718,1.736-0.718c0.689,0,1.251,0.235,1.688,0.703c0.437,0.469,0.655,1.128,0.655,1.979
				c0,0.052-0.002,0.129-0.005,0.232h-3.84c0.032,0.566,0.192,0.999,0.48,1.299c0.288,0.301,0.646,0.451,1.077,0.451
				c0.32,0,0.593-0.084,0.819-0.252C30.872,86.061,31.052,85.793,31.184,85.424z M28.318,84.014h2.875
				c-0.039-0.433-0.149-0.758-0.33-0.975c-0.278-0.336-0.639-0.504-1.082-0.504c-0.401,0-0.738,0.134-1.011,0.402
				C28.499,83.206,28.348,83.564,28.318,84.014z"/>
			<path d="M33.391,87.083v-4.47H32.62v-0.679h0.771v-0.548c0-0.346,0.03-0.603,0.092-0.771c0.084-0.226,0.232-0.41,0.444-0.55
				s0.508-0.211,0.89-0.211c0.246,0,0.517,0.029,0.815,0.087L35.5,80.702c-0.181-0.032-0.352-0.049-0.514-0.049
				c-0.265,0-0.453,0.057-0.563,0.17s-0.165,0.325-0.165,0.635v0.475h1.004v0.679h-1.004v4.47H33.391z"/>
			<path d="M39.585,85.424l0.902,0.111c-0.142,0.527-0.406,0.936-0.79,1.227c-0.385,0.291-0.876,0.436-1.474,0.436
				c-0.753,0-1.351-0.232-1.792-0.696c-0.441-0.463-0.662-1.114-0.662-1.951c0-0.866,0.223-1.539,0.669-2.017
				c0.446-0.479,1.025-0.718,1.736-0.718c0.689,0,1.251,0.235,1.688,0.703c0.437,0.469,0.655,1.128,0.655,1.979
				c0,0.052-0.002,0.129-0.005,0.232h-3.84c0.032,0.566,0.192,0.999,0.48,1.299c0.288,0.301,0.646,0.451,1.077,0.451
				c0.32,0,0.593-0.084,0.819-0.252C39.273,86.061,39.453,85.793,39.585,85.424z M36.72,84.014h2.875
				c-0.039-0.433-0.149-0.758-0.33-0.975c-0.278-0.336-0.639-0.504-1.082-0.504c-0.401,0-0.738,0.134-1.011,0.402
				C36.9,83.206,36.749,83.564,36.72,84.014z"/>
			<path d="M41.574,87.083v-5.149h0.786v0.78c0.2-0.365,0.385-0.606,0.555-0.722c0.169-0.116,0.356-0.175,0.56-0.175
				c0.294,0,0.593,0.094,0.897,0.281l-0.301,0.81c-0.213-0.126-0.427-0.189-0.64-0.189c-0.191,0-0.362,0.058-0.514,0.172
				c-0.152,0.115-0.26,0.274-0.325,0.478c-0.097,0.31-0.146,0.65-0.146,1.018v2.696H41.574z"/>
			<path d="M48.465,85.424l0.902,0.111c-0.142,0.527-0.406,0.936-0.79,1.227c-0.385,0.291-0.876,0.436-1.474,0.436
				c-0.753,0-1.351-0.232-1.792-0.696c-0.441-0.463-0.662-1.114-0.662-1.951c0-0.866,0.223-1.539,0.669-2.017
				c0.446-0.479,1.025-0.718,1.736-0.718c0.689,0,1.251,0.235,1.688,0.703c0.437,0.469,0.655,1.128,0.655,1.979
				c0,0.052-0.002,0.129-0.005,0.232h-3.84c0.032,0.566,0.192,0.999,0.48,1.299c0.288,0.301,0.646,0.451,1.077,0.451
				c0.32,0,0.593-0.084,0.819-0.252C48.153,86.061,48.333,85.793,48.465,85.424z M45.599,84.014h2.875
				c-0.039-0.433-0.149-0.758-0.33-0.975c-0.278-0.336-0.639-0.504-1.082-0.504c-0.401,0-0.738,0.134-1.011,0.402
				C45.779,83.206,45.628,83.564,45.599,84.014z"/>
			<path d="M50.463,87.083v-5.149h0.785v0.732c0.378-0.565,0.925-0.849,1.639-0.849c0.311,0,0.596,0.056,0.856,0.167
				s0.455,0.258,0.584,0.439c0.129,0.181,0.22,0.396,0.271,0.645c0.033,0.162,0.049,0.445,0.049,0.849v3.166h-0.873V83.95
				c0-0.355-0.034-0.621-0.102-0.797s-0.188-0.317-0.361-0.422s-0.376-0.158-0.608-0.158c-0.372,0-0.693,0.118-0.963,0.354
				c-0.27,0.236-0.405,0.684-0.405,1.343v2.812H50.463z"/>
			<path d="M59.346,85.196l0.858,0.112c-0.094,0.591-0.333,1.054-0.72,1.389c-0.387,0.334-0.861,0.501-1.423,0.501
				c-0.705,0-1.271-0.23-1.7-0.691c-0.428-0.46-0.643-1.121-0.643-1.98c0-0.556,0.092-1.042,0.276-1.459
				c0.185-0.417,0.465-0.729,0.841-0.938c0.377-0.208,0.787-0.313,1.229-0.313c0.559,0,1.017,0.142,1.372,0.424
				c0.355,0.283,0.583,0.685,0.684,1.205l-0.848,0.131c-0.081-0.346-0.224-0.606-0.429-0.781c-0.206-0.174-0.454-0.262-0.745-0.262
				c-0.439,0-0.797,0.158-1.071,0.473c-0.275,0.315-0.412,0.814-0.412,1.496c0,0.692,0.132,1.195,0.397,1.508s0.611,0.47,1.038,0.47
				c0.343,0,0.629-0.105,0.858-0.315C59.139,85.956,59.285,85.633,59.346,85.196z"/>
			<path d="M64.536,85.424l0.902,0.111c-0.142,0.527-0.406,0.936-0.79,1.227c-0.385,0.291-0.876,0.436-1.474,0.436
				c-0.753,0-1.351-0.232-1.792-0.696c-0.441-0.463-0.662-1.114-0.662-1.951c0-0.866,0.223-1.539,0.669-2.017
				c0.446-0.479,1.025-0.718,1.736-0.718c0.689,0,1.251,0.235,1.688,0.703c0.437,0.469,0.655,1.128,0.655,1.979
				c0,0.052-0.002,0.129-0.005,0.232h-3.84c0.032,0.566,0.192,0.999,0.48,1.299c0.288,0.301,0.646,0.451,1.077,0.451
				c0.32,0,0.593-0.084,0.819-0.252C64.224,86.061,64.403,85.793,64.536,85.424z M61.67,84.014h2.875
				c-0.039-0.433-0.149-0.758-0.33-0.975c-0.278-0.336-0.639-0.504-1.082-0.504c-0.401,0-0.738,0.134-1.011,0.402
				C61.85,83.206,61.699,83.564,61.67,84.014z"/>
		</g>
		<g clip-path="url(#SVGID_10_)">
			<path d="M20.468,100.441v-7.122h0.795v0.669c0.188-0.262,0.399-0.458,0.635-0.589s0.522-0.197,0.858-0.197
				c0.439,0,0.828,0.113,1.164,0.34c0.336,0.226,0.59,0.545,0.761,0.958s0.257,0.864,0.257,1.355c0,0.527-0.095,1.001-0.284,1.423
				c-0.189,0.422-0.464,0.745-0.824,0.97c-0.361,0.225-0.74,0.337-1.137,0.337c-0.291,0-0.552-0.062-0.783-0.184
				c-0.231-0.123-0.421-0.278-0.57-0.465v2.506H20.468z M21.258,95.923c0,0.663,0.134,1.152,0.403,1.469
				c0.268,0.316,0.593,0.475,0.975,0.475c0.388,0,0.72-0.164,0.996-0.492s0.415-0.836,0.415-1.525c0-0.656-0.135-1.147-0.405-1.474
				c-0.27-0.326-0.592-0.489-0.967-0.489c-0.372,0-0.701,0.173-0.987,0.521S21.258,95.26,21.258,95.923z"/>
			<path d="M25.666,95.894c0-0.953,0.265-1.66,0.795-2.119c0.443-0.381,0.982-0.572,1.62-0.572c0.708,0,1.287,0.232,1.736,0.696
				c0.449,0.464,0.674,1.105,0.674,1.922c0,0.663-0.099,1.184-0.298,1.564c-0.199,0.38-0.488,0.675-0.868,0.885
				s-0.794,0.315-1.244,0.315c-0.721,0-1.304-0.231-1.748-0.693C25.888,97.429,25.666,96.763,25.666,95.894z M26.563,95.894
				c0,0.66,0.144,1.153,0.432,1.481s0.65,0.492,1.086,0.492c0.433,0,0.793-0.165,1.081-0.495s0.432-0.833,0.432-1.508
				c0-0.637-0.145-1.119-0.434-1.447c-0.289-0.328-0.649-0.492-1.079-0.492c-0.437,0-0.799,0.163-1.086,0.49
				S26.563,95.234,26.563,95.894z"/>
			<path d="M31.519,92.364V91.36h0.873v1.004H31.519z M31.519,98.468v-5.149h0.873v5.149H31.519z"/>
			<path d="M33.779,98.468v-5.149h0.785v0.732c0.378-0.565,0.925-0.849,1.639-0.849c0.311,0,0.596,0.056,0.856,0.167
				s0.455,0.258,0.584,0.439c0.129,0.181,0.22,0.396,0.271,0.645c0.033,0.162,0.049,0.445,0.049,0.849v3.166h-0.873v-3.132
				c0-0.355-0.034-0.621-0.102-0.797s-0.188-0.317-0.361-0.422s-0.376-0.158-0.608-0.158c-0.372,0-0.693,0.118-0.963,0.354
				c-0.27,0.236-0.405,0.684-0.405,1.343v2.812H33.779z"/>
			<path d="M41.208,97.688l0.126,0.771c-0.246,0.052-0.466,0.078-0.66,0.078c-0.317,0-0.563-0.05-0.737-0.15
				c-0.175-0.1-0.298-0.232-0.369-0.395c-0.071-0.163-0.107-0.507-0.107-1.03v-2.962h-0.64v-0.679h0.64v-1.275l0.868-0.523v1.799
				h0.877v0.679H40.33v3.011c0,0.249,0.015,0.409,0.046,0.48c0.031,0.071,0.081,0.128,0.15,0.17s0.169,0.063,0.298,0.063
				C40.921,97.722,41.049,97.71,41.208,97.688z"/>
		</g>
	</g>
</g>
<g>
</g>
<g>
</g>
</svg>
