<?xml version="1.0" encoding="utf-8"?>
<!-- Generator: Adobe Illustrator 16.0.0, SVG Export Plug-In . SVG Version: 6.00 Build 0)  -->
<!DOCTYPE svg PUBLIC "-//W3C//DTD SVG 1.1//EN" "http://www.w3.org/Graphics/SVG/1.1/DTD/svg11.dtd">
<svg version="1.1" id="Layer_1" xmlns="http://www.w3.org/2000/svg" xmlns:xlink="http://www.w3.org/1999/xlink" x="0px" y="0px"
	 width="430.336px" height="132.208px" viewBox="0 0 430.336 132.208" enable-background="new 0 0 430.336 132.208"
	 xml:space="preserve">
<g>
	<defs>
		<rect id="SVGID_1_" y="0" width="283.804" height="128.876"/>
	</defs>
	<clipPath id="SVGID_2_">
		<use xlink:href="#SVGID_1_"  overflow="visible"/>
	</clipPath>
	<g clip-path="url(#SVGID_2_)">
		<defs>
			<rect id="SVGID_3_" x="124.694" y="3.606" width="27.078" height="13.097"/>
		</defs>
		<clipPath id="SVGID_4_">
			<use xlink:href="#SVGID_3_"  overflow="visible"/>
		</clipPath>
		<g clip-path="url(#SVGID_4_)">
			<path d="M125.573,14.656V6.063h6.41v1.454h-4.665v1.905h4.34v1.448h-4.34v2.339h4.83v1.448H125.573z"/>
			<path d="M134.831,14.656l-2.064-8.594h1.787l1.303,5.903l1.581-5.903h2.076l1.516,6.003l1.327-6.003h1.758l-2.1,8.594h-1.852
				l-1.722-6.425l-1.716,6.425H134.831z"/>
		</g>
	</g>
	<g clip-path="url(#SVGID_2_)">
		<defs>
			<rect id="SVGID_5_" x="121.669" y="74.302" width="62.467" height="51.09"/>
		</defs>
		<clipPath id="SVGID_6_">
			<use xlink:href="#SVGID_5_"  overflow="visible"/>
		</clipPath>
		<g clip-path="url(#SVGID_6_)">
			<path d="M122.6,85.354v-8.594h2.979c0.672,0,1.185,0.041,1.539,0.123c0.496,0.113,0.918,0.319,1.268,0.616
				c0.456,0.383,0.797,0.873,1.023,1.468c0.226,0.596,0.339,1.277,0.339,2.043c0,0.653-0.077,1.231-0.23,1.735
				c-0.153,0.504-0.35,0.921-0.59,1.251s-0.502,0.59-0.787,0.779c-0.285,0.19-0.629,0.333-1.032,0.431s-0.866,0.146-1.389,0.146
				H122.6z M123.744,84.34h1.846c0.57,0,1.017-0.053,1.342-0.158c0.324-0.105,0.583-0.254,0.775-0.445
				c0.271-0.27,0.482-0.632,0.634-1.088c0.151-0.455,0.227-1.007,0.227-1.656c0-0.899-0.148-1.589-0.445-2.072
				c-0.297-0.482-0.657-0.806-1.082-0.97c-0.307-0.117-0.8-0.176-1.48-0.176h-1.817V84.34z"/>
			<path d="M135.178,84.586c-0.394,0.333-0.772,0.567-1.135,0.704c-0.364,0.137-0.754,0.205-1.171,0.205
				c-0.688,0-1.217-0.167-1.586-0.501c-0.37-0.334-0.554-0.761-0.554-1.281c0-0.305,0.07-0.583,0.209-0.835
				c0.139-0.252,0.322-0.455,0.548-0.607s0.48-0.268,0.764-0.346c0.208-0.055,0.523-0.107,0.943-0.158
				c0.857-0.102,1.488-0.223,1.893-0.364c0.004-0.145,0.006-0.236,0.006-0.275c0-0.43-0.101-0.733-0.301-0.909
				c-0.271-0.238-0.675-0.357-1.209-0.357c-0.5,0-0.868,0.087-1.106,0.261s-0.414,0.482-0.528,0.923l-1.038-0.141
				c0.094-0.441,0.25-0.798,0.466-1.07s0.529-0.481,0.938-0.627c0.409-0.146,0.882-0.22,1.421-0.22c0.535,0,0.969,0.063,1.303,0.188
				c0.334,0.125,0.58,0.283,0.737,0.472c0.157,0.189,0.267,0.429,0.33,0.718c0.035,0.18,0.053,0.504,0.053,0.973v1.407
				c0,0.981,0.022,1.601,0.068,1.861c0.045,0.26,0.134,0.509,0.268,0.748h-1.109C135.28,85.136,135.209,84.88,135.178,84.586z
				 M135.089,82.23c-0.385,0.156-0.963,0.29-1.733,0.398c-0.437,0.063-0.745,0.133-0.926,0.211c-0.181,0.078-0.32,0.192-0.418,0.343
				c-0.099,0.15-0.147,0.317-0.147,0.501c0,0.282,0.107,0.516,0.321,0.704s0.528,0.281,0.94,0.281c0.409,0,0.773-0.089,1.091-0.267
				s0.552-0.421,0.702-0.73c0.114-0.238,0.171-0.59,0.171-1.055V82.23z"/>
			<path d="M137.76,87.752l-0.118-0.991c0.232,0.063,0.435,0.094,0.607,0.094c0.236,0,0.425-0.039,0.566-0.117
				s0.257-0.188,0.348-0.328c0.067-0.105,0.175-0.367,0.325-0.786c0.02-0.059,0.051-0.145,0.094-0.258l-2.376-6.237h1.144
				l1.303,3.605c0.169,0.457,0.32,0.938,0.454,1.442c0.122-0.484,0.267-0.958,0.437-1.418l1.338-3.629h1.062l-2.383,6.331
				c-0.256,0.684-0.454,1.155-0.596,1.413c-0.188,0.348-0.405,0.603-0.648,0.765c-0.244,0.162-0.535,0.243-0.873,0.243
				C138.24,87.881,138.012,87.838,137.76,87.752z"/>
			<path d="M143.654,85.354v-8.594h1.062v8.594H143.654z"/>
			<path d="M146.319,77.974v-1.213h1.062v1.213H146.319z M146.319,85.354v-6.226h1.062v6.226H146.319z"/>
			<path d="M151.265,84.411l0.153,0.932c-0.299,0.063-0.566,0.094-0.802,0.094c-0.386,0-0.684-0.061-0.896-0.182
				s-0.362-0.28-0.448-0.478c-0.086-0.197-0.13-0.612-0.13-1.246V79.95h-0.778v-0.821h0.778v-1.542l1.056-0.633v2.175h1.067v0.821
				h-1.067v3.64c0,0.301,0.019,0.495,0.056,0.581c0.037,0.086,0.098,0.154,0.183,0.205s0.206,0.076,0.363,0.076
				C150.917,84.452,151.073,84.438,151.265,84.411z"/>
		</g>
		<g clip-path="url(#SVGID_6_)">
			<path d="M121.904,99.196V98.34l3.987-4.549c-0.452,0.023-0.852,0.035-1.197,0.035h-2.554v-0.856h5.119v0.698l-3.391,3.951
				l-0.655,0.721c0.476-0.035,0.922-0.053,1.339-0.053h2.896v0.909H121.904z"/>
			<path d="M127.951,96.083c0-1.153,0.322-2.007,0.967-2.562c0.539-0.461,1.195-0.692,1.97-0.692c0.861,0,1.565,0.28,2.111,0.841
				c0.546,0.561,0.82,1.335,0.82,2.324c0,0.801-0.121,1.431-0.363,1.891c-0.242,0.459-0.594,0.816-1.056,1.07
				s-0.966,0.381-1.513,0.381c-0.876,0-1.585-0.279-2.126-0.838C128.222,97.94,127.951,97.135,127.951,96.083z M129.042,96.083
				c0,0.797,0.175,1.395,0.525,1.791c0.35,0.396,0.79,0.595,1.321,0.595c0.527,0,0.965-0.199,1.315-0.598
				c0.35-0.399,0.525-1.006,0.525-1.823c0-0.77-0.176-1.353-0.528-1.75c-0.352-0.396-0.79-0.595-1.313-0.595
				c-0.531,0-0.971,0.197-1.321,0.592C129.217,94.69,129.042,95.286,129.042,96.083z"/>
			<path d="M135.064,99.196v-6.226h0.955v0.885c0.46-0.684,1.125-1.026,1.994-1.026c0.377,0,0.724,0.067,1.041,0.202
				s0.554,0.312,0.711,0.531s0.267,0.479,0.33,0.78c0.039,0.195,0.059,0.537,0.059,1.025v3.828h-1.062v-3.787
				c0-0.43-0.042-0.751-0.124-0.964c-0.083-0.213-0.229-0.383-0.439-0.51c-0.21-0.127-0.457-0.19-0.74-0.19
				c-0.452,0-0.843,0.143-1.171,0.428c-0.328,0.286-0.492,0.827-0.492,1.624v3.4H135.064z"/>
			<path d="M146.068,97.191l1.097,0.135c-0.173,0.637-0.494,1.131-0.961,1.483c-0.468,0.352-1.065,0.527-1.793,0.527
				c-0.916,0-1.642-0.28-2.179-0.841c-0.537-0.561-0.805-1.347-0.805-2.359c0-1.047,0.271-1.86,0.814-2.438
				c0.542-0.578,1.246-0.868,2.111-0.868c0.837,0,1.521,0.283,2.052,0.85c0.531,0.566,0.796,1.364,0.796,2.392
				c0,0.063-0.002,0.156-0.006,0.281h-4.671c0.04,0.684,0.234,1.208,0.584,1.571c0.35,0.363,0.786,0.545,1.309,0.545
				c0.39,0,0.722-0.102,0.997-0.305C145.689,97.961,145.907,97.637,146.068,97.191z M142.583,95.486h3.497
				c-0.047-0.524-0.181-0.917-0.401-1.179c-0.338-0.406-0.776-0.609-1.315-0.609c-0.488,0-0.897,0.162-1.23,0.486
				C142.802,94.509,142.619,94.942,142.583,95.486z"/>
		</g>
	</g>
	
		<rect x="31.765" y="20.928" clip-path="url(#SVGID_2_)" fill="none" stroke="#000000" stroke-width="2.9863" stroke-linejoin="round" stroke-miterlimit="10" width="211.478" height="97.135"/>
	<polygon clip-path="url(#SVGID_2_)" points="86.429,21.288 83.434,21.288 83.554,119.865 86.549,119.865 	"/>
	<polygon clip-path="url(#SVGID_2_)" points="189.552,21.288 186.527,21.288 186.647,119.865 189.672,119.865 	"/>
	<g clip-path="url(#SVGID_2_)">
		<defs>
			<rect id="SVGID_7_" x="125.034" y="48.805" width="26.499" height="13.241"/>
		</defs>
		<clipPath id="SVGID_8_">
			<use xlink:href="#SVGID_7_"  overflow="visible"/>
		</clipPath>
		<g clip-path="url(#SVGID_8_)">
			<path d="M125.185,61.804v-1.831l5.313-6.522h-4.713V51.75h7.404v1.577l-5.541,6.783h5.754v1.694H125.185z"/>
			<path d="M134.559,51.75h3.733c0.842,0,1.483,0.064,1.925,0.192c0.593,0.174,1.102,0.482,1.525,0.926
				c0.423,0.444,0.745,0.987,0.966,1.629c0.221,0.643,0.331,1.435,0.331,2.376c0,0.828-0.104,1.541-0.311,2.14
				c-0.253,0.732-0.614,1.324-1.083,1.776c-0.354,0.343-0.833,0.61-1.435,0.803c-0.451,0.142-1.054,0.212-1.808,0.212h-3.843V51.75z
				 M136.601,53.45v6.66h1.525c0.57,0,0.982-0.032,1.235-0.096c0.332-0.083,0.606-0.222,0.825-0.418
				c0.218-0.196,0.397-0.52,0.535-0.97c0.138-0.45,0.207-1.064,0.207-1.842c0-0.777-0.069-1.374-0.207-1.79
				c-0.138-0.416-0.331-0.74-0.58-0.974s-0.563-0.391-0.945-0.473c-0.285-0.064-0.844-0.096-1.677-0.096H136.601z"/>
		</g>
	</g>
	
		<rect x="115.099" y="19.604" clip-path="url(#SVGID_2_)" fill-rule="evenodd" clip-rule="evenodd" fill="#FFFFFF" width="36.548" height="3.004"/>
	
		<rect x="115.099" y="19.604" clip-path="url(#SVGID_2_)" fill="none" stroke="#000000" stroke-width="0.7225" stroke-linejoin="round" stroke-miterlimit="10" width="36.548" height="3.004"/>
	
		<rect x="29.614" y="41.354" clip-path="url(#SVGID_2_)" fill-rule="evenodd" clip-rule="evenodd" fill="#FFFFFF" width="2.875" height="36.672"/>
	
		<rect x="29.614" y="41.354" clip-path="url(#SVGID_2_)" fill="none" stroke="#000000" stroke-width="0.7225" stroke-linejoin="round" stroke-miterlimit="10" width="2.875" height="36.672"/>
	
		<rect x="82.371" y="73.34" clip-path="url(#SVGID_2_)" fill-rule="evenodd" clip-rule="evenodd" fill="#FFFFFF" width="2.875" height="36.672"/>
	
		<rect x="82.371" y="73.34" clip-path="url(#SVGID_2_)" fill="none" stroke="#000000" stroke-width="0.7225" stroke-linejoin="round" stroke-miterlimit="10" width="2.875" height="36.672"/>
	
		<rect x="242.16" y="31.742" clip-path="url(#SVGID_2_)" fill-rule="evenodd" clip-rule="evenodd" fill="#FFFFFF" width="2.995" height="36.672"/>
	
		<rect x="242.16" y="31.742" clip-path="url(#SVGID_2_)" fill="none" stroke="#000000" stroke-width="0.7225" stroke-linejoin="round" stroke-miterlimit="10" width="2.995" height="36.672"/>
	
		<rect x="82.371" y="31.742" clip-path="url(#SVGID_2_)" fill-rule="evenodd" clip-rule="evenodd" fill="#FFFFFF" width="2.875" height="32.586"/>
	
		<rect x="82.371" y="31.742" clip-path="url(#SVGID_2_)" fill="none" stroke="#000000" stroke-width="0.7225" stroke-linejoin="round" stroke-miterlimit="10" width="2.875" height="32.586"/>
	
		<rect x="186.308" y="48.564" clip-path="url(#SVGID_2_)" fill-rule="evenodd" clip-rule="evenodd" fill="#FFFFFF" width="2.875" height="36.672"/>
	
		<rect x="186.308" y="48.564" clip-path="url(#SVGID_2_)" fill="none" stroke="#000000" stroke-width="0.7225" stroke-linejoin="round" stroke-miterlimit="10" width="2.875" height="36.672"/>
	
		<rect x="242.16" y="74.182" clip-path="url(#SVGID_2_)" fill-rule="evenodd" clip-rule="evenodd" fill="#FFFFFF" width="2.995" height="36.672"/>
	
		<rect x="242.16" y="74.182" clip-path="url(#SVGID_2_)" fill="none" stroke="#000000" stroke-width="0.7225" stroke-linejoin="round" stroke-miterlimit="10" width="2.995" height="36.672"/>
	<g clip-path="url(#SVGID_2_)">
		<defs>
			<rect id="SVGID_9_" x="168.675" y="62.887" width="23.865" height="13.217"/>
		</defs>
		<clipPath id="SVGID_10_">
			<use xlink:href="#SVGID_9_"  overflow="visible"/>
		</clipPath>
		<g clip-path="url(#SVGID_10_)">
			<path d="M169.5,73.938v-8.594h1.746v8.594H169.5z"/>
			<path d="M174.136,73.938l-2.064-8.594h1.787l1.303,5.903l1.581-5.903h2.076l1.516,6.003l1.327-6.003h1.758l-2.1,8.594h-1.852
				l-1.722-6.425l-1.716,6.425H174.136z"/>
		</g>
	</g>
	<g clip-path="url(#SVGID_2_)">
		<defs>
			<rect id="SVGID_11_" x="89.544" y="43.638" width="23.02" height="13.241"/>
		</defs>
		<clipPath id="SVGID_12_">
			<use xlink:href="#SVGID_11_"  overflow="visible"/>
		</clipPath>
		<g clip-path="url(#SVGID_12_)">
			<path d="M90.37,54.69v-8.594h1.746v8.594H90.37z"/>
			<path d="M95.005,54.69l-2.064-8.594h1.787L96.031,52l1.581-5.903h2.076l1.516,6.003l1.327-6.003h1.758l-2.1,8.594h-1.852
				l-1.722-6.425l-1.716,6.425H95.005z"/>
		</g>
	</g>
	<g clip-path="url(#SVGID_2_)">
		<defs>
			<rect id="SVGID_13_" x="89.544" y="84.516" width="23.02" height="13.241"/>
		</defs>
		<clipPath id="SVGID_14_">
			<use xlink:href="#SVGID_13_"  overflow="visible"/>
		</clipPath>
		<g clip-path="url(#SVGID_14_)">
			<path d="M90.37,95.592v-8.594h1.746v8.594H90.37z"/>
			<path d="M95.005,95.592l-2.064-8.594h1.787l1.303,5.903l1.581-5.903h2.076l1.516,6.003l1.327-6.003h1.758l-2.1,8.594h-1.852
				l-1.722-6.425l-1.716,6.425H95.005z"/>
		</g>
	</g>
	<g clip-path="url(#SVGID_2_)">
		<defs>
			<rect id="SVGID_15_" x="249.359" y="85.356" width="27.103" height="13.121"/>
		</defs>
		<clipPath id="SVGID_16_">
			<use xlink:href="#SVGID_15_"  overflow="visible"/>
		</clipPath>
		<g clip-path="url(#SVGID_16_)">
			<path d="M250.238,96.433v-8.594h6.41v1.454h-4.665v1.905h4.341v1.448h-4.341v2.339h4.83v1.448H250.238z"/>
			<path d="M259.497,96.433l-2.064-8.594h1.787l1.304,5.903l1.58-5.903h2.076l1.516,6.003l1.327-6.003h1.757l-2.1,8.594h-1.852
				l-1.722-6.425l-1.717,6.425H259.497z"/>
		</g>
	</g>
	<g clip-path="url(#SVGID_2_)">
		<defs>
			<rect id="SVGID_17_" x="248.51" y="46.883" width="27.102" height="13.121"/>
		</defs>
		<clipPath id="SVGID_18_">
			<use xlink:href="#SVGID_17_"  overflow="visible"/>
		</clipPath>
		<g clip-path="url(#SVGID_18_)">
			<path d="M249.388,57.958v-8.594h6.41v1.454h-4.665v1.905h4.341v1.448h-4.341v2.339h4.83v1.448H249.388z"/>
			<path d="M258.647,57.958l-2.064-8.594h1.787l1.304,5.903l1.58-5.903h2.076l1.516,6.003l1.327-6.003h1.757l-2.1,8.594h-1.852
				l-1.722-6.425l-1.717,6.425H258.647z"/>
		</g>
	</g>
	<g clip-path="url(#SVGID_2_)">
		<defs>
			<rect id="SVGID_19_" x="7.198" y="54.092" width="27.079" height="13.121"/>
		</defs>
		<clipPath id="SVGID_20_">
			<use xlink:href="#SVGID_19_"  overflow="visible"/>
		</clipPath>
		<g clip-path="url(#SVGID_20_)">
			<path d="M8.077,65.168v-8.594h6.41v1.454H9.822v1.905h4.34v1.448h-4.34v2.339h4.83v1.448H8.077z"/>
			<path d="M17.335,65.168l-2.064-8.594h1.787l1.303,5.903l1.581-5.903h2.076l1.516,6.003l1.327-6.003h1.758l-2.1,8.594h-1.852
				l-1.722-6.425l-1.716,6.425H17.335z"/>
		</g>
	</g>
</g>
<g>
</g>
<g>
</g>
</svg>
