<?xml version="1.0" encoding="utf-8"?>
<!-- Generator: Adobe Illustrator 16.0.0, SVG Export Plug-In . SVG Version: 6.00 Build 0)  -->
<!DOCTYPE svg PUBLIC "-//W3C//DTD SVG 1.1//EN" "http://www.w3.org/Graphics/SVG/1.1/DTD/svg11.dtd">
<svg version="1.1" id="Layer_1" xmlns="http://www.w3.org/2000/svg" xmlns:xlink="http://www.w3.org/1999/xlink" x="0px" y="0px"
	 width="323.298px" height="331.396px" viewBox="0 0 323.298 331.396" enable-background="new 0 0 323.298 331.396"
	 xml:space="preserve">
<g>
	<defs>
		<rect id="SVGID_1_" width="323.298" height="331.396"/>
	</defs>
	<clipPath id="SVGID_2_">
		<use xlink:href="#SVGID_1_"  overflow="visible"/>
	</clipPath>
	<g clip-path="url(#SVGID_2_)">
	</g>
	
		<line clip-path="url(#SVGID_2_)" fill="none" stroke="#000000" stroke-width="0.7231" stroke-linejoin="round" stroke-miterlimit="10" x1="71.969" y1="240.979" x2="165.513" y2="1.446"/>
	
		<line clip-path="url(#SVGID_2_)" fill="none" stroke="#000000" stroke-width="0.7231" stroke-linejoin="round" stroke-miterlimit="10" x1="229.106" y1="311.297" x2="322.65" y2="72.014"/>
	
		<line clip-path="url(#SVGID_2_)" fill="none" stroke="#000000" stroke-width="0.7231" stroke-linejoin="round" stroke-miterlimit="10" x1="165.513" y1="1.446" x2="322.65" y2="72.014"/>
	
		<line clip-path="url(#SVGID_2_)" fill="none" stroke="#000000" stroke-width="0.7231" stroke-linejoin="round" stroke-miterlimit="10" x1="71.969" y1="240.979" x2="229.106" y2="310.599"/>
	
		<line clip-path="url(#SVGID_2_)" fill="none" stroke="#000000" stroke-width="0.7231" stroke-linejoin="round" stroke-miterlimit="10" x1="126.428" y1="102.007" x2="282.836" y2="173.054"/>
	
		<line clip-path="url(#SVGID_2_)" fill="none" stroke="#000000" stroke-width="0.7231" stroke-linejoin="round" stroke-miterlimit="10" x1="118.022" y1="122.883" x2="274.43" y2="192.723"/>
	
		<line clip-path="url(#SVGID_2_)" fill="none" stroke="#000000" stroke-width="0.7231" stroke-linejoin="round" stroke-miterlimit="10" x1="245.888" y1="37.673" x2="205.356" y2="136.817"/>
	
		<line clip-path="url(#SVGID_2_)" fill="none" stroke="#000000" stroke-width="0.7231" stroke-linejoin="round" stroke-miterlimit="10" x1="197.669" y1="158.412" x2="149.45" y2="275.065"/>
	<polygon clip-path="url(#SVGID_2_)" fill-rule="evenodd" clip-rule="evenodd" points="1.447,205.221 11.275,207.385 9.829,209.529 
		9.105,211.455 	"/>
	
		<line clip-path="url(#SVGID_2_)" fill="none" stroke="#000000" stroke-width="0.7231" stroke-linejoin="round" stroke-miterlimit="10" x1="68.601" y1="238.111" x2="9.829" y2="209.529"/>
	<polygon clip-path="url(#SVGID_2_)" fill-rule="evenodd" clip-rule="evenodd" points="83.968,312.02 93.547,309.377 93.547,312.02 
		93.547,314.189 	"/>
	
		<line clip-path="url(#SVGID_2_)" fill="none" stroke="#000000" stroke-width="0.7231" stroke-linejoin="round" stroke-miterlimit="10" x1="229.106" y1="311.297" x2="94.271" y2="311.297"/>
	
		<polyline clip-path="url(#SVGID_2_)" fill="none" stroke="#000000" stroke-width="0.7231" stroke-linejoin="round" stroke-miterlimit="10" points="
		181.356,311.297 181.606,307.706 182.085,304.34 182.804,301.223 183.752,298.58 184.95,296.186 186.148,294.515 187.596,293.318 
		189.263,292.82 	"/>
	<g clip-path="url(#SVGID_2_)">
		<defs>
			<rect id="SVGID_3_" x="160.002" y="296.66" width="18.235" height="16.807"/>
		</defs>
		<clipPath id="SVGID_4_">
			<use xlink:href="#SVGID_3_"  overflow="visible"/>
		</clipPath>
		<g clip-path="url(#SVGID_4_)">
			<defs>
				<rect id="SVGID_5_" x="160.002" y="296.66" width="17.986" height="16.807"/>
			</defs>
			<clipPath id="SVGID_6_">
				<use xlink:href="#SVGID_5_"  overflow="visible"/>
			</clipPath>
			<g clip-path="url(#SVGID_6_)">
				<path d="M163.757,305.786h-0.886v-5.639c-0.213,0.203-0.493,0.406-0.839,0.609c-0.346,0.204-0.657,0.356-0.933,0.458v-0.855
					c0.496-0.233,0.929-0.515,1.299-0.846s0.633-0.652,0.788-0.964h0.571V305.786z"/>
				<path d="M165.935,303.898l0.93-0.079c0.069,0.453,0.229,0.792,0.48,1.021c0.251,0.228,0.554,0.342,0.908,0.342
					c0.427,0,0.788-0.161,1.083-0.482c0.295-0.321,0.443-0.748,0.443-1.278c0-0.505-0.142-0.903-0.426-1.195
					c-0.284-0.292-0.655-0.438-1.115-0.438c-0.285,0-0.543,0.065-0.772,0.194s-0.41,0.297-0.542,0.504l-0.832-0.108l0.699-3.702
					h3.587v0.846H167.5l-0.389,1.937c0.433-0.301,0.888-0.452,1.363-0.452c0.63,0,1.161,0.218,1.594,0.654s0.65,0.997,0.65,1.682
					c0,0.652-0.19,1.216-0.571,1.691c-0.463,0.583-1.094,0.875-1.895,0.875c-0.656,0-1.191-0.184-1.606-0.551
					S165.994,304.504,165.935,303.898z"/>
			</g>
		</g>
		<g clip-path="url(#SVGID_4_)">
			<defs>
				<rect id="SVGID_7_" x="160.002" y="296.66" width="17.986" height="16.807"/>
			</defs>
			<clipPath id="SVGID_8_">
				<use xlink:href="#SVGID_7_"  overflow="visible"/>
			</clipPath>
			<g clip-path="url(#SVGID_8_)">
			</g>
		</g>
	</g>
	<g clip-path="url(#SVGID_2_)">
		<defs>
			<rect id="SVGID_9_" x="170.335" y="291.872" width="12.947" height="13.191"/>
		</defs>
		<clipPath id="SVGID_10_">
			<use xlink:href="#SVGID_9_"  overflow="visible"/>
		</clipPath>
		<g clip-path="url(#SVGID_10_)">
			<defs>
				<rect id="SVGID_11_" x="170.335" y="291.872" width="12.698" height="13.191"/>
			</defs>
			<clipPath id="SVGID_12_">
				<use xlink:href="#SVGID_11_"  overflow="visible"/>
			</clipPath>
			<g clip-path="url(#SVGID_12_)">
				<path d="M170.598,297.248c0-0.761,0.212-1.325,0.635-1.691c0.354-0.304,0.785-0.457,1.294-0.457
					c0.565,0,1.028,0.185,1.387,0.555s0.539,0.882,0.539,1.535c0,0.529-0.08,0.945-0.238,1.248c-0.159,0.303-0.39,0.539-0.693,0.706
					c-0.304,0.167-0.635,0.251-0.994,0.251c-0.576,0-1.042-0.184-1.396-0.553S170.598,297.942,170.598,297.248z M171.315,297.248
					c0,0.526,0.115,0.921,0.345,1.183s0.519,0.393,0.868,0.393c0.346,0,0.634-0.131,0.864-0.395s0.345-0.665,0.345-1.204
					c0-0.508-0.116-0.894-0.347-1.155s-0.519-0.393-0.862-0.393c-0.349,0-0.638,0.13-0.868,0.391
					C171.43,296.328,171.315,296.722,171.315,297.248z"/>
			</g>
		</g>
		<g clip-path="url(#SVGID_10_)">
			<defs>
				<rect id="SVGID_13_" x="170.335" y="291.872" width="12.698" height="13.191"/>
			</defs>
			<clipPath id="SVGID_14_">
				<use xlink:href="#SVGID_13_"  overflow="visible"/>
			</clipPath>
			<g clip-path="url(#SVGID_14_)">
			</g>
		</g>
	</g>
	<g clip-path="url(#SVGID_2_)">
		<defs>
			<rect id="SVGID_15_" x="199.815" y="280.103" width="39.838" height="16.557"/>
		</defs>
		<clipPath id="SVGID_16_">
			<use xlink:href="#SVGID_15_"  overflow="visible"/>
		</clipPath>
		<g clip-path="url(#SVGID_16_)">
			<defs>
				<rect id="SVGID_17_" x="199.815" y="280.103" width="39.588" height="16.557"/>
			</defs>
			<clipPath id="SVGID_18_">
				<use xlink:href="#SVGID_17_"  overflow="visible"/>
			</clipPath>
			<g clip-path="url(#SVGID_18_)">
				<path d="M202.172,291.348c-0.489-0.616-0.902-1.337-1.24-2.164c-0.338-0.826-0.507-1.681-0.507-2.566
					c0-0.78,0.126-1.527,0.379-2.242c0.295-0.829,0.751-1.655,1.368-2.478h0.635c-0.397,0.682-0.66,1.168-0.788,1.46
					c-0.2,0.452-0.357,0.924-0.472,1.416c-0.141,0.613-0.212,1.229-0.212,1.849c0,1.577,0.49,3.152,1.472,4.725H202.172z"/>
				<path d="M203.59,285.674c0-0.852,0.087-1.538,0.263-2.058c0.175-0.52,0.436-0.92,0.782-1.202
					c0.346-0.282,0.782-0.423,1.307-0.423c0.387,0,0.727,0.078,1.019,0.234s0.533,0.38,0.724,0.673
					c0.19,0.293,0.339,0.651,0.448,1.072c0.108,0.421,0.162,0.989,0.162,1.704c0,0.846-0.087,1.528-0.261,2.048
					s-0.434,0.921-0.78,1.205c-0.346,0.283-0.783,0.425-1.312,0.425c-0.695,0-1.242-0.249-1.639-0.748
					C203.828,288.004,203.59,287.028,203.59,285.674z M204.5,285.674c0,1.183,0.139,1.971,0.416,2.362
					c0.277,0.392,0.619,0.588,1.026,0.588s0.749-0.197,1.026-0.59c0.277-0.393,0.416-1.18,0.416-2.36
					c0-1.187-0.139-1.975-0.416-2.365s-0.623-0.585-1.036-0.585c-0.407,0-0.732,0.172-0.975,0.516
					C204.653,283.68,204.5,284.491,204.5,285.674z"/>
				<path d="M209.591,289.229v-1.008h1.009v1.008c0,0.37-0.065,0.669-0.197,0.897c-0.131,0.228-0.339,0.404-0.625,0.528
					l-0.246-0.378c0.187-0.082,0.325-0.203,0.414-0.361c0.088-0.159,0.138-0.388,0.147-0.686H209.591z"/>
				<path d="M211.975,285.674c0-0.852,0.087-1.538,0.263-2.058c0.175-0.52,0.436-0.92,0.782-1.202
					c0.346-0.282,0.782-0.423,1.307-0.423c0.387,0,0.727,0.078,1.019,0.234s0.533,0.38,0.724,0.673
					c0.19,0.293,0.339,0.651,0.448,1.072c0.108,0.421,0.162,0.989,0.162,1.704c0,0.846-0.087,1.528-0.261,2.048
					s-0.434,0.921-0.78,1.205c-0.346,0.283-0.783,0.425-1.312,0.425c-0.695,0-1.242-0.249-1.639-0.748
					C212.212,288.004,211.975,287.028,211.975,285.674z M212.885,285.674c0,1.183,0.139,1.971,0.416,2.362
					c0.277,0.392,0.619,0.588,1.026,0.588s0.749-0.197,1.026-0.59c0.277-0.393,0.416-1.18,0.416-2.36
					c0-1.187-0.139-1.975-0.416-2.365s-0.623-0.585-1.036-0.585c-0.407,0-0.732,0.172-0.975,0.516
					C213.038,283.68,212.885,284.491,212.885,285.674z"/>
				<path d="M217.966,289.229v-1.008h1.009v1.008c0,0.37-0.065,0.669-0.197,0.897c-0.131,0.228-0.339,0.404-0.625,0.528
					l-0.246-0.378c0.187-0.082,0.325-0.203,0.414-0.361c0.088-0.159,0.138-0.388,0.147-0.686H217.966z"/>
				<path d="M220.35,285.674c0-0.852,0.087-1.538,0.263-2.058c0.175-0.52,0.436-0.92,0.782-1.202
					c0.346-0.282,0.782-0.423,1.307-0.423c0.387,0,0.727,0.078,1.019,0.234s0.533,0.38,0.724,0.673
					c0.19,0.293,0.339,0.651,0.448,1.072c0.108,0.421,0.162,0.989,0.162,1.704c0,0.846-0.087,1.528-0.261,2.048
					s-0.434,0.921-0.78,1.205c-0.346,0.283-0.783,0.425-1.312,0.425c-0.695,0-1.242-0.249-1.639-0.748
					C220.587,288.004,220.35,287.028,220.35,285.674z M221.26,285.674c0,1.183,0.139,1.971,0.416,2.362
					c0.277,0.392,0.619,0.588,1.026,0.588s0.749-0.197,1.026-0.59c0.277-0.393,0.416-1.18,0.416-2.36
					c0-1.187-0.139-1.975-0.416-2.365s-0.623-0.585-1.036-0.585c-0.407,0-0.732,0.172-0.975,0.516
					C221.413,283.68,221.26,284.491,221.26,285.674z"/>
				<path d="M226.69,291.348h-0.635c0.981-1.573,1.471-3.148,1.471-4.725c0-0.616-0.071-1.227-0.211-1.833
					c-0.112-0.492-0.268-0.964-0.468-1.416c-0.128-0.295-0.392-0.787-0.792-1.475h0.635c0.617,0.823,1.073,1.649,1.368,2.478
					c0.253,0.714,0.379,1.462,0.379,2.242c0,0.885-0.17,1.741-0.51,2.566C227.588,290.01,227.176,290.731,226.69,291.348z"/>
			</g>
		</g>
		<g clip-path="url(#SVGID_16_)">
			<defs>
				<rect id="SVGID_19_" x="199.815" y="280.103" width="39.588" height="16.557"/>
			</defs>
			<clipPath id="SVGID_20_">
				<use xlink:href="#SVGID_19_"  overflow="visible"/>
			</clipPath>
			<g clip-path="url(#SVGID_20_)">
			</g>
		</g>
	</g>
	<g clip-path="url(#SVGID_2_)">
		<defs>
			<rect id="SVGID_21_" x="21.828" y="292.097" width="70.047" height="27.604"/>
		</defs>
		<clipPath id="SVGID_22_">
			<use xlink:href="#SVGID_21_"  overflow="visible"/>
		</clipPath>
		<g clip-path="url(#SVGID_22_)">
			<defs>
				<rect id="SVGID_23_" x="21.828" y="292.097" width="69.799" height="27.604"/>
			</defs>
			<clipPath id="SVGID_24_">
				<use xlink:href="#SVGID_23_"  overflow="visible"/>
			</clipPath>
			<g clip-path="url(#SVGID_24_)">
				<path d="M22.566,301.223v-7.208h2.707c0.551,0,0.993,0.073,1.326,0.219s0.594,0.371,0.782,0.673
					c0.188,0.303,0.283,0.621,0.283,0.952c0,0.308-0.084,0.598-0.251,0.87c-0.167,0.272-0.42,0.492-0.758,0.659
					c0.436,0.128,0.771,0.346,1.006,0.654c0.234,0.308,0.352,0.672,0.352,1.092c0,0.337-0.071,0.651-0.214,0.941
					s-0.319,0.514-0.529,0.671c-0.21,0.158-0.473,0.276-0.79,0.356c-0.317,0.081-0.705,0.121-1.164,0.121H22.566z M23.521,297.043
					h1.56c0.423,0,0.727-0.028,0.91-0.083c0.243-0.072,0.426-0.192,0.549-0.359s0.185-0.377,0.185-0.629
					c0-0.239-0.058-0.45-0.172-0.632c-0.115-0.182-0.279-0.306-0.492-0.374c-0.213-0.067-0.579-0.101-1.097-0.101h-1.442V297.043z
					 M23.521,300.372h1.796c0.309,0,0.525-0.011,0.65-0.034c0.22-0.04,0.403-0.105,0.551-0.197c0.148-0.092,0.269-0.226,0.364-0.401
					s0.143-0.377,0.143-0.607c0-0.269-0.069-0.502-0.207-0.701s-0.329-0.337-0.573-0.418c-0.244-0.08-0.596-0.121-1.056-0.121
					h-1.668V300.372z"/>
				<path d="M34.062,294.015h0.955v4.164c0,0.725-0.082,1.3-0.246,1.726c-0.164,0.426-0.46,0.772-0.888,1.04
					c-0.428,0.267-0.99,0.401-1.686,0.401c-0.676,0-1.229-0.117-1.658-0.349c-0.43-0.233-0.737-0.569-0.92-1.01
					s-0.275-1.043-0.275-1.807v-4.164h0.955v4.159c0,0.626,0.058,1.087,0.175,1.384c0.116,0.296,0.316,0.525,0.6,0.686
					s0.631,0.241,1.041,0.241c0.702,0,1.202-0.159,1.5-0.477c0.299-0.318,0.448-0.929,0.448-1.834V294.015z"/>
				<path d="M36.687,301.223v-7.208h0.955v7.208H36.687z"/>
				<path d="M39.346,301.223v-7.208H40.3v6.357h3.553v0.851H39.346z"/>
				<path d="M44.899,301.223v-7.208h2.485c0.561,0,0.989,0.034,1.284,0.103c0.414,0.095,0.766,0.267,1.058,0.517
					c0.38,0.321,0.665,0.731,0.854,1.231c0.188,0.5,0.283,1.071,0.283,1.713c0,0.547-0.064,1.032-0.192,1.455
					s-0.292,0.773-0.492,1.05s-0.419,0.495-0.657,0.654c-0.238,0.159-0.525,0.28-0.861,0.361c-0.336,0.082-0.723,0.123-1.159,0.123
					H44.899z M45.854,300.372h1.54c0.476,0,0.849-0.044,1.12-0.133c0.271-0.088,0.486-0.213,0.647-0.374
					c0.227-0.226,0.403-0.53,0.529-0.912c0.126-0.382,0.189-0.845,0.189-1.389c0-0.754-0.124-1.333-0.371-1.738
					c-0.248-0.405-0.549-0.676-0.903-0.813c-0.256-0.099-0.667-0.147-1.235-0.147h-1.516V300.372z"/>
				<path d="M52.27,301.223v-7.208h0.955v7.208H52.27z"/>
				<path d="M54.958,301.223v-7.208h0.979l3.789,5.659v-5.659h0.915v7.208h-0.979l-3.789-5.664v5.664H54.958z"/>
				<path d="M65.551,298.396v-0.846l3.056-0.005v2.675c-0.469,0.374-0.953,0.655-1.452,0.843c-0.499,0.188-1.01,0.283-1.535,0.283
					c-0.708,0-1.353-0.152-1.932-0.455c-0.579-0.303-1.016-0.741-1.311-1.315c-0.295-0.574-0.443-1.214-0.443-1.922
					c0-0.702,0.146-1.356,0.44-1.964c0.293-0.608,0.716-1.06,1.267-1.354c0.551-0.295,1.186-0.442,1.904-0.442
					c0.521,0,0.993,0.084,1.415,0.253c0.422,0.168,0.752,0.404,0.992,0.706c0.239,0.301,0.421,0.695,0.546,1.18l-0.861,0.236
					c-0.108-0.367-0.243-0.655-0.403-0.865c-0.161-0.209-0.391-0.377-0.689-0.504c-0.299-0.126-0.63-0.189-0.994-0.189
					c-0.437,0-0.813,0.066-1.132,0.199s-0.575,0.308-0.77,0.524c-0.195,0.216-0.347,0.454-0.455,0.713
					c-0.184,0.446-0.276,0.929-0.276,1.45c0,0.643,0.111,1.18,0.332,1.613c0.222,0.433,0.544,0.754,0.967,0.963
					c0.423,0.21,0.873,0.315,1.348,0.315c0.414,0,0.817-0.08,1.21-0.239c0.394-0.159,0.692-0.329,0.896-0.509v-1.342H65.551z"/>
			</g>
		</g>
		<g clip-path="url(#SVGID_22_)">
			<defs>
				<rect id="SVGID_25_" x="21.828" y="292.097" width="69.799" height="27.604"/>
			</defs>
			<clipPath id="SVGID_26_">
				<use xlink:href="#SVGID_25_"  overflow="visible"/>
			</clipPath>
			<g clip-path="url(#SVGID_26_)">
			</g>
		</g>
		<g clip-path="url(#SVGID_22_)">
			<defs>
				<rect id="SVGID_27_" x="21.828" y="292.097" width="69.799" height="27.604"/>
			</defs>
			<clipPath id="SVGID_28_">
				<use xlink:href="#SVGID_27_"  overflow="visible"/>
			</clipPath>
			<g clip-path="url(#SVGID_28_)">
				<path d="M22.595,312.743v-7.208h0.979l3.789,5.659v-5.659h0.915v7.208H27.3l-3.789-5.664v5.664H22.595z"/>
				<path d="M29.522,309.233c0-1.196,0.321-2.133,0.964-2.81s1.473-1.015,2.49-1.015c0.666,0,1.266,0.159,1.801,0.477
					s0.942,0.761,1.223,1.33c0.28,0.569,0.42,1.214,0.42,1.935c0,0.731-0.147,1.385-0.443,1.961
					c-0.295,0.577-0.713,1.014-1.255,1.31c-0.541,0.297-1.125,0.445-1.751,0.445c-0.679,0-1.286-0.164-1.821-0.492
					c-0.535-0.328-0.94-0.775-1.216-1.342C29.66,310.465,29.522,309.865,29.522,309.233z M30.506,309.248
					c0,0.869,0.234,1.553,0.701,2.053c0.468,0.5,1.054,0.75,1.759,0.75c0.719,0,1.31-0.252,1.774-0.757
					c0.464-0.505,0.696-1.221,0.696-2.149c0-0.586-0.1-1.099-0.298-1.536c-0.199-0.438-0.489-0.777-0.871-1.018
					c-0.382-0.241-0.811-0.361-1.287-0.361c-0.676,0-1.257,0.232-1.745,0.695C30.75,307.388,30.506,308.163,30.506,309.248z"/>
				<path d="M37.727,312.743v-7.208h3.198c0.643,0,1.132,0.064,1.467,0.194c0.334,0.129,0.602,0.358,0.802,0.686s0.3,0.69,0.3,1.086
					c0,0.512-0.166,0.942-0.497,1.293c-0.331,0.351-0.843,0.573-1.535,0.668c0.252,0.121,0.444,0.241,0.576,0.359
					c0.279,0.256,0.543,0.575,0.792,0.958l1.255,1.962h-1.201l-0.955-1.5c-0.279-0.433-0.508-0.764-0.689-0.993
					c-0.18-0.229-0.342-0.39-0.484-0.482c-0.143-0.092-0.288-0.156-0.436-0.191c-0.108-0.023-0.286-0.035-0.532-0.035h-1.107v3.201
					H37.727z M38.682,308.716h2.052c0.437,0,0.778-0.045,1.024-0.135c0.246-0.09,0.433-0.234,0.561-0.433
					c0.128-0.198,0.192-0.414,0.192-0.646c0-0.341-0.124-0.621-0.372-0.84c-0.248-0.22-0.639-0.33-1.174-0.33h-2.283V308.716z"/>
				<path d="M46.755,312.743v-6.357h-2.376v-0.851h5.718v0.851H47.71v6.357H46.755z"/>
				<path d="M51.176,312.743v-7.208h0.955v2.959h3.75v-2.959h0.955v7.208h-0.955v-3.397h-3.75v3.397H51.176z"/>
			</g>
		</g>
		<g clip-path="url(#SVGID_22_)">
			<defs>
				<rect id="SVGID_29_" x="21.828" y="292.097" width="69.799" height="27.604"/>
			</defs>
			<clipPath id="SVGID_30_">
				<use xlink:href="#SVGID_29_"  overflow="visible"/>
			</clipPath>
			<g clip-path="url(#SVGID_30_)">
			</g>
		</g>
	</g>
	<g clip-path="url(#SVGID_2_)">
		<defs>
			<rect id="SVGID_31_" x="3.592" y="238.111" width="65.733" height="27.105"/>
		</defs>
		<clipPath id="SVGID_32_">
			<use xlink:href="#SVGID_31_"  overflow="visible"/>
		</clipPath>
		<g clip-path="url(#SVGID_32_)">
			<defs>
				<rect id="SVGID_33_" x="3.592" y="238.111" width="65.508" height="27.105"/>
			</defs>
			<clipPath id="SVGID_34_">
				<use xlink:href="#SVGID_33_"  overflow="visible"/>
			</clipPath>
			<g clip-path="url(#SVGID_34_)">
				<path d="M3.794,247.212v-0.885l3.696-4.617c0.262-0.328,0.512-0.613,0.748-0.855H4.212v-0.851h5.167v0.851l-4.05,5l-0.438,0.506
					h4.606v0.851H3.794z"/>
				<path d="M10.153,244.601c0-0.967,0.269-1.683,0.807-2.148c0.45-0.387,0.998-0.58,1.644-0.58c0.719,0,1.306,0.235,1.762,0.706
					s0.684,1.12,0.684,1.949c0,0.672-0.101,1.201-0.303,1.586c-0.202,0.385-0.495,0.684-0.881,0.897
					c-0.385,0.213-0.806,0.32-1.262,0.32c-0.731,0-1.323-0.234-1.774-0.703S10.153,245.483,10.153,244.601z M11.064,244.601
					c0,0.669,0.146,1.169,0.438,1.502c0.292,0.333,0.659,0.499,1.102,0.499c0.439,0,0.806-0.167,1.098-0.501
					c0.292-0.334,0.438-0.844,0.438-1.529c0-0.646-0.147-1.135-0.44-1.468c-0.294-0.333-0.659-0.499-1.095-0.499
					c-0.443,0-0.81,0.166-1.102,0.497S11.064,243.933,11.064,244.601z"/>
				<path d="M15.998,247.212v-5.221h0.797v0.742c0.384-0.573,0.938-0.86,1.664-0.86c0.315,0,0.604,0.057,0.868,0.169
					c0.264,0.113,0.462,0.262,0.593,0.445c0.131,0.184,0.223,0.401,0.275,0.654c0.033,0.164,0.049,0.451,0.049,0.86v3.21h-0.886
					v-3.176c0-0.36-0.035-0.63-0.104-0.809s-0.191-0.321-0.367-0.428c-0.175-0.106-0.381-0.16-0.617-0.16
					c-0.377,0-0.703,0.12-0.977,0.359s-0.411,0.693-0.411,1.362v2.852H15.998z"/>
				<path d="M25.089,245.53l0.916,0.113c-0.145,0.534-0.412,0.949-0.802,1.244c-0.39,0.295-0.889,0.443-1.496,0.443
					c-0.764,0-1.37-0.235-1.818-0.706c-0.448-0.47-0.672-1.13-0.672-1.979c0-0.878,0.226-1.56,0.679-2.045
					c0.453-0.485,1.04-0.728,1.762-0.728c0.699,0,1.27,0.238,1.712,0.713s0.664,1.144,0.664,2.006c0,0.053-0.001,0.131-0.005,0.236
					h-3.897c0.033,0.573,0.195,1.013,0.487,1.317s0.656,0.457,1.092,0.457c0.325,0,0.602-0.085,0.832-0.255
					C24.773,246.176,24.955,245.904,25.089,245.53z M22.181,244.1H25.1c-0.04-0.439-0.151-0.769-0.335-0.988
					c-0.282-0.341-0.648-0.511-1.097-0.511c-0.407,0-0.749,0.136-1.026,0.408C22.364,243.28,22.211,243.644,22.181,244.1z"/>
				<path d="M28.719,249.331c-0.489-0.616-0.902-1.337-1.24-2.164c-0.338-0.826-0.507-1.681-0.507-2.566
					c0-0.78,0.126-1.527,0.379-2.242c0.295-0.829,0.751-1.655,1.368-2.478h0.635c-0.397,0.682-0.66,1.168-0.788,1.46
					c-0.2,0.452-0.357,0.924-0.472,1.416c-0.141,0.613-0.212,1.229-0.212,1.849c0,1.577,0.49,3.152,1.472,4.725H28.719z"/>
				<path d="M30.028,245.653l0.876-0.138c0.049,0.351,0.186,0.62,0.411,0.807c0.225,0.187,0.539,0.28,0.942,0.28
					c0.407,0,0.709-0.083,0.906-0.248s0.295-0.36,0.295-0.583c0-0.2-0.087-0.357-0.261-0.472c-0.121-0.079-0.423-0.179-0.905-0.3
					c-0.649-0.164-1.1-0.306-1.351-0.425s-0.441-0.285-0.571-0.497c-0.129-0.211-0.194-0.445-0.194-0.701
					c0-0.232,0.053-0.448,0.16-0.646c0.106-0.198,0.251-0.363,0.436-0.494c0.138-0.102,0.325-0.188,0.563-0.258
					c0.238-0.071,0.493-0.106,0.765-0.106c0.41,0,0.77,0.059,1.08,0.177c0.31,0.118,0.539,0.277,0.687,0.479
					s0.249,0.471,0.305,0.809l-0.866,0.118c-0.04-0.269-0.153-0.479-0.342-0.629c-0.189-0.15-0.456-0.226-0.8-0.226
					c-0.407,0-0.697,0.067-0.871,0.202s-0.261,0.292-0.261,0.472c0,0.115,0.036,0.218,0.108,0.31
					c0.072,0.095,0.185,0.174,0.339,0.236c0.088,0.033,0.35,0.108,0.782,0.227c0.627,0.167,1.064,0.304,1.312,0.41
					c0.248,0.107,0.442,0.262,0.583,0.465c0.141,0.203,0.212,0.456,0.212,0.757c0,0.295-0.086,0.573-0.258,0.833
					c-0.172,0.261-0.421,0.462-0.746,0.605s-0.692,0.214-1.103,0.214c-0.679,0-1.196-0.141-1.552-0.423
					C30.354,246.625,30.126,246.208,30.028,245.653z"/>
				<path d="M35.76,249.331h-0.635c0.981-1.573,1.471-3.148,1.471-4.725c0-0.616-0.071-1.227-0.211-1.833
					c-0.112-0.492-0.268-0.964-0.468-1.416c-0.128-0.295-0.392-0.787-0.792-1.475h0.635c0.617,0.823,1.073,1.649,1.368,2.478
					c0.253,0.714,0.379,1.462,0.379,2.242c0,0.885-0.17,1.741-0.51,2.566C36.658,247.994,36.246,248.715,35.76,249.331z"/>
			</g>
		</g>
		<g clip-path="url(#SVGID_32_)">
			<defs>
				<rect id="SVGID_35_" x="3.592" y="238.111" width="65.508" height="27.105"/>
			</defs>
			<clipPath id="SVGID_36_">
				<use xlink:href="#SVGID_35_"  overflow="visible"/>
			</clipPath>
			<g clip-path="url(#SVGID_36_)">
			</g>
		</g>
		<g clip-path="url(#SVGID_32_)">
			<defs>
				<rect id="SVGID_37_" x="3.592" y="238.111" width="65.508" height="27.105"/>
			</defs>
			<clipPath id="SVGID_38_">
				<use xlink:href="#SVGID_37_"  overflow="visible"/>
			</clipPath>
			<g clip-path="url(#SVGID_38_)">
				<path d="M4.36,258.732v-7.208h0.979l3.789,5.659v-5.659h0.915v7.208H9.064l-3.789-5.664v5.664H4.36z"/>
				<path d="M11.134,256.122c0-0.967,0.269-1.683,0.807-2.148c0.45-0.387,0.998-0.58,1.644-0.58c0.719,0,1.306,0.235,1.762,0.706
					s0.684,1.12,0.684,1.949c0,0.672-0.101,1.201-0.303,1.586c-0.202,0.385-0.495,0.684-0.881,0.897
					c-0.385,0.213-0.806,0.32-1.262,0.32c-0.731,0-1.323-0.234-1.774-0.703S11.134,257.003,11.134,256.122z M12.045,256.122
					c0,0.669,0.146,1.169,0.438,1.502c0.292,0.333,0.659,0.499,1.102,0.499c0.439,0,0.806-0.167,1.098-0.501
					c0.292-0.334,0.438-0.844,0.438-1.529c0-0.646-0.147-1.135-0.44-1.468c-0.294-0.333-0.659-0.499-1.095-0.499
					c-0.443,0-0.81,0.166-1.102,0.497S12.045,255.453,12.045,256.122z"/>
				<path d="M16.968,258.732v-5.221h0.797v0.792c0.204-0.371,0.391-0.615,0.563-0.732c0.172-0.118,0.362-0.177,0.568-0.177
					c0.298,0,0.602,0.095,0.91,0.285l-0.305,0.821c-0.217-0.128-0.433-0.192-0.65-0.192c-0.193,0-0.367,0.058-0.521,0.174
					c-0.154,0.117-0.264,0.278-0.33,0.484c-0.099,0.315-0.148,0.659-0.148,1.033v2.733H16.968z"/>
				<path d="M22.269,257.941l0.128,0.782c-0.249,0.052-0.472,0.079-0.669,0.079c-0.322,0-0.571-0.051-0.748-0.152
					s-0.302-0.235-0.374-0.401s-0.108-0.514-0.108-1.044v-3.004h-0.649v-0.688h0.649v-1.293l0.881-0.531v1.824h0.891v0.688h-0.891
					v3.053c0,0.252,0.016,0.415,0.047,0.487s0.082,0.129,0.152,0.172c0.071,0.043,0.171,0.064,0.303,0.064
					C21.979,257.975,22.108,257.964,22.269,257.941z"/>
				<path d="M23.205,258.732v-7.208h0.886v2.586c0.413-0.479,0.935-0.718,1.564-0.718c0.387,0,0.724,0.076,1.009,0.229
					c0.286,0.152,0.49,0.363,0.613,0.632c0.123,0.269,0.185,0.659,0.185,1.17v3.309h-0.886v-3.309c0-0.443-0.096-0.765-0.288-0.966
					c-0.192-0.202-0.463-0.302-0.814-0.302c-0.263,0-0.51,0.068-0.741,0.204c-0.231,0.136-0.396,0.32-0.495,0.553
					c-0.099,0.233-0.147,0.554-0.147,0.964v2.856H23.205z"/>
				<path d="M30.901,258.732l2.771-7.208H34.7l2.953,7.208h-1.087l-0.842-2.183h-3.017l-0.792,2.183H30.901z M32.982,255.772h2.446
					l-0.753-1.996c-0.23-0.606-0.4-1.104-0.512-1.495c-0.092,0.462-0.222,0.921-0.389,1.377L32.982,255.772z"/>
				<path d="M37.711,258.732l1.909-2.714l-1.767-2.507h1.107l0.802,1.224c0.151,0.233,0.272,0.428,0.364,0.585
					c0.144-0.216,0.277-0.408,0.398-0.575l0.881-1.234h1.058l-1.806,2.458l1.944,2.763h-1.087l-1.073-1.623l-0.286-0.438
					l-1.373,2.06H37.711z"/>
				<path d="M43.578,252.542v-1.018h0.886v1.018H43.578z M43.578,258.732v-5.221h0.886v5.221H43.578z"/>
				<path d="M45.599,257.174l0.876-0.138c0.049,0.351,0.186,0.62,0.411,0.807c0.225,0.187,0.539,0.28,0.942,0.28
					c0.407,0,0.709-0.083,0.906-0.248s0.295-0.36,0.295-0.583c0-0.2-0.087-0.357-0.261-0.472c-0.121-0.079-0.423-0.179-0.905-0.3
					c-0.649-0.164-1.1-0.306-1.351-0.425s-0.441-0.285-0.571-0.497c-0.129-0.211-0.194-0.445-0.194-0.701
					c0-0.232,0.053-0.448,0.16-0.646c0.106-0.198,0.251-0.363,0.436-0.494c0.138-0.102,0.325-0.188,0.563-0.258
					c0.238-0.071,0.493-0.106,0.765-0.106c0.41,0,0.77,0.059,1.08,0.177c0.31,0.118,0.539,0.277,0.687,0.479
					s0.249,0.471,0.305,0.809l-0.866,0.118c-0.04-0.269-0.153-0.479-0.342-0.629c-0.189-0.15-0.456-0.226-0.8-0.226
					c-0.407,0-0.697,0.067-0.871,0.202s-0.261,0.292-0.261,0.472c0,0.115,0.036,0.218,0.108,0.31
					c0.072,0.095,0.185,0.174,0.339,0.236c0.088,0.033,0.35,0.108,0.782,0.227c0.627,0.167,1.064,0.304,1.312,0.41
					c0.248,0.107,0.442,0.262,0.583,0.465c0.141,0.203,0.212,0.456,0.212,0.757c0,0.295-0.086,0.573-0.258,0.833
					c-0.172,0.261-0.421,0.462-0.746,0.605s-0.692,0.214-1.103,0.214c-0.679,0-1.196-0.141-1.552-0.423
					C45.924,258.146,45.697,257.728,45.599,257.174z"/>
			</g>
		</g>
		<g clip-path="url(#SVGID_32_)">
			<defs>
				<rect id="SVGID_39_" x="3.592" y="238.111" width="65.508" height="27.105"/>
			</defs>
			<clipPath id="SVGID_40_">
				<use xlink:href="#SVGID_39_"  overflow="visible"/>
			</clipPath>
			<g clip-path="url(#SVGID_40_)">
			</g>
		</g>
	</g>
	<polygon clip-path="url(#SVGID_2_)" fill-rule="evenodd" clip-rule="evenodd" points="149.45,275.065 143.939,265.939 
		146.584,265.216 148.731,264.493 	"/>
	
		<line clip-path="url(#SVGID_2_)" fill="none" stroke="#000000" stroke-width="0.7231" stroke-linejoin="round" stroke-miterlimit="10" x1="142.96" y1="255.391" x2="147.283" y2="265.216"/>
	<g clip-path="url(#SVGID_2_)">
		<defs>
			<rect id="SVGID_41_" x="130.741" y="240.255" width="39.813" height="16.557"/>
		</defs>
		<clipPath id="SVGID_42_">
			<use xlink:href="#SVGID_41_"  overflow="visible"/>
		</clipPath>
		<g clip-path="url(#SVGID_42_)">
			<defs>
				<rect id="SVGID_43_" x="130.741" y="240.255" width="39.588" height="16.557"/>
			</defs>
			<clipPath id="SVGID_44_">
				<use xlink:href="#SVGID_43_"  overflow="visible"/>
			</clipPath>
			<g clip-path="url(#SVGID_44_)">
				<path d="M133.098,251.501c-0.489-0.616-0.902-1.337-1.24-2.164c-0.338-0.826-0.507-1.681-0.507-2.566
					c0-0.78,0.126-1.527,0.379-2.242c0.295-0.829,0.751-1.655,1.368-2.478h0.635c-0.397,0.682-0.66,1.168-0.788,1.46
					c-0.2,0.452-0.357,0.924-0.472,1.416c-0.141,0.613-0.212,1.229-0.212,1.849c0,1.577,0.49,3.152,1.472,4.725H133.098z"/>
				<path d="M134.516,245.827c0-0.852,0.087-1.538,0.263-2.058c0.175-0.52,0.436-0.92,0.782-1.202
					c0.346-0.282,0.782-0.423,1.307-0.423c0.387,0,0.727,0.078,1.019,0.234s0.533,0.38,0.724,0.673
					c0.19,0.293,0.339,0.651,0.448,1.072c0.108,0.421,0.162,0.989,0.162,1.704c0,0.846-0.087,1.528-0.261,2.048
					s-0.434,0.921-0.78,1.205c-0.346,0.283-0.783,0.425-1.312,0.425c-0.695,0-1.242-0.249-1.639-0.748
					C134.753,248.158,134.516,247.181,134.516,245.827z M135.426,245.827c0,1.183,0.139,1.971,0.416,2.362
					c0.277,0.392,0.619,0.588,1.026,0.588s0.749-0.197,1.026-0.59c0.277-0.393,0.416-1.18,0.416-2.36
					c0-1.187-0.139-1.975-0.416-2.365s-0.623-0.585-1.036-0.585c-0.407,0-0.732,0.172-0.975,0.516
					C135.579,243.833,135.426,244.644,135.426,245.827z"/>
				<path d="M140.517,249.382v-1.008h1.009v1.008c0,0.37-0.065,0.669-0.197,0.897c-0.131,0.228-0.339,0.404-0.625,0.528
					l-0.246-0.378c0.187-0.082,0.325-0.203,0.414-0.361c0.088-0.159,0.138-0.388,0.147-0.686H140.517z"/>
				<path d="M143.033,247.715l0.851-0.079c0.072,0.4,0.21,0.69,0.414,0.871c0.203,0.18,0.464,0.271,0.782,0.271
					c0.272,0,0.511-0.063,0.716-0.187c0.205-0.125,0.373-0.291,0.504-0.499c0.131-0.208,0.241-0.489,0.33-0.843
					c0.088-0.354,0.133-0.714,0.133-1.082c0-0.04-0.001-0.099-0.005-0.177c-0.177,0.282-0.419,0.511-0.726,0.686
					c-0.307,0.175-0.639,0.263-0.996,0.263c-0.597,0-1.103-0.216-1.516-0.649c-0.413-0.433-0.62-1.003-0.62-1.711
					c0-0.731,0.215-1.319,0.647-1.765c0.431-0.446,0.972-0.669,1.622-0.669c0.469,0,0.898,0.126,1.287,0.379
					s0.684,0.612,0.886,1.079c0.202,0.467,0.303,1.143,0.303,2.028c0,0.921-0.1,1.655-0.3,2.2c-0.2,0.546-0.498,0.961-0.893,1.247
					s-0.859,0.428-1.39,0.428c-0.564,0-1.025-0.157-1.383-0.47S143.105,248.282,143.033,247.715z M146.66,244.534
					c0-0.508-0.135-0.911-0.406-1.209s-0.596-0.447-0.977-0.447c-0.394,0-0.736,0.161-1.028,0.481
					c-0.292,0.321-0.438,0.738-0.438,1.249c0,0.459,0.139,0.832,0.416,1.119c0.277,0.287,0.619,0.43,1.026,0.43
					c0.41,0,0.747-0.144,1.011-0.43C146.528,245.439,146.66,245.042,146.66,244.534z"/>
				<path d="M148.892,249.382v-1.008h1.009v1.008c0,0.37-0.065,0.669-0.197,0.897c-0.131,0.228-0.339,0.404-0.625,0.528
					l-0.246-0.378c0.187-0.082,0.325-0.203,0.414-0.361c0.088-0.159,0.138-0.388,0.147-0.686H148.892z"/>
				<path d="M151.275,245.827c0-0.852,0.087-1.538,0.263-2.058c0.175-0.52,0.436-0.92,0.782-1.202
					c0.346-0.282,0.782-0.423,1.307-0.423c0.387,0,0.727,0.078,1.019,0.234s0.533,0.38,0.724,0.673
					c0.19,0.293,0.339,0.651,0.448,1.072c0.108,0.421,0.162,0.989,0.162,1.704c0,0.846-0.087,1.528-0.261,2.048
					s-0.434,0.921-0.78,1.205c-0.346,0.283-0.783,0.425-1.312,0.425c-0.695,0-1.242-0.249-1.639-0.748
					C151.513,248.158,151.275,247.181,151.275,245.827z M152.186,245.827c0,1.183,0.139,1.971,0.416,2.362
					c0.277,0.392,0.619,0.588,1.026,0.588s0.749-0.197,1.026-0.59c0.277-0.393,0.416-1.18,0.416-2.36
					c0-1.187-0.139-1.975-0.416-2.365s-0.623-0.585-1.036-0.585c-0.407,0-0.732,0.172-0.975,0.516
					C152.338,243.833,152.186,244.644,152.186,245.827z"/>
				<path d="M157.616,251.501h-0.635c0.981-1.573,1.471-3.148,1.471-4.725c0-0.616-0.071-1.227-0.211-1.833
					c-0.112-0.492-0.268-0.964-0.468-1.416c-0.128-0.295-0.392-0.787-0.792-1.475h0.635c0.617,0.823,1.073,1.649,1.368,2.478
					c0.253,0.714,0.379,1.462,0.379,2.242c0,0.885-0.17,1.741-0.51,2.566C158.514,250.164,158.102,250.885,157.616,251.501z"/>
			</g>
		</g>
		<g clip-path="url(#SVGID_42_)">
			<defs>
				<rect id="SVGID_45_" x="130.741" y="240.255" width="39.588" height="16.557"/>
			</defs>
			<clipPath id="SVGID_46_">
				<use xlink:href="#SVGID_45_"  overflow="visible"/>
			</clipPath>
			<g clip-path="url(#SVGID_46_)">
			</g>
		</g>
	</g>
	<g clip-path="url(#SVGID_2_)">
		<defs>
			<rect id="SVGID_47_" x="111.783" y="192.03" width="40.537" height="16.782"/>
		</defs>
		<clipPath id="SVGID_48_">
			<use xlink:href="#SVGID_47_"  overflow="visible"/>
		</clipPath>
		<g clip-path="url(#SVGID_48_)">
			<defs>
				<rect id="SVGID_49_" x="111.783" y="192.03" width="40.313" height="16.782"/>
			</defs>
			<clipPath id="SVGID_50_">
				<use xlink:href="#SVGID_49_"  overflow="visible"/>
			</clipPath>
			<g clip-path="url(#SVGID_50_)">
				<path d="M111.985,201.132v-0.885l3.696-4.617c0.262-0.328,0.512-0.613,0.748-0.855h-4.025v-0.851h5.167v0.851l-4.05,5
					l-0.438,0.506h4.606v0.851H111.985z"/>
				<path d="M118.344,198.521c0-0.967,0.269-1.683,0.807-2.148c0.45-0.387,0.998-0.58,1.644-0.58c0.719,0,1.306,0.235,1.762,0.706
					s0.684,1.12,0.684,1.949c0,0.672-0.101,1.201-0.303,1.586c-0.202,0.385-0.495,0.684-0.881,0.897
					c-0.385,0.213-0.806,0.32-1.262,0.32c-0.731,0-1.323-0.234-1.774-0.703S118.344,199.403,118.344,198.521z M119.255,198.521
					c0,0.669,0.146,1.169,0.438,1.502c0.292,0.333,0.659,0.499,1.102,0.499c0.439,0,0.806-0.167,1.098-0.501
					c0.292-0.334,0.438-0.844,0.438-1.529c0-0.646-0.147-1.135-0.44-1.468c-0.294-0.333-0.659-0.499-1.095-0.499
					c-0.443,0-0.81,0.166-1.102,0.497S119.255,197.853,119.255,198.521z"/>
				<path d="M124.188,201.132v-5.221h0.797v0.742c0.384-0.573,0.938-0.86,1.664-0.86c0.315,0,0.604,0.057,0.868,0.169
					c0.264,0.113,0.462,0.262,0.593,0.445c0.131,0.184,0.223,0.401,0.275,0.654c0.033,0.164,0.049,0.451,0.049,0.86v3.21h-0.886
					v-3.176c0-0.36-0.035-0.63-0.104-0.809s-0.191-0.321-0.367-0.428c-0.175-0.106-0.381-0.16-0.617-0.16
					c-0.377,0-0.703,0.12-0.977,0.359s-0.411,0.693-0.411,1.362v2.852H124.188z"/>
				<path d="M133.28,199.45l0.916,0.113c-0.145,0.534-0.412,0.949-0.802,1.244c-0.39,0.295-0.889,0.443-1.496,0.443
					c-0.764,0-1.37-0.235-1.818-0.706c-0.448-0.47-0.672-1.13-0.672-1.979c0-0.878,0.226-1.56,0.679-2.045
					c0.453-0.485,1.04-0.728,1.762-0.728c0.699,0,1.27,0.238,1.712,0.713s0.664,1.144,0.664,2.006c0,0.053-0.001,0.131-0.005,0.236
					h-3.897c0.033,0.573,0.195,1.013,0.487,1.317s0.656,0.457,1.092,0.457c0.325,0,0.602-0.085,0.832-0.255
					C132.964,200.096,133.146,199.824,133.28,199.45z M130.372,198.02h2.918c-0.04-0.439-0.151-0.769-0.335-0.988
					c-0.282-0.341-0.648-0.511-1.097-0.511c-0.407,0-0.749,0.136-1.026,0.408C130.555,197.2,130.402,197.564,130.372,198.02z"/>
				<path d="M141.168,201.132h-0.886v-5.639c-0.213,0.203-0.493,0.406-0.839,0.609c-0.346,0.204-0.657,0.356-0.933,0.458v-0.855
					c0.496-0.233,0.929-0.515,1.299-0.846s0.633-0.652,0.788-0.964h0.571V201.132z"/>
			</g>
		</g>
		<g clip-path="url(#SVGID_48_)">
			<defs>
				<rect id="SVGID_51_" x="111.783" y="192.03" width="40.313" height="16.782"/>
			</defs>
			<clipPath id="SVGID_52_">
				<use xlink:href="#SVGID_51_"  overflow="visible"/>
			</clipPath>
			<g clip-path="url(#SVGID_52_)">
			</g>
		</g>
	</g>
	<g clip-path="url(#SVGID_2_)">
		<defs>
			<rect id="SVGID_53_" x="192.637" y="222.75" width="37.17" height="16.557"/>
		</defs>
		<clipPath id="SVGID_54_">
			<use xlink:href="#SVGID_53_"  overflow="visible"/>
		</clipPath>
		<g clip-path="url(#SVGID_54_)">
			<defs>
				<rect id="SVGID_55_" x="192.637" y="222.75" width="36.945" height="16.557"/>
			</defs>
			<clipPath id="SVGID_56_">
				<use xlink:href="#SVGID_55_"  overflow="visible"/>
			</clipPath>
			<g clip-path="url(#SVGID_56_)">
				<path d="M192.839,231.853v-0.885l3.696-4.617c0.262-0.328,0.512-0.613,0.748-0.855h-4.025v-0.851h5.167v0.851l-4.05,5
					l-0.438,0.506h4.606v0.851H192.839z"/>
				<path d="M199.199,229.242c0-0.967,0.269-1.683,0.807-2.148c0.45-0.387,0.998-0.58,1.644-0.58c0.719,0,1.306,0.235,1.762,0.706
					s0.684,1.12,0.684,1.949c0,0.672-0.101,1.201-0.303,1.586c-0.202,0.385-0.495,0.684-0.881,0.897
					c-0.385,0.213-0.806,0.32-1.262,0.32c-0.731,0-1.323-0.234-1.774-0.703S199.199,230.124,199.199,229.242z M200.109,229.242
					c0,0.669,0.146,1.169,0.438,1.502c0.292,0.333,0.659,0.499,1.102,0.499c0.439,0,0.806-0.167,1.098-0.501
					c0.292-0.334,0.438-0.844,0.438-1.529c0-0.646-0.147-1.135-0.44-1.468c-0.294-0.333-0.659-0.499-1.095-0.499
					c-0.443,0-0.81,0.166-1.102,0.497S200.109,228.573,200.109,229.242z"/>
				<path d="M205.043,231.853v-5.221h0.797v0.742c0.384-0.573,0.938-0.86,1.664-0.86c0.315,0,0.604,0.057,0.868,0.169
					c0.264,0.113,0.462,0.262,0.593,0.445c0.131,0.184,0.223,0.401,0.275,0.654c0.033,0.164,0.049,0.451,0.049,0.86v3.21h-0.886
					v-3.176c0-0.36-0.035-0.63-0.104-0.809s-0.191-0.321-0.367-0.428c-0.175-0.106-0.381-0.16-0.617-0.16
					c-0.377,0-0.703,0.12-0.977,0.359s-0.411,0.693-0.411,1.362v2.852H205.043z"/>
				<path d="M214.135,230.171l0.916,0.113c-0.145,0.534-0.412,0.949-0.802,1.244c-0.39,0.295-0.889,0.443-1.496,0.443
					c-0.764,0-1.37-0.235-1.818-0.706c-0.448-0.47-0.672-1.13-0.672-1.979c0-0.878,0.226-1.56,0.679-2.045
					c0.453-0.485,1.04-0.728,1.762-0.728c0.699,0,1.27,0.238,1.712,0.713s0.664,1.144,0.664,2.006c0,0.053-0.001,0.131-0.005,0.236
					h-3.897c0.033,0.573,0.195,1.013,0.487,1.317s0.656,0.457,1.092,0.457c0.325,0,0.602-0.085,0.832-0.255
					C213.818,230.817,214,230.545,214.135,230.171z M211.227,228.74h2.918c-0.04-0.439-0.151-0.769-0.335-0.988
					c-0.282-0.341-0.648-0.511-1.097-0.511c-0.407,0-0.749,0.136-1.026,0.408C211.41,227.921,211.256,228.285,211.227,228.74z"/>
				<path d="M223.341,231.002v0.851h-4.769c-0.007-0.213,0.028-0.418,0.103-0.615c0.122-0.324,0.316-0.644,0.583-0.958
					c0.267-0.315,0.653-0.679,1.159-1.091c0.784-0.643,1.314-1.151,1.589-1.527c0.276-0.375,0.414-0.73,0.414-1.064
					c0-0.351-0.125-0.646-0.376-0.887c-0.251-0.241-0.578-0.361-0.982-0.361c-0.426,0-0.768,0.127-1.023,0.383
					s-0.385,0.61-0.389,1.062l-0.91-0.093c0.062-0.679,0.296-1.196,0.704-1.551c0.407-0.355,0.953-0.534,1.639-0.534
					c0.692,0,1.24,0.192,1.644,0.575c0.403,0.384,0.605,0.859,0.605,1.426c0,0.289-0.059,0.572-0.177,0.851
					c-0.118,0.279-0.314,0.572-0.588,0.88s-0.729,0.731-1.365,1.269c-0.532,0.446-0.873,0.748-1.024,0.907
					c-0.151,0.159-0.275,0.319-0.374,0.479H223.341z"/>
			</g>
		</g>
		<g clip-path="url(#SVGID_54_)">
			<defs>
				<rect id="SVGID_57_" x="192.637" y="222.75" width="36.945" height="16.557"/>
			</defs>
			<clipPath id="SVGID_58_">
				<use xlink:href="#SVGID_57_"  overflow="visible"/>
			</clipPath>
			<g clip-path="url(#SVGID_58_)">
			</g>
		</g>
	</g>
	<g clip-path="url(#SVGID_2_)">
		<defs>
			<rect id="SVGID_59_" x="156.638" y="69.84" width="43.904" height="16.807"/>
		</defs>
		<clipPath id="SVGID_60_">
			<use xlink:href="#SVGID_59_"  overflow="visible"/>
		</clipPath>
		<g clip-path="url(#SVGID_60_)">
			<defs>
				<rect id="SVGID_61_" x="156.638" y="69.84" width="43.68" height="16.807"/>
			</defs>
			<clipPath id="SVGID_62_">
				<use xlink:href="#SVGID_61_"  overflow="visible"/>
			</clipPath>
			<g clip-path="url(#SVGID_62_)">
				<path d="M156.839,78.966v-0.885l3.696-4.617c0.262-0.328,0.512-0.613,0.748-0.855h-4.025v-0.851h5.167v0.851l-4.05,5
					l-0.438,0.506h4.606v0.851H156.839z"/>
				<path d="M163.199,76.355c0-0.967,0.269-1.683,0.807-2.148c0.45-0.387,0.998-0.58,1.644-0.58c0.719,0,1.306,0.235,1.762,0.706
					s0.684,1.12,0.684,1.949c0,0.672-0.101,1.201-0.303,1.586c-0.202,0.385-0.495,0.684-0.881,0.897
					c-0.385,0.213-0.806,0.32-1.262,0.32c-0.731,0-1.323-0.234-1.774-0.703S163.199,77.237,163.199,76.355z M164.109,76.355
					c0,0.669,0.146,1.169,0.438,1.502c0.292,0.333,0.659,0.499,1.102,0.499c0.439,0,0.806-0.167,1.098-0.501
					c0.292-0.334,0.438-0.844,0.438-1.529c0-0.646-0.147-1.135-0.44-1.468c-0.294-0.333-0.659-0.499-1.095-0.499
					c-0.443,0-0.81,0.166-1.102,0.497S164.109,75.687,164.109,76.355z"/>
				<path d="M169.043,78.966v-5.221h0.797v0.742c0.384-0.573,0.938-0.86,1.664-0.86c0.315,0,0.604,0.057,0.868,0.169
					c0.264,0.113,0.462,0.262,0.593,0.445c0.131,0.184,0.223,0.401,0.275,0.654c0.033,0.164,0.049,0.451,0.049,0.86v3.21h-0.886
					V75.79c0-0.36-0.035-0.63-0.104-0.809s-0.191-0.321-0.367-0.428c-0.175-0.106-0.381-0.16-0.617-0.16
					c-0.377,0-0.703,0.12-0.977,0.359s-0.411,0.693-0.411,1.362v2.852H169.043z"/>
				<path d="M178.135,77.284l0.916,0.113c-0.145,0.534-0.412,0.949-0.802,1.244c-0.39,0.295-0.889,0.443-1.496,0.443
					c-0.764,0-1.37-0.235-1.818-0.706c-0.448-0.47-0.672-1.13-0.672-1.979c0-0.878,0.226-1.56,0.679-2.045
					c0.453-0.485,1.04-0.728,1.762-0.728c0.699,0,1.27,0.238,1.712,0.713s0.664,1.144,0.664,2.006c0,0.053-0.001,0.131-0.005,0.236
					h-3.897c0.033,0.573,0.195,1.013,0.487,1.317s0.656,0.457,1.092,0.457c0.325,0,0.602-0.085,0.832-0.255
					C177.818,77.93,178,77.658,178.135,77.284z M175.227,75.854h2.918c-0.04-0.439-0.151-0.769-0.335-0.988
					c-0.282-0.341-0.648-0.511-1.097-0.511c-0.407,0-0.749,0.136-1.026,0.408C175.41,75.034,175.256,75.398,175.227,75.854z"/>
				<path d="M185.525,78.966V77.24h-3.13v-0.812l3.292-4.67h0.724v4.67h0.974v0.812h-0.974v1.726H185.525z M185.525,76.429v-3.25
					l-2.259,3.25H185.525z"/>
			</g>
		</g>
		<g clip-path="url(#SVGID_60_)">
			<defs>
				<rect id="SVGID_63_" x="156.638" y="69.84" width="43.68" height="16.807"/>
			</defs>
			<clipPath id="SVGID_64_">
				<use xlink:href="#SVGID_63_"  overflow="visible"/>
			</clipPath>
			<g clip-path="url(#SVGID_64_)">
			</g>
		</g>
	</g>
	<g clip-path="url(#SVGID_2_)">
		<defs>
			<rect id="SVGID_65_" x="237.732" y="101.289" width="41.012" height="16.558"/>
		</defs>
		<clipPath id="SVGID_66_">
			<use xlink:href="#SVGID_65_"  overflow="visible"/>
		</clipPath>
		<g clip-path="url(#SVGID_66_)">
			<defs>
				<rect id="SVGID_67_" x="237.732" y="101.289" width="40.787" height="16.558"/>
			</defs>
			<clipPath id="SVGID_68_">
				<use xlink:href="#SVGID_67_"  overflow="visible"/>
			</clipPath>
			<g clip-path="url(#SVGID_68_)">
				<path d="M237.934,110.415v-0.885l3.695-4.617c0.263-0.328,0.512-0.613,0.748-0.855h-4.025v-0.851h5.167v0.851l-4.05,5
					l-0.438,0.506h4.606v0.851H237.934z"/>
				<path d="M244.293,107.804c0-0.967,0.269-1.683,0.807-2.148c0.449-0.387,0.997-0.58,1.644-0.58c0.719,0,1.306,0.235,1.762,0.706
					s0.685,1.12,0.685,1.949c0,0.672-0.102,1.201-0.303,1.586c-0.202,0.385-0.496,0.684-0.881,0.897
					c-0.386,0.213-0.807,0.32-1.263,0.32c-0.731,0-1.323-0.234-1.773-0.703C244.519,109.361,244.293,108.686,244.293,107.804z
					 M245.204,107.804c0,0.669,0.146,1.169,0.438,1.502c0.292,0.333,0.66,0.499,1.103,0.499c0.439,0,0.806-0.167,1.098-0.501
					c0.292-0.334,0.438-0.844,0.438-1.529c0-0.646-0.146-1.135-0.44-1.468c-0.293-0.333-0.658-0.499-1.095-0.499
					c-0.442,0-0.811,0.166-1.103,0.497S245.204,107.136,245.204,107.804z"/>
				<path d="M250.137,110.415v-5.221h0.798v0.742c0.384-0.573,0.938-0.86,1.663-0.86c0.314,0,0.604,0.057,0.868,0.169
					c0.265,0.113,0.462,0.262,0.593,0.445c0.132,0.184,0.224,0.401,0.276,0.654c0.032,0.164,0.049,0.451,0.049,0.86v3.21h-0.886
					v-3.176c0-0.36-0.034-0.63-0.104-0.809c-0.068-0.179-0.191-0.321-0.366-0.428c-0.176-0.106-0.382-0.16-0.618-0.16
					c-0.377,0-0.702,0.12-0.977,0.359c-0.273,0.239-0.411,0.693-0.411,1.362v2.852H250.137z"/>
				<path d="M259.229,108.733l0.915,0.113c-0.145,0.534-0.412,0.949-0.802,1.244c-0.391,0.295-0.89,0.443-1.496,0.443
					c-0.765,0-1.371-0.235-1.818-0.706c-0.448-0.47-0.672-1.13-0.672-1.979c0-0.878,0.227-1.56,0.679-2.045
					c0.453-0.485,1.04-0.728,1.762-0.728c0.699,0,1.27,0.238,1.713,0.713c0.442,0.475,0.664,1.144,0.664,2.006
					c0,0.053-0.002,0.131-0.005,0.236h-3.897c0.033,0.573,0.195,1.013,0.487,1.317s0.656,0.457,1.093,0.457
					c0.324,0,0.602-0.085,0.831-0.255S259.094,109.107,259.229,108.733z M256.321,107.303h2.918
					c-0.04-0.439-0.151-0.769-0.335-0.988c-0.282-0.341-0.647-0.511-1.098-0.511c-0.406,0-0.748,0.136-1.025,0.408
					S256.35,106.847,256.321,107.303z"/>
				<path d="M263.785,108.512l0.886-0.118c0.102,0.501,0.275,0.863,0.52,1.084s0.542,0.332,0.894,0.332
					c0.416,0,0.768-0.145,1.055-0.433c0.287-0.288,0.431-0.646,0.431-1.072c0-0.406-0.133-0.741-0.398-1.005
					c-0.266-0.264-0.604-0.396-1.014-0.396c-0.167,0-0.376,0.033-0.625,0.098l0.099-0.777c0.059,0.007,0.106,0.01,0.143,0.01
					c0.377,0,0.717-0.098,1.019-0.295s0.453-0.5,0.453-0.91c0-0.324-0.11-0.593-0.33-0.806c-0.22-0.213-0.504-0.319-0.852-0.319
					c-0.344,0-0.631,0.108-0.86,0.324c-0.23,0.216-0.378,0.541-0.443,0.974l-0.886-0.157c0.108-0.593,0.354-1.053,0.738-1.379
					s0.861-0.489,1.432-0.489c0.394,0,0.757,0.084,1.088,0.253s0.585,0.399,0.76,0.691c0.176,0.292,0.264,0.602,0.264,0.929
					c0,0.312-0.084,0.595-0.251,0.851c-0.167,0.255-0.415,0.459-0.743,0.609c0.427,0.099,0.758,0.302,0.994,0.612
					c0.236,0.31,0.354,0.697,0.354,1.163c0,0.629-0.229,1.163-0.689,1.601c-0.459,0.438-1.04,0.656-1.741,0.656
					c-0.634,0-1.159-0.188-1.577-0.565C264.083,109.601,263.844,109.112,263.785,108.512z"/>
			</g>
		</g>
		<g clip-path="url(#SVGID_66_)">
			<defs>
				<rect id="SVGID_69_" x="237.732" y="101.289" width="40.787" height="16.558"/>
			</defs>
			<clipPath id="SVGID_70_">
				<use xlink:href="#SVGID_69_"  overflow="visible"/>
			</clipPath>
			<g clip-path="url(#SVGID_70_)">
			</g>
		</g>
	</g>
	
		<line clip-path="url(#SVGID_2_)" fill="none" stroke="#000000" stroke-width="0.7231" stroke-linejoin="round" stroke-miterlimit="10" x1="222.368" y1="294.989" x2="226.68" y2="304.589"/>
	<polygon clip-path="url(#SVGID_2_)" fill-rule="evenodd" clip-rule="evenodd" points="229.106,312.27 223.336,303.393 
		226.211,302.669 228.377,301.946 	"/>
</g>
</svg>
