<?xml version="1.0" encoding="utf-8"?>
<!-- Generator: Adobe Illustrator 16.0.0, SVG Export Plug-In . SVG Version: 6.00 Build 0)  -->
<!DOCTYPE svg PUBLIC "-//W3C//DTD SVG 1.1//EN" "http://www.w3.org/Graphics/SVG/1.1/DTD/svg11.dtd">
<svg version="1.1" id="Layer_1" xmlns="http://www.w3.org/2000/svg" xmlns:xlink="http://www.w3.org/1999/xlink" x="0px" y="0px"
	 width="496.336px" height="191.156px" viewBox="0 0 496.336 191.156" enable-background="new 0 0 496.336 191.156"
	 xml:space="preserve">
<g>
	<defs>
		<rect id="SVGID_1_" y="0" width="349.802" height="187.795"/>
	</defs>
	<clipPath id="SVGID_2_">
		<use xlink:href="#SVGID_1_"  overflow="visible"/>
	</clipPath>
	
		<rect x="87.517" y="8.394" clip-path="url(#SVGID_2_)" fill="none" stroke="#000000" stroke-width="0.7242" stroke-linejoin="round" stroke-miterlimit="10" width="128.665" height="128.669"/>
	<polygon clip-path="url(#SVGID_2_)" fill-rule="evenodd" clip-rule="evenodd" points="217.372,9.12 215.824,7.675 129.604,115.244 
		131.302,116.667 	"/>
	<rect x="129.364" y="115.943" clip-path="url(#SVGID_2_)" fill-rule="evenodd" clip-rule="evenodd" width="2.295" height="2.292"/>
	<rect x="129.364" y="120.505" clip-path="url(#SVGID_2_)" fill-rule="evenodd" clip-rule="evenodd" width="2.295" height="2.293"/>
	<rect x="129.364" y="125.066" clip-path="url(#SVGID_2_)" fill-rule="evenodd" clip-rule="evenodd" width="2.295" height="2.269"/>
	<rect x="129.364" y="129.628" clip-path="url(#SVGID_2_)" fill-rule="evenodd" clip-rule="evenodd" width="2.295" height="2.269"/>
	<rect x="129.364" y="134.189" clip-path="url(#SVGID_2_)" fill-rule="evenodd" clip-rule="evenodd" width="2.295" height="2.269"/>
	<rect x="128.186" y="114.882" clip-path="url(#SVGID_2_)" fill-rule="evenodd" clip-rule="evenodd" width="2.271" height="2.269"/>
	<rect x="123.612" y="114.882" clip-path="url(#SVGID_2_)" fill-rule="evenodd" clip-rule="evenodd" width="2.271" height="2.269"/>
	<rect x="119.047" y="114.882" clip-path="url(#SVGID_2_)" fill-rule="evenodd" clip-rule="evenodd" width="2.295" height="2.269"/>
	<rect x="114.503" y="114.882" clip-path="url(#SVGID_2_)" fill-rule="evenodd" clip-rule="evenodd" width="2.271" height="2.269"/>
	<rect x="109.939" y="114.882" clip-path="url(#SVGID_2_)" fill-rule="evenodd" clip-rule="evenodd" width="2.295" height="2.269"/>
	<rect x="105.395" y="114.882" clip-path="url(#SVGID_2_)" fill-rule="evenodd" clip-rule="evenodd" width="2.271" height="2.269"/>
	<rect x="100.831" y="114.882" clip-path="url(#SVGID_2_)" fill-rule="evenodd" clip-rule="evenodd" width="2.296" height="2.269"/>
	<rect x="96.288" y="114.882" clip-path="url(#SVGID_2_)" fill-rule="evenodd" clip-rule="evenodd" width="2.392" height="2.269"/>
	<rect x="91.722" y="114.882" clip-path="url(#SVGID_2_)" fill-rule="evenodd" clip-rule="evenodd" width="2.392" height="2.269"/>
	<rect x="87.396" y="114.882" clip-path="url(#SVGID_2_)" fill-rule="evenodd" clip-rule="evenodd" width="2.175" height="2.269"/>
	<g clip-path="url(#SVGID_2_)">
		<defs>
			<rect id="SVGID_3_" x="109" y="162.718" width="121.804" height="11.875"/>
		</defs>
		<clipPath id="SVGID_4_">
			<use xlink:href="#SVGID_3_"  overflow="visible"/>
		</clipPath>
		<g clip-path="url(#SVGID_4_)">
			<path d="M109.669,170.875v-6.438h1.285l1.527,4.559c0.141,0.425,0.244,0.742,0.308,0.953c0.073-0.234,0.188-0.578,0.343-1.032
				l1.544-4.479h1.149v6.438h-0.823v-5.389l-1.875,5.389h-0.77l-1.866-5.481v5.481H109.669z"/>
			<path d="M116.917,165.346v-0.909h0.792v0.909H116.917z M116.917,170.875v-4.664h0.792v4.664H116.917z"/>
			<path d="M118.924,170.875v-4.664h0.713v0.663c0.343-0.513,0.839-0.769,1.487-0.769c0.282,0,0.541,0.05,0.777,0.151
				c0.236,0.101,0.413,0.233,0.53,0.397c0.117,0.164,0.199,0.359,0.247,0.584c0.029,0.146,0.044,0.403,0.044,0.769v2.868h-0.792
				v-2.837c0-0.322-0.031-0.563-0.092-0.722s-0.171-0.287-0.328-0.382c-0.157-0.095-0.341-0.143-0.552-0.143
				c-0.337,0-0.629,0.107-0.874,0.321c-0.245,0.213-0.368,0.619-0.368,1.216v2.547H118.924z"/>
			<path d="M123.941,165.346v-0.909h0.792v0.909H123.941z M123.941,170.875v-4.664h0.792v4.664H123.941z"/>
			<path d="M125.966,170.875v-4.664h0.708v0.654c0.146-0.229,0.342-0.412,0.585-0.551c0.244-0.139,0.521-0.208,0.832-0.208
				c0.346,0,0.63,0.072,0.852,0.215c0.221,0.144,0.377,0.344,0.469,0.602c0.37-0.545,0.851-0.817,1.443-0.817
				c0.463,0,0.82,0.128,1.069,0.384c0.249,0.256,0.374,0.651,0.374,1.184v3.202h-0.788v-2.938c0-0.316-0.026-0.544-0.077-0.683
				s-0.145-0.251-0.279-0.336c-0.135-0.085-0.293-0.127-0.476-0.127c-0.329,0-0.602,0.109-0.818,0.327
				c-0.217,0.218-0.326,0.567-0.326,1.047v2.71h-0.792v-3.03c0-0.352-0.065-0.615-0.194-0.791c-0.129-0.176-0.34-0.264-0.634-0.264
				c-0.223,0-0.429,0.059-0.618,0.176s-0.326,0.288-0.412,0.514c-0.085,0.226-0.127,0.55-0.127,0.975v2.42H125.966z"/>
			<path d="M136.572,170.875v-0.685c-0.364,0.527-0.858,0.791-1.483,0.791c-0.276,0-0.533-0.053-0.772-0.158
				c-0.239-0.105-0.417-0.238-0.533-0.397s-0.197-0.355-0.244-0.586c-0.032-0.155-0.048-0.401-0.048-0.738v-2.89h0.792v2.586
				c0,0.413,0.016,0.691,0.048,0.834c0.05,0.208,0.155,0.372,0.317,0.49c0.161,0.119,0.361,0.178,0.599,0.178
				c0.237,0,0.46-0.061,0.669-0.183c0.208-0.121,0.355-0.287,0.442-0.496c0.087-0.209,0.13-0.513,0.13-0.911v-2.499h0.792v4.664
				H136.572z"/>
			<path d="M138.521,170.875v-4.664h0.708v0.654c0.146-0.229,0.342-0.412,0.585-0.551c0.244-0.139,0.521-0.208,0.832-0.208
				c0.346,0,0.63,0.072,0.852,0.215c0.221,0.144,0.377,0.344,0.469,0.602c0.37-0.545,0.851-0.817,1.443-0.817
				c0.463,0,0.82,0.128,1.069,0.384c0.249,0.256,0.374,0.651,0.374,1.184v3.202h-0.788v-2.938c0-0.316-0.026-0.544-0.077-0.683
				s-0.145-0.251-0.279-0.336c-0.135-0.085-0.293-0.127-0.476-0.127c-0.329,0-0.602,0.109-0.818,0.327
				c-0.217,0.218-0.326,0.567-0.326,1.047v2.71h-0.792v-3.03c0-0.352-0.065-0.615-0.194-0.791c-0.129-0.176-0.34-0.264-0.634-0.264
				c-0.223,0-0.429,0.059-0.618,0.176s-0.326,0.288-0.412,0.514c-0.085,0.226-0.127,0.55-0.127,0.975v2.42H138.521z"/>
			<path d="M148.592,165.346v-0.909h0.792v0.909H148.592z M148.592,170.875v-4.664h0.792v4.664H148.592z"/>
			<path d="M150.509,170.875v-4.664h0.713v0.663c0.343-0.513,0.839-0.769,1.487-0.769c0.282,0,0.541,0.05,0.777,0.151
				c0.236,0.101,0.413,0.233,0.53,0.397c0.117,0.164,0.199,0.359,0.247,0.584c0.029,0.146,0.044,0.403,0.044,0.769v2.868h-0.792
				v-2.837c0-0.322-0.031-0.563-0.092-0.722s-0.171-0.287-0.328-0.382c-0.157-0.095-0.341-0.143-0.552-0.143
				c-0.337,0-0.629,0.107-0.874,0.321c-0.245,0.213-0.368,0.619-0.368,1.216v2.547H150.509z"/>
			<path d="M155.521,172.663v-6.452h0.722v0.606c0.17-0.237,0.362-0.415,0.576-0.534c0.214-0.119,0.474-0.178,0.779-0.178
				c0.399,0,0.751,0.103,1.056,0.307c0.305,0.205,0.535,0.494,0.691,0.868c0.155,0.373,0.233,0.782,0.233,1.228
				c0,0.477-0.085,0.907-0.257,1.289c-0.171,0.382-0.421,0.675-0.748,0.878c-0.327,0.203-0.671,0.305-1.032,0.305
				c-0.264,0-0.501-0.056-0.711-0.167c-0.21-0.111-0.382-0.252-0.517-0.421v2.271H155.521z M156.238,168.569
				c0,0.6,0.122,1.044,0.365,1.331c0.243,0.287,0.538,0.431,0.884,0.431c0.352,0,0.654-0.149,0.904-0.446
				c0.251-0.297,0.376-0.758,0.376-1.381c0-0.594-0.123-1.04-0.368-1.335c-0.245-0.295-0.538-0.443-0.878-0.443
				c-0.337,0-0.636,0.157-0.896,0.472C156.368,167.512,156.238,167.969,156.238,168.569z"/>
			<path d="M163.605,170.875v-0.685c-0.364,0.527-0.858,0.791-1.483,0.791c-0.276,0-0.533-0.053-0.772-0.158
				c-0.239-0.105-0.417-0.238-0.533-0.397s-0.197-0.355-0.244-0.586c-0.032-0.155-0.048-0.401-0.048-0.738v-2.89h0.792v2.586
				c0,0.413,0.016,0.691,0.048,0.834c0.05,0.208,0.155,0.372,0.317,0.49c0.161,0.119,0.361,0.178,0.599,0.178
				c0.237,0,0.46-0.061,0.669-0.183c0.208-0.121,0.355-0.287,0.442-0.496c0.087-0.209,0.13-0.513,0.13-0.911v-2.499h0.792v4.664
				H163.605z"/>
			<path d="M167.284,170.168l0.114,0.698c-0.223,0.047-0.422,0.07-0.599,0.07c-0.288,0-0.51-0.045-0.669-0.136
				c-0.158-0.091-0.27-0.21-0.334-0.358s-0.097-0.459-0.097-0.933v-2.684h-0.581v-0.615h0.581v-1.155l0.788-0.474v1.629h0.797v0.615
				h-0.797v2.728c0,0.225,0.014,0.37,0.042,0.435s0.073,0.116,0.136,0.154c0.063,0.038,0.153,0.057,0.271,0.057
				C167.024,170.199,167.14,170.188,167.284,170.168z"/>
			<path d="M170.482,172.663v-6.452h0.722v0.606c0.17-0.237,0.362-0.415,0.576-0.534c0.214-0.119,0.474-0.178,0.779-0.178
				c0.399,0,0.751,0.103,1.056,0.307c0.305,0.205,0.535,0.494,0.691,0.868c0.155,0.373,0.233,0.782,0.233,1.228
				c0,0.477-0.085,0.907-0.257,1.289c-0.171,0.382-0.421,0.675-0.748,0.878c-0.327,0.203-0.671,0.305-1.032,0.305
				c-0.264,0-0.501-0.056-0.711-0.167c-0.21-0.111-0.382-0.252-0.517-0.421v2.271H170.482z M171.199,168.569
				c0,0.6,0.122,1.044,0.365,1.331c0.243,0.287,0.538,0.431,0.884,0.431c0.352,0,0.654-0.149,0.904-0.446
				c0.251-0.297,0.376-0.758,0.376-1.381c0-0.594-0.123-1.04-0.368-1.335c-0.245-0.295-0.538-0.443-0.878-0.443
				c-0.337,0-0.636,0.157-0.896,0.472C171.329,167.512,171.199,167.969,171.199,168.569z"/>
			<path d="M175.199,168.543c0-0.864,0.24-1.503,0.722-1.919c0.402-0.345,0.892-0.518,1.47-0.518c0.643,0,1.167,0.21,1.576,0.63
				c0.408,0.42,0.611,1.001,0.611,1.742c0,0.6-0.09,1.072-0.271,1.417c-0.18,0.344-0.443,0.611-0.788,0.801
				s-0.721,0.286-1.129,0.286c-0.654,0-1.183-0.209-1.586-0.628C175.401,169.934,175.199,169.331,175.199,168.543z M176.013,168.543
				c0,0.597,0.13,1.044,0.392,1.342c0.261,0.297,0.59,0.446,0.986,0.446c0.393,0,0.72-0.149,0.981-0.448
				c0.261-0.298,0.392-0.754,0.392-1.366c0-0.577-0.131-1.014-0.394-1.311c-0.262-0.297-0.589-0.446-0.979-0.446
				c-0.396,0-0.725,0.148-0.986,0.443C176.144,167.499,176.013,167.946,176.013,168.543z"/>
			<path d="M181.378,170.875l-1.43-4.664h0.818l0.744,2.692l0.277,1.001c0.012-0.05,0.093-0.37,0.242-0.962l0.744-2.731h0.814
				l0.7,2.705l0.233,0.892l0.269-0.9l0.801-2.696h0.771l-1.461,4.664h-0.823l-0.744-2.793l-0.181-0.795l-0.946,3.588H181.378z"/>
			<path d="M190.07,169.373l0.818,0.101c-0.129,0.477-0.368,0.848-0.717,1.111c-0.349,0.264-0.795,0.396-1.338,0.396
				c-0.684,0-1.226-0.21-1.626-0.63c-0.4-0.42-0.601-1.009-0.601-1.768c0-0.785,0.203-1.394,0.607-1.827s0.93-0.65,1.575-0.65
				c0.625,0,1.135,0.212,1.532,0.637c0.396,0.424,0.594,1.022,0.594,1.792c0,0.047-0.001,0.117-0.004,0.211h-3.485
				c0.029,0.512,0.175,0.904,0.436,1.177c0.261,0.272,0.586,0.409,0.977,0.409c0.291,0,0.539-0.076,0.744-0.229
				C189.787,169.95,189.95,169.707,190.07,169.373z M187.469,168.095h2.61c-0.035-0.392-0.135-0.687-0.299-0.883
				c-0.252-0.304-0.58-0.457-0.981-0.457c-0.364,0-0.669,0.122-0.917,0.364C187.633,167.363,187.496,167.688,187.469,168.095z"/>
			<path d="M191.875,170.875v-4.664h0.713v0.707c0.182-0.331,0.35-0.549,0.504-0.654c0.154-0.105,0.323-0.158,0.508-0.158
				c0.267,0,0.538,0.085,0.814,0.254l-0.273,0.734c-0.193-0.114-0.387-0.171-0.581-0.171c-0.173,0-0.329,0.052-0.467,0.156
				c-0.138,0.104-0.236,0.248-0.295,0.433c-0.088,0.281-0.132,0.588-0.132,0.922v2.442H191.875z"/>
			<path d="M197.578,170.875v-4.049h-0.7v-0.615h0.7v-0.497c0-0.313,0.028-0.546,0.083-0.698c0.077-0.205,0.211-0.371,0.403-0.499
				c0.192-0.127,0.461-0.191,0.808-0.191c0.223,0,0.469,0.026,0.739,0.079l-0.119,0.689c-0.165-0.029-0.32-0.044-0.467-0.044
				c-0.24,0-0.411,0.051-0.51,0.154s-0.149,0.294-0.149,0.575v0.431h0.911v0.615h-0.911v4.049H197.578z"/>
			<path d="M199.884,170.875v-4.664h0.713v0.707c0.182-0.331,0.35-0.549,0.504-0.654c0.154-0.105,0.323-0.158,0.508-0.158
				c0.267,0,0.538,0.085,0.814,0.254l-0.273,0.734c-0.193-0.114-0.387-0.171-0.581-0.171c-0.173,0-0.329,0.052-0.467,0.156
				c-0.138,0.104-0.236,0.248-0.295,0.433c-0.088,0.281-0.132,0.588-0.132,0.922v2.442H199.884z"/>
			<path d="M205.943,170.3c-0.293,0.249-0.576,0.424-0.847,0.527c-0.271,0.103-0.563,0.154-0.874,0.154
				c-0.514,0-0.908-0.125-1.184-0.375s-0.414-0.57-0.414-0.96c0-0.228,0.052-0.437,0.156-0.625c0.104-0.189,0.24-0.34,0.409-0.455
				s0.359-0.201,0.57-0.259c0.156-0.041,0.39-0.081,0.704-0.119c0.64-0.076,1.11-0.167,1.413-0.272
				c0.003-0.108,0.004-0.177,0.004-0.207c0-0.322-0.075-0.549-0.224-0.681c-0.203-0.179-0.503-0.268-0.902-0.268
				c-0.373,0-0.647,0.065-0.825,0.195c-0.177,0.13-0.309,0.361-0.394,0.692l-0.775-0.105c0.071-0.331,0.187-0.598,0.348-0.802
				c0.162-0.203,0.395-0.36,0.7-0.47s0.659-0.165,1.061-0.165c0.399,0,0.723,0.047,0.973,0.141s0.433,0.211,0.55,0.354
				c0.117,0.142,0.199,0.321,0.246,0.538c0.027,0.135,0.04,0.378,0.04,0.729v1.054c0,0.735,0.017,1.2,0.05,1.395
				s0.101,0.381,0.2,0.56h-0.827C206.02,170.711,205.967,170.519,205.943,170.3z M205.877,168.534
				c-0.288,0.117-0.719,0.217-1.293,0.298c-0.326,0.047-0.556,0.1-0.691,0.158c-0.135,0.059-0.239,0.145-0.313,0.257
				c-0.074,0.113-0.11,0.238-0.11,0.375c0,0.211,0.08,0.387,0.24,0.527c0.16,0.141,0.394,0.211,0.702,0.211
				c0.305,0,0.577-0.067,0.814-0.2c0.238-0.133,0.413-0.315,0.524-0.546c0.085-0.179,0.127-0.442,0.127-0.791V168.534z"/>
			<path d="M210.974,169.167l0.779,0.101c-0.085,0.536-0.303,0.955-0.654,1.258s-0.781,0.455-1.292,0.455
				c-0.64,0-1.154-0.208-1.542-0.626c-0.389-0.417-0.583-1.015-0.583-1.794c0-0.504,0.083-0.944,0.251-1.322
				c0.167-0.377,0.421-0.661,0.763-0.85s0.714-0.283,1.116-0.283c0.508,0,0.923,0.128,1.246,0.384s0.529,0.62,0.621,1.091
				l-0.771,0.119c-0.073-0.313-0.203-0.549-0.389-0.707c-0.187-0.158-0.412-0.237-0.676-0.237c-0.399,0-0.723,0.143-0.973,0.428
				c-0.249,0.286-0.374,0.737-0.374,1.355c0,0.626,0.121,1.082,0.361,1.366c0.241,0.284,0.555,0.426,0.942,0.426
				c0.311,0,0.571-0.095,0.779-0.286C210.786,169.854,210.918,169.562,210.974,169.167z"/>
			<path d="M214.205,170.168l0.114,0.698c-0.223,0.047-0.422,0.07-0.599,0.07c-0.288,0-0.51-0.045-0.669-0.136
				c-0.158-0.091-0.27-0.21-0.334-0.358s-0.097-0.459-0.097-0.933v-2.684h-0.581v-0.615h0.581v-1.155l0.788-0.474v1.629h0.797v0.615
				h-0.797v2.728c0,0.225,0.014,0.37,0.042,0.435s0.073,0.116,0.136,0.154c0.063,0.038,0.153,0.057,0.271,0.057
				C213.945,170.199,214.061,170.188,214.205,170.168z"/>
			<path d="M214.876,165.346v-0.909h0.792v0.909H214.876z M214.876,170.875v-4.664h0.792v4.664H214.876z"/>
			<path d="M216.588,168.543c0-0.864,0.24-1.503,0.722-1.919c0.402-0.345,0.892-0.518,1.47-0.518c0.643,0,1.167,0.21,1.576,0.63
				c0.408,0.42,0.611,1.001,0.611,1.742c0,0.6-0.09,1.072-0.271,1.417c-0.18,0.344-0.443,0.611-0.788,0.801
				s-0.721,0.286-1.129,0.286c-0.654,0-1.183-0.209-1.586-0.628C216.79,169.934,216.588,169.331,216.588,168.543z M217.402,168.543
				c0,0.597,0.13,1.044,0.392,1.342c0.261,0.297,0.59,0.446,0.986,0.446c0.393,0,0.72-0.149,0.981-0.448
				c0.261-0.298,0.392-0.754,0.392-1.366c0-0.577-0.131-1.014-0.394-1.311c-0.262-0.297-0.589-0.446-0.979-0.446
				c-0.396,0-0.725,0.148-0.986,0.443C217.532,167.499,217.402,167.946,217.402,168.543z"/>
			<path d="M221.896,170.875v-4.664h0.713v0.663c0.343-0.513,0.839-0.769,1.487-0.769c0.282,0,0.541,0.05,0.777,0.151
				c0.236,0.101,0.413,0.233,0.53,0.397c0.117,0.164,0.199,0.359,0.247,0.584c0.029,0.146,0.044,0.403,0.044,0.769v2.868h-0.792
				v-2.837c0-0.322-0.031-0.563-0.092-0.722s-0.171-0.287-0.328-0.382c-0.157-0.095-0.341-0.143-0.552-0.143
				c-0.337,0-0.629,0.107-0.874,0.321c-0.245,0.213-0.368,0.619-0.368,1.216v2.547H221.896z"/>
		</g>
	</g>
	<g clip-path="url(#SVGID_2_)">
		<defs>
			<rect id="SVGID_5_" x="141.349" y="150.24" width="101.22" height="12.599"/>
		</defs>
		<clipPath id="SVGID_6_">
			<use xlink:href="#SVGID_5_"  overflow="visible"/>
		</clipPath>
		<g clip-path="url(#SVGID_6_)">
			<path d="M142.013,158.76v-6.438h4.423v1.089h-3.12v1.524h2.693v1.089h-2.693v2.736H142.013z"/>
			<path d="M148.684,158.76h-1.236v-4.664h1.148v0.663c0.196-0.313,0.374-0.52,0.53-0.619c0.157-0.1,0.335-0.149,0.535-0.149
				c0.282,0,0.553,0.078,0.814,0.232l-0.383,1.076c-0.208-0.135-0.402-0.202-0.581-0.202c-0.173,0-0.32,0.048-0.44,0.143
				c-0.12,0.095-0.215,0.267-0.284,0.516c-0.069,0.249-0.104,0.77-0.104,1.563V158.76z"/>
			<path d="M151.932,155.519l-1.123-0.202c0.126-0.451,0.343-0.785,0.651-1.001c0.308-0.216,0.766-0.325,1.373-0.325
				c0.552,0,0.962,0.065,1.232,0.195c0.27,0.13,0.459,0.296,0.57,0.496c0.11,0.201,0.165,0.569,0.165,1.105l-0.013,1.44
				c0,0.41,0.02,0.712,0.059,0.907c0.04,0.195,0.114,0.403,0.223,0.626h-1.224c-0.032-0.082-0.072-0.204-0.119-0.365
				c-0.021-0.073-0.035-0.121-0.044-0.145c-0.211,0.205-0.438,0.358-0.678,0.461c-0.241,0.103-0.498,0.154-0.771,0.154
				c-0.481,0-0.86-0.13-1.137-0.391c-0.277-0.26-0.416-0.59-0.416-0.988c0-0.264,0.063-0.499,0.189-0.705
				c0.126-0.207,0.303-0.365,0.53-0.475c0.228-0.109,0.555-0.206,0.984-0.288c0.578-0.108,0.979-0.209,1.201-0.303v-0.123
				c0-0.237-0.059-0.406-0.176-0.507c-0.118-0.101-0.339-0.151-0.665-0.151c-0.22,0-0.392,0.043-0.515,0.129
				C152.108,155.15,152.008,155.302,151.932,155.519z M153.586,156.52c-0.158,0.053-0.409,0.116-0.752,0.188
				c-0.343,0.073-0.568,0.145-0.673,0.215c-0.161,0.114-0.242,0.259-0.242,0.435c0,0.173,0.065,0.322,0.194,0.448
				s0.293,0.189,0.493,0.189c0.223,0,0.436-0.073,0.638-0.22c0.15-0.111,0.248-0.247,0.295-0.408
				c0.032-0.105,0.048-0.306,0.048-0.602V156.52z"/>
			<path d="M160.095,155.475l-1.219,0.22c-0.041-0.243-0.134-0.426-0.279-0.549c-0.146-0.123-0.334-0.184-0.565-0.184
				c-0.308,0-0.554,0.106-0.737,0.318c-0.184,0.212-0.275,0.567-0.275,1.065c0,0.553,0.093,0.944,0.279,1.172
				c0.187,0.229,0.437,0.343,0.75,0.343c0.234,0,0.427-0.066,0.576-0.2c0.15-0.133,0.255-0.362,0.317-0.688l1.215,0.207
				c-0.126,0.556-0.368,0.977-0.726,1.26c-0.358,0.284-0.838,0.426-1.439,0.426c-0.684,0-1.229-0.215-1.635-0.646
				c-0.406-0.431-0.609-1.026-0.609-1.788c0-0.77,0.204-1.37,0.612-1.799c0.408-0.429,0.959-0.643,1.655-0.643
				c0.569,0,1.021,0.122,1.357,0.367S159.948,154.974,160.095,155.475z"/>
			<path d="M163.176,154.096v0.983h-0.845v1.88c0,0.381,0.008,0.603,0.024,0.666s0.053,0.115,0.11,0.156
				c0.058,0.041,0.127,0.062,0.209,0.062c0.114,0,0.28-0.04,0.497-0.119l0.105,0.958c-0.288,0.123-0.613,0.185-0.977,0.185
				c-0.223,0-0.424-0.038-0.603-0.112c-0.179-0.075-0.311-0.171-0.394-0.29s-0.142-0.279-0.174-0.481
				c-0.026-0.144-0.04-0.433-0.04-0.87v-2.034h-0.568v-0.983h0.568v-0.927l1.241-0.72v1.647H163.176z"/>
			<path d="M164.034,153.463v-1.142h1.236v1.142H164.034z M164.034,158.76v-4.664h1.236v4.664H164.034z"/>
			<path d="M166.252,156.362c0-0.41,0.101-0.807,0.304-1.19c0.202-0.383,0.489-0.676,0.86-0.878
				c0.371-0.202,0.786-0.303,1.243-0.303c0.707,0,1.287,0.229,1.738,0.687c0.452,0.458,0.678,1.038,0.678,1.737
				c0,0.706-0.228,1.291-0.685,1.754c-0.456,0.464-1.03,0.696-1.723,0.696c-0.428,0-0.837-0.097-1.226-0.29s-0.685-0.477-0.887-0.85
				C166.353,157.352,166.252,156.897,166.252,156.362z M167.52,156.428c0,0.462,0.11,0.817,0.33,1.063
				c0.22,0.246,0.491,0.369,0.814,0.369s0.593-0.123,0.812-0.369c0.218-0.246,0.328-0.604,0.328-1.072
				c0-0.457-0.109-0.808-0.328-1.054c-0.219-0.246-0.489-0.369-0.812-0.369s-0.594,0.123-0.814,0.369
				C167.629,155.611,167.52,155.965,167.52,156.428z"/>
			<path d="M176.294,158.76h-1.236v-2.38c0-0.503-0.027-0.83-0.08-0.977c-0.053-0.148-0.139-0.263-0.257-0.345
				c-0.119-0.082-0.262-0.123-0.429-0.123c-0.214,0-0.406,0.059-0.576,0.175c-0.17,0.117-0.287,0.272-0.35,0.466
				s-0.095,0.55-0.095,1.072v2.112h-1.236v-4.664h1.148v0.685c0.408-0.527,0.921-0.791,1.541-0.791c0.272,0,0.522,0.049,0.748,0.147
				c0.226,0.098,0.396,0.223,0.513,0.375c0.116,0.152,0.196,0.325,0.242,0.518c0.045,0.193,0.068,0.47,0.068,0.83V158.76z"/>
			<path d="M178.473,155.519l-1.123-0.202c0.126-0.451,0.343-0.785,0.651-1.001c0.308-0.216,0.766-0.325,1.373-0.325
				c0.552,0,0.962,0.065,1.232,0.195c0.27,0.13,0.459,0.296,0.57,0.496c0.11,0.201,0.165,0.569,0.165,1.105l-0.013,1.44
				c0,0.41,0.02,0.712,0.059,0.907c0.04,0.195,0.114,0.403,0.223,0.626h-1.224c-0.032-0.082-0.072-0.204-0.119-0.365
				c-0.021-0.073-0.035-0.121-0.044-0.145c-0.211,0.205-0.438,0.358-0.678,0.461c-0.241,0.103-0.498,0.154-0.771,0.154
				c-0.481,0-0.86-0.13-1.137-0.391c-0.277-0.26-0.416-0.59-0.416-0.988c0-0.264,0.063-0.499,0.189-0.705
				c0.126-0.207,0.303-0.365,0.53-0.475c0.228-0.109,0.555-0.206,0.984-0.288c0.578-0.108,0.979-0.209,1.201-0.303v-0.123
				c0-0.237-0.059-0.406-0.176-0.507c-0.118-0.101-0.339-0.151-0.665-0.151c-0.22,0-0.392,0.043-0.515,0.129
				C178.648,155.15,178.549,155.302,178.473,155.519z M180.127,156.52c-0.158,0.053-0.409,0.116-0.752,0.188
				c-0.343,0.073-0.568,0.145-0.673,0.215c-0.161,0.114-0.242,0.259-0.242,0.435c0,0.173,0.065,0.322,0.194,0.448
				s0.293,0.189,0.493,0.189c0.223,0,0.436-0.073,0.638-0.22c0.15-0.111,0.248-0.247,0.295-0.408
				c0.032-0.105,0.048-0.306,0.048-0.602V156.52z"/>
			<path d="M182.471,158.76v-6.438h1.236v6.438H182.471z"/>
			<path d="M187.479,153.463v-1.142h1.236v1.142H187.479z M187.479,158.76v-4.664h1.236v4.664H187.479z"/>
			<path d="M194.234,158.76h-1.236v-2.38c0-0.503-0.027-0.83-0.08-0.977c-0.053-0.148-0.139-0.263-0.257-0.345
				c-0.119-0.082-0.262-0.123-0.429-0.123c-0.214,0-0.406,0.059-0.576,0.175c-0.17,0.117-0.287,0.272-0.35,0.466
				s-0.095,0.55-0.095,1.072v2.112h-1.236v-4.664h1.148v0.685c0.408-0.527,0.921-0.791,1.541-0.791c0.272,0,0.522,0.049,0.748,0.147
				c0.226,0.098,0.396,0.223,0.513,0.375c0.116,0.152,0.196,0.325,0.242,0.518c0.045,0.193,0.068,0.47,0.068,0.83V158.76z"/>
			<path d="M195.453,154.096h1.153v0.685c0.15-0.234,0.352-0.425,0.607-0.571c0.255-0.146,0.538-0.219,0.849-0.219
				c0.543,0,1.003,0.212,1.382,0.637s0.568,1.016,0.568,1.774c0,0.779-0.191,1.384-0.572,1.816
				c-0.381,0.432-0.843,0.648-1.386,0.648c-0.258,0-0.492-0.051-0.702-0.154c-0.21-0.103-0.431-0.278-0.663-0.527v2.35h-1.236
				V154.096z M196.676,156.349c0,0.524,0.104,0.911,0.313,1.162s0.462,0.375,0.761,0.375c0.288,0,0.527-0.115,0.717-0.345
				c0.191-0.23,0.286-0.607,0.286-1.131c0-0.489-0.098-0.852-0.295-1.089c-0.196-0.237-0.44-0.355-0.73-0.355
				c-0.302,0-0.553,0.116-0.752,0.349C196.775,155.547,196.676,155.892,196.676,156.349z"/>
			<path d="M204.069,158.76v-0.698c-0.17,0.249-0.394,0.445-0.671,0.588s-0.57,0.215-0.878,0.215c-0.314,0-0.596-0.069-0.845-0.207
				c-0.25-0.138-0.43-0.331-0.542-0.58c-0.111-0.249-0.167-0.593-0.167-1.032v-2.951h1.236v2.143c0,0.656,0.023,1.058,0.068,1.206
				s0.128,0.265,0.249,0.352c0.121,0.086,0.273,0.129,0.458,0.129c0.211,0,0.4-0.058,0.567-0.173
				c0.167-0.116,0.282-0.259,0.343-0.431s0.092-0.591,0.092-1.258v-1.967h1.237v4.664H204.069z"/>
			<path d="M208.66,154.096v0.983h-0.845v1.88c0,0.381,0.008,0.603,0.024,0.666s0.053,0.115,0.11,0.156
				c0.058,0.041,0.127,0.062,0.209,0.062c0.114,0,0.28-0.04,0.497-0.119l0.105,0.958c-0.288,0.123-0.613,0.185-0.977,0.185
				c-0.223,0-0.424-0.038-0.603-0.112c-0.179-0.075-0.311-0.171-0.394-0.29s-0.142-0.279-0.174-0.481
				c-0.026-0.144-0.04-0.433-0.04-0.87v-2.034h-0.568v-0.983h0.568v-0.927l1.241-0.72v1.647H208.66z"/>
			<path d="M211.86,154.096h1.153v0.685c0.15-0.234,0.352-0.425,0.607-0.571c0.255-0.146,0.538-0.219,0.849-0.219
				c0.543,0,1.003,0.212,1.382,0.637s0.568,1.016,0.568,1.774c0,0.779-0.191,1.384-0.572,1.816
				c-0.381,0.432-0.843,0.648-1.386,0.648c-0.258,0-0.492-0.051-0.702-0.154c-0.21-0.103-0.431-0.278-0.663-0.527v2.35h-1.236
				V154.096z M213.083,156.349c0,0.524,0.104,0.911,0.313,1.162s0.462,0.375,0.761,0.375c0.288,0,0.527-0.115,0.717-0.345
				c0.191-0.23,0.286-0.607,0.286-1.131c0-0.489-0.098-0.852-0.295-1.089c-0.196-0.237-0.44-0.355-0.73-0.355
				c-0.302,0-0.553,0.116-0.752,0.349C213.183,155.547,213.083,155.892,213.083,156.349z"/>
			<path d="M217.115,156.362c0-0.41,0.101-0.807,0.304-1.19c0.202-0.383,0.489-0.676,0.86-0.878
				c0.371-0.202,0.786-0.303,1.243-0.303c0.707,0,1.287,0.229,1.738,0.687c0.452,0.458,0.678,1.038,0.678,1.737
				c0,0.706-0.228,1.291-0.685,1.754c-0.456,0.464-1.03,0.696-1.723,0.696c-0.428,0-0.837-0.097-1.226-0.29s-0.685-0.477-0.887-0.85
				C217.216,157.352,217.115,156.897,217.115,156.362z M218.382,156.428c0,0.462,0.11,0.817,0.33,1.063
				c0.22,0.246,0.491,0.369,0.814,0.369s0.593-0.123,0.812-0.369c0.218-0.246,0.328-0.604,0.328-1.072
				c0-0.457-0.109-0.808-0.328-1.054c-0.219-0.246-0.489-0.369-0.812-0.369s-0.594,0.123-0.814,0.369
				C218.492,155.611,218.382,155.965,218.382,156.428z"/>
			<path d="M223.678,158.76l-1.479-4.664h1.202l0.875,3.057l0.805-3.057h1.193l0.779,3.057l0.894-3.057h1.219l-1.5,4.664h-1.188
				l-0.805-3l-0.792,3H223.678z"/>
			<path d="M232.587,157.275l1.232,0.207c-0.158,0.451-0.409,0.794-0.75,1.03c-0.342,0.236-0.77,0.354-1.283,0.354
				c-0.813,0-1.414-0.265-1.804-0.795c-0.308-0.425-0.462-0.96-0.462-1.607c0-0.773,0.202-1.378,0.607-1.816
				c0.405-0.438,0.917-0.656,1.536-0.656c0.695,0,1.244,0.229,1.646,0.687c0.402,0.458,0.594,1.161,0.576,2.106h-3.098
				c0.009,0.366,0.109,0.651,0.299,0.854c0.191,0.204,0.429,0.305,0.713,0.305c0.194,0,0.356-0.053,0.489-0.158
				C232.419,157.679,232.519,157.51,232.587,157.275z M232.657,156.028c-0.009-0.357-0.101-0.628-0.277-0.814
				c-0.176-0.186-0.39-0.279-0.643-0.279c-0.27,0-0.493,0.098-0.669,0.294c-0.176,0.196-0.263,0.463-0.259,0.799H232.657z"/>
			<path d="M236.077,158.76h-1.237v-4.664h1.149v0.663c0.196-0.313,0.373-0.52,0.53-0.619c0.156-0.1,0.335-0.149,0.534-0.149
				c0.281,0,0.553,0.078,0.814,0.232l-0.383,1.076c-0.209-0.135-0.402-0.202-0.581-0.202c-0.173,0-0.32,0.048-0.44,0.143
				s-0.215,0.267-0.283,0.516c-0.069,0.249-0.104,0.77-0.104,1.563V158.76z"/>
		</g>
	</g>
	<g clip-path="url(#SVGID_2_)">
		<defs>
			<rect id="SVGID_7_" x="209.582" y="141.262" width="16.552" height="11.754"/>
		</defs>
		<clipPath id="SVGID_8_">
			<use xlink:href="#SVGID_7_"  overflow="visible"/>
		</clipPath>
		<g clip-path="url(#SVGID_8_)">
			<path d="M212.939,149.419h-0.792v-5.038c-0.19,0.182-0.44,0.363-0.75,0.544c-0.31,0.182-0.587,0.318-0.834,0.409v-0.764
				c0.443-0.208,0.83-0.46,1.162-0.755c0.332-0.296,0.566-0.583,0.704-0.861h0.511V149.419z"/>
			<path d="M215.421,149.419v-0.9h0.902v0.9H215.421z"/>
			<path d="M217.49,146.244c0-0.761,0.079-1.374,0.235-1.838c0.157-0.464,0.39-0.822,0.7-1.074c0.31-0.251,0.699-0.377,1.168-0.377
				c0.346,0,0.65,0.069,0.911,0.208c0.261,0.139,0.477,0.34,0.647,0.602c0.17,0.262,0.303,0.582,0.4,0.958
				c0.097,0.376,0.145,0.884,0.145,1.522c0,0.755-0.078,1.365-0.233,1.829c-0.156,0.464-0.388,0.823-0.698,1.076
				s-0.701,0.38-1.173,0.38c-0.622,0-1.11-0.223-1.465-0.667C217.703,148.325,217.49,147.453,217.49,146.244z M218.304,146.244
				c0,1.057,0.124,1.76,0.372,2.11c0.248,0.35,0.554,0.525,0.917,0.525s0.669-0.176,0.917-0.527
				c0.248-0.351,0.372-1.054,0.372-2.108c0-1.06-0.124-1.764-0.372-2.113c-0.248-0.348-0.557-0.522-0.926-0.522
				c-0.364,0-0.654,0.154-0.871,0.461C218.44,144.462,218.304,145.187,218.304,146.244z"/>
		</g>
	</g>
	<g clip-path="url(#SVGID_2_)">
		<defs>
			<rect id="SVGID_9_" x="87.517" y="141.262" width="9.012" height="11.754"/>
		</defs>
		<clipPath id="SVGID_10_">
			<use xlink:href="#SVGID_9_"  overflow="visible"/>
		</clipPath>
		<g clip-path="url(#SVGID_10_)">
			<path d="M87.89,146.244c0-0.761,0.079-1.374,0.235-1.838c0.157-0.464,0.39-0.822,0.7-1.074c0.31-0.251,0.699-0.377,1.168-0.377
				c0.346,0,0.65,0.069,0.911,0.208c0.261,0.139,0.477,0.34,0.647,0.602c0.17,0.262,0.303,0.582,0.4,0.958
				c0.097,0.376,0.145,0.884,0.145,1.522c0,0.755-0.078,1.365-0.233,1.829c-0.156,0.464-0.388,0.823-0.698,1.076
				s-0.701,0.38-1.173,0.38c-0.622,0-1.11-0.223-1.465-0.667C88.103,148.325,87.89,147.453,87.89,146.244z M88.704,146.244
				c0,1.057,0.124,1.76,0.372,2.11c0.248,0.35,0.554,0.525,0.917,0.525s0.669-0.176,0.917-0.527
				c0.248-0.351,0.372-1.054,0.372-2.108c0-1.06-0.124-1.764-0.372-2.113c-0.248-0.348-0.557-0.522-0.926-0.522
				c-0.364,0-0.654,0.154-0.871,0.461C88.841,144.462,88.704,145.187,88.704,146.244z"/>
		</g>
	</g>
	
		<line clip-path="url(#SVGID_2_)" fill="none" stroke="#000000" stroke-width="0.7242" stroke-linejoin="round" stroke-miterlimit="10" x1="130.453" y1="163.201" x2="130.573" y2="147.126"/>
	<polygon clip-path="url(#SVGID_2_)" fill-rule="evenodd" clip-rule="evenodd" points="134.538,147.488 130.573,139.693 
		126.738,147.488 	"/>
	<g clip-path="url(#SVGID_2_)">
		<defs>
			<rect id="SVGID_11_" x="79.737" y="129.869" width="8.988" height="11.754"/>
		</defs>
		<clipPath id="SVGID_12_">
			<use xlink:href="#SVGID_11_"  overflow="visible"/>
		</clipPath>
		<g clip-path="url(#SVGID_12_)">
			<path d="M80.11,134.851c0-0.761,0.079-1.374,0.235-1.838c0.157-0.464,0.39-0.822,0.7-1.074c0.31-0.251,0.699-0.377,1.168-0.377
				c0.346,0,0.65,0.069,0.911,0.208c0.261,0.139,0.477,0.34,0.647,0.602c0.17,0.262,0.303,0.582,0.4,0.958
				c0.097,0.376,0.145,0.884,0.145,1.522c0,0.755-0.078,1.365-0.233,1.829c-0.156,0.464-0.388,0.823-0.698,1.076
				s-0.701,0.38-1.173,0.38c-0.622,0-1.11-0.223-1.465-0.667C80.323,136.933,80.11,136.06,80.11,134.851z M80.924,134.851
				c0,1.057,0.124,1.76,0.372,2.11c0.248,0.35,0.554,0.525,0.917,0.525s0.669-0.176,0.917-0.527
				c0.248-0.351,0.372-1.054,0.372-2.108c0-1.06-0.124-1.764-0.372-2.113c-0.248-0.348-0.557-0.522-0.926-0.522
				c-0.364,0-0.654,0.154-0.871,0.461C81.061,133.069,80.924,133.794,80.924,134.851z"/>
		</g>
	</g>
	<g clip-path="url(#SVGID_2_)">
		<defs>
			<rect id="SVGID_13_" x="71.353" y="3.715" width="16.647" height="11.755"/>
		</defs>
		<clipPath id="SVGID_14_">
			<use xlink:href="#SVGID_13_"  overflow="visible"/>
		</clipPath>
		<g clip-path="url(#SVGID_14_)">
			<path d="M74.71,11.87h-0.792V6.833c-0.19,0.182-0.44,0.363-0.75,0.544c-0.31,0.182-0.587,0.318-0.834,0.409V7.021
				c0.443-0.208,0.83-0.46,1.162-0.755c0.332-0.296,0.566-0.583,0.704-0.861h0.511V11.87z"/>
			<path d="M77.192,11.87v-0.9h0.902v0.9H77.192z"/>
			<path d="M79.261,8.695c0-0.761,0.079-1.374,0.235-1.838c0.157-0.464,0.39-0.822,0.7-1.074c0.31-0.251,0.699-0.377,1.168-0.377
				c0.346,0,0.65,0.069,0.911,0.208c0.261,0.139,0.477,0.34,0.647,0.602c0.17,0.262,0.303,0.582,0.4,0.958
				c0.097,0.376,0.145,0.884,0.145,1.522c0,0.755-0.078,1.365-0.233,1.829c-0.156,0.464-0.388,0.823-0.698,1.076
				s-0.701,0.38-1.173,0.38c-0.622,0-1.11-0.223-1.465-0.667C79.474,10.776,79.261,9.904,79.261,8.695z M80.075,8.695
				c0,1.057,0.124,1.76,0.372,2.11c0.248,0.35,0.554,0.525,0.917,0.525s0.669-0.176,0.917-0.527
				c0.248-0.351,0.372-1.054,0.372-2.108c0-1.06-0.124-1.764-0.372-2.113c-0.248-0.348-0.557-0.522-0.926-0.522
				c-0.364,0-0.654,0.154-0.871,0.461C80.211,6.913,80.075,7.638,80.075,8.695z"/>
		</g>
	</g>
	<g clip-path="url(#SVGID_2_)">
		<defs>
			<rect id="SVGID_15_" x="7.321" y="108.051" width="59.706" height="11.85"/>
		</defs>
		<clipPath id="SVGID_16_">
			<use xlink:href="#SVGID_15_"  overflow="visible"/>
		</clipPath>
		<g clip-path="url(#SVGID_16_)">
			<path d="M7.989,116.185v-6.438h1.285l1.527,4.559c0.141,0.425,0.244,0.742,0.308,0.953c0.073-0.234,0.188-0.578,0.343-1.032
				l1.544-4.479h1.149v6.438h-0.823v-5.389l-1.875,5.389h-0.77l-1.866-5.481v5.481H7.989z"/>
			<path d="M15.237,110.655v-0.909h0.792v0.909H15.237z M15.237,116.185v-4.664h0.792v4.664H15.237z"/>
			<path d="M17.244,116.185v-4.664h0.713v0.663c0.343-0.513,0.839-0.769,1.487-0.769c0.282,0,0.541,0.05,0.777,0.151
				c0.236,0.101,0.413,0.233,0.53,0.397c0.117,0.164,0.199,0.359,0.247,0.584c0.029,0.146,0.044,0.403,0.044,0.769v2.868H20.25
				v-2.837c0-0.322-0.031-0.563-0.092-0.722s-0.171-0.287-0.328-0.382c-0.157-0.095-0.341-0.143-0.552-0.143
				c-0.337,0-0.629,0.107-0.874,0.321c-0.245,0.213-0.368,0.619-0.368,1.216v2.547H17.244z"/>
			<path d="M22.261,110.655v-0.909h0.792v0.909H22.261z M22.261,116.185v-4.664h0.792v4.664H22.261z"/>
			<path d="M24.286,116.185v-4.664h0.708v0.654c0.146-0.229,0.342-0.412,0.585-0.551c0.244-0.139,0.521-0.208,0.832-0.208
				c0.346,0,0.63,0.072,0.852,0.215c0.221,0.144,0.377,0.344,0.469,0.602c0.37-0.545,0.851-0.817,1.443-0.817
				c0.463,0,0.82,0.128,1.069,0.384c0.249,0.256,0.374,0.651,0.374,1.184v3.202h-0.788v-2.938c0-0.316-0.026-0.544-0.077-0.683
				s-0.145-0.251-0.279-0.336c-0.135-0.085-0.293-0.127-0.476-0.127c-0.329,0-0.602,0.109-0.818,0.327
				c-0.217,0.218-0.326,0.567-0.326,1.047v2.71h-0.792v-3.03c0-0.352-0.065-0.615-0.194-0.791c-0.129-0.176-0.34-0.264-0.634-0.264
				c-0.223,0-0.429,0.059-0.618,0.176s-0.326,0.288-0.412,0.514c-0.085,0.226-0.127,0.55-0.127,0.975v2.42H24.286z"/>
			<path d="M34.893,116.185V115.5c-0.364,0.527-0.858,0.791-1.483,0.791c-0.276,0-0.533-0.053-0.772-0.158
				c-0.239-0.105-0.417-0.238-0.533-0.397s-0.197-0.355-0.244-0.586c-0.032-0.155-0.048-0.401-0.048-0.738v-2.89h0.792v2.586
				c0,0.413,0.016,0.691,0.048,0.834c0.05,0.208,0.155,0.372,0.317,0.49c0.161,0.119,0.361,0.178,0.599,0.178
				c0.237,0,0.46-0.061,0.669-0.183c0.208-0.121,0.355-0.287,0.442-0.496c0.087-0.209,0.13-0.513,0.13-0.911v-2.499h0.792v4.664
				H34.893z"/>
			<path d="M36.842,116.185v-4.664h0.708v0.654c0.146-0.229,0.342-0.412,0.585-0.551c0.244-0.139,0.521-0.208,0.832-0.208
				c0.346,0,0.63,0.072,0.852,0.215c0.221,0.144,0.377,0.344,0.469,0.602c0.37-0.545,0.851-0.817,1.443-0.817
				c0.463,0,0.82,0.128,1.069,0.384c0.249,0.256,0.374,0.651,0.374,1.184v3.202h-0.788v-2.938c0-0.316-0.026-0.544-0.077-0.683
				s-0.145-0.251-0.279-0.336c-0.135-0.085-0.293-0.127-0.476-0.127c-0.329,0-0.602,0.109-0.818,0.327
				c-0.217,0.218-0.326,0.567-0.326,1.047v2.71h-0.792v-3.03c0-0.352-0.065-0.615-0.194-0.791c-0.129-0.176-0.34-0.264-0.634-0.264
				c-0.223,0-0.429,0.059-0.618,0.176s-0.326,0.288-0.412,0.514c-0.085,0.226-0.127,0.55-0.127,0.975v2.42H36.842z"/>
			<path d="M46.89,116.185v-6.438h0.792v6.438H46.89z"/>
			<path d="M48.833,110.655v-0.909h0.792v0.909H48.833z M48.833,116.185v-4.664h0.792v4.664H48.833z"/>
			<path d="M50.695,116.571l0.771,0.114c0.032,0.237,0.122,0.41,0.268,0.519c0.197,0.146,0.465,0.22,0.806,0.22
				c0.367,0,0.649-0.073,0.849-0.22s0.334-0.352,0.405-0.615c0.041-0.161,0.06-0.5,0.057-1.015c-0.346,0.407-0.777,0.61-1.293,0.61
				c-0.643,0-1.14-0.231-1.492-0.694c-0.352-0.463-0.528-1.018-0.528-1.665c0-0.445,0.081-0.856,0.242-1.232
				c0.161-0.376,0.395-0.667,0.702-0.872c0.307-0.205,0.667-0.307,1.081-0.307c0.551,0,1.006,0.222,1.364,0.667v-0.562h0.73v4.032
				c0,0.726-0.074,1.241-0.222,1.543c-0.148,0.303-0.383,0.542-0.704,0.718c-0.321,0.176-0.717,0.264-1.186,0.264
				c-0.558,0-1.008-0.125-1.351-0.375C50.849,117.452,50.683,117.075,50.695,116.571z M51.351,113.769
				c0,0.612,0.122,1.059,0.365,1.339c0.244,0.281,0.549,0.422,0.916,0.422c0.364,0,0.669-0.14,0.915-0.419
				c0.247-0.28,0.37-0.718,0.37-1.315c0-0.571-0.127-1.001-0.381-1.292c-0.254-0.29-0.56-0.435-0.917-0.435
				c-0.352,0-0.651,0.143-0.898,0.428C51.474,112.783,51.351,113.207,51.351,113.769z"/>
			<path d="M55.853,116.185v-6.438h0.792v2.31c0.37-0.427,0.836-0.641,1.399-0.641c0.346,0,0.647,0.068,0.902,0.204
				c0.255,0.136,0.438,0.324,0.548,0.564c0.11,0.24,0.165,0.588,0.165,1.045v2.956h-0.792v-2.956c0-0.396-0.085-0.683-0.257-0.863
				c-0.171-0.18-0.415-0.27-0.728-0.27c-0.235,0-0.456,0.061-0.663,0.182c-0.207,0.122-0.354,0.286-0.442,0.494
				c-0.088,0.208-0.132,0.495-0.132,0.861v2.552H55.853z"/>
			<path d="M62.604,115.478l0.114,0.698c-0.223,0.047-0.422,0.07-0.599,0.07c-0.288,0-0.51-0.045-0.669-0.136
				c-0.158-0.091-0.27-0.21-0.334-0.358s-0.097-0.459-0.097-0.933v-2.684h-0.581v-0.615h0.581v-1.155l0.788-0.474v1.629h0.797v0.615
				h-0.797v2.728c0,0.225,0.014,0.37,0.042,0.435s0.073,0.116,0.136,0.154c0.063,0.038,0.153,0.057,0.271,0.057
				C62.344,115.508,62.459,115.498,62.604,115.478z"/>
		</g>
	</g>
	<g clip-path="url(#SVGID_2_)">
		<defs>
			<rect id="SVGID_17_" x="7.321" y="118.115" width="61.252" height="11.755"/>
		</defs>
		<clipPath id="SVGID_18_">
			<use xlink:href="#SVGID_17_"  overflow="visible"/>
		</clipPath>
		<g clip-path="url(#SVGID_18_)">
			<path d="M7.62,123.941c0-0.864,0.24-1.503,0.722-1.919c0.402-0.345,0.892-0.518,1.47-0.518c0.643,0,1.167,0.21,1.576,0.63
				c0.408,0.42,0.611,1.001,0.611,1.742c0,0.6-0.09,1.072-0.271,1.417c-0.18,0.344-0.443,0.611-0.788,0.801
				s-0.721,0.286-1.129,0.286c-0.654,0-1.183-0.209-1.586-0.628C7.821,125.332,7.62,124.729,7.62,123.941z M8.434,123.941
				c0,0.597,0.13,1.044,0.392,1.342c0.261,0.297,0.59,0.446,0.986,0.446c0.393,0,0.72-0.149,0.981-0.448
				c0.261-0.298,0.392-0.754,0.392-1.366c0-0.577-0.131-1.014-0.394-1.311c-0.262-0.297-0.589-0.446-0.979-0.446
				c-0.396,0-0.725,0.148-0.986,0.443C8.564,122.897,8.434,123.344,8.434,123.941z"/>
			<path d="M15.99,126.273v-0.685c-0.364,0.527-0.858,0.791-1.483,0.791c-0.276,0-0.533-0.053-0.772-0.158
				c-0.239-0.105-0.417-0.238-0.533-0.397s-0.197-0.355-0.244-0.586c-0.032-0.155-0.048-0.401-0.048-0.738v-2.89h0.792v2.586
				c0,0.413,0.016,0.691,0.048,0.834c0.05,0.208,0.155,0.372,0.317,0.49c0.161,0.119,0.361,0.178,0.599,0.178
				c0.237,0,0.46-0.061,0.669-0.183c0.208-0.121,0.355-0.287,0.442-0.496c0.087-0.209,0.13-0.513,0.13-0.911v-2.499h0.792v4.664
				H15.99z"/>
			<path d="M19.678,125.566l0.114,0.698c-0.223,0.047-0.422,0.07-0.599,0.07c-0.288,0-0.51-0.045-0.669-0.136
				c-0.158-0.091-0.27-0.21-0.334-0.358s-0.097-0.459-0.097-0.933v-2.684h-0.581v-0.615h0.581v-1.155l0.788-0.474v1.629h0.797v0.615
				h-0.797v2.728c0,0.225,0.014,0.37,0.042,0.435s0.073,0.116,0.136,0.154c0.063,0.038,0.153,0.057,0.271,0.057
				C19.418,125.597,19.534,125.587,19.678,125.566z"/>
			<path d="M20.452,128.061v-6.452h0.722v0.606c0.17-0.237,0.362-0.415,0.576-0.534c0.214-0.119,0.474-0.178,0.779-0.178
				c0.399,0,0.751,0.103,1.056,0.307c0.305,0.205,0.535,0.494,0.691,0.868c0.155,0.373,0.233,0.782,0.233,1.228
				c0,0.477-0.085,0.907-0.257,1.289c-0.171,0.382-0.421,0.675-0.748,0.878c-0.327,0.203-0.671,0.305-1.032,0.305
				c-0.264,0-0.501-0.056-0.711-0.167c-0.21-0.111-0.382-0.252-0.517-0.421v2.271H20.452z M21.169,123.968
				c0,0.6,0.122,1.044,0.365,1.331c0.243,0.287,0.538,0.431,0.884,0.431c0.352,0,0.654-0.149,0.904-0.446
				c0.251-0.297,0.376-0.758,0.376-1.381c0-0.594-0.123-1.04-0.368-1.335c-0.245-0.295-0.538-0.443-0.878-0.443
				c-0.337,0-0.636,0.157-0.896,0.472C21.299,122.91,21.169,123.368,21.169,123.968z"/>
			<path d="M28.528,126.273v-0.685c-0.364,0.527-0.858,0.791-1.483,0.791c-0.276,0-0.533-0.053-0.772-0.158
				c-0.239-0.105-0.417-0.238-0.533-0.397s-0.197-0.355-0.244-0.586c-0.032-0.155-0.048-0.401-0.048-0.738v-2.89h0.792v2.586
				c0,0.413,0.016,0.691,0.048,0.834c0.05,0.208,0.155,0.372,0.317,0.49c0.161,0.119,0.361,0.178,0.599,0.178
				c0.237,0,0.46-0.061,0.669-0.183c0.208-0.121,0.355-0.287,0.442-0.496c0.087-0.209,0.13-0.513,0.13-0.911v-2.499h0.792v4.664
				H28.528z"/>
			<path d="M32.225,125.566l0.114,0.698c-0.223,0.047-0.422,0.07-0.599,0.07c-0.288,0-0.51-0.045-0.669-0.136
				c-0.158-0.091-0.27-0.21-0.334-0.358s-0.097-0.459-0.097-0.933v-2.684h-0.581v-0.615h0.581v-1.155l0.788-0.474v1.629h0.797v0.615
				h-0.797v2.728c0,0.225,0.014,0.37,0.042,0.435s0.073,0.116,0.136,0.154c0.063,0.038,0.153,0.057,0.271,0.057
				C31.965,125.597,32.081,125.587,32.225,125.566z"/>
			<path d="M35.584,126.273v-4.049h-0.7v-0.615h0.7v-0.497c0-0.313,0.028-0.546,0.083-0.698c0.077-0.205,0.211-0.371,0.403-0.499
				c0.192-0.127,0.461-0.191,0.808-0.191c0.223,0,0.469,0.026,0.739,0.079l-0.119,0.689c-0.165-0.029-0.32-0.044-0.467-0.044
				c-0.24,0-0.411,0.051-0.51,0.154s-0.149,0.294-0.149,0.575v0.431h0.911v0.615h-0.911v4.049H35.584z"/>
			<path d="M37.89,126.273v-4.664h0.713v0.707c0.182-0.331,0.35-0.549,0.504-0.654c0.154-0.105,0.323-0.158,0.508-0.158
				c0.267,0,0.538,0.085,0.814,0.254l-0.273,0.734c-0.193-0.114-0.387-0.171-0.581-0.171c-0.173,0-0.329,0.052-0.467,0.156
				c-0.138,0.104-0.236,0.248-0.295,0.433c-0.088,0.281-0.132,0.588-0.132,0.922v2.442H37.89z"/>
			<path d="M43.95,125.698c-0.293,0.249-0.576,0.424-0.847,0.527c-0.271,0.103-0.563,0.154-0.874,0.154
				c-0.514,0-0.908-0.125-1.184-0.375s-0.414-0.57-0.414-0.96c0-0.228,0.052-0.437,0.156-0.625c0.104-0.189,0.24-0.34,0.409-0.455
				s0.359-0.201,0.57-0.259c0.156-0.041,0.39-0.081,0.704-0.119c0.64-0.076,1.11-0.167,1.413-0.272
				c0.003-0.108,0.004-0.177,0.004-0.207c0-0.322-0.075-0.549-0.224-0.681c-0.203-0.179-0.503-0.268-0.902-0.268
				c-0.373,0-0.647,0.065-0.825,0.195c-0.177,0.13-0.309,0.361-0.394,0.692l-0.775-0.105c0.071-0.331,0.187-0.598,0.348-0.802
				c0.162-0.203,0.395-0.36,0.7-0.47s0.659-0.165,1.061-0.165c0.399,0,0.723,0.047,0.973,0.141s0.433,0.211,0.55,0.354
				c0.117,0.142,0.199,0.321,0.246,0.538c0.027,0.135,0.04,0.378,0.04,0.729v1.054c0,0.735,0.017,1.2,0.05,1.395
				s0.101,0.381,0.2,0.56h-0.827C44.026,126.109,43.973,125.917,43.95,125.698z M43.884,123.933
				c-0.288,0.117-0.719,0.217-1.293,0.298c-0.326,0.047-0.556,0.1-0.691,0.158c-0.135,0.059-0.239,0.145-0.313,0.257
				c-0.074,0.113-0.11,0.238-0.11,0.375c0,0.211,0.08,0.387,0.24,0.527c0.16,0.141,0.394,0.211,0.702,0.211
				c0.305,0,0.577-0.067,0.814-0.2c0.238-0.133,0.413-0.315,0.524-0.546c0.085-0.179,0.127-0.442,0.127-0.791V123.933z"/>
			<path d="M48.863,124.565l0.779,0.101c-0.085,0.536-0.303,0.955-0.654,1.258s-0.781,0.455-1.292,0.455
				c-0.64,0-1.154-0.208-1.542-0.626c-0.389-0.417-0.583-1.015-0.583-1.794c0-0.504,0.083-0.944,0.251-1.322
				c0.167-0.377,0.421-0.661,0.763-0.85s0.714-0.283,1.116-0.283c0.508,0,0.923,0.128,1.246,0.384s0.529,0.62,0.621,1.091
				l-0.771,0.119c-0.073-0.313-0.203-0.549-0.389-0.707c-0.187-0.158-0.412-0.237-0.676-0.237c-0.399,0-0.723,0.143-0.973,0.428
				c-0.249,0.286-0.374,0.737-0.374,1.355c0,0.626,0.121,1.082,0.361,1.366c0.241,0.284,0.555,0.426,0.942,0.426
				c0.311,0,0.571-0.095,0.779-0.286C48.675,125.253,48.807,124.96,48.863,124.565z"/>
			<path d="M52.104,125.566l0.114,0.698c-0.223,0.047-0.422,0.07-0.599,0.07c-0.288,0-0.51-0.045-0.669-0.136
				c-0.158-0.091-0.27-0.21-0.334-0.358s-0.097-0.459-0.097-0.933v-2.684h-0.581v-0.615h0.581v-1.155l0.788-0.474v1.629h0.797v0.615
				h-0.797v2.728c0,0.225,0.014,0.37,0.042,0.435s0.073,0.116,0.136,0.154c0.063,0.038,0.153,0.057,0.271,0.057
				C51.844,125.597,51.959,125.587,52.104,125.566z"/>
			<path d="M52.882,120.744v-0.909h0.792v0.909H52.882z M52.882,126.273v-4.664h0.792v4.664H52.882z"/>
			<path d="M54.604,123.941c0-0.864,0.24-1.503,0.722-1.919c0.402-0.345,0.892-0.518,1.47-0.518c0.643,0,1.167,0.21,1.576,0.63
				c0.408,0.42,0.611,1.001,0.611,1.742c0,0.6-0.09,1.072-0.271,1.417c-0.18,0.344-0.443,0.611-0.788,0.801
				s-0.721,0.286-1.129,0.286c-0.654,0-1.183-0.209-1.586-0.628C54.805,125.332,54.604,124.729,54.604,123.941z M55.417,123.941
				c0,0.597,0.13,1.044,0.392,1.342c0.261,0.297,0.59,0.446,0.986,0.446c0.393,0,0.72-0.149,0.981-0.448
				c0.261-0.298,0.392-0.754,0.392-1.366c0-0.577-0.131-1.014-0.394-1.311c-0.262-0.297-0.589-0.446-0.979-0.446
				c-0.396,0-0.725,0.148-0.986,0.443C55.548,122.897,55.417,123.344,55.417,123.941z"/>
			<path d="M59.803,126.273v-4.664h0.713v0.663c0.343-0.513,0.839-0.769,1.487-0.769c0.282,0,0.541,0.05,0.777,0.151
				c0.236,0.101,0.413,0.233,0.53,0.397c0.117,0.164,0.199,0.359,0.247,0.584c0.029,0.146,0.044,0.403,0.044,0.769v2.868h-0.792
				v-2.837c0-0.322-0.031-0.563-0.092-0.722s-0.171-0.287-0.328-0.382c-0.157-0.095-0.341-0.143-0.552-0.143
				c-0.337,0-0.629,0.107-0.874,0.321c-0.245,0.213-0.368,0.619-0.368,1.216v2.547H59.803z"/>
		</g>
	</g>
	
		<line clip-path="url(#SVGID_2_)" fill="none" stroke="#000000" stroke-width="0.7242" stroke-linejoin="round" stroke-miterlimit="10" x1="64.635" y1="115.605" x2="78.287" y2="115.726"/>
	<polygon clip-path="url(#SVGID_2_)" fill-rule="evenodd" clip-rule="evenodd" points="78.045,119.563 85.85,115.605 
		78.045,111.768 	"/>
	<g clip-path="url(#SVGID_2_)">
		<defs>
			<rect id="SVGID_19_" x="28.053" y="50.728" width="47.479" height="12.575"/>
		</defs>
		<clipPath id="SVGID_20_">
			<use xlink:href="#SVGID_19_"  overflow="visible"/>
		</clipPath>
		<g clip-path="url(#SVGID_20_)">
			<path d="M28.717,59.226v-6.438h4.423v1.089h-3.12V55.4h2.693v1.089H30.02v2.736H28.717z"/>
			<path d="M35.388,59.226h-1.236v-4.664H35.3v0.663c0.196-0.313,0.374-0.52,0.53-0.619c0.157-0.1,0.335-0.149,0.535-0.149
				c0.282,0,0.553,0.078,0.814,0.232l-0.383,1.076c-0.208-0.135-0.402-0.202-0.581-0.202c-0.173,0-0.32,0.048-0.44,0.143
				c-0.12,0.095-0.215,0.267-0.284,0.516c-0.069,0.249-0.104,0.77-0.104,1.563V59.226z"/>
			<path d="M38.636,55.984l-1.123-0.202c0.126-0.451,0.343-0.785,0.651-1.001c0.308-0.216,0.766-0.325,1.373-0.325
				c0.552,0,0.962,0.065,1.232,0.195c0.27,0.13,0.459,0.296,0.57,0.496c0.11,0.201,0.165,0.569,0.165,1.105l-0.013,1.44
				c0,0.41,0.02,0.712,0.059,0.907c0.04,0.195,0.114,0.403,0.223,0.626H40.55c-0.032-0.082-0.072-0.204-0.119-0.365
				c-0.021-0.073-0.035-0.121-0.044-0.145c-0.211,0.205-0.438,0.358-0.678,0.461c-0.241,0.103-0.498,0.154-0.771,0.154
				c-0.481,0-0.86-0.13-1.137-0.391c-0.277-0.26-0.416-0.59-0.416-0.988c0-0.264,0.063-0.499,0.189-0.705
				c0.126-0.207,0.303-0.365,0.53-0.475c0.228-0.109,0.555-0.206,0.984-0.288c0.578-0.108,0.979-0.209,1.201-0.303v-0.123
				c0-0.237-0.059-0.406-0.176-0.507c-0.118-0.101-0.339-0.151-0.665-0.151c-0.22,0-0.392,0.043-0.515,0.129
				C38.812,55.616,38.712,55.768,38.636,55.984z M40.291,56.986c-0.158,0.053-0.409,0.116-0.752,0.188
				c-0.343,0.073-0.568,0.145-0.673,0.215c-0.161,0.114-0.242,0.259-0.242,0.435c0,0.173,0.065,0.322,0.194,0.448
				s0.293,0.189,0.493,0.189c0.223,0,0.436-0.073,0.638-0.22c0.15-0.111,0.248-0.247,0.295-0.408
				c0.032-0.105,0.048-0.306,0.048-0.602V56.986z"/>
			<path d="M46.799,55.94l-1.219,0.22c-0.041-0.243-0.134-0.426-0.279-0.549c-0.146-0.123-0.334-0.184-0.565-0.184
				c-0.308,0-0.554,0.106-0.737,0.318c-0.184,0.212-0.275,0.567-0.275,1.065c0,0.553,0.093,0.944,0.279,1.172
				c0.187,0.229,0.437,0.343,0.75,0.343c0.234,0,0.427-0.066,0.576-0.2c0.15-0.133,0.255-0.362,0.317-0.688l1.215,0.207
				c-0.126,0.556-0.368,0.977-0.726,1.26c-0.358,0.284-0.838,0.426-1.439,0.426c-0.684,0-1.229-0.215-1.635-0.646
				c-0.406-0.431-0.609-1.026-0.609-1.788c0-0.77,0.204-1.37,0.612-1.799c0.408-0.429,0.959-0.643,1.655-0.643
				c0.569,0,1.021,0.122,1.357,0.367S46.652,55.44,46.799,55.94z"/>
			<path d="M49.88,54.562v0.983h-0.845v1.88c0,0.381,0.008,0.603,0.024,0.666s0.053,0.115,0.11,0.156
				c0.058,0.041,0.127,0.062,0.209,0.062c0.114,0,0.28-0.04,0.497-0.119l0.105,0.958c-0.288,0.123-0.613,0.185-0.977,0.185
				c-0.223,0-0.424-0.038-0.603-0.112c-0.179-0.075-0.311-0.171-0.394-0.29s-0.142-0.279-0.174-0.481
				c-0.026-0.144-0.04-0.433-0.04-0.87v-2.034h-0.568v-0.983h0.568v-0.927l1.241-0.72v1.647H49.88z"/>
			<path d="M50.738,53.929v-1.142h1.236v1.142H50.738z M50.738,59.226v-4.664h1.236v4.664H50.738z"/>
			<path d="M52.956,56.828c0-0.41,0.101-0.807,0.304-1.19c0.202-0.383,0.489-0.676,0.86-0.878c0.371-0.202,0.786-0.303,1.243-0.303
				c0.707,0,1.287,0.229,1.738,0.687c0.452,0.458,0.678,1.038,0.678,1.737c0,0.706-0.228,1.291-0.685,1.754
				c-0.456,0.464-1.03,0.696-1.723,0.696c-0.428,0-0.837-0.097-1.226-0.29s-0.685-0.477-0.887-0.85
				C53.057,57.818,52.956,57.363,52.956,56.828z M54.224,56.894c0,0.462,0.11,0.817,0.33,1.063c0.22,0.246,0.491,0.369,0.814,0.369
				s0.593-0.123,0.812-0.369c0.218-0.246,0.328-0.604,0.328-1.072c0-0.457-0.109-0.808-0.328-1.054
				c-0.219-0.246-0.489-0.369-0.812-0.369s-0.594,0.123-0.814,0.369C54.333,56.077,54.224,56.431,54.224,56.894z"/>
			<path d="M62.998,59.226h-1.236v-2.38c0-0.503-0.027-0.83-0.08-0.977c-0.053-0.148-0.139-0.263-0.257-0.345
				c-0.119-0.082-0.262-0.123-0.429-0.123c-0.214,0-0.406,0.059-0.576,0.175c-0.17,0.117-0.287,0.272-0.35,0.466
				s-0.095,0.55-0.095,1.072v2.112h-1.236v-4.664h1.148v0.685c0.408-0.527,0.921-0.791,1.541-0.791c0.272,0,0.522,0.049,0.748,0.147
				c0.226,0.098,0.396,0.223,0.513,0.375c0.116,0.152,0.196,0.325,0.242,0.518c0.045,0.193,0.068,0.47,0.068,0.83V59.226z"/>
			<path d="M65.177,55.984l-1.123-0.202c0.126-0.451,0.343-0.785,0.651-1.001c0.308-0.216,0.766-0.325,1.373-0.325
				c0.552,0,0.962,0.065,1.232,0.195c0.27,0.13,0.459,0.296,0.57,0.496c0.11,0.201,0.165,0.569,0.165,1.105l-0.013,1.44
				c0,0.41,0.02,0.712,0.059,0.907c0.04,0.195,0.114,0.403,0.223,0.626h-1.224c-0.032-0.082-0.072-0.204-0.119-0.365
				c-0.021-0.073-0.035-0.121-0.044-0.145c-0.211,0.205-0.438,0.358-0.678,0.461c-0.241,0.103-0.498,0.154-0.771,0.154
				c-0.481,0-0.86-0.13-1.137-0.391c-0.277-0.26-0.416-0.59-0.416-0.988c0-0.264,0.063-0.499,0.189-0.705
				c0.126-0.207,0.303-0.365,0.53-0.475c0.228-0.109,0.555-0.206,0.984-0.288c0.578-0.108,0.979-0.209,1.201-0.303v-0.123
				c0-0.237-0.059-0.406-0.176-0.507c-0.118-0.101-0.339-0.151-0.665-0.151c-0.22,0-0.392,0.043-0.515,0.129
				C65.353,55.616,65.253,55.768,65.177,55.984z M66.831,56.986c-0.158,0.053-0.409,0.116-0.752,0.188
				c-0.343,0.073-0.568,0.145-0.673,0.215c-0.161,0.114-0.242,0.259-0.242,0.435c0,0.173,0.065,0.322,0.194,0.448
				s0.293,0.189,0.493,0.189c0.223,0,0.436-0.073,0.638-0.22c0.15-0.111,0.248-0.247,0.295-0.408
				c0.032-0.105,0.048-0.306,0.048-0.602V56.986z"/>
			<path d="M69.175,59.226v-6.438h1.236v6.438H69.175z"/>
		</g>
	</g>
	<g clip-path="url(#SVGID_2_)">
		<defs>
			<rect id="SVGID_21_" x="28.053" y="61.399" width="53.955" height="12.599"/>
		</defs>
		<clipPath id="SVGID_22_">
			<use xlink:href="#SVGID_21_"  overflow="visible"/>
		</clipPath>
		<g clip-path="url(#SVGID_22_)">
			<path d="M28.699,69.921v-6.438h1.236v6.438H28.699z"/>
			<path d="M31.203,64.624v-1.142h1.236v1.142H31.203z M31.203,69.921v-4.664h1.236v4.664H31.203z"/>
			<path d="M33.593,70.229l1.413,0.171c0.023,0.164,0.078,0.277,0.163,0.338c0.117,0.088,0.302,0.132,0.555,0.132
				c0.323,0,0.564-0.048,0.726-0.145c0.108-0.064,0.19-0.168,0.246-0.312c0.038-0.103,0.058-0.291,0.058-0.566v-0.681
				c-0.37,0.503-0.836,0.755-1.399,0.755c-0.628,0-1.125-0.265-1.492-0.795c-0.288-0.419-0.431-0.94-0.431-1.563
				c0-0.782,0.188-1.379,0.565-1.792c0.377-0.413,0.846-0.619,1.406-0.619c0.578,0,1.055,0.253,1.43,0.76v-0.654h1.157v4.186
				c0,0.55-0.045,0.961-0.136,1.234c-0.091,0.272-0.219,0.486-0.383,0.641c-0.165,0.155-0.384,0.277-0.658,0.365
				s-0.621,0.132-1.041,0.132c-0.792,0-1.354-0.136-1.686-0.406c-0.332-0.271-0.497-0.614-0.497-1.03
				C33.588,70.336,33.589,70.287,33.593,70.229z M34.697,67.492c0,0.495,0.096,0.857,0.288,1.087
				c0.192,0.23,0.429,0.345,0.711,0.345c0.302,0,0.557-0.118,0.766-0.354c0.208-0.236,0.313-0.585,0.313-1.047
				c0-0.483-0.1-0.842-0.299-1.076c-0.2-0.234-0.452-0.351-0.757-0.351c-0.296,0-0.541,0.115-0.733,0.345
				C34.793,66.67,34.697,67.021,34.697,67.492z"/>
			<path d="M40.444,63.482v2.367c0.399-0.466,0.876-0.698,1.431-0.698c0.284,0,0.541,0.053,0.77,0.158
				c0.229,0.105,0.401,0.24,0.517,0.404c0.116,0.164,0.195,0.346,0.237,0.544c0.042,0.199,0.064,0.508,0.064,0.927v2.736h-1.236
				v-2.464c0-0.489-0.024-0.799-0.071-0.931s-0.13-0.236-0.249-0.314s-0.268-0.116-0.447-0.116c-0.205,0-0.389,0.05-0.55,0.149
				c-0.162,0.1-0.28,0.25-0.354,0.45c-0.075,0.201-0.112,0.497-0.112,0.89v2.336h-1.236v-6.438H40.444z"/>
			<path d="M46.861,65.257v0.983h-0.845v1.88c0,0.381,0.008,0.603,0.024,0.666s0.053,0.115,0.11,0.156
				c0.058,0.041,0.127,0.062,0.209,0.062c0.114,0,0.28-0.04,0.497-0.119l0.105,0.958c-0.288,0.123-0.613,0.185-0.977,0.185
				c-0.223,0-0.424-0.038-0.603-0.112c-0.179-0.075-0.311-0.171-0.394-0.29s-0.142-0.279-0.174-0.481
				c-0.026-0.144-0.04-0.433-0.04-0.87V66.24h-0.568v-0.983h0.568V64.33l1.241-0.72v1.647H46.861z"/>
			<path d="M49.937,67.523c0-0.41,0.101-0.807,0.304-1.19c0.202-0.383,0.489-0.676,0.86-0.878c0.371-0.202,0.786-0.303,1.243-0.303
				c0.707,0,1.287,0.229,1.738,0.687c0.452,0.458,0.678,1.038,0.678,1.737c0,0.706-0.228,1.291-0.685,1.754
				c-0.456,0.464-1.03,0.696-1.723,0.696c-0.428,0-0.837-0.097-1.226-0.29s-0.685-0.477-0.887-0.85
				C50.038,68.513,49.937,68.059,49.937,67.523z M51.205,67.589c0,0.462,0.11,0.817,0.33,1.063c0.22,0.246,0.491,0.369,0.814,0.369
				s0.593-0.123,0.812-0.369c0.218-0.246,0.328-0.604,0.328-1.072c0-0.457-0.109-0.808-0.328-1.054
				c-0.219-0.246-0.489-0.369-0.812-0.369s-0.594,0.123-0.814,0.369C51.314,66.772,51.205,67.126,51.205,67.589z"/>
			<path d="M58.805,69.921v-0.698c-0.17,0.249-0.394,0.445-0.671,0.588s-0.57,0.215-0.878,0.215c-0.314,0-0.596-0.069-0.845-0.207
				c-0.25-0.138-0.43-0.331-0.542-0.58c-0.111-0.249-0.167-0.593-0.167-1.032v-2.951h1.236V67.4c0,0.656,0.023,1.058,0.068,1.206
				s0.128,0.265,0.249,0.352c0.121,0.086,0.273,0.129,0.458,0.129c0.211,0,0.4-0.058,0.567-0.173
				c0.167-0.116,0.282-0.259,0.343-0.431s0.092-0.591,0.092-1.258v-1.967h1.237v4.664H58.805z"/>
			<path d="M63.376,65.257v0.983h-0.845v1.88c0,0.381,0.008,0.603,0.024,0.666s0.053,0.115,0.11,0.156
				c0.058,0.041,0.127,0.062,0.209,0.062c0.114,0,0.28-0.04,0.497-0.119l0.105,0.958c-0.288,0.123-0.613,0.185-0.977,0.185
				c-0.223,0-0.424-0.038-0.603-0.112c-0.179-0.075-0.311-0.171-0.394-0.29s-0.142-0.279-0.174-0.481
				c-0.026-0.144-0.04-0.433-0.04-0.87V66.24h-0.568v-0.983h0.568V64.33l1.241-0.72v1.647H63.376z"/>
			<path d="M64.2,65.257h1.153v0.685c0.15-0.234,0.352-0.425,0.607-0.571c0.255-0.146,0.538-0.219,0.849-0.219
				c0.543,0,1.003,0.212,1.382,0.637s0.568,1.016,0.568,1.774c0,0.779-0.191,1.384-0.572,1.816
				c-0.381,0.432-0.843,0.648-1.386,0.648c-0.258,0-0.492-0.051-0.702-0.154c-0.21-0.103-0.431-0.278-0.663-0.527v2.35H64.2V65.257z
				 M65.423,67.51c0,0.524,0.104,0.911,0.313,1.162s0.462,0.375,0.761,0.375c0.288,0,0.527-0.115,0.717-0.345
				c0.191-0.23,0.286-0.607,0.286-1.131c0-0.489-0.098-0.852-0.295-1.089c-0.196-0.237-0.44-0.355-0.73-0.355
				c-0.302,0-0.553,0.116-0.752,0.349C65.522,66.708,65.423,67.053,65.423,67.51z"/>
			<path d="M72.726,69.921v-0.698c-0.17,0.249-0.394,0.445-0.671,0.588s-0.57,0.215-0.878,0.215c-0.314,0-0.596-0.069-0.845-0.207
				c-0.25-0.138-0.43-0.331-0.542-0.58c-0.111-0.249-0.167-0.593-0.167-1.032v-2.951h1.236V67.4c0,0.656,0.023,1.058,0.068,1.206
				s0.128,0.265,0.249,0.352c0.121,0.086,0.273,0.129,0.458,0.129c0.211,0,0.4-0.058,0.567-0.173
				c0.167-0.116,0.282-0.259,0.343-0.431s0.092-0.591,0.092-1.258v-1.967h1.237v4.664H72.726z"/>
			<path d="M77.298,65.257v0.983h-0.845v1.88c0,0.381,0.008,0.603,0.024,0.666s0.053,0.115,0.11,0.156
				c0.058,0.041,0.127,0.062,0.209,0.062c0.114,0,0.28-0.04,0.497-0.119l0.105,0.958c-0.288,0.123-0.613,0.185-0.977,0.185
				c-0.223,0-0.424-0.038-0.603-0.112c-0.179-0.075-0.311-0.171-0.394-0.29s-0.142-0.279-0.174-0.481
				c-0.026-0.144-0.04-0.433-0.04-0.87V66.24h-0.568v-0.983h0.568V64.33l1.241-0.72v1.647H77.298z"/>
		</g>
	</g>
	
		<line clip-path="url(#SVGID_2_)" fill="none" stroke="#000000" stroke-width="0.7242" stroke-linejoin="round" stroke-miterlimit="10" x1="189.917" y1="27.46" x2="135.966" y2="92.701"/>
	<polygon clip-path="url(#SVGID_2_)" fill-rule="evenodd" clip-rule="evenodd" points="133.209,89.925 131.302,98.324 
		139.202,94.849 	"/>
	<g clip-path="url(#SVGID_2_)">
		<defs>
			<rect id="SVGID_23_" x="103.827" y="27.098" width="79.495" height="11.875"/>
		</defs>
		<clipPath id="SVGID_24_">
			<use xlink:href="#SVGID_23_"  overflow="visible"/>
		</clipPath>
		<g clip-path="url(#SVGID_24_)">
			<path d="M104.667,35.254v-6.438h0.854v6.438H104.667z"/>
			<path d="M106.924,35.254V30.59h0.713v0.663c0.343-0.513,0.839-0.769,1.487-0.769c0.282,0,0.541,0.05,0.777,0.151
				c0.236,0.101,0.413,0.233,0.53,0.397c0.117,0.164,0.199,0.359,0.247,0.584c0.029,0.146,0.044,0.403,0.044,0.769v2.868h-0.792
				v-2.837c0-0.322-0.031-0.563-0.092-0.722s-0.171-0.287-0.328-0.382c-0.157-0.095-0.341-0.143-0.552-0.143
				c-0.337,0-0.629,0.107-0.874,0.321c-0.245,0.213-0.368,0.619-0.368,1.216v2.547H106.924z"/>
			<path d="M114.986,33.545l0.779,0.101c-0.085,0.536-0.303,0.955-0.654,1.258s-0.781,0.455-1.292,0.455
				c-0.64,0-1.154-0.208-1.542-0.626c-0.389-0.417-0.583-1.015-0.583-1.794c0-0.504,0.083-0.944,0.251-1.322
				c0.167-0.377,0.421-0.661,0.763-0.85s0.714-0.283,1.116-0.283c0.508,0,0.923,0.128,1.246,0.384s0.529,0.62,0.621,1.091
				l-0.771,0.119c-0.073-0.313-0.203-0.549-0.389-0.707c-0.187-0.158-0.412-0.237-0.676-0.237c-0.399,0-0.723,0.143-0.973,0.428
				c-0.249,0.286-0.374,0.737-0.374,1.355c0,0.626,0.121,1.082,0.361,1.366c0.241,0.284,0.555,0.426,0.942,0.426
				c0.311,0,0.571-0.095,0.779-0.286C114.799,34.233,114.931,33.941,114.986,33.545z"/>
			<path d="M116.506,35.254V30.59h0.713v0.707c0.182-0.331,0.35-0.549,0.504-0.654c0.154-0.105,0.323-0.158,0.508-0.158
				c0.267,0,0.538,0.085,0.814,0.254l-0.273,0.734c-0.193-0.114-0.387-0.171-0.581-0.171c-0.173,0-0.329,0.052-0.467,0.156
				c-0.138,0.104-0.236,0.248-0.295,0.433c-0.088,0.281-0.132,0.588-0.132,0.922v2.442H116.506z"/>
			<path d="M122.716,33.752l0.818,0.101c-0.129,0.477-0.368,0.848-0.717,1.111c-0.349,0.264-0.795,0.396-1.338,0.396
				c-0.684,0-1.226-0.21-1.626-0.63c-0.4-0.42-0.601-1.009-0.601-1.768c0-0.785,0.203-1.394,0.607-1.827s0.93-0.65,1.575-0.65
				c0.625,0,1.135,0.212,1.532,0.637c0.396,0.424,0.594,1.022,0.594,1.792c0,0.047-0.001,0.117-0.004,0.211h-3.485
				c0.029,0.512,0.175,0.904,0.436,1.177c0.261,0.272,0.586,0.409,0.977,0.409c0.291,0,0.539-0.076,0.744-0.229
				C122.433,34.329,122.595,34.085,122.716,33.752z M120.115,32.474h2.61c-0.035-0.392-0.135-0.687-0.299-0.883
				c-0.252-0.304-0.58-0.457-0.981-0.457c-0.364,0-0.669,0.122-0.917,0.364C120.278,31.742,120.142,32.067,120.115,32.474z"/>
			<path d="M127.47,34.679c-0.293,0.249-0.576,0.424-0.847,0.527c-0.271,0.103-0.563,0.154-0.874,0.154
				c-0.514,0-0.908-0.125-1.184-0.375s-0.414-0.57-0.414-0.96c0-0.228,0.052-0.437,0.156-0.625c0.104-0.189,0.24-0.34,0.409-0.455
				s0.359-0.201,0.57-0.259c0.156-0.041,0.39-0.081,0.704-0.119c0.64-0.076,1.11-0.167,1.413-0.272
				c0.003-0.108,0.004-0.177,0.004-0.207c0-0.322-0.075-0.549-0.224-0.681c-0.203-0.179-0.503-0.268-0.902-0.268
				c-0.373,0-0.647,0.065-0.825,0.195c-0.177,0.13-0.309,0.361-0.394,0.692l-0.775-0.105c0.071-0.331,0.187-0.598,0.348-0.802
				c0.162-0.203,0.395-0.36,0.7-0.47s0.659-0.165,1.061-0.165c0.399,0,0.723,0.047,0.973,0.141s0.433,0.211,0.55,0.354
				c0.117,0.142,0.199,0.321,0.246,0.538c0.027,0.135,0.04,0.378,0.04,0.729v1.054c0,0.735,0.017,1.2,0.05,1.395
				s0.101,0.381,0.2,0.56h-0.827C127.547,35.09,127.494,34.898,127.47,34.679z M127.404,32.913
				c-0.288,0.117-0.719,0.217-1.293,0.298c-0.326,0.047-0.556,0.1-0.691,0.158c-0.135,0.059-0.239,0.145-0.313,0.257
				c-0.074,0.113-0.11,0.238-0.11,0.375c0,0.211,0.08,0.387,0.24,0.527c0.16,0.141,0.394,0.211,0.702,0.211
				c0.305,0,0.577-0.067,0.814-0.2c0.238-0.133,0.413-0.315,0.524-0.546c0.085-0.179,0.127-0.442,0.127-0.791V32.913z"/>
			<path d="M129.116,33.862l0.783-0.123c0.044,0.313,0.167,0.553,0.368,0.72c0.201,0.167,0.481,0.25,0.843,0.25
				c0.363,0,0.633-0.074,0.81-0.222c0.176-0.147,0.264-0.321,0.264-0.52c0-0.179-0.078-0.319-0.233-0.422
				c-0.108-0.07-0.378-0.16-0.81-0.268c-0.581-0.146-0.984-0.273-1.208-0.38c-0.225-0.107-0.395-0.254-0.511-0.443
				s-0.174-0.397-0.174-0.626c0-0.208,0.048-0.4,0.143-0.578c0.095-0.177,0.225-0.324,0.39-0.441c0.123-0.09,0.291-0.167,0.504-0.23
				c0.212-0.063,0.44-0.094,0.684-0.094c0.367,0,0.689,0.053,0.966,0.158c0.277,0.105,0.482,0.248,0.614,0.428
				c0.132,0.18,0.223,0.421,0.272,0.722l-0.774,0.105c-0.035-0.24-0.137-0.427-0.306-0.562c-0.169-0.135-0.407-0.202-0.715-0.202
				c-0.364,0-0.624,0.06-0.779,0.18s-0.233,0.26-0.233,0.421c0,0.103,0.032,0.195,0.097,0.277c0.064,0.085,0.166,0.155,0.304,0.211
				c0.079,0.029,0.312,0.097,0.7,0.202c0.56,0.149,0.951,0.272,1.172,0.367c0.222,0.095,0.396,0.234,0.521,0.415
				c0.126,0.182,0.189,0.407,0.189,0.677c0,0.263-0.077,0.512-0.231,0.744c-0.154,0.233-0.376,0.413-0.667,0.541
				c-0.29,0.127-0.619,0.191-0.985,0.191c-0.607,0-1.07-0.126-1.389-0.378C129.407,34.73,129.204,34.356,129.116,33.862z"/>
			<path d="M133.998,29.725v-0.909h0.792v0.909H133.998z M133.998,35.254V30.59h0.792v4.664H133.998z"/>
			<path d="M135.906,35.254V30.59h0.713v0.663c0.343-0.513,0.839-0.769,1.487-0.769c0.282,0,0.541,0.05,0.777,0.151
				c0.236,0.101,0.413,0.233,0.53,0.397c0.117,0.164,0.199,0.359,0.247,0.584c0.029,0.146,0.044,0.403,0.044,0.769v2.868h-0.792
				v-2.837c0-0.322-0.031-0.563-0.092-0.722s-0.171-0.287-0.328-0.382c-0.157-0.095-0.341-0.143-0.552-0.143
				c-0.337,0-0.629,0.107-0.874,0.321c-0.245,0.213-0.368,0.619-0.368,1.216v2.547H135.906z"/>
			<path d="M140.772,35.641l0.771,0.114c0.032,0.237,0.122,0.41,0.268,0.519c0.197,0.146,0.465,0.22,0.806,0.22
				c0.367,0,0.649-0.073,0.849-0.22s0.334-0.352,0.405-0.615c0.041-0.161,0.06-0.5,0.057-1.015c-0.346,0.407-0.777,0.61-1.293,0.61
				c-0.643,0-1.14-0.231-1.492-0.694c-0.352-0.463-0.528-1.018-0.528-1.665c0-0.445,0.081-0.856,0.242-1.232
				c0.161-0.376,0.395-0.667,0.702-0.872c0.307-0.205,0.667-0.307,1.081-0.307c0.551,0,1.006,0.222,1.364,0.667V30.59h0.73v4.032
				c0,0.726-0.074,1.241-0.222,1.543c-0.148,0.303-0.383,0.542-0.704,0.718c-0.321,0.176-0.717,0.264-1.186,0.264
				c-0.558,0-1.008-0.125-1.351-0.375C140.927,36.521,140.761,36.144,140.772,35.641z M141.428,32.838
				c0,0.612,0.122,1.059,0.365,1.339c0.244,0.281,0.549,0.422,0.916,0.422c0.364,0,0.669-0.14,0.915-0.419
				c0.247-0.28,0.37-0.718,0.37-1.315c0-0.571-0.127-1.001-0.381-1.292c-0.254-0.29-0.56-0.435-0.917-0.435
				c-0.352,0-0.651,0.143-0.898,0.428C141.552,31.853,141.428,32.276,141.428,32.838z"/>
			<path d="M151.475,35.254v-0.588c-0.296,0.462-0.732,0.694-1.307,0.694c-0.373,0-0.715-0.103-1.028-0.308
				c-0.313-0.205-0.554-0.491-0.726-0.858c-0.171-0.368-0.257-0.79-0.257-1.267c0-0.466,0.078-0.888,0.233-1.267
				c0.155-0.379,0.389-0.67,0.7-0.872c0.311-0.202,0.658-0.303,1.043-0.303c0.281,0,0.532,0.059,0.752,0.178
				c0.22,0.119,0.399,0.273,0.537,0.463v-2.31h0.788v6.438H151.475z M148.971,32.926c0,0.597,0.126,1.044,0.378,1.339
				c0.252,0.296,0.55,0.444,0.894,0.444c0.346,0,0.64-0.142,0.882-0.424c0.242-0.283,0.363-0.714,0.363-1.293
				c0-0.638-0.123-1.107-0.37-1.406c-0.246-0.298-0.55-0.448-0.911-0.448c-0.352,0-0.646,0.144-0.882,0.43
				C149.089,31.856,148.971,32.309,148.971,32.926z"/>
			<path d="M156.406,34.679c-0.293,0.249-0.576,0.424-0.847,0.527c-0.271,0.103-0.563,0.154-0.874,0.154
				c-0.514,0-0.908-0.125-1.184-0.375s-0.414-0.57-0.414-0.96c0-0.228,0.052-0.437,0.156-0.625c0.104-0.189,0.24-0.34,0.409-0.455
				s0.359-0.201,0.57-0.259c0.156-0.041,0.39-0.081,0.704-0.119c0.64-0.076,1.11-0.167,1.413-0.272
				c0.003-0.108,0.004-0.177,0.004-0.207c0-0.322-0.075-0.549-0.224-0.681c-0.203-0.179-0.503-0.268-0.902-0.268
				c-0.373,0-0.647,0.065-0.825,0.195c-0.177,0.13-0.309,0.361-0.394,0.692l-0.775-0.105c0.071-0.331,0.187-0.598,0.348-0.802
				c0.162-0.203,0.395-0.36,0.7-0.47s0.659-0.165,1.061-0.165c0.399,0,0.723,0.047,0.973,0.141s0.433,0.211,0.55,0.354
				c0.117,0.142,0.199,0.321,0.246,0.538c0.027,0.135,0.04,0.378,0.04,0.729v1.054c0,0.735,0.017,1.2,0.05,1.395
				s0.101,0.381,0.2,0.56h-0.827C156.483,35.09,156.43,34.898,156.406,34.679z M156.34,32.913c-0.288,0.117-0.719,0.217-1.293,0.298
				c-0.326,0.047-0.556,0.1-0.691,0.158c-0.135,0.059-0.239,0.145-0.313,0.257c-0.074,0.113-0.11,0.238-0.11,0.375
				c0,0.211,0.08,0.387,0.24,0.527c0.16,0.141,0.394,0.211,0.702,0.211c0.305,0,0.577-0.067,0.814-0.2
				c0.238-0.133,0.413-0.315,0.524-0.546c0.085-0.179,0.127-0.442,0.127-0.791V32.913z"/>
			<path d="M158.334,37.05l-0.088-0.742c0.173,0.047,0.324,0.07,0.454,0.07c0.176,0,0.317-0.029,0.422-0.088s0.192-0.141,0.26-0.246
				c0.05-0.079,0.13-0.275,0.242-0.588c0.015-0.044,0.038-0.108,0.071-0.193l-1.774-4.673h0.854l0.973,2.701
				c0.126,0.343,0.239,0.703,0.339,1.081c0.091-0.363,0.199-0.717,0.326-1.063l0.999-2.718h0.792l-1.778,4.743
				c-0.191,0.512-0.339,0.865-0.445,1.059c-0.141,0.26-0.302,0.452-0.484,0.573c-0.182,0.122-0.399,0.183-0.651,0.183
				C158.692,37.147,158.521,37.115,158.334,37.05z"/>
			<path d="M162.822,35.254v-6.438h0.792v6.438H162.822z"/>
			<path d="M164.855,29.725v-0.909h0.792v0.909H164.855z M164.855,35.254V30.59h0.792v4.664H164.855z"/>
			<path d="M166.717,35.641l0.771,0.114c0.032,0.237,0.122,0.41,0.268,0.519c0.197,0.146,0.465,0.22,0.806,0.22
				c0.367,0,0.649-0.073,0.849-0.22s0.334-0.352,0.405-0.615c0.041-0.161,0.06-0.5,0.057-1.015c-0.346,0.407-0.777,0.61-1.293,0.61
				c-0.643,0-1.14-0.231-1.492-0.694c-0.352-0.463-0.528-1.018-0.528-1.665c0-0.445,0.081-0.856,0.242-1.232
				c0.161-0.376,0.395-0.667,0.702-0.872c0.307-0.205,0.667-0.307,1.081-0.307c0.551,0,1.006,0.222,1.364,0.667V30.59h0.73v4.032
				c0,0.726-0.074,1.241-0.222,1.543c-0.148,0.303-0.383,0.542-0.704,0.718c-0.321,0.176-0.717,0.264-1.186,0.264
				c-0.558,0-1.008-0.125-1.351-0.375C166.871,36.521,166.705,36.144,166.717,35.641z M167.373,32.838
				c0,0.612,0.122,1.059,0.365,1.339c0.244,0.281,0.549,0.422,0.916,0.422c0.364,0,0.669-0.14,0.915-0.419
				c0.247-0.28,0.37-0.718,0.37-1.315c0-0.571-0.127-1.001-0.381-1.292c-0.254-0.29-0.56-0.435-0.917-0.435
				c-0.352,0-0.651,0.143-0.898,0.428C167.496,31.853,167.373,32.276,167.373,32.838z"/>
			<path d="M171.875,35.254v-6.438h0.792v2.31c0.37-0.427,0.836-0.641,1.399-0.641c0.346,0,0.647,0.068,0.902,0.204
				c0.255,0.136,0.438,0.324,0.548,0.564c0.11,0.24,0.165,0.588,0.165,1.045v2.956h-0.792v-2.956c0-0.396-0.085-0.683-0.257-0.863
				c-0.171-0.18-0.415-0.27-0.728-0.27c-0.235,0-0.456,0.061-0.663,0.182c-0.207,0.122-0.354,0.286-0.442,0.494
				c-0.088,0.208-0.132,0.495-0.132,0.861v2.552H171.875z"/>
			<path d="M178.526,34.547l0.114,0.698c-0.223,0.047-0.422,0.07-0.599,0.07c-0.288,0-0.51-0.045-0.669-0.136
				c-0.158-0.091-0.27-0.21-0.334-0.358s-0.097-0.459-0.097-0.933v-2.684h-0.581V30.59h0.581v-1.155l0.788-0.474v1.629h0.797v0.615
				h-0.797v2.728c0,0.225,0.014,0.37,0.042,0.435s0.073,0.116,0.136,0.154c0.063,0.038,0.153,0.057,0.271,0.057
				C178.267,34.578,178.382,34.567,178.526,34.547z"/>
		</g>
	</g>
	<g clip-path="url(#SVGID_2_)">
		<defs>
			<rect id="SVGID_25_" x="103.827" y="37.166" width="49.413" height="11.754"/>
		</defs>
		<clipPath id="SVGID_26_">
			<use xlink:href="#SVGID_25_"  overflow="visible"/>
		</clipPath>
		<g clip-path="url(#SVGID_26_)">
			<path d="M104.425,39.791v-0.909h0.792v0.909H104.425z M104.425,45.32v-4.664h0.792v4.664H104.425z"/>
			<path d="M106.414,45.32v-6.438h0.792v6.438H106.414z"/>
			<path d="M108.425,45.32v-6.438h0.792v6.438H108.425z"/>
			<path d="M113.518,45.32v-0.685c-0.364,0.527-0.858,0.791-1.483,0.791c-0.276,0-0.533-0.053-0.772-0.158
				c-0.239-0.105-0.417-0.238-0.533-0.397s-0.197-0.355-0.244-0.586c-0.032-0.155-0.048-0.401-0.048-0.738v-2.89h0.792v2.586
				c0,0.413,0.016,0.691,0.048,0.834c0.05,0.208,0.155,0.372,0.317,0.49c0.161,0.119,0.361,0.178,0.599,0.178
				c0.237,0,0.46-0.061,0.669-0.183c0.208-0.121,0.355-0.287,0.442-0.496c0.087-0.209,0.13-0.513,0.13-0.911v-2.499h0.792v4.664
				H113.518z"/>
			<path d="M115.359,45.32v-4.664h0.708v0.654c0.146-0.229,0.342-0.412,0.585-0.551c0.244-0.139,0.521-0.208,0.832-0.208
				c0.346,0,0.63,0.072,0.852,0.215c0.221,0.144,0.377,0.344,0.469,0.602c0.37-0.545,0.851-0.817,1.443-0.817
				c0.463,0,0.82,0.128,1.069,0.384c0.249,0.256,0.374,0.651,0.374,1.184v3.202h-0.788v-2.938c0-0.316-0.026-0.544-0.077-0.683
				s-0.145-0.251-0.279-0.336c-0.135-0.085-0.293-0.127-0.476-0.127c-0.329,0-0.602,0.109-0.818,0.327
				c-0.217,0.218-0.326,0.567-0.326,1.047v2.71h-0.792v-3.03c0-0.352-0.065-0.615-0.194-0.791c-0.129-0.176-0.34-0.264-0.634-0.264
				c-0.223,0-0.429,0.059-0.618,0.176s-0.326,0.288-0.412,0.514c-0.085,0.226-0.127,0.55-0.127,0.975v2.42H115.359z"/>
			<path d="M122.907,39.791v-0.909h0.792v0.909H122.907z M122.907,45.32v-4.664h0.792v4.664H122.907z"/>
			<path d="M124.914,45.32v-4.664h0.713v0.663c0.343-0.513,0.839-0.769,1.487-0.769c0.282,0,0.541,0.05,0.777,0.151
				c0.236,0.101,0.413,0.233,0.53,0.397c0.117,0.164,0.199,0.359,0.247,0.584c0.029,0.146,0.044,0.403,0.044,0.769v2.868h-0.792
				v-2.837c0-0.322-0.031-0.563-0.092-0.722s-0.171-0.287-0.328-0.382c-0.157-0.095-0.341-0.143-0.552-0.143
				c-0.337,0-0.629,0.107-0.874,0.321c-0.245,0.213-0.368,0.619-0.368,1.216v2.547H124.914z"/>
			<path d="M132.867,44.745c-0.293,0.249-0.576,0.424-0.847,0.527c-0.271,0.103-0.563,0.154-0.874,0.154
				c-0.514,0-0.908-0.125-1.184-0.375s-0.414-0.57-0.414-0.96c0-0.228,0.052-0.437,0.156-0.625c0.104-0.189,0.24-0.34,0.409-0.455
				s0.359-0.201,0.57-0.259c0.156-0.041,0.39-0.081,0.704-0.119c0.64-0.076,1.11-0.167,1.413-0.272
				c0.003-0.108,0.004-0.177,0.004-0.207c0-0.322-0.075-0.549-0.224-0.681c-0.203-0.179-0.503-0.268-0.902-0.268
				c-0.373,0-0.647,0.065-0.825,0.195c-0.177,0.13-0.309,0.361-0.394,0.692l-0.775-0.105c0.071-0.331,0.187-0.598,0.348-0.802
				c0.162-0.203,0.395-0.36,0.7-0.47s0.659-0.165,1.061-0.165c0.399,0,0.723,0.047,0.973,0.141s0.433,0.211,0.55,0.354
				c0.117,0.142,0.199,0.321,0.246,0.538c0.027,0.135,0.04,0.378,0.04,0.729v1.054c0,0.735,0.017,1.2,0.05,1.395
				s0.101,0.381,0.2,0.56h-0.827C132.944,45.156,132.891,44.964,132.867,44.745z M132.801,42.979
				c-0.288,0.117-0.719,0.217-1.293,0.298c-0.326,0.047-0.556,0.1-0.691,0.158c-0.135,0.059-0.239,0.145-0.313,0.257
				c-0.074,0.113-0.11,0.238-0.11,0.375c0,0.211,0.08,0.387,0.24,0.527c0.16,0.141,0.394,0.211,0.702,0.211
				c0.305,0,0.577-0.067,0.814-0.2c0.238-0.133,0.413-0.315,0.524-0.546c0.085-0.179,0.127-0.442,0.127-0.791V42.979z"/>
			<path d="M134.83,45.32v-4.664h0.713v0.663c0.343-0.513,0.839-0.769,1.487-0.769c0.282,0,0.541,0.05,0.777,0.151
				c0.236,0.101,0.413,0.233,0.53,0.397c0.117,0.164,0.199,0.359,0.247,0.584c0.029,0.146,0.044,0.403,0.044,0.769v2.868h-0.792
				v-2.837c0-0.322-0.031-0.563-0.092-0.722s-0.171-0.287-0.328-0.382c-0.157-0.095-0.341-0.143-0.552-0.143
				c-0.337,0-0.629,0.107-0.874,0.321c-0.245,0.213-0.368,0.619-0.368,1.216v2.547H134.83z"/>
			<path d="M142.802,43.612l0.779,0.101c-0.085,0.536-0.303,0.955-0.654,1.258s-0.781,0.455-1.292,0.455
				c-0.64,0-1.154-0.208-1.542-0.626c-0.389-0.417-0.583-1.015-0.583-1.794c0-0.504,0.083-0.944,0.251-1.322
				c0.167-0.377,0.421-0.661,0.763-0.85s0.714-0.283,1.116-0.283c0.508,0,0.923,0.128,1.246,0.384s0.529,0.62,0.621,1.091
				l-0.771,0.119c-0.073-0.313-0.203-0.549-0.389-0.707c-0.187-0.158-0.412-0.237-0.676-0.237c-0.399,0-0.723,0.143-0.973,0.428
				c-0.249,0.286-0.374,0.737-0.374,1.355c0,0.626,0.121,1.082,0.361,1.366c0.241,0.284,0.555,0.426,0.942,0.426
				c0.311,0,0.571-0.095,0.779-0.286C142.614,44.3,142.746,44.007,142.802,43.612z"/>
			<path d="M147.503,43.818l0.818,0.101c-0.129,0.477-0.368,0.848-0.717,1.111c-0.349,0.264-0.795,0.396-1.338,0.396
				c-0.684,0-1.226-0.21-1.626-0.63c-0.4-0.42-0.601-1.009-0.601-1.768c0-0.785,0.203-1.394,0.607-1.827s0.93-0.65,1.575-0.65
				c0.625,0,1.135,0.212,1.532,0.637c0.396,0.424,0.594,1.022,0.594,1.792c0,0.047-0.001,0.117-0.004,0.211h-3.485
				c0.029,0.512,0.175,0.904,0.436,1.177c0.261,0.272,0.586,0.409,0.977,0.409c0.291,0,0.539-0.076,0.744-0.229
				C147.22,44.395,147.383,44.152,147.503,43.818z M144.902,42.54h2.61c-0.035-0.392-0.135-0.687-0.299-0.883
				c-0.252-0.304-0.58-0.457-0.981-0.457c-0.364,0-0.669,0.122-0.917,0.364C145.066,41.808,144.929,42.133,144.902,42.54z"/>
		</g>
	</g>
	<g clip-path="url(#SVGID_2_)">
		<defs>
			<rect id="SVGID_27_" x="243.508" y="9.116" width="63.306" height="36.445"/>
		</defs>
		<clipPath id="SVGID_28_">
			<use xlink:href="#SVGID_27_"  overflow="visible"/>
		</clipPath>
		<g clip-path="url(#SVGID_28_)">
			<path d="M243.688,17.611v-0.791l3.305-4.124c0.234-0.293,0.458-0.547,0.669-0.764h-3.6v-0.76h4.62v0.76l-3.621,4.466
				l-0.392,0.453h4.119v0.76H243.688z"/>
			<path d="M252.805,16.109l0.819,0.101c-0.13,0.477-0.368,0.848-0.718,1.111c-0.349,0.264-0.795,0.396-1.338,0.396
				c-0.684,0-1.226-0.21-1.626-0.63c-0.4-0.42-0.601-1.009-0.601-1.768c0-0.785,0.202-1.394,0.607-1.827
				c0.404-0.433,0.93-0.65,1.575-0.65c0.625,0,1.136,0.212,1.531,0.637c0.396,0.424,0.595,1.022,0.595,1.792
				c0,0.047-0.002,0.117-0.005,0.211h-3.485c0.029,0.512,0.175,0.904,0.436,1.177c0.262,0.272,0.587,0.409,0.978,0.409
				c0.29,0,0.538-0.076,0.743-0.229C252.523,16.686,252.685,16.443,252.805,16.109z M250.205,14.831h2.609
				c-0.035-0.392-0.135-0.687-0.299-0.883c-0.252-0.304-0.579-0.457-0.981-0.457c-0.363,0-0.67,0.122-0.917,0.364
				C250.369,14.099,250.231,14.424,250.205,14.831z"/>
			<path d="M254.61,17.611v-4.664h0.713v0.707c0.183-0.331,0.351-0.549,0.504-0.654c0.154-0.105,0.324-0.158,0.509-0.158
				c0.267,0,0.538,0.085,0.813,0.254l-0.272,0.734c-0.193-0.114-0.387-0.171-0.581-0.171c-0.173,0-0.328,0.052-0.466,0.156
				c-0.139,0.104-0.236,0.248-0.295,0.433c-0.088,0.281-0.133,0.588-0.133,0.922v2.442H254.61z"/>
			<path d="M257.325,15.279c0-0.864,0.241-1.503,0.722-1.919c0.402-0.345,0.893-0.518,1.471-0.518c0.643,0,1.167,0.21,1.575,0.63
				c0.407,0.42,0.611,1.001,0.611,1.742c0,0.6-0.09,1.072-0.271,1.417c-0.181,0.344-0.443,0.611-0.788,0.801
				s-0.721,0.286-1.128,0.286c-0.654,0-1.184-0.209-1.587-0.628C257.527,16.67,257.325,16.067,257.325,15.279z M258.139,15.279
				c0,0.597,0.131,1.044,0.392,1.342c0.262,0.297,0.59,0.446,0.986,0.446c0.393,0,0.72-0.149,0.98-0.448
				c0.262-0.298,0.393-0.754,0.393-1.366c0-0.577-0.132-1.014-0.395-1.311s-0.589-0.446-0.979-0.446
				c-0.396,0-0.725,0.148-0.986,0.443C258.27,14.235,258.139,14.682,258.139,15.279z"/>
			<path d="M268.196,17.611v-0.588c-0.296,0.462-0.731,0.694-1.307,0.694c-0.373,0-0.715-0.103-1.027-0.308
				c-0.313-0.205-0.555-0.491-0.727-0.858c-0.172-0.368-0.258-0.79-0.258-1.267c0-0.466,0.078-0.888,0.233-1.267
				c0.155-0.379,0.389-0.67,0.7-0.872c0.311-0.202,0.658-0.303,1.043-0.303c0.281,0,0.532,0.059,0.752,0.178
				c0.221,0.119,0.399,0.273,0.537,0.463v-2.31h0.788v6.438H268.196z M265.692,15.284c0,0.597,0.126,1.044,0.379,1.339
				c0.252,0.296,0.55,0.444,0.893,0.444c0.347,0,0.641-0.142,0.883-0.424c0.242-0.283,0.363-0.714,0.363-1.293
				c0-0.638-0.123-1.107-0.37-1.406c-0.246-0.298-0.55-0.448-0.911-0.448c-0.352,0-0.646,0.144-0.882,0.43
				C265.81,14.213,265.692,14.666,265.692,15.284z"/>
			<path d="M273.118,17.036c-0.293,0.249-0.575,0.424-0.847,0.527s-0.563,0.154-0.874,0.154c-0.513,0-0.908-0.125-1.184-0.375
				s-0.414-0.57-0.414-0.96c0-0.228,0.053-0.437,0.156-0.625c0.104-0.189,0.241-0.34,0.41-0.455
				c0.168-0.114,0.358-0.201,0.569-0.259c0.155-0.041,0.391-0.081,0.704-0.119c0.64-0.076,1.11-0.167,1.413-0.272
				c0.003-0.108,0.004-0.177,0.004-0.207c0-0.322-0.074-0.549-0.225-0.681c-0.202-0.179-0.503-0.268-0.901-0.268
				c-0.373,0-0.648,0.065-0.825,0.195c-0.178,0.13-0.31,0.361-0.395,0.692l-0.774-0.105c0.07-0.331,0.187-0.598,0.348-0.802
				c0.161-0.203,0.395-0.36,0.7-0.47c0.305-0.11,0.658-0.165,1.061-0.165c0.398,0,0.723,0.047,0.973,0.141
				c0.249,0.094,0.433,0.211,0.55,0.354s0.199,0.321,0.246,0.538c0.026,0.135,0.04,0.378,0.04,0.729v1.054
				c0,0.735,0.017,1.2,0.051,1.395c0.033,0.195,0.1,0.381,0.2,0.56h-0.828C273.194,17.447,273.141,17.255,273.118,17.036z
				 M273.052,15.271c-0.288,0.117-0.719,0.217-1.294,0.298c-0.326,0.047-0.557,0.1-0.691,0.158s-0.239,0.145-0.313,0.257
				c-0.073,0.113-0.109,0.238-0.109,0.375c0,0.211,0.08,0.387,0.239,0.527c0.16,0.141,0.395,0.211,0.702,0.211
				c0.305,0,0.576-0.067,0.814-0.2c0.237-0.133,0.412-0.315,0.523-0.546c0.085-0.179,0.128-0.442,0.128-0.791V15.271z"/>
			<path d="M275.045,19.408l-0.088-0.742c0.173,0.047,0.324,0.07,0.453,0.07c0.177,0,0.317-0.029,0.423-0.088
				s0.192-0.141,0.26-0.246c0.05-0.079,0.13-0.275,0.242-0.588c0.015-0.044,0.038-0.108,0.07-0.193l-1.773-4.673h0.854l0.973,2.701
				c0.126,0.343,0.239,0.703,0.339,1.081c0.091-0.363,0.199-0.717,0.325-1.063l0.999-2.718h0.792l-1.777,4.743
				c-0.191,0.512-0.339,0.865-0.444,1.059c-0.142,0.26-0.303,0.452-0.484,0.573c-0.182,0.122-0.399,0.183-0.651,0.183
				C275.404,19.504,275.234,19.472,275.045,19.408z"/>
			<path d="M279.533,17.611v-6.438h0.792v6.438H279.533z"/>
			<path d="M281.567,12.082v-0.909h0.792v0.909H281.567z M281.567,17.611v-4.664h0.792v4.664H281.567z"/>
			<path d="M283.428,17.998l0.77,0.114c0.032,0.237,0.122,0.41,0.269,0.519c0.196,0.146,0.465,0.22,0.806,0.22
				c0.366,0,0.649-0.073,0.85-0.22c0.199-0.146,0.334-0.352,0.404-0.615c0.041-0.161,0.061-0.5,0.058-1.015
				c-0.347,0.407-0.777,0.61-1.294,0.61c-0.643,0-1.14-0.231-1.492-0.694c-0.352-0.463-0.528-1.018-0.528-1.665
				c0-0.445,0.081-0.856,0.242-1.232c0.161-0.376,0.396-0.667,0.702-0.872c0.307-0.205,0.667-0.307,1.08-0.307
				c0.552,0,1.007,0.222,1.364,0.667v-0.562h0.73v4.032c0,0.726-0.074,1.241-0.222,1.543c-0.148,0.303-0.383,0.542-0.704,0.718
				s-0.717,0.264-1.187,0.264c-0.558,0-1.008-0.125-1.351-0.375C283.582,18.878,283.417,18.501,283.428,17.998z M284.083,15.196
				c0,0.612,0.122,1.059,0.365,1.339c0.243,0.281,0.549,0.422,0.915,0.422c0.364,0,0.669-0.14,0.916-0.419
				c0.246-0.28,0.369-0.718,0.369-1.315c0-0.571-0.127-1.001-0.381-1.292c-0.253-0.29-0.56-0.435-0.917-0.435
				c-0.353,0-0.651,0.143-0.897,0.428C284.207,14.21,284.083,14.634,284.083,15.196z"/>
			<path d="M288.585,17.611v-6.438h0.792v2.31c0.37-0.427,0.837-0.641,1.4-0.641c0.346,0,0.646,0.068,0.901,0.204
				c0.256,0.136,0.438,0.324,0.548,0.564c0.11,0.24,0.165,0.588,0.165,1.045v2.956H291.6v-2.956c0-0.396-0.086-0.683-0.257-0.863
				c-0.172-0.18-0.415-0.27-0.729-0.27c-0.235,0-0.456,0.061-0.662,0.182c-0.207,0.122-0.354,0.286-0.442,0.494
				s-0.133,0.495-0.133,0.861v2.552H288.585z"/>
			<path d="M295.336,16.904l0.115,0.698c-0.224,0.047-0.423,0.07-0.599,0.07c-0.288,0-0.511-0.045-0.669-0.136
				c-0.159-0.091-0.271-0.21-0.335-0.358s-0.097-0.459-0.097-0.933v-2.684h-0.581v-0.615h0.581v-1.155l0.788-0.474v1.629h0.796
				v0.615h-0.796v2.728c0,0.225,0.014,0.37,0.042,0.435c0.027,0.064,0.073,0.116,0.136,0.154c0.063,0.038,0.153,0.057,0.271,0.057
				C295.077,16.935,295.193,16.925,295.336,16.904z"/>
		</g>
		<g clip-path="url(#SVGID_28_)">
			<path d="M244.106,22.169V21.26h0.792v0.909H244.106z M244.106,27.698v-4.664h0.792v4.664H244.106z"/>
			<path d="M246.095,27.698V21.26h0.792v6.438H246.095z"/>
			<path d="M248.106,27.698V21.26h0.792v6.438H248.106z"/>
			<path d="M253.199,27.698v-0.685c-0.364,0.527-0.858,0.791-1.483,0.791c-0.275,0-0.533-0.053-0.772-0.158
				s-0.416-0.238-0.532-0.397s-0.197-0.355-0.244-0.586c-0.032-0.155-0.049-0.401-0.049-0.738v-2.89h0.792v2.586
				c0,0.413,0.017,0.691,0.049,0.834c0.05,0.208,0.155,0.372,0.316,0.49c0.162,0.119,0.361,0.178,0.599,0.178
				c0.238,0,0.461-0.061,0.669-0.183c0.209-0.121,0.356-0.287,0.442-0.496c0.087-0.209,0.13-0.513,0.13-0.911v-2.499h0.792v4.664
				H253.199z"/>
			<path d="M255.04,27.698v-4.664h0.709v0.654c0.146-0.229,0.342-0.412,0.585-0.551c0.244-0.139,0.521-0.208,0.832-0.208
				c0.346,0,0.63,0.072,0.852,0.215c0.222,0.144,0.378,0.344,0.469,0.602c0.369-0.545,0.851-0.817,1.443-0.817
				c0.464,0,0.82,0.128,1.069,0.384s0.374,0.651,0.374,1.184v3.202h-0.788V24.76c0-0.316-0.025-0.544-0.077-0.683
				c-0.051-0.139-0.145-0.251-0.279-0.336s-0.293-0.127-0.475-0.127c-0.329,0-0.602,0.109-0.819,0.327
				c-0.217,0.218-0.325,0.567-0.325,1.047v2.71h-0.792v-3.03c0-0.352-0.064-0.615-0.193-0.791c-0.13-0.176-0.341-0.264-0.634-0.264
				c-0.224,0-0.43,0.059-0.618,0.176c-0.189,0.117-0.327,0.288-0.412,0.514s-0.128,0.55-0.128,0.975v2.42H255.04z"/>
			<path d="M262.587,22.169V21.26h0.792v0.909H262.587z M262.587,27.698v-4.664h0.792v4.664H262.587z"/>
			<path d="M264.594,27.698v-4.664h0.713v0.663c0.344-0.513,0.84-0.769,1.488-0.769c0.281,0,0.54,0.05,0.776,0.151
				s0.413,0.233,0.53,0.397s0.199,0.359,0.246,0.584c0.029,0.146,0.044,0.403,0.044,0.769v2.868H267.6v-2.837
				c0-0.322-0.03-0.563-0.092-0.722c-0.063-0.16-0.171-0.287-0.328-0.382s-0.341-0.143-0.553-0.143
				c-0.337,0-0.628,0.107-0.873,0.321c-0.245,0.213-0.368,0.619-0.368,1.216v2.547H264.594z"/>
			<path d="M272.548,27.123c-0.293,0.249-0.575,0.424-0.847,0.527s-0.563,0.154-0.874,0.154c-0.513,0-0.908-0.125-1.184-0.375
				s-0.414-0.57-0.414-0.96c0-0.228,0.053-0.437,0.156-0.625c0.104-0.189,0.241-0.34,0.41-0.455
				c0.168-0.114,0.358-0.201,0.569-0.259c0.155-0.041,0.391-0.081,0.704-0.119c0.64-0.076,1.11-0.167,1.413-0.272
				c0.003-0.108,0.004-0.177,0.004-0.207c0-0.322-0.074-0.549-0.225-0.681c-0.202-0.179-0.503-0.268-0.901-0.268
				c-0.373,0-0.648,0.065-0.825,0.195c-0.178,0.13-0.31,0.361-0.395,0.692l-0.774-0.105c0.07-0.331,0.187-0.598,0.348-0.802
				c0.161-0.203,0.395-0.36,0.7-0.47c0.305-0.11,0.658-0.165,1.061-0.165c0.398,0,0.723,0.047,0.973,0.141
				c0.249,0.094,0.433,0.211,0.55,0.354s0.199,0.321,0.246,0.538c0.026,0.135,0.04,0.378,0.04,0.729v1.054
				c0,0.735,0.017,1.2,0.051,1.395c0.033,0.195,0.1,0.381,0.2,0.56h-0.828C272.625,27.534,272.572,27.342,272.548,27.123z
				 M272.483,25.357c-0.288,0.117-0.719,0.217-1.294,0.298c-0.326,0.047-0.557,0.1-0.691,0.158s-0.239,0.145-0.313,0.257
				c-0.073,0.113-0.109,0.238-0.109,0.375c0,0.211,0.08,0.387,0.239,0.527c0.16,0.141,0.395,0.211,0.702,0.211
				c0.305,0,0.576-0.067,0.814-0.2c0.237-0.133,0.412-0.315,0.523-0.546c0.085-0.179,0.128-0.442,0.128-0.791V25.357z"/>
			<path d="M274.511,27.698v-4.664h0.713v0.663c0.344-0.513,0.84-0.769,1.488-0.769c0.281,0,0.54,0.05,0.776,0.151
				s0.413,0.233,0.53,0.397s0.199,0.359,0.246,0.584c0.029,0.146,0.044,0.403,0.044,0.769v2.868h-0.792v-2.837
				c0-0.322-0.03-0.563-0.092-0.722c-0.063-0.16-0.171-0.287-0.328-0.382s-0.341-0.143-0.553-0.143
				c-0.337,0-0.628,0.107-0.873,0.321c-0.245,0.213-0.368,0.619-0.368,1.216v2.547H274.511z"/>
			<path d="M282.483,25.99l0.779,0.101c-0.085,0.536-0.303,0.955-0.653,1.258s-0.781,0.455-1.292,0.455
				c-0.64,0-1.153-0.208-1.542-0.626c-0.39-0.417-0.583-1.015-0.583-1.794c0-0.504,0.083-0.944,0.25-1.322
				c0.168-0.377,0.422-0.661,0.764-0.85s0.714-0.283,1.116-0.283c0.507,0,0.922,0.128,1.245,0.384
				c0.322,0.256,0.529,0.62,0.62,1.091l-0.77,0.119c-0.073-0.313-0.203-0.549-0.39-0.707c-0.187-0.158-0.412-0.237-0.676-0.237
				c-0.398,0-0.723,0.143-0.973,0.428c-0.249,0.286-0.374,0.737-0.374,1.355c0,0.626,0.12,1.082,0.361,1.366
				c0.24,0.284,0.554,0.426,0.941,0.426c0.311,0,0.57-0.095,0.779-0.286C282.295,26.678,282.427,26.385,282.483,25.99z"/>
			<path d="M287.184,26.196l0.819,0.101c-0.13,0.477-0.368,0.848-0.718,1.111c-0.349,0.264-0.795,0.396-1.338,0.396
				c-0.684,0-1.226-0.21-1.626-0.63c-0.4-0.42-0.601-1.009-0.601-1.768c0-0.785,0.202-1.394,0.607-1.827
				c0.404-0.433,0.93-0.65,1.575-0.65c0.625,0,1.136,0.212,1.531,0.637c0.396,0.424,0.595,1.022,0.595,1.792
				c0,0.047-0.002,0.117-0.005,0.211h-3.485c0.029,0.512,0.175,0.904,0.436,1.177c0.262,0.272,0.587,0.409,0.978,0.409
				c0.29,0,0.538-0.076,0.743-0.229C286.902,26.773,287.064,26.53,287.184,26.196z M284.583,24.918h2.609
				c-0.035-0.392-0.135-0.687-0.299-0.883c-0.252-0.304-0.579-0.457-0.981-0.457c-0.363,0-0.67,0.122-0.917,0.364
				C284.748,24.186,284.61,24.511,284.583,24.918z"/>
		</g>
	</g>
	
		<line clip-path="url(#SVGID_2_)" fill="none" stroke="#000000" stroke-width="0.7242" stroke-linejoin="round" stroke-miterlimit="10" x1="238.365" y1="14.144" x2="225.411" y2="11.513"/>
	<polygon clip-path="url(#SVGID_2_)" fill-rule="evenodd" clip-rule="evenodd" points="226.38,7.675 217.971,9.938 224.812,15.22 	
		"/>
</g>
<g>
</g>
<g>
</g>
</svg>
