<?xml version="1.0" encoding="utf-8"?>
<!-- Generator: Adobe Illustrator 16.0.0, SVG Export Plug-In . SVG Version: 6.00 Build 0)  -->
<!DOCTYPE svg PUBLIC "-//W3C//DTD SVG 1.1//EN" "http://www.w3.org/Graphics/SVG/1.1/DTD/svg11.dtd">
<svg version="1.1" id="Layer_1" xmlns="http://www.w3.org/2000/svg" xmlns:xlink="http://www.w3.org/1999/xlink" x="0px" y="0px"
	 width="282.382px" height="300.874px" viewBox="0 0 282.382 300.874" enable-background="new 0 0 282.382 300.874"
	 xml:space="preserve">
<g>
	<defs>
		<rect id="SVGID_1_" x="0.036" y="5.885" width="279.844" height="272.158"/>
	</defs>
	<clipPath id="SVGID_2_">
		<use xlink:href="#SVGID_1_"  overflow="visible"/>
	</clipPath>
	<g clip-path="url(#SVGID_2_)">
	</g>
	
		<rect x="122.17" y="24.869" clip-path="url(#SVGID_2_)" fill-rule="evenodd" clip-rule="evenodd" fill="#FFFFFF" width="22.786" height="8.417"/>
	
		<rect x="122.17" y="24.869" clip-path="url(#SVGID_2_)" fill="none" stroke="#000000" stroke-width="0.7235" stroke-linejoin="round" stroke-miterlimit="10" width="22.786" height="8.417"/>
	
		<rect x="119.277" y="142.616" clip-path="url(#SVGID_2_)" fill="none" stroke="#1F1A17" stroke-width="0.2412" stroke-linejoin="round" stroke-miterlimit="10" width="59.28" height="49.009"/>
	
		<rect x="119.277" y="219.989" clip-path="url(#SVGID_2_)" fill="none" stroke="#1F1A17" stroke-width="0.2412" stroke-linejoin="round" stroke-miterlimit="10" width="59.28" height="48.768"/>
	<g clip-path="url(#SVGID_2_)">
		<defs>
			<rect id="SVGID_3_" x="132.236" y="157.979" width="37.437" height="27.641"/>
		</defs>
		<clipPath id="SVGID_4_">
			<use xlink:href="#SVGID_3_"  overflow="visible"/>
		</clipPath>
		<g clip-path="url(#SVGID_4_)">
			<defs>
				<rect id="SVGID_5_" x="132.236" y="157.979" width="37.195" height="27.641"/>
			</defs>
			<clipPath id="SVGID_6_">
				<use xlink:href="#SVGID_5_"  overflow="visible"/>
			</clipPath>
			<g clip-path="url(#SVGID_6_)">
				<path d="M134.707,164.546h3.698v-2.273c0-0.406-0.025-0.674-0.076-0.803c-0.04-0.098-0.122-0.182-0.247-0.252
					c-0.168-0.094-0.346-0.141-0.534-0.141h-0.282v-0.217h3.404v0.217h-0.282c-0.188,0-0.366,0.045-0.534,0.135
					c-0.125,0.063-0.21,0.157-0.255,0.284s-0.067,0.386-0.067,0.776v5.127c0,0.402,0.025,0.668,0.076,0.797
					c0.039,0.098,0.119,0.182,0.241,0.252c0.172,0.094,0.352,0.141,0.54,0.141h0.282v0.217h-3.404v-0.217h0.282
					c0.325,0,0.562-0.096,0.71-0.287c0.098-0.125,0.147-0.426,0.147-0.902v-2.42h-3.698v2.42c0,0.402,0.025,0.668,0.077,0.797
					c0.039,0.098,0.121,0.182,0.246,0.252c0.168,0.094,0.347,0.141,0.534,0.141h0.288v0.217h-3.41v-0.217h0.282
					c0.329,0,0.567-0.096,0.716-0.287c0.094-0.125,0.141-0.426,0.141-0.902v-5.127c0-0.406-0.026-0.674-0.077-0.803
					c-0.039-0.098-0.119-0.182-0.241-0.252c-0.172-0.094-0.352-0.141-0.54-0.141h-0.282v-0.217h3.41v0.217h-0.288
					c-0.188,0-0.366,0.045-0.534,0.135c-0.121,0.063-0.205,0.157-0.252,0.284c-0.047,0.127-0.071,0.386-0.071,0.776V164.546z"/>
				<path d="M142.16,165.46c-0.004,0.797,0.19,1.422,0.581,1.875s0.851,0.68,1.379,0.68c0.352,0,0.658-0.097,0.918-0.29
					s0.479-0.524,0.654-0.993l0.182,0.117c-0.082,0.535-0.321,1.022-0.716,1.462c-0.395,0.439-0.89,0.659-1.485,0.659
					c-0.646,0-1.198-0.251-1.658-0.753c-0.46-0.502-0.689-1.177-0.689-2.024c0-0.918,0.235-1.634,0.707-2.147
					c0.471-0.514,1.063-0.771,1.775-0.771c0.603,0,1.098,0.198,1.485,0.595s0.581,0.927,0.581,1.591H142.16z M142.16,165.121h2.489
					c-0.02-0.344-0.061-0.586-0.124-0.727c-0.098-0.219-0.243-0.391-0.437-0.516s-0.396-0.188-0.607-0.188
					c-0.325,0-0.615,0.126-0.872,0.378S142.203,164.671,142.16,165.121z"/>
				<path d="M149.602,168.033c-0.552,0.426-0.898,0.672-1.039,0.738c-0.211,0.098-0.437,0.146-0.675,0.146
					c-0.372,0-0.678-0.127-0.918-0.381c-0.241-0.254-0.361-0.588-0.361-1.002c0-0.262,0.059-0.488,0.176-0.68
					c0.161-0.266,0.439-0.516,0.836-0.75c0.397-0.234,1.057-0.52,1.981-0.855v-0.211c0-0.535-0.085-0.902-0.255-1.102
					c-0.17-0.199-0.418-0.299-0.743-0.299c-0.247,0-0.442,0.066-0.587,0.199c-0.148,0.133-0.223,0.285-0.223,0.457l0.012,0.34
					c0,0.18-0.046,0.318-0.138,0.416s-0.212,0.146-0.361,0.146c-0.145,0-0.263-0.051-0.355-0.152
					c-0.092-0.102-0.138-0.24-0.138-0.416c0-0.336,0.172-0.645,0.517-0.926s0.828-0.422,1.45-0.422c0.477,0,0.869,0.08,1.174,0.24
					c0.23,0.121,0.401,0.311,0.51,0.568c0.071,0.168,0.106,0.512,0.106,1.031v1.822c0,0.512,0.01,0.825,0.029,0.94
					s0.052,0.192,0.097,0.231s0.097,0.059,0.156,0.059c0.063,0,0.117-0.014,0.164-0.041c0.083-0.051,0.241-0.193,0.476-0.428v0.328
					c-0.438,0.586-0.857,0.879-1.256,0.879c-0.192,0-0.345-0.066-0.458-0.199S149.605,168.353,149.602,168.033z M149.602,167.652
					v-2.045c-0.591,0.234-0.973,0.4-1.145,0.498c-0.309,0.172-0.53,0.352-0.664,0.539c-0.133,0.188-0.199,0.393-0.199,0.615
					c0,0.281,0.084,0.515,0.252,0.7c0.168,0.186,0.362,0.278,0.581,0.278C148.725,168.238,149.116,168.042,149.602,167.652z"/>
				<path d="M153.416,161.675v1.764h1.256v0.41h-1.256v3.48c0,0.348,0.05,0.582,0.149,0.703s0.228,0.182,0.384,0.182
					c0.129,0,0.254-0.04,0.376-0.12c0.121-0.08,0.215-0.198,0.282-0.354h0.229c-0.137,0.383-0.331,0.671-0.581,0.864
					s-0.508,0.29-0.774,0.29c-0.18,0-0.356-0.05-0.528-0.149s-0.299-0.242-0.381-0.428c-0.083-0.186-0.124-0.472-0.124-0.858v-3.609
					h-0.851v-0.193c0.215-0.086,0.436-0.231,0.661-0.437c0.225-0.205,0.425-0.448,0.602-0.729c0.09-0.148,0.215-0.42,0.375-0.814
					H153.416z"/>
			</g>
		</g>
		<g clip-path="url(#SVGID_4_)">
			<defs>
				<rect id="SVGID_7_" x="132.236" y="157.979" width="37.195" height="27.641"/>
			</defs>
			<clipPath id="SVGID_8_">
				<use xlink:href="#SVGID_7_"  overflow="visible"/>
			</clipPath>
			<g clip-path="url(#SVGID_8_)">
				<path d="M134.701,179.029v2.314c0,0.5,0.055,0.811,0.165,0.932c0.148,0.172,0.374,0.258,0.675,0.258h0.305v0.217h-3.41v-0.217
					h0.299c0.336,0,0.577-0.109,0.722-0.328c0.078-0.121,0.118-0.408,0.118-0.861v-5.133c0-0.5-0.053-0.811-0.159-0.932
					c-0.153-0.172-0.379-0.258-0.681-0.258h-0.299v-0.217h2.917c0.712,0,1.273,0.073,1.684,0.22
					c0.411,0.146,0.757,0.394,1.039,0.741s0.422,0.76,0.422,1.236c0,0.648-0.214,1.176-0.643,1.582s-1.034,0.609-1.816,0.609
					c-0.192,0-0.399-0.014-0.622-0.041S134.956,179.083,134.701,179.029z M134.701,178.695c0.208,0.039,0.392,0.068,0.552,0.088
					c0.161,0.02,0.297,0.029,0.411,0.029c0.407,0,0.758-0.157,1.053-0.472s0.443-0.722,0.443-1.222c0-0.344-0.071-0.663-0.211-0.958
					c-0.141-0.295-0.34-0.516-0.599-0.662s-0.552-0.22-0.88-0.22c-0.2,0-0.456,0.037-0.769,0.111V178.695z"/>
				<path d="M144.01,177.382v3.252c0,0.621,0.015,1.001,0.044,1.14s0.077,0.235,0.141,0.29s0.14,0.082,0.226,0.082
					c0.121,0,0.258-0.033,0.411-0.1l0.082,0.205l-1.608,0.662h-0.264v-1.137c-0.462,0.5-0.814,0.814-1.057,0.943
					s-0.499,0.193-0.769,0.193c-0.301,0-0.563-0.087-0.784-0.261s-0.375-0.397-0.46-0.671c-0.086-0.273-0.129-0.66-0.129-1.16
					v-2.396c0-0.254-0.027-0.43-0.082-0.527s-0.136-0.173-0.244-0.226s-0.302-0.077-0.584-0.073v-0.217h1.884v3.592
					c0,0.5,0.087,0.828,0.261,0.984c0.174,0.156,0.385,0.234,0.631,0.234c0.168,0,0.359-0.053,0.572-0.158
					c0.213-0.105,0.467-0.307,0.76-0.604v-3.041c0-0.305-0.056-0.511-0.167-0.618c-0.111-0.107-0.343-0.165-0.695-0.173v-0.217
					H144.01z"/>
				<path d="M146.903,178.367c0.391-0.391,0.622-0.615,0.692-0.674c0.176-0.148,0.366-0.264,0.569-0.346s0.405-0.123,0.604-0.123
					c0.336,0,0.626,0.098,0.869,0.293s0.405,0.479,0.487,0.85c0.403-0.469,0.743-0.776,1.021-0.923s0.563-0.22,0.857-0.22
					c0.286,0,0.539,0.073,0.76,0.22c0.221,0.146,0.396,0.386,0.525,0.718c0.086,0.227,0.129,0.582,0.129,1.066v2.309
					c0,0.336,0.025,0.566,0.076,0.691c0.039,0.086,0.111,0.159,0.217,0.22c0.105,0.061,0.278,0.091,0.516,0.091v0.211h-2.653v-0.211
					h0.112c0.231,0,0.411-0.045,0.54-0.135c0.09-0.063,0.154-0.162,0.193-0.299c0.016-0.066,0.023-0.256,0.023-0.568v-2.309
					c0-0.438-0.053-0.746-0.158-0.926c-0.153-0.25-0.397-0.375-0.734-0.375c-0.207,0-0.416,0.052-0.625,0.155
					c-0.209,0.104-0.462,0.296-0.76,0.577l-0.012,0.064l0.012,0.252v2.561c0,0.367,0.021,0.596,0.062,0.686s0.118,0.165,0.232,0.226
					c0.113,0.061,0.307,0.091,0.581,0.091v0.211h-2.718v-0.211c0.297,0,0.502-0.035,0.614-0.105c0.111-0.07,0.188-0.176,0.231-0.316
					c0.02-0.066,0.029-0.26,0.029-0.58v-2.309c0-0.438-0.064-0.752-0.193-0.943c-0.172-0.25-0.413-0.375-0.722-0.375
					c-0.211,0-0.42,0.057-0.628,0.17c-0.325,0.172-0.575,0.365-0.751,0.58v2.877c0,0.352,0.024,0.58,0.073,0.686
					s0.121,0.185,0.217,0.237c0.096,0.053,0.291,0.079,0.584,0.079v0.211h-2.659v-0.211c0.246,0,0.418-0.026,0.516-0.079
					c0.098-0.053,0.172-0.137,0.223-0.252s0.076-0.339,0.076-0.671v-2.051c0-0.59-0.018-0.971-0.053-1.143
					c-0.027-0.129-0.07-0.218-0.129-0.267s-0.139-0.073-0.241-0.073c-0.109,0-0.241,0.029-0.393,0.088l-0.088-0.211l1.62-0.656
					h0.252V178.367z"/>
				<path d="M153.836,177.916l1.655-0.668h0.223v1.254c0.278-0.473,0.557-0.804,0.836-0.993s0.574-0.284,0.883-0.284
					c0.54,0,0.99,0.211,1.35,0.633c0.442,0.516,0.663,1.188,0.663,2.016c0,0.926-0.266,1.691-0.798,2.297
					c-0.438,0.496-0.99,0.744-1.655,0.744c-0.29,0-0.54-0.041-0.751-0.123c-0.156-0.059-0.333-0.176-0.528-0.352v1.635
					c0,0.367,0.022,0.601,0.068,0.7c0.045,0.1,0.123,0.179,0.234,0.237c0.112,0.059,0.314,0.088,0.607,0.088v0.217h-2.817v-0.217
					h0.146c0.215,0.004,0.399-0.037,0.552-0.123c0.074-0.043,0.132-0.112,0.173-0.208s0.062-0.339,0.062-0.729v-5.074
					c0-0.348-0.016-0.568-0.047-0.662s-0.082-0.164-0.15-0.211s-0.161-0.07-0.279-0.07c-0.094,0-0.213,0.027-0.358,0.082
					L153.836,177.916z M155.714,178.847v2.004c0,0.434,0.018,0.719,0.053,0.855c0.055,0.227,0.189,0.426,0.402,0.598
					s0.482,0.258,0.807,0.258c0.391,0,0.708-0.152,0.951-0.457c0.317-0.398,0.475-0.959,0.475-1.682c0-0.82-0.18-1.451-0.54-1.893
					c-0.25-0.305-0.548-0.457-0.892-0.457c-0.188,0-0.374,0.047-0.558,0.141C156.271,178.285,156.039,178.496,155.714,178.847z"/>
			</g>
		</g>
		<g clip-path="url(#SVGID_4_)">
			<defs>
				<rect id="SVGID_9_" x="132.236" y="157.979" width="37.195" height="27.641"/>
			</defs>
			<clipPath id="SVGID_10_">
				<use xlink:href="#SVGID_9_"  overflow="visible"/>
			</clipPath>
			<g clip-path="url(#SVGID_10_)">
			</g>
		</g>
	</g>
	
		<rect x="96.005" y="0.121" clip-path="url(#SVGID_2_)" fill="none" stroke="#C3C3C2" stroke-width="0.2412" stroke-linejoin="round" stroke-miterlimit="10" width="99.323" height="57.668"/>
	
		<line clip-path="url(#SVGID_2_)" fill="none" stroke="#1F1A17" stroke-width="0.2412" stroke-linejoin="round" stroke-miterlimit="10" x1="96.138" y1="29.322" x2="116.773" y2="29.561"/>
	
		<polyline clip-path="url(#SVGID_2_)" fill="none" stroke="#1F1A17" stroke-width="0.2412" stroke-linejoin="round" stroke-miterlimit="10" points="
		147.022,30.278 275.86,30.278 275.86,82.909 	"/>
	
		<polyline clip-path="url(#SVGID_2_)" fill="none" stroke="#1F1A17" stroke-width="0.2412" stroke-linejoin="round" stroke-miterlimit="10" points="
		100.94,29.322 3.282,29.322 3.282,71.624 	"/>
	
		<line clip-path="url(#SVGID_2_)" fill="none" stroke="#1F1A17" stroke-width="0.2412" stroke-linejoin="round" stroke-miterlimit="10" x1="4.006" y1="90.12" x2="4.006" y2="186.717"/>
	
		<line clip-path="url(#SVGID_2_)" fill="none" stroke="#1F1A17" stroke-width="0.2412" stroke-linejoin="round" stroke-miterlimit="10" x1="276.319" y1="97.57" x2="276.319" y2="188.405"/>
	
		<line clip-path="url(#SVGID_2_)" fill="none" stroke="#1F1A17" stroke-width="0.2412" stroke-linejoin="round" stroke-miterlimit="10" x1="4.006" y1="165.809" x2="118.219" y2="165.809"/>
	
		<line clip-path="url(#SVGID_2_)" fill="none" stroke="#1F1A17" stroke-width="0.2412" stroke-linejoin="round" stroke-miterlimit="10" x1="179.167" y1="164.146" x2="278.254" y2="164.146"/>
	
		<line clip-path="url(#SVGID_2_)" fill="none" stroke="#1F1A17" stroke-width="0.2412" stroke-linejoin="round" stroke-miterlimit="10" x1="4.006" y1="246.797" x2="120.135" y2="246.797"/>
	
		<line clip-path="url(#SVGID_2_)" fill="none" stroke="#1F1A17" stroke-width="0.2412" stroke-linejoin="round" stroke-miterlimit="10" x1="179.865" y1="244.868" x2="276.808" y2="245.109"/>
	<polygon clip-path="url(#SVGID_2_)" fill-rule="evenodd" clip-rule="evenodd" fill="#1F1A17" points="275.95,100.07 
		276.189,100.07 276.429,100.07 276.668,100.07 276.908,100.07 277.157,99.832 277.397,99.832 277.397,99.612 277.636,99.612 
		277.875,99.373 277.875,99.134 278.115,99.134 278.115,98.885 278.115,98.646 278.365,98.407 278.365,98.168 278.365,97.919 
		278.365,97.68 278.365,97.441 278.115,97.441 278.115,97.202 278.115,96.963 277.875,96.714 277.875,96.475 277.636,96.475 
		277.397,96.236 277.157,95.997 276.908,95.997 276.668,95.997 276.429,95.757 276.189,95.757 275.95,95.757 275.701,95.757 
		275.491,95.997 275.242,95.997 275.002,95.997 274.763,96.236 274.523,96.236 274.523,96.475 274.284,96.475 274.284,96.714 
		274.044,96.963 274.044,97.202 273.795,97.441 273.795,97.68 273.795,97.919 273.795,98.168 273.795,98.407 273.795,98.646 
		274.044,98.885 274.044,99.134 274.284,99.134 274.284,99.373 274.523,99.612 274.763,99.832 275.002,99.832 275.242,100.07 
		275.491,100.07 275.701,100.07 	"/>
	
		<polyline clip-path="url(#SVGID_2_)" fill="none" stroke="#1F1A17" stroke-width="0.2412" stroke-linejoin="round" stroke-miterlimit="10" points="
		276.319,100.439 276.558,100.439 276.808,100.439 277.047,100.439 277.287,100.439 277.526,100.2 277.766,100.2 277.766,99.981 
		278.015,99.981 278.254,99.742 278.254,99.502 278.494,99.502 278.494,99.264 278.494,99.024 278.734,98.775 278.734,98.537 
		278.734,98.297 278.734,98.059 278.734,97.819 278.494,97.819 278.494,97.57 278.494,97.332 278.254,97.092 278.254,96.853 
		278.015,96.853 277.766,96.604 277.526,96.365 277.287,96.365 277.047,96.365 276.808,96.126 276.558,96.126 276.319,96.126 
		276.08,96.126 275.86,96.365 275.621,96.365 275.381,96.365 275.142,96.604 274.892,96.604 274.892,96.853 274.653,96.853 
		274.653,97.092 274.414,97.332 274.414,97.57 274.174,97.819 274.174,98.059 274.174,98.297 274.174,98.537 274.174,98.775 
		274.174,99.024 274.414,99.264 274.414,99.502 274.653,99.502 274.653,99.742 274.892,99.981 275.142,100.2 275.381,100.2 
		275.621,100.439 275.86,100.439 276.08,100.439 276.319,100.439 	"/>
	<polygon clip-path="url(#SVGID_2_)" fill-rule="evenodd" clip-rule="evenodd" fill="#1F1A17" points="275.491,83.984 
		275.701,83.984 275.95,83.984 276.189,83.984 276.429,83.745 276.668,83.745 276.908,83.745 276.908,83.497 277.157,83.257 
		277.397,83.018 277.636,82.779 277.636,82.54 277.636,82.291 277.875,82.052 277.875,81.813 277.875,81.574 277.636,81.325 
		277.636,81.086 277.636,80.847 277.397,80.608 277.157,80.389 276.908,80.149 276.908,79.911 276.668,79.911 276.429,79.911 
		276.189,79.662 275.95,79.662 275.701,79.662 275.491,79.662 275.242,79.662 275.002,79.662 274.763,79.911 274.523,79.911 
		274.284,79.911 274.044,80.149 274.044,80.389 273.795,80.389 273.795,80.608 273.555,80.847 273.316,81.086 273.316,81.325 
		273.316,81.574 273.316,81.813 273.316,82.052 273.316,82.291 273.316,82.54 273.555,82.779 273.795,83.018 273.795,83.257 
		274.044,83.257 274.044,83.497 274.284,83.745 274.523,83.745 274.763,83.745 275.002,83.984 275.242,83.984 	"/>
	
		<polyline clip-path="url(#SVGID_2_)" fill="none" stroke="#1F1A17" stroke-width="0.2412" stroke-linejoin="round" stroke-miterlimit="10" points="
		275.86,84.353 276.08,84.353 276.319,84.353 276.558,84.353 276.808,84.114 277.047,84.114 277.287,84.114 277.287,83.875 
		277.526,83.636 277.766,83.397 278.015,83.148 278.015,82.909 278.015,82.669 278.254,82.431 278.254,82.182 278.254,81.942 
		278.015,81.704 278.015,81.464 278.015,81.225 277.766,80.976 277.526,80.767 277.287,80.518 277.287,80.279 277.047,80.279 
		276.808,80.279 276.558,80.04 276.319,80.04 276.08,80.04 275.86,80.04 275.621,80.04 275.381,80.04 275.142,80.279 
		274.892,80.279 274.653,80.279 274.414,80.518 274.414,80.767 274.174,80.767 274.174,80.976 273.935,81.225 273.685,81.464 
		273.685,81.704 273.685,81.942 273.685,82.182 273.685,82.431 273.685,82.669 273.685,82.909 273.935,83.148 274.174,83.397 
		274.174,83.636 274.414,83.636 274.414,83.875 274.653,84.114 274.892,84.114 275.142,84.114 275.381,84.353 275.621,84.353 
		275.86,84.353 	"/>
	<polygon clip-path="url(#SVGID_2_)" fill-rule="evenodd" clip-rule="evenodd" fill="#1F1A17" points="3.391,71.733 3.632,71.733 
		3.874,71.733 4.115,71.494 4.356,71.494 4.598,71.494 4.839,71.245 4.839,71.006 5.081,71.006 5.081,70.767 5.322,70.528 
		5.322,70.279 5.563,70.04 5.563,69.801 5.563,69.562 5.563,69.323 5.563,69.074 5.322,68.834 5.322,68.596 5.081,68.356 
		5.081,68.118 4.839,68.118 4.839,67.869 4.598,67.629 4.356,67.629 4.115,67.629 3.874,67.41 3.632,67.41 3.391,67.41 3.15,67.41 
		2.908,67.41 2.667,67.41 2.426,67.629 2.184,67.629 1.967,67.629 1.967,67.869 1.726,68.118 1.484,68.118 1.484,68.356 
		1.243,68.596 1.243,68.834 1.001,69.074 1.001,69.323 1.001,69.562 1.001,69.801 1.001,70.04 1.243,70.279 1.243,70.528 
		1.484,70.767 1.484,71.006 1.726,71.006 1.967,71.245 1.967,71.494 2.184,71.494 2.426,71.494 2.667,71.733 2.908,71.733 
		3.15,71.733 	"/>
	
		<polyline clip-path="url(#SVGID_2_)" fill="none" stroke="#1F1A17" stroke-width="0.2412" stroke-linejoin="round" stroke-miterlimit="10" points="
		3.765,72.102 4.006,72.102 4.248,72.102 4.489,71.863 4.73,71.863 4.972,71.863 5.213,71.624 5.213,71.384 5.455,71.384 
		5.455,71.135 5.696,70.896 5.696,70.657 5.938,70.418 5.938,70.179 5.938,69.93 5.938,69.691 5.938,69.452 5.696,69.213 
		5.696,68.964 5.455,68.725 5.455,68.486 5.213,68.486 5.213,68.247 4.972,68.008 4.73,68.008 4.489,68.008 4.248,67.789 
		4.006,67.789 3.765,67.789 3.524,67.789 3.282,67.789 3.041,67.789 2.8,68.008 2.559,68.008 2.341,68.008 2.341,68.247 2.1,68.486 
		1.858,68.486 1.858,68.725 1.617,68.964 1.617,69.213 1.375,69.452 1.375,69.691 1.375,69.93 1.375,70.179 1.375,70.418 
		1.617,70.657 1.617,70.896 1.858,71.135 1.858,71.384 2.1,71.384 2.341,71.624 2.341,71.863 2.559,71.863 2.8,71.863 3.041,72.102 
		3.282,72.102 3.524,72.102 3.765,72.102 	"/>
	<polygon clip-path="url(#SVGID_2_)" fill-rule="evenodd" clip-rule="evenodd" fill="#1F1A17" points="3.874,92.879 4.115,92.879 
		4.356,92.64 4.598,92.64 4.839,92.64 5.081,92.64 5.322,92.401 5.563,92.162 5.805,91.923 6.046,91.674 6.046,91.435 6.046,91.196 
		6.263,90.957 6.263,90.708 6.263,90.469 6.263,90.229 6.046,89.991 6.046,89.751 6.046,89.502 5.805,89.263 5.563,89.024 
		5.322,88.785 5.081,88.536 4.839,88.536 4.598,88.536 4.356,88.536 4.115,88.297 3.874,88.297 3.632,88.536 3.391,88.536 
		3.15,88.536 2.908,88.536 2.667,88.785 2.426,88.785 2.426,89.024 2.184,89.263 1.967,89.502 1.967,89.751 1.967,89.991 
		1.726,90.229 1.726,90.469 1.726,90.708 1.726,90.957 1.967,91.196 1.967,91.435 1.967,91.674 2.184,91.923 2.426,92.162 
		2.426,92.401 2.667,92.401 2.908,92.64 3.15,92.64 3.391,92.64 3.632,92.64 	"/>
	
		<polyline clip-path="url(#SVGID_2_)" fill="none" stroke="#1F1A17" stroke-width="0.2412" stroke-linejoin="round" stroke-miterlimit="10" points="
		4.248,93.257 4.489,93.257 4.73,93.019 4.972,93.019 5.213,93.019 5.455,93.019 5.696,92.77 5.938,92.53 6.179,92.292 6.42,92.052 
		6.42,91.813 6.42,91.564 6.638,91.325 6.638,91.086 6.638,90.847 6.638,90.608 6.42,90.359 6.42,90.12 6.42,89.881 6.179,89.642 
		5.938,89.393 5.696,89.154 5.455,88.915 5.213,88.915 4.972,88.915 4.73,88.915 4.489,88.676 4.248,88.676 4.006,88.915 
		3.765,88.915 3.524,88.915 3.282,88.915 3.041,89.154 2.8,89.154 2.8,89.393 2.559,89.642 2.341,89.881 2.341,90.12 2.341,90.359 
		2.1,90.608 2.1,90.847 2.1,91.086 2.1,91.325 2.341,91.564 2.341,91.813 2.341,92.052 2.559,92.292 2.8,92.53 2.8,92.77 
		3.041,92.77 3.282,93.019 3.524,93.019 3.765,93.019 4.006,93.019 4.248,93.257 	"/>
	<g clip-path="url(#SVGID_2_)">
		<defs>
			<rect id="SVGID_11_" x="113.77" y="5.888" width="62.612" height="15.147"/>
		</defs>
		<clipPath id="SVGID_12_">
			<use xlink:href="#SVGID_11_"  overflow="visible"/>
		</clipPath>
		<g clip-path="url(#SVGID_12_)">
			<defs>
				<rect id="SVGID_13_" x="113.77" y="5.888" width="62.37" height="15.147"/>
			</defs>
			<clipPath id="SVGID_14_">
				<use xlink:href="#SVGID_13_"  overflow="visible"/>
			</clipPath>
			<g clip-path="url(#SVGID_14_)">
				<path fill="#1F1A17" d="M118.724,13.799v-1.008l3.645-0.006v3.188c-0.56,0.445-1.137,0.78-1.731,1.005s-1.205,0.337-1.831,0.337
					c-0.845,0-1.613-0.181-2.304-0.542s-1.212-0.884-1.564-1.567s-0.528-1.447-0.528-2.291c0-0.836,0.175-1.616,0.525-2.341
					s0.854-1.263,1.511-1.614s1.415-0.527,2.271-0.527c0.622,0,1.185,0.101,1.687,0.302c0.503,0.201,0.897,0.481,1.183,0.841
					s0.503,0.828,0.652,1.406l-1.027,0.281c-0.129-0.438-0.29-0.781-0.481-1.031c-0.192-0.25-0.466-0.45-0.822-0.601
					s-0.751-0.226-1.186-0.226c-0.521,0-0.971,0.079-1.35,0.237s-0.686,0.366-0.918,0.624s-0.414,0.541-0.543,0.85
					c-0.219,0.531-0.329,1.107-0.329,1.729c0,0.766,0.132,1.406,0.396,1.922c0.264,0.516,0.649,0.898,1.153,1.148
					c0.505,0.25,1.041,0.375,1.608,0.375c0.493,0,0.974-0.095,1.444-0.284c0.469-0.189,0.825-0.392,1.068-0.606v-1.6H118.724z"/>
				<path fill="#1F1A17" d="M123.9,17.168v-6.223h0.951v0.943c0.243-0.441,0.466-0.732,0.672-0.873s0.432-0.211,0.678-0.211
					c0.356,0,0.718,0.113,1.086,0.34l-0.364,0.979c-0.258-0.152-0.517-0.229-0.775-0.229c-0.231,0-0.438,0.069-0.622,0.208
					s-0.315,0.331-0.393,0.577c-0.118,0.375-0.176,0.785-0.176,1.23v3.258H123.9z"/>
				<path fill="#1F1A17" d="M127.975,17.168v-6.223h0.951v0.885c0.458-0.684,1.119-1.025,1.984-1.025
					c0.375,0,0.721,0.067,1.036,0.202s0.551,0.312,0.708,0.53c0.156,0.219,0.266,0.479,0.329,0.779
					c0.039,0.195,0.059,0.537,0.059,1.025v3.826h-1.057v-3.785c0-0.43-0.041-0.751-0.123-0.964s-0.228-0.383-0.438-0.51
					c-0.209-0.127-0.455-0.19-0.736-0.19c-0.45,0-0.838,0.143-1.165,0.428s-0.49,0.826-0.49,1.623v3.398H127.975z"/>
				<path fill="#1F1A17" d="M138.703,17.168v-0.785c-0.395,0.617-0.976,0.926-1.743,0.926c-0.497,0-0.954-0.137-1.37-0.41
					c-0.417-0.273-0.74-0.655-0.968-1.146c-0.229-0.49-0.344-1.054-0.344-1.69c0-0.621,0.104-1.185,0.311-1.69
					c0.208-0.506,0.519-0.894,0.934-1.163c0.415-0.27,0.878-0.404,1.391-0.404c0.376,0,0.71,0.079,1.004,0.237
					s0.532,0.364,0.716,0.618V8.579h1.051v8.59H138.703z M135.364,14.063c0,0.797,0.168,1.393,0.505,1.787s0.733,0.592,1.191,0.592
					c0.461,0,0.854-0.188,1.177-0.565s0.484-0.952,0.484-1.726c0-0.852-0.164-1.477-0.493-1.875s-0.734-0.598-1.215-0.598
					c-0.47,0-0.862,0.191-1.177,0.574S135.364,13.239,135.364,14.063z"/>
				<path fill="#1F1A17" d="M144.878,17.168v-8.59h1.139v3.527h4.472V8.579h1.139v8.59h-1.139V13.12h-4.472v4.049H144.878z"/>
				<path fill="#1F1A17" d="M152.648,17.168l3.328-4.477l-2.934-4.113h1.355l1.561,2.203c0.325,0.457,0.556,0.809,0.693,1.055
					c0.191-0.313,0.418-0.639,0.681-0.979l1.731-2.279h1.238l-3.022,4.049l3.257,4.541h-1.409l-2.166-3.064
					c-0.122-0.176-0.247-0.367-0.375-0.574c-0.192,0.313-0.329,0.527-0.411,0.645l-2.16,2.994H152.648z"/>
			</g>
		</g>
		<g clip-path="url(#SVGID_12_)">
			<defs>
				<rect id="SVGID_15_" x="113.77" y="5.888" width="62.37" height="15.147"/>
			</defs>
			<clipPath id="SVGID_16_">
				<use xlink:href="#SVGID_15_"  overflow="visible"/>
			</clipPath>
			<g clip-path="url(#SVGID_16_)">
			</g>
		</g>
	</g>
	<g clip-path="url(#SVGID_2_)">
		<defs>
			<rect id="SVGID_17_" x="11.549" y="40.741" width="73.908" height="31.958"/>
		</defs>
		<clipPath id="SVGID_18_">
			<use xlink:href="#SVGID_17_"  overflow="visible"/>
		</clipPath>
		<g clip-path="url(#SVGID_18_)">
			<defs>
				<rect id="SVGID_19_" x="11.549" y="40.741" width="73.667" height="31.958"/>
			</defs>
			<clipPath id="SVGID_20_">
				<use xlink:href="#SVGID_19_"  overflow="visible"/>
			</clipPath>
			<g clip-path="url(#SVGID_20_)">
				<path fill="#1F1A17" d="M18.616,48.77l1.139,0.287c-0.239,0.934-0.668,1.646-1.289,2.136s-1.378,0.735-2.274,0.735
					c-0.927,0-1.682-0.188-2.263-0.565s-1.023-0.923-1.326-1.638c-0.304-0.715-0.455-1.482-0.455-2.303
					c0-0.895,0.171-1.675,0.514-2.341c0.342-0.666,0.83-1.172,1.461-1.518s1.327-0.519,2.086-0.519c0.861,0,1.584,0.219,2.171,0.656
					s0.996,1.053,1.227,1.846l-1.121,0.264c-0.199-0.625-0.489-1.08-0.868-1.365c-0.38-0.285-0.857-0.428-1.432-0.428
					c-0.662,0-1.214,0.158-1.658,0.475s-0.756,0.741-0.936,1.274c-0.18,0.533-0.27,1.083-0.27,1.649c0,0.73,0.106,1.368,0.32,1.913
					s0.545,0.952,0.995,1.222c0.45,0.27,0.937,0.404,1.461,0.404c0.638,0,1.178-0.184,1.62-0.551
					C18.16,50.038,18.459,49.493,18.616,48.77z"/>
				<path fill="#1F1A17" d="M20.592,48.67c0-1.152,0.321-2.006,0.963-2.561c0.536-0.461,1.189-0.691,1.96-0.691
					c0.857,0,1.557,0.28,2.101,0.841s0.816,1.335,0.816,2.323c0,0.801-0.12,1.431-0.361,1.89s-0.591,0.815-1.051,1.069
					c-0.459,0.254-0.961,0.381-1.505,0.381c-0.873,0-1.578-0.279-2.116-0.838S20.592,49.721,20.592,48.67z M21.678,48.67
					c0,0.797,0.174,1.394,0.522,1.79c0.348,0.396,0.786,0.595,1.314,0.595c0.524,0,0.96-0.199,1.309-0.598
					c0.348-0.398,0.522-1.006,0.522-1.822c0-0.77-0.175-1.353-0.525-1.749c-0.351-0.396-0.786-0.595-1.306-0.595
					c-0.528,0-0.966,0.197-1.314,0.592C21.852,47.278,21.678,47.874,21.678,48.67z"/>
				<path fill="#1F1A17" d="M27.671,51.782v-6.223h0.951v0.885c0.458-0.684,1.119-1.025,1.984-1.025
					c0.375,0,0.721,0.067,1.036,0.202s0.551,0.312,0.708,0.53c0.156,0.219,0.266,0.479,0.329,0.779
					c0.039,0.195,0.059,0.537,0.059,1.025v3.826h-1.057v-3.785c0-0.43-0.041-0.751-0.123-0.964s-0.228-0.383-0.438-0.51
					c-0.209-0.127-0.455-0.19-0.736-0.19c-0.45,0-0.838,0.143-1.165,0.428s-0.49,0.826-0.49,1.623v3.398H27.671z"/>
				<path fill="#1F1A17" d="M38.423,51.782v-0.785c-0.395,0.617-0.976,0.926-1.743,0.926c-0.497,0-0.954-0.137-1.37-0.41
					c-0.417-0.273-0.74-0.655-0.968-1.146c-0.229-0.49-0.344-1.054-0.344-1.69c0-0.621,0.104-1.185,0.311-1.69
					c0.208-0.506,0.519-0.894,0.934-1.163c0.415-0.27,0.878-0.404,1.391-0.404c0.376,0,0.71,0.079,1.004,0.237
					s0.532,0.364,0.716,0.618v-3.082h1.051v8.59H38.423z M35.084,48.676c0,0.797,0.168,1.393,0.505,1.787s0.733,0.592,1.191,0.592
					c0.461,0,0.854-0.188,1.177-0.565s0.484-0.952,0.484-1.726c0-0.852-0.164-1.477-0.493-1.875s-0.734-0.598-1.215-0.598
					c-0.47,0-0.862,0.191-1.177,0.574S35.084,47.852,35.084,48.676z"/>
				<path fill="#1F1A17" d="M44.176,49.022l1.074-0.094c0.051,0.43,0.169,0.782,0.355,1.058c0.186,0.275,0.474,0.498,0.866,0.668
					c0.391,0.17,0.831,0.255,1.32,0.255c0.435,0,0.818-0.064,1.15-0.193s0.58-0.306,0.742-0.53c0.163-0.225,0.244-0.47,0.244-0.735
					c0-0.27-0.078-0.505-0.235-0.706c-0.156-0.201-0.415-0.37-0.774-0.507c-0.231-0.09-0.742-0.229-1.532-0.419
					c-0.791-0.189-1.344-0.368-1.661-0.536c-0.411-0.215-0.717-0.481-0.918-0.8s-0.302-0.675-0.302-1.069
					c0-0.434,0.123-0.839,0.37-1.216s0.606-0.663,1.08-0.858c0.473-0.195,1-0.293,1.579-0.293c0.638,0,1.2,0.103,1.688,0.308
					s0.862,0.507,1.124,0.905c0.262,0.398,0.403,0.85,0.422,1.354l-1.092,0.082c-0.059-0.543-0.257-0.953-0.596-1.23
					s-0.838-0.416-1.5-0.416c-0.688,0-1.19,0.126-1.505,0.378s-0.472,0.556-0.472,0.911c0,0.309,0.111,0.563,0.334,0.762
					c0.219,0.199,0.791,0.403,1.717,0.612c0.925,0.209,1.56,0.392,1.904,0.548c0.501,0.23,0.871,0.522,1.109,0.876
					c0.238,0.354,0.358,0.761,0.358,1.222c0,0.457-0.131,0.888-0.393,1.292c-0.262,0.404-0.639,0.719-1.13,0.943
					c-0.491,0.225-1.044,0.337-1.658,0.337c-0.778,0-1.431-0.113-1.957-0.34c-0.526-0.227-0.939-0.567-1.239-1.022
					S44.191,49.596,44.176,49.022z"/>
				<path fill="#1F1A17" d="M56.446,51.782v-0.914c-0.485,0.703-1.144,1.055-1.978,1.055c-0.368,0-0.711-0.07-1.03-0.211
					s-0.556-0.317-0.71-0.53c-0.155-0.213-0.263-0.474-0.326-0.782c-0.043-0.207-0.064-0.535-0.064-0.984v-3.855h1.056v3.451
					c0,0.551,0.021,0.922,0.064,1.113c0.067,0.277,0.208,0.495,0.423,0.653c0.215,0.158,0.481,0.237,0.798,0.237
					c0.317,0,0.614-0.081,0.892-0.243c0.277-0.162,0.474-0.383,0.59-0.662c0.115-0.279,0.173-0.685,0.173-1.216v-3.334h1.057v6.223
					H56.446z"/>
				<path fill="#1F1A17" d="M59.046,54.167v-8.607h0.962v0.809c0.227-0.316,0.483-0.554,0.769-0.712
					c0.285-0.158,0.632-0.237,1.039-0.237c0.532,0,1.001,0.137,1.409,0.41c0.407,0.273,0.714,0.659,0.921,1.157
					s0.311,1.044,0.311,1.638c0,0.637-0.114,1.21-0.343,1.72s-0.562,0.9-0.998,1.172c-0.436,0.271-0.895,0.407-1.376,0.407
					c-0.352,0-0.668-0.074-0.948-0.223c-0.28-0.148-0.51-0.336-0.69-0.563v3.029H59.046z M60.002,48.706
					c0,0.801,0.162,1.393,0.487,1.775c0.325,0.383,0.718,0.574,1.18,0.574c0.469,0,0.872-0.198,1.206-0.595s0.501-1.011,0.501-1.843
					c0-0.793-0.163-1.387-0.49-1.781s-0.717-0.592-1.171-0.592c-0.45,0-0.848,0.21-1.194,0.63S60.002,47.905,60.002,48.706z"/>
				<path fill="#1F1A17" d="M65.755,54.167v-8.607h0.962v0.809c0.227-0.316,0.483-0.554,0.769-0.712
					c0.285-0.158,0.632-0.237,1.039-0.237c0.532,0,1.001,0.137,1.409,0.41c0.407,0.273,0.714,0.659,0.921,1.157
					s0.311,1.044,0.311,1.638c0,0.637-0.114,1.21-0.343,1.72s-0.562,0.9-0.998,1.172c-0.436,0.271-0.895,0.407-1.376,0.407
					c-0.352,0-0.668-0.074-0.948-0.223c-0.28-0.148-0.51-0.336-0.69-0.563v3.029H65.755z M66.711,48.706
					c0,0.801,0.162,1.393,0.487,1.775c0.325,0.383,0.718,0.574,1.18,0.574c0.469,0,0.872-0.198,1.206-0.595s0.501-1.011,0.501-1.843
					c0-0.793-0.163-1.387-0.49-1.781s-0.717-0.592-1.171-0.592c-0.45,0-0.848,0.21-1.194,0.63S66.711,47.905,66.711,48.706z"/>
				<path fill="#1F1A17" d="M72.417,51.782v-8.59h1.056v8.59H72.417z"/>
				<path fill="#1F1A17" d="M75.268,54.178l-0.118-0.99c0.231,0.063,0.432,0.094,0.604,0.094c0.235,0,0.423-0.039,0.563-0.117
					c0.141-0.078,0.256-0.188,0.346-0.328c0.066-0.105,0.174-0.367,0.323-0.785c0.02-0.059,0.051-0.145,0.094-0.258l-2.365-6.234
					h1.139l1.297,3.604c0.168,0.457,0.319,0.938,0.452,1.441c0.122-0.484,0.266-0.957,0.435-1.418l1.332-3.627h1.057l-2.371,6.328
					c-0.254,0.684-0.452,1.154-0.593,1.412c-0.188,0.348-0.403,0.603-0.646,0.765s-0.532,0.243-0.869,0.243
					C75.745,54.307,75.518,54.264,75.268,54.178z"/>
			</g>
		</g>
		<g clip-path="url(#SVGID_18_)">
			<defs>
				<rect id="SVGID_21_" x="11.549" y="40.741" width="73.667" height="31.958"/>
			</defs>
			<clipPath id="SVGID_22_">
				<use xlink:href="#SVGID_21_"  overflow="visible"/>
			</clipPath>
			<g clip-path="url(#SVGID_22_)">
				<path fill="#1F1A17" d="M12.089,63.445l1.074-0.094c0.051,0.43,0.169,0.782,0.355,1.058c0.186,0.275,0.474,0.498,0.866,0.668
					c0.391,0.17,0.831,0.255,1.32,0.255c0.435,0,0.818-0.064,1.15-0.193s0.58-0.306,0.742-0.53c0.163-0.225,0.244-0.47,0.244-0.735
					c0-0.27-0.078-0.505-0.235-0.706c-0.156-0.201-0.415-0.37-0.774-0.507c-0.231-0.09-0.742-0.229-1.532-0.419
					c-0.791-0.189-1.344-0.368-1.661-0.536c-0.411-0.215-0.717-0.481-0.918-0.8s-0.302-0.675-0.302-1.069
					c0-0.434,0.123-0.839,0.37-1.216s0.606-0.663,1.08-0.858c0.473-0.195,1-0.293,1.579-0.293c0.638,0,1.2,0.103,1.688,0.308
					s0.862,0.507,1.124,0.905c0.262,0.398,0.403,0.85,0.422,1.354l-1.092,0.082c-0.059-0.543-0.257-0.953-0.596-1.23
					s-0.838-0.416-1.5-0.416c-0.688,0-1.19,0.126-1.505,0.378s-0.472,0.556-0.472,0.911c0,0.309,0.111,0.563,0.334,0.762
					c0.219,0.199,0.791,0.403,1.717,0.612c0.925,0.209,1.56,0.392,1.904,0.548c0.501,0.23,0.871,0.522,1.109,0.876
					c0.238,0.354,0.358,0.761,0.358,1.222c0,0.457-0.131,0.888-0.393,1.292c-0.262,0.404-0.639,0.719-1.13,0.943
					c-0.491,0.225-1.044,0.337-1.658,0.337c-0.778,0-1.431-0.113-1.957-0.34c-0.526-0.227-0.939-0.567-1.239-1.022
					S12.105,64.019,12.089,63.445z"/>
				<path fill="#1F1A17" d="M20.281,58.828v-1.213h1.056v1.213H20.281z M20.281,66.205v-6.223h1.056v6.223H20.281z"/>
				<path fill="#1F1A17" d="M27.169,66.205v-0.785c-0.395,0.617-0.976,0.926-1.743,0.926c-0.497,0-0.954-0.137-1.37-0.41
					c-0.417-0.273-0.74-0.655-0.968-1.146c-0.229-0.49-0.344-1.054-0.344-1.69c0-0.621,0.104-1.185,0.311-1.69
					c0.208-0.506,0.519-0.894,0.934-1.163c0.415-0.27,0.878-0.404,1.391-0.404c0.376,0,0.71,0.079,1.004,0.237
					s0.532,0.364,0.716,0.618v-3.082h1.051v8.59H27.169z M23.83,63.099c0,0.797,0.168,1.393,0.505,1.787s0.733,0.592,1.191,0.592
					c0.461,0,0.854-0.188,1.177-0.565s0.484-0.952,0.484-1.726c0-0.852-0.164-1.477-0.493-1.875s-0.734-0.598-1.215-0.598
					c-0.47,0-0.862,0.191-1.177,0.574S23.83,62.275,23.83,63.099z"/>
				<path fill="#1F1A17" d="M34.077,64.201l1.092,0.135c-0.172,0.637-0.491,1.131-0.957,1.482c-0.466,0.352-1.061,0.527-1.784,0.527
					c-0.912,0-1.635-0.28-2.169-0.841s-0.801-1.347-0.801-2.358c0-1.047,0.27-1.859,0.81-2.438s1.24-0.867,2.101-0.867
					c0.833,0,1.514,0.283,2.042,0.85s0.792,1.363,0.792,2.391c0,0.063-0.002,0.156-0.006,0.281H30.55
					c0.039,0.684,0.233,1.207,0.581,1.57s0.783,0.545,1.303,0.545c0.387,0,0.718-0.102,0.992-0.305S33.917,64.646,34.077,64.201z
					 M30.608,62.496h3.48c-0.047-0.523-0.18-0.916-0.399-1.178c-0.336-0.406-0.773-0.609-1.309-0.609
					c-0.485,0-0.893,0.162-1.224,0.486S30.644,61.953,30.608,62.496z"/>
			</g>
		</g>
		<g clip-path="url(#SVGID_18_)">
			<defs>
				<rect id="SVGID_23_" x="11.549" y="40.741" width="73.667" height="31.958"/>
			</defs>
			<clipPath id="SVGID_24_">
				<use xlink:href="#SVGID_23_"  overflow="visible"/>
			</clipPath>
			<g clip-path="url(#SVGID_24_)">
			</g>
		</g>
	</g>
	<g clip-path="url(#SVGID_2_)">
		<defs>
			<rect id="SVGID_25_" x="9.642" y="117.868" width="78.204" height="34.346"/>
		</defs>
		<clipPath id="SVGID_26_">
			<use xlink:href="#SVGID_25_"  overflow="visible"/>
		</clipPath>
		<g clip-path="url(#SVGID_26_)">
			<defs>
				<rect id="SVGID_27_" x="9.643" y="117.868" width="77.962" height="34.346"/>
			</defs>
			<clipPath id="SVGID_28_">
				<use xlink:href="#SVGID_27_"  overflow="visible"/>
			</clipPath>
			<g clip-path="url(#SVGID_28_)">
				<path fill="#1F1A17" d="M16.709,125.904l1.139,0.287c-0.239,0.934-0.668,1.646-1.289,2.136s-1.378,0.735-2.274,0.735
					c-0.927,0-1.682-0.188-2.263-0.565s-1.023-0.923-1.326-1.638c-0.304-0.715-0.455-1.482-0.455-2.303
					c0-0.895,0.171-1.675,0.514-2.341c0.342-0.666,0.83-1.172,1.461-1.518s1.327-0.519,2.086-0.519c0.861,0,1.584,0.219,2.171,0.656
					s0.996,1.053,1.227,1.846l-1.121,0.264c-0.199-0.625-0.489-1.08-0.868-1.365c-0.38-0.285-0.857-0.428-1.432-0.428
					c-0.662,0-1.214,0.158-1.658,0.475s-0.756,0.741-0.936,1.274c-0.18,0.533-0.27,1.083-0.27,1.649c0,0.73,0.106,1.368,0.32,1.913
					s0.545,0.952,0.995,1.222c0.45,0.27,0.937,0.404,1.461,0.404c0.638,0,1.178-0.184,1.62-0.551
					C16.253,127.171,16.552,126.626,16.709,125.904z"/>
				<path fill="#1F1A17" d="M18.686,125.804c0-1.152,0.321-2.006,0.963-2.561c0.536-0.461,1.189-0.691,1.96-0.691
					c0.857,0,1.557,0.28,2.101,0.841s0.816,1.335,0.816,2.323c0,0.801-0.12,1.431-0.361,1.89s-0.591,0.815-1.051,1.069
					c-0.459,0.254-0.961,0.381-1.505,0.381c-0.873,0-1.578-0.279-2.116-0.838S18.686,126.855,18.686,125.804z M19.771,125.804
					c0,0.797,0.174,1.394,0.522,1.79c0.348,0.396,0.786,0.595,1.314,0.595c0.524,0,0.96-0.199,1.309-0.598
					c0.348-0.398,0.522-1.006,0.522-1.822c0-0.77-0.175-1.353-0.525-1.749c-0.351-0.396-0.786-0.595-1.306-0.595
					c-0.528,0-0.966,0.197-1.314,0.592C19.945,124.412,19.771,125.007,19.771,125.804z"/>
				<path fill="#1F1A17" d="M25.764,128.916v-6.223h0.951v0.885c0.458-0.684,1.119-1.025,1.984-1.025
					c0.375,0,0.721,0.067,1.036,0.202s0.551,0.312,0.708,0.53c0.156,0.219,0.266,0.479,0.329,0.779
					c0.039,0.195,0.059,0.537,0.059,1.025v3.826h-1.057v-3.785c0-0.43-0.041-0.751-0.123-0.964s-0.228-0.383-0.438-0.51
					c-0.209-0.127-0.455-0.19-0.736-0.19c-0.45,0-0.838,0.143-1.165,0.428s-0.49,0.826-0.49,1.623v3.398H25.764z"/>
				<path fill="#1F1A17" d="M36.517,128.916v-0.785c-0.395,0.617-0.976,0.926-1.743,0.926c-0.497,0-0.954-0.137-1.37-0.41
					c-0.417-0.273-0.74-0.655-0.968-1.146c-0.229-0.49-0.344-1.054-0.344-1.69c0-0.621,0.104-1.185,0.311-1.69
					c0.208-0.506,0.519-0.894,0.934-1.163c0.415-0.27,0.878-0.404,1.391-0.404c0.376,0,0.71,0.079,1.004,0.237
					s0.532,0.364,0.716,0.618v-3.082h1.051v8.59H36.517z M33.177,125.81c0,0.797,0.168,1.393,0.505,1.787s0.733,0.592,1.191,0.592
					c0.461,0,0.854-0.188,1.177-0.565s0.484-0.952,0.484-1.726c0-0.852-0.164-1.477-0.493-1.875s-0.734-0.598-1.215-0.598
					c-0.47,0-0.862,0.191-1.177,0.574S33.177,124.986,33.177,125.81z"/>
				<path fill="#1F1A17" d="M46.565,128.916v-0.785c-0.395,0.617-0.976,0.926-1.743,0.926c-0.497,0-0.954-0.137-1.37-0.41
					c-0.417-0.273-0.74-0.655-0.968-1.146c-0.229-0.49-0.344-1.054-0.344-1.69c0-0.621,0.104-1.185,0.311-1.69
					c0.208-0.506,0.519-0.894,0.934-1.163c0.415-0.27,0.878-0.404,1.391-0.404c0.376,0,0.71,0.079,1.004,0.237
					s0.532,0.364,0.716,0.618v-3.082h1.051v8.59H46.565z M43.226,125.81c0,0.797,0.168,1.393,0.505,1.787s0.733,0.592,1.191,0.592
					c0.461,0,0.854-0.188,1.177-0.565s0.484-0.952,0.484-1.726c0-0.852-0.164-1.477-0.493-1.875s-0.734-0.598-1.215-0.598
					c-0.47,0-0.862,0.191-1.177,0.574S43.226,124.986,43.226,125.81z"/>
				<path fill="#1F1A17" d="M53.473,126.912l1.092,0.135c-0.172,0.637-0.491,1.131-0.957,1.482
					c-0.466,0.352-1.061,0.527-1.784,0.527c-0.912,0-1.635-0.28-2.169-0.841s-0.801-1.347-0.801-2.358
					c0-1.047,0.27-1.859,0.81-2.438s1.24-0.867,2.101-0.867c0.833,0,1.514,0.283,2.042,0.85s0.792,1.363,0.792,2.391
					c0,0.063-0.002,0.156-0.006,0.281h-4.648c0.039,0.684,0.233,1.207,0.581,1.57s0.783,0.545,1.303,0.545
					c0.387,0,0.718-0.102,0.992-0.305S53.313,127.357,53.473,126.912z M50.004,125.207h3.48c-0.047-0.523-0.18-0.916-0.399-1.178
					c-0.336-0.406-0.773-0.609-1.309-0.609c-0.485,0-0.893,0.162-1.224,0.486S50.04,124.664,50.004,125.207z"/>
				<path fill="#1F1A17" d="M55.915,128.916v-6.223h0.945v0.873c0.195-0.305,0.456-0.55,0.781-0.735
					c0.325-0.186,0.694-0.278,1.109-0.278c0.462,0,0.84,0.096,1.136,0.287s0.504,0.459,0.625,0.803
					c0.493-0.727,1.135-1.09,1.925-1.09c0.618,0,1.093,0.171,1.426,0.513c0.333,0.342,0.499,0.868,0.499,1.579v4.271h-1.05v-3.92
					c0-0.422-0.035-0.726-0.103-0.911s-0.192-0.335-0.373-0.448s-0.391-0.17-0.634-0.17c-0.438,0-0.802,0.146-1.092,0.437
					s-0.434,0.757-0.434,1.397v3.615h-1.057v-4.043c0-0.469-0.086-0.82-0.258-1.055c-0.172-0.234-0.454-0.352-0.845-0.352
					c-0.297,0-0.572,0.078-0.824,0.234s-0.436,0.385-0.549,0.686c-0.114,0.301-0.17,0.734-0.17,1.301v3.229H55.915z"/>
				<path fill="#1F1A17" d="M69.586,128.148c-0.391,0.332-0.768,0.566-1.129,0.703c-0.362,0.137-0.75,0.205-1.165,0.205
					c-0.685,0-1.211-0.167-1.579-0.501s-0.552-0.761-0.552-1.28c0-0.305,0.07-0.583,0.208-0.835
					c0.139-0.252,0.321-0.454,0.546-0.606s0.479-0.268,0.76-0.346c0.207-0.055,0.52-0.107,0.939-0.158
					c0.853-0.102,1.481-0.223,1.884-0.363c0.004-0.145,0.006-0.236,0.006-0.275c0-0.43-0.1-0.732-0.299-0.908
					c-0.27-0.238-0.671-0.357-1.203-0.357c-0.497,0-0.864,0.087-1.101,0.261s-0.412,0.481-0.525,0.923l-1.033-0.141
					c0.094-0.441,0.249-0.798,0.464-1.069c0.215-0.271,0.526-0.48,0.933-0.627c0.407-0.146,0.878-0.22,1.415-0.22
					c0.532,0,0.964,0.063,1.297,0.188s0.577,0.282,0.733,0.472c0.157,0.189,0.266,0.429,0.329,0.718
					c0.035,0.18,0.053,0.504,0.053,0.973v1.406c0,0.98,0.022,1.601,0.067,1.86s0.134,0.509,0.267,0.747h-1.104
					C69.688,128.697,69.617,128.441,69.586,128.148z M69.498,125.792c-0.383,0.156-0.958,0.289-1.726,0.398
					c-0.434,0.063-0.741,0.133-0.921,0.211c-0.18,0.078-0.319,0.192-0.417,0.343c-0.098,0.15-0.147,0.317-0.147,0.501
					c0,0.281,0.107,0.516,0.32,0.703c0.213,0.188,0.525,0.281,0.937,0.281c0.407,0,0.769-0.089,1.085-0.267s0.55-0.421,0.699-0.729
					c0.113-0.238,0.17-0.59,0.17-1.055V125.792z"/>
				<path fill="#1F1A17" d="M72.204,128.916v-6.223h0.951v0.885c0.458-0.684,1.119-1.025,1.984-1.025
					c0.375,0,0.721,0.067,1.036,0.202s0.551,0.312,0.708,0.53c0.156,0.219,0.266,0.479,0.329,0.779
					c0.039,0.195,0.059,0.537,0.059,1.025v3.826h-1.057v-3.785c0-0.43-0.041-0.751-0.123-0.964s-0.228-0.383-0.438-0.51
					c-0.209-0.127-0.455-0.19-0.736-0.19c-0.45,0-0.838,0.143-1.165,0.428s-0.49,0.826-0.49,1.623v3.398H72.204z"/>
				<path fill="#1F1A17" d="M82.957,128.916v-0.785c-0.395,0.617-0.976,0.926-1.743,0.926c-0.497,0-0.954-0.137-1.37-0.41
					c-0.417-0.273-0.74-0.655-0.968-1.146c-0.229-0.49-0.344-1.054-0.344-1.69c0-0.621,0.104-1.185,0.311-1.69
					c0.208-0.506,0.519-0.894,0.934-1.163c0.415-0.27,0.878-0.404,1.391-0.404c0.376,0,0.71,0.079,1.004,0.237
					s0.532,0.364,0.716,0.618v-3.082h1.051v8.59H82.957z M79.617,125.81c0,0.797,0.168,1.393,0.505,1.787s0.733,0.592,1.191,0.592
					c0.461,0,0.854-0.188,1.177-0.565s0.484-0.952,0.484-1.726c0-0.852-0.164-1.477-0.493-1.875s-0.734-0.598-1.215-0.598
					c-0.47,0-0.862,0.191-1.177,0.574S79.617,124.986,79.617,125.81z"/>
			</g>
		</g>
		<g clip-path="url(#SVGID_26_)">
			<defs>
				<rect id="SVGID_29_" x="9.643" y="117.868" width="77.962" height="34.346"/>
			</defs>
			<clipPath id="SVGID_30_">
				<use xlink:href="#SVGID_29_"  overflow="visible"/>
			</clipPath>
			<g clip-path="url(#SVGID_30_)">
				<path fill="#1F1A17" d="M10.012,141.002l1.045-0.164c0.059,0.418,0.222,0.738,0.49,0.961s0.643,0.334,1.124,0.334
					c0.485,0,0.845-0.099,1.08-0.296s0.352-0.429,0.352-0.694c0-0.238-0.104-0.426-0.311-0.563c-0.145-0.094-0.505-0.213-1.08-0.357
					c-0.774-0.195-1.312-0.364-1.611-0.507s-0.526-0.34-0.681-0.592c-0.155-0.252-0.232-0.53-0.232-0.835
					c0-0.277,0.063-0.534,0.19-0.771c0.127-0.236,0.3-0.433,0.52-0.589c0.165-0.121,0.388-0.224,0.672-0.308
					c0.283-0.084,0.587-0.126,0.913-0.126c0.489,0,0.918,0.07,1.288,0.211s0.643,0.331,0.819,0.571
					c0.176,0.24,0.297,0.562,0.364,0.964l-1.033,0.141c-0.047-0.32-0.183-0.57-0.408-0.75s-0.543-0.27-0.954-0.27
					c-0.485,0-0.832,0.08-1.039,0.24c-0.207,0.16-0.311,0.348-0.311,0.563c0,0.137,0.043,0.26,0.129,0.369
					c0.086,0.113,0.221,0.207,0.405,0.281c0.105,0.039,0.417,0.129,0.933,0.27c0.748,0.199,1.269,0.362,1.564,0.489
					c0.295,0.127,0.527,0.312,0.695,0.554c0.168,0.242,0.252,0.543,0.252,0.902c0,0.352-0.103,0.683-0.308,0.993
					c-0.206,0.311-0.502,0.551-0.889,0.721c-0.388,0.17-0.826,0.255-1.315,0.255c-0.81,0-1.427-0.168-1.852-0.504
					C10.4,142.161,10.13,141.663,10.012,141.002z"/>
				<path fill="#1F1A17" d="M16.451,135.483v-1.213h1.056v1.213H16.451z M16.451,142.86v-6.223h1.056v6.223H16.451z"/>
				<path fill="#1F1A17" d="M23.339,142.86v-0.785c-0.395,0.617-0.976,0.926-1.743,0.926c-0.497,0-0.954-0.137-1.37-0.41
					c-0.417-0.273-0.74-0.655-0.968-1.146c-0.229-0.49-0.344-1.054-0.344-1.69c0-0.621,0.104-1.185,0.311-1.69
					c0.208-0.506,0.519-0.894,0.934-1.163c0.415-0.27,0.878-0.404,1.391-0.404c0.376,0,0.71,0.079,1.004,0.237
					s0.532,0.364,0.716,0.618v-3.082h1.051v8.59H23.339z M20,139.754c0,0.797,0.168,1.393,0.505,1.787s0.733,0.592,1.191,0.592
					c0.461,0,0.854-0.188,1.177-0.565s0.484-0.952,0.484-1.726c0-0.852-0.164-1.477-0.493-1.875s-0.734-0.598-1.215-0.598
					c-0.47,0-0.862,0.191-1.177,0.574S20,138.93,20,139.754z"/>
				<path fill="#1F1A17" d="M30.247,140.856l1.092,0.135c-0.172,0.637-0.491,1.131-0.957,1.482
					c-0.466,0.352-1.061,0.527-1.784,0.527c-0.912,0-1.635-0.28-2.169-0.841s-0.801-1.347-0.801-2.358
					c0-1.047,0.27-1.859,0.81-2.438s1.24-0.867,2.101-0.867c0.833,0,1.514,0.283,2.042,0.85s0.792,1.363,0.792,2.391
					c0,0.063-0.002,0.156-0.006,0.281H26.72c0.039,0.684,0.233,1.207,0.581,1.57s0.783,0.545,1.303,0.545
					c0.387,0,0.718-0.102,0.992-0.305S30.086,141.301,30.247,140.856z M26.778,139.151h3.48c-0.047-0.523-0.18-0.916-0.399-1.178
					c-0.336-0.406-0.773-0.609-1.309-0.609c-0.485,0-0.893,0.162-1.224,0.486S26.813,138.608,26.778,139.151z"/>
			</g>
		</g>
		<g clip-path="url(#SVGID_26_)">
			<defs>
				<rect id="SVGID_31_" x="9.643" y="117.868" width="77.962" height="34.346"/>
			</defs>
			<clipPath id="SVGID_32_">
				<use xlink:href="#SVGID_31_"  overflow="visible"/>
			</clipPath>
			<g clip-path="url(#SVGID_32_)">
			</g>
		</g>
	</g>
	<g clip-path="url(#SVGID_2_)">
		<defs>
			<rect id="SVGID_33_" x="132.715" y="237.764" width="27.83" height="13.217"/>
		</defs>
		<clipPath id="SVGID_34_">
			<use xlink:href="#SVGID_33_"  overflow="visible"/>
		</clipPath>
		<g clip-path="url(#SVGID_34_)">
			<defs>
				<rect id="SVGID_35_" x="132.715" y="237.764" width="27.588" height="13.217"/>
			</defs>
			<clipPath id="SVGID_36_">
				<use xlink:href="#SVGID_35_"  overflow="visible"/>
			</clipPath>
			<g clip-path="url(#SVGID_36_)">
				<path fill="#1F1A17" d="M132.957,248.811v-1.055l4.408-5.502c0.313-0.391,0.61-0.73,0.892-1.02h-4.801v-1.014h6.162v1.014
					l-4.83,5.959l-0.522,0.604h5.494v1.014H132.957z"/>
				<path fill="#1F1A17" d="M140.529,245.7c0-1.152,0.321-2.006,0.963-2.561c0.536-0.461,1.189-0.691,1.96-0.691
					c0.857,0,1.557,0.28,2.101,0.841s0.816,1.335,0.816,2.323c0,0.801-0.12,1.431-0.361,1.89s-0.591,0.815-1.051,1.069
					c-0.459,0.254-0.961,0.381-1.505,0.381c-0.873,0-1.578-0.279-2.116-0.838S140.529,246.75,140.529,245.7z M141.615,245.7
					c0,0.797,0.174,1.394,0.522,1.79c0.348,0.396,0.786,0.595,1.314,0.595c0.524,0,0.96-0.199,1.309-0.598
					c0.348-0.398,0.522-1.006,0.522-1.822c0-0.77-0.175-1.353-0.525-1.749c-0.351-0.396-0.786-0.595-1.306-0.595
					c-0.528,0-0.966,0.197-1.314,0.592C141.789,244.307,141.615,244.903,141.615,245.7z"/>
				<path fill="#1F1A17" d="M147.607,248.811v-6.223h0.951v0.885c0.458-0.684,1.119-1.025,1.984-1.025
					c0.375,0,0.721,0.067,1.036,0.202s0.551,0.312,0.708,0.53c0.156,0.219,0.266,0.479,0.329,0.779
					c0.039,0.195,0.059,0.537,0.059,1.025v3.826h-1.057v-3.785c0-0.43-0.041-0.751-0.123-0.964s-0.228-0.383-0.438-0.51
					c-0.209-0.127-0.455-0.19-0.736-0.19c-0.45,0-0.838,0.143-1.165,0.428s-0.49,0.826-0.49,1.623v3.398H147.607z"/>
				<path fill="#1F1A17" d="M158.583,246.807l1.092,0.135c-0.172,0.637-0.491,1.131-0.957,1.482
					c-0.466,0.352-1.061,0.527-1.784,0.527c-0.912,0-1.635-0.28-2.169-0.841s-0.801-1.347-0.801-2.358
					c0-1.047,0.27-1.859,0.81-2.438s1.24-0.867,2.101-0.867c0.833,0,1.514,0.283,2.042,0.85s0.792,1.363,0.792,2.391
					c0,0.063-0.002,0.156-0.006,0.281h-4.648c0.039,0.684,0.233,1.207,0.581,1.57s0.783,0.545,1.303,0.545
					c0.387,0,0.718-0.102,0.992-0.305S158.422,247.252,158.583,246.807z M155.114,245.102h3.48c-0.047-0.523-0.18-0.916-0.399-1.178
					c-0.336-0.406-0.773-0.609-1.309-0.609c-0.485,0-0.893,0.162-1.224,0.486S155.149,244.559,155.114,245.102z"/>
			</g>
		</g>
		<g clip-path="url(#SVGID_34_)">
			<defs>
				<rect id="SVGID_37_" x="132.715" y="237.764" width="27.588" height="13.217"/>
			</defs>
			<clipPath id="SVGID_38_">
				<use xlink:href="#SVGID_37_"  overflow="visible"/>
			</clipPath>
			<g clip-path="url(#SVGID_38_)">
			</g>
		</g>
	</g>
	
		<rect x="96.729" y="275.728" clip-path="url(#SVGID_2_)" fill="none" stroke="#FFFFFF" stroke-width="0.2412" stroke-linejoin="round" stroke-miterlimit="10" width="1.931" height="1.447"/>
	<path clip-path="url(#SVGID_2_)" fill-rule="evenodd" clip-rule="evenodd" fill="#FFFFFF" d="M116.882,29.67
		c0,2.888,2.395,5.06,5.288,5.06c3.113,0,5.507-2.171,5.507-5.06c0-2.63-2.395-4.801-5.507-4.801
		C119.277,24.869,116.882,27.041,116.882,29.67z"/>
	
		<path clip-path="url(#SVGID_2_)" fill="none" stroke="#000000" stroke-width="0.7235" stroke-linejoin="round" stroke-miterlimit="10" d="
		M116.882,29.67c0,2.888,2.395,5.06,5.288,5.06c3.113,0,5.507-2.171,5.507-5.06c0-2.63-2.395-4.801-5.507-4.801
		C119.277,24.869,116.882,27.041,116.882,29.67z"/>
	<path clip-path="url(#SVGID_2_)" fill-rule="evenodd" clip-rule="evenodd" fill="#FFFFFF" d="M138.731,28.943
		c0,2.899,2.384,5.07,5.257,5.07c3.113,0,5.527-2.171,5.527-5.07c0-2.868-2.415-5.04-5.527-5.04
		C141.116,23.903,138.731,26.075,138.731,28.943z"/>
	
		<path clip-path="url(#SVGID_2_)" fill="none" stroke="#000000" stroke-width="0.7235" stroke-linejoin="round" stroke-miterlimit="10" d="
		M138.731,28.943c0,2.899,2.384,5.07,5.257,5.07c3.113,0,5.527-2.171,5.527-5.07c0-2.868-2.415-5.04-5.527-5.04
		C141.116,23.903,138.731,26.075,138.731,28.943z"/>
	<g clip-path="url(#SVGID_2_)">
		<defs>
			<rect id="SVGID_39_" x="126.49" y="39.291" width="34.541" height="16.087"/>
		</defs>
		<clipPath id="SVGID_40_">
			<use xlink:href="#SVGID_39_"  overflow="visible"/>
		</clipPath>
		<g clip-path="url(#SVGID_40_)">
			<defs>
				<rect id="SVGID_41_" x="126.49" y="39.291" width="34.299" height="16.087"/>
			</defs>
			<clipPath id="SVGID_42_">
				<use xlink:href="#SVGID_41_"  overflow="visible"/>
			</clipPath>
			<g clip-path="url(#SVGID_42_)">
				<path d="M132.224,42.608v-0.217h2.817v0.217h-0.299c-0.313,0-0.554,0.131-0.722,0.393c-0.082,0.121-0.123,0.402-0.123,0.844
					v3.223c0,0.797-0.079,1.415-0.238,1.854c-0.158,0.439-0.469,0.816-0.933,1.131c-0.463,0.314-1.095,0.472-1.893,0.472
					c-0.869,0-1.528-0.15-1.978-0.451c-0.45-0.301-0.769-0.705-0.957-1.213c-0.125-0.348-0.188-1-0.188-1.957v-3.105
					c0-0.488-0.067-0.809-0.203-0.961c-0.135-0.152-0.353-0.229-0.654-0.229h-0.299v-0.217h3.439v0.217h-0.305
					c-0.329,0-0.563,0.104-0.705,0.311c-0.098,0.141-0.146,0.434-0.146,0.879v3.463c0,0.309,0.028,0.662,0.085,1.061
					s0.16,0.709,0.308,0.932c0.149,0.223,0.363,0.406,0.643,0.551s0.623,0.217,1.03,0.217c0.521,0,0.986-0.113,1.397-0.34
					c0.411-0.227,0.691-0.517,0.842-0.87c0.15-0.354,0.226-0.952,0.226-1.796v-3.217c0-0.496-0.055-0.807-0.164-0.932
					c-0.153-0.172-0.38-0.258-0.681-0.258H132.224z"/>
			</g>
		</g>
		<g clip-path="url(#SVGID_40_)">
			<defs>
				<rect id="SVGID_43_" x="126.49" y="39.291" width="34.299" height="16.087"/>
			</defs>
			<clipPath id="SVGID_44_">
				<use xlink:href="#SVGID_43_"  overflow="visible"/>
			</clipPath>
			<g clip-path="url(#SVGID_44_)">
				<path d="M135.597,47.202h3.034v0.885h-3.034V47.202z"/>
			</g>
		</g>
		<g clip-path="url(#SVGID_40_)">
			<defs>
				<rect id="SVGID_45_" x="126.49" y="39.291" width="34.299" height="16.087"/>
			</defs>
			<clipPath id="SVGID_46_">
				<use xlink:href="#SVGID_45_"  overflow="visible"/>
			</clipPath>
			<g clip-path="url(#SVGID_46_)">
				<path d="M141.127,43.206v1.764h1.256v0.41h-1.256v3.48c0,0.348,0.05,0.582,0.149,0.703s0.228,0.182,0.384,0.182
					c0.129,0,0.254-0.04,0.376-0.12c0.121-0.08,0.215-0.198,0.282-0.354h0.229c-0.137,0.383-0.331,0.671-0.581,0.864
					s-0.508,0.29-0.774,0.29c-0.18,0-0.356-0.05-0.528-0.149s-0.299-0.242-0.381-0.428c-0.083-0.186-0.124-0.472-0.124-0.858v-3.609
					h-0.851v-0.193c0.215-0.086,0.436-0.231,0.661-0.437c0.225-0.205,0.425-0.448,0.602-0.729c0.09-0.148,0.215-0.42,0.375-0.814
					H141.127z"/>
				<path d="M147.859,44.969v3.252c0,0.621,0.015,1.001,0.044,1.14s0.077,0.235,0.141,0.29s0.14,0.082,0.226,0.082
					c0.121,0,0.258-0.033,0.411-0.1l0.082,0.205l-1.608,0.662h-0.264v-1.137c-0.462,0.5-0.814,0.814-1.057,0.943
					s-0.499,0.193-0.769,0.193c-0.301,0-0.563-0.087-0.784-0.261s-0.375-0.397-0.46-0.671c-0.086-0.273-0.129-0.66-0.129-1.16
					v-2.396c0-0.254-0.027-0.43-0.082-0.527s-0.136-0.173-0.244-0.226s-0.302-0.077-0.584-0.073v-0.217h1.884v3.592
					c0,0.5,0.087,0.828,0.261,0.984c0.174,0.156,0.385,0.234,0.631,0.234c0.168,0,0.359-0.053,0.572-0.158
					c0.213-0.105,0.467-0.307,0.76-0.604v-3.041c0-0.305-0.056-0.511-0.167-0.618c-0.111-0.107-0.343-0.165-0.695-0.173v-0.217
					H147.859z"/>
				<path d="M150.629,45.895c0.521-0.723,1.082-1.084,1.685-1.084c0.552,0,1.033,0.235,1.444,0.706
					c0.411,0.471,0.616,1.114,0.616,1.931c0,0.953-0.317,1.721-0.951,2.303c-0.544,0.5-1.15,0.75-1.819,0.75
					c-0.313,0-0.631-0.057-0.954-0.17s-0.652-0.283-0.989-0.51V44.26c0-0.609-0.015-0.984-0.044-1.125s-0.076-0.236-0.138-0.287
					s-0.141-0.076-0.234-0.076c-0.11,0-0.247,0.031-0.411,0.094l-0.082-0.205l1.614-0.656h0.264V45.895z M150.629,46.27v3.211
					c0.2,0.195,0.406,0.343,0.619,0.442c0.213,0.1,0.432,0.149,0.655,0.149c0.356,0,0.688-0.195,0.995-0.586s0.46-0.959,0.46-1.705
					c0-0.688-0.153-1.216-0.46-1.585s-0.656-0.554-1.048-0.554c-0.207,0-0.415,0.053-0.622,0.158
					C151.071,45.879,150.872,46.036,150.629,46.27z"/>
				<path d="M155.829,46.991c-0.004,0.797,0.19,1.422,0.581,1.875s0.851,0.68,1.379,0.68c0.352,0,0.658-0.097,0.918-0.29
					s0.479-0.524,0.654-0.993l0.182,0.117c-0.082,0.535-0.321,1.022-0.716,1.462c-0.395,0.439-0.89,0.659-1.485,0.659
					c-0.646,0-1.198-0.251-1.658-0.753c-0.46-0.502-0.689-1.177-0.689-2.024c0-0.918,0.235-1.634,0.707-2.147
					c0.471-0.514,1.063-0.771,1.775-0.771c0.603,0,1.098,0.198,1.485,0.595s0.581,0.927,0.581,1.591H155.829z M155.829,46.651h2.489
					c-0.02-0.344-0.061-0.586-0.124-0.727c-0.098-0.219-0.243-0.391-0.437-0.516s-0.396-0.188-0.607-0.188
					c-0.325,0-0.615,0.126-0.872,0.378S155.872,46.202,155.829,46.651z"/>
			</g>
		</g>
		<g clip-path="url(#SVGID_40_)">
			<defs>
				<rect id="SVGID_47_" x="126.49" y="39.291" width="34.299" height="16.087"/>
			</defs>
			<clipPath id="SVGID_48_">
				<use xlink:href="#SVGID_47_"  overflow="visible"/>
			</clipPath>
			<g clip-path="url(#SVGID_48_)">
			</g>
		</g>
	</g>
	<polygon clip-path="url(#SVGID_2_)" fill-rule="evenodd" clip-rule="evenodd" points="199.888,31.593 200.127,31.593 
		200.377,31.593 200.616,31.354 200.856,31.354 201.095,31.115 201.334,30.875 201.584,30.875 201.584,30.636 201.824,30.387 
		201.824,30.148 202.063,29.909 202.063,29.67 202.063,29.421 202.063,29.182 202.063,28.943 201.824,28.704 201.824,28.485 
		201.584,28.246 201.584,28.007 201.334,27.758 201.095,27.758 201.095,27.519 200.856,27.519 200.616,27.519 200.377,27.28 
		200.127,27.28 199.888,27.28 199.648,27.28 199.409,27.28 199.19,27.28 198.95,27.519 198.711,27.519 198.471,27.519 
		198.471,27.758 198.222,27.758 197.982,28.007 197.982,28.246 197.743,28.485 197.743,28.704 197.503,28.943 197.503,29.182 
		197.503,29.421 197.503,29.67 197.503,29.909 197.743,30.148 197.743,30.387 197.982,30.636 197.982,30.875 198.222,30.875 
		198.471,31.115 198.711,31.354 198.95,31.354 199.19,31.593 199.409,31.593 199.648,31.593 	"/>
	
		<polyline clip-path="url(#SVGID_2_)" fill="none" stroke="#1F1A17" stroke-width="0.2412" stroke-linejoin="round" stroke-miterlimit="10" points="
		200.267,31.971 200.507,31.971 200.746,31.971 200.985,31.732 201.235,31.732 201.474,31.493 201.714,31.244 201.953,31.244 
		201.953,31.005 202.193,30.766 202.193,30.527 202.442,30.278 202.442,30.039 202.442,29.8 202.442,29.561 202.442,29.322 
		202.193,29.073 202.193,28.863 201.953,28.614 201.953,28.375 201.714,28.136 201.474,28.136 201.474,27.897 201.235,27.897 
		200.985,27.897 200.746,27.648 200.507,27.648 200.267,27.648 200.028,27.648 199.778,27.648 199.569,27.648 199.319,27.897 
		199.08,27.897 198.84,27.897 198.84,28.136 198.601,28.136 198.362,28.375 198.362,28.614 198.112,28.863 198.112,29.073 
		197.873,29.322 197.873,29.561 197.873,29.8 197.873,30.039 197.873,30.278 198.112,30.527 198.112,30.766 198.362,31.005 
		198.362,31.244 198.601,31.244 198.84,31.493 199.08,31.732 199.319,31.732 199.569,31.971 199.778,31.971 200.028,31.971 
		200.267,31.971 	"/>
	<polygon clip-path="url(#SVGID_2_)" fill-rule="evenodd" clip-rule="evenodd" points="88.088,31.593 88.329,31.593 88.571,31.593 
		88.812,31.593 89.054,31.354 89.295,31.115 89.537,31.115 89.778,30.875 90.02,30.636 90.02,30.387 90.26,30.148 90.26,29.909 
		90.26,29.67 90.26,29.421 90.26,29.182 90.26,28.943 90.26,28.704 90.26,28.485 90.02,28.485 90.02,28.246 89.778,28.007 
		89.778,27.758 89.537,27.758 89.295,27.519 89.054,27.519 88.812,27.28 88.571,27.28 88.329,27.28 88.088,27.28 87.846,27.28 
		87.605,27.28 87.364,27.28 87.122,27.519 86.881,27.519 86.639,27.758 86.423,27.758 86.423,28.007 86.181,28.246 86.181,28.485 
		85.94,28.485 85.94,28.704 85.94,28.943 85.94,29.182 85.94,29.421 85.94,29.67 85.94,29.909 85.94,30.148 86.181,30.387 
		86.181,30.636 86.423,30.875 86.639,31.115 86.881,31.115 87.122,31.354 87.364,31.593 87.605,31.593 87.846,31.593 	"/>
	
		<polyline clip-path="url(#SVGID_2_)" fill="none" stroke="#1F1A17" stroke-width="0.2412" stroke-linejoin="round" stroke-miterlimit="10" points="
		88.462,31.971 88.704,31.971 88.945,31.971 89.187,31.971 89.428,31.732 89.669,31.493 89.911,31.493 90.152,31.244 90.394,31.005 
		90.394,30.766 90.634,30.527 90.634,30.278 90.634,30.039 90.634,29.8 90.634,29.561 90.634,29.322 90.634,29.073 90.634,28.863 
		90.394,28.863 90.394,28.614 90.152,28.375 90.152,28.136 89.911,28.136 89.669,27.897 89.428,27.897 89.187,27.648 88.945,27.648 
		88.704,27.648 88.462,27.648 88.221,27.648 87.979,27.648 87.738,27.648 87.496,27.897 87.255,27.897 87.013,28.136 86.797,28.136 
		86.797,28.375 86.556,28.614 86.556,28.863 86.314,28.863 86.314,29.073 86.314,29.322 86.314,29.561 86.314,29.8 86.314,30.039 
		86.314,30.278 86.314,30.527 86.556,30.766 86.556,31.005 86.797,31.244 87.013,31.493 87.255,31.493 87.496,31.732 87.738,31.971 
		87.979,31.971 88.221,31.971 88.462,31.971 	"/>
	<polygon clip-path="url(#SVGID_2_)" fill-rule="evenodd" clip-rule="evenodd" points="192.935,165.918 193.184,165.918 
		193.423,165.918 193.663,165.918 193.902,165.918 194.142,165.67 194.391,165.67 194.391,165.431 194.63,165.431 194.87,165.191 
		194.87,164.953 195.109,164.953 195.109,164.713 195.109,164.464 195.329,164.246 195.329,164.006 195.329,163.767 
		195.329,163.528 195.329,163.289 195.109,163.289 195.109,163.04 195.109,162.801 194.87,162.562 194.87,162.323 194.63,162.323 
		194.391,162.084 194.142,161.835 193.902,161.835 193.663,161.835 193.423,161.596 193.184,161.596 192.935,161.596 
		192.695,161.596 192.456,161.835 192.216,161.835 191.977,161.835 191.737,162.084 191.488,162.323 191.249,162.323 
		191.249,162.562 191.029,162.801 191.029,163.04 191.029,163.289 190.79,163.289 190.79,163.528 190.79,163.767 190.79,164.006 
		190.79,164.246 191.029,164.464 191.029,164.713 191.029,164.953 191.249,164.953 191.249,165.191 191.488,165.431 
		191.737,165.431 191.737,165.67 191.977,165.67 192.216,165.918 192.456,165.918 192.695,165.918 	"/>
	
		<polyline clip-path="url(#SVGID_2_)" fill="none" stroke="#1F1A17" stroke-width="0.2412" stroke-linejoin="round" stroke-miterlimit="10" points="
		193.313,166.287 193.553,166.287 193.792,166.287 194.042,166.287 194.281,166.287 194.521,166.048 194.76,166.048 194.76,165.809 
		195,165.809 195.249,165.56 195.249,165.321 195.488,165.321 195.488,165.082 195.488,164.843 195.708,164.624 195.708,164.385 
		195.708,164.146 195.708,163.897 195.708,163.658 195.488,163.658 195.488,163.418 195.488,163.18 195.249,162.94 195.249,162.691 
		195,162.691 194.76,162.453 194.521,162.213 194.281,162.213 194.042,162.213 193.792,161.975 193.553,161.975 193.313,161.975 
		193.074,161.975 192.834,162.213 192.585,162.213 192.346,162.213 192.106,162.453 191.867,162.691 191.627,162.691 
		191.627,162.94 191.408,163.18 191.408,163.418 191.408,163.658 191.168,163.658 191.168,163.897 191.168,164.146 191.168,164.385 
		191.168,164.624 191.408,164.843 191.408,165.082 191.408,165.321 191.627,165.321 191.627,165.56 191.867,165.809 
		192.106,165.809 192.106,166.048 192.346,166.048 192.585,166.287 192.834,166.287 193.074,166.287 193.313,166.287 	"/>
	<polygon clip-path="url(#SVGID_2_)" fill-rule="evenodd" clip-rule="evenodd" points="100.81,167.602 101.049,167.602 
		101.289,167.363 101.528,167.363 101.778,167.363 102.017,167.363 102.017,167.124 102.257,167.124 102.496,166.875 
		102.496,166.636 102.716,166.636 102.716,166.397 102.955,166.158 102.955,165.918 102.955,165.669 102.955,165.431 
		102.955,165.191 102.955,164.953 102.955,164.713 102.955,164.464 102.716,164.246 102.716,164.006 102.496,164.006 
		102.496,163.767 102.257,163.528 102.017,163.528 102.017,163.289 101.778,163.289 101.528,163.289 101.289,163.289 
		101.049,163.04 100.81,163.04 100.571,163.04 100.321,163.289 100.082,163.289 99.842,163.289 99.601,163.528 99.359,163.528 
		99.359,163.767 99.119,164.006 98.877,164.006 98.877,164.246 98.877,164.464 98.66,164.713 98.66,164.953 98.66,165.191 
		98.66,165.431 98.66,165.669 98.66,165.918 98.877,166.158 98.877,166.397 98.877,166.636 99.119,166.636 99.359,166.875 
		99.359,167.124 99.601,167.124 99.842,167.363 100.082,167.363 100.321,167.363 100.571,167.602 	"/>
	
		<polyline clip-path="url(#SVGID_2_)" fill="none" stroke="#1F1A17" stroke-width="0.2412" stroke-linejoin="round" stroke-miterlimit="10" points="
		101.179,167.98 101.429,167.98 101.668,167.731 101.908,167.731 102.147,167.731 102.386,167.731 102.386,167.493 102.626,167.493 
		102.875,167.253 102.875,167.014 103.085,167.014 103.085,166.775 103.334,166.526 103.334,166.287 103.334,166.048 
		103.334,165.809 103.334,165.56 103.334,165.321 103.334,165.082 103.334,164.843 103.085,164.624 103.085,164.385 
		102.875,164.385 102.875,164.146 102.626,163.897 102.386,163.897 102.386,163.658 102.147,163.658 101.908,163.658 
		101.668,163.658 101.429,163.418 101.179,163.418 100.94,163.418 100.7,163.658 100.461,163.658 100.222,163.658 99.972,163.897 
		99.733,163.897 99.733,164.146 99.493,164.385 99.252,164.385 99.252,164.624 99.252,164.843 99.034,165.082 99.034,165.321 
		99.034,165.56 99.034,165.809 99.034,166.048 99.034,166.287 99.252,166.526 99.252,166.775 99.252,167.014 99.493,167.014 
		99.733,167.253 99.733,167.493 99.972,167.493 100.222,167.731 100.461,167.731 100.7,167.731 100.94,167.98 101.179,167.98 	"/>
	<polygon clip-path="url(#SVGID_2_)" fill-rule="evenodd" clip-rule="evenodd" points="192.935,247.147 193.184,247.147 
		193.423,247.147 193.663,247.147 193.902,246.906 194.142,246.906 194.391,246.665 194.63,246.424 194.87,246.424 194.87,246.182 
		195.109,245.941 195.109,245.7 195.329,245.458 195.329,245.218 195.329,244.977 195.329,244.734 195.329,244.494 195.109,244.252 
		195.109,244.011 195.109,243.771 194.87,243.771 194.87,243.529 194.63,243.288 194.391,243.288 194.391,243.046 194.142,243.046 
		193.902,242.805 193.663,242.805 193.423,242.805 193.184,242.805 192.935,242.805 192.695,242.805 192.456,242.805 
		192.216,242.805 191.977,243.046 191.737,243.046 191.737,243.288 191.488,243.288 191.249,243.529 191.249,243.771 
		191.029,243.771 191.029,244.011 191.029,244.252 190.79,244.494 190.79,244.734 190.79,244.977 190.79,245.218 190.79,245.458 
		191.029,245.7 191.029,245.941 191.249,246.182 191.249,246.424 191.488,246.424 191.737,246.665 191.977,246.906 192.216,246.906 
		192.456,247.147 192.695,247.147 	"/>
	
		<polyline clip-path="url(#SVGID_2_)" fill="none" stroke="#1F1A17" stroke-width="0.2412" stroke-linejoin="round" stroke-miterlimit="10" points="
		193.313,247.521 193.553,247.521 193.792,247.521 194.042,247.521 194.281,247.279 194.521,247.279 194.76,247.039 195,246.797 
		195.249,246.797 195.249,246.556 195.488,246.315 195.488,246.073 195.708,245.832 195.708,245.591 195.708,245.35 
		195.708,245.109 195.708,244.868 195.488,244.627 195.488,244.385 195.488,244.144 195.249,244.144 195.249,243.903 195,243.662 
		194.76,243.662 194.76,243.421 194.521,243.421 194.281,243.18 194.042,243.18 193.792,243.18 193.553,243.18 193.313,243.18 
		193.074,243.18 192.834,243.18 192.585,243.18 192.346,243.421 192.106,243.421 192.106,243.662 191.867,243.662 191.627,243.903 
		191.627,244.144 191.408,244.144 191.408,244.385 191.408,244.627 191.168,244.868 191.168,245.109 191.168,245.35 
		191.168,245.591 191.168,245.832 191.408,246.073 191.408,246.315 191.627,246.556 191.627,246.797 191.867,246.797 
		192.106,247.039 192.346,247.279 192.585,247.279 192.834,247.521 193.074,247.521 193.313,247.521 	"/>
	<polygon clip-path="url(#SVGID_2_)" fill-rule="evenodd" clip-rule="evenodd" points="98.66,247.87 98.877,247.87 99.119,247.87 
		99.359,247.629 99.601,247.629 99.842,247.388 100.082,247.388 100.082,247.147 100.321,247.147 100.321,246.906 100.571,246.665 
		100.571,246.424 100.81,246.424 100.81,246.182 100.81,245.941 100.81,245.7 100.81,245.458 100.81,245.218 100.81,244.977 
		100.571,244.734 100.321,244.494 100.321,244.252 100.082,244.011 99.842,243.771 99.601,243.771 99.359,243.771 99.119,243.529 
		98.877,243.529 98.66,243.529 98.418,243.529 98.177,243.529 97.936,243.529 97.694,243.771 97.453,243.771 97.211,244.011 
		96.97,244.011 96.97,244.252 96.729,244.494 96.487,244.734 96.487,244.977 96.487,245.218 96.246,245.458 96.246,245.7 
		96.246,245.941 96.487,246.182 96.487,246.424 96.487,246.665 96.729,246.906 96.97,247.147 97.211,247.388 97.453,247.388 
		97.453,247.629 97.694,247.629 97.936,247.87 98.177,247.87 98.418,247.87 	"/>
	
		<polyline clip-path="url(#SVGID_2_)" fill="none" stroke="#1F1A17" stroke-width="0.2412" stroke-linejoin="round" stroke-miterlimit="10" points="
		99.034,248.245 99.252,248.245 99.493,248.245 99.733,248.003 99.972,248.003 100.222,247.761 100.461,247.761 100.461,247.521 
		100.7,247.521 100.7,247.279 100.94,247.039 100.94,246.797 101.179,246.797 101.179,246.556 101.179,246.315 101.179,246.073 
		101.179,245.832 101.179,245.591 101.179,245.35 100.94,245.109 100.7,244.868 100.7,244.627 100.461,244.385 100.222,244.144 
		99.972,244.144 99.733,244.144 99.493,243.903 99.252,243.903 99.034,243.903 98.793,243.903 98.551,243.903 98.31,243.903 
		98.068,244.144 97.827,244.144 97.585,244.385 97.344,244.385 97.344,244.627 97.103,244.868 96.861,245.109 96.861,245.35 
		96.861,245.591 96.62,245.832 96.62,246.073 96.62,246.315 96.861,246.556 96.861,246.797 96.861,247.039 97.103,247.279 
		97.344,247.521 97.585,247.761 97.827,247.761 97.827,248.003 98.068,248.003 98.31,248.245 98.551,248.245 98.793,248.245 
		99.034,248.245 	"/>
	<polygon clip-path="url(#SVGID_2_)" fill-rule="evenodd" clip-rule="evenodd" points="4.115,187.791 4.356,187.791 4.598,187.791 
		4.839,187.791 5.081,187.549 5.322,187.308 5.563,187.308 5.805,187.067 6.046,186.826 6.046,186.584 6.263,186.343 6.263,186.102 
		6.263,185.86 6.263,185.62 6.263,185.378 6.263,185.137 6.263,184.896 6.263,184.655 6.046,184.655 6.046,184.413 5.805,184.172 
		5.805,183.931 5.563,183.931 5.322,183.714 5.081,183.714 4.839,183.473 4.598,183.473 4.356,183.473 4.115,183.473 3.874,183.473 
		3.632,183.473 3.391,183.473 3.15,183.714 2.908,183.714 2.667,183.931 2.426,183.931 2.426,184.172 2.184,184.413 2.184,184.655 
		1.967,184.655 1.967,184.896 1.967,185.137 1.967,185.378 1.967,185.62 1.967,185.86 1.967,186.102 1.967,186.343 2.184,186.584 
		2.184,186.826 2.426,187.067 2.667,187.308 2.908,187.308 3.15,187.549 3.391,187.791 3.632,187.791 3.874,187.791 	"/>
	
		<polyline clip-path="url(#SVGID_2_)" fill="none" stroke="#1F1A17" stroke-width="0.2412" stroke-linejoin="round" stroke-miterlimit="10" points="
		4.489,188.165 4.73,188.165 4.972,188.165 5.213,188.165 5.455,187.923 5.696,187.682 5.938,187.682 6.179,187.44 6.42,187.199 
		6.42,186.958 6.638,186.717 6.638,186.476 6.638,186.235 6.638,185.994 6.638,185.752 6.638,185.511 6.638,185.27 6.638,185.029 
		6.42,185.029 6.42,184.788 6.179,184.547 6.179,184.306 5.938,184.306 5.696,184.088 5.455,184.088 5.213,183.846 4.972,183.846 
		4.73,183.846 4.489,183.846 4.248,183.846 4.006,183.846 3.765,183.846 3.524,184.088 3.283,184.088 3.041,184.306 2.8,184.306 
		2.8,184.547 2.559,184.788 2.559,185.029 2.341,185.029 2.341,185.27 2.341,185.511 2.341,185.752 2.341,185.994 2.341,186.235 
		2.341,186.476 2.341,186.717 2.559,186.958 2.559,187.199 2.8,187.44 3.041,187.682 3.283,187.682 3.524,187.923 3.765,188.165 
		4.006,188.165 4.248,188.165 4.489,188.165 	"/>
	<polygon clip-path="url(#SVGID_2_)" fill-rule="evenodd" clip-rule="evenodd" points="275.491,190.901 275.701,190.901 
		275.95,190.661 276.189,190.661 276.429,190.661 276.668,190.419 276.908,190.202 277.157,190.202 277.157,189.961 
		277.397,189.961 277.397,189.72 277.636,189.479 277.636,189.237 277.636,188.996 277.636,188.755 277.636,188.514 
		277.636,188.273 277.636,188.032 277.636,187.791 277.397,187.549 277.397,187.308 277.157,187.308 277.157,187.067 
		276.908,186.826 276.668,186.826 276.668,186.584 276.429,186.584 276.189,186.584 275.95,186.344 275.701,186.344 
		275.491,186.344 275.242,186.344 275.002,186.344 274.763,186.584 274.523,186.584 274.284,186.826 274.044,186.826 
		274.044,187.067 273.795,187.308 273.555,187.549 273.555,187.791 273.316,188.032 273.316,188.273 273.316,188.514 
		273.316,188.755 273.316,188.996 273.316,189.237 273.555,189.479 273.555,189.72 273.795,189.961 274.044,190.202 
		274.284,190.419 274.523,190.419 274.763,190.661 275.002,190.661 275.242,190.901 	"/>
	
		<polyline clip-path="url(#SVGID_2_)" fill="none" stroke="#1F1A17" stroke-width="0.2412" stroke-linejoin="round" stroke-miterlimit="10" points="
		275.86,191.276 276.08,191.276 276.319,191.034 276.558,191.034 276.808,191.034 277.047,190.793 277.287,190.576 277.526,190.576 
		277.526,190.334 277.766,190.334 277.766,190.094 278.015,189.853 278.015,189.612 278.015,189.371 278.015,189.128 
		278.015,188.887 278.015,188.646 278.015,188.405 278.015,188.165 277.766,187.923 277.766,187.682 277.526,187.682 
		277.526,187.44 277.287,187.199 277.047,187.199 277.047,186.958 276.808,186.958 276.558,186.958 276.319,186.717 276.08,186.717 
		275.86,186.717 275.621,186.717 275.381,186.717 275.142,186.958 274.892,186.958 274.653,187.199 274.414,187.199 274.414,187.44 
		274.174,187.682 273.935,187.923 273.935,188.165 273.685,188.405 273.685,188.646 273.685,188.887 273.685,189.128 
		273.685,189.371 273.685,189.612 273.935,189.853 273.935,190.094 274.174,190.334 274.414,190.576 274.653,190.793 
		274.892,190.793 275.142,191.034 275.381,191.034 275.621,191.276 275.86,191.276 	"/>
	
		<line clip-path="url(#SVGID_2_)" fill="none" stroke="#1F1A17" stroke-width="0.2412" stroke-linejoin="round" stroke-miterlimit="10" x1="4.006" y1="201.14" x2="4.006" y2="246.073"/>
	<polygon clip-path="url(#SVGID_2_)" fill-rule="evenodd" clip-rule="evenodd" points="4.115,201.972 4.356,201.972 4.598,201.972 
		4.839,201.972 5.081,201.972 5.081,201.731 5.322,201.731 5.563,201.489 5.805,201.489 5.805,201.249 6.046,201.007 6.263,200.766 
		6.263,200.525 6.263,200.284 6.263,200.043 6.263,199.801 6.263,199.56 6.263,199.319 6.263,199.078 6.046,198.837 6.046,198.596 
		5.805,198.355 5.563,198.113 5.322,198.113 5.081,197.872 4.839,197.872 4.598,197.631 4.356,197.631 4.115,197.631 3.874,197.631 
		3.632,197.631 3.391,197.872 3.15,197.872 2.908,198.113 2.667,198.113 2.426,198.355 2.184,198.596 2.184,198.837 1.967,199.078 
		1.967,199.319 1.967,199.56 1.967,199.801 1.967,200.043 1.967,200.284 1.967,200.525 1.967,200.766 2.184,201.007 2.426,201.249 
		2.426,201.489 2.667,201.489 2.908,201.731 3.15,201.731 3.15,201.972 3.391,201.972 3.632,201.972 3.874,201.972 	"/>
	
		<polyline clip-path="url(#SVGID_2_)" fill="none" stroke="#1F1A17" stroke-width="0.2412" stroke-linejoin="round" stroke-miterlimit="10" points="
		4.489,202.346 4.73,202.346 4.972,202.346 5.213,202.346 5.455,202.346 5.455,202.105 5.696,202.105 5.938,201.864 6.179,201.864 
		6.179,201.623 6.42,201.382 6.638,201.14 6.638,200.899 6.638,200.658 6.638,200.417 6.638,200.175 6.638,199.935 6.638,199.692 
		6.638,199.452 6.42,199.21 6.42,198.969 6.179,198.729 5.938,198.487 5.696,198.487 5.455,198.246 5.213,198.246 4.972,198.004 
		4.73,198.004 4.489,198.004 4.248,198.004 4.006,198.004 3.765,198.246 3.524,198.246 3.283,198.487 3.041,198.487 2.8,198.729 
		2.559,198.969 2.559,199.21 2.341,199.452 2.341,199.692 2.341,199.935 2.341,200.175 2.341,200.417 2.341,200.658 2.341,200.899 
		2.341,201.14 2.559,201.382 2.8,201.623 2.8,201.864 3.041,201.864 3.283,202.105 3.524,202.105 3.524,202.346 3.765,202.346 
		4.006,202.346 4.248,202.346 4.489,202.346 	"/>
	
		<line clip-path="url(#SVGID_2_)" fill="none" stroke="#1F1A17" stroke-width="0.2412" stroke-linejoin="round" stroke-miterlimit="10" x1="276.319" y1="200.417" x2="276.319" y2="245.35"/>
	<polygon clip-path="url(#SVGID_2_)" fill-rule="evenodd" clip-rule="evenodd" points="275.491,204.36 275.701,204.36 
		275.95,204.36 276.189,204.119 276.429,204.119 276.668,204.119 276.668,203.878 276.908,203.878 277.157,203.637 277.157,203.395 
		277.397,203.395 277.397,203.179 277.636,202.937 277.636,202.696 277.636,202.455 277.636,202.213 277.636,201.973 
		277.636,201.731 277.636,201.489 277.636,201.249 277.397,201.007 277.157,200.766 277.157,200.525 276.908,200.525 
		276.668,200.284 276.429,200.043 276.189,200.043 275.95,200.043 275.701,200.043 275.491,199.801 275.242,200.043 
		275.002,200.043 274.763,200.043 274.523,200.284 274.284,200.284 274.044,200.525 273.795,200.766 273.795,201.007 
		273.555,201.007 273.555,201.249 273.316,201.489 273.316,201.731 273.316,201.972 273.316,202.213 273.316,202.455 
		273.316,202.696 273.555,202.937 273.555,203.179 273.795,203.395 274.044,203.637 274.044,203.878 274.284,203.878 
		274.523,204.119 274.763,204.119 275.002,204.36 275.242,204.36 	"/>
	
		<polyline clip-path="url(#SVGID_2_)" fill="none" stroke="#1F1A17" stroke-width="0.2412" stroke-linejoin="round" stroke-miterlimit="10" points="
		275.86,204.733 276.08,204.733 276.319,204.733 276.558,204.493 276.808,204.493 277.047,204.493 277.047,204.251 277.287,204.251 
		277.526,204.01 277.526,203.769 277.766,203.769 277.766,203.552 278.015,203.311 278.015,203.07 278.015,202.828 278.015,202.587 
		278.015,202.346 278.015,202.105 278.015,201.864 278.015,201.623 277.766,201.382 277.526,201.14 277.526,200.899 
		277.287,200.899 277.047,200.658 276.808,200.417 276.558,200.417 276.319,200.417 276.08,200.417 275.86,200.176 275.621,200.417 
		275.381,200.417 275.142,200.417 274.892,200.658 274.653,200.658 274.414,200.899 274.174,201.14 274.174,201.382 
		273.935,201.382 273.935,201.623 273.685,201.864 273.685,202.105 273.685,202.346 273.685,202.587 273.685,202.828 
		273.685,203.07 273.935,203.311 273.935,203.552 274.174,203.769 274.414,204.01 274.414,204.251 274.653,204.251 274.892,204.493 
		275.142,204.493 275.381,204.733 275.621,204.733 275.86,204.733 	"/>
	<g clip-path="url(#SVGID_2_)">
		<defs>
			<rect id="SVGID_49_" x="12.515" y="205.807" width="78.204" height="34.128"/>
		</defs>
		<clipPath id="SVGID_50_">
			<use xlink:href="#SVGID_49_"  overflow="visible"/>
		</clipPath>
		<g clip-path="url(#SVGID_50_)">
			<defs>
				<rect id="SVGID_51_" x="12.515" y="205.807" width="77.987" height="34.128"/>
			</defs>
			<clipPath id="SVGID_52_">
				<use xlink:href="#SVGID_51_"  overflow="visible"/>
			</clipPath>
			<g clip-path="url(#SVGID_52_)">
				<path fill="#1F1A17" d="M13.442,216.853v-8.59h3.246c0.571,0,1.007,0.027,1.309,0.082c0.422,0.07,0.776,0.204,1.062,0.401
					s0.516,0.474,0.689,0.829c0.174,0.355,0.261,0.746,0.261,1.172c0,0.73-0.232,1.349-0.698,1.854s-1.307,0.759-2.524,0.759h-2.207
					v3.492H13.442z M14.581,212.347h2.225c0.735,0,1.258-0.137,1.567-0.41s0.463-0.658,0.463-1.154c0-0.359-0.091-0.667-0.273-0.923
					c-0.182-0.256-0.421-0.425-0.719-0.507c-0.192-0.051-0.546-0.076-1.063-0.076h-2.201V212.347z"/>
				<path fill="#1F1A17" d="M21.217,216.853v-8.59h1.056v8.59H21.217z"/>
				<path fill="#1F1A17" d="M28.158,216.085c-0.391,0.332-0.768,0.566-1.129,0.703c-0.362,0.137-0.75,0.205-1.165,0.205
					c-0.685,0-1.211-0.167-1.579-0.501s-0.552-0.761-0.552-1.28c0-0.305,0.07-0.583,0.208-0.835
					c0.139-0.252,0.321-0.454,0.546-0.606s0.479-0.268,0.76-0.346c0.207-0.055,0.52-0.107,0.939-0.158
					c0.853-0.102,1.481-0.223,1.884-0.363c0.004-0.145,0.006-0.236,0.006-0.275c0-0.43-0.1-0.732-0.299-0.908
					c-0.27-0.238-0.671-0.357-1.203-0.357c-0.497,0-0.864,0.087-1.101,0.261s-0.412,0.481-0.525,0.923l-1.033-0.141
					c0.094-0.441,0.249-0.798,0.464-1.069c0.215-0.271,0.526-0.48,0.933-0.627c0.407-0.146,0.878-0.22,1.415-0.22
					c0.532,0,0.964,0.063,1.297,0.188s0.577,0.282,0.733,0.472c0.157,0.189,0.266,0.429,0.329,0.718
					c0.035,0.18,0.053,0.504,0.053,0.973v1.406c0,0.98,0.022,1.601,0.067,1.86s0.134,0.509,0.267,0.747h-1.104
					C28.26,216.634,28.189,216.378,28.158,216.085z M28.07,213.73c-0.383,0.156-0.958,0.289-1.726,0.398
					c-0.434,0.063-0.741,0.133-0.921,0.211c-0.18,0.078-0.319,0.192-0.417,0.343c-0.098,0.15-0.147,0.317-0.147,0.501
					c0,0.281,0.107,0.516,0.32,0.703c0.213,0.188,0.525,0.281,0.937,0.281c0.407,0,0.769-0.089,1.085-0.267s0.55-0.421,0.699-0.729
					c0.113-0.238,0.17-0.59,0.17-1.055V213.73z"/>
				<path fill="#1F1A17" d="M30.776,216.853v-6.223h0.951v0.885c0.458-0.684,1.119-1.025,1.984-1.025
					c0.375,0,0.721,0.067,1.036,0.202s0.551,0.312,0.708,0.53c0.156,0.219,0.266,0.479,0.329,0.779
					c0.039,0.195,0.059,0.537,0.059,1.025v3.826h-1.057v-3.785c0-0.43-0.041-0.751-0.123-0.964s-0.228-0.383-0.438-0.51
					c-0.209-0.127-0.455-0.19-0.736-0.19c-0.45,0-0.838,0.143-1.165,0.428s-0.49,0.826-0.49,1.623v3.398H30.776z"/>
				<path fill="#1F1A17" d="M39.791,215.91l0.153,0.932c-0.297,0.063-0.563,0.094-0.798,0.094c-0.383,0-0.681-0.061-0.892-0.182
					c-0.211-0.121-0.36-0.28-0.446-0.478c-0.086-0.197-0.129-0.612-0.129-1.245v-3.58h-0.774v-0.82h0.774v-1.541l1.051-0.633v2.174
					h1.062v0.82h-1.062v3.639c0,0.301,0.019,0.494,0.056,0.58s0.098,0.154,0.182,0.205c0.084,0.051,0.204,0.076,0.361,0.076
					C39.444,215.951,39.599,215.937,39.791,215.91z"/>
				<path fill="#1F1A17" d="M48.207,216.853v-0.785c-0.395,0.617-0.976,0.926-1.743,0.926c-0.497,0-0.954-0.137-1.37-0.41
					c-0.417-0.273-0.74-0.655-0.968-1.146c-0.229-0.49-0.344-1.054-0.344-1.69c0-0.621,0.104-1.185,0.311-1.69
					c0.208-0.506,0.519-0.894,0.934-1.163c0.415-0.27,0.878-0.404,1.391-0.404c0.376,0,0.71,0.079,1.004,0.237
					s0.532,0.364,0.716,0.618v-3.082h1.051v8.59H48.207z M44.868,213.748c0,0.797,0.168,1.393,0.505,1.787s0.733,0.592,1.191,0.592
					c0.461,0,0.854-0.188,1.177-0.565s0.484-0.952,0.484-1.726c0-0.852-0.164-1.477-0.493-1.875s-0.734-0.598-1.215-0.598
					c-0.47,0-0.862,0.191-1.177,0.574S44.868,212.923,44.868,213.748z"/>
				<path fill="#1F1A17" d="M55.139,214.849l1.092,0.135c-0.172,0.637-0.491,1.131-0.957,1.482
					c-0.466,0.352-1.061,0.527-1.784,0.527c-0.912,0-1.635-0.28-2.169-0.841s-0.801-1.347-0.801-2.358
					c0-1.047,0.27-1.859,0.81-2.438s1.24-0.867,2.101-0.867c0.833,0,1.514,0.283,2.042,0.85s0.792,1.363,0.792,2.391
					c0,0.063-0.002,0.156-0.006,0.281h-4.648c0.039,0.684,0.233,1.207,0.581,1.57s0.783,0.545,1.303,0.545
					c0.387,0,0.718-0.102,0.992-0.305S54.979,215.294,55.139,214.849z M51.67,213.144h3.48c-0.047-0.523-0.18-0.916-0.399-1.178
					c-0.336-0.406-0.773-0.609-1.309-0.609c-0.485,0-0.893,0.162-1.224,0.486S51.706,212.601,51.67,213.144z"/>
				<path fill="#1F1A17" d="M57.557,216.853v-6.223h0.945v0.873c0.195-0.305,0.456-0.55,0.781-0.735
					c0.325-0.186,0.694-0.278,1.109-0.278c0.462,0,0.84,0.096,1.136,0.287s0.504,0.459,0.625,0.803
					c0.493-0.727,1.135-1.09,1.925-1.09c0.618,0,1.093,0.171,1.426,0.513c0.333,0.342,0.499,0.868,0.499,1.579v4.271h-1.05v-3.92
					c0-0.422-0.035-0.726-0.103-0.911s-0.192-0.335-0.373-0.448s-0.391-0.17-0.634-0.17c-0.438,0-0.802,0.146-1.092,0.437
					s-0.434,0.757-0.434,1.397v3.615H61.26v-4.043c0-0.469-0.086-0.82-0.258-1.055c-0.172-0.234-0.454-0.352-0.845-0.352
					c-0.297,0-0.572,0.078-0.824,0.234s-0.436,0.385-0.549,0.686c-0.114,0.301-0.17,0.734-0.17,1.301v3.229H57.557z"/>
				<path fill="#1F1A17" d="M71.252,216.085c-0.391,0.332-0.768,0.566-1.129,0.703c-0.362,0.137-0.75,0.205-1.165,0.205
					c-0.685,0-1.211-0.167-1.579-0.501s-0.552-0.761-0.552-1.28c0-0.305,0.07-0.583,0.208-0.835
					c0.139-0.252,0.321-0.454,0.546-0.606s0.479-0.268,0.76-0.346c0.207-0.055,0.52-0.107,0.939-0.158
					c0.853-0.102,1.481-0.223,1.884-0.363c0.004-0.145,0.006-0.236,0.006-0.275c0-0.43-0.1-0.732-0.299-0.908
					c-0.27-0.238-0.671-0.357-1.203-0.357c-0.497,0-0.864,0.087-1.101,0.261s-0.412,0.481-0.525,0.923l-1.033-0.141
					c0.094-0.441,0.249-0.798,0.464-1.069c0.215-0.271,0.526-0.48,0.933-0.627c0.407-0.146,0.878-0.22,1.415-0.22
					c0.532,0,0.964,0.063,1.297,0.188s0.577,0.282,0.733,0.472c0.157,0.189,0.266,0.429,0.329,0.718
					c0.035,0.18,0.053,0.504,0.053,0.973v1.406c0,0.98,0.022,1.601,0.067,1.86s0.134,0.509,0.267,0.747h-1.104
					C71.354,216.634,71.284,216.378,71.252,216.085z M71.165,213.73c-0.383,0.156-0.958,0.289-1.726,0.398
					c-0.434,0.063-0.741,0.133-0.921,0.211c-0.18,0.078-0.319,0.192-0.417,0.343c-0.098,0.15-0.147,0.317-0.147,0.501
					c0,0.281,0.107,0.516,0.32,0.703c0.213,0.188,0.525,0.281,0.937,0.281c0.407,0,0.769-0.089,1.085-0.267s0.55-0.421,0.699-0.729
					c0.113-0.238,0.17-0.59,0.17-1.055V213.73z"/>
				<path fill="#1F1A17" d="M73.87,216.853v-6.223h0.951v0.885c0.458-0.684,1.119-1.025,1.984-1.025
					c0.375,0,0.721,0.067,1.036,0.202s0.551,0.312,0.708,0.53c0.156,0.219,0.266,0.479,0.329,0.779
					c0.039,0.195,0.059,0.537,0.059,1.025v3.826h-1.057v-3.785c0-0.43-0.041-0.751-0.123-0.964s-0.228-0.383-0.438-0.51
					c-0.209-0.127-0.455-0.19-0.736-0.19c-0.45,0-0.838,0.143-1.165,0.428s-0.49,0.826-0.49,1.623v3.398H73.87z"/>
				<path fill="#1F1A17" d="M84.623,216.853v-0.785c-0.395,0.617-0.976,0.926-1.743,0.926c-0.497,0-0.954-0.137-1.37-0.41
					c-0.417-0.273-0.74-0.655-0.968-1.146c-0.229-0.49-0.344-1.054-0.344-1.69c0-0.621,0.104-1.185,0.311-1.69
					c0.208-0.506,0.519-0.894,0.934-1.163c0.415-0.27,0.878-0.404,1.391-0.404c0.376,0,0.71,0.079,1.004,0.237
					s0.532,0.364,0.716,0.618v-3.082h1.051v8.59H84.623z M81.283,213.748c0,0.797,0.168,1.393,0.505,1.787s0.733,0.592,1.191,0.592
					c0.461,0,0.854-0.188,1.177-0.565s0.484-0.952,0.484-1.726c0-0.852-0.164-1.477-0.493-1.875s-0.734-0.598-1.215-0.598
					c-0.47,0-0.862,0.191-1.177,0.574S81.283,212.923,81.283,213.748z"/>
			</g>
		</g>
		<g clip-path="url(#SVGID_50_)">
			<defs>
				<rect id="SVGID_53_" x="12.515" y="205.807" width="77.987" height="34.128"/>
			</defs>
			<clipPath id="SVGID_54_">
				<use xlink:href="#SVGID_53_"  overflow="visible"/>
			</clipPath>
			<g clip-path="url(#SVGID_54_)">
				<path fill="#1F1A17" d="M12.884,228.936l1.045-0.164c0.059,0.418,0.222,0.738,0.49,0.961s0.643,0.334,1.124,0.334
					c0.485,0,0.845-0.099,1.08-0.296s0.352-0.429,0.352-0.694c0-0.238-0.104-0.426-0.311-0.563c-0.145-0.094-0.505-0.213-1.08-0.357
					c-0.774-0.195-1.312-0.364-1.611-0.507s-0.526-0.34-0.681-0.592c-0.155-0.252-0.232-0.53-0.232-0.835
					c0-0.277,0.063-0.534,0.19-0.771c0.127-0.236,0.3-0.433,0.52-0.589c0.165-0.121,0.388-0.224,0.672-0.308
					c0.283-0.084,0.587-0.126,0.913-0.126c0.489,0,0.918,0.07,1.288,0.211s0.643,0.331,0.819,0.571
					c0.176,0.24,0.297,0.562,0.364,0.964l-1.033,0.141c-0.047-0.32-0.183-0.57-0.408-0.75s-0.543-0.27-0.954-0.27
					c-0.485,0-0.832,0.08-1.039,0.24c-0.207,0.16-0.311,0.348-0.311,0.563c0,0.137,0.043,0.26,0.129,0.369
					c0.086,0.113,0.221,0.207,0.405,0.281c0.105,0.039,0.417,0.129,0.933,0.27c0.748,0.199,1.269,0.362,1.564,0.489
					c0.295,0.127,0.527,0.312,0.695,0.554c0.168,0.242,0.252,0.543,0.252,0.902c0,0.352-0.103,0.683-0.308,0.993
					c-0.206,0.311-0.502,0.551-0.889,0.721c-0.388,0.17-0.826,0.255-1.315,0.255c-0.81,0-1.427-0.168-1.852-0.504
					C13.272,230.094,13.002,229.596,12.884,228.936z"/>
				<path fill="#1F1A17" d="M19.323,223.417v-1.213h1.056v1.213H19.323z M19.323,230.793v-6.223h1.056v6.223H19.323z"/>
				<path fill="#1F1A17" d="M26.211,230.793v-0.785c-0.395,0.617-0.976,0.926-1.743,0.926c-0.497,0-0.954-0.137-1.37-0.41
					c-0.417-0.273-0.74-0.655-0.968-1.146c-0.229-0.49-0.344-1.054-0.344-1.69c0-0.621,0.104-1.185,0.311-1.69
					c0.208-0.506,0.519-0.894,0.934-1.163c0.415-0.27,0.878-0.404,1.391-0.404c0.376,0,0.71,0.079,1.004,0.237
					s0.532,0.364,0.716,0.618v-3.082h1.051v8.59H26.211z M22.872,227.688c0,0.797,0.168,1.393,0.505,1.787s0.733,0.592,1.191,0.592
					c0.461,0,0.854-0.188,1.177-0.565s0.484-0.952,0.484-1.726c0-0.852-0.164-1.477-0.493-1.875s-0.734-0.598-1.215-0.598
					c-0.47,0-0.862,0.191-1.177,0.574S22.872,226.864,22.872,227.688z"/>
				<path fill="#1F1A17" d="M33.119,228.79l1.092,0.135c-0.172,0.637-0.491,1.131-0.957,1.482c-0.466,0.352-1.061,0.527-1.784,0.527
					c-0.912,0-1.635-0.28-2.169-0.841s-0.801-1.347-0.801-2.358c0-1.047,0.27-1.859,0.81-2.438s1.24-0.867,2.101-0.867
					c0.833,0,1.514,0.283,2.042,0.85s0.792,1.363,0.792,2.391c0,0.063-0.002,0.156-0.006,0.281h-4.648
					c0.039,0.684,0.233,1.207,0.581,1.57s0.783,0.545,1.303,0.545c0.387,0,0.718-0.102,0.992-0.305S32.958,229.235,33.119,228.79z
					 M29.65,227.084h3.48c-0.047-0.523-0.18-0.916-0.399-1.178c-0.336-0.406-0.773-0.609-1.309-0.609
					c-0.485,0-0.893,0.162-1.224,0.486S29.686,226.542,29.65,227.084z"/>
			</g>
		</g>
		<g clip-path="url(#SVGID_50_)">
			<defs>
				<rect id="SVGID_55_" x="12.515" y="205.807" width="77.987" height="34.128"/>
			</defs>
			<clipPath id="SVGID_56_">
				<use xlink:href="#SVGID_55_"  overflow="visible"/>
			</clipPath>
			<g clip-path="url(#SVGID_56_)">
			</g>
		</g>
	</g>
	<g clip-path="url(#SVGID_2_)">
		<defs>
			<rect id="SVGID_57_" x="188.615" y="170.497" width="78.469" height="34.104"/>
		</defs>
		<clipPath id="SVGID_58_">
			<use xlink:href="#SVGID_57_"  overflow="visible"/>
		</clipPath>
		<g clip-path="url(#SVGID_58_)">
			<defs>
				<rect id="SVGID_59_" x="188.615" y="170.497" width="78.228" height="34.104"/>
			</defs>
			<clipPath id="SVGID_60_">
				<use xlink:href="#SVGID_59_"  overflow="visible"/>
			</clipPath>
			<g clip-path="url(#SVGID_60_)">
				<path fill="#1F1A17" d="M189.542,181.543v-8.59h3.246c0.571,0,1.007,0.027,1.309,0.082c0.422,0.07,0.776,0.204,1.062,0.401
					s0.516,0.474,0.689,0.829c0.174,0.355,0.261,0.746,0.261,1.172c0,0.73-0.232,1.349-0.698,1.854s-1.307,0.759-2.524,0.759h-2.207
					v3.492H189.542z M190.681,177.038h2.225c0.735,0,1.258-0.137,1.567-0.41s0.463-0.658,0.463-1.154
					c0-0.359-0.091-0.667-0.273-0.923c-0.182-0.256-0.421-0.425-0.719-0.507c-0.192-0.051-0.546-0.076-1.063-0.076h-2.201V177.038z"
					/>
				<path fill="#1F1A17" d="M197.317,181.543v-8.59h1.056v8.59H197.317z"/>
				<path fill="#1F1A17" d="M204.258,180.776c-0.391,0.332-0.768,0.566-1.129,0.703c-0.362,0.137-0.75,0.205-1.165,0.205
					c-0.685,0-1.211-0.167-1.579-0.501s-0.552-0.761-0.552-1.28c0-0.305,0.07-0.583,0.208-0.835
					c0.139-0.252,0.321-0.454,0.546-0.606s0.479-0.268,0.76-0.346c0.207-0.055,0.52-0.107,0.939-0.158
					c0.853-0.102,1.481-0.223,1.884-0.363c0.004-0.145,0.006-0.236,0.006-0.275c0-0.43-0.1-0.732-0.299-0.908
					c-0.27-0.238-0.671-0.357-1.203-0.357c-0.497,0-0.864,0.087-1.101,0.261s-0.412,0.481-0.525,0.923l-1.033-0.141
					c0.094-0.441,0.249-0.798,0.464-1.069c0.215-0.271,0.526-0.48,0.933-0.627c0.407-0.146,0.878-0.22,1.415-0.22
					c0.532,0,0.964,0.063,1.297,0.188s0.577,0.282,0.733,0.472c0.157,0.189,0.266,0.429,0.329,0.718
					c0.035,0.18,0.053,0.504,0.053,0.973v1.406c0,0.98,0.022,1.601,0.067,1.86s0.134,0.509,0.267,0.747h-1.104
					C204.36,181.325,204.289,181.069,204.258,180.776z M204.17,178.42c-0.383,0.156-0.958,0.289-1.726,0.398
					c-0.434,0.063-0.741,0.133-0.921,0.211c-0.18,0.078-0.319,0.192-0.417,0.343c-0.098,0.15-0.147,0.317-0.147,0.501
					c0,0.281,0.107,0.516,0.32,0.703c0.213,0.188,0.525,0.281,0.937,0.281c0.407,0,0.769-0.089,1.085-0.267s0.55-0.421,0.699-0.729
					c0.113-0.238,0.17-0.59,0.17-1.055V178.42z"/>
				<path fill="#1F1A17" d="M206.876,181.543v-6.223h0.951v0.885c0.458-0.684,1.119-1.025,1.984-1.025
					c0.375,0,0.721,0.067,1.036,0.202s0.551,0.312,0.708,0.53c0.156,0.219,0.266,0.479,0.329,0.779
					c0.039,0.195,0.059,0.537,0.059,1.025v3.826h-1.057v-3.785c0-0.43-0.041-0.751-0.123-0.964s-0.228-0.383-0.438-0.51
					c-0.209-0.127-0.455-0.19-0.736-0.19c-0.45,0-0.838,0.143-1.165,0.428s-0.49,0.826-0.49,1.623v3.398H206.876z"/>
				<path fill="#1F1A17" d="M215.891,180.6l0.153,0.932c-0.297,0.063-0.563,0.094-0.798,0.094c-0.383,0-0.681-0.061-0.892-0.182
					c-0.211-0.121-0.36-0.28-0.446-0.478c-0.086-0.197-0.129-0.612-0.129-1.245v-3.58h-0.774v-0.82h0.774v-1.541l1.051-0.633v2.174
					h1.062v0.82h-1.062v3.639c0,0.301,0.019,0.494,0.056,0.58s0.098,0.154,0.182,0.205c0.084,0.051,0.204,0.076,0.361,0.076
					C215.544,180.641,215.699,180.627,215.891,180.6z"/>
				<path fill="#1F1A17" d="M219.841,179.686l1.045-0.164c0.059,0.418,0.222,0.738,0.49,0.961s0.643,0.334,1.124,0.334
					c0.485,0,0.845-0.099,1.08-0.296s0.352-0.429,0.352-0.694c0-0.238-0.104-0.426-0.311-0.563c-0.145-0.094-0.505-0.213-1.08-0.357
					c-0.774-0.195-1.312-0.364-1.611-0.507s-0.526-0.34-0.681-0.592c-0.155-0.252-0.232-0.53-0.232-0.835
					c0-0.277,0.063-0.534,0.19-0.771c0.127-0.236,0.3-0.433,0.52-0.589c0.165-0.121,0.388-0.224,0.672-0.308
					c0.283-0.084,0.587-0.126,0.913-0.126c0.489,0,0.918,0.07,1.288,0.211s0.643,0.331,0.819,0.571
					c0.176,0.24,0.297,0.562,0.364,0.964l-1.033,0.141c-0.047-0.32-0.183-0.57-0.408-0.75s-0.543-0.27-0.954-0.27
					c-0.485,0-0.832,0.08-1.039,0.24c-0.207,0.16-0.311,0.348-0.311,0.563c0,0.137,0.043,0.26,0.129,0.369
					c0.086,0.113,0.221,0.207,0.405,0.281c0.105,0.039,0.417,0.129,0.933,0.27c0.748,0.199,1.269,0.362,1.564,0.489
					c0.295,0.127,0.527,0.312,0.695,0.554c0.168,0.242,0.252,0.543,0.252,0.902c0,0.352-0.103,0.683-0.308,0.993
					c-0.206,0.311-0.502,0.551-0.889,0.721c-0.388,0.17-0.826,0.255-1.315,0.255c-0.81,0-1.427-0.168-1.852-0.504
					C220.229,180.844,219.958,180.346,219.841,179.686z"/>
				<path fill="#1F1A17" d="M230.358,181.543v-0.914c-0.485,0.703-1.144,1.055-1.978,1.055c-0.368,0-0.711-0.07-1.03-0.211
					s-0.556-0.317-0.71-0.53c-0.155-0.213-0.263-0.474-0.326-0.782c-0.043-0.207-0.064-0.535-0.064-0.984v-3.855h1.056v3.451
					c0,0.551,0.021,0.922,0.064,1.113c0.067,0.277,0.208,0.495,0.423,0.653c0.215,0.158,0.481,0.237,0.798,0.237
					c0.317,0,0.614-0.081,0.892-0.243c0.277-0.162,0.474-0.383,0.59-0.662c0.115-0.279,0.173-0.685,0.173-1.216v-3.334h1.057v6.223
					H230.358z"/>
				<path fill="#1F1A17" d="M232.982,183.928v-8.607h0.962v0.809c0.227-0.316,0.483-0.554,0.769-0.712
					c0.286-0.158,0.632-0.237,1.039-0.237c0.532,0,1.002,0.137,1.408,0.41c0.407,0.273,0.715,0.659,0.922,1.157
					s0.311,1.044,0.311,1.638c0,0.637-0.114,1.21-0.343,1.72s-0.562,0.9-0.998,1.172s-0.895,0.407-1.376,0.407
					c-0.353,0-0.668-0.074-0.948-0.223c-0.279-0.148-0.51-0.336-0.689-0.563v3.029H232.982z M233.939,178.467
					c0,0.801,0.162,1.393,0.487,1.775c0.324,0.383,0.718,0.574,1.18,0.574c0.47,0,0.871-0.198,1.206-0.595
					c0.334-0.396,0.502-1.011,0.502-1.843c0-0.793-0.164-1.387-0.49-1.781c-0.327-0.395-0.717-0.592-1.171-0.592
					c-0.45,0-0.849,0.21-1.194,0.63S233.939,177.667,233.939,178.467z"/>
				<path fill="#1F1A17" d="M239.667,183.928v-8.607h0.963v0.809c0.227-0.316,0.483-0.554,0.769-0.712
					c0.286-0.158,0.632-0.237,1.039-0.237c0.532,0,1.002,0.137,1.408,0.41c0.407,0.273,0.715,0.659,0.922,1.157
					s0.311,1.044,0.311,1.638c0,0.637-0.114,1.21-0.343,1.72s-0.562,0.9-0.998,1.172s-0.895,0.407-1.376,0.407
					c-0.353,0-0.668-0.074-0.948-0.223c-0.279-0.148-0.51-0.336-0.689-0.563v3.029H239.667z M240.624,178.467
					c0,0.801,0.162,1.393,0.487,1.775c0.324,0.383,0.718,0.574,1.18,0.574c0.47,0,0.871-0.198,1.206-0.595
					c0.334-0.396,0.502-1.011,0.502-1.843c0-0.793-0.164-1.387-0.49-1.781c-0.327-0.395-0.717-0.592-1.171-0.592
					c-0.45,0-0.849,0.21-1.194,0.63C240.796,177.056,240.624,177.667,240.624,178.467z"/>
				<path fill="#1F1A17" d="M246.352,181.543v-8.59h1.057v8.59H246.352z"/>
				<path fill="#1F1A17" d="M249.179,183.94l-0.117-0.99c0.23,0.063,0.433,0.094,0.604,0.094c0.234,0,0.423-0.039,0.563-0.117
					s0.256-0.188,0.347-0.328c0.066-0.105,0.174-0.367,0.322-0.785c0.02-0.059,0.051-0.145,0.094-0.258l-2.365-6.234h1.139
					l1.297,3.604c0.169,0.457,0.319,0.938,0.452,1.441c0.121-0.484,0.267-0.957,0.435-1.418l1.332-3.627h1.057l-2.371,6.328
					c-0.255,0.684-0.452,1.154-0.593,1.412c-0.188,0.348-0.403,0.603-0.646,0.765c-0.243,0.162-0.532,0.243-0.869,0.243
					C249.657,184.069,249.43,184.026,249.179,183.94z"/>
			</g>
		</g>
		<g clip-path="url(#SVGID_58_)">
			<defs>
				<rect id="SVGID_61_" x="188.615" y="170.497" width="78.228" height="34.104"/>
			</defs>
			<clipPath id="SVGID_62_">
				<use xlink:href="#SVGID_61_"  overflow="visible"/>
			</clipPath>
			<g clip-path="url(#SVGID_62_)">
				<path fill="#1F1A17" d="M188.984,193.626l1.045-0.164c0.059,0.418,0.222,0.738,0.49,0.961s0.643,0.334,1.124,0.334
					c0.485,0,0.845-0.099,1.08-0.296s0.352-0.429,0.352-0.694c0-0.238-0.104-0.426-0.311-0.563c-0.145-0.094-0.505-0.213-1.08-0.357
					c-0.774-0.195-1.312-0.364-1.611-0.507s-0.526-0.34-0.681-0.592c-0.155-0.252-0.232-0.53-0.232-0.835
					c0-0.277,0.063-0.534,0.19-0.771c0.127-0.236,0.3-0.433,0.52-0.589c0.165-0.121,0.388-0.224,0.672-0.308
					c0.283-0.084,0.587-0.126,0.913-0.126c0.489,0,0.918,0.07,1.288,0.211s0.643,0.331,0.819,0.571
					c0.176,0.24,0.297,0.562,0.364,0.964l-1.033,0.141c-0.047-0.32-0.183-0.57-0.408-0.75s-0.543-0.27-0.954-0.27
					c-0.485,0-0.832,0.08-1.039,0.24c-0.207,0.16-0.311,0.348-0.311,0.563c0,0.137,0.043,0.26,0.129,0.369
					c0.086,0.113,0.221,0.207,0.405,0.281c0.105,0.039,0.417,0.129,0.933,0.27c0.748,0.199,1.269,0.362,1.564,0.489
					c0.295,0.127,0.527,0.312,0.695,0.554c0.168,0.242,0.252,0.543,0.252,0.902c0,0.352-0.103,0.683-0.308,0.993
					c-0.206,0.311-0.502,0.551-0.889,0.721c-0.388,0.17-0.826,0.255-1.315,0.255c-0.81,0-1.427-0.168-1.852-0.504
					C189.373,194.785,189.102,194.287,188.984,193.626z"/>
				<path fill="#1F1A17" d="M195.423,188.107v-1.213h1.056v1.213H195.423z M195.423,195.484v-6.223h1.056v6.223H195.423z"/>
				<path fill="#1F1A17" d="M202.312,195.484v-0.785c-0.395,0.617-0.976,0.926-1.743,0.926c-0.497,0-0.954-0.137-1.37-0.41
					c-0.417-0.273-0.74-0.655-0.968-1.146c-0.229-0.49-0.344-1.054-0.344-1.69c0-0.621,0.104-1.185,0.311-1.69
					c0.208-0.506,0.519-0.894,0.934-1.163c0.415-0.27,0.878-0.404,1.391-0.404c0.376,0,0.71,0.079,1.004,0.237
					s0.532,0.364,0.716,0.618v-3.082h1.051v8.59H202.312z M198.972,192.378c0,0.797,0.168,1.393,0.505,1.787
					s0.733,0.592,1.191,0.592c0.461,0,0.854-0.188,1.177-0.565s0.484-0.952,0.484-1.726c0-0.852-0.164-1.477-0.493-1.875
					s-0.734-0.598-1.215-0.598c-0.47,0-0.862,0.191-1.177,0.574S198.972,191.554,198.972,192.378z"/>
				<path fill="#1F1A17" d="M209.219,193.48l1.092,0.135c-0.172,0.637-0.491,1.131-0.957,1.482
					c-0.466,0.352-1.061,0.527-1.784,0.527c-0.912,0-1.635-0.28-2.169-0.841s-0.801-1.347-0.801-2.358
					c0-1.047,0.27-1.859,0.81-2.438s1.24-0.867,2.101-0.867c0.833,0,1.514,0.283,2.042,0.85s0.792,1.363,0.792,2.391
					c0,0.063-0.002,0.156-0.006,0.281h-4.648c0.039,0.684,0.233,1.207,0.581,1.57s0.783,0.545,1.303,0.545
					c0.387,0,0.718-0.102,0.992-0.305S209.059,193.925,209.219,193.48z M205.75,191.775h3.48c-0.047-0.523-0.18-0.916-0.399-1.178
					c-0.336-0.406-0.773-0.609-1.309-0.609c-0.485,0-0.893,0.162-1.224,0.486S205.786,191.232,205.75,191.775z"/>
			</g>
		</g>
		<g clip-path="url(#SVGID_58_)">
			<defs>
				<rect id="SVGID_63_" x="188.615" y="170.497" width="78.228" height="34.104"/>
			</defs>
			<clipPath id="SVGID_64_">
				<use xlink:href="#SVGID_63_"  overflow="visible"/>
			</clipPath>
			<g clip-path="url(#SVGID_64_)">
			</g>
		</g>
	</g>
</g>
<g>
</g>
<g>
</g>
<g>
</g>
</svg>
