<?xml version="1.0" encoding="utf-8"?>
<!-- Generator: Adobe Illustrator 16.0.0, SVG Export Plug-In . SVG Version: 6.00 Build 0)  -->
<!DOCTYPE svg PUBLIC "-//W3C//DTD SVG 1.1//EN" "http://www.w3.org/Graphics/SVG/1.1/DTD/svg11.dtd">
<svg version="1.1" id="Layer_1" xmlns="http://www.w3.org/2000/svg" xmlns:xlink="http://www.w3.org/1999/xlink" x="0px" y="0px"
	 width="291.11px" height="162.001px" viewBox="0 0 291.11 162.001" enable-background="new 0 0 291.11 162.001"
	 xml:space="preserve">
<g>
	<defs>
		<rect id="SVGID_1_" x="0.001" width="291.109" height="162.001"/>
	</defs>
	<clipPath id="SVGID_2_">
		<use xlink:href="#SVGID_1_"  overflow="visible"/>
	</clipPath>
	<g clip-path="url(#SVGID_2_)">
	</g>
	
		<line clip-path="url(#SVGID_2_)" fill="none" stroke="#000000" stroke-width="0.7224" stroke-linejoin="round" stroke-miterlimit="10" x1="15.591" y1="92.87" x2="15.591" y2="116.636"/>
	
		<line clip-path="url(#SVGID_2_)" fill="none" stroke="#000000" stroke-width="0.7224" stroke-linejoin="round" stroke-miterlimit="10" x1="44.353" y1="85.679" x2="44.353" y2="116.636"/>
	
		<line clip-path="url(#SVGID_2_)" fill="none" stroke="#000000" stroke-width="0.7224" stroke-linejoin="round" stroke-miterlimit="10" x1="15.591" y1="116.163" x2="44.353" y2="116.163"/>
	
		<line clip-path="url(#SVGID_2_)" fill="none" stroke="#000000" stroke-width="0.7224" stroke-linejoin="round" stroke-miterlimit="10" x1="15.591" y1="92.87" x2="44.353" y2="86.4"/>
	<polygon clip-path="url(#SVGID_2_)" fill-rule="evenodd" clip-rule="evenodd" points="34.999,76.795 34.999,76.57 34.774,76.57 
		34.524,76.57 34.3,76.795 34.3,79.682 34.524,79.682 34.524,79.931 34.774,79.931 34.999,79.931 34.999,79.682 34.999,79.433 	"/>
	<polygon clip-path="url(#SVGID_2_)" fill-rule="evenodd" clip-rule="evenodd" points="34.999,81.598 34.999,81.598 34.999,81.349 
		34.774,81.349 34.524,81.349 34.524,81.598 34.3,81.598 34.3,81.847 34.3,84.733 34.524,84.733 34.524,84.957 34.774,84.957 
		34.999,84.957 34.999,84.733 34.999,84.484 	"/>
	<polygon clip-path="url(#SVGID_2_)" fill-rule="evenodd" clip-rule="evenodd" points="34.999,86.649 34.999,86.649 34.999,86.4 
		34.774,86.4 34.524,86.4 34.524,86.649 34.3,86.649 34.3,86.873 34.524,89.76 34.524,90.009 34.774,90.009 34.999,90.009 
		34.999,89.76 35.248,89.76 35.248,89.511 	"/>
	<polygon clip-path="url(#SVGID_2_)" fill-rule="evenodd" clip-rule="evenodd" points="35.248,91.676 34.999,91.676 34.999,91.452 
		34.774,91.452 34.524,91.452 34.524,91.676 34.524,94.812 34.774,95.035 34.999,94.812 35.248,94.812 35.248,94.563 	"/>
	<polygon clip-path="url(#SVGID_2_)" fill-rule="evenodd" clip-rule="evenodd" points="35.248,96.728 34.999,96.479 34.774,96.479 
		34.524,96.479 34.524,96.728 34.524,99.59 34.524,99.838 34.774,100.087 34.999,99.838 35.248,99.59 	"/>
	
		<line clip-path="url(#SVGID_2_)" fill="none" stroke="#000000" stroke-width="0.7224" stroke-linejoin="round" stroke-miterlimit="10" x1="63.311" y1="69.604" x2="63.536" y2="100.56"/>
	<polygon clip-path="url(#SVGID_2_)" fill-rule="evenodd" clip-rule="evenodd" points="34.774,99.59 34.774,99.59 34.524,99.838 
		34.3,100.087 34.524,100.087 34.524,100.312 34.774,100.312 37.418,100.312 37.642,100.312 37.892,100.312 37.892,100.087 
		37.892,99.838 37.642,99.838 37.642,99.59 	"/>
	<polygon clip-path="url(#SVGID_2_)" fill-rule="evenodd" clip-rule="evenodd" points="39.813,99.59 39.563,99.59 39.563,99.838 
		39.314,99.838 39.314,100.087 39.314,100.312 39.563,100.312 42.432,100.312 42.682,100.312 42.931,100.312 42.931,100.087 
		42.931,99.838 42.682,99.838 42.432,99.59 	"/>
	<polygon clip-path="url(#SVGID_2_)" fill-rule="evenodd" clip-rule="evenodd" points="44.852,99.59 44.602,99.59 44.602,99.838 
		44.353,99.838 44.353,100.087 44.353,100.312 44.602,100.312 47.471,100.312 47.72,100.312 47.944,100.312 47.944,100.087 
		47.944,99.838 47.72,99.838 47.72,99.59 	"/>
	<polygon clip-path="url(#SVGID_2_)" fill-rule="evenodd" clip-rule="evenodd" points="49.642,99.59 49.642,99.59 49.392,99.838 
		49.392,100.087 49.392,100.312 49.642,100.312 52.51,100.312 52.759,100.312 52.984,100.087 52.759,99.838 52.759,99.59 	"/>
	<polygon clip-path="url(#SVGID_2_)" fill-rule="evenodd" clip-rule="evenodd" points="54.904,99.59 54.68,99.59 54.43,99.838 
		54.43,100.087 54.43,100.312 54.68,100.312 57.549,100.312 57.797,100.312 58.022,100.087 57.797,99.838 57.549,99.59 	"/>
	<polygon clip-path="url(#SVGID_2_)" fill-rule="evenodd" clip-rule="evenodd" points="59.694,99.59 59.694,99.59 59.47,99.838 
		59.47,100.087 59.47,100.312 59.694,100.312 62.587,100.312 62.812,100.312 63.062,100.087 62.812,99.838 62.587,99.59 	"/>
	
		<line clip-path="url(#SVGID_2_)" fill="none" stroke="#000000" stroke-width="0.7224" stroke-linejoin="round" stroke-miterlimit="10" x1="34.774" y1="76.795" x2="63.311" y2="70.324"/>
	
		<line clip-path="url(#SVGID_2_)" fill="none" stroke="#000000" stroke-width="0.7224" stroke-linejoin="round" stroke-miterlimit="10" x1="15.591" y1="92.87" x2="34.774" y2="76.795"/>
	
		<line clip-path="url(#SVGID_2_)" fill="none" stroke="#000000" stroke-width="0.7224" stroke-linejoin="round" stroke-miterlimit="10" x1="44.353" y1="86.4" x2="63.311" y2="70.324"/>
	
		<line clip-path="url(#SVGID_2_)" fill="none" stroke="#000000" stroke-width="0.7224" stroke-linejoin="round" stroke-miterlimit="10" x1="44.353" y1="116.163" x2="63.311" y2="100.087"/>
	<polygon clip-path="url(#SVGID_2_)" fill-rule="evenodd" clip-rule="evenodd" points="16.065,115.192 15.816,115.441 
		15.816,115.69 16.065,115.69 16.065,115.914 16.315,115.914 18.46,113.998 18.709,113.998 18.709,113.749 18.709,113.525 
		18.46,113.276 18.235,113.276 	"/>
	<polygon clip-path="url(#SVGID_2_)" fill-rule="evenodd" clip-rule="evenodd" points="19.907,111.833 19.657,112.082 
		19.657,112.33 19.657,112.555 19.907,112.555 19.907,112.804 20.131,112.804 20.131,112.555 22.302,110.888 22.551,110.639 
		22.551,110.39 22.302,110.166 22.052,110.166 	"/>
	<polygon clip-path="url(#SVGID_2_)" fill-rule="evenodd" clip-rule="evenodd" points="23.748,108.723 23.499,108.971 
		23.499,109.195 23.748,109.444 23.973,109.444 26.143,107.527 26.368,107.527 26.368,107.279 26.368,107.03 26.143,107.03 
		26.143,106.806 25.894,106.806 25.894,107.03 	"/>
	<polygon clip-path="url(#SVGID_2_)" fill-rule="evenodd" clip-rule="evenodd" points="27.564,105.611 27.341,105.611 
		27.341,105.836 27.341,106.084 27.564,106.084 27.564,106.333 27.814,106.333 27.814,106.084 29.984,104.393 30.209,104.168 
		30.209,103.92 29.984,103.671 29.735,103.671 	"/>
	<polygon clip-path="url(#SVGID_2_)" fill-rule="evenodd" clip-rule="evenodd" points="31.407,102.252 31.182,102.477 
		31.182,102.725 31.407,102.949 31.655,102.949 33.801,101.033 34.05,101.033 34.05,100.809 34.05,100.56 33.801,100.56 
		33.801,100.312 33.576,100.312 33.576,100.56 	"/>
	
		<line clip-path="url(#SVGID_2_)" fill="none" stroke="#000000" stroke-width="0.7224" stroke-linejoin="round" stroke-miterlimit="10" x1="47.944" y1="89.287" x2="60.417" y2="79.209"/>
	
		<line clip-path="url(#SVGID_2_)" fill="none" stroke="#000000" stroke-width="0.7224" stroke-linejoin="round" stroke-miterlimit="10" x1="48.917" y1="101.033" x2="60.417" y2="91.203"/>
	
		<line clip-path="url(#SVGID_2_)" fill="none" stroke="#000000" stroke-width="0.7224" stroke-linejoin="round" stroke-miterlimit="10" x1="60.417" y1="79.209" x2="60.417" y2="91.676"/>
	
		<line clip-path="url(#SVGID_2_)" fill="none" stroke="#000000" stroke-width="0.7224" stroke-linejoin="round" stroke-miterlimit="10" x1="48.194" y1="89.76" x2="48.194" y2="102.252"/>
	
		<line clip-path="url(#SVGID_2_)" fill="none" stroke="#000000" stroke-width="0.7224" stroke-linejoin="round" stroke-miterlimit="10" x1="187.738" y1="36.949" x2="224.175" y2="0.468"/>
	
		<line clip-path="url(#SVGID_2_)" fill="none" stroke="#000000" stroke-width="0.7224" stroke-linejoin="round" stroke-miterlimit="10" x1="187.738" y1="36.232" x2="212.206" y2="36.232"/>
	
		<line clip-path="url(#SVGID_2_)" fill="none" stroke="#000000" stroke-width="0.7224" stroke-linejoin="round" stroke-miterlimit="10" x1="212.935" y1="35.755" x2="224.175" y2="24.237"/>
	
		<line clip-path="url(#SVGID_2_)" fill="none" stroke="#000000" stroke-width="0.7224" stroke-linejoin="round" stroke-miterlimit="10" x1="224.175" y1="24.237" x2="242.893" y2="24.486"/>
	
		<line clip-path="url(#SVGID_2_)" fill="none" stroke="#000000" stroke-width="0.7224" stroke-linejoin="round" stroke-miterlimit="10" x1="243.362" y1="23.76" x2="266.163" y2="0.965"/>
	
		<line clip-path="url(#SVGID_2_)" fill="none" stroke="#000000" stroke-width="0.7224" stroke-linejoin="round" stroke-miterlimit="10" x1="224.175" y1="0.468" x2="267.361" y2="0.468"/>
	
		<line clip-path="url(#SVGID_2_)" fill="none" stroke="#000000" stroke-width="0.7224" stroke-linejoin="round" stroke-miterlimit="10" x1="187.738" y1="54.717" x2="212.206" y2="54.717"/>
	
		<line clip-path="url(#SVGID_2_)" fill="none" stroke="#000000" stroke-width="0.7224" stroke-linejoin="round" stroke-miterlimit="10" x1="188.237" y1="36.232" x2="188.237" y2="54.717"/>
	
		<line clip-path="url(#SVGID_2_)" fill="none" stroke="#000000" stroke-width="0.7224" stroke-linejoin="round" stroke-miterlimit="10" x1="212.685" y1="36.232" x2="212.685" y2="54.717"/>
	
		<line clip-path="url(#SVGID_2_)" fill="none" stroke="#000000" stroke-width="0.7224" stroke-linejoin="round" stroke-miterlimit="10" x1="224.674" y1="24.954" x2="224.674" y2="43.449"/>
	
		<line clip-path="url(#SVGID_2_)" fill="none" stroke="#000000" stroke-width="0.7224" stroke-linejoin="round" stroke-miterlimit="10" x1="243.142" y1="24.954" x2="243.142" y2="43.449"/>
	
		<line clip-path="url(#SVGID_2_)" fill="none" stroke="#000000" stroke-width="0.7224" stroke-linejoin="round" stroke-miterlimit="10" x1="266.382" y1="0.965" x2="266.632" y2="19.43"/>
	
		<line clip-path="url(#SVGID_2_)" fill="none" stroke="#000000" stroke-width="0.7224" stroke-linejoin="round" stroke-miterlimit="10" x1="243.362" y1="43.2" x2="266.163" y2="20.405"/>
	
		<line clip-path="url(#SVGID_2_)" fill="none" stroke="#000000" stroke-width="0.7224" stroke-linejoin="round" stroke-miterlimit="10" x1="224.175" y1="43.449" x2="242.893" y2="43.449"/>
	
		<line clip-path="url(#SVGID_2_)" fill="none" stroke="#000000" stroke-width="0.7224" stroke-linejoin="round" stroke-miterlimit="10" x1="212.935" y1="54.717" x2="224.175" y2="43.449"/>
	<polygon clip-path="url(#SVGID_2_)" fill-rule="evenodd" clip-rule="evenodd" points="187.987,54.249 187.987,54.249 
		187.738,54.468 187.987,54.468 187.987,54.717 188.237,54.966 188.457,54.966 190.383,52.806 190.633,52.557 190.383,52.328 
		190.134,52.079 189.904,52.328 	"/>
	<polygon clip-path="url(#SVGID_2_)" fill-rule="evenodd" clip-rule="evenodd" points="191.581,50.636 191.352,50.885 
		191.352,51.113 191.581,51.362 191.831,51.362 193.967,49.192 194.217,48.943 193.967,48.725 193.748,48.476 193.498,48.725 	"/>
	<polygon clip-path="url(#SVGID_2_)" fill-rule="evenodd" clip-rule="evenodd" points="195.165,47.032 194.945,47.281 
		194.945,47.53 195.165,47.749 195.415,47.749 197.561,45.589 197.561,45.36 197.561,45.111 197.341,45.111 197.092,45.111 	"/>
	<polygon clip-path="url(#SVGID_2_)" fill-rule="evenodd" clip-rule="evenodd" points="198.759,43.449 198.539,43.668 
		198.29,43.668 198.29,43.917 198.539,43.917 198.759,44.166 199.008,44.166 201.185,42.006 201.185,41.757 201.185,41.527 
		200.935,41.527 200.686,41.527 	"/>
	<polygon clip-path="url(#SVGID_2_)" fill-rule="evenodd" clip-rule="evenodd" points="202.133,40.084 201.883,40.084 
		201.883,40.313 201.883,40.563 202.133,40.563 202.382,40.563 202.602,40.563 204.519,38.641 204.769,38.393 204.769,38.144 
		204.519,38.144 204.299,37.925 204.05,38.144 	"/>
	<polygon clip-path="url(#SVGID_2_)" fill-rule="evenodd" clip-rule="evenodd" points="205.717,36.481 205.497,36.481 
		205.497,36.729 205.497,36.949 205.717,37.197 205.966,37.197 206.196,37.197 208.113,35.038 208.362,35.038 208.362,34.789 
		208.362,34.56 208.113,34.56 207.893,34.56 207.644,34.56 	"/>
	<polygon clip-path="url(#SVGID_2_)" fill-rule="evenodd" clip-rule="evenodd" points="209.311,32.868 209.091,33.116 
		209.091,33.365 209.311,33.595 209.56,33.595 209.81,33.595 211.736,31.425 211.956,31.425 211.956,31.205 211.956,30.957 
		211.736,30.957 211.487,30.957 211.237,30.957 	"/>
	<polygon clip-path="url(#SVGID_2_)" fill-rule="evenodd" clip-rule="evenodd" points="212.685,29.514 212.685,29.514 
		212.685,29.762 212.685,30.011 212.935,30.011 213.154,30.011 215.071,28.07 215.32,27.841 215.32,27.592 215.071,27.344 
		214.851,27.344 	"/>
	<polygon clip-path="url(#SVGID_2_)" fill-rule="evenodd" clip-rule="evenodd" points="216.269,25.93 216.269,25.93 216.269,26.148 
		216.269,26.397 216.518,26.397 216.748,26.397 218.665,24.486 218.914,24.237 218.914,23.989 218.665,23.76 218.445,23.76 	"/>
	<polygon clip-path="url(#SVGID_2_)" fill-rule="evenodd" clip-rule="evenodd" points="219.862,22.316 219.862,22.316 
		219.643,22.565 219.862,22.794 220.112,23.043 220.362,22.794 222.258,20.873 222.508,20.624 222.508,20.405 222.258,20.156 
		222.039,20.156 	"/>
	<polygon clip-path="url(#SVGID_2_)" fill-rule="evenodd" clip-rule="evenodd" points="223.476,18.962 223.227,18.962 
		223.227,19.211 223.476,19.43 223.706,19.43 224.904,18.484 224.904,18.235 224.904,17.986 224.674,17.986 224.674,17.768 
		224.425,17.986 	"/>
	<polygon clip-path="url(#SVGID_2_)" fill-rule="evenodd" clip-rule="evenodd" points="224.904,1.194 224.904,0.965 224.674,0.965 
		224.674,0.717 224.425,0.965 224.175,0.965 224.175,3.832 224.425,4.081 224.674,4.33 224.904,4.081 224.904,3.832 	"/>
	<polygon clip-path="url(#SVGID_2_)" fill-rule="evenodd" clip-rule="evenodd" points="224.904,5.992 224.904,5.992 224.904,5.743 
		224.674,5.743 224.425,5.743 224.175,5.992 224.175,8.879 224.425,9.128 224.674,9.356 224.904,9.128 224.904,8.879 	"/>
	<polygon clip-path="url(#SVGID_2_)" fill-rule="evenodd" clip-rule="evenodd" points="224.904,11.049 224.904,11.049 224.904,10.8 
		224.674,10.8 224.425,10.8 224.175,11.049 224.175,13.905 224.425,14.154 224.674,14.403 224.904,14.154 224.904,13.905 	"/>
	<polygon clip-path="url(#SVGID_2_)" fill-rule="evenodd" clip-rule="evenodd" points="224.904,16.075 224.904,16.075 
		224.904,15.847 224.674,15.847 224.425,15.847 224.175,16.075 224.175,18.962 224.425,19.211 224.674,19.211 224.904,19.211 
		224.904,18.962 	"/>
	<polygon clip-path="url(#SVGID_2_)" fill-rule="evenodd" clip-rule="evenodd" points="224.425,18.962 224.175,18.962 
		224.175,19.211 223.956,19.211 223.956,19.43 224.175,19.43 224.175,19.679 227.07,19.679 227.3,19.679 227.3,19.43 227.549,19.43 
		227.549,19.211 227.3,19.211 227.07,18.962 	"/>
	<polygon clip-path="url(#SVGID_2_)" fill-rule="evenodd" clip-rule="evenodd" points="229.216,18.962 229.216,18.962 
		228.997,19.211 228.997,19.43 228.997,19.679 229.216,19.679 232.111,19.679 232.341,19.679 232.341,19.43 232.591,19.43 
		232.591,19.211 232.341,19.211 232.111,18.962 	"/>
	<polygon clip-path="url(#SVGID_2_)" fill-rule="evenodd" clip-rule="evenodd" points="234.257,18.962 234.257,18.962 
		234.008,19.211 234.008,19.43 234.008,19.679 234.257,19.679 237.123,19.679 237.373,19.679 237.373,19.43 237.622,19.43 
		237.622,19.211 237.373,19.211 237.123,18.962 	"/>
	<polygon clip-path="url(#SVGID_2_)" fill-rule="evenodd" clip-rule="evenodd" points="239.299,18.962 239.299,18.962 
		239.049,19.211 239.049,19.43 239.049,19.679 239.299,19.679 242.165,19.679 242.414,19.679 242.414,19.43 242.664,19.43 
		242.664,19.211 242.414,19.211 242.165,18.962 	"/>
	<polygon clip-path="url(#SVGID_2_)" fill-rule="evenodd" clip-rule="evenodd" points="244.331,18.962 244.331,18.962 
		244.081,19.211 244.081,19.43 244.081,19.679 244.331,19.679 247.206,19.679 247.455,19.679 247.455,19.43 247.674,19.43 
		247.674,19.211 247.455,19.211 247.206,18.962 	"/>
	<polygon clip-path="url(#SVGID_2_)" fill-rule="evenodd" clip-rule="evenodd" points="249.372,18.962 249.372,18.962 
		249.123,19.211 249.123,19.43 249.123,19.679 249.372,19.679 252.247,19.679 252.497,19.43 252.716,19.43 252.716,19.211 
		252.497,19.211 252.247,19.211 252.247,18.962 	"/>
	<polygon clip-path="url(#SVGID_2_)" fill-rule="evenodd" clip-rule="evenodd" points="254.413,18.962 254.413,18.962 
		254.164,19.211 254.164,19.43 254.164,19.679 254.413,19.679 257.029,19.679 257.278,19.679 257.507,19.679 257.507,19.43 
		257.757,19.43 257.757,19.211 257.507,19.211 257.278,18.962 	"/>
	<polygon clip-path="url(#SVGID_2_)" fill-rule="evenodd" clip-rule="evenodd" points="259.424,18.962 259.205,18.962 
		259.205,19.211 258.956,19.211 258.956,19.43 259.205,19.679 262.32,19.679 262.549,19.679 262.549,19.43 262.549,19.211 
		262.32,18.962 	"/>
	<polygon clip-path="url(#SVGID_2_)" fill-rule="evenodd" clip-rule="evenodd" points="264.465,18.962 264.236,18.962 
		264.236,19.211 263.987,19.211 263.987,19.43 264.236,19.679 266.632,19.679 266.862,19.43 267.111,19.211 266.862,19.211 
		266.862,18.962 	"/>
	
		<rect x="191.831" y="40.313" clip-path="url(#SVGID_2_)" fill="none" stroke="#000000" stroke-width="0.7224" stroke-linejoin="round" stroke-miterlimit="10" width="16.289" height="8.162"/>
	
		<rect x="228.747" y="29.035" clip-path="url(#SVGID_2_)" fill="none" stroke="#000000" stroke-width="0.7224" stroke-linejoin="round" stroke-miterlimit="10" width="9.354" height="7.914"/>
	
		<line clip-path="url(#SVGID_2_)" fill="none" stroke="#000000" stroke-width="0.7224" stroke-linejoin="round" stroke-miterlimit="10" x1="200.935" y1="24.237" x2="225.373" y2="24.486"/>
	<rect x="223.706" y="42.229" clip-path="url(#SVGID_2_)" fill-rule="evenodd" clip-rule="evenodd" width="0.973" height="0.971"/>
	<rect x="221.789" y="42.229" clip-path="url(#SVGID_2_)" fill-rule="evenodd" clip-rule="evenodd" width="0.973" height="0.971"/>
	<rect x="219.862" y="42.229" clip-path="url(#SVGID_2_)" fill-rule="evenodd" clip-rule="evenodd" width="0.973" height="0.971"/>
	<rect x="217.946" y="42.229" clip-path="url(#SVGID_2_)" fill-rule="evenodd" clip-rule="evenodd" width="0.973" height="0.971"/>
	<rect x="216.049" y="42.229" clip-path="url(#SVGID_2_)" fill-rule="evenodd" clip-rule="evenodd" width="0.948" height="0.971"/>
	<rect x="214.123" y="42.229" clip-path="url(#SVGID_2_)" fill-rule="evenodd" clip-rule="evenodd" width="0.948" height="0.971"/>
	<rect x="212.206" y="42.229" clip-path="url(#SVGID_2_)" fill-rule="evenodd" clip-rule="evenodd" width="0.948" height="0.971"/>
	<rect x="210.289" y="42.229" clip-path="url(#SVGID_2_)" fill-rule="evenodd" clip-rule="evenodd" width="0.948" height="0.971"/>
	<rect x="208.362" y="42.229" clip-path="url(#SVGID_2_)" fill-rule="evenodd" clip-rule="evenodd" width="0.948" height="0.971"/>
	<rect x="206.446" y="42.229" clip-path="url(#SVGID_2_)" fill-rule="evenodd" clip-rule="evenodd" width="0.973" height="0.971"/>
	<rect x="204.519" y="42.229" clip-path="url(#SVGID_2_)" fill-rule="evenodd" clip-rule="evenodd" width="0.973" height="0.971"/>
	<rect x="202.602" y="42.229" clip-path="url(#SVGID_2_)" fill-rule="evenodd" clip-rule="evenodd" width="0.973" height="0.971"/>
	<rect x="200.686" y="42.229" clip-path="url(#SVGID_2_)" fill-rule="evenodd" clip-rule="evenodd" width="0.973" height="0.971"/>
	
		<line clip-path="url(#SVGID_2_)" fill="none" stroke="#000000" stroke-width="0.7224" stroke-linejoin="round" stroke-miterlimit="10" x1="211.956" y1="71.992" x2="269.507" y2="71.992"/>
	
		<line clip-path="url(#SVGID_2_)" fill="none" stroke="#000000" stroke-width="0.7224" stroke-linejoin="round" stroke-miterlimit="10" x1="268.559" y1="72.489" x2="252.965" y2="88.093"/>
	
		<line clip-path="url(#SVGID_2_)" fill="none" stroke="#000000" stroke-width="0.7224" stroke-linejoin="round" stroke-miterlimit="10" x1="211.956" y1="71.992" x2="196.612" y2="87.595"/>
	
		<line clip-path="url(#SVGID_2_)" fill="none" stroke="#000000" stroke-width="0.7224" stroke-linejoin="round" stroke-miterlimit="10" x1="196.612" y1="87.595" x2="215.071" y2="87.595"/>
	
		<line clip-path="url(#SVGID_2_)" fill="none" stroke="#000000" stroke-width="0.7224" stroke-linejoin="round" stroke-miterlimit="10" x1="234.257" y1="88.093" x2="252.716" y2="88.093"/>
	
		<line clip-path="url(#SVGID_2_)" fill="none" stroke="#000000" stroke-width="0.7224" stroke-linejoin="round" stroke-miterlimit="10" x1="214.352" y1="88.093" x2="197.092" y2="105.362"/>
	
		<line clip-path="url(#SVGID_2_)" fill="none" stroke="#000000" stroke-width="0.7224" stroke-linejoin="round" stroke-miterlimit="10" x1="234.257" y1="101.755" x2="217.946" y2="117.83"/>
	
		<line clip-path="url(#SVGID_2_)" fill="none" stroke="#000000" stroke-width="0.7224" stroke-linejoin="round" stroke-miterlimit="10" x1="252.716" y1="87.595" x2="252.716" y2="100.56"/>
	
		<line clip-path="url(#SVGID_2_)" fill="none" stroke="#000000" stroke-width="0.7224" stroke-linejoin="round" stroke-miterlimit="10" x1="268.779" y1="72.489" x2="269.028" y2="85.679"/>
	
		<line clip-path="url(#SVGID_2_)" fill="none" stroke="#000000" stroke-width="0.7224" stroke-linejoin="round" stroke-miterlimit="10" x1="196.612" y1="87.595" x2="196.612" y2="100.56"/>
	
		<line clip-path="url(#SVGID_2_)" fill="none" stroke="#000000" stroke-width="0.7224" stroke-linejoin="round" stroke-miterlimit="10" x1="197.092" y1="105.362" x2="197.092" y2="118.552"/>
	
		<line clip-path="url(#SVGID_2_)" fill="none" stroke="#000000" stroke-width="0.7224" stroke-linejoin="round" stroke-miterlimit="10" x1="217.467" y1="106.084" x2="217.467" y2="119.05"/>
	
		<line clip-path="url(#SVGID_2_)" fill="none" stroke="#000000" stroke-width="0.7224" stroke-linejoin="round" stroke-miterlimit="10" x1="198.29" y1="105.362" x2="216.748" y2="105.362"/>
	
		<line clip-path="url(#SVGID_2_)" fill="none" stroke="#000000" stroke-width="0.7224" stroke-linejoin="round" stroke-miterlimit="10" x1="234.257" y1="88.093" x2="234.257" y2="101.281"/>
	
		<line clip-path="url(#SVGID_2_)" fill="none" stroke="#000000" stroke-width="0.7224" stroke-linejoin="round" stroke-miterlimit="10" x1="215.071" y1="88.093" x2="215.071" y2="101.281"/>
	
		<line clip-path="url(#SVGID_2_)" fill="none" stroke="#000000" stroke-width="0.7224" stroke-linejoin="round" stroke-miterlimit="10" x1="196.612" y1="119.05" x2="217.467" y2="119.05"/>
	
		<line clip-path="url(#SVGID_2_)" fill="none" stroke="#000000" stroke-width="0.7224" stroke-linejoin="round" stroke-miterlimit="10" x1="234.257" y1="101.281" x2="252.716" y2="101.281"/>
	
		<line clip-path="url(#SVGID_2_)" fill="none" stroke="#000000" stroke-width="0.7224" stroke-linejoin="round" stroke-miterlimit="10" x1="196.612" y1="100.56" x2="202.602" y2="100.809"/>
	<polygon clip-path="url(#SVGID_2_)" fill-rule="evenodd" clip-rule="evenodd" points="202.602,100.312 202.602,100.312 
		202.382,100.312 202.382,100.56 202.133,100.56 202.382,100.809 202.602,101.033 205.248,101.033 205.497,101.033 205.497,100.809 
		205.717,100.809 205.717,100.56 205.497,100.56 205.497,100.312 205.248,100.312 	"/>
	<polygon clip-path="url(#SVGID_2_)" fill-rule="evenodd" clip-rule="evenodd" points="207.414,100.312 207.414,100.312 
		207.165,100.56 207.165,100.809 207.414,101.033 210.289,101.033 210.509,101.033 210.758,100.809 210.758,100.56 210.509,100.312 
		210.289,100.312 	"/>
	<polygon clip-path="url(#SVGID_2_)" fill-rule="evenodd" clip-rule="evenodd" points="212.435,100.312 212.435,100.312 
		212.206,100.312 212.206,100.56 212.206,100.809 212.206,101.033 212.435,101.033 214.352,101.033 214.602,100.809 214.851,100.56 
		214.602,100.56 214.602,100.312 	"/>
	
		<line clip-path="url(#SVGID_2_)" fill="none" stroke="#000000" stroke-width="0.7224" stroke-linejoin="round" stroke-miterlimit="10" x1="268.309" y1="86.151" x2="252.716" y2="101.53"/>
	<polygon clip-path="url(#SVGID_2_)" fill-rule="evenodd" clip-rule="evenodd" points="214.352,101.53 214.352,101.281 
		214.352,101.033 214.123,100.809 213.873,101.033 209.81,105.114 209.81,105.362 209.81,105.611 210.04,105.611 210.289,105.611 
		210.289,105.362 	"/>
	<polygon clip-path="url(#SVGID_2_)" fill-rule="evenodd" clip-rule="evenodd" points="208.841,107.03 208.841,106.806 
		208.841,106.558 208.612,106.558 208.362,106.558 204.05,110.639 204.05,110.888 204.299,111.111 204.299,111.36 204.519,111.36 
		204.769,111.111 204.769,110.888 	"/>
	<polygon clip-path="url(#SVGID_2_)" fill-rule="evenodd" clip-rule="evenodd" points="203.102,112.555 203.321,112.555 
		203.321,112.33 203.102,112.082 202.852,111.833 202.852,112.082 202.602,112.082 198.539,116.163 198.539,116.412 
		198.539,116.636 198.759,116.636 199.008,116.636 199.258,116.636 	"/>
	
		<line clip-path="url(#SVGID_2_)" fill="none" stroke="#000000" stroke-width="0.7224" stroke-linejoin="round" stroke-miterlimit="10" x1="233.529" y1="88.789" x2="216.269" y2="106.084"/>
	<rect x="215.55" y="87.122" clip-path="url(#SVGID_2_)" fill-rule="evenodd" clip-rule="evenodd" width="0.973" height="0.971"/>
	<rect x="217.716" y="87.122" clip-path="url(#SVGID_2_)" fill-rule="evenodd" clip-rule="evenodd" width="0.723" height="0.971"/>
	<rect x="219.393" y="87.122" clip-path="url(#SVGID_2_)" fill-rule="evenodd" clip-rule="evenodd" width="0.973" height="0.971"/>
	<rect x="221.31" y="87.122" clip-path="url(#SVGID_2_)" fill-rule="evenodd" clip-rule="evenodd" width="0.948" height="0.971"/>
	<rect x="223.227" y="87.122" clip-path="url(#SVGID_2_)" fill-rule="evenodd" clip-rule="evenodd" width="0.948" height="0.971"/>
	<rect x="225.153" y="87.122" clip-path="url(#SVGID_2_)" fill-rule="evenodd" clip-rule="evenodd" width="0.948" height="0.971"/>
	<rect x="227.07" y="87.122" clip-path="url(#SVGID_2_)" fill-rule="evenodd" clip-rule="evenodd" width="0.948" height="0.971"/>
	<rect x="228.997" y="87.122" clip-path="url(#SVGID_2_)" fill-rule="evenodd" clip-rule="evenodd" width="0.948" height="0.971"/>
	<rect x="230.914" y="87.122" clip-path="url(#SVGID_2_)" fill-rule="evenodd" clip-rule="evenodd" width="0.948" height="0.971"/>
	<rect x="232.81" y="87.122" clip-path="url(#SVGID_2_)" fill-rule="evenodd" clip-rule="evenodd" width="0.973" height="0.971"/>
	<rect x="215.55" y="100.809" clip-path="url(#SVGID_2_)" fill-rule="evenodd" clip-rule="evenodd" width="0.973" height="0.946"/>
	<rect x="217.716" y="100.809" clip-path="url(#SVGID_2_)" fill-rule="evenodd" clip-rule="evenodd" width="0.723" height="0.946"/>
	<rect x="219.393" y="100.809" clip-path="url(#SVGID_2_)" fill-rule="evenodd" clip-rule="evenodd" width="0.973" height="0.946"/>
	<rect x="221.31" y="100.809" clip-path="url(#SVGID_2_)" fill-rule="evenodd" clip-rule="evenodd" width="0.948" height="0.946"/>
	<rect x="223.227" y="100.809" clip-path="url(#SVGID_2_)" fill-rule="evenodd" clip-rule="evenodd" width="0.948" height="0.946"/>
	<rect x="225.153" y="100.809" clip-path="url(#SVGID_2_)" fill-rule="evenodd" clip-rule="evenodd" width="0.948" height="0.946"/>
	<rect x="227.07" y="100.809" clip-path="url(#SVGID_2_)" fill-rule="evenodd" clip-rule="evenodd" width="0.948" height="0.946"/>
	<rect x="228.997" y="100.809" clip-path="url(#SVGID_2_)" fill-rule="evenodd" clip-rule="evenodd" width="0.948" height="0.946"/>
	<rect x="230.914" y="100.809" clip-path="url(#SVGID_2_)" fill-rule="evenodd" clip-rule="evenodd" width="0.948" height="0.946"/>
	<rect x="232.81" y="100.809" clip-path="url(#SVGID_2_)" fill-rule="evenodd" clip-rule="evenodd" width="0.973" height="0.946"/>
	
		<rect x="238.321" y="90.009" clip-path="url(#SVGID_2_)" fill="none" stroke="#000000" stroke-width="0.7224" stroke-linejoin="round" stroke-miterlimit="10" width="9.354" height="6.719"/>
	
		<rect x="202.602" y="107.752" clip-path="url(#SVGID_2_)" fill="none" stroke="#000000" stroke-width="0.7224" stroke-linejoin="round" stroke-miterlimit="10" width="9.13" height="6.719"/>
	
		<polygon clip-path="url(#SVGID_2_)" fill="none" stroke="#000000" stroke-width="0.7224" stroke-linejoin="round" stroke-miterlimit="10" points="
		29.735,0.468 10.802,19.211 10.802,47.032 55.378,47.032 74.086,28.318 74.086,0.468 	"/>
	
		<polyline clip-path="url(#SVGID_2_)" fill="none" stroke="#000000" stroke-width="0.7224" stroke-linejoin="round" stroke-miterlimit="10" points="
		10.802,19.211 55.378,19.211 74.086,0.468 	"/>
	
		<line clip-path="url(#SVGID_2_)" fill="none" stroke="#000000" stroke-width="0.7224" stroke-linejoin="round" stroke-miterlimit="10" x1="55.378" y1="19.211" x2="55.378" y2="47.032"/>
	<polygon clip-path="url(#SVGID_2_)" fill-rule="evenodd" clip-rule="evenodd" points="10.303,46.555 10.303,46.555 10.079,46.804 
		10.303,46.804 10.303,47.032 10.553,47.032 10.802,47.032 12.698,45.111 12.698,44.893 12.948,44.893 12.948,44.644 12.698,44.644 
		12.698,44.395 12.474,44.395 12.224,44.395 	"/>
	<polygon clip-path="url(#SVGID_2_)" fill-rule="evenodd" clip-rule="evenodd" points="13.92,42.951 13.67,42.951 13.67,43.2 
		13.67,43.449 13.92,43.449 14.145,43.449 16.315,41.527 16.315,41.279 16.54,41.279 16.54,41.03 16.315,41.03 16.315,40.812 
		16.065,40.812 15.816,40.812 	"/>
	<polygon clip-path="url(#SVGID_2_)" fill-rule="evenodd" clip-rule="evenodd" points="17.512,39.368 17.262,39.368 17.262,39.587 
		17.262,39.836 17.512,39.836 17.512,40.084 17.736,40.084 17.736,39.836 19.907,37.925 19.907,37.676 19.907,37.446 19.907,37.197 
		19.657,37.197 19.433,37.197 	"/>
	<polygon clip-path="url(#SVGID_2_)" fill-rule="evenodd" clip-rule="evenodd" points="21.104,35.755 20.855,36.003 20.855,36.232 
		21.104,36.232 21.104,36.481 21.353,36.481 21.353,36.232 23.499,34.312 23.499,34.092 23.499,33.844 23.25,33.844 23.025,33.844 	
		"/>
	<polygon clip-path="url(#SVGID_2_)" fill-rule="evenodd" clip-rule="evenodd" points="24.447,32.4 24.447,32.4 24.447,32.648 
		24.447,32.868 24.696,32.868 24.946,32.868 26.867,30.957 27.091,30.728 27.091,30.479 26.867,30.23 26.617,30.23 	"/>
	<polygon clip-path="url(#SVGID_2_)" fill-rule="evenodd" clip-rule="evenodd" points="28.063,28.787 28.063,28.787 27.814,29.035 
		28.063,29.284 28.288,29.514 28.538,29.284 28.762,29.284 28.762,29.035 28.762,28.787 28.538,28.567 28.288,28.567 	"/>
	<polygon clip-path="url(#SVGID_2_)" fill-rule="evenodd" clip-rule="evenodd" points="29.984,0.965 29.984,0.965 29.984,0.717 
		29.735,0.468 29.485,0.468 29.485,0.717 29.262,0.965 29.262,3.604 29.485,3.832 29.735,4.081 29.984,3.832 29.984,3.604 	"/>
	<polygon clip-path="url(#SVGID_2_)" fill-rule="evenodd" clip-rule="evenodd" points="29.984,5.743 29.984,5.743 29.984,5.524 
		29.735,5.524 29.485,5.524 29.262,5.743 29.262,8.63 29.485,8.879 29.735,9.128 29.984,8.879 29.984,8.63 	"/>
	<polygon clip-path="url(#SVGID_2_)" fill-rule="evenodd" clip-rule="evenodd" points="29.984,10.8 29.984,10.8 29.984,10.551 
		29.735,10.551 29.485,10.551 29.262,10.8 29.262,13.687 29.485,13.905 29.735,14.154 29.984,13.905 29.984,13.687 	"/>
	<polygon clip-path="url(#SVGID_2_)" fill-rule="evenodd" clip-rule="evenodd" points="29.984,15.847 29.984,15.847 29.984,15.598 
		29.735,15.598 29.485,15.598 29.262,15.847 29.262,18.484 29.262,18.713 29.485,18.962 29.735,19.211 29.984,18.962 29.984,18.713 
			"/>
	<polygon clip-path="url(#SVGID_2_)" fill-rule="evenodd" clip-rule="evenodd" points="29.984,20.873 29.984,20.624 29.984,20.405 
		29.735,20.405 29.485,20.405 29.485,20.624 29.262,20.624 29.262,23.511 29.262,23.76 29.485,23.76 29.485,23.989 29.735,23.989 
		29.984,23.989 29.984,23.76 	"/>
	<polygon clip-path="url(#SVGID_2_)" fill-rule="evenodd" clip-rule="evenodd" points="29.984,25.93 29.984,25.681 29.984,25.432 
		29.735,25.432 29.485,25.432 29.485,25.681 29.262,25.681 29.262,28.567 29.262,28.787 29.485,28.787 29.485,29.035 29.735,29.035 
		29.984,29.035 29.984,28.787 	"/>
	<polygon clip-path="url(#SVGID_2_)" fill-rule="evenodd" clip-rule="evenodd" points="28.762,28.07 28.762,28.07 28.538,28.318 
		28.288,28.567 28.538,28.567 28.538,28.787 28.762,28.787 31.407,28.787 31.655,28.787 31.88,28.787 31.88,28.567 31.88,28.318 
		31.655,28.318 31.655,28.07 	"/>
	<polygon clip-path="url(#SVGID_2_)" fill-rule="evenodd" clip-rule="evenodd" points="33.801,28.07 33.576,28.07 33.576,28.318 
		33.328,28.318 33.328,28.567 33.328,28.787 33.576,28.787 36.445,28.787 36.695,28.787 36.919,28.787 36.919,28.567 36.919,28.318 
		36.695,28.318 36.695,28.07 	"/>
	<polygon clip-path="url(#SVGID_2_)" fill-rule="evenodd" clip-rule="evenodd" points="38.84,28.07 38.615,28.07 38.615,28.318 
		38.366,28.318 38.366,28.567 38.366,28.787 38.615,28.787 41.484,28.787 41.733,28.787 41.958,28.787 41.958,28.567 41.958,28.318 
		41.733,28.318 41.733,28.07 	"/>
	<polygon clip-path="url(#SVGID_2_)" fill-rule="evenodd" clip-rule="evenodd" points="43.629,28.07 43.629,28.07 43.629,28.318 
		43.405,28.318 43.405,28.567 43.405,28.787 43.629,28.787 46.523,28.787 46.748,28.787 46.997,28.787 46.997,28.567 46.997,28.318 
		46.748,28.318 46.748,28.07 	"/>
	<polygon clip-path="url(#SVGID_2_)" fill-rule="evenodd" clip-rule="evenodd" points="48.917,28.07 48.668,28.07 48.443,28.318 
		48.443,28.567 48.443,28.787 48.668,28.787 51.562,28.787 51.786,28.787 52.035,28.567 51.786,28.318 51.562,28.07 	"/>
	<polygon clip-path="url(#SVGID_2_)" fill-rule="evenodd" clip-rule="evenodd" points="53.956,28.07 53.708,28.07 53.708,28.318 
		53.483,28.318 53.483,28.567 53.483,28.787 53.708,28.787 56.576,28.787 56.825,28.787 57.075,28.567 56.825,28.318 56.576,28.07 	
		"/>
	<polygon clip-path="url(#SVGID_2_)" fill-rule="evenodd" clip-rule="evenodd" points="58.746,28.07 58.746,28.07 58.496,28.318 
		58.496,28.567 58.496,28.787 58.746,28.787 61.615,28.787 61.863,28.787 62.113,28.567 61.863,28.318 61.615,28.07 	"/>
	<polygon clip-path="url(#SVGID_2_)" fill-rule="evenodd" clip-rule="evenodd" points="63.785,28.07 63.785,28.07 63.536,28.318 
		63.536,28.567 63.536,28.787 63.785,28.787 66.653,28.787 66.903,28.787 67.127,28.567 66.903,28.318 66.653,28.07 	"/>
	<polygon clip-path="url(#SVGID_2_)" fill-rule="evenodd" clip-rule="evenodd" points="68.823,28.07 68.823,28.07 68.574,28.318 
		68.574,28.567 68.574,28.787 68.823,28.787 71.692,28.787 71.942,28.787 72.166,28.567 71.942,28.318 71.692,28.07 	"/>
	<polygon clip-path="url(#SVGID_2_)" fill-rule="evenodd" clip-rule="evenodd" points="73.863,28.07 73.863,28.07 73.613,28.318 
		73.613,28.567 73.613,28.787 73.863,28.787 74.086,28.787 74.336,28.787 74.336,28.567 74.561,28.567 74.336,28.318 74.336,28.07 	
		"/>
	
		<rect x="22.551" y="26.159" clip-path="url(#SVGID_2_)" fill="none" stroke="#000000" stroke-width="0.7224" stroke-linejoin="round" stroke-miterlimit="10" width="21.801" height="10.8"/>
	<polygon clip-path="url(#SVGID_2_)" fill-rule="evenodd" clip-rule="evenodd" points="39.563,9.356 39.314,9.356 39.314,9.824 
		41.01,9.824 41.01,9.128 39.314,9.128 38.84,9.128 38.84,9.356 38.84,12.243 39.563,12.243 	"/>
	<rect x="38.84" y="14.408" clip-path="url(#SVGID_2_)" fill-rule="evenodd" clip-rule="evenodd" width="0.724" height="2.861"/>
	<polygon clip-path="url(#SVGID_2_)" fill-rule="evenodd" clip-rule="evenodd" points="39.563,19.43 38.84,19.43 38.84,20.624 
		38.84,21.122 39.314,21.122 40.761,21.122 40.761,20.405 39.314,20.405 39.314,20.624 39.563,20.624 	"/>
	<rect x="42.931" y="20.4" clip-path="url(#SVGID_2_)" fill-rule="evenodd" clip-rule="evenodd" width="2.869" height="0.722"/>
	<rect x="47.944" y="20.4" clip-path="url(#SVGID_2_)" fill-rule="evenodd" clip-rule="evenodd" width="2.894" height="0.722"/>
	<rect x="52.984" y="20.4" clip-path="url(#SVGID_2_)" fill-rule="evenodd" clip-rule="evenodd" width="2.894" height="0.722"/>
	<rect x="58.022" y="20.4" clip-path="url(#SVGID_2_)" fill-rule="evenodd" clip-rule="evenodd" width="2.894" height="0.722"/>
	<rect x="60.916" y="16.324" clip-path="url(#SVGID_2_)" fill-rule="evenodd" clip-rule="evenodd" width="0.948" height="2.887"/>
	<rect x="60.916" y="11.268" clip-path="url(#SVGID_2_)" fill-rule="evenodd" clip-rule="evenodd" width="0.948" height="2.887"/>
	<rect x="58.271" y="9.128" clip-path="url(#SVGID_2_)" fill-rule="evenodd" clip-rule="evenodd" width="2.644" height="0.696"/>
	<rect x="52.984" y="9.128" clip-path="url(#SVGID_2_)" fill-rule="evenodd" clip-rule="evenodd" width="3.118" height="0.696"/>
	<rect x="48.194" y="9.128" clip-path="url(#SVGID_2_)" fill-rule="evenodd" clip-rule="evenodd" width="2.869" height="0.696"/>
	<rect x="43.156" y="9.128" clip-path="url(#SVGID_2_)" fill-rule="evenodd" clip-rule="evenodd" width="2.644" height="0.696"/>
	<g clip-path="url(#SVGID_2_)">
		<defs>
			<rect id="SVGID_3_" x="7.185" y="137.29" width="68.573" height="13.438"/>
		</defs>
		<clipPath id="SVGID_4_">
			<use xlink:href="#SVGID_3_"  overflow="visible"/>
		</clipPath>
		<g clip-path="url(#SVGID_4_)">
			<defs>
				<rect id="SVGID_5_" x="7.185" y="137.29" width="68.348" height="13.438"/>
			</defs>
			<clipPath id="SVGID_6_">
				<use xlink:href="#SVGID_5_"  overflow="visible"/>
			</clipPath>
			<g clip-path="url(#SVGID_6_)">
				<path d="M13.123,143.869l0.957,0.241c-0.2,0.783-0.562,1.381-1.083,1.793c-0.521,0.411-1.159,0.617-1.912,0.617
					c-0.779,0-1.413-0.158-1.901-0.475c-0.489-0.316-0.86-0.774-1.115-1.375c-0.255-0.6-0.382-1.244-0.382-1.933
					c0-0.751,0.144-1.406,0.432-1.965c0.288-0.56,0.697-0.984,1.229-1.274s1.116-0.436,1.753-0.436c0.724,0,1.332,0.184,1.825,0.551
					c0.494,0.367,0.837,0.884,1.031,1.55l-0.942,0.222c-0.167-0.525-0.411-0.907-0.73-1.146s-0.72-0.359-1.204-0.359
					c-0.556,0-1.021,0.133-1.394,0.398s-0.636,0.622-0.787,1.07c-0.151,0.447-0.227,0.909-0.227,1.385
					c0,0.613,0.089,1.148,0.269,1.605c0.179,0.458,0.458,0.8,0.836,1.025c0.378,0.227,0.788,0.34,1.229,0.34
					c0.536,0,0.99-0.154,1.361-0.463C12.74,144.934,12.991,144.476,13.123,143.869z"/>
				<path d="M14.704,143.785c0-0.967,0.27-1.684,0.809-2.149c0.45-0.387,1-0.58,1.647-0.58c0.72,0,1.309,0.235,1.766,0.706
					s0.686,1.12,0.686,1.95c0,0.672-0.101,1.201-0.303,1.586c-0.202,0.386-0.497,0.685-0.883,0.897
					c-0.386,0.214-0.808,0.32-1.265,0.32c-0.733,0-1.326-0.234-1.778-0.703C14.93,145.343,14.704,144.668,14.704,143.785z
					 M15.616,143.785c0,0.669,0.146,1.17,0.439,1.503s0.661,0.499,1.105,0.499c0.441,0,0.807-0.167,1.1-0.501
					c0.292-0.335,0.439-0.845,0.439-1.53c0-0.646-0.147-1.135-0.441-1.468s-0.66-0.499-1.098-0.499
					c-0.444,0-0.813,0.165-1.105,0.496S15.616,143.117,15.616,143.785z"/>
				<path d="M20.552,146.397v-5.224h0.799v0.743c0.385-0.574,0.941-0.861,1.667-0.861c0.316,0,0.606,0.057,0.871,0.17
					s0.463,0.262,0.595,0.445c0.131,0.184,0.224,0.401,0.276,0.654c0.033,0.164,0.049,0.45,0.049,0.86v3.212h-0.888v-3.178
					c0-0.36-0.035-0.63-0.104-0.809c-0.069-0.179-0.192-0.321-0.368-0.428c-0.176-0.107-0.382-0.16-0.619-0.16
					c-0.378,0-0.705,0.119-0.979,0.359c-0.275,0.239-0.412,0.693-0.412,1.362v2.853H20.552z"/>
				<path d="M27.272,146.397l-1.993-5.224h0.937l1.125,3.128c0.122,0.338,0.233,0.688,0.335,1.053
					c0.079-0.275,0.189-0.606,0.33-0.993l1.165-3.188h0.913l-1.983,5.224H27.272z"/>
				<path d="M34.909,144.715l0.918,0.113c-0.145,0.535-0.413,0.949-0.804,1.245c-0.392,0.295-0.891,0.442-1.5,0.442
					c-0.767,0-1.374-0.235-1.823-0.706c-0.449-0.471-0.673-1.13-0.673-1.979c0-0.879,0.227-1.561,0.681-2.046
					c0.454-0.485,1.042-0.729,1.766-0.729c0.7,0,1.272,0.238,1.716,0.713c0.444,0.476,0.666,1.145,0.666,2.007
					c0,0.053-0.001,0.132-0.005,0.236h-3.907c0.033,0.574,0.195,1.014,0.488,1.318c0.292,0.305,0.658,0.457,1.095,0.457
					c0.325,0,0.604-0.085,0.833-0.255C34.591,145.361,34.774,145.089,34.909,144.715z M31.994,143.284h2.925
					c-0.04-0.439-0.151-0.77-0.335-0.989c-0.283-0.341-0.65-0.511-1.1-0.511c-0.408,0-0.751,0.136-1.029,0.408
					C32.177,142.464,32.023,142.828,31.994,143.284z"/>
				<path d="M35.996,146.397l1.914-2.715l-1.771-2.509h1.11l0.804,1.225c0.151,0.233,0.273,0.428,0.365,0.586
					c0.145-0.217,0.278-0.409,0.399-0.576l0.883-1.234h1.061l-1.811,2.459l1.949,2.765h-1.09l-1.076-1.623l-0.286-0.438
					l-1.376,2.061H35.996z"/>
				<path d="M44.229,146.397v-0.718l3.334-3.817c-0.378,0.02-0.712,0.029-1.001,0.029h-2.136v-0.718h4.282v0.585l-2.836,3.315
					l-0.547,0.605c0.398-0.03,0.771-0.045,1.12-0.045h2.422v0.763H44.229z"/>
				<path d="M49.419,143.785c0-0.967,0.27-1.684,0.809-2.149c0.45-0.387,1-0.58,1.647-0.58c0.72,0,1.309,0.235,1.766,0.706
					s0.686,1.12,0.686,1.95c0,0.672-0.101,1.201-0.303,1.586c-0.202,0.386-0.497,0.685-0.883,0.897
					c-0.386,0.214-0.808,0.32-1.265,0.32c-0.733,0-1.326-0.234-1.778-0.703C49.645,145.343,49.419,144.668,49.419,143.785z
					 M50.332,143.785c0,0.669,0.146,1.17,0.439,1.503s0.661,0.499,1.105,0.499c0.441,0,0.807-0.167,1.1-0.501
					c0.292-0.335,0.439-0.845,0.439-1.53c0-0.646-0.147-1.135-0.441-1.468s-0.66-0.499-1.098-0.499
					c-0.444,0-0.813,0.165-1.105,0.496S50.332,143.117,50.332,143.785z"/>
				<path d="M55.247,146.397v-5.224h0.799v0.743c0.385-0.574,0.941-0.861,1.667-0.861c0.316,0,0.606,0.057,0.871,0.17
					s0.463,0.262,0.595,0.445c0.131,0.184,0.224,0.401,0.276,0.654c0.033,0.164,0.049,0.45,0.049,0.86v3.212h-0.888v-3.178
					c0-0.36-0.035-0.63-0.104-0.809c-0.069-0.179-0.192-0.321-0.368-0.428c-0.176-0.107-0.382-0.16-0.619-0.16
					c-0.378,0-0.705,0.119-0.979,0.359c-0.275,0.239-0.412,0.693-0.412,1.362v2.853H55.247z"/>
				<path d="M64.351,144.715l0.918,0.113c-0.145,0.535-0.413,0.949-0.804,1.245c-0.392,0.295-0.891,0.442-1.5,0.442
					c-0.767,0-1.374-0.235-1.823-0.706c-0.449-0.471-0.673-1.13-0.673-1.979c0-0.879,0.227-1.561,0.681-2.046
					c0.454-0.485,1.042-0.729,1.766-0.729c0.7,0,1.272,0.238,1.716,0.713c0.444,0.476,0.666,1.145,0.666,2.007
					c0,0.053-0.001,0.132-0.005,0.236h-3.907c0.033,0.574,0.195,1.014,0.488,1.318c0.292,0.305,0.658,0.457,1.095,0.457
					c0.325,0,0.604-0.085,0.833-0.255C64.033,145.361,64.216,145.089,64.351,144.715z M61.436,143.284h2.925
					c-0.04-0.439-0.151-0.77-0.335-0.989c-0.283-0.341-0.65-0.511-1.1-0.511c-0.408,0-0.751,0.136-1.029,0.408
					C61.619,142.464,61.465,142.828,61.436,143.284z"/>
				<path d="M65.927,144.838l0.878-0.138c0.049,0.352,0.187,0.62,0.412,0.807c0.226,0.188,0.541,0.28,0.945,0.28
					c0.408,0,0.71-0.082,0.908-0.248c0.197-0.165,0.296-0.359,0.296-0.583c0-0.2-0.087-0.357-0.261-0.472
					c-0.122-0.079-0.424-0.179-0.908-0.301c-0.651-0.163-1.103-0.306-1.354-0.425c-0.251-0.12-0.442-0.285-0.572-0.497
					c-0.13-0.211-0.195-0.445-0.195-0.701c0-0.232,0.053-0.448,0.16-0.646s0.252-0.363,0.437-0.494
					c0.138-0.102,0.326-0.188,0.565-0.259c0.238-0.07,0.494-0.105,0.767-0.105c0.411,0,0.772,0.06,1.083,0.177
					c0.311,0.118,0.54,0.278,0.688,0.48c0.148,0.201,0.25,0.471,0.306,0.809l-0.868,0.118c-0.04-0.269-0.154-0.479-0.343-0.63
					c-0.189-0.15-0.457-0.226-0.802-0.226c-0.408,0-0.699,0.066-0.873,0.201s-0.262,0.292-0.262,0.473
					c0,0.114,0.036,0.218,0.109,0.31c0.072,0.095,0.186,0.174,0.34,0.236c0.089,0.032,0.35,0.107,0.784,0.226
					c0.628,0.168,1.066,0.305,1.314,0.411c0.249,0.106,0.443,0.262,0.585,0.465c0.141,0.203,0.212,0.456,0.212,0.758
					c0,0.295-0.086,0.572-0.259,0.833c-0.173,0.261-0.422,0.463-0.748,0.605s-0.694,0.214-1.105,0.214
					c-0.681,0-1.2-0.141-1.556-0.423C66.253,145.811,66.026,145.393,65.927,144.838z"/>
			</g>
		</g>
		<g clip-path="url(#SVGID_4_)">
			<defs>
				<rect id="SVGID_7_" x="7.185" y="137.29" width="68.348" height="13.438"/>
			</defs>
			<clipPath id="SVGID_8_">
				<use xlink:href="#SVGID_7_"  overflow="visible"/>
			</clipPath>
			<g clip-path="url(#SVGID_8_)">
			</g>
		</g>
	</g>
	<g clip-path="url(#SVGID_2_)">
		<defs>
			<rect id="SVGID_9_" x="182.946" y="137.29" width="90.399" height="13.438"/>
		</defs>
		<clipPath id="SVGID_10_">
			<use xlink:href="#SVGID_9_"  overflow="visible"/>
		</clipPath>
		<g clip-path="url(#SVGID_10_)">
			<defs>
				<rect id="SVGID_11_" x="182.946" y="137.29" width="90.151" height="13.438"/>
			</defs>
			<clipPath id="SVGID_12_">
				<use xlink:href="#SVGID_11_"  overflow="visible"/>
			</clipPath>
			<g clip-path="url(#SVGID_12_)">
				<path d="M183.714,146.397v-7.211h0.981l3.798,5.661v-5.661h0.918v7.211h-0.982l-3.798-5.666v5.666H183.714z"/>
				<path d="M190.465,143.785c0-0.967,0.27-1.684,0.809-2.149c0.45-0.387,1-0.58,1.647-0.58c0.72,0,1.309,0.235,1.766,0.706
					s0.686,1.12,0.686,1.95c0,0.672-0.101,1.201-0.303,1.586c-0.202,0.386-0.497,0.685-0.883,0.897
					c-0.386,0.214-0.808,0.32-1.265,0.32c-0.733,0-1.326-0.234-1.778-0.703C190.691,145.343,190.465,144.668,190.465,143.785z
					 M191.377,143.785c0,0.669,0.146,1.17,0.439,1.503s0.661,0.499,1.105,0.499c0.441,0,0.807-0.167,1.1-0.501
					c0.292-0.335,0.439-0.845,0.439-1.53c0-0.646-0.147-1.135-0.441-1.468s-0.66-0.499-1.098-0.499
					c-0.444,0-0.813,0.165-1.105,0.496S191.377,143.117,191.377,143.785z"/>
				<path d="M196.303,146.397v-5.224h0.799v0.743c0.385-0.574,0.941-0.861,1.667-0.861c0.316,0,0.606,0.057,0.871,0.17
					s0.463,0.262,0.595,0.445c0.131,0.184,0.224,0.401,0.276,0.654c0.033,0.164,0.049,0.45,0.049,0.86v3.212h-0.888v-3.178
					c0-0.36-0.035-0.63-0.104-0.809c-0.069-0.179-0.192-0.321-0.368-0.428c-0.176-0.107-0.382-0.16-0.619-0.16
					c-0.378,0-0.705,0.119-0.979,0.359c-0.275,0.239-0.412,0.693-0.412,1.362v2.853H196.303z"/>
			</g>
		</g>
		<g clip-path="url(#SVGID_10_)">
			<defs>
				<rect id="SVGID_13_" x="182.946" y="137.29" width="90.151" height="13.438"/>
			</defs>
			<clipPath id="SVGID_14_">
				<use xlink:href="#SVGID_13_"  overflow="visible"/>
			</clipPath>
			<g clip-path="url(#SVGID_14_)">
				<path d="M201.504,144.233v-0.891h2.728v0.891H201.504z"/>
			</g>
		</g>
		<g clip-path="url(#SVGID_10_)">
			<defs>
				<rect id="SVGID_15_" x="182.946" y="137.29" width="90.151" height="13.438"/>
			</defs>
			<clipPath id="SVGID_16_">
				<use xlink:href="#SVGID_15_"  overflow="visible"/>
			</clipPath>
			<g clip-path="url(#SVGID_16_)">
				<path d="M210.458,143.869l0.957,0.241c-0.2,0.783-0.562,1.381-1.083,1.793c-0.521,0.411-1.159,0.617-1.912,0.617
					c-0.779,0-1.413-0.158-1.901-0.475c-0.489-0.316-0.86-0.774-1.115-1.375c-0.255-0.6-0.382-1.244-0.382-1.933
					c0-0.751,0.144-1.406,0.432-1.965c0.288-0.56,0.697-0.984,1.229-1.274s1.116-0.436,1.753-0.436c0.724,0,1.332,0.184,1.825,0.551
					c0.494,0.367,0.837,0.884,1.031,1.55l-0.942,0.222c-0.167-0.525-0.411-0.907-0.73-1.146s-0.72-0.359-1.204-0.359
					c-0.556,0-1.021,0.133-1.394,0.398s-0.636,0.622-0.787,1.07c-0.151,0.447-0.227,0.909-0.227,1.385
					c0,0.613,0.089,1.148,0.269,1.605c0.179,0.458,0.458,0.8,0.836,1.025c0.378,0.227,0.788,0.34,1.229,0.34
					c0.536,0,0.99-0.154,1.361-0.463C210.074,144.934,210.326,144.476,210.458,143.869z"/>
				<path d="M212.038,143.785c0-0.967,0.27-1.684,0.809-2.149c0.45-0.387,1-0.58,1.647-0.58c0.72,0,1.309,0.235,1.766,0.706
					s0.686,1.12,0.686,1.95c0,0.672-0.101,1.201-0.303,1.586c-0.202,0.386-0.497,0.685-0.883,0.897
					c-0.386,0.214-0.808,0.32-1.265,0.32c-0.733,0-1.326-0.234-1.778-0.703C212.264,145.343,212.038,144.668,212.038,143.785z
					 M212.951,143.785c0,0.669,0.146,1.17,0.439,1.503s0.661,0.499,1.105,0.499c0.441,0,0.807-0.167,1.1-0.501
					c0.292-0.335,0.439-0.845,0.439-1.53c0-0.646-0.147-1.135-0.441-1.468s-0.66-0.499-1.098-0.499
					c-0.444,0-0.813,0.165-1.105,0.496S212.951,143.117,212.951,143.785z"/>
				<path d="M217.886,146.397v-5.224h0.799v0.743c0.385-0.574,0.941-0.861,1.667-0.861c0.316,0,0.606,0.057,0.871,0.17
					s0.463,0.262,0.595,0.445c0.131,0.184,0.224,0.401,0.276,0.654c0.033,0.164,0.049,0.45,0.049,0.86v3.212h-0.888v-3.178
					c0-0.36-0.035-0.63-0.104-0.809c-0.069-0.179-0.192-0.321-0.368-0.428c-0.176-0.107-0.382-0.16-0.619-0.16
					c-0.378,0-0.705,0.119-0.979,0.359c-0.275,0.239-0.412,0.693-0.412,1.362v2.853H217.886z"/>
				<path d="M224.859,146.397l-1.993-5.224h0.937l1.125,3.128c0.122,0.338,0.233,0.688,0.335,1.053
					c0.079-0.275,0.189-0.606,0.33-0.993l1.165-3.188h0.913l-1.983,5.224H224.859z"/>
				<path d="M232.486,144.715l0.918,0.113c-0.145,0.535-0.413,0.949-0.804,1.245c-0.392,0.295-0.891,0.442-1.5,0.442
					c-0.767,0-1.374-0.235-1.823-0.706c-0.449-0.471-0.673-1.13-0.673-1.979c0-0.879,0.227-1.561,0.681-2.046
					c0.454-0.485,1.042-0.729,1.766-0.729c0.7,0,1.272,0.238,1.716,0.713c0.444,0.476,0.666,1.145,0.666,2.007
					c0,0.053-0.001,0.132-0.005,0.236h-3.907c0.033,0.574,0.195,1.014,0.488,1.318c0.292,0.305,0.658,0.457,1.095,0.457
					c0.325,0,0.604-0.085,0.833-0.255C232.168,145.361,232.351,145.089,232.486,144.715z M229.571,143.284h2.925
					c-0.04-0.439-0.151-0.77-0.335-0.989c-0.283-0.341-0.65-0.511-1.1-0.511c-0.408,0-0.751,0.136-1.029,0.408
					C229.754,142.464,229.6,142.828,229.571,143.284z"/>
				<path d="M233.573,146.397l1.914-2.715l-1.771-2.509h1.11l0.804,1.225c0.151,0.233,0.273,0.428,0.365,0.586
					c0.145-0.217,0.277-0.409,0.399-0.576l0.883-1.234h1.061l-1.81,2.459l1.948,2.765h-1.091l-1.075-1.623l-0.286-0.438
					l-1.376,2.061H233.573z"/>
				<path d="M241.594,146.397v-0.718l3.335-3.817c-0.379,0.02-0.712,0.029-1.002,0.029h-2.136v-0.718h4.282v0.585l-2.837,3.315
					l-0.548,0.605c0.398-0.03,0.771-0.045,1.12-0.045h2.422v0.763H241.594z"/>
				<path d="M246.784,143.785c0-0.967,0.271-1.684,0.81-2.149c0.45-0.387,1-0.58,1.647-0.58c0.721,0,1.309,0.235,1.766,0.706
					s0.687,1.12,0.687,1.95c0,0.672-0.102,1.201-0.304,1.586c-0.202,0.386-0.497,0.685-0.883,0.897
					c-0.387,0.214-0.809,0.32-1.266,0.32c-0.733,0-1.326-0.234-1.778-0.703C247.01,145.343,246.784,144.668,246.784,143.785z
					 M247.697,143.785c0,0.669,0.146,1.17,0.439,1.503c0.292,0.333,0.66,0.499,1.104,0.499c0.44,0,0.808-0.167,1.1-0.501
					c0.293-0.335,0.439-0.845,0.439-1.53c0-0.646-0.147-1.135-0.441-1.468s-0.66-0.499-1.098-0.499
					c-0.444,0-0.813,0.165-1.104,0.496C247.843,142.616,247.697,143.117,247.697,143.785z"/>
				<path d="M252.612,146.397v-5.224h0.799v0.743c0.385-0.574,0.94-0.861,1.668-0.861c0.315,0,0.605,0.057,0.87,0.17
					s0.463,0.262,0.595,0.445c0.131,0.184,0.224,0.401,0.276,0.654c0.032,0.164,0.049,0.45,0.049,0.86v3.212h-0.888v-3.178
					c0-0.36-0.034-0.63-0.104-0.809s-0.191-0.321-0.367-0.428c-0.177-0.107-0.383-0.16-0.619-0.16c-0.379,0-0.705,0.119-0.979,0.359
					c-0.274,0.239-0.412,0.693-0.412,1.362v2.853H252.612z"/>
				<path d="M261.715,144.715l0.918,0.113c-0.145,0.535-0.413,0.949-0.805,1.245c-0.391,0.295-0.891,0.442-1.499,0.442
					c-0.767,0-1.374-0.235-1.823-0.706c-0.448-0.471-0.673-1.13-0.673-1.979c0-0.879,0.227-1.561,0.681-2.046
					s1.042-0.729,1.766-0.729c0.701,0,1.273,0.238,1.717,0.713c0.444,0.476,0.666,1.145,0.666,2.007
					c0,0.053-0.002,0.132-0.005,0.236h-3.907c0.033,0.574,0.196,1.014,0.488,1.318c0.293,0.305,0.658,0.457,1.096,0.457
					c0.325,0,0.604-0.085,0.834-0.255C261.398,145.361,261.581,145.089,261.715,144.715z M258.8,143.284h2.925
					c-0.039-0.439-0.151-0.77-0.335-0.989c-0.283-0.341-0.649-0.511-1.101-0.511c-0.407,0-0.75,0.136-1.028,0.408
					C258.984,142.464,258.83,142.828,258.8,143.284z"/>
				<path d="M263.292,144.838l0.878-0.138c0.05,0.352,0.187,0.62,0.412,0.807c0.226,0.188,0.54,0.28,0.944,0.28
					c0.408,0,0.711-0.082,0.908-0.248c0.197-0.165,0.296-0.359,0.296-0.583c0-0.2-0.087-0.357-0.262-0.472
					c-0.121-0.079-0.424-0.179-0.907-0.301c-0.651-0.163-1.103-0.306-1.354-0.425c-0.251-0.12-0.442-0.285-0.572-0.497
					c-0.13-0.211-0.194-0.445-0.194-0.701c0-0.232,0.053-0.448,0.16-0.646c0.106-0.198,0.252-0.363,0.437-0.494
					c0.138-0.102,0.326-0.188,0.564-0.259c0.238-0.07,0.494-0.105,0.768-0.105c0.411,0,0.771,0.06,1.083,0.177
					c0.311,0.118,0.54,0.278,0.688,0.48c0.148,0.201,0.25,0.471,0.306,0.809l-0.868,0.118c-0.039-0.269-0.153-0.479-0.343-0.63
					c-0.188-0.15-0.456-0.226-0.802-0.226c-0.407,0-0.698,0.066-0.873,0.201c-0.174,0.135-0.261,0.292-0.261,0.473
					c0,0.114,0.036,0.218,0.108,0.31c0.072,0.095,0.186,0.174,0.34,0.236c0.089,0.032,0.351,0.107,0.785,0.226
					c0.628,0.168,1.065,0.305,1.314,0.411c0.248,0.106,0.442,0.262,0.584,0.465s0.212,0.456,0.212,0.758
					c0,0.295-0.086,0.572-0.259,0.833s-0.422,0.463-0.747,0.605s-0.694,0.214-1.104,0.214c-0.682,0-1.2-0.141-1.557-0.423
					C263.618,145.811,263.39,145.393,263.292,144.838z"/>
			</g>
		</g>
		<g clip-path="url(#SVGID_10_)">
			<defs>
				<rect id="SVGID_17_" x="182.946" y="137.29" width="90.151" height="13.438"/>
			</defs>
			<clipPath id="SVGID_18_">
				<use xlink:href="#SVGID_17_"  overflow="visible"/>
			</clipPath>
			<g clip-path="url(#SVGID_18_)">
			</g>
		</g>
	</g>
</g>
</svg>
