<?xml version="1.0" encoding="utf-8"?>
<!-- Generator: Adobe Illustrator 16.0.0, SVG Export Plug-In . SVG Version: 6.00 Build 0)  -->
<!DOCTYPE svg PUBLIC "-//W3C//DTD SVG 1.1//EN" "http://www.w3.org/Graphics/SVG/1.1/DTD/svg11.dtd">
<svg version="1.1" id="Layer_1" xmlns="http://www.w3.org/2000/svg" xmlns:xlink="http://www.w3.org/1999/xlink" x="0px" y="0px"
	 width="355.069px" height="167.162px" viewBox="0 0 355.069 167.162" enable-background="new 0 0 355.069 167.162"
	 xml:space="preserve">
<g>
	<defs>
		<rect id="SVGID_1_" y="0" width="355.069" height="167.162"/>
	</defs>
	<clipPath id="SVGID_2_">
		<use xlink:href="#SVGID_1_"  overflow="visible"/>
	</clipPath>
	
		<rect x="134.85" y="79.252" clip-path="url(#SVGID_2_)" fill="none" stroke="#000000" stroke-width="0.7218" stroke-linejoin="round" stroke-miterlimit="10" width="48.265" height="63.979"/>
	
		<line clip-path="url(#SVGID_2_)" fill="none" stroke="#000000" stroke-width="0.7218" stroke-linejoin="round" stroke-miterlimit="10" x1="49.71" y1="144.077" x2="300.084" y2="144.077"/>
	
		<line clip-path="url(#SVGID_2_)" fill="none" stroke="#000000" stroke-width="0.7218" stroke-linejoin="round" stroke-miterlimit="10" x1="164.407" y1="49.82" x2="226.003" y2="140.719"/>
	<polygon clip-path="url(#SVGID_2_)" fill-rule="evenodd" clip-rule="evenodd" points="223.61,142.038 228.646,144.675 
		227.917,139.027 	"/>
	<g clip-path="url(#SVGID_2_)">
		<defs>
			<rect id="SVGID_3_" x="179.285" y="32.531" width="43.954" height="16.095"/>
		</defs>
		<clipPath id="SVGID_4_">
			<use xlink:href="#SVGID_3_"  overflow="visible"/>
		</clipPath>
		<g clip-path="url(#SVGID_4_)">
			<path d="M180.016,41.661v-7.137h2.683c0.546,0,0.985,0.072,1.315,0.217s0.589,0.366,0.776,0.667c0.187,0.3,0.28,0.614,0.28,0.941
				c0,0.306-0.083,0.593-0.249,0.862c-0.166,0.27-0.417,0.486-0.751,0.652c0.433,0.126,0.765,0.342,0.998,0.647
				c0.233,0.305,0.349,0.665,0.349,1.08c0,0.335-0.071,0.646-0.212,0.933s-0.316,0.509-0.524,0.664
				c-0.208,0.156-0.469,0.273-0.783,0.354c-0.314,0.079-0.698,0.119-1.154,0.119H180.016z M180.962,37.523h1.547
				c0.419,0,0.72-0.027,0.902-0.083c0.241-0.071,0.422-0.189,0.544-0.355c0.122-0.165,0.183-0.373,0.183-0.623
				c0-0.237-0.057-0.445-0.171-0.626c-0.114-0.18-0.276-0.303-0.488-0.369s-0.574-0.101-1.088-0.101h-1.43V37.523z M180.962,40.819
				h1.781c0.306,0,0.521-0.012,0.644-0.034c0.218-0.039,0.4-0.104,0.546-0.195s0.267-0.223,0.361-0.396
				c0.094-0.174,0.141-0.374,0.141-0.602c0-0.266-0.068-0.497-0.205-0.693c-0.137-0.196-0.326-0.334-0.568-0.414
				c-0.243-0.079-0.591-0.119-1.047-0.119h-1.654V40.819z"/>
			<path d="M190.104,39.996l0.907,0.112c-0.143,0.529-0.408,0.939-0.795,1.231c-0.387,0.292-0.881,0.438-1.483,0.438
				c-0.758,0-1.358-0.233-1.803-0.699c-0.444-0.466-0.666-1.118-0.666-1.959c0-0.87,0.225-1.545,0.673-2.025
				c0.449-0.48,1.031-0.721,1.747-0.721c0.693,0,1.259,0.235,1.698,0.706c0.439,0.471,0.658,1.133,0.658,1.986
				c0,0.052-0.001,0.13-0.005,0.233h-3.864c0.032,0.568,0.193,1.003,0.483,1.305s0.65,0.453,1.083,0.453
				c0.322,0,0.597-0.085,0.825-0.253C189.791,40.636,189.971,40.366,190.104,39.996z M187.221,38.579h2.893
				c-0.039-0.435-0.15-0.761-0.332-0.978c-0.28-0.338-0.643-0.507-1.088-0.507c-0.403,0-0.742,0.135-1.017,0.404
				S187.25,38.129,187.221,38.579z"/>
			<path d="M195.445,41.023c-0.325,0.275-0.638,0.471-0.939,0.584s-0.624,0.171-0.969,0.171c-0.569,0-1.006-0.139-1.312-0.417
				c-0.306-0.277-0.459-0.632-0.459-1.063c0-0.253,0.058-0.484,0.173-0.693c0.115-0.21,0.267-0.378,0.454-0.504
				c0.187-0.127,0.398-0.223,0.632-0.287c0.172-0.046,0.433-0.09,0.781-0.132c0.709-0.084,1.231-0.185,1.566-0.302
				c0.003-0.12,0.005-0.196,0.005-0.229c0-0.357-0.083-0.608-0.249-0.755c-0.225-0.198-0.558-0.297-1-0.297
				c-0.413,0-0.718,0.072-0.915,0.217s-0.342,0.4-0.437,0.767l-0.859-0.117c0.078-0.366,0.207-0.662,0.385-0.888
				c0.179-0.226,0.438-0.399,0.776-0.521c0.338-0.121,0.73-0.183,1.176-0.183c0.442,0,0.802,0.052,1.078,0.156
				c0.277,0.104,0.48,0.234,0.61,0.392c0.13,0.157,0.221,0.356,0.273,0.597c0.029,0.149,0.044,0.418,0.044,0.808v1.169
				c0,0.814,0.019,1.329,0.056,1.545c0.037,0.216,0.111,0.423,0.222,0.621h-0.917C195.53,41.479,195.471,41.267,195.445,41.023z
				 M195.372,39.066c-0.319,0.13-0.797,0.24-1.434,0.331c-0.361,0.052-0.617,0.11-0.766,0.175c-0.149,0.065-0.265,0.16-0.346,0.285
				c-0.082,0.125-0.122,0.264-0.122,0.416c0,0.234,0.088,0.429,0.266,0.584c0.177,0.156,0.437,0.234,0.778,0.234
				c0.338,0,0.639-0.074,0.903-0.222c0.263-0.147,0.457-0.35,0.581-0.606c0.094-0.197,0.141-0.489,0.141-0.876V39.066z"/>
			<path d="M197.571,41.661v-5.17h0.786v0.726c0.163-0.254,0.379-0.457,0.648-0.611c0.27-0.154,0.578-0.231,0.922-0.231
				c0.384,0,0.698,0.08,0.944,0.239c0.246,0.158,0.419,0.381,0.52,0.666c0.41-0.604,0.943-0.905,1.6-0.905
				c0.514,0,0.909,0.143,1.186,0.426c0.276,0.284,0.415,0.722,0.415,1.313v3.549h-0.873v-3.257c0-0.351-0.029-0.603-0.085-0.757
				c-0.057-0.154-0.16-0.278-0.31-0.372c-0.149-0.095-0.325-0.142-0.527-0.142c-0.364,0-0.667,0.121-0.907,0.362
				c-0.241,0.242-0.361,0.629-0.361,1.161v3.004h-0.878v-3.359c0-0.389-0.072-0.682-0.215-0.876s-0.377-0.292-0.703-0.292
				c-0.247,0-0.476,0.064-0.686,0.194c-0.209,0.13-0.362,0.32-0.456,0.57s-0.142,0.609-0.142,1.08v2.683H197.571z"/>
		</g>
	</g>
	
		<path clip-path="url(#SVGID_2_)" fill="none" stroke="#000000" stroke-width="0.7218" stroke-linejoin="round" stroke-miterlimit="10" d="
		M102.681,14.05c0,3.362,2.643,5.999,6.013,5.999c3.331,0,5.973-2.637,5.973-5.999c0-3.354-2.643-6.021-5.973-6.021
		C105.323,8.029,102.681,10.696,102.681,14.05z"/>
	
		<polygon clip-path="url(#SVGID_2_)" fill="none" stroke="#000000" stroke-width="0.7218" stroke-linejoin="round" stroke-miterlimit="10" points="
		108.913,5.273 112.523,0.467 112.523,7.084 120.58,6.238 116.362,11.044 121.527,14.05 117.339,16.438 120.331,21.243 
		113.719,20.896 112.752,28.706 109.511,23.054 104.954,27.86 104.356,20.896 97.751,23.054 101.962,17.661 95.359,14.646 
		100.746,13.084 98.723,4.676 104.356,7.433 105.552,1.442 	"/>
	
		<line clip-path="url(#SVGID_2_)" fill="none" stroke="#000000" stroke-width="0.7218" stroke-linejoin="round" stroke-miterlimit="10" x1="183.014" y1="49.82" x2="244.611" y2="140.719"/>
	<polygon clip-path="url(#SVGID_2_)" fill-rule="evenodd" clip-rule="evenodd" points="242.227,142.038 247.253,144.675 
		246.536,139.027 	"/>
	
		<line clip-path="url(#SVGID_2_)" fill="none" stroke="#000000" stroke-width="0.7218" stroke-linejoin="round" stroke-miterlimit="10" x1="202.23" y1="49.82" x2="263.827" y2="140.719"/>
	<polygon clip-path="url(#SVGID_2_)" fill-rule="evenodd" clip-rule="evenodd" points="261.433,142.038 266.469,144.675 
		265.741,139.027 	"/>
	
		<line clip-path="url(#SVGID_2_)" fill="none" stroke="#000000" stroke-width="0.7218" stroke-linejoin="round" stroke-miterlimit="10" x1="222.044" y1="49.82" x2="283.64" y2="140.719"/>
	<polygon clip-path="url(#SVGID_2_)" fill-rule="evenodd" clip-rule="evenodd" points="281.248,142.038 286.273,144.675 
		285.555,139.027 	"/>
	
		<line clip-path="url(#SVGID_2_)" fill="none" stroke="#000000" stroke-width="0.7218" stroke-linejoin="round" stroke-miterlimit="10" x1="70.142" y1="49.82" x2="131.739" y2="140.719"/>
	<polygon clip-path="url(#SVGID_2_)" fill-rule="evenodd" clip-rule="evenodd" points="129.326,142.038 134.381,144.675 
		133.653,139.027 	"/>
	
		<line clip-path="url(#SVGID_2_)" fill="none" stroke="#000000" stroke-width="0.7218" stroke-linejoin="round" stroke-miterlimit="10" x1="47.543" y1="49.82" x2="109.162" y2="140.719"/>
	<polygon clip-path="url(#SVGID_2_)" fill-rule="evenodd" clip-rule="evenodd" points="106.749,142.038 111.805,144.675 
		111.087,139.027 	"/>
	
		<line clip-path="url(#SVGID_2_)" fill="none" stroke="#000000" stroke-width="0.7218" stroke-linejoin="round" stroke-miterlimit="10" x1="24.494" y1="49.82" x2="86.09" y2="140.719"/>
	<polygon clip-path="url(#SVGID_2_)" fill-rule="evenodd" clip-rule="evenodd" points="83.698,142.038 88.756,144.675 
		88.034,139.027 	"/>
	
		<line clip-path="url(#SVGID_2_)" fill="none" stroke="#000000" stroke-width="0.7218" stroke-linejoin="round" stroke-miterlimit="10" x1="0.473" y1="49.82" x2="62.094" y2="140.719"/>
	<polygon clip-path="url(#SVGID_2_)" fill-rule="evenodd" clip-rule="evenodd" points="59.678,142.037 64.735,144.675 
		64.013,139.027 	"/>
	<rect x="183.493" y="144.45" clip-path="url(#SVGID_2_)" width="44.553" height="2.264"/>
	<g clip-path="url(#SVGID_2_)">
		<defs>
			<rect id="SVGID_5_" x="87.436" y="147.212" width="7.301" height="16.069"/>
		</defs>
		<clipPath id="SVGID_6_">
			<use xlink:href="#SVGID_5_"  overflow="visible"/>
		</clipPath>
		<g clip-path="url(#SVGID_6_)">
			<path d="M87.421,156.314l2.747-7.137h1.02l2.927,7.137h-1.078l-0.834-2.161h-2.991l-0.786,2.161H87.421z M89.485,153.384h2.425
				l-0.747-1.977c-0.228-0.601-0.397-1.094-0.507-1.479c-0.091,0.457-0.22,0.912-0.386,1.362L89.485,153.384z"/>
		</g>
	</g>
	<g clip-path="url(#SVGID_2_)">
		<defs>
			<rect id="SVGID_7_" x="201.382" y="146.59" width="7.201" height="16.094"/>
		</defs>
		<clipPath id="SVGID_8_">
			<use xlink:href="#SVGID_7_"  overflow="visible"/>
		</clipPath>
		<g clip-path="url(#SVGID_8_)">
			<path d="M202.114,155.718v-7.137h2.683c0.546,0,0.985,0.072,1.315,0.217s0.589,0.366,0.776,0.667
				c0.187,0.3,0.28,0.614,0.28,0.941c0,0.306-0.083,0.593-0.249,0.862c-0.166,0.27-0.417,0.486-0.751,0.652
				c0.433,0.126,0.765,0.342,0.998,0.647c0.233,0.305,0.349,0.665,0.349,1.08c0,0.335-0.071,0.646-0.212,0.933
				s-0.316,0.509-0.524,0.664c-0.208,0.156-0.469,0.273-0.783,0.354c-0.314,0.079-0.698,0.119-1.154,0.119H202.114z M203.061,151.58
				h1.547c0.419,0,0.72-0.027,0.902-0.083c0.241-0.071,0.422-0.189,0.544-0.355c0.122-0.165,0.183-0.373,0.183-0.623
				c0-0.237-0.057-0.445-0.171-0.626c-0.114-0.18-0.276-0.303-0.488-0.369s-0.574-0.101-1.088-0.101h-1.43V151.58z M203.061,154.876
				h1.781c0.306,0,0.521-0.012,0.644-0.034c0.218-0.039,0.4-0.104,0.546-0.195s0.267-0.223,0.361-0.396
				c0.094-0.174,0.141-0.374,0.141-0.602c0-0.266-0.068-0.497-0.205-0.693c-0.137-0.196-0.326-0.334-0.568-0.414
				c-0.243-0.079-0.591-0.119-1.047-0.119h-1.654V154.876z"/>
		</g>
	</g>
	<g clip-path="url(#SVGID_2_)">
		<defs>
			<rect id="SVGID_9_" x="257.943" y="147.312" width="7.326" height="16.219"/>
		</defs>
		<clipPath id="SVGID_10_">
			<use xlink:href="#SVGID_9_"  overflow="visible"/>
		</clipPath>
		<g clip-path="url(#SVGID_10_)">
			<path d="M263.816,153.938l0.946,0.238c-0.198,0.775-0.555,1.367-1.07,1.774s-1.146,0.611-1.891,0.611
				c-0.771,0-1.398-0.157-1.881-0.47c-0.483-0.313-0.851-0.768-1.103-1.361s-0.378-1.231-0.378-1.913
				c0-0.743,0.142-1.392,0.427-1.944c0.284-0.554,0.689-0.974,1.215-1.261c0.525-0.288,1.104-0.432,1.734-0.432
				c0.715,0,1.317,0.183,1.805,0.546c0.488,0.363,0.828,0.874,1.02,1.533l-0.932,0.219c-0.166-0.519-0.406-0.897-0.722-1.134
				c-0.315-0.237-0.713-0.355-1.19-0.355c-0.55,0-1.01,0.131-1.379,0.395c-0.369,0.263-0.628,0.615-0.777,1.059
				c-0.15,0.443-0.225,0.899-0.225,1.37c0,0.607,0.088,1.137,0.266,1.59c0.178,0.452,0.453,0.791,0.827,1.015
				s0.778,0.336,1.215,0.336c0.53,0,0.979-0.152,1.347-0.457C263.437,154.99,263.686,154.538,263.816,153.938z"/>
		</g>
	</g>
	
		<line clip-path="url(#SVGID_2_)" fill="none" stroke="#000000" stroke-width="0.7218" stroke-linejoin="round" stroke-miterlimit="10" x1="183.014" y1="147.685" x2="183.114" y2="158.48"/>
	
		<line clip-path="url(#SVGID_2_)" fill="none" stroke="#000000" stroke-width="0.7218" stroke-linejoin="round" stroke-miterlimit="10" x1="226.851" y1="147.685" x2="226.97" y2="158.48"/>
	
		<line clip-path="url(#SVGID_2_)" fill="none" stroke="#000000" stroke-width="0.7218" stroke-linejoin="round" stroke-miterlimit="10" x1="134.381" y1="147.685" x2="134.501" y2="158.48"/>
	
		<line clip-path="url(#SVGID_2_)" fill="none" stroke="#000000" stroke-width="0.7218" stroke-linejoin="round" stroke-miterlimit="10" x1="212.67" y1="151.889" x2="227.07" y2="151.889"/>
	
		<polyline clip-path="url(#SVGID_2_)" fill="none" stroke="#000000" stroke-width="0.7218" stroke-linejoin="round" stroke-miterlimit="10" points="
		222.044,154.525 227.07,151.889 222.044,149.376 	"/>
	
		<line clip-path="url(#SVGID_2_)" fill="none" stroke="#000000" stroke-width="0.7218" stroke-linejoin="round" stroke-miterlimit="10" x1="97.028" y1="151.888" x2="134.251" y2="151.888"/>
	
		<polyline clip-path="url(#SVGID_2_)" fill="none" stroke="#000000" stroke-width="0.7218" stroke-linejoin="round" stroke-miterlimit="10" points="
		129.226,154.525 134.251,151.888 129.226,149.376 	"/>
	
		<line clip-path="url(#SVGID_2_)" fill="none" stroke="#000000" stroke-width="0.7218" stroke-linejoin="round" stroke-miterlimit="10" x1="198.271" y1="151.889" x2="183.842" y2="151.889"/>
	
		<polyline clip-path="url(#SVGID_2_)" fill="none" stroke="#000000" stroke-width="0.7218" stroke-linejoin="round" stroke-miterlimit="10" points="
		188.897,149.251 183.842,151.889 188.897,154.4 	"/>
	
		<line clip-path="url(#SVGID_2_)" fill="none" stroke="#000000" stroke-width="0.7218" stroke-linejoin="round" stroke-miterlimit="10" x1="255.051" y1="152.236" x2="227.917" y2="152.236"/>
	
		<polyline clip-path="url(#SVGID_2_)" fill="none" stroke="#000000" stroke-width="0.7218" stroke-linejoin="round" stroke-miterlimit="10" points="
		232.973,149.6 227.917,152.236 232.973,154.773 	"/>
	
		<line clip-path="url(#SVGID_2_)" fill="none" stroke="#000000" stroke-width="0.7218" stroke-linejoin="round" stroke-miterlimit="10" x1="269.112" y1="152.734" x2="301.181" y2="152.734"/>
	
		<polyline clip-path="url(#SVGID_2_)" fill="none" stroke="#000000" stroke-width="0.7218" stroke-linejoin="round" stroke-miterlimit="10" points="
		296.116,155.371 301.181,152.734 296.116,150.196 	"/>
	
		<line clip-path="url(#SVGID_2_)" fill="none" stroke="#000000" stroke-width="0.7218" stroke-linejoin="round" stroke-miterlimit="10" x1="84.544" y1="152.236" x2="50.558" y2="152.236"/>
	
		<polyline clip-path="url(#SVGID_2_)" fill="none" stroke="#000000" stroke-width="0.7218" stroke-linejoin="round" stroke-miterlimit="10" points="
		55.591,149.6 50.558,152.236 55.591,154.773 	"/>
	<g clip-path="url(#SVGID_2_)">
		<defs>
			<rect id="SVGID_11_" x="24.02" y="32.531" width="43.954" height="16.095"/>
		</defs>
		<clipPath id="SVGID_12_">
			<use xlink:href="#SVGID_11_"  overflow="visible"/>
		</clipPath>
		<g clip-path="url(#SVGID_12_)">
			<path d="M24.752,41.66v-7.137h2.683c0.546,0,0.985,0.072,1.315,0.217s0.589,0.366,0.776,0.667c0.187,0.3,0.28,0.614,0.28,0.941
				c0,0.306-0.083,0.593-0.249,0.862c-0.166,0.27-0.417,0.486-0.751,0.652c0.433,0.126,0.765,0.342,0.998,0.647
				c0.233,0.305,0.349,0.665,0.349,1.08c0,0.335-0.071,0.646-0.212,0.933s-0.316,0.509-0.524,0.664
				c-0.208,0.156-0.469,0.273-0.783,0.354c-0.314,0.079-0.698,0.119-1.154,0.119H24.752z M25.698,37.522h1.547
				c0.419,0,0.72-0.027,0.902-0.083c0.241-0.071,0.422-0.189,0.544-0.355c0.122-0.165,0.183-0.373,0.183-0.623
				c0-0.237-0.057-0.445-0.171-0.626c-0.114-0.18-0.276-0.303-0.488-0.369s-0.574-0.101-1.088-0.101h-1.43V37.522z M25.698,40.818
				h1.781c0.306,0,0.521-0.012,0.644-0.034c0.218-0.039,0.4-0.104,0.546-0.195s0.267-0.223,0.361-0.396
				c0.094-0.174,0.141-0.374,0.141-0.602c0-0.266-0.068-0.497-0.205-0.693c-0.137-0.196-0.326-0.334-0.568-0.414
				c-0.243-0.079-0.591-0.119-1.047-0.119h-1.654V40.818z"/>
			<path d="M34.84,39.995l0.907,0.112c-0.143,0.529-0.408,0.939-0.795,1.231c-0.387,0.292-0.881,0.438-1.483,0.438
				c-0.758,0-1.358-0.233-1.803-0.699C31.223,40.612,31,39.96,31,39.119c0-0.87,0.225-1.545,0.673-2.025
				c0.449-0.48,1.031-0.721,1.747-0.721c0.693,0,1.259,0.235,1.698,0.706c0.439,0.471,0.658,1.133,0.658,1.986
				c0,0.052-0.001,0.13-0.005,0.233h-3.864c0.032,0.568,0.193,1.003,0.483,1.305s0.65,0.453,1.083,0.453
				c0.322,0,0.597-0.085,0.825-0.253C34.526,40.635,34.707,40.365,34.84,39.995z M31.957,38.578h2.893
				c-0.039-0.435-0.15-0.761-0.332-0.978c-0.28-0.338-0.643-0.507-1.088-0.507c-0.403,0-0.742,0.135-1.017,0.404
				S31.986,38.128,31.957,38.578z"/>
			<path d="M40.181,41.022c-0.325,0.275-0.638,0.471-0.939,0.584s-0.624,0.171-0.969,0.171c-0.569,0-1.006-0.139-1.312-0.417
				c-0.306-0.277-0.459-0.632-0.459-1.063c0-0.253,0.058-0.484,0.173-0.693c0.115-0.21,0.267-0.378,0.454-0.504
				c0.187-0.127,0.398-0.223,0.632-0.287c0.172-0.046,0.433-0.09,0.781-0.132c0.709-0.084,1.231-0.185,1.566-0.302
				c0.003-0.12,0.005-0.196,0.005-0.229c0-0.357-0.083-0.608-0.249-0.755c-0.225-0.198-0.558-0.297-1-0.297
				c-0.413,0-0.718,0.072-0.915,0.217s-0.342,0.4-0.437,0.767l-0.859-0.117c0.078-0.366,0.207-0.662,0.385-0.888
				c0.179-0.226,0.438-0.399,0.776-0.521c0.338-0.121,0.73-0.183,1.176-0.183c0.442,0,0.802,0.052,1.078,0.156
				c0.277,0.104,0.48,0.234,0.61,0.392c0.13,0.157,0.221,0.356,0.273,0.597c0.029,0.149,0.044,0.418,0.044,0.808v1.169
				c0,0.814,0.019,1.329,0.056,1.545c0.037,0.216,0.111,0.423,0.222,0.621h-0.917C40.266,41.479,40.207,41.266,40.181,41.022z
				 M40.108,39.065c-0.319,0.13-0.797,0.24-1.434,0.331c-0.361,0.052-0.617,0.11-0.766,0.175c-0.149,0.065-0.265,0.16-0.346,0.285
				c-0.082,0.125-0.122,0.264-0.122,0.416c0,0.234,0.088,0.429,0.266,0.584c0.177,0.156,0.437,0.234,0.778,0.234
				c0.338,0,0.639-0.074,0.903-0.222c0.263-0.147,0.457-0.35,0.581-0.606c0.094-0.197,0.141-0.489,0.141-0.876V39.065z"/>
			<path d="M42.307,41.66v-5.17h0.786v0.726c0.163-0.254,0.379-0.457,0.648-0.611c0.27-0.154,0.578-0.231,0.922-0.231
				c0.384,0,0.698,0.08,0.944,0.239c0.246,0.158,0.419,0.381,0.52,0.666c0.41-0.604,0.943-0.905,1.6-0.905
				c0.514,0,0.909,0.143,1.186,0.426c0.276,0.284,0.415,0.722,0.415,1.313v3.549h-0.873v-3.257c0-0.351-0.029-0.603-0.085-0.757
				c-0.057-0.154-0.16-0.278-0.31-0.372c-0.149-0.095-0.325-0.142-0.527-0.142c-0.364,0-0.667,0.121-0.907,0.362
				c-0.241,0.242-0.361,0.629-0.361,1.161v3.004h-0.878v-3.359c0-0.389-0.072-0.682-0.215-0.876s-0.377-0.292-0.703-0.292
				c-0.247,0-0.476,0.064-0.686,0.194c-0.209,0.13-0.362,0.32-0.456,0.57s-0.142,0.609-0.142,1.08v2.683H42.307z"/>
		</g>
	</g>
	<g clip-path="url(#SVGID_2_)">
		<defs>
			<rect id="SVGID_13_" x="9.967" y="136.516" width="43.954" height="16.219"/>
		</defs>
		<clipPath id="SVGID_14_">
			<use xlink:href="#SVGID_13_"  overflow="visible"/>
		</clipPath>
		<g clip-path="url(#SVGID_14_)">
			<path d="M14.084,142.846v-0.838l3.03-0.005v2.648c-0.465,0.37-0.945,0.648-1.439,0.835c-0.494,0.187-1.001,0.28-1.522,0.28
				c-0.703,0-1.341-0.15-1.915-0.45c-0.574-0.301-1.007-0.734-1.3-1.303c-0.292-0.568-0.439-1.202-0.439-1.903
				c0-0.694,0.146-1.343,0.437-1.945c0.291-0.602,0.71-1.049,1.256-1.341s1.176-0.438,1.888-0.438c0.517,0,0.985,0.084,1.403,0.251
				s0.746,0.4,0.983,0.698c0.237,0.299,0.418,0.688,0.542,1.169l-0.854,0.233c-0.107-0.363-0.241-0.649-0.4-0.856
				c-0.159-0.208-0.387-0.374-0.683-0.499c-0.296-0.125-0.624-0.188-0.985-0.188c-0.433,0-0.807,0.065-1.122,0.197
				c-0.315,0.131-0.57,0.304-0.764,0.519c-0.193,0.214-0.344,0.449-0.451,0.705c-0.182,0.441-0.273,0.921-0.273,1.437
				c0,0.636,0.11,1.168,0.33,1.597s0.539,0.747,0.958,0.954c0.42,0.208,0.865,0.312,1.337,0.312c0.41,0,0.81-0.078,1.2-0.236
				c0.39-0.157,0.686-0.325,0.888-0.503v-1.329H14.084z"/>
			<path d="M18.388,145.645v-5.17h0.791v0.784c0.202-0.367,0.388-0.609,0.559-0.726c0.17-0.117,0.358-0.176,0.563-0.176
				c0.296,0,0.597,0.095,0.902,0.282l-0.302,0.813c-0.215-0.127-0.43-0.19-0.644-0.19c-0.192,0-0.364,0.059-0.517,0.173
				c-0.153,0.115-0.262,0.275-0.327,0.479c-0.098,0.313-0.146,0.652-0.146,1.022v2.707H18.388z"/>
			<path d="M21.438,143.06c0-0.957,0.267-1.667,0.8-2.127c0.446-0.384,0.989-0.575,1.629-0.575c0.712,0,1.294,0.233,1.747,0.699
				s0.678,1.108,0.678,1.93c0,0.665-0.1,1.188-0.3,1.57c-0.2,0.381-0.491,0.678-0.874,0.889s-0.799,0.316-1.251,0.316
				c-0.725,0-1.312-0.232-1.759-0.696S21.438,143.933,21.438,143.06z M22.34,143.06c0,0.662,0.145,1.158,0.434,1.487
				s0.654,0.494,1.093,0.494c0.436,0,0.799-0.166,1.088-0.497c0.289-0.331,0.434-0.835,0.434-1.514c0-0.64-0.146-1.124-0.437-1.453
				c-0.292-0.329-0.653-0.494-1.086-0.494c-0.439,0-0.803,0.164-1.093,0.492C22.485,141.902,22.34,142.397,22.34,143.06z"/>
			<path d="M30.667,145.645v-0.76c-0.403,0.585-0.951,0.877-1.644,0.877c-0.306,0-0.591-0.059-0.856-0.176
				c-0.265-0.116-0.462-0.264-0.59-0.44s-0.219-0.394-0.271-0.649c-0.036-0.173-0.054-0.445-0.054-0.818v-3.203h0.878v2.867
				c0,0.458,0.018,0.766,0.054,0.925c0.056,0.23,0.172,0.411,0.352,0.543c0.179,0.132,0.4,0.197,0.664,0.197
				c0.263,0,0.51-0.067,0.741-0.202s0.395-0.318,0.491-0.55c0.096-0.232,0.144-0.569,0.144-1.011v-2.77h0.878v5.17H30.667z"/>
			<path d="M32.779,145.645v-5.17h0.791v0.735c0.38-0.568,0.93-0.853,1.649-0.853c0.312,0,0.599,0.057,0.861,0.168
				c0.262,0.112,0.458,0.259,0.588,0.44c0.13,0.183,0.221,0.398,0.273,0.647c0.032,0.163,0.049,0.446,0.049,0.853v3.179h-0.878
				V142.5c0-0.357-0.034-0.624-0.103-0.801c-0.068-0.177-0.189-0.318-0.363-0.424s-0.378-0.158-0.612-0.158
				c-0.374,0-0.697,0.118-0.968,0.355c-0.272,0.236-0.408,0.687-0.408,1.349v2.823H32.779z"/>
			<path d="M41.647,145.645v-0.652c-0.329,0.513-0.812,0.77-1.449,0.77c-0.413,0-0.793-0.114-1.139-0.341
				c-0.347-0.228-0.615-0.545-0.805-0.952s-0.286-0.875-0.286-1.404c0-0.516,0.086-0.984,0.259-1.404
				c0.172-0.421,0.431-0.742,0.776-0.967c0.345-0.224,0.73-0.336,1.156-0.336c0.312,0,0.59,0.066,0.834,0.197
				c0.244,0.132,0.442,0.303,0.595,0.514v-2.561h0.874v7.137H41.647z M38.871,143.064c0,0.662,0.14,1.157,0.419,1.484
				c0.28,0.328,0.61,0.492,0.991,0.492c0.383,0,0.709-0.156,0.978-0.47c0.268-0.313,0.402-0.791,0.402-1.434
				c0-0.708-0.137-1.227-0.41-1.558c-0.273-0.331-0.61-0.497-1.01-0.497c-0.391,0-0.717,0.159-0.979,0.478
				C39.002,141.878,38.871,142.38,38.871,143.064z"/>
		</g>
	</g>
	<g clip-path="url(#SVGID_2_)">
		<defs>
			<rect id="SVGID_15_" x="304.163" y="136.516" width="43.954" height="16.219"/>
		</defs>
		<clipPath id="SVGID_16_">
			<use xlink:href="#SVGID_15_"  overflow="visible"/>
		</clipPath>
		<g clip-path="url(#SVGID_16_)">
			<path d="M308.281,142.846v-0.838l3.029-0.005v2.648c-0.465,0.37-0.945,0.648-1.439,0.835s-1.002,0.28-1.522,0.28
				c-0.702,0-1.341-0.15-1.914-0.45c-0.574-0.301-1.008-0.734-1.301-1.303s-0.438-1.202-0.438-1.903
				c0-0.694,0.146-1.343,0.437-1.945c0.291-0.602,0.71-1.049,1.256-1.341c0.547-0.292,1.176-0.438,1.889-0.438
				c0.517,0,0.984,0.084,1.402,0.251s0.745,0.4,0.983,0.698c0.237,0.299,0.417,0.688,0.541,1.169l-0.854,0.233
				c-0.107-0.363-0.241-0.649-0.4-0.856c-0.159-0.208-0.387-0.374-0.683-0.499s-0.625-0.188-0.985-0.188
				c-0.433,0-0.807,0.065-1.123,0.197c-0.315,0.131-0.569,0.304-0.763,0.519c-0.194,0.214-0.345,0.449-0.451,0.705
				c-0.183,0.441-0.273,0.921-0.273,1.437c0,0.636,0.109,1.168,0.329,1.597s0.539,0.747,0.959,0.954
				c0.419,0.208,0.865,0.312,1.337,0.312c0.409,0,0.81-0.078,1.2-0.236c0.39-0.157,0.686-0.325,0.888-0.503v-1.329H308.281z"/>
			<path d="M312.583,145.645v-5.17h0.791v0.784c0.201-0.367,0.388-0.609,0.559-0.726c0.171-0.117,0.358-0.176,0.563-0.176
				c0.296,0,0.597,0.095,0.902,0.282l-0.303,0.813c-0.214-0.127-0.429-0.19-0.644-0.19c-0.192,0-0.364,0.059-0.518,0.173
				c-0.152,0.115-0.262,0.275-0.326,0.479c-0.098,0.313-0.146,0.652-0.146,1.022v2.707H312.583z"/>
			<path d="M315.634,143.06c0-0.957,0.267-1.667,0.8-2.127c0.445-0.384,0.989-0.575,1.63-0.575c0.712,0,1.294,0.233,1.746,0.699
				s0.679,1.108,0.679,1.93c0,0.665-0.101,1.188-0.301,1.57c-0.199,0.381-0.491,0.678-0.873,0.889s-0.799,0.316-1.251,0.316
				c-0.726,0-1.312-0.232-1.759-0.696S315.634,143.933,315.634,143.06z M316.537,143.06c0,0.662,0.145,1.158,0.435,1.487
				c0.289,0.329,0.653,0.494,1.093,0.494c0.436,0,0.798-0.166,1.088-0.497c0.289-0.331,0.434-0.835,0.434-1.514
				c0-0.64-0.146-1.124-0.437-1.453s-0.652-0.494-1.085-0.494c-0.439,0-0.804,0.164-1.093,0.492
				C316.681,141.902,316.537,142.397,316.537,143.06z"/>
			<path d="M324.864,145.645v-0.76c-0.403,0.585-0.952,0.877-1.645,0.877c-0.306,0-0.591-0.059-0.856-0.176
				c-0.265-0.116-0.462-0.264-0.59-0.44c-0.129-0.177-0.219-0.394-0.271-0.649c-0.035-0.173-0.054-0.445-0.054-0.818v-3.203h0.879
				v2.867c0,0.458,0.018,0.766,0.054,0.925c0.055,0.23,0.172,0.411,0.351,0.543c0.18,0.132,0.4,0.197,0.664,0.197
				s0.511-0.067,0.741-0.202c0.231-0.135,0.395-0.318,0.49-0.55c0.097-0.232,0.145-0.569,0.145-1.011v-2.77h0.878v5.17H324.864z"/>
			<path d="M326.974,145.645v-5.17h0.791v0.735c0.38-0.568,0.93-0.853,1.648-0.853c0.313,0,0.6,0.057,0.861,0.168
				c0.262,0.112,0.458,0.259,0.588,0.44c0.13,0.183,0.222,0.398,0.273,0.647c0.032,0.163,0.049,0.446,0.049,0.853v3.179h-0.878
				V142.5c0-0.357-0.034-0.624-0.103-0.801s-0.189-0.318-0.363-0.424c-0.175-0.105-0.379-0.158-0.612-0.158
				c-0.374,0-0.697,0.118-0.969,0.355c-0.271,0.236-0.407,0.687-0.407,1.349v2.823H326.974z"/>
			<path d="M335.843,145.645v-0.652c-0.329,0.513-0.812,0.77-1.449,0.77c-0.413,0-0.793-0.114-1.14-0.341
				c-0.346-0.228-0.614-0.545-0.805-0.952s-0.285-0.875-0.285-1.404c0-0.516,0.086-0.984,0.258-1.404
				c0.173-0.421,0.432-0.742,0.776-0.967c0.345-0.224,0.73-0.336,1.156-0.336c0.313,0,0.59,0.066,0.834,0.197
				c0.244,0.132,0.442,0.303,0.596,0.514v-2.561h0.873v7.137H335.843z M333.067,143.064c0,0.662,0.14,1.157,0.42,1.484
				c0.279,0.328,0.609,0.492,0.99,0.492c0.384,0,0.71-0.156,0.978-0.47c0.269-0.313,0.403-0.791,0.403-1.434
				c0-0.708-0.137-1.227-0.41-1.558s-0.61-0.497-1.01-0.497c-0.391,0-0.717,0.159-0.979,0.478
				C333.198,141.878,333.067,142.38,333.067,143.064z"/>
		</g>
	</g>
</g>
</svg>
