<?xml version="1.0" encoding="utf-8"?>
<!-- Generator: Adobe Illustrator 16.0.0, SVG Export Plug-In . SVG Version: 6.00 Build 0)  -->
<!DOCTYPE svg PUBLIC "-//W3C//DTD SVG 1.1//EN" "http://www.w3.org/Graphics/SVG/1.1/DTD/svg11.dtd">
<svg version="1.1" id="Layer_1" xmlns="http://www.w3.org/2000/svg" xmlns:xlink="http://www.w3.org/1999/xlink" x="0px" y="0px"
	 width="376.584px" height="191.447px" viewBox="0 0 376.584 191.447" enable-background="new 0 0 376.584 191.447"
	 xml:space="preserve">
<g>
	<polygon fill="#131516" points="376.325,151.813 376.584,151.553 376.584,50.675 376.065,50.675 376.065,151.553 376.325,151.813 
		376.325,151.813 376.584,151.813 376.584,151.553 	"/>
	<polygon fill="#131516" points="289.552,151.553 289.811,151.813 376.325,151.813 376.325,151.295 289.811,151.295 
		289.552,151.553 289.552,151.553 289.552,151.813 289.811,151.813 	"/>
	<polygon fill="#131516" points="289.811,50.416 289.552,50.675 289.552,151.553 290.069,151.553 290.069,50.675 289.811,50.416 
		289.811,50.416 289.552,50.416 289.552,50.675 	"/>
	<polygon fill="#131516" points="376.584,50.675 376.325,50.416 289.811,50.416 289.811,50.934 376.325,50.934 376.584,50.675 
		376.584,50.675 376.584,50.416 376.325,50.416 	"/>
	<polygon fill="#1F1A17" points="360.345,144.939 360.25,144.445 282.303,144.445 282.303,144.963 360.25,144.963 360.345,144.939 
		360.25,144.963 360.298,144.963 360.345,144.939 	"/>
	<polygon fill="#1F1A17" points="364.558,143.15 364.251,142.773 360.156,144.469 360.345,144.939 364.463,143.244 364.558,143.15 
		364.463,143.244 364.511,143.221 364.558,143.15 	"/>
	<polygon fill="#1F1A17" points="367.005,140.162 366.558,139.926 364.157,142.846 364.558,143.15 366.958,140.256 367.005,140.162 
		366.958,140.256 366.981,140.209 367.005,140.162 	"/>
	<polygon fill="#1F1A17" points="368.017,135.926 367.522,135.926 366.511,140.02 367.005,140.162 368.017,136.043 368.017,135.926 
		368.017,136.043 368.04,135.996 368.017,135.926 	"/>
	<polygon fill="#1F1A17" points="366.958,131.9 366.511,132.111 367.522,136.043 368.017,135.926 367.005,131.994 366.958,131.9 
		367.005,131.994 366.981,131.947 366.958,131.9 	"/>
	<polygon fill="#1F1A17" points="364.463,128.91 364.157,129.311 366.558,132.23 366.958,131.9 364.558,128.982 364.463,128.91 
		364.558,128.982 364.511,128.934 364.463,128.91 	"/>
	<polygon fill="#1F1A17" points="360.25,127.193 360.156,127.688 364.251,129.381 364.463,128.91 360.345,127.193 360.25,127.193 
		360.345,127.193 360.298,127.193 360.25,127.193 	"/>
	<polygon fill="#1F1A17" points="304.261,127.688 304.354,127.688 360.25,127.688 360.25,127.193 304.354,127.193 304.261,127.688 
		304.261,127.688 304.308,127.688 304.354,127.688 	"/>
	<polygon fill="#1F1A17" points="300.048,125.875 300.142,125.969 304.261,127.688 304.449,127.193 300.354,125.498 
		300.048,125.875 300.048,125.875 300.095,125.945 300.142,125.969 	"/>
	<polygon fill="#1F1A17" points="297.788,122.908 297.812,122.98 300.048,125.875 300.448,125.568 298.235,122.674 297.788,122.908 
		297.788,122.908 297.788,122.934 297.812,122.98 	"/>
	<polygon fill="#1F1A17" points="296.588,118.814 296.588,118.955 297.788,122.908 298.259,122.744 297.059,118.814 
		296.588,118.814 296.588,118.814 296.564,118.885 296.588,118.955 	"/>
	<polygon fill="#1F1A17" points="297.812,114.459 297.765,114.553 296.588,118.814 297.082,118.955 298.259,114.695 
		297.812,114.459 297.812,114.459 297.788,114.506 297.765,114.553 	"/>
	<polygon fill="#1F1A17" points="300.142,111.635 300.048,111.729 297.812,114.459 298.212,114.789 300.448,112.035 
		300.142,111.635 300.142,111.635 300.095,111.658 300.048,111.729 	"/>
	<polygon fill="#1F1A17" points="304.354,109.916 304.261,109.939 300.142,111.635 300.354,112.105 304.449,110.41 304.354,109.916 
		304.354,109.916 304.308,109.916 304.261,109.939 	"/>
	<polygon fill="#1F1A17" points="360.345,110.41 360.25,109.916 304.354,109.916 304.354,110.436 360.25,110.436 360.345,110.41 
		360.25,110.436 360.298,110.436 360.345,110.41 	"/>
	<polygon fill="#1F1A17" points="364.558,108.623 364.251,108.223 360.156,109.939 360.345,110.41 364.463,108.693 364.558,108.623 
		364.463,108.693 364.511,108.67 364.558,108.623 	"/>
	<polygon fill="#1F1A17" points="367.005,105.609 366.558,105.398 364.157,108.293 364.558,108.623 366.958,105.727 
		367.005,105.609 366.958,105.727 366.981,105.68 367.005,105.609 	"/>
	<polygon fill="#1F1A17" points="368.017,101.396 367.522,101.396 366.511,105.492 367.005,105.609 368.017,101.514 
		368.017,101.396 368.017,101.514 368.04,101.443 368.017,101.396 	"/>
	<polygon fill="#1F1A17" points="366.958,97.348 366.511,97.584 367.522,101.514 368.017,101.396 367.005,97.467 366.958,97.348 
		367.005,97.467 366.981,97.395 366.958,97.348 	"/>
	<polygon fill="#1F1A17" points="364.463,94.382 364.157,94.783 366.558,97.678 366.958,97.348 364.558,94.453 364.463,94.382 
		364.558,94.453 364.511,94.406 364.463,94.382 	"/>
	<polygon fill="#1F1A17" points="360.25,92.641 360.156,93.135 364.251,94.853 364.463,94.382 360.345,92.665 360.25,92.641 
		360.345,92.665 360.298,92.641 360.25,92.641 	"/>
	<polygon fill="#1F1A17" points="304.261,93.135 304.354,93.159 360.25,93.159 360.25,92.641 304.354,92.641 304.261,93.135 
		304.261,93.135 304.308,93.159 304.354,93.159 	"/>
	<polygon fill="#1F1A17" points="300.048,91.346 300.142,91.417 304.261,93.135 304.449,92.665 300.354,90.946 300.048,91.346 
		300.048,91.346 300.071,91.394 300.142,91.417 	"/>
	<polygon fill="#1F1A17" points="297.788,88.192 297.812,88.263 300.048,91.346 300.448,91.041 298.235,87.957 297.788,88.192 
		297.788,88.192 297.788,88.239 297.812,88.263 	"/>
	<polygon fill="#1F1A17" points="296.588,84.097 296.588,84.262 297.788,88.192 298.259,88.051 297.059,84.097 296.588,84.097 
		296.588,84.097 296.564,84.191 296.588,84.262 	"/>
	<polygon fill="#1F1A17" points="297.812,80.096 297.788,80.167 296.588,84.097 297.059,84.262 298.259,80.331 297.812,80.096 
		297.812,80.096 297.788,80.143 297.788,80.167 	"/>
	<polygon fill="#1F1A17" points="300.142,77.106 300.048,77.177 297.812,80.096 298.235,80.402 300.448,77.507 300.142,77.106 
		300.142,77.106 300.071,77.13 300.048,77.177 	"/>
	<polygon fill="#1F1A17" points="304.354,75.2 304.237,75.224 300.142,77.106 300.354,77.577 304.449,75.694 304.354,75.2 
		304.354,75.2 304.284,75.2 304.237,75.224 	"/>
	<polygon fill="#1F1A17" points="360.345,75.694 360.25,75.2 304.354,75.2 304.354,75.718 360.25,75.718 360.345,75.694 
		360.25,75.718 360.298,75.718 360.345,75.694 	"/>
	<polygon fill="#1F1A17" points="364.558,73.929 364.251,73.505 360.156,75.224 360.345,75.694 364.463,74 364.558,73.929 
		364.463,74 364.511,73.976 364.558,73.929 	"/>
	<polygon fill="#1F1A17" points="367.005,71.081 366.558,70.846 364.157,73.576 364.558,73.929 366.935,71.175 367.005,71.081 
		366.935,71.175 366.981,71.128 367.005,71.081 	"/>
	<polygon fill="#1F1A17" points="368.017,66.844 367.522,66.844 366.511,70.963 367.005,71.081 368.017,66.986 368.017,66.844 
		368.017,66.986 368.04,66.915 368.017,66.844 	"/>
	<polygon fill="#1F1A17" points="366.958,62.82 366.511,63.055 367.522,66.986 368.017,66.844 367.005,62.914 366.958,62.82 
		367.005,62.914 366.981,62.867 366.958,62.82 	"/>
	<polygon fill="#1F1A17" points="364.463,59.666 364.157,60.066 366.558,63.149 366.958,62.82 364.558,59.736 364.463,59.666 
		364.558,59.736 364.511,59.689 364.463,59.666 	"/>
	<polygon fill="#1F1A17" points="360.25,57.948 360.156,58.418 364.251,60.137 364.463,59.666 360.345,57.948 360.25,57.948 
		360.345,57.948 360.298,57.948 360.25,57.948 	"/>
	<rect x="282.303" y="57.948" fill="#1F1A17" width="77.947" height="0.494"/>
	<polygon fill="#1F1A17" points="255.284,144.445 255.284,144.963 282.303,144.963 282.303,144.445 255.284,144.445 
		255.284,144.445 255.284,144.963 255.284,144.963 255.284,144.963 	"/>
	<rect x="228.784" y="144.445" fill="#1F1A17" width="26.5" height="0.518"/>
	<polygon fill="#1F1A17" points="255.284,57.948 255.284,58.442 282.303,58.442 282.303,57.948 255.284,57.948 255.284,57.948 
		255.284,58.442 255.284,58.442 255.284,58.442 	"/>
	<rect x="228.784" y="57.948" fill="#1F1A17" width="26.5" height="0.494"/>
	<polygon fill-rule="evenodd" clip-rule="evenodd" fill="#FFFFFF" points="233.915,58.183 232.714,61.102 229.984,63.502 
		226.901,63.502 224.171,61.102 222.971,58.183 224.171,54.77 226.901,53.076 229.984,53.076 232.714,54.77 233.915,58.183 	"/>
	<polygon fill="#1F1A17" points="232.879,61.29 232.949,61.196 234.149,58.301 233.679,58.089 232.479,61.007 232.879,61.29 
		232.879,61.29 232.926,61.243 232.949,61.196 	"/>
	<polygon fill="#1F1A17" points="229.984,63.761 230.149,63.69 232.879,61.29 232.55,60.913 229.796,63.291 229.984,63.761 
		229.984,63.761 230.078,63.761 230.149,63.69 	"/>
	<polygon fill="#1F1A17" points="226.736,63.69 226.901,63.761 229.984,63.761 229.984,63.244 226.901,63.244 226.736,63.69 
		226.736,63.69 226.807,63.761 226.901,63.761 	"/>
	<polygon fill="#1F1A17" points="223.936,61.196 223.982,61.29 226.736,63.69 227.065,63.291 224.336,60.913 223.936,61.196 
		223.936,61.196 223.959,61.243 223.982,61.29 	"/>
	<polygon fill="#1F1A17" points="222.735,58.112 222.735,58.301 223.936,61.196 224.406,61.007 223.206,58.089 222.735,58.112 
		222.735,58.112 222.688,58.207 222.735,58.301 	"/>
	<polygon fill="#1F1A17" points="224.03,54.558 223.912,54.7 222.735,58.112 223.206,58.277 224.406,54.864 224.03,54.558 
		224.03,54.558 223.959,54.605 223.912,54.7 	"/>
	<polygon fill="#1F1A17" points="226.901,52.816 226.76,52.84 224.03,54.558 224.289,54.982 227.042,53.288 226.901,52.816 
		226.901,52.816 226.83,52.816 226.76,52.84 	"/>
	<polygon fill="#1F1A17" points="230.102,52.84 229.984,52.816 226.901,52.816 226.901,53.311 229.984,53.311 230.102,52.84 
		230.102,52.84 230.055,52.816 229.984,52.816 	"/>
	<polygon fill="#1F1A17" points="232.949,54.7 232.855,54.558 230.102,52.84 229.843,53.288 232.573,54.982 232.949,54.7 
		232.949,54.7 232.926,54.605 232.855,54.558 	"/>
	<polygon fill="#1F1A17" points="234.149,58.301 234.149,58.112 232.949,54.7 232.479,54.864 233.655,58.277 234.149,58.301 
		234.149,58.301 234.174,58.207 234.149,58.112 	"/>
	<polygon fill-rule="evenodd" clip-rule="evenodd" fill="#FFFFFF" points="233.915,144.705 232.714,147.623 229.984,149.836 
		226.901,149.836 224.171,147.623 222.971,144.705 224.171,141.127 226.901,139.408 229.984,139.408 232.714,141.127 
		233.915,144.705 	"/>
	<polygon fill="#1F1A17" points="232.879,147.811 232.949,147.717 234.149,144.799 233.679,144.609 232.479,147.529 
		232.879,147.811 232.879,147.811 232.926,147.764 232.949,147.717 	"/>
	<polygon fill="#1F1A17" points="229.984,150.094 230.125,150.047 232.879,147.811 232.55,147.41 229.819,149.646 229.984,150.094 
		229.984,150.094 230.055,150.094 230.125,150.047 	"/>
	<polygon fill="#1F1A17" points="226.736,150.047 226.901,150.094 229.984,150.094 229.984,149.576 226.901,149.576 
		226.736,150.047 226.736,150.047 226.807,150.094 226.901,150.094 	"/>
	<polygon fill="#1F1A17" points="223.936,147.717 224.006,147.811 226.736,150.047 227.065,149.646 224.313,147.41 223.936,147.717 
		223.936,147.717 223.959,147.764 224.006,147.811 	"/>
	<polygon fill="#1F1A17" points="222.712,144.633 222.735,144.799 223.936,147.717 224.406,147.529 223.206,144.609 
		222.712,144.633 222.712,144.633 222.688,144.729 222.735,144.799 	"/>
	<polygon fill="#1F1A17" points="224.03,140.891 223.912,141.033 222.712,144.633 223.206,144.799 224.406,141.197 224.03,140.891 
		224.03,140.891 223.959,140.938 223.912,141.033 	"/>
	<polygon fill="#1F1A17" points="226.901,139.15 226.76,139.197 224.03,140.891 224.289,141.338 227.042,139.621 226.901,139.15 
		226.901,139.15 226.83,139.15 226.76,139.197 	"/>
	<polygon fill="#1F1A17" points="230.102,139.197 229.984,139.15 226.901,139.15 226.901,139.668 229.984,139.668 230.102,139.197 
		230.102,139.197 230.055,139.15 229.984,139.15 	"/>
	<polygon fill="#1F1A17" points="232.949,141.033 232.855,140.891 230.102,139.197 229.843,139.621 232.573,141.338 
		232.949,141.033 232.949,141.033 232.926,140.938 232.855,140.891 	"/>
	<polygon fill="#1F1A17" points="234.149,144.799 234.149,144.633 232.949,141.033 232.479,141.197 233.655,144.799 
		234.149,144.799 234.149,144.799 234.174,144.729 234.149,144.633 	"/>
	<g>
		<path fill="#1F1A17" d="M311.768,90.087l1.002-0.086c0.047,0.394,0.157,0.716,0.331,0.969c0.173,0.252,0.441,0.456,0.807,0.612
			c0.364,0.156,0.774,0.233,1.23,0.233c0.405,0,0.763-0.059,1.072-0.177c0.311-0.118,0.541-0.28,0.692-0.486
			c0.151-0.206,0.227-0.43,0.227-0.674c0-0.247-0.072-0.462-0.219-0.646c-0.146-0.185-0.387-0.339-0.722-0.464
			c-0.215-0.082-0.691-0.21-1.428-0.384c-0.737-0.173-1.253-0.337-1.549-0.491c-0.383-0.197-0.668-0.441-0.855-0.732
			c-0.188-0.292-0.282-0.618-0.282-0.979c0-0.397,0.115-0.768,0.345-1.114c0.229-0.345,0.565-0.607,1.007-0.786
			c0.441-0.179,0.932-0.269,1.472-0.269c0.595,0,1.118,0.094,1.572,0.282c0.454,0.188,0.804,0.464,1.048,0.83
			c0.244,0.365,0.376,0.778,0.395,1.24l-1.018,0.075c-0.055-0.498-0.24-0.873-0.556-1.127c-0.315-0.254-0.781-0.381-1.397-0.381
			c-0.643,0-1.11,0.115-1.403,0.346c-0.294,0.231-0.44,0.509-0.44,0.834c0,0.283,0.104,0.515,0.312,0.698
			c0.204,0.183,0.737,0.37,1.601,0.561c0.862,0.191,1.454,0.358,1.775,0.501c0.467,0.211,0.812,0.479,1.033,0.803
			c0.223,0.324,0.334,0.697,0.334,1.119c0,0.419-0.122,0.813-0.366,1.184c-0.245,0.371-0.596,0.658-1.054,0.864
			c-0.457,0.206-0.973,0.309-1.545,0.309c-0.727,0-1.334-0.104-1.825-0.312c-0.49-0.208-0.875-0.52-1.154-0.937
			C311.93,91.085,311.782,90.613,311.768,90.087z"/>
		<path fill="#1F1A17" d="M320.92,92.615v-0.837c-0.452,0.644-1.066,0.966-1.844,0.966c-0.343,0-0.662-0.064-0.96-0.193
			c-0.297-0.129-0.518-0.291-0.662-0.486c-0.144-0.195-0.245-0.434-0.303-0.716c-0.041-0.189-0.061-0.49-0.061-0.902v-3.531h0.984
			v3.161c0,0.504,0.021,0.844,0.061,1.02c0.062,0.254,0.193,0.454,0.394,0.599c0.201,0.145,0.449,0.217,0.744,0.217
			c0.296,0,0.572-0.074,0.832-0.223c0.259-0.148,0.441-0.351,0.55-0.606c0.107-0.256,0.161-0.627,0.161-1.114v-3.054h0.984v5.7
			H320.92z"/>
		<path fill="#1F1A17" d="M323.254,92.615v-5.7h0.887v0.864c0.226-0.404,0.435-0.671,0.626-0.8s0.402-0.193,0.632-0.193
			c0.332,0,0.669,0.104,1.013,0.312l-0.34,0.896c-0.24-0.14-0.481-0.209-0.722-0.209c-0.216,0-0.409,0.063-0.58,0.19
			c-0.172,0.127-0.294,0.303-0.366,0.528c-0.11,0.344-0.165,0.719-0.165,1.127v2.984H323.254z"/>
		<path fill="#1F1A17" d="M326.66,92.615v-4.948h-0.87v-0.751h0.87v-0.606c0-0.383,0.035-0.667,0.104-0.854
			c0.095-0.25,0.262-0.454,0.5-0.609c0.239-0.156,0.573-0.234,1.004-0.234c0.277,0,0.584,0.032,0.919,0.097l-0.147,0.843
			c-0.204-0.036-0.397-0.054-0.58-0.054c-0.299,0-0.511,0.063-0.635,0.188c-0.124,0.125-0.186,0.359-0.186,0.703v0.526h1.133v0.751
			h-1.133v4.948H326.66z"/>
		<path fill="#1F1A17" d="M333.239,91.912c-0.365,0.304-0.716,0.519-1.054,0.644c-0.337,0.125-0.699,0.188-1.086,0.188
			c-0.638,0-1.129-0.153-1.472-0.459s-0.514-0.697-0.514-1.173c0-0.279,0.064-0.534,0.193-0.765c0.13-0.231,0.3-0.416,0.509-0.556
			c0.21-0.139,0.446-0.245,0.709-0.316c0.193-0.05,0.485-0.099,0.875-0.145c0.795-0.093,1.381-0.204,1.757-0.333
			c0.003-0.132,0.005-0.217,0.005-0.252c0-0.394-0.093-0.671-0.279-0.832c-0.251-0.218-0.625-0.327-1.121-0.327
			c-0.463,0-0.805,0.08-1.025,0.239s-0.385,0.441-0.49,0.845l-0.963-0.129c0.088-0.404,0.231-0.73,0.433-0.979
			c0.2-0.249,0.49-0.44,0.87-0.574c0.379-0.134,0.818-0.201,1.318-0.201c0.496,0,0.898,0.057,1.209,0.172
			c0.31,0.114,0.538,0.258,0.684,0.432c0.146,0.173,0.248,0.393,0.307,0.657c0.032,0.165,0.049,0.461,0.049,0.891v1.288
			c0,0.898,0.021,1.466,0.063,1.704c0.041,0.238,0.124,0.466,0.248,0.684h-1.028C333.334,92.415,333.268,92.181,333.239,91.912z
			 M333.157,89.754c-0.358,0.144-0.895,0.265-1.608,0.365c-0.405,0.057-0.691,0.122-0.859,0.193
			c-0.168,0.071-0.297,0.176-0.389,0.314c-0.091,0.138-0.137,0.291-0.137,0.458c0,0.258,0.1,0.473,0.298,0.644
			c0.199,0.172,0.49,0.258,0.873,0.258c0.379,0,0.717-0.082,1.012-0.244c0.296-0.163,0.513-0.386,0.651-0.668
			c0.105-0.218,0.159-0.54,0.159-0.966V89.754z"/>
		<path fill="#1F1A17" d="M340.177,90.527l0.968,0.124c-0.105,0.655-0.377,1.167-0.813,1.538c-0.436,0.371-0.971,0.556-1.605,0.556
			c-0.795,0-1.435-0.255-1.918-0.765c-0.482-0.51-0.725-1.24-0.725-2.192c0-0.615,0.104-1.154,0.312-1.615
			c0.208-0.461,0.524-0.808,0.949-1.039c0.426-0.231,0.888-0.346,1.388-0.346c0.631,0,1.146,0.157,1.548,0.47
			s0.658,0.758,0.771,1.333l-0.957,0.145c-0.092-0.383-0.253-0.671-0.484-0.864c-0.231-0.193-0.512-0.29-0.84-0.29
			c-0.496,0-0.899,0.174-1.209,0.523c-0.311,0.349-0.465,0.9-0.465,1.655c0,0.766,0.149,1.322,0.448,1.669s0.689,0.521,1.171,0.521
			c0.387,0,0.709-0.116,0.968-0.349C339.943,91.368,340.107,91.01,340.177,90.527z"/>
		<path fill="#1F1A17" d="M347.018,90.78l1.018,0.124c-0.16,0.583-0.458,1.036-0.892,1.358c-0.435,0.322-0.988,0.483-1.663,0.483
			c-0.85,0-1.523-0.257-2.021-0.771c-0.498-0.513-0.747-1.233-0.747-2.16c0-0.958,0.252-1.703,0.755-2.232
			c0.504-0.53,1.156-0.794,1.959-0.794c0.776,0,1.411,0.259,1.903,0.778c0.493,0.519,0.739,1.249,0.739,2.189
			c0,0.058-0.002,0.144-0.006,0.258h-4.333c0.036,0.626,0.217,1.105,0.542,1.438c0.324,0.333,0.729,0.499,1.214,0.499
			c0.361,0,0.67-0.093,0.925-0.279C346.666,91.485,346.868,91.188,347.018,90.78z M343.784,89.218h3.244
			c-0.044-0.479-0.168-0.839-0.372-1.079c-0.313-0.372-0.72-0.558-1.22-0.558c-0.452,0-0.832,0.148-1.141,0.445
			S343.817,88.721,343.784,89.218z"/>
	</g>
	<g>
		<path fill="#1F1A17" d="M312.162,105.803v-7.868h1.062v3.231h4.168v-3.231h1.062v7.868h-1.062v-3.709h-4.168v3.709H312.162z"/>
		<path fill="#1F1A17" d="M322.693,103.967l1.018,0.124c-0.16,0.583-0.458,1.036-0.892,1.357c-0.435,0.322-0.988,0.483-1.663,0.483
			c-0.85,0-1.523-0.257-2.021-0.771c-0.498-0.513-0.747-1.233-0.747-2.16c0-0.959,0.252-1.703,0.755-2.232
			c0.504-0.529,1.156-0.794,1.959-0.794c0.776,0,1.411,0.259,1.903,0.777c0.493,0.52,0.739,1.249,0.739,2.19
			c0,0.057-0.002,0.143-0.006,0.258h-4.333c0.036,0.626,0.217,1.105,0.542,1.438c0.324,0.333,0.729,0.5,1.214,0.5
			c0.361,0,0.67-0.094,0.925-0.279C322.342,104.672,322.544,104.375,322.693,103.967z M319.46,102.405h3.244
			c-0.044-0.479-0.168-0.839-0.372-1.079c-0.313-0.372-0.72-0.558-1.22-0.558c-0.452,0-0.832,0.148-1.141,0.445
			S319.493,101.908,319.46,102.405z"/>
		<path fill="#1F1A17" d="M329.188,105.1c-0.365,0.305-0.716,0.519-1.054,0.645c-0.337,0.125-0.699,0.188-1.086,0.188
			c-0.638,0-1.129-0.153-1.472-0.459s-0.514-0.697-0.514-1.173c0-0.279,0.064-0.534,0.193-0.765c0.13-0.23,0.3-0.416,0.509-0.556
			c0.21-0.14,0.446-0.245,0.709-0.316c0.193-0.05,0.485-0.099,0.875-0.145c0.795-0.094,1.381-0.204,1.757-0.333
			c0.003-0.133,0.005-0.217,0.005-0.252c0-0.394-0.093-0.671-0.279-0.832c-0.251-0.219-0.625-0.328-1.121-0.328
			c-0.463,0-0.805,0.08-1.025,0.239s-0.385,0.441-0.49,0.846l-0.963-0.129c0.088-0.404,0.231-0.731,0.433-0.979
			c0.2-0.249,0.49-0.44,0.87-0.574c0.379-0.135,0.818-0.201,1.318-0.201c0.496,0,0.898,0.057,1.209,0.171
			c0.31,0.115,0.538,0.259,0.684,0.433s0.248,0.393,0.307,0.657c0.032,0.165,0.049,0.462,0.049,0.891v1.288
			c0,0.898,0.021,1.467,0.063,1.704c0.041,0.238,0.124,0.467,0.248,0.685h-1.028C329.282,105.603,329.216,105.368,329.188,105.1z
			 M329.105,102.942c-0.358,0.143-0.895,0.265-1.608,0.364c-0.405,0.058-0.691,0.122-0.859,0.193
			c-0.168,0.072-0.297,0.177-0.389,0.314c-0.091,0.138-0.137,0.291-0.137,0.459c0,0.257,0.1,0.472,0.298,0.644
			c0.199,0.172,0.49,0.258,0.873,0.258c0.379,0,0.717-0.081,1.012-0.244c0.296-0.163,0.513-0.386,0.651-0.668
			c0.105-0.219,0.159-0.54,0.159-0.967V102.942z"/>
		<path fill="#1F1A17" d="M334.461,104.938l0.143,0.854c-0.277,0.058-0.525,0.086-0.744,0.086c-0.357,0-0.635-0.056-0.832-0.166
			c-0.197-0.111-0.335-0.257-0.416-0.438c-0.08-0.181-0.12-0.562-0.12-1.141v-3.279h-0.722v-0.752h0.722v-1.411l0.979-0.58v1.991
			h0.99v0.752h-0.99v3.333c0,0.275,0.018,0.452,0.052,0.531c0.035,0.078,0.091,0.142,0.17,0.188c0.078,0.047,0.19,0.07,0.336,0.07
			C334.138,104.977,334.282,104.964,334.461,104.938z"/>
	</g>
	<g>
		<path fill="#1F1A17" d="M312.151,118.975v-7.868h5.799v0.929h-4.738v2.41h4.438v0.923h-4.438v2.678h4.924v0.929H312.151z"/>
		<path fill="#1F1A17" d="M316.882,118.975l2.123-2.963l-1.965-2.737h1.231l0.892,1.337c0.168,0.254,0.303,0.467,0.405,0.639
			c0.16-0.236,0.308-0.445,0.442-0.628l0.979-1.348h1.177l-2.008,2.684l2.161,3.017h-1.21l-1.192-1.771l-0.317-0.478l-1.526,2.249
			H316.882z"/>
		<path fill="#1F1A17" d="M325.879,116.887l0.968,0.124c-0.105,0.654-0.377,1.167-0.813,1.537s-0.971,0.556-1.605,0.556
			c-0.795,0-1.435-0.255-1.918-0.765c-0.482-0.51-0.725-1.241-0.725-2.192c0-0.615,0.104-1.154,0.312-1.616
			c0.208-0.461,0.524-0.808,0.949-1.038c0.426-0.23,0.888-0.346,1.388-0.346c0.631,0,1.146,0.156,1.548,0.469
			c0.401,0.313,0.658,0.758,0.771,1.334l-0.957,0.146c-0.092-0.383-0.253-0.671-0.484-0.864s-0.512-0.29-0.84-0.29
			c-0.496,0-0.899,0.175-1.209,0.523c-0.311,0.349-0.465,0.9-0.465,1.655c0,0.766,0.149,1.322,0.448,1.669
			c0.299,0.348,0.689,0.521,1.171,0.521c0.387,0,0.709-0.117,0.968-0.35C325.646,117.728,325.81,117.37,325.879,116.887z"/>
		<path fill="#1F1A17" d="M328.742,118.975v-7.868h0.985v2.823c0.459-0.522,1.039-0.783,1.739-0.783
			c0.431,0,0.805,0.083,1.122,0.249s0.544,0.396,0.681,0.689c0.137,0.294,0.205,0.72,0.205,1.277v3.612h-0.984v-3.612
			c0-0.482-0.106-0.834-0.32-1.055c-0.213-0.22-0.516-0.33-0.905-0.33c-0.292,0-0.566,0.074-0.823,0.223
			c-0.258,0.149-0.44,0.351-0.55,0.604s-0.164,0.604-0.164,1.052v3.118H328.742z"/>
		<path fill="#1F1A17" d="M338.687,118.271c-0.365,0.305-0.716,0.519-1.054,0.645c-0.337,0.125-0.699,0.188-1.086,0.188
			c-0.638,0-1.129-0.153-1.472-0.459s-0.514-0.697-0.514-1.173c0-0.279,0.064-0.534,0.193-0.765c0.13-0.23,0.3-0.416,0.509-0.556
			c0.21-0.14,0.446-0.245,0.709-0.316c0.193-0.05,0.485-0.099,0.875-0.145c0.795-0.094,1.381-0.204,1.757-0.333
			c0.003-0.133,0.005-0.217,0.005-0.252c0-0.394-0.093-0.671-0.279-0.832c-0.251-0.219-0.625-0.328-1.121-0.328
			c-0.463,0-0.805,0.08-1.025,0.239s-0.385,0.441-0.49,0.846l-0.963-0.129c0.088-0.404,0.231-0.731,0.433-0.979
			c0.2-0.249,0.49-0.44,0.87-0.574c0.379-0.135,0.818-0.201,1.318-0.201c0.496,0,0.898,0.057,1.209,0.171
			c0.31,0.115,0.538,0.259,0.684,0.433s0.248,0.393,0.307,0.657c0.032,0.165,0.049,0.462,0.049,0.891v1.288
			c0,0.898,0.021,1.467,0.063,1.704c0.041,0.238,0.124,0.467,0.248,0.685h-1.028C338.781,118.774,338.715,118.54,338.687,118.271z
			 M338.604,116.114c-0.358,0.143-0.895,0.265-1.608,0.364c-0.405,0.058-0.691,0.122-0.859,0.193
			c-0.168,0.072-0.297,0.177-0.389,0.314c-0.091,0.138-0.137,0.291-0.137,0.459c0,0.257,0.1,0.472,0.298,0.644
			c0.199,0.172,0.49,0.258,0.873,0.258c0.379,0,0.717-0.081,1.012-0.244c0.296-0.163,0.513-0.386,0.651-0.668
			c0.105-0.219,0.159-0.54,0.159-0.967V116.114z"/>
		<path fill="#1F1A17" d="M341.81,118.975v-5.7h0.887v0.811c0.427-0.626,1.043-0.938,1.849-0.938c0.351,0,0.672,0.062,0.966,0.185
			c0.294,0.124,0.514,0.285,0.659,0.486c0.146,0.2,0.248,0.438,0.307,0.713c0.036,0.18,0.055,0.492,0.055,0.939v3.505h-0.984v-3.467
			c0-0.394-0.039-0.688-0.115-0.883c-0.077-0.195-0.213-0.351-0.407-0.468c-0.195-0.116-0.425-0.174-0.688-0.174
			c-0.419,0-0.781,0.131-1.086,0.392c-0.304,0.262-0.456,0.757-0.456,1.486v3.113H341.81z"/>
		<path fill="#1F1A17" d="M347.781,119.447l0.958,0.14c0.04,0.289,0.151,0.5,0.334,0.633c0.244,0.179,0.577,0.269,1.001,0.269
			c0.456,0,0.808-0.09,1.056-0.269s0.416-0.43,0.503-0.751c0.052-0.197,0.075-0.61,0.071-1.24c-0.431,0.497-0.967,0.746-1.608,0.746
			c-0.799,0-1.417-0.282-1.854-0.848s-0.656-1.243-0.656-2.034c0-0.544,0.1-1.046,0.301-1.506c0.2-0.46,0.491-0.814,0.872-1.065
			c0.382-0.25,0.829-0.375,1.344-0.375c0.686,0,1.251,0.271,1.695,0.815v-0.688h0.908v4.928c0,0.887-0.092,1.516-0.276,1.886
			c-0.184,0.371-0.476,0.663-0.875,0.878s-0.891,0.322-1.475,0.322c-0.692,0-1.253-0.153-1.68-0.459
			S347.767,120.063,347.781,119.447z M348.597,116.022c0,0.748,0.151,1.294,0.454,1.638c0.303,0.343,0.682,0.515,1.138,0.515
			c0.452,0,0.832-0.171,1.139-0.513c0.306-0.342,0.459-0.877,0.459-1.607c0-0.697-0.157-1.224-0.473-1.578
			c-0.315-0.354-0.696-0.531-1.141-0.531c-0.438,0-0.811,0.175-1.116,0.523C348.75,114.817,348.597,115.336,348.597,116.022z"/>
		<path fill="#1F1A17" d="M358.81,117.139l1.018,0.124c-0.16,0.583-0.458,1.036-0.892,1.357c-0.435,0.322-0.988,0.483-1.663,0.483
			c-0.85,0-1.523-0.257-2.021-0.771c-0.498-0.513-0.747-1.233-0.747-2.16c0-0.959,0.252-1.703,0.755-2.232
			c0.504-0.529,1.156-0.794,1.959-0.794c0.776,0,1.411,0.259,1.903,0.777c0.493,0.52,0.739,1.249,0.739,2.19
			c0,0.057-0.002,0.143-0.006,0.258h-4.333c0.036,0.626,0.217,1.105,0.542,1.438c0.324,0.333,0.729,0.5,1.214,0.5
			c0.361,0,0.67-0.094,0.925-0.279C358.458,117.844,358.66,117.547,358.81,117.139z M355.576,115.577h3.244
			c-0.044-0.479-0.168-0.839-0.372-1.079c-0.313-0.372-0.72-0.558-1.22-0.558c-0.452,0-0.832,0.148-1.141,0.445
			S355.609,115.08,355.576,115.577z"/>
		<path fill="#1F1A17" d="M361.479,118.975v-5.7h0.887v0.864c0.226-0.404,0.435-0.671,0.626-0.8s0.402-0.192,0.632-0.192
			c0.332,0,0.669,0.104,1.013,0.311l-0.34,0.896c-0.24-0.14-0.481-0.209-0.722-0.209c-0.216,0-0.409,0.063-0.58,0.19
			c-0.172,0.127-0.294,0.303-0.366,0.528c-0.11,0.344-0.165,0.72-0.165,1.127v2.984H361.479z"/>
	</g>
	<polygon fill-rule="evenodd" clip-rule="evenodd" fill="#FFFFFF" points="159.779,16.334 160.297,22.148 163.38,26.761 
		167.993,30.174 173.124,32.41 178.937,32.41 184.067,30.174 188.163,26.761 191.081,22.148 192.093,16.334 191.081,10.521 
		188.163,5.908 184.067,2.472 178.937,0.259 173.124,0.259 167.993,2.472 163.38,5.908 160.297,10.521 159.779,16.334 	"/>
	<polygon fill="#131516" points="160.085,22.29 160.556,22.125 160.038,16.311 159.521,16.358 160.038,22.172 160.085,22.29 
		160.038,22.172 160.038,22.219 160.085,22.29 	"/>
	<polygon fill="#131516" points="163.215,26.973 163.592,26.62 160.509,22.007 160.085,22.29 163.168,26.903 163.215,26.973 
		163.168,26.903 163.192,26.926 163.215,26.973 	"/>
	<polygon fill="#131516" points="167.899,30.41 168.134,29.962 163.521,26.549 163.215,26.973 167.828,30.386 167.899,30.41 
		167.828,30.386 167.852,30.41 167.899,30.41 	"/>
	<polygon fill="#131516" points="173.124,32.669 173.218,32.175 168.087,29.939 167.899,30.41 173.006,32.646 173.124,32.669 
		173.006,32.646 173.077,32.669 173.124,32.669 	"/>
	<polygon fill="#131516" points="179.031,32.646 178.937,32.151 173.124,32.151 173.124,32.669 178.937,32.669 179.031,32.646 
		178.937,32.669 178.984,32.669 179.031,32.646 	"/>
	<polygon fill="#131516" points="184.232,30.386 183.95,29.939 178.819,32.175 179.031,32.646 184.162,30.41 184.232,30.386 
		184.162,30.41 184.185,30.41 184.232,30.386 	"/>
	<polygon fill="#131516" points="188.374,26.903 187.998,26.573 183.903,29.986 184.232,30.386 188.327,26.95 188.374,26.903 
		188.327,26.95 188.351,26.926 188.374,26.903 	"/>
	<polygon fill="#131516" points="191.316,22.195 190.846,22.007 187.951,26.62 188.374,26.903 191.293,22.29 191.316,22.195 
		191.293,22.29 191.316,22.242 191.316,22.195 	"/>
	<polygon fill="#131516" points="192.352,16.288 191.834,16.288 190.822,22.101 191.316,22.195 192.352,16.382 192.352,16.288 
		192.352,16.382 192.352,16.334 192.352,16.288 	"/>
	<polygon fill="#131516" points="191.293,10.38 190.822,10.568 191.834,16.382 192.352,16.288 191.316,10.474 191.293,10.38 
		191.316,10.474 191.316,10.427 191.293,10.38 	"/>
	<polygon fill="#131516" points="188.327,5.696 187.951,6.025 190.846,10.662 191.293,10.38 188.374,5.767 188.327,5.696 
		188.374,5.767 188.351,5.72 188.327,5.696 	"/>
	<polygon fill="#131516" points="184.162,2.236 183.903,2.683 187.998,6.096 188.327,5.696 184.232,2.283 184.162,2.236 
		184.232,2.283 184.185,2.26 184.162,2.236 	"/>
	<polygon fill="#131516" points="178.937,0 178.819,0.495 183.95,2.707 184.162,2.236 179.031,0.024 178.937,0 179.031,0.024 
		178.984,0 178.937,0 	"/>
	<polygon fill="#131516" points="173.006,0.024 173.124,0.518 178.937,0.518 178.937,0 173.124,0 173.006,0.024 173.124,0 
		173.077,0 173.006,0.024 	"/>
	<polygon fill="#131516" points="167.828,2.283 168.087,2.707 173.218,0.495 173.006,0.024 167.899,2.236 167.828,2.283 
		167.899,2.236 167.852,2.26 167.828,2.283 	"/>
	<polygon fill="#131516" points="163.168,5.767 163.521,6.096 168.134,2.683 167.828,2.283 163.215,5.696 163.168,5.767 
		163.215,5.696 163.192,5.72 163.168,5.767 	"/>
	<polygon fill="#131516" points="160.038,10.498 160.509,10.662 163.592,6.049 163.168,5.767 160.085,10.38 160.038,10.498 
		160.085,10.38 160.038,10.427 160.038,10.498 	"/>
	<polygon fill="#131516" points="159.521,16.358 160.038,16.358 160.556,10.544 160.038,10.498 159.521,16.311 159.521,16.358 
		159.521,16.311 159.521,16.334 159.521,16.358 	"/>
	<polygon fill="#131516" points="168.111,2.26 167.734,2.472 167.734,30.174 168.252,30.174 168.252,2.472 168.111,2.26 
		168.111,2.26 167.734,2.048 167.734,2.472 	"/>
	<polygon fill="#131516" points="192.234,16.546 192.234,16.099 168.111,2.26 167.852,2.707 191.976,16.546 192.234,16.546 
		192.234,16.546 192.61,16.334 192.234,16.099 	"/>
	
		<rect x="166.132" y="22.996" transform="matrix(-0.867 0.4983 -0.4983 -0.867 347.7322 -46.2921)" fill="#131516" width="27.823" height="0.517"/>
	<polygon fill-rule="evenodd" clip-rule="evenodd" fill="#FFFFFF" points="222.947,16.711 224.124,19.63 226.878,21.842 
		229.938,21.842 232.69,19.63 233.867,16.711 232.69,13.134 229.938,11.416 226.878,11.416 224.124,13.134 222.947,16.711 	"/>
	<polygon fill="#1F1A17" points="224.289,19.418 223.889,19.724 222.688,16.805 223.183,16.617 224.359,19.512 224.289,19.418 
		223.982,19.818 223.912,19.771 223.889,19.724 	"/>
	<polygon fill="#1F1A17" points="226.878,21.583 226.713,22.031 223.982,19.818 224.289,19.418 227.019,21.654 226.878,21.583 
		226.878,22.101 226.783,22.101 226.713,22.031 	"/>
	<polygon fill="#1F1A17" points="229.796,21.654 229.938,22.101 226.878,22.101 226.878,21.583 229.938,21.583 229.796,21.654 
		230.102,22.031 230.031,22.101 229.938,22.101 	"/>
	<polygon fill="#1F1A17" points="232.455,19.512 232.832,19.818 230.102,22.031 229.796,21.654 232.526,19.418 232.455,19.512 
		232.926,19.724 232.902,19.771 232.832,19.818 	"/>
	<polygon fill="#1F1A17" points="233.632,16.782 234.103,16.805 232.926,19.724 232.455,19.512 233.632,16.617 233.632,16.782 
		234.126,16.641 234.149,16.711 234.103,16.805 	"/>
	<polygon fill="#1F1A17" points="232.55,13.345 232.926,13.04 234.126,16.641 233.632,16.782 232.432,13.204 232.55,13.345 
		232.809,12.898 232.902,12.945 232.926,13.04 	"/>
	<polygon fill="#1F1A17" points="229.938,11.674 230.078,11.204 232.809,12.898 232.55,13.345 229.819,11.627 229.938,11.674 
		229.938,11.157 230.008,11.157 230.078,11.204 	"/>
	<polygon fill="#1F1A17" points="226.995,11.627 226.878,11.157 229.938,11.157 229.938,11.674 226.878,11.674 226.995,11.627 
		226.736,11.204 226.783,11.157 226.878,11.157 	"/>
	<polygon fill="#1F1A17" points="224.383,13.204 224.006,12.898 226.736,11.204 226.995,11.627 224.266,13.345 224.383,13.204 
		223.889,13.04 223.912,12.945 224.006,12.898 	"/>
	<polygon fill="#1F1A17" points="223.183,16.617 222.688,16.641 223.889,13.04 224.383,13.204 223.183,16.782 223.183,16.617 
		222.688,16.805 222.665,16.711 222.688,16.641 	"/>
	<polygon fill-rule="evenodd" clip-rule="evenodd" fill="#FFFFFF" points="234.126,185.846 232.949,188.766 230.196,190.977 
		227.137,190.977 224.383,188.766 223.206,185.846 224.383,182.246 227.137,180.551 230.196,180.551 232.949,182.246 
		234.126,185.846 	"/>
	<polygon fill="#1F1A17" points="233.091,188.953 233.185,188.859 234.361,185.941 233.891,185.752 232.714,188.646 
		233.091,188.953 233.091,188.953 233.161,188.906 233.185,188.859 	"/>
	<polygon fill="#1F1A17" points="230.196,191.236 230.36,191.166 233.091,188.953 232.785,188.553 230.031,190.789 230.196,191.236 
		230.196,191.236 230.29,191.236 230.36,191.166 	"/>
	<polygon fill="#1F1A17" points="226.972,191.166 227.137,191.236 230.196,191.236 230.196,190.719 227.137,190.719 
		226.972,191.166 226.972,191.166 227.042,191.236 227.137,191.236 	"/>
	<polygon fill="#1F1A17" points="224.147,188.859 224.218,188.953 226.972,191.166 227.277,190.789 224.548,188.553 
		224.147,188.859 224.147,188.859 224.171,188.906 224.218,188.953 	"/>
	<polygon fill="#1F1A17" points="222.947,185.775 222.947,185.941 224.147,188.859 224.618,188.646 223.441,185.752 
		222.947,185.775 222.947,185.775 222.924,185.846 222.947,185.941 	"/>
	<polygon fill="#1F1A17" points="224.266,182.033 224.147,182.174 222.947,185.775 223.441,185.918 224.642,182.34 224.266,182.033 
		224.266,182.033 224.171,182.08 224.147,182.174 	"/>
	<polygon fill="#1F1A17" points="227.137,180.291 226.995,180.338 224.266,182.033 224.524,182.48 227.254,180.762 227.137,180.291 
		227.137,180.291 227.042,180.291 226.995,180.338 	"/>
	<polygon fill="#1F1A17" points="230.337,180.338 230.196,180.291 227.137,180.291 227.137,180.809 230.196,180.809 
		230.337,180.338 230.337,180.338 230.267,180.291 230.196,180.291 	"/>
	<polygon fill="#1F1A17" points="233.185,182.174 233.067,182.033 230.337,180.338 230.078,180.762 232.809,182.48 233.185,182.174 
		233.185,182.174 233.161,182.08 233.067,182.033 	"/>
	<polygon fill="#1F1A17" points="234.361,185.941 234.386,185.775 233.185,182.174 232.69,182.34 233.891,185.918 234.361,185.941 
		234.361,185.941 234.409,185.846 234.386,185.775 	"/>
	<polygon fill-rule="evenodd" clip-rule="evenodd" fill="#FFFFFF" points="118.828,16.405 120.029,19.324 122.759,21.536 
		125.842,21.536 128.572,19.324 129.772,16.405 128.572,12.828 125.842,11.109 122.759,11.109 120.029,12.828 118.828,16.405 	"/>
	<polygon fill="#1F1A17" points="120.193,19.112 119.793,19.418 118.593,16.5 119.063,16.311 120.264,19.229 120.193,19.112 
		119.864,19.512 119.817,19.465 119.793,19.418 	"/>
	<polygon fill="#1F1A17" points="122.759,21.277 122.594,21.748 119.864,19.512 120.193,19.112 122.923,21.348 122.759,21.277 
		122.759,21.795 122.665,21.795 122.594,21.748 	"/>
	<polygon fill="#1F1A17" points="125.677,21.348 125.842,21.795 122.759,21.795 122.759,21.277 125.842,21.277 125.677,21.348 
		126.006,21.748 125.936,21.795 125.842,21.795 	"/>
	<polygon fill="#1F1A17" points="128.336,19.229 128.737,19.512 126.006,21.748 125.677,21.348 128.407,19.112 128.336,19.229 
		128.807,19.418 128.784,19.465 128.737,19.512 	"/>
	<polygon fill="#1F1A17" points="129.537,16.5 130.007,16.5 128.807,19.418 128.336,19.229 129.537,16.311 129.537,16.5 
		130.007,16.334 130.031,16.429 130.007,16.5 	"/>
	<polygon fill="#1F1A17" points="128.431,13.04 128.807,12.733 130.007,16.334 129.537,16.5 128.336,12.898 128.431,13.04 
		128.713,12.592 128.784,12.663 128.807,12.733 	"/>
	<polygon fill="#1F1A17" points="125.842,11.369 125.983,10.897 128.713,12.592 128.431,13.04 125.701,11.321 125.842,11.369 
		125.842,10.851 125.913,10.851 125.983,10.897 	"/>
	<polygon fill="#1F1A17" points="122.9,11.321 122.759,10.851 125.842,10.851 125.842,11.369 122.759,11.369 122.9,11.321 
		122.618,10.897 122.688,10.851 122.759,10.851 	"/>
	<polygon fill="#1F1A17" points="120.264,12.898 119.888,12.592 122.618,10.897 122.9,11.321 120.17,13.04 120.264,12.898 
		119.77,12.733 119.817,12.663 119.888,12.592 	"/>
	<polygon fill="#1F1A17" points="119.063,16.311 118.593,16.334 119.77,12.733 120.264,12.898 119.063,16.5 119.063,16.311 
		118.593,16.5 118.546,16.429 118.593,16.334 	"/>
	
		<line fill="none" stroke="#25221E" stroke-width="0" stroke-linecap="square" stroke-miterlimit="10" x1="129.702" y1="16.17" x2="159.968" y2="16.17"/>
	<polygon fill-rule="evenodd" clip-rule="evenodd" fill="#1F1A17" points="159.968,16.17 153.801,13.086 153.801,19.253 
		159.968,16.17 159.968,16.17 	"/>
	
		<line fill="none" stroke="#25221E" stroke-width="0" stroke-linecap="square" stroke-miterlimit="10" x1="192.493" y1="16.334" x2="222.759" y2="16.334"/>
	<polygon fill-rule="evenodd" clip-rule="evenodd" fill="#1F1A17" points="222.759,16.334 216.593,13.251 216.593,19.418 
		222.759,16.334 222.759,16.334 	"/>
	<polygon fill-rule="evenodd" clip-rule="evenodd" fill="#FFFFFF" points="131.373,185.682 130.172,188.576 127.418,190.813 
		124.359,190.813 121.605,188.576 120.429,185.682 121.605,182.08 124.359,180.363 127.418,180.363 130.172,182.08 131.373,185.682 
			"/>
	<polygon fill="#1F1A17" points="130.337,188.789 130.408,188.67 131.608,185.775 131.137,185.588 129.937,188.482 130.337,188.789 
		130.337,188.789 130.384,188.742 130.408,188.67 	"/>
	<polygon fill="#1F1A17" points="127.418,191.072 127.583,191 130.337,188.789 130.007,188.389 127.277,190.602 127.418,191.072 
		127.418,191.072 127.513,191.072 127.583,191 	"/>
	<polygon fill="#1F1A17" points="124.194,191 124.359,191.072 127.418,191.072 127.418,190.555 124.359,190.555 124.194,191 
		124.194,191 124.265,191.072 124.359,191.072 	"/>
	<polygon fill="#1F1A17" points="121.37,188.67 121.464,188.789 124.194,191 124.524,190.602 121.771,188.389 121.37,188.67 
		121.37,188.67 121.417,188.742 121.464,188.789 	"/>
	<polygon fill="#1F1A17" points="120.17,185.588 120.193,185.775 121.37,188.67 121.864,188.482 120.664,185.588 120.17,185.588 
		120.17,185.588 120.146,185.682 120.193,185.775 	"/>
	<polygon fill="#1F1A17" points="121.488,181.869 121.37,182.01 120.17,185.588 120.664,185.752 121.864,182.174 121.488,181.869 
		121.488,181.869 121.394,181.916 121.37,182.01 	"/>
	<polygon fill="#1F1A17" points="124.359,180.127 124.218,180.15 121.488,181.869 121.747,182.293 124.477,180.598 124.359,180.127 
		124.359,180.127 124.289,180.127 124.218,180.15 	"/>
	<polygon fill="#1F1A17" points="127.56,180.15 127.418,180.127 124.359,180.127 124.359,180.621 127.418,180.621 127.56,180.15 
		127.56,180.15 127.513,180.127 127.418,180.127 	"/>
	<polygon fill="#1F1A17" points="130.408,182.01 130.29,181.869 127.56,180.15 127.301,180.598 130.031,182.293 130.408,182.01 
		130.408,182.01 130.384,181.916 130.29,181.869 	"/>
	<polygon fill="#1F1A17" points="131.608,185.775 131.608,185.588 130.408,182.01 129.914,182.174 131.114,185.752 131.608,185.775 
		131.608,185.775 131.631,185.682 131.608,185.588 	"/>
	
		<line fill="none" stroke="#25221E" stroke-width="0" stroke-linecap="square" stroke-miterlimit="10" x1="223.441" y1="185.918" x2="131.537" y2="185.918"/>
	<polygon fill-rule="evenodd" clip-rule="evenodd" fill="#1F1A17" points="131.537,185.918 137.704,189 137.704,182.811 
		131.537,185.918 131.537,185.918 	"/>
	
		<line fill="none" stroke="#25221E" stroke-width="0" stroke-linecap="square" stroke-miterlimit="10" x1="228.549" y1="22.101" x2="228.549" y2="52.393"/>
	<polygon fill-rule="evenodd" clip-rule="evenodd" fill="#1F1A17" points="228.549,52.393 231.632,46.203 225.466,46.203 
		228.549,52.393 228.549,52.393 	"/>
	
		<line fill="none" stroke="#25221E" stroke-width="0" stroke-linecap="square" stroke-miterlimit="10" x1="228.384" y1="149.459" x2="228.384" y2="179.727"/>
	<polygon fill-rule="evenodd" clip-rule="evenodd" fill="#1F1A17" points="228.384,179.727 231.467,173.561 225.301,173.561 
		228.384,179.727 228.384,179.727 	"/>
	<polygon fill-rule="evenodd" clip-rule="evenodd" fill="#FFFFFF" points="91.716,16.876 92.917,19.794 95.67,22.007 98.729,22.007 
		101.483,19.794 102.66,16.876 101.483,13.298 98.729,11.58 95.67,11.58 92.917,13.298 91.716,16.876 	"/>
	<polygon fill="#1F1A17" points="93.081,19.583 92.681,19.889 91.48,16.97 91.951,16.782 93.152,19.677 93.081,19.583 
		92.751,19.983 92.705,19.936 92.681,19.889 	"/>
	<polygon fill="#1F1A17" points="95.67,21.748 95.505,22.195 92.751,19.983 93.081,19.583 95.811,21.819 95.67,21.748 95.67,22.266 
		95.576,22.266 95.505,22.195 	"/>
	<polygon fill="#1F1A17" points="98.565,21.819 98.729,22.266 95.67,22.266 95.67,21.748 98.729,21.748 98.565,21.819 
		98.894,22.195 98.824,22.266 98.729,22.266 	"/>
	<polygon fill="#1F1A17" points="101.248,19.677 101.625,19.983 98.894,22.195 98.565,21.819 101.318,19.583 101.248,19.677 
		101.718,19.889 101.695,19.936 101.625,19.983 	"/>
	<polygon fill="#1F1A17" points="102.424,16.947 102.895,16.97 101.718,19.889 101.248,19.677 102.424,16.782 102.424,16.947 
		102.919,16.805 102.942,16.876 102.895,16.97 	"/>
	<polygon fill="#1F1A17" points="101.342,13.51 101.718,13.204 102.919,16.805 102.424,16.947 101.224,13.369 101.342,13.51 
		101.601,13.063 101.695,13.11 101.718,13.204 	"/>
	<polygon fill="#1F1A17" points="98.729,11.839 98.871,11.369 101.601,13.063 101.342,13.51 98.612,11.792 98.729,11.839 
		98.729,11.321 98.8,11.321 98.871,11.369 	"/>
	<polygon fill="#1F1A17" points="95.788,11.792 95.67,11.321 98.729,11.321 98.729,11.839 95.67,11.839 95.788,11.792 
		95.529,11.369 95.576,11.321 95.67,11.321 	"/>
	<polygon fill="#1F1A17" points="93.175,13.369 92.799,13.063 95.529,11.369 95.788,11.792 93.058,13.51 93.175,13.369 
		92.681,13.204 92.705,13.11 92.799,13.063 	"/>
	<polygon fill="#1F1A17" points="91.951,16.782 91.48,16.805 92.681,13.204 93.175,13.369 91.975,16.947 91.951,16.782 91.48,16.97 
		91.457,16.876 91.48,16.805 	"/>
	<polygon fill-rule="evenodd" clip-rule="evenodd" fill="#FFFFFF" points="60.721,16.264 59.52,13.369 56.79,11.133 53.707,11.133 
		50.977,13.369 49.777,16.264 50.977,19.865 53.707,21.56 56.79,21.56 59.52,19.865 60.721,16.264 	"/>
	<polygon fill="#1F1A17" points="59.355,13.557 59.755,13.275 60.956,16.17 60.485,16.358 59.285,13.463 59.355,13.557 
		59.685,13.157 59.732,13.204 59.755,13.275 	"/>
	<polygon fill="#1F1A17" points="56.79,11.392 56.955,10.945 59.685,13.157 59.355,13.557 56.625,11.345 56.79,11.392 56.79,10.874 
		56.884,10.874 56.955,10.945 	"/>
	<polygon fill="#1F1A17" points="53.872,11.345 53.707,10.874 56.79,10.874 56.79,11.392 53.707,11.392 53.872,11.345 
		53.542,10.945 53.613,10.874 53.707,10.874 	"/>
	<polygon fill="#1F1A17" points="51.212,13.463 50.812,13.157 53.542,10.945 53.872,11.345 51.142,13.557 51.212,13.463 
		50.742,13.275 50.765,13.204 50.812,13.157 	"/>
	<polygon fill="#1F1A17" points="50.012,16.193 49.542,16.17 50.742,13.275 51.212,13.463 50.012,16.358 50.012,16.193 
		49.542,16.358 49.518,16.264 49.542,16.17 	"/>
	<polygon fill="#1F1A17" points="51.118,19.63 50.742,19.936 49.542,16.358 50.012,16.193 51.212,19.771 51.118,19.63 
		50.836,20.077 50.765,20.03 50.742,19.936 	"/>
	<polygon fill="#1F1A17" points="53.707,21.301 53.566,21.795 50.836,20.077 51.118,19.63 53.848,21.348 53.707,21.301 
		53.707,21.819 53.636,21.819 53.566,21.795 	"/>
	<polygon fill="#1F1A17" points="56.649,21.348 56.79,21.819 53.707,21.819 53.707,21.301 56.79,21.301 56.649,21.348 
		56.931,21.795 56.861,21.819 56.79,21.819 	"/>
	<polygon fill="#1F1A17" points="59.285,19.771 59.662,20.077 56.931,21.795 56.649,21.348 59.379,19.63 59.285,19.771 
		59.779,19.936 59.732,20.03 59.662,20.077 	"/>
	<polygon fill="#1F1A17" points="60.485,16.358 60.956,16.358 59.779,19.936 59.285,19.771 60.485,16.193 60.485,16.358 
		60.956,16.17 61.003,16.264 60.956,16.358 	"/>
	
		<line fill="none" stroke="#25221E" stroke-width="0" stroke-linecap="square" stroke-miterlimit="10" x1="61.285" y1="16.5" x2="91.551" y2="16.5"/>
	<polygon fill-rule="evenodd" clip-rule="evenodd" fill="#1F1A17" points="91.551,16.5 85.385,13.416 85.385,19.583 91.551,16.5 
		91.551,16.5 	"/>
	<polygon fill-rule="evenodd" clip-rule="evenodd" fill="#FFFFFF" points="103.695,186.059 102.495,188.977 99.765,191.189 
		96.682,191.189 93.952,188.977 92.751,186.059 93.952,182.48 96.682,180.762 99.765,180.762 102.495,182.48 103.695,186.059 	"/>
	<polygon fill="#1F1A17" points="102.66,189.166 102.73,189.07 103.931,186.152 103.46,185.965 102.26,188.883 102.66,189.166 
		102.66,189.166 102.707,189.117 102.73,189.07 	"/>
	<polygon fill="#1F1A17" points="99.765,191.447 99.93,191.4 102.66,189.166 102.331,188.766 99.6,191 99.765,191.447 
		99.765,191.447 99.859,191.447 99.93,191.4 	"/>
	<polygon fill="#1F1A17" points="96.517,191.4 96.682,191.447 99.765,191.447 99.765,190.93 96.682,190.93 96.517,191.4 
		96.517,191.4 96.588,191.447 96.682,191.447 	"/>
	<polygon fill="#1F1A17" points="93.717,189.07 93.787,189.166 96.517,191.4 96.847,191 94.117,188.766 93.717,189.07 
		93.717,189.07 93.74,189.117 93.787,189.166 	"/>
	<polygon fill="#1F1A17" points="92.516,185.988 92.516,186.152 93.717,189.07 94.188,188.883 92.987,185.965 92.516,185.988 
		92.516,185.988 92.469,186.082 92.516,186.152 	"/>
	<polygon fill="#1F1A17" points="93.811,182.246 93.693,182.387 92.516,185.988 92.987,186.152 94.188,182.551 93.811,182.246 
		93.811,182.246 93.74,182.293 93.693,182.387 	"/>
	<polygon fill="#1F1A17" points="96.682,180.504 96.541,180.551 93.811,182.246 94.093,182.693 96.823,180.975 96.682,180.504 
		96.682,180.504 96.611,180.504 96.541,180.551 	"/>
	<polygon fill="#1F1A17" points="99.906,180.551 99.765,180.504 96.682,180.504 96.682,181.021 99.765,181.021 99.906,180.551 
		99.906,180.551 99.835,180.504 99.765,180.504 	"/>
	<polygon fill="#1F1A17" points="102.73,182.387 102.636,182.246 99.906,180.551 99.624,180.975 102.354,182.693 102.73,182.387 
		102.73,182.387 102.707,182.293 102.636,182.246 	"/>
	<polygon fill="#1F1A17" points="103.931,186.152 103.931,185.988 102.73,182.387 102.26,182.551 103.46,186.152 103.931,186.152 
		103.931,186.152 103.954,186.082 103.931,185.988 	"/>
	
		<line fill="none" stroke="#25221E" stroke-width="0" stroke-linecap="square" stroke-miterlimit="10" x1="92.987" y1="185.988" x2="62.697" y2="185.988"/>
	<polygon fill-rule="evenodd" clip-rule="evenodd" fill="#1F1A17" points="62.697,185.988 68.864,189.07 68.864,182.904 
		62.697,185.988 62.697,185.988 	"/>
	<polygon fill-rule="evenodd" clip-rule="evenodd" fill="#FFFFFF" points="52.154,142.492 53.354,145.387 56.084,147.623 
		59.167,147.623 61.897,145.387 63.098,142.492 61.897,138.891 59.167,137.195 56.084,137.195 53.354,138.891 52.154,142.492 	"/>
	<polygon fill="#1F1A17" points="53.519,145.199 53.119,145.48 51.918,142.586 52.389,142.398 53.589,145.293 53.519,145.199 
		53.189,145.598 53.142,145.551 53.119,145.48 	"/>
	<polygon fill="#1F1A17" points="56.084,147.363 55.919,147.811 53.189,145.598 53.519,145.199 56.249,147.41 56.084,147.363 
		56.084,147.881 55.99,147.881 55.919,147.811 	"/>
	<polygon fill="#1F1A17" points="59.002,147.41 59.167,147.881 56.084,147.881 56.084,147.363 59.167,147.363 59.002,147.41 
		59.332,147.811 59.261,147.881 59.167,147.881 	"/>
	<polygon fill="#1F1A17" points="61.662,145.293 62.062,145.598 59.332,147.811 59.002,147.41 61.732,145.199 61.662,145.293 
		62.133,145.48 62.109,145.551 62.062,145.598 	"/>
	<polygon fill="#1F1A17" points="62.862,142.563 63.333,142.586 62.133,145.48 61.662,145.293 62.862,142.398 62.862,142.563 
		63.333,142.398 63.38,142.492 63.333,142.586 	"/>
	<polygon fill="#1F1A17" points="61.756,139.102 62.156,138.82 63.333,142.398 62.862,142.563 61.662,138.984 61.756,139.102 
		62.039,138.68 62.109,138.727 62.156,138.82 	"/>
	<polygon fill="#1F1A17" points="59.167,137.432 59.309,136.961 62.039,138.68 61.756,139.102 59.026,137.408 59.167,137.432 
		59.167,136.938 59.238,136.938 59.309,136.961 	"/>
	<polygon fill="#1F1A17" points="56.225,137.408 56.084,136.938 59.167,136.938 59.167,137.432 56.084,137.432 56.225,137.408 
		55.943,136.961 56.014,136.938 56.084,136.938 	"/>
	<polygon fill="#1F1A17" points="53.589,138.984 53.213,138.68 55.943,136.961 56.225,137.408 53.495,139.102 53.589,138.984 
		53.119,138.82 53.142,138.727 53.213,138.68 	"/>
	<polygon fill="#1F1A17" points="52.389,142.398 51.918,142.398 53.119,138.82 53.589,138.984 52.389,142.563 52.389,142.398 
		51.918,142.586 51.895,142.492 51.918,142.398 	"/>
	<polyline fill="none" stroke="#242729" stroke-width="0" stroke-linecap="square" stroke-miterlimit="10" points="65.31,120.344 
		65.31,82.026 0.259,82.026 0.259,120.344 65.31,120.344 	"/>
	<g>
		<path fill="#1F1A17" d="M25.867,103.044l1.062,0.263c-0.223,0.855-0.623,1.508-1.201,1.957s-1.285,0.673-2.12,0.673
			c-0.865,0-1.567-0.172-2.109-0.518c-0.542-0.345-0.954-0.846-1.236-1.5c-0.283-0.655-0.424-1.357-0.424-2.109
			c0-0.819,0.16-1.534,0.479-2.144c0.319-0.61,0.773-1.074,1.362-1.391s1.237-0.475,1.945-0.475c0.802,0,1.477,0.2,2.024,0.601
			c0.547,0.401,0.928,0.965,1.143,1.69l-1.045,0.242c-0.186-0.572-0.456-0.989-0.81-1.251c-0.354-0.261-0.799-0.392-1.335-0.392
			c-0.616,0-1.131,0.145-1.545,0.435s-0.705,0.679-0.873,1.168c-0.168,0.488-0.251,0.991-0.251,1.511
			c0,0.669,0.099,1.253,0.298,1.752s0.508,0.872,0.927,1.119s0.874,0.37,1.362,0.37c0.595,0,1.098-0.168,1.51-0.505
			C25.442,104.205,25.721,103.706,25.867,103.044z"/>
		<path fill="#1F1A17" d="M28.278,105.803v-7.868h0.984v2.823c0.459-0.522,1.04-0.783,1.74-0.783c0.431,0,0.804,0.083,1.122,0.249
			s0.544,0.396,0.681,0.689c0.137,0.294,0.205,0.72,0.205,1.277v3.612h-0.985v-3.612c0-0.482-0.106-0.834-0.32-1.055
			c-0.213-0.22-0.515-0.33-0.905-0.33c-0.292,0-0.566,0.074-0.824,0.223c-0.257,0.149-0.44,0.351-0.55,0.604
			c-0.109,0.254-0.164,0.604-0.164,1.052v3.118H28.278z"/>
		<path fill="#1F1A17" d="M34.437,99.046v-1.111h0.985v1.111H34.437z M34.437,105.803v-5.7h0.985v5.7H34.437z"/>
		<path fill="#1F1A17" d="M36.417,105.803v-7.868h0.985v7.868H36.417z"/>
		<path fill="#1F1A17" d="M38.402,105.803v-7.868h0.985v7.868H38.402z"/>
		<path fill="#1F1A17" d="M44.408,103.967l1.018,0.124c-0.161,0.583-0.458,1.036-0.892,1.357c-0.434,0.322-0.989,0.483-1.663,0.483
			c-0.85,0-1.524-0.257-2.021-0.771c-0.498-0.513-0.747-1.233-0.747-2.16c0-0.959,0.252-1.703,0.755-2.232
			c0.503-0.529,1.156-0.794,1.958-0.794c0.777,0,1.411,0.259,1.904,0.777c0.492,0.52,0.738,1.249,0.738,2.19
			c0,0.057-0.002,0.143-0.005,0.258H41.12c0.037,0.626,0.217,1.105,0.542,1.438c0.324,0.333,0.729,0.5,1.214,0.5
			c0.361,0,0.669-0.094,0.924-0.279C44.056,104.672,44.259,104.375,44.408,103.967z M41.175,102.405h3.244
			c-0.043-0.479-0.167-0.839-0.372-1.079c-0.314-0.372-0.721-0.558-1.22-0.558c-0.452,0-0.833,0.148-1.141,0.445
			S41.208,101.908,41.175,102.405z"/>
		<path fill="#1F1A17" d="M47.077,105.803v-5.7h0.886v0.864c0.226-0.404,0.435-0.671,0.626-0.8s0.402-0.192,0.632-0.192
			c0.332,0,0.669,0.104,1.012,0.311l-0.339,0.896c-0.241-0.14-0.481-0.209-0.722-0.209c-0.215,0-0.408,0.063-0.58,0.19
			s-0.294,0.303-0.367,0.528c-0.109,0.344-0.164,0.72-0.164,1.127v2.984H47.077z"/>
	</g>
	<polygon fill-rule="evenodd" clip-rule="evenodd" fill="#FFFFFF" points="0.259,156.543 1.459,159.461 4.189,161.674 
		7.272,161.674 10.002,159.461 11.203,156.543 10.002,152.965 7.272,151.248 4.189,151.248 1.459,152.965 0.259,156.543 	"/>
	<polygon fill="#1F1A17" points="1.624,159.273 1.224,159.557 0.024,156.66 0.495,156.449 1.695,159.367 1.624,159.273 
		1.294,159.65 1.248,159.627 1.224,159.557 	"/>
	<polygon fill="#1F1A17" points="4.189,161.416 4.048,161.887 1.294,159.65 1.624,159.273 4.354,161.486 4.189,161.416 
		4.189,161.934 4.119,161.934 4.048,161.887 	"/>
	<polygon fill="#1F1A17" points="7.108,161.486 7.272,161.934 4.189,161.934 4.189,161.416 7.272,161.416 7.108,161.486 
		7.437,161.887 7.367,161.934 7.272,161.934 	"/>
	<polygon fill="#1F1A17" points="9.767,159.367 10.167,159.65 7.437,161.887 7.108,161.486 9.861,159.273 9.767,159.367 
		10.238,159.557 10.214,159.627 10.167,159.65 	"/>
	<polygon fill="#1F1A17" points="10.967,156.637 11.438,156.66 10.238,159.557 9.767,159.367 10.967,156.449 10.967,156.637 
		11.462,156.473 11.485,156.566 11.438,156.66 	"/>
	<polygon fill="#1F1A17" points="9.885,153.178 10.261,152.871 11.462,156.473 10.967,156.637 9.767,153.037 9.885,153.178 
		10.144,152.754 10.214,152.801 10.261,152.871 	"/>
	<polygon fill="#1F1A17" points="7.272,151.506 7.414,151.035 10.144,152.754 9.885,153.178 7.131,151.459 7.272,151.506 
		7.272,150.988 7.343,150.988 7.414,151.035 	"/>
	<polygon fill="#1F1A17" points="4.331,151.459 4.189,150.988 7.272,150.988 7.272,151.506 4.189,151.506 4.331,151.459 
		4.072,151.035 4.119,150.988 4.189,150.988 	"/>
	<polygon fill="#1F1A17" points="1.695,153.037 1.318,152.754 4.072,151.035 4.331,151.459 1.601,153.178 1.695,153.037 
		1.224,152.871 1.248,152.801 1.318,152.754 	"/>
	<polygon fill="#1F1A17" points="0.495,156.449 0.024,156.473 1.224,152.871 1.695,153.037 0.518,156.637 0.495,156.449 
		0.024,156.66 0,156.566 0.024,156.473 	"/>
	<polygon fill-rule="evenodd" clip-rule="evenodd" fill="#FFFFFF" points="1.907,46.25 3.107,49.145 5.86,51.381 8.92,51.381 
		11.673,49.145 12.85,46.25 11.673,42.649 8.92,40.954 5.86,40.954 3.107,42.649 1.907,46.25 	"/>
	<polygon fill="#1F1A17" points="3.271,48.957 2.872,49.263 1.671,46.344 2.166,46.156 3.342,49.051 3.271,48.957 2.942,49.357 
		2.895,49.31 2.872,49.263 	"/>
	<polygon fill="#1F1A17" points="5.86,51.122 5.696,51.569 2.942,49.357 3.271,48.957 6.001,51.169 5.86,51.122 5.86,51.64 
		5.766,51.64 5.696,51.569 	"/>
	<polygon fill="#1F1A17" points="8.755,51.169 8.92,51.64 5.86,51.64 5.86,51.122 8.92,51.122 8.755,51.169 9.084,51.569 
		9.014,51.64 8.92,51.64 	"/>
	<polygon fill="#1F1A17" points="11.438,49.051 11.815,49.357 9.084,51.569 8.755,51.169 11.509,48.957 11.438,49.051 
		11.909,49.263 11.885,49.31 11.815,49.357 	"/>
	<polygon fill="#1F1A17" points="12.615,46.32 13.085,46.344 11.909,49.263 11.438,49.051 12.615,46.156 12.615,46.32 
		13.109,46.179 13.133,46.25 13.085,46.344 	"/>
	<polygon fill="#1F1A17" points="11.532,42.884 11.909,42.578 13.109,46.179 12.615,46.32 11.415,42.743 11.532,42.884 
		11.791,42.437 11.885,42.484 11.909,42.578 	"/>
	<polygon fill="#1F1A17" points="8.92,41.213 9.061,40.742 11.791,42.437 11.532,42.884 8.802,41.166 8.92,41.213 8.92,40.695 
		8.991,40.695 9.061,40.742 	"/>
	<polygon fill="#1F1A17" points="5.978,41.166 5.86,40.695 8.92,40.695 8.92,41.213 5.86,41.213 5.978,41.166 5.719,40.742 
		5.766,40.695 5.86,40.695 	"/>
	<polygon fill="#1F1A17" points="3.366,42.743 2.989,42.437 5.719,40.742 5.978,41.166 3.248,42.884 3.366,42.743 2.872,42.578 
		2.895,42.484 2.989,42.437 	"/>
	<polygon fill="#1F1A17" points="2.166,46.156 1.671,46.179 2.872,42.578 3.366,42.743 2.166,46.32 2.166,46.156 1.671,46.344 
		1.647,46.25 1.671,46.179 	"/>
	<polygon fill-rule="evenodd" clip-rule="evenodd" fill="#FFFFFF" points="49.259,57.312 50.459,60.231 53.189,62.443 
		56.272,62.443 59.002,60.231 60.203,57.312 59.002,53.734 56.272,52.016 53.189,52.016 50.459,53.734 49.259,57.312 	"/>
	<polygon fill="#1F1A17" points="50.624,60.019 50.224,60.325 49.023,57.406 49.494,57.218 50.694,60.113 50.624,60.019 
		50.294,60.419 50.248,60.372 50.224,60.325 	"/>
	<polygon fill="#1F1A17" points="53.189,62.184 53.048,62.631 50.294,60.419 50.624,60.019 53.354,62.255 53.189,62.184 
		53.189,62.702 53.119,62.702 53.048,62.631 	"/>
	<polygon fill="#1F1A17" points="56.107,62.255 56.272,62.702 53.189,62.702 53.189,62.184 56.272,62.184 56.107,62.255 
		56.437,62.631 56.367,62.702 56.272,62.702 	"/>
	<polygon fill="#1F1A17" points="58.767,60.113 59.167,60.419 56.437,62.631 56.107,62.255 58.861,60.019 58.767,60.113 
		59.261,60.325 59.214,60.372 59.167,60.419 	"/>
	<polygon fill="#1F1A17" points="59.967,57.383 60.438,57.406 59.261,60.325 58.767,60.113 59.967,57.218 59.967,57.383 
		60.461,57.242 60.485,57.312 60.438,57.406 	"/>
	<polygon fill="#1F1A17" points="58.885,53.946 59.261,53.64 60.461,57.242 59.967,57.383 58.767,53.805 58.885,53.946 
		59.144,53.499 59.238,53.546 59.261,53.64 	"/>
	<polygon fill="#1F1A17" points="56.272,52.275 56.414,51.805 59.144,53.499 58.885,53.946 56.155,52.228 56.272,52.275 
		56.272,51.757 56.343,51.757 56.414,51.805 	"/>
	<polygon fill="#1F1A17" points="53.331,52.228 53.189,51.757 56.272,51.757 56.272,52.275 53.189,52.275 53.331,52.228 
		53.072,51.805 53.119,51.757 53.189,51.757 	"/>
	<polygon fill="#1F1A17" points="50.718,53.805 50.342,53.499 53.072,51.805 53.331,52.228 50.601,53.946 50.718,53.805 
		50.224,53.64 50.248,53.546 50.342,53.499 	"/>
	<polygon fill="#1F1A17" points="49.494,57.218 49.023,57.242 50.224,53.64 50.718,53.805 49.518,57.383 49.494,57.218 
		49.023,57.406 49,57.312 49.023,57.242 	"/>
	
		<line fill="none" stroke="#25221E" stroke-width="0" stroke-linecap="square" stroke-miterlimit="10" x1="7.484" y1="51.593" x2="7.484" y2="81.884"/>
	<polygon fill-rule="evenodd" clip-rule="evenodd" fill="#1F1A17" points="7.484,81.884 10.567,75.718 4.378,75.718 7.484,81.884 
		7.484,81.884 	"/>
	
		<line fill="none" stroke="#25221E" stroke-width="0" stroke-linecap="square" stroke-miterlimit="10" x1="57.873" y1="137.266" x2="57.873" y2="120.508"/>
	<polygon fill-rule="evenodd" clip-rule="evenodd" fill="#1F1A17" points="57.873,120.508 54.79,126.676 60.956,126.676 
		57.873,120.508 57.873,120.508 	"/>
	
		<line fill="none" stroke="#25221E" stroke-width="0" stroke-linecap="square" stroke-miterlimit="10" x1="54.225" y1="82.19" x2="54.225" y2="63.125"/>
	<polygon fill-rule="evenodd" clip-rule="evenodd" fill="#1F1A17" points="54.225,63.125 51.142,69.292 57.308,69.292 
		54.225,63.125 54.225,63.125 	"/>
	
		<line fill="none" stroke="#25221E" stroke-width="0" stroke-linecap="square" stroke-miterlimit="10" x1="5.79" y1="120.814" x2="5.79" y2="151.082"/>
	<polygon fill-rule="evenodd" clip-rule="evenodd" fill="#1F1A17" points="5.79,151.082 8.873,144.916 2.707,144.916 5.79,151.082 
		5.79,151.082 	"/>
	<polygon fill-rule="evenodd" clip-rule="evenodd" fill="#FFFFFF" points="51.636,185.398 52.836,182.48 55.566,180.268 
		58.649,180.268 61.379,182.48 62.58,185.398 61.379,188.977 58.649,190.695 55.566,190.695 52.836,188.977 51.636,185.398 	"/>
	<polygon fill="#1F1A17" points="52.671,182.293 52.601,182.387 51.4,185.305 51.871,185.494 53.072,182.598 52.671,182.293 
		52.671,182.293 52.625,182.34 52.601,182.387 	"/>
	<polygon fill="#1F1A17" points="55.566,180.01 55.401,180.08 52.671,182.293 53.001,182.693 55.731,180.457 55.566,180.01 
		55.566,180.01 55.472,180.01 55.401,180.08 	"/>
	<polygon fill="#1F1A17" points="58.814,180.08 58.649,180.01 55.566,180.01 55.566,180.527 58.649,180.527 58.814,180.08 
		58.814,180.08 58.744,180.01 58.649,180.01 	"/>
	<polygon fill="#1F1A17" points="61.615,182.387 61.544,182.293 58.814,180.08 58.485,180.457 61.215,182.693 61.615,182.387 
		61.615,182.387 61.591,182.34 61.544,182.293 	"/>
	<polygon fill="#1F1A17" points="62.815,185.471 62.815,185.305 61.615,182.387 61.144,182.598 62.344,185.494 62.815,185.471 
		62.815,185.471 62.862,185.398 62.815,185.305 	"/>
	<polygon fill="#1F1A17" points="61.521,189.213 61.638,189.07 62.815,185.471 62.344,185.328 61.144,188.906 61.521,189.213 
		61.521,189.213 61.591,189.166 61.638,189.07 	"/>
	<polygon fill="#1F1A17" points="58.649,190.953 58.791,190.906 61.521,189.213 61.238,188.766 58.508,190.482 58.649,190.953 
		58.649,190.953 58.72,190.953 58.791,190.906 	"/>
	<polygon fill="#1F1A17" points="55.449,190.906 55.566,190.953 58.649,190.953 58.649,190.436 55.566,190.436 55.449,190.906 
		55.449,190.906 55.496,190.953 55.566,190.953 	"/>
	<polygon fill="#1F1A17" points="52.601,189.07 52.695,189.213 55.449,190.906 55.708,190.482 52.978,188.766 52.601,189.07 
		52.601,189.07 52.625,189.166 52.695,189.213 	"/>
	<polygon fill="#1F1A17" points="51.4,185.305 51.4,185.471 52.601,189.07 53.072,188.906 51.871,185.328 51.4,185.305 
		51.4,185.305 51.377,185.398 51.4,185.471 	"/>
	
		<line fill="none" stroke="#25221E" stroke-width="0" stroke-linecap="square" stroke-miterlimit="10" x1="57.261" y1="180.01" x2="57.261" y2="148.611"/>
	<polygon fill-rule="evenodd" clip-rule="evenodd" fill="#1F1A17" points="57.261,148.611 54.178,154.777 60.344,154.777 
		57.261,148.611 57.261,148.611 	"/>
	
		<line fill="none" stroke="#25221E" stroke-width="0" stroke-linecap="square" stroke-miterlimit="10" x1="54.978" y1="51.757" x2="54.978" y2="21.466"/>
	<polygon fill-rule="evenodd" clip-rule="evenodd" fill="#1F1A17" points="54.978,21.466 51.895,27.656 58.061,27.656 
		54.978,21.466 54.978,21.466 	"/>
	<g>
		<path fill="#1F1A17" d="M163.176,42.959v-7.868h3.025c0.533,0,0.939,0.025,1.22,0.075c0.394,0.064,0.724,0.187,0.99,0.368
			c0.266,0.181,0.48,0.434,0.643,0.759c0.163,0.326,0.244,0.684,0.244,1.074c0,0.669-0.217,1.235-0.651,1.699
			c-0.434,0.463-1.218,0.695-2.353,0.695h-2.057v3.199H163.176z M164.237,38.832h2.073c0.686,0,1.173-0.125,1.461-0.375
			s0.432-0.603,0.432-1.057c0-0.329-0.085-0.611-0.254-0.846c-0.169-0.234-0.393-0.389-0.67-0.464
			c-0.179-0.046-0.509-0.07-0.99-0.07h-2.051V38.832z"/>
		<path fill="#1F1A17" d="M172.225,42.959v-0.837c-0.453,0.644-1.067,0.966-1.844,0.966c-0.343,0-0.663-0.064-0.96-0.193
			c-0.297-0.129-0.518-0.291-0.662-0.486c-0.144-0.195-0.246-0.434-0.304-0.716c-0.04-0.189-0.06-0.49-0.06-0.902v-3.531h0.985
			v3.161c0,0.504,0.02,0.844,0.06,1.02c0.062,0.254,0.193,0.454,0.394,0.599c0.201,0.145,0.449,0.217,0.744,0.217
			s0.573-0.074,0.832-0.223c0.259-0.148,0.442-0.351,0.55-0.606c0.108-0.256,0.162-0.627,0.162-1.114v-3.054h0.985v5.7H172.225z"/>
		<path fill="#1F1A17" d="M174.57,42.959v-5.7h0.88v0.8c0.183-0.279,0.425-0.504,0.728-0.674s0.647-0.255,1.034-0.255
			c0.431,0,0.783,0.088,1.059,0.263s0.47,0.42,0.583,0.735c0.459-0.666,1.058-0.999,1.794-0.999c0.576,0,1.019,0.157,1.329,0.47
			s0.465,0.795,0.465,1.446v3.913h-0.979v-3.59c0-0.387-0.032-0.665-0.096-0.835c-0.064-0.17-0.18-0.307-0.348-0.41
			c-0.167-0.104-0.365-0.156-0.591-0.156c-0.408,0-0.748,0.133-1.018,0.4s-0.405,0.693-0.405,1.28v3.312h-0.985v-3.703
			c0-0.43-0.08-0.751-0.241-0.966c-0.16-0.214-0.423-0.322-0.788-0.322c-0.277,0-0.533,0.071-0.769,0.214
			c-0.235,0.144-0.406,0.353-0.512,0.628c-0.105,0.276-0.159,0.673-0.159,1.192v2.957H174.57z"/>
		<path fill="#1F1A17" d="M184.799,45.144v-7.884h0.897V38c0.211-0.29,0.45-0.507,0.717-0.652c0.266-0.145,0.589-0.217,0.968-0.217
			c0.496,0,0.934,0.125,1.313,0.375c0.379,0.25,0.666,0.604,0.859,1.06c0.192,0.457,0.289,0.957,0.289,1.5
			c0,0.583-0.106,1.108-0.319,1.576c-0.214,0.467-0.523,0.825-0.931,1.073c-0.406,0.249-0.834,0.373-1.283,0.373
			c-0.328,0-0.623-0.068-0.883-0.204c-0.261-0.136-0.475-0.308-0.643-0.515v2.775H184.799z M185.691,40.141
			c0,0.734,0.151,1.276,0.454,1.626s0.669,0.526,1.1,0.526c0.438,0,0.813-0.182,1.124-0.545c0.313-0.363,0.469-0.926,0.469-1.688
			c0-0.726-0.152-1.27-0.457-1.631s-0.668-0.542-1.091-0.542c-0.42,0-0.791,0.192-1.114,0.577
			C185.852,38.849,185.691,39.408,185.691,40.141z"/>
	</g>
	<g>
		<path fill="#1F1A17" d="M214.275,35.58l1.002-0.086c0.047,0.394,0.157,0.716,0.331,0.969c0.173,0.252,0.441,0.456,0.807,0.612
			c0.364,0.156,0.774,0.233,1.23,0.233c0.405,0,0.763-0.059,1.072-0.177c0.311-0.118,0.541-0.28,0.692-0.486
			c0.151-0.206,0.227-0.43,0.227-0.674c0-0.247-0.072-0.462-0.219-0.646c-0.146-0.185-0.387-0.339-0.722-0.464
			c-0.215-0.082-0.691-0.21-1.428-0.384c-0.737-0.173-1.253-0.337-1.549-0.491c-0.383-0.197-0.668-0.441-0.855-0.732
			c-0.188-0.292-0.282-0.618-0.282-0.979c0-0.397,0.115-0.768,0.345-1.114c0.229-0.345,0.565-0.607,1.007-0.786
			c0.441-0.179,0.932-0.269,1.472-0.269c0.595,0,1.118,0.094,1.572,0.282c0.454,0.188,0.804,0.464,1.048,0.83
			c0.244,0.365,0.376,0.778,0.395,1.24l-1.018,0.075c-0.055-0.498-0.24-0.873-0.556-1.127c-0.315-0.254-0.781-0.381-1.397-0.381
			c-0.643,0-1.11,0.115-1.403,0.346c-0.294,0.231-0.44,0.509-0.44,0.834c0,0.283,0.104,0.515,0.312,0.698
			c0.204,0.183,0.737,0.37,1.601,0.561c0.862,0.191,1.454,0.358,1.775,0.501c0.467,0.211,0.812,0.479,1.033,0.803
			c0.223,0.324,0.334,0.697,0.334,1.119c0,0.419-0.122,0.813-0.366,1.184c-0.245,0.371-0.596,0.658-1.054,0.864
			c-0.457,0.206-0.973,0.309-1.545,0.309c-0.727,0-1.334-0.104-1.825-0.312c-0.49-0.208-0.875-0.52-1.154-0.937
			C214.438,36.577,214.29,36.105,214.275,35.58z"/>
		<path fill="#1F1A17" d="M219.62,40.292v-7.884h0.897v0.741c0.212-0.29,0.45-0.507,0.717-0.652
			c0.266-0.145,0.589-0.217,0.968-0.217c0.496,0,0.935,0.125,1.313,0.375c0.379,0.25,0.666,0.604,0.859,1.06
			c0.192,0.457,0.289,0.957,0.289,1.5c0,0.583-0.106,1.108-0.319,1.576c-0.214,0.467-0.523,0.825-0.931,1.073
			c-0.406,0.249-0.834,0.373-1.282,0.373c-0.328,0-0.623-0.068-0.884-0.204c-0.261-0.136-0.476-0.308-0.643-0.515v2.775H219.62z
			 M220.512,35.29c0,0.734,0.151,1.276,0.454,1.626s0.67,0.526,1.1,0.526c0.438,0,0.813-0.182,1.125-0.545
			c0.312-0.363,0.468-0.926,0.468-1.688c0-0.726-0.152-1.27-0.457-1.631s-0.669-0.542-1.092-0.542c-0.419,0-0.79,0.192-1.113,0.577
			C220.674,33.997,220.512,34.556,220.512,35.29z"/>
		<path fill="#1F1A17" d="M226.513,38.107v-7.868h0.984v7.868H226.513z"/>
		<path fill="#1F1A17" d="M228.548,31.35v-1.111h0.984v1.111H228.548z M228.548,38.107v-5.7h0.984v5.7H228.548z"/>
		<path fill="#1F1A17" d="M232.7,37.243l0.143,0.854c-0.277,0.057-0.525,0.086-0.744,0.086c-0.357,0-0.635-0.056-0.832-0.167
			s-0.335-0.257-0.416-0.438c-0.08-0.181-0.12-0.561-0.12-1.14v-3.279h-0.722v-0.751h0.722v-1.412l0.979-0.58v1.991h0.99v0.751
			h-0.99v3.333c0,0.275,0.018,0.453,0.052,0.531c0.035,0.079,0.091,0.141,0.17,0.188c0.078,0.047,0.19,0.07,0.336,0.07
			C232.377,37.281,232.521,37.269,232.7,37.243z"/>
		<path fill="#1F1A17" d="M235.689,37.243l0.143,0.854c-0.277,0.057-0.525,0.086-0.744,0.086c-0.357,0-0.635-0.056-0.832-0.167
			s-0.335-0.257-0.416-0.438c-0.08-0.181-0.12-0.561-0.12-1.14v-3.279h-0.722v-0.751h0.722v-1.412l0.979-0.58v1.991h0.99v0.751
			h-0.99v3.333c0,0.275,0.018,0.453,0.052,0.531c0.035,0.079,0.091,0.141,0.17,0.188c0.078,0.047,0.19,0.07,0.336,0.07
			C235.366,37.281,235.511,37.269,235.689,37.243z"/>
		<path fill="#1F1A17" d="M240.54,36.272l1.018,0.124c-0.16,0.583-0.458,1.036-0.892,1.358c-0.435,0.322-0.988,0.483-1.663,0.483
			c-0.85,0-1.523-0.257-2.021-0.771c-0.498-0.513-0.747-1.233-0.747-2.16c0-0.958,0.252-1.703,0.755-2.232
			c0.504-0.53,1.156-0.794,1.959-0.794c0.776,0,1.411,0.259,1.903,0.778c0.493,0.519,0.739,1.249,0.739,2.189
			c0,0.058-0.002,0.144-0.006,0.258h-4.333c0.036,0.626,0.217,1.105,0.542,1.438c0.324,0.333,0.729,0.499,1.214,0.499
			c0.361,0,0.67-0.093,0.925-0.279C240.188,36.977,240.391,36.68,240.54,36.272z M237.307,34.71h3.244
			c-0.044-0.479-0.168-0.839-0.372-1.079c-0.313-0.372-0.72-0.558-1.22-0.558c-0.452,0-0.832,0.148-1.141,0.445
			S237.34,34.213,237.307,34.71z"/>
		<path fill="#1F1A17" d="M243.209,38.107v-5.7h0.887v0.864c0.226-0.404,0.435-0.671,0.626-0.8s0.402-0.193,0.632-0.193
			c0.332,0,0.669,0.104,1.013,0.312l-0.34,0.896c-0.24-0.14-0.481-0.209-0.722-0.209c-0.216,0-0.409,0.063-0.58,0.19
			c-0.172,0.127-0.294,0.303-0.366,0.528c-0.11,0.344-0.165,0.719-0.165,1.127v2.984H243.209z"/>
	</g>
	<g>
		<path fill="#1F1A17" d="M43.018,168.321l1.001-0.085c0.047,0.394,0.158,0.716,0.331,0.969c0.173,0.252,0.442,0.456,0.807,0.611
			c0.364,0.155,0.775,0.233,1.231,0.233c0.405,0,0.762-0.059,1.072-0.177c0.31-0.118,0.541-0.28,0.692-0.486
			c0.151-0.205,0.227-0.43,0.227-0.673c0-0.247-0.073-0.463-0.219-0.647c-0.146-0.184-0.387-0.339-0.722-0.464
			c-0.215-0.082-0.691-0.21-1.428-0.384c-0.737-0.174-1.253-0.337-1.548-0.491c-0.383-0.196-0.668-0.44-0.856-0.732
			s-0.282-0.618-0.282-0.979c0-0.397,0.115-0.769,0.345-1.113c0.23-0.346,0.565-0.607,1.007-0.786
			c0.441-0.18,0.932-0.269,1.472-0.269c0.594,0,1.119,0.094,1.573,0.281c0.454,0.188,0.803,0.465,1.047,0.829
			c0.245,0.365,0.376,0.778,0.394,1.24l-1.018,0.075c-0.055-0.497-0.24-0.873-0.555-1.127s-0.782-0.381-1.398-0.381
			c-0.642,0-1.109,0.115-1.403,0.346c-0.293,0.23-0.44,0.509-0.44,0.835c0,0.282,0.104,0.515,0.312,0.697
			c0.204,0.183,0.738,0.369,1.6,0.561c0.863,0.191,1.455,0.359,1.775,0.502c0.467,0.211,0.812,0.479,1.034,0.803
			c0.222,0.323,0.333,0.696,0.333,1.119c0,0.418-0.122,0.813-0.367,1.184c-0.244,0.37-0.595,0.658-1.053,0.863
			c-0.458,0.206-0.973,0.309-1.546,0.309c-0.726,0-1.334-0.104-1.824-0.311c-0.491-0.208-0.875-0.521-1.154-0.937
			C43.179,169.319,43.033,168.848,43.018,168.321z"/>
		<path fill="#1F1A17" d="M48.362,173.034v-7.885h0.897v0.741c0.211-0.29,0.45-0.508,0.717-0.652
			c0.266-0.145,0.589-0.217,0.968-0.217c0.496,0,0.934,0.125,1.313,0.375c0.379,0.251,0.666,0.604,0.859,1.061s0.29,0.956,0.29,1.5
			c0,0.583-0.107,1.108-0.32,1.575s-0.523,0.824-0.93,1.073s-0.834,0.373-1.283,0.373c-0.328,0-0.623-0.068-0.883-0.204
			s-0.475-0.308-0.643-0.516v2.775H48.362z M49.254,168.032c0,0.733,0.151,1.275,0.454,1.626s0.669,0.526,1.1,0.526
			c0.438,0,0.813-0.182,1.124-0.545c0.312-0.363,0.468-0.926,0.468-1.688c0-0.726-0.152-1.27-0.457-1.631
			c-0.305-0.362-0.668-0.543-1.091-0.543c-0.42,0-0.791,0.192-1.114,0.577S49.254,167.299,49.254,168.032z"/>
		<path fill="#1F1A17" d="M55.255,170.85v-7.868h0.985v7.868H55.255z"/>
		<path fill="#1F1A17" d="M57.29,164.093v-1.111h0.985v1.111H57.29z M57.29,170.85v-5.7h0.985v5.7H57.29z"/>
		<path fill="#1F1A17" d="M61.442,169.985l0.142,0.854c-0.277,0.058-0.525,0.086-0.744,0.086c-0.357,0-0.634-0.056-0.832-0.166
			c-0.197-0.111-0.335-0.257-0.416-0.438c-0.081-0.181-0.121-0.562-0.121-1.141v-3.279H58.75v-0.752h0.722v-1.411l0.979-0.58v1.991
			h0.99v0.752h-0.99v3.333c0,0.275,0.017,0.452,0.052,0.531c0.035,0.078,0.091,0.142,0.17,0.188c0.078,0.047,0.19,0.07,0.336,0.07
			C61.119,170.023,61.263,170.011,61.442,169.985z"/>
		<path fill="#1F1A17" d="M64.432,169.985l0.142,0.854c-0.277,0.058-0.525,0.086-0.744,0.086c-0.357,0-0.634-0.056-0.832-0.166
			c-0.197-0.111-0.335-0.257-0.416-0.438c-0.081-0.181-0.121-0.562-0.121-1.141v-3.279H61.74v-0.752h0.722v-1.411l0.979-0.58v1.991
			h0.99v0.752h-0.99v3.333c0,0.275,0.017,0.452,0.052,0.531c0.035,0.078,0.091,0.142,0.17,0.188c0.078,0.047,0.19,0.07,0.336,0.07
			C64.109,170.023,64.253,170.011,64.432,169.985z"/>
		<path fill="#1F1A17" d="M69.282,169.014l1.018,0.124c-0.161,0.583-0.458,1.036-0.892,1.357c-0.434,0.322-0.989,0.483-1.663,0.483
			c-0.85,0-1.524-0.257-2.021-0.771c-0.498-0.513-0.747-1.233-0.747-2.16c0-0.959,0.252-1.703,0.755-2.232
			c0.503-0.529,1.156-0.794,1.958-0.794c0.777,0,1.411,0.259,1.904,0.777c0.492,0.52,0.738,1.249,0.738,2.19
			c0,0.057-0.002,0.143-0.005,0.258h-4.333c0.037,0.626,0.217,1.105,0.542,1.438c0.324,0.333,0.729,0.5,1.214,0.5
			c0.361,0,0.669-0.094,0.924-0.279C68.93,169.719,69.133,169.422,69.282,169.014z M66.049,167.452h3.244
			c-0.043-0.479-0.167-0.839-0.372-1.079c-0.314-0.372-0.721-0.558-1.22-0.558c-0.452,0-0.833,0.148-1.141,0.445
			S66.082,166.955,66.049,167.452z"/>
		<path fill="#1F1A17" d="M71.951,170.85v-5.7h0.886v0.864c0.226-0.404,0.435-0.671,0.626-0.8s0.402-0.192,0.632-0.192
			c0.332,0,0.669,0.104,1.012,0.311l-0.339,0.896c-0.241-0.14-0.481-0.209-0.722-0.209c-0.215,0-0.408,0.063-0.58,0.19
			s-0.294,0.303-0.367,0.528c-0.109,0.344-0.164,0.72-0.164,1.127v2.984H71.951z"/>
	</g>
	<g>
		<path fill="#1F1A17" d="M219.159,167.389v-7.868h1.597l1.898,5.571c0.176,0.519,0.303,0.907,0.383,1.164
			c0.092-0.286,0.233-0.706,0.427-1.261l1.921-5.475h1.428v7.868h-1.023v-6.585l-2.33,6.585h-0.958l-2.319-6.698v6.698H219.159z"/>
		<path fill="#1F1A17" d="M228.158,160.632v-1.111h0.984v1.111H228.158z M228.158,167.389v-5.7h0.984v5.7H228.158z"/>
		<path fill="#1F1A17" d="M229.503,167.389l2.123-2.963l-1.965-2.737h1.231l0.892,1.337c0.168,0.254,0.303,0.467,0.405,0.639
			c0.16-0.236,0.308-0.445,0.442-0.628l0.979-1.348h1.177l-2.008,2.684l2.161,3.017h-1.21l-1.192-1.771l-0.317-0.478l-1.526,2.249
			H229.503z"/>
		<path fill="#1F1A17" d="M238.687,165.553l1.018,0.124c-0.16,0.583-0.458,1.036-0.892,1.357c-0.435,0.322-0.988,0.483-1.663,0.483
			c-0.85,0-1.523-0.257-2.021-0.771c-0.498-0.513-0.747-1.233-0.747-2.16c0-0.959,0.252-1.703,0.755-2.232
			c0.504-0.529,1.156-0.794,1.959-0.794c0.776,0,1.411,0.259,1.903,0.777c0.493,0.52,0.739,1.249,0.739,2.19
			c0,0.057-0.002,0.143-0.006,0.258h-4.333c0.036,0.626,0.217,1.105,0.542,1.438c0.324,0.333,0.729,0.5,1.214,0.5
			c0.361,0,0.67-0.094,0.925-0.279C238.335,166.258,238.537,165.961,238.687,165.553z M235.453,163.991h3.244
			c-0.044-0.479-0.168-0.839-0.372-1.079c-0.313-0.372-0.72-0.558-1.22-0.558c-0.452,0-0.832,0.148-1.141,0.445
			S235.486,163.494,235.453,163.991z"/>
		<path fill="#1F1A17" d="M241.354,167.389v-5.7h0.887v0.864c0.226-0.404,0.435-0.671,0.626-0.8s0.402-0.192,0.632-0.192
			c0.332,0,0.669,0.104,1.013,0.311l-0.34,0.896c-0.24-0.14-0.481-0.209-0.722-0.209c-0.216,0-0.409,0.063-0.58,0.19
			c-0.172,0.127-0.294,0.303-0.366,0.528c-0.11,0.344-0.165,0.72-0.165,1.127v2.984H241.354z"/>
	</g>
	<g>
		<path fill="#1F1A17" d="M45.87,45.279v-7.868h1.598l1.898,5.571c0.175,0.519,0.302,0.907,0.383,1.165
			c0.091-0.286,0.233-0.707,0.427-1.261l1.92-5.475h1.428v7.868H52.5v-6.585l-2.331,6.585h-0.958l-2.32-6.698v6.698H45.87z"/>
		<path fill="#1F1A17" d="M54.869,38.522v-1.111h0.985v1.111H54.869z M54.869,45.279v-5.7h0.985v5.7H54.869z"/>
		<path fill="#1F1A17" d="M56.214,45.279l2.123-2.962l-1.964-2.737h1.231l0.892,1.336c0.168,0.254,0.303,0.467,0.405,0.639
			c0.161-0.236,0.308-0.446,0.443-0.628l0.979-1.347h1.176l-2.008,2.684l2.161,3.016h-1.209l-1.193-1.771l-0.317-0.478l-1.526,2.249
			H56.214z"/>
		<path fill="#1F1A17" d="M65.397,43.444l1.018,0.124c-0.161,0.583-0.458,1.036-0.892,1.358c-0.434,0.322-0.989,0.483-1.663,0.483
			c-0.85,0-1.524-0.257-2.021-0.771c-0.498-0.513-0.747-1.233-0.747-2.16c0-0.958,0.252-1.703,0.755-2.232
			c0.503-0.53,1.156-0.794,1.958-0.794c0.777,0,1.411,0.259,1.904,0.778c0.492,0.519,0.738,1.249,0.738,2.189
			c0,0.058-0.002,0.144-0.005,0.258h-4.333c0.037,0.626,0.217,1.105,0.542,1.438c0.324,0.333,0.729,0.499,1.214,0.499
			c0.361,0,0.669-0.093,0.924-0.279C65.045,44.149,65.248,43.852,65.397,43.444z M62.164,41.882h3.244
			c-0.043-0.479-0.167-0.839-0.372-1.079c-0.314-0.372-0.721-0.558-1.22-0.558c-0.452,0-0.833,0.148-1.141,0.445
			S62.197,41.385,62.164,41.882z"/>
		<path fill="#1F1A17" d="M68.066,45.279v-5.7h0.886v0.864c0.226-0.404,0.435-0.671,0.626-0.8s0.402-0.193,0.632-0.193
			c0.332,0,0.669,0.104,1.012,0.312l-0.339,0.896c-0.241-0.14-0.481-0.209-0.722-0.209c-0.215,0-0.408,0.063-0.58,0.19
			s-0.294,0.303-0.367,0.528c-0.109,0.344-0.164,0.719-0.164,1.127v2.984H68.066z"/>
	</g>
	<g>
		<path fill="#1F1A17" d="M107.142,102.009l1.157,0.287c-0.243,0.934-0.679,1.646-1.309,2.137s-1.401,0.735-2.312,0.735
			c-0.942,0-1.709-0.188-2.299-0.565c-0.591-0.377-1.04-0.923-1.348-1.639c-0.308-0.715-0.462-1.482-0.462-2.303
			c0-0.896,0.174-1.676,0.522-2.342s0.843-1.173,1.485-1.519c0.642-0.346,1.349-0.519,2.121-0.519c0.875,0,1.61,0.219,2.207,0.656
			c0.596,0.438,1.012,1.054,1.247,1.847l-1.139,0.264c-0.203-0.625-0.498-1.08-0.883-1.365c-0.386-0.285-0.871-0.428-1.456-0.428
			c-0.672,0-1.234,0.158-1.685,0.475c-0.452,0.316-0.769,0.741-0.952,1.274c-0.183,0.533-0.274,1.083-0.274,1.65
			c0,0.73,0.108,1.368,0.325,1.913s0.554,0.953,1.011,1.223c0.457,0.27,0.952,0.404,1.485,0.404c0.648,0,1.197-0.184,1.646-0.551
			S106.983,102.731,107.142,102.009z"/>
		<path fill="#1F1A17" d="M109.556,100.837c0-1.427,0.39-2.543,1.169-3.35c0.779-0.808,1.785-1.211,3.018-1.211
			c0.807,0,1.535,0.189,2.183,0.568c0.648,0.38,1.143,0.908,1.482,1.586s0.51,1.446,0.51,2.307c0,0.871-0.179,1.65-0.537,2.338
			c-0.358,0.688-0.865,1.209-1.521,1.563s-1.364,0.53-2.124,0.53c-0.823,0-1.559-0.195-2.207-0.586
			c-0.648-0.391-1.139-0.924-1.473-1.601C109.723,102.306,109.556,101.591,109.556,100.837z M110.749,100.854
			c0,1.035,0.283,1.851,0.85,2.446c0.567,0.597,1.278,0.895,2.133,0.895c0.871,0,1.587-0.301,2.15-0.903
			c0.563-0.602,0.844-1.455,0.844-2.561c0-0.7-0.12-1.311-0.361-1.832s-0.592-0.926-1.056-1.213s-0.983-0.431-1.56-0.431
			c-0.819,0-1.524,0.276-2.114,0.829C111.044,98.638,110.749,99.561,110.749,100.854z"/>
		<path fill="#1F1A17" d="M119.361,105.021v-8.593h1.187l4.593,6.746v-6.746h1.109v8.593h-1.187l-4.593-6.752v6.752H119.361z"/>
		<path fill="#1F1A17" d="M127.377,105.021v-8.593h3.012c0.68,0,1.199,0.041,1.557,0.123c0.501,0.113,0.928,0.318,1.282,0.615
			c0.461,0.384,0.806,0.873,1.035,1.469c0.229,0.596,0.343,1.276,0.343,2.043c0,0.652-0.078,1.23-0.232,1.734
			c-0.155,0.504-0.354,0.921-0.597,1.252c-0.243,0.33-0.508,0.59-0.796,0.779c-0.288,0.189-0.636,0.333-1.044,0.431
			c-0.407,0.098-0.875,0.146-1.404,0.146H127.377z M128.534,104.008h1.867c0.577,0,1.029-0.053,1.357-0.158s0.589-0.254,0.784-0.446
			c0.274-0.27,0.488-0.632,0.642-1.087c0.153-0.455,0.229-1.007,0.229-1.655c0-0.899-0.15-1.59-0.45-2.072
			c-0.3-0.482-0.665-0.806-1.095-0.97c-0.31-0.117-0.809-0.176-1.497-0.176h-1.837V104.008z"/>
		<path fill="#1F1A17" d="M135.38,105.021v-8.593h6.323v1.015h-5.166v2.631h4.837v1.009h-4.837v2.925h5.369v1.014H135.38z"/>
		<path fill="#1F1A17" d="M141.379,105.021v-8.593h1.187l4.593,6.746v-6.746h1.109v8.593h-1.187l-4.593-6.752v6.752H141.379z"/>
		<path fill="#1F1A17" d="M149.001,102.261l1.091-0.094c0.052,0.43,0.172,0.782,0.361,1.058c0.188,0.276,0.482,0.499,0.879,0.669
			c0.398,0.17,0.845,0.255,1.342,0.255c0.441,0,0.831-0.064,1.169-0.193c0.338-0.129,0.59-0.306,0.755-0.531
			c0.165-0.225,0.248-0.47,0.248-0.735c0-0.27-0.08-0.505-0.239-0.706s-0.421-0.37-0.787-0.507c-0.235-0.09-0.754-0.229-1.557-0.419
			s-1.366-0.368-1.688-0.536c-0.417-0.215-0.729-0.482-0.934-0.801s-0.307-0.675-0.307-1.069c0-0.434,0.125-0.839,0.376-1.216
			c0.25-0.378,0.616-0.664,1.097-0.859c0.481-0.195,1.016-0.293,1.605-0.293c0.648,0,1.22,0.103,1.715,0.308
			s0.875,0.507,1.142,0.906c0.267,0.398,0.41,0.85,0.43,1.354l-1.109,0.082c-0.06-0.543-0.262-0.953-0.605-1.23
			c-0.344-0.277-0.852-0.416-1.524-0.416c-0.7,0-1.21,0.126-1.53,0.378c-0.32,0.252-0.48,0.556-0.48,0.911
			c0,0.309,0.114,0.563,0.34,0.762c0.223,0.199,0.804,0.403,1.745,0.612s1.585,0.393,1.936,0.549
			c0.509,0.23,0.885,0.522,1.127,0.876s0.364,0.761,0.364,1.222c0,0.457-0.133,0.889-0.399,1.293
			c-0.267,0.404-0.649,0.719-1.148,0.943s-1.061,0.337-1.685,0.337c-0.792,0-1.455-0.113-1.989-0.34
			c-0.535-0.227-0.955-0.567-1.259-1.022S149.017,102.835,149.001,102.261z"/>
		<path fill="#1F1A17" d="M155.001,105.021v-8.593h6.323v1.015h-5.166v2.631h4.837v1.009h-4.837v2.925h5.369v1.014H155.001z"/>
		<path fill="#1F1A17" d="M161.03,105.021v-8.593h3.877c0.779,0,1.372,0.077,1.778,0.231s0.729,0.428,0.972,0.818
			s0.364,0.822,0.364,1.295c0,0.609-0.201,1.123-0.603,1.541c-0.401,0.419-1.022,0.685-1.861,0.798
			c0.306,0.145,0.539,0.287,0.698,0.428c0.338,0.305,0.658,0.686,0.96,1.143l1.521,2.339h-1.456l-1.157-1.788
			c-0.338-0.516-0.616-0.91-0.835-1.184s-0.415-0.465-0.587-0.574s-0.349-0.186-0.528-0.229c-0.131-0.027-0.346-0.041-0.645-0.041
			h-1.342v3.815H161.03z M162.188,100.221h2.487c0.529,0,0.942-0.053,1.241-0.161c0.298-0.107,0.525-0.279,0.68-0.516
			c0.155-0.236,0.232-0.493,0.232-0.771c0-0.406-0.15-0.74-0.45-1.002c-0.3-0.262-0.775-0.393-1.423-0.393h-2.768V100.221z"/>
		<path fill="#1F1A17" d="M171.018,105.021v-8.593h1.157v7.579h4.307v1.014H171.018z"/>
		<path fill="#1F1A17" d="M175.236,100.837c0-1.427,0.39-2.543,1.169-3.35c0.779-0.808,1.785-1.211,3.018-1.211
			c0.807,0,1.535,0.189,2.183,0.568c0.648,0.38,1.143,0.908,1.482,1.586s0.51,1.446,0.51,2.307c0,0.871-0.179,1.65-0.537,2.338
			c-0.358,0.688-0.865,1.209-1.521,1.563s-1.364,0.53-2.124,0.53c-0.823,0-1.559-0.195-2.207-0.586
			c-0.648-0.391-1.139-0.924-1.473-1.601C175.403,102.306,175.236,101.591,175.236,100.837z M176.429,100.854
			c0,1.035,0.283,1.851,0.85,2.446c0.567,0.597,1.278,0.895,2.133,0.895c0.871,0,1.587-0.301,2.15-0.903
			c0.563-0.602,0.844-1.455,0.844-2.561c0-0.7-0.12-1.311-0.361-1.832s-0.592-0.926-1.056-1.213s-0.983-0.431-1.56-0.431
			c-0.819,0-1.524,0.276-2.114,0.829C176.724,98.638,176.429,99.561,176.429,100.854z"/>
		<path fill="#1F1A17" d="M184.701,100.837c0-1.427,0.39-2.543,1.169-3.35c0.779-0.808,1.785-1.211,3.018-1.211
			c0.808,0,1.534,0.189,2.183,0.568c0.648,0.38,1.143,0.908,1.482,1.586s0.51,1.446,0.51,2.307c0,0.871-0.178,1.65-0.535,2.338
			c-0.359,0.688-0.865,1.209-1.521,1.563s-1.365,0.53-2.124,0.53c-0.823,0-1.559-0.195-2.207-0.586
			c-0.648-0.391-1.139-0.924-1.473-1.601C184.868,102.306,184.701,101.591,184.701,100.837z M185.895,100.854
			c0,1.035,0.283,1.851,0.85,2.446c0.567,0.597,1.278,0.895,2.133,0.895c0.87,0,1.587-0.301,2.149-0.903
			c0.564-0.602,0.846-1.455,0.846-2.561c0-0.7-0.121-1.311-0.361-1.832s-0.594-0.926-1.057-1.213s-0.982-0.431-1.56-0.431
			c-0.819,0-1.524,0.276-2.114,0.829C186.189,98.638,185.895,99.561,185.895,100.854z"/>
		<path fill="#1F1A17" d="M194.494,105.021v-8.593h3.299c0.58,0,1.023,0.027,1.33,0.082c0.43,0.07,0.789,0.204,1.08,0.401
			c0.29,0.198,0.523,0.475,0.7,0.83s0.266,0.746,0.266,1.172c0,0.73-0.236,1.35-0.71,1.855c-0.473,0.506-1.328,0.759-2.564,0.759
			h-2.243v3.493H194.494z M195.651,100.515h2.261c0.748,0,1.278-0.137,1.593-0.411c0.314-0.273,0.471-0.658,0.471-1.154
			c0-0.359-0.092-0.667-0.277-0.923c-0.185-0.256-0.428-0.425-0.73-0.507c-0.194-0.051-0.555-0.076-1.079-0.076h-2.237V100.515z"/>
	</g>
</g>
</svg>
