<?xml version="1.0" encoding="utf-8"?>
<!-- Generator: Adobe Illustrator 16.0.0, SVG Export Plug-In . SVG Version: 6.00 Build 0)  -->
<!DOCTYPE svg PUBLIC "-//W3C//DTD SVG 1.1//EN" "http://www.w3.org/Graphics/SVG/1.1/DTD/svg11.dtd">
<svg version="1.1" id="Layer_1" xmlns="http://www.w3.org/2000/svg" xmlns:xlink="http://www.w3.org/1999/xlink" x="0px" y="0px"
	 width="381.292px" height="286.925px" viewBox="0 0 381.292 286.925" enable-background="new 0 0 381.292 286.925"
	 xml:space="preserve">
<g>
	<defs>
		<rect id="SVGID_1_" x="0.036" width="378.692" height="264.004"/>
	</defs>
	<clipPath id="SVGID_2_">
		<use xlink:href="#SVGID_1_"  overflow="visible"/>
	</clipPath>
	<g clip-path="url(#SVGID_2_)">
		<defs>
			<rect id="SVGID_3_" x="0.036" y="0.002" width="377.963" height="263.495"/>
		</defs>
		<clipPath id="SVGID_4_">
			<use xlink:href="#SVGID_3_"  overflow="visible"/>
		</clipPath>
		
			<rect x="60.029" y="14.252" clip-path="url(#SVGID_4_)" fill-rule="evenodd" clip-rule="evenodd" fill="#FFFFFF" width="296.967" height="186.929"/>
	</g>
	<g clip-path="url(#SVGID_2_)">
		<defs>
			<path id="SVGID_5_" d="M59.281,10.521h298.472v194.423H59.281V10.521z M78.039,26.273v72.063h97.483V26.273H78.039z"/>
		</defs>
		<clipPath id="SVGID_6_">
			<use xlink:href="#SVGID_5_"  overflow="visible"/>
		</clipPath>
		
			<line clip-path="url(#SVGID_6_)" fill="none" stroke="#000000" stroke-width="0.7478" stroke-linecap="square" stroke-linejoin="round" stroke-miterlimit="10" x1="60.403" y1="182.785" x2="356.625" y2="182.785"/>
	</g>
	<g clip-path="url(#SVGID_2_)">
		<defs>
			<path id="SVGID_7_" d="M59.281,10.521h298.472v194.423H59.281V10.521z M78.039,26.273v72.063h97.483V26.273H78.039z"/>
		</defs>
		<clipPath id="SVGID_8_">
			<use xlink:href="#SVGID_7_"  overflow="visible"/>
		</clipPath>
		
			<line clip-path="url(#SVGID_8_)" fill="none" stroke="#000000" stroke-width="0.7478" stroke-linecap="square" stroke-linejoin="round" stroke-miterlimit="10" x1="60.403" y1="164.014" x2="356.625" y2="164.014"/>
	</g>
	<g clip-path="url(#SVGID_2_)">
		<defs>
			<path id="SVGID_9_" d="M59.281,10.521h298.472v194.423H59.281V10.521z M78.039,26.273v72.063h97.483V26.273H78.039z"/>
		</defs>
		<clipPath id="SVGID_10_">
			<use xlink:href="#SVGID_9_"  overflow="visible"/>
		</clipPath>
		
			<line clip-path="url(#SVGID_10_)" fill="none" stroke="#000000" stroke-width="0.7478" stroke-linecap="square" stroke-linejoin="round" stroke-miterlimit="10" x1="60.403" y1="145.243" x2="356.625" y2="145.243"/>
	</g>
	<g clip-path="url(#SVGID_2_)">
		<defs>
			<path id="SVGID_11_" d="M59.281,10.521h298.472v194.423H59.281V10.521z M78.039,26.273v72.063h97.483V26.273H78.039z"/>
		</defs>
		<clipPath id="SVGID_12_">
			<use xlink:href="#SVGID_11_"  overflow="visible"/>
		</clipPath>
		
			<line clip-path="url(#SVGID_12_)" fill="none" stroke="#000000" stroke-width="0.7478" stroke-linecap="square" stroke-linejoin="round" stroke-miterlimit="10" x1="60.403" y1="126.502" x2="356.625" y2="126.502"/>
	</g>
	<g clip-path="url(#SVGID_2_)">
		<defs>
			<path id="SVGID_13_" d="M59.281,10.521h298.472v194.423H59.281V10.521z M78.039,26.273v72.063h97.483V26.273H78.039z"/>
		</defs>
		<clipPath id="SVGID_14_">
			<use xlink:href="#SVGID_13_"  overflow="visible"/>
		</clipPath>
		
			<line clip-path="url(#SVGID_14_)" fill="none" stroke="#000000" stroke-width="0.7478" stroke-linecap="square" stroke-linejoin="round" stroke-miterlimit="10" x1="60.403" y1="107.732" x2="356.625" y2="107.732"/>
	</g>
	<g clip-path="url(#SVGID_2_)">
		<defs>
			<path id="SVGID_15_" d="M59.281,10.521h298.472v194.423H59.281V10.521z M78.039,26.273v72.063h97.483V26.273H78.039z"/>
		</defs>
		<clipPath id="SVGID_16_">
			<use xlink:href="#SVGID_15_"  overflow="visible"/>
		</clipPath>
		
			<line clip-path="url(#SVGID_16_)" fill="none" stroke="#000000" stroke-width="0.7478" stroke-linecap="square" stroke-linejoin="round" stroke-miterlimit="10" x1="60.403" y1="89.708" x2="356.625" y2="89.708"/>
	</g>
	<g clip-path="url(#SVGID_2_)">
		<defs>
			<path id="SVGID_17_" d="M59.281,10.521h298.472v194.423H59.281V10.521z M78.039,26.273v72.063h97.483V26.273H78.039z"/>
		</defs>
		<clipPath id="SVGID_18_">
			<use xlink:href="#SVGID_17_"  overflow="visible"/>
		</clipPath>
		
			<line clip-path="url(#SVGID_18_)" fill="none" stroke="#000000" stroke-width="0.7478" stroke-linecap="square" stroke-linejoin="round" stroke-miterlimit="10" x1="60.403" y1="70.938" x2="356.625" y2="70.938"/>
	</g>
	<g clip-path="url(#SVGID_2_)">
		<defs>
			<path id="SVGID_19_" d="M59.281,10.521h298.472v194.423H59.281V10.521z M78.039,26.273v72.063h97.483V26.273H78.039z"/>
		</defs>
		<clipPath id="SVGID_20_">
			<use xlink:href="#SVGID_19_"  overflow="visible"/>
		</clipPath>
		
			<line clip-path="url(#SVGID_20_)" fill="none" stroke="#000000" stroke-width="0.7478" stroke-linecap="square" stroke-linejoin="round" stroke-miterlimit="10" x1="60.403" y1="52.167" x2="356.625" y2="52.167"/>
	</g>
	<g clip-path="url(#SVGID_2_)">
		<defs>
			<path id="SVGID_21_" d="M59.281,10.521h298.472v194.423H59.281V10.521z M78.039,26.273v72.063h97.483V26.273H78.039z"/>
		</defs>
		<clipPath id="SVGID_22_">
			<use xlink:href="#SVGID_21_"  overflow="visible"/>
		</clipPath>
		
			<line clip-path="url(#SVGID_22_)" fill="none" stroke="#000000" stroke-width="0.7478" stroke-linecap="square" stroke-linejoin="round" stroke-miterlimit="10" x1="60.403" y1="33.396" x2="356.625" y2="33.396"/>
	</g>
	<g clip-path="url(#SVGID_2_)">
		<defs>
			<path id="SVGID_23_" d="M59.281,10.521h298.472v194.423H59.281V10.521z M78.039,26.273v72.063h97.483V26.273H78.039z"/>
		</defs>
		<clipPath id="SVGID_24_">
			<use xlink:href="#SVGID_23_"  overflow="visible"/>
		</clipPath>
		
			<line clip-path="url(#SVGID_24_)" fill="none" stroke="#000000" stroke-width="0.7478" stroke-linecap="square" stroke-linejoin="round" stroke-miterlimit="10" x1="60.403" y1="14.626" x2="356.625" y2="14.626"/>
	</g>
	<g clip-path="url(#SVGID_2_)">
		<defs>
			<path id="SVGID_25_" d="M0.036,0H378v263.497H0.036V0z M78.039,26.273v72.063h97.483V26.273H78.039z"/>
		</defs>
		<clipPath id="SVGID_26_">
			<use xlink:href="#SVGID_25_"  overflow="visible"/>
		</clipPath>
		
			<line clip-path="url(#SVGID_26_)" fill="none" stroke="#808080" stroke-width="0.7478" stroke-linecap="square" stroke-linejoin="round" stroke-miterlimit="10" x1="60.403" y1="14.626" x2="356.625" y2="14.626"/>
	</g>
	<g clip-path="url(#SVGID_2_)">
		<defs>
			<path id="SVGID_27_" d="M0.036,0H378v263.497H0.036V0z M78.039,26.273v72.063h97.483V26.273H78.039z"/>
		</defs>
		<clipPath id="SVGID_28_">
			<use xlink:href="#SVGID_27_"  overflow="visible"/>
		</clipPath>
		
			<line clip-path="url(#SVGID_28_)" fill="none" stroke="#808080" stroke-width="0.7478" stroke-linecap="square" stroke-linejoin="round" stroke-miterlimit="10" x1="357.374" y1="14.626" x2="357.374" y2="200.808"/>
	</g>
	<g clip-path="url(#SVGID_2_)">
		<defs>
			<path id="SVGID_29_" d="M0.036,0H378v263.497H0.036V0z M78.039,26.273v72.063h97.483V26.273H78.039z"/>
		</defs>
		<clipPath id="SVGID_30_">
			<use xlink:href="#SVGID_29_"  overflow="visible"/>
		</clipPath>
		
			<line clip-path="url(#SVGID_30_)" fill="none" stroke="#808080" stroke-width="0.7478" stroke-linecap="square" stroke-linejoin="round" stroke-miterlimit="10" x1="357.374" y1="201.555" x2="61.152" y2="201.555"/>
	</g>
	<g clip-path="url(#SVGID_2_)">
		<defs>
			<path id="SVGID_31_" d="M0.036,0H378v263.497H0.036V0z M78.039,26.273v72.063h97.483V26.273H78.039z"/>
		</defs>
		<clipPath id="SVGID_32_">
			<use xlink:href="#SVGID_31_"  overflow="visible"/>
		</clipPath>
		
			<line clip-path="url(#SVGID_32_)" fill="none" stroke="#808080" stroke-width="0.7478" stroke-linecap="square" stroke-linejoin="round" stroke-miterlimit="10" x1="60.403" y1="201.555" x2="60.403" y2="15.383"/>
	</g>
	<g clip-path="url(#SVGID_2_)">
		<defs>
			<rect id="SVGID_33_" x="0.036" y="0.002" width="377.963" height="263.495"/>
		</defs>
		<clipPath id="SVGID_34_">
			<use xlink:href="#SVGID_33_"  overflow="visible"/>
		</clipPath>
		
			<line clip-path="url(#SVGID_34_)" fill="none" stroke="#000000" stroke-width="0.7478" stroke-linecap="square" stroke-linejoin="round" stroke-miterlimit="10" x1="60.403" y1="14.626" x2="60.403" y2="200.808"/>
		
			<line clip-path="url(#SVGID_34_)" fill="none" stroke="#000000" stroke-width="0.7478" stroke-linecap="square" stroke-linejoin="round" stroke-miterlimit="10" x1="56.661" y1="201.555" x2="59.655" y2="201.555"/>
		
			<line clip-path="url(#SVGID_34_)" fill="none" stroke="#000000" stroke-width="0.7478" stroke-linecap="square" stroke-linejoin="round" stroke-miterlimit="10" x1="56.661" y1="182.785" x2="59.655" y2="182.785"/>
		
			<line clip-path="url(#SVGID_34_)" fill="none" stroke="#000000" stroke-width="0.7478" stroke-linecap="square" stroke-linejoin="round" stroke-miterlimit="10" x1="56.661" y1="164.014" x2="59.655" y2="164.014"/>
		
			<line clip-path="url(#SVGID_34_)" fill="none" stroke="#000000" stroke-width="0.7478" stroke-linecap="square" stroke-linejoin="round" stroke-miterlimit="10" x1="56.661" y1="145.243" x2="59.655" y2="145.243"/>
		
			<line clip-path="url(#SVGID_34_)" fill="none" stroke="#000000" stroke-width="0.7478" stroke-linecap="square" stroke-linejoin="round" stroke-miterlimit="10" x1="56.661" y1="126.502" x2="59.655" y2="126.502"/>
		
			<line clip-path="url(#SVGID_34_)" fill="none" stroke="#000000" stroke-width="0.7478" stroke-linecap="square" stroke-linejoin="round" stroke-miterlimit="10" x1="56.661" y1="107.732" x2="59.655" y2="107.732"/>
		
			<line clip-path="url(#SVGID_34_)" fill="none" stroke="#000000" stroke-width="0.7478" stroke-linecap="square" stroke-linejoin="round" stroke-miterlimit="10" x1="56.661" y1="89.708" x2="59.655" y2="89.708"/>
		
			<line clip-path="url(#SVGID_34_)" fill="none" stroke="#000000" stroke-width="0.7478" stroke-linecap="square" stroke-linejoin="round" stroke-miterlimit="10" x1="56.661" y1="70.938" x2="59.655" y2="70.938"/>
		
			<line clip-path="url(#SVGID_34_)" fill="none" stroke="#000000" stroke-width="0.7478" stroke-linecap="square" stroke-linejoin="round" stroke-miterlimit="10" x1="56.661" y1="52.167" x2="59.655" y2="52.167"/>
		
			<line clip-path="url(#SVGID_34_)" fill="none" stroke="#000000" stroke-width="0.7478" stroke-linecap="square" stroke-linejoin="round" stroke-miterlimit="10" x1="56.661" y1="33.396" x2="59.655" y2="33.396"/>
		
			<line clip-path="url(#SVGID_34_)" fill="none" stroke="#000000" stroke-width="0.7478" stroke-linecap="square" stroke-linejoin="round" stroke-miterlimit="10" x1="56.661" y1="14.626" x2="59.655" y2="14.626"/>
		
			<line clip-path="url(#SVGID_34_)" fill="none" stroke="#000000" stroke-width="0.7478" stroke-linecap="square" stroke-linejoin="round" stroke-miterlimit="10" x1="60.403" y1="201.555" x2="356.625" y2="201.555"/>
		
			<line clip-path="url(#SVGID_34_)" fill="none" stroke="#000000" stroke-width="0.7478" stroke-linecap="square" stroke-linejoin="round" stroke-miterlimit="10" x1="60.403" y1="205.319" x2="60.403" y2="202.303"/>
		
			<line clip-path="url(#SVGID_34_)" fill="none" stroke="#000000" stroke-width="0.7478" stroke-linecap="square" stroke-linejoin="round" stroke-miterlimit="10" x1="134.639" y1="205.319" x2="134.639" y2="202.303"/>
		
			<line clip-path="url(#SVGID_34_)" fill="none" stroke="#000000" stroke-width="0.7478" stroke-linecap="square" stroke-linejoin="round" stroke-miterlimit="10" x1="208.88" y1="205.319" x2="208.88" y2="202.303"/>
		
			<line clip-path="url(#SVGID_34_)" fill="none" stroke="#000000" stroke-width="0.7478" stroke-linecap="square" stroke-linejoin="round" stroke-miterlimit="10" x1="283.142" y1="205.319" x2="283.142" y2="202.303"/>
		
			<line clip-path="url(#SVGID_34_)" fill="none" stroke="#000000" stroke-width="0.7478" stroke-linecap="square" stroke-linejoin="round" stroke-miterlimit="10" x1="357.374" y1="205.319" x2="357.374" y2="202.303"/>
	</g>
	<g clip-path="url(#SVGID_2_)">
		<defs>
			<rect id="SVGID_35_" x="55.539" y="9.768" width="306.695" height="196.673"/>
		</defs>
		<clipPath id="SVGID_36_">
			<use xlink:href="#SVGID_35_"  overflow="visible"/>
		</clipPath>
		
			<line clip-path="url(#SVGID_36_)" fill="none" stroke="#000000" stroke-width="0.7478" stroke-linecap="square" stroke-linejoin="round" stroke-miterlimit="10" x1="75.395" y1="192.556" x2="82.155" y2="183.534"/>
		
			<line clip-path="url(#SVGID_36_)" fill="none" stroke="#000000" stroke-width="0.7478" stroke-linecap="square" stroke-linejoin="round" stroke-miterlimit="10" x1="82.903" y1="182.785" x2="148.888" y2="164.014"/>
		
			<line clip-path="url(#SVGID_36_)" fill="none" stroke="#000000" stroke-width="0.7478" stroke-linecap="square" stroke-linejoin="round" stroke-miterlimit="10" x1="149.637" y1="164.014" x2="193.134" y2="145.243"/>
		
			<line clip-path="url(#SVGID_36_)" fill="none" stroke="#000000" stroke-width="0.7478" stroke-linecap="square" stroke-linejoin="round" stroke-miterlimit="10" x1="193.882" y1="145.243" x2="245.622" y2="126.502"/>
		
			<line clip-path="url(#SVGID_36_)" fill="none" stroke="#000000" stroke-width="0.7478" stroke-linecap="square" stroke-linejoin="round" stroke-miterlimit="10" x1="246.39" y1="126.502" x2="267.375" y2="109.227"/>
		
			<line clip-path="url(#SVGID_36_)" fill="none" stroke="#000000" stroke-width="0.7478" stroke-linecap="square" stroke-linejoin="round" stroke-miterlimit="10" x1="268.124" y1="108.479" x2="297.381" y2="89.708"/>
		
			<line clip-path="url(#SVGID_36_)" fill="none" stroke="#000000" stroke-width="0.7478" stroke-linecap="square" stroke-linejoin="round" stroke-miterlimit="10" x1="298.129" y1="89.708" x2="312.37" y2="71.685"/>
		
			<line clip-path="url(#SVGID_36_)" fill="none" stroke="#000000" stroke-width="0.7478" stroke-linecap="square" stroke-linejoin="round" stroke-miterlimit="10" x1="313.118" y1="70.938" x2="313.118" y2="52.915"/>
		
			<line clip-path="url(#SVGID_36_)" fill="none" stroke="#000000" stroke-width="0.7478" stroke-linecap="square" stroke-linejoin="round" stroke-miterlimit="10" x1="313.118" y1="52.167" x2="314.615" y2="34.144"/>
		
			<line clip-path="url(#SVGID_36_)" fill="none" stroke="#000000" stroke-width="0.7478" stroke-linecap="square" stroke-linejoin="round" stroke-miterlimit="10" x1="314.615" y1="33.396" x2="316.112" y2="16.897"/>
		
			<rect x="72.776" y="189.915" clip-path="url(#SVGID_36_)" fill-rule="evenodd" clip-rule="evenodd" fill="#FFFFFF" width="3.742" height="3.763"/>
		
			<rect x="72.776" y="189.915" clip-path="url(#SVGID_36_)" fill="none" stroke="#000000" stroke-width="0.7478" stroke-linejoin="round" stroke-miterlimit="10" width="3.742" height="3.763"/>
	</g>
	<g clip-path="url(#SVGID_2_)">
		<defs>
			<rect id="SVGID_37_" x="55.539" y="9.768" width="306.695" height="196.673"/>
		</defs>
		<clipPath id="SVGID_38_">
			<use xlink:href="#SVGID_37_"  overflow="visible"/>
		</clipPath>
		
			<rect x="80.284" y="180.167" clip-path="url(#SVGID_38_)" fill-rule="evenodd" clip-rule="evenodd" fill="#FFFFFF" width="3.742" height="3.764"/>
		
			<rect x="80.284" y="180.167" clip-path="url(#SVGID_38_)" fill="none" stroke="#000000" stroke-width="0.7478" stroke-linejoin="round" stroke-miterlimit="10" width="3.742" height="3.764"/>
	</g>
	<g clip-path="url(#SVGID_2_)">
		<defs>
			<rect id="SVGID_39_" x="55.539" y="9.768" width="306.695" height="196.673"/>
		</defs>
		<clipPath id="SVGID_40_">
			<use xlink:href="#SVGID_39_"  overflow="visible"/>
		</clipPath>
		
			<rect x="147.012" y="161.398" clip-path="url(#SVGID_40_)" fill-rule="evenodd" clip-rule="evenodd" fill="#FFFFFF" width="3.766" height="3.764"/>
		
			<rect x="147.012" y="161.398" clip-path="url(#SVGID_40_)" fill="none" stroke="#000000" stroke-width="0.7478" stroke-linejoin="round" stroke-miterlimit="10" width="3.766" height="3.764"/>
	</g>
	<g clip-path="url(#SVGID_2_)">
		<defs>
			<rect id="SVGID_41_" x="55.539" y="9.768" width="306.695" height="196.673"/>
		</defs>
		<clipPath id="SVGID_42_">
			<use xlink:href="#SVGID_41_"  overflow="visible"/>
		</clipPath>
		
			<rect x="191.268" y="142.625" clip-path="url(#SVGID_42_)" fill-rule="evenodd" clip-rule="evenodd" fill="#FFFFFF" width="3.742" height="3.763"/>
		
			<rect x="191.268" y="142.625" clip-path="url(#SVGID_42_)" fill="none" stroke="#000000" stroke-width="0.7478" stroke-linejoin="round" stroke-miterlimit="10" width="3.742" height="3.763"/>
	</g>
	<g clip-path="url(#SVGID_2_)">
		<defs>
			<rect id="SVGID_43_" x="55.539" y="9.768" width="306.695" height="196.673"/>
		</defs>
		<clipPath id="SVGID_44_">
			<use xlink:href="#SVGID_43_"  overflow="visible"/>
		</clipPath>
		
			<rect x="243.746" y="123.854" clip-path="url(#SVGID_44_)" fill-rule="evenodd" clip-rule="evenodd" fill="#FFFFFF" width="3.767" height="3.764"/>
		
			<rect x="243.746" y="123.854" clip-path="url(#SVGID_44_)" fill="none" stroke="#000000" stroke-width="0.7478" stroke-linejoin="round" stroke-miterlimit="10" width="3.767" height="3.764"/>
	</g>
	<g clip-path="url(#SVGID_2_)">
		<defs>
			<rect id="SVGID_45_" x="55.539" y="9.768" width="306.695" height="196.673"/>
		</defs>
		<clipPath id="SVGID_46_">
			<use xlink:href="#SVGID_45_"  overflow="visible"/>
		</clipPath>
		
			<rect x="265.5" y="105.841" clip-path="url(#SVGID_46_)" fill-rule="evenodd" clip-rule="evenodd" fill="#FFFFFF" width="3.742" height="3.764"/>
		
			<rect x="265.5" y="105.841" clip-path="url(#SVGID_46_)" fill="none" stroke="#000000" stroke-width="0.7478" stroke-linejoin="round" stroke-miterlimit="10" width="3.742" height="3.764"/>
	</g>
	<g clip-path="url(#SVGID_2_)">
		<defs>
			<rect id="SVGID_47_" x="55.539" y="9.768" width="306.695" height="196.673"/>
		</defs>
		<clipPath id="SVGID_48_">
			<use xlink:href="#SVGID_47_"  overflow="visible"/>
		</clipPath>
		
			<rect x="295.505" y="87.095" clip-path="url(#SVGID_48_)" fill-rule="evenodd" clip-rule="evenodd" fill="#FFFFFF" width="3.742" height="3.74"/>
		
			<rect x="295.505" y="87.095" clip-path="url(#SVGID_48_)" fill="none" stroke="#000000" stroke-width="0.7478" stroke-linejoin="round" stroke-miterlimit="10" width="3.742" height="3.74"/>
	</g>
	<g clip-path="url(#SVGID_2_)">
		<defs>
			<rect id="SVGID_49_" x="55.539" y="9.768" width="306.695" height="196.673"/>
		</defs>
		<clipPath id="SVGID_50_">
			<use xlink:href="#SVGID_49_"  overflow="visible"/>
		</clipPath>
		
			<rect x="310.503" y="68.324" clip-path="url(#SVGID_50_)" fill-rule="evenodd" clip-rule="evenodd" fill="#FFFFFF" width="3.742" height="3.739"/>
		
			<rect x="310.503" y="68.324" clip-path="url(#SVGID_50_)" fill="none" stroke="#000000" stroke-width="0.7478" stroke-linejoin="round" stroke-miterlimit="10" width="3.742" height="3.739"/>
	</g>
	<g clip-path="url(#SVGID_2_)">
		<defs>
			<rect id="SVGID_51_" x="55.539" y="9.768" width="306.695" height="196.673"/>
		</defs>
		<clipPath id="SVGID_52_">
			<use xlink:href="#SVGID_51_"  overflow="visible"/>
		</clipPath>
		
			<rect x="310.503" y="49.554" clip-path="url(#SVGID_52_)" fill-rule="evenodd" clip-rule="evenodd" fill="#FFFFFF" width="3.742" height="3.739"/>
		
			<rect x="310.503" y="49.554" clip-path="url(#SVGID_52_)" fill="none" stroke="#000000" stroke-width="0.7478" stroke-linejoin="round" stroke-miterlimit="10" width="3.742" height="3.739"/>
	</g>
	<g clip-path="url(#SVGID_2_)">
		<defs>
			<rect id="SVGID_53_" x="55.539" y="9.768" width="306.695" height="196.673"/>
		</defs>
		<clipPath id="SVGID_54_">
			<use xlink:href="#SVGID_53_"  overflow="visible"/>
		</clipPath>
		
			<rect x="312" y="30.783" clip-path="url(#SVGID_54_)" fill-rule="evenodd" clip-rule="evenodd" fill="#FFFFFF" width="3.742" height="3.739"/>
		
			<rect x="312" y="30.783" clip-path="url(#SVGID_54_)" fill="none" stroke="#000000" stroke-width="0.7478" stroke-linejoin="round" stroke-miterlimit="10" width="3.742" height="3.739"/>
	</g>
	<g clip-path="url(#SVGID_2_)">
		<defs>
			<rect id="SVGID_55_" x="55.539" y="9.768" width="306.695" height="196.673"/>
		</defs>
		<clipPath id="SVGID_56_">
			<use xlink:href="#SVGID_55_"  overflow="visible"/>
		</clipPath>
		
			<rect x="313.498" y="13.513" clip-path="url(#SVGID_56_)" fill-rule="evenodd" clip-rule="evenodd" fill="#FFFFFF" width="3.741" height="3.764"/>
		
			<rect x="313.498" y="13.513" clip-path="url(#SVGID_56_)" fill="none" stroke="#000000" stroke-width="0.7478" stroke-linejoin="round" stroke-miterlimit="10" width="3.741" height="3.764"/>
	</g>
	<g clip-path="url(#SVGID_2_)">
		<defs>
			<rect id="SVGID_57_" x="55.539" y="9.768" width="306.695" height="196.673"/>
		</defs>
		<clipPath id="SVGID_58_">
			<use xlink:href="#SVGID_57_"  overflow="visible"/>
		</clipPath>
		<polygon clip-path="url(#SVGID_58_)" fill-rule="evenodd" clip-rule="evenodd" points="134.639,160.277 138.411,167.78 
			130.897,167.78 		"/>
		
			<polygon clip-path="url(#SVGID_58_)" fill="none" stroke="#000000" stroke-width="0.7478" stroke-linejoin="round" stroke-miterlimit="10" points="
			134.639,160.277 138.411,167.78 130.897,167.78 		"/>
	</g>
	<g clip-path="url(#SVGID_2_)">
		<defs>
			<rect id="SVGID_59_" x="55.539" y="9.768" width="306.695" height="196.673"/>
		</defs>
		<clipPath id="SVGID_60_">
			<use xlink:href="#SVGID_59_"  overflow="visible"/>
		</clipPath>
		<path clip-path="url(#SVGID_60_)" fill-rule="evenodd" clip-rule="evenodd" d="M316.491,32.281c0,2.242,1.517,3.766,3.014,3.766
			c2.245,0,3.742-1.524,3.742-3.766c0-1.495-1.497-2.989-3.742-2.989C318.007,29.292,316.491,30.786,316.491,32.281z"/>
		
			<path clip-path="url(#SVGID_60_)" fill="none" stroke="#000000" stroke-width="0.7478" stroke-linejoin="round" stroke-miterlimit="10" d="
			M316.491,32.281c0,2.242,1.517,3.766,3.014,3.766c2.245,0,3.742-1.524,3.742-3.766c0-1.495-1.497-2.989-3.742-2.989
			C318.007,29.292,316.491,30.786,316.491,32.281z"/>
	</g>
	<g clip-path="url(#SVGID_2_)">
		<defs>
			<rect id="SVGID_61_" x="55.539" y="9.768" width="306.695" height="196.673"/>
		</defs>
		<clipPath id="SVGID_62_">
			<use xlink:href="#SVGID_61_"  overflow="visible"/>
		</clipPath>
		
			<rect x="334.502" y="12.016" clip-path="url(#SVGID_62_)" fill-rule="evenodd" clip-rule="evenodd" width="6.735" height="6.755"/>
		
			<rect x="334.502" y="12.016" clip-path="url(#SVGID_62_)" fill="none" stroke="#000000" stroke-width="0.7478" stroke-linejoin="round" stroke-miterlimit="10" width="6.735" height="6.755"/>
	</g>
	<g clip-path="url(#SVGID_2_)">
		<path d="M46.84,197.065c0.833,0,1.485,0.297,1.955,0.891c0.56,0.704,0.839,1.87,0.839,3.499c0,1.626-0.282,2.794-0.845,3.505
			c-0.466,0.586-1.115,0.879-1.949,0.879c-0.838,0-1.513-0.321-2.025-0.964c-0.513-0.643-0.769-1.788-0.769-3.438
			c0-1.618,0.282-2.782,0.845-3.493C45.356,197.358,46.006,197.065,46.84,197.065z M46.84,198.431c-0.2,0-0.378,0.063-0.534,0.19
			c-0.157,0.127-0.278,0.354-0.364,0.683c-0.113,0.426-0.17,1.143-0.17,2.151c0,1.008,0.051,1.701,0.153,2.078
			c0.102,0.377,0.23,0.628,0.385,0.753c0.154,0.125,0.332,0.188,0.531,0.188c0.199,0,0.377-0.063,0.534-0.19
			c0.156-0.127,0.278-0.354,0.364-0.683c0.113-0.422,0.17-1.137,0.17-2.146c0-1.008-0.051-1.701-0.153-2.078
			s-0.23-0.629-0.384-0.756C47.216,198.494,47.039,198.431,46.84,198.431z"/>
	</g>
	<g clip-path="url(#SVGID_2_)">
		<path d="M37.086,178.295c0.833,0,1.485,0.297,1.955,0.891c0.56,0.704,0.839,1.87,0.839,3.499c0,1.626-0.282,2.794-0.845,3.505
			c-0.466,0.586-1.115,0.879-1.949,0.879c-0.838,0-1.513-0.321-2.025-0.964c-0.513-0.643-0.769-1.788-0.769-3.438
			c0-1.618,0.282-2.782,0.845-3.493C35.603,178.588,36.252,178.295,37.086,178.295z M37.086,179.661c-0.2,0-0.378,0.063-0.534,0.19
			c-0.157,0.127-0.278,0.354-0.364,0.683c-0.113,0.426-0.17,1.143-0.17,2.151c0,1.008,0.051,1.701,0.153,2.078
			c0.102,0.377,0.23,0.628,0.385,0.753c0.154,0.125,0.332,0.188,0.531,0.188c0.199,0,0.377-0.063,0.534-0.19
			c0.156-0.127,0.278-0.354,0.364-0.683c0.113-0.422,0.17-1.137,0.17-2.146c0-1.008-0.051-1.701-0.153-2.078
			s-0.23-0.629-0.384-0.756C37.463,179.725,37.286,179.661,37.086,179.661z"/>
		<path d="M41.384,186.923v-1.647h1.65v1.647H41.384z"/>
		<path d="M48.256,186.923h-1.649v-6.207c-0.603,0.563-1.313,0.979-2.131,1.249v-1.495c0.43-0.141,0.898-0.407,1.403-0.8
			c0.505-0.393,0.851-0.851,1.039-1.375h1.338V186.923z"/>
	</g>
	<g clip-path="url(#SVGID_2_)">
		<path d="M37.086,159.526c0.833,0,1.485,0.297,1.955,0.891c0.56,0.704,0.839,1.87,0.839,3.499c0,1.626-0.282,2.794-0.845,3.505
			c-0.466,0.586-1.115,0.879-1.949,0.879c-0.838,0-1.513-0.321-2.025-0.964c-0.513-0.643-0.769-1.788-0.769-3.438
			c0-1.618,0.282-2.782,0.845-3.493C35.603,159.819,36.252,159.526,37.086,159.526z M37.086,160.892c-0.2,0-0.378,0.063-0.534,0.19
			c-0.157,0.127-0.278,0.354-0.364,0.683c-0.113,0.426-0.17,1.143-0.17,2.151c0,1.008,0.051,1.701,0.153,2.078
			c0.102,0.377,0.23,0.628,0.385,0.753c0.154,0.125,0.332,0.188,0.531,0.188c0.199,0,0.377-0.063,0.534-0.19
			c0.156-0.127,0.278-0.354,0.364-0.683c0.113-0.422,0.17-1.137,0.17-2.146c0-1.008-0.051-1.701-0.153-2.078
			s-0.23-0.629-0.384-0.756C37.463,160.955,37.286,160.892,37.086,160.892z"/>
		<path d="M41.384,168.153v-1.647h1.65v1.647H41.384z"/>
		<path d="M49.606,166.624v1.53h-5.782c0.063-0.578,0.25-1.126,0.563-1.644s0.932-1.205,1.855-2.06
			c0.744-0.692,1.2-1.161,1.368-1.407c0.227-0.34,0.34-0.676,0.34-1.008c0-0.367-0.099-0.649-0.296-0.847
			c-0.198-0.197-0.471-0.296-0.819-0.296c-0.345,0-0.619,0.104-0.822,0.311c-0.203,0.207-0.321,0.551-0.352,1.031l-1.644-0.164
			c0.098-0.906,0.405-1.557,0.921-1.952s1.163-0.592,1.938-0.592c0.849,0,1.516,0.229,2.001,0.686s0.728,1.026,0.728,1.706
			c0,0.387-0.069,0.755-0.208,1.105c-0.139,0.35-0.359,0.716-0.66,1.099c-0.2,0.254-0.56,0.619-1.08,1.096
			c-0.521,0.477-0.851,0.793-0.989,0.95c-0.139,0.156-0.251,0.309-0.337,0.457H49.606z"/>
	</g>
	<g clip-path="url(#SVGID_2_)">
		<path d="M37.086,140.761c0.833,0,1.485,0.297,1.955,0.891c0.56,0.704,0.839,1.87,0.839,3.499c0,1.626-0.282,2.794-0.845,3.505
			c-0.466,0.586-1.115,0.879-1.949,0.879c-0.838,0-1.513-0.321-2.025-0.964c-0.513-0.643-0.769-1.788-0.769-3.438
			c0-1.618,0.282-2.782,0.845-3.493C35.603,141.054,36.252,140.761,37.086,140.761z M37.086,142.127c-0.2,0-0.378,0.063-0.534,0.19
			c-0.157,0.127-0.278,0.354-0.364,0.683c-0.113,0.426-0.17,1.143-0.17,2.151c0,1.008,0.051,1.701,0.153,2.078
			c0.102,0.377,0.23,0.628,0.385,0.753c0.154,0.125,0.332,0.188,0.531,0.188c0.199,0,0.377-0.063,0.534-0.19
			c0.156-0.127,0.278-0.354,0.364-0.683c0.113-0.422,0.17-1.137,0.17-2.146c0-1.008-0.051-1.701-0.153-2.078
			s-0.23-0.629-0.384-0.756C37.463,142.19,37.286,142.127,37.086,142.127z"/>
		<path d="M41.384,149.389v-1.647h1.65v1.647H41.384z"/>
		<path d="M43.977,147.109l1.597-0.194c0.051,0.407,0.188,0.717,0.411,0.932c0.223,0.215,0.493,0.322,0.81,0.322
			c0.341,0,0.627-0.129,0.86-0.387c0.232-0.258,0.349-0.605,0.349-1.043c0-0.414-0.111-0.742-0.334-0.984s-0.495-0.363-0.816-0.363
			c-0.211,0-0.464,0.041-0.757,0.123l0.182-1.342c0.446,0.012,0.787-0.085,1.021-0.29c0.235-0.206,0.353-0.478,0.353-0.818
			c0-0.289-0.086-0.52-0.258-0.691c-0.172-0.172-0.401-0.258-0.687-0.258c-0.282,0-0.522,0.098-0.722,0.293
			c-0.199,0.195-0.321,0.48-0.364,0.855l-1.521-0.258c0.106-0.52,0.265-0.935,0.479-1.246s0.511-0.555,0.892-0.732
			c0.382-0.178,0.809-0.267,1.283-0.267c0.81,0,1.46,0.258,1.949,0.773c0.403,0.422,0.604,0.899,0.604,1.43
			c0,0.754-0.413,1.356-1.239,1.805c0.493,0.105,0.888,0.342,1.183,0.709c0.295,0.367,0.443,0.811,0.443,1.33
			c0,0.754-0.276,1.397-0.828,1.929c-0.552,0.531-1.238,0.797-2.061,0.797c-0.779,0-1.424-0.224-1.937-0.671
			C44.356,148.417,44.059,147.832,43.977,147.109z"/>
	</g>
	<g clip-path="url(#SVGID_2_)">
		<path d="M37.086,121.991c0.833,0,1.485,0.297,1.955,0.891c0.56,0.704,0.839,1.87,0.839,3.499c0,1.626-0.282,2.794-0.845,3.505
			c-0.466,0.586-1.115,0.879-1.949,0.879c-0.838,0-1.513-0.321-2.025-0.964c-0.513-0.643-0.769-1.788-0.769-3.438
			c0-1.618,0.282-2.782,0.845-3.493C35.603,122.284,36.252,121.991,37.086,121.991z M37.086,123.356c-0.2,0-0.378,0.063-0.534,0.19
			c-0.157,0.127-0.278,0.354-0.364,0.683c-0.113,0.426-0.17,1.143-0.17,2.151c0,1.008,0.051,1.701,0.153,2.078
			c0.102,0.377,0.23,0.628,0.385,0.753c0.154,0.125,0.332,0.188,0.531,0.188c0.199,0,0.377-0.063,0.534-0.19
			c0.156-0.127,0.278-0.354,0.364-0.683c0.113-0.422,0.17-1.137,0.17-2.146c0-1.008-0.051-1.701-0.153-2.078
			s-0.23-0.629-0.384-0.756C37.463,123.42,37.286,123.356,37.086,123.356z"/>
		<path d="M41.384,130.618v-1.647h1.65v1.647H41.384z"/>
		<path d="M47.27,130.618v-1.729h-3.522v-1.442l3.733-5.457h1.385v5.451h1.068v1.448h-1.068v1.729H47.27z M47.27,127.441v-2.937
			l-1.978,2.937H47.27z"/>
	</g>
	<g clip-path="url(#SVGID_2_)">
		<path d="M37.086,103.22c0.833,0,1.485,0.297,1.955,0.891c0.56,0.704,0.839,1.87,0.839,3.499c0,1.626-0.282,2.794-0.845,3.505
			c-0.466,0.586-1.115,0.879-1.949,0.879c-0.838,0-1.513-0.321-2.025-0.964c-0.513-0.643-0.769-1.788-0.769-3.438
			c0-1.618,0.282-2.782,0.845-3.493C35.603,103.513,36.252,103.22,37.086,103.22z M37.086,104.586c-0.2,0-0.378,0.063-0.534,0.19
			c-0.157,0.127-0.278,0.354-0.364,0.683c-0.113,0.426-0.17,1.143-0.17,2.151c0,1.008,0.051,1.701,0.153,2.078
			c0.102,0.377,0.23,0.628,0.385,0.753c0.154,0.125,0.332,0.188,0.531,0.188c0.199,0,0.377-0.063,0.534-0.19
			c0.156-0.127,0.278-0.354,0.364-0.683c0.113-0.422,0.17-1.137,0.17-2.146c0-1.008-0.051-1.701-0.153-2.078
			s-0.23-0.629-0.384-0.756C37.463,104.649,37.286,104.586,37.086,104.586z"/>
		<path d="M41.384,111.848v-1.647h1.65v1.647H41.384z"/>
		<path d="M44.059,109.638l1.644-0.17c0.047,0.371,0.186,0.665,0.417,0.882s0.497,0.325,0.798,0.325c0.344,0,0.636-0.14,0.875-0.419
			s0.358-0.7,0.358-1.263c0-0.527-0.119-0.923-0.355-1.187c-0.237-0.264-0.545-0.396-0.924-0.396c-0.474,0-0.898,0.209-1.274,0.627
			l-1.338-0.193l0.845-4.472h4.362v1.542h-3.111l-0.258,1.459c0.368-0.184,0.743-0.276,1.127-0.276c0.732,0,1.352,0.266,1.861,0.797
			s0.763,1.221,0.763,2.069c0,0.708-0.206,1.338-0.616,1.893c-0.56,0.758-1.336,1.137-2.331,1.137c-0.794,0-1.442-0.213-1.943-0.639
			S44.157,110.357,44.059,109.638z"/>
	</g>
	<g clip-path="url(#SVGID_2_)">
		<path d="M37.086,85.216c0.833,0,1.485,0.297,1.955,0.891c0.56,0.704,0.839,1.87,0.839,3.499c0,1.626-0.282,2.794-0.845,3.505
			c-0.466,0.586-1.115,0.879-1.949,0.879c-0.838,0-1.513-0.321-2.025-0.964c-0.513-0.643-0.769-1.788-0.769-3.438
			c0-1.618,0.282-2.782,0.845-3.493C35.603,85.509,36.252,85.216,37.086,85.216z M37.086,86.582c-0.2,0-0.378,0.063-0.534,0.19
			c-0.157,0.127-0.278,0.354-0.364,0.683c-0.113,0.426-0.17,1.143-0.17,2.151c0,1.008,0.051,1.701,0.153,2.078
			c0.102,0.377,0.23,0.628,0.385,0.753c0.154,0.125,0.332,0.188,0.531,0.188c0.199,0,0.377-0.063,0.534-0.19
			c0.156-0.127,0.278-0.354,0.364-0.683c0.113-0.422,0.17-1.137,0.17-2.146c0-1.008-0.051-1.701-0.153-2.078
			s-0.23-0.629-0.384-0.756C37.463,86.646,37.286,86.582,37.086,86.582z"/>
		<path d="M41.384,93.844v-1.647h1.65v1.647H41.384z"/>
		<path d="M49.624,87.355l-1.597,0.176c-0.039-0.328-0.141-0.57-0.305-0.727s-0.378-0.234-0.64-0.234
			c-0.349,0-0.643,0.156-0.884,0.469s-0.392,0.963-0.455,1.952c0.411-0.484,0.922-0.727,1.532-0.727c0.689,0,1.279,0.262,1.77,0.785
			s0.737,1.2,0.737,2.028c0,0.879-0.258,1.584-0.775,2.116c-0.517,0.531-1.18,0.797-1.99,0.797c-0.869,0-1.583-0.337-2.143-1.011
			c-0.56-0.674-0.839-1.779-0.839-3.314c0-1.574,0.292-2.709,0.875-3.405c0.583-0.695,1.34-1.043,2.272-1.043
			c0.653,0,1.194,0.183,1.623,0.548S49.507,86.66,49.624,87.355z M45.885,90.948c0,0.536,0.123,0.949,0.37,1.24
			s0.528,0.437,0.846,0.437c0.305,0,0.56-0.119,0.763-0.357c0.203-0.238,0.305-0.629,0.305-1.172c0-0.559-0.11-0.968-0.329-1.228
			c-0.219-0.26-0.493-0.39-0.822-0.39c-0.317,0-0.585,0.124-0.804,0.373C45.994,90.098,45.885,90.464,45.885,90.948z"/>
	</g>
	<g clip-path="url(#SVGID_2_)">
		<path d="M37.086,66.446c0.833,0,1.485,0.297,1.955,0.891c0.56,0.704,0.839,1.87,0.839,3.499c0,1.626-0.282,2.794-0.845,3.505
			c-0.466,0.586-1.115,0.879-1.949,0.879c-0.838,0-1.513-0.321-2.025-0.964c-0.513-0.643-0.769-1.788-0.769-3.438
			c0-1.618,0.282-2.782,0.845-3.493C35.603,66.739,36.252,66.446,37.086,66.446z M37.086,67.812c-0.2,0-0.378,0.063-0.534,0.19
			c-0.157,0.127-0.278,0.354-0.364,0.683c-0.113,0.426-0.17,1.143-0.17,2.151c0,1.008,0.051,1.701,0.153,2.078
			c0.102,0.377,0.23,0.628,0.385,0.753c0.154,0.125,0.332,0.188,0.531,0.188c0.199,0,0.377-0.063,0.534-0.19
			c0.156-0.127,0.278-0.354,0.364-0.683c0.113-0.422,0.17-1.137,0.17-2.146c0-1.008-0.051-1.701-0.153-2.078
			s-0.23-0.629-0.384-0.756C37.463,67.875,37.286,67.812,37.086,67.812z"/>
		<path d="M41.384,75.073v-1.647h1.65v1.647H41.384z"/>
		<path d="M44.036,68.128v-1.53h5.641v1.196c-0.465,0.457-0.939,1.113-1.42,1.969c-0.481,0.855-0.848,1.765-1.101,2.728
			c-0.252,0.963-0.377,1.824-0.373,2.582h-1.591c0.027-1.188,0.273-2.399,0.737-3.634s1.083-2.339,1.858-3.312H44.036z"/>
	</g>
	<g clip-path="url(#SVGID_2_)">
		<path d="M37.086,47.685c0.833,0,1.485,0.297,1.955,0.891c0.56,0.704,0.839,1.87,0.839,3.499c0,1.626-0.282,2.794-0.845,3.505
			c-0.466,0.586-1.115,0.879-1.949,0.879c-0.838,0-1.513-0.321-2.025-0.964c-0.513-0.643-0.769-1.788-0.769-3.438
			c0-1.618,0.282-2.782,0.845-3.493C35.603,47.978,36.252,47.685,37.086,47.685z M37.086,49.051c-0.2,0-0.378,0.063-0.534,0.19
			c-0.157,0.127-0.278,0.354-0.364,0.683c-0.113,0.426-0.17,1.143-0.17,2.151c0,1.008,0.051,1.701,0.153,2.078
			c0.102,0.377,0.23,0.628,0.385,0.753c0.154,0.125,0.332,0.188,0.531,0.188c0.199,0,0.377-0.063,0.534-0.19
			c0.156-0.127,0.278-0.354,0.364-0.683c0.113-0.422,0.17-1.137,0.17-2.146c0-1.008-0.051-1.701-0.153-2.078
			s-0.23-0.629-0.384-0.756C37.463,49.114,37.286,49.051,37.086,49.051z"/>
		<path d="M41.384,56.313v-1.647h1.65v1.647H41.384z"/>
		<path d="M45.45,51.676c-0.426-0.18-0.736-0.427-0.93-0.741s-0.291-0.66-0.291-1.035c0-0.641,0.224-1.17,0.672-1.588
			s1.085-0.627,1.911-0.627c0.818,0,1.453,0.209,1.905,0.627c0.452,0.418,0.678,0.948,0.678,1.588c0,0.398-0.104,0.753-0.311,1.064
			s-0.499,0.548-0.875,0.712c0.478,0.191,0.84,0.471,1.089,0.838s0.373,0.791,0.373,1.271c0,0.793-0.253,1.438-0.76,1.935
			c-0.507,0.496-1.181,0.744-2.022,0.744c-0.783,0-1.435-0.205-1.955-0.615c-0.614-0.484-0.921-1.149-0.921-1.993
			c0-0.465,0.115-0.892,0.346-1.28S44.953,51.887,45.45,51.676z M45.638,53.698c0,0.454,0.116,0.807,0.349,1.061
			s0.523,0.381,0.872,0.381c0.34,0,0.622-0.122,0.845-0.366s0.334-0.597,0.334-1.058c0-0.402-0.113-0.726-0.34-0.97
			s-0.515-0.366-0.863-0.366c-0.403,0-0.704,0.139-0.901,0.416S45.638,53.374,45.638,53.698z M45.791,50.018
			c0,0.328,0.093,0.584,0.279,0.768c0.186,0.184,0.433,0.275,0.743,0.275c0.313,0,0.563-0.093,0.751-0.278
			c0.188-0.186,0.282-0.443,0.282-0.771c0-0.309-0.093-0.556-0.279-0.741c-0.186-0.186-0.431-0.279-0.736-0.279
			c-0.317,0-0.57,0.094-0.757,0.282C45.885,49.461,45.791,49.709,45.791,50.018z"/>
	</g>
	<g clip-path="url(#SVGID_2_)">
		<path d="M37.086,28.915c0.833,0,1.485,0.297,1.955,0.891c0.56,0.704,0.839,1.87,0.839,3.499c0,1.626-0.282,2.794-0.845,3.505
			c-0.466,0.586-1.115,0.879-1.949,0.879c-0.838,0-1.513-0.321-2.025-0.964c-0.513-0.643-0.769-1.788-0.769-3.438
			c0-1.618,0.282-2.782,0.845-3.493C35.603,29.208,36.252,28.915,37.086,28.915z M37.086,30.28c-0.2,0-0.378,0.063-0.534,0.19
			c-0.157,0.127-0.278,0.354-0.364,0.683c-0.113,0.426-0.17,1.143-0.17,2.151c0,1.008,0.051,1.701,0.153,2.078
			c0.102,0.377,0.23,0.628,0.385,0.753c0.154,0.125,0.332,0.188,0.531,0.188c0.199,0,0.377-0.063,0.534-0.19
			c0.156-0.127,0.278-0.354,0.364-0.683c0.113-0.422,0.17-1.137,0.17-2.146c0-1.008-0.051-1.701-0.153-2.078
			s-0.23-0.629-0.384-0.756C37.463,30.344,37.286,30.28,37.086,30.28z"/>
		<path d="M41.384,37.542v-1.647h1.65v1.647H41.384z"/>
		<path d="M44.071,35.555l1.597-0.176c0.039,0.324,0.141,0.564,0.305,0.721c0.165,0.156,0.382,0.234,0.652,0.234
			c0.34,0,0.63-0.156,0.869-0.469s0.391-0.961,0.458-1.946c-0.415,0.48-0.934,0.721-1.556,0.721c-0.677,0-1.261-0.261-1.752-0.782
			c-0.491-0.522-0.737-1.201-0.737-2.037c0-0.871,0.259-1.573,0.778-2.107c0.519-0.533,1.179-0.8,1.981-0.8
			c0.873,0,1.589,0.337,2.148,1.011c0.56,0.674,0.839,1.783,0.839,3.326c0,1.571-0.292,2.704-0.875,3.399
			c-0.583,0.696-1.342,1.043-2.278,1.043c-0.673,0-1.217-0.179-1.632-0.536S44.188,36.266,44.071,35.555z M47.804,31.957
			c0-0.532-0.122-0.944-0.367-1.237s-0.527-0.439-0.848-0.439c-0.306,0-0.559,0.12-0.76,0.36c-0.202,0.24-0.302,0.634-0.302,1.181
			c0,0.555,0.109,0.962,0.329,1.222c0.219,0.26,0.493,0.39,0.822,0.39c0.317,0,0.584-0.125,0.801-0.375S47.804,32.441,47.804,31.957
			z"/>
	</g>
	<g clip-path="url(#SVGID_2_)">
		<path d="M48.272,18.771h-1.649v-6.207c-0.603,0.563-1.313,0.979-2.131,1.249v-1.495c0.43-0.141,0.898-0.407,1.403-0.8
			c0.505-0.393,0.851-0.851,1.039-1.375h1.338V18.771z"/>
	</g>
	<g clip-path="url(#SVGID_2_)">
		<path d="M50.951,221.422v-1.647h3.24v1.647H50.951z"/>
		<path d="M60.097,222.184v1.53h-5.782c0.063-0.578,0.25-1.126,0.563-1.644s0.932-1.205,1.855-2.06
			c0.744-0.692,1.2-1.161,1.368-1.407c0.227-0.34,0.34-0.676,0.34-1.008c0-0.367-0.099-0.649-0.296-0.847
			c-0.198-0.197-0.471-0.296-0.819-0.296c-0.345,0-0.619,0.104-0.822,0.311c-0.203,0.207-0.321,0.551-0.352,1.031l-1.644-0.164
			c0.098-0.906,0.405-1.557,0.921-1.952s1.163-0.592,1.938-0.592c0.849,0,1.516,0.229,2.001,0.686s0.728,1.026,0.728,1.706
			c0,0.387-0.069,0.755-0.208,1.105c-0.139,0.35-0.359,0.716-0.66,1.099c-0.2,0.254-0.56,0.619-1.08,1.096
			c-0.521,0.477-0.851,0.793-0.989,0.95c-0.139,0.156-0.251,0.309-0.337,0.457H60.097z"/>
		<path d="M61.612,223.714v-1.647h1.65v1.647H61.612z"/>
		<path d="M67.052,215.086c0.833,0,1.485,0.297,1.955,0.891c0.56,0.704,0.839,1.87,0.839,3.499c0,1.626-0.282,2.794-0.845,3.505
			c-0.466,0.586-1.115,0.879-1.949,0.879c-0.838,0-1.513-0.321-2.025-0.964c-0.513-0.643-0.769-1.788-0.769-3.438
			c0-1.618,0.282-2.782,0.845-3.493C65.569,215.379,66.218,215.086,67.052,215.086z M67.052,216.452c-0.2,0-0.378,0.063-0.534,0.19
			c-0.157,0.127-0.278,0.354-0.364,0.683c-0.113,0.426-0.17,1.143-0.17,2.151c0,1.008,0.051,1.701,0.153,2.078
			c0.102,0.377,0.23,0.628,0.385,0.753c0.154,0.125,0.332,0.188,0.531,0.188c0.199,0,0.377-0.063,0.534-0.19
			c0.156-0.127,0.278-0.354,0.364-0.683c0.113-0.422,0.17-1.137,0.17-2.146c0-1.008-0.051-1.701-0.153-2.078
			s-0.23-0.629-0.384-0.756C67.429,216.516,67.251,216.452,67.052,216.452z"/>
	</g>
	<g clip-path="url(#SVGID_2_)">
		<path d="M125.186,221.422v-1.647h3.24v1.647H125.186z"/>
		<path d="M132.981,223.714h-1.649v-6.207c-0.603,0.563-1.313,0.979-2.131,1.249v-1.495c0.43-0.141,0.898-0.407,1.403-0.8
			c0.505-0.393,0.851-0.851,1.039-1.375h1.338V223.714z"/>
		<path d="M135.847,223.714v-1.647h1.65v1.647H135.847z"/>
		<path d="M141.287,215.086c0.833,0,1.485,0.297,1.955,0.891c0.56,0.704,0.839,1.87,0.839,3.499c0,1.626-0.282,2.794-0.845,3.505
			c-0.466,0.586-1.115,0.879-1.949,0.879c-0.838,0-1.513-0.321-2.025-0.964c-0.513-0.643-0.769-1.788-0.769-3.438
			c0-1.618,0.282-2.782,0.845-3.493C139.804,215.379,140.453,215.086,141.287,215.086z M141.287,216.452
			c-0.2,0-0.378,0.063-0.534,0.19c-0.157,0.127-0.278,0.354-0.364,0.683c-0.113,0.426-0.17,1.143-0.17,2.151
			c0,1.008,0.051,1.701,0.153,2.078c0.102,0.377,0.23,0.628,0.385,0.753c0.154,0.125,0.332,0.188,0.531,0.188
			c0.199,0,0.377-0.063,0.534-0.19c0.156-0.127,0.278-0.354,0.364-0.683c0.113-0.422,0.17-1.137,0.17-2.146
			c0-1.008-0.051-1.701-0.153-2.078s-0.23-0.629-0.384-0.756C141.664,216.516,141.486,216.452,141.287,216.452z"/>
	</g>
	<g clip-path="url(#SVGID_2_)">
		<path d="M203.568,215.086c0.833,0,1.485,0.297,1.955,0.891c0.56,0.704,0.839,1.87,0.839,3.499c0,1.626-0.282,2.794-0.845,3.505
			c-0.466,0.586-1.115,0.879-1.949,0.879c-0.838,0-1.513-0.321-2.025-0.964c-0.513-0.643-0.769-1.788-0.769-3.438
			c0-1.618,0.282-2.782,0.845-3.493C202.084,215.379,202.734,215.086,203.568,215.086z M203.568,216.452
			c-0.2,0-0.378,0.063-0.534,0.19c-0.157,0.127-0.278,0.354-0.364,0.683c-0.113,0.426-0.17,1.143-0.17,2.151
			c0,1.008,0.051,1.701,0.153,2.078c0.102,0.377,0.23,0.628,0.385,0.753c0.154,0.125,0.332,0.188,0.531,0.188
			c0.199,0,0.377-0.063,0.534-0.19c0.156-0.127,0.278-0.354,0.364-0.683c0.113-0.422,0.17-1.137,0.17-2.146
			c0-1.008-0.051-1.701-0.153-2.078s-0.23-0.629-0.384-0.756C203.944,216.516,203.767,216.452,203.568,216.452z"/>
		<path d="M207.866,223.714v-1.647h1.65v1.647H207.866z"/>
		<path d="M213.306,215.086c0.833,0,1.485,0.297,1.955,0.891c0.56,0.704,0.839,1.87,0.839,3.499c0,1.626-0.282,2.794-0.845,3.505
			c-0.466,0.586-1.115,0.879-1.949,0.879c-0.838,0-1.513-0.321-2.025-0.964c-0.513-0.643-0.769-1.788-0.769-3.438
			c0-1.618,0.282-2.782,0.845-3.493C211.822,215.379,212.472,215.086,213.306,215.086z M213.306,216.452
			c-0.2,0-0.378,0.063-0.534,0.19c-0.157,0.127-0.278,0.354-0.364,0.683c-0.113,0.426-0.17,1.143-0.17,2.151
			c0,1.008,0.051,1.701,0.153,2.078c0.102,0.377,0.23,0.628,0.385,0.753c0.154,0.125,0.332,0.188,0.531,0.188
			c0.199,0,0.377-0.063,0.534-0.19c0.156-0.127,0.278-0.354,0.364-0.683c0.113-0.422,0.17-1.137,0.17-2.146
			c0-1.008-0.051-1.701-0.153-2.078s-0.23-0.629-0.384-0.756C213.682,216.516,213.505,216.452,213.306,216.452z"/>
	</g>
	<g clip-path="url(#SVGID_2_)">
		<path d="M279.242,223.714h-1.649v-6.207c-0.603,0.563-1.313,0.979-2.131,1.249v-1.495c0.431-0.141,0.898-0.407,1.402-0.8
			c0.505-0.393,0.852-0.851,1.039-1.375h1.339V223.714z"/>
		<path d="M282.108,223.714v-1.647h1.649v1.647H282.108z"/>
		<path d="M287.547,215.086c0.834,0,1.485,0.297,1.955,0.891c0.56,0.704,0.84,1.87,0.84,3.499c0,1.626-0.282,2.794-0.846,3.505
			c-0.466,0.586-1.115,0.879-1.949,0.879c-0.837,0-1.513-0.321-2.025-0.964c-0.513-0.643-0.769-1.788-0.769-3.438
			c0-1.618,0.281-2.782,0.846-3.493C286.064,215.379,286.714,215.086,287.547,215.086z M287.547,216.452
			c-0.199,0-0.378,0.063-0.534,0.19s-0.277,0.354-0.363,0.683c-0.114,0.426-0.171,1.143-0.171,2.151
			c0,1.008,0.051,1.701,0.153,2.078c0.102,0.377,0.229,0.628,0.384,0.753c0.155,0.125,0.332,0.188,0.531,0.188
			c0.2,0,0.378-0.063,0.534-0.19c0.157-0.127,0.278-0.354,0.364-0.683c0.113-0.422,0.17-1.137,0.17-2.146
			c0-1.008-0.051-1.701-0.152-2.078s-0.229-0.629-0.385-0.756C287.924,216.516,287.748,216.452,287.547,216.452z"/>
	</g>
	<g clip-path="url(#SVGID_2_)">
		<path d="M354.825,222.184v1.53h-5.782c0.063-0.578,0.25-1.126,0.563-1.644c0.313-0.518,0.931-1.205,1.854-2.06
			c0.744-0.692,1.199-1.161,1.368-1.407c0.227-0.34,0.34-0.676,0.34-1.008c0-0.367-0.099-0.649-0.296-0.847
			c-0.198-0.197-0.471-0.296-0.819-0.296c-0.344,0-0.618,0.104-0.821,0.311c-0.204,0.207-0.321,0.551-0.353,1.031l-1.644-0.164
			c0.098-0.906,0.405-1.557,0.922-1.952s1.162-0.592,1.937-0.592c0.85,0,1.517,0.229,2.002,0.686s0.729,1.026,0.729,1.706
			c0,0.387-0.07,0.755-0.209,1.105s-0.359,0.716-0.66,1.099c-0.199,0.254-0.56,0.619-1.08,1.096
			c-0.521,0.477-0.851,0.793-0.989,0.95s-0.252,0.309-0.338,0.457H354.825z"/>
		<path d="M356.34,223.714v-1.647h1.649v1.647H356.34z"/>
		<path d="M361.78,215.086c0.834,0,1.485,0.297,1.955,0.891c0.56,0.704,0.84,1.87,0.84,3.499c0,1.626-0.282,2.794-0.846,3.505
			c-0.466,0.586-1.115,0.879-1.949,0.879c-0.837,0-1.513-0.321-2.025-0.964c-0.513-0.643-0.769-1.788-0.769-3.438
			c0-1.618,0.281-2.782,0.846-3.493C360.296,215.379,360.947,215.086,361.78,215.086z M361.78,216.452
			c-0.199,0-0.378,0.063-0.534,0.19s-0.277,0.354-0.363,0.683c-0.114,0.426-0.171,1.143-0.171,2.151
			c0,1.008,0.051,1.701,0.153,2.078c0.102,0.377,0.229,0.628,0.384,0.753c0.155,0.125,0.332,0.188,0.531,0.188
			c0.2,0,0.378-0.063,0.534-0.19c0.157-0.127,0.278-0.354,0.364-0.683c0.113-0.422,0.17-1.137,0.17-2.146
			c0-1.008-0.051-1.701-0.152-2.078s-0.229-0.629-0.385-0.756C362.157,216.516,361.98,216.452,361.78,216.452z"/>
	</g>
	<g clip-path="url(#SVGID_2_)">
		<defs>
			<rect id="SVGID_63_" x="90.038" y="229.722" width="237.703" height="23.257"/>
		</defs>
		<clipPath id="SVGID_64_">
			<use xlink:href="#SVGID_63_"  overflow="visible"/>
		</clipPath>
		<g clip-path="url(#SVGID_64_)">
			<path d="M93.9,236.884h3.176c0.716,0,1.262,0.055,1.638,0.164c0.505,0.148,0.937,0.412,1.297,0.791
				c0.36,0.379,0.634,0.843,0.822,1.392c0.188,0.549,0.282,1.226,0.282,2.031c0,0.708-0.088,1.317-0.264,1.829
				c-0.215,0.625-0.522,1.131-0.922,1.518c-0.301,0.293-0.708,0.522-1.221,0.686c-0.384,0.121-0.896,0.182-1.538,0.182H93.9V236.884
				z M95.638,238.338v5.691h1.297c0.485,0,0.835-0.027,1.051-0.082c0.282-0.07,0.516-0.189,0.702-0.357
				c0.186-0.168,0.337-0.444,0.455-0.83c0.118-0.385,0.176-0.909,0.176-1.574c0-0.664-0.059-1.174-0.176-1.53
				c-0.117-0.355-0.282-0.633-0.493-0.832c-0.211-0.199-0.479-0.334-0.804-0.404c-0.243-0.055-0.718-0.082-1.426-0.082H95.638z"/>
			<path d="M106.487,243.496l1.644,0.275c-0.211,0.602-0.545,1.06-1.001,1.375c-0.456,0.314-1.026,0.472-1.711,0.472
				c-1.084,0-1.886-0.354-2.407-1.061c-0.411-0.566-0.617-1.281-0.617-2.145c0-1.032,0.27-1.839,0.811-2.423
				c0.54-0.584,1.223-0.876,2.048-0.876c0.928,0,1.66,0.306,2.196,0.917c0.536,0.611,0.792,1.548,0.769,2.81h-4.133
				c0.012,0.489,0.145,0.869,0.399,1.14s0.572,0.407,0.951,0.407c0.258,0,0.476-0.07,0.652-0.211
				C106.264,244.035,106.397,243.808,106.487,243.496z M106.581,241.831c-0.012-0.477-0.135-0.839-0.37-1.087
				s-0.521-0.372-0.857-0.372c-0.36,0-0.658,0.131-0.893,0.393s-0.35,0.618-0.346,1.067H106.581z"/>
			<path d="M109.611,245.477v-8.592h1.65v8.592H109.611z"/>
			<path d="M115.474,239.252v1.313h-1.127v2.509c0,0.508,0.011,0.804,0.032,0.888s0.07,0.153,0.147,0.208
				c0.076,0.055,0.169,0.082,0.279,0.082c0.152,0,0.374-0.053,0.663-0.158l0.141,1.278c-0.384,0.164-0.818,0.246-1.303,0.246
				c-0.297,0-0.566-0.05-0.804-0.149c-0.239-0.1-0.414-0.229-0.525-0.387c-0.112-0.158-0.189-0.372-0.232-0.642
				c-0.035-0.191-0.053-0.578-0.053-1.16v-2.714h-0.757v-1.313h0.757v-1.237l1.655-0.961v2.198H115.474z"/>
			<path d="M117.586,241.151l-1.497-0.27c0.168-0.602,0.458-1.047,0.869-1.336c0.411-0.289,1.021-0.434,1.832-0.434
				c0.735,0,1.283,0.087,1.644,0.261c0.36,0.174,0.613,0.395,0.76,0.663c0.146,0.268,0.22,0.759,0.22,1.474l-0.018,1.922
				c0,0.547,0.027,0.95,0.08,1.21c0.053,0.26,0.151,0.539,0.296,0.835h-1.632c-0.043-0.109-0.096-0.271-0.159-0.486
				c-0.027-0.098-0.047-0.162-0.059-0.193c-0.282,0.273-0.583,0.479-0.904,0.615c-0.321,0.137-0.663,0.205-1.027,0.205
				c-0.642,0-1.148-0.174-1.518-0.521c-0.37-0.348-0.555-0.788-0.555-1.319c0-0.352,0.084-0.665,0.252-0.941
				c0.168-0.275,0.404-0.486,0.707-0.633s0.741-0.274,1.312-0.384c0.771-0.145,1.305-0.279,1.603-0.405v-0.164
				c0-0.316-0.078-0.542-0.235-0.677c-0.156-0.135-0.452-0.202-0.886-0.202c-0.293,0-0.522,0.058-0.687,0.173
				C117.821,240.66,117.688,240.862,117.586,241.151z M119.793,242.487c-0.211,0.07-0.546,0.154-1.003,0.252
				c-0.458,0.098-0.757,0.193-0.898,0.287c-0.215,0.153-0.323,0.346-0.323,0.581c0,0.23,0.086,0.43,0.258,0.598
				c0.172,0.168,0.391,0.252,0.657,0.252c0.297,0,0.582-0.098,0.852-0.293c0.199-0.148,0.331-0.33,0.393-0.545
				c0.043-0.141,0.064-0.408,0.064-0.803V242.487z"/>
			<path d="M125.037,245.477v-7.139h-2.554v-1.454h6.839v1.454h-2.548v7.139H125.037z"/>
			<path d="M131.809,241.151l-1.497-0.27c0.168-0.602,0.458-1.047,0.869-1.336c0.411-0.289,1.021-0.434,1.832-0.434
				c0.735,0,1.283,0.087,1.644,0.261c0.36,0.174,0.613,0.395,0.76,0.663c0.146,0.268,0.22,0.759,0.22,1.474l-0.018,1.922
				c0,0.547,0.027,0.95,0.08,1.21c0.053,0.26,0.151,0.539,0.296,0.835h-1.632c-0.043-0.109-0.096-0.271-0.159-0.486
				c-0.027-0.098-0.047-0.162-0.059-0.193c-0.282,0.273-0.583,0.479-0.904,0.615c-0.321,0.137-0.663,0.205-1.027,0.205
				c-0.642,0-1.148-0.174-1.518-0.521c-0.37-0.348-0.555-0.788-0.555-1.319c0-0.352,0.084-0.665,0.252-0.941
				c0.168-0.275,0.404-0.486,0.707-0.633s0.741-0.274,1.312-0.384c0.771-0.145,1.305-0.279,1.603-0.405v-0.164
				c0-0.316-0.078-0.542-0.235-0.677c-0.156-0.135-0.452-0.202-0.886-0.202c-0.293,0-0.522,0.058-0.687,0.173
				C132.044,240.66,131.911,240.862,131.809,241.151z M134.016,242.487c-0.211,0.07-0.546,0.154-1.003,0.252
				c-0.458,0.098-0.757,0.193-0.898,0.287c-0.215,0.153-0.323,0.346-0.323,0.581c0,0.23,0.086,0.43,0.258,0.598
				c0.172,0.168,0.391,0.252,0.657,0.252c0.297,0,0.582-0.098,0.852-0.293c0.199-0.148,0.331-0.33,0.393-0.545
				c0.043-0.141,0.064-0.408,0.064-0.803V242.487z"/>
			<path d="M137.311,238.408v-1.524h1.65v1.524H137.311z M137.311,245.477v-6.225h1.65v6.225H137.311z"/>
			<path d="M142.954,240.694v-1.512h6.017v1.512H142.954z M142.954,243.296v-1.518h6.017v1.518H142.954z"/>
			<path d="M155.825,248.003h-1.133c-0.599-0.903-1.055-1.841-1.368-2.813c-0.313-0.973-0.47-1.915-0.47-2.825
				c0-1.129,0.194-2.198,0.582-3.206c0.336-0.875,0.763-1.682,1.279-2.42h1.127c-0.536,1.184-0.905,2.191-1.106,3.021
				c-0.202,0.831-0.303,1.711-0.303,2.641c0,0.641,0.06,1.297,0.179,1.969c0.119,0.672,0.283,1.311,0.49,1.917
				C155.24,246.684,155.48,247.256,155.825,248.003z"/>
			<path d="M158.778,245.477v-7.139h-2.554v-1.454h6.839v1.454h-2.548v7.139H158.778z"/>
			<path d="M165.549,241.151l-1.497-0.27c0.168-0.602,0.458-1.047,0.869-1.336c0.411-0.289,1.021-0.434,1.832-0.434
				c0.735,0,1.283,0.087,1.644,0.261c0.36,0.174,0.613,0.395,0.76,0.663c0.146,0.268,0.22,0.759,0.22,1.474l-0.018,1.922
				c0,0.547,0.027,0.95,0.08,1.21c0.053,0.26,0.151,0.539,0.296,0.835h-1.632c-0.043-0.109-0.096-0.271-0.159-0.486
				c-0.027-0.098-0.047-0.162-0.059-0.193c-0.282,0.273-0.583,0.479-0.904,0.615c-0.321,0.137-0.663,0.205-1.027,0.205
				c-0.642,0-1.148-0.174-1.518-0.521c-0.37-0.348-0.555-0.788-0.555-1.319c0-0.352,0.084-0.665,0.252-0.941
				c0.168-0.275,0.404-0.486,0.707-0.633s0.741-0.274,1.312-0.384c0.771-0.145,1.305-0.279,1.603-0.405v-0.164
				c0-0.316-0.078-0.542-0.235-0.677c-0.156-0.135-0.452-0.202-0.886-0.202c-0.293,0-0.522,0.058-0.687,0.173
				C165.784,240.66,165.651,240.862,165.549,241.151z M167.756,242.487c-0.211,0.07-0.546,0.154-1.003,0.252
				c-0.458,0.098-0.757,0.193-0.898,0.287c-0.215,0.153-0.323,0.346-0.323,0.581c0,0.23,0.086,0.43,0.258,0.598
				c0.172,0.168,0.391,0.252,0.657,0.252c0.297,0,0.582-0.098,0.852-0.293c0.199-0.148,0.331-0.33,0.393-0.545
				c0.043-0.141,0.064-0.408,0.064-0.803V242.487z"/>
			<path d="M171.051,238.408v-1.524h1.65v1.524H171.051z M171.051,245.477v-6.225h1.65v6.225H171.051z"/>
			<path d="M175.633,245.477h-1.649v-6.225h1.532v0.885c0.262-0.418,0.498-0.694,0.708-0.827c0.209-0.133,0.447-0.199,0.713-0.199
				c0.376,0,0.738,0.104,1.086,0.311l-0.511,1.436c-0.278-0.18-0.536-0.27-0.775-0.27c-0.231,0-0.426,0.063-0.587,0.19
				c-0.16,0.127-0.287,0.356-0.378,0.689c-0.092,0.332-0.138,1.027-0.138,2.086V245.477z"/>
			<path d="M178.5,243.83h1.649v1.178c0,0.477-0.041,0.853-0.123,1.128c-0.082,0.276-0.238,0.523-0.467,0.742
				s-0.52,0.391-0.872,0.516l-0.323-0.68c0.333-0.109,0.569-0.26,0.71-0.452c0.141-0.191,0.215-0.453,0.223-0.785H178.5V243.83z"/>
			<path d="M181.544,238.408v-1.524h1.65v1.524H181.544z M181.544,245.477v-6.225h1.65v6.225H181.544z"/>
			<path d="M187.364,243.185v-1.647h3.24v1.647H187.364z"/>
			<path d="M194.282,245.477v-8.592h2.601l1.562,5.861l1.544-5.861h2.606v8.592h-1.614v-6.764l-1.708,6.764h-1.673l-1.703-6.764
				v6.764H194.282z"/>
			<path d="M207.654,243.496l1.644,0.275c-0.211,0.602-0.545,1.06-1.001,1.375c-0.456,0.314-1.026,0.472-1.711,0.472
				c-1.084,0-1.886-0.354-2.407-1.061c-0.411-0.566-0.617-1.281-0.617-2.145c0-1.032,0.27-1.839,0.811-2.423
				c0.54-0.584,1.223-0.876,2.048-0.876c0.928,0,1.66,0.306,2.196,0.917c0.536,0.611,0.792,1.548,0.769,2.81h-4.133
				c0.012,0.489,0.145,0.869,0.399,1.14s0.572,0.407,0.951,0.407c0.258,0,0.476-0.07,0.652-0.211
				C207.431,244.035,207.564,243.808,207.654,243.496z M207.748,241.831c-0.012-0.477-0.135-0.839-0.37-1.087
				s-0.521-0.372-0.857-0.372c-0.36,0-0.658,0.131-0.893,0.393s-0.35,0.618-0.346,1.067H207.748z"/>
			<path d="M212.011,241.151l-1.497-0.27c0.168-0.602,0.458-1.047,0.869-1.336c0.411-0.289,1.021-0.434,1.832-0.434
				c0.735,0,1.283,0.087,1.644,0.261c0.36,0.174,0.613,0.395,0.76,0.663c0.146,0.268,0.22,0.759,0.22,1.474l-0.018,1.922
				c0,0.547,0.027,0.95,0.08,1.21c0.053,0.26,0.151,0.539,0.296,0.835h-1.632c-0.043-0.109-0.096-0.271-0.159-0.486
				c-0.027-0.098-0.047-0.162-0.059-0.193c-0.282,0.273-0.583,0.479-0.904,0.615c-0.321,0.137-0.663,0.205-1.027,0.205
				c-0.642,0-1.148-0.174-1.518-0.521c-0.37-0.348-0.555-0.788-0.555-1.319c0-0.352,0.084-0.665,0.252-0.941
				c0.168-0.275,0.404-0.486,0.707-0.633s0.741-0.274,1.312-0.384c0.771-0.145,1.305-0.279,1.603-0.405v-0.164
				c0-0.316-0.078-0.542-0.235-0.677c-0.156-0.135-0.452-0.202-0.886-0.202c-0.293,0-0.522,0.058-0.687,0.173
				C212.246,240.66,212.113,240.862,212.011,241.151z M214.218,242.487c-0.211,0.07-0.546,0.154-1.003,0.252
				c-0.458,0.098-0.757,0.193-0.898,0.287c-0.215,0.153-0.323,0.346-0.323,0.581c0,0.23,0.086,0.43,0.258,0.598
				c0.172,0.168,0.391,0.252,0.657,0.252c0.297,0,0.582-0.098,0.852-0.293c0.199-0.148,0.331-0.33,0.393-0.545
				c0.043-0.141,0.064-0.408,0.064-0.803V242.487z"/>
			<path d="M223.184,245.477h-1.649V242.3c0-0.672-0.036-1.107-0.106-1.304s-0.185-0.351-0.343-0.46
				c-0.159-0.109-0.349-0.164-0.572-0.164c-0.286,0-0.542,0.078-0.769,0.234s-0.383,0.363-0.467,0.621
				c-0.084,0.258-0.126,0.735-0.126,1.43v2.819h-1.65v-6.225h1.532v0.915c0.544-0.704,1.229-1.055,2.055-1.055
				c0.364,0,0.696,0.065,0.998,0.196c0.301,0.131,0.529,0.298,0.684,0.501c0.155,0.203,0.262,0.434,0.323,0.691
				c0.061,0.258,0.091,0.627,0.091,1.108V245.477z"/>
			<path d="M232.773,245.477h-1.89l-0.751-1.952h-3.44l-0.71,1.952h-1.843l3.352-8.592h1.837L232.773,245.477z M229.574,242.077
				l-1.186-3.188l-1.162,3.188H229.574z"/>
			<path d="M233.262,238.408v-1.524h1.649v1.524H233.262z M233.262,245.477v-6.225h1.649v6.225H233.262z"/>
			<path d="M237.845,245.477h-1.649v-6.225h1.531v0.885c0.263-0.418,0.498-0.694,0.708-0.827c0.209-0.133,0.447-0.199,0.713-0.199
				c0.376,0,0.737,0.104,1.086,0.311l-0.511,1.436c-0.277-0.18-0.536-0.27-0.774-0.27c-0.231,0-0.427,0.063-0.587,0.19
				c-0.161,0.127-0.287,0.356-0.379,0.689c-0.092,0.332-0.138,1.027-0.138,2.086V245.477z"/>
			<path d="M242.701,245.477v-7.139h-2.554v-1.454h6.84v1.454h-2.548v7.139H242.701z"/>
			<path d="M251.851,243.496l1.644,0.275c-0.212,0.602-0.545,1.06-1.001,1.375s-1.026,0.472-1.712,0.472
				c-1.084,0-1.886-0.354-2.406-1.061c-0.411-0.566-0.616-1.281-0.616-2.145c0-1.032,0.27-1.839,0.81-2.423
				c0.54-0.584,1.224-0.876,2.049-0.876c0.928,0,1.659,0.306,2.195,0.917c0.536,0.611,0.793,1.548,0.77,2.81h-4.133
				c0.012,0.489,0.145,0.869,0.399,1.14c0.254,0.271,0.571,0.407,0.951,0.407c0.258,0,0.475-0.07,0.651-0.211
				C251.627,244.035,251.76,243.808,251.851,243.496z M251.945,241.831c-0.012-0.477-0.136-0.839-0.37-1.087
				s-0.521-0.372-0.857-0.372c-0.359,0-0.657,0.131-0.892,0.393c-0.235,0.262-0.351,0.618-0.347,1.067H251.945z"/>
			<path d="M254.851,239.252h1.521v0.85c0.544-0.661,1.192-0.991,1.943-0.991c0.399,0,0.745,0.082,1.039,0.246
				s0.534,0.413,0.722,0.745c0.274-0.332,0.569-0.581,0.887-0.745s0.655-0.246,1.016-0.246c0.458,0,0.846,0.093,1.162,0.278
				c0.317,0.186,0.554,0.458,0.711,0.818c0.113,0.266,0.17,0.695,0.17,1.29v3.979h-1.649v-3.558c0-0.618-0.057-1.016-0.171-1.196
				c-0.152-0.234-0.387-0.352-0.704-0.352c-0.23,0-0.448,0.07-0.651,0.211c-0.204,0.141-0.351,0.347-0.44,0.618
				c-0.09,0.272-0.135,0.701-0.135,1.287v2.989h-1.649v-3.411c0-0.605-0.029-0.997-0.089-1.172
				c-0.059-0.176-0.149-0.307-0.272-0.393s-0.291-0.129-0.502-0.129c-0.255,0-0.483,0.068-0.687,0.205
				c-0.204,0.137-0.35,0.334-0.438,0.592c-0.088,0.258-0.132,0.686-0.132,1.284v3.024h-1.65V239.252z"/>
			<path d="M265.425,239.252h1.537v0.915c0.2-0.313,0.47-0.566,0.811-0.762c0.341-0.195,0.718-0.293,1.133-0.293
				c0.725,0,1.339,0.283,1.844,0.85c0.505,0.566,0.757,1.356,0.757,2.368c0,1.04-0.254,1.847-0.763,2.424
				c-0.509,0.576-1.125,0.864-1.85,0.864c-0.345,0-0.656-0.068-0.937-0.205c-0.279-0.137-0.574-0.371-0.883-0.703v3.135h-1.649
				V239.252z M267.057,242.259c0,0.7,0.139,1.216,0.416,1.55c0.278,0.334,0.617,0.501,1.016,0.501c0.384,0,0.703-0.153,0.957-0.46
				c0.255-0.307,0.382-0.81,0.382-1.509c0-0.652-0.131-1.137-0.394-1.454c-0.262-0.316-0.587-0.475-0.975-0.475
				c-0.402,0-0.737,0.155-1.004,0.466C267.19,241.189,267.057,241.649,267.057,242.259z"/>
			<path d="M272.502,248.003c0.324-0.696,0.554-1.229,0.687-1.6c0.133-0.372,0.257-0.799,0.37-1.284s0.197-0.945,0.252-1.38
				s0.082-0.882,0.082-1.339c0-0.93-0.1-1.81-0.299-2.641c-0.2-0.83-0.567-1.837-1.104-3.021h1.121
				c0.591,0.84,1.05,1.731,1.377,2.672c0.326,0.942,0.489,1.897,0.489,2.866c0,0.817-0.129,1.692-0.387,2.626
				c-0.294,1.047-0.777,2.081-1.45,3.101H272.502z"/>
			<path d="M279.697,247.897v-11.013h2.923v1.295h-1.355v8.422h1.355v1.295H279.697z"/>
			<path d="M283.448,236.884h3.176c0.716,0,1.262,0.055,1.638,0.164c0.505,0.148,0.938,0.412,1.297,0.791
				c0.36,0.379,0.634,0.843,0.822,1.392c0.188,0.549,0.281,1.226,0.281,2.031c0,0.708-0.088,1.317-0.264,1.829
				c-0.216,0.625-0.522,1.131-0.922,1.518c-0.302,0.293-0.708,0.522-1.221,0.686c-0.384,0.121-0.896,0.182-1.538,0.182h-3.27
				V236.884z M285.185,238.338v5.691h1.297c0.485,0,0.836-0.027,1.051-0.082c0.282-0.07,0.516-0.189,0.702-0.357
				c0.186-0.168,0.337-0.444,0.455-0.83c0.117-0.385,0.176-0.909,0.176-1.574c0-0.664-0.059-1.174-0.176-1.53
				c-0.118-0.355-0.282-0.633-0.493-0.832c-0.212-0.199-0.479-0.334-0.805-0.404c-0.242-0.055-0.718-0.082-1.427-0.082H285.185z"/>
			<path d="M296.035,243.496l1.644,0.275c-0.212,0.602-0.545,1.06-1.001,1.375s-1.026,0.472-1.712,0.472
				c-1.084,0-1.886-0.354-2.406-1.061c-0.411-0.566-0.616-1.281-0.616-2.145c0-1.032,0.27-1.839,0.81-2.423
				c0.54-0.584,1.224-0.876,2.049-0.876c0.928,0,1.659,0.306,2.195,0.917c0.536,0.611,0.793,1.548,0.77,2.81h-4.133
				c0.012,0.489,0.145,0.869,0.399,1.14c0.254,0.271,0.571,0.407,0.951,0.407c0.258,0,0.475-0.07,0.651-0.211
				C295.811,244.035,295.944,243.808,296.035,243.496z M296.128,241.831c-0.012-0.477-0.136-0.839-0.37-1.087
				s-0.521-0.372-0.857-0.372c-0.359,0-0.657,0.131-0.892,0.393c-0.235,0.262-0.351,0.618-0.347,1.067H296.128z"/>
			<path d="M299.005,245.887l1.885,0.229c0.031,0.219,0.104,0.37,0.217,0.452c0.157,0.117,0.403,0.176,0.74,0.176
				c0.431,0,0.753-0.064,0.969-0.193c0.145-0.086,0.254-0.225,0.328-0.417c0.051-0.137,0.076-0.389,0.076-0.756v-0.909
				c-0.493,0.672-1.115,1.008-1.866,1.008c-0.838,0-1.501-0.354-1.99-1.061c-0.384-0.559-0.575-1.254-0.575-2.086
				c0-1.043,0.251-1.84,0.754-2.391c0.503-0.551,1.128-0.827,1.876-0.827c0.771,0,1.407,0.338,1.908,1.014v-0.874h1.544v5.586
				c0,0.734-0.062,1.283-0.183,1.647c-0.121,0.363-0.291,0.648-0.511,0.855c-0.219,0.207-0.512,0.369-0.877,0.486
				c-0.366,0.118-0.829,0.176-1.389,0.176c-1.057,0-1.807-0.181-2.248-0.542c-0.442-0.361-0.664-0.819-0.664-1.375
				C299,246.031,299.001,245.965,299.005,245.887z M300.479,242.235c0,0.66,0.128,1.144,0.385,1.451
				c0.256,0.307,0.572,0.46,0.948,0.46c0.402,0,0.743-0.157,1.021-0.472c0.277-0.314,0.416-0.78,0.416-1.398
				c0-0.645-0.133-1.124-0.398-1.436c-0.267-0.313-0.604-0.469-1.01-0.469c-0.396,0-0.722,0.153-0.978,0.46
				C300.607,241.138,300.479,241.606,300.479,242.235z"/>
			<path d="M306.647,245.477v-1.647h1.649v1.647H306.647z"/>
			<path d="M318.171,242.317l1.685,0.533c-0.258,0.938-0.688,1.635-1.288,2.09s-1.363,0.683-2.286,0.683
				c-1.144,0-2.082-0.39-2.818-1.169c-0.735-0.779-1.104-1.845-1.104-3.197c0-1.43,0.37-2.541,1.109-3.332
				c0.74-0.791,1.712-1.187,2.918-1.187c1.053,0,1.907,0.311,2.565,0.932c0.391,0.367,0.685,0.895,0.88,1.583l-1.72,0.41
				c-0.102-0.445-0.314-0.797-0.637-1.055c-0.323-0.258-0.716-0.387-1.177-0.387c-0.639,0-1.156,0.229-1.553,0.686
				c-0.397,0.457-0.597,1.198-0.597,2.221c0,1.086,0.196,1.86,0.588,2.321c0.391,0.461,0.899,0.691,1.526,0.691
				c0.461,0,0.858-0.146,1.191-0.439C317.788,243.408,318.027,242.947,318.171,242.317z"/>
			<path d="M323.919,236.884v11.013h-2.924v-1.295h1.356v-8.435h-1.356v-1.283H323.919z"/>
		</g>
	</g>
	<g clip-path="url(#SVGID_2_)">
		<defs>
			<rect id="SVGID_65_" x="9.041" y="19.513" width="23.249" height="175.66"/>
		</defs>
		<clipPath id="SVGID_66_">
			<use xlink:href="#SVGID_65_"  overflow="visible"/>
		</clipPath>
		<g clip-path="url(#SVGID_66_)">
			<g>
				<path d="M26.562,25.77c-0.697-0.324-1.231-0.553-1.603-0.686c-0.372-0.133-0.801-0.256-1.286-0.369
					c-0.485-0.113-0.946-0.197-1.383-0.252c-0.436-0.055-0.883-0.082-1.341-0.082c-0.931,0-1.813,0.1-2.645,0.299
					s-1.84,0.566-3.026,1.102v-1.12c0.841-0.59,1.733-1.048,2.677-1.375s1.9-0.489,2.871-0.489c0.818,0,1.694,0.129,2.63,0.387
					c1.049,0.293,2.084,0.776,3.105,1.448V25.77z"/>
			</g>
			<g>
				<path d="M17.798,26.191h1.315v1.125h2.513c0.509,0,0.805-0.011,0.889-0.032c0.084-0.021,0.154-0.07,0.208-0.146
					s0.082-0.169,0.082-0.278c0-0.152-0.053-0.373-0.158-0.662l1.28-0.141c0.164,0.383,0.247,0.816,0.247,1.301
					c0,0.297-0.05,0.565-0.15,0.803s-0.229,0.413-0.388,0.524c-0.158,0.111-0.373,0.188-0.643,0.231
					c-0.192,0.035-0.579,0.053-1.162,0.053h-2.718v0.756h-1.315v-0.756H16.56l-0.963-1.653h2.201V26.191z"/>
			</g>
			<g>
				<path d="M15.427,34.883h3.164c-0.622-0.531-0.933-1.166-0.933-1.905c0-0.379,0.07-0.721,0.211-1.025
					c0.141-0.305,0.321-0.535,0.54-0.689s0.461-0.26,0.728-0.316c0.267-0.057,0.679-0.085,1.239-0.085h3.657v1.647h-3.293
					c-0.653,0-1.068,0.031-1.244,0.094c-0.176,0.063-0.316,0.173-0.42,0.331c-0.104,0.158-0.155,0.357-0.155,0.595
					c0,0.273,0.066,0.518,0.199,0.732c0.133,0.215,0.334,0.372,0.602,0.472s0.664,0.149,1.188,0.149h3.123v1.647h-8.606V34.883z"/>
			</g>
			<g>
				<path d="M24.444,44.154l0.229-1.882c0.219-0.031,0.37-0.104,0.452-0.217c0.118-0.156,0.176-0.402,0.176-0.738
					c0-0.43-0.064-0.752-0.194-0.967c-0.086-0.145-0.225-0.254-0.417-0.328c-0.137-0.051-0.39-0.076-0.757-0.076h-0.91
					c0.673,0.492,1.01,1.114,1.01,1.864c0,0.836-0.354,1.499-1.063,1.987c-0.56,0.383-1.256,0.575-2.09,0.575
					c-1.045,0-1.843-0.251-2.395-0.753c-0.552-0.502-0.828-1.126-0.828-1.873c0-0.77,0.338-1.405,1.016-1.905h-0.875v-1.542h5.595
					c0.735,0,1.285,0.061,1.649,0.182c0.364,0.121,0.649,0.291,0.857,0.51c0.208,0.219,0.37,0.511,0.487,0.876
					s0.176,0.827,0.176,1.386c0,1.055-0.181,1.803-0.543,2.245c-0.362,0.442-0.821,0.663-1.377,0.663
					C24.588,44.16,24.522,44.158,24.444,44.154z M20.787,42.683c0.661,0,1.146-0.128,1.453-0.384
					c0.307-0.256,0.461-0.571,0.461-0.946c0-0.402-0.158-0.742-0.473-1.02c-0.315-0.277-0.782-0.416-1.4-0.416
					c-0.646,0-1.125,0.133-1.438,0.398c-0.313,0.266-0.469,0.602-0.469,1.008c0,0.395,0.153,0.72,0.46,0.976
					C19.688,42.555,20.156,42.683,20.787,42.683z"/>
			</g>
			<g>
				<path d="M16.953,46.991h-1.526v-1.647h1.526V46.991z M24.033,46.991h-6.234v-1.647h6.234V46.991z"/>
			</g>
			<g>
				<path d="M22.048,50.12l0.276-1.641c0.603,0.211,1.062,0.544,1.377,1s0.473,1.025,0.473,1.708c0,1.083-0.354,1.883-1.063,2.403
					c-0.567,0.411-1.283,0.616-2.148,0.616c-1.033,0-1.842-0.27-2.427-0.809c-0.585-0.539-0.877-1.221-0.877-2.045
					c0-0.926,0.306-1.657,0.918-2.192c0.613-0.536,1.551-0.792,2.815-0.768v4.126c0.489-0.012,0.87-0.145,1.142-0.399
					c0.272-0.254,0.408-0.57,0.408-0.949c0-0.258-0.07-0.475-0.211-0.651C22.589,50.342,22.362,50.209,22.048,50.12z M20.381,50.026
					c-0.478,0.012-0.84,0.135-1.089,0.369c-0.249,0.235-0.373,0.52-0.373,0.856c0,0.359,0.131,0.656,0.393,0.891
					c0.262,0.235,0.619,0.35,1.068,0.346V50.026z"/>
			</g>
			<g>
				<path d="M15.427,59.562h3.164c-0.622-0.531-0.933-1.166-0.933-1.905c0-0.379,0.07-0.721,0.211-1.025
					c0.141-0.305,0.321-0.535,0.54-0.689s0.461-0.26,0.728-0.316c0.267-0.057,0.679-0.085,1.239-0.085h3.657v1.647h-3.293
					c-0.653,0-1.068,0.031-1.244,0.094c-0.176,0.063-0.316,0.173-0.42,0.331c-0.104,0.158-0.155,0.357-0.155,0.595
					c0,0.273,0.066,0.518,0.199,0.732c0.133,0.215,0.334,0.372,0.602,0.472s0.664,0.149,1.188,0.149h3.123v1.647h-8.606V59.562z"/>
			</g>
			<g>
			</g>
			<g>
				<path d="M24.033,67.181h-8.606v-1.647h8.606V67.181z"/>
			</g>
			<g>
				<path d="M19.701,72.684l-0.271,1.495c-0.603-0.168-1.048-0.458-1.338-0.868c-0.29-0.41-0.434-1.02-0.434-1.829
					c0-0.734,0.087-1.282,0.261-1.641c0.174-0.359,0.395-0.612,0.663-0.759c0.268-0.146,0.76-0.22,1.477-0.22l1.925,0.018
					c0.548,0,0.952-0.026,1.212-0.079s0.539-0.151,0.836-0.296v1.629c-0.109,0.043-0.272,0.096-0.487,0.158
					c-0.098,0.027-0.162,0.047-0.194,0.059c0.274,0.281,0.479,0.583,0.617,0.903c0.137,0.32,0.206,0.662,0.206,1.025
					c0,0.641-0.174,1.146-0.522,1.515c-0.349,0.37-0.789,0.554-1.321,0.554c-0.353,0-0.667-0.084-0.942-0.252
					s-0.487-0.404-0.634-0.707c-0.147-0.303-0.275-0.739-0.385-1.31c-0.145-0.77-0.28-1.303-0.405-1.6H19.8
					c-0.317,0-0.543,0.079-0.678,0.234c-0.135,0.157-0.202,0.452-0.202,0.885c0,0.293,0.058,0.521,0.173,0.686
					C19.208,72.45,19.411,72.583,19.701,72.684z M21.039,70.48c0.07,0.211,0.154,0.545,0.252,1.002
					c0.098,0.457,0.193,0.756,0.288,0.897c0.152,0.215,0.346,0.322,0.581,0.322c0.231,0,0.431-0.086,0.599-0.258
					c0.168-0.172,0.252-0.391,0.252-0.657c0-0.297-0.098-0.58-0.293-0.85c-0.149-0.199-0.331-0.331-0.546-0.393
					c-0.141-0.043-0.409-0.064-0.804-0.064H21.039z"/>
			</g>
			<g>
				<path d="M24.033,75.731v1.647h-3.182c-0.673,0-1.108,0.035-1.306,0.105s-0.351,0.185-0.461,0.343
					c-0.109,0.158-0.164,0.349-0.164,0.572c0,0.285,0.078,0.541,0.234,0.768c0.157,0.227,0.364,0.382,0.623,0.466
					c0.258,0.084,0.736,0.126,1.432,0.126h2.824v1.647h-6.234v-1.529h0.916c-0.705-0.543-1.057-1.227-1.057-2.052
					c0-0.363,0.065-0.695,0.196-0.996c0.131-0.301,0.299-0.529,0.502-0.683c0.204-0.154,0.435-0.262,0.693-0.322
					s0.628-0.091,1.109-0.091H24.033z"/>
			</g>
			<g>
				<path d="M20.828,89.252c-0.548,0-1.078-0.135-1.591-0.405c-0.513-0.27-0.904-0.651-1.174-1.146s-0.405-1.046-0.405-1.656
					c0-0.942,0.306-1.713,0.918-2.315c0.613-0.602,1.387-0.902,2.322-0.902c0.943,0,1.725,0.304,2.345,0.911
					c0.62,0.608,0.931,1.373,0.931,2.295c0,0.57-0.129,1.114-0.388,1.632c-0.258,0.518-0.637,0.911-1.136,1.181
					C22.151,89.117,21.544,89.252,20.828,89.252z M20.916,87.564c0.619,0,1.092-0.146,1.421-0.44
					c0.329-0.293,0.493-0.654,0.493-1.084s-0.164-0.791-0.493-1.082c-0.329-0.291-0.806-0.437-1.433-0.437
					c-0.61,0-1.08,0.146-1.409,0.437c-0.329,0.291-0.493,0.652-0.493,1.082s0.164,0.791,0.493,1.084
					C19.824,87.417,20.297,87.564,20.916,87.564z"/>
			</g>
			<g>
				<path d="M16.953,91.86h-1.526v-1.647h1.526V91.86z M24.033,91.86h-6.234v-1.647h6.234V91.86z"/>
			</g>
			<g>
				<path d="M22.254,99.174l-0.252-1.653c0.321-0.07,0.564-0.213,0.731-0.428s0.25-0.516,0.25-0.903
					c0-0.426-0.078-0.746-0.235-0.961c-0.109-0.145-0.256-0.217-0.44-0.217c-0.125,0-0.229,0.039-0.311,0.117
					c-0.078,0.082-0.15,0.266-0.217,0.551c-0.293,1.329-0.562,2.17-0.804,2.526c-0.336,0.493-0.804,0.739-1.403,0.739
					c-0.54,0-0.994-0.213-1.362-0.639c-0.368-0.426-0.552-1.086-0.552-1.981c0-0.852,0.139-1.485,0.417-1.899
					c0.278-0.414,0.689-0.699,1.233-0.856l0.288,1.553c-0.243,0.066-0.429,0.193-0.558,0.378c-0.129,0.186-0.194,0.45-0.194,0.794
					c0,0.434,0.061,0.745,0.182,0.932c0.086,0.125,0.198,0.188,0.334,0.188c0.118,0,0.217-0.055,0.299-0.164
					c0.11-0.148,0.264-0.662,0.464-1.539c0.2-0.877,0.444-1.49,0.734-1.837c0.293-0.344,0.703-0.516,1.227-0.516
					c0.571,0,1.063,0.238,1.473,0.715c0.411,0.477,0.617,1.182,0.617,2.116c0,0.848-0.172,1.519-0.517,2.013
					C23.313,98.698,22.845,99.021,22.254,99.174z"/>
			</g>
			<g>
				<path d="M24.033,100.41v1.647h-3.182c-0.673,0-1.108,0.035-1.306,0.105s-0.351,0.185-0.461,0.343
					c-0.109,0.158-0.164,0.349-0.164,0.572c0,0.285,0.078,0.541,0.234,0.768c0.157,0.227,0.364,0.382,0.623,0.466
					c0.258,0.084,0.736,0.126,1.432,0.126h2.824v1.647h-6.234v-1.529h0.916c-0.705-0.543-1.057-1.227-1.057-2.052
					c0-0.363,0.065-0.695,0.196-0.996c0.131-0.301,0.299-0.529,0.502-0.683c0.204-0.154,0.435-0.262,0.693-0.322
					s0.628-0.091,1.109-0.091H24.033z"/>
			</g>
			<g>
				<path d="M22.048,109.202l0.276-1.641c0.603,0.211,1.062,0.544,1.377,1s0.473,1.025,0.473,1.708c0,1.083-0.354,1.883-1.063,2.403
					c-0.567,0.411-1.283,0.616-2.148,0.616c-1.033,0-1.842-0.27-2.427-0.809c-0.585-0.539-0.877-1.221-0.877-2.045
					c0-0.926,0.306-1.657,0.918-2.192c0.613-0.536,1.551-0.792,2.815-0.768v4.126c0.489-0.012,0.87-0.145,1.142-0.399
					c0.272-0.254,0.408-0.57,0.408-0.949c0-0.258-0.07-0.475-0.211-0.651C22.589,109.424,22.362,109.292,22.048,109.202z
					 M20.381,109.108c-0.478,0.012-0.84,0.135-1.089,0.369c-0.249,0.235-0.373,0.52-0.373,0.856c0,0.359,0.131,0.656,0.393,0.891
					c0.262,0.235,0.619,0.35,1.068,0.346V109.108z"/>
			</g>
			<g>
				<path d="M17.798,123.409v-1.518h0.852c-0.662-0.543-0.992-1.19-0.992-1.94c0-0.398,0.082-0.744,0.247-1.037
					c0.164-0.293,0.413-0.534,0.746-0.721c-0.333-0.273-0.582-0.568-0.746-0.885c-0.165-0.316-0.247-0.654-0.247-1.014
					c0-0.457,0.093-0.844,0.279-1.161c0.186-0.316,0.459-0.553,0.819-0.709c0.266-0.113,0.697-0.17,1.292-0.17h3.986v1.647h-3.563
					c-0.618,0-1.017,0.057-1.197,0.17c-0.235,0.152-0.352,0.387-0.352,0.703c0,0.231,0.07,0.448,0.211,0.651
					c0.141,0.203,0.348,0.35,0.62,0.439s0.701,0.135,1.289,0.135h2.994v1.647h-3.417c-0.606,0-0.998,0.029-1.174,0.088
					c-0.176,0.059-0.308,0.149-0.394,0.272c-0.086,0.124-0.129,0.291-0.129,0.501c0,0.254,0.068,0.482,0.205,0.686
					c0.137,0.203,0.335,0.349,0.593,0.437c0.258,0.088,0.687,0.132,1.285,0.132h3.029v1.647H17.798z"/>
			</g>
			<g>
				<path d="M16.953,126.275h-1.526v-1.647h1.526V126.275z M24.033,126.275h-6.234v-1.647h6.234V126.275z"/>
			</g>
			<g>
				<path d="M24.033,128.044v1.53h-0.916c0.356,0.254,0.621,0.554,0.795,0.899c0.174,0.346,0.261,0.695,0.261,1.046
					c0,0.715-0.289,1.328-0.866,1.837c-0.577,0.51-1.382,0.765-2.416,0.765c-1.057,0-1.86-0.248-2.41-0.745
					c-0.55-0.496-0.825-1.123-0.825-1.881c0-0.695,0.29-1.297,0.869-1.805h-3.1v-1.647H24.033z M20.781,132.44
					c0.665,0,1.146-0.092,1.444-0.276c0.431-0.266,0.646-0.637,0.646-1.113c0-0.379-0.162-0.702-0.484-0.967
					s-0.805-0.398-1.447-0.398c-0.716,0-1.231,0.129-1.547,0.387c-0.315,0.258-0.472,0.588-0.472,0.991
					c0,0.391,0.155,0.718,0.466,0.981C19.698,132.308,20.162,132.44,20.781,132.44z"/>
			</g>
			<g>
				<path d="M21.737,137.674h-1.649v-3.235h1.649V137.674z"/>
			</g>
			<g>
				<path d="M24.033,139.302v1.647h-3.182c-0.673,0-1.108,0.035-1.306,0.105s-0.351,0.185-0.461,0.343
					c-0.109,0.158-0.164,0.349-0.164,0.572c0,0.285,0.078,0.541,0.234,0.768c0.157,0.227,0.364,0.382,0.623,0.466
					c0.258,0.084,0.736,0.126,1.432,0.126h2.824v1.647h-6.234v-1.529h0.916c-0.705-0.543-1.057-1.227-1.057-2.052
					c0-0.363,0.065-0.695,0.196-0.996c0.131-0.301,0.299-0.529,0.502-0.683c0.204-0.154,0.435-0.262,0.693-0.322
					s0.628-0.091,1.109-0.091H24.033z"/>
			</g>
			<g>
				<path d="M20.828,152.823c-0.548,0-1.078-0.135-1.591-0.405c-0.513-0.27-0.904-0.651-1.174-1.146s-0.405-1.046-0.405-1.656
					c0-0.942,0.306-1.713,0.918-2.315c0.613-0.602,1.387-0.902,2.322-0.902c0.943,0,1.725,0.304,2.345,0.911
					c0.62,0.608,0.931,1.373,0.931,2.295c0,0.57-0.129,1.114-0.388,1.632c-0.258,0.518-0.637,0.911-1.136,1.181
					C22.151,152.688,21.544,152.823,20.828,152.823z M20.916,151.135c0.619,0,1.092-0.146,1.421-0.44
					c0.329-0.293,0.493-0.654,0.493-1.084s-0.164-0.791-0.493-1.082c-0.329-0.291-0.806-0.437-1.433-0.437
					c-0.61,0-1.08,0.146-1.409,0.437c-0.329,0.291-0.493,0.652-0.493,1.082s0.164,0.791,0.493,1.084
					C19.824,150.989,20.297,151.135,20.916,151.135z"/>
			</g>
			<g>
				<path d="M24.033,154.258v1.647h-3.182c-0.673,0-1.108,0.035-1.306,0.105s-0.351,0.185-0.461,0.343
					c-0.109,0.158-0.164,0.349-0.164,0.572c0,0.285,0.078,0.541,0.234,0.768c0.157,0.227,0.364,0.382,0.623,0.466
					c0.258,0.084,0.736,0.126,1.432,0.126h2.824v1.647h-6.234v-1.529h0.916c-0.705-0.543-1.057-1.227-1.057-2.052
					c0-0.363,0.065-0.695,0.196-0.996c0.131-0.301,0.299-0.529,0.502-0.683c0.204-0.154,0.435-0.262,0.693-0.322
					s0.628-0.091,1.109-0.091H24.033z"/>
			</g>
			<g>
				<path d="M26.563,160.922v1.131c-0.904,0.598-1.843,1.053-2.818,1.366c-0.975,0.313-1.917,0.469-2.83,0.469
					c-1.131,0-2.201-0.194-3.211-0.581c-0.876-0.336-1.685-0.762-2.424-1.278v-1.125c1.186,0.535,2.194,0.903,3.026,1.104
					c0.832,0.202,1.713,0.302,2.645,0.302c0.642,0,1.299-0.06,1.973-0.179c0.673-0.119,1.313-0.283,1.919-0.49
					C25.242,161.506,25.815,161.266,26.563,160.922z"/>
			</g>
			<g>
			</g>
			<g>
				<path d="M19.701,172.146l-0.271,1.495c-0.603-0.168-1.048-0.458-1.338-0.868c-0.29-0.41-0.434-1.02-0.434-1.829
					c0-0.734,0.087-1.282,0.261-1.641c0.174-0.359,0.395-0.612,0.663-0.759c0.268-0.146,0.76-0.22,1.477-0.22l1.925,0.018
					c0.548,0,0.952-0.026,1.212-0.079s0.539-0.151,0.836-0.296v1.629c-0.109,0.043-0.272,0.096-0.487,0.158
					c-0.098,0.027-0.162,0.047-0.194,0.059c0.274,0.281,0.479,0.583,0.617,0.903c0.137,0.32,0.206,0.662,0.206,1.025
					c0,0.641-0.174,1.146-0.522,1.515c-0.349,0.37-0.789,0.554-1.321,0.554c-0.353,0-0.667-0.084-0.942-0.252
					s-0.487-0.404-0.634-0.707c-0.147-0.303-0.275-0.739-0.385-1.31c-0.145-0.77-0.28-1.303-0.405-1.6H19.8
					c-0.317,0-0.543,0.079-0.678,0.234c-0.135,0.157-0.202,0.452-0.202,0.885c0,0.293,0.058,0.521,0.173,0.686
					C19.208,171.912,19.411,172.044,19.701,172.146z M21.039,169.942c0.07,0.211,0.154,0.545,0.252,1.002
					c0.098,0.457,0.193,0.756,0.288,0.897c0.152,0.215,0.346,0.322,0.581,0.322c0.231,0,0.431-0.086,0.599-0.258
					c0.168-0.172,0.252-0.391,0.252-0.657c0-0.297-0.098-0.58-0.293-0.85c-0.149-0.199-0.331-0.331-0.546-0.393
					c-0.141-0.043-0.409-0.064-0.804-0.064H21.039z"/>
			</g>
			<g>
				<path d="M17.798,174.255h1.315v1.125h2.513c0.509,0,0.805-0.011,0.889-0.032c0.084-0.021,0.154-0.07,0.208-0.146
					s0.082-0.169,0.082-0.278c0-0.152-0.053-0.373-0.158-0.662l1.28-0.141c0.164,0.383,0.247,0.816,0.247,1.301
					c0,0.297-0.05,0.565-0.15,0.803s-0.229,0.413-0.388,0.524c-0.158,0.111-0.373,0.188-0.643,0.231
					c-0.192,0.035-0.579,0.053-1.162,0.053h-2.718v0.756h-1.315v-0.756H16.56l-0.963-1.653h2.201V174.255z"/>
			</g>
			<g>
				<path d="M22.048,180.239l0.276-1.641c0.603,0.211,1.062,0.544,1.377,1s0.473,1.025,0.473,1.708c0,1.083-0.354,1.883-1.063,2.403
					c-0.567,0.411-1.283,0.616-2.148,0.616c-1.033,0-1.842-0.27-2.427-0.809c-0.585-0.539-0.877-1.221-0.877-2.045
					c0-0.926,0.306-1.657,0.918-2.192c0.613-0.536,1.551-0.792,2.815-0.768v4.126c0.489-0.012,0.87-0.145,1.142-0.399
					c0.272-0.254,0.408-0.57,0.408-0.949c0-0.258-0.07-0.475-0.211-0.651C22.589,180.461,22.362,180.329,22.048,180.239z
					 M20.381,180.145c-0.478,0.012-0.84,0.135-1.089,0.369c-0.249,0.235-0.373,0.52-0.373,0.856c0,0.359,0.131,0.656,0.393,0.891
					c0.262,0.235,0.619,0.35,1.068,0.346V180.145z"/>
			</g>
			<g>
				<path d="M24.033,192.055h-1.567l-5.583-4.513v4.003h-1.456v-6.289h1.35l5.806,4.707v-4.888h1.45V192.055z"/>
			</g>
		</g>
	</g>
	<g clip-path="url(#SVGID_2_)">
		<defs>
			<rect id="SVGID_67_" x="0.036" y="0.002" width="377.963" height="263.495"/>
		</defs>
		<clipPath id="SVGID_68_">
			<use xlink:href="#SVGID_67_"  overflow="visible"/>
		</clipPath>
		
			<rect x="78.039" y="26.274" clip-path="url(#SVGID_68_)" fill="none" stroke="#000000" stroke-width="0.7478" stroke-linejoin="round" stroke-miterlimit="10" width="96.738" height="72.063"/>
	</g>
	<g clip-path="url(#SVGID_2_)">
		<defs>
			<rect id="SVGID_69_" x="78.039" y="26.274" width="97.486" height="72.063"/>
		</defs>
		<clipPath id="SVGID_70_">
			<use xlink:href="#SVGID_69_"  overflow="visible"/>
		</clipPath>
		
			<line clip-path="url(#SVGID_70_)" fill="none" stroke="#000000" stroke-width="0.7478" stroke-linecap="square" stroke-linejoin="round" stroke-miterlimit="10" x1="82.903" y1="37.163" x2="102.408" y2="37.163"/>
		
			<rect x="90.038" y="34.525" clip-path="url(#SVGID_70_)" fill-rule="evenodd" clip-rule="evenodd" fill="#FFFFFF" width="3.742" height="3.764"/>
		
			<rect x="90.038" y="34.525" clip-path="url(#SVGID_70_)" fill="none" stroke="#000000" stroke-width="0.7478" stroke-linejoin="round" stroke-miterlimit="10" width="3.742" height="3.764"/>
		<g clip-path="url(#SVGID_70_)">
			<path d="M105.98,40.531v-1.284l2.336-2.678c0.383-0.438,0.667-0.749,0.851-0.932c-0.192,0.012-0.444,0.02-0.757,0.023
				l-2.201,0.012v-1.366h5.154v1.167l-2.383,2.743l-0.839,0.908c0.458-0.027,0.742-0.041,0.851-0.041h2.554v1.448H105.98z"/>
			<path d="M116.986,38.55l1.644,0.275c-0.211,0.602-0.545,1.06-1.001,1.375c-0.456,0.314-1.026,0.472-1.711,0.472
				c-1.084,0-1.886-0.354-2.407-1.061c-0.411-0.566-0.617-1.281-0.617-2.145c0-1.032,0.27-1.839,0.811-2.423
				c0.54-0.584,1.223-0.876,2.048-0.876c0.928,0,1.66,0.306,2.196,0.917c0.536,0.611,0.792,1.548,0.769,2.81h-4.133
				c0.012,0.489,0.145,0.869,0.399,1.14s0.572,0.407,0.951,0.407c0.258,0,0.476-0.07,0.652-0.211
				C116.763,39.089,116.896,38.863,116.986,38.55z M117.08,36.886c-0.012-0.477-0.135-0.839-0.37-1.087s-0.521-0.372-0.857-0.372
				c-0.36,0-0.658,0.131-0.893,0.393s-0.35,0.618-0.346,1.067H117.08z"/>
			<path d="M122.969,34.307v1.313h-1.127v2.509c0,0.508,0.011,0.804,0.032,0.888s0.07,0.153,0.147,0.208
				c0.076,0.055,0.169,0.082,0.279,0.082c0.152,0,0.374-0.053,0.663-0.158l0.141,1.278c-0.384,0.164-0.818,0.246-1.303,0.246
				c-0.297,0-0.566-0.05-0.804-0.149c-0.239-0.1-0.414-0.229-0.525-0.387c-0.112-0.158-0.189-0.372-0.232-0.642
				c-0.035-0.191-0.053-0.578-0.053-1.16V35.62h-0.757v-1.313h0.757V33.07l1.655-0.961v2.198H122.969z"/>
			<path d="M125.082,36.206l-1.497-0.27c0.168-0.602,0.458-1.047,0.869-1.336c0.411-0.289,1.021-0.434,1.832-0.434
				c0.735,0,1.283,0.087,1.644,0.261c0.36,0.174,0.613,0.395,0.76,0.663c0.146,0.268,0.22,0.759,0.22,1.474l-0.018,1.922
				c0,0.547,0.027,0.95,0.08,1.21c0.053,0.26,0.151,0.539,0.296,0.835h-1.632c-0.043-0.109-0.096-0.271-0.159-0.486
				c-0.027-0.098-0.047-0.162-0.059-0.193c-0.282,0.273-0.583,0.479-0.904,0.615c-0.321,0.137-0.663,0.205-1.027,0.205
				c-0.642,0-1.148-0.174-1.518-0.521c-0.37-0.348-0.555-0.788-0.555-1.319c0-0.352,0.084-0.665,0.252-0.941
				c0.168-0.275,0.404-0.486,0.707-0.633s0.741-0.274,1.312-0.384c0.771-0.145,1.305-0.279,1.603-0.405v-0.164
				c0-0.316-0.078-0.542-0.235-0.677c-0.156-0.135-0.452-0.202-0.886-0.202c-0.293,0-0.522,0.058-0.687,0.173
				C125.317,35.714,125.184,35.917,125.082,36.206z M127.289,37.542c-0.211,0.07-0.546,0.154-1.003,0.252
				c-0.458,0.098-0.757,0.193-0.898,0.287c-0.215,0.153-0.323,0.346-0.323,0.581c0,0.23,0.086,0.43,0.258,0.598
				c0.172,0.168,0.391,0.252,0.657,0.252c0.297,0,0.582-0.098,0.852-0.293c0.199-0.148,0.331-0.33,0.393-0.545
				c0.043-0.141,0.064-0.408,0.064-0.803V37.542z"/>
		</g>
	</g>
	<g clip-path="url(#SVGID_2_)">
		<defs>
			<rect id="SVGID_71_" x="78.039" y="26.274" width="97.486" height="72.063"/>
		</defs>
		<clipPath id="SVGID_72_">
			<use xlink:href="#SVGID_71_"  overflow="visible"/>
		</clipPath>
		<polygon clip-path="url(#SVGID_72_)" fill-rule="evenodd" clip-rule="evenodd" points="92.657,51.42 96.399,58.922 88.891,58.922 
					"/>
		
			<polygon clip-path="url(#SVGID_72_)" fill="none" stroke="#000000" stroke-width="0.7478" stroke-linejoin="round" stroke-miterlimit="10" points="
			92.657,51.42 96.399,58.922 88.891,58.922 		"/>
		<g clip-path="url(#SVGID_72_)">
			<path d="M108.592,58.554v-7.139h-2.554v-1.454h6.839v1.454h-2.548v7.139H108.592z"/>
			<path d="M115.775,49.961v3.159c0.532-0.622,1.168-0.932,1.908-0.932c0.379,0,0.722,0.07,1.027,0.211s0.535,0.32,0.689,0.54
				c0.155,0.219,0.26,0.461,0.317,0.727c0.057,0.266,0.085,0.678,0.085,1.237v3.651h-1.649v-3.288c0-0.652-0.032-1.067-0.094-1.243
				s-0.173-0.315-0.332-0.419s-0.357-0.155-0.596-0.155c-0.274,0-0.519,0.066-0.734,0.199s-0.373,0.333-0.473,0.601
				c-0.1,0.268-0.149,0.664-0.149,1.187v3.118h-1.65v-8.592H115.775z"/>
			<path d="M125.229,56.573l1.644,0.275c-0.211,0.602-0.545,1.06-1.001,1.375c-0.456,0.314-1.026,0.472-1.711,0.472
				c-1.084,0-1.886-0.354-2.407-1.061c-0.411-0.566-0.617-1.281-0.617-2.145c0-1.032,0.27-1.839,0.811-2.423
				c0.54-0.584,1.223-0.876,2.048-0.876c0.928,0,1.66,0.306,2.196,0.917c0.536,0.611,0.792,1.548,0.769,2.81h-4.133
				c0.012,0.489,0.145,0.869,0.399,1.14s0.572,0.407,0.951,0.407c0.258,0,0.476-0.07,0.652-0.211
				C125.006,57.112,125.14,56.885,125.229,56.573z M125.323,54.908c-0.012-0.477-0.135-0.839-0.37-1.087s-0.521-0.372-0.857-0.372
				c-0.36,0-0.658,0.131-0.893,0.393s-0.35,0.618-0.346,1.067H125.323z"/>
			<path d="M129.933,58.554h-1.649v-6.225h1.532v0.885c0.262-0.418,0.498-0.694,0.708-0.827c0.209-0.133,0.447-0.199,0.713-0.199
				c0.376,0,0.738,0.104,1.086,0.311l-0.511,1.436c-0.278-0.18-0.536-0.27-0.775-0.27c-0.231,0-0.426,0.063-0.587,0.19
				c-0.16,0.127-0.287,0.356-0.378,0.689c-0.092,0.332-0.138,1.027-0.138,2.086V58.554z"/>
			<path d="M132.717,52.329h1.521v0.85c0.544-0.661,1.191-0.991,1.943-0.991c0.399,0,0.746,0.082,1.039,0.246
				s0.534,0.413,0.722,0.745c0.274-0.332,0.569-0.581,0.886-0.745s0.655-0.246,1.016-0.246c0.458,0,0.845,0.093,1.162,0.278
				c0.317,0.186,0.554,0.458,0.71,0.818c0.113,0.266,0.17,0.695,0.17,1.29v3.979h-1.65v-3.558c0-0.618-0.057-1.016-0.17-1.196
				c-0.153-0.234-0.388-0.352-0.705-0.352c-0.231,0-0.448,0.07-0.651,0.211c-0.204,0.141-0.351,0.347-0.44,0.618
				c-0.09,0.272-0.135,0.701-0.135,1.287v2.989h-1.649v-3.411c0-0.605-0.029-0.997-0.088-1.172s-0.15-0.307-0.273-0.393
				c-0.124-0.086-0.291-0.129-0.502-0.129c-0.254,0-0.483,0.068-0.687,0.205s-0.349,0.334-0.437,0.592
				c-0.088,0.258-0.132,0.686-0.132,1.284v3.024h-1.649V52.329z"/>
			<path d="M142.956,55.354c0-0.547,0.135-1.077,0.405-1.588s0.653-0.903,1.148-1.172s1.048-0.404,1.658-0.404
				c0.943,0,1.716,0.306,2.319,0.917c0.603,0.611,0.904,1.384,0.904,2.318c0,0.942-0.304,1.722-0.913,2.342
				c-0.609,0.619-1.375,0.929-2.298,0.929c-0.571,0-1.116-0.129-1.635-0.387s-0.913-0.636-1.183-1.134
				S142.956,56.068,142.956,55.354z M144.646,55.441c0,0.618,0.147,1.09,0.44,1.418s0.655,0.492,1.086,0.492
				s0.792-0.164,1.083-0.492s0.438-0.805,0.438-1.43c0-0.609-0.146-1.079-0.438-1.407s-0.652-0.492-1.083-0.492
				s-0.792,0.164-1.086,0.492S144.646,54.824,144.646,55.441z"/>
			<path d="M150.244,56.778l1.655-0.252c0.071,0.32,0.213,0.563,0.429,0.729s0.517,0.249,0.904,0.249
				c0.427,0,0.748-0.078,0.963-0.234c0.145-0.109,0.217-0.256,0.217-0.439c0-0.125-0.039-0.229-0.118-0.311
				c-0.082-0.078-0.266-0.15-0.552-0.217c-1.331-0.293-2.174-0.561-2.53-0.803c-0.493-0.336-0.74-0.803-0.74-1.401
				c0-0.539,0.213-0.992,0.64-1.36c0.427-0.367,1.088-0.551,1.984-0.551c0.853,0,1.487,0.139,1.902,0.416
				c0.415,0.278,0.701,0.688,0.857,1.231l-1.555,0.287c-0.067-0.242-0.193-0.428-0.379-0.557s-0.451-0.193-0.795-0.193
				c-0.435,0-0.746,0.061-0.934,0.182c-0.125,0.086-0.188,0.197-0.188,0.334c0,0.117,0.055,0.217,0.164,0.299
				c0.149,0.109,0.663,0.264,1.541,0.463c0.878,0.199,1.492,0.443,1.84,0.732c0.344,0.293,0.517,0.702,0.517,1.225
				c0,0.57-0.239,1.061-0.716,1.471c-0.478,0.41-1.184,0.615-2.12,0.615c-0.849,0-1.521-0.172-2.016-0.516
				S150.397,57.368,150.244,56.778z"/>
			<path d="M160.418,52.329v1.313h-1.127v2.509c0,0.508,0.011,0.804,0.032,0.888s0.07,0.153,0.147,0.208
				c0.076,0.055,0.169,0.082,0.279,0.082c0.152,0,0.374-0.053,0.663-0.158l0.141,1.278c-0.384,0.164-0.818,0.246-1.303,0.246
				c-0.297,0-0.566-0.05-0.804-0.149c-0.239-0.1-0.414-0.229-0.525-0.387c-0.112-0.158-0.189-0.372-0.232-0.642
				c-0.035-0.191-0.053-0.578-0.053-1.16v-2.714h-0.757v-1.313h0.757v-1.237l1.655-0.961v2.198H160.418z"/>
			<path d="M162.531,54.228l-1.497-0.27c0.168-0.602,0.458-1.047,0.869-1.336c0.411-0.289,1.021-0.434,1.832-0.434
				c0.735,0,1.283,0.087,1.644,0.261c0.36,0.174,0.613,0.395,0.76,0.663c0.146,0.268,0.22,0.759,0.22,1.474l-0.018,1.922
				c0,0.547,0.027,0.95,0.08,1.21c0.053,0.26,0.151,0.539,0.296,0.835h-1.632c-0.043-0.109-0.096-0.271-0.159-0.486
				c-0.027-0.098-0.047-0.162-0.059-0.193c-0.282,0.273-0.583,0.479-0.904,0.615c-0.321,0.137-0.663,0.205-1.027,0.205
				c-0.642,0-1.148-0.174-1.518-0.521c-0.37-0.348-0.555-0.788-0.555-1.319c0-0.352,0.084-0.665,0.252-0.941
				c0.168-0.275,0.404-0.486,0.707-0.633s0.741-0.274,1.312-0.384c0.771-0.145,1.305-0.279,1.603-0.405v-0.164
				c0-0.316-0.078-0.542-0.235-0.677c-0.156-0.135-0.452-0.202-0.886-0.202c-0.293,0-0.522,0.058-0.687,0.173
				C162.766,53.737,162.633,53.939,162.531,54.228z M164.738,55.564c-0.211,0.07-0.546,0.154-1.003,0.252
				c-0.458,0.098-0.757,0.193-0.898,0.287c-0.215,0.153-0.323,0.346-0.323,0.581c0,0.23,0.086,0.43,0.258,0.598
				c0.172,0.168,0.391,0.252,0.657,0.252c0.297,0,0.582-0.098,0.852-0.293c0.199-0.148,0.331-0.33,0.393-0.545
				c0.043-0.141,0.064-0.408,0.064-0.803V55.564z"/>
			<path d="M170.892,52.329v1.313h-1.127v2.509c0,0.508,0.011,0.804,0.032,0.888s0.07,0.153,0.147,0.208
				c0.076,0.055,0.169,0.082,0.279,0.082c0.152,0,0.374-0.053,0.663-0.158l0.141,1.278c-0.384,0.164-0.818,0.246-1.303,0.246
				c-0.297,0-0.566-0.05-0.804-0.149c-0.239-0.1-0.414-0.229-0.525-0.387c-0.112-0.158-0.189-0.372-0.232-0.642
				c-0.035-0.191-0.053-0.578-0.053-1.16v-2.714h-0.757v-1.313h0.757v-1.237l1.655-0.961v2.198H170.892z"/>
		</g>
	</g>
	<g clip-path="url(#SVGID_2_)">
		<defs>
			<rect id="SVGID_73_" x="78.039" y="26.274" width="97.486" height="72.063"/>
		</defs>
		<clipPath id="SVGID_74_">
			<use xlink:href="#SVGID_73_"  overflow="visible"/>
		</clipPath>
		<path clip-path="url(#SVGID_74_)" fill-rule="evenodd" clip-rule="evenodd" d="M88.516,72.063c0,2.262,1.522,3.767,3.019,3.767
			c2.245,0,3.742-1.505,3.742-3.767c0-1.494-1.497-2.989-3.742-2.989C90.038,69.075,88.516,70.569,88.516,72.063z"/>
		
			<path clip-path="url(#SVGID_74_)" fill="none" stroke="#000000" stroke-width="0.7478" stroke-linejoin="round" stroke-miterlimit="10" d="
			M88.516,72.063c0,2.262,1.522,3.767,3.019,3.767c2.245,0,3.742-1.505,3.742-3.767c0-1.494-1.497-2.989-3.742-2.989
			C90.038,69.075,88.516,70.569,88.516,72.063z"/>
		<g clip-path="url(#SVGID_74_)">
			<path d="M106.661,76.577v-8.592h3.657c0.92,0,1.588,0.077,2.005,0.231c0.417,0.154,0.75,0.429,1.001,0.823
				c0.25,0.395,0.375,0.846,0.375,1.354c0,0.645-0.19,1.177-0.569,1.597c-0.38,0.42-0.947,0.685-1.703,0.794
				c0.376,0.219,0.686,0.459,0.931,0.721s0.574,0.727,0.989,1.395l1.051,1.676h-2.078l-1.256-1.87
				c-0.446-0.668-0.751-1.089-0.916-1.263c-0.165-0.174-0.339-0.293-0.522-0.357c-0.184-0.064-0.476-0.097-0.875-0.097h-0.352v3.587
				H106.661z M108.398,71.619h1.286c0.833,0,1.354-0.035,1.562-0.105s0.37-0.191,0.487-0.363c0.117-0.172,0.176-0.387,0.176-0.645
				c0-0.289-0.077-0.522-0.232-0.7c-0.154-0.178-0.373-0.29-0.654-0.337c-0.141-0.02-0.563-0.029-1.268-0.029h-1.356V71.619z"/>
			<path d="M119.236,74.596l1.644,0.275c-0.211,0.602-0.545,1.06-1.001,1.375c-0.456,0.314-1.026,0.472-1.711,0.472
				c-1.084,0-1.886-0.354-2.407-1.061c-0.411-0.566-0.617-1.281-0.617-2.145c0-1.032,0.27-1.839,0.811-2.423
				c0.54-0.584,1.223-0.876,2.048-0.876c0.928,0,1.66,0.306,2.196,0.917c0.536,0.611,0.792,1.548,0.769,2.81h-4.133
				c0.012,0.489,0.145,0.869,0.399,1.14s0.572,0.407,0.951,0.407c0.258,0,0.476-0.07,0.652-0.211
				C119.013,75.135,119.146,74.909,119.236,74.596z M119.33,72.932c-0.012-0.477-0.135-0.839-0.37-1.087s-0.521-0.372-0.857-0.372
				c-0.36,0-0.658,0.131-0.893,0.393s-0.35,0.618-0.346,1.067H119.33z"/>
			<path d="M125.219,70.353v1.313h-1.127v2.509c0,0.508,0.011,0.804,0.032,0.888s0.07,0.153,0.147,0.208
				c0.076,0.055,0.169,0.082,0.279,0.082c0.152,0,0.374-0.053,0.663-0.158l0.141,1.278c-0.384,0.164-0.818,0.246-1.303,0.246
				c-0.297,0-0.566-0.05-0.804-0.149c-0.239-0.1-0.414-0.229-0.525-0.387c-0.112-0.158-0.189-0.372-0.232-0.642
				c-0.035-0.191-0.053-0.578-0.053-1.16v-2.714h-0.757v-1.313h0.757v-1.237l1.655-0.961v2.198H125.219z"/>
			<path d="M130.203,76.577v-0.932c-0.227,0.333-0.525,0.594-0.896,0.786c-0.37,0.191-0.76,0.287-1.171,0.287
				c-0.419,0-0.794-0.092-1.127-0.275c-0.333-0.184-0.573-0.441-0.722-0.774c-0.149-0.332-0.223-0.791-0.223-1.377v-3.939h1.649
				v2.86c0,0.875,0.03,1.412,0.091,1.609c0.061,0.197,0.171,0.354,0.332,0.469s0.364,0.173,0.61,0.173
				c0.282,0,0.534-0.077,0.757-0.231s0.376-0.346,0.458-0.574s0.123-0.789,0.123-1.679v-2.626h1.65v6.225H130.203z"/>
			<path d="M135.166,76.577h-1.649v-6.225h1.532v0.885c0.262-0.418,0.498-0.694,0.708-0.827c0.209-0.133,0.447-0.199,0.713-0.199
				c0.376,0,0.738,0.104,1.086,0.311l-0.511,1.436c-0.278-0.18-0.536-0.27-0.775-0.27c-0.231,0-0.426,0.063-0.587,0.19
				c-0.16,0.127-0.287,0.356-0.378,0.689c-0.092,0.332-0.138,1.027-0.138,2.086V76.577z"/>
			<path d="M143.744,76.577h-1.649V73.4c0-0.672-0.036-1.107-0.106-1.304s-0.185-0.351-0.343-0.46
				c-0.159-0.109-0.349-0.164-0.572-0.164c-0.286,0-0.542,0.078-0.769,0.234s-0.383,0.363-0.467,0.621
				c-0.084,0.258-0.126,0.735-0.126,1.43v2.819h-1.65v-6.225h1.532v0.915c0.544-0.704,1.229-1.055,2.055-1.055
				c0.364,0,0.696,0.065,0.998,0.196c0.301,0.131,0.529,0.298,0.684,0.501c0.155,0.203,0.262,0.434,0.323,0.691
				c0.061,0.258,0.091,0.627,0.091,1.108V76.577z"/>
			<path d="M156.337,76.577h-1.89l-0.751-1.952h-3.44l-0.71,1.952h-1.843l3.352-8.592h1.837L156.337,76.577z M153.138,73.178
				l-1.186-3.188l-1.162,3.188H153.138z"/>
			<path d="M156.826,69.509v-1.524h1.65v1.524H156.826z M156.826,76.577v-6.225h1.65v6.225H156.826z"/>
			<path d="M161.409,76.577h-1.649v-6.225h1.532v0.885c0.262-0.418,0.498-0.694,0.708-0.827c0.209-0.133,0.447-0.199,0.713-0.199
				c0.376,0,0.738,0.104,1.086,0.311l-0.511,1.436c-0.278-0.18-0.536-0.27-0.775-0.27c-0.231,0-0.426,0.063-0.587,0.19
				c-0.16,0.127-0.287,0.356-0.378,0.689c-0.092,0.332-0.138,1.027-0.138,2.086V76.577z"/>
		</g>
	</g>
	<g clip-path="url(#SVGID_2_)">
		<defs>
			<rect id="SVGID_75_" x="78.039" y="26.274" width="97.486" height="72.063"/>
		</defs>
		<clipPath id="SVGID_76_">
			<use xlink:href="#SVGID_75_"  overflow="visible"/>
		</clipPath>
		<rect x="88.516" y="87.088" clip-path="url(#SVGID_76_)" fill-rule="evenodd" clip-rule="evenodd" width="6.76" height="6.755"/>
		
			<rect x="88.516" y="87.088" clip-path="url(#SVGID_76_)" fill="none" stroke="#000000" stroke-width="0.7478" stroke-linejoin="round" stroke-miterlimit="10" width="6.76" height="6.755"/>
		<g clip-path="url(#SVGID_76_)">
			<path d="M106.655,94.591v-8.592h6.381v1.454h-4.644v1.905h4.32v1.448h-4.32v2.338h4.808v1.448H106.655z"/>
			<path d="M114.098,94.591l2.249-3.206l-2.154-3.019h2.013l1.104,1.711l1.163-1.711h1.937l-2.113,2.948l2.307,3.276h-2.025
				l-1.268-1.928l-1.279,1.928H114.098z"/>
			<path d="M123.269,85.999v3.159c0.532-0.622,1.168-0.932,1.908-0.932c0.379,0,0.722,0.07,1.027,0.211s0.535,0.32,0.689,0.54
				c0.155,0.219,0.26,0.461,0.317,0.727c0.057,0.266,0.085,0.678,0.085,1.237v3.651h-1.649v-3.288c0-0.652-0.032-1.067-0.094-1.243
				s-0.173-0.315-0.332-0.419s-0.357-0.155-0.596-0.155c-0.274,0-0.519,0.066-0.734,0.199s-0.373,0.333-0.473,0.601
				c-0.1,0.268-0.149,0.664-0.149,1.187v3.118h-1.65v-8.592H123.269z"/>
			<path d="M130.346,90.265l-1.497-0.27c0.168-0.602,0.458-1.047,0.869-1.336c0.411-0.289,1.021-0.434,1.832-0.434
				c0.735,0,1.283,0.087,1.644,0.261c0.36,0.174,0.613,0.395,0.76,0.663c0.146,0.268,0.22,0.759,0.22,1.474l-0.018,1.922
				c0,0.547,0.027,0.95,0.08,1.21c0.053,0.26,0.151,0.539,0.296,0.835h-1.632c-0.043-0.109-0.096-0.271-0.159-0.486
				c-0.027-0.098-0.047-0.162-0.059-0.193c-0.282,0.273-0.583,0.479-0.904,0.615c-0.321,0.137-0.663,0.205-1.027,0.205
				c-0.642,0-1.148-0.174-1.518-0.521c-0.37-0.348-0.555-0.788-0.555-1.319c0-0.352,0.084-0.665,0.252-0.941
				c0.168-0.275,0.404-0.486,0.707-0.633s0.741-0.274,1.312-0.384c0.771-0.145,1.305-0.279,1.603-0.405v-0.164
				c0-0.316-0.078-0.542-0.235-0.677c-0.156-0.135-0.452-0.202-0.886-0.202c-0.293,0-0.522,0.058-0.687,0.173
				C130.581,89.774,130.447,89.976,130.346,90.265z M132.553,91.602c-0.211,0.07-0.546,0.154-1.003,0.252
				c-0.458,0.098-0.757,0.193-0.898,0.287c-0.215,0.153-0.323,0.346-0.323,0.581c0,0.23,0.086,0.43,0.258,0.598
				c0.172,0.168,0.391,0.252,0.657,0.252c0.297,0,0.582-0.098,0.852-0.293c0.199-0.148,0.331-0.33,0.393-0.545
				c0.043-0.141,0.064-0.408,0.064-0.803V91.602z"/>
			<path d="M139.951,94.591v-0.932c-0.227,0.333-0.525,0.594-0.896,0.786c-0.37,0.191-0.76,0.287-1.171,0.287
				c-0.419,0-0.794-0.092-1.127-0.275c-0.333-0.184-0.573-0.441-0.722-0.774c-0.149-0.332-0.223-0.791-0.223-1.377v-3.939h1.649
				v2.86c0,0.875,0.03,1.412,0.091,1.609c0.061,0.197,0.171,0.354,0.332,0.469s0.364,0.173,0.61,0.173
				c0.282,0,0.534-0.077,0.757-0.231s0.376-0.346,0.458-0.574s0.123-0.789,0.123-1.679v-2.626h1.65v6.225H139.951z"/>
			<path d="M142.754,92.815l1.655-0.252c0.071,0.32,0.213,0.563,0.429,0.729s0.517,0.249,0.904,0.249
				c0.427,0,0.748-0.078,0.963-0.234c0.145-0.109,0.217-0.256,0.217-0.439c0-0.125-0.039-0.229-0.118-0.311
				c-0.082-0.078-0.266-0.15-0.552-0.217c-1.331-0.293-2.174-0.561-2.53-0.803c-0.493-0.336-0.74-0.803-0.74-1.401
				c0-0.539,0.213-0.992,0.64-1.36c0.427-0.367,1.088-0.551,1.984-0.551c0.853,0,1.487,0.139,1.902,0.416
				c0.415,0.278,0.701,0.688,0.857,1.231l-1.555,0.287c-0.067-0.242-0.193-0.428-0.379-0.557s-0.451-0.193-0.795-0.193
				c-0.435,0-0.746,0.061-0.934,0.182c-0.125,0.086-0.188,0.197-0.188,0.334c0,0.117,0.055,0.217,0.164,0.299
				c0.149,0.109,0.663,0.264,1.541,0.463c0.878,0.199,1.492,0.443,1.84,0.732c0.344,0.293,0.517,0.702,0.517,1.225
				c0,0.57-0.239,1.061-0.716,1.471c-0.478,0.41-1.184,0.615-2.12,0.615c-0.849,0-1.521-0.172-2.016-0.516
				S142.907,93.405,142.754,92.815z"/>
			<path d="M152.928,88.366v1.313h-1.127v2.509c0,0.508,0.011,0.804,0.032,0.888s0.07,0.153,0.147,0.208
				c0.076,0.055,0.169,0.082,0.279,0.082c0.152,0,0.374-0.053,0.663-0.158l0.141,1.278c-0.384,0.164-0.818,0.246-1.303,0.246
				c-0.297,0-0.566-0.05-0.804-0.149c-0.239-0.1-0.414-0.229-0.525-0.387c-0.112-0.158-0.189-0.372-0.232-0.642
				c-0.035-0.191-0.053-0.578-0.053-1.16v-2.714h-0.757v-1.313h0.757v-1.237l1.655-0.961v2.198H152.928z"/>
		</g>
	</g>
</g>
<g>
</g>
<g>
</g>
<g>
</g>
</svg>
