<?xml version="1.0" encoding="utf-8"?>
<!-- Generator: Adobe Illustrator 16.0.0, SVG Export Plug-In . SVG Version: 6.00 Build 0)  -->
<!DOCTYPE svg PUBLIC "-//W3C//DTD SVG 1.1//EN" "http://www.w3.org/Graphics/SVG/1.1/DTD/svg11.dtd">
<svg version="1.1" id="Layer_1" xmlns="http://www.w3.org/2000/svg" xmlns:xlink="http://www.w3.org/1999/xlink" x="0px" y="0px"
	 width="468px" height="207.384px" viewBox="0 0 468 207.384" enable-background="new 0 0 468 207.384" xml:space="preserve">
<g>
	<g>
		<defs>
			<rect id="SVGID_1_" width="468" height="204.119"/>
		</defs>
		<clipPath id="SVGID_2_">
			<use xlink:href="#SVGID_1_"  overflow="visible"/>
		</clipPath>
		<g clip-path="url(#SVGID_2_)">
		</g>
	</g>
	<path fill-rule="evenodd" clip-rule="evenodd" fill="#FFFFFF" d="M206.525,23.65c-5.868,0-10.625,4.723-10.625,10.55
		c0,5.827,4.757,10.55,10.625,10.55s10.625-4.723,10.625-10.55C217.15,28.373,212.393,23.65,206.525,23.65L206.525,23.65z"/>
	<path fill="none" stroke="#000000" stroke-width="0.75" stroke-linecap="round" stroke-linejoin="round" stroke-miterlimit="8" d="
		M206.525,23.65c-5.868,0-10.625,4.723-10.625,10.55c0,5.827,4.757,10.55,10.625,10.55s10.625-4.723,10.625-10.55
		C217.15,28.373,212.393,23.65,206.525,23.65L206.525,23.65z"/>
	<path fill-rule="evenodd" clip-rule="evenodd" fill="#FFFFFF" d="M206.525,85.45c-5.868,0-10.625,4.723-10.625,10.55
		c0,5.827,4.757,10.551,10.625,10.551S217.15,101.827,217.15,96C217.15,90.173,212.393,85.45,206.525,85.45L206.525,85.45z"/>
	<path fill="none" stroke="#000000" stroke-width="0.75" stroke-linecap="round" stroke-linejoin="round" stroke-miterlimit="8" d="
		M206.525,85.45c-5.868,0-10.625,4.723-10.625,10.55c0,5.827,4.757,10.551,10.625,10.551S217.15,101.827,217.15,96
		C217.15,90.173,212.393,85.45,206.525,85.45L206.525,85.45z"/>
	<path fill-rule="evenodd" clip-rule="evenodd" fill="#FFFFFF" d="M206.525,141.65c-5.868,0-10.625,4.723-10.625,10.549
		c0,5.828,4.757,10.551,10.625,10.551s10.625-4.723,10.625-10.551C217.15,146.373,212.393,141.65,206.525,141.65L206.525,141.65z"/>
	<path fill="none" stroke="#000000" stroke-width="0.75" stroke-linecap="round" stroke-linejoin="round" stroke-miterlimit="8" d="
		M206.525,141.65c-5.868,0-10.625,4.723-10.625,10.549c0,5.828,4.757,10.551,10.625,10.551s10.625-4.723,10.625-10.551
		C217.15,146.373,212.393,141.65,206.525,141.65L206.525,141.65z"/>
	
		<line fill="none" stroke="#000000" stroke-width="0.75" stroke-linecap="round" stroke-linejoin="round" stroke-miterlimit="8" stroke-dasharray="18.75,25" x1="217.15" y1="31.65" x2="217.2" y2="153.199"/>
	
		<line fill="none" stroke="#000000" stroke-width="0.75" stroke-linecap="round" stroke-linejoin="round" stroke-miterlimit="8" stroke-dasharray="18.75,25" x1="196.5" y1="31.65" x2="196.55" y2="153.199"/>
	
		<line fill="none" stroke="#000000" stroke-linecap="round" stroke-linejoin="round" stroke-miterlimit="8" x1="225.846" y1="36.65" x2="225.804" y2="87.55"/>
	<polygon fill-rule="evenodd" clip-rule="evenodd" points="228.805,86.552 225.8,92.55 222.805,86.547 228.805,86.552 	"/>
	<polygon fill-rule="evenodd" clip-rule="evenodd" points="222.845,37.647 225.85,31.65 228.845,37.652 222.845,37.647 	"/>
	
		<line fill="none" stroke="#000000" stroke-linecap="round" stroke-linejoin="round" stroke-miterlimit="8" x1="201.5" y1="170.211" x2="212.75" y2="170.238"/>
	<polygon fill-rule="evenodd" clip-rule="evenodd" points="211.757,167.236 217.75,170.25 211.743,173.236 211.757,167.236 	"/>
	<polygon fill-rule="evenodd" clip-rule="evenodd" points="202.493,173.213 196.5,170.199 202.507,167.213 202.493,173.213 	"/>
	
		<line fill="none" stroke="#000000" stroke-linecap="round" stroke-linejoin="round" stroke-miterlimit="8" x1="163.6" y1="44.75" x2="192.792" y2="81.533"/>
	<polygon fill-rule="evenodd" clip-rule="evenodd" points="194.521,78.885 195.9,85.45 189.82,82.615 194.521,78.885 	"/>
	<polygon fill-rule="evenodd" clip-rule="evenodd" fill="#CC3300" points="163.6,33.659 161.065,32.264 162.871,29.98 
		159.988,29.663 160.78,26.873 157.992,27.665 157.675,24.779 155.394,26.587 154,24.05 152.606,26.587 150.325,24.779 
		150.008,27.665 147.22,26.873 148.012,29.663 145.129,29.98 146.935,32.264 144.4,33.659 146.935,35.086 145.129,37.338 
		148.012,37.687 147.22,40.478 150.008,39.653 150.325,42.539 152.606,40.731 154,43.3 155.394,40.731 157.675,42.539 
		157.992,39.653 160.78,40.478 159.988,37.687 162.871,37.338 161.065,35.086 163.6,33.659 163.6,33.659 	"/>
	
		<polygon fill="none" stroke="#000000" stroke-width="0.12" stroke-linecap="round" stroke-linejoin="round" stroke-miterlimit="8" points="
		163.6,33.659 161.065,32.264 162.871,29.98 159.988,29.663 160.78,26.873 157.992,27.665 157.675,24.779 155.394,26.587 154,24.05 
		152.606,26.587 150.325,24.779 150.008,27.665 147.22,26.873 148.012,29.663 145.129,29.98 146.935,32.264 144.4,33.659 
		146.935,35.086 145.129,37.338 148.012,37.687 147.22,40.478 150.008,39.653 150.325,42.539 152.606,40.731 154,43.3 
		155.394,40.731 157.675,42.539 157.992,39.653 160.78,40.478 159.988,37.687 162.871,37.338 161.065,35.086 163.6,33.659 
		163.6,33.659 	"/>
	<path fill-rule="evenodd" clip-rule="evenodd" fill="#FFFF99" d="M153.025,26.95c-3.162,0-5.725,2.563-5.725,5.725
		s2.563,5.725,5.725,5.725s5.725-2.563,5.725-5.725S156.187,26.95,153.025,26.95L153.025,26.95z"/>
	<path fill="none" stroke="#000000" stroke-width="0.12" stroke-linecap="round" stroke-linejoin="round" stroke-miterlimit="8" d="
		M153.025,26.95c-3.162,0-5.725,2.563-5.725,5.725s2.563,5.725,5.725,5.725s5.725-2.563,5.725-5.725S156.187,26.95,153.025,26.95
		L153.025,26.95z"/>
	<path fill="none" stroke="#000000" stroke-width="0.12" stroke-linecap="round" stroke-linejoin="round" stroke-miterlimit="8" d="
		M153.025,26.95c-3.162,0-5.725,2.563-5.725,5.725s2.563,5.725,5.725,5.725s5.725-2.563,5.725-5.725S156.187,26.95,153.025,26.95
		L153.025,26.95z"/>
	<polygon fill-rule="evenodd" clip-rule="evenodd" fill="#FF0000" points="163.6,33.659 161.065,32.264 162.871,29.98 
		159.988,29.663 160.78,26.873 157.992,27.665 157.675,24.779 155.394,26.587 154,24.05 152.606,26.587 150.325,24.779 
		150.008,27.665 147.22,26.873 148.012,29.663 145.129,29.98 146.935,32.264 144.4,33.659 146.935,35.086 145.129,37.338 
		148.012,37.687 147.22,40.478 150.008,39.653 150.325,42.539 152.606,40.731 154,43.3 155.394,40.731 157.675,42.539 
		157.992,39.653 160.78,40.478 159.988,37.687 162.871,37.338 161.065,35.086 163.6,33.659 163.6,33.659 	"/>
	<polygon fill-rule="evenodd" clip-rule="evenodd" fill="#FF0000" points="163.6,33.659 161.065,32.264 162.871,29.98 
		159.988,29.663 160.78,26.873 157.992,27.665 157.675,24.779 155.394,26.587 154,24.05 152.606,26.587 150.325,24.779 
		150.008,27.665 147.22,26.873 148.012,29.663 145.129,29.98 146.935,32.264 144.4,33.659 146.935,35.086 145.129,37.338 
		148.012,37.687 147.22,40.478 150.008,39.653 150.325,42.539 152.606,40.731 154,43.3 155.394,40.731 157.675,42.539 
		157.992,39.653 160.78,40.478 159.988,37.687 162.871,37.338 161.065,35.086 163.6,33.659 163.6,33.659 	"/>
	
		<polygon fill="none" stroke="#000000" stroke-width="0.12" stroke-linecap="round" stroke-linejoin="round" stroke-miterlimit="8" points="
		163.6,33.659 161.065,32.264 162.871,29.98 159.988,29.663 160.78,26.873 157.992,27.665 157.675,24.779 155.394,26.587 154,24.05 
		152.606,26.587 150.325,24.779 150.008,27.665 147.22,26.873 148.012,29.663 145.129,29.98 146.935,32.264 144.4,33.659 
		146.935,35.086 145.129,37.338 148.012,37.687 147.22,40.478 150.008,39.653 150.325,42.539 152.606,40.731 154,43.3 
		155.394,40.731 157.675,42.539 157.992,39.653 160.78,40.478 159.988,37.687 162.871,37.338 161.065,35.086 163.6,33.659 
		163.6,33.659 	"/>
	<path fill-rule="evenodd" clip-rule="evenodd" fill="#FFFF00" d="M154.075,28c-3.162,0-5.725,2.574-5.725,5.75
		s2.563,5.75,5.725,5.75c3.162,0,5.725-2.574,5.725-5.75S157.237,28,154.075,28L154.075,28z"/>
	<path fill="none" stroke="#000000" stroke-width="0.12" stroke-linecap="round" stroke-linejoin="round" stroke-miterlimit="8" d="
		M154.075,28c-3.162,0-5.725,2.574-5.725,5.75s2.563,5.75,5.725,5.75c3.162,0,5.725-2.574,5.725-5.75S157.237,28,154.075,28
		L154.075,28z"/>
	<path fill-rule="evenodd" clip-rule="evenodd" fill="#FFFF00" d="M154.075,28c-3.162,0-5.725,2.574-5.725,5.75
		s2.563,5.75,5.725,5.75c3.162,0,5.725-2.574,5.725-5.75S157.237,28,154.075,28L154.075,28z"/>
	<path fill="none" stroke="#000000" stroke-width="0.12" stroke-linecap="round" stroke-linejoin="round" stroke-miterlimit="8" d="
		M154.075,28c-3.162,0-5.725,2.574-5.725,5.75s2.563,5.75,5.725,5.75c3.162,0,5.725-2.574,5.725-5.75S157.237,28,154.075,28
		L154.075,28z"/>
	
		<line fill="none" stroke="#000000" stroke-width="0.75" stroke-linecap="round" stroke-linejoin="round" stroke-miterlimit="8" x1="162.4" y1="73.75" x2="186.35" y2="73.8"/>
	<g>
		<defs>
			<polygon id="SVGID_3_" points="162.36,60.36 182.4,60.36 182.4,73.92 162.36,73.92 162.36,60.36 			"/>
		</defs>
		<clipPath id="SVGID_4_">
			<use xlink:href="#SVGID_3_"  overflow="visible"/>
		</clipPath>
		<g clip-path="url(#SVGID_4_)">
			<defs>
				<rect id="SVGID_5_" x="162.36" y="60.36" width="20.04" height="13.56"/>
			</defs>
			<clipPath id="SVGID_6_">
				<use xlink:href="#SVGID_5_"  overflow="visible"/>
			</clipPath>
			<g clip-path="url(#SVGID_6_)">
				<path d="M170.046,67.749c0-1.416,0.287-2.507,0.862-3.272c0.435-0.575,0.956-0.863,1.563-0.863c0.589,0,1.092,0.277,1.509,0.83
					c0.582,0.773,0.873,1.824,0.873,3.154c0,1.265-0.286,2.264-0.857,2.997c-0.446,0.568-0.97,0.852-1.574,0.852
					c-0.327,0-0.625-0.079-0.895-0.237c-0.27-0.158-0.509-0.386-0.717-0.685c-0.208-0.298-0.368-0.614-0.479-0.949
					C170.141,69.001,170.046,68.392,170.046,67.749z M173.814,67.366c-0.004-0.938-0.094-1.691-0.27-2.259
					c-0.137-0.435-0.318-0.746-0.545-0.933c-0.165-0.136-0.355-0.205-0.571-0.205c-0.244,0-0.469,0.095-0.674,0.286
					c-0.205,0.19-0.36,0.508-0.466,0.954s-0.177,1.165-0.213,2.156H173.814z M171.076,67.722c0.015,0.64,0.063,1.214,0.146,1.725
					c0.061,0.388,0.167,0.726,0.318,1.014c0.09,0.172,0.221,0.319,0.394,0.439c0.172,0.12,0.357,0.181,0.555,0.181
					c0.23,0,0.448-0.108,0.655-0.324c0.207-0.215,0.363-0.563,0.469-1.041c0.106-0.478,0.169-1.143,0.191-1.994H171.076z"/>
			</g>
		</g>
		<g clip-path="url(#SVGID_4_)">
			<defs>
				<rect id="SVGID_7_" x="162.36" y="60.36" width="20.04" height="13.56"/>
			</defs>
			<clipPath id="SVGID_8_">
				<use xlink:href="#SVGID_7_"  overflow="visible"/>
			</clipPath>
			<g clip-path="url(#SVGID_8_)">
			</g>
		</g>
	</g>
	<g>
		<defs>
			<polygon id="SVGID_9_" points="230.4,60.36 249.96,60.36 249.96,70.08 230.4,70.08 230.4,60.36 			"/>
		</defs>
		<clipPath id="SVGID_10_">
			<use xlink:href="#SVGID_9_"  overflow="visible"/>
		</clipPath>
		<g clip-path="url(#SVGID_10_)">
			<defs>
				<rect id="SVGID_11_" x="230.4" y="60.36" width="19.56" height="9.72"/>
			</defs>
			<clipPath id="SVGID_12_">
				<use xlink:href="#SVGID_11_"  overflow="visible"/>
			</clipPath>
			<g clip-path="url(#SVGID_12_)">
				<path d="M242.667,62.842v2.528h-0.199c-0.064-0.485-0.181-0.871-0.348-1.159s-0.405-0.516-0.714-0.685
					c-0.31-0.169-0.629-0.253-0.96-0.253c-0.374,0-0.683,0.114-0.927,0.342c-0.245,0.228-0.367,0.488-0.367,0.779
					c0,0.223,0.077,0.426,0.232,0.609c0.223,0.27,0.753,0.629,1.59,1.078c0.683,0.366,1.149,0.647,1.398,0.843
					c0.25,0.196,0.442,0.427,0.577,0.693s0.202,0.544,0.202,0.835c0,0.554-0.215,1.031-0.645,1.431
					c-0.429,0.401-0.981,0.601-1.657,0.601c-0.212,0-0.411-0.016-0.599-0.048c-0.111-0.018-0.342-0.083-0.692-0.197
					s-0.572-0.17-0.666-0.17c-0.09,0-0.16,0.027-0.213,0.081c-0.052,0.054-0.091,0.165-0.115,0.334h-0.2v-2.506h0.2
					c0.093,0.524,0.219,0.917,0.377,1.178s0.399,0.477,0.725,0.649s0.683,0.259,1.07,0.259c0.449,0,0.804-0.119,1.064-0.356
					c0.261-0.237,0.392-0.517,0.392-0.841c0-0.18-0.05-0.361-0.148-0.544c-0.1-0.183-0.253-0.354-0.461-0.512
					c-0.141-0.107-0.523-0.337-1.148-0.687c-0.625-0.351-1.07-0.63-1.334-0.838c-0.265-0.208-0.465-0.438-0.602-0.69
					s-0.204-0.528-0.204-0.83c0-0.525,0.201-0.977,0.604-1.356c0.402-0.379,0.914-0.568,1.536-0.568c0.388,0,0.8,0.095,1.234,0.286
					c0.201,0.09,0.343,0.135,0.426,0.135c0.094,0,0.17-0.028,0.229-0.083c0.059-0.056,0.106-0.168,0.143-0.337H242.667z"/>
			</g>
		</g>
		<g clip-path="url(#SVGID_10_)">
			<defs>
				<rect id="SVGID_13_" x="230.4" y="60.36" width="19.56" height="9.72"/>
			</defs>
			<clipPath id="SVGID_14_">
				<use xlink:href="#SVGID_13_"  overflow="visible"/>
			</clipPath>
			<g clip-path="url(#SVGID_14_)">
			</g>
		</g>
	</g>
	<g>
		<defs>
			<polygon id="SVGID_15_" points="198.12,181.199 217.68,181.199 217.68,190.801 198.12,190.801 198.12,181.199 			"/>
		</defs>
		<clipPath id="SVGID_16_">
			<use xlink:href="#SVGID_15_"  overflow="visible"/>
		</clipPath>
		<g clip-path="url(#SVGID_16_)">
			<defs>
				<rect id="SVGID_17_" x="198.12" y="181.199" width="19.56" height="9.602"/>
			</defs>
			<clipPath id="SVGID_18_">
				<use xlink:href="#SVGID_17_"  overflow="visible"/>
			</clipPath>
			<g clip-path="url(#SVGID_18_)">
				<path d="M209.149,190.606c-0.241,0.252-0.476,0.433-0.706,0.542s-0.478,0.165-0.744,0.165c-0.539,0-1.01-0.226-1.413-0.677
					s-0.604-1.03-0.604-1.738s0.223-1.356,0.668-1.943c0.445-0.588,1.019-0.882,1.719-0.882c0.435,0,0.794,0.139,1.078,0.415v-0.911
					c0-0.563-0.013-0.911-0.04-1.04c-0.027-0.13-0.069-0.218-0.127-0.265c-0.058-0.046-0.129-0.069-0.215-0.069
					c-0.094,0-0.218,0.028-0.372,0.086l-0.07-0.188l1.472-0.604h0.243v5.708c0,0.579,0.014,0.932,0.041,1.06s0.07,0.217,0.129,0.267
					c0.059,0.051,0.128,0.075,0.208,0.075c0.097,0,0.227-0.03,0.388-0.091l0.059,0.188l-1.466,0.609h-0.248V190.606z
					 M209.149,190.229v-2.544c-0.021-0.245-0.086-0.468-0.194-0.669s-0.25-0.353-0.429-0.455c-0.178-0.103-0.351-0.154-0.52-0.154
					c-0.316,0-0.598,0.143-0.846,0.426c-0.327,0.374-0.491,0.921-0.491,1.64c0,0.726,0.158,1.281,0.475,1.668
					c0.316,0.387,0.668,0.579,1.056,0.579C208.527,190.72,208.844,190.557,209.149,190.229z"/>
			</g>
		</g>
		<g clip-path="url(#SVGID_16_)">
			<defs>
				<rect id="SVGID_19_" x="198.12" y="181.199" width="19.56" height="9.602"/>
			</defs>
			<clipPath id="SVGID_20_">
				<use xlink:href="#SVGID_19_"  overflow="visible"/>
			</clipPath>
			<g clip-path="url(#SVGID_20_)">
			</g>
		</g>
	</g>
</g>
</svg>
