<?xml version="1.0" encoding="utf-8"?>
<!-- Generator: Adobe Illustrator 16.0.0, SVG Export Plug-In . SVG Version: 6.00 Build 0)  -->
<!DOCTYPE svg PUBLIC "-//W3C//DTD SVG 1.1//EN" "http://www.w3.org/Graphics/SVG/1.1/DTD/svg11.dtd">
<svg version="1.1" id="Layer_1" xmlns="http://www.w3.org/2000/svg" xmlns:xlink="http://www.w3.org/1999/xlink" x="0px" y="0px"
	 width="282.346px" height="280.622px" viewBox="0 0 282.346 280.622" enable-background="new 0 0 282.346 280.622"
	 xml:space="preserve">
<g>
	<defs>
		<rect id="SVGID_1_" y="0.003" width="279.844" height="276.698"/>
	</defs>
	<clipPath id="SVGID_2_">
		<use xlink:href="#SVGID_1_"  overflow="visible"/>
	</clipPath>
	
		<rect x="122.134" y="18.984" clip-path="url(#SVGID_2_)" fill-rule="evenodd" clip-rule="evenodd" fill="#FFFFFF" width="22.786" height="8.396"/>
	
		<rect x="122.134" y="18.984" clip-path="url(#SVGID_2_)" fill="none" stroke="#000000" stroke-width="0.7238" stroke-linejoin="round" stroke-miterlimit="10" width="22.786" height="8.396"/>
	
		<rect x="119.241" y="136.686" clip-path="url(#SVGID_2_)" fill="none" stroke="#1F1A17" stroke-width="0.2413" stroke-linejoin="round" stroke-miterlimit="10" width="59.28" height="48.996"/>
	
		<rect x="119.241" y="236.606" clip-path="url(#SVGID_2_)" fill="none" stroke="#1F1A17" stroke-width="0.2413" stroke-linejoin="round" stroke-miterlimit="10" width="59.28" height="38.937"/>
	<g clip-path="url(#SVGID_2_)">
		<defs>
			<rect id="SVGID_3_" x="129.327" y="143.177" width="42.457" height="32.664"/>
		</defs>
		<clipPath id="SVGID_4_">
			<use xlink:href="#SVGID_3_"  overflow="visible"/>
		</clipPath>
		<g clip-path="url(#SVGID_4_)">
			<defs>
				<rect id="SVGID_5_" x="129.327" y="143.177" width="42.216" height="32.664"/>
			</defs>
			<clipPath id="SVGID_6_">
				<use xlink:href="#SVGID_5_"  overflow="visible"/>
			</clipPath>
			<g clip-path="url(#SVGID_6_)">
				<path d="M131.287,147.333v3.386h3.92v-3.386h1.058v8.094h-1.058v-3.795h-3.92v3.795h-1.046v-8.094H131.287z"/>
				<path d="M138.583,152.712c0.024,1.429,0.938,2.018,1.996,2.018c0.757,0,1.214-0.132,1.611-0.3l0.18,0.756
					c-0.373,0.168-1.01,0.36-1.936,0.36c-1.792,0-2.861-1.177-2.861-2.93s1.034-3.134,2.729-3.134c1.899,0,2.405,1.669,2.405,2.738
					c0,0.216-0.024,0.384-0.036,0.493H138.583z M141.685,151.956c0.012-0.672-0.277-1.717-1.467-1.717
					c-1.07,0-1.539,0.984-1.623,1.717H141.685z"/>
				<path d="M147.334,155.426l-0.084-0.732h-0.036c-0.325,0.456-0.95,0.865-1.78,0.865c-1.178,0-1.779-0.829-1.779-1.669
					c0-1.405,1.25-2.173,3.499-2.162v-0.12c0-0.48-0.132-1.345-1.323-1.345c-0.541,0-1.106,0.168-1.515,0.432l-0.24-0.696
					c0.481-0.313,1.178-0.517,1.912-0.517c1.78,0,2.212,1.213,2.212,2.378v2.173c0,0.504,0.024,0.997,0.096,1.393H147.334z
					 M147.178,152.46c-1.154-0.024-2.465,0.18-2.465,1.309c0,0.685,0.457,1.009,0.998,1.009c0.757,0,1.238-0.48,1.407-0.973
					c0.036-0.108,0.06-0.228,0.06-0.336V152.46z"/>
				<path d="M151.132,147.945v1.669h1.515v0.804h-1.515v3.134c0,0.721,0.205,1.129,0.793,1.129c0.276,0,0.481-0.036,0.613-0.072
					l0.048,0.792c-0.204,0.084-0.529,0.144-0.938,0.144c-0.493,0-0.89-0.156-1.143-0.444c-0.3-0.312-0.409-0.829-0.409-1.513v-3.17
					h-0.902v-0.804h0.902v-1.393L151.132,147.945z"/>
			</g>
		</g>
		<g clip-path="url(#SVGID_4_)">
			<defs>
				<rect id="SVGID_7_" x="129.327" y="143.177" width="42.216" height="32.664"/>
			</defs>
			<clipPath id="SVGID_8_">
				<use xlink:href="#SVGID_7_"  overflow="visible"/>
			</clipPath>
			<g clip-path="url(#SVGID_8_)">
				<path d="M130.241,162.563c0.505-0.084,1.167-0.156,2.008-0.156c1.034,0,1.792,0.24,2.272,0.672
					c0.445,0.384,0.709,0.973,0.709,1.693c0,0.732-0.216,1.309-0.625,1.729c-0.553,0.588-1.455,0.889-2.477,0.889
					c-0.313,0-0.602-0.012-0.842-0.072v3.242h-1.046V162.563z M131.287,166.465c0.229,0.06,0.517,0.084,0.866,0.084
					c1.263,0,2.032-0.613,2.032-1.729c0-1.069-0.758-1.585-1.912-1.585c-0.457,0-0.806,0.036-0.986,0.084V166.465z"/>
				<path d="M141.529,168.975c0,0.6,0.012,1.128,0.048,1.585h-0.938l-0.06-0.949h-0.024c-0.276,0.468-0.89,1.081-1.924,1.081
					c-0.914,0-2.008-0.504-2.008-2.546v-3.398h1.058v3.218c0,1.104,0.336,1.849,1.298,1.849c0.709,0,1.203-0.492,1.395-0.96
					c0.06-0.156,0.096-0.349,0.096-0.541v-3.566h1.058V168.975z"/>
				<path d="M143.174,166.321c0-0.6-0.012-1.093-0.048-1.573h0.926l0.048,0.937h0.036c0.324-0.552,0.866-1.069,1.828-1.069
					c0.793,0,1.395,0.48,1.647,1.165h0.024c0.18-0.324,0.409-0.577,0.649-0.757c0.349-0.264,0.733-0.408,1.287-0.408
					c0.77,0,1.912,0.504,1.912,2.522v3.422h-1.034v-3.291c0-1.117-0.409-1.789-1.263-1.789c-0.601,0-1.07,0.444-1.25,0.96
					c-0.048,0.144-0.084,0.336-0.084,0.528v3.591h-1.034v-3.482c0-0.925-0.409-1.597-1.214-1.597c-0.661,0-1.143,0.528-1.311,1.057
					c-0.06,0.156-0.084,0.336-0.084,0.517v3.506h-1.034V166.321z"/>
				<path d="M153.199,166.645c0-0.744-0.024-1.345-0.048-1.897h0.95l0.048,0.997h0.024c0.433-0.708,1.118-1.129,2.068-1.129
					c1.407,0,2.465,1.189,2.465,2.954c0,2.089-1.274,3.123-2.646,3.123c-0.77,0-1.443-0.336-1.792-0.913h-0.024v3.159h-1.046
					V166.645z M154.245,168.194c0,0.156,0.024,0.3,0.048,0.432c0.192,0.733,0.83,1.237,1.587,1.237c1.118,0,1.768-0.913,1.768-2.246
					c0-1.165-0.613-2.162-1.731-2.162c-0.722,0-1.395,0.516-1.599,1.309c-0.036,0.132-0.072,0.289-0.072,0.433V168.194z"/>
			</g>
		</g>
		<g clip-path="url(#SVGID_4_)">
			<defs>
				<rect id="SVGID_9_" x="129.327" y="143.177" width="42.216" height="32.664"/>
			</defs>
			<clipPath id="SVGID_10_">
				<use xlink:href="#SVGID_9_"  overflow="visible"/>
			</clipPath>
			<g clip-path="url(#SVGID_10_)">
			</g>
		</g>
	</g>
	
		<rect x="107.967" y="126.361" clip-path="url(#SVGID_2_)" fill="none" stroke="#808080" stroke-width="0.2413" stroke-linejoin="round" stroke-miterlimit="10" width="79.894" height="67.258"/>
	
		<line clip-path="url(#SVGID_2_)" fill="none" stroke="#1F1A17" stroke-width="0.2413" stroke-linejoin="round" stroke-miterlimit="10" x1="96.102" y1="23.435" x2="116.737" y2="23.674"/>
	
		<polyline clip-path="url(#SVGID_2_)" fill="none" stroke="#1F1A17" stroke-width="0.2413" stroke-linejoin="round" stroke-miterlimit="10" points="
		146.986,24.401 275.824,24.401 275.824,77.013 	"/>
	
		<polyline clip-path="url(#SVGID_2_)" fill="none" stroke="#1F1A17" stroke-width="0.2413" stroke-linejoin="round" stroke-miterlimit="10" points="
		100.904,23.435 3.246,23.435 3.246,65.725 	"/>
	
		<line clip-path="url(#SVGID_2_)" fill="none" stroke="#1F1A17" stroke-width="0.2413" stroke-linejoin="round" stroke-miterlimit="10" x1="3.97" y1="84.206" x2="3.97" y2="190.639"/>
	
		<line clip-path="url(#SVGID_2_)" fill="none" stroke="#1F1A17" stroke-width="0.2413" stroke-linejoin="round" stroke-miterlimit="10" x1="276.283" y1="91.658" x2="276.283" y2="197.586"/>
	
		<line clip-path="url(#SVGID_2_)" fill="none" stroke="#1F1A17" stroke-width="0.2413" stroke-linejoin="round" stroke-miterlimit="10" x1="3.97" y1="159.88" x2="118.183" y2="159.88"/>
	
		<line clip-path="url(#SVGID_2_)" fill="none" stroke="#1F1A17" stroke-width="0.2413" stroke-linejoin="round" stroke-miterlimit="10" x1="179.13" y1="158.197" x2="278.218" y2="158.197"/>
	
		<line clip-path="url(#SVGID_2_)" fill="none" stroke="#1F1A17" stroke-width="0.2413" stroke-linejoin="round" stroke-miterlimit="10" x1="4.694" y1="258.861" x2="118.672" y2="258.861"/>
	
		<line clip-path="url(#SVGID_2_)" fill="none" stroke="#1F1A17" stroke-width="0.2413" stroke-linejoin="round" stroke-miterlimit="10" x1="179.829" y1="259.344" x2="276.772" y2="259.344"/>
	<polygon clip-path="url(#SVGID_2_)" fill-rule="evenodd" clip-rule="evenodd" fill="#1F1A17" points="275.914,94.158 
		276.153,94.158 276.393,94.158 276.632,94.158 276.872,94.158 277.121,93.939 277.361,93.939 277.361,93.7 277.6,93.7 
		277.839,93.461 277.839,93.212 278.079,93.212 278.079,92.973 278.079,92.734 278.329,92.495 278.329,92.246 278.329,92.006 
		278.329,91.767 278.329,91.528 278.079,91.528 278.079,91.289 278.079,91.04 277.839,90.801 277.839,90.562 277.6,90.562 
		277.361,90.323 277.121,90.074 276.872,90.074 276.632,90.074 276.393,89.834 276.153,89.834 275.914,89.834 275.665,89.834 
		275.455,90.074 275.206,90.074 274.966,90.074 274.727,90.323 274.487,90.323 274.487,90.562 274.248,90.562 274.248,90.801 
		274.008,91.04 274.008,91.289 273.759,91.528 273.759,91.767 273.759,92.006 273.759,92.246 273.759,92.495 273.759,92.734 
		274.008,92.973 274.008,93.212 274.248,93.212 274.248,93.461 274.487,93.7 274.727,93.939 274.966,93.939 275.206,94.158 
		275.455,94.158 275.665,94.158 	"/>
	
		<polyline clip-path="url(#SVGID_2_)" fill="none" stroke="#1F1A17" stroke-width="0.2413" stroke-linejoin="round" stroke-miterlimit="10" points="
		276.283,94.527 276.522,94.527 276.772,94.527 277.011,94.527 277.25,94.527 277.49,94.308 277.73,94.308 277.73,94.069 
		277.979,94.069 278.218,93.83 278.218,93.59 278.458,93.59 278.458,93.351 278.458,93.102 278.698,92.863 278.698,92.624 
		278.698,92.385 278.698,92.146 278.698,91.897 278.458,91.897 278.458,91.658 278.458,91.418 278.218,91.179 278.218,90.93 
		277.979,90.93 277.73,90.691 277.49,90.452 277.25,90.452 277.011,90.452 276.772,90.213 276.522,90.213 276.283,90.213 
		276.043,90.213 275.824,90.452 275.584,90.452 275.345,90.452 275.106,90.691 274.856,90.691 274.856,90.93 274.617,90.93 
		274.617,91.179 274.377,91.418 274.377,91.658 274.138,91.897 274.138,92.146 274.138,92.385 274.138,92.624 274.138,92.863 
		274.138,93.102 274.377,93.351 274.377,93.59 274.617,93.59 274.617,93.83 274.856,94.069 275.106,94.308 275.345,94.308 
		275.584,94.527 275.824,94.527 276.043,94.527 276.283,94.527 	"/>
	<polygon clip-path="url(#SVGID_2_)" fill-rule="evenodd" clip-rule="evenodd" fill="#1F1A17" points="275.455,78.069 
		275.665,78.069 275.914,78.069 276.153,78.069 276.393,77.82 276.632,77.82 276.872,77.82 276.872,77.581 277.121,77.342 
		277.361,77.103 277.6,76.883 277.6,76.644 277.6,76.405 277.839,76.156 277.839,75.917 277.839,75.678 277.6,75.439 277.6,75.19 
		277.6,74.951 277.361,74.711 277.121,74.472 276.872,74.233 276.872,73.984 276.632,73.984 276.393,73.984 276.153,73.745 
		275.914,73.745 275.665,73.745 275.455,73.745 275.206,73.745 274.966,73.745 274.727,73.984 274.487,73.984 274.248,73.984 
		274.008,74.233 274.008,74.472 273.759,74.472 273.759,74.711 273.519,74.951 273.28,75.19 273.28,75.439 273.28,75.678 
		273.28,75.917 273.28,76.156 273.28,76.405 273.28,76.644 273.519,76.883 273.759,77.103 273.759,77.342 274.008,77.342 
		274.008,77.581 274.248,77.82 274.487,77.82 274.727,77.82 274.966,78.069 275.206,78.069 	"/>
	
		<polyline clip-path="url(#SVGID_2_)" fill="none" stroke="#1F1A17" stroke-width="0.2413" stroke-linejoin="round" stroke-miterlimit="10" points="
		275.824,78.438 276.043,78.438 276.283,78.438 276.522,78.438 276.772,78.198 277.011,78.198 277.25,78.198 277.25,77.959 
		277.49,77.71 277.73,77.471 277.979,77.252 277.979,77.013 277.979,76.774 278.218,76.535 278.218,76.295 278.218,76.046 
		277.979,75.807 277.979,75.568 277.979,75.329 277.73,75.09 277.49,74.841 277.25,74.602 277.25,74.363 277.011,74.363 
		276.772,74.363 276.522,74.124 276.283,74.124 276.043,74.124 275.824,74.124 275.584,74.124 275.345,74.124 275.106,74.363 
		274.856,74.363 274.617,74.363 274.377,74.602 274.377,74.841 274.138,74.841 274.138,75.09 273.899,75.329 273.649,75.568 
		273.649,75.807 273.649,76.046 273.649,76.295 273.649,76.535 273.649,76.774 273.649,77.013 273.899,77.252 274.138,77.471 
		274.138,77.71 274.377,77.71 274.377,77.959 274.617,78.198 274.856,78.198 275.106,78.198 275.345,78.438 275.584,78.438 
		275.824,78.438 	"/>
	<polygon clip-path="url(#SVGID_2_)" fill-rule="evenodd" clip-rule="evenodd" fill="#1F1A17" points="3.355,65.805 3.596,65.805 
		3.838,65.805 4.079,65.596 4.321,65.596 4.562,65.596 4.804,65.347 4.804,65.108 5.045,65.108 5.045,64.869 5.286,64.629 
		5.286,64.39 5.527,64.141 5.527,63.902 5.527,63.663 5.527,63.424 5.527,63.185 5.286,62.936 5.286,62.697 5.045,62.458 
		5.045,62.219 4.804,62.219 4.804,61.969 4.562,61.73 4.321,61.73 4.079,61.73 3.838,61.491 3.596,61.491 3.355,61.491 
		3.114,61.491 2.872,61.491 2.631,61.491 2.389,61.73 2.148,61.73 1.931,61.73 1.931,61.969 1.69,62.219 1.448,62.219 1.448,62.458 
		1.207,62.697 1.207,62.936 0.965,63.185 0.965,63.424 0.965,63.663 0.965,63.902 0.965,64.141 1.207,64.39 1.207,64.629 
		1.448,64.869 1.448,65.108 1.69,65.108 1.931,65.347 1.931,65.596 2.148,65.596 2.389,65.596 2.631,65.805 2.872,65.805 
		3.114,65.805 	"/>
	
		<polyline clip-path="url(#SVGID_2_)" fill="none" stroke="#1F1A17" stroke-width="0.2413" stroke-linejoin="round" stroke-miterlimit="10" points="
		3.729,66.184 3.971,66.184 4.212,66.184 4.454,65.964 4.695,65.964 4.936,65.964 5.178,65.725 5.178,65.486 5.419,65.486 
		5.419,65.247 5.66,64.998 5.66,64.759 5.901,64.52 5.901,64.281 5.901,64.042 5.901,63.792 5.901,63.554 5.66,63.314 5.66,63.075 
		5.419,62.826 5.419,62.587 5.178,62.587 5.178,62.348 4.936,62.109 4.695,62.109 4.454,62.109 4.212,61.87 3.971,61.87 
		3.729,61.87 3.488,61.87 3.246,61.87 3.005,61.87 2.763,62.109 2.522,62.109 2.306,62.109 2.306,62.348 2.064,62.587 1.823,62.587 
		1.823,62.826 1.581,63.075 1.581,63.314 1.34,63.554 1.34,63.792 1.34,64.042 1.34,64.281 1.34,64.52 1.581,64.759 1.581,64.998 
		1.823,65.247 1.823,65.486 2.064,65.486 2.306,65.725 2.306,65.964 2.522,65.964 2.763,65.964 3.005,66.184 3.246,66.184 
		3.488,66.184 3.729,66.184 	"/>
	<polygon clip-path="url(#SVGID_2_)" fill-rule="evenodd" clip-rule="evenodd" fill="#1F1A17" points="3.838,86.965 4.079,86.965 
		4.321,86.726 4.562,86.726 4.804,86.726 5.045,86.726 5.286,86.487 5.527,86.238 5.768,85.999 6.01,85.76 6.01,85.521 6.01,85.282 
		6.227,85.033 6.227,84.793 6.227,84.554 6.227,84.315 6.01,84.076 6.01,83.827 6.01,83.588 5.768,83.349 5.527,83.11 5.286,82.861 
		5.045,82.652 4.804,82.652 4.562,82.652 4.321,82.652 4.079,82.402 3.838,82.402 3.596,82.652 3.355,82.652 3.113,82.652 
		2.872,82.652 2.63,82.861 2.389,82.861 2.389,83.11 2.148,83.349 1.931,83.588 1.931,83.827 1.931,84.076 1.69,84.315 1.69,84.554 
		1.69,84.793 1.69,85.033 1.931,85.282 1.931,85.521 1.931,85.76 2.148,85.999 2.389,86.238 2.389,86.487 2.63,86.487 2.872,86.726 
		3.113,86.726 3.355,86.726 3.596,86.726 	"/>
	
		<polyline clip-path="url(#SVGID_2_)" fill="none" stroke="#1F1A17" stroke-width="0.2413" stroke-linejoin="round" stroke-miterlimit="10" points="
		4.212,87.344 4.453,87.344 4.695,87.095 4.936,87.095 5.178,87.095 5.419,87.095 5.661,86.856 5.902,86.617 6.144,86.377 
		6.384,86.138 6.384,85.889 6.384,85.65 6.601,85.411 6.601,85.172 6.601,84.933 6.601,84.684 6.384,84.445 6.384,84.206 
		6.384,83.967 6.144,83.717 5.902,83.479 5.661,83.239 5.419,83.02 5.178,83.02 4.936,83.02 4.695,83.02 4.453,82.781 4.212,82.781 
		3.97,83.02 3.729,83.02 3.488,83.02 3.246,83.02 3.005,83.239 2.763,83.239 2.763,83.479 2.522,83.717 2.305,83.967 2.305,84.206 
		2.305,84.445 2.064,84.684 2.064,84.933 2.064,85.172 2.064,85.411 2.305,85.65 2.305,85.889 2.305,86.138 2.522,86.377 
		2.763,86.617 2.763,86.856 3.005,86.856 3.246,87.095 3.488,87.095 3.729,87.095 3.97,87.095 4.212,87.344 	"/>
	<g clip-path="url(#SVGID_2_)">
		<defs>
			<rect id="SVGID_11_" x="113.733" width="62.612" height="15.126"/>
		</defs>
		<clipPath id="SVGID_12_">
			<use xlink:href="#SVGID_11_"  overflow="visible"/>
		</clipPath>
		<g clip-path="url(#SVGID_12_)">
			<defs>
				<rect id="SVGID_13_" x="113.733" width="62.37" height="15.126"/>
			</defs>
			<clipPath id="SVGID_14_">
				<use xlink:href="#SVGID_13_"  overflow="visible"/>
			</clipPath>
			<g clip-path="url(#SVGID_14_)">
				<path fill="#1F1A17" d="M118.688,7.442V6.434l3.645-0.006v3.188c-0.56,0.446-1.137,0.781-1.731,1.005s-1.205,0.337-1.831,0.337
					c-0.845,0-1.613-0.181-2.304-0.542s-1.212-0.884-1.564-1.568s-0.528-1.448-0.528-2.292c0-0.836,0.175-1.617,0.525-2.341
					s0.854-1.263,1.511-1.615s1.415-0.527,2.271-0.527c0.622,0,1.185,0.101,1.687,0.302c0.503,0.201,0.897,0.481,1.183,0.841
					c0.286,0.36,0.503,0.829,0.652,1.407l-1.027,0.281c-0.129-0.438-0.29-0.781-0.481-1.031c-0.192-0.25-0.466-0.45-0.822-0.601
					c-0.356-0.15-0.751-0.226-1.186-0.226c-0.521,0-0.971,0.079-1.35,0.237c-0.379,0.159-0.686,0.367-0.918,0.625
					s-0.414,0.541-0.543,0.85c-0.219,0.531-0.329,1.108-0.329,1.729c0,0.766,0.132,1.407,0.396,1.922
					c0.264,0.516,0.649,0.898,1.153,1.148c0.505,0.25,1.041,0.375,1.608,0.375c0.493,0,0.974-0.095,1.444-0.285
					c0.469-0.189,0.825-0.392,1.068-0.606v-1.6H118.688z"/>
				<path fill="#1F1A17" d="M123.167,10.812V4.588h0.951v0.943c0.243-0.441,0.466-0.732,0.672-0.873s0.432-0.211,0.678-0.211
					c0.356,0,0.718,0.113,1.086,0.34l-0.364,0.979c-0.258-0.152-0.517-0.229-0.775-0.229c-0.231,0-0.438,0.07-0.622,0.208
					s-0.315,0.331-0.393,0.577c-0.118,0.375-0.176,0.785-0.176,1.23v3.259H123.167z"/>
				<path fill="#1F1A17" d="M127.962,10.812V4.588h0.951v0.885c0.458-0.684,1.119-1.025,1.984-1.025
					c0.375,0,0.721,0.067,1.036,0.202s0.551,0.312,0.708,0.53c0.156,0.219,0.266,0.479,0.329,0.78
					c0.039,0.195,0.059,0.537,0.059,1.025v3.827h-1.057V7.026c0-0.43-0.041-0.751-0.123-0.964s-0.228-0.383-0.438-0.51
					c-0.209-0.127-0.455-0.191-0.736-0.191c-0.45,0-0.838,0.143-1.165,0.428s-0.49,0.826-0.49,1.623v3.399H127.962z"/>
				<path fill="#1F1A17" d="M139.172,10.812v-0.785c-0.395,0.617-0.976,0.926-1.743,0.926c-0.497,0-0.954-0.137-1.37-0.41
					c-0.417-0.273-0.74-0.655-0.968-1.146c-0.229-0.49-0.344-1.054-0.344-1.69c0-0.622,0.104-1.185,0.311-1.691
					c0.208-0.506,0.519-0.894,0.934-1.164c0.415-0.27,0.878-0.404,1.391-0.404c0.376,0,0.71,0.079,1.004,0.237
					s0.532,0.364,0.716,0.618V2.22h1.051v8.592H139.172z M135.833,7.706c0,0.797,0.168,1.393,0.505,1.787
					c0.336,0.395,0.733,0.592,1.191,0.592c0.461,0,0.854-0.188,1.177-0.566c0.323-0.377,0.484-0.952,0.484-1.726
					c0-0.852-0.164-1.477-0.493-1.875c-0.329-0.399-0.734-0.598-1.215-0.598c-0.47,0-0.862,0.192-1.177,0.575
					S135.833,6.881,135.833,7.706z"/>
				<path fill="#1F1A17" d="M146.524,10.812V2.22h1.139v3.528h4.472V2.22h1.139v8.592h-1.139v-4.05h-4.472v4.05H146.524z"/>
				<path fill="#1F1A17" d="M154.476,10.812l3.328-4.478l-2.934-4.114h1.355l1.561,2.204c0.325,0.457,0.556,0.809,0.693,1.055
					c0.191-0.313,0.418-0.639,0.681-0.979l1.731-2.28h1.238l-3.022,4.05l3.257,4.542h-1.409l-2.166-3.065
					c-0.122-0.176-0.247-0.368-0.375-0.575c-0.192,0.313-0.329,0.528-0.411,0.645l-2.16,2.995H154.476z"/>
			</g>
		</g>
		<g clip-path="url(#SVGID_12_)">
			<defs>
				<rect id="SVGID_15_" x="113.733" width="62.37" height="15.126"/>
			</defs>
			<clipPath id="SVGID_16_">
				<use xlink:href="#SVGID_15_"  overflow="visible"/>
			</clipPath>
		</g>
	</g>
	<g clip-path="url(#SVGID_2_)">
		<defs>
			<rect id="SVGID_17_" x="11.513" y="34.832" width="73.908" height="31.94"/>
		</defs>
		<clipPath id="SVGID_18_">
			<use xlink:href="#SVGID_17_"  overflow="visible"/>
		</clipPath>
		<g clip-path="url(#SVGID_18_)">
			<defs>
				<rect id="SVGID_19_" x="11.513" y="34.832" width="73.667" height="31.94"/>
			</defs>
			<clipPath id="SVGID_20_">
				<use xlink:href="#SVGID_19_"  overflow="visible"/>
			</clipPath>
			<g clip-path="url(#SVGID_20_)">
				<path fill="#1F1A17" d="M18.58,43.355l1.139,0.287c-0.239,0.934-0.668,1.646-1.289,2.136s-1.378,0.735-2.274,0.735
					c-0.927,0-1.682-0.188-2.263-0.565s-1.023-0.923-1.326-1.638c-0.304-0.715-0.455-1.483-0.455-2.303
					c0-0.895,0.171-1.675,0.514-2.341c0.342-0.666,0.83-1.172,1.461-1.518s1.327-0.519,2.086-0.519c0.861,0,1.584,0.219,2.171,0.656
					s0.996,1.053,1.227,1.846l-1.121,0.264c-0.199-0.625-0.489-1.08-0.868-1.365c-0.38-0.285-0.857-0.428-1.432-0.428
					c-0.662,0-1.214,0.158-1.658,0.475c-0.444,0.316-0.756,0.741-0.936,1.274c-0.18,0.533-0.27,1.083-0.27,1.65
					c0,0.73,0.106,1.369,0.32,1.914s0.545,0.952,0.995,1.222c0.45,0.27,0.937,0.405,1.461,0.405c0.638,0,1.178-0.184,1.62-0.551
					C18.124,44.623,18.423,44.078,18.58,43.355z"/>
				<path fill="#1F1A17" d="M20.076,43.256c0-1.153,0.321-2.006,0.963-2.562c0.536-0.461,1.189-0.691,1.96-0.691
					c0.857,0,1.557,0.28,2.101,0.841c0.544,0.561,0.816,1.335,0.816,2.324c0,0.801-0.12,1.431-0.361,1.89
					c-0.241,0.459-0.591,0.816-1.051,1.07c-0.459,0.254-0.961,0.381-1.505,0.381c-0.873,0-1.578-0.279-2.116-0.838
					C20.345,45.111,20.076,44.307,20.076,43.256z M21.162,43.256c0,0.797,0.174,1.394,0.522,1.79
					c0.348,0.397,0.786,0.595,1.314,0.595c0.524,0,0.96-0.199,1.309-0.598c0.348-0.398,0.522-1.006,0.522-1.822
					c0-0.77-0.175-1.353-0.525-1.75c-0.351-0.396-0.786-0.595-1.306-0.595c-0.528,0-0.966,0.198-1.314,0.592
					C21.335,41.863,21.162,42.458,21.162,43.256z"/>
				<path fill="#1F1A17" d="M27.395,46.368v-6.224h0.951v0.885c0.458-0.684,1.119-1.025,1.984-1.025
					c0.375,0,0.721,0.067,1.036,0.202s0.551,0.312,0.708,0.53c0.156,0.219,0.266,0.479,0.329,0.78
					c0.039,0.195,0.059,0.537,0.059,1.025v3.827h-1.057v-3.786c0-0.43-0.041-0.751-0.123-0.964s-0.228-0.383-0.438-0.51
					c-0.209-0.127-0.455-0.191-0.736-0.191c-0.45,0-0.838,0.143-1.165,0.428s-0.49,0.826-0.49,1.623v3.399H27.395z"/>
				<path fill="#1F1A17" d="M38.604,46.368v-0.785c-0.395,0.617-0.976,0.926-1.743,0.926c-0.497,0-0.954-0.137-1.37-0.41
					c-0.417-0.273-0.74-0.655-0.968-1.146c-0.229-0.49-0.344-1.054-0.344-1.69c0-0.622,0.104-1.185,0.311-1.691
					c0.208-0.506,0.519-0.894,0.934-1.164c0.415-0.27,0.878-0.404,1.391-0.404c0.376,0,0.71,0.079,1.004,0.237
					s0.532,0.364,0.716,0.618v-3.083h1.051v8.592H38.604z M35.264,43.262c0,0.797,0.168,1.393,0.505,1.787
					c0.336,0.395,0.733,0.592,1.191,0.592c0.461,0,0.854-0.188,1.177-0.566c0.323-0.377,0.484-0.952,0.484-1.726
					c0-0.852-0.164-1.477-0.493-1.875c-0.329-0.399-0.734-0.598-1.215-0.598c-0.47,0-0.862,0.192-1.177,0.575
					S35.264,42.437,35.264,43.262z"/>
				<path fill="#1F1A17" d="M45.534,43.607l1.074-0.094c0.051,0.43,0.169,0.782,0.355,1.058c0.186,0.275,0.474,0.498,0.866,0.668
					c0.391,0.17,0.831,0.255,1.32,0.255c0.435,0,0.818-0.064,1.15-0.194c0.333-0.129,0.58-0.306,0.742-0.53
					c0.163-0.225,0.244-0.47,0.244-0.735c0-0.27-0.078-0.505-0.235-0.706c-0.156-0.201-0.415-0.37-0.774-0.507
					c-0.231-0.09-0.742-0.229-1.532-0.419c-0.791-0.189-1.344-0.368-1.661-0.536c-0.411-0.215-0.717-0.481-0.918-0.8
					c-0.202-0.318-0.302-0.675-0.302-1.069c0-0.434,0.123-0.839,0.37-1.216c0.247-0.377,0.606-0.663,1.08-0.858
					c0.473-0.195,1-0.293,1.579-0.293c0.638,0,1.2,0.103,1.688,0.308s0.862,0.507,1.124,0.905c0.262,0.399,0.403,0.85,0.422,1.354
					l-1.092,0.082c-0.059-0.543-0.257-0.953-0.596-1.23c-0.338-0.278-0.838-0.417-1.5-0.417c-0.688,0-1.19,0.126-1.505,0.378
					c-0.315,0.252-0.472,0.556-0.472,0.911c0,0.309,0.111,0.563,0.334,0.762c0.219,0.199,0.791,0.404,1.717,0.613
					c0.925,0.209,1.56,0.392,1.904,0.548c0.501,0.23,0.871,0.522,1.109,0.876c0.238,0.354,0.358,0.761,0.358,1.222
					c0,0.457-0.131,0.888-0.393,1.292c-0.262,0.405-0.639,0.719-1.13,0.944c-0.491,0.225-1.044,0.337-1.658,0.337
					c-0.778,0-1.431-0.113-1.957-0.34c-0.526-0.227-0.939-0.567-1.239-1.023C45.707,44.696,45.55,44.182,45.534,43.607z"/>
				<path fill="#1F1A17" d="M57.563,46.368v-0.914c-0.485,0.703-1.144,1.055-1.978,1.055c-0.368,0-0.711-0.07-1.03-0.211
					s-0.556-0.317-0.71-0.53c-0.155-0.213-0.263-0.474-0.326-0.783c-0.043-0.207-0.064-0.535-0.064-0.984v-3.856h1.056v3.452
					c0,0.551,0.021,0.922,0.064,1.113c0.067,0.277,0.208,0.495,0.423,0.654c0.215,0.158,0.481,0.237,0.798,0.237
					c0.317,0,0.614-0.081,0.892-0.243c0.277-0.162,0.474-0.383,0.59-0.663c0.115-0.279,0.173-0.685,0.173-1.216v-3.335h1.057v6.224
					H57.563z"/>
				<path fill="#1F1A17" d="M60.645,48.753v-8.609h0.962v0.809c0.227-0.316,0.483-0.554,0.769-0.712
					c0.285-0.158,0.632-0.237,1.039-0.237c0.532,0,1.001,0.137,1.409,0.41c0.407,0.273,0.714,0.659,0.921,1.158
					c0.208,0.498,0.311,1.044,0.311,1.638c0,0.637-0.114,1.21-0.343,1.72c-0.229,0.51-0.562,0.901-0.998,1.172
					c-0.436,0.271-0.895,0.407-1.376,0.407c-0.352,0-0.668-0.074-0.948-0.223c-0.28-0.148-0.51-0.336-0.69-0.563v3.03H60.645z
					 M61.601,43.291c0,0.801,0.162,1.393,0.487,1.775c0.325,0.383,0.718,0.575,1.18,0.575c0.469,0,0.872-0.198,1.206-0.595
					c0.334-0.396,0.501-1.011,0.501-1.843c0-0.793-0.163-1.387-0.49-1.781s-0.717-0.592-1.171-0.592c-0.45,0-0.848,0.21-1.194,0.63
					S61.601,42.49,61.601,43.291z"/>
				<path fill="#1F1A17" d="M67.811,48.753v-8.609h0.962v0.809c0.227-0.316,0.483-0.554,0.769-0.712
					c0.285-0.158,0.632-0.237,1.039-0.237c0.532,0,1.001,0.137,1.409,0.41c0.407,0.273,0.714,0.659,0.921,1.158
					c0.208,0.498,0.311,1.044,0.311,1.638c0,0.637-0.114,1.21-0.343,1.72c-0.229,0.51-0.562,0.901-0.998,1.172
					c-0.436,0.271-0.895,0.407-1.376,0.407c-0.352,0-0.668-0.074-0.948-0.223c-0.28-0.148-0.51-0.336-0.69-0.563v3.03H67.811z
					 M68.767,43.291c0,0.801,0.162,1.393,0.487,1.775c0.325,0.383,0.718,0.575,1.18,0.575c0.469,0,0.872-0.198,1.206-0.595
					c0.334-0.396,0.501-1.011,0.501-1.843c0-0.793-0.163-1.387-0.49-1.781s-0.717-0.592-1.171-0.592c-0.45,0-0.848,0.21-1.194,0.63
					S68.767,42.49,68.767,43.291z"/>
				<path fill="#1F1A17" d="M74.953,46.368v-8.592h1.056v8.592H74.953z"/>
				<path fill="#1F1A17" d="M78.501,48.765l-0.118-0.99c0.231,0.063,0.432,0.094,0.604,0.094c0.235,0,0.423-0.039,0.563-0.117
					c0.141-0.079,0.256-0.188,0.346-0.328c0.066-0.106,0.174-0.368,0.323-0.786c0.02-0.059,0.051-0.145,0.094-0.258l-2.365-6.236
					h1.139l1.297,3.604c0.168,0.457,0.319,0.938,0.452,1.441c0.122-0.484,0.266-0.957,0.435-1.418l1.332-3.628h1.057l-2.371,6.33
					c-0.254,0.684-0.452,1.155-0.593,1.413c-0.188,0.348-0.403,0.603-0.646,0.765s-0.532,0.243-0.869,0.243
					C78.978,48.894,78.751,48.851,78.501,48.765z"/>
			</g>
		</g>
		<g clip-path="url(#SVGID_18_)">
			<defs>
				<rect id="SVGID_21_" x="11.513" y="34.832" width="73.667" height="31.94"/>
			</defs>
			<clipPath id="SVGID_22_">
				<use xlink:href="#SVGID_21_"  overflow="visible"/>
			</clipPath>
			<g clip-path="url(#SVGID_22_)">
				<path fill="#1F1A17" d="M12.053,57.524l1.074-0.094c0.051,0.43,0.169,0.782,0.355,1.058c0.186,0.275,0.474,0.498,0.866,0.668
					c0.391,0.17,0.831,0.255,1.32,0.255c0.435,0,0.818-0.064,1.15-0.194c0.333-0.129,0.58-0.306,0.742-0.53
					c0.163-0.225,0.244-0.47,0.244-0.735c0-0.27-0.078-0.505-0.235-0.706c-0.156-0.201-0.415-0.37-0.774-0.507
					c-0.231-0.09-0.742-0.229-1.532-0.419c-0.791-0.189-1.344-0.368-1.661-0.536c-0.411-0.215-0.717-0.481-0.918-0.8
					c-0.202-0.318-0.302-0.675-0.302-1.069c0-0.434,0.123-0.839,0.37-1.216c0.247-0.377,0.606-0.663,1.08-0.858
					c0.473-0.195,1-0.293,1.579-0.293c0.638,0,1.2,0.103,1.688,0.308s0.862,0.507,1.124,0.905c0.262,0.399,0.403,0.85,0.422,1.354
					l-1.092,0.082c-0.059-0.543-0.257-0.953-0.596-1.23c-0.338-0.278-0.838-0.417-1.5-0.417c-0.688,0-1.19,0.126-1.505,0.378
					c-0.315,0.252-0.472,0.556-0.472,0.911c0,0.309,0.111,0.563,0.334,0.762c0.219,0.199,0.791,0.404,1.717,0.613
					c0.925,0.209,1.56,0.392,1.904,0.548c0.501,0.23,0.871,0.522,1.109,0.876c0.238,0.354,0.358,0.761,0.358,1.222
					c0,0.457-0.131,0.888-0.393,1.292c-0.262,0.405-0.639,0.719-1.13,0.944c-0.491,0.225-1.044,0.337-1.658,0.337
					c-0.778,0-1.431-0.113-1.957-0.34c-0.526-0.227-0.939-0.567-1.239-1.023C12.226,58.613,12.069,58.099,12.053,57.524z"/>
				<path fill="#1F1A17" d="M20.004,52.906v-1.213h1.056v1.213H20.004z M20.004,60.285v-6.224h1.056v6.224H20.004z"/>
				<path fill="#1F1A17" d="M27.614,60.285V59.5c-0.395,0.617-0.976,0.926-1.743,0.926c-0.497,0-0.954-0.137-1.37-0.41
					c-0.417-0.273-0.74-0.655-0.968-1.146c-0.229-0.49-0.344-1.054-0.344-1.69c0-0.622,0.104-1.185,0.311-1.691
					c0.208-0.506,0.519-0.894,0.934-1.164c0.415-0.27,0.878-0.404,1.391-0.404c0.376,0,0.71,0.079,1.004,0.237
					s0.532,0.364,0.716,0.618v-3.083h1.051v8.592H27.614z M24.274,57.179c0,0.797,0.168,1.393,0.505,1.787
					c0.336,0.395,0.733,0.592,1.191,0.592c0.461,0,0.854-0.188,1.177-0.566c0.323-0.377,0.484-0.952,0.484-1.726
					c0-0.852-0.164-1.477-0.493-1.875c-0.329-0.399-0.734-0.598-1.215-0.598c-0.47,0-0.862,0.192-1.177,0.575
					S24.274,56.354,24.274,57.179z"/>
				<path fill="#1F1A17" d="M35.243,58.28l1.092,0.135c-0.172,0.637-0.491,1.131-0.957,1.483c-0.466,0.352-1.061,0.527-1.784,0.527
					c-0.912,0-1.635-0.28-2.169-0.841s-0.801-1.347-0.801-2.359c0-1.047,0.27-1.86,0.81-2.438c0.54-0.578,1.24-0.867,2.101-0.867
					c0.833,0,1.514,0.283,2.042,0.85c0.528,0.567,0.792,1.364,0.792,2.392c0,0.063-0.002,0.156-0.006,0.281h-4.648
					c0.039,0.684,0.233,1.207,0.581,1.57c0.348,0.364,0.783,0.545,1.303,0.545c0.387,0,0.718-0.102,0.992-0.305
					S35.082,58.726,35.243,58.28z M31.774,56.575h3.48c-0.047-0.523-0.18-0.916-0.399-1.178c-0.336-0.406-0.773-0.61-1.309-0.61
					c-0.485,0-0.893,0.163-1.224,0.487S31.809,56.032,31.774,56.575z"/>
			</g>
		</g>
		<g clip-path="url(#SVGID_18_)">
			<defs>
				<rect id="SVGID_23_" x="11.513" y="34.832" width="73.667" height="31.94"/>
			</defs>
			<clipPath id="SVGID_24_">
				<use xlink:href="#SVGID_23_"  overflow="visible"/>
			</clipPath>
		</g>
	</g>
	<g clip-path="url(#SVGID_2_)">
		<defs>
			<rect id="SVGID_25_" x="10.307" y="98.502" width="78.228" height="34.111"/>
		</defs>
		<clipPath id="SVGID_26_">
			<use xlink:href="#SVGID_25_"  overflow="visible"/>
		</clipPath>
		<g clip-path="url(#SVGID_26_)">
			<defs>
				<rect id="SVGID_27_" x="10.307" y="98.502" width="77.986" height="34.111"/>
			</defs>
			<clipPath id="SVGID_28_">
				<use xlink:href="#SVGID_27_"  overflow="visible"/>
			</clipPath>
			<g clip-path="url(#SVGID_28_)">
				<path fill="#1F1A17" d="M17.374,107.017l1.139,0.287c-0.239,0.934-0.668,1.646-1.289,2.136s-1.378,0.735-2.274,0.735
					c-0.927,0-1.682-0.188-2.263-0.565s-1.023-0.923-1.326-1.638c-0.304-0.715-0.455-1.483-0.455-2.303
					c0-0.895,0.171-1.675,0.514-2.341c0.342-0.666,0.83-1.172,1.461-1.518s1.327-0.519,2.086-0.519c0.861,0,1.584,0.219,2.171,0.656
					s0.996,1.053,1.227,1.846l-1.121,0.264c-0.199-0.625-0.489-1.08-0.868-1.365c-0.38-0.285-0.857-0.428-1.432-0.428
					c-0.662,0-1.214,0.158-1.658,0.475c-0.444,0.316-0.756,0.741-0.936,1.274c-0.18,0.533-0.27,1.083-0.27,1.65
					c0,0.73,0.106,1.369,0.32,1.914s0.545,0.952,0.995,1.222c0.45,0.27,0.937,0.405,1.461,0.405c0.638,0,1.178-0.184,1.62-0.551
					C16.917,108.284,17.217,107.739,17.374,107.017z"/>
				<path fill="#1F1A17" d="M18.87,106.917c0-1.153,0.321-2.006,0.963-2.562c0.536-0.461,1.189-0.691,1.96-0.691
					c0.857,0,1.557,0.28,2.101,0.841c0.544,0.561,0.816,1.335,0.816,2.324c0,0.801-0.12,1.431-0.361,1.89
					c-0.241,0.459-0.591,0.816-1.051,1.07c-0.459,0.254-0.961,0.381-1.505,0.381c-0.873,0-1.578-0.279-2.116-0.838
					C19.139,108.772,18.87,107.968,18.87,106.917z M19.956,106.917c0,0.797,0.174,1.394,0.522,1.79
					c0.348,0.397,0.786,0.595,1.314,0.595c0.524,0,0.96-0.199,1.309-0.598c0.348-0.398,0.522-1.006,0.522-1.822
					c0-0.77-0.175-1.353-0.525-1.75c-0.351-0.396-0.786-0.595-1.306-0.595c-0.528,0-0.966,0.198-1.314,0.592
					C20.129,105.524,19.956,106.12,19.956,106.917z"/>
				<path fill="#1F1A17" d="M26.188,110.029v-6.224h0.951v0.885c0.458-0.684,1.119-1.025,1.984-1.025
					c0.375,0,0.721,0.067,1.036,0.202s0.551,0.312,0.708,0.53c0.156,0.219,0.266,0.479,0.329,0.78
					c0.039,0.195,0.059,0.537,0.059,1.025v3.827h-1.057v-3.786c0-0.43-0.041-0.751-0.123-0.964s-0.228-0.383-0.438-0.51
					c-0.209-0.127-0.455-0.191-0.736-0.191c-0.45,0-0.838,0.143-1.165,0.428s-0.49,0.826-0.49,1.623v3.399H26.188z"/>
				<path fill="#1F1A17" d="M37.397,110.029v-0.785c-0.395,0.617-0.976,0.926-1.743,0.926c-0.497,0-0.954-0.137-1.37-0.41
					c-0.417-0.273-0.74-0.655-0.968-1.146c-0.229-0.49-0.344-1.054-0.344-1.69c0-0.622,0.104-1.185,0.311-1.691
					c0.208-0.506,0.519-0.894,0.934-1.164c0.415-0.27,0.878-0.404,1.391-0.404c0.376,0,0.71,0.079,1.004,0.237
					s0.532,0.364,0.716,0.618v-3.083h1.051v8.592H37.397z M34.058,106.923c0,0.797,0.168,1.393,0.505,1.787
					c0.336,0.395,0.733,0.592,1.191,0.592c0.461,0,0.854-0.188,1.177-0.566c0.323-0.377,0.484-0.952,0.484-1.726
					c0-0.852-0.164-1.477-0.493-1.875c-0.329-0.399-0.734-0.598-1.215-0.598c-0.47,0-0.862,0.192-1.177,0.575
					S34.058,106.098,34.058,106.923z"/>
			</g>
		</g>
		<g clip-path="url(#SVGID_26_)">
			<defs>
				<rect id="SVGID_29_" x="10.307" y="98.502" width="77.986" height="34.111"/>
			</defs>
			<clipPath id="SVGID_30_">
				<use xlink:href="#SVGID_29_"  overflow="visible"/>
			</clipPath>
			<g clip-path="url(#SVGID_30_)">
				<path fill="#1F1A17" d="M15.143,123.707v-0.785c-0.395,0.617-0.976,0.926-1.743,0.926c-0.497,0-0.954-0.137-1.37-0.41
					c-0.417-0.273-0.74-0.655-0.968-1.146c-0.229-0.49-0.344-1.054-0.344-1.69c0-0.622,0.104-1.185,0.311-1.691
					c0.208-0.506,0.519-0.894,0.934-1.164c0.415-0.27,0.878-0.404,1.391-0.404c0.376,0,0.71,0.079,1.004,0.237
					s0.532,0.364,0.716,0.618v-3.083h1.051v8.592H15.143z M11.804,120.601c0,0.797,0.168,1.393,0.505,1.787
					c0.336,0.395,0.733,0.592,1.191,0.592c0.461,0,0.854-0.188,1.177-0.566c0.323-0.377,0.484-0.952,0.484-1.726
					c0-0.852-0.164-1.477-0.493-1.875c-0.329-0.399-0.734-0.598-1.215-0.598c-0.47,0-0.862,0.192-1.177,0.575
					S11.804,119.776,11.804,120.601z"/>
				<path fill="#1F1A17" d="M22.772,121.702l1.092,0.135c-0.172,0.637-0.491,1.131-0.957,1.483
					c-0.466,0.352-1.061,0.527-1.784,0.527c-0.912,0-1.635-0.28-2.169-0.841s-0.801-1.347-0.801-2.359c0-1.047,0.27-1.86,0.81-2.438
					c0.54-0.578,1.24-0.867,2.101-0.867c0.833,0,1.514,0.283,2.042,0.85c0.528,0.567,0.792,1.364,0.792,2.392
					c0,0.063-0.002,0.156-0.006,0.281h-4.648c0.039,0.684,0.233,1.207,0.581,1.57c0.348,0.364,0.783,0.545,1.303,0.545
					c0.387,0,0.718-0.102,0.992-0.305S22.612,122.147,22.772,121.702z M19.304,119.997h3.48c-0.047-0.523-0.18-0.916-0.399-1.178
					c-0.336-0.406-0.773-0.61-1.309-0.61c-0.485,0-0.893,0.163-1.224,0.487S19.339,119.454,19.304,119.997z"/>
				<path fill="#1F1A17" d="M24.974,123.707v-6.224h0.945v0.873c0.195-0.305,0.456-0.55,0.781-0.735
					c0.325-0.186,0.694-0.278,1.109-0.278c0.462,0,0.84,0.096,1.136,0.287s0.504,0.459,0.625,0.803
					c0.493-0.727,1.135-1.09,1.925-1.09c0.618,0,1.093,0.171,1.426,0.513c0.333,0.342,0.499,0.869,0.499,1.58v4.272h-1.05v-3.921
					c0-0.422-0.035-0.726-0.103-0.911s-0.192-0.335-0.373-0.449c-0.18-0.113-0.391-0.17-0.634-0.17
					c-0.438,0-0.802,0.146-1.092,0.437s-0.434,0.757-0.434,1.397v3.616h-1.057v-4.044c0-0.469-0.086-0.82-0.258-1.055
					c-0.172-0.235-0.454-0.352-0.845-0.352c-0.297,0-0.572,0.079-0.824,0.235s-0.436,0.385-0.549,0.686
					c-0.114,0.301-0.17,0.734-0.17,1.301v3.229H24.974z"/>
				<path fill="#1F1A17" d="M40.051,122.939c-0.391,0.332-0.768,0.566-1.129,0.703c-0.362,0.137-0.75,0.205-1.165,0.205
					c-0.685,0-1.211-0.167-1.579-0.501s-0.552-0.761-0.552-1.281c0-0.305,0.07-0.583,0.208-0.835
					c0.139-0.252,0.321-0.454,0.546-0.606c0.225-0.153,0.479-0.268,0.76-0.346c0.207-0.055,0.52-0.107,0.939-0.158
					c0.853-0.102,1.481-0.223,1.884-0.363c0.004-0.145,0.006-0.236,0.006-0.275c0-0.43-0.1-0.732-0.299-0.908
					c-0.27-0.238-0.671-0.358-1.203-0.358c-0.497,0-0.864,0.087-1.101,0.261s-0.412,0.481-0.525,0.923l-1.033-0.141
					c0.094-0.441,0.249-0.798,0.464-1.07c0.215-0.271,0.526-0.48,0.933-0.627c0.407-0.146,0.878-0.22,1.415-0.22
					c0.532,0,0.964,0.063,1.297,0.188s0.577,0.282,0.733,0.472c0.157,0.19,0.266,0.429,0.329,0.718
					c0.035,0.18,0.053,0.504,0.053,0.973v1.407c0,0.98,0.022,1.601,0.067,1.861s0.134,0.509,0.267,0.747h-1.104
					C40.153,123.488,40.083,123.232,40.051,122.939z M39.963,120.583c-0.383,0.156-0.958,0.289-1.726,0.398
					c-0.434,0.063-0.741,0.133-0.921,0.211c-0.18,0.078-0.319,0.192-0.417,0.343c-0.098,0.15-0.147,0.317-0.147,0.501
					c0,0.281,0.107,0.516,0.32,0.704c0.213,0.188,0.525,0.281,0.937,0.281c0.407,0,0.769-0.089,1.085-0.267s0.55-0.421,0.699-0.73
					c0.113-0.238,0.17-0.59,0.17-1.055V120.583z"/>
				<path fill="#1F1A17" d="M42.669,123.707v-6.224h0.951v0.885c0.458-0.684,1.119-1.025,1.984-1.025
					c0.375,0,0.721,0.067,1.036,0.202s0.551,0.312,0.708,0.53c0.156,0.219,0.266,0.479,0.329,0.78
					c0.039,0.195,0.059,0.537,0.059,1.025v3.827h-1.057v-3.786c0-0.43-0.041-0.751-0.123-0.964s-0.228-0.383-0.438-0.51
					c-0.209-0.127-0.455-0.191-0.736-0.191c-0.45,0-0.838,0.143-1.165,0.428s-0.49,0.826-0.49,1.623v3.399H42.669z"/>
				<path fill="#1F1A17" d="M53.915,123.707v-0.785c-0.395,0.617-0.976,0.926-1.743,0.926c-0.497,0-0.954-0.137-1.37-0.41
					c-0.417-0.273-0.74-0.655-0.968-1.146c-0.229-0.49-0.344-1.054-0.344-1.69c0-0.622,0.104-1.185,0.311-1.691
					c0.208-0.506,0.519-0.894,0.934-1.164c0.415-0.27,0.878-0.404,1.391-0.404c0.376,0,0.71,0.079,1.004,0.237
					s0.532,0.364,0.716,0.618v-3.083h1.051v8.592H53.915z M50.575,120.601c0,0.797,0.168,1.393,0.505,1.787
					c0.336,0.395,0.733,0.592,1.191,0.592c0.461,0,0.854-0.188,1.177-0.566c0.323-0.377,0.484-0.952,0.484-1.726
					c0-0.852-0.164-1.477-0.493-1.875c-0.329-0.399-0.734-0.598-1.215-0.598c-0.47,0-0.862,0.192-1.177,0.575
					S50.575,119.776,50.575,120.601z"/>
				<path fill="#1F1A17" d="M60.674,121.849l1.045-0.164c0.059,0.418,0.222,0.738,0.49,0.961c0.268,0.223,0.643,0.334,1.124,0.334
					c0.485,0,0.845-0.099,1.08-0.296s0.352-0.429,0.352-0.695c0-0.238-0.104-0.426-0.311-0.563c-0.145-0.094-0.505-0.213-1.08-0.357
					c-0.774-0.195-1.312-0.364-1.611-0.507s-0.526-0.34-0.681-0.592c-0.155-0.252-0.232-0.53-0.232-0.835
					c0-0.277,0.063-0.534,0.19-0.771c0.127-0.236,0.3-0.433,0.52-0.589c0.165-0.121,0.388-0.224,0.672-0.308
					c0.283-0.084,0.587-0.126,0.913-0.126c0.489,0,0.918,0.07,1.288,0.211s0.643,0.331,0.819,0.571
					c0.176,0.24,0.297,0.562,0.364,0.964l-1.033,0.141c-0.047-0.32-0.183-0.57-0.408-0.75s-0.543-0.27-0.954-0.27
					c-0.485,0-0.832,0.08-1.039,0.241c-0.207,0.16-0.311,0.348-0.311,0.563c0,0.137,0.043,0.26,0.129,0.369
					c0.086,0.113,0.221,0.207,0.405,0.281c0.105,0.039,0.417,0.129,0.933,0.27c0.748,0.199,1.269,0.363,1.564,0.489
					c0.295,0.127,0.527,0.312,0.695,0.554c0.168,0.242,0.252,0.543,0.252,0.902c0,0.352-0.103,0.683-0.308,0.994
					c-0.206,0.311-0.502,0.551-0.889,0.721c-0.388,0.17-0.826,0.255-1.315,0.255c-0.81,0-1.427-0.168-1.852-0.504
					C61.063,123.007,60.792,122.509,60.674,121.849z"/>
				<path fill="#1F1A17" d="M67.113,116.328v-1.213h1.056v1.213H67.113z M67.113,123.707v-6.224h1.056v6.224H67.113z"/>
				<path fill="#1F1A17" d="M74.723,123.707v-0.785c-0.395,0.617-0.976,0.926-1.743,0.926c-0.497,0-0.954-0.137-1.37-0.41
					c-0.417-0.273-0.74-0.655-0.968-1.146c-0.229-0.49-0.344-1.054-0.344-1.69c0-0.622,0.104-1.185,0.311-1.691
					c0.208-0.506,0.519-0.894,0.934-1.164c0.415-0.27,0.878-0.404,1.391-0.404c0.376,0,0.71,0.079,1.004,0.237
					s0.532,0.364,0.716,0.618v-3.083h1.051v8.592H74.723z M71.383,120.601c0,0.797,0.168,1.393,0.505,1.787
					c0.336,0.395,0.733,0.592,1.191,0.592c0.461,0,0.854-0.188,1.177-0.566c0.323-0.377,0.484-0.952,0.484-1.726
					c0-0.852-0.164-1.477-0.493-1.875c-0.329-0.399-0.734-0.598-1.215-0.598c-0.47,0-0.862,0.192-1.177,0.575
					S71.383,119.776,71.383,120.601z"/>
				<path fill="#1F1A17" d="M82.352,121.702l1.092,0.135c-0.172,0.637-0.491,1.131-0.957,1.483
					c-0.466,0.352-1.061,0.527-1.784,0.527c-0.912,0-1.635-0.28-2.169-0.841s-0.801-1.347-0.801-2.359c0-1.047,0.27-1.86,0.81-2.438
					c0.54-0.578,1.24-0.867,2.101-0.867c0.833,0,1.514,0.283,2.042,0.85c0.528,0.567,0.792,1.364,0.792,2.392
					c0,0.063-0.002,0.156-0.006,0.281h-4.648c0.039,0.684,0.233,1.207,0.581,1.57c0.348,0.364,0.783,0.545,1.303,0.545
					c0.387,0,0.718-0.102,0.992-0.305S82.191,122.147,82.352,121.702z M78.883,119.997h3.48c-0.047-0.523-0.18-0.916-0.399-1.178
					c-0.336-0.406-0.773-0.61-1.309-0.61c-0.485,0-0.893,0.163-1.224,0.487S78.918,119.454,78.883,119.997z"/>
			</g>
		</g>
		<g clip-path="url(#SVGID_26_)">
			<defs>
				<rect id="SVGID_31_" x="10.307" y="98.502" width="77.986" height="34.111"/>
			</defs>
			<clipPath id="SVGID_32_">
				<use xlink:href="#SVGID_31_"  overflow="visible"/>
			</clipPath>
		</g>
	</g>
	<g clip-path="url(#SVGID_2_)">
		<defs>
			<rect id="SVGID_33_" x="133.647" y="250.55" width="27.588" height="13.22"/>
		</defs>
		<clipPath id="SVGID_34_">
			<use xlink:href="#SVGID_33_"  overflow="visible"/>
		</clipPath>
		<g clip-path="url(#SVGID_34_)">
			<defs>
				<rect id="SVGID_35_" x="133.647" y="250.55" width="27.347" height="13.22"/>
			</defs>
			<clipPath id="SVGID_36_">
				<use xlink:href="#SVGID_35_"  overflow="visible"/>
			</clipPath>
			<g clip-path="url(#SVGID_36_)">
				<path fill="#1F1A17" d="M133.888,262.082v-1.055l4.408-5.503c0.313-0.391,0.61-0.73,0.892-1.02h-4.801v-1.014h6.162v1.014
					l-4.83,5.96l-0.522,0.604h5.494v1.014H133.888z"/>
				<path fill="#1F1A17" d="M141.244,258.97c0-1.153,0.321-2.006,0.963-2.562c0.536-0.461,1.189-0.691,1.96-0.691
					c0.857,0,1.557,0.28,2.101,0.841c0.544,0.561,0.816,1.335,0.816,2.324c0,0.801-0.12,1.431-0.361,1.89
					c-0.241,0.459-0.591,0.816-1.051,1.07c-0.459,0.254-0.961,0.381-1.505,0.381c-0.873,0-1.578-0.279-2.116-0.838
					C141.513,260.825,141.244,260.021,141.244,258.97z M142.33,258.97c0,0.797,0.174,1.394,0.522,1.79
					c0.348,0.397,0.786,0.595,1.314,0.595c0.524,0,0.96-0.199,1.309-0.598c0.348-0.398,0.522-1.006,0.522-1.822
					c0-0.77-0.175-1.353-0.525-1.75c-0.351-0.396-0.786-0.595-1.306-0.595c-0.528,0-0.966,0.198-1.314,0.592
					C142.503,257.577,142.33,258.172,142.33,258.97z"/>
				<path fill="#1F1A17" d="M148.563,262.082v-6.224h0.951v0.885c0.458-0.684,1.119-1.025,1.984-1.025
					c0.375,0,0.721,0.067,1.036,0.202s0.551,0.312,0.708,0.53c0.156,0.219,0.266,0.479,0.329,0.78
					c0.039,0.195,0.059,0.537,0.059,1.025v3.827h-1.057v-3.786c0-0.43-0.041-0.751-0.123-0.964s-0.228-0.383-0.438-0.51
					c-0.209-0.127-0.455-0.191-0.736-0.191c-0.45,0-0.838,0.143-1.165,0.428s-0.49,0.826-0.49,1.623v3.399H148.563z"/>
			</g>
		</g>
		<g clip-path="url(#SVGID_34_)">
			<defs>
				<rect id="SVGID_37_" x="133.647" y="250.55" width="27.347" height="13.22"/>
			</defs>
			<clipPath id="SVGID_38_">
				<use xlink:href="#SVGID_37_"  overflow="visible"/>
			</clipPath>
			<g clip-path="url(#SVGID_38_)">
				<path fill="#1F1A17" d="M138.706,274.72l1.092,0.135c-0.172,0.637-0.491,1.131-0.957,1.483
					c-0.466,0.352-1.061,0.527-1.784,0.527c-0.912,0-1.635-0.28-2.169-0.841s-0.801-1.347-0.801-2.359c0-1.047,0.27-1.86,0.81-2.438
					c0.54-0.578,1.24-0.867,2.101-0.867c0.833,0,1.514,0.283,2.042,0.85c0.528,0.567,0.792,1.364,0.792,2.392
					c0,0.063-0.002,0.156-0.006,0.281h-4.648c0.039,0.684,0.233,1.207,0.581,1.57c0.348,0.364,0.783,0.545,1.303,0.545
					c0.387,0,0.718-0.102,0.992-0.305S138.545,275.165,138.706,274.72z M135.237,273.014h3.48c-0.047-0.523-0.18-0.916-0.399-1.178
					c-0.336-0.406-0.773-0.61-1.309-0.61c-0.485,0-0.893,0.163-1.224,0.487S135.272,272.471,135.237,273.014z"/>
			</g>
		</g>
		<g clip-path="url(#SVGID_34_)">
			<defs>
				<rect id="SVGID_39_" x="133.647" y="250.55" width="27.347" height="13.22"/>
			</defs>
			<clipPath id="SVGID_40_">
				<use xlink:href="#SVGID_39_"  overflow="visible"/>
			</clipPath>
		</g>
	</g>
	<path clip-path="url(#SVGID_2_)" fill-rule="evenodd" clip-rule="evenodd" fill="#FFFFFF" d="M116.846,23.783
		c0,2.87,2.395,5.041,5.288,5.041c3.113,0,5.507-2.171,5.507-5.041c0-2.65-2.395-4.802-5.507-4.802
		C119.241,18.981,116.846,21.133,116.846,23.783z"/>
	
		<path clip-path="url(#SVGID_2_)" fill="none" stroke="#000000" stroke-width="0.7238" stroke-linejoin="round" stroke-miterlimit="10" d="
		M116.846,23.783c0,2.87,2.395,5.041,5.288,5.041c3.113,0,5.507-2.171,5.507-5.041c0-2.65-2.395-4.802-5.507-4.802
		C119.241,18.981,116.846,21.133,116.846,23.783z"/>
	<path clip-path="url(#SVGID_2_)" fill-rule="evenodd" clip-rule="evenodd" fill="#FFFFFF" d="M138.695,23.066
		c0,2.869,2.384,5.041,5.257,5.041c3.113,0,5.527-2.172,5.527-5.041c0-2.899-2.415-5.041-5.527-5.041
		C141.08,18.025,138.695,20.167,138.695,23.066z"/>
	
		<path clip-path="url(#SVGID_2_)" fill="none" stroke="#000000" stroke-width="0.7238" stroke-linejoin="round" stroke-miterlimit="10" d="
		M138.695,23.066c0,2.869,2.384,5.041,5.257,5.041c3.113,0,5.527-2.172,5.527-5.041c0-2.899-2.415-5.041-5.527-5.041
		C141.08,18.025,138.695,20.167,138.695,23.066z"/>
	<g clip-path="url(#SVGID_2_)">
		<defs>
			<rect id="SVGID_41_" x="126.454" y="33.386" width="39.584" height="16.09"/>
		</defs>
		<clipPath id="SVGID_42_">
			<use xlink:href="#SVGID_41_"  overflow="visible"/>
		</clipPath>
		<g clip-path="url(#SVGID_42_)">
			<defs>
				<rect id="SVGID_43_" x="126.454" y="33.386" width="39.343" height="16.09"/>
			</defs>
			<clipPath id="SVGID_44_">
				<use xlink:href="#SVGID_43_"  overflow="visible"/>
			</clipPath>
			<g clip-path="url(#SVGID_44_)">
				<path d="M128.414,37.786v4.792c0,1.813,0.806,2.582,1.888,2.582c1.203,0,1.972-0.792,1.972-2.582v-4.792h1.058v4.719
					c0,2.486-1.311,3.507-3.066,3.507c-1.659,0-2.91-0.949-2.91-3.458v-4.768H128.414z"/>
			</g>
		</g>
		<g clip-path="url(#SVGID_42_)">
			<defs>
				<rect id="SVGID_45_" x="126.454" y="33.386" width="39.343" height="16.09"/>
			</defs>
			<clipPath id="SVGID_46_">
				<use xlink:href="#SVGID_45_"  overflow="visible"/>
			</clipPath>
			<g clip-path="url(#SVGID_46_)">
				<path d="M137.706,42.241v0.781h-2.97v-0.781H137.706z"/>
			</g>
		</g>
		<g clip-path="url(#SVGID_42_)">
			<defs>
				<rect id="SVGID_47_" x="126.454" y="33.386" width="39.343" height="16.09"/>
			</defs>
			<clipPath id="SVGID_48_">
				<use xlink:href="#SVGID_47_"  overflow="visible"/>
			</clipPath>
			<g clip-path="url(#SVGID_48_)">
				<path d="M140.598,38.398v1.669h1.515v0.804h-1.515v3.134c0,0.721,0.204,1.129,0.793,1.129c0.277,0,0.481-0.036,0.613-0.072
					l0.048,0.792c-0.205,0.084-0.529,0.144-0.938,0.144c-0.493,0-0.89-0.156-1.143-0.444c-0.3-0.312-0.409-0.829-0.409-1.513v-3.17
					h-0.902v-0.804h0.902v-1.393L140.598,38.398z"/>
				<path d="M148.172,44.294c0,0.6,0.012,1.128,0.048,1.585h-0.938l-0.06-0.949h-0.024c-0.276,0.468-0.89,1.081-1.924,1.081
					c-0.914,0-2.008-0.504-2.008-2.546v-3.398h1.058v3.218c0,1.104,0.336,1.849,1.298,1.849c0.709,0,1.203-0.492,1.395-0.96
					c0.06-0.156,0.096-0.349,0.096-0.541v-3.566h1.058V44.294z"/>
				<path d="M149.781,45.879c0.024-0.396,0.048-0.985,0.048-1.501v-7.025h1.046v3.651h0.024c0.373-0.648,1.046-1.069,1.984-1.069
					c1.443,0,2.465,1.201,2.453,2.966c0,2.077-1.311,3.11-2.609,3.11c-0.841,0-1.515-0.325-1.948-1.093h-0.036l-0.048,0.961H149.781
					z M150.875,43.55c0,0.132,0.024,0.264,0.048,0.384c0.204,0.732,0.817,1.237,1.587,1.237c1.106,0,1.768-0.901,1.768-2.233
					c0-1.165-0.601-2.162-1.731-2.162c-0.722,0-1.395,0.492-1.611,1.297c-0.024,0.12-0.06,0.264-0.06,0.432V43.55z"/>
				<path d="M157.221,43.166c0.024,1.429,0.938,2.018,1.996,2.018c0.757,0,1.214-0.132,1.611-0.3l0.18,0.756
					c-0.373,0.168-1.01,0.36-1.936,0.36c-1.792,0-2.862-1.177-2.862-2.93s1.034-3.134,2.729-3.134c1.899,0,2.405,1.669,2.405,2.738
					c0,0.216-0.024,0.384-0.036,0.493H157.221z M160.323,42.409c0.012-0.672-0.276-1.717-1.467-1.717
					c-1.07,0-1.539,0.984-1.623,1.717H160.323z"/>
			</g>
		</g>
		<g clip-path="url(#SVGID_42_)">
			<defs>
				<rect id="SVGID_49_" x="126.454" y="33.386" width="39.343" height="16.09"/>
			</defs>
			<clipPath id="SVGID_50_">
				<use xlink:href="#SVGID_49_"  overflow="visible"/>
			</clipPath>
			<g clip-path="url(#SVGID_50_)">
			</g>
		</g>
	</g>
	<polygon clip-path="url(#SVGID_2_)" fill-rule="evenodd" clip-rule="evenodd" points="199.852,25.716 200.091,25.716 
		200.341,25.716 200.58,25.477 200.82,25.477 201.059,25.238 201.298,24.989 201.548,24.989 201.548,24.75 201.788,24.511 
		201.788,24.271 202.027,24.033 202.027,23.783 202.027,23.544 202.027,23.305 202.027,23.066 201.788,22.817 201.788,22.578 
		201.548,22.339 201.548,22.1 201.298,21.861 201.059,21.861 201.059,21.612 200.82,21.612 200.58,21.612 200.341,21.373 
		200.091,21.373 199.852,21.373 199.612,21.373 199.373,21.373 199.154,21.373 198.914,21.612 198.675,21.612 198.435,21.612 
		198.435,21.861 198.186,21.861 197.946,22.1 197.946,22.339 197.707,22.578 197.707,22.817 197.467,23.066 197.467,23.305 
		197.467,23.544 197.467,23.783 197.467,24.033 197.707,24.271 197.707,24.511 197.946,24.75 197.946,24.989 198.186,24.989 
		198.435,25.238 198.675,25.477 198.914,25.477 199.154,25.716 199.373,25.716 199.612,25.716 	"/>
	
		<polyline clip-path="url(#SVGID_2_)" fill="none" stroke="#1F1A17" stroke-width="0.2413" stroke-linejoin="round" stroke-miterlimit="10" points="
		200.231,26.095 200.471,26.095 200.71,26.095 200.949,25.846 201.199,25.846 201.438,25.606 201.678,25.368 201.917,25.368 
		201.917,25.128 202.157,24.879 202.157,24.64 202.406,24.401 202.406,24.162 202.406,23.923 202.406,23.674 202.406,23.435 
		202.157,23.196 202.157,22.957 201.917,22.717 201.917,22.468 201.678,22.229 201.438,22.229 201.438,21.99 201.199,21.99 
		200.949,21.99 200.71,21.751 200.471,21.751 200.231,21.751 199.992,21.751 199.742,21.751 199.533,21.751 199.283,21.99 
		199.044,21.99 198.804,21.99 198.804,22.229 198.565,22.229 198.326,22.468 198.326,22.717 198.076,22.957 198.076,23.196 
		197.836,23.435 197.836,23.674 197.836,23.923 197.836,24.162 197.836,24.401 198.076,24.64 198.076,24.879 198.326,25.128 
		198.326,25.368 198.565,25.368 198.804,25.606 199.044,25.846 199.283,25.846 199.533,26.095 199.742,26.095 199.992,26.095 
		200.231,26.095 	"/>
	<polygon clip-path="url(#SVGID_2_)" fill-rule="evenodd" clip-rule="evenodd" points="88.052,25.716 88.293,25.716 88.535,25.716 
		88.776,25.716 89.018,25.477 89.259,25.238 89.5,25.238 89.742,24.989 89.983,24.75 89.983,24.511 90.224,24.271 90.224,24.033 
		90.224,23.783 90.224,23.544 90.224,23.305 90.224,23.066 90.224,22.817 90.224,22.578 89.983,22.578 89.983,22.339 89.742,22.1 
		89.742,21.861 89.5,21.861 89.259,21.612 89.018,21.612 88.776,21.373 88.535,21.373 88.293,21.373 88.052,21.373 87.81,21.373 
		87.569,21.373 87.328,21.373 87.086,21.612 86.845,21.612 86.603,21.861 86.387,21.861 86.387,22.1 86.145,22.339 86.145,22.578 
		85.904,22.578 85.904,22.817 85.904,23.066 85.904,23.305 85.904,23.544 85.904,23.783 85.904,24.033 85.904,24.271 86.145,24.511 
		86.145,24.75 86.387,24.989 86.603,25.238 86.845,25.238 87.086,25.477 87.328,25.716 87.569,25.716 87.81,25.716 	"/>
	
		<polyline clip-path="url(#SVGID_2_)" fill="none" stroke="#1F1A17" stroke-width="0.2413" stroke-linejoin="round" stroke-miterlimit="10" points="
		88.426,26.095 88.667,26.095 88.909,26.095 89.15,26.095 89.392,25.846 89.633,25.606 89.875,25.606 90.116,25.368 90.357,25.128 
		90.357,24.879 90.598,24.64 90.598,24.401 90.598,24.162 90.598,23.923 90.598,23.674 90.598,23.435 90.598,23.196 90.598,22.957 
		90.357,22.957 90.357,22.717 90.116,22.468 90.116,22.229 89.875,22.229 89.633,21.99 89.392,21.99 89.15,21.751 88.909,21.751 
		88.667,21.751 88.426,21.751 88.185,21.751 87.943,21.751 87.702,21.751 87.46,21.99 87.219,21.99 86.977,22.229 86.761,22.229 
		86.761,22.468 86.52,22.717 86.52,22.957 86.278,22.957 86.278,23.196 86.278,23.435 86.278,23.674 86.278,23.923 86.278,24.162 
		86.278,24.401 86.278,24.64 86.52,24.879 86.52,25.128 86.761,25.368 86.977,25.606 87.219,25.606 87.46,25.846 87.702,26.095 
		87.943,26.095 88.185,26.095 88.426,26.095 	"/>
	<polygon clip-path="url(#SVGID_2_)" fill-rule="evenodd" clip-rule="evenodd" points="192.898,159.99 193.147,159.99 
		193.387,159.99 193.626,159.99 193.866,159.99 194.105,159.751 194.355,159.751 194.355,159.502 194.594,159.502 194.833,159.263 
		194.833,159.024 195.073,159.024 195.073,158.785 195.073,158.545 195.292,158.296 195.292,158.058 195.292,157.818 
		195.292,157.579 195.292,157.34 195.073,157.34 195.073,157.091 195.073,156.852 194.833,156.633 194.833,156.394 194.594,156.394 
		194.355,156.155 194.105,155.916 193.866,155.916 193.626,155.916 193.387,155.667 193.147,155.667 192.898,155.667 
		192.659,155.667 192.419,155.916 192.18,155.916 191.94,155.916 191.701,156.155 191.452,156.394 191.212,156.394 191.212,156.633 
		190.993,156.852 190.993,157.091 190.993,157.34 190.753,157.34 190.753,157.579 190.753,157.818 190.753,158.058 190.753,158.296 
		190.993,158.545 190.993,158.785 190.993,159.024 191.212,159.024 191.212,159.263 191.452,159.502 191.701,159.502 
		191.701,159.751 191.94,159.751 192.18,159.99 192.419,159.99 192.659,159.99 	"/>
	
		<polyline clip-path="url(#SVGID_2_)" fill="none" stroke="#1F1A17" stroke-width="0.2413" stroke-linejoin="round" stroke-miterlimit="10" points="
		193.277,160.359 193.517,160.359 193.756,160.359 194.006,160.359 194.245,160.359 194.484,160.12 194.724,160.12 194.724,159.88 
		194.963,159.88 195.213,159.642 195.213,159.402 195.452,159.402 195.452,159.153 195.452,158.915 195.672,158.675 
		195.672,158.436 195.672,158.197 195.672,157.948 195.672,157.709 195.452,157.709 195.452,157.47 195.452,157.23 195.213,157.011 
		195.213,156.772 194.963,156.772 194.724,156.523 194.484,156.284 194.245,156.284 194.006,156.284 193.756,156.045 
		193.517,156.045 193.277,156.045 193.038,156.045 192.798,156.284 192.549,156.284 192.31,156.284 192.07,156.523 191.831,156.772 
		191.591,156.772 191.591,157.011 191.372,157.23 191.372,157.47 191.372,157.709 191.132,157.709 191.132,157.948 191.132,158.197 
		191.132,158.436 191.132,158.675 191.372,158.915 191.372,159.153 191.372,159.402 191.591,159.402 191.591,159.642 
		191.831,159.88 192.07,159.88 192.07,160.12 192.31,160.12 192.549,160.359 192.798,160.359 193.038,160.359 193.277,160.359 	"/>
	<polygon clip-path="url(#SVGID_2_)" fill-rule="evenodd" clip-rule="evenodd" points="100.774,161.674 101.013,161.674 
		101.253,161.435 101.492,161.435 101.742,161.435 101.981,161.435 101.981,161.196 102.221,161.196 102.46,160.957 102.46,160.717 
		102.68,160.717 102.68,160.468 102.919,160.229 102.919,159.99 102.919,159.751 102.919,159.502 102.919,159.263 102.919,159.024 
		102.919,158.785 102.919,158.545 102.68,158.296 102.68,158.058 102.46,158.058 102.46,157.818 102.221,157.58 101.981,157.58 
		101.981,157.34 101.742,157.34 101.492,157.34 101.253,157.34 101.013,157.091 100.774,157.091 100.535,157.091 100.285,157.34 
		100.046,157.34 99.806,157.34 99.565,157.58 99.323,157.58 99.323,157.818 99.083,158.058 98.841,158.058 98.841,158.296 
		98.841,158.545 98.624,158.785 98.624,159.024 98.624,159.263 98.624,159.502 98.624,159.751 98.624,159.99 98.841,160.229 
		98.841,160.468 98.841,160.717 99.083,160.717 99.323,160.957 99.323,161.196 99.565,161.196 99.806,161.435 100.046,161.435 
		100.285,161.435 100.535,161.674 	"/>
	
		<polyline clip-path="url(#SVGID_2_)" fill="none" stroke="#1F1A17" stroke-width="0.2413" stroke-linejoin="round" stroke-miterlimit="10" points="
		101.143,162.052 101.393,162.052 101.632,161.813 101.872,161.813 102.111,161.813 102.35,161.813 102.35,161.574 102.59,161.574 
		102.839,161.325 102.839,161.086 103.049,161.086 103.049,160.847 103.298,160.608 103.298,160.359 103.298,160.12 103.298,159.88 
		103.298,159.642 103.298,159.402 103.298,159.153 103.298,158.915 103.049,158.675 103.049,158.436 102.839,158.436 
		102.839,158.197 102.59,157.948 102.35,157.948 102.35,157.709 102.111,157.709 101.872,157.709 101.632,157.709 101.393,157.47 
		101.143,157.47 100.904,157.47 100.664,157.709 100.425,157.709 100.186,157.709 99.936,157.948 99.697,157.948 99.697,158.197 
		99.457,158.436 99.216,158.436 99.216,158.675 99.216,158.915 98.998,159.153 98.998,159.402 98.998,159.642 98.998,159.88 
		98.998,160.12 98.998,160.359 99.216,160.608 99.216,160.847 99.216,161.086 99.457,161.086 99.697,161.325 99.697,161.574 
		99.936,161.574 100.186,161.813 100.425,161.813 100.664,161.813 100.904,162.052 101.143,162.052 	"/>
	<polygon clip-path="url(#SVGID_2_)" fill-rule="evenodd" clip-rule="evenodd" points="192.18,261.357 192.419,261.357 
		192.659,261.357 192.898,261.357 193.147,261.357 193.387,261.116 193.626,261.116 193.626,260.875 193.866,260.875 
		194.105,260.634 194.105,260.393 194.355,260.393 194.355,260.152 194.355,259.911 194.355,259.668 194.594,259.428 
		194.594,259.21 194.594,258.969 194.355,258.728 194.355,258.487 194.355,258.246 194.105,258.005 194.105,257.763 
		193.866,257.763 193.626,257.522 193.387,257.281 193.147,257.281 192.898,257.04 192.659,257.04 192.419,257.04 192.18,257.04 
		191.94,257.04 191.701,257.04 191.452,257.281 191.212,257.281 190.993,257.522 190.753,257.522 190.753,257.763 190.514,257.763 
		190.514,258.005 190.274,258.246 190.274,258.487 190.035,258.487 190.035,258.728 190.035,258.969 190.035,259.21 
		190.035,259.428 190.035,259.668 190.035,259.911 190.274,260.152 190.274,260.393 190.514,260.393 190.514,260.634 
		190.753,260.875 190.993,261.116 191.212,261.116 191.452,261.357 191.701,261.357 191.94,261.357 	"/>
	
		<polyline clip-path="url(#SVGID_2_)" fill="none" stroke="#1F1A17" stroke-width="0.2413" stroke-linejoin="round" stroke-miterlimit="10" points="
		192.549,261.732 192.798,261.732 193.038,261.732 193.277,261.732 193.517,261.732 193.756,261.491 194.006,261.491 
		194.006,261.249 194.245,261.249 194.484,261.008 194.484,260.767 194.724,260.767 194.724,260.525 194.724,260.284 
		194.724,260.043 194.963,259.802 194.963,259.585 194.963,259.344 194.724,259.102 194.724,258.861 194.724,258.62 
		194.484,258.378 194.484,258.137 194.245,258.137 194.006,257.896 193.756,257.654 193.517,257.654 193.277,257.413 
		193.038,257.413 192.798,257.413 192.549,257.413 192.31,257.413 192.07,257.413 191.831,257.654 191.591,257.654 191.372,257.896 
		191.132,257.896 191.132,258.137 190.883,258.137 190.883,258.378 190.644,258.62 190.644,258.861 190.404,258.861 
		190.404,259.102 190.404,259.344 190.404,259.585 190.404,259.802 190.404,260.043 190.404,260.284 190.644,260.525 
		190.644,260.767 190.883,260.767 190.883,261.008 191.132,261.249 191.372,261.491 191.591,261.491 191.831,261.732 
		192.07,261.732 192.31,261.732 192.549,261.732 	"/>
	<polygon clip-path="url(#SVGID_2_)" fill-rule="evenodd" clip-rule="evenodd" points="102.221,260.634 102.46,260.634 
		102.68,260.634 102.919,260.634 103.158,260.634 103.408,260.393 103.647,260.393 103.647,260.152 103.887,260.152 
		104.126,259.911 104.126,259.668 104.366,259.428 104.366,259.21 104.366,258.969 104.605,258.728 104.605,258.487 
		104.605,258.246 104.366,258.005 104.366,257.763 104.366,257.522 104.126,257.281 104.126,257.04 103.887,257.04 103.647,256.798 
		103.647,256.558 103.408,256.558 103.158,256.558 102.919,256.316 102.68,256.316 102.46,256.316 102.221,256.316 101.981,256.316 
		101.742,256.316 101.492,256.558 101.253,256.558 101.013,256.558 100.774,256.798 100.774,257.04 100.535,257.04 100.535,257.281 
		100.285,257.522 100.046,257.763 100.046,258.005 100.046,258.246 100.046,258.487 100.046,258.728 100.046,258.969 
		100.046,259.21 100.285,259.428 100.535,259.668 100.535,259.911 100.774,260.152 101.013,260.393 101.253,260.393 
		101.492,260.634 101.742,260.634 101.981,260.634 	"/>
	
		<polyline clip-path="url(#SVGID_2_)" fill="none" stroke="#1F1A17" stroke-width="0.2413" stroke-linejoin="round" stroke-miterlimit="10" points="
		102.59,261.008 102.839,261.008 103.049,261.008 103.298,261.008 103.538,261.008 103.777,260.767 104.016,260.767 
		104.016,260.525 104.256,260.525 104.505,260.284 104.505,260.043 104.745,259.802 104.745,259.585 104.745,259.344 
		104.984,259.102 104.984,258.861 104.984,258.62 104.745,258.378 104.745,258.137 104.745,257.896 104.505,257.654 
		104.505,257.413 104.256,257.413 104.016,257.172 104.016,256.931 103.777,256.931 103.538,256.931 103.298,256.69 103.049,256.69 
		102.839,256.69 102.59,256.69 102.35,256.69 102.111,256.69 101.872,256.931 101.632,256.931 101.393,256.931 101.143,257.172 
		101.143,257.413 100.904,257.413 100.904,257.654 100.664,257.896 100.425,258.137 100.425,258.378 100.425,258.62 
		100.425,258.861 100.425,259.102 100.425,259.344 100.425,259.585 100.664,259.802 100.904,260.043 100.904,260.284 
		101.143,260.525 101.393,260.767 101.632,260.767 101.872,261.008 102.111,261.008 102.35,261.008 102.59,261.008 	"/>
	<polygon clip-path="url(#SVGID_2_)" fill-rule="evenodd" clip-rule="evenodd" points="4.079,192.412 4.32,192.412 4.562,192.412 
		4.803,192.171 5.045,192.171 5.286,191.929 5.528,191.929 5.769,191.688 5.769,191.447 6.011,191.447 6.011,191.206 6.227,190.964 
		6.227,190.748 6.227,190.506 6.227,190.265 6.227,190.024 6.227,189.782 6.227,189.541 6.227,189.3 6.011,189.059 5.769,188.818 
		5.769,188.577 5.528,188.577 5.286,188.334 5.045,188.334 5.045,188.093 4.803,188.093 4.562,188.093 4.32,188.093 4.079,187.852 
		3.837,188.093 3.596,188.093 3.355,188.093 3.113,188.093 3.113,188.334 2.872,188.334 2.63,188.577 2.39,188.577 2.39,188.818 
		2.148,189.059 1.931,189.3 1.931,189.541 1.931,189.782 1.931,190.024 1.931,190.265 1.931,190.506 1.931,190.748 1.931,190.964 
		2.148,191.206 2.148,191.447 2.39,191.447 2.39,191.688 2.63,191.929 2.872,191.929 3.113,192.171 3.355,192.171 3.596,192.412 
		3.837,192.412 	"/>
	
		<polyline clip-path="url(#SVGID_2_)" fill="none" stroke="#1F1A17" stroke-width="0.2413" stroke-linejoin="round" stroke-miterlimit="10" points="
		4.453,192.786 4.695,192.786 4.936,192.786 5.178,192.544 5.419,192.544 5.66,192.303 5.902,192.303 6.143,192.063 6.143,191.821 
		6.385,191.821 6.385,191.579 6.601,191.338 6.601,191.121 6.601,190.88 6.601,190.639 6.601,190.397 6.601,190.157 6.601,189.916 
		6.601,189.673 6.385,189.432 6.143,189.191 6.143,188.95 5.902,188.95 5.66,188.709 5.419,188.709 5.419,188.468 5.178,188.468 
		4.936,188.468 4.695,188.468 4.453,188.227 4.212,188.468 3.97,188.468 3.729,188.468 3.487,188.468 3.487,188.709 3.246,188.709 
		3.004,188.95 2.764,188.95 2.764,189.191 2.523,189.432 2.305,189.673 2.305,189.916 2.305,190.157 2.305,190.397 2.305,190.639 
		2.305,190.88 2.305,191.121 2.305,191.338 2.523,191.579 2.523,191.821 2.764,191.821 2.764,192.063 3.004,192.303 3.246,192.303 
		3.487,192.544 3.729,192.544 3.97,192.786 4.212,192.786 4.453,192.786 	"/>
	<polygon clip-path="url(#SVGID_2_)" fill-rule="evenodd" clip-rule="evenodd" points="275.455,197.695 275.665,197.695 
		275.914,197.454 276.153,197.454 276.393,197.454 276.632,197.454 276.632,197.213 276.872,197.213 277.121,196.971 
		277.121,196.73 277.361,196.73 277.361,196.513 277.6,196.271 277.6,196.03 277.6,195.79 277.6,195.548 277.6,195.307 
		277.6,195.065 277.6,194.824 277.6,194.583 277.361,194.342 277.361,194.101 277.121,194.101 277.121,193.86 276.872,193.619 
		276.632,193.619 276.632,193.376 276.393,193.376 276.153,193.376 275.914,193.376 275.665,193.135 275.455,193.135 
		275.206,193.135 274.966,193.376 274.727,193.376 274.487,193.376 274.248,193.619 274.008,193.619 274.008,193.86 
		273.759,194.101 273.519,194.342 273.519,194.583 273.28,194.824 273.28,195.065 273.28,195.307 273.28,195.548 273.28,195.79 
		273.28,196.03 273.519,196.271 273.519,196.513 273.759,196.73 274.008,196.971 274.008,197.213 274.248,197.213 274.487,197.454 
		274.727,197.454 274.966,197.454 275.206,197.695 	"/>
	
		<polyline clip-path="url(#SVGID_2_)" fill="none" stroke="#1F1A17" stroke-width="0.2413" stroke-linejoin="round" stroke-miterlimit="10" points="
		275.824,198.069 276.043,198.069 276.283,197.828 276.522,197.828 276.772,197.828 277.011,197.828 277.011,197.586 
		277.25,197.586 277.49,197.345 277.49,197.104 277.73,197.104 277.73,196.887 277.979,196.645 277.979,196.404 277.979,196.163 
		277.979,195.922 277.979,195.681 277.979,195.44 277.979,195.199 277.979,194.957 277.73,194.715 277.73,194.474 277.49,194.474 
		277.49,194.233 277.25,193.992 277.011,193.992 277.011,193.751 276.772,193.751 276.522,193.751 276.283,193.751 276.043,193.51 
		275.824,193.51 275.584,193.51 275.345,193.751 275.106,193.751 274.856,193.751 274.617,193.992 274.377,193.992 274.377,194.233 
		274.138,194.474 273.899,194.715 273.899,194.957 273.649,195.199 273.649,195.44 273.649,195.681 273.649,195.922 
		273.649,196.163 273.649,196.404 273.899,196.645 273.899,196.887 274.138,197.104 274.377,197.345 274.377,197.586 
		274.617,197.586 274.856,197.828 275.106,197.828 275.345,197.828 275.584,198.069 275.824,198.069 	"/>
	
		<line clip-path="url(#SVGID_2_)" fill="none" stroke="#1F1A17" stroke-width="0.2413" stroke-linejoin="round" stroke-miterlimit="10" x1="4.694" y1="202.652" x2="4.936" y2="258.137"/>
	<polygon clip-path="url(#SVGID_2_)" fill-rule="evenodd" clip-rule="evenodd" points="4.803,205.874 5.044,205.874 5.286,205.874 
		5.527,205.874 5.769,205.631 6.01,205.631 6.01,205.39 6.227,205.39 6.468,205.149 6.71,204.908 6.71,204.667 6.951,204.426 
		6.951,204.185 6.951,203.943 6.951,203.702 6.951,203.46 6.951,203.219 6.951,202.978 6.951,202.737 6.71,202.737 6.71,202.496 
		6.468,202.279 6.468,202.037 6.227,202.037 6.01,201.796 5.769,201.796 5.527,201.555 5.286,201.555 5.044,201.555 4.803,201.555 
		4.562,201.555 4.32,201.555 4.079,201.555 4.079,201.796 3.837,201.796 3.596,201.796 3.354,202.037 3.114,202.279 2.873,202.496 
		2.873,202.737 2.631,202.978 2.631,203.219 2.631,203.46 2.631,203.702 2.631,203.943 2.631,204.185 2.631,204.426 2.873,204.426 
		2.873,204.667 2.873,204.908 3.114,205.149 3.354,205.149 3.354,205.39 3.596,205.39 3.837,205.631 4.079,205.631 4.079,205.874 
		4.32,205.874 4.562,205.874 	"/>
	
		<polyline clip-path="url(#SVGID_2_)" fill="none" stroke="#1F1A17" stroke-width="0.2413" stroke-linejoin="round" stroke-miterlimit="10" points="
		5.177,206.247 5.419,206.247 5.66,206.247 5.902,206.247 6.143,206.006 6.384,206.006 6.384,205.765 6.601,205.765 6.842,205.523 
		7.084,205.282 7.084,205.041 7.325,204.799 7.325,204.558 7.325,204.317 7.325,204.076 7.325,203.834 7.325,203.593 7.325,203.352 
		7.325,203.111 7.084,203.111 7.084,202.87 6.842,202.652 6.842,202.412 6.601,202.412 6.384,202.17 6.143,202.17 5.902,201.928 
		5.66,201.928 5.419,201.928 5.177,201.928 4.936,201.928 4.694,201.928 4.453,201.928 4.453,202.17 4.211,202.17 3.97,202.17 
		3.729,202.412 3.488,202.652 3.247,202.87 3.247,203.111 3.005,203.352 3.005,203.593 3.005,203.834 3.005,204.076 3.005,204.317 
		3.005,204.558 3.005,204.799 3.247,204.799 3.247,205.041 3.247,205.282 3.488,205.523 3.729,205.523 3.729,205.765 3.97,205.765 
		4.211,206.006 4.453,206.006 4.453,206.247 4.694,206.247 4.936,206.247 5.177,206.247 	"/>
	
		<line clip-path="url(#SVGID_2_)" fill="none" stroke="#1F1A17" stroke-width="0.2413" stroke-linejoin="round" stroke-miterlimit="10" x1="277.011" y1="210.324" x2="277.011" y2="259.802"/>
	<polygon clip-path="url(#SVGID_2_)" fill-rule="evenodd" clip-rule="evenodd" points="276.153,214.027 276.393,214.027 
		276.632,214.027 276.872,214.027 277.121,214.027 277.361,213.786 277.6,213.786 277.6,213.568 277.839,213.568 278.079,213.327 
		278.079,213.086 278.329,213.086 278.329,212.845 278.329,212.603 278.329,212.362 278.568,212.121 278.568,211.88 
		278.568,211.639 278.329,211.397 278.329,211.156 278.329,210.915 278.079,210.673 278.079,210.432 277.839,210.432 277.6,210.191 
		277.361,209.95 277.121,209.95 276.872,209.95 276.632,209.709 276.393,209.709 276.153,209.709 275.914,209.709 275.665,209.709 
		275.665,209.95 275.455,209.95 275.206,209.95 274.966,210.191 274.727,210.191 274.727,210.432 274.487,210.432 274.487,210.673 
		274.248,210.915 274.248,211.156 274.008,211.397 274.008,211.639 274.008,211.88 274.008,212.121 274.008,212.362 
		274.008,212.603 274.248,212.845 274.248,213.086 274.487,213.086 274.487,213.327 274.727,213.568 274.966,213.786 
		275.206,213.786 275.455,214.027 275.665,214.027 275.914,214.027 	"/>
	
		<polyline clip-path="url(#SVGID_2_)" fill="none" stroke="#1F1A17" stroke-width="0.2413" stroke-linejoin="round" stroke-miterlimit="10" points="
		276.522,214.401 276.772,214.401 277.011,214.401 277.25,214.401 277.49,214.401 277.73,214.159 277.979,214.159 277.979,213.942 
		278.218,213.942 278.458,213.701 278.458,213.46 278.698,213.46 278.698,213.219 278.698,212.978 278.698,212.736 278.937,212.496 
		278.937,212.253 278.937,212.012 278.698,211.771 278.698,211.53 278.698,211.289 278.458,211.048 278.458,210.807 
		278.218,210.807 277.979,210.565 277.73,210.324 277.49,210.324 277.25,210.324 277.011,210.083 276.772,210.083 276.522,210.083 
		276.283,210.083 276.043,210.083 276.043,210.324 275.824,210.324 275.584,210.324 275.345,210.565 275.106,210.565 
		275.106,210.807 274.856,210.807 274.856,211.048 274.617,211.289 274.617,211.53 274.377,211.771 274.377,212.012 
		274.377,212.253 274.377,212.496 274.377,212.736 274.377,212.978 274.617,213.219 274.617,213.46 274.856,213.46 274.856,213.701 
		275.106,213.942 275.345,214.159 275.584,214.159 275.824,214.401 276.043,214.401 276.283,214.401 276.522,214.401 	"/>
	<g clip-path="url(#SVGID_2_)">
		<defs>
			<rect id="SVGID_51_" x="11.754" y="208.019" width="78.228" height="34.353"/>
		</defs>
		<clipPath id="SVGID_52_">
			<use xlink:href="#SVGID_51_"  overflow="visible"/>
		</clipPath>
		<g clip-path="url(#SVGID_52_)">
			<defs>
				<rect id="SVGID_53_" x="11.754" y="208.019" width="77.986" height="34.353"/>
			</defs>
			<clipPath id="SVGID_54_">
				<use xlink:href="#SVGID_53_"  overflow="visible"/>
			</clipPath>
			<g clip-path="url(#SVGID_54_)">
				<path fill="#1F1A17" d="M12.682,219.55v-8.592h3.246c0.571,0,1.007,0.027,1.309,0.082c0.422,0.07,0.776,0.204,1.062,0.401
					s0.516,0.474,0.689,0.83c0.174,0.355,0.261,0.746,0.261,1.172c0,0.731-0.232,1.349-0.698,1.855s-1.307,0.759-2.524,0.759h-2.207
					v3.493H12.682z M13.821,215.043h2.225c0.735,0,1.258-0.137,1.567-0.41s0.463-0.659,0.463-1.155c0-0.359-0.091-0.667-0.273-0.923
					c-0.182-0.256-0.421-0.425-0.719-0.507c-0.192-0.05-0.546-0.076-1.063-0.076h-2.201V215.043z"/>
				<path fill="#1F1A17" d="M20.457,219.55v-8.592h1.056v8.592H20.457z"/>
				<path fill="#1F1A17" d="M28.119,218.783c-0.391,0.332-0.768,0.566-1.129,0.703c-0.362,0.137-0.75,0.205-1.165,0.205
					c-0.685,0-1.211-0.167-1.579-0.501s-0.552-0.761-0.552-1.281c0-0.305,0.07-0.583,0.208-0.835
					c0.139-0.252,0.321-0.454,0.546-0.606c0.225-0.153,0.479-0.268,0.76-0.346c0.207-0.055,0.52-0.107,0.939-0.158
					c0.853-0.102,1.481-0.223,1.884-0.363c0.004-0.145,0.006-0.236,0.006-0.275c0-0.43-0.1-0.732-0.299-0.908
					c-0.27-0.238-0.671-0.358-1.203-0.358c-0.497,0-0.864,0.087-1.101,0.261s-0.412,0.481-0.525,0.923l-1.033-0.141
					c0.094-0.441,0.249-0.798,0.464-1.07c0.215-0.271,0.526-0.48,0.933-0.627c0.407-0.146,0.878-0.22,1.415-0.22
					c0.532,0,0.964,0.063,1.297,0.188s0.577,0.282,0.733,0.472c0.157,0.19,0.266,0.429,0.329,0.718
					c0.035,0.18,0.053,0.504,0.053,0.973v1.407c0,0.98,0.022,1.601,0.067,1.861s0.134,0.509,0.267,0.747h-1.104
					C28.221,219.332,28.15,219.076,28.119,218.783z M28.031,216.427c-0.383,0.156-0.958,0.289-1.726,0.398
					c-0.434,0.063-0.741,0.133-0.921,0.211c-0.18,0.078-0.319,0.192-0.417,0.343c-0.098,0.15-0.147,0.317-0.147,0.501
					c0,0.281,0.107,0.516,0.32,0.704c0.213,0.188,0.525,0.281,0.937,0.281c0.407,0,0.769-0.089,1.085-0.267s0.55-0.421,0.699-0.73
					c0.113-0.238,0.17-0.59,0.17-1.055V216.427z"/>
				<path fill="#1F1A17" d="M30.737,219.55v-6.224h0.951v0.885c0.458-0.684,1.119-1.025,1.984-1.025
					c0.375,0,0.721,0.067,1.036,0.202s0.551,0.312,0.708,0.53c0.156,0.219,0.266,0.479,0.329,0.78
					c0.039,0.195,0.059,0.537,0.059,1.025v3.827h-1.057v-3.786c0-0.43-0.041-0.751-0.123-0.964s-0.228-0.383-0.438-0.51
					c-0.209-0.127-0.455-0.191-0.736-0.191c-0.45,0-0.838,0.143-1.165,0.428s-0.49,0.826-0.49,1.623v3.399H30.737z"/>
				<path fill="#1F1A17" d="M40.245,218.607l0.153,0.932c-0.297,0.063-0.563,0.094-0.798,0.094c-0.383,0-0.681-0.061-0.892-0.182
					c-0.211-0.121-0.36-0.28-0.446-0.478c-0.086-0.197-0.129-0.613-0.129-1.246v-3.581h-0.774v-0.82h0.774v-1.542l1.051-0.633v2.174
					h1.062v0.82h-1.062v3.64c0,0.301,0.019,0.495,0.056,0.58c0.037,0.086,0.098,0.155,0.182,0.206
					c0.084,0.051,0.204,0.076,0.361,0.076C39.899,218.648,40.054,218.634,40.245,218.607z"/>
			</g>
		</g>
		<g clip-path="url(#SVGID_52_)">
			<defs>
				<rect id="SVGID_55_" x="11.754" y="208.019" width="77.986" height="34.353"/>
			</defs>
			<clipPath id="SVGID_56_">
				<use xlink:href="#SVGID_55_"  overflow="visible"/>
			</clipPath>
			<g clip-path="url(#SVGID_56_)">
				<path fill="#1F1A17" d="M16.591,233.252v-0.785c-0.395,0.617-0.976,0.926-1.743,0.926c-0.497,0-0.954-0.137-1.37-0.41
					c-0.417-0.273-0.74-0.655-0.968-1.146c-0.229-0.49-0.344-1.054-0.344-1.69c0-0.622,0.104-1.185,0.311-1.691
					c0.208-0.506,0.519-0.894,0.934-1.164c0.415-0.27,0.878-0.404,1.391-0.404c0.376,0,0.71,0.079,1.004,0.237
					s0.532,0.364,0.716,0.618v-3.083h1.051v8.592H16.591z M13.251,230.146c0,0.797,0.168,1.393,0.505,1.787
					c0.336,0.395,0.733,0.592,1.191,0.592c0.461,0,0.854-0.188,1.177-0.566c0.323-0.377,0.484-0.952,0.484-1.726
					c0-0.852-0.164-1.477-0.493-1.875c-0.329-0.399-0.734-0.598-1.215-0.598c-0.47,0-0.862,0.192-1.177,0.575
					S13.251,229.322,13.251,230.146z"/>
				<path fill="#1F1A17" d="M24.22,231.248l1.092,0.135c-0.172,0.637-0.491,1.131-0.957,1.483c-0.466,0.352-1.061,0.527-1.784,0.527
					c-0.912,0-1.635-0.28-2.169-0.841s-0.801-1.347-0.801-2.359c0-1.047,0.27-1.86,0.81-2.438c0.54-0.578,1.24-0.867,2.101-0.867
					c0.833,0,1.514,0.283,2.042,0.85c0.528,0.567,0.792,1.364,0.792,2.392c0,0.063-0.002,0.156-0.006,0.281h-4.648
					c0.039,0.684,0.233,1.207,0.581,1.57c0.348,0.364,0.783,0.545,1.303,0.545c0.387,0,0.718-0.102,0.992-0.305
					S24.06,231.693,24.22,231.248z M20.751,229.542h3.48c-0.047-0.523-0.18-0.916-0.399-1.178c-0.336-0.406-0.773-0.61-1.309-0.61
					c-0.485,0-0.893,0.163-1.224,0.487S20.787,229,20.751,229.542z"/>
				<path fill="#1F1A17" d="M26.422,233.252v-6.224h0.945v0.873c0.195-0.305,0.456-0.55,0.781-0.735
					c0.325-0.186,0.694-0.278,1.109-0.278c0.462,0,0.84,0.096,1.136,0.287s0.504,0.459,0.625,0.803
					c0.493-0.727,1.135-1.09,1.925-1.09c0.618,0,1.093,0.171,1.426,0.513c0.333,0.342,0.499,0.869,0.499,1.58v4.272h-1.05v-3.921
					c0-0.422-0.035-0.726-0.103-0.911s-0.192-0.335-0.373-0.449c-0.18-0.113-0.391-0.17-0.634-0.17
					c-0.438,0-0.802,0.146-1.092,0.437s-0.434,0.757-0.434,1.397v3.616h-1.057v-4.044c0-0.469-0.086-0.82-0.258-1.055
					c-0.172-0.235-0.454-0.352-0.845-0.352c-0.297,0-0.572,0.079-0.824,0.235s-0.436,0.385-0.549,0.686
					c-0.114,0.301-0.17,0.734-0.17,1.301v3.229H26.422z"/>
				<path fill="#1F1A17" d="M41.499,232.485c-0.391,0.332-0.768,0.566-1.129,0.703c-0.362,0.137-0.75,0.205-1.165,0.205
					c-0.685,0-1.211-0.167-1.579-0.501s-0.552-0.761-0.552-1.281c0-0.305,0.07-0.583,0.208-0.835
					c0.139-0.252,0.321-0.454,0.546-0.606c0.225-0.153,0.479-0.268,0.76-0.346c0.207-0.055,0.52-0.107,0.939-0.158
					c0.853-0.102,1.481-0.223,1.884-0.363c0.004-0.145,0.006-0.236,0.006-0.275c0-0.43-0.1-0.732-0.299-0.908
					c-0.27-0.238-0.671-0.358-1.203-0.358c-0.497,0-0.864,0.087-1.101,0.261s-0.412,0.481-0.525,0.923l-1.033-0.141
					c0.094-0.441,0.249-0.798,0.464-1.07c0.215-0.271,0.526-0.48,0.933-0.627c0.407-0.146,0.878-0.22,1.415-0.22
					c0.532,0,0.964,0.063,1.297,0.188s0.577,0.282,0.733,0.472c0.157,0.19,0.266,0.429,0.329,0.718
					c0.035,0.18,0.053,0.504,0.053,0.973v1.407c0,0.98,0.022,1.601,0.067,1.861s0.134,0.509,0.267,0.747H41.71
					C41.601,233.034,41.53,232.778,41.499,232.485z M41.411,230.129c-0.383,0.156-0.958,0.289-1.726,0.398
					c-0.434,0.063-0.741,0.133-0.921,0.211c-0.18,0.078-0.319,0.192-0.417,0.343c-0.098,0.15-0.147,0.317-0.147,0.501
					c0,0.281,0.107,0.516,0.32,0.704c0.213,0.188,0.525,0.281,0.937,0.281c0.407,0,0.769-0.089,1.085-0.267s0.55-0.421,0.699-0.73
					c0.113-0.238,0.17-0.59,0.17-1.055V230.129z"/>
				<path fill="#1F1A17" d="M44.117,233.252v-6.224h0.951v0.885c0.458-0.684,1.119-1.025,1.984-1.025
					c0.375,0,0.721,0.067,1.036,0.202s0.551,0.312,0.708,0.53c0.156,0.219,0.266,0.479,0.329,0.78
					c0.039,0.195,0.059,0.537,0.059,1.025v3.827h-1.057v-3.786c0-0.43-0.041-0.751-0.123-0.964s-0.228-0.383-0.438-0.51
					c-0.209-0.127-0.455-0.191-0.736-0.191c-0.45,0-0.838,0.143-1.165,0.428s-0.49,0.826-0.49,1.623v3.399H44.117z"/>
				<path fill="#1F1A17" d="M55.362,233.252v-0.785c-0.395,0.617-0.976,0.926-1.743,0.926c-0.497,0-0.954-0.137-1.37-0.41
					c-0.417-0.273-0.74-0.655-0.968-1.146c-0.229-0.49-0.344-1.054-0.344-1.69c0-0.622,0.104-1.185,0.311-1.691
					c0.208-0.506,0.519-0.894,0.934-1.164c0.415-0.27,0.878-0.404,1.391-0.404c0.376,0,0.71,0.079,1.004,0.237
					s0.532,0.364,0.716,0.618v-3.083h1.051v8.592H55.362z M52.023,230.146c0,0.797,0.168,1.393,0.505,1.787
					c0.336,0.395,0.733,0.592,1.191,0.592c0.461,0,0.854-0.188,1.177-0.566c0.323-0.377,0.484-0.952,0.484-1.726
					c0-0.852-0.164-1.477-0.493-1.875c-0.329-0.399-0.734-0.598-1.215-0.598c-0.47,0-0.862,0.192-1.177,0.575
					S52.023,229.322,52.023,230.146z"/>
				<path fill="#1F1A17" d="M62.122,231.395l1.045-0.164c0.059,0.418,0.222,0.738,0.49,0.961c0.268,0.223,0.643,0.334,1.124,0.334
					c0.485,0,0.845-0.099,1.08-0.296s0.352-0.429,0.352-0.695c0-0.238-0.104-0.426-0.311-0.563c-0.145-0.094-0.505-0.213-1.08-0.357
					c-0.774-0.195-1.312-0.364-1.611-0.507s-0.526-0.34-0.681-0.592c-0.155-0.252-0.232-0.53-0.232-0.835
					c0-0.277,0.063-0.534,0.19-0.771c0.127-0.236,0.3-0.433,0.52-0.589c0.165-0.121,0.388-0.224,0.672-0.308
					c0.283-0.084,0.587-0.126,0.913-0.126c0.489,0,0.918,0.07,1.288,0.211s0.643,0.331,0.819,0.571
					c0.176,0.24,0.297,0.562,0.364,0.964l-1.033,0.141c-0.047-0.32-0.183-0.57-0.408-0.75s-0.543-0.27-0.954-0.27
					c-0.485,0-0.832,0.08-1.039,0.241c-0.207,0.16-0.311,0.348-0.311,0.563c0,0.137,0.043,0.26,0.129,0.369
					c0.086,0.113,0.221,0.207,0.405,0.281c0.105,0.039,0.417,0.129,0.933,0.27c0.748,0.199,1.269,0.363,1.564,0.489
					c0.295,0.127,0.527,0.312,0.695,0.554c0.168,0.242,0.252,0.543,0.252,0.902c0,0.352-0.103,0.683-0.308,0.994
					c-0.206,0.311-0.502,0.551-0.889,0.721c-0.388,0.17-0.826,0.255-1.315,0.255c-0.81,0-1.427-0.168-1.852-0.504
					C62.51,232.553,62.24,232.055,62.122,231.395z"/>
				<path fill="#1F1A17" d="M68.561,225.874v-1.213h1.056v1.213H68.561z M68.561,233.252v-6.224h1.056v6.224H68.561z"/>
				<path fill="#1F1A17" d="M76.17,233.252v-0.785c-0.395,0.617-0.976,0.926-1.743,0.926c-0.497,0-0.954-0.137-1.37-0.41
					c-0.417-0.273-0.74-0.655-0.968-1.146c-0.229-0.49-0.344-1.054-0.344-1.69c0-0.622,0.104-1.185,0.311-1.691
					c0.208-0.506,0.519-0.894,0.934-1.164c0.415-0.27,0.878-0.404,1.391-0.404c0.376,0,0.71,0.079,1.004,0.237
					s0.532,0.364,0.716,0.618v-3.083h1.051v8.592H76.17z M72.831,230.146c0,0.797,0.168,1.393,0.505,1.787
					c0.336,0.395,0.733,0.592,1.191,0.592c0.461,0,0.854-0.188,1.177-0.566c0.323-0.377,0.484-0.952,0.484-1.726
					c0-0.852-0.164-1.477-0.493-1.875c-0.329-0.399-0.734-0.598-1.215-0.598c-0.47,0-0.862,0.192-1.177,0.575
					S72.831,229.322,72.831,230.146z"/>
				<path fill="#1F1A17" d="M83.8,231.248l1.092,0.135c-0.172,0.637-0.491,1.131-0.957,1.483c-0.466,0.352-1.061,0.527-1.784,0.527
					c-0.912,0-1.635-0.28-2.169-0.841s-0.801-1.347-0.801-2.359c0-1.047,0.27-1.86,0.81-2.438c0.54-0.578,1.24-0.867,2.101-0.867
					c0.833,0,1.514,0.283,2.042,0.85c0.528,0.567,0.792,1.364,0.792,2.392c0,0.063-0.002,0.156-0.006,0.281h-4.648
					c0.039,0.684,0.233,1.207,0.581,1.57c0.348,0.364,0.783,0.545,1.303,0.545c0.387,0,0.718-0.102,0.992-0.305
					S83.639,231.693,83.8,231.248z M80.331,229.542h3.48c-0.047-0.523-0.18-0.916-0.399-1.178c-0.336-0.406-0.773-0.61-1.309-0.61
					c-0.485,0-0.893,0.163-1.224,0.487S80.366,229,80.331,229.542z"/>
			</g>
		</g>
		<g clip-path="url(#SVGID_52_)">
			<defs>
				<rect id="SVGID_57_" x="11.754" y="208.019" width="77.986" height="34.353"/>
			</defs>
			<clipPath id="SVGID_58_">
				<use xlink:href="#SVGID_57_"  overflow="visible"/>
			</clipPath>
		</g>
	</g>
	<g clip-path="url(#SVGID_2_)">
		<defs>
			<rect id="SVGID_59_" x="198.435" y="176.562" width="70.771" height="16.814"/>
		</defs>
		<clipPath id="SVGID_60_">
			<use xlink:href="#SVGID_59_"  overflow="visible"/>
		</clipPath>
		<g clip-path="url(#SVGID_60_)">
			<defs>
				<rect id="SVGID_61_" x="198.435" y="176.562" width="70.529" height="16.814"/>
			</defs>
			<clipPath id="SVGID_62_">
				<use xlink:href="#SVGID_61_"  overflow="visible"/>
			</clipPath>
			<g clip-path="url(#SVGID_62_)">
				<path fill="#1F1A17" d="M199.362,188.092V179.5h3.246c0.571,0,1.007,0.027,1.309,0.082c0.422,0.07,0.776,0.204,1.062,0.401
					s0.516,0.474,0.689,0.83c0.174,0.355,0.261,0.746,0.261,1.172c0,0.731-0.232,1.349-0.698,1.855s-1.307,0.759-2.524,0.759h-2.207
					v3.493H199.362z M200.501,183.585h2.225c0.735,0,1.258-0.137,1.567-0.41s0.463-0.659,0.463-1.155
					c0-0.359-0.091-0.667-0.273-0.923c-0.182-0.256-0.421-0.425-0.719-0.507c-0.192-0.05-0.546-0.076-1.063-0.076h-2.201V183.585z"
					/>
				<path fill="#1F1A17" d="M207.137,188.092V179.5h1.056v8.592H207.137z"/>
				<path fill="#1F1A17" d="M214.799,187.325c-0.391,0.332-0.768,0.566-1.129,0.703c-0.362,0.137-0.75,0.205-1.165,0.205
					c-0.685,0-1.211-0.167-1.579-0.501s-0.552-0.761-0.552-1.281c0-0.305,0.07-0.583,0.208-0.835
					c0.139-0.252,0.321-0.454,0.546-0.606c0.225-0.153,0.479-0.268,0.76-0.346c0.207-0.055,0.52-0.107,0.939-0.158
					c0.853-0.102,1.481-0.223,1.884-0.363c0.004-0.145,0.006-0.236,0.006-0.275c0-0.43-0.1-0.732-0.299-0.908
					c-0.27-0.238-0.671-0.358-1.203-0.358c-0.497,0-0.864,0.087-1.101,0.261s-0.412,0.481-0.525,0.923l-1.033-0.141
					c0.094-0.441,0.249-0.798,0.464-1.07c0.215-0.271,0.526-0.48,0.933-0.627c0.407-0.146,0.878-0.22,1.415-0.22
					c0.532,0,0.964,0.063,1.297,0.188s0.577,0.282,0.733,0.472c0.157,0.19,0.266,0.429,0.329,0.718
					c0.035,0.18,0.053,0.504,0.053,0.973v1.407c0,0.98,0.022,1.601,0.067,1.861s0.134,0.509,0.267,0.747h-1.104
					C214.901,187.874,214.831,187.618,214.799,187.325z M214.711,184.969c-0.383,0.156-0.958,0.289-1.726,0.398
					c-0.434,0.063-0.741,0.133-0.921,0.211c-0.18,0.078-0.319,0.192-0.417,0.343c-0.098,0.15-0.147,0.317-0.147,0.501
					c0,0.281,0.107,0.516,0.32,0.704c0.213,0.188,0.525,0.281,0.937,0.281c0.407,0,0.769-0.089,1.085-0.267s0.55-0.421,0.699-0.73
					c0.113-0.238,0.17-0.59,0.17-1.055V184.969z"/>
				<path fill="#1F1A17" d="M217.417,188.092v-6.224h0.951v0.885c0.458-0.684,1.119-1.025,1.984-1.025
					c0.375,0,0.721,0.067,1.036,0.202s0.551,0.312,0.708,0.53c0.156,0.219,0.266,0.479,0.329,0.78
					c0.039,0.195,0.059,0.537,0.059,1.025v3.827h-1.057v-3.786c0-0.43-0.041-0.751-0.123-0.964s-0.228-0.383-0.438-0.51
					c-0.209-0.127-0.455-0.191-0.736-0.191c-0.45,0-0.838,0.143-1.165,0.428s-0.49,0.826-0.49,1.623v3.399H217.417z"/>
				<path fill="#1F1A17" d="M226.925,187.149l0.153,0.932c-0.297,0.063-0.563,0.094-0.798,0.094c-0.383,0-0.681-0.061-0.892-0.182
					c-0.211-0.121-0.36-0.28-0.446-0.478c-0.086-0.197-0.129-0.613-0.129-1.246v-3.581h-0.774v-0.82h0.774v-1.542l1.051-0.633v2.174
					h1.062v0.82h-1.062v3.64c0,0.301,0.019,0.495,0.056,0.58c0.037,0.086,0.098,0.155,0.182,0.206
					c0.084,0.051,0.204,0.076,0.361,0.076C226.579,187.19,226.734,187.176,226.925,187.149z"/>
			</g>
		</g>
		<g clip-path="url(#SVGID_60_)">
			<defs>
				<rect id="SVGID_63_" x="198.435" y="176.562" width="70.529" height="16.814"/>
			</defs>
			<clipPath id="SVGID_64_">
				<use xlink:href="#SVGID_63_"  overflow="visible"/>
			</clipPath>
			<g clip-path="url(#SVGID_64_)">
				<path fill="#1F1A17" d="M198.805,200.638l1.045-0.164c0.059,0.418,0.222,0.738,0.49,0.961c0.268,0.223,0.643,0.334,1.124,0.334
					c0.485,0,0.845-0.099,1.08-0.296s0.352-0.429,0.352-0.695c0-0.238-0.104-0.426-0.311-0.563c-0.145-0.094-0.505-0.213-1.08-0.357
					c-0.774-0.195-1.312-0.364-1.611-0.507s-0.526-0.34-0.681-0.592c-0.155-0.252-0.232-0.53-0.232-0.835
					c0-0.277,0.063-0.534,0.19-0.771c0.127-0.236,0.3-0.433,0.52-0.589c0.165-0.121,0.388-0.224,0.672-0.308
					c0.283-0.084,0.587-0.126,0.913-0.126c0.489,0,0.918,0.07,1.288,0.211s0.643,0.331,0.819,0.571
					c0.176,0.24,0.297,0.562,0.364,0.964l-1.033,0.141c-0.047-0.32-0.183-0.57-0.408-0.75s-0.543-0.27-0.954-0.27
					c-0.485,0-0.832,0.08-1.039,0.241c-0.207,0.16-0.311,0.348-0.311,0.563c0,0.137,0.043,0.26,0.129,0.369
					c0.086,0.113,0.221,0.207,0.405,0.281c0.105,0.039,0.417,0.129,0.933,0.27c0.748,0.199,1.269,0.363,1.564,0.489
					c0.295,0.127,0.527,0.312,0.695,0.554c0.168,0.242,0.252,0.543,0.252,0.902c0,0.352-0.103,0.683-0.308,0.994
					c-0.206,0.311-0.502,0.551-0.889,0.721c-0.388,0.17-0.826,0.255-1.315,0.255c-0.81,0-1.427-0.168-1.852-0.504
					C199.193,201.796,198.922,201.298,198.805,200.638z"/>
				<path fill="#1F1A17" d="M209.322,202.496v-0.914c-0.485,0.703-1.144,1.055-1.978,1.055c-0.368,0-0.711-0.07-1.03-0.211
					s-0.556-0.317-0.71-0.53c-0.155-0.213-0.263-0.474-0.326-0.783c-0.043-0.207-0.064-0.535-0.064-0.984v-3.856h1.056v3.452
					c0,0.551,0.021,0.922,0.064,1.113c0.067,0.277,0.208,0.495,0.423,0.654c0.215,0.158,0.481,0.237,0.798,0.237
					c0.317,0,0.614-0.081,0.892-0.243c0.277-0.162,0.474-0.383,0.59-0.663c0.115-0.279,0.173-0.685,0.173-1.216v-3.335h1.057v6.224
					H209.322z"/>
				<path fill="#1F1A17" d="M212.403,204.881v-8.609h0.962v0.809c0.227-0.316,0.483-0.554,0.769-0.712
					c0.285-0.158,0.632-0.237,1.039-0.237c0.532,0,1.001,0.137,1.409,0.41c0.407,0.273,0.714,0.659,0.921,1.158
					c0.208,0.498,0.311,1.044,0.311,1.638c0,0.637-0.114,1.21-0.343,1.72c-0.229,0.51-0.562,0.901-0.998,1.172
					c-0.436,0.271-0.895,0.407-1.376,0.407c-0.352,0-0.668-0.074-0.948-0.223c-0.28-0.148-0.51-0.336-0.69-0.563v3.03H212.403z
					 M213.36,199.419c0,0.801,0.162,1.393,0.487,1.775c0.325,0.383,0.718,0.575,1.18,0.575c0.469,0,0.872-0.198,1.206-0.595
					c0.334-0.396,0.501-1.011,0.501-1.843c0-0.793-0.163-1.387-0.49-1.781s-0.717-0.592-1.171-0.592c-0.45,0-0.848,0.21-1.194,0.63
					S213.36,198.618,213.36,199.419z"/>
				<path fill="#1F1A17" d="M219.809,204.881v-8.609h0.962v0.809c0.227-0.316,0.483-0.554,0.769-0.712
					c0.285-0.158,0.632-0.237,1.039-0.237c0.532,0,1.001,0.137,1.409,0.41c0.407,0.273,0.714,0.659,0.921,1.158
					c0.208,0.498,0.311,1.044,0.311,1.638c0,0.637-0.114,1.21-0.343,1.72c-0.229,0.51-0.562,0.901-0.998,1.172
					c-0.436,0.271-0.895,0.407-1.376,0.407c-0.352,0-0.668-0.074-0.948-0.223c-0.28-0.148-0.51-0.336-0.69-0.563v3.03H219.809z
					 M220.766,199.419c0,0.801,0.162,1.393,0.487,1.775c0.325,0.383,0.718,0.575,1.18,0.575c0.469,0,0.872-0.198,1.206-0.595
					c0.334-0.396,0.501-1.011,0.501-1.843c0-0.793-0.163-1.387-0.49-1.781s-0.717-0.592-1.171-0.592c-0.45,0-0.848,0.21-1.194,0.63
					S220.766,198.618,220.766,199.419z"/>
				<path fill="#1F1A17" d="M226.951,202.496v-8.592h1.056v8.592H226.951z"/>
				<path fill="#1F1A17" d="M230.5,204.893l-0.118-0.99c0.231,0.063,0.432,0.094,0.604,0.094c0.235,0,0.423-0.039,0.563-0.117
					c0.141-0.079,0.256-0.188,0.346-0.328c0.066-0.106,0.174-0.368,0.323-0.786c0.02-0.059,0.051-0.145,0.094-0.258l-2.365-6.236
					h1.139l1.297,3.604c0.168,0.457,0.319,0.938,0.452,1.441c0.122-0.484,0.266-0.957,0.435-1.418l1.332-3.628h1.057l-2.371,6.33
					c-0.254,0.684-0.452,1.155-0.593,1.413c-0.188,0.348-0.403,0.603-0.646,0.765s-0.532,0.243-0.869,0.243
					C230.977,205.021,230.75,204.979,230.5,204.893z"/>
			</g>
		</g>
		<g clip-path="url(#SVGID_60_)">
			<defs>
				<rect id="SVGID_65_" x="198.435" y="176.562" width="70.529" height="16.814"/>
			</defs>
			<clipPath id="SVGID_66_">
				<use xlink:href="#SVGID_65_"  overflow="visible"/>
			</clipPath>
		</g>
	</g>
	<g clip-path="url(#SVGID_2_)">
		<defs>
			<rect id="SVGID_67_" x="210.427" y="198.419" width="34.54" height="16.332"/>
		</defs>
		<clipPath id="SVGID_68_">
			<use xlink:href="#SVGID_67_"  overflow="visible"/>
		</clipPath>
		<g clip-path="url(#SVGID_68_)">
			<defs>
				<rect id="SVGID_69_" x="210.427" y="198.419" width="34.299" height="16.332"/>
			</defs>
			<clipPath id="SVGID_70_">
				<use xlink:href="#SVGID_69_"  overflow="visible"/>
			</clipPath>
			<g clip-path="url(#SVGID_70_)">
				<path d="M211.197,209.641c0.469,0.288,1.154,0.528,1.876,0.528c1.07,0,1.695-0.564,1.695-1.381c0-0.756-0.433-1.189-1.527-1.609
					c-1.322-0.468-2.14-1.153-2.14-2.293c0-1.261,1.046-2.198,2.621-2.198c0.83,0,1.431,0.192,1.792,0.396l-0.289,0.853
					c-0.264-0.144-0.805-0.384-1.539-0.384c-1.106,0-1.527,0.661-1.527,1.213c0,0.756,0.493,1.129,1.611,1.561
					c1.371,0.528,2.068,1.189,2.068,2.378c0,1.249-0.926,2.33-2.837,2.33c-0.782,0-1.635-0.228-2.068-0.517L211.197,209.641z"/>
				<path d="M218.409,203.468c0.012,0.36-0.252,0.648-0.673,0.648c-0.373,0-0.637-0.288-0.637-0.648
					c0-0.373,0.276-0.661,0.661-0.661C218.157,202.808,218.409,203.096,218.409,203.468z M217.231,210.914v-5.812h1.058v5.812
					H217.231z"/>
				<path d="M224.841,202.387v7.025c0,0.516,0.012,1.104,0.048,1.501h-0.95l-0.048-1.009h-0.024
					c-0.325,0.648-1.034,1.141-1.984,1.141c-1.407,0-2.489-1.189-2.489-2.955c-0.012-1.933,1.19-3.122,2.609-3.122
					c0.89,0,1.491,0.42,1.756,0.889h0.024v-3.471H224.841z M223.783,207.467c0-0.132-0.012-0.313-0.048-0.444
					c-0.156-0.673-0.733-1.225-1.527-1.225c-1.094,0-1.744,0.961-1.744,2.246c0,1.177,0.577,2.149,1.72,2.149
					c0.709,0,1.358-0.468,1.551-1.261c0.036-0.144,0.048-0.288,0.048-0.457V207.467z"/>
				<path d="M227.111,208.2c0.024,1.429,0.938,2.018,1.996,2.018c0.757,0,1.214-0.132,1.611-0.3l0.18,0.756
					c-0.373,0.168-1.01,0.36-1.936,0.36c-1.792,0-2.861-1.177-2.861-2.93s1.034-3.134,2.729-3.134c1.899,0,2.405,1.669,2.405,2.738
					c0,0.216-0.024,0.384-0.036,0.493H227.111z M230.213,207.443c0.012-0.672-0.277-1.717-1.467-1.717
					c-1.07,0-1.539,0.984-1.623,1.717H230.213z"/>
			</g>
		</g>
		<g clip-path="url(#SVGID_68_)">
			<defs>
				<rect id="SVGID_71_" x="210.427" y="198.419" width="34.299" height="16.332"/>
			</defs>
			<clipPath id="SVGID_72_">
				<use xlink:href="#SVGID_71_"  overflow="visible"/>
			</clipPath>
			<g clip-path="url(#SVGID_72_)">
			</g>
		</g>
	</g>
</g>
<g>
</g>
</svg>
