<?xml version="1.0" encoding="utf-8"?>
<!-- Generator: Adobe Illustrator 16.0.0, SVG Export Plug-In . SVG Version: 6.00 Build 0)  -->
<!DOCTYPE svg PUBLIC "-//W3C//DTD SVG 1.1//EN" "http://www.w3.org/Graphics/SVG/1.1/DTD/svg11.dtd">
<svg version="1.1" id="Layer_1" xmlns="http://www.w3.org/2000/svg" xmlns:xlink="http://www.w3.org/1999/xlink" x="0px" y="0px"
	 width="467.892px" height="159.949px" viewBox="0 0 467.892 159.949" enable-background="new 0 0 467.892 159.949"
	 xml:space="preserve">
<g>
	<defs>
		<rect id="SVGID_1_" width="467.892" height="159.949"/>
	</defs>
	<clipPath id="SVGID_2_">
		<use xlink:href="#SVGID_1_"  overflow="visible"/>
	</clipPath>
	<g clip-path="url(#SVGID_2_)">
		<defs>
			<rect id="SVGID_3_" x="7.198" y="68.578" width="36.654" height="16.949"/>
		</defs>
		<clipPath id="SVGID_4_">
			<use xlink:href="#SVGID_3_"  overflow="visible"/>
		</clipPath>
		<g clip-path="url(#SVGID_4_)">
			<path d="M7.916,77.527v-7h2.63c0.536,0,0.965,0.071,1.289,0.213s0.577,0.359,0.76,0.654c0.184,0.294,0.275,0.603,0.275,0.924
				c0,0.299-0.081,0.581-0.244,0.845s-0.408,0.478-0.736,0.64c0.424,0.124,0.75,0.336,0.978,0.635
				c0.228,0.299,0.342,0.652,0.342,1.06c0,0.328-0.069,0.633-0.208,0.915s-0.31,0.499-0.514,0.652
				c-0.204,0.152-0.46,0.268-0.768,0.346c-0.308,0.078-0.685,0.117-1.131,0.117H7.916z M8.843,73.469h1.516
				c0.411,0,0.706-0.027,0.885-0.082c0.236-0.07,0.414-0.186,0.533-0.348c0.119-0.163,0.179-0.366,0.179-0.611
				c0-0.232-0.056-0.437-0.167-0.613c-0.112-0.177-0.271-0.298-0.478-0.363c-0.208-0.065-0.563-0.098-1.066-0.098H8.843V73.469z
				 M8.843,76.701h1.746c0.299,0,0.51-0.011,0.631-0.033c0.213-0.038,0.392-0.102,0.535-0.191c0.144-0.089,0.262-0.219,0.354-0.389
				c0.093-0.17,0.139-0.367,0.139-0.59c0-0.261-0.067-0.488-0.201-0.68s-0.32-0.328-0.557-0.406
				c-0.238-0.078-0.58-0.117-1.026-0.117H8.843V76.701z"/>
			<path d="M17.813,75.895l0.89,0.11c-0.14,0.519-0.4,0.921-0.779,1.208c-0.38,0.286-0.864,0.43-1.454,0.43
				c-0.743,0-1.332-0.229-1.767-0.685c-0.435-0.457-0.652-1.098-0.652-1.922c0-0.853,0.22-1.515,0.66-1.986
				c0.44-0.471,1.011-0.707,1.712-0.707c0.679,0,1.234,0.231,1.664,0.692c0.431,0.461,0.646,1.111,0.646,1.948
				c0,0.051-0.002,0.127-0.005,0.229h-3.788c0.032,0.557,0.19,0.983,0.474,1.279s0.638,0.444,1.062,0.444
				c0.315,0,0.585-0.083,0.808-0.249S17.683,76.257,17.813,75.895z M14.987,74.505h2.836c-0.039-0.427-0.147-0.747-0.325-0.96
				c-0.274-0.331-0.63-0.497-1.066-0.497c-0.396,0-0.728,0.132-0.997,0.396S15.016,74.063,14.987,74.505z"/>
			<path d="M23.098,76.902c-0.319,0.271-0.625,0.461-0.92,0.573c-0.295,0.112-0.611,0.167-0.949,0.167
				c-0.558,0-0.987-0.136-1.287-0.408c-0.299-0.272-0.449-0.62-0.449-1.043c0-0.248,0.057-0.475,0.169-0.68
				c0.113-0.206,0.262-0.37,0.445-0.494c0.184-0.124,0.39-0.218,0.62-0.282c0.169-0.044,0.424-0.087,0.765-0.129
				c0.695-0.083,1.207-0.182,1.535-0.296c0.003-0.118,0.005-0.193,0.005-0.225c0-0.35-0.081-0.597-0.244-0.74
				c-0.22-0.194-0.547-0.291-0.98-0.291c-0.405,0-0.704,0.071-0.896,0.212c-0.193,0.142-0.336,0.393-0.428,0.752l-0.842-0.115
				c0.077-0.359,0.203-0.65,0.378-0.871s0.429-0.392,0.76-0.511c0.332-0.12,0.716-0.179,1.153-0.179
				c0.433,0,0.786,0.051,1.057,0.153s0.47,0.23,0.598,0.384s0.217,0.35,0.268,0.585c0.028,0.146,0.043,0.411,0.043,0.792v1.146
				c0,0.799,0.018,1.304,0.055,1.516c0.037,0.212,0.109,0.415,0.218,0.609H23.27C23.181,77.349,23.123,77.141,23.098,76.902z
				 M23.026,74.982c-0.313,0.127-0.781,0.236-1.406,0.325c-0.354,0.051-0.604,0.108-0.751,0.172
				c-0.146,0.064-0.26,0.157-0.339,0.279s-0.12,0.259-0.12,0.408c0,0.229,0.087,0.42,0.261,0.573s0.428,0.229,0.763,0.229
				c0.332,0,0.626-0.072,0.885-0.217c0.258-0.145,0.448-0.343,0.569-0.594c0.093-0.194,0.139-0.481,0.139-0.859V74.982z"/>
			<path d="M25.23,77.527v-5.07H26v0.711c0.159-0.249,0.372-0.448,0.636-0.599c0.264-0.151,0.565-0.227,0.904-0.227
				c0.376,0,0.685,0.078,0.925,0.234c0.241,0.156,0.41,0.374,0.509,0.654c0.401-0.592,0.924-0.888,1.568-0.888
				c0.504,0,0.891,0.139,1.162,0.418c0.271,0.278,0.406,0.707,0.406,1.287v3.48h-0.856v-3.194c0-0.344-0.028-0.591-0.083-0.743
				s-0.157-0.273-0.304-0.365s-0.319-0.139-0.517-0.139c-0.357,0-0.653,0.119-0.889,0.356c-0.236,0.237-0.354,0.617-0.354,1.139
				v2.946h-0.861v-3.294c0-0.382-0.07-0.668-0.21-0.859s-0.37-0.287-0.688-0.287c-0.242,0-0.466,0.064-0.672,0.191
				c-0.206,0.127-0.355,0.313-0.447,0.559s-0.139,0.598-0.139,1.06v2.631H25.23z"/>
		</g>
	</g>
	
		<rect x="74.971" y="68.455" clip-path="url(#SVGID_2_)" fill="none" stroke="#000000" stroke-width="0.7095" stroke-linejoin="round" stroke-miterlimit="10" width="47.402" height="62.904"/>
	<rect x="49.875" y="68.578" clip-path="url(#SVGID_2_)" width="25.929" height="2.226"/>
	<rect x="49.507" y="98.024" clip-path="url(#SVGID_2_)" width="25.954" height="2.25"/>
	
		<line clip-path="url(#SVGID_2_)" fill="none" stroke="#000000" stroke-width="0.7095" stroke-linejoin="round" stroke-miterlimit="10" x1="36.897" y1="132.068" x2="158.345" y2="132.068"/>
	
		<rect x="220.576" y="68.455" clip-path="url(#SVGID_2_)" fill="none" stroke="#000000" stroke-width="0.7095" stroke-linejoin="round" stroke-miterlimit="10" width="47.402" height="62.904"/>
	<rect x="195.462" y="68.578" clip-path="url(#SVGID_2_)" width="25.953" height="2.226"/>
	<rect x="195.119" y="98.024" clip-path="url(#SVGID_2_)" width="25.929" height="2.25"/>
	
		<line clip-path="url(#SVGID_2_)" fill="none" stroke="#000000" stroke-width="0.7095" stroke-linejoin="round" stroke-miterlimit="10" x1="182.508" y1="132.068" x2="303.922" y2="132.068"/>
	
		<rect x="357.913" y="68.455" clip-path="url(#SVGID_2_)" fill="none" stroke="#000000" stroke-width="0.7095" stroke-linejoin="round" stroke-miterlimit="10" width="47.402" height="62.904"/>
	
		<line clip-path="url(#SVGID_2_)" fill="none" stroke="#000000" stroke-width="0.7095" stroke-linejoin="round" stroke-miterlimit="10" x1="338.717" y1="132.068" x2="460.132" y2="132.068"/>
	<rect x="447.874" y="31.941" clip-path="url(#SVGID_2_)" width="2.253" height="100.127"/>
	
		<line clip-path="url(#SVGID_2_)" fill="none" stroke="#000000" stroke-width="0.7095" stroke-linejoin="round" stroke-miterlimit="10" x1="29.822" y1="59.039" x2="58.126" y2="93.67"/>
	<polygon clip-path="url(#SVGID_2_)" fill-rule="evenodd" clip-rule="evenodd" points="55.874,95.089 61.064,97.314 59.889,91.91 	
		"/>
	<polygon clip-path="url(#SVGID_2_)" points="174.013,58.912 173.768,58.795 173.67,58.667 173.543,58.795 173.425,58.912 
		173.298,59.039 173.425,59.254 175.189,61.387 175.307,61.504 175.434,61.632 175.551,61.632 175.649,61.504 175.777,61.387 
		175.777,61.26 175.777,61.143 175.777,61.016 	"/>
	<polygon clip-path="url(#SVGID_2_)" points="177.07,62.684 176.953,62.561 176.854,62.561 176.727,62.561 176.61,62.561 
		176.482,62.684 176.482,62.806 176.482,62.928 176.482,63.026 178.246,65.276 178.374,65.398 178.491,65.398 178.619,65.398 
		178.736,65.398 178.834,65.276 178.961,65.153 178.961,65.031 178.834,64.909 	"/>
	<polygon clip-path="url(#SVGID_2_)" points="180.255,66.572 180.127,66.45 180.029,66.328 179.912,66.328 179.785,66.45 
		179.667,66.572 179.54,66.694 179.54,66.792 179.667,66.915 181.431,69.042 181.548,69.165 181.676,69.287 181.793,69.287 
		181.92,69.165 182.019,69.042 182.019,68.92 182.019,68.798 182.019,68.7 	"/>
	<polygon clip-path="url(#SVGID_2_)" points="183.312,70.338 183.214,70.216 183.096,70.216 182.969,70.216 182.852,70.216 
		182.724,70.338 182.724,70.461 182.724,70.583 182.724,70.681 184.517,72.931 184.615,73.053 184.733,73.053 184.86,73.053 
		184.978,73.053 185.105,72.931 185.203,72.809 185.203,72.687 185.105,72.588 	"/>
	<polygon clip-path="url(#SVGID_2_)" points="186.497,74.227 186.398,74.105 186.281,73.982 186.153,73.982 186.036,74.105 
		185.909,74.227 185.811,74.35 185.811,74.472 185.909,74.569 187.702,76.697 187.8,76.819 187.917,76.942 188.044,76.942 
		188.162,76.819 188.29,76.697 188.29,76.575 188.29,76.453 188.29,76.355 	"/>
	<polygon clip-path="url(#SVGID_2_)" points="189.583,77.994 189.456,77.871 189.338,77.871 189.21,77.871 189.093,77.871 
		188.995,77.994 188.995,78.116 188.995,78.238 188.995,78.36 190.759,80.586 190.876,80.708 190.975,80.708 191.102,80.708 
		191.219,80.708 191.347,80.586 191.464,80.464 191.464,80.341 191.347,80.244 	"/>
	<polygon clip-path="url(#SVGID_2_)" points="192.768,81.882 192.64,81.76 192.522,81.638 192.395,81.638 192.278,81.76 
		192.18,81.882 192.052,82.004 192.052,82.127 192.18,82.249 193.943,84.353 194.061,84.475 194.159,84.597 194.287,84.597 
		194.404,84.475 194.531,84.353 194.649,84.23 194.649,84.132 194.531,84.01 	"/>
	<polygon clip-path="url(#SVGID_2_)" points="195.825,85.648 195.707,85.526 195.58,85.526 195.462,85.526 195.364,85.526 
		195.237,85.648 195.237,85.771 195.237,85.893 195.237,86.016 197.128,88.241 197.246,88.363 197.343,88.363 197.471,88.363 
		197.588,88.363 197.716,88.241 197.716,88.119 197.716,88.021 197.716,87.898 	"/>
	<polygon clip-path="url(#SVGID_2_)" points="199.009,89.537 198.892,89.415 198.764,89.317 198.647,89.317 198.549,89.415 
		198.421,89.537 198.304,89.66 198.304,89.782 198.421,89.904 200.185,92.007 200.303,92.13 200.43,92.252 200.528,92.252 
		200.646,92.13 200.773,92.007 200.891,91.91 200.891,91.787 200.773,91.665 	"/>
	<polygon clip-path="url(#SVGID_2_)" points="202.194,93.304 202.066,93.206 201.949,93.206 201.821,93.206 201.724,93.206 
		201.606,93.304 201.479,93.426 201.479,93.548 201.606,93.67 201.724,93.891 201.821,93.891 201.949,94.013 202.066,93.891 
		202.194,93.793 202.312,93.67 202.312,93.548 	"/>
	<polygon clip-path="url(#SVGID_2_)" fill-rule="evenodd" clip-rule="evenodd" points="199.715,95.089 204.908,97.314 
		203.712,91.91 	"/>
	<polygon clip-path="url(#SVGID_2_)" points="60.843,96.605 60.721,96.728 60.843,96.85 60.941,96.972 61.064,97.094 61.186,96.972 
		61.431,96.972 63.194,94.844 63.316,94.722 63.316,94.6 63.194,94.502 63.071,94.38 62.949,94.257 62.827,94.257 62.729,94.38 
		62.607,94.502 	"/>
	<polygon clip-path="url(#SVGID_2_)" points="64.027,92.839 64.027,92.961 64.027,93.083 64.027,93.206 64.125,93.304 
		64.248,93.426 64.37,93.426 64.492,93.304 64.615,93.206 66.5,91.078 66.623,90.956 66.623,90.833 66.5,90.711 66.377,90.613 
		66.255,90.613 66.132,90.613 66.01,90.613 65.912,90.711 	"/>
	<polygon clip-path="url(#SVGID_2_)" points="67.308,89.195 67.308,89.317 67.308,89.415 67.308,89.537 67.43,89.66 67.552,89.66 
		67.675,89.66 67.797,89.66 67.896,89.537 69.805,87.434 69.903,87.312 69.903,87.189 69.805,87.067 69.683,86.945 69.56,86.822 
		69.438,86.822 69.315,86.945 69.193,87.067 	"/>
	<polygon clip-path="url(#SVGID_2_)" points="70.613,85.428 70.613,85.526 70.613,85.648 70.613,85.771 70.735,85.893 
		70.857,86.016 70.98,86.016 71.078,85.893 71.2,85.771 73.085,83.888 73.085,83.643 72.988,83.545 72.865,83.423 72.743,83.301 
		72.621,83.423 72.499,83.545 	"/>
	<polygon clip-path="url(#SVGID_2_)" fill-rule="evenodd" clip-rule="evenodd" points="74.384,85.648 75.804,80.244 70.613,82.249 	
		"/>
	<polygon clip-path="url(#SVGID_2_)" points="205.251,96.605 205.133,96.728 205.251,96.85 205.378,96.972 205.496,97.094 
		205.594,96.972 205.839,96.972 207.603,94.844 207.73,94.722 207.73,94.6 207.603,94.502 207.485,94.38 207.387,94.257 
		207.26,94.257 207.142,94.38 207.015,94.502 	"/>
	<polygon clip-path="url(#SVGID_2_)" points="208.436,92.839 208.436,92.961 208.436,93.083 208.436,93.206 208.563,93.304 
		208.681,93.426 208.778,93.426 208.906,93.304 209.023,93.206 210.905,91.078 211.032,90.956 211.032,90.833 210.905,90.711 
		210.787,90.613 210.66,90.613 210.562,90.613 210.444,90.613 210.317,90.711 	"/>
	<polygon clip-path="url(#SVGID_2_)" points="211.738,89.195 211.738,89.317 211.738,89.415 211.738,89.537 211.865,89.66 
		211.963,89.66 212.081,89.66 212.208,89.66 212.326,89.537 214.217,87.434 214.334,87.312 214.334,87.189 214.217,87.067 
		214.089,86.945 213.972,86.822 213.844,86.822 213.747,86.945 213.629,87.067 	"/>
	<polygon clip-path="url(#SVGID_2_)" points="215.049,85.428 215.049,85.526 215.049,85.648 215.049,85.771 215.147,85.893 
		215.265,86.016 215.393,86.016 215.51,85.893 215.638,85.771 217.519,83.888 217.519,83.643 217.401,83.545 217.274,83.423 
		217.156,83.301 217.029,83.423 216.931,83.545 	"/>
	<polygon clip-path="url(#SVGID_2_)" fill-rule="evenodd" clip-rule="evenodd" points="218.822,85.648 220.213,80.244 
		215.049,82.249 	"/>
	
		<line clip-path="url(#SVGID_2_)" fill="none" stroke="#000000" stroke-width="0.7095" stroke-linejoin="round" stroke-miterlimit="10" x1="388.22" y1="18.979" x2="444.101" y2="63.271"/>
	<polygon clip-path="url(#SVGID_2_)" fill-rule="evenodd" clip-rule="evenodd" points="442.21,65.031 447.776,66.107 
		445.395,61.143 	"/>
	
		<line clip-path="url(#SVGID_2_)" fill="none" stroke="#000000" stroke-width="0.7095" stroke-linejoin="round" stroke-miterlimit="10" x1="446.571" y1="66.694" x2="409.327" y2="100.151"/>
	<polygon clip-path="url(#SVGID_2_)" fill-rule="evenodd" clip-rule="evenodd" points="407.788,98.024 405.907,103.209 
		411.217,101.668 	"/>
	<g clip-path="url(#SVGID_2_)">
		<defs>
			<rect id="SVGID_5_" x="146.91" y="44.414" width="57.293" height="17.56"/>
		</defs>
		<clipPath id="SVGID_6_">
			<use xlink:href="#SVGID_5_"  overflow="visible"/>
		</clipPath>
		<g clip-path="url(#SVGID_6_)">
			<path d="M147.351,51.233l0.875-0.077c0.042,0.35,0.138,0.637,0.29,0.862s0.386,0.406,0.705,0.544
				c0.319,0.138,0.678,0.208,1.076,0.208c0.354,0,0.667-0.052,0.938-0.158c0.271-0.105,0.472-0.249,0.604-0.432
				c0.132-0.183,0.199-0.382,0.199-0.599c0-0.219-0.064-0.411-0.191-0.575s-0.338-0.301-0.631-0.413
				c-0.188-0.073-0.604-0.187-1.248-0.341s-1.095-0.3-1.353-0.437c-0.335-0.175-0.584-0.392-0.749-0.651s-0.247-0.55-0.247-0.872
				c0-0.353,0.101-0.683,0.301-0.991c0.201-0.307,0.494-0.54,0.88-0.699c0.385-0.159,0.814-0.239,1.286-0.239
				c0.52,0,0.978,0.083,1.375,0.25c0.397,0.167,0.702,0.413,0.916,0.738c0.214,0.325,0.329,0.692,0.344,1.103l-0.889,0.067
				c-0.048-0.442-0.21-0.777-0.485-1.003c-0.276-0.226-0.683-0.339-1.222-0.339c-0.561,0-0.97,0.103-1.227,0.308
				c-0.256,0.205-0.385,0.453-0.385,0.742c0,0.251,0.091,0.458,0.272,0.621c0.179,0.163,0.645,0.329,1.399,0.499
				s1.271,0.319,1.552,0.446c0.408,0.188,0.709,0.426,0.904,0.714s0.292,0.62,0.292,0.996c0,0.373-0.106,0.723-0.32,1.053
				c-0.213,0.33-0.521,0.585-0.92,0.769c-0.4,0.183-0.851,0.274-1.351,0.274c-0.634,0-1.166-0.092-1.595-0.277
				s-0.765-0.462-1.009-0.833C147.492,52.12,147.363,51.701,147.351,51.233z"/>
			<path d="M154.054,53.481v-7h0.861v3.992l2.037-2.063h1.114l-1.941,1.881l2.137,3.189h-1.062l-1.678-2.592l-0.607,0.582v2.01
				H154.054z"/>
			<path d="M159.183,55.434l-0.096-0.807c0.188,0.051,0.352,0.076,0.493,0.076c0.191,0,0.344-0.032,0.459-0.095
				c0.115-0.064,0.208-0.153,0.282-0.268c0.054-0.086,0.142-0.299,0.263-0.64c0.016-0.048,0.042-0.118,0.077-0.21l-1.927-5.08h0.928
				l1.057,2.936c0.137,0.373,0.26,0.764,0.368,1.175c0.099-0.395,0.217-0.78,0.354-1.156l1.086-2.955h0.861l-1.932,5.156
				c-0.208,0.557-0.368,0.94-0.483,1.151c-0.153,0.283-0.329,0.491-0.526,0.623c-0.198,0.132-0.434,0.198-0.708,0.198
				C159.571,55.539,159.387,55.504,159.183,55.434z"/>
			<path d="M169.839,53.481v-0.64c-0.322,0.503-0.795,0.754-1.42,0.754c-0.405,0-0.777-0.112-1.117-0.334
				c-0.339-0.223-0.603-0.534-0.789-0.933c-0.187-0.399-0.28-0.859-0.28-1.377c0-0.506,0.084-0.965,0.253-1.377
				c0.169-0.412,0.422-0.728,0.76-0.948s0.716-0.33,1.133-0.33c0.306,0,0.579,0.064,0.818,0.193
				c0.239,0.129,0.434,0.297,0.583,0.504v-2.512h0.856v7H169.839z M167.118,50.951c0,0.649,0.137,1.135,0.412,1.456
				c0.274,0.321,0.598,0.482,0.971,0.482c0.376,0,0.696-0.154,0.958-0.461c0.263-0.307,0.395-0.776,0.395-1.406
				c0-0.694-0.134-1.203-0.401-1.528c-0.268-0.325-0.598-0.487-0.99-0.487c-0.382,0-0.702,0.156-0.958,0.468
				C167.247,49.788,167.118,50.279,167.118,50.951z"/>
			<path d="M172.084,47.47v-0.988h0.861v0.988H172.084z M172.084,53.481v-5.07h0.861v5.07H172.084z"/>
			<path d="M174.412,53.481V49.08h-0.76v-0.668h0.76v-0.54c0-0.341,0.03-0.594,0.091-0.759c0.083-0.223,0.229-0.403,0.438-0.542
				c0.208-0.138,0.501-0.208,0.877-0.208c0.242,0,0.51,0.029,0.803,0.086l-0.129,0.75c-0.179-0.032-0.348-0.048-0.507-0.048
				c-0.261,0-0.446,0.056-0.555,0.167c-0.108,0.111-0.163,0.32-0.163,0.625v0.468h0.99v0.668h-0.99v4.402H174.412z"/>
			<path d="M177.241,53.481V49.08h-0.76v-0.668h0.76v-0.54c0-0.341,0.03-0.594,0.091-0.759c0.083-0.223,0.229-0.403,0.438-0.542
				c0.208-0.138,0.501-0.208,0.877-0.208c0.242,0,0.51,0.029,0.803,0.086l-0.129,0.75c-0.179-0.032-0.348-0.048-0.507-0.048
				c-0.261,0-0.446,0.056-0.555,0.167c-0.108,0.111-0.163,0.32-0.163,0.625v0.468h0.99v0.668h-0.99v4.402H177.241z"/>
			<path d="M183.192,53.481v-0.745c-0.396,0.573-0.933,0.859-1.612,0.859c-0.3,0-0.58-0.058-0.839-0.172
				c-0.26-0.115-0.453-0.259-0.579-0.432s-0.214-0.386-0.265-0.638c-0.035-0.168-0.053-0.436-0.053-0.802v-3.142h0.861v2.812
				c0,0.449,0.018,0.751,0.053,0.907c0.054,0.226,0.169,0.403,0.344,0.532s0.392,0.193,0.65,0.193s0.5-0.066,0.727-0.198
				c0.227-0.132,0.387-0.312,0.481-0.54c0.094-0.228,0.141-0.558,0.141-0.991v-2.716h0.86v5.07H183.192z"/>
			<path d="M184.967,51.968l0.851-0.133c0.048,0.34,0.181,0.602,0.399,0.783c0.218,0.182,0.524,0.272,0.916,0.272
				c0.395,0,0.688-0.081,0.88-0.241c0.191-0.161,0.287-0.35,0.287-0.566c0-0.194-0.084-0.347-0.253-0.458
				c-0.118-0.076-0.411-0.173-0.88-0.291c-0.631-0.159-1.069-0.297-1.313-0.413c-0.244-0.116-0.429-0.277-0.555-0.482
				c-0.126-0.206-0.189-0.432-0.189-0.681c0-0.226,0.052-0.435,0.155-0.628c0.104-0.192,0.245-0.353,0.423-0.479
				c0.134-0.099,0.316-0.182,0.547-0.251c0.231-0.068,0.479-0.103,0.744-0.103c0.398,0,0.749,0.057,1.05,0.172
				s0.523,0.27,0.667,0.465c0.144,0.196,0.242,0.458,0.296,0.786l-0.841,0.115c-0.039-0.261-0.149-0.465-0.333-0.611
				c-0.184-0.146-0.442-0.22-0.777-0.22c-0.396,0-0.678,0.065-0.847,0.196s-0.253,0.283-0.253,0.458
				c0,0.111,0.035,0.211,0.105,0.301c0.07,0.092,0.18,0.168,0.33,0.229c0.086,0.032,0.34,0.105,0.76,0.22
				c0.609,0.162,1.034,0.295,1.274,0.398c0.241,0.104,0.43,0.254,0.567,0.451c0.137,0.198,0.206,0.443,0.206,0.735
				c0,0.287-0.083,0.556-0.251,0.81c-0.167,0.253-0.409,0.449-0.725,0.587c-0.315,0.139-0.673,0.208-1.071,0.208
				c-0.66,0-1.163-0.137-1.509-0.411C185.283,52.912,185.063,52.506,184.967,51.968z"/>
			<path d="M193.733,51.849l0.89,0.11c-0.14,0.519-0.4,0.921-0.779,1.208c-0.38,0.286-0.864,0.43-1.454,0.43
				c-0.743,0-1.332-0.229-1.767-0.685c-0.435-0.457-0.652-1.098-0.652-1.922c0-0.853,0.22-1.515,0.66-1.986
				c0.44-0.471,1.011-0.707,1.712-0.707c0.679,0,1.234,0.231,1.664,0.692c0.431,0.461,0.646,1.111,0.646,1.948
				c0,0.051-0.002,0.127-0.005,0.229h-3.788c0.032,0.557,0.19,0.983,0.474,1.279s0.638,0.444,1.062,0.444
				c0.315,0,0.585-0.083,0.808-0.249S193.603,52.211,193.733,51.849z M190.907,50.459h2.836c-0.039-0.427-0.147-0.747-0.325-0.96
				c-0.274-0.331-0.63-0.497-1.066-0.497c-0.396,0-0.728,0.132-0.997,0.396S190.936,50.017,190.907,50.459z"/>
		</g>
	</g>
	<g clip-path="url(#SVGID_2_)">
		<defs>
			<rect id="SVGID_7_" x="404.486" y="14.376" width="43.166" height="15.774"/>
		</defs>
		<clipPath id="SVGID_8_">
			<use xlink:href="#SVGID_7_"  overflow="visible"/>
		</clipPath>
		<g clip-path="url(#SVGID_8_)">
			<path d="M405.204,23.33v-7h2.63c0.535,0,0.965,0.071,1.289,0.213c0.323,0.142,0.576,0.359,0.76,0.654s0.275,0.603,0.275,0.924
				c0,0.299-0.082,0.581-0.244,0.845c-0.163,0.264-0.408,0.478-0.736,0.64c0.424,0.124,0.75,0.336,0.978,0.635
				c0.229,0.299,0.342,0.652,0.342,1.06c0,0.328-0.069,0.633-0.208,0.915s-0.31,0.499-0.514,0.652
				c-0.204,0.152-0.46,0.268-0.768,0.346c-0.308,0.078-0.685,0.117-1.131,0.117H405.204z M406.131,19.272h1.516
				c0.411,0,0.706-0.027,0.885-0.082c0.235-0.07,0.413-0.186,0.533-0.348c0.119-0.163,0.179-0.366,0.179-0.611
				c0-0.232-0.056-0.437-0.167-0.613c-0.111-0.177-0.271-0.298-0.479-0.363c-0.207-0.065-0.563-0.098-1.066-0.098h-1.4V19.272z
				 M406.131,22.504h1.745c0.3,0,0.51-0.011,0.631-0.033c0.214-0.038,0.393-0.102,0.536-0.191c0.144-0.089,0.261-0.219,0.354-0.389
				s0.139-0.367,0.139-0.59c0-0.261-0.066-0.488-0.201-0.68c-0.134-0.192-0.319-0.328-0.557-0.406s-0.579-0.117-1.025-0.117h-1.621
				V22.504z"/>
			<path d="M415.101,21.697l0.89,0.11c-0.141,0.519-0.4,0.921-0.779,1.208c-0.38,0.286-0.864,0.43-1.454,0.43
				c-0.743,0-1.332-0.229-1.767-0.685c-0.436-0.457-0.653-1.098-0.653-1.922c0-0.853,0.221-1.515,0.66-1.986
				c0.44-0.471,1.011-0.707,1.712-0.707c0.679,0,1.234,0.231,1.664,0.692c0.431,0.461,0.646,1.111,0.646,1.948
				c0,0.051-0.001,0.127-0.005,0.229h-3.787c0.032,0.557,0.189,0.983,0.474,1.279c0.283,0.296,0.638,0.444,1.062,0.444
				c0.315,0,0.585-0.083,0.809-0.249C414.793,22.324,414.97,22.06,415.101,21.697z M412.275,20.308h2.836
				c-0.038-0.427-0.146-0.747-0.325-0.96c-0.274-0.331-0.63-0.497-1.066-0.497c-0.396,0-0.728,0.132-0.997,0.396
				S412.303,19.866,412.275,20.308z"/>
			<path d="M420.386,22.705c-0.319,0.271-0.626,0.461-0.921,0.573c-0.295,0.112-0.611,0.167-0.949,0.167
				c-0.558,0-0.987-0.136-1.286-0.408c-0.3-0.272-0.45-0.62-0.45-1.043c0-0.248,0.057-0.475,0.17-0.68
				c0.113-0.206,0.262-0.37,0.445-0.494c0.183-0.124,0.39-0.218,0.619-0.282c0.169-0.044,0.424-0.087,0.765-0.129
				c0.695-0.083,1.207-0.182,1.535-0.296c0.003-0.118,0.005-0.193,0.005-0.225c0-0.35-0.081-0.597-0.244-0.74
				c-0.22-0.194-0.547-0.291-0.98-0.291c-0.404,0-0.703,0.071-0.896,0.212c-0.192,0.142-0.335,0.393-0.428,0.752l-0.842-0.115
				c0.077-0.359,0.202-0.65,0.378-0.871s0.429-0.392,0.761-0.511c0.331-0.12,0.715-0.179,1.152-0.179
				c0.434,0,0.785,0.051,1.057,0.153c0.271,0.102,0.471,0.23,0.598,0.384c0.128,0.154,0.217,0.35,0.268,0.585
				c0.029,0.146,0.043,0.411,0.043,0.792v1.146c0,0.799,0.019,1.304,0.056,1.516c0.036,0.212,0.109,0.415,0.218,0.609h-0.899
				C420.468,23.152,420.412,22.943,420.386,22.705z M420.314,20.785c-0.313,0.127-0.781,0.236-1.406,0.325
				c-0.354,0.051-0.604,0.108-0.75,0.172c-0.147,0.064-0.26,0.157-0.34,0.279s-0.119,0.259-0.119,0.408
				c0,0.229,0.086,0.42,0.26,0.573s0.429,0.229,0.764,0.229c0.331,0,0.626-0.072,0.884-0.217c0.259-0.145,0.448-0.343,0.569-0.594
				c0.093-0.194,0.139-0.481,0.139-0.859V20.785z"/>
			<path d="M422.518,23.33v-5.07h0.77v0.711c0.16-0.249,0.372-0.448,0.637-0.599c0.265-0.151,0.565-0.227,0.903-0.227
				c0.376,0,0.685,0.078,0.926,0.234c0.24,0.156,0.41,0.374,0.509,0.654c0.402-0.592,0.925-0.888,1.569-0.888
				c0.503,0,0.891,0.139,1.161,0.418c0.271,0.278,0.407,0.707,0.407,1.287v3.48h-0.856v-3.194c0-0.344-0.027-0.591-0.084-0.743
				c-0.056-0.151-0.156-0.273-0.303-0.365c-0.147-0.092-0.319-0.139-0.517-0.139c-0.357,0-0.654,0.119-0.89,0.356
				c-0.236,0.237-0.354,0.617-0.354,1.139v2.946h-0.86v-3.294c0-0.382-0.07-0.668-0.21-0.859c-0.141-0.191-0.37-0.287-0.689-0.287
				c-0.242,0-0.466,0.064-0.672,0.191c-0.205,0.127-0.354,0.313-0.446,0.559c-0.093,0.245-0.139,0.598-0.139,1.06v2.631H422.518z"/>
		</g>
	</g>
	<g clip-path="url(#SVGID_2_)">
		<defs>
			<rect id="SVGID_9_" x="418.047" y="93.304" width="43.141" height="15.799"/>
		</defs>
		<clipPath id="SVGID_10_">
			<use xlink:href="#SVGID_9_"  overflow="visible"/>
		</clipPath>
		<g clip-path="url(#SVGID_10_)">
			<path d="M418.765,102.254v-7h2.63c0.535,0,0.965,0.071,1.289,0.213c0.323,0.142,0.576,0.359,0.76,0.654s0.275,0.603,0.275,0.924
				c0,0.299-0.082,0.581-0.244,0.845c-0.163,0.264-0.408,0.478-0.736,0.64c0.424,0.124,0.75,0.336,0.978,0.635
				c0.229,0.299,0.342,0.652,0.342,1.06c0,0.328-0.069,0.633-0.208,0.915s-0.31,0.499-0.514,0.652
				c-0.204,0.152-0.46,0.268-0.768,0.346c-0.308,0.078-0.685,0.117-1.131,0.117H418.765z M419.693,98.196h1.516
				c0.411,0,0.706-0.027,0.885-0.082c0.235-0.07,0.413-0.186,0.533-0.348c0.119-0.163,0.179-0.366,0.179-0.611
				c0-0.232-0.056-0.437-0.167-0.613c-0.111-0.177-0.271-0.298-0.479-0.363c-0.207-0.065-0.563-0.098-1.066-0.098h-1.4V98.196z
				 M419.693,101.428h1.745c0.3,0,0.51-0.011,0.631-0.033c0.214-0.038,0.393-0.102,0.536-0.191c0.144-0.089,0.261-0.219,0.354-0.389
				s0.139-0.367,0.139-0.59c0-0.261-0.066-0.488-0.201-0.68c-0.134-0.192-0.319-0.328-0.557-0.406s-0.579-0.117-1.025-0.117h-1.621
				V101.428z"/>
			<path d="M428.663,100.621l0.89,0.11c-0.141,0.519-0.4,0.921-0.779,1.208c-0.38,0.286-0.864,0.43-1.454,0.43
				c-0.743,0-1.332-0.229-1.767-0.685c-0.436-0.457-0.653-1.098-0.653-1.922c0-0.853,0.221-1.515,0.66-1.986
				c0.44-0.471,1.011-0.707,1.712-0.707c0.679,0,1.234,0.231,1.664,0.692c0.431,0.461,0.646,1.111,0.646,1.948
				c0,0.051-0.001,0.127-0.005,0.229h-3.787c0.032,0.557,0.189,0.983,0.474,1.279c0.283,0.296,0.638,0.444,1.062,0.444
				c0.315,0,0.585-0.083,0.809-0.249C428.355,101.248,428.532,100.984,428.663,100.621z M425.836,99.232h2.836
				c-0.038-0.427-0.146-0.747-0.325-0.96c-0.274-0.331-0.63-0.497-1.066-0.497c-0.396,0-0.728,0.132-0.997,0.396
				S425.865,98.79,425.836,99.232z"/>
			<path d="M433.948,101.628c-0.319,0.271-0.626,0.461-0.921,0.573c-0.295,0.112-0.611,0.167-0.949,0.167
				c-0.558,0-0.987-0.136-1.286-0.408c-0.3-0.272-0.45-0.62-0.45-1.043c0-0.248,0.057-0.475,0.17-0.68
				c0.113-0.206,0.262-0.37,0.445-0.494c0.183-0.124,0.39-0.218,0.619-0.282c0.169-0.044,0.424-0.087,0.765-0.129
				c0.695-0.083,1.207-0.182,1.535-0.296c0.003-0.118,0.005-0.193,0.005-0.225c0-0.35-0.081-0.597-0.244-0.74
				c-0.22-0.194-0.547-0.291-0.98-0.291c-0.404,0-0.703,0.071-0.896,0.212c-0.192,0.142-0.335,0.393-0.428,0.752l-0.842-0.115
				c0.077-0.359,0.202-0.65,0.378-0.871s0.429-0.392,0.761-0.511c0.331-0.12,0.715-0.179,1.152-0.179
				c0.434,0,0.785,0.051,1.057,0.153c0.271,0.102,0.471,0.23,0.598,0.384c0.128,0.154,0.217,0.35,0.268,0.585
				c0.029,0.146,0.043,0.411,0.043,0.792v1.146c0,0.799,0.019,1.304,0.056,1.516c0.036,0.212,0.109,0.415,0.218,0.609h-0.899
				C434.03,102.076,433.973,101.867,433.948,101.628z M433.875,99.709c-0.313,0.127-0.781,0.236-1.406,0.325
				c-0.354,0.051-0.604,0.108-0.75,0.172c-0.147,0.064-0.26,0.157-0.34,0.279s-0.119,0.259-0.119,0.408
				c0,0.229,0.086,0.42,0.26,0.573s0.429,0.229,0.764,0.229c0.331,0,0.626-0.072,0.884-0.217c0.259-0.145,0.448-0.343,0.569-0.594
				c0.093-0.194,0.139-0.481,0.139-0.859V99.709z"/>
			<path d="M436.08,102.254v-5.07h0.77v0.711c0.16-0.249,0.372-0.448,0.637-0.599c0.265-0.151,0.565-0.227,0.903-0.227
				c0.376,0,0.685,0.078,0.926,0.234c0.24,0.156,0.41,0.374,0.509,0.654c0.402-0.592,0.925-0.888,1.569-0.888
				c0.503,0,0.891,0.139,1.161,0.418c0.271,0.278,0.407,0.707,0.407,1.287v3.48h-0.856V99.06c0-0.344-0.027-0.591-0.084-0.743
				c-0.056-0.151-0.156-0.273-0.303-0.365c-0.147-0.092-0.319-0.139-0.517-0.139c-0.357,0-0.654,0.119-0.89,0.356
				c-0.236,0.237-0.354,0.617-0.354,1.139v2.946h-0.86v-3.294c0-0.382-0.07-0.668-0.21-0.859c-0.141-0.191-0.37-0.287-0.689-0.287
				c-0.242,0-0.466,0.064-0.672,0.191c-0.205,0.127-0.354,0.313-0.446,0.559c-0.093,0.245-0.139,0.598-0.139,1.06v2.631H436.08z"/>
		</g>
	</g>
	<g clip-path="url(#SVGID_2_)">
		<defs>
			<rect id="SVGID_11_" x="92.673" y="8.486" width="215.265" height="27.563"/>
		</defs>
		<clipPath id="SVGID_12_">
			<use xlink:href="#SVGID_11_"  overflow="visible"/>
		</clipPath>
		<g clip-path="url(#SVGID_12_)">
			<path d="M93.293,18.027l1.234-0.107c0.058,0.494,0.194,0.898,0.408,1.215s0.545,0.572,0.995,0.768
				c0.449,0.195,0.955,0.293,1.517,0.293c0.499,0,0.939-0.074,1.321-0.222c0.382-0.148,0.667-0.351,0.853-0.609
				c0.187-0.258,0.28-0.54,0.28-0.845c0-0.31-0.09-0.58-0.27-0.812c-0.18-0.231-0.477-0.425-0.89-0.582
				c-0.265-0.103-0.852-0.264-1.76-0.481s-1.544-0.423-1.908-0.616c-0.472-0.247-0.824-0.553-1.055-0.919s-0.347-0.775-0.347-1.229
				c0-0.499,0.142-0.964,0.425-1.397s0.697-0.762,1.241-0.986c0.543-0.224,1.148-0.336,1.813-0.336c0.733,0,1.379,0.118,1.938,0.354
				c0.56,0.235,0.99,0.582,1.292,1.04c0.301,0.458,0.463,0.976,0.485,1.555l-1.254,0.094c-0.067-0.624-0.296-1.095-0.685-1.414
				c-0.389-0.318-0.963-0.478-1.723-0.478c-0.792,0-1.368,0.145-1.729,0.435c-0.362,0.289-0.543,0.638-0.543,1.046
				c0,0.355,0.128,0.646,0.384,0.875c0.252,0.229,0.909,0.463,1.972,0.703c1.063,0.24,1.792,0.45,2.188,0.629
				c0.576,0.265,1,0.601,1.274,1.007c0.274,0.406,0.412,0.874,0.412,1.403c0,0.525-0.151,1.02-0.452,1.484
				c-0.301,0.465-0.734,0.826-1.298,1.084c-0.564,0.258-1.199,0.387-1.905,0.387c-0.895,0-1.644-0.13-2.249-0.391
				s-1.079-0.652-1.423-1.175C93.493,19.279,93.312,18.687,93.293,18.027z"/>
			<path d="M102.342,17.624c0-1.324,0.369-2.305,1.106-2.942c0.616-0.529,1.366-0.794,2.252-0.794c0.984,0,1.789,0.322,2.414,0.966
				c0.625,0.644,0.937,1.534,0.937,2.669c0,0.92-0.138,1.644-0.415,2.171s-0.679,0.937-1.207,1.229
				c-0.528,0.292-1.105,0.438-1.729,0.438c-1.002,0-1.813-0.321-2.431-0.963C102.651,19.755,102.342,18.831,102.342,17.624z
				 M103.59,17.624c0,0.916,0.2,1.601,0.6,2.057c0.4,0.456,0.903,0.683,1.51,0.683c0.603,0,1.104-0.229,1.503-0.687
				c0.4-0.458,0.6-1.155,0.6-2.094c0-0.884-0.201-1.554-0.603-2.009c-0.403-0.456-0.903-0.683-1.5-0.683
				c-0.607,0-1.11,0.227-1.51,0.68C103.79,16.024,103.59,16.708,103.59,17.624z"/>
			<path d="M110.447,21.198v-9.869h1.214v9.869H110.447z"/>
			<path d="M118.215,20.316c-0.45,0.381-0.882,0.651-1.298,0.808c-0.416,0.157-0.862,0.236-1.338,0.236
				c-0.787,0-1.392-0.192-1.814-0.576c-0.423-0.384-0.634-0.874-0.634-1.471c0-0.35,0.08-0.67,0.239-0.959s0.369-0.521,0.627-0.697
				c0.259-0.175,0.55-0.307,0.874-0.397c0.238-0.063,0.598-0.124,1.079-0.182c0.98-0.117,1.702-0.256,2.165-0.417
				c0.004-0.166,0.007-0.271,0.007-0.316c0-0.494-0.115-0.842-0.344-1.043c-0.31-0.274-0.771-0.411-1.382-0.411
				c-0.571,0-0.993,0.1-1.265,0.299s-0.473,0.553-0.604,1.061l-1.187-0.162c0.108-0.507,0.285-0.917,0.533-1.229
				c0.247-0.312,0.604-0.552,1.072-0.721c0.467-0.168,1.009-0.252,1.625-0.252c0.611,0,1.108,0.072,1.49,0.216
				c0.382,0.144,0.663,0.324,0.843,0.542c0.18,0.218,0.305,0.493,0.377,0.825c0.041,0.207,0.061,0.579,0.061,1.118v1.616
				c0,1.126,0.026,1.839,0.078,2.137c0.052,0.299,0.154,0.584,0.307,0.858h-1.268C118.332,20.947,118.251,20.653,118.215,20.316z
				 M118.114,17.61c-0.441,0.179-1.102,0.332-1.982,0.458c-0.499,0.072-0.852,0.153-1.059,0.242
				c-0.207,0.09-0.367,0.221-0.479,0.394s-0.168,0.365-0.168,0.576c0,0.323,0.123,0.592,0.368,0.808
				c0.245,0.215,0.604,0.323,1.075,0.323c0.468,0,0.883-0.102,1.248-0.306c0.364-0.205,0.631-0.484,0.802-0.838
				c0.13-0.273,0.196-0.678,0.196-1.211V17.61z"/>
			<path d="M121.209,21.198v-7.149h1.092v1.084c0.278-0.507,0.536-0.841,0.772-1.003s0.496-0.243,0.779-0.243
				c0.409,0,0.825,0.13,1.247,0.391l-0.418,1.124c-0.296-0.175-0.593-0.262-0.89-0.262c-0.266,0-0.504,0.08-0.715,0.239
				c-0.211,0.16-0.362,0.38-0.452,0.663c-0.135,0.431-0.203,0.902-0.203,1.414v3.743H121.209z"/>
			<path d="M129.86,21.198v-9.869h4.383c0.881,0,1.551,0.089,2.009,0.266s0.825,0.49,1.099,0.939
				c0.274,0.449,0.412,0.945,0.412,1.488c0,0.7-0.227,1.291-0.681,1.771c-0.454,0.48-1.155,0.786-2.104,0.916
				c0.346,0.166,0.609,0.33,0.789,0.492c0.382,0.35,0.744,0.788,1.085,1.313l1.72,2.686h-1.646l-1.308-2.053
				c-0.382-0.592-0.697-1.046-0.944-1.36s-0.469-0.534-0.664-0.66c-0.196-0.125-0.395-0.213-0.597-0.263
				c-0.148-0.031-0.391-0.047-0.729-0.047h-1.517v4.382H129.86z M131.168,15.685h2.812c0.598,0,1.065-0.062,1.402-0.186
				c0.337-0.123,0.593-0.321,0.769-0.592s0.263-0.566,0.263-0.885c0-0.467-0.17-0.851-0.509-1.151
				c-0.339-0.301-0.875-0.451-1.608-0.451h-3.129V15.685z"/>
			<path d="M144.504,18.896l1.254,0.155c-0.198,0.731-0.564,1.299-1.099,1.703s-1.218,0.606-2.05,0.606
				c-1.047,0-1.878-0.322-2.491-0.966c-0.614-0.644-0.92-1.547-0.92-2.709c0-1.203,0.31-2.136,0.93-2.8
				c0.621-0.664,1.425-0.997,2.414-0.997c0.958,0,1.74,0.326,2.347,0.977c0.606,0.65,0.91,1.566,0.91,2.747
				c0,0.072-0.002,0.179-0.007,0.323h-5.34c0.045,0.786,0.268,1.387,0.667,1.804c0.4,0.417,0.899,0.626,1.497,0.626
				c0.445,0,0.825-0.116,1.14-0.35C144.07,19.78,144.32,19.408,144.504,18.896z M140.519,16.937h3.999
				c-0.054-0.602-0.207-1.052-0.458-1.353c-0.387-0.467-0.888-0.7-1.503-0.7c-0.558,0-1.026,0.186-1.406,0.559
				S140.56,16.313,140.519,16.937z"/>
			<path d="M147.461,21.198v-6.207h-1.072v-0.942h1.072v-0.761c0-0.48,0.042-0.837,0.128-1.07c0.117-0.314,0.323-0.569,0.617-0.764
				c0.294-0.195,0.707-0.292,1.237-0.292c0.341,0,0.719,0.04,1.133,0.121l-0.182,1.057c-0.252-0.044-0.49-0.067-0.715-0.067
				c-0.369,0-0.629,0.078-0.782,0.235s-0.229,0.451-0.229,0.882v0.66h1.396v0.942h-1.396v6.207H147.461z"/>
			<path d="M151.023,21.198v-9.869h1.214v9.869H151.023z"/>
			<path d="M159.02,18.896l1.254,0.155c-0.198,0.731-0.564,1.299-1.099,1.703s-1.218,0.606-2.05,0.606
				c-1.047,0-1.878-0.322-2.491-0.966c-0.614-0.644-0.92-1.547-0.92-2.709c0-1.203,0.31-2.136,0.93-2.8
				c0.621-0.664,1.425-0.997,2.414-0.997c0.958,0,1.74,0.326,2.347,0.977c0.606,0.65,0.91,1.566,0.91,2.747
				c0,0.072-0.002,0.179-0.007,0.323h-5.34c0.045,0.786,0.268,1.387,0.667,1.804c0.4,0.417,0.899,0.626,1.497,0.626
				c0.445,0,0.825-0.116,1.14-0.35C158.586,19.78,158.835,19.408,159.02,18.896z M155.035,16.937h3.999
				c-0.054-0.602-0.207-1.052-0.458-1.353c-0.387-0.467-0.888-0.7-1.503-0.7c-0.558,0-1.026,0.186-1.406,0.559
				S155.075,16.313,155.035,16.937z"/>
			<path d="M166.47,18.58l1.193,0.155c-0.13,0.821-0.464,1.464-1.001,1.929c-0.538,0.464-1.197,0.697-1.979,0.697
				c-0.98,0-1.768-0.32-2.364-0.959s-0.893-1.556-0.893-2.75c0-0.771,0.128-1.447,0.384-2.026c0.256-0.579,0.646-1.013,1.17-1.302
				c0.523-0.29,1.093-0.435,1.709-0.435c0.778,0,1.414,0.197,1.908,0.589c0.495,0.393,0.812,0.95,0.951,1.673l-1.18,0.182
				c-0.112-0.48-0.312-0.841-0.597-1.084c-0.286-0.242-0.63-0.363-1.035-0.363c-0.611,0-1.108,0.219-1.49,0.656
				c-0.382,0.438-0.573,1.13-0.573,2.077c0,0.96,0.185,1.659,0.553,2.094c0.369,0.436,0.85,0.653,1.443,0.653
				c0.477,0,0.874-0.146,1.193-0.438C166.183,19.634,166.385,19.186,166.47,18.58z"/>
			<path d="M171.311,20.114l0.175,1.07c-0.341,0.072-0.647,0.108-0.917,0.108c-0.44,0-0.782-0.07-1.025-0.208
				c-0.243-0.139-0.414-0.322-0.512-0.549c-0.099-0.227-0.148-0.704-0.148-1.431v-4.113h-0.89v-0.942h0.89v-1.771l1.207-0.727v2.498
				h1.22v0.942h-1.22v4.181c0,0.346,0.021,0.568,0.064,0.667c0.042,0.099,0.112,0.177,0.209,0.236
				c0.097,0.058,0.235,0.087,0.415,0.087C170.913,20.162,171.09,20.146,171.311,20.114z"/>
			<path d="M172.545,12.723v-1.394h1.214v1.394H172.545z M172.545,21.198v-7.149h1.214v7.149H172.545z"/>
			<path d="M175.155,17.624c0-1.324,0.369-2.305,1.106-2.942c0.616-0.529,1.366-0.794,2.252-0.794c0.984,0,1.789,0.322,2.414,0.966
				c0.625,0.644,0.937,1.534,0.937,2.669c0,0.92-0.138,1.644-0.415,2.171s-0.679,0.937-1.207,1.229
				c-0.528,0.292-1.105,0.438-1.729,0.438c-1.002,0-1.813-0.321-2.431-0.963C175.464,19.755,175.155,18.831,175.155,17.624z
				 M176.403,17.624c0,0.916,0.2,1.601,0.6,2.057c0.4,0.456,0.903,0.683,1.51,0.683c0.603,0,1.104-0.229,1.503-0.687
				c0.4-0.458,0.6-1.155,0.6-2.094c0-0.884-0.201-1.554-0.603-2.009c-0.403-0.456-0.903-0.683-1.5-0.683
				c-0.607,0-1.11,0.227-1.51,0.68C176.603,16.024,176.403,16.708,176.403,17.624z"/>
			<path d="M183.287,21.198v-7.149h1.092v1.017c0.526-0.785,1.286-1.178,2.279-1.178c0.432,0,0.828,0.078,1.19,0.232
				s0.633,0.358,0.813,0.609s0.306,0.55,0.377,0.895c0.045,0.225,0.068,0.617,0.068,1.178v4.396h-1.214V16.85
				c0-0.494-0.047-0.863-0.142-1.107s-0.262-0.44-0.502-0.586c-0.24-0.146-0.522-0.219-0.846-0.219
				c-0.517,0-0.963,0.164-1.338,0.492s-0.563,0.949-0.563,1.865v3.904H183.287z"/>
			<path d="M194.955,21.198v-6.207h-1.072v-0.942h1.072v-0.761c0-0.48,0.042-0.837,0.128-1.07c0.117-0.314,0.323-0.569,0.617-0.764
				c0.294-0.195,0.707-0.292,1.237-0.292c0.341,0,0.719,0.04,1.133,0.121l-0.182,1.057c-0.252-0.044-0.49-0.067-0.715-0.067
				c-0.369,0-0.629,0.078-0.782,0.235s-0.229,0.451-0.229,0.882v0.66h1.396v0.942h-1.396v6.207H194.955z"/>
			<path d="M198.53,21.198v-7.149h1.092v1.084c0.278-0.507,0.536-0.841,0.772-1.003s0.496-0.243,0.779-0.243
				c0.409,0,0.825,0.13,1.247,0.391l-0.418,1.124c-0.296-0.175-0.593-0.262-0.89-0.262c-0.266,0-0.504,0.08-0.715,0.239
				c-0.211,0.16-0.362,0.38-0.452,0.663c-0.135,0.431-0.203,0.902-0.203,1.414v3.743H198.53z"/>
			<path d="M202.69,17.624c0-1.324,0.369-2.305,1.106-2.942c0.616-0.529,1.366-0.794,2.252-0.794c0.984,0,1.789,0.322,2.414,0.966
				c0.625,0.644,0.937,1.534,0.937,2.669c0,0.92-0.138,1.644-0.415,2.171s-0.679,0.937-1.207,1.229
				c-0.528,0.292-1.105,0.438-1.729,0.438c-1.002,0-1.813-0.321-2.431-0.963C203,19.755,202.69,18.831,202.69,17.624z
				 M203.938,17.624c0,0.916,0.2,1.601,0.6,2.057c0.4,0.456,0.903,0.683,1.51,0.683c0.603,0,1.104-0.229,1.503-0.687
				c0.4-0.458,0.6-1.155,0.6-2.094c0-0.884-0.201-1.554-0.603-2.009c-0.403-0.456-0.903-0.683-1.5-0.683
				c-0.607,0-1.11,0.227-1.51,0.68C204.138,16.024,203.938,16.708,203.938,17.624z"/>
			<path d="M210.822,21.198v-7.149h1.086v1.003c0.225-0.35,0.523-0.632,0.896-0.845c0.373-0.213,0.798-0.32,1.274-0.32
				c0.53,0,0.965,0.11,1.305,0.33s0.579,0.527,0.718,0.922c0.566-0.835,1.303-1.252,2.211-1.252c0.71,0,1.256,0.197,1.639,0.589
				c0.382,0.393,0.573,0.998,0.573,1.814v4.908h-1.207v-4.503c0-0.485-0.04-0.834-0.118-1.047c-0.079-0.213-0.221-0.385-0.428-0.515
				c-0.207-0.13-0.449-0.195-0.728-0.195c-0.503,0-0.921,0.167-1.254,0.501c-0.333,0.334-0.499,0.87-0.499,1.605v4.154h-1.213
				v-4.645c0-0.539-0.099-0.942-0.297-1.212c-0.198-0.269-0.521-0.404-0.971-0.404c-0.342,0-0.658,0.09-0.947,0.27
				c-0.29,0.179-0.5,0.442-0.631,0.788s-0.195,0.844-0.195,1.494v3.709H210.822z"/>
			<path d="M225.905,16.392c0-1.638,0.44-2.92,1.322-3.847c0.881-0.927,2.018-1.39,3.412-1.39c0.913,0,1.735,0.218,2.468,0.653
				c0.733,0.436,1.292,1.042,1.675,1.821c0.385,0.778,0.577,1.662,0.577,2.649c0,1-0.202,1.896-0.607,2.686
				c-0.404,0.79-0.978,1.388-1.719,1.794s-1.542,0.609-2.4,0.609c-0.93,0-1.762-0.225-2.495-0.673
				c-0.733-0.449-1.288-1.062-1.666-1.838S225.905,17.258,225.905,16.392z M227.254,16.412c0,1.189,0.32,2.126,0.961,2.811
				c0.641,0.684,1.444,1.026,2.411,1.026c0.984,0,1.794-0.346,2.431-1.037c0.636-0.691,0.954-1.672,0.954-2.942
				c0-0.803-0.136-1.504-0.408-2.104s-0.67-1.064-1.193-1.394c-0.524-0.33-1.111-0.495-1.763-0.495c-0.926,0-1.723,0.318-2.39,0.953
				C227.587,13.866,227.254,14.926,227.254,16.412z"/>
			<path d="M237.912,21.198h-1.126v-9.869H238v3.521c0.513-0.642,1.167-0.963,1.962-0.963c0.44,0,0.857,0.089,1.251,0.266
				s0.717,0.426,0.971,0.747c0.254,0.321,0.453,0.708,0.597,1.162c0.145,0.453,0.216,0.938,0.216,1.454
				c0,1.225-0.303,2.172-0.91,2.841c-0.606,0.668-1.335,1.003-2.185,1.003c-0.845,0-1.508-0.353-1.989-1.057V21.198z M237.898,17.57
				c0,0.857,0.117,1.477,0.352,1.858c0.382,0.624,0.898,0.936,1.551,0.936c0.53,0,0.988-0.229,1.375-0.69
				c0.387-0.46,0.58-1.146,0.58-2.057c0-0.933-0.186-1.622-0.557-2.066c-0.37-0.444-0.819-0.667-1.345-0.667
				c-0.53,0-0.989,0.23-1.376,0.69S237.898,16.699,237.898,17.57z"/>
			<path d="M243.987,19.064l1.2-0.188c0.067,0.48,0.255,0.848,0.563,1.104c0.308,0.255,0.738,0.383,1.291,0.383
				c0.557,0,0.971-0.113,1.24-0.34s0.404-0.492,0.404-0.798c0-0.273-0.119-0.489-0.356-0.646c-0.167-0.108-0.58-0.245-1.241-0.411
				c-0.89-0.225-1.507-0.418-1.851-0.583c-0.344-0.164-0.604-0.39-0.782-0.68s-0.267-0.609-0.267-0.959
				c0-0.318,0.073-0.614,0.22-0.885c0.146-0.271,0.345-0.497,0.597-0.676c0.188-0.139,0.445-0.257,0.771-0.354
				s0.676-0.145,1.049-0.145c0.562,0,1.055,0.081,1.479,0.243s0.738,0.38,0.941,0.656c0.202,0.276,0.341,0.645,0.418,1.107
				l-1.188,0.162c-0.054-0.368-0.21-0.655-0.468-0.862c-0.259-0.207-0.624-0.31-1.096-0.31c-0.558,0-0.956,0.092-1.194,0.276
				s-0.356,0.399-0.356,0.646c0,0.157,0.049,0.298,0.147,0.424c0.1,0.13,0.254,0.238,0.466,0.323
				c0.121,0.045,0.479,0.148,1.072,0.31c0.858,0.229,1.457,0.417,1.797,0.562c0.339,0.146,0.605,0.358,0.799,0.636
				c0.193,0.278,0.29,0.624,0.29,1.037c0,0.404-0.118,0.785-0.354,1.141c-0.235,0.357-0.576,0.633-1.021,0.828
				c-0.444,0.195-0.948,0.293-1.51,0.293c-0.931,0-1.64-0.193-2.128-0.579C244.433,20.395,244.122,19.823,243.987,19.064z"/>
			<path d="M253.958,20.114l0.175,1.07c-0.342,0.072-0.647,0.108-0.917,0.108c-0.44,0-0.782-0.07-1.024-0.208
				c-0.243-0.139-0.414-0.322-0.513-0.549s-0.148-0.704-0.148-1.431v-4.113h-0.89v-0.942h0.89v-1.771l1.207-0.727v2.498h1.221v0.942
				h-1.221v4.181c0,0.346,0.021,0.568,0.063,0.667c0.043,0.099,0.112,0.177,0.21,0.236c0.096,0.058,0.234,0.087,0.414,0.087
				C253.56,20.162,253.738,20.146,253.958,20.114z"/>
			<path d="M255.172,21.198v-7.149h1.093v1.084c0.278-0.507,0.536-0.841,0.771-1.003c0.236-0.162,0.496-0.243,0.779-0.243
				c0.409,0,0.825,0.13,1.247,0.391l-0.418,1.124c-0.297-0.175-0.593-0.262-0.89-0.262c-0.266,0-0.504,0.08-0.715,0.239
				c-0.212,0.16-0.362,0.38-0.452,0.663c-0.135,0.431-0.202,0.902-0.202,1.414v3.743H255.172z"/>
			<path d="M264.478,21.198v-1.05c-0.558,0.808-1.315,1.212-2.272,1.212c-0.423,0-0.817-0.081-1.184-0.242
				c-0.366-0.162-0.639-0.365-0.815-0.609c-0.178-0.245-0.303-0.544-0.375-0.899c-0.049-0.238-0.074-0.615-0.074-1.131v-4.43h1.214
				v3.965c0,0.633,0.025,1.059,0.074,1.279c0.076,0.319,0.238,0.569,0.485,0.751c0.247,0.182,0.554,0.272,0.917,0.272
				c0.364,0,0.706-0.093,1.025-0.279c0.319-0.187,0.545-0.44,0.678-0.761s0.199-0.787,0.199-1.397v-3.831h1.213v7.149H264.478z"/>
			<path d="M272.027,18.58l1.193,0.155c-0.13,0.821-0.464,1.464-1.001,1.929s-1.197,0.697-1.979,0.697
				c-0.979,0-1.768-0.32-2.363-0.959s-0.894-1.556-0.894-2.75c0-0.771,0.129-1.447,0.385-2.026c0.256-0.579,0.646-1.013,1.17-1.302
				c0.523-0.29,1.093-0.435,1.709-0.435c0.777,0,1.414,0.197,1.908,0.589s0.812,0.95,0.951,1.673l-1.181,0.182
				c-0.112-0.48-0.311-0.841-0.597-1.084c-0.285-0.242-0.63-0.363-1.034-0.363c-0.612,0-1.108,0.219-1.49,0.656
				c-0.383,0.438-0.573,1.13-0.573,2.077c0,0.96,0.184,1.659,0.553,2.094c0.368,0.436,0.85,0.653,1.442,0.653
				c0.477,0,0.875-0.146,1.194-0.438C271.739,19.634,271.941,19.186,272.027,18.58z"/>
			<path d="M276.951,20.114l0.175,1.07c-0.342,0.072-0.647,0.108-0.917,0.108c-0.44,0-0.782-0.07-1.024-0.208
				c-0.243-0.139-0.414-0.322-0.513-0.549s-0.148-0.704-0.148-1.431v-4.113h-0.89v-0.942h0.89v-1.771l1.207-0.727v2.498h1.221v0.942
				h-1.221v4.181c0,0.346,0.021,0.568,0.063,0.667c0.043,0.099,0.112,0.177,0.21,0.236c0.096,0.058,0.234,0.087,0.414,0.087
				C276.552,20.162,276.73,20.146,276.951,20.114z"/>
			<path d="M278.185,12.723v-1.394h1.214v1.394H278.185z M278.185,21.198v-7.149h1.214v7.149H278.185z"/>
			<path d="M280.794,17.624c0-1.324,0.368-2.305,1.105-2.942c0.615-0.529,1.366-0.794,2.252-0.794c0.984,0,1.789,0.322,2.414,0.966
				s0.938,1.534,0.938,2.669c0,0.92-0.139,1.644-0.415,2.171s-0.679,0.937-1.207,1.229c-0.528,0.292-1.104,0.438-1.729,0.438
				c-1.003,0-1.813-0.321-2.431-0.963C281.103,19.755,280.794,18.831,280.794,17.624z M282.042,17.624c0,0.916,0.2,1.601,0.6,2.057
				c0.4,0.456,0.904,0.683,1.511,0.683c0.603,0,1.104-0.229,1.504-0.687c0.399-0.458,0.6-1.155,0.6-2.094
				c0-0.884-0.201-1.554-0.604-2.009s-0.902-0.683-1.5-0.683c-0.606,0-1.11,0.227-1.511,0.68
				C282.242,16.024,282.042,16.708,282.042,17.624z"/>
			<path d="M288.83,21.198v-7.149h1.093v1.017c0.525-0.785,1.285-1.178,2.278-1.178c0.432,0,0.828,0.078,1.19,0.232
				s0.633,0.358,0.813,0.609s0.306,0.55,0.378,0.895c0.045,0.225,0.067,0.617,0.067,1.178v4.396h-1.214V16.85
				c0-0.494-0.047-0.863-0.142-1.107s-0.262-0.44-0.502-0.586c-0.241-0.146-0.523-0.219-0.847-0.219
				c-0.517,0-0.963,0.164-1.339,0.492c-0.375,0.328-0.563,0.949-0.563,1.865v3.904H288.83z"/>
			<path d="M296.024,19.064l1.2-0.188c0.067,0.48,0.255,0.848,0.563,1.104c0.308,0.255,0.738,0.383,1.291,0.383
				c0.557,0,0.971-0.113,1.24-0.34s0.404-0.492,0.404-0.798c0-0.273-0.119-0.489-0.356-0.646c-0.167-0.108-0.58-0.245-1.241-0.411
				c-0.89-0.225-1.507-0.418-1.851-0.583c-0.344-0.164-0.604-0.39-0.782-0.68s-0.267-0.609-0.267-0.959
				c0-0.318,0.073-0.614,0.22-0.885c0.146-0.271,0.345-0.497,0.597-0.676c0.188-0.139,0.445-0.257,0.771-0.354
				s0.676-0.145,1.049-0.145c0.562,0,1.055,0.081,1.479,0.243s0.738,0.38,0.941,0.656c0.202,0.276,0.341,0.645,0.418,1.107
				l-1.188,0.162c-0.054-0.368-0.21-0.655-0.468-0.862c-0.259-0.207-0.624-0.31-1.096-0.31c-0.558,0-0.956,0.092-1.194,0.276
				s-0.356,0.399-0.356,0.646c0,0.157,0.049,0.298,0.147,0.424c0.1,0.13,0.254,0.238,0.466,0.323
				c0.121,0.045,0.479,0.148,1.072,0.31c0.858,0.229,1.457,0.417,1.797,0.562c0.339,0.146,0.605,0.358,0.799,0.636
				c0.193,0.278,0.29,0.624,0.29,1.037c0,0.404-0.118,0.785-0.354,1.141c-0.235,0.357-0.576,0.633-1.021,0.828
				c-0.444,0.195-0.948,0.293-1.51,0.293c-0.931,0-1.64-0.193-2.128-0.579C296.47,20.395,296.159,19.823,296.024,19.064z"/>
		</g>
	</g>
	
		<path clip-path="url(#SVGID_2_)" fill="none" stroke="#000000" stroke-width="0.7095" stroke-linejoin="round" stroke-miterlimit="10" d="
		M10.381,45.49c0,3.277,2.595,5.87,5.876,5.87c3.305,0,5.901-2.593,5.901-5.87c0-3.307-2.596-5.899-5.901-5.899
		C12.976,39.591,10.381,42.184,10.381,45.49z"/>
	
		<polygon clip-path="url(#SVGID_2_)" fill="none" stroke="#000000" stroke-width="0.7095" stroke-linejoin="round" stroke-miterlimit="10" points="
		16.503,36.999 20.053,32.283 20.053,38.759 28.059,37.811 23.921,42.526 28.891,45.49 24.754,47.838 27.716,52.553 21.228,52.309 
		20.396,59.969 17.09,54.314 12.732,59.039 12.145,52.309 5.656,54.314 9.794,49.012 3.305,46.077 8.619,44.659 6.488,36.412 
		12.145,39.004 13.319,33.115 	"/>
	
		<path clip-path="url(#SVGID_2_)" fill="none" stroke="#000000" stroke-width="0.7095" stroke-linejoin="round" stroke-miterlimit="10" d="
		M361.706,13.667c0,3.307,2.576,5.899,5.879,5.899c3.302,0,5.898-2.592,5.898-5.899c0-3.297-2.597-5.889-5.898-5.889
		C364.282,7.777,361.706,10.37,361.706,13.667z"/>
	
		<polygon clip-path="url(#SVGID_2_)" fill="none" stroke="#000000" stroke-width="0.7095" stroke-linejoin="round" stroke-miterlimit="10" points="
		367.83,5.185 371.357,0.46 371.357,6.946 379.381,6.017 375.247,10.712 380.195,13.667 376.08,16.015 379.019,20.74 
		372.552,20.495 371.719,28.145 368.417,22.5 364.057,27.216 363.469,20.495 356.982,22.5 361.097,17.188 354.63,14.253 
		359.921,12.835 357.815,4.598 363.469,7.19 364.645,1.292 	"/>
	<g clip-path="url(#SVGID_2_)">
		<defs>
			<rect id="SVGID_13_" x="80.285" y="139.258" width="20.151" height="16.973"/>
		</defs>
		<clipPath id="SVGID_14_">
			<use xlink:href="#SVGID_13_"  overflow="visible"/>
		</clipPath>
		<g clip-path="url(#SVGID_14_)">
			<path d="M82.575,150.267c-0.475-0.598-0.876-1.298-1.205-2.101c-0.328-0.802-0.493-1.633-0.493-2.492
				c0-0.757,0.123-1.483,0.369-2.177c0.287-0.805,0.73-1.607,1.329-2.406h0.617c-0.386,0.662-0.641,1.135-0.765,1.418
				c-0.195,0.439-0.348,0.897-0.459,1.375c-0.137,0.595-0.206,1.194-0.206,1.795c0,1.531,0.477,3.06,1.43,4.588H82.575z"/>
			<path d="M87.535,147.583c-0.319,0.271-0.625,0.461-0.92,0.573c-0.295,0.112-0.611,0.167-0.949,0.167
				c-0.558,0-0.987-0.136-1.287-0.408c-0.299-0.272-0.449-0.62-0.449-1.043c0-0.248,0.057-0.475,0.169-0.68
				c0.113-0.206,0.262-0.37,0.445-0.494c0.184-0.124,0.39-0.218,0.62-0.282c0.169-0.044,0.424-0.087,0.765-0.129
				c0.695-0.083,1.207-0.182,1.535-0.296c0.003-0.118,0.005-0.193,0.005-0.225c0-0.35-0.081-0.597-0.244-0.74
				c-0.22-0.194-0.547-0.291-0.98-0.291c-0.405,0-0.704,0.071-0.896,0.212c-0.193,0.142-0.336,0.393-0.428,0.752l-0.842-0.115
				c0.077-0.359,0.203-0.65,0.378-0.871s0.429-0.392,0.76-0.511c0.332-0.12,0.716-0.179,1.153-0.179
				c0.433,0,0.786,0.051,1.057,0.153s0.47,0.23,0.598,0.384s0.217,0.35,0.268,0.585c0.028,0.146,0.043,0.411,0.043,0.792v1.146
				c0,0.799,0.018,1.304,0.055,1.516c0.037,0.212,0.109,0.415,0.218,0.609h-0.899C87.618,148.031,87.561,147.822,87.535,147.583z
				 M87.463,145.664c-0.313,0.127-0.781,0.236-1.406,0.325c-0.354,0.051-0.604,0.108-0.751,0.172
				c-0.146,0.064-0.26,0.157-0.339,0.279s-0.12,0.259-0.12,0.408c0,0.229,0.087,0.42,0.261,0.573s0.428,0.229,0.763,0.229
				c0.332,0,0.626-0.072,0.885-0.217c0.258-0.145,0.448-0.343,0.569-0.594c0.093-0.194,0.139-0.481,0.139-0.859V145.664z"/>
			<path d="M90.232,150.267h-0.617c0.954-1.528,1.43-3.057,1.43-4.588c0-0.599-0.069-1.192-0.206-1.781
				c-0.108-0.477-0.26-0.936-0.455-1.375c-0.124-0.286-0.381-0.764-0.77-1.432h0.617c0.599,0.799,1.042,1.601,1.33,2.406
				c0.245,0.694,0.368,1.42,0.368,2.177c0,0.859-0.165,1.69-0.495,2.492S90.704,149.668,90.232,150.267z"/>
		</g>
	</g>
	<g clip-path="url(#SVGID_2_)">
		<defs>
			<rect id="SVGID_15_" x="227.072" y="139.258" width="20.151" height="16.973"/>
		</defs>
		<clipPath id="SVGID_16_">
			<use xlink:href="#SVGID_15_"  overflow="visible"/>
		</clipPath>
		<g clip-path="url(#SVGID_16_)">
			<path d="M229.363,150.267c-0.475-0.598-0.876-1.298-1.205-2.101c-0.328-0.802-0.493-1.633-0.493-2.492
				c0-0.757,0.123-1.483,0.369-2.177c0.287-0.805,0.73-1.607,1.329-2.406h0.617c-0.386,0.662-0.641,1.135-0.765,1.418
				c-0.195,0.439-0.348,0.897-0.459,1.375c-0.137,0.595-0.206,1.194-0.206,1.795c0,1.531,0.477,3.06,1.43,4.588H229.363z"/>
			<path d="M231.803,148.209h-0.799v-7h0.861v2.497c0.364-0.455,0.828-0.683,1.392-0.683c0.313,0,0.608,0.063,0.887,0.188
				c0.279,0.126,0.509,0.303,0.688,0.53c0.181,0.228,0.321,0.502,0.424,0.823c0.102,0.322,0.152,0.666,0.152,1.031
				c0,0.869-0.215,1.541-0.646,2.015s-0.947,0.711-1.549,0.711c-0.599,0-1.069-0.25-1.411-0.75V148.209z M231.793,145.636
				c0,0.608,0.083,1.047,0.249,1.317c0.271,0.443,0.637,0.664,1.1,0.664c0.376,0,0.702-0.163,0.976-0.49
				c0.274-0.326,0.411-0.813,0.411-1.458c0-0.662-0.131-1.15-0.395-1.466c-0.263-0.315-0.581-0.473-0.954-0.473
				c-0.376,0-0.702,0.163-0.976,0.489C231.931,144.546,231.793,145.018,231.793,145.636z"/>
			<path d="M237.02,150.267h-0.617c0.953-1.528,1.43-3.057,1.43-4.588c0-0.599-0.068-1.192-0.205-1.781
				c-0.108-0.477-0.26-0.936-0.454-1.375c-0.125-0.286-0.382-0.764-0.771-1.432h0.617c0.6,0.799,1.042,1.601,1.329,2.406
				c0.246,0.694,0.368,1.42,0.368,2.177c0,0.859-0.165,1.69-0.495,2.492C237.893,148.968,237.492,149.668,237.02,150.267z"/>
		</g>
	</g>
	<g clip-path="url(#SVGID_2_)">
		<defs>
			<rect id="SVGID_17_" x="394.471" y="139.258" width="20.151" height="16.973"/>
		</defs>
		<clipPath id="SVGID_18_">
			<use xlink:href="#SVGID_17_"  overflow="visible"/>
		</clipPath>
		<g clip-path="url(#SVGID_18_)">
			<path d="M396.763,150.267c-0.476-0.598-0.877-1.298-1.205-2.101c-0.329-0.802-0.493-1.633-0.493-2.492
				c0-0.757,0.123-1.483,0.368-2.177c0.287-0.805,0.73-1.607,1.33-2.406h0.616c-0.386,0.662-0.641,1.135-0.765,1.418
				c-0.194,0.439-0.348,0.897-0.459,1.375c-0.138,0.595-0.206,1.194-0.206,1.795c0,1.531,0.477,3.06,1.43,4.588H396.763z"/>
			<path d="M401.723,146.352l0.846,0.11c-0.092,0.583-0.329,1.039-0.71,1.368c-0.381,0.329-0.849,0.494-1.403,0.494
				c-0.695,0-1.254-0.227-1.676-0.681c-0.423-0.454-0.634-1.104-0.634-1.95c0-0.547,0.091-1.026,0.272-1.437
				s0.458-0.719,0.829-0.924c0.372-0.206,0.776-0.308,1.213-0.308c0.552,0,1.003,0.139,1.354,0.418
				c0.351,0.278,0.575,0.674,0.674,1.186l-0.837,0.129c-0.079-0.34-0.221-0.597-0.423-0.769c-0.203-0.172-0.447-0.258-0.734-0.258
				c-0.434,0-0.786,0.155-1.057,0.466c-0.271,0.31-0.406,0.801-0.406,1.473c0,0.681,0.131,1.176,0.392,1.485
				c0.262,0.309,0.603,0.463,1.023,0.463c0.338,0,0.62-0.104,0.847-0.311S401.663,146.781,401.723,146.352z"/>
			<path d="M403.918,150.267h-0.617c0.953-1.528,1.43-3.057,1.43-4.588c0-0.599-0.068-1.192-0.205-1.781
				c-0.108-0.477-0.26-0.936-0.454-1.375c-0.125-0.286-0.382-0.764-0.771-1.432h0.617c0.6,0.799,1.042,1.601,1.329,2.406
				c0.246,0.694,0.368,1.42,0.368,2.177c0,0.859-0.165,1.69-0.495,2.492C404.792,148.968,404.39,149.668,403.918,150.267z"/>
		</g>
	</g>
</g>
</svg>
