<?xml version="1.0" encoding="utf-8"?>
<!-- Generator: Adobe Illustrator 16.0.0, SVG Export Plug-In . SVG Version: 6.00 Build 0)  -->
<!DOCTYPE svg PUBLIC "-//W3C//DTD SVG 1.1//EN" "http://www.w3.org/Graphics/SVG/1.1/DTD/svg11.dtd">
<svg version="1.1" id="Layer_1" xmlns="http://www.w3.org/2000/svg" xmlns:xlink="http://www.w3.org/1999/xlink" x="0px" y="0px"
	 width="323.298px" height="331.396px" viewBox="0 0 323.298 331.396" enable-background="new 0 0 323.298 331.396"
	 xml:space="preserve">
<g>
	<defs>
		<rect id="SVGID_1_" width="323.298" height="331.396"/>
	</defs>
	<clipPath id="SVGID_2_">
		<use xlink:href="#SVGID_1_"  overflow="visible"/>
	</clipPath>
	<g clip-path="url(#SVGID_2_)">
	</g>
	
		<line clip-path="url(#SVGID_2_)" fill="none" stroke="#000000" stroke-width="0.7231" stroke-linejoin="round" stroke-miterlimit="10" x1="71.969" y1="240.979" x2="165.512" y2="1.446"/>
	
		<line clip-path="url(#SVGID_2_)" fill="none" stroke="#000000" stroke-width="0.7231" stroke-linejoin="round" stroke-miterlimit="10" x1="229.106" y1="311.297" x2="322.65" y2="72.014"/>
	
		<line clip-path="url(#SVGID_2_)" fill="none" stroke="#000000" stroke-width="0.7231" stroke-linejoin="round" stroke-miterlimit="10" x1="165.512" y1="1.446" x2="322.65" y2="72.014"/>
	
		<line clip-path="url(#SVGID_2_)" fill="none" stroke="#000000" stroke-width="0.7231" stroke-linejoin="round" stroke-miterlimit="10" x1="71.969" y1="240.979" x2="229.106" y2="310.599"/>
	
		<line clip-path="url(#SVGID_2_)" fill="none" stroke="#000000" stroke-width="0.7231" stroke-linejoin="round" stroke-miterlimit="10" x1="126.428" y1="102.007" x2="282.836" y2="173.054"/>
	
		<line clip-path="url(#SVGID_2_)" fill="none" stroke="#000000" stroke-width="0.7231" stroke-linejoin="round" stroke-miterlimit="10" x1="118.022" y1="122.883" x2="274.43" y2="192.723"/>
	
		<line clip-path="url(#SVGID_2_)" fill="none" stroke="#000000" stroke-width="0.7231" stroke-linejoin="round" stroke-miterlimit="10" x1="245.888" y1="37.673" x2="205.356" y2="136.817"/>
	
		<line clip-path="url(#SVGID_2_)" fill="none" stroke="#000000" stroke-width="0.7231" stroke-linejoin="round" stroke-miterlimit="10" x1="197.668" y1="158.412" x2="149.45" y2="275.065"/>
	<polygon clip-path="url(#SVGID_2_)" fill-rule="evenodd" clip-rule="evenodd" points="1.447,205.221 11.275,207.385 9.829,209.529 
		9.105,211.455 	"/>
	
		<line clip-path="url(#SVGID_2_)" fill="none" stroke="#000000" stroke-width="0.7231" stroke-linejoin="round" stroke-miterlimit="10" x1="68.601" y1="238.111" x2="9.829" y2="209.529"/>
	<polygon clip-path="url(#SVGID_2_)" fill-rule="evenodd" clip-rule="evenodd" points="83.968,312.02 93.547,309.377 93.547,312.02 
		93.547,314.189 	"/>
	
		<line clip-path="url(#SVGID_2_)" fill="none" stroke="#000000" stroke-width="0.7231" stroke-linejoin="round" stroke-miterlimit="10" x1="229.106" y1="311.297" x2="94.271" y2="311.297"/>
	
		<polyline clip-path="url(#SVGID_2_)" fill="none" stroke="#000000" stroke-width="0.7231" stroke-linejoin="round" stroke-miterlimit="10" points="
		181.356,311.297 181.606,307.706 182.084,304.34 182.803,301.223 183.752,298.58 184.95,296.186 186.149,294.516 187.596,293.318 
		189.263,292.82 	"/>
	<g clip-path="url(#SVGID_2_)">
		<defs>
			<rect id="SVGID_3_" x="160.002" y="296.66" width="18.235" height="16.807"/>
		</defs>
		<clipPath id="SVGID_4_">
			<use xlink:href="#SVGID_3_"  overflow="visible"/>
		</clipPath>
		<g clip-path="url(#SVGID_4_)">
			<defs>
				<rect id="SVGID_5_" x="160.002" y="296.66" width="17.986" height="16.807"/>
			</defs>
			<clipPath id="SVGID_6_">
				<use xlink:href="#SVGID_5_"  overflow="visible"/>
			</clipPath>
			<g clip-path="url(#SVGID_6_)">
				<path d="M163.757,305.786h-0.886v-5.64c-0.214,0.203-0.493,0.406-0.84,0.609c-0.346,0.204-0.656,0.356-0.932,0.458v-0.855
					c0.496-0.233,0.928-0.515,1.299-0.846c0.37-0.331,0.633-0.652,0.787-0.964h0.571V305.786z"/>
				<path d="M165.935,303.897l0.93-0.078c0.069,0.452,0.229,0.792,0.479,1.021c0.251,0.228,0.554,0.342,0.908,0.342
					c0.427,0,0.787-0.161,1.083-0.482c0.295-0.321,0.442-0.747,0.442-1.278c0-0.505-0.142-0.902-0.426-1.194
					c-0.283-0.292-0.655-0.438-1.114-0.438c-0.285,0-0.543,0.064-0.772,0.194c-0.229,0.129-0.41,0.297-0.542,0.504l-0.831-0.108
					l0.698-3.702h3.588v0.846H167.5l-0.389,1.937c0.433-0.301,0.888-0.452,1.363-0.452c0.63,0,1.161,0.218,1.594,0.654
					c0.434,0.436,0.65,0.996,0.65,1.682c0,0.652-0.19,1.216-0.571,1.69c-0.463,0.584-1.094,0.876-1.895,0.876
					c-0.656,0-1.191-0.184-1.606-0.551S165.994,304.504,165.935,303.897z"/>
			</g>
		</g>
		<g clip-path="url(#SVGID_4_)">
			<defs>
				<rect id="SVGID_7_" x="160.002" y="296.66" width="17.986" height="16.807"/>
			</defs>
			<clipPath id="SVGID_8_">
				<use xlink:href="#SVGID_7_"  overflow="visible"/>
			</clipPath>
			<g clip-path="url(#SVGID_8_)">
			</g>
		</g>
	</g>
	<g clip-path="url(#SVGID_2_)">
		<defs>
			<rect id="SVGID_9_" x="170.334" y="291.872" width="12.947" height="13.19"/>
		</defs>
		<clipPath id="SVGID_10_">
			<use xlink:href="#SVGID_9_"  overflow="visible"/>
		</clipPath>
		<g clip-path="url(#SVGID_10_)">
			<defs>
				<rect id="SVGID_11_" x="170.334" y="291.872" width="12.698" height="13.19"/>
			</defs>
			<clipPath id="SVGID_12_">
				<use xlink:href="#SVGID_11_"  overflow="visible"/>
			</clipPath>
			<g clip-path="url(#SVGID_12_)">
				<path d="M170.598,297.247c0-0.761,0.212-1.324,0.635-1.69c0.354-0.305,0.785-0.457,1.294-0.457c0.565,0,1.028,0.186,1.387,0.556
					c0.359,0.37,0.539,0.882,0.539,1.534c0,0.529-0.08,0.945-0.238,1.248c-0.159,0.304-0.391,0.539-0.693,0.706
					c-0.304,0.168-0.635,0.252-0.994,0.252c-0.575,0-1.041-0.185-1.396-0.554C170.776,298.473,170.598,297.941,170.598,297.247z
					 M171.315,297.247c0,0.526,0.114,0.921,0.345,1.183c0.229,0.262,0.519,0.393,0.867,0.393c0.347,0,0.634-0.131,0.864-0.395
					c0.229-0.263,0.345-0.664,0.345-1.203c0-0.509-0.116-0.894-0.347-1.155c-0.231-0.262-0.519-0.393-0.862-0.393
					c-0.349,0-0.638,0.13-0.867,0.391C171.429,296.328,171.315,296.722,171.315,297.247z"/>
			</g>
		</g>
		<g clip-path="url(#SVGID_10_)">
			<defs>
				<rect id="SVGID_13_" x="170.334" y="291.872" width="12.698" height="13.19"/>
			</defs>
			<clipPath id="SVGID_14_">
				<use xlink:href="#SVGID_13_"  overflow="visible"/>
			</clipPath>
			<g clip-path="url(#SVGID_14_)">
			</g>
		</g>
	</g>
	<g clip-path="url(#SVGID_2_)">
		<defs>
			<rect id="SVGID_15_" x="49.668" y="302.918" width="42.208" height="16.782"/>
		</defs>
		<clipPath id="SVGID_16_">
			<use xlink:href="#SVGID_15_"  overflow="visible"/>
		</clipPath>
		<g clip-path="url(#SVGID_16_)">
			<defs>
				<rect id="SVGID_17_" x="49.668" y="302.918" width="41.958" height="16.782"/>
			</defs>
			<clipPath id="SVGID_18_">
				<use xlink:href="#SVGID_17_"  overflow="visible"/>
			</clipPath>
			<g clip-path="url(#SVGID_18_)">
				<path d="M52.281,312.021v-6.357h-2.376v-0.851h5.718v0.851h-2.387v6.357H52.281z"/>
				<path d="M56.687,312.021v-7.208h3.198c0.643,0,1.132,0.064,1.467,0.194c0.334,0.13,0.602,0.358,0.802,0.686
					c0.2,0.328,0.3,0.69,0.3,1.087c0,0.512-0.166,0.942-0.497,1.293c-0.331,0.351-0.843,0.573-1.535,0.669
					c0.252,0.121,0.444,0.24,0.576,0.358c0.279,0.256,0.543,0.575,0.792,0.959l1.255,1.962h-1.201l-0.955-1.5
					c-0.279-0.433-0.508-0.764-0.689-0.993c-0.18-0.229-0.342-0.39-0.484-0.481c-0.143-0.092-0.288-0.156-0.436-0.191
					c-0.108-0.023-0.286-0.035-0.532-0.035h-1.107v3.201H56.687z M57.642,307.993h2.052c0.437,0,0.778-0.045,1.024-0.135
					c0.246-0.09,0.433-0.234,0.561-0.433c0.128-0.198,0.192-0.414,0.192-0.646c0-0.341-0.124-0.621-0.372-0.841
					c-0.248-0.22-0.639-0.329-1.174-0.329h-2.283V307.993z"/>
				<path d="M68.614,304.813h0.955v4.164c0,0.725-0.082,1.3-0.246,1.727c-0.164,0.426-0.46,0.772-0.888,1.039
					c-0.428,0.268-0.99,0.401-1.686,0.401c-0.676,0-1.229-0.117-1.658-0.35c-0.43-0.232-0.737-0.569-0.92-1.01
					c-0.184-0.441-0.275-1.044-0.275-1.808v-4.164h0.955v4.159c0,0.626,0.058,1.088,0.175,1.385c0.116,0.296,0.316,0.524,0.6,0.686
					c0.284,0.16,0.631,0.241,1.041,0.241c0.702,0,1.202-0.159,1.5-0.478c0.299-0.317,0.448-0.929,0.448-1.834V304.813z"/>
				<path d="M71.107,312.021v-7.208h5.216v0.851h-4.261v2.208h3.991v0.846h-3.991v2.453h4.429v0.851H71.107z"/>
			</g>
		</g>
		<g clip-path="url(#SVGID_16_)">
			<defs>
				<rect id="SVGID_19_" x="49.668" y="302.918" width="41.958" height="16.782"/>
			</defs>
			<clipPath id="SVGID_20_">
				<use xlink:href="#SVGID_19_"  overflow="visible"/>
			</clipPath>
			<g clip-path="url(#SVGID_20_)">
			</g>
		</g>
	</g>
	<g clip-path="url(#SVGID_2_)">
		<defs>
			<rect id="SVGID_21_" x="49.668" y="313.467" width="47.721" height="16.807"/>
		</defs>
		<clipPath id="SVGID_22_">
			<use xlink:href="#SVGID_21_"  overflow="visible"/>
		</clipPath>
		<g clip-path="url(#SVGID_22_)">
			<defs>
				<rect id="SVGID_23_" x="49.668" y="313.467" width="47.497" height="16.807"/>
			</defs>
			<clipPath id="SVGID_24_">
				<use xlink:href="#SVGID_23_"  overflow="visible"/>
			</clipPath>
			<g clip-path="url(#SVGID_24_)">
				<path d="M50.436,322.593v-7.208h0.979l3.789,5.659v-5.659h0.915v7.208H55.14l-3.789-5.664v5.664H50.436z"/>
				<path d="M57.363,319.082c0-1.196,0.321-2.133,0.964-2.81s1.473-1.016,2.49-1.016c0.666,0,1.266,0.159,1.801,0.478
					c0.535,0.317,0.942,0.761,1.223,1.329c0.28,0.569,0.42,1.214,0.42,1.936c0,0.73-0.147,1.385-0.443,1.961
					c-0.295,0.577-0.713,1.014-1.255,1.311c-0.541,0.297-1.125,0.445-1.751,0.445c-0.679,0-1.286-0.164-1.821-0.492
					c-0.535-0.327-0.94-0.775-1.216-1.342C57.5,320.314,57.363,319.715,57.363,319.082z M58.347,319.097
					c0,0.869,0.234,1.553,0.701,2.053c0.468,0.5,1.054,0.75,1.759,0.75c0.719,0,1.31-0.253,1.774-0.757
					c0.464-0.505,0.696-1.222,0.696-2.149c0-0.586-0.1-1.099-0.298-1.536c-0.199-0.438-0.489-0.776-0.871-1.018
					s-0.811-0.361-1.287-0.361c-0.676,0-1.257,0.232-1.745,0.695C58.59,317.237,58.347,318.012,58.347,319.097z"/>
				<path d="M65.567,322.593v-7.208h3.198c0.643,0,1.132,0.064,1.467,0.194c0.334,0.13,0.602,0.358,0.802,0.686
					c0.2,0.328,0.3,0.69,0.3,1.087c0,0.512-0.166,0.942-0.497,1.293c-0.331,0.351-0.843,0.573-1.535,0.669
					c0.252,0.121,0.444,0.24,0.576,0.358c0.279,0.256,0.543,0.575,0.792,0.959l1.255,1.962h-1.201l-0.955-1.5
					c-0.279-0.433-0.508-0.764-0.689-0.993c-0.18-0.229-0.342-0.39-0.484-0.481c-0.143-0.092-0.288-0.156-0.436-0.191
					c-0.108-0.023-0.286-0.035-0.532-0.035h-1.107v3.201H65.567z M66.522,318.565h2.052c0.437,0,0.778-0.045,1.024-0.135
					c0.246-0.09,0.433-0.234,0.561-0.433c0.128-0.198,0.192-0.414,0.192-0.646c0-0.341-0.124-0.621-0.372-0.841
					c-0.248-0.22-0.639-0.329-1.174-0.329h-2.283V318.565z"/>
				<path d="M74.595,322.593v-6.357h-2.376v-0.851h5.718v0.851H75.55v6.357H74.595z"/>
				<path d="M79.017,322.593v-7.208h0.955v2.96h3.75v-2.96h0.955v7.208h-0.955v-3.397h-3.75v3.397H79.017z"/>
			</g>
		</g>
		<g clip-path="url(#SVGID_22_)">
			<defs>
				<rect id="SVGID_25_" x="49.668" y="313.467" width="47.497" height="16.807"/>
			</defs>
			<clipPath id="SVGID_26_">
				<use xlink:href="#SVGID_25_"  overflow="visible"/>
			</clipPath>
			<g clip-path="url(#SVGID_26_)">
			</g>
		</g>
	</g>
	<g clip-path="url(#SVGID_2_)">
		<defs>
			<rect id="SVGID_27_" x="3.592" y="248.434" width="65.733" height="16.782"/>
		</defs>
		<clipPath id="SVGID_28_">
			<use xlink:href="#SVGID_27_"  overflow="visible"/>
		</clipPath>
		<g clip-path="url(#SVGID_28_)">
			<defs>
				<rect id="SVGID_29_" x="3.592" y="248.434" width="65.508" height="16.782"/>
			</defs>
			<clipPath id="SVGID_30_">
				<use xlink:href="#SVGID_29_"  overflow="visible"/>
			</clipPath>
			<g clip-path="url(#SVGID_30_)">
				<path d="M4.331,257.536v-7.208h2.707c0.551,0,0.993,0.073,1.326,0.219c0.333,0.146,0.594,0.371,0.782,0.674
					s0.283,0.62,0.283,0.951c0,0.309-0.084,0.599-0.251,0.87c-0.167,0.272-0.42,0.492-0.758,0.659
					c0.436,0.128,0.771,0.346,1.006,0.653c0.234,0.309,0.352,0.672,0.352,1.092c0,0.338-0.071,0.651-0.214,0.941
					s-0.319,0.514-0.529,0.671c-0.21,0.158-0.473,0.276-0.79,0.356c-0.317,0.081-0.705,0.121-1.164,0.121H4.331z M5.285,253.356
					h1.56c0.423,0,0.727-0.027,0.91-0.083c0.243-0.072,0.426-0.192,0.549-0.359s0.185-0.377,0.185-0.629
					c0-0.239-0.058-0.45-0.172-0.632s-0.279-0.307-0.492-0.374c-0.213-0.066-0.579-0.101-1.097-0.101H5.285V253.356z M5.285,256.686
					h1.796c0.309,0,0.525-0.012,0.65-0.034c0.22-0.04,0.403-0.105,0.551-0.197c0.148-0.092,0.269-0.226,0.364-0.4
					c0.095-0.176,0.143-0.378,0.143-0.607c0-0.269-0.069-0.502-0.207-0.7s-0.329-0.338-0.573-0.418
					c-0.244-0.08-0.596-0.121-1.056-0.121H5.285V256.686z"/>
				<path d="M15.826,250.328h0.955v4.164c0,0.725-0.082,1.3-0.246,1.727c-0.164,0.426-0.46,0.772-0.888,1.039
					c-0.428,0.268-0.99,0.401-1.686,0.401c-0.676,0-1.229-0.117-1.658-0.35c-0.43-0.232-0.737-0.569-0.92-1.01
					c-0.184-0.441-0.275-1.044-0.275-1.808v-4.164h0.955v4.159c0,0.626,0.058,1.088,0.175,1.385c0.116,0.296,0.316,0.524,0.6,0.686
					c0.284,0.16,0.631,0.241,1.041,0.241c0.702,0,1.202-0.159,1.5-0.478c0.299-0.317,0.448-0.929,0.448-1.834V250.328z"/>
				<path d="M18.452,257.536v-7.208h0.955v7.208H18.452z"/>
				<path d="M21.11,257.536v-7.208h0.955v6.357h3.553v0.851H21.11z"/>
				<path d="M26.664,257.536v-7.208h2.485c0.561,0,0.989,0.034,1.284,0.104c0.414,0.095,0.766,0.267,1.058,0.517
					c0.38,0.32,0.665,0.731,0.854,1.231c0.188,0.5,0.283,1.07,0.283,1.713c0,0.548-0.064,1.032-0.192,1.455s-0.292,0.773-0.492,1.05
					c-0.2,0.277-0.419,0.495-0.657,0.654s-0.525,0.279-0.861,0.361s-0.723,0.123-1.159,0.123H26.664z M27.619,256.686h1.54
					c0.476,0,0.849-0.045,1.12-0.133c0.271-0.089,0.486-0.213,0.647-0.374c0.227-0.226,0.403-0.53,0.529-0.912
					c0.126-0.382,0.189-0.845,0.189-1.389c0-0.754-0.124-1.333-0.371-1.738c-0.248-0.404-0.549-0.676-0.903-0.813
					c-0.256-0.099-0.667-0.147-1.235-0.147h-1.516V256.686z"/>
				<path d="M34.034,257.536v-7.208h0.955v7.208H34.034z"/>
				<path d="M36.722,257.536v-7.208h0.979l3.789,5.659v-5.659h0.915v7.208h-0.979l-3.789-5.664v5.664H36.722z"/>
				<path d="M47.315,254.709v-0.846l3.056-0.005v2.675c-0.469,0.373-0.953,0.654-1.452,0.843c-0.499,0.188-1.01,0.283-1.535,0.283
					c-0.708,0-1.353-0.152-1.932-0.455s-1.016-0.741-1.311-1.315c-0.295-0.573-0.443-1.214-0.443-1.922
					c0-0.702,0.146-1.356,0.44-1.965c0.293-0.607,0.716-1.06,1.267-1.354c0.551-0.295,1.186-0.442,1.904-0.442
					c0.521,0,0.993,0.085,1.415,0.254c0.422,0.168,0.752,0.403,0.992,0.705s0.421,0.695,0.546,1.18l-0.861,0.236
					c-0.108-0.367-0.243-0.655-0.403-0.865c-0.161-0.21-0.391-0.378-0.689-0.504c-0.299-0.126-0.63-0.189-0.994-0.189
					c-0.437,0-0.813,0.066-1.132,0.199s-0.575,0.308-0.77,0.523c-0.195,0.217-0.347,0.454-0.455,0.713
					c-0.184,0.446-0.276,0.93-0.276,1.45c0,0.643,0.111,1.181,0.332,1.613c0.222,0.433,0.544,0.754,0.967,0.963
					c0.423,0.21,0.873,0.315,1.348,0.315c0.414,0,0.817-0.08,1.21-0.239c0.394-0.158,0.692-0.328,0.896-0.509v-1.342H47.315z"/>
			</g>
		</g>
		<g clip-path="url(#SVGID_28_)">
			<defs>
				<rect id="SVGID_31_" x="3.592" y="248.434" width="65.508" height="16.782"/>
			</defs>
			<clipPath id="SVGID_32_">
				<use xlink:href="#SVGID_31_"  overflow="visible"/>
			</clipPath>
			<g clip-path="url(#SVGID_32_)">
			</g>
		</g>
	</g>
	<g clip-path="url(#SVGID_2_)">
		<defs>
			<rect id="SVGID_33_" x="3.592" y="258.982" width="47.746" height="16.807"/>
		</defs>
		<clipPath id="SVGID_34_">
			<use xlink:href="#SVGID_33_"  overflow="visible"/>
		</clipPath>
		<g clip-path="url(#SVGID_34_)">
			<defs>
				<rect id="SVGID_35_" x="3.592" y="258.982" width="47.497" height="16.807"/>
			</defs>
			<clipPath id="SVGID_36_">
				<use xlink:href="#SVGID_35_"  overflow="visible"/>
			</clipPath>
			<g clip-path="url(#SVGID_36_)">
				<path d="M4.36,268.108V260.9h0.979l3.789,5.659V260.9h0.915v7.208H9.064l-3.789-5.664v5.664H4.36z"/>
				<path d="M11.287,264.598c0-1.196,0.321-2.133,0.964-2.81s1.473-1.016,2.49-1.016c0.666,0,1.266,0.159,1.801,0.478
					c0.535,0.317,0.942,0.761,1.223,1.329c0.28,0.569,0.42,1.214,0.42,1.936c0,0.73-0.147,1.385-0.443,1.961
					c-0.295,0.577-0.713,1.014-1.255,1.311c-0.541,0.297-1.125,0.445-1.751,0.445c-0.679,0-1.286-0.164-1.821-0.492
					c-0.535-0.327-0.94-0.775-1.216-1.342C11.425,265.83,11.287,265.23,11.287,264.598z M12.271,264.612
					c0,0.869,0.234,1.553,0.701,2.053c0.468,0.5,1.054,0.75,1.759,0.75c0.719,0,1.31-0.253,1.774-0.757
					c0.464-0.505,0.696-1.222,0.696-2.149c0-0.586-0.1-1.099-0.298-1.536c-0.199-0.438-0.489-0.776-0.871-1.018
					s-0.811-0.361-1.287-0.361c-0.676,0-1.257,0.232-1.745,0.695C12.515,262.753,12.271,263.527,12.271,264.612z"/>
				<path d="M19.492,268.108V260.9h3.198c0.643,0,1.132,0.064,1.467,0.194c0.334,0.13,0.602,0.358,0.802,0.686
					c0.2,0.328,0.3,0.69,0.3,1.087c0,0.512-0.166,0.942-0.497,1.293c-0.331,0.351-0.843,0.573-1.535,0.669
					c0.252,0.121,0.444,0.24,0.576,0.358c0.279,0.256,0.543,0.575,0.792,0.959l1.255,1.962h-1.201l-0.955-1.5
					c-0.279-0.433-0.508-0.764-0.689-0.993c-0.18-0.229-0.342-0.39-0.484-0.481c-0.143-0.092-0.288-0.156-0.436-0.191
					c-0.108-0.023-0.286-0.035-0.532-0.035h-1.107v3.201H19.492z M20.446,264.081h2.052c0.437,0,0.778-0.045,1.024-0.135
					c0.246-0.09,0.433-0.234,0.561-0.433c0.128-0.198,0.192-0.414,0.192-0.646c0-0.341-0.124-0.621-0.372-0.841
					c-0.248-0.22-0.639-0.329-1.174-0.329h-2.283V264.081z"/>
				<path d="M28.52,268.108v-6.357h-2.376V260.9h5.718v0.851h-2.387v6.357H28.52z"/>
				<path d="M32.941,268.108V260.9h0.955v2.96h3.75v-2.96H38.6v7.208h-0.955v-3.397h-3.75v3.397H32.941z"/>
			</g>
		</g>
		<g clip-path="url(#SVGID_34_)">
			<defs>
				<rect id="SVGID_37_" x="3.592" y="258.982" width="47.497" height="16.807"/>
			</defs>
			<clipPath id="SVGID_38_">
				<use xlink:href="#SVGID_37_"  overflow="visible"/>
			</clipPath>
			<g clip-path="url(#SVGID_38_)">
			</g>
		</g>
	</g>
	<g clip-path="url(#SVGID_2_)">
		<defs>
			<rect id="SVGID_39_" x="111.783" y="192.029" width="40.537" height="16.782"/>
		</defs>
		<clipPath id="SVGID_40_">
			<use xlink:href="#SVGID_39_"  overflow="visible"/>
		</clipPath>
		<g clip-path="url(#SVGID_40_)">
			<defs>
				<rect id="SVGID_41_" x="111.783" y="192.029" width="40.313" height="16.782"/>
			</defs>
			<clipPath id="SVGID_42_">
				<use xlink:href="#SVGID_41_"  overflow="visible"/>
			</clipPath>
			<g clip-path="url(#SVGID_42_)">
				<path d="M111.985,201.132v-0.885l3.696-4.617c0.262-0.327,0.512-0.612,0.748-0.855h-4.025v-0.851h5.167v0.851l-4.05,5
					l-0.438,0.507h4.606v0.851H111.985z"/>
				<path d="M118.344,198.521c0-0.967,0.269-1.683,0.807-2.148c0.45-0.387,0.998-0.58,1.644-0.58c0.719,0,1.306,0.235,1.762,0.706
					c0.456,0.47,0.684,1.12,0.684,1.949c0,0.672-0.101,1.2-0.303,1.586c-0.202,0.385-0.495,0.684-0.881,0.896
					c-0.385,0.213-0.806,0.32-1.262,0.32c-0.731,0-1.323-0.234-1.774-0.703S118.344,199.402,118.344,198.521z M119.255,198.521
					c0,0.669,0.146,1.17,0.438,1.502c0.292,0.333,0.659,0.499,1.102,0.499c0.439,0,0.806-0.167,1.098-0.501s0.438-0.844,0.438-1.529
					c0-0.646-0.147-1.135-0.44-1.468c-0.294-0.332-0.659-0.499-1.095-0.499c-0.443,0-0.81,0.166-1.102,0.497
					S119.255,197.853,119.255,198.521z"/>
				<path d="M124.188,201.132v-5.222h0.797v0.742c0.384-0.573,0.938-0.86,1.664-0.86c0.315,0,0.604,0.057,0.868,0.17
					s0.462,0.262,0.593,0.445c0.131,0.184,0.223,0.401,0.275,0.653c0.033,0.164,0.049,0.451,0.049,0.86v3.211h-0.886v-3.177
					c0-0.36-0.035-0.63-0.104-0.809s-0.191-0.321-0.367-0.428c-0.175-0.106-0.381-0.159-0.617-0.159
					c-0.377,0-0.703,0.119-0.977,0.358s-0.411,0.693-0.411,1.362v2.852H124.188z"/>
				<path d="M133.28,199.45l0.916,0.113c-0.145,0.534-0.412,0.948-0.802,1.243c-0.39,0.296-0.889,0.443-1.496,0.443
					c-0.764,0-1.37-0.235-1.818-0.706c-0.448-0.47-0.672-1.13-0.672-1.979c0-0.879,0.226-1.561,0.679-2.046
					c0.453-0.484,1.04-0.728,1.762-0.728c0.699,0,1.27,0.238,1.712,0.713c0.443,0.476,0.664,1.145,0.664,2.006
					c0,0.053-0.001,0.132-0.005,0.236h-3.897c0.033,0.573,0.195,1.013,0.487,1.317s0.656,0.457,1.092,0.457
					c0.325,0,0.602-0.085,0.832-0.255C132.964,200.096,133.146,199.824,133.28,199.45z M130.372,198.02h2.918
					c-0.04-0.439-0.151-0.769-0.335-0.988c-0.282-0.341-0.648-0.512-1.097-0.512c-0.407,0-0.749,0.137-1.026,0.408
					C130.555,197.2,130.402,197.563,130.372,198.02z"/>
				<path d="M141.168,201.132h-0.886v-5.64c-0.213,0.203-0.493,0.406-0.839,0.609c-0.346,0.204-0.657,0.356-0.933,0.458v-0.855
					c0.496-0.233,0.929-0.515,1.299-0.846s0.633-0.652,0.788-0.964h0.571V201.132z"/>
			</g>
		</g>
		<g clip-path="url(#SVGID_40_)">
			<defs>
				<rect id="SVGID_43_" x="111.783" y="192.029" width="40.313" height="16.782"/>
			</defs>
			<clipPath id="SVGID_44_">
				<use xlink:href="#SVGID_43_"  overflow="visible"/>
			</clipPath>
			<g clip-path="url(#SVGID_44_)">
			</g>
		</g>
	</g>
	<g clip-path="url(#SVGID_2_)">
		<defs>
			<rect id="SVGID_45_" x="192.637" y="222.75" width="37.17" height="16.558"/>
		</defs>
		<clipPath id="SVGID_46_">
			<use xlink:href="#SVGID_45_"  overflow="visible"/>
		</clipPath>
		<g clip-path="url(#SVGID_46_)">
			<defs>
				<rect id="SVGID_47_" x="192.637" y="222.75" width="36.945" height="16.558"/>
			</defs>
			<clipPath id="SVGID_48_">
				<use xlink:href="#SVGID_47_"  overflow="visible"/>
			</clipPath>
			<g clip-path="url(#SVGID_48_)">
				<path d="M192.839,231.853v-0.885l3.695-4.617c0.263-0.327,0.512-0.612,0.748-0.855h-4.025v-0.851h5.167v0.851l-4.05,5
					l-0.438,0.507h4.605v0.851H192.839z"/>
				<path d="M199.199,229.241c0-0.967,0.269-1.683,0.807-2.148c0.45-0.387,0.998-0.58,1.644-0.58c0.719,0,1.306,0.235,1.762,0.706
					c0.456,0.47,0.685,1.12,0.685,1.949c0,0.672-0.102,1.2-0.303,1.586c-0.202,0.385-0.495,0.684-0.881,0.896
					s-0.807,0.32-1.263,0.32c-0.731,0-1.322-0.234-1.773-0.703S199.199,230.123,199.199,229.241z M200.109,229.241
					c0,0.669,0.146,1.17,0.438,1.502c0.292,0.333,0.659,0.499,1.102,0.499c0.439,0,0.806-0.167,1.098-0.501s0.438-0.844,0.438-1.529
					c0-0.646-0.147-1.135-0.44-1.468c-0.294-0.332-0.659-0.499-1.096-0.499c-0.442,0-0.81,0.166-1.102,0.497
					S200.109,228.573,200.109,229.241z"/>
				<path d="M205.042,231.853v-5.222h0.797v0.742c0.384-0.573,0.938-0.86,1.664-0.86c0.314,0,0.604,0.057,0.868,0.17
					c0.264,0.113,0.462,0.262,0.593,0.445s0.224,0.401,0.275,0.653c0.033,0.164,0.05,0.451,0.05,0.86v3.211h-0.886v-3.177
					c0-0.36-0.035-0.63-0.104-0.809c-0.069-0.179-0.191-0.321-0.367-0.428c-0.175-0.106-0.381-0.159-0.617-0.159
					c-0.377,0-0.703,0.119-0.977,0.358c-0.274,0.239-0.411,0.693-0.411,1.362v2.852H205.042z"/>
				<path d="M214.134,230.171l0.916,0.113c-0.145,0.534-0.412,0.948-0.803,1.243c-0.39,0.296-0.889,0.443-1.496,0.443
					c-0.764,0-1.37-0.235-1.817-0.706c-0.448-0.47-0.672-1.13-0.672-1.979c0-0.879,0.226-1.561,0.679-2.046
					c0.453-0.484,1.04-0.728,1.762-0.728c0.699,0,1.27,0.238,1.713,0.713c0.442,0.476,0.664,1.145,0.664,2.006
					c0,0.053-0.002,0.132-0.005,0.236h-3.897c0.032,0.573,0.195,1.013,0.487,1.317s0.656,0.457,1.092,0.457
					c0.325,0,0.603-0.085,0.832-0.255C213.818,230.816,214,230.545,214.134,230.171z M211.226,228.74h2.919
					c-0.04-0.439-0.151-0.769-0.335-0.988c-0.282-0.341-0.648-0.512-1.098-0.512c-0.406,0-0.749,0.137-1.026,0.408
					C211.41,227.921,211.256,228.284,211.226,228.74z"/>
				<path d="M223.341,231.002v0.851h-4.769c-0.007-0.213,0.027-0.418,0.103-0.615c0.122-0.324,0.316-0.644,0.584-0.958
					c0.267-0.315,0.653-0.679,1.158-1.092c0.784-0.643,1.314-1.151,1.59-1.526s0.413-0.73,0.413-1.064
					c0-0.351-0.125-0.646-0.376-0.888s-0.578-0.361-0.982-0.361c-0.426,0-0.768,0.128-1.023,0.384s-0.385,0.609-0.389,1.062
					l-0.91-0.093c0.063-0.679,0.297-1.196,0.704-1.552c0.406-0.355,0.952-0.533,1.639-0.533c0.691,0,1.239,0.191,1.644,0.575
					c0.403,0.384,0.604,0.858,0.604,1.426c0,0.288-0.059,0.572-0.177,0.851s-0.314,0.572-0.588,0.88
					c-0.274,0.309-0.729,0.731-1.365,1.269c-0.532,0.446-0.873,0.748-1.024,0.907c-0.15,0.159-0.275,0.318-0.374,0.479H223.341z"/>
			</g>
		</g>
		<g clip-path="url(#SVGID_46_)">
			<defs>
				<rect id="SVGID_49_" x="192.637" y="222.75" width="36.945" height="16.558"/>
			</defs>
			<clipPath id="SVGID_50_">
				<use xlink:href="#SVGID_49_"  overflow="visible"/>
			</clipPath>
			<g clip-path="url(#SVGID_50_)">
			</g>
		</g>
	</g>
	<g clip-path="url(#SVGID_2_)">
		<defs>
			<rect id="SVGID_51_" x="156.638" y="69.84" width="43.904" height="16.807"/>
		</defs>
		<clipPath id="SVGID_52_">
			<use xlink:href="#SVGID_51_"  overflow="visible"/>
		</clipPath>
		<g clip-path="url(#SVGID_52_)">
			<defs>
				<rect id="SVGID_53_" x="156.638" y="69.84" width="43.679" height="16.807"/>
			</defs>
			<clipPath id="SVGID_54_">
				<use xlink:href="#SVGID_53_"  overflow="visible"/>
			</clipPath>
			<g clip-path="url(#SVGID_54_)">
				<path d="M156.839,78.966v-0.885l3.696-4.617c0.262-0.328,0.512-0.613,0.748-0.855h-4.025v-0.851h5.167v0.851l-4.049,5
					l-0.438,0.506h4.605v0.851H156.839z"/>
				<path d="M163.199,76.355c0-0.967,0.269-1.683,0.807-2.148c0.45-0.387,0.998-0.58,1.644-0.58c0.719,0,1.306,0.235,1.762,0.706
					s0.685,1.12,0.685,1.949c0,0.672-0.102,1.201-0.303,1.586c-0.202,0.385-0.495,0.684-0.881,0.897s-0.807,0.32-1.263,0.32
					c-0.731,0-1.322-0.234-1.773-0.703S163.199,77.237,163.199,76.355z M164.109,76.355c0,0.669,0.146,1.169,0.438,1.502
					c0.292,0.333,0.659,0.499,1.102,0.499c0.439,0,0.806-0.167,1.098-0.501c0.292-0.334,0.438-0.844,0.438-1.529
					c0-0.646-0.147-1.135-0.44-1.468c-0.294-0.333-0.659-0.499-1.096-0.499c-0.442,0-0.81,0.166-1.102,0.497
					S164.109,75.687,164.109,76.355z"/>
				<path d="M169.042,78.966v-5.221h0.797v0.742c0.384-0.573,0.938-0.86,1.664-0.86c0.314,0,0.604,0.057,0.868,0.169
					c0.264,0.113,0.462,0.262,0.593,0.445s0.224,0.401,0.275,0.654c0.033,0.164,0.05,0.451,0.05,0.86v3.21h-0.886V75.79
					c0-0.36-0.035-0.63-0.104-0.809c-0.069-0.179-0.191-0.321-0.367-0.428c-0.175-0.106-0.381-0.16-0.617-0.16
					c-0.377,0-0.703,0.12-0.977,0.359c-0.274,0.239-0.411,0.693-0.411,1.362v2.852H169.042z"/>
				<path d="M178.134,77.284l0.916,0.113c-0.145,0.534-0.412,0.949-0.803,1.244c-0.39,0.295-0.889,0.443-1.496,0.443
					c-0.764,0-1.37-0.235-1.817-0.706c-0.448-0.47-0.672-1.13-0.672-1.979c0-0.878,0.226-1.56,0.679-2.045
					c0.453-0.485,1.04-0.728,1.762-0.728c0.699,0,1.27,0.238,1.713,0.713c0.442,0.475,0.664,1.144,0.664,2.006
					c0,0.053-0.002,0.131-0.005,0.236h-3.897c0.032,0.573,0.195,1.013,0.487,1.317s0.656,0.457,1.092,0.457
					c0.325,0,0.603-0.085,0.832-0.255S178,77.658,178.134,77.284z M175.226,75.854h2.919c-0.04-0.439-0.151-0.769-0.335-0.988
					c-0.282-0.341-0.648-0.511-1.098-0.511c-0.406,0-0.749,0.136-1.026,0.408C175.41,75.034,175.256,75.398,175.226,75.854z"/>
				<path d="M185.525,78.966V77.24h-3.13v-0.812l3.292-4.67h0.724v4.67h0.975v0.812h-0.975v1.726H185.525z M185.525,76.429v-3.25
					l-2.259,3.25H185.525z"/>
			</g>
		</g>
		<g clip-path="url(#SVGID_52_)">
			<defs>
				<rect id="SVGID_55_" x="156.638" y="69.84" width="43.679" height="16.807"/>
			</defs>
			<clipPath id="SVGID_56_">
				<use xlink:href="#SVGID_55_"  overflow="visible"/>
			</clipPath>
			<g clip-path="url(#SVGID_56_)">
			</g>
		</g>
	</g>
	<g clip-path="url(#SVGID_2_)">
		<defs>
			<rect id="SVGID_57_" x="237.732" y="101.289" width="41.012" height="16.558"/>
		</defs>
		<clipPath id="SVGID_58_">
			<use xlink:href="#SVGID_57_"  overflow="visible"/>
		</clipPath>
		<g clip-path="url(#SVGID_58_)">
			<defs>
				<rect id="SVGID_59_" x="237.732" y="101.289" width="40.787" height="16.558"/>
			</defs>
			<clipPath id="SVGID_60_">
				<use xlink:href="#SVGID_59_"  overflow="visible"/>
			</clipPath>
			<g clip-path="url(#SVGID_60_)">
				<path d="M237.934,110.415v-0.885l3.695-4.617c0.263-0.328,0.512-0.613,0.748-0.855h-4.025v-0.851h5.167v0.851l-4.05,5
					l-0.438,0.506h4.606v0.851H237.934z"/>
				<path d="M244.293,107.804c0-0.967,0.269-1.683,0.807-2.148c0.449-0.387,0.997-0.58,1.644-0.58c0.719,0,1.306,0.235,1.762,0.706
					s0.685,1.12,0.685,1.949c0,0.672-0.102,1.201-0.303,1.586c-0.202,0.385-0.496,0.684-0.881,0.897
					c-0.386,0.213-0.807,0.32-1.263,0.32c-0.731,0-1.323-0.234-1.773-0.703C244.519,109.361,244.293,108.686,244.293,107.804z
					 M245.204,107.804c0,0.669,0.146,1.169,0.438,1.502c0.292,0.333,0.66,0.499,1.103,0.499c0.439,0,0.806-0.167,1.098-0.501
					c0.292-0.334,0.438-0.844,0.438-1.529c0-0.646-0.146-1.135-0.44-1.468c-0.293-0.333-0.658-0.499-1.095-0.499
					c-0.442,0-0.811,0.166-1.103,0.497S245.204,107.136,245.204,107.804z"/>
				<path d="M250.137,110.415v-5.221h0.798v0.742c0.384-0.573,0.938-0.86,1.663-0.86c0.314,0,0.604,0.057,0.868,0.169
					c0.265,0.113,0.462,0.262,0.593,0.445c0.132,0.184,0.224,0.401,0.276,0.654c0.032,0.164,0.049,0.451,0.049,0.86v3.21h-0.886
					v-3.176c0-0.36-0.034-0.63-0.104-0.809c-0.068-0.179-0.191-0.321-0.366-0.428c-0.176-0.106-0.382-0.16-0.618-0.16
					c-0.377,0-0.702,0.12-0.977,0.359c-0.273,0.239-0.411,0.693-0.411,1.362v2.852H250.137z"/>
				<path d="M259.229,108.733l0.915,0.113c-0.145,0.534-0.412,0.949-0.802,1.244c-0.391,0.295-0.89,0.443-1.496,0.443
					c-0.765,0-1.371-0.235-1.818-0.706c-0.448-0.47-0.672-1.13-0.672-1.979c0-0.878,0.227-1.56,0.679-2.045
					c0.453-0.485,1.04-0.728,1.762-0.728c0.699,0,1.27,0.238,1.713,0.713c0.442,0.475,0.664,1.144,0.664,2.006
					c0,0.053-0.002,0.131-0.005,0.236h-3.897c0.033,0.573,0.195,1.013,0.487,1.317s0.656,0.457,1.093,0.457
					c0.324,0,0.602-0.085,0.831-0.255S259.094,109.107,259.229,108.733z M256.321,107.303h2.918
					c-0.04-0.439-0.151-0.769-0.335-0.988c-0.282-0.341-0.647-0.511-1.098-0.511c-0.406,0-0.748,0.136-1.025,0.408
					S256.35,106.847,256.321,107.303z"/>
				<path d="M263.785,108.512l0.886-0.118c0.102,0.501,0.275,0.863,0.52,1.084s0.542,0.332,0.894,0.332
					c0.416,0,0.768-0.145,1.055-0.433c0.287-0.288,0.431-0.646,0.431-1.072c0-0.406-0.133-0.741-0.398-1.005
					c-0.266-0.264-0.604-0.396-1.014-0.396c-0.167,0-0.376,0.033-0.625,0.098l0.099-0.777c0.059,0.007,0.106,0.01,0.143,0.01
					c0.377,0,0.717-0.098,1.019-0.295s0.453-0.5,0.453-0.91c0-0.324-0.11-0.593-0.33-0.806c-0.22-0.213-0.504-0.319-0.852-0.319
					c-0.344,0-0.631,0.108-0.86,0.324c-0.23,0.216-0.378,0.541-0.443,0.974l-0.886-0.157c0.108-0.593,0.354-1.053,0.738-1.379
					s0.861-0.489,1.432-0.489c0.394,0,0.757,0.084,1.088,0.253s0.585,0.399,0.76,0.691c0.176,0.292,0.264,0.602,0.264,0.929
					c0,0.312-0.084,0.595-0.251,0.851c-0.167,0.255-0.415,0.459-0.743,0.609c0.427,0.099,0.758,0.302,0.994,0.612
					c0.236,0.31,0.354,0.697,0.354,1.163c0,0.629-0.229,1.163-0.689,1.601c-0.459,0.438-1.04,0.656-1.741,0.656
					c-0.634,0-1.159-0.188-1.577-0.565C264.083,109.601,263.844,109.112,263.785,108.512z"/>
			</g>
		</g>
		<g clip-path="url(#SVGID_58_)">
			<defs>
				<rect id="SVGID_61_" x="237.732" y="101.289" width="40.787" height="16.558"/>
			</defs>
			<clipPath id="SVGID_62_">
				<use xlink:href="#SVGID_61_"  overflow="visible"/>
			</clipPath>
			<g clip-path="url(#SVGID_62_)">
			</g>
		</g>
	</g>
</g>
<g>
</g>
<g>
</g>
<g>
</g>
<g>
</g>
<g>
</g>
</svg>
