<?xml version="1.0" encoding="utf-8"?>
<!-- Generator: Adobe Illustrator 16.0.0, SVG Export Plug-In . SVG Version: 6.00 Build 0)  -->
<!DOCTYPE svg PUBLIC "-//W3C//DTD SVG 1.1//EN" "http://www.w3.org/Graphics/SVG/1.1/DTD/svg11.dtd">
<svg version="1.1" id="Layer_1" xmlns="http://www.w3.org/2000/svg" xmlns:xlink="http://www.w3.org/1999/xlink" x="0px" y="0px"
	 width="376.656px" height="191.447px" viewBox="0 0 376.656 191.447" enable-background="new 0 0 376.656 191.447"
	 xml:space="preserve">
<g>
	<polygon fill="#131516" points="376.396,151.813 376.656,151.553 376.656,50.675 376.137,50.675 376.137,151.553 376.396,151.813 
		376.396,151.813 376.656,151.813 376.656,151.553 	"/>
	<polygon fill="#131516" points="289.605,151.553 289.865,151.813 376.396,151.813 376.396,151.295 289.865,151.295 
		289.605,151.553 289.605,151.553 289.605,151.813 289.865,151.813 	"/>
	<polygon fill="#131516" points="289.865,50.416 289.605,50.675 289.605,151.553 290.125,151.553 290.125,50.675 289.865,50.416 
		289.865,50.416 289.605,50.416 289.605,50.675 	"/>
	<polygon fill="#131516" points="376.656,50.675 376.396,50.416 289.865,50.416 289.865,50.934 376.396,50.934 376.656,50.675 
		376.656,50.675 376.656,50.416 376.396,50.416 	"/>
	<polygon fill="#1F1A17" points="360.414,144.939 360.318,144.445 282.355,144.445 282.355,144.963 360.318,144.963 
		360.414,144.939 360.318,144.963 360.365,144.963 360.414,144.939 	"/>
	<polygon fill="#1F1A17" points="364.627,143.15 364.32,142.773 360.225,144.469 360.414,144.939 364.533,143.244 364.627,143.15 
		364.533,143.244 364.58,143.221 364.627,143.15 	"/>
	<polygon fill="#1F1A17" points="367.074,140.162 366.627,139.926 364.227,142.846 364.627,143.15 367.027,140.256 367.074,140.162 
		367.027,140.256 367.051,140.209 367.074,140.162 	"/>
	<polygon fill="#1F1A17" points="368.088,135.926 367.592,135.926 366.58,140.02 367.074,140.162 368.088,136.043 368.088,135.926 
		368.088,136.043 368.111,135.996 368.088,135.926 	"/>
	<polygon fill="#1F1A17" points="367.027,131.9 366.58,132.111 367.592,136.043 368.088,135.926 367.074,131.994 367.027,131.9 
		367.074,131.994 367.051,131.947 367.027,131.9 	"/>
	<polygon fill="#1F1A17" points="364.533,128.91 364.227,129.311 366.627,132.23 367.027,131.9 364.627,128.982 364.533,128.91 
		364.627,128.982 364.58,128.934 364.533,128.91 	"/>
	<polygon fill="#1F1A17" points="360.318,127.193 360.225,127.688 364.32,129.381 364.533,128.91 360.414,127.193 360.318,127.193 
		360.414,127.193 360.365,127.193 360.318,127.193 	"/>
	<polygon fill="#1F1A17" points="304.318,127.688 304.412,127.688 360.318,127.688 360.318,127.193 304.412,127.193 
		304.318,127.688 304.318,127.688 304.365,127.688 304.412,127.688 	"/>
	<polygon fill="#1F1A17" points="300.105,125.875 300.199,125.969 304.318,127.688 304.506,127.193 300.41,125.498 300.105,125.875 
		300.105,125.875 300.152,125.945 300.199,125.969 	"/>
	<polygon fill="#1F1A17" points="297.846,122.908 297.869,122.98 300.105,125.875 300.506,125.568 298.293,122.674 297.846,122.908 
		297.846,122.908 297.846,122.934 297.869,122.98 	"/>
	<polygon fill="#1F1A17" points="296.645,118.814 296.645,118.955 297.846,122.908 298.316,122.744 297.115,118.814 
		296.645,118.814 296.645,118.814 296.621,118.885 296.645,118.955 	"/>
	<polygon fill="#1F1A17" points="297.869,114.459 297.822,114.553 296.645,118.814 297.139,118.955 298.316,114.695 
		297.869,114.459 297.869,114.459 297.846,114.506 297.822,114.553 	"/>
	<polygon fill="#1F1A17" points="300.199,111.635 300.105,111.729 297.869,114.459 298.27,114.789 300.506,112.035 300.199,111.635 
		300.199,111.635 300.152,111.658 300.105,111.729 	"/>
	<polygon fill="#1F1A17" points="304.412,109.916 304.318,109.939 300.199,111.635 300.41,112.105 304.506,110.41 304.412,109.916 
		304.412,109.916 304.365,109.916 304.318,109.939 	"/>
	<polygon fill="#1F1A17" points="360.414,110.41 360.318,109.916 304.412,109.916 304.412,110.436 360.318,110.436 360.414,110.41 
		360.318,110.436 360.365,110.436 360.414,110.41 	"/>
	<polygon fill="#1F1A17" points="364.627,108.623 364.32,108.223 360.225,109.939 360.414,110.41 364.533,108.693 364.627,108.623 
		364.533,108.693 364.58,108.67 364.627,108.623 	"/>
	<polygon fill="#1F1A17" points="367.074,105.609 366.627,105.398 364.227,108.293 364.627,108.623 367.027,105.727 
		367.074,105.609 367.027,105.727 367.051,105.68 367.074,105.609 	"/>
	<polygon fill="#1F1A17" points="368.088,101.396 367.592,101.396 366.58,105.492 367.074,105.609 368.088,101.514 368.088,101.396 
		368.088,101.514 368.111,101.443 368.088,101.396 	"/>
	<polygon fill="#1F1A17" points="367.027,97.348 366.58,97.584 367.592,101.514 368.088,101.396 367.074,97.467 367.027,97.348 
		367.074,97.467 367.051,97.395 367.027,97.348 	"/>
	<polygon fill="#1F1A17" points="364.533,94.382 364.227,94.783 366.627,97.678 367.027,97.348 364.627,94.453 364.533,94.382 
		364.627,94.453 364.58,94.406 364.533,94.382 	"/>
	<polygon fill="#1F1A17" points="360.318,92.641 360.225,93.135 364.32,94.853 364.533,94.382 360.414,92.665 360.318,92.641 
		360.414,92.665 360.365,92.641 360.318,92.641 	"/>
	<polygon fill="#1F1A17" points="304.318,93.135 304.412,93.159 360.318,93.159 360.318,92.641 304.412,92.641 304.318,93.135 
		304.318,93.135 304.365,93.159 304.412,93.159 	"/>
	<polygon fill="#1F1A17" points="300.105,91.346 300.199,91.417 304.318,93.135 304.506,92.665 300.41,90.946 300.105,91.346 
		300.105,91.346 300.129,91.394 300.199,91.417 	"/>
	<polygon fill="#1F1A17" points="297.846,88.192 297.869,88.263 300.105,91.346 300.506,91.041 298.293,87.957 297.846,88.192 
		297.846,88.192 297.846,88.239 297.869,88.263 	"/>
	<polygon fill="#1F1A17" points="296.645,84.097 296.645,84.262 297.846,88.192 298.316,88.051 297.115,84.097 296.645,84.097 
		296.645,84.097 296.621,84.191 296.645,84.262 	"/>
	<polygon fill="#1F1A17" points="297.869,80.096 297.846,80.167 296.645,84.097 297.115,84.262 298.316,80.331 297.869,80.096 
		297.869,80.096 297.846,80.143 297.846,80.167 	"/>
	<polygon fill="#1F1A17" points="300.199,77.106 300.105,77.177 297.869,80.096 298.293,80.402 300.506,77.507 300.199,77.106 
		300.199,77.106 300.129,77.13 300.105,77.177 	"/>
	<polygon fill="#1F1A17" points="304.412,75.2 304.295,75.224 300.199,77.106 300.41,77.577 304.506,75.694 304.412,75.2 
		304.412,75.2 304.342,75.2 304.295,75.224 	"/>
	<polygon fill="#1F1A17" points="360.414,75.694 360.318,75.2 304.412,75.2 304.412,75.718 360.318,75.718 360.414,75.694 
		360.318,75.718 360.365,75.718 360.414,75.694 	"/>
	<polygon fill="#1F1A17" points="364.627,73.929 364.32,73.505 360.225,75.224 360.414,75.694 364.533,74 364.627,73.929 
		364.533,74 364.58,73.976 364.627,73.929 	"/>
	<polygon fill="#1F1A17" points="367.074,71.081 366.627,70.846 364.227,73.576 364.627,73.929 367.004,71.175 367.074,71.081 
		367.004,71.175 367.051,71.128 367.074,71.081 	"/>
	<polygon fill="#1F1A17" points="368.088,66.844 367.592,66.844 366.58,70.963 367.074,71.081 368.088,66.986 368.088,66.844 
		368.088,66.986 368.111,66.915 368.088,66.844 	"/>
	<polygon fill="#1F1A17" points="367.027,62.82 366.58,63.055 367.592,66.986 368.088,66.844 367.074,62.914 367.027,62.82 
		367.074,62.914 367.051,62.867 367.027,62.82 	"/>
	<polygon fill="#1F1A17" points="364.533,59.666 364.227,60.066 366.627,63.149 367.027,62.82 364.627,59.736 364.533,59.666 
		364.627,59.736 364.58,59.689 364.533,59.666 	"/>
	<polygon fill="#1F1A17" points="360.318,57.948 360.225,58.418 364.32,60.137 364.533,59.666 360.414,57.948 360.318,57.948 
		360.414,57.948 360.365,57.948 360.318,57.948 	"/>
	<rect x="282.355" y="57.948" fill="#1F1A17" width="77.963" height="0.494"/>
	<polygon fill="#1F1A17" points="255.332,144.445 255.332,144.963 282.355,144.963 282.355,144.445 255.332,144.445 
		255.332,144.445 255.332,144.963 255.332,144.963 255.332,144.963 	"/>
	<rect x="228.828" y="144.445" fill="#1F1A17" width="26.504" height="0.518"/>
	<polygon fill="#1F1A17" points="255.332,57.948 255.332,58.442 282.355,58.442 282.355,57.948 255.332,57.948 255.332,57.948 
		255.332,58.442 255.332,58.442 255.332,58.442 	"/>
	<rect x="228.828" y="57.948" fill="#1F1A17" width="26.504" height="0.494"/>
	<polygon fill-rule="evenodd" clip-rule="evenodd" fill="#FFFFFF" points="233.959,58.183 232.758,61.102 230.027,63.502 
		226.943,63.502 224.213,61.102 223.014,58.183 224.213,54.77 226.943,53.076 230.027,53.076 232.758,54.77 233.959,58.183 	"/>
	<polygon fill="#1F1A17" points="232.924,61.29 232.994,61.196 234.195,58.301 233.723,58.089 232.523,61.007 232.924,61.29 
		232.924,61.29 232.971,61.243 232.994,61.196 	"/>
	<polygon fill="#1F1A17" points="230.027,63.761 230.193,63.69 232.924,61.29 232.594,60.913 229.84,63.291 230.027,63.761 
		230.027,63.761 230.121,63.761 230.193,63.69 	"/>
	<polygon fill="#1F1A17" points="226.779,63.69 226.943,63.761 230.027,63.761 230.027,63.244 226.943,63.244 226.779,63.69 
		226.779,63.69 226.85,63.761 226.943,63.761 	"/>
	<polygon fill="#1F1A17" points="223.979,61.196 224.025,61.29 226.779,63.69 227.109,63.291 224.379,60.913 223.979,61.196 
		223.979,61.196 224.002,61.243 224.025,61.29 	"/>
	<polygon fill="#1F1A17" points="222.777,58.112 222.777,58.301 223.979,61.196 224.449,61.007 223.248,58.089 222.777,58.112 
		222.777,58.112 222.73,58.207 222.777,58.301 	"/>
	<polygon fill="#1F1A17" points="224.072,54.558 223.955,54.7 222.777,58.112 223.248,58.277 224.449,54.864 224.072,54.558 
		224.072,54.558 224.002,54.605 223.955,54.7 	"/>
	<polygon fill="#1F1A17" points="226.943,52.816 226.803,52.84 224.072,54.558 224.332,54.982 227.086,53.288 226.943,52.816 
		226.943,52.816 226.873,52.816 226.803,52.84 	"/>
	<polygon fill="#1F1A17" points="230.146,52.84 230.027,52.816 226.943,52.816 226.943,53.311 230.027,53.311 230.146,52.84 
		230.146,52.84 230.098,52.816 230.027,52.816 	"/>
	<polygon fill="#1F1A17" points="232.994,54.7 232.9,54.558 230.146,52.84 229.887,53.288 232.617,54.982 232.994,54.7 
		232.994,54.7 232.971,54.605 232.9,54.558 	"/>
	<polygon fill="#1F1A17" points="234.195,58.301 234.195,58.112 232.994,54.7 232.523,54.864 233.699,58.277 234.195,58.301 
		234.195,58.301 234.219,58.207 234.195,58.112 	"/>
	<polygon fill-rule="evenodd" clip-rule="evenodd" fill="#FFFFFF" points="233.959,144.705 232.758,147.623 230.027,149.836 
		226.943,149.836 224.213,147.623 223.014,144.705 224.213,141.127 226.943,139.408 230.027,139.408 232.758,141.127 
		233.959,144.705 	"/>
	<polygon fill="#1F1A17" points="232.924,147.811 232.994,147.717 234.195,144.799 233.723,144.609 232.523,147.529 
		232.924,147.811 232.924,147.811 232.971,147.764 232.994,147.717 	"/>
	<polygon fill="#1F1A17" points="230.027,150.094 230.17,150.047 232.924,147.811 232.594,147.41 229.863,149.646 230.027,150.094 
		230.027,150.094 230.098,150.094 230.17,150.047 	"/>
	<polygon fill="#1F1A17" points="226.779,150.047 226.943,150.094 230.027,150.094 230.027,149.576 226.943,149.576 
		226.779,150.047 226.779,150.047 226.85,150.094 226.943,150.094 	"/>
	<polygon fill="#1F1A17" points="223.979,147.717 224.049,147.811 226.779,150.047 227.109,149.646 224.355,147.41 223.979,147.717 
		223.979,147.717 224.002,147.764 224.049,147.811 	"/>
	<polygon fill="#1F1A17" points="222.754,144.633 222.777,144.799 223.979,147.717 224.449,147.529 223.248,144.609 
		222.754,144.633 222.754,144.633 222.73,144.729 222.777,144.799 	"/>
	<polygon fill="#1F1A17" points="224.072,140.891 223.955,141.033 222.754,144.633 223.248,144.799 224.449,141.197 
		224.072,140.891 224.072,140.891 224.002,140.938 223.955,141.033 	"/>
	<polygon fill="#1F1A17" points="226.943,139.15 226.803,139.197 224.072,140.891 224.332,141.338 227.086,139.621 226.943,139.15 
		226.943,139.15 226.873,139.15 226.803,139.197 	"/>
	<polygon fill="#1F1A17" points="230.146,139.197 230.027,139.15 226.943,139.15 226.943,139.668 230.027,139.668 230.146,139.197 
		230.146,139.197 230.098,139.15 230.027,139.15 	"/>
	<polygon fill="#1F1A17" points="232.994,141.033 232.9,140.891 230.146,139.197 229.887,139.621 232.617,141.338 232.994,141.033 
		232.994,141.033 232.971,140.938 232.9,140.891 	"/>
	<polygon fill="#1F1A17" points="234.195,144.799 234.195,144.633 232.994,141.033 232.523,141.197 233.699,144.799 
		234.195,144.799 234.195,144.799 234.219,144.729 234.195,144.633 	"/>
	<g>
		<path fill="#1F1A17" d="M312.172,92.615v-7.868h3.027c0.531,0,0.939,0.025,1.219,0.075c0.395,0.064,0.725,0.187,0.992,0.368
			c0.266,0.181,0.48,0.434,0.643,0.759c0.162,0.326,0.242,0.684,0.242,1.074c0,0.669-0.217,1.235-0.65,1.699
			s-1.219,0.695-2.354,0.695h-2.057v3.199H312.172z M313.234,88.488h2.074c0.686,0,1.172-0.125,1.461-0.375
			c0.287-0.25,0.432-0.603,0.432-1.057c0-0.329-0.084-0.611-0.254-0.846c-0.17-0.234-0.393-0.389-0.67-0.464
			c-0.18-0.046-0.51-0.07-0.99-0.07h-2.053V88.488z"/>
		<path fill="#1F1A17" d="M316.746,89.765c0-1.055,0.299-1.837,0.896-2.345c0.5-0.422,1.109-0.633,1.828-0.633
			c0.799,0,1.451,0.257,1.959,0.77c0.508,0.514,0.76,1.223,0.76,2.128c0,0.733-0.111,1.31-0.336,1.73s-0.551,0.747-0.979,0.979
			c-0.43,0.233-0.896,0.349-1.404,0.349c-0.814,0-1.471-0.256-1.973-0.768S316.746,90.728,316.746,89.765z M317.758,89.765
			c0,0.73,0.162,1.277,0.486,1.64c0.326,0.363,0.734,0.545,1.227,0.545c0.488,0,0.895-0.183,1.221-0.547
			c0.324-0.365,0.486-0.921,0.486-1.669c0-0.705-0.164-1.239-0.49-1.602c-0.326-0.363-0.732-0.544-1.217-0.544
			c-0.492,0-0.9,0.181-1.227,0.542C317.92,88.49,317.758,89.036,317.758,89.765z"/>
		<path fill="#1F1A17" d="M323.77,92.615v-5.7h0.887v0.811c0.428-0.626,1.043-0.939,1.85-0.939c0.352,0,0.672,0.062,0.967,0.185
			c0.293,0.124,0.514,0.286,0.658,0.486c0.146,0.2,0.248,0.438,0.307,0.714c0.037,0.179,0.055,0.492,0.055,0.939v3.505h-0.984
			v-3.467c0-0.394-0.039-0.688-0.115-0.883c-0.076-0.195-0.213-0.351-0.408-0.467s-0.424-0.174-0.686-0.174
			c-0.42,0-0.781,0.13-1.086,0.392s-0.457,0.757-0.457,1.487v3.113H323.77z"/>
		<path fill="#1F1A17" d="M333.695,92.615v-0.719c-0.369,0.565-0.91,0.848-1.625,0.848c-0.465,0-0.891-0.125-1.277-0.376
			c-0.389-0.25-0.689-0.6-0.904-1.049c-0.213-0.449-0.32-0.965-0.32-1.549c0-0.569,0.098-1.085,0.291-1.548s0.482-0.818,0.869-1.065
			c0.387-0.247,0.82-0.37,1.297-0.37c0.352,0,0.662,0.072,0.936,0.217s0.496,0.334,0.668,0.566v-2.823h0.98v7.868H333.695z
			 M330.582,89.771c0,0.73,0.156,1.276,0.471,1.637c0.313,0.361,0.684,0.542,1.109,0.542c0.432,0,0.797-0.172,1.098-0.518
			c0.301-0.345,0.451-0.872,0.451-1.581c0-0.78-0.152-1.353-0.459-1.717s-0.684-0.547-1.133-0.547c-0.438,0-0.803,0.175-1.098,0.526
			C330.729,88.463,330.582,89.016,330.582,89.771z"/>
	</g>
	<g>
		<path fill="#1F1A17" d="M312.205,105.803v-7.868h1.063v3.231h4.17v-3.231h1.061v7.868h-1.061v-3.709h-4.17v3.709H312.205z"/>
		<path fill="#1F1A17" d="M322.74,103.967l1.018,0.124c-0.16,0.583-0.459,1.036-0.893,1.357c-0.434,0.322-0.988,0.483-1.664,0.483
			c-0.85,0-1.523-0.257-2.021-0.771c-0.498-0.513-0.746-1.233-0.746-2.16c0-0.959,0.252-1.703,0.754-2.232
			c0.504-0.529,1.158-0.794,1.959-0.794c0.777,0,1.412,0.259,1.904,0.777c0.494,0.52,0.74,1.249,0.74,2.19
			c0,0.057-0.002,0.143-0.006,0.258h-4.334c0.037,0.626,0.217,1.105,0.541,1.438c0.326,0.333,0.73,0.5,1.215,0.5
			c0.361,0,0.67-0.094,0.926-0.279C322.387,104.672,322.59,104.375,322.74,103.967z M319.506,102.405h3.244
			c-0.043-0.479-0.168-0.839-0.371-1.079c-0.314-0.372-0.721-0.558-1.221-0.558c-0.453,0-0.832,0.148-1.141,0.445
			S319.539,101.908,319.506,102.405z"/>
		<path fill="#1F1A17" d="M329.234,105.1c-0.365,0.305-0.717,0.519-1.053,0.645c-0.338,0.125-0.701,0.188-1.086,0.188
			c-0.639,0-1.131-0.153-1.473-0.459c-0.344-0.306-0.514-0.697-0.514-1.173c0-0.279,0.064-0.534,0.193-0.765s0.299-0.416,0.51-0.556
			c0.209-0.14,0.445-0.245,0.707-0.316c0.193-0.05,0.486-0.099,0.877-0.145c0.795-0.094,1.381-0.204,1.756-0.333
			c0.004-0.133,0.006-0.217,0.006-0.252c0-0.394-0.094-0.671-0.279-0.832c-0.252-0.219-0.625-0.328-1.121-0.328
			c-0.465,0-0.807,0.08-1.027,0.239s-0.383,0.441-0.49,0.846l-0.963-0.129c0.088-0.404,0.232-0.731,0.434-0.979
			c0.199-0.249,0.49-0.44,0.869-0.574c0.379-0.135,0.818-0.201,1.318-0.201c0.496,0,0.9,0.057,1.211,0.171
			c0.309,0.115,0.537,0.259,0.684,0.433c0.145,0.174,0.248,0.393,0.307,0.657c0.031,0.165,0.049,0.462,0.049,0.891v1.288
			c0,0.898,0.021,1.467,0.063,1.704c0.043,0.238,0.125,0.467,0.25,0.685h-1.029C329.33,105.603,329.264,105.368,329.234,105.1z
			 M329.152,102.942c-0.357,0.143-0.895,0.265-1.609,0.364c-0.404,0.058-0.691,0.122-0.859,0.193
			c-0.168,0.072-0.297,0.177-0.387,0.314c-0.092,0.138-0.139,0.291-0.139,0.459c0,0.257,0.1,0.472,0.299,0.644
			s0.49,0.258,0.873,0.258c0.379,0,0.717-0.081,1.012-0.244c0.297-0.163,0.514-0.386,0.652-0.668
			c0.105-0.219,0.158-0.54,0.158-0.967V102.942z"/>
		<path fill="#1F1A17" d="M334.508,104.938l0.143,0.854c-0.277,0.058-0.525,0.086-0.744,0.086c-0.357,0-0.635-0.056-0.832-0.166
			c-0.195-0.111-0.334-0.257-0.414-0.438c-0.082-0.181-0.121-0.562-0.121-1.141v-3.279h-0.723v-0.752h0.723v-1.411l0.979-0.58v1.991
			h0.99v0.752h-0.99v3.333c0,0.275,0.018,0.452,0.053,0.531c0.035,0.078,0.092,0.142,0.17,0.188c0.078,0.047,0.189,0.07,0.336,0.07
			C334.186,104.977,334.33,104.964,334.508,104.938z"/>
	</g>
	<g>
		<path fill="#1F1A17" d="M312.195,118.975v-7.868h5.799v0.929h-4.738v2.41h4.438v0.923h-4.438v2.678h4.926v0.929H312.195z"/>
		<path fill="#1F1A17" d="M316.926,118.975l2.123-2.963l-1.963-2.737h1.23l0.893,1.337c0.166,0.254,0.303,0.467,0.404,0.639
			c0.16-0.236,0.309-0.445,0.443-0.628l0.979-1.348h1.178l-2.01,2.684l2.162,3.017h-1.209l-1.193-1.771l-0.316-0.478l-1.527,2.249
			H316.926z"/>
		<path fill="#1F1A17" d="M325.924,116.887l0.969,0.124c-0.105,0.654-0.377,1.167-0.813,1.537s-0.971,0.556-1.605,0.556
			c-0.795,0-1.434-0.255-1.918-0.765c-0.482-0.51-0.725-1.241-0.725-2.192c0-0.615,0.104-1.154,0.313-1.616
			c0.207-0.461,0.523-0.808,0.949-1.038c0.424-0.23,0.887-0.346,1.387-0.346c0.631,0,1.146,0.156,1.549,0.469
			c0.4,0.313,0.658,0.758,0.771,1.334l-0.959,0.146c-0.09-0.383-0.252-0.671-0.482-0.864c-0.232-0.193-0.512-0.29-0.842-0.29
			c-0.496,0-0.898,0.175-1.209,0.523c-0.309,0.349-0.465,0.9-0.465,1.655c0,0.766,0.15,1.322,0.449,1.669
			c0.299,0.348,0.689,0.521,1.17,0.521c0.387,0,0.711-0.117,0.969-0.35C325.691,117.728,325.855,117.37,325.924,116.887z"/>
		<path fill="#1F1A17" d="M328.789,118.975v-7.868h0.984v2.823c0.461-0.522,1.041-0.783,1.74-0.783c0.432,0,0.805,0.083,1.121,0.249
			c0.318,0.166,0.545,0.396,0.682,0.689c0.137,0.294,0.205,0.72,0.205,1.277v3.612h-0.984v-3.612c0-0.482-0.107-0.834-0.32-1.055
			c-0.213-0.22-0.516-0.33-0.904-0.33c-0.293,0-0.566,0.074-0.824,0.223c-0.258,0.149-0.441,0.351-0.551,0.604
			s-0.164,0.604-0.164,1.052v3.118H328.789z"/>
		<path fill="#1F1A17" d="M338.734,118.271c-0.363,0.305-0.715,0.519-1.053,0.645c-0.338,0.125-0.699,0.188-1.086,0.188
			c-0.639,0-1.129-0.153-1.473-0.459c-0.342-0.306-0.514-0.697-0.514-1.173c0-0.279,0.064-0.534,0.195-0.765
			c0.129-0.23,0.299-0.416,0.508-0.556s0.445-0.245,0.709-0.316c0.193-0.05,0.484-0.099,0.875-0.145
			c0.795-0.094,1.381-0.204,1.756-0.333c0.004-0.133,0.006-0.217,0.006-0.252c0-0.394-0.092-0.671-0.279-0.832
			c-0.252-0.219-0.625-0.328-1.121-0.328c-0.463,0-0.805,0.08-1.025,0.239s-0.385,0.441-0.49,0.846l-0.963-0.129
			c0.088-0.404,0.232-0.731,0.432-0.979c0.201-0.249,0.49-0.44,0.871-0.574c0.379-0.135,0.818-0.201,1.318-0.201
			c0.496,0,0.898,0.057,1.209,0.171c0.311,0.115,0.539,0.259,0.684,0.433c0.146,0.174,0.248,0.393,0.307,0.657
			c0.033,0.165,0.049,0.462,0.049,0.891v1.288c0,0.898,0.021,1.467,0.064,1.704c0.041,0.238,0.125,0.467,0.248,0.685h-1.029
			C338.83,118.774,338.764,118.54,338.734,118.271z M338.652,116.114c-0.357,0.143-0.893,0.265-1.607,0.364
			c-0.406,0.058-0.691,0.122-0.859,0.193c-0.168,0.072-0.297,0.177-0.389,0.314s-0.137,0.291-0.137,0.459
			c0,0.257,0.1,0.472,0.299,0.644c0.197,0.172,0.488,0.258,0.873,0.258c0.379,0,0.717-0.081,1.012-0.244s0.512-0.386,0.65-0.668
			c0.105-0.219,0.158-0.54,0.158-0.967V116.114z"/>
		<path fill="#1F1A17" d="M341.859,118.975v-5.7h0.887v0.811c0.426-0.626,1.043-0.938,1.85-0.938c0.35,0,0.672,0.062,0.965,0.185
			c0.295,0.124,0.514,0.285,0.66,0.486c0.146,0.2,0.248,0.438,0.307,0.713c0.035,0.18,0.055,0.492,0.055,0.939v3.505h-0.986v-3.467
			c0-0.394-0.037-0.688-0.113-0.883c-0.078-0.195-0.213-0.351-0.408-0.468c-0.195-0.116-0.424-0.174-0.688-0.174
			c-0.418,0-0.781,0.131-1.086,0.392c-0.305,0.262-0.457,0.757-0.457,1.486v3.113H341.859z"/>
		<path fill="#1F1A17" d="M347.834,119.447l0.957,0.14c0.039,0.289,0.15,0.5,0.334,0.633c0.244,0.179,0.578,0.269,1,0.269
			c0.457,0,0.809-0.09,1.057-0.269s0.416-0.43,0.504-0.751c0.051-0.197,0.074-0.61,0.07-1.24c-0.43,0.497-0.967,0.746-1.607,0.746
			c-0.799,0-1.418-0.282-1.855-0.848s-0.656-1.243-0.656-2.034c0-0.544,0.1-1.046,0.301-1.506c0.199-0.46,0.49-0.814,0.873-1.065
			c0.381-0.25,0.828-0.375,1.342-0.375c0.688,0,1.252,0.271,1.697,0.815v-0.688h0.908v4.928c0,0.887-0.092,1.516-0.277,1.886
			c-0.184,0.371-0.475,0.663-0.875,0.878c-0.398,0.215-0.891,0.322-1.475,0.322c-0.693,0-1.252-0.153-1.68-0.459
			C348.025,120.523,347.818,120.063,347.834,119.447z M348.648,116.022c0,0.748,0.15,1.294,0.453,1.638
			c0.303,0.343,0.684,0.515,1.139,0.515c0.453,0,0.832-0.171,1.139-0.513s0.459-0.877,0.459-1.607c0-0.697-0.158-1.224-0.473-1.578
			c-0.316-0.354-0.695-0.531-1.141-0.531c-0.438,0-0.811,0.175-1.117,0.523S348.648,115.336,348.648,116.022z"/>
		<path fill="#1F1A17" d="M358.863,117.139l1.018,0.124c-0.16,0.583-0.459,1.036-0.893,1.357c-0.434,0.322-0.988,0.483-1.664,0.483
			c-0.85,0-1.523-0.257-2.021-0.771c-0.498-0.513-0.746-1.233-0.746-2.16c0-0.959,0.252-1.703,0.754-2.232
			c0.504-0.529,1.158-0.794,1.959-0.794c0.777,0,1.412,0.259,1.904,0.777c0.494,0.52,0.74,1.249,0.74,2.19
			c0,0.057-0.002,0.143-0.006,0.258h-4.334c0.037,0.626,0.217,1.105,0.541,1.438c0.326,0.333,0.73,0.5,1.215,0.5
			c0.361,0,0.67-0.094,0.926-0.279C358.51,117.844,358.713,117.547,358.863,117.139z M355.629,115.577h3.244
			c-0.043-0.479-0.168-0.839-0.371-1.079c-0.314-0.372-0.721-0.558-1.221-0.558c-0.453,0-0.832,0.148-1.141,0.445
			S355.662,115.08,355.629,115.577z"/>
		<path fill="#1F1A17" d="M361.531,118.975v-5.7h0.887v0.864c0.227-0.404,0.436-0.671,0.627-0.8s0.402-0.192,0.633-0.192
			c0.332,0,0.668,0.104,1.012,0.311l-0.34,0.896c-0.24-0.14-0.48-0.209-0.723-0.209c-0.215,0-0.408,0.063-0.58,0.19
			c-0.17,0.127-0.293,0.303-0.365,0.528c-0.109,0.344-0.164,0.72-0.164,1.127v2.984H361.531z"/>
	</g>
	<polygon fill-rule="evenodd" clip-rule="evenodd" fill="#FFFFFF" points="159.81,16.334 160.327,22.148 163.411,26.761 
		168.025,30.174 173.156,32.41 178.971,32.41 184.102,30.174 188.198,26.761 191.117,22.148 192.129,16.334 191.117,10.521 
		188.198,5.908 184.102,2.472 178.971,0.259 173.156,0.259 168.025,2.472 163.411,5.908 160.327,10.521 159.81,16.334 	"/>
	<polygon fill="#131516" points="160.116,22.29 160.586,22.125 160.068,16.311 159.55,16.358 160.068,22.172 160.116,22.29 
		160.068,22.172 160.068,22.219 160.116,22.29 	"/>
	<polygon fill="#131516" points="163.246,26.973 163.623,26.62 160.539,22.007 160.116,22.29 163.199,26.903 163.246,26.973 
		163.199,26.903 163.223,26.926 163.246,26.973 	"/>
	<polygon fill="#131516" points="167.931,30.41 168.166,29.962 163.552,26.549 163.246,26.973 167.86,30.386 167.931,30.41 
		167.86,30.386 167.883,30.41 167.931,30.41 	"/>
	<polygon fill="#131516" points="173.156,32.669 173.25,32.175 168.119,29.939 167.931,30.41 173.039,32.646 173.156,32.669 
		173.039,32.646 173.109,32.669 173.156,32.669 	"/>
	<polygon fill="#131516" points="179.065,32.646 178.971,32.151 173.156,32.151 173.156,32.669 178.971,32.669 179.065,32.646 
		178.971,32.669 179.018,32.669 179.065,32.646 	"/>
	<polygon fill="#131516" points="184.267,30.386 183.984,29.939 178.853,32.175 179.065,32.646 184.196,30.41 184.267,30.386 
		184.196,30.41 184.22,30.41 184.267,30.386 	"/>
	<polygon fill="#131516" points="188.41,26.903 188.033,26.573 183.938,29.986 184.267,30.386 188.363,26.95 188.41,26.903 
		188.363,26.95 188.386,26.926 188.41,26.903 	"/>
	<polygon fill="#131516" points="191.352,22.195 190.881,22.007 187.986,26.62 188.41,26.903 191.328,22.29 191.352,22.195 
		191.328,22.29 191.352,22.242 191.352,22.195 	"/>
	<polygon fill="#131516" points="192.389,16.288 191.871,16.288 190.857,22.101 191.352,22.195 192.389,16.382 192.389,16.288 
		192.389,16.382 192.389,16.334 192.389,16.288 	"/>
	<polygon fill="#131516" points="191.328,10.38 190.857,10.568 191.871,16.382 192.389,16.288 191.352,10.474 191.328,10.38 
		191.352,10.474 191.352,10.427 191.328,10.38 	"/>
	<polygon fill="#131516" points="188.363,5.696 187.986,6.025 190.881,10.662 191.328,10.38 188.41,5.767 188.363,5.696 
		188.41,5.767 188.386,5.72 188.363,5.696 	"/>
	<polygon fill="#131516" points="184.196,2.236 183.938,2.683 188.033,6.096 188.363,5.696 184.267,2.283 184.196,2.236 
		184.267,2.283 184.22,2.26 184.196,2.236 	"/>
	<polygon fill="#131516" points="178.971,0 178.853,0.495 183.984,2.707 184.196,2.236 179.065,0.024 178.971,0 179.065,0.024 
		179.018,0 178.971,0 	"/>
	<polygon fill="#131516" points="173.039,0.024 173.156,0.518 178.971,0.518 178.971,0 173.156,0 173.039,0.024 173.156,0 
		173.109,0 173.039,0.024 	"/>
	<polygon fill="#131516" points="167.86,2.283 168.119,2.707 173.25,0.495 173.039,0.024 167.931,2.236 167.86,2.283 167.931,2.236 
		167.883,2.26 167.86,2.283 	"/>
	<polygon fill="#131516" points="163.199,5.767 163.552,6.096 168.166,2.683 167.86,2.283 163.246,5.696 163.199,5.767 
		163.246,5.696 163.223,5.72 163.199,5.767 	"/>
	<polygon fill="#131516" points="160.068,10.498 160.539,10.662 163.623,6.049 163.199,5.767 160.116,10.38 160.068,10.498 
		160.116,10.38 160.068,10.427 160.068,10.498 	"/>
	<polygon fill="#131516" points="159.55,16.358 160.068,16.358 160.586,10.544 160.068,10.498 159.55,16.311 159.55,16.358 
		159.55,16.311 159.55,16.334 159.55,16.358 	"/>
	<polygon fill="#131516" points="168.143,2.26 167.766,2.472 167.766,30.174 168.284,30.174 168.284,2.472 168.143,2.26 
		168.143,2.26 167.766,2.048 167.766,2.472 	"/>
	<polygon fill="#131516" points="192.27,16.546 192.27,16.099 168.143,2.26 167.883,2.707 192.012,16.546 192.27,16.546 
		192.27,16.546 192.646,16.334 192.27,16.099 	"/>
	
		<rect x="166.164" y="22.996" transform="matrix(-0.8671 0.4982 -0.4982 -0.8671 347.7999 -46.2987)" fill="#131516" width="27.826" height="0.516"/>
	<polygon fill-rule="evenodd" clip-rule="evenodd" fill="#FFFFFF" points="222.99,16.711 224.166,19.63 226.92,21.842 
		229.98,21.842 232.734,19.63 233.912,16.711 232.734,13.134 229.98,11.416 226.92,11.416 224.166,13.134 222.99,16.711 	"/>
	<polygon fill="#1F1A17" points="224.332,19.418 223.932,19.724 222.73,16.805 223.225,16.617 224.402,19.512 224.332,19.418 
		224.025,19.818 223.955,19.771 223.932,19.724 	"/>
	<polygon fill="#1F1A17" points="226.92,21.583 226.756,22.031 224.025,19.818 224.332,19.418 227.063,21.654 226.92,21.583 
		226.92,22.101 226.826,22.101 226.756,22.031 	"/>
	<polygon fill="#1F1A17" points="229.84,21.654 229.98,22.101 226.92,22.101 226.92,21.583 229.98,21.583 229.84,21.654 
		230.146,22.031 230.074,22.101 229.98,22.101 	"/>
	<polygon fill="#1F1A17" points="232.5,19.512 232.877,19.818 230.146,22.031 229.84,21.654 232.57,19.418 232.5,19.512 
		232.971,19.724 232.947,19.771 232.877,19.818 	"/>
	<polygon fill="#1F1A17" points="233.676,16.782 234.146,16.805 232.971,19.724 232.5,19.512 233.676,16.617 233.676,16.782 
		234.17,16.641 234.195,16.711 234.146,16.805 	"/>
	<polygon fill="#1F1A17" points="232.594,13.345 232.971,13.04 234.17,16.641 233.676,16.782 232.477,13.204 232.594,13.345 
		232.854,12.898 232.947,12.945 232.971,13.04 	"/>
	<polygon fill="#1F1A17" points="229.98,11.674 230.121,11.204 232.854,12.898 232.594,13.345 229.863,11.627 229.98,11.674 
		229.98,11.157 230.051,11.157 230.121,11.204 	"/>
	<polygon fill="#1F1A17" points="227.039,11.627 226.92,11.157 229.98,11.157 229.98,11.674 226.92,11.674 227.039,11.627 
		226.779,11.204 226.826,11.157 226.92,11.157 	"/>
	<polygon fill="#1F1A17" points="224.426,13.204 224.049,12.898 226.779,11.204 227.039,11.627 224.309,13.345 224.426,13.204 
		223.932,13.04 223.955,12.945 224.049,12.898 	"/>
	<polygon fill="#1F1A17" points="223.225,16.617 222.73,16.641 223.932,13.04 224.426,13.204 223.225,16.782 223.225,16.617 
		222.73,16.805 222.707,16.711 222.73,16.641 	"/>
	<polygon fill-rule="evenodd" clip-rule="evenodd" fill="#FFFFFF" points="234.17,185.846 232.994,188.766 230.24,190.977 
		227.18,190.977 224.426,188.766 223.248,185.846 224.426,182.246 227.18,180.551 230.24,180.551 232.994,182.246 234.17,185.846 	
		"/>
	<polygon fill="#1F1A17" points="233.135,188.953 233.229,188.859 234.406,185.941 233.936,185.752 232.758,188.646 
		233.135,188.953 233.135,188.953 233.205,188.906 233.229,188.859 	"/>
	<polygon fill="#1F1A17" points="230.24,191.236 230.404,191.166 233.135,188.953 232.828,188.553 230.074,190.789 230.24,191.236 
		230.24,191.236 230.334,191.236 230.404,191.166 	"/>
	<polygon fill="#1F1A17" points="227.016,191.166 227.18,191.236 230.24,191.236 230.24,190.719 227.18,190.719 227.016,191.166 
		227.016,191.166 227.086,191.236 227.18,191.236 	"/>
	<polygon fill="#1F1A17" points="224.189,188.859 224.26,188.953 227.016,191.166 227.32,190.789 224.59,188.553 224.189,188.859 
		224.189,188.859 224.213,188.906 224.26,188.953 	"/>
	<polygon fill="#1F1A17" points="222.99,185.775 222.99,185.941 224.189,188.859 224.66,188.646 223.484,185.752 222.99,185.775 
		222.99,185.775 222.967,185.846 222.99,185.941 	"/>
	<polygon fill="#1F1A17" points="224.309,182.033 224.189,182.174 222.99,185.775 223.484,185.918 224.684,182.34 224.309,182.033 
		224.309,182.033 224.213,182.08 224.189,182.174 	"/>
	<polygon fill="#1F1A17" points="227.18,180.291 227.039,180.338 224.309,182.033 224.566,182.48 227.297,180.762 227.18,180.291 
		227.18,180.291 227.086,180.291 227.039,180.338 	"/>
	<polygon fill="#1F1A17" points="230.381,180.338 230.24,180.291 227.18,180.291 227.18,180.809 230.24,180.809 230.381,180.338 
		230.381,180.338 230.311,180.291 230.24,180.291 	"/>
	<polygon fill="#1F1A17" points="233.229,182.174 233.111,182.033 230.381,180.338 230.121,180.762 232.854,182.48 233.229,182.174 
		233.229,182.174 233.205,182.08 233.111,182.033 	"/>
	<polygon fill="#1F1A17" points="234.406,185.941 234.43,185.775 233.229,182.174 232.734,182.34 233.936,185.918 234.406,185.941 
		234.406,185.941 234.453,185.846 234.43,185.775 	"/>
	<polygon fill-rule="evenodd" clip-rule="evenodd" fill="#FFFFFF" points="118.851,16.405 120.051,19.324 122.782,21.536 
		125.866,21.536 128.596,19.324 129.796,16.405 128.596,12.828 125.866,11.109 122.782,11.109 120.051,12.828 118.851,16.405 	"/>
	<polygon fill="#1F1A17" points="120.216,19.112 119.816,19.418 118.615,16.5 119.086,16.311 120.287,19.229 120.216,19.112 
		119.887,19.512 119.839,19.465 119.816,19.418 	"/>
	<polygon fill="#1F1A17" points="122.782,21.277 122.617,21.748 119.887,19.512 120.216,19.112 122.947,21.348 122.782,21.277 
		122.782,21.795 122.688,21.795 122.617,21.748 	"/>
	<polygon fill="#1F1A17" points="125.701,21.348 125.866,21.795 122.782,21.795 122.782,21.277 125.866,21.277 125.701,21.348 
		126.03,21.748 125.959,21.795 125.866,21.795 	"/>
	<polygon fill="#1F1A17" points="128.361,19.229 128.761,19.512 126.03,21.748 125.701,21.348 128.431,19.112 128.361,19.229 
		128.832,19.418 128.808,19.465 128.761,19.512 	"/>
	<polygon fill="#1F1A17" points="129.561,16.5 130.032,16.5 128.832,19.418 128.361,19.229 129.561,16.311 129.561,16.5 
		130.032,16.334 130.056,16.429 130.032,16.5 	"/>
	<polygon fill="#1F1A17" points="128.455,13.04 128.832,12.733 130.032,16.334 129.561,16.5 128.361,12.898 128.455,13.04 
		128.737,12.592 128.808,12.663 128.832,12.733 	"/>
	<polygon fill="#1F1A17" points="125.866,11.369 126.007,10.897 128.737,12.592 128.455,13.04 125.724,11.321 125.866,11.369 
		125.866,10.851 125.936,10.851 126.007,10.897 	"/>
	<polygon fill="#1F1A17" points="122.923,11.321 122.782,10.851 125.866,10.851 125.866,11.369 122.782,11.369 122.923,11.321 
		122.641,10.897 122.711,10.851 122.782,10.851 	"/>
	<polygon fill="#1F1A17" points="120.287,12.898 119.91,12.592 122.641,10.897 122.923,11.321 120.192,13.04 120.287,12.898 
		119.792,12.733 119.839,12.663 119.91,12.592 	"/>
	<polygon fill="#1F1A17" points="119.086,16.311 118.615,16.334 119.792,12.733 120.287,12.898 119.086,16.5 119.086,16.311 
		118.615,16.5 118.568,16.429 118.615,16.334 	"/>
	
		<line fill="none" stroke="#25221E" stroke-width="0" stroke-linecap="square" stroke-miterlimit="10" x1="129.726" y1="16.17" x2="159.998" y2="16.17"/>
	<polygon fill-rule="evenodd" clip-rule="evenodd" fill="#1F1A17" points="159.998,16.17 153.831,13.086 153.831,19.253 
		159.998,16.17 159.998,16.17 	"/>
	
		<line fill="none" stroke="#25221E" stroke-width="0" stroke-linecap="square" stroke-miterlimit="10" x1="192.529" y1="16.334" x2="222.801" y2="16.334"/>
	<polygon fill-rule="evenodd" clip-rule="evenodd" fill="#1F1A17" points="222.801,16.334 216.635,13.251 216.635,19.418 
		222.801,16.334 222.801,16.334 	"/>
	<polygon fill-rule="evenodd" clip-rule="evenodd" fill="#FFFFFF" points="131.397,185.682 130.197,188.576 127.443,190.813 
		124.382,190.813 121.628,188.576 120.452,185.682 121.628,182.08 124.382,180.363 127.443,180.363 130.197,182.08 131.397,185.682 
			"/>
	<polygon fill="#1F1A17" points="130.362,188.789 130.432,188.67 131.633,185.775 131.162,185.588 129.961,188.482 130.362,188.789 
		130.362,188.789 130.409,188.742 130.432,188.67 	"/>
	<polygon fill="#1F1A17" points="127.443,191.072 127.607,191 130.362,188.789 130.032,188.389 127.301,190.602 127.443,191.072 
		127.443,191.072 127.537,191.072 127.607,191 	"/>
	<polygon fill="#1F1A17" points="124.218,191 124.382,191.072 127.443,191.072 127.443,190.555 124.382,190.555 124.218,191 
		124.218,191 124.289,191.072 124.382,191.072 	"/>
	<polygon fill="#1F1A17" points="121.393,188.67 121.487,188.789 124.218,191 124.547,190.602 121.793,188.389 121.393,188.67 
		121.393,188.67 121.44,188.742 121.487,188.789 	"/>
	<polygon fill="#1F1A17" points="120.192,185.588 120.216,185.775 121.393,188.67 121.887,188.482 120.687,185.588 120.192,185.588 
		120.192,185.588 120.169,185.682 120.216,185.775 	"/>
	<polygon fill="#1F1A17" points="121.511,181.869 121.393,182.01 120.192,185.588 120.687,185.752 121.887,182.174 121.511,181.869 
		121.511,181.869 121.417,181.916 121.393,182.01 	"/>
	<polygon fill="#1F1A17" points="124.382,180.127 124.241,180.15 121.511,181.869 121.77,182.293 124.5,180.598 124.382,180.127 
		124.382,180.127 124.312,180.127 124.241,180.15 	"/>
	<polygon fill="#1F1A17" points="127.584,180.15 127.443,180.127 124.382,180.127 124.382,180.621 127.443,180.621 127.584,180.15 
		127.584,180.15 127.537,180.127 127.443,180.127 	"/>
	<polygon fill="#1F1A17" points="130.432,182.01 130.314,181.869 127.584,180.15 127.325,180.598 130.056,182.293 130.432,182.01 
		130.432,182.01 130.409,181.916 130.314,181.869 	"/>
	<polygon fill="#1F1A17" points="131.633,185.775 131.633,185.588 130.432,182.01 129.938,182.174 131.138,185.752 131.633,185.775 
		131.633,185.775 131.656,185.682 131.633,185.588 	"/>
	
		<line fill="none" stroke="#25221E" stroke-width="0" stroke-linecap="square" stroke-miterlimit="10" x1="223.484" y1="185.918" x2="131.562" y2="185.918"/>
	<polygon fill-rule="evenodd" clip-rule="evenodd" fill="#1F1A17" points="131.562,185.918 137.729,189 137.729,182.811 
		131.562,185.918 131.562,185.918 	"/>
	
		<line fill="none" stroke="#25221E" stroke-width="0" stroke-linecap="square" stroke-miterlimit="10" x1="228.592" y1="22.101" x2="228.592" y2="52.393"/>
	<polygon fill-rule="evenodd" clip-rule="evenodd" fill="#1F1A17" points="228.592,52.393 231.676,46.203 225.508,46.203 
		228.592,52.393 228.592,52.393 	"/>
	
		<line fill="none" stroke="#25221E" stroke-width="0" stroke-linecap="square" stroke-miterlimit="10" x1="228.428" y1="149.459" x2="228.428" y2="179.727"/>
	<polygon fill-rule="evenodd" clip-rule="evenodd" fill="#1F1A17" points="228.428,179.727 231.512,173.561 225.344,173.561 
		228.428,179.727 228.428,179.727 	"/>
	<polygon fill-rule="evenodd" clip-rule="evenodd" fill="#FFFFFF" points="91.733,16.876 92.934,19.794 95.688,22.007 
		98.748,22.007 101.502,19.794 102.679,16.876 101.502,13.298 98.748,11.58 95.688,11.58 92.934,13.298 91.733,16.876 	"/>
	<polygon fill="#1F1A17" points="93.099,19.583 92.698,19.889 91.498,16.97 91.969,16.782 93.169,19.677 93.099,19.583 
		92.769,19.983 92.722,19.936 92.698,19.889 	"/>
	<polygon fill="#1F1A17" points="95.688,21.748 95.523,22.195 92.769,19.983 93.099,19.583 95.829,21.819 95.688,21.748 
		95.688,22.266 95.594,22.266 95.523,22.195 	"/>
	<polygon fill="#1F1A17" points="98.583,21.819 98.748,22.266 95.688,22.266 95.688,21.748 98.748,21.748 98.583,21.819 
		98.913,22.195 98.842,22.266 98.748,22.266 	"/>
	<polygon fill="#1F1A17" points="101.267,19.677 101.644,19.983 98.913,22.195 98.583,21.819 101.337,19.583 101.267,19.677 
		101.738,19.889 101.714,19.936 101.644,19.983 	"/>
	<polygon fill="#1F1A17" points="102.444,16.947 102.915,16.97 101.738,19.889 101.267,19.677 102.444,16.782 102.444,16.947 
		102.938,16.805 102.961,16.876 102.915,16.97 	"/>
	<polygon fill="#1F1A17" points="101.361,13.51 101.738,13.204 102.938,16.805 102.444,16.947 101.243,13.369 101.361,13.51 
		101.62,13.063 101.714,13.11 101.738,13.204 	"/>
	<polygon fill="#1F1A17" points="98.748,11.839 98.889,11.369 101.62,13.063 101.361,13.51 98.63,11.792 98.748,11.839 
		98.748,11.321 98.819,11.321 98.889,11.369 	"/>
	<polygon fill="#1F1A17" points="95.806,11.792 95.688,11.321 98.748,11.321 98.748,11.839 95.688,11.839 95.806,11.792 
		95.547,11.369 95.594,11.321 95.688,11.321 	"/>
	<polygon fill="#1F1A17" points="93.193,13.369 92.816,13.063 95.547,11.369 95.806,11.792 93.075,13.51 93.193,13.369 
		92.698,13.204 92.722,13.11 92.816,13.063 	"/>
	<polygon fill="#1F1A17" points="91.969,16.782 91.498,16.805 92.698,13.204 93.193,13.369 91.992,16.947 91.969,16.782 
		91.498,16.97 91.474,16.876 91.498,16.805 	"/>
	<polygon fill-rule="evenodd" clip-rule="evenodd" fill="#FFFFFF" points="60.732,16.264 59.531,13.369 56.801,11.133 
		53.717,11.133 50.986,13.369 49.786,16.264 50.986,19.865 53.717,21.56 56.801,21.56 59.531,19.865 60.732,16.264 	"/>
	<polygon fill="#1F1A17" points="59.367,13.557 59.767,13.275 60.967,16.17 60.497,16.358 59.296,13.463 59.367,13.557 
		59.696,13.157 59.743,13.204 59.767,13.275 	"/>
	<polygon fill="#1F1A17" points="56.801,11.392 56.965,10.945 59.696,13.157 59.367,13.557 56.636,11.345 56.801,11.392 
		56.801,10.874 56.895,10.874 56.965,10.945 	"/>
	<polygon fill="#1F1A17" points="53.882,11.345 53.717,10.874 56.801,10.874 56.801,11.392 53.717,11.392 53.882,11.345 
		53.552,10.945 53.623,10.874 53.717,10.874 	"/>
	<polygon fill="#1F1A17" points="51.222,13.463 50.822,13.157 53.552,10.945 53.882,11.345 51.151,13.557 51.222,13.463 
		50.751,13.275 50.774,13.204 50.822,13.157 	"/>
	<polygon fill="#1F1A17" points="50.021,16.193 49.55,16.17 50.751,13.275 51.222,13.463 50.021,16.358 50.021,16.193 49.55,16.358 
		49.527,16.264 49.55,16.17 	"/>
	<polygon fill="#1F1A17" points="51.127,19.63 50.751,19.936 49.55,16.358 50.021,16.193 51.222,19.771 51.127,19.63 50.845,20.077 
		50.774,20.03 50.751,19.936 	"/>
	<polygon fill="#1F1A17" points="53.717,21.301 53.576,21.795 50.845,20.077 51.127,19.63 53.858,21.348 53.717,21.301 
		53.717,21.819 53.646,21.819 53.576,21.795 	"/>
	<polygon fill="#1F1A17" points="56.66,21.348 56.801,21.819 53.717,21.819 53.717,21.301 56.801,21.301 56.66,21.348 
		56.942,21.795 56.871,21.819 56.801,21.819 	"/>
	<polygon fill="#1F1A17" points="59.296,19.771 59.672,20.077 56.942,21.795 56.66,21.348 59.39,19.63 59.296,19.771 59.79,19.936 
		59.743,20.03 59.672,20.077 	"/>
	<polygon fill="#1F1A17" points="60.497,16.358 60.967,16.358 59.79,19.936 59.296,19.771 60.497,16.193 60.497,16.358 
		60.967,16.17 61.014,16.264 60.967,16.358 	"/>
	
		<line fill="none" stroke="#25221E" stroke-width="0" stroke-linecap="square" stroke-miterlimit="10" x1="61.297" y1="16.5" x2="91.568" y2="16.5"/>
	<polygon fill-rule="evenodd" clip-rule="evenodd" fill="#1F1A17" points="91.568,16.5 85.401,13.416 85.401,19.583 91.568,16.5 
		91.568,16.5 	"/>
	<polygon fill-rule="evenodd" clip-rule="evenodd" fill="#FFFFFF" points="103.715,186.059 102.514,188.977 99.784,191.189 
		96.7,191.189 93.97,188.977 92.769,186.059 93.97,182.48 96.7,180.762 99.784,180.762 102.514,182.48 103.715,186.059 	"/>
	<polygon fill="#1F1A17" points="102.679,189.166 102.75,189.07 103.95,186.152 103.479,185.965 102.279,188.883 102.679,189.166 
		102.679,189.166 102.726,189.117 102.75,189.07 	"/>
	<polygon fill="#1F1A17" points="99.784,191.447 99.949,191.4 102.679,189.166 102.35,188.766 99.619,191 99.784,191.447 
		99.784,191.447 99.878,191.447 99.949,191.4 	"/>
	<polygon fill="#1F1A17" points="96.535,191.4 96.7,191.447 99.784,191.447 99.784,190.93 96.7,190.93 96.535,191.4 96.535,191.4 
		96.606,191.447 96.7,191.447 	"/>
	<polygon fill="#1F1A17" points="93.734,189.07 93.805,189.166 96.535,191.4 96.865,191 94.134,188.766 93.734,189.07 
		93.734,189.07 93.758,189.117 93.805,189.166 	"/>
	<polygon fill="#1F1A17" points="92.534,185.988 92.534,186.152 93.734,189.07 94.205,188.883 93.004,185.965 92.534,185.988 
		92.534,185.988 92.486,186.082 92.534,186.152 	"/>
	<polygon fill="#1F1A17" points="93.828,182.246 93.71,182.387 92.534,185.988 93.004,186.152 94.205,182.551 93.828,182.246 
		93.828,182.246 93.758,182.293 93.71,182.387 	"/>
	<polygon fill="#1F1A17" points="96.7,180.504 96.559,180.551 93.828,182.246 94.111,182.693 96.841,180.975 96.7,180.504 
		96.7,180.504 96.629,180.504 96.559,180.551 	"/>
	<polygon fill="#1F1A17" points="99.925,180.551 99.784,180.504 96.7,180.504 96.7,181.021 99.784,181.021 99.925,180.551 
		99.925,180.551 99.854,180.504 99.784,180.504 	"/>
	<polygon fill="#1F1A17" points="102.75,182.387 102.656,182.246 99.925,180.551 99.643,180.975 102.373,182.693 102.75,182.387 
		102.75,182.387 102.726,182.293 102.656,182.246 	"/>
	<polygon fill="#1F1A17" points="103.95,186.152 103.95,185.988 102.75,182.387 102.279,182.551 103.479,186.152 103.95,186.152 
		103.95,186.152 103.974,186.082 103.95,185.988 	"/>
	
		<line fill="none" stroke="#25221E" stroke-width="0" stroke-linecap="square" stroke-miterlimit="10" x1="93.004" y1="185.988" x2="62.709" y2="185.988"/>
	<polygon fill-rule="evenodd" clip-rule="evenodd" fill="#1F1A17" points="62.709,185.988 68.876,189.07 68.876,182.904 
		62.709,185.988 62.709,185.988 	"/>
	<polygon fill-rule="evenodd" clip-rule="evenodd" fill="#FFFFFF" points="52.164,142.492 53.364,145.387 56.094,147.623 
		59.178,147.623 61.909,145.387 63.109,142.492 61.909,138.891 59.178,137.195 56.094,137.195 53.364,138.891 52.164,142.492 	"/>
	<polygon fill="#1F1A17" points="53.529,145.199 53.128,145.48 51.928,142.586 52.399,142.398 53.599,145.293 53.529,145.199 
		53.199,145.598 53.152,145.551 53.128,145.48 	"/>
	<polygon fill="#1F1A17" points="56.094,147.363 55.93,147.811 53.199,145.598 53.529,145.199 56.259,147.41 56.094,147.363 
		56.094,147.881 56,147.881 55.93,147.811 	"/>
	<polygon fill="#1F1A17" points="59.013,147.41 59.178,147.881 56.094,147.881 56.094,147.363 59.178,147.363 59.013,147.41 
		59.343,147.811 59.272,147.881 59.178,147.881 	"/>
	<polygon fill="#1F1A17" points="61.673,145.293 62.074,145.598 59.343,147.811 59.013,147.41 61.744,145.199 61.673,145.293 
		62.144,145.48 62.121,145.551 62.074,145.598 	"/>
	<polygon fill="#1F1A17" points="62.874,142.563 63.345,142.586 62.144,145.48 61.673,145.293 62.874,142.398 62.874,142.563 
		63.345,142.398 63.392,142.492 63.345,142.586 	"/>
	<polygon fill="#1F1A17" points="61.768,139.102 62.167,138.82 63.345,142.398 62.874,142.563 61.673,138.984 61.768,139.102 
		62.05,138.68 62.121,138.727 62.167,138.82 	"/>
	<polygon fill="#1F1A17" points="59.178,137.432 59.319,136.961 62.05,138.68 61.768,139.102 59.037,137.408 59.178,137.432 
		59.178,136.938 59.249,136.938 59.319,136.961 	"/>
	<polygon fill="#1F1A17" points="56.236,137.408 56.094,136.938 59.178,136.938 59.178,137.432 56.094,137.432 56.236,137.408 
		55.953,136.961 56.024,136.938 56.094,136.938 	"/>
	<polygon fill="#1F1A17" points="53.599,138.984 53.223,138.68 55.953,136.961 56.236,137.408 53.505,139.102 53.599,138.984 
		53.128,138.82 53.152,138.727 53.223,138.68 	"/>
	<polygon fill="#1F1A17" points="52.399,142.398 51.928,142.398 53.128,138.82 53.599,138.984 52.399,142.563 52.399,142.398 
		51.928,142.586 51.904,142.492 51.928,142.398 	"/>
	<polyline fill="none" stroke="#242729" stroke-width="0" stroke-linecap="square" stroke-miterlimit="10" points="65.322,120.344 
		65.322,82.026 0.259,82.026 0.259,120.344 65.322,120.344 	"/>
	<g>
		<path fill="#1F1A17" d="M25.865,103.044l1.062,0.263c-0.223,0.855-0.623,1.508-1.201,1.957s-1.285,0.673-2.121,0.673
			c-0.864,0-1.567-0.172-2.109-0.518c-0.542-0.345-0.954-0.846-1.236-1.5c-0.283-0.655-0.424-1.357-0.424-2.109
			c0-0.819,0.16-1.534,0.479-2.144c0.319-0.61,0.773-1.074,1.362-1.391c0.589-0.316,1.237-0.475,1.945-0.475
			c0.802,0,1.478,0.2,2.024,0.601c0.547,0.401,0.928,0.965,1.144,1.69l-1.045,0.242c-0.186-0.572-0.456-0.989-0.81-1.251
			c-0.354-0.261-0.799-0.392-1.335-0.392c-0.617,0-1.132,0.145-1.546,0.435s-0.705,0.679-0.873,1.168
			c-0.168,0.488-0.252,0.991-0.252,1.511c0,0.669,0.1,1.253,0.298,1.752s0.508,0.872,0.928,1.119c0.419,0.247,0.874,0.37,1.362,0.37
			c0.595,0,1.098-0.168,1.51-0.505C25.44,104.205,25.719,103.706,25.865,103.044z"/>
		<path fill="#1F1A17" d="M28.277,105.803v-7.868h0.985v2.823c0.459-0.522,1.04-0.783,1.74-0.783c0.43,0,0.804,0.083,1.122,0.249
			s0.544,0.396,0.681,0.689c0.137,0.294,0.205,0.72,0.205,1.277v3.612h-0.985v-3.612c0-0.482-0.106-0.834-0.32-1.055
			c-0.213-0.22-0.516-0.33-0.906-0.33c-0.292,0-0.566,0.074-0.824,0.223c-0.257,0.149-0.44,0.351-0.55,0.604
			s-0.164,0.604-0.164,1.052v3.118H28.277z"/>
		<path fill="#1F1A17" d="M34.436,99.046v-1.111h0.985v1.111H34.436z M34.436,105.803v-5.7h0.985v5.7H34.436z"/>
		<path fill="#1F1A17" d="M36.417,105.803v-7.868h0.985v7.868H36.417z"/>
		<path fill="#1F1A17" d="M38.402,105.803v-7.868h0.985v7.868H38.402z"/>
		<path fill="#1F1A17" d="M44.41,103.967l1.018,0.124c-0.161,0.583-0.458,1.036-0.892,1.357c-0.434,0.322-0.989,0.483-1.664,0.483
			c-0.85,0-1.524-0.257-2.022-0.771c-0.498-0.513-0.747-1.233-0.747-2.16c0-0.959,0.252-1.703,0.755-2.232s1.156-0.794,1.959-0.794
			c0.777,0,1.412,0.259,1.904,0.777c0.492,0.52,0.739,1.249,0.739,2.19c0,0.057-0.002,0.143-0.006,0.258h-4.333
			c0.036,0.626,0.217,1.105,0.542,1.438c0.325,0.333,0.729,0.5,1.215,0.5c0.361,0,0.669-0.094,0.925-0.279
			C44.058,104.672,44.26,104.375,44.41,103.967z M41.176,102.405h3.245c-0.043-0.479-0.167-0.839-0.372-1.079
			c-0.313-0.372-0.72-0.558-1.22-0.558c-0.452,0-0.833,0.148-1.141,0.445C41.379,101.511,41.208,101.908,41.176,102.405z"/>
		<path fill="#1F1A17" d="M47.079,105.803v-5.7h0.887v0.864c0.226-0.404,0.435-0.671,0.626-0.8s0.402-0.192,0.632-0.192
			c0.332,0,0.669,0.104,1.013,0.311l-0.339,0.896c-0.241-0.14-0.481-0.209-0.722-0.209c-0.215,0-0.409,0.063-0.58,0.19
			c-0.172,0.127-0.294,0.303-0.367,0.528c-0.109,0.344-0.164,0.72-0.164,1.127v2.984H47.079z"/>
	</g>
	<polygon fill-rule="evenodd" clip-rule="evenodd" fill="#FFFFFF" points="0.259,156.543 1.459,159.461 4.19,161.674 7.273,161.674 
		10.004,159.461 11.205,156.543 10.004,152.965 7.273,151.248 4.19,151.248 1.459,152.965 0.259,156.543 	"/>
	<polygon fill="#1F1A17" points="1.624,159.273 1.224,159.557 0.023,156.66 0.494,156.449 1.695,159.367 1.624,159.273 
		1.294,159.65 1.248,159.627 1.224,159.557 	"/>
	<polygon fill="#1F1A17" points="4.19,161.416 4.049,161.887 1.294,159.65 1.624,159.273 4.354,161.486 4.19,161.416 4.19,161.934 
		4.119,161.934 4.049,161.887 	"/>
	<polygon fill="#1F1A17" points="7.109,161.486 7.273,161.934 4.19,161.934 4.19,161.416 7.273,161.416 7.109,161.486 
		7.438,161.887 7.368,161.934 7.273,161.934 	"/>
	<polygon fill="#1F1A17" points="9.769,159.367 10.169,159.65 7.438,161.887 7.109,161.486 9.863,159.273 9.769,159.367 
		10.24,159.557 10.216,159.627 10.169,159.65 	"/>
	<polygon fill="#1F1A17" points="10.969,156.637 11.44,156.66 10.24,159.557 9.769,159.367 10.969,156.449 10.969,156.637 
		11.463,156.473 11.487,156.566 11.44,156.66 	"/>
	<polygon fill="#1F1A17" points="9.886,153.178 10.263,152.871 11.463,156.473 10.969,156.637 9.769,153.037 9.886,153.178 
		10.146,152.754 10.216,152.801 10.263,152.871 	"/>
	<polygon fill="#1F1A17" points="7.273,151.506 7.415,151.035 10.146,152.754 9.886,153.178 7.132,151.459 7.273,151.506 
		7.273,150.988 7.344,150.988 7.415,151.035 	"/>
	<polygon fill="#1F1A17" points="4.331,151.459 4.19,150.988 7.273,150.988 7.273,151.506 4.19,151.506 4.331,151.459 
		4.072,151.035 4.119,150.988 4.19,150.988 	"/>
	<polygon fill="#1F1A17" points="1.695,153.037 1.318,152.754 4.072,151.035 4.331,151.459 1.601,153.178 1.695,153.037 
		1.224,152.871 1.248,152.801 1.318,152.754 	"/>
	<polygon fill="#1F1A17" points="0.494,156.449 0.023,156.473 1.224,152.871 1.695,153.037 0.518,156.637 0.494,156.449 
		0.023,156.66 0,156.566 0.023,156.473 	"/>
	<polygon fill-rule="evenodd" clip-rule="evenodd" fill="#FFFFFF" points="1.907,46.25 3.107,49.145 5.861,51.381 8.921,51.381 
		11.675,49.145 12.853,46.25 11.675,42.649 8.921,40.954 5.861,40.954 3.107,42.649 1.907,46.25 	"/>
	<polygon fill="#1F1A17" points="3.272,48.957 2.872,49.263 1.671,46.344 2.166,46.156 3.342,49.051 3.272,48.957 2.942,49.357 
		2.895,49.31 2.872,49.263 	"/>
	<polygon fill="#1F1A17" points="5.861,51.122 5.696,51.569 2.942,49.357 3.272,48.957 6.002,51.169 5.861,51.122 5.861,51.64 
		5.767,51.64 5.696,51.569 	"/>
	<polygon fill="#1F1A17" points="8.756,51.169 8.921,51.64 5.861,51.64 5.861,51.122 8.921,51.122 8.756,51.169 9.086,51.569 
		9.016,51.64 8.921,51.64 	"/>
	<polygon fill="#1F1A17" points="11.44,49.051 11.817,49.357 9.086,51.569 8.756,51.169 11.511,48.957 11.44,49.051 11.911,49.263 
		11.887,49.31 11.817,49.357 	"/>
	<polygon fill="#1F1A17" points="12.617,46.32 13.088,46.344 11.911,49.263 11.44,49.051 12.617,46.156 12.617,46.32 13.111,46.179 
		13.135,46.25 13.088,46.344 	"/>
	<polygon fill="#1F1A17" points="11.534,42.884 11.911,42.578 13.111,46.179 12.617,46.32 11.417,42.743 11.534,42.884 
		11.793,42.437 11.887,42.484 11.911,42.578 	"/>
	<polygon fill="#1F1A17" points="8.921,41.213 9.063,40.742 11.793,42.437 11.534,42.884 8.804,41.166 8.921,41.213 8.921,40.695 
		8.992,40.695 9.063,40.742 	"/>
	<polygon fill="#1F1A17" points="5.979,41.166 5.861,40.695 8.921,40.695 8.921,41.213 5.861,41.213 5.979,41.166 5.72,40.742 
		5.767,40.695 5.861,40.695 	"/>
	<polygon fill="#1F1A17" points="3.366,42.743 2.989,42.437 5.72,40.742 5.979,41.166 3.249,42.884 3.366,42.743 2.872,42.578 
		2.895,42.484 2.989,42.437 	"/>
	<polygon fill="#1F1A17" points="2.166,46.156 1.671,46.179 2.872,42.578 3.366,42.743 2.166,46.32 2.166,46.156 1.671,46.344 
		1.647,46.25 1.671,46.179 	"/>
	<polygon fill-rule="evenodd" clip-rule="evenodd" fill="#FFFFFF" points="49.268,57.312 50.468,60.231 53.199,62.443 
		56.283,62.443 59.013,60.231 60.214,57.312 59.013,53.734 56.283,52.016 53.199,52.016 50.468,53.734 49.268,57.312 	"/>
	<polygon fill="#1F1A17" points="50.633,60.019 50.233,60.325 49.033,57.406 49.503,57.218 50.704,60.113 50.633,60.019 
		50.304,60.419 50.257,60.372 50.233,60.325 	"/>
	<polygon fill="#1F1A17" points="53.199,62.184 53.058,62.631 50.304,60.419 50.633,60.019 53.364,62.255 53.199,62.184 
		53.199,62.702 53.128,62.702 53.058,62.631 	"/>
	<polygon fill="#1F1A17" points="56.118,62.255 56.283,62.702 53.199,62.702 53.199,62.184 56.283,62.184 56.118,62.255 
		56.448,62.631 56.377,62.702 56.283,62.702 	"/>
	<polygon fill="#1F1A17" points="58.778,60.113 59.178,60.419 56.448,62.631 56.118,62.255 58.872,60.019 58.778,60.113 
		59.272,60.325 59.225,60.372 59.178,60.419 	"/>
	<polygon fill="#1F1A17" points="59.979,57.383 60.449,57.406 59.272,60.325 58.778,60.113 59.979,57.218 59.979,57.383 
		60.473,57.242 60.497,57.312 60.449,57.406 	"/>
	<polygon fill="#1F1A17" points="58.896,53.946 59.272,53.64 60.473,57.242 59.979,57.383 58.778,53.805 58.896,53.946 
		59.155,53.499 59.249,53.546 59.272,53.64 	"/>
	<polygon fill="#1F1A17" points="56.283,52.275 56.424,51.805 59.155,53.499 58.896,53.946 56.165,52.228 56.283,52.275 
		56.283,51.757 56.354,51.757 56.424,51.805 	"/>
	<polygon fill="#1F1A17" points="53.34,52.228 53.199,51.757 56.283,51.757 56.283,52.275 53.199,52.275 53.34,52.228 
		53.082,51.805 53.128,51.757 53.199,51.757 	"/>
	<polygon fill="#1F1A17" points="50.728,53.805 50.351,53.499 53.082,51.805 53.34,52.228 50.61,53.946 50.728,53.805 50.233,53.64 
		50.257,53.546 50.351,53.499 	"/>
	<polygon fill="#1F1A17" points="49.503,57.218 49.033,57.242 50.233,53.64 50.728,53.805 49.527,57.383 49.503,57.218 
		49.033,57.406 49.009,57.312 49.033,57.242 	"/>
	
		<line fill="none" stroke="#25221E" stroke-width="0" stroke-linecap="square" stroke-miterlimit="10" x1="7.485" y1="51.593" x2="7.485" y2="81.884"/>
	<polygon fill-rule="evenodd" clip-rule="evenodd" fill="#1F1A17" points="7.485,81.884 10.569,75.718 4.378,75.718 7.485,81.884 
		7.485,81.884 	"/>
	
		<line fill="none" stroke="#25221E" stroke-width="0" stroke-linecap="square" stroke-miterlimit="10" x1="57.883" y1="137.266" x2="57.883" y2="120.508"/>
	<polygon fill-rule="evenodd" clip-rule="evenodd" fill="#1F1A17" points="57.883,120.508 54.8,126.676 60.967,126.676 
		57.883,120.508 57.883,120.508 	"/>
	
		<line fill="none" stroke="#25221E" stroke-width="0" stroke-linecap="square" stroke-miterlimit="10" x1="54.235" y1="82.19" x2="54.235" y2="63.125"/>
	<polygon fill-rule="evenodd" clip-rule="evenodd" fill="#1F1A17" points="54.235,63.125 51.151,69.292 57.318,69.292 
		54.235,63.125 54.235,63.125 	"/>
	
		<line fill="none" stroke="#25221E" stroke-width="0" stroke-linecap="square" stroke-miterlimit="10" x1="5.791" y1="120.814" x2="5.791" y2="151.082"/>
	<polygon fill-rule="evenodd" clip-rule="evenodd" fill="#1F1A17" points="5.791,151.082 8.874,144.916 2.707,144.916 
		5.791,151.082 5.791,151.082 	"/>
	<polygon fill-rule="evenodd" clip-rule="evenodd" fill="#FFFFFF" points="51.646,185.398 52.846,182.48 55.577,180.268 
		58.66,180.268 61.391,182.48 62.591,185.398 61.391,188.977 58.66,190.695 55.577,190.695 52.846,188.977 51.646,185.398 	"/>
	<polygon fill="#1F1A17" points="52.681,182.293 52.611,182.387 51.41,185.305 51.881,185.494 53.082,182.598 52.681,182.293 
		52.681,182.293 52.634,182.34 52.611,182.387 	"/>
	<polygon fill="#1F1A17" points="55.577,180.01 55.412,180.08 52.681,182.293 53.011,182.693 55.741,180.457 55.577,180.01 
		55.577,180.01 55.482,180.01 55.412,180.08 	"/>
	<polygon fill="#1F1A17" points="58.825,180.08 58.66,180.01 55.577,180.01 55.577,180.527 58.66,180.527 58.825,180.08 
		58.825,180.08 58.754,180.01 58.66,180.01 	"/>
	<polygon fill="#1F1A17" points="61.626,182.387 61.556,182.293 58.825,180.08 58.496,180.457 61.226,182.693 61.626,182.387 
		61.626,182.387 61.603,182.34 61.556,182.293 	"/>
	<polygon fill="#1F1A17" points="62.827,185.471 62.827,185.305 61.626,182.387 61.155,182.598 62.356,185.494 62.827,185.471 
		62.827,185.471 62.874,185.398 62.827,185.305 	"/>
	<polygon fill="#1F1A17" points="61.532,189.213 61.65,189.07 62.827,185.471 62.356,185.328 61.155,188.906 61.532,189.213 
		61.532,189.213 61.603,189.166 61.65,189.07 	"/>
	<polygon fill="#1F1A17" points="58.66,190.953 58.801,190.906 61.532,189.213 61.25,188.766 58.519,190.482 58.66,190.953 
		58.66,190.953 58.731,190.953 58.801,190.906 	"/>
	<polygon fill="#1F1A17" points="55.459,190.906 55.577,190.953 58.66,190.953 58.66,190.436 55.577,190.436 55.459,190.906 
		55.459,190.906 55.506,190.953 55.577,190.953 	"/>
	<polygon fill="#1F1A17" points="52.611,189.07 52.705,189.213 55.459,190.906 55.718,190.482 52.987,188.766 52.611,189.07 
		52.611,189.07 52.634,189.166 52.705,189.213 	"/>
	<polygon fill="#1F1A17" points="51.41,185.305 51.41,185.471 52.611,189.07 53.082,188.906 51.881,185.328 51.41,185.305 
		51.41,185.305 51.387,185.398 51.41,185.471 	"/>
	
		<line fill="none" stroke="#25221E" stroke-width="0" stroke-linecap="square" stroke-miterlimit="10" x1="57.271" y1="180.01" x2="57.271" y2="148.611"/>
	<polygon fill-rule="evenodd" clip-rule="evenodd" fill="#1F1A17" points="57.271,148.611 54.188,154.777 60.355,154.777 
		57.271,148.611 57.271,148.611 	"/>
	
		<line fill="none" stroke="#25221E" stroke-width="0" stroke-linecap="square" stroke-miterlimit="10" x1="54.988" y1="51.757" x2="54.988" y2="21.466"/>
	<polygon fill-rule="evenodd" clip-rule="evenodd" fill="#1F1A17" points="54.988,21.466 51.904,27.656 58.072,27.656 
		54.988,21.466 54.988,21.466 	"/>
	<g>
		<path fill="#1F1A17" d="M163.188,42.959v-7.868h3.026c0.532,0,0.939,0.025,1.22,0.075c0.394,0.064,0.724,0.187,0.99,0.368
			s0.48,0.434,0.643,0.759c0.162,0.326,0.244,0.684,0.244,1.074c0,0.669-0.217,1.235-0.651,1.699s-1.218,0.695-2.353,0.695h-2.057
			v3.199H163.188z M164.25,38.832h2.074c0.686,0,1.173-0.125,1.461-0.375s0.432-0.603,0.432-1.057c0-0.329-0.084-0.611-0.254-0.846
			c-0.169-0.234-0.393-0.389-0.67-0.464c-0.179-0.046-0.509-0.07-0.99-0.07h-2.052V38.832z"/>
		<path fill="#1F1A17" d="M172.239,42.959v-0.837c-0.453,0.644-1.067,0.966-1.844,0.966c-0.343,0-0.663-0.064-0.96-0.193
			s-0.518-0.291-0.662-0.486c-0.144-0.195-0.245-0.434-0.304-0.716c-0.04-0.189-0.06-0.49-0.06-0.902v-3.531h0.985v3.161
			c0,0.504,0.02,0.844,0.06,1.02c0.062,0.254,0.193,0.454,0.394,0.599s0.449,0.217,0.744,0.217c0.296,0,0.573-0.074,0.832-0.223
			c0.259-0.148,0.442-0.351,0.55-0.606s0.162-0.627,0.162-1.114v-3.054h0.985v5.7H172.239z"/>
		<path fill="#1F1A17" d="M174.584,42.959v-5.7h0.881v0.8c0.183-0.279,0.425-0.504,0.728-0.674c0.303-0.17,0.647-0.255,1.034-0.255
			c0.43,0,0.783,0.088,1.059,0.263s0.47,0.42,0.583,0.735c0.46-0.666,1.058-0.999,1.795-0.999c0.577,0,1.02,0.157,1.33,0.47
			s0.465,0.795,0.465,1.446v3.913h-0.979v-3.59c0-0.387-0.032-0.665-0.096-0.835c-0.064-0.17-0.18-0.307-0.348-0.41
			c-0.168-0.104-0.365-0.156-0.591-0.156c-0.409,0-0.748,0.133-1.018,0.4c-0.27,0.267-0.405,0.693-0.405,1.28v3.312h-0.985v-3.703
			c0-0.43-0.08-0.751-0.241-0.966c-0.161-0.214-0.423-0.322-0.788-0.322c-0.277,0-0.533,0.071-0.769,0.214
			c-0.235,0.144-0.406,0.353-0.512,0.628c-0.106,0.276-0.159,0.673-0.159,1.192v2.957H174.584z"/>
		<path fill="#1F1A17" d="M184.816,45.144v-7.884h0.897V38c0.211-0.29,0.45-0.507,0.717-0.652c0.266-0.145,0.589-0.217,0.968-0.217
			c0.496,0,0.934,0.125,1.314,0.375c0.379,0.25,0.667,0.604,0.86,1.06c0.193,0.457,0.289,0.957,0.289,1.5
			c0,0.583-0.107,1.108-0.32,1.576c-0.213,0.467-0.523,0.825-0.93,1.073c-0.407,0.249-0.834,0.373-1.283,0.373
			c-0.329,0-0.623-0.068-0.884-0.204c-0.261-0.136-0.475-0.308-0.643-0.515v2.775H184.816z M185.708,40.141
			c0,0.734,0.151,1.276,0.454,1.626c0.303,0.351,0.669,0.526,1.1,0.526c0.438,0,0.813-0.182,1.125-0.545
			c0.313-0.363,0.468-0.926,0.468-1.688c0-0.726-0.152-1.27-0.457-1.631c-0.304-0.361-0.668-0.542-1.091-0.542
			c-0.419,0-0.791,0.192-1.114,0.577C185.869,38.849,185.708,39.408,185.708,40.141z"/>
	</g>
	<g>
		<path fill="#1F1A17" d="M214.311,35.58l1.002-0.086c0.047,0.394,0.158,0.716,0.332,0.969c0.172,0.252,0.441,0.456,0.807,0.612
			s0.775,0.233,1.23,0.233c0.406,0,0.764-0.059,1.072-0.177c0.311-0.118,0.541-0.28,0.693-0.486c0.15-0.206,0.227-0.43,0.227-0.674
			c0-0.247-0.072-0.462-0.219-0.646c-0.146-0.185-0.387-0.339-0.723-0.464c-0.215-0.082-0.691-0.21-1.428-0.384
			c-0.736-0.173-1.254-0.337-1.549-0.491c-0.383-0.197-0.668-0.441-0.855-0.732c-0.189-0.292-0.283-0.618-0.283-0.979
			c0-0.397,0.115-0.768,0.346-1.114c0.23-0.345,0.564-0.607,1.006-0.786c0.441-0.179,0.934-0.269,1.473-0.269
			c0.594,0,1.119,0.094,1.572,0.282c0.455,0.188,0.805,0.464,1.049,0.83c0.244,0.365,0.375,0.778,0.395,1.24l-1.018,0.075
			c-0.055-0.498-0.24-0.873-0.557-1.127c-0.314-0.254-0.781-0.381-1.398-0.381c-0.641,0-1.109,0.115-1.402,0.346
			c-0.295,0.231-0.441,0.509-0.441,0.834c0,0.283,0.105,0.515,0.313,0.698c0.205,0.183,0.738,0.37,1.6,0.561
			c0.863,0.191,1.455,0.358,1.777,0.501c0.467,0.211,0.811,0.479,1.033,0.803s0.334,0.697,0.334,1.119
			c0,0.419-0.123,0.813-0.367,1.184c-0.244,0.371-0.596,0.658-1.053,0.864c-0.457,0.206-0.973,0.309-1.547,0.309
			c-0.725,0-1.334-0.104-1.824-0.312s-0.875-0.52-1.154-0.937C214.473,36.577,214.326,36.105,214.311,35.58z"/>
		<path fill="#1F1A17" d="M219.656,40.292v-7.884h0.898v0.741c0.211-0.29,0.451-0.507,0.717-0.652s0.59-0.217,0.969-0.217
			c0.496,0,0.934,0.125,1.313,0.375c0.379,0.25,0.666,0.604,0.859,1.06c0.193,0.457,0.291,0.957,0.291,1.5
			c0,0.583-0.107,1.108-0.32,1.576c-0.215,0.467-0.523,0.825-0.932,1.073c-0.406,0.249-0.834,0.373-1.283,0.373
			c-0.328,0-0.623-0.068-0.883-0.204c-0.262-0.136-0.475-0.308-0.643-0.515v2.775H219.656z M220.549,35.29
			c0,0.734,0.152,1.276,0.455,1.626s0.668,0.526,1.1,0.526c0.438,0,0.813-0.182,1.125-0.545c0.311-0.363,0.467-0.926,0.467-1.688
			c0-0.726-0.152-1.27-0.457-1.631s-0.668-0.542-1.092-0.542c-0.42,0-0.791,0.192-1.113,0.577
			C220.711,33.997,220.549,34.556,220.549,35.29z"/>
		<path fill="#1F1A17" d="M226.551,38.107v-7.868h0.986v7.868H226.551z"/>
		<path fill="#1F1A17" d="M228.586,31.35v-1.111h0.986v1.111H228.586z M228.586,38.107v-5.7h0.986v5.7H228.586z"/>
		<path fill="#1F1A17" d="M232.738,37.243l0.143,0.854c-0.277,0.057-0.525,0.086-0.744,0.086c-0.357,0-0.635-0.056-0.832-0.167
			c-0.195-0.111-0.334-0.257-0.414-0.438c-0.082-0.181-0.121-0.561-0.121-1.14v-3.279h-0.723v-0.751h0.723v-1.412l0.979-0.58v1.991
			h0.99v0.751h-0.99v3.333c0,0.275,0.018,0.453,0.053,0.531s0.092,0.141,0.17,0.188c0.078,0.047,0.189,0.07,0.336,0.07
			C232.416,37.281,232.561,37.269,232.738,37.243z"/>
		<path fill="#1F1A17" d="M235.729,37.243l0.143,0.854c-0.277,0.057-0.525,0.086-0.744,0.086c-0.357,0-0.635-0.056-0.832-0.167
			c-0.195-0.111-0.334-0.257-0.414-0.438c-0.082-0.181-0.121-0.561-0.121-1.14v-3.279h-0.723v-0.751h0.723v-1.412l0.979-0.58v1.991
			h0.99v0.751h-0.99v3.333c0,0.275,0.018,0.453,0.053,0.531s0.092,0.141,0.17,0.188c0.078,0.047,0.189,0.07,0.336,0.07
			C235.406,37.281,235.551,37.269,235.729,37.243z"/>
		<path fill="#1F1A17" d="M240.58,36.272l1.018,0.124c-0.16,0.583-0.457,1.036-0.891,1.358c-0.436,0.322-0.99,0.483-1.664,0.483
			c-0.85,0-1.523-0.257-2.021-0.771c-0.498-0.513-0.748-1.233-0.748-2.16c0-0.958,0.252-1.703,0.756-2.232
			c0.504-0.53,1.156-0.794,1.959-0.794c0.777,0,1.412,0.259,1.904,0.778c0.492,0.519,0.738,1.249,0.738,2.189
			c0,0.058-0.002,0.144-0.006,0.258h-4.334c0.037,0.626,0.219,1.105,0.543,1.438c0.324,0.333,0.729,0.499,1.215,0.499
			c0.361,0,0.668-0.093,0.924-0.279C240.229,36.977,240.432,36.68,240.58,36.272z M237.346,34.71h3.246
			c-0.045-0.479-0.168-0.839-0.373-1.079c-0.313-0.372-0.721-0.558-1.219-0.558c-0.453,0-0.834,0.148-1.143,0.445
			C237.551,33.815,237.379,34.213,237.346,34.71z"/>
		<path fill="#1F1A17" d="M243.25,38.107v-5.7h0.887v0.864c0.227-0.404,0.434-0.671,0.627-0.8c0.191-0.129,0.4-0.193,0.631-0.193
			c0.332,0,0.67,0.104,1.012,0.312l-0.338,0.896c-0.242-0.14-0.482-0.209-0.723-0.209c-0.215,0-0.408,0.063-0.58,0.19
			s-0.293,0.303-0.367,0.528c-0.109,0.344-0.164,0.719-0.164,1.127v2.984H243.25z"/>
	</g>
	<g>
		<path fill="#1F1A17" d="M43.015,168.321l1.001-0.085c0.047,0.394,0.158,0.716,0.331,0.969c0.173,0.252,0.442,0.456,0.807,0.611
			s0.775,0.233,1.231,0.233c0.405,0,0.762-0.059,1.073-0.177c0.31-0.118,0.541-0.28,0.692-0.486c0.151-0.205,0.227-0.43,0.227-0.673
			c0-0.247-0.073-0.463-0.219-0.647c-0.146-0.184-0.387-0.339-0.722-0.464c-0.215-0.082-0.691-0.21-1.428-0.384
			s-1.253-0.337-1.549-0.491c-0.383-0.196-0.668-0.44-0.856-0.732c-0.188-0.292-0.282-0.618-0.282-0.979
			c0-0.397,0.115-0.769,0.345-1.113c0.229-0.346,0.565-0.607,1.007-0.786c0.441-0.18,0.932-0.269,1.472-0.269
			c0.595,0,1.119,0.094,1.573,0.281c0.454,0.188,0.803,0.465,1.048,0.829c0.244,0.365,0.375,0.778,0.394,1.24l-1.018,0.075
			c-0.055-0.497-0.24-0.873-0.555-1.127s-0.782-0.381-1.398-0.381c-0.642,0-1.11,0.115-1.404,0.346
			c-0.293,0.23-0.44,0.509-0.44,0.835c0,0.282,0.104,0.515,0.312,0.697c0.204,0.183,0.738,0.369,1.601,0.561
			s1.455,0.359,1.775,0.502c0.467,0.211,0.812,0.479,1.034,0.803c0.223,0.323,0.334,0.696,0.334,1.119
			c0,0.418-0.123,0.813-0.367,1.184c-0.245,0.37-0.596,0.658-1.053,0.863c-0.458,0.206-0.973,0.309-1.546,0.309
			c-0.726,0-1.334-0.104-1.825-0.311c-0.491-0.208-0.875-0.521-1.155-0.937C43.176,169.319,43.029,168.848,43.015,168.321z"/>
		<path fill="#1F1A17" d="M48.36,173.034v-7.885h0.897v0.741c0.211-0.29,0.45-0.508,0.717-0.652
			c0.266-0.145,0.589-0.217,0.968-0.217c0.496,0,0.934,0.125,1.313,0.375c0.379,0.251,0.666,0.604,0.859,1.061s0.29,0.956,0.29,1.5
			c0,0.583-0.106,1.108-0.32,1.575s-0.524,0.824-0.93,1.073c-0.407,0.249-0.834,0.373-1.283,0.373c-0.329,0-0.623-0.068-0.884-0.204
			s-0.475-0.308-0.643-0.516v2.775H48.36z M49.252,168.032c0,0.733,0.151,1.275,0.454,1.626c0.303,0.351,0.669,0.526,1.1,0.526
			c0.438,0,0.813-0.182,1.125-0.545s0.468-0.926,0.468-1.688c0-0.726-0.152-1.27-0.457-1.631c-0.304-0.362-0.668-0.543-1.091-0.543
			c-0.419,0-0.791,0.192-1.114,0.577S49.252,167.299,49.252,168.032z"/>
		<path fill="#1F1A17" d="M55.254,170.85v-7.868h0.985v7.868H55.254z"/>
		<path fill="#1F1A17" d="M57.289,164.093v-1.111h0.985v1.111H57.289z M57.289,170.85v-5.7h0.985v5.7H57.289z"/>
		<path fill="#1F1A17" d="M61.442,169.985l0.142,0.854c-0.277,0.058-0.525,0.086-0.744,0.086c-0.357,0-0.635-0.056-0.832-0.166
			c-0.197-0.111-0.336-0.257-0.416-0.438s-0.12-0.562-0.12-1.141v-3.279H58.75v-0.752h0.723v-1.411l0.979-0.58v1.991h0.99v0.752
			h-0.99v3.333c0,0.275,0.017,0.452,0.052,0.531c0.035,0.078,0.091,0.142,0.169,0.188c0.079,0.047,0.191,0.07,0.337,0.07
			C61.119,170.023,61.263,170.011,61.442,169.985z"/>
		<path fill="#1F1A17" d="M64.432,169.985l0.142,0.854c-0.277,0.058-0.525,0.086-0.744,0.086c-0.357,0-0.635-0.056-0.832-0.166
			c-0.197-0.111-0.336-0.257-0.416-0.438s-0.12-0.562-0.12-1.141v-3.279H61.74v-0.752h0.723v-1.411l0.979-0.58v1.991h0.99v0.752
			h-0.99v3.333c0,0.275,0.017,0.452,0.052,0.531c0.035,0.078,0.091,0.142,0.169,0.188c0.079,0.047,0.191,0.07,0.337,0.07
			C64.109,170.023,64.253,170.011,64.432,169.985z"/>
		<path fill="#1F1A17" d="M69.284,169.014l1.018,0.124c-0.161,0.583-0.458,1.036-0.892,1.357c-0.434,0.322-0.989,0.483-1.664,0.483
			c-0.85,0-1.524-0.257-2.022-0.771c-0.498-0.513-0.747-1.233-0.747-2.16c0-0.959,0.252-1.703,0.755-2.232s1.156-0.794,1.959-0.794
			c0.777,0,1.412,0.259,1.904,0.777c0.492,0.52,0.739,1.249,0.739,2.19c0,0.057-0.002,0.143-0.006,0.258h-4.333
			c0.036,0.626,0.217,1.105,0.542,1.438c0.325,0.333,0.729,0.5,1.215,0.5c0.361,0,0.669-0.094,0.925-0.279
			C68.932,169.719,69.134,169.422,69.284,169.014z M66.05,167.452h3.245c-0.043-0.479-0.167-0.839-0.372-1.079
			c-0.313-0.372-0.72-0.558-1.22-0.558c-0.452,0-0.833,0.148-1.141,0.445C66.253,166.558,66.083,166.955,66.05,167.452z"/>
		<path fill="#1F1A17" d="M71.953,170.85v-5.7h0.887v0.864c0.226-0.404,0.435-0.671,0.626-0.8s0.402-0.192,0.632-0.192
			c0.332,0,0.669,0.104,1.013,0.311l-0.339,0.896c-0.241-0.14-0.481-0.209-0.722-0.209c-0.215,0-0.409,0.063-0.58,0.19
			c-0.172,0.127-0.294,0.303-0.367,0.528c-0.109,0.344-0.164,0.72-0.164,1.127v2.984H71.953z"/>
	</g>
	<g>
		<path fill="#1F1A17" d="M219.188,167.389v-7.868h1.598l1.898,5.571c0.174,0.519,0.303,0.907,0.383,1.164
			c0.092-0.286,0.232-0.706,0.426-1.261l1.922-5.475h1.428v7.868h-1.023v-6.585l-2.33,6.585h-0.959l-2.32-6.698v6.698H219.188z"/>
		<path fill="#1F1A17" d="M228.188,160.632v-1.111h0.986v1.111H228.188z M228.188,167.389v-5.7h0.986v5.7H228.188z"/>
		<path fill="#1F1A17" d="M229.533,167.389l2.123-2.963l-1.963-2.737h1.23l0.893,1.337c0.166,0.254,0.303,0.467,0.404,0.639
			c0.16-0.236,0.309-0.445,0.443-0.628l0.979-1.348h1.178l-2.01,2.684l2.162,3.017h-1.209l-1.193-1.771l-0.316-0.478l-1.527,2.249
			H229.533z"/>
		<path fill="#1F1A17" d="M238.719,165.553l1.018,0.124c-0.16,0.583-0.459,1.036-0.893,1.357c-0.434,0.322-0.988,0.483-1.664,0.483
			c-0.85,0-1.523-0.257-2.021-0.771c-0.498-0.513-0.746-1.233-0.746-2.16c0-0.959,0.252-1.703,0.754-2.232
			c0.504-0.529,1.158-0.794,1.959-0.794c0.777,0,1.412,0.259,1.904,0.777c0.494,0.52,0.74,1.249,0.74,2.19
			c0,0.057-0.002,0.143-0.006,0.258h-4.334c0.037,0.626,0.217,1.105,0.541,1.438c0.326,0.333,0.73,0.5,1.215,0.5
			c0.361,0,0.67-0.094,0.926-0.279C238.365,166.258,238.568,165.961,238.719,165.553z M235.484,163.991h3.244
			c-0.043-0.479-0.168-0.839-0.371-1.079c-0.314-0.372-0.721-0.558-1.221-0.558c-0.453,0-0.832,0.148-1.141,0.445
			S235.518,163.494,235.484,163.991z"/>
		<path fill="#1F1A17" d="M241.387,167.389v-5.7h0.887v0.864c0.227-0.404,0.436-0.671,0.627-0.8s0.402-0.192,0.633-0.192
			c0.332,0,0.668,0.104,1.012,0.311l-0.34,0.896c-0.24-0.14-0.48-0.209-0.723-0.209c-0.215,0-0.408,0.063-0.58,0.19
			c-0.17,0.127-0.293,0.303-0.365,0.528c-0.109,0.344-0.164,0.72-0.164,1.127v2.984H241.387z"/>
	</g>
	<g>
		<path fill="#1F1A17" d="M45.866,45.279v-7.868h1.598l1.898,5.571c0.175,0.519,0.303,0.907,0.383,1.165
			c0.091-0.286,0.233-0.707,0.427-1.261l1.92-5.475h1.428v7.868h-1.023v-6.585l-2.331,6.585h-0.958l-2.32-6.698v6.698H45.866z"/>
		<path fill="#1F1A17" d="M54.867,38.522v-1.111h0.985v1.111H54.867z M54.867,45.279v-5.7h0.985v5.7H54.867z"/>
		<path fill="#1F1A17" d="M56.213,45.279l2.123-2.962l-1.964-2.737h1.231l0.892,1.336c0.168,0.254,0.303,0.467,0.405,0.639
			c0.161-0.236,0.309-0.446,0.443-0.628l0.979-1.347h1.176l-2.008,2.684l2.161,3.016h-1.209l-1.193-1.771l-0.317-0.478l-1.527,2.249
			H56.213z"/>
		<path fill="#1F1A17" d="M65.397,43.444l1.018,0.124c-0.161,0.583-0.458,1.036-0.892,1.358c-0.434,0.322-0.989,0.483-1.664,0.483
			c-0.85,0-1.524-0.257-2.022-0.771c-0.498-0.513-0.747-1.233-0.747-2.16c0-0.958,0.252-1.703,0.755-2.232
			c0.503-0.53,1.156-0.794,1.959-0.794c0.777,0,1.412,0.259,1.904,0.778c0.492,0.519,0.739,1.249,0.739,2.189
			c0,0.058-0.002,0.144-0.006,0.258h-4.333c0.036,0.626,0.217,1.105,0.542,1.438c0.325,0.333,0.729,0.499,1.215,0.499
			c0.361,0,0.669-0.093,0.925-0.279C65.045,44.149,65.248,43.852,65.397,43.444z M62.164,41.882h3.245
			c-0.043-0.479-0.167-0.839-0.372-1.079c-0.313-0.372-0.72-0.558-1.22-0.558c-0.452,0-0.833,0.148-1.141,0.445
			C62.367,40.987,62.196,41.385,62.164,41.882z"/>
		<path fill="#1F1A17" d="M68.066,45.279v-5.7h0.887v0.864c0.226-0.404,0.435-0.671,0.626-0.8s0.402-0.193,0.632-0.193
			c0.332,0,0.669,0.104,1.013,0.312l-0.339,0.896c-0.241-0.14-0.481-0.209-0.722-0.209c-0.215,0-0.409,0.063-0.58,0.19
			c-0.172,0.127-0.294,0.303-0.367,0.528c-0.109,0.344-0.164,0.719-0.164,1.127v2.984H68.066z"/>
	</g>
	<g>
		<path fill="#1F1A17" d="M107.155,102.009l1.158,0.287c-0.243,0.934-0.679,1.646-1.31,2.137c-0.631,0.49-1.401,0.735-2.312,0.735
			c-0.943,0-1.709-0.188-2.3-0.565c-0.591-0.377-1.041-0.923-1.349-1.639c-0.308-0.715-0.462-1.482-0.462-2.303
			c0-0.896,0.174-1.676,0.522-2.342c0.348-0.666,0.843-1.173,1.486-1.519c0.642-0.346,1.349-0.519,2.121-0.519
			c0.875,0,1.611,0.219,2.207,0.656c0.597,0.438,1.012,1.054,1.247,1.847l-1.14,0.264c-0.203-0.625-0.497-1.08-0.883-1.365
			s-0.871-0.428-1.456-0.428c-0.672,0-1.234,0.158-1.686,0.475c-0.452,0.316-0.769,0.741-0.952,1.274s-0.274,1.083-0.274,1.65
			c0,0.73,0.108,1.368,0.325,1.913s0.554,0.953,1.011,1.223s0.953,0.404,1.485,0.404c0.648,0,1.197-0.184,1.647-0.551
			C106.692,103.277,106.996,102.731,107.155,102.009z"/>
		<path fill="#1F1A17" d="M109.57,100.837c0-1.427,0.39-2.543,1.169-3.35c0.78-0.808,1.786-1.211,3.019-1.211
			c0.808,0,1.535,0.189,2.184,0.568c0.648,0.38,1.143,0.908,1.482,1.586c0.34,0.678,0.51,1.446,0.51,2.307
			c0,0.871-0.179,1.65-0.537,2.338c-0.358,0.688-0.865,1.209-1.521,1.563s-1.364,0.53-2.124,0.53c-0.823,0-1.559-0.195-2.208-0.586
			s-1.14-0.924-1.474-1.601C109.737,102.306,109.57,101.591,109.57,100.837z M110.763,100.854c0,1.035,0.284,1.851,0.85,2.446
			c0.567,0.597,1.278,0.895,2.133,0.895c0.871,0,1.588-0.301,2.15-0.903c0.563-0.602,0.844-1.455,0.844-2.561
			c0-0.7-0.12-1.311-0.361-1.832s-0.593-0.926-1.056-1.213s-0.983-0.431-1.56-0.431c-0.819,0-1.524,0.276-2.115,0.829
			C111.059,98.638,110.763,99.561,110.763,100.854z"/>
		<path fill="#1F1A17" d="M119.377,105.021v-8.593h1.188l4.594,6.746v-6.746h1.11v8.593h-1.188l-4.594-6.752v6.752H119.377z"/>
		<path fill="#1F1A17" d="M127.395,105.021v-8.593h3.013c0.68,0,1.199,0.041,1.557,0.123c0.501,0.113,0.929,0.318,1.283,0.615
			c0.461,0.384,0.806,0.873,1.035,1.469c0.229,0.596,0.343,1.276,0.343,2.043c0,0.652-0.077,1.23-0.232,1.734
			s-0.354,0.921-0.597,1.252c-0.243,0.33-0.508,0.59-0.796,0.779c-0.289,0.189-0.636,0.333-1.044,0.431s-0.876,0.146-1.405,0.146
			H127.395z M128.552,104.008h1.867c0.577,0,1.029-0.053,1.357-0.158s0.59-0.254,0.785-0.446c0.274-0.27,0.488-0.632,0.641-1.087
			c0.153-0.455,0.23-1.007,0.23-1.655c0-0.899-0.15-1.59-0.451-2.072s-0.665-0.806-1.095-0.97c-0.31-0.117-0.81-0.176-1.498-0.176
			h-1.837V104.008z"/>
		<path fill="#1F1A17" d="M135.399,105.021v-8.593h6.324v1.015h-5.167v2.631h4.838v1.009h-4.838v2.925h5.37v1.014H135.399z"/>
		<path fill="#1F1A17" d="M141.399,105.021v-8.593h1.188l4.594,6.746v-6.746h1.11v8.593h-1.188l-4.594-6.752v6.752H141.399z"/>
		<path fill="#1F1A17" d="M149.022,102.261l1.092-0.094c0.052,0.43,0.172,0.782,0.361,1.058c0.189,0.276,0.482,0.499,0.88,0.669
			c0.397,0.17,0.845,0.255,1.342,0.255c0.441,0,0.831-0.064,1.169-0.193c0.338-0.129,0.589-0.306,0.754-0.531
			c0.165-0.225,0.248-0.47,0.248-0.735c0-0.27-0.08-0.505-0.238-0.706c-0.159-0.201-0.422-0.37-0.788-0.507
			c-0.235-0.09-0.754-0.229-1.557-0.419c-0.804-0.189-1.366-0.368-1.688-0.536c-0.417-0.215-0.729-0.482-0.934-0.801
			c-0.205-0.318-0.308-0.675-0.308-1.069c0-0.434,0.125-0.839,0.376-1.216c0.25-0.378,0.617-0.664,1.098-0.859
			c0.481-0.195,1.017-0.293,1.605-0.293c0.648,0,1.22,0.103,1.715,0.308s0.876,0.507,1.143,0.906c0.266,0.398,0.41,0.85,0.43,1.354
			l-1.11,0.082c-0.06-0.543-0.262-0.953-0.605-1.23c-0.344-0.277-0.853-0.416-1.524-0.416c-0.7,0-1.21,0.126-1.53,0.378
			c-0.32,0.252-0.48,0.556-0.48,0.911c0,0.309,0.113,0.563,0.34,0.762c0.223,0.199,0.804,0.403,1.745,0.612
			c0.94,0.209,1.586,0.393,1.936,0.549c0.509,0.23,0.885,0.522,1.127,0.876s0.364,0.761,0.364,1.222
			c0,0.457-0.133,0.889-0.399,1.293c-0.267,0.404-0.649,0.719-1.149,0.943c-0.499,0.225-1.061,0.337-1.685,0.337
			c-0.792,0-1.455-0.113-1.99-0.34c-0.535-0.227-0.955-0.567-1.259-1.022S149.039,102.835,149.022,102.261z"/>
		<path fill="#1F1A17" d="M155.024,105.021v-8.593h6.324v1.015h-5.167v2.631h4.838v1.009h-4.838v2.925h5.37v1.014H155.024z"/>
		<path fill="#1F1A17" d="M161.054,105.021v-8.593h3.878c0.78,0,1.373,0.077,1.778,0.231c0.406,0.154,0.73,0.428,0.973,0.818
			s0.364,0.822,0.364,1.295c0,0.609-0.201,1.123-0.603,1.541c-0.402,0.419-1.022,0.685-1.861,0.798
			c0.306,0.145,0.539,0.287,0.698,0.428c0.338,0.305,0.658,0.686,0.96,1.143l1.521,2.339h-1.456l-1.157-1.788
			c-0.338-0.516-0.617-0.91-0.835-1.184s-0.415-0.465-0.587-0.574c-0.173-0.109-0.349-0.186-0.528-0.229
			c-0.131-0.027-0.346-0.041-0.644-0.041h-1.342v3.815H161.054z M162.211,100.221h2.488c0.529,0,0.942-0.053,1.241-0.161
			c0.298-0.107,0.525-0.279,0.68-0.516s0.233-0.493,0.233-0.771c0-0.406-0.15-0.74-0.451-1.002s-0.774-0.393-1.423-0.393h-2.768
			V100.221z"/>
		<path fill="#1F1A17" d="M171.044,105.021v-8.593h1.157v7.579h4.308v1.014H171.044z"/>
		<path fill="#1F1A17" d="M175.263,100.837c0-1.427,0.39-2.543,1.169-3.35c0.78-0.808,1.786-1.211,3.019-1.211
			c0.808,0,1.535,0.189,2.184,0.568c0.648,0.38,1.143,0.908,1.482,1.586c0.34,0.678,0.51,1.446,0.51,2.307
			c0,0.871-0.179,1.65-0.537,2.338c-0.358,0.688-0.865,1.209-1.521,1.563s-1.364,0.53-2.124,0.53c-0.823,0-1.559-0.195-2.208-0.586
			s-1.14-0.924-1.474-1.601C175.43,102.306,175.263,101.591,175.263,100.837z M176.456,100.854c0,1.035,0.284,1.851,0.85,2.446
			c0.567,0.597,1.278,0.895,2.133,0.895c0.871,0,1.588-0.301,2.15-0.903c0.563-0.602,0.844-1.455,0.844-2.561
			c0-0.7-0.12-1.311-0.361-1.832s-0.593-0.926-1.056-1.213s-0.983-0.431-1.56-0.431c-0.819,0-1.524,0.276-2.115,0.829
			C176.751,98.638,176.456,99.561,176.456,100.854z"/>
		<path fill="#1F1A17" d="M184.73,100.837c0-1.427,0.39-2.543,1.169-3.35c0.78-0.808,1.786-1.211,3.019-1.211
			c0.807,0,1.536,0.189,2.184,0.568c0.648,0.38,1.143,0.908,1.482,1.586s0.51,1.446,0.51,2.307c0,0.871-0.178,1.65-0.537,2.338
			c-0.357,0.688-0.865,1.209-1.521,1.563s-1.363,0.53-2.124,0.53c-0.823,0-1.559-0.195-2.207-0.586s-1.14-0.924-1.474-1.601
			C184.897,102.306,184.73,101.591,184.73,100.837z M185.923,100.854c0,1.035,0.284,1.851,0.85,2.446
			c0.567,0.597,1.278,0.895,2.133,0.895c0.872,0,1.588-0.301,2.151-0.903c0.563-0.602,0.844-1.455,0.844-2.561
			c0-0.7-0.119-1.311-0.359-1.832c-0.242-0.521-0.594-0.926-1.057-1.213s-0.984-0.431-1.561-0.431c-0.819,0-1.524,0.276-2.114,0.829
			C186.218,98.638,185.923,99.561,185.923,100.854z"/>
		<path fill="#1F1A17" d="M194.525,105.021v-8.593h3.299c0.58,0,1.023,0.027,1.33,0.082c0.43,0.07,0.791,0.204,1.08,0.401
			c0.291,0.198,0.523,0.475,0.701,0.83s0.266,0.746,0.266,1.172c0,0.73-0.236,1.35-0.709,1.855c-0.475,0.506-1.33,0.759-2.566,0.759
			h-2.244v3.493H194.525z M195.682,100.515h2.262c0.748,0,1.279-0.137,1.594-0.411c0.314-0.273,0.471-0.658,0.471-1.154
			c0-0.359-0.092-0.667-0.277-0.923s-0.428-0.425-0.73-0.507c-0.195-0.051-0.555-0.076-1.08-0.076h-2.238V100.515z"/>
	</g>
</g>
</svg>
