<?xml version="1.0" encoding="utf-8"?>
<!-- Generator: Adobe Illustrator 16.0.0, SVG Export Plug-In . SVG Version: 6.00 Build 0)  -->
<!DOCTYPE svg PUBLIC "-//W3C//DTD SVG 1.1//EN" "http://www.w3.org/Graphics/SVG/1.1/DTD/svg11.dtd">
<svg version="1.1" id="Layer_1" xmlns="http://www.w3.org/2000/svg" xmlns:xlink="http://www.w3.org/1999/xlink" x="0px" y="0px"
	 width="346.559px" height="428.243px" viewBox="0 0 346.559 428.243" enable-background="new 0 0 346.559 428.243"
	 xml:space="preserve">
<g>
	<defs>
		<rect id="SVGID_1_" width="346.559" height="428.243"/>
	</defs>
	<clipPath id="SVGID_2_">
		<use xlink:href="#SVGID_1_"  overflow="visible"/>
	</clipPath>
	<polygon clip-path="url(#SVGID_2_)" fill-rule="evenodd" clip-rule="evenodd" fill="#C0C0C0" points="156.335,133.883 
		161.577,137.627 161.577,172.116 277.043,238.129 277.043,247.882 156.335,177.387 	"/>
	
		<polygon clip-path="url(#SVGID_2_)" fill="none" stroke="#000000" stroke-width="0.7484" stroke-linejoin="round" stroke-miterlimit="10" points="
		156.335,133.883 161.577,137.627 161.577,172.116 277.043,238.129 277.043,247.882 156.335,177.387 	"/>
	<polygon clip-path="url(#SVGID_2_)" fill-rule="evenodd" clip-rule="evenodd" fill="#C0C0C0" points="91.842,96.38 141.347,74.618 
		309.285,160.886 255.316,190.134 	"/>
	
		<polygon clip-path="url(#SVGID_2_)" fill="none" stroke="#000000" stroke-width="0.7484" stroke-linejoin="round" stroke-miterlimit="10" points="
		91.842,96.38 141.347,74.618 309.285,160.886 255.316,190.134 	"/>
	<rect x="85.479" y="2.995" clip-path="url(#SVGID_2_)" width="2.994" height="168.752"/>
	<polygon clip-path="url(#SVGID_2_)" points="87.725,170.998 86.227,173.244 342.665,326.254 344.163,324.007 	"/>
	<rect x="341.916" y="134.263" clip-path="url(#SVGID_2_)" width="2.994" height="189.745"/>
	<polygon clip-path="url(#SVGID_2_)" points="155.965,135.011 154.468,135.011 155.216,177.007 156.714,177.007 	"/>
	<polygon clip-path="url(#SVGID_2_)" points="155.965,176.258 155.216,177.756 276.674,247.513 277.422,246.015 	"/>
	<rect x="275.925" y="177.761" clip-path="url(#SVGID_2_)" width="1.497" height="69.003"/>
	<polygon clip-path="url(#SVGID_2_)" points="342.665,135.76 344.163,132.766 89.222,1.497 87.725,4.492 	"/>
	
		<line clip-path="url(#SVGID_2_)" fill="none" stroke="#000000" stroke-width="0.7484" stroke-linejoin="round" stroke-miterlimit="10" x1="260.558" y1="193.129" x2="280.039" y2="204.389"/>
	
		<line clip-path="url(#SVGID_2_)" fill="none" stroke="#000000" stroke-width="0.7484" stroke-linejoin="round" stroke-miterlimit="10" x1="314.547" y1="163.88" x2="331.042" y2="172.116"/>
	
		<line clip-path="url(#SVGID_2_)" fill="none" stroke="#000000" stroke-width="0.7484" stroke-linejoin="round" stroke-miterlimit="10" x1="268.816" y1="203.64" x2="328.046" y2="167.624"/>
	
		<line clip-path="url(#SVGID_2_)" fill="none" stroke="#000000" stroke-width="0.7484" stroke-linejoin="round" stroke-miterlimit="10" x1="148.077" y1="70.126" x2="162.326" y2="63.388"/>
	
		<line clip-path="url(#SVGID_2_)" fill="none" stroke="#000000" stroke-width="0.7484" stroke-linejoin="round" stroke-miterlimit="10" x1="317.542" y1="157.871" x2="331.791" y2="152.63"/>
	
		<line clip-path="url(#SVGID_2_)" fill="none" stroke="#000000" stroke-width="0.7484" stroke-linejoin="round" stroke-miterlimit="10" x1="331.791" y1="157.871" x2="151.852" y2="63.388"/>
	<polygon clip-path="url(#SVGID_2_)" points="140.219,75.736 139.47,74.239 89.971,95.251 90.718,96.749 	"/>
	<polygon clip-path="url(#SVGID_2_)" points="90.718,95.251 89.971,96.749 255.685,190.513 256.434,189.016 	"/>
	<polygon clip-path="url(#SVGID_2_)" points="255.685,189.016 256.434,190.513 309.684,161.265 308.906,159.768 	"/>
	
		<line clip-path="url(#SVGID_2_)" fill="none" stroke="#000000" stroke-width="0.7484" stroke-linejoin="round" stroke-miterlimit="10" x1="162.326" y1="136.129" x2="162.326" y2="172.116"/>
	
		<line clip-path="url(#SVGID_2_)" fill="none" stroke="#000000" stroke-width="0.7484" stroke-linejoin="round" stroke-miterlimit="10" x1="162.326" y1="172.116" x2="276.294" y2="239.626"/>
	
		<line clip-path="url(#SVGID_2_)" fill="none" stroke="#000000" stroke-width="0.7484" stroke-linejoin="round" stroke-miterlimit="10" x1="155.586" y1="177.387" x2="162.326" y2="172.116"/>
	
		<line clip-path="url(#SVGID_2_)" fill="none" stroke="#000000" stroke-width="0.7484" stroke-linejoin="round" stroke-miterlimit="10" x1="181.836" y1="154.127" x2="170.583" y2="157.122"/>
	
		<line clip-path="url(#SVGID_2_)" fill="none" stroke="#000000" stroke-width="0.7484" stroke-linejoin="round" stroke-miterlimit="10" x1="186.33" y1="156.374" x2="169.834" y2="160.886"/>
	
		<line clip-path="url(#SVGID_2_)" fill="none" stroke="#000000" stroke-width="0.7484" stroke-linejoin="round" stroke-miterlimit="10" x1="190.823" y1="159.368" x2="169.085" y2="165.378"/>
	<polygon clip-path="url(#SVGID_2_)" points="155.965,62.26 154.468,62.26 155.216,69.747 156.714,69.747 	"/>
	<rect x="323.903" y="152.251" clip-path="url(#SVGID_2_)" width="1.521" height="5.241"/>
	<rect x="272.18" y="196.498" clip-path="url(#SVGID_2_)" width="1.497" height="7.512"/>
	<rect x="321.656" y="167.254" clip-path="url(#SVGID_2_)" width="1.497" height="4.492"/>
	
		<line clip-path="url(#SVGID_2_)" fill="none" stroke="#000000" stroke-width="0.7484" stroke-linejoin="round" stroke-miterlimit="10" x1="196.834" y1="162.383" x2="169.085" y2="170.618"/>
	
		<line clip-path="url(#SVGID_2_)" fill="none" stroke="#000000" stroke-width="0.7484" stroke-linejoin="round" stroke-miterlimit="10" x1="178.821" y1="151.133" x2="170.583" y2="153.379"/>
	
		<line clip-path="url(#SVGID_2_)" fill="none" stroke="#000000" stroke-width="0.7484" stroke-linejoin="round" stroke-miterlimit="10" x1="202.825" y1="165.378" x2="168.337" y2="174.392"/>
	
		<line clip-path="url(#SVGID_2_)" fill="none" stroke="#000000" stroke-width="0.7484" stroke-linejoin="round" stroke-miterlimit="10" x1="202.076" y1="169.121" x2="173.579" y2="177.387"/>
	
		<line clip-path="url(#SVGID_2_)" fill="none" stroke="#000000" stroke-width="0.7484" stroke-linejoin="round" stroke-miterlimit="10" x1="204.313" y1="173.613" x2="178.821" y2="178.884"/>
	
		<line clip-path="url(#SVGID_2_)" fill="none" stroke="#000000" stroke-width="0.7484" stroke-linejoin="round" stroke-miterlimit="10" x1="202.076" y1="177.387" x2="184.832" y2="181.878"/>
	
		<line clip-path="url(#SVGID_2_)" fill="none" stroke="#000000" stroke-width="0.7484" stroke-linejoin="round" stroke-miterlimit="10" x1="202.825" y1="181.13" x2="190.823" y2="184.125"/>
	
		<line clip-path="url(#SVGID_2_)" fill="none" stroke="#000000" stroke-width="0.7484" stroke-linejoin="round" stroke-miterlimit="10" x1="202.825" y1="185.622" x2="195.336" y2="187.119"/>
	<g clip-path="url(#SVGID_2_)">
		<path d="M236.568,100.491h-1.887l-0.75-1.951h-3.434l-0.709,1.951h-1.84l3.346-8.588h1.834L236.568,100.491z M233.374,97.093
			l-1.184-3.187l-1.161,3.187H233.374z"/>
	</g>
	<g clip-path="url(#SVGID_2_)">
	</g>
	
		<polyline clip-path="url(#SVGID_2_)" fill="none" stroke="#000000" stroke-width="0.7484" stroke-linejoin="round" stroke-miterlimit="10" points="
		141.347,73.121 142.835,64.885 145.831,56.62 151.073,49.133 158.582,43.124 166.839,37.883 177.323,34.109 187.828,31.115 
		199.83,30.366 	"/>
	
		<line clip-path="url(#SVGID_2_)" fill="none" stroke="#000000" stroke-width="0.7484" stroke-linejoin="round" stroke-miterlimit="10" x1="137.603" y1="73.121" x2="132.331" y2="69.377"/>
	
		<line clip-path="url(#SVGID_2_)" fill="none" stroke="#000000" stroke-width="0.7484" stroke-linejoin="round" stroke-miterlimit="10" x1="137.603" y1="73.121" x2="142.835" y2="69.377"/>
	
		<line clip-path="url(#SVGID_2_)" fill="none" stroke="#000000" stroke-width="0.7484" stroke-linejoin="round" stroke-miterlimit="10" x1="139.101" y1="127.874" x2="139.101" y2="162.383"/>
	
		<line clip-path="url(#SVGID_2_)" fill="none" stroke="#000000" stroke-width="0.7484" stroke-linejoin="round" stroke-miterlimit="10" x1="80.614" y1="121.885" x2="145.082" y2="157.871"/>
	
		<line clip-path="url(#SVGID_2_)" fill="none" stroke="#000000" stroke-width="0.7484" stroke-linejoin="round" stroke-miterlimit="10" x1="129.345" y1="67.131" x2="62.6" y2="33.361"/>
	
		<line clip-path="url(#SVGID_2_)" fill="none" stroke="#000000" stroke-width="0.7484" stroke-linejoin="round" stroke-miterlimit="10" x1="79.866" y1="168.373" x2="61.103" y2="157.122"/>
	
		<line clip-path="url(#SVGID_2_)" fill="none" stroke="#000000" stroke-width="0.7484" stroke-linejoin="round" stroke-miterlimit="10" x1="67.116" y1="29.618" x2="67.116" y2="168.373"/>
	<polygon clip-path="url(#SVGID_2_)" points="143.214,154.497 142.466,153 134.208,156.743 134.957,158.24 	"/>
	<polygon clip-path="url(#SVGID_2_)" points="71.233,159.768 70.484,158.24 62.226,162.014 62.974,163.511 	"/>
	<polygon clip-path="url(#SVGID_2_)" points="71.233,33.74 70.484,32.243 62.226,36.006 62.974,37.504 	"/>
	<polygon clip-path="url(#SVGID_2_)" points="91.467,123.751 90.718,122.254 83.234,126.746 83.982,128.243 	"/>
	
		<line clip-path="url(#SVGID_2_)" fill="none" stroke="#000000" stroke-width="0.7484" stroke-linejoin="round" stroke-miterlimit="10" x1="139.101" y1="77.633" x2="139.101" y2="123.382"/>
	
		<line clip-path="url(#SVGID_2_)" fill="none" stroke="#000000" stroke-width="0.7484" stroke-linejoin="round" stroke-miterlimit="10" x1="139.101" y1="77.633" x2="139.101" y2="80.627"/>
	
		<line clip-path="url(#SVGID_2_)" fill="none" stroke="#000000" stroke-width="0.7484" stroke-linejoin="round" stroke-miterlimit="10" x1="139.101" y1="85.868" x2="139.101" y2="88.863"/>
	
		<line clip-path="url(#SVGID_2_)" fill="none" stroke="#000000" stroke-width="0.7484" stroke-linejoin="round" stroke-miterlimit="10" x1="139.101" y1="95.631" x2="139.101" y2="98.625"/>
	
		<line clip-path="url(#SVGID_2_)" fill="none" stroke="#000000" stroke-width="0.7484" stroke-linejoin="round" stroke-miterlimit="10" x1="139.101" y1="103.866" x2="139.101" y2="106.881"/>
	
		<line clip-path="url(#SVGID_2_)" fill="none" stroke="#000000" stroke-width="0.7484" stroke-linejoin="round" stroke-miterlimit="10" x1="139.101" y1="113.619" x2="139.101" y2="116.614"/>
	<g clip-path="url(#SVGID_2_)">
	</g>
	<g clip-path="url(#SVGID_2_)">
	</g>
	
		<polyline clip-path="url(#SVGID_2_)" fill="none" stroke="#000000" stroke-width="0.7484" stroke-linejoin="round" stroke-miterlimit="10" points="
		85.105,267.377 79.866,265.88 74.601,263.634 70.109,259.142 66.367,253.871 62.6,247.133 60.354,238.878 58.857,230.643 
		58.108,221.628 58.857,212.624 60.354,203.64 62.6,196.124 66.367,189.385 70.109,183.376 74.601,178.884 79.866,176.638 
		85.105,175.141 	"/>
	
		<line clip-path="url(#SVGID_2_)" fill="none" stroke="#000000" stroke-width="0.7484" stroke-linejoin="round" stroke-miterlimit="10" x1="83.608" y1="172.116" x2="80.614" y2="170.618"/>
	
		<line clip-path="url(#SVGID_2_)" fill="none" stroke="#000000" stroke-width="0.7484" stroke-linejoin="round" stroke-miterlimit="10" x1="83.608" y1="172.116" x2="82.859" y2="177.387"/>
	
		<line clip-path="url(#SVGID_2_)" fill="none" stroke="#000000" stroke-width="0.7484" stroke-linejoin="round" stroke-miterlimit="10" x1="155.586" y1="133.135" x2="156.335" y2="175.889"/>
	
		<line clip-path="url(#SVGID_2_)" fill="none" stroke="#000000" stroke-width="0.7484" stroke-linejoin="round" stroke-miterlimit="10" x1="155.586" y1="175.889" x2="160.828" y2="172.116"/>
	
		<line clip-path="url(#SVGID_2_)" fill="none" stroke="#000000" stroke-width="0.7484" stroke-linejoin="round" stroke-miterlimit="10" x1="160.828" y1="172.116" x2="160.828" y2="135.381"/>
	
		<line clip-path="url(#SVGID_2_)" fill="none" stroke="#000000" stroke-width="0.7484" stroke-linejoin="round" stroke-miterlimit="10" x1="160.828" y1="135.381" x2="157.833" y2="134.632"/>
	
		<line clip-path="url(#SVGID_2_)" fill="none" stroke="#000000" stroke-width="0.7484" stroke-linejoin="round" stroke-miterlimit="10" x1="157.833" y1="134.632" x2="155.586" y2="133.135"/>
	
		<line clip-path="url(#SVGID_2_)" fill="none" stroke="#000000" stroke-width="0.7484" stroke-linejoin="round" stroke-miterlimit="10" x1="155.586" y1="175.889" x2="277.043" y2="246.385"/>
	
		<line clip-path="url(#SVGID_2_)" fill="none" stroke="#000000" stroke-width="0.7484" stroke-linejoin="round" stroke-miterlimit="10" x1="277.043" y1="246.385" x2="277.043" y2="238.129"/>
	
		<line clip-path="url(#SVGID_2_)" fill="none" stroke="#000000" stroke-width="0.7484" stroke-linejoin="round" stroke-miterlimit="10" x1="277.043" y1="238.129" x2="162.326" y2="171.367"/>
	
		<line clip-path="url(#SVGID_2_)" fill="none" stroke="#000000" stroke-width="0.7484" stroke-linejoin="round" stroke-miterlimit="10" x1="162.326" y1="171.367" x2="159.331" y2="174.392"/>
	
		<line clip-path="url(#SVGID_2_)" fill="none" stroke="#000000" stroke-width="0.7484" stroke-linejoin="round" stroke-miterlimit="10" x1="159.331" y1="174.392" x2="155.586" y2="175.889"/>
	<polygon clip-path="url(#SVGID_2_)" points="140.968,73.49 140.219,75.736 308.906,162.014 309.684,159.768 	"/>
	<g clip-path="url(#SVGID_2_)">
		<path d="M86.961,282.853v0.217c-0.59-0.297-1.083-0.645-1.477-1.043c-0.563-0.566-0.996-1.234-1.301-2.003
			c-0.305-0.769-0.457-1.568-0.457-2.396c0-1.21,0.299-2.315,0.896-3.313c0.598-0.998,1.377-1.711,2.338-2.141v0.246
			c-0.48,0.266-0.875,0.629-1.184,1.09s-0.539,1.044-0.691,1.751s-0.229,1.445-0.229,2.214c0,0.836,0.064,1.596,0.193,2.279
			c0.102,0.539,0.225,0.972,0.369,1.298s0.339,0.639,0.583,0.94S86.566,282.58,86.961,282.853z"/>
		<path d="M87.412,276.579c0-0.906,0.137-1.686,0.41-2.34c0.273-0.654,0.637-1.141,1.09-1.461c0.352-0.254,0.715-0.381,1.09-0.381
			c0.61,0,1.157,0.311,1.641,0.932c0.605,0.77,0.908,1.812,0.908,3.128c0,0.921-0.133,1.705-0.398,2.349
			c-0.266,0.644-0.604,1.112-1.017,1.403c-0.413,0.291-0.81,0.437-1.193,0.437c-0.758,0-1.389-0.447-1.893-1.342
			C87.625,278.549,87.412,277.641,87.412,276.579z M88.561,276.725c0,1.094,0.135,1.986,0.404,2.677
			c0.223,0.582,0.555,0.873,0.996,0.873c0.211,0,0.43-0.095,0.657-0.284c0.227-0.189,0.398-0.507,0.516-0.952
			c0.18-0.672,0.27-1.619,0.27-2.841c0-0.906-0.094-1.662-0.281-2.268c-0.141-0.449-0.322-0.767-0.545-0.955
			c-0.161-0.129-0.354-0.193-0.581-0.193c-0.266,0-0.502,0.119-0.709,0.357c-0.281,0.324-0.473,0.834-0.574,1.529
			C88.611,275.364,88.561,276.05,88.561,276.725z"/>
		<path d="M93.624,282.501v-0.258c0.402-0.133,0.714-0.339,0.935-0.618c0.221-0.279,0.331-0.575,0.331-0.888
			c0-0.074-0.018-0.137-0.053-0.188c-0.027-0.035-0.055-0.053-0.082-0.053c-0.043,0-0.137,0.039-0.281,0.117
			c-0.07,0.035-0.145,0.053-0.223,0.053c-0.191,0-0.344-0.057-0.457-0.17s-0.17-0.27-0.17-0.469c0-0.191,0.073-0.355,0.22-0.492
			s0.325-0.205,0.536-0.205c0.258,0,0.487,0.112,0.688,0.337s0.302,0.522,0.302,0.894c0,0.402-0.14,0.776-0.419,1.122
			C94.671,282.03,94.229,282.302,93.624,282.501z"/>
		<path d="M96.413,276.579c0-0.906,0.137-1.686,0.41-2.34c0.273-0.654,0.637-1.141,1.09-1.461c0.352-0.254,0.715-0.381,1.09-0.381
			c0.61,0,1.157,0.311,1.641,0.932c0.605,0.77,0.908,1.812,0.908,3.128c0,0.921-0.133,1.705-0.398,2.349
			c-0.266,0.644-0.604,1.112-1.017,1.403c-0.413,0.291-0.81,0.437-1.193,0.437c-0.758,0-1.389-0.447-1.893-1.342
			C96.626,278.549,96.413,277.641,96.413,276.579z M97.562,276.725c0,1.094,0.135,1.986,0.404,2.677
			c0.223,0.582,0.555,0.873,0.996,0.873c0.211,0,0.43-0.095,0.657-0.284c0.227-0.189,0.398-0.507,0.516-0.952
			c0.18-0.672,0.27-1.619,0.27-2.841c0-0.906-0.094-1.662-0.281-2.268c-0.141-0.449-0.322-0.767-0.545-0.955
			c-0.161-0.129-0.354-0.193-0.581-0.193c-0.266,0-0.502,0.119-0.709,0.357c-0.281,0.324-0.473,0.834-0.574,1.529
			C97.612,275.364,97.562,276.05,97.562,276.725z"/>
		<path d="M102.625,282.501v-0.258c0.402-0.133,0.714-0.339,0.935-0.618c0.221-0.279,0.331-0.575,0.331-0.888
			c0-0.074-0.018-0.137-0.053-0.188c-0.027-0.035-0.055-0.053-0.082-0.053c-0.043,0-0.137,0.039-0.281,0.117
			c-0.07,0.035-0.145,0.053-0.223,0.053c-0.191,0-0.344-0.057-0.457-0.17s-0.17-0.27-0.17-0.469c0-0.191,0.073-0.355,0.22-0.492
			s0.325-0.205,0.536-0.205c0.258,0,0.487,0.112,0.688,0.337s0.302,0.522,0.302,0.894c0,0.402-0.14,0.776-0.419,1.122
			C103.672,282.03,103.23,282.302,102.625,282.501z"/>
		<path d="M105.378,276.579c0-0.906,0.137-1.686,0.41-2.34c0.273-0.654,0.637-1.141,1.09-1.461c0.352-0.254,0.715-0.381,1.09-0.381
			c0.61,0,1.157,0.311,1.641,0.932c0.605,0.77,0.908,1.812,0.908,3.128c0,0.921-0.133,1.705-0.398,2.349
			c-0.266,0.644-0.604,1.112-1.017,1.403c-0.413,0.291-0.81,0.437-1.193,0.437c-0.758,0-1.389-0.447-1.893-1.342
			C105.591,278.549,105.378,277.641,105.378,276.579z M106.526,276.725c0,1.094,0.135,1.986,0.404,2.677
			c0.223,0.582,0.555,0.873,0.996,0.873c0.211,0,0.43-0.095,0.657-0.284c0.227-0.189,0.398-0.507,0.516-0.952
			c0.18-0.672,0.27-1.619,0.27-2.841c0-0.906-0.094-1.662-0.281-2.268c-0.141-0.449-0.322-0.767-0.545-0.955
			c-0.161-0.129-0.354-0.193-0.581-0.193c-0.266,0-0.502,0.119-0.709,0.357c-0.281,0.324-0.473,0.834-0.574,1.529
			C106.577,275.364,106.526,276.05,106.526,276.725z"/>
		<path d="M111.214,272.419v-0.246c0.594,0.293,1.088,0.639,1.482,1.037c0.559,0.57,0.99,1.239,1.295,2.006
			c0.305,0.768,0.458,1.567,0.458,2.399c0,1.211-0.298,2.315-0.894,3.313c-0.596,0.998-1.376,1.711-2.341,2.141v-0.217
			c0.48-0.27,0.876-0.634,1.187-1.092c0.311-0.459,0.541-1.043,0.691-1.752s0.226-1.448,0.226-2.217
			c0-0.832-0.064-1.591-0.193-2.279c-0.098-0.539-0.22-0.971-0.366-1.295c-0.146-0.324-0.341-0.636-0.583-0.937
			S111.613,272.693,111.214,272.419z"/>
	</g>
	<g clip-path="url(#SVGID_2_)">
	</g>
	<g clip-path="url(#SVGID_2_)">
		<path d="M207.372,13.788h0.853v3.724c0,0.648-0.073,1.162-0.22,1.543c-0.146,0.381-0.411,0.691-0.794,0.93
			c-0.382,0.239-0.885,0.358-1.506,0.358c-0.604,0-1.098-0.104-1.482-0.312c-0.384-0.208-0.658-0.509-0.822-0.904
			c-0.165-0.394-0.247-0.933-0.247-1.616v-3.724h0.854v3.72c0,0.56,0.052,0.973,0.156,1.238s0.283,0.47,0.537,0.613
			s0.563,0.215,0.93,0.215c0.627,0,1.075-0.142,1.341-0.426c0.267-0.284,0.4-0.831,0.4-1.64V13.788z"/>
		<path d="M209.761,22.023v-6.459h0.721v0.607c0.17-0.238,0.362-0.416,0.576-0.534c0.214-0.119,0.474-0.178,0.778-0.178
			c0.399,0,0.75,0.103,1.056,0.308c0.305,0.206,0.535,0.495,0.69,0.869c0.155,0.374,0.233,0.783,0.233,1.229
			c0,0.478-0.085,0.908-0.257,1.291c-0.172,0.383-0.421,0.676-0.748,0.879c-0.327,0.204-0.67,0.306-1.031,0.306
			c-0.264,0-0.5-0.056-0.71-0.167c-0.21-0.111-0.382-0.252-0.517-0.422v2.273H209.761z M210.478,17.925
			c0,0.601,0.122,1.045,0.365,1.332c0.243,0.287,0.538,0.431,0.884,0.431c0.352,0,0.653-0.148,0.904-0.446
			c0.25-0.297,0.376-0.758,0.376-1.383c0-0.595-0.123-1.041-0.367-1.336s-0.537-0.444-0.877-0.444c-0.337,0-0.635,0.157-0.895,0.473
			C210.607,16.866,210.478,17.324,210.478,17.925z"/>
		<path d="M214.986,22.023v-6.459h0.721v0.607c0.17-0.238,0.362-0.416,0.576-0.534c0.214-0.119,0.474-0.178,0.778-0.178
			c0.399,0,0.75,0.103,1.056,0.308c0.305,0.206,0.535,0.495,0.69,0.869c0.155,0.374,0.233,0.783,0.233,1.229
			c0,0.478-0.085,0.908-0.257,1.291c-0.172,0.383-0.421,0.676-0.748,0.879c-0.327,0.204-0.67,0.306-1.031,0.306
			c-0.264,0-0.5-0.056-0.71-0.167c-0.21-0.111-0.382-0.252-0.517-0.422v2.273H214.986z M215.703,17.925
			c0,0.601,0.122,1.045,0.365,1.332c0.243,0.287,0.538,0.431,0.884,0.431c0.352,0,0.653-0.148,0.904-0.446
			c0.25-0.297,0.376-0.758,0.376-1.383c0-0.595-0.123-1.041-0.367-1.336s-0.537-0.444-0.877-0.444c-0.337,0-0.635,0.157-0.895,0.473
			C215.833,16.866,215.703,17.324,215.703,17.925z"/>
		<path d="M222.679,18.729l0.818,0.102c-0.129,0.478-0.368,0.848-0.717,1.112c-0.349,0.264-0.794,0.396-1.337,0.396
			c-0.683,0-1.225-0.21-1.625-0.631s-0.6-1.011-0.6-1.77c0-0.786,0.202-1.396,0.607-1.829c0.404-0.434,0.929-0.651,1.574-0.651
			c0.625,0,1.135,0.212,1.53,0.638c0.396,0.425,0.594,1.023,0.594,1.794c0,0.047-0.001,0.117-0.004,0.211h-3.483
			c0.029,0.513,0.174,0.906,0.436,1.178c0.261,0.272,0.586,0.409,0.976,0.409c0.291,0,0.538-0.076,0.743-0.229
			C222.396,19.307,222.559,19.064,222.679,18.729z M220.08,17.45h2.608c-0.035-0.393-0.135-0.688-0.299-0.884
			c-0.252-0.305-0.579-0.457-0.981-0.457c-0.364,0-0.669,0.122-0.917,0.365S220.106,17.043,220.08,17.45z"/>
		<path d="M224.699,20.233v-4.669h0.712v0.708c0.182-0.332,0.35-0.55,0.503-0.655c0.154-0.105,0.323-0.158,0.508-0.158
			c0.267,0,0.538,0.085,0.813,0.255l-0.272,0.734c-0.194-0.114-0.387-0.171-0.581-0.171c-0.173,0-0.329,0.052-0.466,0.156
			c-0.138,0.104-0.236,0.249-0.295,0.433c-0.088,0.282-0.132,0.589-0.132,0.923v2.445H224.699z"/>
		<path d="M230.023,20.233v-6.446h0.853v5.685h3.175v0.761H230.023z"/>
		<path d="M238.38,18.729l0.818,0.102c-0.129,0.478-0.368,0.848-0.717,1.112c-0.35,0.264-0.795,0.396-1.337,0.396
			c-0.684,0-1.226-0.21-1.626-0.631c-0.399-0.42-0.6-1.011-0.6-1.77c0-0.786,0.202-1.396,0.606-1.829
			c0.405-0.434,0.93-0.651,1.575-0.651c0.624,0,1.134,0.212,1.53,0.638c0.396,0.425,0.594,1.023,0.594,1.794
			c0,0.047-0.002,0.117-0.005,0.211h-3.483c0.029,0.513,0.175,0.906,0.436,1.178s0.587,0.409,0.977,0.409
			c0.29,0,0.538-0.076,0.743-0.229S238.26,19.064,238.38,18.729z M235.781,17.45h2.608c-0.035-0.393-0.135-0.688-0.299-0.884
			c-0.252-0.305-0.579-0.457-0.98-0.457c-0.364,0-0.67,0.122-0.917,0.365C235.945,16.717,235.807,17.043,235.781,17.45z"/>
		<path d="M240.597,20.233V16.18h-0.699v-0.616h0.699v-0.497c0-0.313,0.027-0.546,0.083-0.699c0.076-0.205,0.211-0.372,0.402-0.499
			c0.192-0.127,0.461-0.191,0.808-0.191c0.223,0,0.469,0.026,0.738,0.079l-0.118,0.69c-0.165-0.029-0.32-0.044-0.467-0.044
			c-0.24,0-0.41,0.051-0.51,0.154s-0.149,0.294-0.149,0.576v0.431h0.91v0.616h-0.91v4.054H240.597z"/>
		<path d="M244.387,19.525l0.114,0.699c-0.223,0.047-0.422,0.07-0.599,0.07c-0.287,0-0.51-0.045-0.668-0.136s-0.27-0.21-0.334-0.358
			s-0.097-0.459-0.097-0.934V16.18h-0.581v-0.616h0.581v-1.156l0.787-0.475v1.631h0.796v0.616h-0.796v2.73
			c0,0.226,0.014,0.371,0.042,0.435c0.027,0.064,0.073,0.116,0.136,0.154c0.063,0.038,0.153,0.057,0.271,0.057
			C244.127,19.556,244.244,19.546,244.387,19.525z"/>
		<path d="M251.86,17.974l0.854,0.215c-0.179,0.701-0.501,1.235-0.966,1.603c-0.464,0.368-1.032,0.552-1.704,0.552
			c-0.694,0-1.26-0.141-1.695-0.424c-0.436-0.283-0.767-0.692-0.994-1.229c-0.227-0.536-0.341-1.112-0.341-1.728
			c0-0.671,0.129-1.257,0.385-1.757c0.257-0.5,0.622-0.879,1.096-1.139s0.994-0.389,1.563-0.389c0.645,0,1.188,0.164,1.627,0.493
			c0.439,0.328,0.746,0.79,0.919,1.385l-0.84,0.198c-0.149-0.469-0.366-0.811-0.65-1.024c-0.285-0.214-0.643-0.321-1.073-0.321
			c-0.496,0-0.91,0.119-1.242,0.356c-0.333,0.237-0.567,0.556-0.702,0.957c-0.135,0.4-0.202,0.813-0.202,1.238
			c0,0.548,0.08,1.026,0.24,1.436c0.159,0.409,0.408,0.714,0.745,0.917s0.702,0.303,1.095,0.303c0.479,0,0.883-0.138,1.214-0.413
			S251.743,18.516,251.86,17.974z"/>
		<path d="M253.584,17.899c0-0.865,0.24-1.505,0.722-1.922c0.401-0.346,0.891-0.519,1.469-0.519c0.643,0,1.167,0.21,1.574,0.631
			c0.408,0.421,0.611,1.002,0.611,1.743c0,0.601-0.09,1.074-0.271,1.418c-0.18,0.345-0.442,0.612-0.787,0.803
			s-0.721,0.286-1.128,0.286c-0.654,0-1.183-0.209-1.586-0.629C253.787,19.291,253.584,18.687,253.584,17.899z M254.398,17.899
			c0,0.598,0.131,1.045,0.392,1.343c0.261,0.298,0.59,0.446,0.985,0.446c0.393,0,0.72-0.149,0.98-0.448s0.392-0.755,0.392-1.368
			c0-0.577-0.131-1.015-0.394-1.312c-0.263-0.298-0.589-0.446-0.979-0.446c-0.396,0-0.725,0.148-0.985,0.444
			S254.398,17.301,254.398,17.899z"/>
		<path d="M259.096,20.233v-4.669h0.713v0.708c0.182-0.332,0.35-0.55,0.503-0.655c0.154-0.105,0.323-0.158,0.508-0.158
			c0.268,0,0.538,0.085,0.814,0.255l-0.273,0.734c-0.193-0.114-0.387-0.171-0.58-0.171c-0.173,0-0.328,0.052-0.467,0.156
			c-0.138,0.104-0.235,0.249-0.294,0.433c-0.088,0.282-0.132,0.589-0.132,0.923v2.445H259.096z"/>
		<path d="M262.104,20.233v-4.669h0.713v0.664c0.343-0.513,0.838-0.77,1.486-0.77c0.281,0,0.54,0.05,0.776,0.152
			c0.235,0.101,0.412,0.233,0.529,0.397c0.117,0.165,0.199,0.359,0.246,0.585c0.029,0.146,0.045,0.403,0.045,0.77v2.871h-0.792
			v-2.84c0-0.322-0.031-0.563-0.093-0.723s-0.171-0.288-0.327-0.383c-0.157-0.095-0.341-0.143-0.552-0.143
			c-0.338,0-0.629,0.107-0.873,0.321c-0.245,0.214-0.367,0.62-0.367,1.218v2.55H262.104z"/>
		<path d="M270.518,18.729l0.818,0.102c-0.129,0.478-0.368,0.848-0.717,1.112c-0.35,0.264-0.795,0.396-1.337,0.396
			c-0.684,0-1.226-0.21-1.626-0.631c-0.399-0.42-0.6-1.011-0.6-1.77c0-0.786,0.202-1.396,0.606-1.829
			c0.405-0.434,0.93-0.651,1.575-0.651c0.624,0,1.134,0.212,1.53,0.638c0.396,0.425,0.594,1.023,0.594,1.794
			c0,0.047-0.002,0.117-0.005,0.211h-3.483c0.029,0.513,0.175,0.906,0.436,1.178s0.587,0.409,0.977,0.409
			c0.29,0,0.538-0.076,0.743-0.229S270.398,19.064,270.518,18.729z M267.918,17.45h2.608c-0.035-0.393-0.135-0.688-0.299-0.884
			c-0.252-0.305-0.579-0.457-0.98-0.457c-0.364,0-0.67,0.122-0.917,0.365C268.083,16.717,267.945,17.043,267.918,17.45z"/>
		<path d="M272.538,20.233v-4.669h0.713v0.708c0.182-0.332,0.35-0.55,0.503-0.655c0.154-0.105,0.323-0.158,0.508-0.158
			c0.268,0,0.538,0.085,0.814,0.255l-0.273,0.734c-0.193-0.114-0.387-0.171-0.58-0.171c-0.173,0-0.328,0.052-0.467,0.156
			c-0.138,0.104-0.235,0.249-0.294,0.433c-0.088,0.282-0.132,0.589-0.132,0.923v2.445H272.538z"/>
		<path d="M279.741,20.233l-2.498-6.446h0.923l1.676,4.683c0.135,0.375,0.248,0.727,0.339,1.055c0.1-0.352,0.216-0.704,0.348-1.055
			l1.741-4.683h0.871l-2.524,6.446H279.741z"/>
		<path d="M286.245,18.729l0.818,0.102c-0.129,0.478-0.368,0.848-0.717,1.112c-0.35,0.264-0.795,0.396-1.337,0.396
			c-0.684,0-1.226-0.21-1.626-0.631c-0.399-0.42-0.6-1.011-0.6-1.77c0-0.786,0.202-1.396,0.606-1.829
			c0.405-0.434,0.93-0.651,1.575-0.651c0.624,0,1.134,0.212,1.53,0.638c0.396,0.425,0.594,1.023,0.594,1.794
			c0,0.047-0.002,0.117-0.005,0.211h-3.483c0.029,0.513,0.175,0.906,0.436,1.178s0.587,0.409,0.977,0.409
			c0.29,0,0.538-0.076,0.743-0.229S286.125,19.064,286.245,18.729z M283.645,17.45h2.608c-0.035-0.393-0.135-0.688-0.299-0.884
			c-0.252-0.305-0.579-0.457-0.98-0.457c-0.364,0-0.67,0.122-0.917,0.365C283.809,16.717,283.671,17.043,283.645,17.45z"/>
		<path d="M288.264,20.233v-4.669h0.713v0.708c0.182-0.332,0.35-0.55,0.503-0.655c0.154-0.105,0.323-0.158,0.508-0.158
			c0.268,0,0.538,0.085,0.814,0.255l-0.273,0.734c-0.193-0.114-0.387-0.171-0.58-0.171c-0.173,0-0.328,0.052-0.467,0.156
			c-0.138,0.104-0.235,0.249-0.294,0.433c-0.088,0.282-0.132,0.589-0.132,0.923v2.445H288.264z"/>
		<path d="M293,19.525l0.114,0.699c-0.223,0.047-0.422,0.07-0.599,0.07c-0.287,0-0.51-0.045-0.668-0.136s-0.27-0.21-0.334-0.358
			s-0.097-0.459-0.097-0.934V16.18h-0.581v-0.616h0.581v-1.156l0.787-0.475v1.631H293v0.616h-0.796v2.73
			c0,0.226,0.014,0.371,0.042,0.435c0.027,0.064,0.073,0.116,0.136,0.154c0.063,0.038,0.153,0.057,0.271,0.057
			C292.741,19.556,292.857,19.546,293,19.525z"/>
		<path d="M296.719,18.729l0.818,0.102c-0.129,0.478-0.368,0.848-0.717,1.112c-0.35,0.264-0.795,0.396-1.337,0.396
			c-0.684,0-1.226-0.21-1.626-0.631c-0.399-0.42-0.6-1.011-0.6-1.77c0-0.786,0.202-1.396,0.606-1.829
			c0.405-0.434,0.93-0.651,1.575-0.651c0.624,0,1.134,0.212,1.53,0.638c0.396,0.425,0.594,1.023,0.594,1.794
			c0,0.047-0.002,0.117-0.005,0.211h-3.483c0.029,0.513,0.175,0.906,0.436,1.178s0.587,0.409,0.977,0.409
			c0.29,0,0.538-0.076,0.743-0.229S296.599,19.064,296.719,18.729z M294.12,17.45h2.608c-0.035-0.393-0.135-0.688-0.299-0.884
			c-0.252-0.305-0.579-0.457-0.98-0.457c-0.364,0-0.67,0.122-0.917,0.365C294.284,16.717,294.146,17.043,294.12,17.45z"/>
		<path d="M298.22,20.233l1.706-2.427l-1.579-2.242h0.989l0.718,1.095c0.135,0.208,0.243,0.383,0.325,0.523
			c0.129-0.193,0.247-0.365,0.356-0.515l0.787-1.104h0.945l-1.614,2.198l1.737,2.471h-0.972l-0.959-1.451l-0.255-0.391l-1.228,1.842
			H298.22z"/>
		<path d="M305.682,20.233V16.18h-0.699v-0.616h0.699v-0.497c0-0.313,0.027-0.546,0.083-0.699c0.076-0.205,0.211-0.372,0.402-0.499
			c0.192-0.127,0.461-0.191,0.808-0.191c0.223,0,0.469,0.026,0.738,0.079l-0.118,0.69c-0.165-0.029-0.32-0.044-0.467-0.044
			c-0.24,0-0.41,0.051-0.51,0.154s-0.149,0.294-0.149,0.576v0.431h0.91v0.616h-0.91v4.054H305.682z"/>
		<path d="M307.448,17.899c0-0.865,0.24-1.505,0.722-1.922c0.401-0.346,0.891-0.519,1.469-0.519c0.643,0,1.167,0.21,1.574,0.631
			c0.408,0.421,0.611,1.002,0.611,1.743c0,0.601-0.09,1.074-0.271,1.418c-0.18,0.345-0.442,0.612-0.787,0.803
			s-0.721,0.286-1.128,0.286c-0.654,0-1.183-0.209-1.586-0.629C307.65,19.291,307.448,18.687,307.448,17.899z M308.261,17.899
			c0,0.598,0.131,1.045,0.392,1.343c0.261,0.298,0.59,0.446,0.985,0.446c0.393,0,0.72-0.149,0.98-0.448s0.392-0.755,0.392-1.368
			c0-0.577-0.131-1.015-0.394-1.312c-0.263-0.298-0.589-0.446-0.979-0.446c-0.396,0-0.725,0.148-0.985,0.444
			S308.261,17.301,308.261,17.899z"/>
		<path d="M312.959,20.233v-4.669h0.713v0.708c0.182-0.332,0.35-0.55,0.503-0.655c0.154-0.105,0.323-0.158,0.508-0.158
			c0.268,0,0.538,0.085,0.814,0.255l-0.273,0.734c-0.193-0.114-0.387-0.171-0.58-0.171c-0.173,0-0.328,0.052-0.467,0.156
			c-0.138,0.104-0.235,0.249-0.294,0.433c-0.088,0.282-0.132,0.589-0.132,0.923v2.445H312.959z"/>
	</g>
	<g clip-path="url(#SVGID_2_)">
		<path d="M240.385,27.605c0-1.07,0.287-1.908,0.862-2.513c0.574-0.605,1.316-0.908,2.225-0.908c0.596,0,1.132,0.142,1.61,0.426
			c0.478,0.285,0.842,0.681,1.093,1.189c0.25,0.509,0.376,1.085,0.376,1.73c0,0.653-0.132,1.238-0.396,1.754
			c-0.264,0.516-0.638,0.907-1.121,1.172c-0.483,0.266-1.006,0.398-1.565,0.398c-0.607,0-1.149-0.146-1.627-0.439
			c-0.479-0.293-0.841-0.693-1.087-1.201C240.508,28.708,240.385,28.171,240.385,27.605z M241.265,27.619
			c0,0.777,0.208,1.389,0.626,1.835c0.418,0.447,0.942,0.67,1.572,0.67c0.643,0,1.171-0.226,1.586-0.677
			c0.415-0.452,0.622-1.092,0.622-1.921c0-0.525-0.089-0.983-0.266-1.374c-0.178-0.392-0.438-0.695-0.778-0.91
			c-0.342-0.216-0.726-0.323-1.15-0.323c-0.604,0-1.124,0.208-1.56,0.622S241.265,26.648,241.265,27.619z"/>
		<path d="M249.342,30.745l-1.777-4.669h0.836l1.003,2.796c0.108,0.302,0.208,0.616,0.299,0.941c0.07-0.246,0.168-0.542,0.295-0.888
			l1.037-2.849h0.814l-1.769,4.669H249.342z"/>
		<path d="M254.989,29.241l0.818,0.102c-0.129,0.478-0.368,0.848-0.717,1.112c-0.35,0.264-0.795,0.396-1.337,0.396
			c-0.684,0-1.226-0.21-1.626-0.631c-0.399-0.42-0.6-1.011-0.6-1.77c0-0.786,0.202-1.396,0.606-1.829
			c0.405-0.434,0.93-0.651,1.575-0.651c0.624,0,1.134,0.212,1.53,0.638c0.396,0.425,0.594,1.023,0.594,1.794
			c0,0.047-0.002,0.117-0.005,0.211h-3.483c0.029,0.513,0.175,0.906,0.436,1.178s0.587,0.409,0.977,0.409
			c0.29,0,0.538-0.076,0.743-0.229S254.869,29.575,254.989,29.241z M252.389,27.961h2.608c-0.035-0.393-0.135-0.688-0.299-0.884
			c-0.252-0.305-0.579-0.457-0.98-0.457c-0.364,0-0.67,0.122-0.917,0.365C252.553,27.229,252.416,27.554,252.389,27.961z"/>
		<path d="M257.008,30.745v-4.669h0.713v0.708c0.182-0.332,0.35-0.55,0.503-0.655c0.154-0.105,0.323-0.158,0.508-0.158
			c0.268,0,0.538,0.085,0.814,0.255l-0.273,0.734c-0.193-0.114-0.387-0.171-0.58-0.171c-0.173,0-0.328,0.052-0.467,0.156
			c-0.138,0.104-0.235,0.249-0.294,0.433c-0.088,0.282-0.132,0.589-0.132,0.923v2.445H257.008z"/>
		<path d="M260.016,30.745v-6.446h0.792v2.313c0.369-0.428,0.835-0.642,1.398-0.642c0.346,0,0.646,0.068,0.901,0.205
			c0.255,0.136,0.438,0.325,0.548,0.565c0.109,0.24,0.165,0.589,0.165,1.046v2.959h-0.792v-2.959c0-0.396-0.086-0.684-0.258-0.864
			c-0.171-0.18-0.414-0.27-0.728-0.27c-0.234,0-0.455,0.061-0.662,0.182c-0.206,0.122-0.354,0.287-0.441,0.495
			c-0.088,0.208-0.132,0.496-0.132,0.862v2.555H260.016z"/>
		<path d="M268.281,30.168c-0.293,0.25-0.575,0.425-0.847,0.528s-0.563,0.154-0.873,0.154c-0.513,0-0.907-0.125-1.183-0.376
			c-0.276-0.25-0.414-0.571-0.414-0.96c0-0.229,0.053-0.438,0.156-0.626c0.104-0.189,0.24-0.341,0.409-0.455
			c0.169-0.115,0.358-0.201,0.569-0.26c0.155-0.041,0.39-0.081,0.704-0.119c0.639-0.076,1.109-0.167,1.411-0.272
			c0.003-0.108,0.005-0.177,0.005-0.207c0-0.323-0.075-0.55-0.225-0.682c-0.202-0.179-0.503-0.268-0.901-0.268
			c-0.372,0-0.647,0.065-0.824,0.195c-0.178,0.131-0.309,0.361-0.395,0.693l-0.773-0.106c0.07-0.331,0.186-0.599,0.348-0.802
			c0.161-0.204,0.394-0.36,0.699-0.47c0.305-0.11,0.658-0.165,1.06-0.165c0.398,0,0.723,0.047,0.972,0.141s0.433,0.212,0.55,0.354
			s0.199,0.322,0.246,0.539c0.026,0.135,0.04,0.378,0.04,0.73v1.055c0,0.736,0.017,1.201,0.051,1.396
			c0.033,0.195,0.101,0.382,0.2,0.561h-0.827C268.357,30.581,268.304,30.389,268.281,30.168z M268.214,28.401
			c-0.287,0.117-0.718,0.217-1.293,0.299c-0.325,0.047-0.556,0.1-0.69,0.158s-0.238,0.145-0.312,0.257
			c-0.074,0.113-0.11,0.238-0.11,0.376c0,0.211,0.08,0.387,0.239,0.527c0.16,0.141,0.394,0.211,0.702,0.211
			c0.305,0,0.576-0.066,0.813-0.2s0.412-0.316,0.523-0.547c0.085-0.179,0.127-0.443,0.127-0.792V28.401z"/>
		<path d="M270.458,30.745v-4.669h0.713v0.664c0.343-0.513,0.838-0.77,1.486-0.77c0.281,0,0.54,0.05,0.776,0.152
			c0.235,0.101,0.412,0.233,0.529,0.397c0.117,0.165,0.199,0.359,0.246,0.585c0.029,0.146,0.045,0.403,0.045,0.77v2.871h-0.792
			v-2.84c0-0.322-0.031-0.563-0.093-0.723s-0.171-0.288-0.327-0.383c-0.157-0.095-0.341-0.143-0.552-0.143
			c-0.338,0-0.629,0.107-0.873,0.321c-0.245,0.214-0.367,0.62-0.367,1.218v2.55H270.458z"/>
		<path d="M275.539,31.131l0.77,0.115c0.032,0.237,0.122,0.41,0.269,0.519c0.196,0.146,0.465,0.22,0.805,0.22
			c0.367,0,0.649-0.073,0.85-0.22c0.199-0.146,0.334-0.352,0.404-0.616c0.041-0.161,0.06-0.5,0.057-1.016
			c-0.346,0.408-0.776,0.611-1.293,0.611c-0.642,0-1.139-0.231-1.49-0.695c-0.353-0.463-0.528-1.019-0.528-1.667
			c0-0.445,0.081-0.856,0.242-1.233c0.161-0.377,0.395-0.667,0.701-0.873c0.307-0.205,0.667-0.308,1.08-0.308
			c0.551,0,1.006,0.223,1.363,0.668v-0.563h0.73v4.036c0,0.727-0.074,1.242-0.223,1.545c-0.148,0.304-0.383,0.543-0.703,0.719
			c-0.321,0.176-0.717,0.264-1.186,0.264c-0.558,0-1.007-0.125-1.351-0.376C275.693,32.013,275.527,31.636,275.539,31.131z
			 M276.194,28.326c0,0.613,0.122,1.06,0.365,1.341s0.549,0.422,0.915,0.422c0.363,0,0.668-0.14,0.915-0.42
			c0.246-0.28,0.369-0.719,0.369-1.317c0-0.571-0.127-1.002-0.381-1.292c-0.253-0.29-0.559-0.435-0.917-0.435
			c-0.352,0-0.65,0.143-0.896,0.429C276.317,27.339,276.194,27.764,276.194,28.326z"/>
	</g>
	<g clip-path="url(#SVGID_2_)">
	</g>
	<g clip-path="url(#SVGID_2_)">
		<path d="M109.834,128.858l1.682,0.533c-0.258,0.938-0.687,1.633-1.286,2.088s-1.36,0.683-2.282,0.683
			c-1.141,0-2.079-0.39-2.813-1.169c-0.734-0.779-1.102-1.844-1.102-3.195c0-1.43,0.369-2.54,1.107-3.331s1.709-1.187,2.913-1.187
			c1.051,0,1.904,0.311,2.561,0.932c0.391,0.367,0.684,0.895,0.879,1.582l-1.717,0.41c-0.102-0.445-0.313-0.797-0.636-1.054
			c-0.322-0.258-0.714-0.387-1.175-0.387c-0.637,0-1.154,0.229-1.55,0.685c-0.396,0.457-0.595,1.197-0.595,2.221
			c0,1.085,0.195,1.859,0.586,2.32s0.899,0.691,1.524,0.691c0.461,0,0.857-0.146,1.189-0.439S109.69,129.487,109.834,128.858z"/>
	</g>
	<g clip-path="url(#SVGID_2_)">
	</g>
	<g clip-path="url(#SVGID_2_)">
		<path d="M301.557,193.174h3.434c0.68,0,1.187,0.028,1.521,0.085c0.335,0.057,0.634,0.175,0.897,0.354s0.483,0.419,0.659,0.718
			s0.264,0.634,0.264,1.004c0,0.402-0.108,0.771-0.325,1.107s-0.511,0.588-0.882,0.756c0.523,0.152,0.926,0.412,1.207,0.779
			c0.281,0.367,0.422,0.799,0.422,1.295c0,0.391-0.091,0.771-0.272,1.14c-0.182,0.369-0.43,0.664-0.744,0.884
			s-0.703,0.356-1.164,0.407c-0.289,0.031-0.986,0.051-2.092,0.059h-2.924V193.174z M303.292,194.604v1.986h1.137
			c0.676,0,1.096-0.01,1.26-0.029c0.297-0.035,0.53-0.138,0.7-0.308s0.255-0.394,0.255-0.671c0-0.266-0.073-0.481-0.22-0.647
			s-0.364-0.267-0.653-0.302c-0.172-0.02-0.666-0.029-1.482-0.029H303.292z M303.292,198.019v2.297h1.605
			c0.625,0,1.021-0.018,1.189-0.053c0.258-0.047,0.468-0.161,0.63-0.343s0.244-0.425,0.244-0.729c0-0.258-0.063-0.477-0.188-0.656
			s-0.306-0.311-0.542-0.393s-0.749-0.123-1.538-0.123H303.292z"/>
	</g>
	<g clip-path="url(#SVGID_2_)">
	</g>
	<g clip-path="url(#SVGID_2_)">
	</g>
	<g clip-path="url(#SVGID_2_)">
		<path d="M50.344,84.417h3.17c0.715,0,1.26,0.055,1.635,0.164c0.504,0.148,0.936,0.412,1.295,0.791s0.633,0.843,0.82,1.391
			c0.188,0.549,0.281,1.226,0.281,2.03c0,0.707-0.088,1.316-0.264,1.828c-0.215,0.625-0.521,1.13-0.92,1.517
			c-0.301,0.293-0.707,0.521-1.219,0.686c-0.383,0.121-0.895,0.182-1.535,0.182h-3.264V84.417z M52.079,85.87v5.688h1.295
			c0.484,0,0.834-0.027,1.049-0.082c0.281-0.07,0.515-0.189,0.7-0.357s0.337-0.444,0.454-0.829s0.176-0.909,0.176-1.573
			c0-0.664-0.059-1.174-0.176-1.529s-0.281-0.633-0.492-0.832c-0.211-0.199-0.479-0.333-0.803-0.404
			c-0.242-0.055-0.717-0.082-1.424-0.082H52.079z"/>
	</g>
	<g clip-path="url(#SVGID_2_)">
	</g>
</g>
</svg>
