<?xml version="1.0" encoding="utf-8"?>
<!-- Generator: Adobe Illustrator 16.0.0, SVG Export Plug-In . SVG Version: 6.00 Build 0)  -->
<!DOCTYPE svg PUBLIC "-//W3C//DTD SVG 1.1//EN" "http://www.w3.org/Graphics/SVG/1.1/DTD/svg11.dtd">
<svg version="1.1" id="Layer_1" xmlns="http://www.w3.org/2000/svg" xmlns:xlink="http://www.w3.org/1999/xlink" x="0px" y="0px"
	 width="277.694px" height="286.205px" viewBox="0 0 277.694 286.205" enable-background="new 0 0 277.694 286.205"
	 xml:space="preserve">
<g>
	<polyline fill="none" stroke="#000000" stroke-width="0.24" stroke-linecap="square" stroke-miterlimit="10" points="
		59.16,196.806 118.92,196.806 118.92,147.125 59.16,147.125 59.16,196.806 	"/>
	<polyline fill="none" stroke="#000000" stroke-width="0.24" stroke-linecap="square" stroke-miterlimit="10" points="
		59.16,277.686 118.92,277.686 118.92,228.485 59.16,228.485 59.16,277.686 	"/>
	<g>
		<path d="M80.027,169.682v-0.886l4.085-4.622c0.29-0.328,0.565-0.613,0.827-0.856h-4.45v-0.852h5.712v0.852l-4.477,5.006
			l-0.484,0.507h5.092v0.852H80.027z"/>
		<path d="M86.979,167.068c0-0.968,0.297-1.686,0.892-2.151c0.497-0.387,1.103-0.58,1.817-0.58c0.794,0,1.443,0.235,1.947,0.706
			c0.504,0.471,0.756,1.121,0.756,1.951c0,0.673-0.111,1.202-0.334,1.588c-0.223,0.385-0.548,0.685-0.974,0.897
			c-0.426,0.214-0.892,0.32-1.396,0.32c-0.809,0-1.462-0.234-1.961-0.704C87.228,168.627,86.979,167.951,86.979,167.068z
			 M87.985,167.068c0,0.669,0.161,1.17,0.484,1.503c0.323,0.334,0.729,0.5,1.219,0.5c0.486,0,0.89-0.167,1.213-0.502
			s0.484-0.845,0.484-1.53c0-0.646-0.163-1.137-0.487-1.47c-0.325-0.333-0.728-0.499-1.21-0.499c-0.49,0-0.896,0.165-1.219,0.497
			C88.146,165.898,87.985,166.398,87.985,167.068z"/>
		<path d="M93.54,169.682v-5.227h0.881v0.743c0.424-0.574,1.037-0.861,1.839-0.861c0.348,0,0.668,0.057,0.96,0.169
			c0.292,0.113,0.51,0.262,0.655,0.446c0.145,0.184,0.247,0.401,0.305,0.654c0.037,0.164,0.055,0.451,0.055,0.861v3.214h-0.979
			v-3.18c0-0.36-0.038-0.631-0.114-0.81s-0.211-0.321-0.405-0.428c-0.194-0.107-0.421-0.16-0.683-0.16
			c-0.417,0-0.777,0.119-1.08,0.359c-0.303,0.239-0.455,0.693-0.455,1.363v2.854H93.54z"/>
		<path d="M103.691,167.998l1.012,0.113c-0.16,0.535-0.455,0.95-0.887,1.245c-0.432,0.296-0.983,0.443-1.654,0.443
			c-0.845,0-1.515-0.235-2.01-0.706s-0.742-1.132-0.742-1.981c0-0.879,0.25-1.562,0.75-2.048c0.5-0.485,1.149-0.728,1.948-0.728
			c0.772,0,1.403,0.237,1.893,0.713c0.489,0.477,0.734,1.146,0.734,2.009c0,0.052-0.002,0.131-0.005,0.236h-4.309
			c0.036,0.574,0.216,1.014,0.539,1.318c0.323,0.306,0.725,0.458,1.208,0.458c0.359,0,0.666-0.085,0.919-0.256
			S103.542,168.372,103.691,167.998z M100.476,166.566h3.226c-0.043-0.44-0.167-0.77-0.37-0.989
			c-0.312-0.342-0.716-0.513-1.213-0.513c-0.45,0-0.828,0.137-1.134,0.409C100.678,165.746,100.508,166.11,100.476,166.566z"/>
	</g>
	<g>
		<path d="M92.595,181.682h-0.979v-5.646c-0.236,0.203-0.545,0.407-0.927,0.61c-0.383,0.203-0.727,0.356-1.031,0.458v-0.856
			c0.548-0.233,1.026-0.516,1.437-0.847c0.41-0.331,0.7-0.653,0.87-0.965h0.631V181.682z"/>
	</g>
	<polyline fill="none" stroke="#000000" stroke-width="0.24" stroke-linecap="square" stroke-miterlimit="10" points="
		155.88,183.365 218.28,183.365 218.28,161.525 155.88,161.525 155.88,183.365 	"/>
	<g>
		<path d="M170.044,169.682v-6.364h-2.628v-0.852h6.321v0.852H171.1v6.364H170.044z"/>
		<path d="M177.415,167.998l1.012,0.113c-0.16,0.535-0.455,0.95-0.887,1.245c-0.432,0.296-0.983,0.443-1.654,0.443
			c-0.845,0-1.515-0.235-2.01-0.706s-0.742-1.132-0.742-1.981c0-0.879,0.25-1.562,0.751-2.048c0.5-0.485,1.149-0.728,1.947-0.728
			c0.772,0,1.403,0.237,1.893,0.713c0.49,0.477,0.734,1.146,0.734,2.009c0,0.052-0.002,0.131-0.005,0.236h-4.309
			c0.036,0.574,0.216,1.014,0.538,1.318c0.323,0.306,0.726,0.458,1.208,0.458c0.359,0,0.665-0.085,0.919-0.256
			S177.266,168.372,177.415,167.998z M174.2,166.566h3.226c-0.044-0.44-0.167-0.77-0.37-0.989c-0.312-0.342-0.716-0.513-1.213-0.513
			c-0.45,0-0.828,0.137-1.135,0.409C174.402,165.746,174.232,166.11,174.2,166.566z"/>
		<path d="M179.646,169.682v-5.227h0.881v0.792c0.226-0.371,0.433-0.615,0.623-0.733s0.4-0.177,0.629-0.177
			c0.329,0,0.665,0.095,1.006,0.285l-0.337,0.822c-0.239-0.128-0.479-0.192-0.719-0.192c-0.214,0-0.406,0.059-0.576,0.175
			c-0.171,0.116-0.292,0.278-0.364,0.484c-0.109,0.315-0.163,0.66-0.163,1.034v2.736H179.646z"/>
		<path d="M183.366,169.682v-5.227h0.876v0.732c0.182-0.256,0.422-0.461,0.724-0.617c0.301-0.156,0.644-0.233,1.028-0.233
			c0.428,0,0.778,0.08,1.052,0.241c0.274,0.16,0.468,0.385,0.58,0.674c0.457-0.61,1.052-0.915,1.784-0.915
			c0.573,0,1.014,0.144,1.322,0.431c0.308,0.287,0.462,0.729,0.462,1.326v3.588h-0.974v-3.293c0-0.354-0.032-0.609-0.096-0.765
			c-0.063-0.156-0.179-0.282-0.345-0.377c-0.167-0.095-0.363-0.143-0.588-0.143c-0.406,0-0.743,0.122-1.012,0.366
			c-0.269,0.245-0.402,0.636-0.402,1.174v3.037h-0.979v-3.396c0-0.394-0.08-0.688-0.239-0.886c-0.16-0.196-0.421-0.295-0.783-0.295
			c-0.276,0-0.53,0.065-0.765,0.196c-0.233,0.132-0.403,0.323-0.509,0.576c-0.104,0.253-0.157,0.617-0.157,1.093v2.712H183.366z"/>
		<path d="M192.652,163.485v-1.02h0.979v1.02H192.652z M192.652,169.682v-5.227h0.979v5.227H192.652z"/>
		<path d="M195.122,169.682v-5.227h0.881v0.743c0.425-0.574,1.038-0.861,1.839-0.861c0.349,0,0.669,0.057,0.96,0.169
			c0.292,0.113,0.511,0.262,0.656,0.446c0.145,0.184,0.246,0.401,0.305,0.654c0.036,0.164,0.054,0.451,0.054,0.861v3.214h-0.979
			v-3.18c0-0.36-0.038-0.631-0.114-0.81s-0.212-0.321-0.405-0.428c-0.194-0.107-0.422-0.16-0.683-0.16
			c-0.417,0-0.777,0.119-1.08,0.359c-0.303,0.239-0.454,0.693-0.454,1.363v2.854H195.122z"/>
		<path d="M205.088,169.037c-0.362,0.278-0.711,0.476-1.047,0.591c-0.335,0.114-0.695,0.172-1.08,0.172
			c-0.635,0-1.122-0.141-1.463-0.421s-0.512-0.639-0.512-1.075c0-0.256,0.064-0.49,0.193-0.701c0.129-0.212,0.297-0.382,0.506-0.51
			s0.443-0.225,0.704-0.29c0.192-0.046,0.482-0.091,0.871-0.133c0.79-0.086,1.372-0.188,1.746-0.306
			c0.003-0.121,0.005-0.198,0.005-0.231c0-0.36-0.092-0.615-0.277-0.763c-0.25-0.2-0.622-0.3-1.115-0.3
			c-0.46,0-0.8,0.072-1.02,0.219c-0.22,0.146-0.382,0.404-0.487,0.775l-0.957-0.118c0.087-0.371,0.23-0.671,0.43-0.898
			c0.199-0.229,0.487-0.403,0.865-0.526c0.377-0.123,0.813-0.185,1.311-0.185c0.493,0,0.895,0.052,1.202,0.157
			c0.309,0.104,0.535,0.237,0.681,0.396c0.145,0.159,0.246,0.359,0.305,0.603c0.032,0.151,0.049,0.423,0.049,0.817v1.181
			c0,0.824,0.021,1.345,0.063,1.563c0.041,0.219,0.124,0.428,0.247,0.628h-1.022C205.183,169.498,205.117,169.283,205.088,169.037z
			 M205.007,167.059c-0.355,0.131-0.889,0.242-1.6,0.334c-0.402,0.053-0.688,0.112-0.854,0.178
			c-0.167,0.065-0.296,0.161-0.387,0.288c-0.091,0.126-0.136,0.267-0.136,0.421c0,0.236,0.099,0.433,0.296,0.59
			c0.198,0.158,0.487,0.236,0.868,0.236c0.377,0,0.713-0.074,1.006-0.224c0.294-0.149,0.51-0.354,0.647-0.612
			c0.105-0.2,0.158-0.496,0.158-0.887V167.059z"/>
		<path d="M207.493,169.682v-7.216h0.979v7.216H207.493z"/>
	</g>
	<g>
		<path d="M161.555,181.682v-7.216h3.536c0.711,0,1.251,0.065,1.621,0.194c0.37,0.13,0.665,0.359,0.887,0.688
			c0.221,0.328,0.332,0.69,0.332,1.087c0,0.513-0.184,0.943-0.55,1.295c-0.366,0.351-0.933,0.574-1.697,0.669
			c0.279,0.122,0.491,0.241,0.637,0.359c0.308,0.256,0.6,0.576,0.875,0.96l1.388,1.964h-1.327l-1.056-1.501
			c-0.309-0.434-0.563-0.765-0.762-0.994s-0.378-0.391-0.535-0.482c-0.158-0.092-0.318-0.156-0.481-0.192
			c-0.12-0.022-0.316-0.034-0.588-0.034h-1.224v3.204H161.555z M162.61,177.65h2.268c0.482,0,0.86-0.045,1.132-0.135
			c0.272-0.091,0.479-0.235,0.62-0.434s0.212-0.414,0.212-0.647c0-0.341-0.137-0.621-0.41-0.841c-0.274-0.221-0.706-0.33-1.298-0.33
			h-2.523V177.65z"/>
		<path d="M173.414,179.998l1.012,0.113c-0.16,0.535-0.455,0.95-0.887,1.245c-0.432,0.296-0.983,0.443-1.654,0.443
			c-0.845,0-1.515-0.235-2.01-0.706s-0.742-1.132-0.742-1.981c0-0.879,0.25-1.562,0.751-2.048c0.5-0.485,1.149-0.728,1.947-0.728
			c0.772,0,1.403,0.237,1.893,0.713c0.49,0.477,0.734,1.146,0.734,2.009c0,0.052-0.002,0.131-0.005,0.236h-4.309
			c0.036,0.574,0.216,1.014,0.538,1.318c0.323,0.306,0.726,0.458,1.208,0.458c0.359,0,0.665-0.085,0.919-0.256
			S173.265,180.372,173.414,179.998z M170.199,178.566h3.226c-0.044-0.44-0.167-0.77-0.37-0.989
			c-0.312-0.342-0.716-0.513-1.213-0.513c-0.45,0-0.828,0.137-1.135,0.409C170.401,177.746,170.231,178.11,170.199,178.566z"/>
		<path d="M175.655,181.682v-7.216h0.979v2.589c0.457-0.479,1.033-0.718,1.729-0.718c0.428,0,0.8,0.076,1.115,0.229
			s0.541,0.363,0.678,0.633c0.136,0.269,0.204,0.659,0.204,1.171v3.313h-0.979v-3.313c0-0.443-0.106-0.766-0.318-0.967
			c-0.212-0.202-0.513-0.303-0.9-0.303c-0.29,0-0.563,0.068-0.818,0.204c-0.256,0.136-0.438,0.32-0.547,0.554
			c-0.109,0.233-0.163,0.555-0.163,0.965v2.859H175.655z"/>
		<path d="M185.806,179.998l1.012,0.113c-0.16,0.535-0.455,0.95-0.887,1.245c-0.432,0.296-0.983,0.443-1.654,0.443
			c-0.845,0-1.515-0.235-2.01-0.706s-0.742-1.132-0.742-1.981c0-0.879,0.25-1.562,0.751-2.048c0.5-0.485,1.149-0.728,1.947-0.728
			c0.772,0,1.403,0.237,1.893,0.713c0.49,0.477,0.734,1.146,0.734,2.009c0,0.052-0.002,0.131-0.005,0.236h-4.309
			c0.036,0.574,0.216,1.014,0.538,1.318c0.323,0.306,0.726,0.458,1.208,0.458c0.359,0,0.665-0.085,0.919-0.256
			S185.656,180.372,185.806,179.998z M182.591,178.566h3.226c-0.044-0.44-0.167-0.77-0.37-0.989
			c-0.312-0.342-0.716-0.513-1.213-0.513c-0.45,0-0.828,0.137-1.135,0.409C182.793,177.746,182.623,178.11,182.591,178.566z"/>
		<path d="M191.816,181.037c-0.362,0.278-0.711,0.476-1.047,0.591c-0.335,0.114-0.695,0.172-1.08,0.172
			c-0.635,0-1.122-0.141-1.463-0.421s-0.512-0.639-0.512-1.075c0-0.256,0.064-0.49,0.193-0.701c0.129-0.212,0.297-0.382,0.506-0.51
			s0.443-0.225,0.704-0.29c0.192-0.046,0.482-0.091,0.871-0.133c0.79-0.086,1.372-0.188,1.746-0.306
			c0.003-0.121,0.005-0.198,0.005-0.231c0-0.36-0.092-0.615-0.277-0.763c-0.25-0.2-0.622-0.3-1.115-0.3
			c-0.46,0-0.8,0.072-1.02,0.219c-0.22,0.146-0.382,0.404-0.487,0.775l-0.957-0.118c0.087-0.371,0.23-0.671,0.43-0.898
			c0.199-0.229,0.487-0.403,0.865-0.526c0.377-0.123,0.813-0.185,1.311-0.185c0.493,0,0.895,0.052,1.202,0.157
			c0.309,0.104,0.535,0.237,0.681,0.396c0.145,0.159,0.246,0.359,0.305,0.603c0.032,0.151,0.049,0.423,0.049,0.817v1.181
			c0,0.824,0.021,1.345,0.063,1.563c0.041,0.219,0.124,0.428,0.247,0.628h-1.022C191.911,181.498,191.846,181.283,191.816,181.037z
			 M191.735,179.059c-0.355,0.131-0.889,0.242-1.6,0.334c-0.402,0.053-0.688,0.112-0.854,0.178
			c-0.167,0.065-0.296,0.161-0.387,0.288c-0.091,0.126-0.136,0.267-0.136,0.421c0,0.236,0.099,0.433,0.296,0.59
			c0.198,0.158,0.487,0.236,0.868,0.236c0.377,0,0.713-0.074,1.006-0.224c0.294-0.149,0.51-0.354,0.647-0.612
			c0.105-0.2,0.158-0.496,0.158-0.887V179.059z"/>
		<path d="M196.381,180.89l0.142,0.782c-0.275,0.053-0.522,0.079-0.74,0.079c-0.355,0-0.631-0.052-0.826-0.153
			c-0.196-0.102-0.334-0.235-0.414-0.4c-0.079-0.166-0.119-0.515-0.119-1.046v-3.008h-0.718v-0.688h0.718v-1.295l0.974-0.531v1.826
			h0.984v0.688h-0.984v3.057c0,0.253,0.018,0.415,0.052,0.487s0.091,0.13,0.169,0.172c0.077,0.043,0.189,0.064,0.334,0.064
			C196.061,180.924,196.203,180.912,196.381,180.89z"/>
		<path d="M205.792,174.466h1.056v4.169c0,0.726-0.091,1.302-0.272,1.728c-0.182,0.427-0.509,0.773-0.981,1.041
			c-0.474,0.268-1.095,0.401-1.863,0.401c-0.747,0-1.358-0.116-1.834-0.35c-0.475-0.232-0.813-0.57-1.017-1.012
			c-0.203-0.44-0.305-1.044-0.305-1.809v-4.169h1.056v4.164c0,0.627,0.063,1.089,0.192,1.386s0.351,0.525,0.664,0.687
			s0.697,0.241,1.15,0.241c0.776,0,1.329-0.159,1.659-0.478s0.495-0.93,0.495-1.836V174.466z"/>
		<path d="M208.479,181.682v-5.227h0.881v0.743c0.425-0.574,1.038-0.861,1.839-0.861c0.349,0,0.669,0.057,0.96,0.169
			c0.292,0.113,0.511,0.262,0.656,0.446c0.145,0.184,0.246,0.401,0.305,0.654c0.036,0.164,0.054,0.451,0.054,0.861v3.214h-0.979
			v-3.18c0-0.36-0.038-0.631-0.114-0.81s-0.212-0.321-0.405-0.428c-0.194-0.107-0.422-0.16-0.683-0.16
			c-0.417,0-0.777,0.119-1.08,0.359c-0.303,0.239-0.454,0.693-0.454,1.363v2.854H208.479z"/>
		<path d="M214.682,175.485v-1.02h0.979v1.02H214.682z M214.682,181.682v-5.227h0.979v5.227H214.682z"/>
		<path d="M219.289,180.89l0.142,0.782c-0.275,0.053-0.522,0.079-0.74,0.079c-0.355,0-0.631-0.052-0.826-0.153
			c-0.196-0.102-0.334-0.235-0.414-0.4c-0.079-0.166-0.119-0.515-0.119-1.046v-3.008h-0.718v-0.688h0.718v-1.295l0.974-0.531v1.826
			h0.984v0.688h-0.984v3.057c0,0.253,0.018,0.415,0.052,0.487s0.091,0.13,0.169,0.172c0.077,0.043,0.189,0.064,0.334,0.064
			C218.969,180.924,219.111,180.912,219.289,180.89z"/>
	</g>
	<polyline fill="none" stroke="#000000" stroke-width="0.24" stroke-linecap="square" stroke-miterlimit="10" points="
		155.4,261.365 217.8,261.365 217.8,239.525 155.4,239.525 155.4,261.365 	"/>
	<polyline fill="none" stroke="#9A9A9A" stroke-width="1.2" stroke-linecap="square" stroke-miterlimit="10" points="152.76,94.806 
		212.04,94.806 212.04,13.686 152.76,13.686 152.76,94.806 	"/>
	
		<polygon fill-rule="evenodd" clip-rule="evenodd" fill="#FFFFFF" stroke="#000000" stroke-width="0.24" stroke-linecap="square" stroke-miterlimit="10" points="
		100.44,43.206 127.8,43.206 127.8,32.646 100.44,32.646 100.44,43.206 	"/>
	
		<polygon fill-rule="evenodd" clip-rule="evenodd" fill="#FFFFFF" stroke="#000000" stroke-width="0.24" stroke-linecap="square" stroke-miterlimit="10" points="
		108.36,58.085 110.28,57.845 111.72,57.365 113.16,56.405 114.6,55.206 115.8,53.766 116.52,51.845 117,50.166 117.24,48.005 
		117,45.845 116.52,44.166 115.8,42.485 114.6,41.045 113.16,39.605 111.72,38.646 110.28,38.166 108.36,37.925 106.44,38.166 
		105,38.646 103.56,39.605 102.12,41.045 100.92,42.485 100.2,44.166 99.72,45.845 99.48,48.005 99.72,50.166 100.2,51.845 
		100.92,53.766 102.12,55.206 103.56,56.405 105,57.365 106.44,57.845 108.36,58.085 	"/>
	
		<line fill="none" stroke="#000000" stroke-width="0.24" stroke-linecap="square" stroke-miterlimit="10" x1="127.8" y1="37.925" x2="172.68" y2="37.925"/>
	<polyline fill="none" stroke="#000000" stroke-width="0.24" stroke-linecap="square" stroke-miterlimit="10" points="
		189.24,37.925 274.68,37.925 274.68,90.965 	"/>
	<polyline fill="none" stroke="#000000" stroke-width="0.24" stroke-linecap="square" stroke-miterlimit="10" points="99.48,36.965 
		1.8,36.965 1.8,79.445 	"/>
	
		<line fill="none" stroke="#000000" stroke-width="0.24" stroke-linecap="square" stroke-miterlimit="10" x1="2.52" y1="97.925" x2="2.52" y2="255.846"/>
	
		<line fill="none" stroke="#000000" stroke-width="0.24" stroke-linecap="square" stroke-miterlimit="10" x1="275.16" y1="105.365" x2="275.88" y2="253.686"/>
	
		<line fill="none" stroke="#000000" stroke-width="0.24" stroke-linecap="square" stroke-miterlimit="10" x1="2.52" y1="173.766" x2="59.16" y2="173.766"/>
	
		<line fill="none" stroke="#000000" stroke-width="0.24" stroke-linecap="square" stroke-miterlimit="10" x1="118.92" y1="173.766" x2="155.88" y2="173.766"/>
	
		<line fill="none" stroke="#000000" stroke-width="0.24" stroke-linecap="square" stroke-miterlimit="10" x1="219.24" y1="173.045" x2="275.64" y2="173.045"/>
	
		<line fill="none" stroke="#000000" stroke-width="0.24" stroke-linecap="square" stroke-miterlimit="10" x1="2.52" y1="254.886" x2="58.2" y2="254.886"/>
	
		<line fill="none" stroke="#000000" stroke-width="0.24" stroke-linecap="square" stroke-miterlimit="10" x1="117.96" y1="254.886" x2="155.16" y2="254.886"/>
	
		<line fill="none" stroke="#000000" stroke-width="0.24" stroke-linecap="square" stroke-miterlimit="10" x1="218.28" y1="253.205" x2="275.64" y2="253.205"/>
	
		<polygon fill-rule="evenodd" clip-rule="evenodd" stroke="#000000" stroke-width="0.24" stroke-linecap="square" stroke-miterlimit="10" points="
		33.24,176.165 34.44,175.926 35.16,175.445 35.64,174.726 35.64,174.006 35.64,173.045 35.16,172.085 34.44,171.605 33.24,171.605 
		32.52,171.605 31.8,172.085 31.32,173.045 31.32,174.006 31.32,174.726 31.8,175.445 32.52,175.926 33.24,176.165 	"/>
	
		<polygon fill-rule="evenodd" clip-rule="evenodd" stroke="#000000" stroke-width="0.24" stroke-linecap="square" stroke-miterlimit="10" points="
		136.92,176.165 137.64,175.926 138.36,175.445 138.84,174.726 139.08,174.006 138.84,173.045 138.36,172.325 137.64,171.846 
		136.92,171.605 135.96,171.846 135.24,172.325 134.76,173.045 134.76,174.006 134.76,174.726 135.24,175.445 135.96,175.926 
		136.92,176.165 	"/>
	
		<polygon fill-rule="evenodd" clip-rule="evenodd" stroke="#000000" stroke-width="0.24" stroke-linecap="square" stroke-miterlimit="10" points="
		138.84,257.766 139.8,257.525 140.76,257.285 141,256.325 141.24,255.365 141,254.646 140.76,253.926 139.8,253.445 
		138.84,253.445 138.12,253.445 137.4,253.926 136.92,254.646 136.68,255.365 136.92,256.325 137.4,257.285 138.12,257.525 
		138.84,257.766 	"/>
	
		<polygon fill-rule="evenodd" clip-rule="evenodd" stroke="#000000" stroke-width="0.24" stroke-linecap="square" stroke-miterlimit="10" points="
		247.56,255.605 248.52,255.365 249.24,254.886 249.72,254.165 249.72,253.445 249.72,252.485 249.24,252.006 248.52,251.525 
		247.56,251.285 246.84,251.525 245.88,252.006 245.4,252.485 245.16,253.445 245.4,254.165 245.88,254.886 246.84,255.365 
		247.56,255.605 	"/>
	
		<polygon fill-rule="evenodd" clip-rule="evenodd" stroke="#000000" stroke-width="0.24" stroke-linecap="square" stroke-miterlimit="10" points="
		275.16,108.485 276.12,108.245 276.84,107.766 277.08,107.285 277.56,106.085 277.08,105.365 276.84,104.646 276.12,104.166 
		275.16,104.166 274.44,104.166 273.72,104.646 273.24,105.365 273,106.085 273.24,107.285 273.72,107.766 274.44,108.245 
		275.16,108.485 	"/>
	
		<polygon fill-rule="evenodd" clip-rule="evenodd" stroke="#000000" stroke-width="0.24" stroke-linecap="square" stroke-miterlimit="10" points="
		274.68,92.166 275.64,91.925 276.36,91.686 276.6,90.965 276.84,90.005 276.6,89.285 276.36,88.325 275.64,87.845 274.68,87.605 
		273.96,87.845 273.24,88.325 272.76,89.285 272.52,90.005 272.76,90.965 273.24,91.686 273.96,91.925 274.68,92.166 	"/>
	
		<polygon fill-rule="evenodd" clip-rule="evenodd" stroke="#000000" stroke-width="0.24" stroke-linecap="square" stroke-miterlimit="10" points="
		148.68,40.806 149.64,40.325 150.12,39.845 150.6,39.125 150.84,38.405 150.6,37.445 150.12,36.965 149.64,36.485 148.68,36.245 
		147.72,36.485 147.24,36.965 146.76,37.445 146.52,38.405 146.76,39.125 147.24,39.845 147.72,40.325 148.68,40.806 	"/>
	
		<polygon fill-rule="evenodd" clip-rule="evenodd" stroke="#000000" stroke-width="0.24" stroke-linecap="square" stroke-miterlimit="10" points="
		2.04,79.925 3.24,79.686 3.96,79.206 4.44,78.726 4.44,77.766 4.44,77.045 3.96,76.085 3.24,75.605 2.04,75.365 1.32,75.605 
		0.6,76.085 0.12,77.045 0.12,77.766 0.12,78.726 0.6,79.206 1.32,79.686 2.04,79.925 	"/>
	
		<polygon fill-rule="evenodd" clip-rule="evenodd" stroke="#000000" stroke-width="0.24" stroke-linecap="square" stroke-miterlimit="10" points="
		3,101.045 3.96,100.806 4.68,100.325 5.16,99.605 5.16,98.646 5.16,97.925 4.68,97.206 3.96,96.726 3,96.726 2.04,96.726 
		1.32,97.206 0.84,97.925 0.6,98.646 0.84,99.605 1.32,100.325 2.04,100.806 3,101.045 	"/>
	
		<polygon fill-rule="evenodd" clip-rule="evenodd" stroke="#000000" stroke-width="0.24" stroke-linecap="square" stroke-miterlimit="10" points="
		240.36,174.485 241.08,174.245 241.8,173.766 242.28,173.285 242.52,172.085 242.28,171.365 241.8,170.646 241.08,170.165 
		240.36,169.926 239.16,170.165 238.44,170.646 237.96,171.365 237.96,172.085 237.96,173.285 238.44,173.766 239.16,174.245 
		240.36,174.485 	"/>
	
		<polygon fill-rule="evenodd" clip-rule="evenodd" stroke="#000000" stroke-width="0.24" stroke-linecap="square" stroke-miterlimit="10" points="
		24.12,257.285 25.08,257.045 25.8,256.325 26.04,255.846 26.28,254.886 26.04,254.165 25.8,253.445 25.08,252.966 24.12,252.966 
		23.4,252.966 22.68,253.445 22.2,254.165 21.96,254.886 22.2,255.846 22.68,256.325 23.4,257.045 24.12,257.285 	"/>
	<g>
		<path d="M97.757,66.721v-7.215h5.38v0.852h-4.325v2.234h3.743v0.852h-3.743v3.278H97.757z"/>
		<path d="M108.152,66.076c-0.363,0.279-0.712,0.476-1.047,0.59s-0.695,0.172-1.08,0.172c-0.635,0-1.123-0.14-1.463-0.421
			c-0.341-0.28-0.512-0.639-0.512-1.075c0-0.256,0.064-0.49,0.193-0.702c0.129-0.211,0.297-0.381,0.506-0.509
			s0.443-0.225,0.705-0.291c0.192-0.046,0.482-0.09,0.87-0.133c0.791-0.085,1.373-0.187,1.747-0.305
			c0.003-0.121,0.005-0.198,0.005-0.231c0-0.361-0.093-0.615-0.277-0.763c-0.25-0.2-0.622-0.3-1.115-0.3
			c-0.461,0-0.801,0.073-1.02,0.219c-0.22,0.146-0.382,0.404-0.487,0.775l-0.958-0.118c0.087-0.371,0.23-0.67,0.43-0.898
			c0.199-0.228,0.488-0.404,0.865-0.527c0.377-0.123,0.814-0.185,1.311-0.185c0.493,0,0.894,0.053,1.203,0.158
			c0.308,0.105,0.535,0.237,0.68,0.396s0.247,0.36,0.305,0.603c0.033,0.151,0.049,0.423,0.049,0.817v1.181
			c0,0.824,0.021,1.345,0.063,1.563c0.042,0.218,0.125,0.427,0.248,0.627h-1.022C108.247,66.537,108.181,66.322,108.152,66.076z
			 M108.071,64.097c-0.355,0.131-0.889,0.243-1.6,0.335c-0.402,0.052-0.687,0.111-0.854,0.177c-0.167,0.065-0.295,0.162-0.386,0.288
			c-0.091,0.126-0.136,0.267-0.136,0.421c0,0.236,0.099,0.433,0.296,0.591c0.197,0.157,0.487,0.236,0.868,0.236
			c0.377,0,0.712-0.075,1.006-0.224c0.293-0.149,0.509-0.354,0.647-0.613c0.105-0.2,0.158-0.496,0.158-0.886V64.097z"/>
		<path d="M110.579,66.721v-5.227h0.881v0.743c0.424-0.574,1.037-0.861,1.839-0.861c0.348,0,0.668,0.057,0.96,0.17
			s0.51,0.262,0.655,0.445c0.145,0.184,0.247,0.402,0.305,0.655c0.037,0.164,0.055,0.451,0.055,0.861v3.214h-0.979v-3.18
			c0-0.361-0.038-0.63-0.114-0.81c-0.076-0.179-0.211-0.321-0.405-0.428c-0.194-0.106-0.421-0.16-0.683-0.16
			c-0.417,0-0.777,0.12-1.08,0.359c-0.303,0.24-0.455,0.694-0.455,1.364v2.854H110.579z"/>
	</g>
	<g>
		<path d="M174.741,64.564v-7.215h2.747c0.62,0,1.094,0.034,1.42,0.103c0.457,0.095,0.847,0.268,1.17,0.517
			c0.421,0.321,0.735,0.732,0.943,1.233c0.209,0.5,0.313,1.072,0.313,1.715c0,0.548-0.071,1.034-0.213,1.457
			c-0.141,0.423-0.322,0.774-0.544,1.051c-0.221,0.277-0.463,0.496-0.726,0.655c-0.264,0.159-0.581,0.28-0.952,0.362
			c-0.372,0.082-0.799,0.123-1.281,0.123H174.741z M175.797,63.713h1.702c0.526,0,0.938-0.044,1.238-0.133
			c0.299-0.088,0.537-0.213,0.715-0.374c0.25-0.227,0.445-0.531,0.585-0.913s0.21-0.846,0.21-1.391c0-0.754-0.138-1.334-0.411-1.74
			c-0.274-0.405-0.606-0.677-0.998-0.814c-0.283-0.099-0.738-0.147-1.365-0.147h-1.676V63.713z"/>
		<path d="M182.01,64.564l2.11-2.717l-1.953-2.51h1.224l0.887,1.226c0.167,0.233,0.302,0.428,0.403,0.585
			c0.159-0.216,0.306-0.408,0.44-0.576l0.974-1.235h1.17l-1.997,2.461l2.149,2.766h-1.202l-1.187-1.624l-0.315-0.438l-1.518,2.063
			H182.01z"/>
	</g>
	<g>
		<path d="M168.432,74.269l1.056,0.241c-0.222,0.784-0.62,1.382-1.194,1.794c-0.575,0.412-1.277,0.618-2.108,0.618
			c-0.859,0-1.559-0.158-2.097-0.475c-0.539-0.316-0.948-0.775-1.229-1.375s-0.422-1.245-0.422-1.935
			c0-0.751,0.159-1.407,0.477-1.966c0.317-0.56,0.769-0.984,1.354-1.275c0.585-0.291,1.229-0.436,1.934-0.436
			c0.798,0,1.469,0.184,2.013,0.551c0.544,0.367,0.923,0.884,1.137,1.55l-1.039,0.221c-0.185-0.525-0.453-0.907-0.805-1.146
			c-0.352-0.24-0.794-0.359-1.327-0.359c-0.613,0-1.126,0.133-1.537,0.398c-0.411,0.266-0.701,0.623-0.867,1.071
			c-0.167,0.448-0.251,0.91-0.251,1.385c0,0.614,0.099,1.149,0.297,1.607c0.197,0.458,0.505,0.8,0.922,1.026
			c0.417,0.227,0.868,0.34,1.354,0.34c0.591,0,1.092-0.154,1.502-0.463C168.009,75.334,168.286,74.876,168.432,74.269z"/>
		<path d="M170.298,74.186c0-0.968,0.297-1.685,0.892-2.151c0.497-0.387,1.103-0.581,1.817-0.581c0.794,0,1.443,0.235,1.947,0.707
			c0.504,0.471,0.756,1.121,0.756,1.951c0,0.673-0.111,1.202-0.334,1.587c-0.224,0.386-0.548,0.685-0.974,0.898
			c-0.427,0.213-0.892,0.32-1.396,0.32c-0.809,0-1.463-0.234-1.961-0.704C170.547,75.744,170.298,75.068,170.298,74.186z
			 M171.304,74.186c0,0.669,0.162,1.17,0.484,1.503c0.323,0.333,0.729,0.5,1.219,0.5c0.486,0,0.891-0.167,1.213-0.502
			c0.323-0.335,0.484-0.845,0.484-1.531c0-0.646-0.162-1.136-0.487-1.469c-0.324-0.333-0.728-0.5-1.21-0.5
			c-0.489,0-0.896,0.166-1.219,0.497C171.466,73.016,171.304,73.516,171.304,74.186z"/>
		<path d="M176.494,74.186c0-0.968,0.297-1.685,0.892-2.151c0.497-0.387,1.103-0.581,1.817-0.581c0.794,0,1.443,0.235,1.947,0.707
			c0.504,0.471,0.756,1.121,0.756,1.951c0,0.673-0.111,1.202-0.334,1.587c-0.224,0.386-0.548,0.685-0.974,0.898
			c-0.427,0.213-0.892,0.32-1.396,0.32c-0.809,0-1.463-0.234-1.961-0.704C176.743,75.744,176.494,75.068,176.494,74.186z
			 M177.5,74.186c0,0.669,0.162,1.17,0.484,1.503c0.323,0.333,0.729,0.5,1.219,0.5c0.486,0,0.891-0.167,1.213-0.502
			c0.323-0.335,0.484-0.845,0.484-1.531c0-0.646-0.162-1.136-0.487-1.469c-0.324-0.333-0.728-0.5-1.21-0.5
			c-0.489,0-0.896,0.166-1.219,0.497C177.662,73.016,177.5,73.516,177.5,74.186z"/>
		<path d="M183.032,76.799v-7.215h0.979v7.215H183.032z"/>
		<path d="M185.535,70.602v-1.019h0.979v1.019H185.535z M185.535,76.799v-5.227h0.979v5.227H185.535z"/>
		<path d="M188.005,76.799v-5.227h0.881v0.743c0.425-0.574,1.038-0.861,1.839-0.861c0.349,0,0.669,0.057,0.96,0.17
			c0.292,0.113,0.511,0.262,0.656,0.445c0.145,0.184,0.246,0.402,0.305,0.655c0.036,0.164,0.054,0.451,0.054,0.861v3.214h-0.979
			v-3.18c0-0.361-0.038-0.63-0.114-0.81c-0.076-0.179-0.212-0.321-0.405-0.428c-0.194-0.106-0.422-0.16-0.683-0.16
			c-0.417,0-0.777,0.12-1.08,0.359c-0.303,0.24-0.454,0.694-0.454,1.364v2.854H188.005z"/>
		<path d="M194.021,77.232l0.952,0.128c0.04,0.266,0.15,0.459,0.332,0.581c0.243,0.164,0.574,0.246,0.995,0.246
			c0.453,0,0.804-0.082,1.05-0.246c0.247-0.165,0.414-0.394,0.501-0.689c0.051-0.18,0.074-0.559,0.07-1.137
			c-0.428,0.456-0.961,0.684-1.599,0.684c-0.795,0-1.409-0.259-1.845-0.778c-0.436-0.518-0.652-1.14-0.652-1.865
			c0-0.499,0.1-0.959,0.299-1.38c0.199-0.422,0.488-0.748,0.868-0.977c0.379-0.23,0.823-0.345,1.335-0.345
			c0.682,0,1.244,0.25,1.687,0.748v-0.63h0.903v4.518c0,0.814-0.092,1.391-0.275,1.73c-0.183,0.339-0.473,0.607-0.87,0.805
			c-0.397,0.197-0.886,0.295-1.466,0.295c-0.689,0-1.246-0.14-1.67-0.42C194.211,78.219,194.006,77.796,194.021,77.232z
			 M194.831,74.092c0,0.686,0.15,1.186,0.452,1.501c0.301,0.315,0.678,0.473,1.131,0.473c0.45,0,0.827-0.157,1.132-0.47
			c0.305-0.313,0.457-0.805,0.457-1.474c0-0.64-0.157-1.122-0.471-1.447s-0.691-0.487-1.134-0.487c-0.436,0-0.806,0.16-1.11,0.48
			S194.831,73.462,194.831,74.092z"/>
	</g>
	<g>
		<path d="M177.791,86.277l1.056,0.241c-0.222,0.784-0.62,1.382-1.194,1.794c-0.575,0.412-1.277,0.618-2.108,0.618
			c-0.859,0-1.559-0.158-2.097-0.475c-0.539-0.316-0.948-0.775-1.229-1.375s-0.422-1.245-0.422-1.935
			c0-0.751,0.159-1.407,0.477-1.966c0.317-0.56,0.769-0.984,1.354-1.275c0.585-0.291,1.229-0.436,1.934-0.436
			c0.798,0,1.469,0.184,2.013,0.551c0.544,0.367,0.923,0.884,1.137,1.55l-1.039,0.221c-0.185-0.525-0.453-0.907-0.805-1.146
			c-0.352-0.24-0.794-0.359-1.327-0.359c-0.613,0-1.126,0.133-1.537,0.398c-0.411,0.266-0.701,0.623-0.867,1.071
			c-0.167,0.448-0.251,0.91-0.251,1.385c0,0.614,0.099,1.149,0.297,1.607c0.197,0.458,0.505,0.8,0.922,1.026
			c0.417,0.227,0.868,0.34,1.354,0.34c0.591,0,1.092-0.154,1.502-0.463C177.368,87.342,177.646,86.884,177.791,86.277z"/>
		<path d="M179.657,86.193c0-0.968,0.297-1.685,0.892-2.151c0.497-0.387,1.103-0.581,1.817-0.581c0.794,0,1.443,0.235,1.947,0.707
			c0.504,0.471,0.756,1.121,0.756,1.951c0,0.673-0.111,1.202-0.334,1.587c-0.224,0.386-0.548,0.685-0.974,0.898
			c-0.427,0.213-0.892,0.32-1.396,0.32c-0.809,0-1.463-0.234-1.961-0.704C179.906,87.752,179.657,87.076,179.657,86.193z
			 M180.663,86.193c0,0.669,0.162,1.17,0.484,1.503c0.323,0.333,0.729,0.5,1.219,0.5c0.486,0,0.891-0.167,1.213-0.502
			c0.323-0.335,0.484-0.845,0.484-1.531c0-0.646-0.162-1.136-0.487-1.469c-0.324-0.333-0.728-0.5-1.21-0.5
			c-0.489,0-0.896,0.166-1.219,0.497C180.825,85.023,180.663,85.524,180.663,86.193z"/>
		<path d="M186.224,82.61v-1.019h0.979v1.019H186.224z M186.224,88.807V83.58h0.979v5.227H186.224z"/>
		<path d="M188.671,88.807v-7.215h0.979v7.215H188.671z"/>
	</g>
	<g>
		<path d="M22.905,67.924l3.063-7.215h1.137l3.264,7.215h-1.202l-0.93-2.186h-3.335l-0.875,2.186H22.905z M25.206,64.961h2.704
			l-0.832-1.999c-0.254-0.607-0.442-1.105-0.566-1.496c-0.102,0.463-0.245,0.922-0.43,1.378L25.206,64.961z"/>
		<path d="M31.092,61.727v-1.019h0.979v1.019H31.092z M31.092,67.924v-5.227h0.979v5.227H31.092z"/>
		<path d="M33.551,67.924v-5.227h0.881v0.792c0.225-0.371,0.432-0.615,0.623-0.733s0.4-0.177,0.628-0.177
			c0.33,0,0.666,0.095,1.006,0.286l-0.337,0.822c-0.239-0.128-0.479-0.192-0.718-0.192c-0.214,0-0.406,0.058-0.577,0.175
			c-0.17,0.116-0.292,0.278-0.365,0.485c-0.108,0.315-0.163,0.659-0.163,1.034v2.736H33.551z"/>
	</g>
	<g>
		<path d="M18.698,79.924v-7.215h1.056v6.364h3.927v0.852H18.698z"/>
		<path d="M24.448,77.311c0-0.968,0.297-1.685,0.892-2.151c0.497-0.387,1.103-0.581,1.817-0.581c0.794,0,1.443,0.235,1.947,0.707
			c0.504,0.471,0.756,1.121,0.756,1.951c0,0.673-0.111,1.202-0.334,1.587c-0.223,0.386-0.548,0.685-0.974,0.898
			c-0.426,0.213-0.892,0.32-1.396,0.32c-0.809,0-1.462-0.234-1.961-0.704C24.697,78.869,24.448,78.193,24.448,77.311z
			 M25.455,77.311c0,0.669,0.161,1.17,0.484,1.503s0.729,0.5,1.219,0.5c0.486,0,0.89-0.167,1.213-0.502
			c0.323-0.335,0.484-0.845,0.484-1.531c0-0.646-0.163-1.136-0.487-1.469c-0.325-0.333-0.728-0.5-1.21-0.5
			c-0.49,0-0.896,0.166-1.219,0.497S25.455,76.641,25.455,77.311z"/>
		<path d="M30.644,77.311c0-0.968,0.297-1.685,0.892-2.151c0.497-0.387,1.103-0.581,1.817-0.581c0.794,0,1.443,0.235,1.947,0.707
			c0.504,0.471,0.756,1.121,0.756,1.951c0,0.673-0.111,1.202-0.334,1.587c-0.223,0.386-0.548,0.685-0.974,0.898
			c-0.426,0.213-0.892,0.32-1.396,0.32c-0.809,0-1.462-0.234-1.961-0.704C30.893,78.869,30.644,78.193,30.644,77.311z M31.65,77.311
			c0,0.669,0.161,1.17,0.484,1.503s0.729,0.5,1.219,0.5c0.486,0,0.89-0.167,1.213-0.502c0.323-0.335,0.484-0.845,0.484-1.531
			c0-0.646-0.163-1.136-0.487-1.469c-0.325-0.333-0.728-0.5-1.21-0.5c-0.49,0-0.896,0.166-1.219,0.497S31.65,76.641,31.65,77.311z"
			/>
		<path d="M37.205,81.927v-7.23h0.892v0.679c0.21-0.266,0.448-0.465,0.713-0.598c0.265-0.133,0.585-0.199,0.963-0.199
			c0.493,0,0.928,0.115,1.305,0.345c0.377,0.229,0.662,0.554,0.854,0.972c0.192,0.418,0.288,0.876,0.288,1.375
			c0,0.535-0.106,1.016-0.318,1.444c-0.212,0.428-0.521,0.756-0.925,0.984s-0.83,0.342-1.275,0.342c-0.327,0-0.62-0.063-0.878-0.187
			c-0.26-0.125-0.473-0.282-0.64-0.473v2.545H37.205z M38.091,77.34c0,0.673,0.15,1.17,0.452,1.491
			c0.301,0.322,0.666,0.482,1.093,0.482c0.435,0,0.808-0.167,1.118-0.5s0.465-0.849,0.465-1.548c0-0.666-0.151-1.165-0.454-1.497
			c-0.303-0.331-0.665-0.497-1.085-0.497c-0.417,0-0.786,0.177-1.107,0.529S38.091,76.667,38.091,77.34z"/>
	</g>
	<g>
		<path d="M32.027,105.119v-0.886l4.085-4.622c0.29-0.328,0.565-0.613,0.827-0.856h-4.45v-0.852h5.712v0.852l-4.477,5.005
			l-0.484,0.507h5.092v0.852H32.027z"/>
		<path d="M38.979,102.506c0-0.968,0.297-1.685,0.892-2.151c0.497-0.387,1.103-0.581,1.817-0.581c0.794,0,1.443,0.235,1.947,0.707
			c0.504,0.471,0.756,1.121,0.756,1.951c0,0.673-0.111,1.202-0.334,1.587c-0.223,0.386-0.548,0.685-0.974,0.898
			c-0.426,0.213-0.892,0.32-1.396,0.32c-0.809,0-1.462-0.234-1.961-0.704C39.228,104.064,38.979,103.388,38.979,102.506z
			 M39.985,102.506c0,0.669,0.161,1.17,0.484,1.503s0.729,0.5,1.219,0.5c0.486,0,0.89-0.167,1.213-0.502
			c0.323-0.335,0.484-0.845,0.484-1.531c0-0.646-0.163-1.136-0.487-1.469c-0.325-0.333-0.728-0.5-1.21-0.5
			c-0.49,0-0.896,0.166-1.219,0.497S39.985,101.836,39.985,102.506z"/>
		<path d="M45.54,105.119v-5.227h0.881v0.743c0.424-0.574,1.037-0.861,1.839-0.861c0.348,0,0.668,0.057,0.96,0.17
			s0.51,0.262,0.655,0.445c0.145,0.184,0.247,0.402,0.305,0.655c0.037,0.164,0.055,0.451,0.055,0.861v3.214h-0.979v-3.18
			c0-0.361-0.038-0.63-0.114-0.81c-0.076-0.179-0.211-0.321-0.405-0.428c-0.194-0.106-0.421-0.16-0.683-0.16
			c-0.417,0-0.777,0.12-1.08,0.359c-0.303,0.24-0.455,0.694-0.455,1.364v2.854H45.54z"/>
		<path d="M55.691,103.436l1.012,0.113c-0.16,0.535-0.455,0.95-0.887,1.246s-0.983,0.443-1.654,0.443
			c-0.845,0-1.515-0.235-2.01-0.707c-0.495-0.471-0.742-1.131-0.742-1.981c0-0.879,0.25-1.562,0.75-2.047
			c0.5-0.485,1.149-0.729,1.948-0.729c0.772,0,1.403,0.238,1.893,0.714c0.489,0.476,0.734,1.145,0.734,2.008
			c0,0.053-0.002,0.131-0.005,0.236h-4.309c0.036,0.574,0.216,1.014,0.539,1.319s0.725,0.458,1.208,0.458
			c0.359,0,0.666-0.085,0.919-0.256S55.542,103.81,55.691,103.436z M52.476,102.003h3.226c-0.043-0.439-0.167-0.769-0.37-0.989
			c-0.312-0.341-0.716-0.512-1.213-0.512c-0.45,0-0.828,0.136-1.134,0.409C52.678,101.183,52.508,101.547,52.476,102.003z"/>
	</g>
	<g>
		<path d="M18.763,117.127v-7.215h5.766v0.852h-4.711v2.209h4.412v0.847h-4.412v2.456h4.896v0.852H18.763z"/>
		<path d="M29.73,119.13v-2.56c-0.152,0.194-0.366,0.354-0.64,0.482c-0.273,0.128-0.564,0.192-0.873,0.192
			c-0.685,0-1.275-0.248-1.771-0.743s-0.743-1.175-0.743-2.038c0-0.525,0.101-0.996,0.302-1.413
			c0.202-0.417,0.493-0.732,0.876-0.948c0.383-0.215,0.802-0.322,1.259-0.322c0.714,0,1.277,0.272,1.687,0.817V111.9h0.881v7.23
			H29.73z M26.711,114.499c0,0.673,0.156,1.177,0.468,1.514c0.312,0.336,0.686,0.504,1.121,0.504c0.417,0,0.776-0.16,1.077-0.48
			c0.301-0.32,0.452-0.806,0.452-1.459c0-0.696-0.159-1.219-0.476-1.57s-0.69-0.527-1.118-0.527c-0.424,0-0.784,0.164-1.08,0.49
			C26.859,113.297,26.711,113.806,26.711,114.499z"/>
		<path d="M36.029,117.127v-0.768c-0.45,0.59-1.061,0.886-1.833,0.886c-0.341,0-0.659-0.059-0.955-0.177
			c-0.295-0.118-0.515-0.267-0.658-0.445c-0.143-0.179-0.244-0.398-0.302-0.657c-0.04-0.174-0.06-0.449-0.06-0.827V111.9h0.979
			v2.899c0,0.463,0.02,0.774,0.06,0.935c0.062,0.233,0.192,0.416,0.392,0.549c0.199,0.133,0.446,0.2,0.74,0.2
			c0.293,0,0.569-0.068,0.827-0.205s0.44-0.321,0.547-0.556c0.107-0.234,0.161-0.575,0.161-1.021V111.9h0.979v5.227H36.029z"/>
		<path d="M38.445,110.93v-1.019h0.979v1.019H38.445z M38.445,117.127V111.9h0.979v5.227H38.445z"/>
		<path d="M40.915,119.13v-7.23h0.892v0.679c0.21-0.266,0.448-0.465,0.713-0.598c0.265-0.133,0.585-0.199,0.963-0.199
			c0.493,0,0.928,0.115,1.305,0.345c0.377,0.229,0.662,0.554,0.854,0.972c0.192,0.418,0.288,0.876,0.288,1.375
			c0,0.535-0.106,1.016-0.318,1.444c-0.212,0.428-0.521,0.756-0.925,0.984s-0.83,0.342-1.275,0.342c-0.327,0-0.62-0.063-0.878-0.187
			c-0.26-0.125-0.473-0.282-0.64-0.473v2.545H40.915z M41.801,114.543c0,0.673,0.15,1.17,0.452,1.491
			c0.301,0.322,0.666,0.482,1.093,0.482c0.435,0,0.808-0.167,1.118-0.5s0.465-0.849,0.465-1.548c0-0.666-0.151-1.165-0.454-1.497
			c-0.303-0.331-0.665-0.497-1.085-0.497c-0.417,0-0.786,0.177-1.107,0.529S41.801,113.871,41.801,114.543z"/>
		<path d="M47.111,117.127V111.9h0.876v0.733c0.181-0.256,0.422-0.462,0.724-0.618c0.301-0.156,0.644-0.234,1.028-0.234
			c0.428,0,0.779,0.081,1.053,0.241s0.467,0.386,0.579,0.674c0.457-0.61,1.052-0.916,1.785-0.916c0.573,0,1.014,0.144,1.322,0.431
			s0.462,0.729,0.462,1.327v3.588h-0.974v-3.293c0-0.354-0.032-0.609-0.095-0.765s-0.179-0.281-0.346-0.376
			c-0.167-0.095-0.362-0.143-0.587-0.143c-0.406,0-0.744,0.122-1.012,0.367c-0.269,0.244-0.403,0.636-0.403,1.174v3.037h-0.979
			v-3.396c0-0.394-0.08-0.689-0.239-0.886c-0.16-0.197-0.421-0.295-0.783-0.295c-0.276,0-0.531,0.065-0.765,0.197
			s-0.403,0.323-0.508,0.576c-0.105,0.253-0.158,0.617-0.158,1.093v2.712H47.111z"/>
		<path d="M60.346,115.444l1.012,0.113c-0.16,0.535-0.455,0.95-0.887,1.246s-0.983,0.443-1.654,0.443
			c-0.845,0-1.515-0.235-2.01-0.707c-0.495-0.471-0.742-1.131-0.742-1.981c0-0.879,0.25-1.562,0.75-2.047
			c0.5-0.485,1.149-0.729,1.948-0.729c0.772,0,1.403,0.238,1.893,0.714c0.489,0.476,0.734,1.145,0.734,2.008
			c0,0.053-0.002,0.131-0.005,0.236h-4.309c0.036,0.574,0.216,1.014,0.539,1.319s0.725,0.458,1.208,0.458
			c0.359,0,0.666-0.085,0.919-0.256S60.197,115.818,60.346,115.444z M57.131,114.011h3.226c-0.043-0.439-0.167-0.769-0.37-0.989
			c-0.312-0.341-0.716-0.512-1.213-0.512c-0.45,0-0.828,0.136-1.134,0.409C57.333,113.191,57.164,113.555,57.131,114.011z"/>
		<path d="M62.587,117.127V111.9h0.881v0.743c0.424-0.574,1.037-0.861,1.839-0.861c0.348,0,0.668,0.057,0.96,0.17
			s0.51,0.262,0.655,0.445c0.145,0.184,0.247,0.402,0.305,0.655c0.037,0.164,0.055,0.451,0.055,0.861v3.214h-0.979v-3.18
			c0-0.361-0.038-0.63-0.114-0.81c-0.076-0.179-0.211-0.321-0.405-0.428c-0.194-0.106-0.421-0.16-0.683-0.16
			c-0.417,0-0.777,0.12-1.08,0.359c-0.303,0.24-0.455,0.694-0.455,1.364v2.854H62.587z"/>
		<path d="M70.921,116.334l0.142,0.783c-0.275,0.052-0.522,0.079-0.74,0.079c-0.355,0-0.631-0.051-0.827-0.152
			c-0.196-0.102-0.334-0.235-0.414-0.401c-0.08-0.166-0.12-0.514-0.12-1.046v-3.007h-0.718V111.9h0.718v-1.294l0.974-0.532v1.826
			h0.984v0.689h-0.984v3.057c0,0.252,0.017,0.415,0.052,0.487c0.034,0.072,0.09,0.129,0.168,0.172
			c0.078,0.042,0.189,0.064,0.334,0.064C70.601,116.369,70.744,116.357,70.921,116.334z"/>
	</g>
	<g>
		<path d="M75.464,253.689v-0.886l4.085-4.622c0.29-0.328,0.565-0.613,0.827-0.856h-4.45v-0.852h5.712v0.852l-4.477,5.006
			l-0.484,0.507h5.092v0.852H75.464z"/>
		<path d="M82.417,251.076c0-0.968,0.297-1.686,0.892-2.151c0.497-0.387,1.103-0.58,1.817-0.58c0.794,0,1.443,0.235,1.947,0.706
			c0.504,0.471,0.756,1.121,0.756,1.951c0,0.673-0.111,1.202-0.334,1.588c-0.223,0.385-0.548,0.685-0.974,0.897
			c-0.426,0.214-0.892,0.32-1.396,0.32c-0.809,0-1.462-0.234-1.961-0.704C82.666,252.635,82.417,251.959,82.417,251.076z
			 M83.423,251.076c0,0.669,0.161,1.17,0.484,1.503c0.323,0.334,0.729,0.5,1.219,0.5c0.486,0,0.89-0.167,1.213-0.502
			s0.484-0.845,0.484-1.53c0-0.646-0.163-1.137-0.487-1.47c-0.325-0.333-0.728-0.499-1.21-0.499c-0.49,0-0.896,0.165-1.219,0.497
			C83.584,249.906,83.423,250.406,83.423,251.076z"/>
		<path d="M88.977,253.689v-5.227h0.881v0.743c0.424-0.574,1.037-0.861,1.839-0.861c0.348,0,0.668,0.057,0.96,0.169
			c0.292,0.113,0.51,0.262,0.655,0.446c0.145,0.184,0.247,0.401,0.305,0.654c0.037,0.164,0.055,0.451,0.055,0.861v3.214h-0.979
			v-3.18c0-0.36-0.038-0.631-0.114-0.81s-0.211-0.321-0.405-0.428c-0.194-0.107-0.421-0.16-0.683-0.16
			c-0.417,0-0.777,0.119-1.08,0.359c-0.303,0.239-0.455,0.693-0.455,1.363v2.854H88.977z"/>
		<path d="M99.128,252.006l1.012,0.113c-0.16,0.535-0.455,0.95-0.887,1.245c-0.432,0.296-0.983,0.443-1.654,0.443
			c-0.845,0-1.515-0.235-2.01-0.706s-0.742-1.132-0.742-1.981c0-0.879,0.25-1.562,0.75-2.048c0.5-0.485,1.149-0.728,1.948-0.728
			c0.772,0,1.403,0.237,1.893,0.713c0.489,0.477,0.734,1.146,0.734,2.009c0,0.052-0.002,0.131-0.005,0.236h-4.309
			c0.036,0.574,0.216,1.014,0.539,1.318c0.323,0.306,0.725,0.458,1.208,0.458c0.359,0,0.666-0.085,0.919-0.256
			S98.979,252.38,99.128,252.006z M95.913,250.574h3.226c-0.043-0.44-0.167-0.77-0.37-0.989c-0.312-0.342-0.716-0.513-1.213-0.513
			c-0.45,0-0.828,0.137-1.134,0.409C96.115,249.754,95.946,250.118,95.913,250.574z"/>
		<path d="M109.339,252.838v0.852h-5.271c-0.007-0.213,0.031-0.418,0.114-0.615c0.134-0.325,0.349-0.645,0.645-0.96
			c0.295-0.314,0.723-0.679,1.281-1.093c0.867-0.643,1.452-1.152,1.757-1.528c0.305-0.375,0.457-0.73,0.457-1.065
			c0-0.351-0.139-0.647-0.416-0.888c-0.277-0.241-0.639-0.362-1.085-0.362c-0.471,0-0.849,0.128-1.131,0.384
			c-0.283,0.256-0.426,0.61-0.43,1.063l-1.006-0.094c0.069-0.679,0.328-1.196,0.778-1.553s1.053-0.534,1.812-0.534
			c0.765,0,1.371,0.192,1.817,0.576c0.446,0.384,0.669,0.859,0.669,1.427c0,0.289-0.065,0.573-0.196,0.852
			c-0.13,0.279-0.347,0.573-0.65,0.881c-0.303,0.309-0.806,0.732-1.51,1.271c-0.587,0.446-0.965,0.749-1.131,0.908
			c-0.167,0.159-0.305,0.318-0.414,0.479H109.339z"/>
	</g>
	<g>
		<path d="M84.728,264.006l1.012,0.113c-0.16,0.535-0.455,0.95-0.887,1.245c-0.432,0.296-0.983,0.443-1.654,0.443
			c-0.845,0-1.515-0.235-2.01-0.706s-0.742-1.132-0.742-1.981c0-0.879,0.25-1.562,0.75-2.048c0.5-0.485,1.149-0.728,1.948-0.728
			c0.772,0,1.403,0.237,1.893,0.713c0.489,0.477,0.734,1.146,0.734,2.009c0,0.052-0.002,0.131-0.005,0.236h-4.309
			c0.036,0.574,0.216,1.014,0.539,1.318c0.323,0.306,0.725,0.458,1.208,0.458c0.359,0,0.666-0.085,0.919-0.256
			S84.579,264.38,84.728,264.006z M81.512,262.574h3.226c-0.043-0.44-0.167-0.77-0.37-0.989c-0.312-0.342-0.716-0.513-1.213-0.513
			c-0.45,0-0.828,0.137-1.134,0.409C81.714,261.754,81.545,262.118,81.512,262.574z"/>
		<path d="M89.106,264.897l0.142,0.782c-0.275,0.053-0.522,0.079-0.74,0.079c-0.355,0-0.631-0.052-0.827-0.153
			c-0.196-0.102-0.334-0.235-0.414-0.4c-0.08-0.166-0.12-0.515-0.12-1.046v-3.008H86.43v-0.688h0.718v-1.295l0.974-0.531v1.826
			h0.984v0.688h-0.984v3.057c0,0.253,0.017,0.415,0.052,0.487c0.034,0.072,0.09,0.13,0.168,0.172
			c0.078,0.043,0.189,0.064,0.334,0.064C88.786,264.932,88.929,264.92,89.106,264.897z"/>
		<path d="M93.834,263.774l0.963,0.113c-0.105,0.601-0.375,1.071-0.808,1.41c-0.433,0.34-0.965,0.51-1.597,0.51
			c-0.791,0-1.426-0.233-1.907-0.701c-0.48-0.468-0.721-1.138-0.721-2.011c0-0.564,0.104-1.059,0.31-1.481
			c0.207-0.424,0.521-0.741,0.944-0.952c0.422-0.212,0.882-0.317,1.379-0.317c0.627,0,1.14,0.144,1.539,0.431
			s0.655,0.694,0.767,1.223l-0.952,0.133c-0.091-0.351-0.251-0.615-0.481-0.792c-0.23-0.178-0.509-0.267-0.835-0.267
			c-0.494,0-0.894,0.16-1.203,0.48c-0.308,0.319-0.462,0.826-0.462,1.519c0,0.702,0.149,1.212,0.446,1.53s0.686,0.478,1.164,0.478
			c0.384,0,0.706-0.106,0.963-0.32C93.602,264.546,93.765,264.218,93.834,263.774z"/>
		<path d="M95.912,265.689v-1.009h1.115v1.009H95.912z"/>
		<path d="M99.007,265.689v-1.009h1.115v1.009H99.007z"/>
		<path d="M102.103,265.689v-1.009h1.115v1.009H102.103z"/>
	</g>
	<polyline fill="none" stroke="#FFFFFF" stroke-width="0.24" stroke-linecap="square" stroke-miterlimit="10" points="
		95.64,286.085 98.28,286.085 98.28,284.165 95.64,284.165 95.64,286.085 	"/>
	<g>
		<path d="M167.177,247.682v-6.364h-2.628v-0.852h6.321v0.852h-2.638v6.364H167.177z"/>
		<path d="M174.548,245.998l1.012,0.113c-0.16,0.535-0.455,0.95-0.887,1.245c-0.432,0.296-0.983,0.443-1.654,0.443
			c-0.845,0-1.515-0.235-2.01-0.706s-0.742-1.132-0.742-1.981c0-0.879,0.25-1.562,0.751-2.048c0.5-0.485,1.149-0.728,1.947-0.728
			c0.772,0,1.403,0.237,1.893,0.713c0.49,0.477,0.734,1.146,0.734,2.009c0,0.052-0.002,0.131-0.005,0.236h-4.309
			c0.036,0.574,0.216,1.014,0.538,1.318c0.323,0.306,0.726,0.458,1.208,0.458c0.359,0,0.665-0.085,0.919-0.256
			S174.398,246.372,174.548,245.998z M171.333,244.566h3.226c-0.044-0.44-0.167-0.77-0.37-0.989
			c-0.312-0.342-0.716-0.513-1.213-0.513c-0.45,0-0.828,0.137-1.135,0.409C171.535,243.746,171.365,244.11,171.333,244.566z"/>
		<path d="M176.778,247.682v-5.227h0.881v0.792c0.226-0.371,0.433-0.615,0.623-0.733s0.4-0.177,0.629-0.177
			c0.329,0,0.665,0.095,1.006,0.285l-0.337,0.822c-0.239-0.128-0.479-0.192-0.719-0.192c-0.214,0-0.406,0.059-0.576,0.175
			c-0.171,0.116-0.292,0.278-0.364,0.484c-0.109,0.315-0.163,0.66-0.163,1.034v2.736H176.778z"/>
		<path d="M180.499,247.682v-5.227h0.876v0.732c0.182-0.256,0.422-0.461,0.724-0.617c0.301-0.156,0.644-0.233,1.028-0.233
			c0.428,0,0.778,0.08,1.052,0.241c0.274,0.16,0.468,0.385,0.58,0.674c0.457-0.61,1.052-0.915,1.784-0.915
			c0.573,0,1.014,0.144,1.322,0.431c0.308,0.287,0.462,0.729,0.462,1.326v3.588h-0.974v-3.293c0-0.354-0.032-0.609-0.096-0.765
			c-0.063-0.156-0.179-0.282-0.345-0.377c-0.167-0.095-0.363-0.143-0.588-0.143c-0.406,0-0.743,0.122-1.012,0.366
			c-0.269,0.245-0.402,0.636-0.402,1.174v3.037h-0.979v-3.396c0-0.394-0.08-0.688-0.239-0.886c-0.16-0.196-0.421-0.295-0.783-0.295
			c-0.276,0-0.53,0.065-0.765,0.196c-0.233,0.132-0.403,0.323-0.509,0.576c-0.104,0.253-0.157,0.617-0.157,1.093v2.712H180.499z"/>
		<path d="M189.785,241.485v-1.02h0.979v1.02H189.785z M189.785,247.682v-5.227h0.979v5.227H189.785z"/>
		<path d="M192.255,247.682v-5.227h0.881v0.743c0.425-0.574,1.038-0.861,1.839-0.861c0.349,0,0.669,0.057,0.96,0.169
			c0.292,0.113,0.511,0.262,0.656,0.446c0.145,0.184,0.246,0.401,0.305,0.654c0.036,0.164,0.054,0.451,0.054,0.861v3.214h-0.979
			v-3.18c0-0.36-0.038-0.631-0.114-0.81s-0.212-0.321-0.405-0.428c-0.194-0.107-0.422-0.16-0.683-0.16
			c-0.417,0-0.777,0.119-1.08,0.359c-0.303,0.239-0.454,0.693-0.454,1.363v2.854H192.255z"/>
		<path d="M202.221,247.037c-0.362,0.278-0.711,0.476-1.047,0.591c-0.335,0.114-0.695,0.172-1.08,0.172
			c-0.635,0-1.122-0.141-1.463-0.421s-0.512-0.639-0.512-1.075c0-0.256,0.064-0.49,0.193-0.701c0.129-0.212,0.297-0.382,0.506-0.51
			s0.443-0.225,0.704-0.29c0.192-0.046,0.482-0.091,0.871-0.133c0.79-0.086,1.372-0.188,1.746-0.306
			c0.003-0.121,0.005-0.198,0.005-0.231c0-0.36-0.092-0.615-0.277-0.763c-0.25-0.2-0.622-0.3-1.115-0.3
			c-0.46,0-0.8,0.072-1.02,0.219c-0.22,0.146-0.382,0.404-0.487,0.775l-0.957-0.118c0.087-0.371,0.23-0.671,0.43-0.898
			c0.199-0.229,0.487-0.403,0.865-0.526c0.377-0.123,0.813-0.185,1.311-0.185c0.493,0,0.895,0.052,1.202,0.157
			c0.309,0.104,0.535,0.237,0.681,0.396c0.145,0.159,0.246,0.359,0.305,0.603c0.032,0.151,0.049,0.423,0.049,0.817v1.181
			c0,0.824,0.021,1.345,0.063,1.563c0.041,0.219,0.124,0.428,0.247,0.628h-1.022C202.315,247.498,202.25,247.283,202.221,247.037z
			 M202.14,245.059c-0.355,0.131-0.889,0.242-1.6,0.334c-0.402,0.053-0.688,0.112-0.854,0.178c-0.167,0.065-0.296,0.161-0.387,0.288
			c-0.091,0.126-0.136,0.267-0.136,0.421c0,0.236,0.099,0.433,0.296,0.59c0.198,0.158,0.487,0.236,0.868,0.236
			c0.377,0,0.713-0.074,1.006-0.224c0.294-0.149,0.51-0.354,0.647-0.612c0.105-0.2,0.158-0.496,0.158-0.887V245.059z"/>
		<path d="M204.626,247.682v-7.216h0.979v7.216H204.626z"/>
	</g>
	<g>
		<path d="M158.68,259.682v-7.216h3.536c0.711,0,1.251,0.065,1.621,0.194c0.37,0.13,0.665,0.359,0.887,0.688
			c0.221,0.328,0.332,0.69,0.332,1.087c0,0.513-0.184,0.943-0.55,1.295c-0.366,0.351-0.933,0.574-1.697,0.669
			c0.279,0.122,0.491,0.241,0.637,0.359c0.308,0.256,0.6,0.576,0.875,0.96l1.388,1.964h-1.327l-1.056-1.501
			c-0.309-0.434-0.563-0.765-0.762-0.994s-0.378-0.391-0.535-0.482c-0.158-0.092-0.318-0.156-0.481-0.192
			c-0.12-0.022-0.316-0.034-0.588-0.034h-1.224v3.204H158.68z M159.735,255.65h2.268c0.482,0,0.86-0.045,1.132-0.135
			c0.272-0.091,0.479-0.235,0.62-0.434s0.212-0.414,0.212-0.647c0-0.341-0.137-0.621-0.41-0.841c-0.274-0.221-0.706-0.33-1.298-0.33
			h-2.523V255.65z"/>
		<path d="M170.539,257.998l1.012,0.113c-0.16,0.535-0.455,0.95-0.887,1.245c-0.432,0.296-0.983,0.443-1.654,0.443
			c-0.845,0-1.515-0.235-2.01-0.706s-0.742-1.132-0.742-1.981c0-0.879,0.25-1.562,0.751-2.048c0.5-0.485,1.149-0.728,1.947-0.728
			c0.772,0,1.403,0.237,1.893,0.713c0.49,0.477,0.734,1.146,0.734,2.009c0,0.052-0.002,0.131-0.005,0.236h-4.309
			c0.036,0.574,0.216,1.014,0.538,1.318c0.323,0.306,0.726,0.458,1.208,0.458c0.359,0,0.665-0.085,0.919-0.256
			S170.39,258.372,170.539,257.998z M167.324,256.566h3.226c-0.044-0.44-0.167-0.77-0.37-0.989
			c-0.312-0.342-0.716-0.513-1.213-0.513c-0.45,0-0.828,0.137-1.135,0.409C167.526,255.746,167.356,256.11,167.324,256.566z"/>
		<path d="M172.78,259.682v-7.216h0.979v2.589c0.457-0.479,1.033-0.718,1.729-0.718c0.428,0,0.8,0.076,1.115,0.229
			s0.541,0.363,0.678,0.633c0.136,0.269,0.204,0.659,0.204,1.171v3.313h-0.979v-3.313c0-0.443-0.106-0.766-0.318-0.967
			c-0.212-0.202-0.513-0.303-0.9-0.303c-0.29,0-0.563,0.068-0.818,0.204c-0.256,0.136-0.438,0.32-0.547,0.554
			c-0.109,0.233-0.163,0.555-0.163,0.965v2.859H172.78z"/>
		<path d="M182.931,257.998l1.012,0.113c-0.16,0.535-0.455,0.95-0.887,1.245c-0.432,0.296-0.983,0.443-1.654,0.443
			c-0.845,0-1.515-0.235-2.01-0.706s-0.742-1.132-0.742-1.981c0-0.879,0.25-1.562,0.751-2.048c0.5-0.485,1.149-0.728,1.947-0.728
			c0.772,0,1.403,0.237,1.893,0.713c0.49,0.477,0.734,1.146,0.734,2.009c0,0.052-0.002,0.131-0.005,0.236h-4.309
			c0.036,0.574,0.216,1.014,0.538,1.318c0.323,0.306,0.726,0.458,1.208,0.458c0.359,0,0.665-0.085,0.919-0.256
			S182.781,258.372,182.931,257.998z M179.716,256.566h3.226c-0.044-0.44-0.167-0.77-0.37-0.989
			c-0.312-0.342-0.716-0.513-1.213-0.513c-0.45,0-0.828,0.137-1.135,0.409C179.918,255.746,179.748,256.11,179.716,256.566z"/>
		<path d="M188.941,259.037c-0.362,0.278-0.711,0.476-1.047,0.591c-0.335,0.114-0.695,0.172-1.08,0.172
			c-0.635,0-1.122-0.141-1.463-0.421s-0.512-0.639-0.512-1.075c0-0.256,0.064-0.49,0.193-0.701c0.129-0.212,0.297-0.382,0.506-0.51
			s0.443-0.225,0.704-0.29c0.192-0.046,0.482-0.091,0.871-0.133c0.79-0.086,1.372-0.188,1.746-0.306
			c0.003-0.121,0.005-0.198,0.005-0.231c0-0.36-0.092-0.615-0.277-0.763c-0.25-0.2-0.622-0.3-1.115-0.3
			c-0.46,0-0.8,0.072-1.02,0.219c-0.22,0.146-0.382,0.404-0.487,0.775l-0.957-0.118c0.087-0.371,0.23-0.671,0.43-0.898
			c0.199-0.229,0.487-0.403,0.865-0.526c0.377-0.123,0.813-0.185,1.311-0.185c0.493,0,0.895,0.052,1.202,0.157
			c0.309,0.104,0.535,0.237,0.681,0.396c0.145,0.159,0.246,0.359,0.305,0.603c0.032,0.151,0.049,0.423,0.049,0.817v1.181
			c0,0.824,0.021,1.345,0.063,1.563c0.041,0.219,0.124,0.428,0.247,0.628h-1.022C189.036,259.498,188.971,259.283,188.941,259.037z
			 M188.86,257.059c-0.355,0.131-0.889,0.242-1.6,0.334c-0.402,0.053-0.688,0.112-0.854,0.178c-0.167,0.065-0.296,0.161-0.387,0.288
			c-0.091,0.126-0.136,0.267-0.136,0.421c0,0.236,0.099,0.433,0.296,0.59c0.198,0.158,0.487,0.236,0.868,0.236
			c0.377,0,0.713-0.074,1.006-0.224c0.294-0.149,0.51-0.354,0.647-0.612c0.105-0.2,0.158-0.496,0.158-0.887V257.059z"/>
		<path d="M193.506,258.89l0.142,0.782c-0.275,0.053-0.522,0.079-0.74,0.079c-0.355,0-0.631-0.052-0.826-0.153
			c-0.196-0.102-0.334-0.235-0.414-0.4c-0.079-0.166-0.119-0.515-0.119-1.046v-3.008h-0.718v-0.688h0.718v-1.295l0.974-0.531v1.826
			h0.984v0.688h-0.984v3.057c0,0.253,0.018,0.415,0.052,0.487s0.091,0.13,0.169,0.172c0.077,0.043,0.189,0.064,0.334,0.064
			C193.186,258.924,193.328,258.912,193.506,258.89z"/>
		<path d="M202.917,252.466h1.056v4.169c0,0.726-0.091,1.302-0.272,1.728c-0.182,0.427-0.509,0.773-0.981,1.041
			c-0.474,0.268-1.095,0.401-1.863,0.401c-0.747,0-1.358-0.116-1.834-0.35c-0.475-0.232-0.813-0.57-1.017-1.012
			c-0.203-0.44-0.305-1.044-0.305-1.809v-4.169h1.056v4.164c0,0.627,0.063,1.089,0.192,1.386s0.351,0.525,0.664,0.687
			s0.697,0.241,1.15,0.241c0.776,0,1.329-0.159,1.659-0.478s0.495-0.93,0.495-1.836V252.466z"/>
		<path d="M205.604,259.682v-5.227h0.881v0.743c0.425-0.574,1.038-0.861,1.839-0.861c0.349,0,0.669,0.057,0.96,0.169
			c0.292,0.113,0.511,0.262,0.656,0.446c0.145,0.184,0.246,0.401,0.305,0.654c0.036,0.164,0.054,0.451,0.054,0.861v3.214h-0.979
			v-3.18c0-0.36-0.038-0.631-0.114-0.81s-0.212-0.321-0.405-0.428c-0.194-0.107-0.422-0.16-0.683-0.16
			c-0.417,0-0.777,0.119-1.08,0.359c-0.303,0.239-0.454,0.693-0.454,1.363v2.854H205.604z"/>
		<path d="M211.807,253.485v-1.02h0.979v1.02H211.807z M211.807,259.682v-5.227h0.979v5.227H211.807z"/>
		<path d="M216.414,258.89l0.142,0.782c-0.275,0.053-0.522,0.079-0.74,0.079c-0.355,0-0.631-0.052-0.826-0.153
			c-0.196-0.102-0.334-0.235-0.414-0.4c-0.079-0.166-0.119-0.515-0.119-1.046v-3.008h-0.718v-0.688h0.718v-1.295l0.974-0.531v1.826
			h0.984v0.688h-0.984v3.057c0,0.253,0.018,0.415,0.052,0.487s0.091,0.13,0.169,0.172c0.077,0.043,0.189,0.064,0.334,0.064
			C216.094,258.924,216.236,258.912,216.414,258.89z"/>
	</g>
	
		<polygon fill-rule="evenodd" clip-rule="evenodd" fill="#FFFFFF" stroke="#000000" stroke-width="0.24" stroke-linecap="square" stroke-miterlimit="10" points="
		172.44,55.206 190.44,55.206 190.44,26.405 172.44,26.405 172.44,55.206 	"/>
	<polyline fill="none" stroke="#000000" stroke-width="0.24" stroke-linecap="square" stroke-miterlimit="10" points="175.8,40.806 
		176.04,42.965 177.479,44.646 179.16,46.085 181.56,46.565 183.72,46.085 185.4,44.646 186.84,42.965 187.32,40.806 186.84,38.405 
		185.4,36.726 183.72,35.285 181.56,35.045 179.16,35.285 177.479,36.726 176.04,38.405 175.8,40.806 	"/>
	
		<line fill="none" stroke="#000000" stroke-width="0.24" stroke-linecap="square" stroke-miterlimit="10" x1="179.4" y1="43.686" x2="183.72" y2="43.686"/>
	
		<line fill="none" stroke="#000000" stroke-width="0.24" stroke-linecap="square" stroke-miterlimit="10" x1="179.4" y1="39.365" x2="183.72" y2="39.365"/>
	
		<line fill="none" stroke="#000000" stroke-width="0.24" stroke-linecap="square" stroke-miterlimit="10" x1="181.56" y1="37.206" x2="181.56" y2="41.525"/>
	<g>
		<path d="M129.777,8.65V1.435h2.485c0.561,0,0.989,0.034,1.285,0.103c0.414,0.095,0.766,0.268,1.058,0.517
			c0.381,0.321,0.665,0.732,0.854,1.233c0.188,0.5,0.283,1.072,0.283,1.715c0,0.548-0.064,1.034-0.192,1.457
			c-0.128,0.423-0.292,0.774-0.492,1.051c-0.2,0.277-0.419,0.496-0.657,0.655c-0.238,0.159-0.525,0.28-0.861,0.362
			s-0.723,0.123-1.159,0.123H129.777z M130.731,7.799h1.541c0.476,0,0.849-0.044,1.12-0.133c0.271-0.088,0.487-0.213,0.647-0.374
			c0.227-0.227,0.403-0.531,0.529-0.913c0.126-0.382,0.189-0.846,0.189-1.391c0-0.754-0.124-1.334-0.372-1.74
			c-0.248-0.405-0.549-0.677-0.903-0.814c-0.256-0.099-0.668-0.147-1.235-0.147h-1.516V7.799z"/>
		<path d="M136.323,8.65l2.791-3.76l-2.461-3.455h1.137l1.309,1.851c0.272,0.384,0.466,0.679,0.581,0.886
			c0.16-0.262,0.351-0.537,0.57-0.822l1.452-1.915h1.039l-2.535,3.401l2.731,3.814h-1.181l-1.816-2.574
			c-0.102-0.147-0.207-0.308-0.315-0.482c-0.16,0.263-0.275,0.443-0.345,0.542l-1.811,2.515H136.323z"/>
		<path d="M146.256,6.332l0.9-0.079c0.043,0.361,0.142,0.657,0.298,0.888c0.155,0.231,0.397,0.418,0.726,0.562
			c0.328,0.143,0.697,0.214,1.107,0.214c0.364,0,0.687-0.054,0.965-0.163c0.279-0.108,0.486-0.256,0.623-0.445
			c0.136-0.188,0.204-0.395,0.204-0.618c0-0.227-0.065-0.424-0.197-0.593c-0.131-0.169-0.348-0.311-0.649-0.426
			c-0.193-0.076-0.622-0.193-1.284-0.352c-0.663-0.159-1.128-0.309-1.394-0.45c-0.345-0.181-0.602-0.405-0.771-0.672
			c-0.169-0.268-0.253-0.567-0.253-0.898c0-0.364,0.104-0.705,0.31-1.021c0.207-0.316,0.509-0.557,0.906-0.721
			c0.396-0.164,0.838-0.246,1.324-0.246c0.534,0,1.006,0.086,1.415,0.258c0.408,0.172,0.723,0.426,0.942,0.76
			c0.22,0.335,0.338,0.714,0.354,1.137l-0.916,0.069c-0.049-0.456-0.216-0.801-0.499-1.034c-0.284-0.233-0.703-0.35-1.258-0.35
			c-0.578,0-0.998,0.106-1.263,0.318c-0.264,0.211-0.396,0.467-0.396,0.765c0,0.259,0.094,0.473,0.281,0.64
			c0.184,0.167,0.663,0.339,1.439,0.515c0.775,0.175,1.309,0.329,1.597,0.46c0.42,0.194,0.73,0.439,0.931,0.736s0.3,0.639,0.3,1.026
			c0,0.384-0.109,0.746-0.329,1.085c-0.22,0.339-0.536,0.604-0.948,0.792c-0.411,0.189-0.875,0.283-1.39,0.283
			c-0.653,0-1.2-0.095-1.642-0.286c-0.441-0.19-0.788-0.477-1.039-0.859C146.4,7.247,146.269,6.814,146.256,6.332z"/>
		<path d="M153.15,10.664l-0.099-0.832c0.193,0.053,0.363,0.079,0.507,0.079c0.197,0,0.354-0.033,0.473-0.098
			c0.118-0.066,0.215-0.158,0.291-0.276c0.056-0.088,0.146-0.308,0.271-0.659c0.017-0.049,0.042-0.122,0.078-0.217l-1.983-5.237
			h0.955l1.088,3.027c0.141,0.384,0.268,0.788,0.379,1.211c0.102-0.407,0.223-0.804,0.364-1.191l1.117-3.047h0.886l-1.988,5.315
			c-0.213,0.574-0.379,0.97-0.497,1.187c-0.157,0.292-0.338,0.506-0.541,0.642c-0.204,0.136-0.446,0.204-0.729,0.204
			C153.551,10.771,153.36,10.735,153.15,10.664z"/>
		<path d="M157.876,7.09l0.876-0.138c0.049,0.352,0.186,0.62,0.41,0.808c0.226,0.187,0.539,0.28,0.943,0.28
			c0.406,0,0.708-0.083,0.905-0.249s0.295-0.36,0.295-0.583c0-0.2-0.087-0.358-0.261-0.473c-0.121-0.079-0.423-0.179-0.905-0.3
			c-0.649-0.164-1.101-0.306-1.352-0.426s-0.441-0.286-0.57-0.497c-0.13-0.211-0.194-0.445-0.194-0.701
			c0-0.233,0.053-0.449,0.16-0.647c0.106-0.198,0.251-0.363,0.436-0.495c0.138-0.102,0.325-0.188,0.563-0.258
			c0.237-0.071,0.492-0.106,0.765-0.106c0.41,0,0.771,0.059,1.081,0.177c0.31,0.118,0.539,0.278,0.687,0.48s0.249,0.472,0.305,0.81
			l-0.866,0.118c-0.039-0.269-0.153-0.479-0.342-0.63s-0.455-0.227-0.8-0.227c-0.407,0-0.697,0.067-0.871,0.202
			c-0.174,0.135-0.261,0.292-0.261,0.473c0,0.115,0.036,0.218,0.108,0.31c0.071,0.095,0.185,0.174,0.339,0.236
			c0.089,0.033,0.35,0.108,0.783,0.226c0.626,0.167,1.063,0.305,1.312,0.411c0.247,0.107,0.442,0.262,0.583,0.465
			c0.142,0.203,0.212,0.456,0.212,0.758c0,0.295-0.086,0.573-0.259,0.834c-0.172,0.261-0.421,0.462-0.745,0.605
			c-0.325,0.143-0.692,0.214-1.103,0.214c-0.68,0-1.197-0.141-1.553-0.423C158.201,8.063,157.974,7.645,157.876,7.09z"/>
		<path d="M165.204,7.858l0.128,0.783c-0.249,0.052-0.473,0.079-0.669,0.079c-0.322,0-0.571-0.051-0.748-0.152
			c-0.178-0.102-0.303-0.235-0.374-0.401c-0.072-0.166-0.108-0.514-0.108-1.046V4.112h-0.65V3.423h0.65V2.129l0.881-0.532v1.826
			h0.891v0.689h-0.891v3.057c0,0.252,0.016,0.415,0.047,0.487s0.082,0.129,0.152,0.172c0.07,0.042,0.172,0.064,0.303,0.064
			C164.914,7.893,165.043,7.881,165.204,7.858z"/>
		<path d="M169.648,6.967l0.916,0.113c-0.145,0.535-0.412,0.95-0.803,1.246c-0.39,0.295-0.889,0.443-1.496,0.443
			c-0.765,0-1.37-0.235-1.818-0.707c-0.448-0.471-0.672-1.131-0.672-1.981c0-0.879,0.227-1.562,0.68-2.047
			c0.452-0.485,1.04-0.729,1.762-0.729c0.699,0,1.27,0.238,1.713,0.714c0.442,0.476,0.664,1.145,0.664,2.008
			c0,0.053-0.002,0.131-0.005,0.236h-3.898c0.033,0.574,0.195,1.014,0.487,1.319s0.656,0.458,1.093,0.458
			c0.325,0,0.603-0.085,0.832-0.256S169.515,7.341,169.648,6.967z M166.74,5.535h2.919c-0.04-0.439-0.151-0.769-0.335-0.989
			c-0.282-0.341-0.648-0.512-1.098-0.512c-0.407,0-0.749,0.136-1.026,0.409C166.923,4.714,166.77,5.079,166.74,5.535z"/>
		<path d="M171.676,8.65V3.423h0.793v0.733c0.164-0.256,0.382-0.462,0.654-0.618s0.583-0.234,0.931-0.234
			c0.387,0,0.704,0.081,0.952,0.241s0.423,0.386,0.524,0.674c0.413-0.61,0.951-0.916,1.614-0.916c0.519,0,0.917,0.144,1.196,0.431
			c0.278,0.287,0.418,0.729,0.418,1.327V8.65h-0.881V5.357c0-0.354-0.029-0.609-0.086-0.765c-0.058-0.156-0.162-0.281-0.313-0.376
			c-0.151-0.095-0.328-0.143-0.532-0.143c-0.367,0-0.673,0.122-0.915,0.367c-0.243,0.244-0.364,0.636-0.364,1.174V8.65h-0.886V5.254
			c0-0.394-0.072-0.689-0.217-0.886c-0.145-0.197-0.381-0.295-0.709-0.295c-0.249,0-0.479,0.065-0.691,0.197
			s-0.365,0.323-0.46,0.576c-0.096,0.253-0.143,0.617-0.143,1.093V8.65H171.676z"/>
		<path d="M182.878,2.454V1.435h0.887v1.019H182.878z M182.878,8.65V3.423h0.887V8.65H182.878z"/>
		<path d="M185.113,8.65V3.423h0.798v0.743c0.384-0.574,0.938-0.861,1.663-0.861c0.315,0,0.604,0.057,0.869,0.17
			c0.264,0.113,0.462,0.262,0.593,0.445c0.132,0.184,0.224,0.402,0.276,0.655c0.032,0.164,0.049,0.451,0.049,0.861V8.65h-0.886
			v-3.18c0-0.361-0.035-0.63-0.104-0.81c-0.069-0.179-0.191-0.321-0.367-0.428c-0.175-0.106-0.381-0.16-0.617-0.16
			c-0.378,0-0.703,0.12-0.978,0.359c-0.273,0.24-0.41,0.694-0.41,1.364V8.65H185.113z"/>
		<path d="M192.284,8.65l2.771-7.215h1.029l2.953,7.215h-1.088l-0.842-2.186h-3.017l-0.793,2.186H192.284z M194.366,5.688h2.446
			l-0.753-1.999c-0.23-0.607-0.4-1.105-0.513-1.496c-0.092,0.463-0.221,0.922-0.389,1.378L194.366,5.688z"/>
		<path d="M199.691,2.454V1.435h0.887v1.019H199.691z M199.691,8.65V3.423h0.887V8.65H199.691z"/>
		<path d="M201.916,8.65V3.423h0.798v0.792c0.203-0.371,0.391-0.615,0.563-0.733c0.172-0.118,0.361-0.177,0.568-0.177
			c0.299,0,0.603,0.095,0.91,0.286l-0.305,0.822c-0.217-0.128-0.434-0.192-0.649-0.192c-0.194,0-0.368,0.058-0.522,0.175
			c-0.154,0.116-0.264,0.278-0.329,0.485c-0.099,0.315-0.147,0.659-0.147,1.034V8.65H201.916z"/>
		<path d="M208.157,8.65V1.435h0.955v6.364h3.554V8.65H208.157z"/>
		<path d="M213.36,6.037c0-0.968,0.269-1.685,0.807-2.151c0.45-0.387,0.998-0.581,1.645-0.581c0.718,0,1.306,0.235,1.762,0.707
			c0.456,0.471,0.685,1.121,0.685,1.951c0,0.673-0.102,1.202-0.303,1.587c-0.202,0.386-0.496,0.685-0.882,0.898
			c-0.385,0.213-0.806,0.32-1.262,0.32c-0.732,0-1.323-0.234-1.774-0.704C213.586,7.596,213.36,6.919,213.36,6.037z M214.271,6.037
			c0,0.669,0.146,1.17,0.438,1.503s0.659,0.5,1.103,0.5c0.439,0,0.805-0.167,1.098-0.502c0.292-0.335,0.438-0.845,0.438-1.531
			c0-0.646-0.146-1.136-0.44-1.469s-0.659-0.5-1.095-0.5c-0.443,0-0.811,0.166-1.103,0.497S214.271,5.368,214.271,6.037z"/>
		<path d="M218.966,6.037c0-0.968,0.269-1.685,0.807-2.151c0.45-0.387,0.998-0.581,1.645-0.581c0.718,0,1.306,0.235,1.762,0.707
			c0.456,0.471,0.685,1.121,0.685,1.951c0,0.673-0.102,1.202-0.303,1.587c-0.202,0.386-0.496,0.685-0.882,0.898
			c-0.385,0.213-0.806,0.32-1.262,0.32c-0.732,0-1.323-0.234-1.774-0.704C219.191,7.596,218.966,6.919,218.966,6.037z
			 M219.876,6.037c0,0.669,0.146,1.17,0.438,1.503s0.659,0.5,1.103,0.5c0.439,0,0.805-0.167,1.098-0.502
			c0.292-0.335,0.438-0.845,0.438-1.531c0-0.646-0.146-1.136-0.44-1.469s-0.659-0.5-1.095-0.5c-0.443,0-0.811,0.166-1.103,0.497
			S219.876,5.368,219.876,6.037z"/>
		<path d="M224.901,10.654v-7.23h0.808v0.679c0.19-0.266,0.405-0.465,0.645-0.598c0.239-0.133,0.53-0.199,0.871-0.199
			c0.446,0,0.84,0.115,1.182,0.345c0.341,0.229,0.599,0.554,0.772,0.972c0.174,0.418,0.261,0.876,0.261,1.375
			c0,0.535-0.096,1.016-0.288,1.444c-0.191,0.428-0.471,0.756-0.836,0.984c-0.366,0.228-0.751,0.342-1.154,0.342
			c-0.296,0-0.561-0.063-0.795-0.187s-0.428-0.282-0.578-0.473v2.545H224.901z M225.704,6.066c0,0.673,0.136,1.17,0.408,1.491
			c0.272,0.322,0.603,0.482,0.989,0.482c0.394,0,0.731-0.167,1.012-0.5s0.421-0.849,0.421-1.548c0-0.666-0.137-1.165-0.411-1.497
			c-0.274-0.331-0.602-0.497-0.981-0.497c-0.378,0-0.712,0.177-1.002,0.529S225.704,5.394,225.704,6.066z"/>
	</g>
</g>
</svg>
