<?xml version="1.0" encoding="utf-8"?>
<!-- Generator: Adobe Illustrator 16.0.0, SVG Export Plug-In . SVG Version: 6.00 Build 0)  -->
<!DOCTYPE svg PUBLIC "-//W3C//DTD SVG 1.1//EN" "http://www.w3.org/Graphics/SVG/1.1/DTD/svg11.dtd">
<svg version="1.1" id="Layer_1" xmlns="http://www.w3.org/2000/svg" xmlns:xlink="http://www.w3.org/1999/xlink" x="0px" y="0px"
	 width="359.993px" height="216px" viewBox="0 0 359.993 216" enable-background="new 0 0 359.993 216" xml:space="preserve">
<g>
	<defs>
		<rect id="SVGID_1_" width="359.993" height="216"/>
	</defs>
	<clipPath id="SVGID_2_">
		<use xlink:href="#SVGID_1_"  overflow="visible"/>
	</clipPath>
	<polygon clip-path="url(#SVGID_2_)" fill-rule="evenodd" clip-rule="evenodd" fill="#FFFFFF" points="104.952,59.991 
		77.962,86.998 77.962,167.244 236.131,167.244 263.128,140.263 263.128,59.992 	"/>
	<polygon clip-path="url(#SVGID_2_)" fill-rule="evenodd" clip-rule="evenodd" fill="#FFFFFF" points="77.962,86.998 
		236.131,86.998 263.128,59.992 104.952,59.991 	"/>
	<polygon clip-path="url(#SVGID_2_)" fill-rule="evenodd" clip-rule="evenodd" fill="#CDCDCD" points="236.131,86.998 
		263.128,59.992 263.128,140.263 236.131,167.244 	"/>
	
		<polygon clip-path="url(#SVGID_2_)" fill="none" stroke="#000000" stroke-width="0.7477" stroke-linejoin="round" stroke-miterlimit="10" points="
		105.331,60.36 78.335,87.366 78.335,167.618 236.5,167.618 263.498,140.637 263.498,60.36 	"/>
	
		<polyline clip-path="url(#SVGID_2_)" fill="none" stroke="#000000" stroke-width="0.7477" stroke-linejoin="round" stroke-miterlimit="10" points="
		78.335,87.366 236.5,87.366 263.498,60.36 	"/>
	
		<line clip-path="url(#SVGID_2_)" fill="none" stroke="#000000" stroke-width="0.7477" stroke-linejoin="round" stroke-miterlimit="10" x1="236.5" y1="87.366" x2="236.5" y2="167.618"/>
	
		<line clip-path="url(#SVGID_2_)" fill="none" stroke="#000000" stroke-width="0.7477" stroke-linejoin="round" stroke-miterlimit="10" x1="78.335" y1="167.618" x2="269.488" y2="167.618"/>
	<polygon clip-path="url(#SVGID_2_)" fill-rule="evenodd" clip-rule="evenodd" points="267.611,171.754 275.868,167.992 
		267.611,163.507 	"/>
	
		<line clip-path="url(#SVGID_2_)" fill="none" stroke="#000000" stroke-width="0.7477" stroke-linejoin="round" stroke-miterlimit="10" x1="239.497" y1="84.377" x2="271.735" y2="52.119"/>
	<polygon clip-path="url(#SVGID_2_)" fill-rule="evenodd" clip-rule="evenodd" points="272.853,57.002 275.868,48.003 
		266.862,50.993 	"/>
	
		<line clip-path="url(#SVGID_2_)" fill="none" stroke="#000000" stroke-width="0.7477" stroke-linejoin="round" stroke-miterlimit="10" x1="78.335" y1="167.618" x2="78.335" y2="48.382"/>
	<polygon clip-path="url(#SVGID_2_)" fill-rule="evenodd" clip-rule="evenodd" points="82.452,50.245 77.962,42.004 74.219,50.245 	
		"/>
	<g clip-path="url(#SVGID_2_)">
		<path d="M267.75,39.762v-3.616l-3.153-4.976h2.037l2.026,3.399l1.984-3.399h2.002l-3.165,4.987v3.604H267.75z"/>
		<path d="M283.77,39.762h-1.891l-0.751-1.951h-3.441l-0.71,1.951h-1.844l3.353-8.592h1.838L283.77,39.762z M280.57,36.362
			l-1.186-3.188l-1.162,3.188H280.57z"/>
		<path d="M283.466,39.762l2.249-3.206l-2.155-3.018h2.015l1.104,1.711l1.162-1.711h1.938l-2.113,2.947l2.308,3.276h-2.025
			l-1.269-1.928l-1.28,1.928H283.466z"/>
		<path d="M291.741,32.694V31.17h1.649v1.524H291.741z M291.741,39.762v-6.224h1.649v6.224H291.741z"/>
		<path d="M294.164,37.986l1.655-0.252c0.07,0.32,0.213,0.563,0.429,0.729c0.215,0.166,0.517,0.249,0.904,0.249
			c0.427,0,0.747-0.078,0.963-0.234c0.145-0.109,0.217-0.256,0.217-0.439c0-0.125-0.039-0.229-0.117-0.311
			c-0.082-0.078-0.266-0.15-0.552-0.217c-1.331-0.294-2.175-0.561-2.53-0.804c-0.493-0.336-0.74-0.803-0.74-1.4
			c0-0.539,0.213-0.992,0.64-1.359s1.089-0.551,1.985-0.551c0.853,0,1.487,0.139,1.902,0.416c0.414,0.277,0.7,0.688,0.856,1.23
			l-1.556,0.287c-0.066-0.242-0.192-0.428-0.379-0.557c-0.186-0.129-0.451-0.193-0.795-0.193c-0.435,0-0.746,0.061-0.934,0.182
			c-0.126,0.086-0.188,0.197-0.188,0.334c0,0.117,0.055,0.217,0.165,0.299c0.148,0.109,0.662,0.264,1.541,0.463
			s1.492,0.443,1.841,0.732c0.344,0.293,0.517,0.702,0.517,1.226c0,0.57-0.239,1.061-0.717,1.471s-1.184,0.615-2.119,0.615
			c-0.85,0-1.521-0.172-2.017-0.516S294.316,38.576,294.164,37.986z"/>
	</g>
	<g clip-path="url(#SVGID_2_)">
	</g>
	<g clip-path="url(#SVGID_2_)">
	</g>
	<g clip-path="url(#SVGID_2_)">
		<path d="M288.596,170.258l2.941-4.483l-2.665-4.108h2.031l1.726,2.761l1.691-2.761h2.014l-2.677,4.173l2.941,4.419h-2.097
			l-1.908-2.972l-1.914,2.972H288.596z"/>
		<path d="M308.486,170.258h-1.891l-0.751-1.951h-3.441l-0.71,1.951h-1.844l3.353-8.592h1.838L308.486,170.258z M305.286,166.858
			l-1.186-3.188l-1.162,3.188H305.286z"/>
		<path d="M308.182,170.258l2.249-3.206l-2.155-3.018h2.015l1.104,1.711l1.162-1.711h1.938l-2.113,2.947l2.308,3.276h-2.025
			l-1.269-1.928l-1.28,1.928H308.182z"/>
		<path d="M315.687,163.19v-1.524h1.649v1.524H315.687z M315.687,170.258v-6.224h1.649v6.224H315.687z"/>
		<path d="M318.11,168.482l1.655-0.252c0.07,0.32,0.213,0.563,0.429,0.729c0.215,0.166,0.517,0.249,0.904,0.249
			c0.427,0,0.747-0.078,0.963-0.234c0.145-0.109,0.217-0.256,0.217-0.439c0-0.125-0.039-0.229-0.117-0.311
			c-0.082-0.078-0.266-0.15-0.552-0.217c-1.331-0.294-2.175-0.561-2.53-0.804c-0.493-0.336-0.74-0.803-0.74-1.4
			c0-0.539,0.213-0.992,0.64-1.359s1.089-0.551,1.985-0.551c0.853,0,1.487,0.139,1.902,0.416c0.414,0.277,0.7,0.688,0.856,1.23
			l-1.556,0.287c-0.066-0.242-0.192-0.428-0.379-0.557c-0.186-0.129-0.451-0.193-0.795-0.193c-0.435,0-0.746,0.061-0.934,0.182
			c-0.126,0.086-0.188,0.197-0.188,0.334c0,0.117,0.055,0.217,0.165,0.299c0.148,0.109,0.662,0.264,1.541,0.463
			s1.492,0.443,1.841,0.732c0.344,0.293,0.517,0.702,0.517,1.226c0,0.57-0.239,1.061-0.717,1.471s-1.184,0.615-2.119,0.615
			c-0.85,0-1.521-0.172-2.017-0.516S318.262,169.072,318.11,168.482z"/>
	</g>
	<g clip-path="url(#SVGID_2_)">
	</g>
	<g clip-path="url(#SVGID_2_)">
	</g>
	<g clip-path="url(#SVGID_2_)">
		<path d="M49.599,33.752v-1.564l4.521-5.573h-4.01V25.16h6.3v1.349l-4.715,5.796h4.897v1.447H49.599z"/>
		<path d="M68.576,33.752h-1.891l-0.751-1.951h-3.44l-0.71,1.951h-1.844l3.353-8.592h1.838L68.576,33.752z M65.376,30.353
			l-1.186-3.188l-1.163,3.188H65.376z"/>
		<path d="M68.272,33.752l2.249-3.206l-2.155-3.018h2.014l1.104,1.711l1.163-1.711h1.938l-2.114,2.947l2.308,3.276h-2.026
			l-1.268-1.928l-1.28,1.928H68.272z"/>
		<path d="M75.777,26.685V25.16h1.65v1.524H75.777z M75.777,33.752v-6.224h1.65v6.224H75.777z"/>
		<path d="M78.2,31.977l1.656-0.252c0.07,0.32,0.213,0.563,0.429,0.729s0.517,0.249,0.904,0.249c0.426,0,0.748-0.078,0.963-0.234
			c0.145-0.109,0.217-0.256,0.217-0.439c0-0.125-0.039-0.229-0.118-0.311c-0.082-0.078-0.266-0.15-0.552-0.217
			c-1.331-0.294-2.174-0.561-2.531-0.804c-0.493-0.336-0.74-0.803-0.74-1.4c0-0.539,0.213-0.992,0.64-1.359s1.088-0.551,1.984-0.551
			c0.854,0,1.487,0.139,1.902,0.416s0.701,0.688,0.857,1.23l-1.556,0.287c-0.066-0.242-0.193-0.428-0.378-0.557
			c-0.186-0.129-0.451-0.193-0.796-0.193c-0.435,0-0.746,0.061-0.934,0.182c-0.125,0.086-0.188,0.197-0.188,0.334
			c0,0.117,0.055,0.217,0.164,0.299c0.149,0.109,0.663,0.264,1.542,0.463c0.878,0.199,1.492,0.443,1.841,0.732
			c0.344,0.293,0.517,0.702,0.517,1.226c0,0.57-0.239,1.061-0.716,1.471s-1.184,0.615-2.12,0.615c-0.85,0-1.522-0.172-2.017-0.516
			S78.353,32.566,78.2,31.977z"/>
	</g>
	<g clip-path="url(#SVGID_2_)">
	</g>
	<g clip-path="url(#SVGID_2_)">
	</g>
	
		<line clip-path="url(#SVGID_2_)" fill="none" stroke="#000000" stroke-width="0.7477" stroke-linejoin="round" stroke-miterlimit="10" x1="78.335" y1="86.619" x2="143.55" y2="22.123"/>
	<polygon clip-path="url(#SVGID_2_)" fill-rule="evenodd" clip-rule="evenodd" points="144.668,27.006 146.915,18.008 
		138.688,20.997 	"/>
	<g clip-path="url(#SVGID_2_)">
		<path d="M121.714,13.044l3.367-4.916V8.101h-3.079V7.444h4.096v0.477l-3.349,4.898v0.026h3.394v0.656h-4.429V13.044z"/>
		<path d="M131.025,11.291c0,1.608-1.117,2.31-2.17,2.31c-1.179,0-2.088-0.862-2.088-2.237c0-1.456,0.954-2.311,2.161-2.311
			C130.178,9.053,131.025,9.961,131.025,11.291z M127.568,11.336c0,0.953,0.549,1.672,1.323,1.672c0.756,0,1.323-0.71,1.323-1.689
			c0-0.737-0.369-1.672-1.305-1.672C127.973,9.646,127.568,10.509,127.568,11.336z"/>
		<path d="M131.639,10.329c0-0.449-0.009-0.817-0.036-1.177h0.702l0.045,0.719h0.018c0.216-0.413,0.72-0.818,1.44-0.818
			c0.604,0,1.54,0.36,1.54,1.852v2.598h-0.792v-2.508c0-0.701-0.261-1.285-1.008-1.285c-0.522,0-0.927,0.369-1.063,0.81
			c-0.036,0.099-0.054,0.233-0.054,0.368v2.615h-0.792V10.329z"/>
		<path d="M136.717,11.471c0.018,1.069,0.702,1.51,1.495,1.51c0.567,0,0.909-0.099,1.207-0.225l0.135,0.566
			c-0.279,0.126-0.756,0.27-1.449,0.27c-1.341,0-2.143-0.881-2.143-2.193c0-1.312,0.774-2.346,2.043-2.346
			c1.422,0,1.8,1.25,1.8,2.05c0,0.161-0.018,0.287-0.027,0.368H136.717z M139.04,10.904c0.009-0.503-0.207-1.285-1.098-1.285
			c-0.801,0-1.152,0.737-1.215,1.285H139.04z"/>
		<path d="M142.536,13.502V7.444h0.855l1.944,3.064c0.45,0.71,0.801,1.349,1.089,1.969l0.018-0.009
			c-0.072-0.81-0.09-1.546-0.09-2.49V7.444h0.738v6.058h-0.792l-1.926-3.073c-0.423-0.675-0.829-1.366-1.135-2.022l-0.027,0.009
			c0.045,0.764,0.063,1.492,0.063,2.498v2.589H142.536z"/>
		<path d="M153.026,11.291c0,1.608-1.117,2.31-2.17,2.31c-1.179,0-2.088-0.862-2.088-2.237c0-1.456,0.954-2.311,2.161-2.311
			C152.18,9.053,153.026,9.961,153.026,11.291z M149.569,11.336c0,0.953,0.549,1.672,1.323,1.672c0.756,0,1.323-0.71,1.323-1.689
			c0-0.737-0.369-1.672-1.305-1.672C149.974,9.646,149.569,10.509,149.569,11.336z"/>
		<path d="M153.667,10.509c0-0.512-0.009-0.952-0.036-1.356h0.693l0.027,0.854h0.036c0.198-0.584,0.675-0.953,1.207-0.953
			c0.09,0,0.153,0.01,0.225,0.027v0.746c-0.081-0.018-0.162-0.027-0.271-0.027c-0.558,0-0.954,0.423-1.062,1.016
			c-0.018,0.108-0.036,0.234-0.036,0.369v2.318h-0.783V10.509z"/>
		<path d="M158.088,7.902v1.25h1.134v0.602h-1.134V12.1c0,0.54,0.153,0.845,0.594,0.845c0.207,0,0.36-0.026,0.459-0.054l0.036,0.594
			c-0.153,0.063-0.396,0.107-0.702,0.107c-0.369,0-0.666-0.117-0.855-0.332c-0.225-0.234-0.306-0.62-0.306-1.133V9.754h-0.675V9.152
			h0.675V8.109L158.088,7.902z"/>
		<path d="M159.557,7.121h0.792v2.714h0.018c0.126-0.225,0.324-0.422,0.567-0.557c0.234-0.136,0.513-0.226,0.81-0.226
			c0.585,0,1.521,0.36,1.521,1.86v2.589h-0.792v-2.498c0-0.701-0.261-1.295-1.008-1.295c-0.513,0-0.918,0.359-1.063,0.791
			c-0.045,0.108-0.054,0.225-0.054,0.378v2.624h-0.792V7.121z"/>
		<path d="M167.284,11.597l-0.63,1.905h-0.81l2.062-6.058h0.945l2.071,6.058h-0.837l-0.648-1.905H167.284z M169.273,10.985
			l-0.594-1.743c-0.135-0.396-0.225-0.755-0.315-1.105h-0.018c-0.09,0.359-0.189,0.728-0.306,1.097l-0.594,1.752H169.273z"/>
		<path d="M172.462,9.152l0.621,0.935c0.162,0.242,0.297,0.467,0.441,0.71h0.027c0.144-0.261,0.288-0.485,0.432-0.719l0.612-0.926
			h0.855l-1.485,2.103l1.53,2.247h-0.9l-0.64-0.979c-0.171-0.252-0.315-0.494-0.468-0.755h-0.018
			c-0.144,0.261-0.297,0.494-0.459,0.755l-0.63,0.979h-0.873l1.548-2.22l-1.477-2.13H172.462z"/>
		<path d="M177.929,7.93c0.009,0.27-0.189,0.485-0.504,0.485c-0.279,0-0.477-0.216-0.477-0.485c0-0.278,0.207-0.494,0.495-0.494
			C177.74,7.436,177.929,7.651,177.929,7.93z M177.047,13.502v-4.35h0.792v4.35H177.047z"/>
		<path d="M178.902,12.693c0.234,0.152,0.648,0.314,1.044,0.314c0.576,0,0.847-0.288,0.847-0.647c0-0.377-0.225-0.584-0.811-0.8
			c-0.783-0.278-1.152-0.71-1.152-1.231c0-0.701,0.567-1.276,1.503-1.276c0.441,0,0.828,0.126,1.071,0.271l-0.198,0.575
			c-0.171-0.108-0.486-0.252-0.892-0.252c-0.468,0-0.729,0.27-0.729,0.593c0,0.359,0.261,0.521,0.828,0.737
			c0.756,0.287,1.144,0.665,1.144,1.313c0,0.764-0.594,1.303-1.629,1.303c-0.478,0-0.918-0.117-1.225-0.297L178.902,12.693z"/>
	</g>
	<g clip-path="url(#SVGID_2_)">
	</g>
	<g clip-path="url(#SVGID_2_)">
	</g>
	<g clip-path="url(#SVGID_2_)">
	</g>
</g>
</svg>
