<?xml version="1.0" encoding="utf-8"?>
<!-- Generator: Adobe Illustrator 16.0.0, SVG Export Plug-In . SVG Version: 6.00 Build 0)  -->
<!DOCTYPE svg PUBLIC "-//W3C//DTD SVG 1.1//EN" "http://www.w3.org/Graphics/SVG/1.1/DTD/svg11.dtd">
<svg version="1.1" id="Layer_1" xmlns="http://www.w3.org/2000/svg" xmlns:xlink="http://www.w3.org/1999/xlink" x="0px" y="0px"
	 width="201.837px" height="61.319px" viewBox="0 0 201.837 61.319" enable-background="new 0 0 201.837 61.319"
	 xml:space="preserve">
<g>
	<defs>
		<rect id="SVGID_1_" width="201.837" height="61.319"/>
	</defs>
	<clipPath id="SVGID_2_">
		<use xlink:href="#SVGID_1_"  overflow="visible"/>
	</clipPath>
	
		<path clip-path="url(#SVGID_2_)" fill="none" stroke="#000000" stroke-width="0.7182" stroke-linejoin="round" stroke-miterlimit="10" d="
		M30.45,17.928c0,1.576,1.445,2.783,3.114,2.783c1.795,0,3.24-1.207,3.24-2.783c0-1.428-1.445-2.635-3.24-2.635
		C31.895,15.293,30.45,16.5,30.45,17.928z"/>
	
		<polygon clip-path="url(#SVGID_2_)" fill="none" stroke="#000000" stroke-width="0.7182" stroke-linejoin="round" stroke-miterlimit="10" points="
		33.938,13.963 35.857,11.673 35.857,14.8 40.417,14.456 38,16.721 40.891,18.174 38.499,19.381 40.168,21.671 36.58,21.548 
		36.081,25.267 34.287,22.508 31.771,24.799 31.421,21.548 27.809,22.508 30.101,19.874 26.488,18.42 29.502,17.707 28.307,13.717 
		31.421,15.047 32.144,12.166 	"/>
	<g clip-path="url(#SVGID_2_)">
		<defs>
			<rect id="SVGID_3_" x="7.201" y="29.256" width="57.91" height="28.517"/>
		</defs>
		<clipPath id="SVGID_4_">
			<use xlink:href="#SVGID_3_"  overflow="visible"/>
		</clipPath>
		<g clip-path="url(#SVGID_4_)">
			<path d="M7.871,37.679v-6.466h2.456c0.5,0,0.901,0.065,1.204,0.196s0.539,0.333,0.71,0.604s0.257,0.556,0.257,0.854
				c0,0.276-0.076,0.537-0.228,0.781c-0.152,0.244-0.381,0.441-0.688,0.591c0.396,0.115,0.7,0.31,0.913,0.586
				c0.213,0.277,0.319,0.603,0.319,0.979c0,0.303-0.064,0.584-0.194,0.845c-0.129,0.26-0.29,0.461-0.48,0.602
				s-0.429,0.248-0.716,0.32c-0.288,0.072-0.64,0.108-1.056,0.108H7.871z M8.737,33.93h1.416c0.384,0,0.659-0.025,0.826-0.075
				c0.22-0.064,0.386-0.172,0.498-0.322c0.112-0.15,0.167-0.338,0.167-0.565c0-0.214-0.052-0.403-0.156-0.566
				c-0.104-0.164-0.253-0.275-0.446-0.335c-0.194-0.06-0.525-0.09-0.996-0.09H8.737V33.93z M8.737,36.916h1.63
				c0.28,0,0.476-0.01,0.589-0.031c0.199-0.035,0.366-0.094,0.5-0.176c0.134-0.083,0.244-0.202,0.331-0.36
				c0.086-0.157,0.129-0.339,0.129-0.544c0-0.241-0.063-0.451-0.188-0.628c-0.125-0.178-0.298-0.303-0.52-0.375
				c-0.222-0.072-0.541-0.108-0.958-0.108H8.737V36.916z"/>
			<path d="M17.04,36.17l0.831,0.101c-0.131,0.479-0.374,0.852-0.728,1.116c-0.354,0.265-0.807,0.397-1.357,0.397
				c-0.693,0-1.244-0.211-1.65-0.633c-0.406-0.422-0.609-1.014-0.609-1.775c0-0.788,0.206-1.4,0.616-1.835s0.943-0.653,1.599-0.653
				c0.634,0,1.152,0.213,1.554,0.64s0.603,1.026,0.603,1.799c0,0.047-0.001,0.118-0.004,0.212h-3.537
				c0.03,0.515,0.177,0.909,0.442,1.182s0.595,0.41,0.991,0.41c0.295,0,0.546-0.077,0.755-0.229S16.918,36.505,17.04,36.17z
				 M14.401,34.887h2.648c-0.036-0.394-0.137-0.689-0.304-0.887c-0.256-0.306-0.588-0.458-0.996-0.458
				c-0.369,0-0.68,0.122-0.931,0.366C14.567,34.151,14.428,34.478,14.401,34.887z"/>
			<path d="M21.919,37.101c-0.298,0.25-0.584,0.426-0.859,0.529c-0.275,0.103-0.571,0.154-0.887,0.154
				c-0.521,0-0.921-0.126-1.201-0.377c-0.28-0.251-0.419-0.572-0.419-0.963c0-0.229,0.053-0.439,0.158-0.629
				c0.106-0.189,0.244-0.342,0.416-0.457c0.171-0.114,0.364-0.201,0.578-0.26c0.158-0.042,0.396-0.081,0.714-0.119
				c0.649-0.077,1.127-0.168,1.434-0.273c0.003-0.109,0.004-0.178,0.004-0.208c0-0.323-0.076-0.551-0.228-0.684
				c-0.206-0.179-0.511-0.269-0.916-0.269c-0.378,0-0.657,0.065-0.837,0.196s-0.313,0.362-0.399,0.695l-0.786-0.106
				c0.072-0.333,0.189-0.601,0.353-0.805c0.164-0.204,0.4-0.362,0.71-0.472c0.31-0.11,0.668-0.166,1.076-0.166
				c0.405,0,0.733,0.047,0.987,0.141c0.253,0.094,0.439,0.212,0.558,0.355s0.202,0.323,0.25,0.541
				c0.027,0.135,0.04,0.379,0.04,0.732v1.059c0,0.738,0.017,1.205,0.051,1.4c0.034,0.196,0.102,0.383,0.204,0.563h-0.84
				C21.997,37.514,21.943,37.321,21.919,37.101z M21.853,35.328c-0.292,0.118-0.729,0.218-1.313,0.3
				c-0.33,0.047-0.564,0.1-0.701,0.159c-0.137,0.059-0.242,0.145-0.317,0.258c-0.074,0.113-0.111,0.239-0.111,0.377
				c0,0.211,0.081,0.388,0.243,0.529c0.162,0.141,0.399,0.211,0.712,0.211c0.31,0,0.585-0.067,0.826-0.201
				c0.241-0.134,0.418-0.317,0.532-0.549c0.086-0.179,0.129-0.444,0.129-0.794V35.328z"/>
			<path d="M23.856,37.679v-4.684h0.719v0.657c0.149-0.229,0.347-0.414,0.594-0.554s0.528-0.209,0.844-0.209
				c0.351,0,0.639,0.072,0.864,0.216c0.225,0.145,0.383,0.346,0.476,0.604c0.375-0.547,0.863-0.82,1.465-0.82
				c0.47,0,0.832,0.128,1.085,0.386s0.379,0.654,0.379,1.189v3.215h-0.799v-2.951c0-0.318-0.026-0.546-0.078-0.686
				s-0.146-0.252-0.283-0.337c-0.137-0.085-0.298-0.128-0.482-0.128c-0.333,0-0.61,0.109-0.831,0.329s-0.331,0.57-0.331,1.052v2.722
				h-0.804v-3.043c0-0.353-0.065-0.618-0.196-0.794c-0.131-0.176-0.346-0.265-0.643-0.265c-0.227,0-0.436,0.059-0.627,0.176
				c-0.192,0.118-0.331,0.29-0.417,0.516c-0.086,0.227-0.129,0.553-0.129,0.979v2.43H23.856z"/>
			<path d="M33.492,36.28l0.795-0.123c0.044,0.314,0.169,0.556,0.373,0.723c0.204,0.167,0.489,0.251,0.855,0.251
				c0.369,0,0.643-0.074,0.821-0.223c0.179-0.148,0.268-0.323,0.268-0.523c0-0.179-0.079-0.32-0.236-0.423
				c-0.11-0.07-0.384-0.16-0.822-0.269c-0.589-0.147-0.998-0.274-1.226-0.381c-0.228-0.107-0.401-0.256-0.518-0.446
				c-0.118-0.189-0.177-0.399-0.177-0.628c0-0.209,0.049-0.402,0.146-0.58c0.097-0.178,0.229-0.326,0.395-0.443
				c0.125-0.091,0.295-0.168,0.511-0.231c0.216-0.063,0.447-0.095,0.694-0.095c0.372,0,0.699,0.053,0.98,0.159
				c0.282,0.106,0.489,0.249,0.623,0.43c0.134,0.181,0.226,0.423,0.277,0.726l-0.786,0.106c-0.036-0.241-0.139-0.43-0.311-0.565
				s-0.413-0.203-0.726-0.203c-0.369,0-0.633,0.06-0.791,0.181s-0.236,0.262-0.236,0.423c0,0.103,0.033,0.196,0.098,0.278
				c0.065,0.085,0.168,0.156,0.308,0.212c0.081,0.029,0.317,0.097,0.71,0.203c0.568,0.15,0.965,0.272,1.19,0.368
				s0.401,0.234,0.529,0.417c0.128,0.183,0.192,0.409,0.192,0.68c0,0.265-0.078,0.514-0.234,0.748s-0.382,0.415-0.677,0.542
				c-0.294,0.128-0.628,0.192-1,0.192c-0.616,0-1.086-0.126-1.409-0.379C33.788,37.152,33.582,36.777,33.492,36.28z"/>
			<path d="M38.05,35.336c0-0.867,0.244-1.51,0.732-1.927c0.408-0.347,0.905-0.521,1.491-0.521c0.652,0,1.185,0.211,1.599,0.633
				c0.414,0.422,0.621,1.005,0.621,1.749c0,0.603-0.091,1.077-0.274,1.422s-0.45,0.614-0.799,0.805
				c-0.35,0.191-0.732,0.287-1.146,0.287c-0.664,0-1.201-0.21-1.61-0.631S38.05,36.127,38.05,35.336z M38.876,35.336
				c0,0.6,0.132,1.049,0.397,1.348c0.265,0.298,0.598,0.448,1,0.448c0.399,0,0.731-0.15,0.996-0.45
				c0.265-0.3,0.397-0.757,0.397-1.372c0-0.579-0.133-1.018-0.399-1.316c-0.267-0.299-0.598-0.448-0.994-0.448
				c-0.402,0-0.735,0.148-1,0.445C39.009,34.288,38.876,34.737,38.876,35.336z"/>
			<path d="M43.363,37.679v-6.466h0.804v6.466H43.363z"/>
			<path d="M48.397,37.101c-0.298,0.25-0.584,0.426-0.859,0.529c-0.275,0.103-0.571,0.154-0.887,0.154
				c-0.521,0-0.921-0.126-1.201-0.377c-0.28-0.251-0.419-0.572-0.419-0.963c0-0.229,0.053-0.439,0.158-0.629
				c0.106-0.189,0.244-0.342,0.416-0.457c0.171-0.114,0.364-0.201,0.578-0.26c0.158-0.042,0.396-0.081,0.714-0.119
				c0.649-0.077,1.127-0.168,1.434-0.273c0.003-0.109,0.004-0.178,0.004-0.208c0-0.323-0.076-0.551-0.228-0.684
				c-0.206-0.179-0.511-0.269-0.916-0.269c-0.378,0-0.657,0.065-0.837,0.196s-0.313,0.362-0.399,0.695l-0.786-0.106
				c0.072-0.333,0.189-0.601,0.353-0.805c0.164-0.204,0.4-0.362,0.71-0.472c0.31-0.11,0.668-0.166,1.076-0.166
				c0.405,0,0.733,0.047,0.987,0.141c0.253,0.094,0.439,0.212,0.558,0.355s0.202,0.323,0.25,0.541
				c0.027,0.135,0.04,0.379,0.04,0.732v1.059c0,0.738,0.017,1.205,0.051,1.4c0.034,0.196,0.102,0.383,0.204,0.563h-0.84
				C48.475,37.514,48.421,37.321,48.397,37.101z M48.33,35.328c-0.292,0.118-0.729,0.218-1.313,0.3
				c-0.33,0.047-0.564,0.1-0.701,0.159c-0.137,0.059-0.242,0.145-0.317,0.258c-0.074,0.113-0.111,0.239-0.111,0.377
				c0,0.211,0.081,0.388,0.243,0.529c0.162,0.141,0.399,0.211,0.712,0.211c0.31,0,0.585-0.067,0.826-0.201
				c0.241-0.134,0.418-0.317,0.532-0.549c0.086-0.179,0.129-0.444,0.129-0.794V35.328z"/>
			<path d="M50.325,37.679v-4.684h0.724v0.71c0.185-0.332,0.355-0.551,0.511-0.657s0.328-0.159,0.516-0.159
				c0.271,0,0.546,0.085,0.826,0.256l-0.277,0.736c-0.196-0.115-0.393-0.172-0.589-0.172c-0.176,0-0.333,0.052-0.474,0.157
				c-0.14,0.104-0.239,0.249-0.299,0.434c-0.089,0.283-0.134,0.591-0.134,0.926v2.453H50.325z"/>
		</g>
		<g clip-path="url(#SVGID_4_)">
			<path d="M7.795,47.775v-4.684h0.724v0.71c0.185-0.332,0.355-0.551,0.511-0.657s0.328-0.159,0.516-0.159
				c0.271,0,0.546,0.085,0.826,0.256l-0.277,0.736c-0.196-0.115-0.393-0.172-0.589-0.172c-0.176,0-0.333,0.052-0.474,0.157
				c-0.14,0.104-0.239,0.249-0.299,0.434c-0.089,0.283-0.134,0.591-0.134,0.926v2.453H7.795z"/>
			<path d="M13.889,47.198c-0.298,0.25-0.584,0.426-0.859,0.529c-0.275,0.103-0.571,0.154-0.887,0.154
				c-0.521,0-0.921-0.126-1.201-0.377c-0.28-0.251-0.419-0.572-0.419-0.963c0-0.229,0.053-0.439,0.158-0.629
				c0.106-0.189,0.244-0.342,0.416-0.457c0.171-0.114,0.364-0.201,0.578-0.26c0.158-0.042,0.396-0.081,0.714-0.119
				c0.649-0.077,1.127-0.168,1.434-0.273c0.003-0.109,0.004-0.178,0.004-0.208c0-0.323-0.076-0.551-0.228-0.684
				c-0.206-0.179-0.511-0.269-0.916-0.269c-0.378,0-0.657,0.065-0.837,0.196s-0.313,0.362-0.399,0.695l-0.786-0.106
				c0.072-0.333,0.189-0.601,0.353-0.805c0.164-0.204,0.4-0.362,0.71-0.472c0.31-0.11,0.668-0.166,1.076-0.166
				c0.405,0,0.733,0.047,0.987,0.141c0.253,0.094,0.439,0.212,0.558,0.355s0.202,0.323,0.25,0.541
				c0.027,0.135,0.04,0.379,0.04,0.732v1.059c0,0.738,0.017,1.205,0.051,1.4c0.034,0.196,0.102,0.383,0.204,0.563h-0.84
				C13.967,47.611,13.913,47.418,13.889,47.198z M13.822,45.424c-0.292,0.118-0.729,0.218-1.313,0.3
				c-0.33,0.047-0.564,0.1-0.701,0.159c-0.137,0.059-0.242,0.145-0.317,0.258c-0.074,0.113-0.111,0.239-0.111,0.377
				c0,0.211,0.081,0.388,0.243,0.529c0.162,0.141,0.399,0.211,0.712,0.211c0.31,0,0.585-0.067,0.826-0.201
				c0.241-0.134,0.418-0.317,0.532-0.549c0.086-0.179,0.129-0.444,0.129-0.794V45.424z"/>
			<path d="M18.902,47.775v-0.591c-0.3,0.464-0.743,0.697-1.326,0.697c-0.378,0-0.726-0.103-1.042-0.309
				c-0.317-0.206-0.563-0.493-0.737-0.862c-0.174-0.369-0.261-0.793-0.261-1.272c0-0.467,0.079-0.892,0.237-1.272
				s0.395-0.672,0.71-0.875c0.315-0.203,0.668-0.304,1.058-0.304c0.286,0,0.541,0.06,0.764,0.179s0.405,0.274,0.545,0.465v-2.32
				h0.799v6.466H18.902z M16.361,45.438c0,0.6,0.128,1.048,0.384,1.346c0.256,0.297,0.559,0.445,0.907,0.445
				c0.351,0,0.649-0.142,0.895-0.426s0.369-0.717,0.369-1.299c0-0.641-0.125-1.112-0.375-1.412s-0.558-0.45-0.924-0.45
				c-0.357,0-0.656,0.144-0.896,0.432S16.361,44.817,16.361,45.438z"/>
			<path d="M20.861,42.222v-0.913h0.804v0.913H20.861z M20.861,47.775v-4.684h0.804v4.684H20.861z"/>
			<path d="M25.983,47.198c-0.298,0.25-0.584,0.426-0.859,0.529c-0.275,0.103-0.571,0.154-0.887,0.154
				c-0.521,0-0.921-0.126-1.201-0.377c-0.28-0.251-0.419-0.572-0.419-0.963c0-0.229,0.053-0.439,0.158-0.629
				c0.106-0.189,0.244-0.342,0.416-0.457c0.171-0.114,0.364-0.201,0.578-0.26c0.158-0.042,0.396-0.081,0.714-0.119
				c0.649-0.077,1.127-0.168,1.434-0.273c0.003-0.109,0.004-0.178,0.004-0.208c0-0.323-0.076-0.551-0.228-0.684
				c-0.206-0.179-0.511-0.269-0.916-0.269c-0.378,0-0.657,0.065-0.837,0.196s-0.313,0.362-0.399,0.695l-0.786-0.106
				c0.072-0.333,0.189-0.601,0.353-0.805c0.164-0.204,0.4-0.362,0.71-0.472c0.31-0.11,0.668-0.166,1.076-0.166
				c0.405,0,0.733,0.047,0.987,0.141c0.253,0.094,0.439,0.212,0.558,0.355s0.202,0.323,0.25,0.541
				c0.027,0.135,0.04,0.379,0.04,0.732v1.059c0,0.738,0.017,1.205,0.051,1.4c0.034,0.196,0.102,0.383,0.204,0.563h-0.84
				C26.061,47.611,26.007,47.418,25.983,47.198z M25.916,45.424c-0.292,0.118-0.729,0.218-1.313,0.3
				c-0.33,0.047-0.564,0.1-0.701,0.159c-0.137,0.059-0.242,0.145-0.317,0.258c-0.074,0.113-0.111,0.239-0.111,0.377
				c0,0.211,0.081,0.388,0.243,0.529c0.162,0.141,0.399,0.211,0.712,0.211c0.31,0,0.585-0.067,0.826-0.201
				c0.241-0.134,0.418-0.317,0.532-0.549c0.086-0.179,0.129-0.444,0.129-0.794V45.424z"/>
			<path d="M29.666,47.065l0.116,0.701c-0.226,0.047-0.429,0.07-0.607,0.07c-0.292,0-0.518-0.045-0.679-0.137
				c-0.161-0.091-0.274-0.211-0.339-0.359c-0.066-0.148-0.099-0.461-0.099-0.937v-2.695h-0.589v-0.617h0.589v-1.16l0.799-0.477
				v1.637h0.809v0.617h-0.809v2.739c0,0.227,0.014,0.372,0.042,0.437c0.028,0.065,0.075,0.116,0.139,0.154
				c0.064,0.039,0.155,0.058,0.274,0.058C29.402,47.096,29.52,47.086,29.666,47.065z"/>
			<path d="M30.319,42.222v-0.913h0.804v0.913H30.319z M30.319,47.775v-4.684h0.804v4.684H30.319z"/>
			<path d="M32.046,45.433c0-0.867,0.244-1.51,0.732-1.927c0.408-0.347,0.905-0.521,1.491-0.521c0.652,0,1.185,0.211,1.599,0.633
				c0.414,0.422,0.621,1.005,0.621,1.749c0,0.603-0.091,1.077-0.274,1.422s-0.45,0.614-0.799,0.805
				c-0.35,0.191-0.732,0.287-1.146,0.287c-0.664,0-1.201-0.21-1.61-0.631S32.046,46.224,32.046,45.433z M32.873,45.433
				c0,0.6,0.132,1.049,0.397,1.348c0.265,0.298,0.598,0.448,1,0.448c0.399,0,0.731-0.15,0.996-0.45
				c0.265-0.3,0.397-0.757,0.397-1.372c0-0.579-0.133-1.018-0.399-1.316c-0.267-0.299-0.598-0.448-0.994-0.448
				c-0.402,0-0.735,0.148-1,0.445C33.005,44.385,32.873,44.833,32.873,45.433z"/>
			<path d="M37.368,47.775v-4.684h0.723v0.666c0.348-0.515,0.852-0.772,1.509-0.772c0.286,0,0.548,0.051,0.788,0.152
				c0.24,0.102,0.419,0.235,0.538,0.399s0.203,0.36,0.25,0.586c0.03,0.147,0.045,0.405,0.045,0.772v2.88h-0.804v-2.85
				c0-0.323-0.031-0.565-0.094-0.726c-0.063-0.16-0.174-0.288-0.333-0.383c-0.159-0.096-0.346-0.144-0.56-0.144
				c-0.343,0-0.638,0.107-0.887,0.322c-0.249,0.215-0.373,0.622-0.373,1.222v2.558H37.368z"/>
		</g>
	</g>
	
		<rect x="62.096" y="19.012" clip-path="url(#SVGID_2_)" fill="none" stroke="#000000" stroke-width="2.9718" stroke-linejoin="round" stroke-miterlimit="10" width="71.341" height="38.515"/>
	<rect x="88.235" y="19.012" clip-path="url(#SVGID_2_)" width="3.015" height="38.761"/>
	
		<rect x="60.426" y="24.799" clip-path="url(#SVGID_2_)" fill-rule="evenodd" clip-rule="evenodd" fill="#FFFFFF" width="2.891" height="25.882"/>
	
		<rect x="60.426" y="24.799" clip-path="url(#SVGID_2_)" fill="none" stroke="#000000" stroke-width="0.7182" stroke-linejoin="round" stroke-miterlimit="10" width="2.891" height="25.882"/>
	
		<rect x="88.011" y="25.045" clip-path="url(#SVGID_2_)" fill-rule="evenodd" clip-rule="evenodd" fill="#FFFFFF" width="2.866" height="25.98"/>
	
		<rect x="88.011" y="25.045" clip-path="url(#SVGID_2_)" fill="none" stroke="#000000" stroke-width="0.7182" stroke-linejoin="round" stroke-miterlimit="10" width="2.866" height="25.98"/>
	
		<line clip-path="url(#SVGID_2_)" fill="none" stroke="#000000" stroke-width="0.7182" stroke-linejoin="round" stroke-miterlimit="10" x1="44.13" y1="22.878" x2="100.849" y2="45.14"/>
	<polygon clip-path="url(#SVGID_2_)" fill-rule="evenodd" clip-rule="evenodd" points="99.623,47.553 105.276,46.938 
		101.437,42.727 	"/>
	<g clip-path="url(#SVGID_2_)">
		<defs>
			<rect id="SVGID_5_" x="95.087" y="3.62" width="68.7" height="18.888"/>
		</defs>
		<clipPath id="SVGID_6_">
			<use xlink:href="#SVGID_5_"  overflow="visible"/>
		</clipPath>
		<g clip-path="url(#SVGID_6_)">
			<path d="M95.941,11.796V5.33h0.866v6.466H95.941z"/>
			<path d="M98.231,11.796V7.112h0.723v0.666c0.348-0.515,0.852-0.772,1.509-0.772c0.286,0,0.548,0.051,0.788,0.152
				c0.24,0.102,0.419,0.235,0.538,0.399s0.203,0.36,0.25,0.586c0.03,0.147,0.045,0.405,0.045,0.772v2.88h-0.804v-2.85
				c0-0.323-0.031-0.565-0.094-0.726c-0.063-0.16-0.174-0.288-0.333-0.383c-0.159-0.096-0.346-0.144-0.56-0.144
				c-0.343,0-0.638,0.107-0.887,0.322c-0.249,0.215-0.373,0.622-0.373,1.222v2.558H98.231z"/>
			<path d="M105,11.086l0.116,0.701c-0.226,0.047-0.429,0.07-0.607,0.07c-0.292,0-0.518-0.045-0.679-0.137
				c-0.161-0.091-0.274-0.211-0.339-0.359c-0.066-0.148-0.099-0.461-0.099-0.937V7.729h-0.589V7.112h0.589v-1.16l0.799-0.477v1.637
				H105v0.617h-0.809v2.739c0,0.227,0.014,0.372,0.042,0.437c0.028,0.065,0.075,0.116,0.139,0.154
				c0.064,0.039,0.155,0.058,0.274,0.058C104.736,11.117,104.854,11.106,105,11.086z"/>
			<path d="M109.031,10.288l0.831,0.101c-0.131,0.479-0.374,0.852-0.728,1.116c-0.354,0.265-0.807,0.397-1.357,0.397
				c-0.693,0-1.244-0.211-1.65-0.633c-0.406-0.422-0.609-1.014-0.609-1.775c0-0.788,0.206-1.4,0.616-1.835s0.943-0.653,1.599-0.653
				c0.634,0,1.152,0.213,1.554,0.64s0.603,1.026,0.603,1.799c0,0.047-0.001,0.118-0.004,0.212h-3.537
				c0.03,0.515,0.177,0.909,0.442,1.182s0.595,0.41,0.991,0.41c0.295,0,0.546-0.077,0.755-0.229S108.909,10.623,109.031,10.288z
				 M106.392,9.004h2.648c-0.036-0.394-0.137-0.689-0.304-0.887c-0.256-0.306-0.588-0.458-0.996-0.458
				c-0.369,0-0.68,0.122-0.931,0.366C106.558,8.269,106.419,8.595,106.392,9.004z"/>
			<path d="M110.789,11.796V7.112h0.724v0.71c0.185-0.332,0.355-0.551,0.511-0.657s0.328-0.159,0.516-0.159
				c0.271,0,0.546,0.085,0.826,0.256l-0.277,0.736c-0.196-0.115-0.393-0.172-0.589-0.172c-0.176,0-0.333,0.052-0.474,0.157
				c-0.14,0.104-0.239,0.249-0.299,0.434c-0.089,0.283-0.134,0.591-0.134,0.926v2.453H110.789z"/>
			<path d="M113.793,6.243V5.33h0.804v0.913H113.793z M113.793,11.796V7.112h0.804v4.684H113.793z"/>
			<path d="M115.411,9.454c0-0.867,0.244-1.51,0.732-1.927c0.408-0.347,0.905-0.521,1.491-0.521c0.652,0,1.185,0.211,1.599,0.633
				c0.414,0.422,0.621,1.005,0.621,1.749c0,0.603-0.091,1.077-0.274,1.422s-0.45,0.614-0.799,0.805
				c-0.35,0.191-0.732,0.287-1.146,0.287c-0.664,0-1.201-0.21-1.61-0.631S115.411,10.245,115.411,9.454z M116.237,9.454
				c0,0.6,0.132,1.049,0.397,1.348c0.265,0.298,0.598,0.448,1,0.448c0.399,0,0.731-0.15,0.996-0.45
				c0.265-0.3,0.397-0.757,0.397-1.372c0-0.579-0.133-1.018-0.399-1.316c-0.267-0.299-0.598-0.448-0.994-0.448
				c-0.402,0-0.735,0.148-1,0.445C116.37,8.405,116.237,8.854,116.237,9.454z"/>
			<path d="M120.732,11.796V7.112h0.724v0.71c0.185-0.332,0.355-0.551,0.511-0.657s0.328-0.159,0.516-0.159
				c0.271,0,0.546,0.085,0.826,0.256l-0.277,0.736c-0.196-0.115-0.393-0.172-0.589-0.172c-0.176,0-0.333,0.052-0.474,0.157
				c-0.14,0.104-0.239,0.249-0.299,0.434c-0.089,0.283-0.134,0.591-0.134,0.926v2.453H120.732z"/>
			<path d="M127.148,11.796l-1.451-4.684h0.831l0.754,2.704l0.281,1.006c0.012-0.05,0.094-0.372,0.246-0.966l0.755-2.743h0.826
				l0.71,2.717l0.237,0.896l0.272-0.904l0.813-2.708h0.781l-1.482,4.684h-0.835l-0.755-2.805l-0.183-0.798l-0.96,3.604H127.148z"/>
			<path d="M132.607,6.243V5.33h0.804v0.913H132.607z M132.607,11.796V7.112h0.804v4.684H132.607z"/>
			<path d="M134.635,11.796V7.112h0.723v0.666c0.348-0.515,0.852-0.772,1.509-0.772c0.286,0,0.548,0.051,0.788,0.152
				c0.24,0.102,0.419,0.235,0.538,0.399s0.203,0.36,0.25,0.586c0.03,0.147,0.045,0.405,0.045,0.772v2.88h-0.804v-2.85
				c0-0.323-0.031-0.565-0.094-0.726c-0.063-0.16-0.174-0.288-0.333-0.383c-0.159-0.096-0.346-0.144-0.56-0.144
				c-0.343,0-0.638,0.107-0.887,0.322c-0.249,0.215-0.373,0.622-0.373,1.222v2.558H134.635z"/>
			<path d="M142.733,11.796v-0.591c-0.3,0.464-0.743,0.697-1.326,0.697c-0.378,0-0.726-0.103-1.042-0.309
				c-0.317-0.206-0.563-0.493-0.737-0.862c-0.174-0.369-0.261-0.793-0.261-1.272c0-0.467,0.079-0.892,0.237-1.272
				s0.395-0.672,0.71-0.875c0.315-0.203,0.668-0.304,1.058-0.304c0.286,0,0.541,0.06,0.764,0.179s0.405,0.274,0.545,0.465V5.33
				h0.799v6.466H142.733z M140.192,9.458c0,0.6,0.128,1.048,0.384,1.346c0.256,0.297,0.559,0.445,0.907,0.445
				c0.351,0,0.649-0.142,0.895-0.426s0.369-0.717,0.369-1.299c0-0.641-0.125-1.112-0.375-1.412s-0.558-0.45-0.924-0.45
				c-0.357,0-0.656,0.144-0.896,0.432S140.192,8.838,140.192,9.458z"/>
			<path d="M144.388,9.454c0-0.867,0.244-1.51,0.732-1.927c0.408-0.347,0.905-0.521,1.491-0.521c0.652,0,1.185,0.211,1.599,0.633
				c0.414,0.422,0.621,1.005,0.621,1.749c0,0.603-0.091,1.077-0.274,1.422s-0.45,0.614-0.799,0.805
				c-0.35,0.191-0.732,0.287-1.146,0.287c-0.664,0-1.201-0.21-1.61-0.631S144.388,10.245,144.388,9.454z M145.214,9.454
				c0,0.6,0.132,1.049,0.397,1.348c0.265,0.298,0.598,0.448,1,0.448c0.399,0,0.731-0.15,0.996-0.45
				c0.265-0.3,0.397-0.757,0.397-1.372c0-0.579-0.133-1.018-0.399-1.316c-0.267-0.299-0.598-0.448-0.994-0.448
				c-0.402,0-0.735,0.148-1,0.445C145.347,8.405,145.214,8.854,145.214,9.454z"/>
			<path d="M150.594,11.796l-1.451-4.684h0.831l0.754,2.704l0.281,1.006c0.012-0.05,0.094-0.372,0.246-0.966l0.755-2.743h0.826
				l0.71,2.717l0.237,0.896l0.272-0.904l0.813-2.708h0.781l-1.482,4.684h-0.835l-0.755-2.805l-0.183-0.798l-0.96,3.604H150.594z"/>
		</g>
	</g>
	
		<line clip-path="url(#SVGID_2_)" fill="none" stroke="#000000" stroke-width="0.4705" stroke-linejoin="round" stroke-miterlimit="10" x1="108.019" y1="14.209" x2="92.073" y2="30.093"/>
	
		<polyline clip-path="url(#SVGID_2_)" fill="none" stroke="#000000" stroke-width="0.4705" stroke-linejoin="round" stroke-miterlimit="10" points="
		93.767,24.675 92.073,30.093 97.48,28.295 	"/>
	
		<line clip-path="url(#SVGID_2_)" fill="none" stroke="#000000" stroke-width="0.4705" stroke-linejoin="round" stroke-miterlimit="10" x1="144.228" y1="28.64" x2="106.822" y2="45.14"/>
	
		<polyline clip-path="url(#SVGID_2_)" fill="none" stroke="#000000" stroke-width="0.4705" stroke-linejoin="round" stroke-miterlimit="10" points="
		110.312,40.683 106.822,45.14 112.456,45.386 	"/>
	<g clip-path="url(#SVGID_2_)">
		<defs>
			<rect id="SVGID_7_" x="148.436" y="22.262" width="46.148" height="28.172"/>
		</defs>
		<clipPath id="SVGID_8_">
			<use xlink:href="#SVGID_7_"  overflow="visible"/>
		</clipPath>
		<g clip-path="url(#SVGID_8_)">
			<path d="M150.807,30.686v-5.703h-2.157v-0.763h5.188v0.763h-2.166v5.703H150.807z"/>
			<path d="M154.424,30.686v-4.684h0.724v0.71c0.185-0.332,0.355-0.551,0.511-0.657s0.328-0.159,0.516-0.159
				c0.271,0,0.546,0.085,0.826,0.256l-0.277,0.736c-0.196-0.115-0.393-0.172-0.589-0.172c-0.176,0-0.333,0.052-0.474,0.157
				c-0.14,0.104-0.239,0.249-0.299,0.434c-0.089,0.283-0.134,0.591-0.134,0.926v2.453H154.424z"/>
			<path d="M160.67,29.177l0.831,0.101c-0.131,0.479-0.374,0.852-0.728,1.116c-0.354,0.265-0.807,0.397-1.357,0.397
				c-0.693,0-1.244-0.211-1.65-0.633c-0.406-0.422-0.609-1.014-0.609-1.775c0-0.788,0.206-1.4,0.616-1.835s0.943-0.653,1.599-0.653
				c0.634,0,1.152,0.213,1.554,0.64s0.603,1.026,0.603,1.799c0,0.047-0.001,0.118-0.004,0.212h-3.537
				c0.03,0.515,0.177,0.909,0.442,1.182s0.595,0.41,0.991,0.41c0.295,0,0.546-0.077,0.755-0.229S160.548,29.512,160.67,29.177z
				 M158.031,27.894h2.648c-0.036-0.394-0.137-0.689-0.304-0.887c-0.256-0.306-0.588-0.458-0.996-0.458
				c-0.369,0-0.68,0.122-0.931,0.366C158.197,27.158,158.058,27.485,158.031,27.894z"/>
			<path d="M165.549,30.108c-0.298,0.25-0.584,0.426-0.859,0.529c-0.275,0.103-0.571,0.154-0.887,0.154
				c-0.521,0-0.921-0.126-1.201-0.377c-0.28-0.251-0.419-0.572-0.419-0.963c0-0.229,0.053-0.439,0.158-0.629
				c0.106-0.189,0.244-0.342,0.416-0.457c0.171-0.114,0.364-0.201,0.578-0.26c0.158-0.042,0.396-0.081,0.714-0.119
				c0.649-0.077,1.127-0.168,1.434-0.273c0.003-0.109,0.004-0.178,0.004-0.208c0-0.323-0.076-0.551-0.228-0.684
				c-0.206-0.179-0.511-0.269-0.916-0.269c-0.378,0-0.657,0.065-0.837,0.196s-0.313,0.362-0.399,0.695l-0.786-0.106
				c0.072-0.333,0.189-0.601,0.353-0.805c0.164-0.204,0.4-0.362,0.71-0.472c0.31-0.11,0.668-0.166,1.076-0.166
				c0.405,0,0.733,0.047,0.987,0.141c0.253,0.094,0.439,0.212,0.558,0.355s0.202,0.323,0.25,0.541
				c0.027,0.135,0.04,0.379,0.04,0.732v1.059c0,0.738,0.017,1.205,0.051,1.4c0.034,0.196,0.102,0.383,0.204,0.563h-0.84
				C165.626,30.521,165.573,30.328,165.549,30.108z M165.482,28.334c-0.292,0.118-0.729,0.218-1.313,0.3
				c-0.33,0.047-0.564,0.1-0.701,0.159c-0.137,0.059-0.242,0.145-0.317,0.258c-0.074,0.113-0.111,0.239-0.111,0.377
				c0,0.211,0.081,0.388,0.243,0.529c0.162,0.141,0.399,0.211,0.712,0.211c0.31,0,0.585-0.067,0.826-0.201
				c0.241-0.134,0.418-0.317,0.532-0.549c0.086-0.179,0.129-0.444,0.129-0.794V28.334z"/>
			<path d="M169.241,29.976l0.116,0.701c-0.226,0.047-0.429,0.07-0.607,0.07c-0.292,0-0.518-0.045-0.679-0.137
				c-0.161-0.091-0.274-0.211-0.339-0.359c-0.066-0.148-0.099-0.461-0.099-0.937v-2.695h-0.589v-0.617h0.589v-1.16l0.799-0.477
				v1.637h0.809v0.617h-0.809v2.739c0,0.227,0.014,0.372,0.042,0.437c0.028,0.065,0.075,0.116,0.139,0.154
				c0.064,0.039,0.155,0.058,0.274,0.058C168.977,30.006,169.095,29.996,169.241,29.976z"/>
			<path d="M173.273,29.177l0.831,0.101c-0.131,0.479-0.374,0.852-0.728,1.116c-0.354,0.265-0.807,0.397-1.357,0.397
				c-0.693,0-1.244-0.211-1.65-0.633c-0.406-0.422-0.609-1.014-0.609-1.775c0-0.788,0.206-1.4,0.616-1.835s0.943-0.653,1.599-0.653
				c0.634,0,1.152,0.213,1.554,0.64s0.603,1.026,0.603,1.799c0,0.047-0.001,0.118-0.004,0.212h-3.537
				c0.03,0.515,0.177,0.909,0.442,1.182s0.595,0.41,0.991,0.41c0.295,0,0.546-0.077,0.755-0.229S173.151,29.512,173.273,29.177z
				 M170.634,27.894h2.648c-0.036-0.394-0.137-0.689-0.304-0.887c-0.256-0.306-0.588-0.458-0.996-0.458
				c-0.369,0-0.68,0.122-0.931,0.366C170.8,27.158,170.661,27.485,170.634,27.894z"/>
			<path d="M178.116,30.686v-0.591c-0.3,0.464-0.743,0.697-1.326,0.697c-0.378,0-0.726-0.103-1.042-0.309
				c-0.317-0.206-0.563-0.493-0.737-0.862c-0.174-0.369-0.261-0.793-0.261-1.272c0-0.467,0.079-0.892,0.237-1.272
				s0.395-0.672,0.71-0.875c0.315-0.203,0.668-0.304,1.058-0.304c0.286,0,0.541,0.06,0.764,0.179s0.405,0.274,0.545,0.465v-2.32
				h0.799v6.466H178.116z M175.575,28.348c0,0.6,0.128,1.048,0.384,1.346c0.256,0.297,0.559,0.445,0.907,0.445
				c0.351,0,0.649-0.142,0.895-0.426s0.369-0.717,0.369-1.299c0-0.641-0.125-1.112-0.375-1.412s-0.558-0.45-0.924-0.45
				c-0.357,0-0.656,0.144-0.896,0.432S175.575,27.728,175.575,28.348z"/>
			<path d="M185.706,30.108c-0.298,0.25-0.584,0.426-0.859,0.529c-0.275,0.103-0.571,0.154-0.887,0.154
				c-0.521,0-0.921-0.126-1.201-0.377c-0.28-0.251-0.419-0.572-0.419-0.963c0-0.229,0.053-0.439,0.158-0.629
				c0.106-0.189,0.244-0.342,0.416-0.457c0.171-0.114,0.364-0.201,0.578-0.26c0.158-0.042,0.396-0.081,0.714-0.119
				c0.649-0.077,1.127-0.168,1.434-0.273c0.003-0.109,0.004-0.178,0.004-0.208c0-0.323-0.076-0.551-0.228-0.684
				c-0.206-0.179-0.511-0.269-0.916-0.269c-0.378,0-0.657,0.065-0.837,0.196s-0.313,0.362-0.399,0.695l-0.786-0.106
				c0.072-0.333,0.189-0.601,0.353-0.805c0.164-0.204,0.4-0.362,0.71-0.472c0.31-0.11,0.668-0.166,1.076-0.166
				c0.405,0,0.733,0.047,0.987,0.141c0.253,0.094,0.439,0.212,0.558,0.355s0.202,0.323,0.25,0.541
				c0.027,0.135,0.04,0.379,0.04,0.732v1.059c0,0.738,0.017,1.205,0.051,1.4c0.034,0.196,0.102,0.383,0.204,0.563h-0.84
				C185.783,30.521,185.729,30.328,185.706,30.108z M185.639,28.334c-0.292,0.118-0.729,0.218-1.313,0.3
				c-0.33,0.047-0.564,0.1-0.701,0.159c-0.137,0.059-0.242,0.145-0.317,0.258c-0.074,0.113-0.111,0.239-0.111,0.377
				c0,0.211,0.081,0.388,0.243,0.529c0.162,0.141,0.399,0.211,0.712,0.211c0.31,0,0.585-0.067,0.826-0.201
				c0.241-0.134,0.418-0.317,0.532-0.549c0.086-0.179,0.129-0.444,0.129-0.794V28.334z"/>
			<path d="M187.302,29.287l0.795-0.123c0.044,0.314,0.169,0.556,0.373,0.723c0.204,0.167,0.489,0.251,0.855,0.251
				c0.369,0,0.643-0.074,0.821-0.223c0.179-0.148,0.268-0.323,0.268-0.523c0-0.179-0.079-0.32-0.236-0.423
				c-0.11-0.07-0.384-0.16-0.822-0.269c-0.589-0.147-0.998-0.274-1.226-0.381c-0.228-0.107-0.401-0.256-0.518-0.446
				c-0.118-0.189-0.177-0.399-0.177-0.628c0-0.209,0.049-0.402,0.146-0.58c0.097-0.178,0.229-0.326,0.395-0.443
				c0.125-0.091,0.295-0.168,0.511-0.231c0.216-0.063,0.447-0.095,0.694-0.095c0.372,0,0.699,0.053,0.98,0.159
				c0.282,0.106,0.489,0.249,0.623,0.43c0.134,0.181,0.226,0.423,0.277,0.726l-0.786,0.106c-0.036-0.241-0.139-0.43-0.311-0.565
				s-0.413-0.203-0.726-0.203c-0.369,0-0.633,0.06-0.791,0.181s-0.236,0.262-0.236,0.423c0,0.103,0.033,0.196,0.098,0.278
				c0.065,0.085,0.168,0.156,0.308,0.212c0.081,0.029,0.317,0.097,0.71,0.203c0.568,0.15,0.965,0.272,1.19,0.368
				s0.401,0.234,0.529,0.417c0.128,0.183,0.192,0.409,0.192,0.68c0,0.265-0.078,0.514-0.234,0.748s-0.382,0.415-0.677,0.542
				c-0.294,0.128-0.628,0.192-1,0.192c-0.616,0-1.086-0.126-1.409-0.379C187.598,30.159,187.392,29.784,187.302,29.287z"/>
		</g>
		<g clip-path="url(#SVGID_8_)">
			<path d="M152.115,40.806v-0.591c-0.3,0.464-0.743,0.697-1.326,0.697c-0.378,0-0.726-0.103-1.042-0.309
				c-0.317-0.206-0.563-0.493-0.737-0.862c-0.174-0.369-0.261-0.793-0.261-1.272c0-0.467,0.079-0.892,0.237-1.272
				s0.395-0.672,0.71-0.875c0.315-0.203,0.668-0.304,1.058-0.304c0.286,0,0.541,0.06,0.764,0.179s0.405,0.274,0.545,0.465v-2.32
				h0.799v6.466H152.115z M149.575,38.468c0,0.6,0.128,1.048,0.384,1.346c0.256,0.297,0.559,0.445,0.907,0.445
				c0.351,0,0.649-0.142,0.895-0.426s0.369-0.717,0.369-1.299c0-0.641-0.125-1.112-0.375-1.412s-0.558-0.45-0.924-0.45
				c-0.357,0-0.656,0.144-0.896,0.432S149.575,37.848,149.575,38.468z"/>
			<path d="M154.075,35.252v-0.913h0.804v0.913H154.075z M154.075,40.806v-4.684h0.804v4.684H154.075z"/>
			<path d="M156.294,40.806v-4.067h-0.71v-0.617h0.71v-0.499c0-0.314,0.028-0.548,0.085-0.701c0.077-0.206,0.213-0.373,0.408-0.501
				c0.195-0.128,0.468-0.192,0.819-0.192c0.227,0,0.477,0.027,0.75,0.08l-0.121,0.692c-0.167-0.029-0.325-0.044-0.473-0.044
				c-0.244,0-0.417,0.051-0.518,0.154c-0.102,0.103-0.152,0.295-0.152,0.578v0.433h0.924v0.617h-0.924v4.067H156.294z"/>
			<path d="M158.807,40.806v-4.067h-0.71v-0.617h0.71v-0.499c0-0.314,0.028-0.548,0.085-0.701c0.077-0.206,0.213-0.373,0.408-0.501
				c0.195-0.128,0.468-0.192,0.819-0.192c0.227,0,0.477,0.027,0.75,0.08l-0.121,0.692c-0.167-0.029-0.325-0.044-0.473-0.044
				c-0.244,0-0.417,0.051-0.518,0.154c-0.102,0.103-0.152,0.295-0.152,0.578v0.433h0.924v0.617h-0.924v4.067H158.807z"/>
			<path d="M164.263,40.806v-0.688c-0.369,0.529-0.871,0.794-1.504,0.794c-0.28,0-0.541-0.053-0.784-0.159
				c-0.243-0.106-0.423-0.239-0.541-0.399s-0.2-0.356-0.248-0.589c-0.033-0.156-0.049-0.403-0.049-0.741v-2.902h0.804v2.598
				c0,0.415,0.017,0.694,0.049,0.838c0.05,0.208,0.158,0.373,0.321,0.492s0.366,0.179,0.607,0.179s0.467-0.061,0.679-0.183
				s0.361-0.288,0.449-0.499s0.132-0.515,0.132-0.915v-2.51h0.804v4.684H164.263z"/>
			<path d="M165.719,39.407l0.795-0.123c0.044,0.314,0.169,0.556,0.373,0.723c0.204,0.167,0.489,0.251,0.855,0.251
				c0.369,0,0.643-0.074,0.821-0.223c0.179-0.148,0.268-0.323,0.268-0.523c0-0.179-0.079-0.32-0.236-0.423
				c-0.11-0.07-0.384-0.16-0.822-0.269c-0.589-0.147-0.998-0.274-1.226-0.381c-0.228-0.107-0.401-0.256-0.518-0.446
				c-0.118-0.189-0.177-0.399-0.177-0.628c0-0.209,0.049-0.402,0.146-0.58c0.097-0.178,0.229-0.326,0.395-0.443
				c0.125-0.091,0.295-0.168,0.511-0.231c0.216-0.063,0.447-0.095,0.694-0.095c0.372,0,0.699,0.053,0.98,0.159
				c0.282,0.106,0.489,0.249,0.623,0.43c0.134,0.181,0.226,0.423,0.277,0.726l-0.786,0.106c-0.036-0.241-0.139-0.43-0.311-0.565
				s-0.413-0.203-0.726-0.203c-0.369,0-0.633,0.06-0.791,0.181s-0.236,0.262-0.236,0.423c0,0.103,0.033,0.196,0.098,0.278
				c0.065,0.085,0.168,0.156,0.308,0.212c0.081,0.029,0.317,0.097,0.71,0.203c0.568,0.15,0.965,0.272,1.19,0.368
				s0.401,0.234,0.529,0.417c0.128,0.183,0.192,0.409,0.192,0.68c0,0.265-0.078,0.514-0.234,0.748s-0.382,0.415-0.677,0.542
				c-0.294,0.128-0.628,0.192-1,0.192c-0.616,0-1.086-0.126-1.409-0.379C166.015,40.279,165.809,39.904,165.719,39.407z"/>
			<path d="M173.823,39.297l0.831,0.101c-0.131,0.479-0.374,0.852-0.728,1.116c-0.354,0.265-0.807,0.397-1.357,0.397
				c-0.693,0-1.244-0.211-1.65-0.633c-0.406-0.422-0.609-1.014-0.609-1.775c0-0.788,0.206-1.4,0.616-1.835s0.943-0.653,1.599-0.653
				c0.634,0,1.152,0.213,1.554,0.64s0.603,1.026,0.603,1.799c0,0.047-0.001,0.118-0.004,0.212h-3.537
				c0.03,0.515,0.177,0.909,0.442,1.182s0.595,0.41,0.991,0.41c0.295,0,0.546-0.077,0.755-0.229S173.701,39.632,173.823,39.297z
				 M171.184,38.014h2.648c-0.036-0.394-0.137-0.689-0.304-0.887c-0.256-0.306-0.588-0.458-0.996-0.458
				c-0.369,0-0.68,0.122-0.931,0.366C171.35,37.278,171.21,37.605,171.184,38.014z"/>
		</g>
	</g>
	
		<line clip-path="url(#SVGID_2_)" fill="none" stroke="#000000" stroke-width="0.7182" stroke-linejoin="round" stroke-miterlimit="10" x1="94.365" y1="42.604" x2="101.537" y2="36.595"/>
	
		<line clip-path="url(#SVGID_2_)" fill="none" stroke="#000000" stroke-width="0.7182" stroke-linejoin="round" stroke-miterlimit="10" x1="94.838" y1="42.85" x2="104.429" y2="41.643"/>
	
		<line clip-path="url(#SVGID_2_)" fill="none" stroke="#000000" stroke-width="0.7182" stroke-linejoin="round" stroke-miterlimit="10" x1="95.087" y1="43.096" x2="95.087" y2="33.812"/>
	
		<line clip-path="url(#SVGID_2_)" fill="none" stroke="#000000" stroke-width="0.4705" stroke-linejoin="round" stroke-miterlimit="10" x1="93.169" y1="49.942" x2="94.714" y2="41.52"/>
	
		<line clip-path="url(#SVGID_2_)" fill="none" stroke="#000000" stroke-width="0.7182" stroke-linejoin="round" stroke-miterlimit="10" x1="94.963" y1="42.973" x2="98.676" y2="50.558"/>
</g>
</svg>
