<?xml version="1.0" encoding="utf-8"?>
<!-- Generator: Adobe Illustrator 16.0.0, SVG Export Plug-In . SVG Version: 6.00 Build 0)  -->
<!DOCTYPE svg PUBLIC "-//W3C//DTD SVG 1.1//EN" "http://www.w3.org/Graphics/SVG/1.1/DTD/svg11.dtd">
<svg version="1.1" id="Layer_1" xmlns="http://www.w3.org/2000/svg" xmlns:xlink="http://www.w3.org/1999/xlink" x="0px" y="0px"
	 width="395.536px" height="191.768px" viewBox="0 0 395.536 191.768" enable-background="new 0 0 395.536 191.768"
	 xml:space="preserve">
<g>
	<defs>
		<rect id="SVGID_1_" width="248.999" height="188.407"/>
	</defs>
	<clipPath id="SVGID_2_">
		<use xlink:href="#SVGID_1_"  overflow="visible"/>
	</clipPath>
	
		<line clip-path="url(#SVGID_2_)" fill="none" stroke="#000000" stroke-width="0.7233" stroke-linejoin="round" stroke-miterlimit="10" x1="66.959" y1="0.488" x2="67.2" y2="136.942"/>
	
		<polyline clip-path="url(#SVGID_2_)" fill="none" stroke="#000000" stroke-width="0.7233" stroke-linejoin="round" stroke-miterlimit="10" points="
		70.915,8.276 66.959,0.488 63.244,8.276 	"/>
	
		<line clip-path="url(#SVGID_2_)" fill="none" stroke="#000000" stroke-width="0.7233" stroke-linejoin="round" stroke-miterlimit="10" x1="66.959" y1="136.942" x2="239.398" y2="137.062"/>
	
		<polyline clip-path="url(#SVGID_2_)" fill="none" stroke="#000000" stroke-width="0.7233" stroke-linejoin="round" stroke-miterlimit="10" points="
		231.611,140.897 239.398,136.942 231.611,133.228 	"/>
	<polygon clip-path="url(#SVGID_2_)" fill-rule="evenodd" clip-rule="evenodd" points="67.562,21.493 67.562,23.764 110.038,23.764 
		110.038,22.579 109.071,22.579 109.071,23.057 109.19,23.396 109.679,23.645 109.071,22.579 109.071,62.059 109.071,62.537 
		109.19,63.025 109.679,63.145 110.038,63.264 153.846,63.264 153.846,62.059 152.64,62.059 152.64,62.537 152.999,63.025 
		153.238,63.145 152.64,62.059 152.64,100.453 152.64,100.935 152.999,101.296 153.238,101.538 153.846,101.659 196.198,101.659 
		196.198,100.453 195.231,100.453 195.231,100.935 195.47,101.296 195.839,101.538 195.231,100.453 195.231,137.544 
		197.405,137.544 197.405,100.453 197.405,99.85 197.046,99.608 196.806,99.27 196.198,99.27 153.846,99.27 154.803,100.453 
		154.803,99.85 154.564,99.608 154.205,99.27 153.846,100.453 155.052,100.453 155.052,62.059 154.803,62.059 154.803,61.571 
		154.564,61.212 154.205,60.973 153.846,60.973 110.038,60.973 111.245,62.059 111.245,61.571 111.005,61.212 110.646,60.973 
		110.038,62.059 111.245,62.059 111.245,22.579 111.245,22.101 111.005,21.732 110.646,21.493 110.038,21.493 	"/>
	<g clip-path="url(#SVGID_2_)">
		<defs>
			<rect id="SVGID_3_" x="95.88" y="145.938" width="91.563" height="12.613"/>
		</defs>
		<clipPath id="SVGID_4_">
			<use xlink:href="#SVGID_3_"  overflow="visible"/>
		</clipPath>
		<g clip-path="url(#SVGID_4_)">
			<path d="M96.53,148.04h2.376c0.536,0,0.944,0.041,1.226,0.123c0.378,0.111,0.702,0.309,0.971,0.592
				c0.269,0.284,0.474,0.631,0.615,1.042c0.141,0.411,0.211,0.918,0.211,1.521c0,0.529-0.066,0.986-0.198,1.369
				c-0.161,0.468-0.391,0.847-0.689,1.137c-0.226,0.219-0.53,0.391-0.914,0.513c-0.287,0.091-0.67,0.136-1.151,0.136H96.53V148.04z
				 M97.831,149.128v4.261h0.971c0.363,0,0.625-0.021,0.787-0.062c0.21-0.053,0.386-0.142,0.525-0.268
				c0.139-0.126,0.252-0.333,0.34-0.621s0.132-0.681,0.132-1.178s-0.044-0.879-0.132-1.146s-0.211-0.474-0.369-0.623
				c-0.158-0.149-0.359-0.25-0.602-0.303c-0.182-0.041-0.538-0.062-1.068-0.062H97.831z"/>
			<path d="M103.946,151.234l-1.12-0.202c0.126-0.451,0.342-0.784,0.65-1.001c0.308-0.216,0.765-0.325,1.371-0.325
				c0.551,0,0.961,0.065,1.23,0.195c0.269,0.13,0.459,0.295,0.569,0.496c0.11,0.2,0.165,0.568,0.165,1.104l-0.013,1.439
				c0,0.41,0.02,0.712,0.06,0.906c0.039,0.195,0.113,0.403,0.222,0.625h-1.221c-0.032-0.082-0.072-0.203-0.119-0.364
				c-0.021-0.073-0.035-0.122-0.044-0.145c-0.211,0.205-0.437,0.358-0.677,0.461s-0.496,0.154-0.769,0.154
				c-0.48,0-0.859-0.13-1.136-0.391s-0.415-0.59-0.415-0.987c0-0.264,0.063-0.499,0.189-0.705c0.125-0.206,0.302-0.364,0.529-0.474
				c0.227-0.109,0.554-0.206,0.982-0.287c0.577-0.108,0.977-0.209,1.199-0.303v-0.123c0-0.237-0.059-0.406-0.176-0.507
				c-0.117-0.101-0.338-0.151-0.664-0.151c-0.219,0-0.391,0.043-0.514,0.129S104.022,151.018,103.946,151.234z M105.598,152.235
				c-0.158,0.053-0.409,0.116-0.751,0.189c-0.342,0.073-0.566,0.145-0.672,0.215c-0.161,0.114-0.242,0.259-0.242,0.435
				c0,0.173,0.064,0.322,0.193,0.448c0.129,0.125,0.293,0.188,0.492,0.188c0.222,0,0.435-0.073,0.637-0.219
				c0.149-0.111,0.248-0.248,0.294-0.408c0.032-0.105,0.048-0.306,0.048-0.601V152.235z"/>
			<path d="M107.694,149.813h1.313l1.116,3.309l1.09-3.309h1.278l-1.647,4.485l-0.294,0.812c-0.108,0.272-0.211,0.48-0.31,0.624
				c-0.098,0.143-0.211,0.259-0.338,0.349s-0.284,0.159-0.47,0.208s-0.396,0.075-0.63,0.075c-0.237,0-0.47-0.025-0.698-0.075
				l-0.11-0.965c0.193,0.038,0.367,0.057,0.522,0.057c0.287,0,0.5-0.084,0.637-0.252c0.138-0.168,0.243-0.383,0.316-0.643
				L107.694,149.813z"/>
			<path d="M112.842,154.473v-6.434h1.234v6.434H112.842z"/>
			<path d="M115.369,149.181v-1.141h1.234v1.141H115.369z M115.369,154.473v-4.661h1.234v4.661H115.369z"/>
			<path d="M117.781,154.78l1.41,0.171c0.023,0.164,0.078,0.276,0.163,0.338c0.117,0.087,0.301,0.131,0.553,0.131
				c0.322,0,0.564-0.048,0.725-0.145c0.108-0.064,0.19-0.168,0.246-0.312c0.038-0.103,0.057-0.292,0.057-0.566v-0.68
				c-0.369,0.503-0.835,0.755-1.397,0.755c-0.626,0-1.123-0.265-1.489-0.794c-0.287-0.418-0.43-0.939-0.43-1.562
				c0-0.781,0.188-1.378,0.564-1.791c0.376-0.413,0.844-0.619,1.403-0.619c0.577,0,1.053,0.253,1.428,0.759v-0.654h1.156v4.182
				c0,0.55-0.045,0.961-0.136,1.233s-0.218,0.485-0.382,0.641s-0.383,0.276-0.657,0.364s-0.62,0.132-1.039,0.132
				c-0.791,0-1.352-0.135-1.683-0.406c-0.331-0.271-0.496-0.614-0.496-1.029C117.776,154.889,117.778,154.839,117.781,154.78z
				 M118.883,152.046c0,0.494,0.096,0.856,0.288,1.086c0.192,0.23,0.428,0.345,0.709,0.345c0.302,0,0.557-0.118,0.765-0.354
				c0.208-0.235,0.312-0.584,0.312-1.046c0-0.483-0.1-0.841-0.299-1.075c-0.199-0.234-0.451-0.351-0.756-0.351
				c-0.296,0-0.54,0.115-0.731,0.344C118.979,151.225,118.883,151.575,118.883,152.046z"/>
			<path d="M124.621,148.04v2.365c0.398-0.465,0.874-0.698,1.428-0.698c0.284,0,0.54,0.053,0.769,0.158
				c0.229,0.105,0.4,0.24,0.516,0.404c0.116,0.164,0.195,0.345,0.237,0.544c0.042,0.199,0.064,0.508,0.064,0.926v2.734H126.4v-2.462
				c0-0.489-0.024-0.799-0.07-0.931c-0.047-0.131-0.13-0.236-0.249-0.313s-0.267-0.116-0.446-0.116c-0.205,0-0.388,0.05-0.549,0.149
				c-0.161,0.1-0.279,0.25-0.354,0.45c-0.075,0.201-0.112,0.497-0.112,0.889v2.335h-1.234v-6.434H124.621z"/>
			<path d="M131.071,149.813v0.983h-0.843v1.878c0,0.38,0.008,0.602,0.024,0.665s0.053,0.115,0.11,0.156s0.126,0.062,0.208,0.062
				c0.114,0,0.28-0.04,0.497-0.119l0.105,0.957c-0.287,0.123-0.612,0.185-0.975,0.185c-0.223,0-0.423-0.038-0.602-0.112
				c-0.179-0.075-0.31-0.171-0.393-0.29c-0.083-0.118-0.142-0.278-0.173-0.48c-0.026-0.143-0.04-0.433-0.04-0.869v-2.032h-0.567
				v-0.983h0.567v-0.926l1.239-0.72v1.646H131.071z"/>
			<path d="M134.427,149.181v-1.141h1.234v1.141H134.427z M134.427,154.473v-4.661h1.234v4.661H134.427z"/>
			<path d="M136.972,154.473v-6.434h1.234v6.434H136.972z"/>
			<path d="M139.499,154.473v-6.434h1.234v6.434H139.499z"/>
			<path d="M145.096,154.473v-0.698c-0.17,0.249-0.394,0.445-0.67,0.588c-0.276,0.144-0.569,0.215-0.876,0.215
				c-0.313,0-0.595-0.069-0.844-0.207c-0.249-0.137-0.429-0.331-0.541-0.579s-0.167-0.592-0.167-1.031v-2.949h1.234v2.142
				c0,0.655,0.022,1.057,0.068,1.205c0.045,0.148,0.128,0.265,0.249,0.351c0.12,0.086,0.272,0.129,0.457,0.129
				c0.211,0,0.4-0.058,0.567-0.173c0.167-0.115,0.281-0.259,0.343-0.43c0.062-0.171,0.092-0.59,0.092-1.257v-1.966h1.234v4.661
				H145.096z"/>
			<path d="M147.429,149.813h1.138v0.636c0.407-0.494,0.892-0.742,1.454-0.742c0.299,0,0.558,0.062,0.777,0.185
				c0.22,0.123,0.4,0.309,0.541,0.557c0.205-0.249,0.426-0.435,0.664-0.557c0.237-0.123,0.49-0.185,0.76-0.185
				c0.343,0,0.633,0.07,0.87,0.208c0.237,0.139,0.415,0.343,0.532,0.612c0.085,0.199,0.127,0.521,0.127,0.965v2.98h-1.234v-2.664
				c0-0.462-0.042-0.76-0.127-0.895c-0.114-0.176-0.29-0.263-0.527-0.263c-0.173,0-0.335,0.052-0.487,0.158
				c-0.152,0.105-0.262,0.26-0.33,0.463c-0.067,0.204-0.101,0.524-0.101,0.963v2.238h-1.234v-2.554c0-0.454-0.022-0.746-0.066-0.877
				c-0.044-0.132-0.112-0.23-0.205-0.294c-0.092-0.064-0.217-0.096-0.375-0.096c-0.19,0-0.362,0.051-0.514,0.153
				c-0.152,0.103-0.262,0.25-0.328,0.443c-0.066,0.193-0.099,0.514-0.099,0.961v2.265h-1.234V149.813z"/>
			<path d="M155.566,149.181v-1.141h1.234v1.141H155.566z M155.566,154.473v-4.661h1.234v4.661H155.566z"/>
			<path d="M162.336,154.473h-1.234v-2.378c0-0.503-0.026-0.829-0.079-0.977c-0.053-0.148-0.139-0.263-0.257-0.345
				c-0.119-0.082-0.261-0.123-0.428-0.123c-0.214,0-0.406,0.059-0.576,0.175c-0.169,0.117-0.286,0.272-0.349,0.465
				c-0.063,0.193-0.094,0.55-0.094,1.071v2.111h-1.234v-4.661h1.146v0.685c0.407-0.527,0.919-0.79,1.538-0.79
				c0.272,0,0.521,0.049,0.747,0.147c0.226,0.098,0.396,0.223,0.512,0.375c0.116,0.152,0.196,0.325,0.242,0.518
				c0.045,0.193,0.068,0.47,0.068,0.83V154.473z"/>
			<path d="M164.511,151.234l-1.12-0.202c0.126-0.451,0.342-0.784,0.65-1.001c0.308-0.216,0.765-0.325,1.371-0.325
				c0.551,0,0.961,0.065,1.23,0.195c0.269,0.13,0.459,0.295,0.569,0.496c0.11,0.2,0.165,0.568,0.165,1.104l-0.013,1.439
				c0,0.41,0.02,0.712,0.06,0.906c0.039,0.195,0.113,0.403,0.222,0.625h-1.221c-0.032-0.082-0.072-0.203-0.119-0.364
				c-0.021-0.073-0.035-0.122-0.044-0.145c-0.211,0.205-0.437,0.358-0.677,0.461s-0.496,0.154-0.769,0.154
				c-0.48,0-0.859-0.13-1.136-0.391s-0.415-0.59-0.415-0.987c0-0.264,0.063-0.499,0.189-0.705c0.125-0.206,0.302-0.364,0.529-0.474
				c0.227-0.109,0.554-0.206,0.982-0.287c0.577-0.108,0.977-0.209,1.199-0.303v-0.123c0-0.237-0.059-0.406-0.176-0.507
				c-0.117-0.101-0.338-0.151-0.664-0.151c-0.219,0-0.391,0.043-0.514,0.129S164.587,151.018,164.511,151.234z M166.163,152.235
				c-0.158,0.053-0.409,0.116-0.751,0.189c-0.342,0.073-0.566,0.145-0.672,0.215c-0.161,0.114-0.242,0.259-0.242,0.435
				c0,0.173,0.064,0.322,0.193,0.448c0.129,0.125,0.293,0.188,0.492,0.188c0.222,0,0.435-0.073,0.637-0.219
				c0.149-0.111,0.248-0.248,0.294-0.408c0.032-0.105,0.048-0.306,0.048-0.601V152.235z"/>
			<path d="M172.881,154.473h-1.234v-2.378c0-0.503-0.026-0.829-0.079-0.977c-0.053-0.148-0.139-0.263-0.257-0.345
				c-0.119-0.082-0.261-0.123-0.428-0.123c-0.214,0-0.406,0.059-0.576,0.175c-0.169,0.117-0.286,0.272-0.349,0.465
				c-0.063,0.193-0.094,0.55-0.094,1.071v2.111h-1.234v-4.661h1.146v0.685c0.407-0.527,0.919-0.79,1.538-0.79
				c0.272,0,0.521,0.049,0.747,0.147c0.226,0.098,0.396,0.223,0.512,0.375c0.116,0.152,0.196,0.325,0.242,0.518
				c0.045,0.193,0.068,0.47,0.068,0.83V154.473z"/>
			<path d="M178.201,151.19l-1.217,0.22c-0.041-0.243-0.134-0.426-0.279-0.549s-0.333-0.184-0.564-0.184
				c-0.308,0-0.553,0.106-0.736,0.318c-0.183,0.212-0.274,0.567-0.274,1.064c0,0.553,0.093,0.943,0.279,1.171
				c0.186,0.229,0.436,0.342,0.749,0.342c0.234,0,0.426-0.066,0.576-0.199c0.149-0.133,0.255-0.362,0.316-0.687l1.212,0.206
				c-0.126,0.556-0.368,0.976-0.725,1.26s-0.836,0.426-1.437,0.426c-0.682,0-1.226-0.215-1.632-0.646
				c-0.406-0.43-0.608-1.025-0.608-1.786c0-0.769,0.204-1.368,0.61-1.797c0.407-0.429,0.958-0.643,1.652-0.643
				c0.568,0,1.02,0.122,1.355,0.367C177.813,150.318,178.054,150.69,178.201,151.19z"/>
			<path d="M181.784,152.99l1.23,0.207c-0.158,0.45-0.408,0.793-0.749,1.029c-0.341,0.236-0.768,0.354-1.281,0.354
				c-0.811,0-1.412-0.265-1.801-0.794c-0.308-0.424-0.461-0.959-0.461-1.606c0-0.772,0.202-1.377,0.606-1.814
				c0.404-0.438,0.916-0.656,1.533-0.656c0.694,0,1.242,0.229,1.643,0.687s0.593,1.159,0.576,2.104h-3.093
				c0.009,0.366,0.108,0.65,0.299,0.854c0.19,0.203,0.427,0.305,0.711,0.305c0.193,0,0.356-0.053,0.488-0.158
				C181.617,153.394,181.717,153.224,181.784,152.99z M181.854,151.744c-0.009-0.357-0.101-0.628-0.277-0.814
				c-0.176-0.186-0.39-0.278-0.642-0.278c-0.27,0-0.492,0.098-0.667,0.294c-0.176,0.196-0.262,0.462-0.259,0.799H181.854z"/>
		</g>
	</g>
	<g clip-path="url(#SVGID_2_)">
		<defs>
			<rect id="SVGID_5_" x="7.333" y="66.62" width="47.518" height="12.709"/>
		</defs>
		<clipPath id="SVGID_6_">
			<use xlink:href="#SVGID_5_"  overflow="visible"/>
		</clipPath>
		<g clip-path="url(#SVGID_6_)">
			<path d="M7.997,75.125v-6.434h4.415v1.088H9.297v1.523h2.688v1.088H9.297v2.734H7.997z"/>
			<path d="M14.656,75.125h-1.234v-4.661h1.146v0.663c0.196-0.313,0.373-0.519,0.529-0.619s0.334-0.149,0.534-0.149
				c0.281,0,0.552,0.078,0.813,0.233l-0.382,1.075c-0.208-0.135-0.401-0.202-0.58-0.202c-0.173,0-0.319,0.048-0.439,0.143
				c-0.12,0.095-0.215,0.267-0.284,0.516c-0.069,0.249-0.103,0.77-0.103,1.563V75.125z"/>
			<path d="M17.898,71.886l-1.12-0.202c0.126-0.451,0.342-0.784,0.65-1.001c0.308-0.216,0.765-0.325,1.371-0.325
				c0.551,0,0.961,0.065,1.23,0.195c0.269,0.13,0.459,0.295,0.569,0.496c0.11,0.2,0.165,0.568,0.165,1.104l-0.013,1.439
				c0,0.41,0.02,0.712,0.06,0.906c0.039,0.195,0.113,0.403,0.222,0.625H19.81c-0.032-0.082-0.072-0.203-0.119-0.364
				c-0.021-0.073-0.035-0.122-0.044-0.145c-0.211,0.205-0.437,0.358-0.677,0.461s-0.496,0.154-0.769,0.154
				c-0.48,0-0.859-0.13-1.136-0.391s-0.415-0.59-0.415-0.987c0-0.264,0.063-0.499,0.189-0.705c0.125-0.206,0.302-0.364,0.529-0.474
				c0.227-0.109,0.554-0.206,0.982-0.287c0.577-0.108,0.977-0.209,1.199-0.303V71.96c0-0.237-0.059-0.406-0.176-0.507
				c-0.117-0.101-0.338-0.151-0.664-0.151c-0.219,0-0.391,0.043-0.514,0.129S17.975,71.669,17.898,71.886z M19.55,72.886
				c-0.158,0.053-0.409,0.116-0.751,0.189c-0.342,0.073-0.566,0.145-0.672,0.215c-0.161,0.114-0.242,0.259-0.242,0.435
				c0,0.173,0.064,0.322,0.193,0.448c0.129,0.125,0.293,0.188,0.492,0.188c0.222,0,0.435-0.073,0.637-0.219
				c0.149-0.111,0.248-0.248,0.294-0.408c0.032-0.105,0.048-0.306,0.048-0.601V72.886z"/>
			<path d="M26.065,71.842l-1.217,0.22c-0.041-0.243-0.134-0.426-0.279-0.549s-0.333-0.184-0.564-0.184
				c-0.308,0-0.553,0.106-0.736,0.318c-0.183,0.212-0.274,0.567-0.274,1.064c0,0.553,0.093,0.943,0.279,1.171
				c0.186,0.229,0.436,0.342,0.749,0.342c0.234,0,0.426-0.066,0.576-0.199c0.149-0.133,0.255-0.362,0.316-0.687l1.212,0.206
				c-0.126,0.556-0.368,0.976-0.725,1.26s-0.836,0.426-1.437,0.426c-0.682,0-1.226-0.215-1.632-0.646
				c-0.406-0.43-0.608-1.025-0.608-1.786c0-0.769,0.204-1.368,0.61-1.797c0.407-0.429,0.958-0.643,1.652-0.643
				c0.568,0,1.02,0.122,1.355,0.367C25.678,70.969,25.919,71.342,26.065,71.842z"/>
			<path d="M29.159,70.464v0.983h-0.843v1.878c0,0.38,0.008,0.602,0.024,0.665s0.053,0.115,0.11,0.156s0.126,0.062,0.208,0.062
				c0.114,0,0.28-0.04,0.497-0.119l0.105,0.957c-0.287,0.123-0.612,0.185-0.975,0.185c-0.223,0-0.423-0.038-0.602-0.112
				c-0.179-0.075-0.31-0.171-0.393-0.29c-0.083-0.118-0.142-0.278-0.173-0.48c-0.026-0.143-0.04-0.433-0.04-0.869v-2.032H26.51
				v-0.983h0.567v-0.926l1.239-0.72v1.646H29.159z"/>
			<path d="M30.016,69.832v-1.141h1.234v1.141H30.016z M30.016,75.125v-4.661h1.234v4.661H30.016z"/>
			<path d="M32.229,72.729c0-0.41,0.101-0.806,0.303-1.189c0.202-0.383,0.488-0.676,0.858-0.878
				c0.371-0.202,0.784-0.303,1.241-0.303c0.706,0,1.284,0.229,1.735,0.687s0.677,1.036,0.677,1.736c0,0.705-0.228,1.29-0.683,1.753
				c-0.456,0.464-1.029,0.696-1.72,0.696c-0.428,0-0.835-0.097-1.224-0.29c-0.388-0.193-0.683-0.477-0.885-0.85
				C32.331,73.718,32.229,73.264,32.229,72.729z M33.495,72.794c0,0.462,0.11,0.816,0.33,1.063c0.22,0.246,0.49,0.368,0.813,0.368
				s0.592-0.123,0.811-0.368c0.218-0.246,0.327-0.603,0.327-1.071c0-0.456-0.109-0.807-0.327-1.053
				c-0.218-0.246-0.488-0.369-0.811-0.369s-0.593,0.123-0.813,0.369C33.604,71.978,33.495,72.332,33.495,72.794z"/>
			<path d="M42.3,75.125h-1.234v-2.378c0-0.503-0.026-0.829-0.079-0.977c-0.053-0.148-0.139-0.263-0.257-0.345
				c-0.119-0.082-0.261-0.123-0.428-0.123c-0.214,0-0.406,0.059-0.576,0.175c-0.169,0.117-0.286,0.272-0.349,0.465
				c-0.063,0.193-0.094,0.55-0.094,1.071v2.111h-1.234v-4.661h1.146v0.685c0.407-0.527,0.919-0.79,1.538-0.79
				c0.272,0,0.521,0.049,0.747,0.147c0.226,0.098,0.396,0.223,0.512,0.375c0.116,0.152,0.196,0.325,0.242,0.518
				c0.045,0.193,0.068,0.47,0.068,0.83V75.125z"/>
			<path d="M44.474,71.886l-1.12-0.202c0.126-0.451,0.342-0.784,0.65-1.001c0.308-0.216,0.765-0.325,1.371-0.325
				c0.551,0,0.961,0.065,1.23,0.195c0.269,0.13,0.459,0.295,0.569,0.496c0.11,0.2,0.165,0.568,0.165,1.104l-0.013,1.439
				c0,0.41,0.02,0.712,0.06,0.906c0.039,0.195,0.113,0.403,0.222,0.625h-1.221c-0.032-0.082-0.072-0.203-0.119-0.364
				c-0.021-0.073-0.035-0.122-0.044-0.145c-0.211,0.205-0.437,0.358-0.677,0.461s-0.496,0.154-0.769,0.154
				c-0.48,0-0.859-0.13-1.136-0.391s-0.415-0.59-0.415-0.987c0-0.264,0.063-0.499,0.189-0.705c0.125-0.206,0.302-0.364,0.529-0.474
				c0.227-0.109,0.554-0.206,0.982-0.287c0.577-0.108,0.977-0.209,1.199-0.303V71.96c0-0.237-0.059-0.406-0.176-0.507
				c-0.117-0.101-0.338-0.151-0.664-0.151c-0.219,0-0.391,0.043-0.514,0.129S44.55,71.669,44.474,71.886z M46.126,72.886
				c-0.158,0.053-0.409,0.116-0.751,0.189c-0.342,0.073-0.566,0.145-0.672,0.215c-0.161,0.114-0.242,0.259-0.242,0.435
				c0,0.173,0.064,0.322,0.193,0.448c0.129,0.125,0.293,0.188,0.492,0.188c0.222,0,0.435-0.073,0.637-0.219
				c0.149-0.111,0.248-0.248,0.294-0.408c0.032-0.105,0.048-0.306,0.048-0.601V72.886z"/>
			<path d="M48.501,75.125v-6.434h1.234v6.434H48.501z"/>
		</g>
	</g>
	<g clip-path="url(#SVGID_2_)">
		<defs>
			<rect id="SVGID_7_" x="7.333" y="77.3" width="55.551" height="12.709"/>
		</defs>
		<clipPath id="SVGID_8_">
			<use xlink:href="#SVGID_7_"  overflow="visible"/>
		</clipPath>
		<g clip-path="url(#SVGID_8_)">
			<path d="M7.979,80.52v-1.141h1.234v1.141H7.979z M7.979,85.812v-4.661h1.234v4.661H7.979z"/>
			<path d="M14.75,85.812h-1.234v-2.378c0-0.503-0.026-0.829-0.079-0.977c-0.053-0.148-0.139-0.263-0.257-0.345
				c-0.119-0.082-0.261-0.123-0.428-0.123c-0.214,0-0.406,0.059-0.576,0.175c-0.169,0.117-0.286,0.272-0.349,0.465
				c-0.063,0.193-0.094,0.55-0.094,1.071v2.111h-1.234v-4.661h1.146v0.685c0.407-0.527,0.919-0.79,1.538-0.79
				c0.272,0,0.521,0.049,0.747,0.147c0.226,0.098,0.396,0.223,0.512,0.375c0.116,0.152,0.196,0.325,0.242,0.518
				c0.045,0.193,0.068,0.47,0.068,0.83V85.812z"/>
			<path d="M15.966,81.151h1.151v0.685c0.149-0.234,0.352-0.424,0.606-0.57c0.255-0.146,0.538-0.22,0.848-0.22
				c0.542,0,1.001,0.212,1.379,0.636c0.378,0.424,0.567,1.016,0.567,1.773c0,0.778-0.19,1.383-0.571,1.814s-0.842,0.647-1.384,0.647
				c-0.258,0-0.491-0.051-0.701-0.154s-0.43-0.278-0.661-0.526v2.348h-1.234V81.151z M17.188,83.403
				c0,0.523,0.104,0.911,0.312,1.161c0.208,0.25,0.461,0.375,0.76,0.375c0.287,0,0.526-0.115,0.716-0.344
				c0.19-0.229,0.285-0.606,0.285-1.13c0-0.489-0.098-0.852-0.294-1.088c-0.196-0.237-0.439-0.355-0.729-0.355
				c-0.302,0-0.552,0.116-0.751,0.349C17.287,82.602,17.188,82.946,17.188,83.403z"/>
			<path d="M24.613,85.812v-0.698c-0.17,0.249-0.394,0.445-0.67,0.588c-0.276,0.144-0.569,0.215-0.876,0.215
				c-0.313,0-0.595-0.069-0.844-0.207c-0.249-0.137-0.429-0.331-0.541-0.579s-0.167-0.592-0.167-1.031v-2.949h1.234v2.142
				c0,0.655,0.022,1.057,0.068,1.205c0.045,0.148,0.128,0.265,0.249,0.351c0.12,0.086,0.272,0.129,0.457,0.129
				c0.211,0,0.4-0.058,0.567-0.173c0.167-0.115,0.281-0.259,0.343-0.43c0.062-0.171,0.092-0.59,0.092-1.257v-1.966h1.234v4.661
				H24.613z"/>
			<path d="M29.177,81.151v0.983h-0.843v1.878c0,0.38,0.008,0.602,0.024,0.665s0.053,0.115,0.11,0.156s0.126,0.062,0.208,0.062
				c0.114,0,0.28-0.04,0.497-0.119l0.105,0.957c-0.287,0.123-0.612,0.185-0.975,0.185c-0.223,0-0.423-0.038-0.602-0.112
				c-0.179-0.075-0.31-0.171-0.393-0.29c-0.083-0.118-0.142-0.278-0.173-0.48c-0.026-0.143-0.04-0.433-0.04-0.869v-2.032h-0.567
				v-0.983h0.567v-0.926l1.239-0.72v1.646H29.177z"/>
			<path d="M32.543,81.151h1.151v0.685c0.149-0.234,0.352-0.424,0.606-0.57c0.255-0.146,0.538-0.22,0.848-0.22
				c0.542,0,1.001,0.212,1.379,0.636c0.378,0.424,0.567,1.016,0.567,1.773c0,0.778-0.19,1.383-0.571,1.814s-0.842,0.647-1.384,0.647
				c-0.258,0-0.491-0.051-0.701-0.154s-0.43-0.278-0.661-0.526v2.348h-1.234V81.151z M33.765,83.403
				c0,0.523,0.104,0.911,0.312,1.161c0.208,0.25,0.461,0.375,0.76,0.375c0.287,0,0.526-0.115,0.716-0.344
				c0.19-0.229,0.285-0.606,0.285-1.13c0-0.489-0.098-0.852-0.294-1.088c-0.196-0.237-0.439-0.355-0.729-0.355
				c-0.302,0-0.552,0.116-0.751,0.349C33.864,82.602,33.765,82.946,33.765,83.403z"/>
			<path d="M37.789,83.416c0-0.41,0.101-0.806,0.303-1.189c0.202-0.383,0.488-0.676,0.858-0.878
				c0.371-0.202,0.784-0.303,1.241-0.303c0.706,0,1.284,0.229,1.735,0.687s0.677,1.036,0.677,1.736c0,0.705-0.228,1.29-0.683,1.753
				c-0.456,0.464-1.029,0.696-1.72,0.696c-0.428,0-0.835-0.097-1.224-0.29c-0.388-0.193-0.683-0.477-0.885-0.85
				C37.89,84.405,37.789,83.951,37.789,83.416z M39.054,83.481c0,0.462,0.11,0.816,0.33,1.063c0.22,0.246,0.49,0.368,0.813,0.368
				s0.592-0.123,0.811-0.368c0.218-0.246,0.327-0.603,0.327-1.071c0-0.456-0.109-0.807-0.327-1.053
				c-0.218-0.246-0.488-0.369-0.811-0.369s-0.593,0.123-0.813,0.369C39.164,82.666,39.054,83.02,39.054,83.481z"/>
			<path d="M44.377,85.812l-1.476-4.661H44.1l0.875,3.054l0.804-3.054h1.19l0.778,3.054l0.892-3.054h1.217l-1.498,4.661h-1.186
				l-0.804-2.998l-0.791,2.998H44.377z"/>
			<path d="M53.288,84.329l1.23,0.207c-0.158,0.45-0.408,0.793-0.749,1.029c-0.341,0.236-0.768,0.354-1.281,0.354
				c-0.811,0-1.412-0.265-1.801-0.794c-0.308-0.424-0.461-0.959-0.461-1.606c0-0.772,0.202-1.377,0.606-1.814
				c0.404-0.438,0.916-0.656,1.533-0.656c0.694,0,1.242,0.229,1.643,0.687s0.593,1.159,0.576,2.104h-3.093
				c0.009,0.366,0.108,0.65,0.299,0.854c0.19,0.203,0.427,0.305,0.711,0.305c0.193,0,0.356-0.053,0.488-0.158
				C53.121,84.732,53.221,84.563,53.288,84.329z M53.358,83.083c-0.009-0.357-0.101-0.628-0.277-0.814
				c-0.176-0.186-0.39-0.278-0.642-0.278c-0.27,0-0.492,0.098-0.667,0.294c-0.176,0.196-0.262,0.462-0.259,0.799H53.358z"/>
			<path d="M56.79,85.812h-1.234v-4.661h1.146v0.663c0.196-0.313,0.373-0.519,0.529-0.619s0.334-0.149,0.534-0.149
				c0.281,0,0.552,0.078,0.813,0.233l-0.382,1.075c-0.208-0.135-0.401-0.202-0.58-0.202c-0.173,0-0.319,0.048-0.439,0.143
				c-0.12,0.095-0.215,0.267-0.284,0.516c-0.069,0.249-0.103,0.77-0.103,1.563V85.812z"/>
		</g>
	</g>
	<g clip-path="url(#SVGID_2_)">
		<defs>
			<rect id="SVGID_9_" x="49.207" y="17.774" width="16.547" height="11.866"/>
		</defs>
		<clipPath id="SVGID_10_">
			<use xlink:href="#SVGID_9_"  overflow="visible"/>
		</clipPath>
		<g clip-path="url(#SVGID_10_)">
			<path d="M52.559,25.934h-0.791V20.9c-0.19,0.182-0.44,0.363-0.749,0.544c-0.309,0.182-0.586,0.318-0.833,0.408v-0.764
				c0.442-0.208,0.829-0.459,1.16-0.754c0.331-0.296,0.565-0.583,0.703-0.86h0.51V25.934z"/>
			<path d="M55.063,25.934v-0.9h0.901v0.9H55.063z"/>
			<path d="M57.155,22.761c0-0.761,0.078-1.373,0.235-1.837c0.157-0.463,0.39-0.821,0.699-1.073
				c0.309-0.251,0.698-0.377,1.166-0.377c0.346,0,0.649,0.069,0.91,0.208s0.476,0.339,0.646,0.601c0.17,0.262,0.303,0.581,0.4,0.957
				s0.145,0.883,0.145,1.521c0,0.755-0.078,1.364-0.233,1.828c-0.155,0.464-0.387,0.822-0.696,1.075
				c-0.309,0.253-0.699,0.38-1.171,0.38c-0.621,0-1.108-0.223-1.463-0.667C57.368,24.841,57.155,23.97,57.155,22.761z
				 M57.968,22.761c0,1.056,0.124,1.759,0.371,2.108c0.248,0.35,0.553,0.524,0.916,0.524c0.363,0,0.668-0.175,0.916-0.526
				s0.371-1.053,0.371-2.106c0-1.059-0.124-1.763-0.371-2.111s-0.556-0.522-0.925-0.522c-0.363,0-0.653,0.154-0.87,0.461
				C58.104,20.981,57.968,21.705,57.968,22.761z"/>
		</g>
	</g>
	<g clip-path="url(#SVGID_2_)">
		<defs>
			<rect id="SVGID_11_" x="56.395" y="129.151" width="8.997" height="11.866"/>
		</defs>
		<clipPath id="SVGID_12_">
			<use xlink:href="#SVGID_11_"  overflow="visible"/>
		</clipPath>
		<g clip-path="url(#SVGID_12_)">
			<path d="M56.769,134.129c0-0.761,0.078-1.373,0.235-1.837c0.157-0.463,0.39-0.821,0.699-1.073
				c0.309-0.251,0.698-0.377,1.166-0.377c0.346,0,0.649,0.069,0.91,0.208s0.476,0.339,0.646,0.601c0.17,0.262,0.303,0.581,0.4,0.957
				s0.145,0.883,0.145,1.521c0,0.755-0.078,1.364-0.233,1.828c-0.155,0.464-0.387,0.822-0.696,1.075
				c-0.309,0.253-0.699,0.38-1.171,0.38c-0.621,0-1.108-0.223-1.463-0.667C56.981,136.209,56.769,135.338,56.769,134.129z
				 M57.581,134.129c0,1.056,0.124,1.759,0.371,2.108c0.248,0.35,0.553,0.524,0.916,0.524c0.363,0,0.668-0.175,0.916-0.526
				s0.371-1.053,0.371-2.106c0-1.059-0.124-1.763-0.371-2.111s-0.556-0.522-0.925-0.522c-0.363,0-0.653,0.154-0.87,0.461
				C57.717,132.349,57.581,133.073,57.581,134.129z"/>
		</g>
	</g>
	<g clip-path="url(#SVGID_2_)">
		<defs>
			<rect id="SVGID_13_" x="67.2" y="141.138" width="8.997" height="11.77"/>
		</defs>
		<clipPath id="SVGID_14_">
			<use xlink:href="#SVGID_13_"  overflow="visible"/>
		</clipPath>
		<g clip-path="url(#SVGID_14_)">
			<path d="M67.574,146.14c0-0.761,0.078-1.373,0.235-1.837c0.157-0.463,0.39-0.821,0.699-1.073
				c0.309-0.251,0.698-0.377,1.166-0.377c0.346,0,0.649,0.069,0.91,0.208s0.476,0.339,0.646,0.601c0.17,0.262,0.303,0.581,0.4,0.957
				s0.145,0.883,0.145,1.521c0,0.755-0.078,1.364-0.233,1.828c-0.155,0.464-0.387,0.822-0.696,1.075
				c-0.309,0.253-0.699,0.38-1.171,0.38c-0.621,0-1.108-0.223-1.463-0.667C67.786,148.22,67.574,147.349,67.574,146.14z
				 M68.386,146.14c0,1.056,0.124,1.759,0.371,2.108c0.248,0.35,0.553,0.524,0.916,0.524c0.363,0,0.668-0.175,0.916-0.526
				s0.371-1.053,0.371-2.106c0-1.059-0.124-1.763-0.371-2.111s-0.556-0.522-0.925-0.522c-0.363,0-0.653,0.154-0.87,0.461
				C68.522,144.36,68.386,145.084,68.386,146.14z"/>
		</g>
	</g>
	<g clip-path="url(#SVGID_2_)">
		<defs>
			<rect id="SVGID_15_" x="156.378" y="163.229" width="86.521" height="11.89"/>
		</defs>
		<clipPath id="SVGID_16_">
			<use xlink:href="#SVGID_15_"  overflow="visible"/>
		</clipPath>
		<g clip-path="url(#SVGID_16_)">
			<path d="M157.217,171.379v-6.434h0.853v6.434H157.217z"/>
			<path d="M159.481,171.379v-6.434h0.791v6.434H159.481z"/>
			<path d="M161.516,171.379v-6.434h0.791v6.434H161.516z"/>
			<path d="M166.625,171.379v-0.685c-0.363,0.526-0.857,0.79-1.48,0.79c-0.275,0-0.533-0.053-0.771-0.158
				c-0.239-0.105-0.416-0.238-0.532-0.397c-0.116-0.16-0.197-0.355-0.244-0.586c-0.032-0.155-0.048-0.401-0.048-0.737v-2.888h0.791
				v2.585c0,0.413,0.016,0.69,0.048,0.833c0.05,0.208,0.155,0.371,0.316,0.49c0.161,0.118,0.36,0.178,0.597,0.178
				c0.237,0,0.46-0.061,0.668-0.182c0.208-0.122,0.355-0.287,0.441-0.496s0.13-0.513,0.13-0.911v-2.497h0.791v4.661H166.625z"/>
			<path d="M168.491,171.379v-4.661h0.707v0.654c0.146-0.228,0.341-0.412,0.584-0.551c0.243-0.139,0.52-0.208,0.83-0.208
				c0.346,0,0.629,0.072,0.85,0.215c0.221,0.143,0.377,0.344,0.468,0.601c0.369-0.544,0.85-0.816,1.441-0.816
				c0.463,0,0.819,0.128,1.068,0.384c0.249,0.256,0.373,0.65,0.373,1.183v3.199h-0.786v-2.936c0-0.316-0.026-0.543-0.077-0.682
				c-0.051-0.139-0.144-0.251-0.279-0.336s-0.293-0.127-0.475-0.127c-0.328,0-0.6,0.109-0.817,0.327s-0.325,0.567-0.325,1.047v2.708
				h-0.791v-3.028c0-0.351-0.064-0.614-0.193-0.79c-0.129-0.176-0.34-0.264-0.633-0.264c-0.223,0-0.428,0.059-0.617,0.176
				s-0.326,0.288-0.411,0.513c-0.085,0.226-0.127,0.55-0.127,0.975v2.418H168.491z"/>
			<path d="M176.026,165.854v-0.908h0.791v0.908H176.026z M176.026,171.379v-4.661h0.791v4.661H176.026z"/>
			<path d="M178.056,171.379v-4.661h0.711v0.663c0.343-0.512,0.837-0.768,1.485-0.768c0.281,0,0.54,0.051,0.775,0.151
				c0.236,0.101,0.412,0.233,0.529,0.397c0.117,0.164,0.199,0.358,0.246,0.583c0.029,0.146,0.044,0.402,0.044,0.768v2.866h-0.791
				v-2.835c0-0.322-0.031-0.563-0.092-0.722c-0.062-0.159-0.171-0.287-0.328-0.382c-0.157-0.095-0.34-0.143-0.551-0.143
				c-0.337,0-0.627,0.107-0.872,0.32c-0.245,0.214-0.367,0.619-0.367,1.216v2.545H178.056z"/>
			<path d="M186.023,170.805c-0.293,0.249-0.575,0.424-0.846,0.526c-0.271,0.103-0.562,0.154-0.872,0.154
				c-0.513,0-0.907-0.125-1.182-0.375c-0.275-0.25-0.413-0.57-0.413-0.959c0-0.228,0.052-0.437,0.156-0.625
				c0.104-0.189,0.24-0.34,0.409-0.455c0.168-0.114,0.358-0.2,0.569-0.259c0.155-0.041,0.39-0.081,0.703-0.119
				c0.638-0.076,1.108-0.167,1.41-0.272c0.003-0.108,0.004-0.177,0.004-0.206c0-0.322-0.075-0.549-0.224-0.68
				c-0.202-0.179-0.502-0.268-0.901-0.268c-0.372,0-0.646,0.065-0.824,0.195c-0.177,0.13-0.308,0.361-0.393,0.691l-0.773-0.105
				c0.07-0.331,0.186-0.598,0.347-0.801c0.161-0.203,0.394-0.36,0.699-0.47c0.305-0.109,0.657-0.165,1.059-0.165
				c0.398,0,0.722,0.047,0.971,0.141c0.249,0.094,0.432,0.211,0.549,0.353c0.117,0.142,0.199,0.321,0.246,0.538
				c0.026,0.135,0.04,0.377,0.04,0.729v1.053c0,0.734,0.017,1.199,0.051,1.394c0.033,0.195,0.1,0.381,0.2,0.56h-0.826
				C186.099,171.216,186.047,171.024,186.023,170.805z M185.958,169.04c-0.287,0.117-0.718,0.217-1.292,0.299
				c-0.325,0.047-0.555,0.099-0.689,0.158s-0.239,0.144-0.312,0.257s-0.11,0.238-0.11,0.375c0,0.211,0.08,0.386,0.24,0.527
				c0.159,0.141,0.393,0.21,0.701,0.21c0.304,0,0.575-0.066,0.813-0.2c0.237-0.133,0.412-0.315,0.523-0.546
				c0.085-0.178,0.127-0.441,0.127-0.79V169.04z"/>
			<path d="M188.001,171.379v-4.661h0.711v0.663c0.343-0.512,0.837-0.768,1.485-0.768c0.281,0,0.54,0.051,0.775,0.151
				c0.236,0.101,0.412,0.233,0.529,0.397c0.117,0.164,0.199,0.358,0.246,0.583c0.029,0.146,0.044,0.402,0.044,0.768v2.866h-0.791
				v-2.835c0-0.322-0.031-0.563-0.092-0.722c-0.062-0.159-0.171-0.287-0.328-0.382c-0.157-0.095-0.34-0.143-0.551-0.143
				c-0.337,0-0.627,0.107-0.872,0.32c-0.245,0.214-0.367,0.619-0.367,1.216v2.545H188.001z"/>
			<path d="M196.067,169.672l0.777,0.101c-0.085,0.536-0.302,0.955-0.652,1.257c-0.35,0.303-0.78,0.455-1.29,0.455
				c-0.638,0-1.151-0.208-1.54-0.625s-0.582-1.015-0.582-1.793c0-0.503,0.083-0.943,0.25-1.321c0.167-0.377,0.421-0.661,0.762-0.849
				c0.341-0.189,0.712-0.283,1.113-0.283c0.507,0,0.921,0.128,1.244,0.384c0.322,0.256,0.528,0.619,0.619,1.09l-0.769,0.119
				c-0.073-0.313-0.203-0.549-0.389-0.707c-0.186-0.158-0.411-0.237-0.674-0.237c-0.398,0-0.722,0.143-0.971,0.428
				s-0.374,0.736-0.374,1.354c0,0.626,0.12,1.082,0.36,1.365s0.554,0.426,0.94,0.426c0.311,0,0.57-0.095,0.778-0.286
				C195.879,170.36,196.011,170.067,196.067,169.672z"/>
			<path d="M200.651,169.878l0.817,0.101c-0.129,0.477-0.368,0.847-0.716,1.11c-0.348,0.263-0.793,0.395-1.335,0.395
				c-0.682,0-1.223-0.21-1.623-0.63s-0.6-1.009-0.6-1.767c0-0.784,0.202-1.393,0.606-1.826c0.404-0.433,0.929-0.649,1.573-0.649
				c0.624,0,1.134,0.212,1.529,0.636c0.396,0.424,0.593,1.021,0.593,1.791c0,0.047-0.001,0.117-0.004,0.211h-3.479
				c0.029,0.512,0.174,0.904,0.435,1.176c0.261,0.272,0.586,0.408,0.975,0.408c0.29,0,0.538-0.076,0.743-0.229
				C200.369,170.455,200.531,170.212,200.651,169.878z M198.055,168.602h2.605c-0.035-0.392-0.134-0.686-0.298-0.882
				c-0.252-0.304-0.579-0.457-0.98-0.457c-0.363,0-0.668,0.122-0.916,0.364C198.219,167.87,198.082,168.195,198.055,168.602z"/>
			<path d="M204.69,169.988l0.782-0.123c0.044,0.313,0.167,0.553,0.367,0.72c0.2,0.167,0.481,0.25,0.841,0.25
				c0.363,0,0.633-0.074,0.809-0.222c0.176-0.148,0.264-0.321,0.264-0.52c0-0.179-0.078-0.319-0.233-0.421
				c-0.108-0.07-0.378-0.16-0.809-0.268c-0.58-0.146-0.981-0.272-1.206-0.379s-0.394-0.254-0.51-0.443
				c-0.116-0.188-0.173-0.397-0.173-0.625c0-0.208,0.047-0.4,0.143-0.577c0.095-0.177,0.225-0.324,0.389-0.441
				c0.123-0.09,0.291-0.167,0.503-0.23c0.212-0.063,0.44-0.094,0.683-0.094c0.366,0,0.688,0.053,0.964,0.158
				c0.277,0.105,0.481,0.248,0.613,0.428c0.131,0.18,0.222,0.421,0.272,0.722l-0.773,0.105c-0.035-0.24-0.137-0.427-0.305-0.562
				c-0.168-0.135-0.407-0.202-0.714-0.202c-0.363,0-0.623,0.06-0.778,0.18s-0.233,0.26-0.233,0.421c0,0.103,0.032,0.194,0.097,0.276
				c0.064,0.085,0.166,0.155,0.303,0.21c0.079,0.029,0.312,0.097,0.698,0.202c0.56,0.149,0.95,0.271,1.171,0.366
				c0.221,0.095,0.395,0.233,0.521,0.415c0.126,0.181,0.189,0.407,0.189,0.676c0,0.263-0.077,0.511-0.23,0.744
				c-0.154,0.233-0.375,0.413-0.666,0.54c-0.29,0.127-0.618,0.191-0.984,0.191c-0.606,0-1.068-0.126-1.386-0.377
				S204.778,170.483,204.69,169.988z"/>
			<path d="M212.635,169.878l0.817,0.101c-0.129,0.477-0.368,0.847-0.716,1.11c-0.348,0.263-0.793,0.395-1.335,0.395
				c-0.682,0-1.223-0.21-1.623-0.63s-0.6-1.009-0.6-1.767c0-0.784,0.202-1.393,0.606-1.826c0.404-0.433,0.929-0.649,1.573-0.649
				c0.624,0,1.134,0.212,1.529,0.636c0.396,0.424,0.593,1.021,0.593,1.791c0,0.047-0.001,0.117-0.004,0.211h-3.479
				c0.029,0.512,0.174,0.904,0.435,1.176c0.261,0.272,0.586,0.408,0.975,0.408c0.29,0,0.538-0.076,0.743-0.229
				C212.353,170.455,212.515,170.212,212.635,169.878z M210.039,168.602h2.605c-0.035-0.392-0.134-0.686-0.298-0.882
				c-0.252-0.304-0.579-0.457-0.98-0.457c-0.363,0-0.668,0.122-0.916,0.364C210.203,167.87,210.065,168.195,210.039,168.602z"/>
			<path d="M216.19,170.673l0.114,0.698c-0.223,0.047-0.421,0.07-0.597,0.07c-0.287,0-0.51-0.045-0.668-0.136
				c-0.158-0.09-0.27-0.21-0.334-0.357c-0.064-0.148-0.096-0.459-0.096-0.933v-2.682h-0.58v-0.614h0.58v-1.154l0.786-0.474v1.628
				h0.795v0.614h-0.795v2.726c0,0.225,0.014,0.37,0.042,0.434c0.028,0.064,0.073,0.116,0.136,0.154s0.153,0.057,0.271,0.057
				C215.931,170.704,216.047,170.693,216.19,170.673z"/>
			<path d="M219.517,173.166v-6.447h0.72v0.605c0.17-0.237,0.362-0.415,0.576-0.533c0.214-0.118,0.473-0.178,0.777-0.178
				c0.398,0,0.75,0.103,1.055,0.307c0.304,0.205,0.534,0.494,0.689,0.867c0.155,0.373,0.233,0.782,0.233,1.227
				c0,0.477-0.086,0.906-0.257,1.288c-0.171,0.382-0.42,0.675-0.747,0.878s-0.67,0.305-1.03,0.305c-0.264,0-0.5-0.056-0.709-0.167
				c-0.209-0.111-0.381-0.251-0.516-0.421v2.269H219.517z M220.233,169.075c0,0.6,0.122,1.043,0.365,1.33s0.537,0.43,0.883,0.43
				c0.352,0,0.652-0.149,0.903-0.446s0.375-0.757,0.375-1.38c0-0.594-0.122-1.039-0.367-1.334c-0.245-0.295-0.537-0.443-0.876-0.443
				c-0.337,0-0.635,0.157-0.894,0.472C220.363,168.019,220.233,168.476,220.233,169.075z"/>
			<path d="M224.244,169.049c0-0.863,0.24-1.502,0.72-1.917c0.401-0.345,0.891-0.518,1.467-0.518c0.642,0,1.166,0.21,1.573,0.63
				c0.407,0.42,0.611,1,0.611,1.74c0,0.6-0.09,1.071-0.27,1.415c-0.18,0.344-0.442,0.611-0.787,0.801
				c-0.344,0.19-0.72,0.286-1.127,0.286c-0.653,0-1.181-0.209-1.583-0.628C224.445,170.439,224.244,169.836,224.244,169.049z
				 M225.057,169.049c0,0.597,0.13,1.044,0.391,1.341s0.589,0.446,0.984,0.446c0.393,0,0.719-0.149,0.98-0.448
				c0.26-0.298,0.391-0.753,0.391-1.365c0-0.577-0.131-1.013-0.393-1.31s-0.588-0.446-0.978-0.446c-0.395,0-0.723,0.148-0.984,0.443
				S225.057,168.452,225.057,169.049z"/>
			<path d="M229.466,165.854v-0.908h0.791v0.908H229.466z M229.466,171.379v-4.661h0.791v4.661H229.466z"/>
			<path d="M231.497,171.379v-4.661h0.711v0.663c0.343-0.512,0.837-0.768,1.485-0.768c0.281,0,0.54,0.051,0.775,0.151
				c0.235,0.101,0.412,0.233,0.53,0.397c0.117,0.164,0.199,0.358,0.246,0.583c0.027,0.146,0.043,0.402,0.043,0.768v2.866h-0.791
				v-2.835c0-0.322-0.03-0.563-0.092-0.722c-0.062-0.159-0.171-0.287-0.328-0.382c-0.156-0.095-0.34-0.143-0.551-0.143
				c-0.337,0-0.627,0.107-0.872,0.32c-0.245,0.214-0.367,0.619-0.367,1.216v2.545H231.497z"/>
			<path d="M238.245,170.673l0.114,0.698c-0.223,0.047-0.422,0.07-0.598,0.07c-0.287,0-0.509-0.045-0.667-0.136
				c-0.158-0.09-0.27-0.21-0.334-0.357c-0.064-0.148-0.097-0.459-0.097-0.933v-2.682h-0.58v-0.614h0.58v-1.154l0.786-0.474v1.628
				h0.795v0.614h-0.795v2.726c0,0.225,0.014,0.37,0.042,0.434c0.027,0.064,0.073,0.116,0.136,0.154
				c0.063,0.038,0.153,0.057,0.271,0.057C237.986,170.704,238.101,170.693,238.245,170.673z"/>
		</g>
	</g>
	
		<line clip-path="url(#SVGID_2_)" fill="none" stroke="#000000" stroke-width="0.7233" stroke-linejoin="round" stroke-miterlimit="10" x1="195.6" y1="163.953" x2="195.839" y2="147.867"/>
	<polygon clip-path="url(#SVGID_2_)" fill-rule="evenodd" clip-rule="evenodd" points="199.797,148.107 195.839,140.294 
		192.001,148.107 	"/>
	<g clip-path="url(#SVGID_2_)">
		<defs>
			<rect id="SVGID_17_" x="76.8" y="6.734" width="45.009" height="12.468"/>
		</defs>
		<clipPath id="SVGID_18_">
			<use xlink:href="#SVGID_17_"  overflow="visible"/>
		</clipPath>
		<g clip-path="url(#SVGID_18_)">
			<path d="M77.205,12.822l0.804-0.07c0.038,0.322,0.127,0.586,0.266,0.792c0.139,0.207,0.355,0.373,0.648,0.5
				c0.292,0.127,0.622,0.191,0.988,0.191c0.325,0,0.612-0.048,0.861-0.145s0.435-0.229,0.556-0.397
				c0.122-0.168,0.183-0.352,0.183-0.551c0-0.202-0.059-0.378-0.176-0.529c-0.117-0.151-0.311-0.277-0.58-0.38
				c-0.173-0.067-0.555-0.172-1.146-0.313c-0.592-0.142-1.006-0.276-1.243-0.402c-0.308-0.161-0.537-0.36-0.688-0.599
				c-0.151-0.239-0.226-0.505-0.226-0.801c0-0.325,0.092-0.628,0.276-0.911c0.185-0.282,0.454-0.497,0.809-0.643
				c0.354-0.146,0.748-0.22,1.182-0.22c0.478,0,0.898,0.077,1.263,0.23c0.364,0.154,0.645,0.379,0.841,0.678
				c0.196,0.298,0.301,0.636,0.316,1.014l-0.817,0.062c-0.044-0.407-0.192-0.714-0.446-0.922c-0.253-0.208-0.627-0.312-1.123-0.312
				c-0.516,0-0.891,0.094-1.127,0.283c-0.236,0.188-0.354,0.416-0.354,0.682c0,0.231,0.083,0.421,0.25,0.571
				c0.164,0.149,0.592,0.302,1.285,0.458c0.693,0.157,1.168,0.293,1.426,0.41c0.375,0.173,0.652,0.392,0.83,0.656
				c0.179,0.265,0.268,0.57,0.268,0.915c0,0.342-0.098,0.665-0.294,0.968c-0.196,0.303-0.479,0.538-0.846,0.707
				c-0.368,0.168-0.782,0.252-1.241,0.252c-0.583,0-1.071-0.085-1.465-0.255c-0.394-0.169-0.703-0.425-0.927-0.766
				S77.217,13.252,77.205,12.822z"/>
			<path d="M85.121,14.183l0.114,0.698c-0.223,0.047-0.421,0.07-0.597,0.07c-0.287,0-0.51-0.045-0.668-0.136
				c-0.158-0.09-0.27-0.21-0.334-0.357c-0.064-0.148-0.096-0.459-0.096-0.933v-2.682h-0.58v-0.614h0.58V9.074L84.326,8.6v1.628
				h0.795v0.614h-0.795v2.726c0,0.225,0.014,0.37,0.042,0.434c0.028,0.064,0.073,0.116,0.136,0.154s0.153,0.057,0.271,0.057
				C84.862,14.213,84.978,14.203,85.121,14.183z"/>
			<path d="M89.115,13.388l0.817,0.101c-0.129,0.477-0.368,0.847-0.716,1.11c-0.348,0.263-0.793,0.395-1.335,0.395
				c-0.682,0-1.223-0.21-1.623-0.63s-0.6-1.009-0.6-1.767c0-0.784,0.202-1.393,0.606-1.826c0.404-0.433,0.929-0.649,1.573-0.649
				c0.624,0,1.134,0.212,1.529,0.636c0.396,0.424,0.593,1.021,0.593,1.791c0,0.047-0.001,0.117-0.004,0.211h-3.479
				c0.029,0.512,0.174,0.904,0.435,1.176c0.261,0.272,0.586,0.408,0.975,0.408c0.29,0,0.538-0.076,0.743-0.229
				C88.833,13.965,88.995,13.722,89.115,13.388z M86.519,12.111h2.605c-0.035-0.392-0.134-0.686-0.298-0.882
				c-0.252-0.304-0.579-0.457-0.98-0.457c-0.363,0-0.668,0.122-0.916,0.364C86.683,11.38,86.545,11.705,86.519,12.111z"/>
			<path d="M90.943,16.675v-6.447h0.72v0.605c0.17-0.237,0.362-0.415,0.576-0.533c0.214-0.118,0.473-0.178,0.777-0.178
				c0.398,0,0.75,0.103,1.055,0.307c0.304,0.205,0.534,0.494,0.689,0.867c0.155,0.373,0.233,0.782,0.233,1.227
				c0,0.477-0.086,0.906-0.257,1.288c-0.171,0.382-0.42,0.675-0.747,0.878s-0.67,0.305-1.03,0.305c-0.264,0-0.5-0.056-0.709-0.167
				c-0.209-0.111-0.381-0.251-0.516-0.421v2.269H90.943z M91.659,12.585c0,0.6,0.122,1.043,0.365,1.33s0.537,0.43,0.883,0.43
				c0.352,0,0.652-0.149,0.903-0.446s0.375-0.757,0.375-1.38c0-0.594-0.122-1.039-0.367-1.334c-0.245-0.295-0.537-0.443-0.876-0.443
				c-0.337,0-0.635,0.157-0.894,0.472C91.789,11.528,91.659,11.985,91.659,12.585z"/>
			<path d="M101.25,14.889h-0.791V9.855c-0.19,0.182-0.44,0.363-0.749,0.544c-0.309,0.182-0.586,0.318-0.833,0.408v-0.764
				c0.442-0.208,0.829-0.459,1.16-0.754c0.331-0.296,0.565-0.583,0.703-0.86h0.51V14.889z"/>
		</g>
	</g>
	<g clip-path="url(#SVGID_2_)">
		<defs>
			<rect id="SVGID_19_" x="116.409" y="45.732" width="44.985" height="12.492"/>
		</defs>
		<clipPath id="SVGID_20_">
			<use xlink:href="#SVGID_19_"  overflow="visible"/>
		</clipPath>
		<g clip-path="url(#SVGID_20_)">
			<path d="M116.813,51.813l0.804-0.07c0.038,0.322,0.127,0.586,0.266,0.792c0.139,0.207,0.355,0.373,0.648,0.5
				c0.292,0.127,0.622,0.191,0.988,0.191c0.325,0,0.612-0.048,0.861-0.145s0.435-0.229,0.556-0.397
				c0.122-0.168,0.183-0.352,0.183-0.551c0-0.202-0.059-0.378-0.176-0.529c-0.117-0.151-0.311-0.277-0.58-0.38
				c-0.173-0.067-0.555-0.172-1.146-0.313c-0.592-0.142-1.006-0.276-1.243-0.402c-0.308-0.161-0.537-0.36-0.688-0.599
				c-0.151-0.239-0.226-0.505-0.226-0.801c0-0.325,0.092-0.628,0.276-0.911c0.185-0.282,0.454-0.497,0.809-0.643
				c0.354-0.146,0.748-0.22,1.182-0.22c0.478,0,0.898,0.077,1.263,0.23c0.364,0.154,0.645,0.379,0.841,0.678
				c0.196,0.298,0.301,0.636,0.316,1.014l-0.817,0.062c-0.044-0.407-0.192-0.714-0.446-0.922c-0.253-0.208-0.627-0.312-1.123-0.312
				c-0.516,0-0.891,0.094-1.127,0.283c-0.236,0.188-0.354,0.416-0.354,0.682c0,0.231,0.083,0.421,0.25,0.571
				c0.164,0.149,0.592,0.302,1.285,0.458c0.693,0.157,1.168,0.293,1.426,0.41c0.375,0.173,0.652,0.392,0.83,0.656
				c0.179,0.265,0.268,0.57,0.268,0.915c0,0.342-0.098,0.665-0.294,0.968c-0.196,0.303-0.479,0.538-0.846,0.707
				c-0.368,0.168-0.782,0.252-1.241,0.252c-0.583,0-1.071-0.085-1.465-0.255c-0.394-0.169-0.703-0.425-0.927-0.766
				S116.825,52.244,116.813,51.813z"/>
			<path d="M124.729,53.174l0.114,0.698c-0.223,0.047-0.421,0.07-0.597,0.07c-0.287,0-0.51-0.045-0.668-0.136
				c-0.158-0.09-0.27-0.21-0.334-0.357c-0.064-0.148-0.096-0.459-0.096-0.933v-2.682h-0.58V49.22h0.58v-1.154l0.786-0.474v1.628
				h0.795v0.614h-0.795v2.726c0,0.225,0.014,0.37,0.042,0.434c0.028,0.064,0.073,0.116,0.136,0.154s0.153,0.057,0.271,0.057
				C124.47,53.205,124.586,53.194,124.729,53.174z"/>
			<path d="M128.723,52.379l0.817,0.101c-0.129,0.477-0.368,0.847-0.716,1.11c-0.348,0.263-0.793,0.395-1.335,0.395
				c-0.682,0-1.223-0.21-1.623-0.63s-0.6-1.009-0.6-1.767c0-0.784,0.202-1.393,0.606-1.826c0.404-0.433,0.929-0.649,1.573-0.649
				c0.624,0,1.134,0.212,1.529,0.636c0.396,0.424,0.593,1.021,0.593,1.791c0,0.047-0.001,0.117-0.004,0.211h-3.479
				c0.029,0.512,0.174,0.904,0.435,1.176c0.261,0.272,0.586,0.408,0.975,0.408c0.29,0,0.538-0.076,0.743-0.229
				C128.441,52.956,128.603,52.713,128.723,52.379z M126.127,51.103h2.605c-0.035-0.392-0.134-0.686-0.298-0.882
				c-0.252-0.304-0.579-0.457-0.98-0.457c-0.363,0-0.668,0.122-0.916,0.364C126.291,50.371,126.153,50.696,126.127,51.103z"/>
			<path d="M130.551,55.667V49.22h0.72v0.605c0.17-0.237,0.362-0.415,0.576-0.533c0.214-0.118,0.473-0.178,0.777-0.178
				c0.398,0,0.75,0.103,1.055,0.307c0.304,0.205,0.534,0.494,0.689,0.867c0.155,0.373,0.233,0.782,0.233,1.227
				c0,0.477-0.086,0.906-0.257,1.288c-0.171,0.382-0.42,0.675-0.747,0.878s-0.67,0.305-1.03,0.305c-0.264,0-0.5-0.056-0.709-0.167
				c-0.209-0.111-0.381-0.251-0.516-0.421v2.269H130.551z M131.267,51.576c0,0.6,0.122,1.043,0.365,1.33s0.537,0.43,0.883,0.43
				c0.352,0,0.652-0.149,0.903-0.446s0.375-0.757,0.375-1.38c0-0.594-0.122-1.039-0.367-1.334c-0.245-0.295-0.537-0.443-0.876-0.443
				c-0.337,0-0.635,0.157-0.894,0.472C131.397,50.52,131.267,50.977,131.267,51.576z"/>
			<path d="M142.036,53.121v0.759h-4.257c-0.006-0.19,0.025-0.373,0.092-0.548c0.108-0.29,0.282-0.575,0.521-0.856
				s0.583-0.605,1.035-0.974c0.7-0.574,1.173-1.028,1.419-1.363s0.369-0.652,0.369-0.95c0-0.313-0.112-0.577-0.336-0.792
				c-0.224-0.215-0.516-0.323-0.876-0.323c-0.38,0-0.685,0.114-0.914,0.342c-0.229,0.229-0.344,0.544-0.347,0.948l-0.813-0.083
				c0.056-0.606,0.265-1.067,0.628-1.385s0.851-0.476,1.463-0.476c0.618,0,1.107,0.171,1.467,0.514
				c0.36,0.342,0.541,0.766,0.541,1.272c0,0.257-0.053,0.511-0.158,0.759s-0.28,0.511-0.525,0.786s-0.651,0.652-1.219,1.132
				c-0.474,0.397-0.779,0.667-0.914,0.81c-0.135,0.142-0.246,0.285-0.334,0.428H142.036z"/>
		</g>
	</g>
	<g clip-path="url(#SVGID_2_)">
		<defs>
			<rect id="SVGID_21_" x="160.815" y="84.149" width="44.985" height="12.468"/>
		</defs>
		<clipPath id="SVGID_22_">
			<use xlink:href="#SVGID_21_"  overflow="visible"/>
		</clipPath>
		<g clip-path="url(#SVGID_22_)">
			<path d="M161.219,90.232l0.804-0.07c0.038,0.322,0.127,0.586,0.266,0.792c0.139,0.207,0.355,0.373,0.648,0.5
				c0.292,0.127,0.622,0.191,0.988,0.191c0.325,0,0.612-0.048,0.861-0.145s0.435-0.229,0.556-0.397
				c0.122-0.168,0.183-0.352,0.183-0.551c0-0.202-0.059-0.378-0.176-0.529c-0.117-0.151-0.311-0.277-0.58-0.38
				c-0.173-0.067-0.555-0.172-1.146-0.313c-0.592-0.142-1.006-0.276-1.243-0.402c-0.308-0.161-0.537-0.36-0.688-0.599
				c-0.151-0.239-0.226-0.505-0.226-0.801c0-0.325,0.092-0.628,0.276-0.911c0.185-0.282,0.454-0.497,0.809-0.643
				c0.354-0.146,0.748-0.22,1.182-0.22c0.478,0,0.898,0.077,1.263,0.23c0.364,0.154,0.645,0.379,0.841,0.678
				c0.196,0.298,0.301,0.636,0.316,1.014l-0.817,0.062c-0.044-0.407-0.192-0.714-0.446-0.922c-0.253-0.208-0.627-0.312-1.123-0.312
				c-0.516,0-0.891,0.094-1.127,0.283c-0.236,0.188-0.354,0.416-0.354,0.682c0,0.231,0.083,0.421,0.25,0.571
				c0.164,0.149,0.592,0.302,1.285,0.458c0.693,0.157,1.168,0.293,1.426,0.41c0.375,0.173,0.652,0.392,0.83,0.656
				c0.179,0.265,0.268,0.57,0.268,0.915c0,0.342-0.098,0.665-0.294,0.968c-0.196,0.303-0.479,0.538-0.846,0.707
				c-0.368,0.168-0.782,0.252-1.241,0.252c-0.583,0-1.071-0.085-1.465-0.255c-0.394-0.169-0.703-0.425-0.927-0.766
				S161.231,90.663,161.219,90.232z"/>
			<path d="M169.135,91.593l0.114,0.698c-0.223,0.047-0.421,0.07-0.597,0.07c-0.287,0-0.51-0.045-0.668-0.136
				c-0.158-0.09-0.27-0.21-0.334-0.357c-0.064-0.148-0.096-0.459-0.096-0.933v-2.682h-0.58v-0.614h0.58v-1.154l0.786-0.474v1.628
				h0.795v0.614h-0.795v2.726c0,0.225,0.014,0.37,0.042,0.434c0.028,0.064,0.073,0.116,0.136,0.154s0.153,0.057,0.271,0.057
				C168.876,91.624,168.992,91.613,169.135,91.593z"/>
			<path d="M173.129,90.798l0.817,0.101c-0.129,0.477-0.368,0.847-0.716,1.11c-0.348,0.263-0.793,0.395-1.335,0.395
				c-0.682,0-1.223-0.21-1.623-0.63s-0.6-1.009-0.6-1.767c0-0.784,0.202-1.393,0.606-1.826c0.404-0.433,0.929-0.649,1.573-0.649
				c0.624,0,1.134,0.212,1.529,0.636c0.396,0.424,0.593,1.021,0.593,1.791c0,0.047-0.001,0.117-0.004,0.211h-3.479
				c0.029,0.512,0.174,0.904,0.435,1.176c0.261,0.272,0.586,0.408,0.975,0.408c0.29,0,0.538-0.076,0.743-0.229
				C172.847,91.375,173.009,91.132,173.129,90.798z M170.533,89.521h2.605c-0.035-0.392-0.134-0.686-0.298-0.882
				c-0.252-0.304-0.579-0.457-0.98-0.457c-0.363,0-0.668,0.122-0.916,0.364C170.697,88.79,170.56,89.115,170.533,89.521z"/>
			<path d="M174.958,94.085v-6.447h0.72v0.605c0.17-0.237,0.362-0.415,0.576-0.533c0.214-0.118,0.473-0.178,0.777-0.178
				c0.398,0,0.75,0.103,1.055,0.307c0.304,0.205,0.534,0.494,0.689,0.867c0.155,0.373,0.233,0.782,0.233,1.227
				c0,0.477-0.086,0.906-0.257,1.288c-0.171,0.382-0.42,0.675-0.747,0.878s-0.67,0.305-1.03,0.305c-0.264,0-0.5-0.056-0.709-0.167
				c-0.209-0.111-0.381-0.251-0.516-0.421v2.269H174.958z M175.673,89.995c0,0.6,0.122,1.043,0.365,1.33s0.537,0.43,0.883,0.43
				c0.352,0,0.652-0.149,0.903-0.446s0.375-0.757,0.375-1.38c0-0.594-0.122-1.039-0.367-1.334c-0.245-0.295-0.537-0.443-0.876-0.443
				c-0.337,0-0.635,0.157-0.894,0.472C175.803,88.938,175.673,89.396,175.673,89.995z"/>
			<path d="M182.291,90.601l0.791-0.105c0.091,0.448,0.246,0.77,0.463,0.968c0.218,0.197,0.484,0.296,0.797,0.296
				c0.372,0,0.686-0.128,0.942-0.386c0.256-0.258,0.384-0.577,0.384-0.957c0-0.363-0.118-0.662-0.355-0.897
				c-0.237-0.235-0.539-0.353-0.905-0.353c-0.149,0-0.335,0.029-0.558,0.087l0.088-0.693c0.053,0.006,0.095,0.009,0.127,0.009
				c0.336,0,0.64-0.087,0.909-0.263c0.27-0.175,0.404-0.446,0.404-0.812c0-0.29-0.098-0.529-0.294-0.72
				c-0.196-0.19-0.45-0.285-0.76-0.285c-0.307,0-0.563,0.097-0.769,0.29c-0.205,0.193-0.337,0.483-0.396,0.869l-0.791-0.141
				c0.097-0.529,0.316-0.939,0.659-1.231c0.343-0.291,0.769-0.437,1.278-0.437c0.352,0,0.675,0.075,0.971,0.226
				c0.296,0.15,0.522,0.356,0.679,0.617c0.157,0.26,0.235,0.537,0.235,0.829c0,0.278-0.075,0.531-0.224,0.759
				c-0.149,0.229-0.371,0.41-0.663,0.544c0.38,0.087,0.676,0.27,0.887,0.546c0.211,0.276,0.316,0.623,0.316,1.038
				c0,0.562-0.205,1.038-0.615,1.429c-0.41,0.391-0.928,0.586-1.555,0.586c-0.565,0-1.034-0.168-1.408-0.505
				S182.343,91.136,182.291,90.601z"/>
		</g>
	</g>
</g>
<g>
</g>
<g>
</g>
</svg>
