<?xml version="1.0" encoding="utf-8"?>
<!-- Generator: Adobe Illustrator 16.0.0, SVG Export Plug-In . SVG Version: 6.00 Build 0)  -->
<!DOCTYPE svg PUBLIC "-//W3C//DTD SVG 1.1//EN" "http://www.w3.org/Graphics/SVG/1.1/DTD/svg11.dtd">
<svg version="1.1" id="Layer_1" xmlns="http://www.w3.org/2000/svg" xmlns:xlink="http://www.w3.org/1999/xlink" x="0px" y="0px"
	 width="377.551px" height="105.384px" viewBox="0 0 377.551 105.384" enable-background="new 0 0 377.551 105.384"
	 xml:space="preserve">
<g>
	<defs>
		<rect id="SVGID_1_" x="0.044" y="0.051" width="230.998" height="102.003"/>
	</defs>
	<clipPath id="SVGID_2_">
		<use xlink:href="#SVGID_1_"  overflow="visible"/>
	</clipPath>
	
		<rect x="1.491" y="1.492" clip-path="url(#SVGID_2_)" fill="none" stroke="#000000" stroke-width="2.9829" stroke-linejoin="round" stroke-miterlimit="10" width="191.526" height="97.175"/>
	<rect x="53.194" y="1.972" clip-path="url(#SVGID_2_)" width="3.014" height="98.497"/>
	<rect x="139.6" y="1.972" clip-path="url(#SVGID_2_)" width="3.014" height="98.497"/>
	<g clip-path="url(#SVGID_2_)">
		<defs>
			<rect id="SVGID_3_" x="23.557" y="69.606" width="26.527" height="13.209"/>
		</defs>
		<clipPath id="SVGID_4_">
			<use xlink:href="#SVGID_3_"  overflow="visible"/>
		</clipPath>
		<g clip-path="url(#SVGID_4_)">
			<path d="M23.708,82.695v-1.83l5.304-6.519h-4.705v-1.7h7.391v1.576l-5.531,6.779h5.745v1.693H23.708z"/>
		</g>
	</g>
	
		<rect x="191.202" y="23.589" clip-path="url(#SVGID_2_)" fill-rule="evenodd" clip-rule="evenodd" fill="#FFFFFF" width="3.014" height="51.061"/>
	
		<rect x="191.202" y="23.589" clip-path="url(#SVGID_2_)" fill="none" stroke="#000000" stroke-width="0.7217" stroke-linejoin="round" stroke-miterlimit="10" width="3.014" height="51.061"/>
	
		<rect x="138.414" y="26.71" clip-path="url(#SVGID_2_)" fill-rule="evenodd" clip-rule="evenodd" fill="#FFFFFF" width="2.99" height="46.258"/>
	
		<rect x="138.414" y="26.71" clip-path="url(#SVGID_2_)" fill="none" stroke="#000000" stroke-width="0.7217" stroke-linejoin="round" stroke-miterlimit="10" width="2.99" height="46.258"/>
	<g clip-path="url(#SVGID_2_)">
		<defs>
			<rect id="SVGID_5_" x="122.336" y="46.789" width="23.874" height="13.21"/>
		</defs>
		<clipPath id="SVGID_6_">
			<use xlink:href="#SVGID_5_"  overflow="visible"/>
		</clipPath>
		<g clip-path="url(#SVGID_6_)">
			<path d="M123.16,57.837v-8.589h1.743v8.589H123.16z"/>
			<path d="M127.788,57.837l-2.061-8.589h1.784l1.301,5.9l1.578-5.9h2.072l1.513,6l1.325-6h1.755l-2.096,8.589h-1.849l-1.719-6.421
				l-1.713,6.421H127.788z"/>
		</g>
	</g>
	<g clip-path="url(#SVGID_2_)">
		<defs>
			<rect id="SVGID_7_" x="34.36" y="46.069" width="23.054" height="13.089"/>
		</defs>
		<clipPath id="SVGID_8_">
			<use xlink:href="#SVGID_7_"  overflow="visible"/>
		</clipPath>
		<g clip-path="url(#SVGID_8_)">
			<path d="M35.184,57.116v-8.589h1.743v8.589H35.184z"/>
			<path d="M39.812,57.116l-2.061-8.589h1.784l1.301,5.9l1.578-5.9h2.072l1.513,6l1.325-6h1.755l-2.096,8.589h-1.849l-1.719-6.421
				l-1.713,6.421H39.812z"/>
		</g>
	</g>
	<g clip-path="url(#SVGID_2_)">
		<defs>
			<rect id="SVGID_9_" x="196.724" y="45.228" width="27.129" height="13.209"/>
		</defs>
		<clipPath id="SVGID_10_">
			<use xlink:href="#SVGID_9_"  overflow="visible"/>
		</clipPath>
		<g clip-path="url(#SVGID_10_)">
			<path d="M197.601,56.275v-8.589H204v1.453h-4.657v1.904h4.333v1.447h-4.333v2.337h4.822v1.447H197.601z"/>
			<path d="M206.868,56.275l-2.061-8.589h1.784l1.301,5.9l1.578-5.9h2.072l1.513,6l1.325-6h1.755l-2.096,8.589h-1.849l-1.719-6.421
				l-1.713,6.421H206.868z"/>
		</g>
	</g>
	<g clip-path="url(#SVGID_2_)">
		<defs>
			<rect id="SVGID_11_" x="89.921" y="69.606" width="26.526" height="13.209"/>
		</defs>
		<clipPath id="SVGID_12_">
			<use xlink:href="#SVGID_11_"  overflow="visible"/>
		</clipPath>
		<g clip-path="url(#SVGID_12_)">
			<path d="M90.072,82.695v-1.83l5.304-6.519h-4.705v-1.7h7.391v1.576l-5.531,6.779h5.745v1.693H90.072z"/>
			<path d="M103.991,82.695h-1.936v-7.259c-0.707,0.658-1.541,1.145-2.5,1.46v-1.748c0.505-0.165,1.054-0.476,1.646-0.936
				c0.592-0.459,0.999-0.995,1.219-1.607h1.57V82.695z"/>
		</g>
	</g>
	<g clip-path="url(#SVGID_2_)">
		<defs>
			<rect id="SVGID_13_" x="161.209" y="68.885" width="26.406" height="13.09"/>
		</defs>
		<clipPath id="SVGID_14_">
			<use xlink:href="#SVGID_13_"  overflow="visible"/>
		</clipPath>
		<g clip-path="url(#SVGID_14_)">
			<path d="M161.361,81.854v-1.83l5.304-6.519h-4.705v-1.7h7.391v1.576l-5.531,6.779h5.745v1.693H161.361z"/>
			<path d="M176.864,80.064v1.789h-6.785c0.074-0.676,0.294-1.317,0.662-1.923c0.367-0.605,1.093-1.408,2.177-2.409
				c0.872-0.809,1.407-1.357,1.605-1.645c0.266-0.397,0.399-0.791,0.399-1.179c0-0.43-0.116-0.76-0.348-0.991
				c-0.232-0.23-0.552-0.346-0.961-0.346c-0.404,0-0.726,0.121-0.964,0.363s-0.376,0.645-0.413,1.207l-1.929-0.192
				c0.115-1.06,0.475-1.821,1.082-2.283c0.606-0.461,1.364-0.692,2.273-0.692c0.997,0,1.779,0.268,2.349,0.802
				c0.569,0.535,0.854,1.199,0.854,1.995c0,0.452-0.082,0.883-0.245,1.292s-0.421,0.837-0.775,1.285
				c-0.234,0.297-0.657,0.724-1.268,1.282s-0.998,0.928-1.161,1.11c-0.163,0.183-0.295,0.361-0.396,0.535H176.864z"/>
		</g>
	</g>
	
		<rect x="52.856" y="26.71" clip-path="url(#SVGID_2_)" fill-rule="evenodd" clip-rule="evenodd" fill="#FFFFFF" width="2.87" height="46.258"/>
	
		<rect x="52.856" y="26.71" clip-path="url(#SVGID_2_)" fill="none" stroke="#000000" stroke-width="0.7217" stroke-linejoin="round" stroke-miterlimit="10" width="2.87" height="46.258"/>
</g>
<g>
</g>
<g>
</g>
</svg>
