<?xml version="1.0" encoding="utf-8"?>
<!-- Generator: Adobe Illustrator 16.0.0, SVG Export Plug-In . SVG Version: 6.00 Build 0)  -->
<!DOCTYPE svg PUBLIC "-//W3C//DTD SVG 1.1//EN" "http://www.w3.org/Graphics/SVG/1.1/DTD/svg11.dtd">
<svg version="1.1" id="Layer_1" xmlns="http://www.w3.org/2000/svg" xmlns:xlink="http://www.w3.org/1999/xlink" x="0px" y="0px"
	 width="404.417px" height="208.439px" viewBox="0 0 404.417 208.439" enable-background="new 0 0 404.417 208.439"
	 xml:space="preserve">
<g>
	<defs>
		<rect id="SVGID_1_" width="257.881" height="205.079"/>
	</defs>
	<clipPath id="SVGID_2_">
		<use xlink:href="#SVGID_1_"  overflow="visible"/>
	</clipPath>
	
		<polyline clip-path="url(#SVGID_2_)" fill="none" stroke="#000000" stroke-width="0.7235" stroke-linejoin="round" stroke-miterlimit="10" points="
		89.939,32.614 94.737,32.614 99.536,32.983 104.089,33.701 108.654,34.888 112.989,36.333 117.186,38.268 121.262,40.421 
		124.979,43.054 128.587,45.806 131.946,49.056 135.075,52.417 137.826,56.135 140.238,60.094 142.38,64.271 144.194,68.718 
		145.64,73.275 	"/>
	
		<polyline clip-path="url(#SVGID_2_)" fill="none" stroke="#000000" stroke-width="0.7235" stroke-linejoin="round" stroke-miterlimit="10" points="
		139.391,67.173 145.64,73.275 146.726,64.63 	"/>
	<g clip-path="url(#SVGID_2_)">
		<defs>
			<rect id="SVGID_3_" x="76.002" y="3.603" width="45.741" height="20.377"/>
		</defs>
		<clipPath id="SVGID_4_">
			<use xlink:href="#SVGID_3_"  overflow="visible"/>
		</clipPath>
		<g clip-path="url(#SVGID_4_)">
			<path d="M76.758,12.721V5.607h0.965l3.735,5.585V5.607h0.902v7.114h-0.965l-3.735-5.59v5.59H76.758z"/>
			<path d="M83.525,10.145c0-0.955,0.265-1.662,0.795-2.121c0.443-0.381,0.983-0.572,1.62-0.572c0.708,0,1.287,0.232,1.736,0.696
				c0.45,0.464,0.674,1.105,0.674,1.924c0,0.663-0.1,1.185-0.298,1.565c-0.199,0.38-0.488,0.675-0.868,0.886
				c-0.38,0.21-0.795,0.315-1.244,0.315c-0.721,0-1.304-0.231-1.749-0.694C83.748,11.681,83.525,11.015,83.525,10.145z
				 M84.422,10.145c0,0.66,0.144,1.154,0.432,1.482c0.288,0.328,0.65,0.493,1.086,0.493c0.433,0,0.794-0.165,1.082-0.495
				c0.288-0.33,0.432-0.833,0.432-1.509c0-0.637-0.145-1.12-0.434-1.449c-0.29-0.328-0.649-0.492-1.079-0.492
				c-0.437,0-0.799,0.163-1.086,0.49C84.566,8.991,84.422,9.484,84.422,10.145z"/>
			<path d="M89.366,12.721V7.567h0.786v0.781c0.2-0.365,0.385-0.606,0.555-0.723c0.17-0.117,0.356-0.175,0.56-0.175
				c0.294,0,0.594,0.094,0.897,0.281l-0.301,0.811c-0.213-0.126-0.427-0.189-0.64-0.189c-0.191,0-0.362,0.058-0.514,0.172
				s-0.26,0.274-0.325,0.478c-0.097,0.311-0.146,0.65-0.146,1.019v2.698H89.366z"/>
			<path d="M94.609,11.94l0.126,0.771c-0.246,0.052-0.466,0.078-0.66,0.078c-0.317,0-0.563-0.05-0.737-0.15
				c-0.175-0.1-0.298-0.232-0.369-0.396c-0.071-0.163-0.107-0.507-0.107-1.031V8.247h-0.64v-0.68h0.64V6.291l0.868-0.524v1.8h0.878
				v0.68h-0.878v3.013c0,0.25,0.016,0.41,0.046,0.48c0.03,0.071,0.081,0.128,0.15,0.17c0.069,0.042,0.169,0.063,0.298,0.063
				C94.323,11.974,94.451,11.962,94.609,11.94z"/>
			<path d="M95.463,12.721V5.607h0.873V8.16c0.408-0.473,0.922-0.708,1.542-0.708c0.382,0,0.713,0.075,0.995,0.226
				s0.482,0.358,0.604,0.624c0.121,0.265,0.182,0.65,0.182,1.155v3.266h-0.873V9.455c0-0.437-0.095-0.754-0.284-0.954
				c-0.189-0.199-0.457-0.298-0.803-0.298c-0.259,0-0.502,0.067-0.73,0.202s-0.391,0.316-0.488,0.546
				c-0.097,0.229-0.146,0.547-0.146,0.951v2.819H95.463z"/>
		</g>
	</g>
	<g clip-path="url(#SVGID_2_)">
		<defs>
			<rect id="SVGID_5_" x="7.209" y="73.036" width="45.741" height="34.646"/>
		</defs>
		<clipPath id="SVGID_6_">
			<use xlink:href="#SVGID_5_"  overflow="visible"/>
		</clipPath>
		<g clip-path="url(#SVGID_6_)">
			<path d="M7.937,82.257v-7.114h2.668c0.543,0,0.979,0.072,1.307,0.216c0.328,0.144,0.585,0.366,0.771,0.665
				s0.279,0.612,0.279,0.939c0,0.304-0.083,0.59-0.248,0.859c-0.165,0.269-0.414,0.485-0.747,0.65
				c0.43,0.126,0.761,0.341,0.992,0.646c0.231,0.304,0.347,0.663,0.347,1.077c0,0.333-0.07,0.643-0.211,0.929
				c-0.141,0.287-0.314,0.507-0.521,0.663s-0.466,0.272-0.778,0.352c-0.312,0.079-0.694,0.119-1.147,0.119H7.937z M8.878,78.132
				h1.538c0.417,0,0.716-0.027,0.897-0.083c0.239-0.071,0.42-0.189,0.541-0.354s0.182-0.372,0.182-0.621
				c0-0.236-0.057-0.444-0.17-0.624c-0.113-0.18-0.275-0.303-0.485-0.369c-0.21-0.066-0.571-0.1-1.082-0.1H8.878V78.132z
				 M8.878,81.418h1.771c0.304,0,0.518-0.012,0.641-0.034c0.216-0.039,0.397-0.104,0.543-0.194c0.146-0.091,0.265-0.223,0.359-0.396
				c0.094-0.173,0.141-0.373,0.141-0.6c0-0.265-0.068-0.496-0.204-0.691s-0.324-0.333-0.565-0.413
				c-0.241-0.079-0.588-0.119-1.041-0.119H8.878V81.418z"/>
			<path d="M17.866,82.257V81.5c-0.401,0.582-0.946,0.874-1.634,0.874c-0.304,0-0.588-0.059-0.852-0.175
				c-0.264-0.117-0.459-0.263-0.587-0.439c-0.128-0.176-0.217-0.392-0.269-0.647c-0.036-0.172-0.054-0.443-0.054-0.815v-3.193h0.874
				v2.858c0,0.456,0.018,0.764,0.053,0.922c0.055,0.23,0.171,0.41,0.349,0.542c0.178,0.131,0.398,0.196,0.66,0.196
				c0.262,0,0.508-0.067,0.737-0.201s0.392-0.317,0.488-0.548c0.095-0.231,0.143-0.567,0.143-1.007v-2.761h0.873v5.154H17.866z"/>
			<path d="M20.02,76.147v-1.004h0.873v1.004H20.02z M20.02,82.257v-5.154h0.873v5.154H20.02z"/>
			<path d="M22.243,82.257v-7.114h0.874v7.114H22.243z"/>
			<path d="M27.771,82.257v-0.65c-0.327,0.511-0.807,0.767-1.441,0.767c-0.411,0-0.788-0.113-1.132-0.34
				c-0.345-0.227-0.611-0.543-0.8-0.949c-0.189-0.406-0.284-0.873-0.284-1.4c0-0.515,0.086-0.981,0.257-1.4s0.428-0.74,0.771-0.963
				c0.343-0.223,0.726-0.334,1.15-0.334c0.311,0,0.587,0.065,0.83,0.196c0.242,0.131,0.439,0.302,0.592,0.512v-2.553h0.868v7.114
				H27.771z M25.011,79.686c0,0.66,0.139,1.153,0.417,1.48c0.278,0.327,0.606,0.49,0.984,0.49c0.382,0,0.706-0.156,0.973-0.468
				c0.267-0.313,0.4-0.789,0.4-1.429c0-0.706-0.136-1.223-0.408-1.553s-0.606-0.495-1.004-0.495c-0.388,0-0.712,0.158-0.973,0.476
				C25.142,78.503,25.011,79.003,25.011,79.686z"/>
			<path d="M30.059,76.147v-1.004h0.873v1.004H30.059z M30.059,82.257v-5.154h0.873v5.154H30.059z"/>
			<path d="M32.221,82.257v-5.154h0.786v0.733c0.378-0.566,0.925-0.849,1.64-0.849c0.311,0,0.596,0.056,0.856,0.167
				c0.26,0.111,0.455,0.258,0.584,0.439s0.22,0.396,0.271,0.646c0.032,0.162,0.048,0.445,0.048,0.849v3.169h-0.873v-3.135
				c0-0.356-0.034-0.622-0.102-0.798s-0.188-0.317-0.362-0.422c-0.173-0.105-0.375-0.158-0.608-0.158
				c-0.372,0-0.693,0.118-0.963,0.354c-0.27,0.236-0.405,0.684-0.405,1.344v2.814H32.221z"/>
			<path d="M37.685,82.685l0.849,0.126c0.036,0.262,0.134,0.453,0.296,0.573c0.216,0.162,0.512,0.243,0.888,0.243
				c0.404,0,0.716-0.081,0.936-0.243c0.22-0.162,0.369-0.388,0.446-0.68c0.045-0.178,0.066-0.551,0.063-1.121
				c-0.381,0.45-0.857,0.674-1.426,0.674c-0.708,0-1.256-0.255-1.644-0.767s-0.582-1.125-0.582-1.839
				c0-0.492,0.089-0.945,0.267-1.361c0.178-0.416,0.436-0.737,0.774-0.963c0.338-0.226,0.735-0.339,1.19-0.339
				c0.608,0,1.109,0.246,1.504,0.737v-0.621h0.805v4.455c0,0.802-0.082,1.371-0.245,1.706c-0.163,0.335-0.422,0.6-0.776,0.793
				c-0.354,0.194-0.79,0.292-1.307,0.292c-0.615,0-1.111-0.139-1.489-0.415C37.855,83.657,37.672,83.241,37.685,82.685z
				 M38.408,79.588c0,0.676,0.134,1.169,0.403,1.48s0.604,0.466,1.009,0.466c0.401,0,0.737-0.154,1.009-0.463
				c0.271-0.309,0.407-0.793,0.407-1.454c0-0.631-0.14-1.106-0.419-1.427c-0.28-0.32-0.617-0.48-1.011-0.48
				c-0.388,0-0.718,0.158-0.99,0.473S38.408,78.967,38.408,79.588z"/>
		</g>
		<g clip-path="url(#SVGID_6_)">
			<path d="M8.073,93.654V89.18H7.302V88.5h0.771v-0.548c0-0.346,0.031-0.603,0.092-0.771c0.084-0.227,0.232-0.41,0.444-0.551
				s0.508-0.211,0.89-0.211c0.246,0,0.518,0.029,0.815,0.087l-0.131,0.762c-0.181-0.032-0.353-0.049-0.514-0.049
				c-0.265,0-0.453,0.057-0.563,0.17s-0.165,0.325-0.165,0.636V88.5h1.004v0.68H8.941v4.474H8.073z"/>
			<path d="M10.419,91.077c0-0.955,0.265-1.662,0.795-2.121c0.443-0.381,0.983-0.572,1.62-0.572c0.708,0,1.287,0.232,1.736,0.696
				c0.45,0.464,0.674,1.105,0.674,1.924c0,0.663-0.1,1.185-0.298,1.565c-0.199,0.38-0.488,0.675-0.868,0.886
				c-0.38,0.21-0.795,0.315-1.244,0.315c-0.721,0-1.304-0.231-1.749-0.694C10.641,92.614,10.419,91.947,10.419,91.077z
				 M11.316,91.077c0,0.66,0.144,1.154,0.432,1.482c0.288,0.328,0.65,0.493,1.086,0.493c0.433,0,0.794-0.165,1.082-0.495
				c0.288-0.33,0.432-0.833,0.432-1.509c0-0.637-0.145-1.12-0.434-1.449c-0.29-0.328-0.649-0.492-1.079-0.492
				c-0.437,0-0.799,0.163-1.086,0.49C11.46,89.924,11.316,90.417,11.316,91.077z"/>
			<path d="M15.944,91.077c0-0.955,0.265-1.662,0.795-2.121c0.443-0.381,0.983-0.572,1.62-0.572c0.708,0,1.287,0.232,1.736,0.696
				c0.45,0.464,0.674,1.105,0.674,1.924c0,0.663-0.1,1.185-0.298,1.565c-0.199,0.38-0.488,0.675-0.868,0.886
				c-0.38,0.21-0.795,0.315-1.244,0.315c-0.721,0-1.304-0.231-1.749-0.694C16.166,92.614,15.944,91.947,15.944,91.077z
				 M16.841,91.077c0,0.66,0.144,1.154,0.432,1.482c0.288,0.328,0.65,0.493,1.086,0.493c0.433,0,0.794-0.165,1.082-0.495
				c0.288-0.33,0.432-0.833,0.432-1.509c0-0.637-0.145-1.12-0.434-1.449c-0.29-0.328-0.649-0.492-1.079-0.492
				c-0.437,0-0.799,0.163-1.086,0.49C16.985,89.924,16.841,90.417,16.841,91.077z"/>
			<path d="M23.7,92.873l0.126,0.771c-0.246,0.052-0.466,0.078-0.66,0.078c-0.317,0-0.563-0.05-0.737-0.15
				c-0.175-0.1-0.298-0.232-0.369-0.396c-0.071-0.163-0.107-0.507-0.107-1.031V89.18h-0.64V88.5h0.64v-1.276l0.868-0.524v1.8H23.7
				v0.68h-0.878v3.013c0,0.25,0.016,0.41,0.046,0.48c0.03,0.071,0.081,0.128,0.15,0.17c0.069,0.042,0.169,0.063,0.298,0.063
				C23.414,92.906,23.542,92.895,23.7,92.873z"/>
			<path d="M24.553,95.629V88.5h0.795v0.67c0.188-0.262,0.399-0.458,0.636-0.59c0.236-0.131,0.522-0.196,0.858-0.196
				c0.44,0,0.828,0.113,1.164,0.339c0.336,0.227,0.59,0.546,0.762,0.958c0.171,0.413,0.257,0.865,0.257,1.356
				c0,0.527-0.094,1.002-0.284,1.424c-0.189,0.422-0.464,0.746-0.824,0.971c-0.361,0.225-0.74,0.337-1.138,0.337
				c-0.291,0-0.552-0.062-0.783-0.185c-0.231-0.123-0.421-0.278-0.57-0.466v2.509H24.553z M25.344,91.106
				c0,0.664,0.134,1.153,0.403,1.471c0.269,0.317,0.593,0.476,0.975,0.476c0.388,0,0.72-0.165,0.997-0.493
				c0.276-0.329,0.415-0.837,0.415-1.526c0-0.657-0.135-1.148-0.405-1.475s-0.593-0.49-0.968-0.49c-0.372,0-0.701,0.174-0.987,0.521
				C25.487,89.938,25.344,90.443,25.344,91.106z"/>
			<path d="M30.069,93.654V88.5h0.786v0.781c0.2-0.365,0.385-0.606,0.555-0.723c0.17-0.117,0.356-0.175,0.56-0.175
				c0.294,0,0.594,0.094,0.897,0.281l-0.301,0.811c-0.213-0.126-0.427-0.189-0.64-0.189c-0.191,0-0.362,0.058-0.514,0.172
				s-0.26,0.274-0.325,0.478c-0.097,0.311-0.146,0.65-0.146,1.019v2.698H30.069z"/>
			<path d="M33.421,87.544V86.54h0.873v1.004H33.421z M33.421,93.654V88.5h0.873v5.154H33.421z"/>
			<path d="M35.583,93.654V88.5h0.786v0.733c0.378-0.566,0.925-0.849,1.64-0.849c0.311,0,0.596,0.056,0.856,0.167
				c0.26,0.111,0.455,0.258,0.584,0.439s0.22,0.396,0.271,0.646c0.032,0.162,0.048,0.445,0.048,0.849v3.169h-0.873v-3.135
				c0-0.356-0.034-0.622-0.102-0.798s-0.188-0.317-0.362-0.422c-0.173-0.105-0.375-0.158-0.608-0.158
				c-0.372,0-0.693,0.118-0.963,0.354c-0.27,0.236-0.405,0.684-0.405,1.344v2.814H35.583z"/>
			<path d="M43.015,92.873l0.126,0.771c-0.246,0.052-0.466,0.078-0.66,0.078c-0.317,0-0.563-0.05-0.737-0.15
				c-0.175-0.1-0.298-0.232-0.369-0.396c-0.071-0.163-0.107-0.507-0.107-1.031V89.18h-0.64V88.5h0.64v-1.276l0.868-0.524v1.8h0.878
				v0.68h-0.878v3.013c0,0.25,0.016,0.41,0.046,0.48c0.03,0.071,0.081,0.128,0.15,0.17c0.069,0.042,0.169,0.063,0.298,0.063
				C42.729,92.906,42.857,92.895,43.015,92.873z"/>
		</g>
	</g>
	<g clip-path="url(#SVGID_2_)">
		<defs>
			<rect id="SVGID_7_" x="123.913" y="24.817" width="21.244" height="22.913"/>
		</defs>
		<clipPath id="SVGID_8_">
			<use xlink:href="#SVGID_7_"  overflow="visible"/>
		</clipPath>
		<g clip-path="url(#SVGID_8_)">
			<path d="M127.997,39.203l-0.084-0.731h-0.036c-0.323,0.456-0.946,0.863-1.773,0.863c-1.174,0-1.772-0.828-1.772-1.667
				c0-1.403,1.246-2.171,3.485-2.159v-0.12c0-0.479-0.132-1.343-1.317-1.343c-0.539,0-1.102,0.168-1.509,0.432l-0.24-0.695
				c0.479-0.312,1.174-0.516,1.905-0.516c1.772,0,2.204,1.211,2.204,2.375v2.171c0,0.503,0.024,0.995,0.096,1.391H127.997z
				 M127.841,36.24c-1.15-0.024-2.456,0.18-2.456,1.307c0,0.684,0.456,1.008,0.994,1.008c0.755,0,1.234-0.48,1.402-0.972
				c0.036-0.108,0.06-0.228,0.06-0.336V36.24z"/>
		</g>
	</g>
	<g clip-path="url(#SVGID_2_)">
		<defs>
			<rect id="SVGID_9_" x="171.562" y="58.769" width="79.257" height="22.792"/>
		</defs>
		<clipPath id="SVGID_10_">
			<use xlink:href="#SVGID_9_"  overflow="visible"/>
		</clipPath>
		<g clip-path="url(#SVGID_10_)">
			<path d="M172.29,67.869v-7.114h0.941v6.275h3.502v0.839H172.29z"/>
			<path d="M177.417,65.292c0-0.955,0.265-1.662,0.795-2.121c0.443-0.381,0.983-0.572,1.62-0.572c0.708,0,1.287,0.232,1.736,0.696
				c0.45,0.464,0.674,1.105,0.674,1.924c0,0.663-0.1,1.185-0.298,1.565c-0.199,0.38-0.488,0.675-0.868,0.886
				c-0.38,0.21-0.795,0.315-1.244,0.315c-0.721,0-1.304-0.231-1.749-0.694C177.639,66.829,177.417,66.162,177.417,65.292z
				 M178.314,65.292c0,0.66,0.144,1.154,0.432,1.482c0.288,0.328,0.65,0.493,1.086,0.493c0.433,0,0.794-0.165,1.082-0.495
				c0.288-0.33,0.432-0.833,0.432-1.509c0-0.637-0.145-1.12-0.434-1.449c-0.29-0.328-0.649-0.492-1.079-0.492
				c-0.437,0-0.799,0.163-1.086,0.49C178.458,64.139,178.314,64.632,178.314,65.292z"/>
			<path d="M183.267,67.869v-5.154h0.786v0.733c0.378-0.566,0.925-0.849,1.64-0.849c0.311,0,0.596,0.056,0.856,0.167
				c0.26,0.111,0.455,0.258,0.584,0.439s0.22,0.396,0.271,0.646c0.032,0.162,0.048,0.445,0.048,0.849v3.169h-0.873v-3.135
				c0-0.356-0.034-0.622-0.102-0.798s-0.188-0.317-0.362-0.422c-0.173-0.105-0.375-0.158-0.608-0.158
				c-0.372,0-0.693,0.118-0.963,0.354c-0.27,0.236-0.405,0.684-0.405,1.344v2.814H183.267z"/>
			<path d="M188.631,68.296l0.849,0.126c0.036,0.262,0.134,0.453,0.296,0.573c0.216,0.162,0.512,0.243,0.888,0.243
				c0.404,0,0.716-0.081,0.936-0.243c0.22-0.162,0.369-0.388,0.446-0.68c0.045-0.178,0.066-0.551,0.063-1.121
				c-0.381,0.45-0.857,0.674-1.426,0.674c-0.708,0-1.256-0.255-1.644-0.767s-0.582-1.125-0.582-1.839
				c0-0.492,0.089-0.945,0.267-1.361c0.178-0.416,0.436-0.737,0.774-0.963c0.338-0.226,0.735-0.339,1.19-0.339
				c0.608,0,1.109,0.246,1.504,0.737v-0.621h0.805v4.455c0,0.802-0.082,1.371-0.245,1.706c-0.163,0.335-0.422,0.6-0.776,0.793
				c-0.354,0.194-0.79,0.292-1.307,0.292c-0.615,0-1.111-0.139-1.489-0.415C188.801,69.269,188.619,68.852,188.631,68.296z
				 M189.354,65.2c0,0.676,0.134,1.169,0.403,1.48s0.604,0.466,1.009,0.466c0.401,0,0.737-0.154,1.009-0.463
				c0.271-0.309,0.407-0.793,0.407-1.454c0-0.631-0.14-1.106-0.419-1.427c-0.28-0.32-0.617-0.48-1.011-0.48
				c-0.388,0-0.718,0.158-0.99,0.473S189.354,64.579,189.354,65.2z"/>
			<path d="M200.528,67.233c-0.324,0.275-0.635,0.469-0.934,0.583c-0.299,0.113-0.62,0.17-0.963,0.17
				c-0.566,0-1.001-0.139-1.305-0.415c-0.304-0.277-0.456-0.63-0.456-1.061c0-0.252,0.058-0.483,0.172-0.691
				s0.265-0.376,0.451-0.502c0.186-0.126,0.395-0.221,0.628-0.286c0.171-0.045,0.43-0.089,0.776-0.131
				c0.705-0.084,1.224-0.185,1.557-0.301c0.003-0.12,0.004-0.195,0.004-0.228c0-0.355-0.082-0.606-0.247-0.752
				c-0.223-0.197-0.555-0.296-0.995-0.296c-0.411,0-0.714,0.072-0.909,0.216c-0.196,0.144-0.34,0.399-0.434,0.764l-0.854-0.116
				c0.078-0.366,0.206-0.661,0.383-0.886c0.178-0.225,0.435-0.398,0.771-0.52c0.336-0.121,0.726-0.182,1.169-0.182
				c0.439,0,0.797,0.052,1.072,0.155s0.477,0.234,0.606,0.391s0.22,0.355,0.271,0.594c0.029,0.149,0.044,0.417,0.044,0.806v1.165
				c0,0.812,0.019,1.326,0.056,1.541s0.111,0.421,0.221,0.619h-0.912C200.612,67.688,200.553,67.476,200.528,67.233z
				 M200.455,65.282c-0.317,0.129-0.792,0.239-1.426,0.33c-0.359,0.052-0.613,0.11-0.762,0.174c-0.149,0.065-0.264,0.16-0.344,0.284
				c-0.081,0.125-0.121,0.263-0.121,0.415c0,0.233,0.088,0.427,0.264,0.582s0.434,0.233,0.773,0.233
				c0.336,0,0.636-0.073,0.897-0.221c0.262-0.147,0.455-0.349,0.577-0.604c0.094-0.197,0.141-0.489,0.141-0.874V65.282z"/>
			<path d="M202.109,67.869l1.882-2.679l-1.742-2.475h1.091l0.791,1.208c0.148,0.229,0.268,0.422,0.359,0.578
				c0.142-0.214,0.273-0.403,0.393-0.568l0.869-1.218h1.042l-1.78,2.427l1.916,2.727h-1.072l-1.057-1.602l-0.282-0.432l-1.353,2.033
				H202.109z"/>
			<path d="M207.723,61.759v-1.004h0.873v1.004H207.723z M207.723,67.869v-5.154h0.873v5.154H207.723z"/>
			<path d="M209.536,66.33l0.863-0.136c0.048,0.346,0.184,0.611,0.405,0.796c0.221,0.185,0.531,0.277,0.929,0.277
				c0.401,0,0.699-0.082,0.893-0.245c0.194-0.164,0.291-0.355,0.291-0.575c0-0.197-0.086-0.353-0.257-0.466
				c-0.12-0.078-0.417-0.176-0.893-0.296c-0.641-0.162-1.084-0.302-1.332-0.42c-0.248-0.118-0.435-0.281-0.563-0.49
				c-0.127-0.208-0.191-0.439-0.191-0.691c0-0.229,0.052-0.442,0.158-0.638c0.105-0.196,0.248-0.358,0.429-0.488
				c0.136-0.1,0.321-0.185,0.555-0.255c0.235-0.069,0.486-0.104,0.754-0.104c0.404,0,0.759,0.058,1.065,0.175
				c0.306,0.116,0.531,0.274,0.677,0.473c0.146,0.199,0.246,0.465,0.3,0.798l-0.854,0.117c-0.039-0.265-0.151-0.472-0.337-0.621
				c-0.186-0.149-0.449-0.223-0.789-0.223c-0.401,0-0.687,0.066-0.858,0.199c-0.171,0.133-0.257,0.288-0.257,0.466
				c0,0.113,0.036,0.215,0.107,0.306c0.071,0.094,0.183,0.172,0.334,0.233c0.087,0.033,0.345,0.107,0.771,0.224
				c0.618,0.165,1.048,0.3,1.292,0.405c0.244,0.105,0.436,0.258,0.575,0.459c0.139,0.201,0.208,0.45,0.208,0.747
				c0,0.291-0.085,0.565-0.255,0.823c-0.169,0.257-0.415,0.456-0.735,0.597c-0.32,0.141-0.682,0.211-1.086,0.211
				c-0.669,0-1.18-0.139-1.53-0.417C209.857,67.29,209.633,66.877,209.536,66.33z"/>
		</g>
	</g>
	<g clip-path="url(#SVGID_2_)">
		<defs>
			<rect id="SVGID_11_" x="62.789" y="123.52" width="28.573" height="28.176"/>
		</defs>
		<clipPath id="SVGID_12_">
			<use xlink:href="#SVGID_11_"  overflow="visible"/>
		</clipPath>
		<g clip-path="url(#SVGID_12_)">
			<path d="M67.809,129.375l0.404,4.391c0.679-0.796,1.221-1.543,1.626-2.242c0.238-0.41,0.357-0.707,0.357-0.89
				c0-0.086-0.02-0.162-0.059-0.229c-0.016-0.035-0.077-0.087-0.184-0.155c-0.107-0.068-0.183-0.138-0.225-0.21
				c-0.043-0.072-0.064-0.149-0.064-0.231c0-0.121,0.045-0.223,0.134-0.307c0.09-0.084,0.205-0.126,0.345-0.126
				c0.16,0,0.296,0.06,0.407,0.179c0.111,0.119,0.167,0.278,0.167,0.477c0,0.203-0.029,0.392-0.088,0.568
				c-0.117,0.335-0.345,0.769-0.685,1.299c-0.414,0.636-0.84,1.227-1.278,1.771c-0.439,0.544-0.766,0.926-0.98,1.145h-0.216
				l-0.38-4.051l-2.417,4.051h-0.258c-0.027-1.667-0.111-2.982-0.251-3.946c-0.059-0.402-0.156-0.665-0.292-0.79
				c-0.098-0.09-0.246-0.135-0.445-0.135c-0.113,0-0.257,0.012-0.433,0.035v-0.211l1.68-0.392c0.234,0.652,0.386,1.653,0.456,3.003
				c0.023,0.512,0.043,0.833,0.059,0.966l2.405-3.969H67.809z"/>
		</g>
		<g clip-path="url(#SVGID_12_)">
			<path d="M73.23,130.665l-1.341,4.667c-0.065,0.233-0.098,0.375-0.098,0.428c0,0.039,0.012,0.072,0.037,0.098
				c0.025,0.026,0.056,0.039,0.092,0.039c0.05,0,0.104-0.022,0.161-0.066c0.136-0.107,0.278-0.273,0.428-0.499l0.117,0.122
				c-0.248,0.351-0.477,0.595-0.686,0.734c-0.154,0.099-0.3,0.149-0.439,0.149c-0.1,0-0.182-0.034-0.249-0.102
				c-0.066-0.068-0.1-0.146-0.1-0.235c0-0.094,0.042-0.288,0.125-0.581l1.063-3.679c0.086-0.301,0.129-0.473,0.129-0.518
				c0-0.063-0.025-0.114-0.074-0.155c-0.05-0.041-0.127-0.061-0.231-0.061c-0.06,0-0.152,0.009-0.274,0.027v-0.145L73.23,130.665z"
				/>
			<path d="M76.834,133.92c0,0.393-0.104,0.781-0.312,1.165c-0.208,0.385-0.498,0.689-0.869,0.914s-0.732,0.337-1.082,0.337
				c-0.358,0-0.65-0.114-0.876-0.343s-0.339-0.525-0.339-0.889c0-0.384,0.11-0.77,0.331-1.157c0.221-0.387,0.516-0.693,0.886-0.918
				c0.37-0.225,0.727-0.337,1.072-0.337s0.629,0.114,0.853,0.341C76.722,133.262,76.834,133.557,76.834,133.92z M76.183,133.65
				c0-0.243-0.06-0.429-0.178-0.559c-0.119-0.13-0.272-0.194-0.461-0.194c-0.384,0-0.738,0.275-1.061,0.826S74,134.82,74,135.364
				c0,0.248,0.063,0.44,0.188,0.574c0.125,0.135,0.284,0.202,0.475,0.202c0.368,0,0.714-0.274,1.037-0.822
				S76.183,134.215,76.183,133.65z"/>
			<path d="M78.852,132.693l-0.521,1.785c0.489-0.729,0.863-1.209,1.124-1.439c0.26-0.23,0.51-0.345,0.75-0.345
				c0.131,0,0.239,0.043,0.324,0.129c0.085,0.086,0.127,0.199,0.127,0.337c0,0.157-0.038,0.366-0.114,0.627l-0.479,1.651
				c-0.055,0.191-0.082,0.308-0.082,0.349c0,0.037,0.01,0.067,0.031,0.092s0.043,0.037,0.067,0.037c0.031,0,0.069-0.017,0.113-0.051
				c0.139-0.11,0.291-0.277,0.455-0.502l0.122,0.074c-0.243,0.348-0.473,0.596-0.69,0.746c-0.152,0.102-0.288,0.153-0.408,0.153
				c-0.097,0-0.174-0.029-0.231-0.088c-0.058-0.059-0.086-0.138-0.086-0.237c0-0.125,0.044-0.341,0.133-0.647l0.455-1.577
				c0.057-0.196,0.086-0.349,0.086-0.458c0-0.053-0.017-0.095-0.051-0.128c-0.034-0.032-0.076-0.049-0.125-0.049
				c-0.073,0-0.161,0.031-0.263,0.094c-0.193,0.118-0.395,0.312-0.604,0.583c-0.209,0.271-0.43,0.616-0.663,1.037
				c-0.123,0.223-0.225,0.466-0.306,0.73l-0.196,0.647h-0.588l0.714-2.456c0.083-0.295,0.125-0.473,0.125-0.533
				c0-0.058-0.022-0.108-0.068-0.151c-0.046-0.043-0.103-0.065-0.17-0.065c-0.032,0-0.086,0.005-0.165,0.016l-0.149,0.023
				l-0.023-0.141L78.852,132.693z"/>
			<path d="M85.213,132.936l-0.113,0.408h-0.655c0.049,0.141,0.074,0.273,0.074,0.396c0,0.345-0.146,0.652-0.439,0.922
				c-0.295,0.269-0.701,0.418-1.215,0.447c-0.277,0.084-0.485,0.183-0.624,0.298c-0.052,0.042-0.078,0.085-0.078,0.129
				c0,0.052,0.023,0.1,0.07,0.143c0.047,0.043,0.166,0.087,0.357,0.131l0.76,0.177c0.421,0.099,0.699,0.217,0.835,0.353
				c0.133,0.139,0.2,0.298,0.2,0.479c0,0.214-0.079,0.411-0.237,0.588s-0.389,0.317-0.694,0.417
				c-0.304,0.101-0.641,0.151-1.009,0.151c-0.324,0-0.62-0.039-0.886-0.116c-0.267-0.077-0.458-0.181-0.572-0.312
				c-0.115-0.131-0.173-0.266-0.173-0.404c0-0.113,0.038-0.229,0.112-0.351c0.075-0.122,0.168-0.222,0.28-0.3
				c0.071-0.05,0.271-0.167,0.6-0.353c-0.12-0.094-0.181-0.197-0.181-0.31c0-0.105,0.053-0.216,0.159-0.333
				c0.105-0.118,0.33-0.247,0.672-0.389c-0.288-0.055-0.516-0.175-0.684-0.361c-0.169-0.186-0.253-0.392-0.253-0.62
				c0-0.371,0.163-0.703,0.488-0.996c0.326-0.293,0.759-0.439,1.3-0.439c0.196,0,0.357,0.02,0.482,0.059
				c0.125,0.039,0.247,0.101,0.364,0.184H85.213z M81.975,136.243c-0.211,0.097-0.372,0.221-0.48,0.373
				c-0.108,0.152-0.163,0.301-0.163,0.447c0,0.172,0.079,0.315,0.235,0.427c0.225,0.162,0.554,0.244,0.988,0.244
				c0.374,0,0.693-0.063,0.959-0.19c0.265-0.127,0.398-0.291,0.398-0.492c0-0.102-0.049-0.199-0.147-0.291
				c-0.098-0.091-0.289-0.166-0.571-0.224C83.04,136.505,82.634,136.407,81.975,136.243z M83.853,133.552
				c0-0.209-0.058-0.374-0.174-0.494c-0.116-0.12-0.269-0.18-0.457-0.18c-0.295,0-0.539,0.148-0.731,0.445
				c-0.192,0.297-0.288,0.606-0.288,0.928c0,0.202,0.062,0.366,0.184,0.494c0.123,0.128,0.272,0.192,0.447,0.192
				c0.138,0,0.272-0.038,0.402-0.114s0.238-0.18,0.327-0.314c0.089-0.133,0.159-0.303,0.212-0.51
				C83.827,133.792,83.853,133.644,83.853,133.552z"/>
		</g>
	</g>
	
		<line clip-path="url(#SVGID_2_)" fill="none" stroke="#000000" stroke-width="0.7235" stroke-linejoin="round" stroke-miterlimit="10" x1="88.974" y1="26.024" x2="88.974" y2="204.354"/>
	<polygon clip-path="url(#SVGID_2_)" fill-rule="evenodd" clip-rule="evenodd" points="92.929,26.273 88.974,18.466 85.116,26.273 	
		"/>
	
		<line clip-path="url(#SVGID_2_)" fill="none" stroke="#000000" stroke-width="0.7235" stroke-linejoin="round" stroke-miterlimit="10" x1="4.316" y1="109.01" x2="188.027" y2="109.01"/>
	<path clip-path="url(#SVGID_2_)" d="M26.644,112.124l-0.94,0.604l0.603,0.965l95.314-60.34l-0.598-0.937l-0.967,0.578l32.431,51.21
		l0.967-0.579l-0.608-0.967l-95.337,60.192l0.602,0.966l0.965-0.603L26.644,112.124z M57.146,164.42l0.603,0.966l0.964-0.604
		l95.318-60.219l0.967-0.598l-0.608-0.947l-32.401-51.21l-0.608-0.957l-0.967,0.598l-95.314,60.313l-0.964,0.604l0.603,0.966
		L57.146,164.42z"/>
	<polygon clip-path="url(#SVGID_2_)" points="5.401,162.73 5.281,162.851 5.16,162.972 5.281,163.093 5.401,163.213 5.521,163.334 
		5.763,163.334 8.174,161.789 8.294,161.668 8.294,161.547 8.294,161.427 8.294,161.306 8.174,161.185 8.053,161.064 7.933,161.064 
		7.813,161.185 	"/>
	<polygon clip-path="url(#SVGID_2_)" points="9.597,159.978 9.476,160.099 9.355,160.219 9.355,160.34 9.476,160.46 9.597,160.581 
		9.717,160.581 9.838,160.581 9.958,160.581 12.369,159.012 12.49,158.891 12.61,158.771 12.61,158.65 12.49,158.529 
		12.369,158.409 12.249,158.312 12.128,158.312 12.007,158.409 	"/>
	<polygon clip-path="url(#SVGID_2_)" points="13.816,157.225 13.696,157.347 13.696,157.467 13.696,157.588 13.696,157.708 
		13.816,157.829 13.937,157.95 14.058,157.95 14.178,157.829 16.565,156.26 16.686,156.139 16.806,156.019 16.806,155.898 
		16.686,155.777 16.565,155.656 16.444,155.656 16.324,155.656 16.204,155.656 	"/>
	<polygon clip-path="url(#SVGID_2_)" points="18.133,154.473 18.012,154.594 17.892,154.69 17.892,154.811 18.012,154.932 
		18.133,155.052 18.253,155.173 18.373,155.173 18.494,155.052 20.882,153.627 21.002,153.507 21.002,153.386 21.002,153.266 
		21.002,153.145 20.882,153.024 20.761,152.904 20.641,152.904 20.544,153.024 	"/>
	<polygon clip-path="url(#SVGID_2_)" points="22.328,151.817 22.207,151.938 22.086,152.058 22.086,152.18 22.207,152.3 
		22.328,152.421 22.448,152.421 22.569,152.421 22.689,152.421 25.101,150.875 25.221,150.755 25.342,150.634 25.342,150.514 
		25.221,150.393 25.101,150.272 24.981,150.152 24.86,150.152 24.74,150.272 	"/>
	<polygon clip-path="url(#SVGID_2_)" points="26.523,149.065 26.403,149.186 26.403,149.306 26.403,149.427 26.403,149.547 
		26.523,149.668 26.644,149.789 26.765,149.789 26.885,149.668 29.296,148.099 29.417,147.978 29.538,147.857 29.538,147.737 
		29.417,147.616 29.296,147.496 29.176,147.496 29.055,147.496 28.935,147.496 	"/>
	<polygon clip-path="url(#SVGID_2_)" points="30.864,146.312 30.744,146.433 30.623,146.554 30.623,146.675 30.744,146.795 
		30.864,146.916 30.984,147.037 31.105,147.037 31.226,146.916 33.613,145.347 33.733,145.226 33.733,145.105 33.733,144.985 
		33.733,144.863 33.613,144.743 33.492,144.743 33.372,144.743 33.251,144.743 	"/>
	<polygon clip-path="url(#SVGID_2_)" points="35.059,143.681 34.938,143.777 34.818,143.898 34.818,144.019 34.938,144.139 
		35.059,144.26 35.18,144.26 35.3,144.26 35.42,144.26 37.833,142.714 37.953,142.594 38.049,142.473 38.049,142.353 
		37.953,142.232 37.833,142.111 37.712,141.991 37.591,141.991 37.471,142.111 	"/>
	<polygon clip-path="url(#SVGID_2_)" points="39.255,140.904 39.134,141.024 39.134,141.145 39.134,141.267 39.134,141.387 
		39.255,141.508 39.375,141.628 39.496,141.628 39.617,141.508 42.148,139.962 42.269,139.842 42.269,139.721 42.269,139.601 
		42.269,139.48 42.148,139.359 42.027,139.359 41.907,139.359 41.786,139.359 	"/>
	<polygon clip-path="url(#SVGID_2_)" points="43.595,138.152 43.475,138.272 43.354,138.393 43.354,138.514 43.475,138.634 
		43.595,138.755 43.716,138.875 43.813,138.875 43.933,138.755 46.344,137.186 46.464,137.065 46.464,136.944 46.464,136.824 
		46.464,136.703 46.344,136.583 46.223,136.583 46.103,136.583 45.982,136.583 	"/>
	<polygon clip-path="url(#SVGID_2_)" points="47.791,135.52 47.67,135.64 47.67,135.762 47.67,135.882 47.67,136.003 
		47.791,136.124 47.912,136.124 48.032,136.124 48.153,136.124 50.54,134.554 50.66,134.434 50.781,134.313 50.781,134.192 
		50.66,134.072 50.54,133.95 50.419,133.83 50.298,133.83 50.178,133.95 	"/>
	<polygon clip-path="url(#SVGID_2_)" points="51.986,132.768 51.865,132.864 51.865,132.985 51.865,133.105 51.865,133.226 
		51.986,133.347 52.106,133.468 52.227,133.468 52.348,133.347 54.88,131.801 55,131.681 55,131.56 55,131.439 55,131.319 
		54.88,131.198 54.76,131.198 54.639,131.198 54.519,131.198 	"/>
	<polygon clip-path="url(#SVGID_2_)" points="56.302,129.991 56.182,130.111 56.061,130.232 56.061,130.353 56.182,130.474 
		56.302,130.595 56.423,130.716 56.543,130.716 56.664,130.595 59.075,129.049 59.196,128.929 59.196,128.808 59.196,128.688 
		59.196,128.567 59.075,128.445 58.955,128.445 58.834,128.445 58.713,128.445 	"/>
	<polygon clip-path="url(#SVGID_2_)" points="60.522,127.359 60.401,127.48 60.401,127.601 60.401,127.721 60.401,127.842 
		60.522,127.963 60.643,127.963 60.763,127.963 60.884,127.963 63.271,126.393 63.392,126.273 63.512,126.152 63.512,126.031 
		63.392,125.911 63.271,125.79 63.15,125.669 63.03,125.669 62.909,125.79 	"/>
	<polygon clip-path="url(#SVGID_2_)" points="64.717,124.606 64.597,124.727 64.597,124.848 64.597,124.969 64.597,125.09 
		64.717,125.211 64.837,125.332 64.958,125.332 65.079,125.211 67.587,123.642 67.707,123.521 67.707,123.4 67.707,123.279 
		67.707,123.158 67.587,123.037 67.467,123.037 67.346,123.037 67.226,123.037 	"/>
	<polygon clip-path="url(#SVGID_2_)" points="69.034,121.854 68.913,121.951 68.792,122.072 68.792,122.193 68.913,122.313 
		69.034,122.434 69.154,122.555 69.275,122.555 69.395,122.434 71.806,120.889 71.927,120.768 71.927,120.647 71.927,120.526 
		71.927,120.406 71.806,120.285 71.686,120.285 71.565,120.285 71.444,120.285 	"/>
	<polygon clip-path="url(#SVGID_2_)" points="73.229,119.198 73.109,119.319 73.109,119.44 73.109,119.561 73.109,119.682 
		73.229,119.803 73.35,119.803 73.471,119.803 73.591,119.803 76.002,118.257 76.123,118.137 76.243,118.016 76.243,117.895 
		76.123,117.774 76.002,117.654 75.881,117.532 75.761,117.532 75.64,117.654 	"/>
	<polygon clip-path="url(#SVGID_2_)" points="77.57,116.447 77.449,116.567 77.329,116.688 77.329,116.809 77.449,116.929 
		77.57,117.05 77.69,117.17 77.811,117.17 77.932,117.05 80.318,115.48 80.439,115.36 80.439,115.239 80.439,115.119 
		80.439,114.998 80.318,114.877 80.198,114.877 80.077,114.877 79.957,114.877 	"/>
	<polygon clip-path="url(#SVGID_2_)" points="81.765,113.694 81.644,113.814 81.523,113.935 81.523,114.057 81.644,114.177 
		81.765,114.298 81.885,114.418 82.006,114.418 82.126,114.298 84.513,112.729 84.634,112.608 84.754,112.487 84.754,112.366 
		84.634,112.245 84.513,112.124 84.393,112.124 84.297,112.124 84.176,112.124 	"/>
	<polygon clip-path="url(#SVGID_2_)" points="85.96,111.039 85.84,111.159 85.84,111.28 85.84,111.4 85.84,111.521 85.96,111.642 
		86.081,111.642 86.202,111.642 86.322,111.642 88.733,110.096 88.854,109.976 88.974,109.855 88.974,109.734 88.854,109.614 
		88.733,109.493 88.613,109.372 88.492,109.372 88.372,109.493 	"/>
	<polygon clip-path="url(#SVGID_2_)" points="90.277,108.286 90.156,108.406 90.06,108.527 90.06,108.647 90.156,108.768 
		90.277,108.89 90.397,108.89 90.518,108.89 90.639,108.89 93.05,107.344 93.17,107.224 93.17,107.103 93.17,106.982 93.17,106.862 
		93.05,106.74 92.929,106.74 92.809,106.74 92.688,106.74 	"/>
	<polygon clip-path="url(#SVGID_2_)" points="94.497,105.534 94.376,105.654 94.255,105.775 94.255,105.896 94.376,106.016 
		94.497,106.137 94.616,106.257 94.737,106.257 94.857,106.137 97.246,104.563 97.366,104.444 97.487,104.324 97.487,104.205 
		97.366,104.085 97.246,103.965 97.125,103.965 97.004,103.965 96.884,103.965 	"/>
	<polygon clip-path="url(#SVGID_2_)" points="98.691,102.898 98.571,103.018 98.571,103.147 98.571,103.267 98.571,103.387 
		98.691,103.506 98.812,103.506 98.933,103.506 99.053,103.506 101.468,101.931 101.588,101.812 101.708,101.692 101.708,101.572 
		101.588,101.453 101.468,101.333 101.349,101.213 101.219,101.213 101.1,101.333 	"/>
	<polygon clip-path="url(#SVGID_2_)" points="103.003,100.126 102.883,100.246 102.764,100.366 102.764,100.485 102.883,100.605 
		103.003,100.725 103.133,100.725 103.252,100.725 103.372,100.725 105.784,99.179 105.903,99.06 105.903,98.94 105.903,98.82 
		105.903,98.701 105.784,98.581 105.664,98.581 105.544,98.581 105.415,98.581 	"/>
	<polygon clip-path="url(#SVGID_2_)" points="107.229,97.375 107.109,97.494 106.99,97.614 106.99,97.733 107.109,97.853 
		107.229,97.973 107.349,98.092 107.468,98.092 107.568,97.973 109.979,96.427 110.099,96.308 110.219,96.188 110.219,96.068 
		110.099,95.949 109.979,95.829 109.86,95.829 109.73,95.829 109.611,95.829 	"/>
	<polygon clip-path="url(#SVGID_2_)" points="111.425,94.742 111.305,94.862 111.305,94.981 111.305,95.101 111.305,95.221 
		111.425,95.34 111.544,95.34 111.664,95.34 111.784,95.34 114.295,93.775 114.415,93.655 114.415,93.536 114.415,93.416 
		114.415,93.296 114.295,93.167 114.175,93.047 114.056,93.047 113.926,93.167 	"/>
	<polygon clip-path="url(#SVGID_2_)" points="115.74,91.99 115.621,92.11 115.501,92.229 115.501,92.349 115.621,92.469 
		115.74,92.588 115.86,92.588 115.979,92.588 116.099,92.588 118.511,91.023 118.63,90.903 118.63,90.784 118.63,90.664 
		118.63,90.544 118.511,90.415 118.391,90.295 118.271,90.295 118.152,90.415 	"/>
	<polygon clip-path="url(#SVGID_2_)" points="119.936,89.208 119.816,89.328 119.816,89.458 119.816,89.577 119.816,89.697 
		119.936,89.816 120.056,89.936 120.175,89.936 120.295,89.816 122.707,88.271 122.826,88.151 122.946,88.032 122.946,87.912 
		122.826,87.783 122.707,87.663 122.587,87.663 122.467,87.663 122.348,87.663 	"/>
	<polygon clip-path="url(#SVGID_2_)" points="124.152,86.576 124.032,86.706 124.032,86.825 124.032,86.945 124.032,87.065 
		124.152,87.184 124.271,87.184 124.391,87.184 124.521,87.184 127.022,85.619 127.142,85.519 127.142,85.399 127.142,85.28 
		127.142,85.16 127.022,85.031 126.903,84.911 126.783,84.911 126.664,85.031 	"/>
	<polygon clip-path="url(#SVGID_2_)" points="128.467,83.824 128.348,83.944 128.228,84.074 128.228,84.193 128.348,84.313 
		128.467,84.432 128.587,84.432 128.716,84.432 128.836,84.432 131.218,82.867 131.338,82.737 131.338,82.618 131.338,82.498 
		131.338,82.378 131.218,82.259 131.099,82.139 130.979,82.139 130.859,82.259 	"/>
	<polygon clip-path="url(#SVGID_2_)" points="132.663,81.072 132.543,81.192 132.543,81.322 132.543,81.441 132.543,81.561 
		132.663,81.681 132.783,81.8 132.902,81.8 133.032,81.681 135.444,80.105 135.563,79.985 135.683,79.866 135.683,79.746 
		135.563,79.626 135.444,79.507 135.314,79.507 135.195,79.507 135.075,79.507 	"/>
	<polygon clip-path="url(#SVGID_2_)" points="136.859,78.42 136.739,78.54 136.739,78.659 136.739,78.779 136.739,78.898 
		136.859,79.018 136.979,79.018 137.098,79.018 137.228,79.018 139.759,77.483 139.879,77.353 139.879,77.233 139.879,77.114 
		139.879,76.994 139.759,76.875 139.63,76.755 139.51,76.755 139.391,76.875 	"/>
	<polygon clip-path="url(#SVGID_2_)" points="141.205,75.668 141.085,75.788 140.965,75.907 140.965,76.027 141.085,76.147 
		141.205,76.266 141.324,76.266 141.444,76.266 141.563,76.266 143.955,74.701 144.075,74.601 144.194,74.481 144.194,74.362 
		144.075,74.242 143.955,74.123 143.826,74.003 143.706,74.003 143.586,74.123 	"/>
	<polygon clip-path="url(#SVGID_2_)" points="145.4,72.916 145.281,73.036 145.281,73.155 145.281,73.275 145.281,73.395 
		145.4,73.514 145.52,73.644 145.64,73.644 145.759,73.514 148.151,71.949 148.271,71.83 148.39,71.709 148.39,71.59 148.271,71.47 
		148.151,71.341 148.051,71.341 147.932,71.341 147.812,71.341 	"/>
	<polygon clip-path="url(#SVGID_2_)" points="149.716,70.284 149.596,70.404 149.477,70.523 149.596,70.643 149.716,70.762 
		149.835,70.882 150.075,70.882 152.486,69.317 152.606,69.197 152.606,69.078 152.606,68.958 152.606,68.838 152.486,68.718 
		152.367,68.589 152.247,68.589 152.127,68.718 	"/>
	<polygon clip-path="url(#SVGID_2_)" points="153.912,67.502 153.812,67.632 153.692,67.751 153.692,67.871 153.812,67.991 
		153.912,68.11 154.031,68.11 154.151,68.11 154.271,68.11 156.682,66.565 156.802,66.445 156.921,66.326 156.921,66.206 
		156.802,66.086 156.682,65.957 156.563,65.837 156.443,65.837 156.324,65.957 	"/>
	<polygon clip-path="url(#SVGID_2_)" points="158.127,64.75 158.008,64.88 158.008,65 158.008,65.119 158.008,65.239 
		158.127,65.358 158.247,65.478 158.367,65.478 158.486,65.358 160.878,63.793 160.998,63.693 161.117,63.574 161.117,63.454 
		160.998,63.334 160.878,63.205 160.759,63.205 160.639,63.205 160.52,63.205 	"/>
	<polygon clip-path="url(#SVGID_2_)" points="162.443,62.118 162.323,62.248 162.204,62.367 162.204,62.487 162.323,62.606 
		162.443,62.726 162.563,62.726 162.682,62.726 162.802,62.726 165.213,61.161 165.343,61.031 165.343,60.912 165.343,60.792 
		165.343,60.672 165.213,60.552 165.094,60.433 164.975,60.433 164.855,60.552 	"/>
	<polygon clip-path="url(#SVGID_2_)" points="166.639,59.366 166.519,59.496 166.399,59.615 166.399,59.735 166.519,59.854 
		166.639,59.974 166.758,59.974 166.878,59.974 166.998,59.974 169.41,58.409 169.529,58.279 169.659,58.16 169.659,58.04 
		169.529,57.92 169.41,57.8 169.29,57.681 169.17,57.681 169.051,57.8 	"/>
	<polygon clip-path="url(#SVGID_2_)" points="170.865,56.594 170.735,56.714 170.735,56.833 170.735,56.953 170.735,57.073 
		170.865,57.192 170.984,57.322 171.104,57.322 171.223,57.192 173.605,55.657 173.725,55.527 173.854,55.408 173.854,55.288 
		173.725,55.168 173.605,55.048 173.486,55.048 173.366,55.048 173.247,55.048 	"/>
	<polygon clip-path="url(#SVGID_2_)" points="59.919,62.118 59.678,61.998 59.557,61.878 59.437,61.998 59.316,62.118 
		59.196,62.248 59.316,62.487 60.763,64.88 60.884,65 61.004,65 61.125,65 61.221,65 61.341,64.88 61.462,64.75 61.462,64.63 
		61.341,64.511 	"/>
	<polygon clip-path="url(#SVGID_2_)" points="62.547,66.326 62.427,66.206 62.306,66.206 62.186,66.206 62.065,66.206 
		61.944,66.326 61.824,66.445 61.824,66.565 61.944,66.685 63.512,69.078 63.633,69.197 63.753,69.317 63.874,69.317 63.995,69.197 
		64.115,69.078 64.115,68.958 64.115,68.838 64.115,68.718 	"/>
	<polygon clip-path="url(#SVGID_2_)" points="65.199,70.643 65.079,70.523 64.958,70.403 64.837,70.403 64.717,70.523 
		64.597,70.643 64.597,70.762 64.597,70.882 64.597,71.012 66.164,73.395 66.285,73.514 66.405,73.514 66.526,73.514 66.646,73.514 
		66.767,73.395 66.767,73.275 66.767,73.155 66.767,73.036 	"/>
	<polygon clip-path="url(#SVGID_2_)" points="67.828,74.821 67.707,74.701 67.587,74.701 67.467,74.701 67.346,74.701 
		67.226,74.821 67.226,74.94 67.226,75.06 67.226,75.18 68.792,77.722 68.913,77.842 69.034,77.842 69.154,77.842 69.275,77.842 
		69.395,77.722 69.516,77.603 69.516,77.483 69.395,77.353 	"/>
	<polygon clip-path="url(#SVGID_2_)" points="70.601,79.148 70.48,79.018 70.36,78.898 70.239,78.898 70.119,79.018 69.998,79.148 
		69.877,79.268 69.877,79.387 69.998,79.507 71.565,81.92 71.686,82.02 71.806,82.139 71.927,82.139 72.047,82.02 72.168,81.92 
		72.168,81.8 72.168,81.681 72.168,81.561 	"/>
	<polygon clip-path="url(#SVGID_2_)" points="73.229,83.346 73.109,83.226 72.988,83.226 72.868,83.226 72.747,83.226 72.65,83.346 
		72.65,83.465 72.65,83.585 72.65,83.705 74.194,86.217 74.314,86.337 74.434,86.337 74.555,86.337 74.675,86.337 74.796,86.217 
		74.796,86.098 74.796,85.978 74.796,85.858 	"/>
	<polygon clip-path="url(#SVGID_2_)" points="75.881,87.663 75.761,87.543 75.64,87.423 75.52,87.423 75.399,87.543 75.278,87.663 
		75.278,87.783 75.278,87.912 75.278,88.032 76.846,90.415 76.967,90.544 77.087,90.664 77.208,90.664 77.329,90.544 77.449,90.415 
		77.57,90.295 77.57,90.175 77.449,90.056 	"/>
	<polygon clip-path="url(#SVGID_2_)" points="78.63,91.99 78.534,91.871 78.413,91.751 78.292,91.751 78.172,91.871 78.052,91.99 
		77.932,92.11 77.932,92.229 78.052,92.349 79.474,94.742 79.595,94.862 79.715,94.862 79.836,94.862 79.957,94.862 80.077,94.742 
		80.198,94.623 80.198,94.503 80.077,94.383 	"/>
	<polygon clip-path="url(#SVGID_2_)" points="81.282,96.188 81.162,96.068 81.042,96.068 80.921,96.068 80.801,96.068 80.68,96.188 
		80.68,96.308 80.68,96.427 80.68,96.527 82.247,98.94 82.368,99.06 82.488,99.179 82.609,99.179 82.729,99.06 82.85,98.94 
		82.85,98.82 82.85,98.701 82.85,98.581 	"/>
	<polygon clip-path="url(#SVGID_2_)" points="83.935,100.485 83.815,100.366 83.694,100.246 83.574,100.246 83.453,100.366 
		83.333,100.485 83.333,100.605 83.333,100.725 83.333,100.854 84.875,103.267 84.996,103.387 85.116,103.506 85.237,103.506 
		85.357,103.387 85.478,103.267 85.599,103.147 85.599,103.018 85.478,102.898 	"/>
	<polygon clip-path="url(#SVGID_2_)" points="86.684,104.693 86.563,104.563 86.443,104.563 86.322,104.563 86.202,104.563 
		86.081,104.693 85.96,104.813 85.96,104.932 86.081,105.052 87.528,107.562 87.649,107.682 87.77,107.682 87.889,107.682 
		88.01,107.682 88.13,107.562 88.251,107.441 88.251,107.344 88.13,107.224 	"/>
	<polygon clip-path="url(#SVGID_2_)" points="89.336,109.01 89.215,108.89 89.095,108.768 88.974,108.768 88.854,108.89 
		88.733,109.01 88.733,109.131 88.733,109.251 88.733,109.372 90.277,111.762 90.397,111.883 90.518,112.003 90.639,112.003 
		90.759,111.883 90.879,111.762 90.879,111.642 90.879,111.521 90.879,111.4 	"/>
	<polygon clip-path="url(#SVGID_2_)" points="91.964,113.211 91.844,113.09 91.723,113.09 91.603,113.09 91.482,113.09 
		91.361,113.211 91.361,113.332 91.361,113.452 91.361,113.573 92.929,116.084 93.05,116.205 93.17,116.205 93.291,116.205 
		93.412,116.205 93.532,116.084 93.652,115.963 93.652,115.842 93.532,115.722 	"/>
	<polygon clip-path="url(#SVGID_2_)" points="94.737,117.532 94.616,117.412 94.497,117.412 94.376,117.412 94.255,117.412 
		94.135,117.532 94.014,117.654 94.014,117.774 94.135,117.895 95.581,120.285 95.702,120.406 95.822,120.526 95.943,120.526 
		96.04,120.406 96.16,120.285 96.281,120.165 96.281,120.044 96.16,119.923 	"/>
	<polygon clip-path="url(#SVGID_2_)" points="97.366,121.854 97.246,121.734 97.125,121.613 97.004,121.613 96.884,121.734 
		96.763,121.854 96.643,121.951 96.643,122.072 96.763,122.193 98.33,124.606 98.45,124.727 98.571,124.727 98.691,124.727 
		98.812,124.727 98.933,124.606 98.933,124.486 98.933,124.365 98.933,124.245 	"/>
	<polygon clip-path="url(#SVGID_2_)" points="100.013,126.031 99.894,125.911 99.774,125.911 99.656,125.911 99.536,125.911 
		99.415,126.031 99.415,126.152 99.415,126.273 99.415,126.393 100.98,128.929 101.1,129.049 101.219,129.049 101.349,129.049 
		101.468,129.049 101.588,128.929 101.708,128.808 101.708,128.688 101.588,128.567 	"/>
	<polygon clip-path="url(#SVGID_2_)" points="102.764,130.353 102.644,130.232 102.525,130.111 102.405,130.111 102.286,130.232 
		102.166,130.353 102.046,130.474 102.046,130.595 102.166,130.716 103.611,133.105 103.73,133.226 103.85,133.347 103.97,133.347 
		104.089,133.226 104.209,133.105 104.338,132.985 104.338,132.864 104.209,132.768 	"/>
	<polygon clip-path="url(#SVGID_2_)" points="105.415,134.554 105.295,134.434 105.176,134.434 105.056,134.434 104.937,134.434 
		104.817,134.554 104.697,134.675 104.697,134.796 104.817,134.917 106.382,137.427 106.501,137.547 106.621,137.547 
		106.741,137.547 106.87,137.547 106.99,137.427 106.99,137.306 106.99,137.186 106.99,137.065 	"/>
	<polygon clip-path="url(#SVGID_2_)" points="108.046,138.875 107.926,138.755 107.807,138.634 107.688,138.634 107.568,138.755 
		107.468,138.875 107.468,138.997 107.468,139.117 107.468,139.238 109.013,141.628 109.132,141.75 109.252,141.87 109.372,141.87 
		109.491,141.75 109.611,141.628 109.73,141.508 109.73,141.387 109.611,141.267 	"/>
	<polygon clip-path="url(#SVGID_2_)" points="110.817,143.078 110.697,142.957 110.578,142.957 110.458,142.957 110.338,142.957 
		110.219,143.078 110.099,143.198 110.099,143.319 110.219,143.439 111.664,145.95 111.784,146.071 111.903,146.071 
		112.023,146.071 112.142,146.071 112.272,145.95 112.392,145.83 112.392,145.708 112.272,145.588 	"/>
	<polygon clip-path="url(#SVGID_2_)" points="113.448,147.399 113.328,147.278 113.229,147.278 113.109,147.278 112.989,147.278 
		112.87,147.399 112.75,147.496 112.75,147.616 112.87,147.737 114.415,150.152 114.534,150.272 114.654,150.393 114.773,150.393 
		114.893,150.272 115.013,150.152 115.013,150.03 115.013,149.909 115.013,149.789 	"/>
	<polygon clip-path="url(#SVGID_2_)" points="116.099,151.696 115.979,151.576 115.86,151.455 115.74,151.455 115.621,151.576 
		115.501,151.696 115.501,151.817 115.501,151.938 115.501,152.058 117.066,154.473 117.186,154.594 117.305,154.594 
		117.424,154.594 117.544,154.594 117.664,154.473 117.664,154.353 117.664,154.232 117.664,154.111 	"/>
	<polygon clip-path="url(#SVGID_2_)" points="118.87,155.898 118.75,155.777 118.63,155.777 118.511,155.777 118.391,155.777 
		118.271,155.898 118.152,156.019 118.152,156.139 118.271,156.26 119.697,158.771 119.816,158.891 119.936,158.891 
		120.056,158.891 120.175,158.891 120.295,158.771 120.415,158.65 120.415,158.529 120.295,158.409 	"/>
	<g clip-path="url(#SVGID_2_)">
		<defs>
			<rect id="SVGID_13_" x="120.654" y="142.714" width="79.377" height="22.792"/>
		</defs>
		<clipPath id="SVGID_14_">
			<use xlink:href="#SVGID_13_"  overflow="visible"/>
		</clipPath>
		<g clip-path="url(#SVGID_14_)">
			<path d="M121.1,149.529l0.888-0.078c0.042,0.356,0.14,0.648,0.293,0.876c0.153,0.228,0.392,0.413,0.715,0.553
				s0.687,0.211,1.091,0.211c0.359,0,0.676-0.053,0.951-0.16c0.274-0.106,0.479-0.253,0.613-0.439s0.202-0.389,0.202-0.609
				c0-0.223-0.065-0.418-0.194-0.584s-0.343-0.307-0.64-0.42c-0.191-0.074-0.613-0.19-1.266-0.347
				c-0.653-0.157-1.111-0.305-1.373-0.444c-0.34-0.178-0.593-0.398-0.759-0.662s-0.25-0.559-0.25-0.886
				c0-0.359,0.102-0.695,0.306-1.007c0.204-0.313,0.501-0.549,0.893-0.711c0.391-0.162,0.826-0.243,1.305-0.243
				c0.527,0,0.992,0.085,1.395,0.254c0.403,0.17,0.712,0.42,0.929,0.75c0.216,0.33,0.333,0.704,0.349,1.121l-0.902,0.068
				c-0.048-0.45-0.212-0.79-0.492-1.019c-0.28-0.23-0.693-0.345-1.239-0.345c-0.569,0-0.984,0.104-1.244,0.313
				c-0.261,0.209-0.391,0.46-0.391,0.755c0,0.255,0.092,0.466,0.276,0.631c0.181,0.165,0.654,0.334,1.419,0.507
				c0.765,0.173,1.29,0.325,1.574,0.454c0.414,0.191,0.719,0.433,0.917,0.726c0.197,0.293,0.296,0.63,0.296,1.012
				c0,0.379-0.108,0.735-0.325,1.07c-0.217,0.335-0.528,0.595-0.934,0.781s-0.862,0.279-1.37,0.279
				c-0.644,0-1.183-0.094-1.618-0.281c-0.435-0.188-0.776-0.47-1.023-0.847C121.243,150.431,121.112,150.005,121.1,149.529z"/>
			<path d="M127.934,151.815v-7.114h0.873v2.553c0.408-0.473,0.922-0.708,1.542-0.708c0.382,0,0.713,0.075,0.995,0.226
				s0.482,0.358,0.604,0.624c0.121,0.265,0.182,0.65,0.182,1.155v3.266h-0.873v-3.266c0-0.437-0.095-0.754-0.284-0.954
				c-0.189-0.199-0.457-0.298-0.803-0.298c-0.259,0-0.502,0.067-0.73,0.202s-0.391,0.316-0.488,0.546
				c-0.097,0.229-0.146,0.547-0.146,0.951v2.819H127.934z"/>
			<path d="M133.134,149.238c0-0.955,0.265-1.662,0.795-2.121c0.443-0.381,0.983-0.572,1.62-0.572c0.708,0,1.287,0.232,1.736,0.696
				c0.45,0.464,0.674,1.105,0.674,1.924c0,0.663-0.1,1.185-0.298,1.565c-0.199,0.38-0.488,0.675-0.868,0.886
				c-0.38,0.21-0.795,0.315-1.244,0.315c-0.721,0-1.304-0.231-1.749-0.694C133.356,150.775,133.134,150.108,133.134,149.238z
				 M134.031,149.238c0,0.66,0.144,1.154,0.432,1.482c0.288,0.328,0.65,0.493,1.086,0.493c0.433,0,0.794-0.165,1.082-0.495
				c0.288-0.33,0.432-0.833,0.432-1.509c0-0.637-0.145-1.12-0.434-1.449c-0.29-0.328-0.649-0.492-1.079-0.492
				c-0.437,0-0.799,0.163-1.086,0.49C134.175,148.085,134.031,148.578,134.031,149.238z"/>
			<path d="M138.974,151.815v-5.154h0.786v0.781c0.2-0.365,0.385-0.606,0.555-0.723c0.17-0.117,0.356-0.175,0.56-0.175
				c0.294,0,0.594,0.094,0.897,0.281l-0.301,0.811c-0.213-0.126-0.427-0.189-0.64-0.189c-0.191,0-0.362,0.058-0.514,0.172
				s-0.26,0.274-0.325,0.478c-0.097,0.311-0.146,0.65-0.146,1.019v2.698H138.974z"/>
			<path d="M144.198,151.034l0.126,0.771c-0.246,0.052-0.466,0.078-0.66,0.078c-0.317,0-0.563-0.05-0.737-0.15
				c-0.175-0.1-0.298-0.232-0.369-0.396c-0.071-0.163-0.107-0.507-0.107-1.031v-2.965h-0.64v-0.68h0.64v-1.276l0.868-0.524v1.8
				h0.878v0.68h-0.878v3.013c0,0.25,0.016,0.41,0.046,0.48c0.03,0.071,0.081,0.128,0.15,0.17c0.069,0.042,0.169,0.063,0.298,0.063
				C143.912,151.067,144.04,151.056,144.198,151.034z"/>
			<path d="M151.313,151.179c-0.324,0.275-0.635,0.469-0.934,0.583c-0.299,0.113-0.62,0.17-0.963,0.17
				c-0.566,0-1.001-0.139-1.305-0.415c-0.304-0.277-0.456-0.63-0.456-1.061c0-0.252,0.058-0.483,0.172-0.691
				s0.265-0.376,0.451-0.502c0.186-0.126,0.395-0.221,0.628-0.286c0.171-0.045,0.43-0.089,0.776-0.131
				c0.705-0.084,1.224-0.185,1.557-0.301c0.003-0.12,0.004-0.195,0.004-0.228c0-0.355-0.082-0.606-0.247-0.752
				c-0.223-0.197-0.555-0.296-0.995-0.296c-0.411,0-0.714,0.072-0.909,0.216c-0.196,0.144-0.34,0.399-0.434,0.764l-0.854-0.116
				c0.078-0.366,0.206-0.661,0.383-0.886c0.178-0.225,0.435-0.398,0.771-0.52c0.336-0.121,0.726-0.182,1.169-0.182
				c0.439,0,0.797,0.052,1.072,0.155s0.477,0.234,0.606,0.391s0.22,0.355,0.271,0.594c0.029,0.149,0.044,0.417,0.044,0.806v1.165
				c0,0.812,0.019,1.326,0.056,1.541s0.111,0.421,0.221,0.619h-0.912C151.397,151.634,151.338,151.422,151.313,151.179z
				 M151.24,149.229c-0.317,0.129-0.792,0.239-1.426,0.33c-0.359,0.052-0.613,0.11-0.762,0.174c-0.149,0.065-0.264,0.16-0.344,0.284
				c-0.081,0.125-0.121,0.263-0.121,0.415c0,0.233,0.088,0.427,0.264,0.582s0.434,0.233,0.773,0.233
				c0.336,0,0.636-0.073,0.897-0.221c0.262-0.147,0.455-0.349,0.577-0.604c0.094-0.197,0.141-0.489,0.141-0.874V149.229z"/>
			<path d="M152.895,151.815l1.882-2.679l-1.742-2.475h1.091l0.791,1.208c0.148,0.229,0.268,0.422,0.359,0.578
				c0.142-0.214,0.273-0.403,0.393-0.568l0.869-1.218h1.042l-1.78,2.427l1.916,2.727h-1.072l-1.057-1.602l-0.282-0.432l-1.353,2.033
				H152.895z"/>
			<path d="M158.498,145.705v-1.004h0.873v1.004H158.498z M158.498,151.815v-5.154h0.873v5.154H158.498z"/>
			<path d="M160.312,150.276l0.863-0.136c0.048,0.346,0.184,0.611,0.405,0.796c0.221,0.185,0.531,0.277,0.929,0.277
				c0.401,0,0.699-0.082,0.893-0.245c0.194-0.164,0.291-0.355,0.291-0.575c0-0.197-0.086-0.353-0.257-0.466
				c-0.12-0.078-0.417-0.176-0.893-0.296c-0.641-0.162-1.084-0.302-1.332-0.42c-0.248-0.118-0.435-0.281-0.563-0.49
				c-0.127-0.208-0.191-0.439-0.191-0.691c0-0.229,0.052-0.442,0.158-0.638c0.105-0.196,0.248-0.358,0.429-0.488
				c0.136-0.1,0.321-0.185,0.555-0.255c0.235-0.069,0.486-0.104,0.754-0.104c0.404,0,0.759,0.058,1.065,0.175
				c0.306,0.116,0.531,0.274,0.677,0.473c0.146,0.199,0.246,0.465,0.3,0.798l-0.854,0.117c-0.039-0.265-0.151-0.472-0.337-0.621
				c-0.186-0.149-0.449-0.223-0.789-0.223c-0.401,0-0.687,0.066-0.858,0.199c-0.171,0.133-0.257,0.288-0.257,0.466
				c0,0.113,0.036,0.215,0.107,0.306c0.071,0.094,0.183,0.172,0.334,0.233c0.087,0.033,0.345,0.107,0.771,0.224
				c0.618,0.165,1.048,0.3,1.292,0.405c0.244,0.105,0.436,0.258,0.575,0.459c0.139,0.201,0.208,0.45,0.208,0.747
				c0,0.291-0.085,0.565-0.255,0.823c-0.169,0.257-0.415,0.456-0.735,0.597c-0.32,0.141-0.682,0.211-1.086,0.211
				c-0.669,0-1.18-0.139-1.53-0.417C160.632,151.236,160.409,150.823,160.312,150.276z"/>
		</g>
	</g>
	
		<line clip-path="url(#SVGID_2_)" fill="none" stroke="#000000" stroke-width="0.7235" stroke-linejoin="round" stroke-miterlimit="10" x1="42.992" y1="138.875" x2="136.979" y2="78.42"/>
	
		<polyline clip-path="url(#SVGID_2_)" fill="none" stroke="#000000" stroke-width="0.7235" stroke-linejoin="round" stroke-miterlimit="10" points="
		47.429,131.319 42.992,138.875 51.624,137.911 	"/>
	
		<polyline clip-path="url(#SVGID_2_)" fill="none" stroke="#000000" stroke-width="0.7235" stroke-linejoin="round" stroke-miterlimit="10" points="
		132.543,85.978 136.979,78.42 128.348,79.387 	"/>
	
		<line clip-path="url(#SVGID_2_)" fill="none" stroke="#000000" stroke-width="0.7235" stroke-linejoin="round" stroke-miterlimit="10" x1="72.53" y1="83.226" x2="105.415" y2="134.796"/>
	
		<polyline clip-path="url(#SVGID_2_)" fill="none" stroke="#000000" stroke-width="0.7235" stroke-linejoin="round" stroke-miterlimit="10" points="
		80.077,87.663 72.53,83.226 73.471,91.871 	"/>
	
		<polyline clip-path="url(#SVGID_2_)" fill="none" stroke="#000000" stroke-width="0.7235" stroke-linejoin="round" stroke-miterlimit="10" points="
		97.848,130.353 105.415,134.796 104.458,126.152 	"/>
	<g clip-path="url(#SVGID_2_)">
		<defs>
			<rect id="SVGID_15_" x="96.04" y="108.406" width="34.938" height="28.08"/>
		</defs>
		<clipPath id="SVGID_16_">
			<use xlink:href="#SVGID_15_"  overflow="visible"/>
		</clipPath>
		<g clip-path="url(#SVGID_16_)">
			<path d="M101.06,114.261l0.404,4.391c0.679-0.796,1.221-1.543,1.626-2.242c0.238-0.41,0.357-0.707,0.357-0.89
				c0-0.086-0.02-0.162-0.059-0.229c-0.016-0.035-0.077-0.087-0.184-0.155c-0.107-0.068-0.183-0.138-0.225-0.21
				c-0.043-0.072-0.064-0.149-0.064-0.231c0-0.121,0.045-0.223,0.134-0.307c0.09-0.084,0.205-0.126,0.345-0.126
				c0.16,0,0.296,0.06,0.407,0.179c0.111,0.119,0.167,0.278,0.167,0.477c0,0.203-0.029,0.392-0.088,0.568
				c-0.117,0.335-0.345,0.769-0.685,1.299c-0.414,0.636-0.84,1.227-1.278,1.771c-0.439,0.544-0.766,0.926-0.98,1.145h-0.216
				l-0.38-4.051l-2.417,4.051h-0.258c-0.027-1.667-0.111-2.982-0.251-3.946c-0.059-0.402-0.156-0.665-0.292-0.79
				c-0.098-0.09-0.246-0.135-0.445-0.135c-0.113,0-0.257,0.012-0.433,0.035v-0.211l1.68-0.392c0.234,0.652,0.386,1.653,0.456,3.003
				c0.023,0.512,0.043,0.833,0.059,0.966l2.405-3.969H101.06z"/>
		</g>
		<g clip-path="url(#SVGID_16_)">
			<path d="M107.002,117.578l-0.239,1.204h-0.145c-0.013-0.35-0.087-0.605-0.224-0.765c-0.136-0.16-0.304-0.239-0.505-0.239
				c-0.162,0-0.291,0.044-0.386,0.133c-0.096,0.089-0.143,0.196-0.143,0.322c0,0.086,0.019,0.168,0.057,0.247
				c0.038,0.078,0.121,0.188,0.249,0.33c0.34,0.371,0.559,0.651,0.659,0.839c0.099,0.188,0.149,0.366,0.149,0.533
				c0,0.272-0.113,0.513-0.339,0.724s-0.511,0.316-0.856,0.316c-0.188,0-0.405-0.044-0.651-0.133
				c-0.086-0.032-0.153-0.047-0.2-0.047c-0.118,0-0.207,0.061-0.267,0.181h-0.146l0.239-1.271h0.145
				c0.016,0.397,0.098,0.679,0.247,0.843c0.149,0.165,0.353,0.247,0.612,0.247c0.199,0,0.356-0.055,0.472-0.167
				s0.175-0.248,0.175-0.41c0-0.104-0.021-0.201-0.063-0.29c-0.073-0.157-0.227-0.374-0.46-0.651
				c-0.234-0.277-0.384-0.485-0.451-0.624c-0.066-0.138-0.1-0.277-0.1-0.416c0-0.254,0.092-0.468,0.276-0.644
				c0.184-0.175,0.421-0.263,0.711-0.263c0.083,0,0.159,0.007,0.228,0.02c0.037,0.008,0.122,0.038,0.257,0.088
				c0.134,0.051,0.224,0.077,0.269,0.077c0.112,0,0.206-0.062,0.282-0.185H107.002z"/>
			<path d="M109.57,115.55l-1.102,3.809c0.476-0.716,0.847-1.192,1.114-1.428s0.521-0.353,0.765-0.353
				c0.125,0,0.23,0.043,0.313,0.129c0.083,0.086,0.125,0.202,0.125,0.345c0,0.173-0.037,0.382-0.11,0.627l-0.479,1.644
				c-0.06,0.199-0.09,0.309-0.09,0.33c0,0.037,0.011,0.067,0.033,0.09c0.022,0.023,0.048,0.035,0.077,0.035
				c0.034,0,0.073-0.017,0.117-0.051c0.149-0.115,0.297-0.275,0.443-0.479l0.122,0.074c-0.089,0.139-0.212,0.291-0.371,0.457
				s-0.294,0.281-0.408,0.345s-0.215,0.096-0.304,0.096c-0.097,0-0.176-0.031-0.237-0.092c-0.062-0.062-0.092-0.141-0.092-0.237
				c0-0.115,0.046-0.33,0.137-0.643l0.451-1.569c0.057-0.196,0.086-0.35,0.086-0.462c0-0.053-0.016-0.094-0.049-0.125
				c-0.033-0.032-0.075-0.047-0.127-0.047c-0.076,0-0.162,0.029-0.259,0.086c-0.178,0.11-0.383,0.313-0.616,0.612
				c-0.063,0.081-0.272,0.408-0.627,0.98c-0.11,0.183-0.2,0.383-0.271,0.6l-0.251,0.804h-0.588l1.29-4.487l0.137-0.486
				c0-0.068-0.028-0.128-0.084-0.18s-0.125-0.079-0.206-0.079c-0.047,0-0.119,0.008-0.216,0.023l-0.082,0.012v-0.153L109.57,115.55z
				"/>
			<path d="M114.869,118.805c0,0.393-0.104,0.781-0.312,1.165c-0.208,0.385-0.498,0.689-0.869,0.914s-0.732,0.337-1.082,0.337
				c-0.358,0-0.65-0.114-0.876-0.343s-0.339-0.525-0.339-0.889c0-0.384,0.11-0.77,0.331-1.157c0.221-0.387,0.516-0.693,0.886-0.918
				c0.37-0.225,0.727-0.337,1.072-0.337s0.629,0.114,0.853,0.341C114.757,118.146,114.869,118.442,114.869,118.805z
				 M114.218,118.535c0-0.243-0.06-0.429-0.178-0.559c-0.119-0.13-0.272-0.194-0.461-0.194c-0.384,0-0.738,0.275-1.061,0.826
				s-0.484,1.098-0.484,1.642c0,0.248,0.063,0.44,0.188,0.574c0.125,0.135,0.284,0.202,0.475,0.202c0.368,0,0.714-0.274,1.037-0.822
				S114.218,119.1,114.218,118.535z"/>
			<path d="M115.638,117.797l1.353-0.22l-0.564,1.906c0.458-0.782,0.873-1.328,1.247-1.64c0.212-0.178,0.384-0.267,0.518-0.267
				c0.086,0,0.154,0.025,0.204,0.077c0.049,0.051,0.074,0.125,0.074,0.222c0,0.172-0.044,0.337-0.133,0.494
				c-0.063,0.118-0.153,0.176-0.271,0.176c-0.06,0-0.111-0.02-0.155-0.059c-0.043-0.039-0.07-0.1-0.08-0.181
				c-0.005-0.049-0.017-0.082-0.036-0.098c-0.021-0.021-0.045-0.031-0.074-0.031c-0.044,0-0.086,0.011-0.125,0.031
				c-0.068,0.037-0.171,0.139-0.31,0.306c-0.217,0.256-0.453,0.588-0.706,0.996c-0.11,0.173-0.204,0.368-0.282,0.584
				c-0.11,0.298-0.172,0.478-0.188,0.538l-0.125,0.494h-0.6l0.726-2.436c0.083-0.283,0.125-0.484,0.125-0.604
				c0-0.047-0.02-0.086-0.059-0.118c-0.052-0.042-0.122-0.063-0.208-0.063c-0.055,0-0.156,0.012-0.302,0.035L115.638,117.797z"/>
			<path d="M120.43,116.605l-0.306,1.067h0.616l-0.066,0.247h-0.612l-0.674,2.314c-0.073,0.249-0.11,0.41-0.11,0.483
				c0,0.044,0.01,0.078,0.031,0.102c0.021,0.024,0.046,0.036,0.075,0.036c0.065,0,0.151-0.046,0.259-0.137
				c0.063-0.053,0.203-0.213,0.419-0.483l0.129,0.098c-0.241,0.351-0.468,0.598-0.682,0.742c-0.146,0.099-0.294,0.149-0.443,0.149
				c-0.115,0-0.209-0.036-0.282-0.108s-0.11-0.164-0.11-0.276c0-0.142,0.042-0.357,0.125-0.647l0.655-2.271h-0.592l0.039-0.153
				c0.288-0.079,0.527-0.195,0.718-0.351c0.19-0.156,0.404-0.426,0.639-0.81H120.43z"/>
		</g>
	</g>
</g>
<g>
</g>
<g>
</g>
</svg>
