<?xml version="1.0" encoding="utf-8"?>
<!-- Generator: Adobe Illustrator 16.0.0, SVG Export Plug-In . SVG Version: 6.00 Build 0)  -->
<!DOCTYPE svg PUBLIC "-//W3C//DTD SVG 1.1//EN" "http://www.w3.org/Graphics/SVG/1.1/DTD/svg11.dtd">
<svg version="1.1" id="Layer_1" xmlns="http://www.w3.org/2000/svg" xmlns:xlink="http://www.w3.org/1999/xlink" x="0px" y="0px"
	 width="269.549px" height="183.826px" viewBox="0 0 269.549 183.826" enable-background="new 0 0 269.549 183.826"
	 xml:space="preserve">
<g>
	<g>
		<path d="M98.746,176.453h1.783c0.402,0,0.708,0.031,0.919,0.093c0.283,0.083,0.526,0.231,0.729,0.444
			c0.202,0.214,0.356,0.475,0.461,0.783s0.158,0.689,0.158,1.142c0,0.398-0.049,0.741-0.148,1.028
			c-0.121,0.352-0.293,0.637-0.518,0.854c-0.169,0.165-0.397,0.294-0.686,0.386c-0.215,0.068-0.503,0.103-0.863,0.103h-1.836
			V176.453z M99.721,177.27v3.2h0.729c0.272,0,0.469-0.015,0.59-0.046c0.158-0.039,0.29-0.106,0.394-0.201
			c0.104-0.094,0.189-0.25,0.255-0.466c0.066-0.217,0.099-0.512,0.099-0.885c0-0.374-0.033-0.661-0.099-0.86
			c-0.066-0.2-0.158-0.356-0.277-0.469c-0.119-0.111-0.27-0.188-0.452-0.228c-0.136-0.03-0.403-0.046-0.801-0.046H99.721z"/>
		<path d="M104.503,181.285h-0.926v-3.5h0.86v0.497c0.147-0.234,0.28-0.39,0.397-0.464c0.118-0.075,0.251-0.112,0.4-0.112
			c0.211,0,0.415,0.058,0.61,0.175l-0.287,0.807c-0.156-0.101-0.301-0.151-0.435-0.151c-0.13,0-0.24,0.036-0.33,0.107
			c-0.09,0.071-0.161,0.2-0.212,0.388c-0.052,0.187-0.078,0.577-0.078,1.173V181.285z"/>
		<path d="M105.805,177.785h0.986l0.837,2.484l0.817-2.484h0.959l-1.236,3.368l-0.221,0.609c-0.082,0.205-0.159,0.36-0.232,0.469
			c-0.074,0.107-0.158,0.194-0.254,0.262c-0.095,0.067-0.213,0.119-0.353,0.156s-0.297,0.057-0.473,0.057
			c-0.178,0-0.353-0.02-0.524-0.057l-0.082-0.725c0.145,0.028,0.275,0.043,0.392,0.043c0.215,0,0.375-0.063,0.478-0.189
			c0.103-0.127,0.182-0.288,0.237-0.483L105.805,177.785z"/>
		<path d="M109.892,179.996v-0.926h1.819v0.926H109.892z"/>
		<path d="M112.255,176.453h1.932c0.382,0,0.667,0.017,0.855,0.048c0.188,0.032,0.356,0.099,0.504,0.199
			c0.148,0.102,0.272,0.236,0.371,0.404c0.099,0.168,0.148,0.356,0.148,0.565c0,0.226-0.061,0.434-0.183,0.623
			c-0.122,0.188-0.288,0.33-0.496,0.425c0.294,0.086,0.521,0.231,0.679,0.438c0.158,0.206,0.237,0.449,0.237,0.729
			c0,0.22-0.051,0.433-0.153,0.641c-0.103,0.208-0.242,0.374-0.419,0.498c-0.177,0.124-0.395,0.2-0.654,0.229
			c-0.163,0.018-0.555,0.029-1.176,0.033h-1.645V176.453z M113.231,177.257v1.117h0.64c0.38,0,0.616-0.006,0.708-0.017
			c0.167-0.02,0.298-0.077,0.394-0.173s0.144-0.222,0.144-0.378c0-0.149-0.042-0.271-0.124-0.364
			c-0.082-0.093-0.205-0.149-0.367-0.169c-0.097-0.012-0.375-0.017-0.834-0.017H113.231z M113.231,179.178v1.292h0.903
			c0.352,0,0.575-0.01,0.669-0.029c0.145-0.026,0.263-0.091,0.354-0.192c0.091-0.103,0.137-0.239,0.137-0.411
			c0-0.145-0.035-0.268-0.105-0.369c-0.07-0.101-0.172-0.174-0.305-0.221c-0.133-0.046-0.421-0.069-0.865-0.069H113.231z"/>
		<path d="M119.424,181.285v-0.524c-0.127,0.188-0.295,0.334-0.502,0.442c-0.208,0.107-0.427,0.161-0.658,0.161
			c-0.235,0-0.446-0.052-0.633-0.155c-0.187-0.103-0.322-0.248-0.405-0.435s-0.125-0.445-0.125-0.774v-2.215h0.926v1.608
			c0,0.492,0.017,0.794,0.051,0.904c0.034,0.111,0.096,0.199,0.186,0.264c0.09,0.065,0.205,0.098,0.343,0.098
			c0.158,0,0.3-0.044,0.425-0.131c0.125-0.086,0.211-0.194,0.257-0.322c0.046-0.129,0.069-0.443,0.069-0.944v-1.477h0.926v3.5
			H119.424z"/>
		<path d="M121.243,181.285v-4.832h0.926v4.832H121.243z"/>
		<path d="M123.079,181.285v-4.832h0.926v1.74c0.286-0.325,0.624-0.487,1.015-0.487c0.426,0,0.779,0.154,1.058,0.463
			c0.279,0.309,0.418,0.752,0.418,1.33c0,0.598-0.142,1.058-0.427,1.381s-0.63,0.484-1.037,0.484c-0.2,0-0.397-0.05-0.592-0.15
			c-0.194-0.1-0.362-0.247-0.502-0.442v0.514H123.079z M123.999,179.458c0,0.363,0.057,0.631,0.172,0.805
			c0.16,0.246,0.373,0.369,0.639,0.369c0.205,0,0.378-0.088,0.522-0.263c0.144-0.174,0.216-0.449,0.216-0.825
			c0-0.399-0.073-0.688-0.217-0.865c-0.146-0.177-0.331-0.266-0.557-0.266c-0.222,0-0.407,0.087-0.554,0.259
			C124.072,178.845,123.999,179.107,123.999,179.458z"/>
		<path d="M130.211,181.285v-4.015h-1.434v-0.817h3.84v0.817h-1.431v4.015H130.211z"/>
		<path d="M134.767,180.17l0.923,0.155c-0.119,0.338-0.307,0.596-0.563,0.772s-0.576,0.266-0.96,0.266
			c-0.609,0-1.059-0.199-1.351-0.597c-0.231-0.318-0.346-0.721-0.346-1.206c0-0.58,0.151-1.034,0.455-1.363
			c0.303-0.328,0.687-0.492,1.15-0.492c0.521,0,0.932,0.172,1.232,0.516s0.445,0.871,0.432,1.58h-2.32
			c0.006,0.275,0.081,0.488,0.224,0.642c0.143,0.152,0.321,0.229,0.534,0.229c0.145,0,0.267-0.039,0.366-0.118
			S134.716,180.346,134.767,180.17z M134.819,179.235c-0.007-0.269-0.076-0.472-0.208-0.611s-0.292-0.21-0.481-0.21
			c-0.202,0-0.369,0.074-0.501,0.221c-0.132,0.147-0.197,0.348-0.195,0.601H134.819z"/>
		<path d="M136.424,177.785h0.854v0.478c0.306-0.371,0.669-0.557,1.091-0.557c0.225,0,0.419,0.046,0.584,0.138
			c0.165,0.093,0.3,0.232,0.405,0.419c0.153-0.187,0.319-0.326,0.498-0.419c0.178-0.092,0.367-0.138,0.569-0.138
			c0.258,0,0.475,0.052,0.653,0.156c0.178,0.104,0.311,0.258,0.398,0.46c0.063,0.149,0.096,0.391,0.096,0.725v2.238h-0.926v-2.001
			c0-0.347-0.032-0.571-0.096-0.672c-0.086-0.132-0.218-0.198-0.396-0.198c-0.13,0-0.252,0.04-0.366,0.119s-0.196,0.195-0.247,0.348
			s-0.076,0.394-0.076,0.724v1.681h-0.926v-1.918c0-0.341-0.017-0.561-0.05-0.659c-0.032-0.099-0.084-0.173-0.153-0.221
			c-0.068-0.049-0.163-0.073-0.281-0.073c-0.143,0-0.271,0.039-0.386,0.115c-0.114,0.077-0.196,0.188-0.245,0.333
			c-0.05,0.146-0.074,0.386-0.074,0.722v1.701h-0.927V177.785z"/>
		<path d="M142.469,177.785h0.863v0.514c0.112-0.176,0.264-0.318,0.455-0.428c0.191-0.11,0.403-0.165,0.636-0.165
			c0.407,0,0.752,0.159,1.035,0.478s0.426,0.763,0.426,1.332c0,0.584-0.144,1.038-0.429,1.362c-0.286,0.324-0.632,0.486-1.038,0.486
			c-0.193,0-0.369-0.038-0.526-0.115c-0.156-0.077-0.322-0.209-0.495-0.396v1.764h-0.927V177.785z M143.385,179.475
			c0,0.394,0.078,0.684,0.234,0.872c0.156,0.188,0.346,0.281,0.57,0.281c0.215,0,0.395-0.086,0.537-0.259
			c0.143-0.172,0.214-0.455,0.214-0.849c0-0.366-0.073-0.639-0.221-0.817c-0.147-0.178-0.329-0.267-0.547-0.267
			c-0.227,0-0.414,0.087-0.563,0.262S143.385,179.132,143.385,179.475z"/>
		<path d="M148.491,182.646v-6.193h1.642v0.729h-0.762v4.736h0.762v0.729H148.491z"/>
		<path d="M150.755,181.285v-4.832h3.313v0.817h-2.337v1.144h2.017v0.817h-2.017v2.054H150.755z"/>
		<path d="M156.147,176.453v6.193h-1.642v-0.729h0.762v-4.743h-0.762v-0.722H156.147z"/>
	</g>
	<g>
		<path d="M267.008,152.298h-4.832v-0.976h1.902v-1.912h-1.902v-0.976h4.832v0.976h-2.112v1.912h2.112V152.298z"/>
		<path d="M267.008,145.129h-0.524c0.188,0.127,0.334,0.295,0.442,0.502c0.107,0.208,0.161,0.427,0.161,0.658
			c0,0.235-0.052,0.446-0.155,0.633c-0.103,0.187-0.248,0.321-0.435,0.405c-0.187,0.083-0.445,0.125-0.774,0.125h-2.215v-0.926
			h1.608c0.492,0,0.794-0.018,0.904-0.052c0.111-0.033,0.199-0.096,0.264-0.186c0.065-0.09,0.098-0.204,0.098-0.343
			c0-0.158-0.044-0.3-0.131-0.426c-0.086-0.125-0.194-0.211-0.322-0.257c-0.129-0.046-0.443-0.069-0.944-0.069h-1.477v-0.926h3.5
			V145.129z"/>
		<path d="M263.508,143.379v-0.854h0.478c-0.371-0.306-0.557-0.669-0.557-1.091c0-0.225,0.046-0.419,0.138-0.584
			c0.093-0.165,0.232-0.3,0.419-0.405c-0.187-0.153-0.326-0.319-0.419-0.498c-0.092-0.178-0.138-0.367-0.138-0.569
			c0-0.258,0.052-0.475,0.156-0.653c0.104-0.178,0.258-0.311,0.46-0.398c0.149-0.063,0.391-0.096,0.725-0.096h2.238v0.926h-2.001
			c-0.347,0-0.571,0.032-0.672,0.096c-0.132,0.086-0.198,0.218-0.198,0.396c0,0.13,0.04,0.252,0.119,0.366s0.195,0.196,0.348,0.247
			s0.394,0.076,0.724,0.076h1.681v0.926h-1.918c-0.341,0-0.561,0.017-0.659,0.05c-0.099,0.032-0.173,0.084-0.221,0.153
			c-0.049,0.068-0.073,0.163-0.073,0.281c0,0.143,0.039,0.271,0.115,0.386c0.077,0.114,0.188,0.196,0.333,0.245
			c0.146,0.05,0.386,0.074,0.722,0.074h1.701v0.927H263.508z"/>
		<path d="M263.033,137.308h-0.857v-0.926h0.857V137.308z M267.008,137.308h-3.5v-0.926h3.5V137.308z"/>
		<path d="M267.008,132.223v0.86h-0.514c0.199,0.143,0.349,0.311,0.446,0.506c0.098,0.194,0.146,0.391,0.146,0.588
			c0,0.402-0.162,0.746-0.486,1.033s-0.776,0.43-1.356,0.43c-0.593,0-1.044-0.139-1.353-0.418s-0.463-0.632-0.463-1.059
			c0-0.391,0.162-0.729,0.487-1.015h-1.74v-0.926H267.008z M265.182,134.695c0.374,0,0.645-0.052,0.811-0.155
			c0.242-0.149,0.363-0.357,0.363-0.626c0-0.213-0.091-0.395-0.272-0.544c-0.181-0.149-0.452-0.224-0.813-0.224
			c-0.401,0-0.691,0.072-0.868,0.217c-0.177,0.146-0.266,0.331-0.266,0.558c0,0.22,0.088,0.403,0.263,0.552
			S264.835,134.695,265.182,134.695z"/>
		<path d="M263.033,131.31h-0.857v-0.926h0.857V131.31z M267.008,131.31h-3.5v-0.926h3.5V131.31z"/>
		<path d="M263.508,127.83h0.738v0.633h1.41c0.286,0,0.452-0.006,0.5-0.018c0.047-0.013,0.086-0.04,0.116-0.083
			c0.031-0.043,0.047-0.095,0.047-0.156c0-0.086-0.03-0.21-0.089-0.372l0.718-0.079c0.093,0.215,0.139,0.459,0.139,0.731
			c0,0.167-0.028,0.317-0.084,0.451c-0.056,0.135-0.129,0.232-0.218,0.295s-0.209,0.106-0.36,0.131
			c-0.108,0.02-0.325,0.029-0.653,0.029h-1.525v0.425h-0.738v-0.425h-0.695l-0.541-0.93h1.236V127.83z"/>
		<path d="M263.508,127.625v-0.985l2.484-0.838l-2.484-0.817v-0.959l3.368,1.236l0.609,0.221c0.205,0.081,0.36,0.159,0.469,0.232
			c0.107,0.073,0.194,0.158,0.262,0.254s0.119,0.213,0.156,0.353s0.057,0.297,0.057,0.473c0,0.178-0.02,0.353-0.057,0.524
			l-0.725,0.082c0.028-0.145,0.043-0.275,0.043-0.392c0-0.216-0.063-0.375-0.189-0.479c-0.127-0.103-0.288-0.182-0.483-0.237
			L263.508,127.625z"/>
		<path d="M267.008,121.547h-4.832v-2.054c0-0.517,0.044-0.892,0.131-1.125c0.086-0.234,0.241-0.422,0.463-0.563
			s0.476-0.211,0.761-0.211c0.363,0,0.662,0.106,0.898,0.319c0.236,0.214,0.385,0.532,0.446,0.956
			c0.123-0.211,0.259-0.385,0.406-0.522c0.146-0.137,0.408-0.322,0.784-0.555l0.942-0.59v1.166l-1.052,0.705
			c-0.375,0.251-0.612,0.422-0.71,0.515s-0.165,0.19-0.201,0.293c-0.036,0.104-0.055,0.268-0.055,0.491v0.198h2.018V121.547z
			 M264.22,120.572v-0.722c0-0.469-0.021-0.761-0.06-0.877s-0.107-0.208-0.204-0.273c-0.097-0.066-0.218-0.1-0.362-0.1
			c-0.163,0-0.294,0.044-0.395,0.131c-0.1,0.087-0.163,0.209-0.189,0.367c-0.011,0.079-0.017,0.316-0.017,0.712v0.762H264.22z"/>
		<path d="M264.575,115.991l-0.151,0.841c-0.338-0.095-0.589-0.258-0.752-0.488c-0.162-0.23-0.243-0.573-0.243-1.028
			c0-0.413,0.049-0.721,0.146-0.923s0.222-0.344,0.372-0.427c0.15-0.082,0.427-0.123,0.829-0.123l1.081,0.01
			c0.308,0,0.534-0.015,0.681-0.045c0.146-0.029,0.303-0.085,0.47-0.166v0.916c-0.062,0.024-0.152,0.054-0.273,0.089
			c-0.055,0.016-0.091,0.026-0.109,0.033c0.154,0.158,0.27,0.327,0.347,0.508c0.077,0.18,0.115,0.372,0.115,0.576
			c0,0.36-0.098,0.645-0.293,0.853c-0.196,0.207-0.443,0.312-0.742,0.312c-0.197,0-0.374-0.048-0.528-0.143
			c-0.155-0.094-0.274-0.227-0.356-0.396c-0.082-0.171-0.154-0.416-0.216-0.736c-0.081-0.434-0.157-0.733-0.228-0.9h-0.092
			c-0.179,0-0.306,0.044-0.381,0.132c-0.076,0.088-0.114,0.254-0.114,0.498c0,0.165,0.033,0.293,0.098,0.386
			C264.299,115.859,264.413,115.934,264.575,115.991z M265.327,114.751c0.039,0.119,0.087,0.307,0.142,0.563
			s0.108,0.426,0.161,0.505c0.086,0.12,0.194,0.181,0.326,0.181c0.13,0,0.242-0.048,0.337-0.145c0.094-0.097,0.142-0.22,0.142-0.369
			c0-0.167-0.055-0.326-0.165-0.479c-0.083-0.111-0.186-0.186-0.307-0.221c-0.079-0.023-0.229-0.036-0.451-0.036H265.327z"/>
		<path d="M263.508,111.324h0.738v0.633h1.41c0.286,0,0.452-0.006,0.5-0.018c0.047-0.013,0.086-0.04,0.116-0.083
			c0.031-0.043,0.047-0.095,0.047-0.156c0-0.086-0.03-0.21-0.089-0.372l0.718-0.079c0.093,0.215,0.139,0.459,0.139,0.731
			c0,0.167-0.028,0.317-0.084,0.451c-0.056,0.135-0.129,0.232-0.218,0.295s-0.209,0.106-0.36,0.131
			c-0.108,0.02-0.325,0.029-0.653,0.029h-1.525v0.425h-0.738v-0.425h-0.695l-0.541-0.93h1.236V111.324z"/>
		<path d="M263.033,110.681h-0.857v-0.926h0.857V110.681z M267.008,110.681h-3.5v-0.926h3.5V110.681z"/>
		<path d="M265.208,109.019c-0.308,0-0.605-0.075-0.893-0.228c-0.288-0.151-0.508-0.366-0.659-0.644
			c-0.152-0.278-0.228-0.589-0.228-0.932c0-0.529,0.172-0.963,0.516-1.302c0.344-0.338,0.778-0.508,1.304-0.508
			c0.529,0,0.968,0.171,1.316,0.513s0.522,0.771,0.522,1.29c0,0.321-0.072,0.627-0.218,0.918c-0.145,0.291-0.357,0.513-0.638,0.664
			C265.951,108.944,265.61,109.019,265.208,109.019z M265.258,108.07c0.347,0,0.613-0.082,0.798-0.247s0.276-0.368,0.276-0.609
			c0-0.242-0.092-0.444-0.276-0.608s-0.453-0.245-0.805-0.245c-0.343,0-0.606,0.081-0.791,0.245s-0.276,0.366-0.276,0.608
			c0,0.241,0.092,0.444,0.276,0.609S264.91,108.07,265.258,108.07z"/>
		<path d="M268.369,102.81h-6.193v-1.642h0.729v0.762h4.736v-0.762h0.729V102.81z"/>
		<path d="M265.231,98.304h-0.814v-2.103h1.925c0.198,0.204,0.372,0.501,0.522,0.889s0.226,0.78,0.226,1.178
			c0,0.506-0.105,0.946-0.317,1.322c-0.212,0.375-0.516,0.658-0.91,0.847c-0.395,0.189-0.823,0.283-1.287,0.283
			c-0.503,0-0.95-0.105-1.341-0.316c-0.392-0.211-0.691-0.52-0.9-0.926c-0.16-0.31-0.24-0.695-0.24-1.157
			c0-0.6,0.126-1.068,0.377-1.405c0.252-0.338,0.6-0.555,1.043-0.651l0.182,0.969c-0.237,0.068-0.425,0.196-0.562,0.385
			c-0.138,0.188-0.206,0.422-0.206,0.703c0,0.427,0.135,0.766,0.405,1.017c0.271,0.252,0.671,0.378,1.203,0.378
			c0.573,0,1.003-0.128,1.29-0.383s0.43-0.589,0.43-1.002c0-0.204-0.04-0.409-0.12-0.614s-0.177-0.382-0.291-0.529h-0.613V98.304z"
			/>
		<path d="M267.008,94.422v0.926h-3.5v-0.859h0.497c-0.234-0.147-0.39-0.28-0.464-0.397c-0.075-0.118-0.112-0.251-0.112-0.4
			c0-0.211,0.058-0.414,0.175-0.61l0.807,0.287c-0.101,0.156-0.151,0.301-0.151,0.436c0,0.129,0.036,0.239,0.107,0.329
			s0.2,0.161,0.388,0.213c0.187,0.052,0.577,0.077,1.173,0.077H267.008z"/>
		<path d="M264.575,91.99l-0.151,0.841c-0.338-0.095-0.589-0.258-0.752-0.488c-0.162-0.23-0.243-0.573-0.243-1.028
			c0-0.413,0.049-0.72,0.146-0.923c0.098-0.202,0.222-0.344,0.372-0.427c0.15-0.082,0.427-0.124,0.829-0.124l1.081,0.01
			c0.308,0,0.534-0.015,0.681-0.045c0.146-0.029,0.303-0.085,0.47-0.166v0.916c-0.062,0.024-0.152,0.054-0.273,0.089
			c-0.055,0.016-0.091,0.026-0.109,0.033c0.154,0.158,0.27,0.327,0.347,0.508c0.077,0.18,0.115,0.372,0.115,0.576
			c0,0.36-0.098,0.645-0.293,0.853c-0.196,0.207-0.443,0.312-0.742,0.312c-0.197,0-0.374-0.048-0.528-0.143
			c-0.155-0.094-0.274-0.227-0.356-0.396c-0.082-0.171-0.154-0.416-0.216-0.736c-0.081-0.434-0.157-0.733-0.228-0.9h-0.092
			c-0.179,0-0.306,0.044-0.381,0.132c-0.076,0.088-0.114,0.254-0.114,0.498c0,0.165,0.033,0.293,0.098,0.386
			C264.299,91.858,264.413,91.933,264.575,91.99z M265.327,90.75c0.039,0.119,0.087,0.307,0.142,0.563s0.108,0.426,0.161,0.505
			c0.086,0.12,0.194,0.181,0.326,0.181c0.13,0,0.242-0.048,0.337-0.145c0.094-0.097,0.142-0.22,0.142-0.369
			c0-0.167-0.055-0.327-0.165-0.478c-0.083-0.112-0.186-0.186-0.307-0.221c-0.079-0.024-0.229-0.036-0.451-0.036H265.327z"/>
		<path d="M263.033,88.928h-0.857v-0.926h0.857V88.928z M267.008,88.928h-3.5v-0.926h3.5V88.928z"/>
		<path d="M267.008,83.869v0.926h-1.786c-0.378,0-0.623,0.02-0.733,0.06c-0.111,0.039-0.197,0.104-0.259,0.192
			c-0.062,0.089-0.093,0.196-0.093,0.321c0,0.161,0.044,0.305,0.132,0.432s0.205,0.215,0.35,0.262
			c0.146,0.047,0.413,0.071,0.805,0.071h1.585v0.926h-3.5v-0.86h0.514c-0.396-0.306-0.593-0.69-0.593-1.154
			c0-0.205,0.036-0.391,0.11-0.56c0.073-0.169,0.167-0.297,0.281-0.384s0.244-0.147,0.39-0.181c0.145-0.034,0.353-0.051,0.622-0.051
			H267.008z"/>
		<path d="M266.009,83.255l-0.142-0.93c0.181-0.039,0.317-0.12,0.41-0.24c0.094-0.121,0.141-0.29,0.141-0.508
			c0-0.239-0.044-0.419-0.132-0.541c-0.062-0.081-0.144-0.122-0.247-0.122c-0.07,0-0.129,0.022-0.175,0.065
			c-0.044,0.046-0.085,0.15-0.122,0.31c-0.165,0.747-0.315,1.221-0.451,1.42c-0.189,0.277-0.452,0.416-0.788,0.416
			c-0.304,0-0.558-0.12-0.765-0.359c-0.206-0.239-0.31-0.611-0.31-1.114c0-0.479,0.078-0.835,0.233-1.068
			c0.156-0.232,0.387-0.393,0.692-0.481l0.161,0.874c-0.136,0.037-0.24,0.108-0.313,0.212s-0.109,0.253-0.109,0.447
			c0,0.244,0.034,0.418,0.103,0.524c0.049,0.07,0.111,0.105,0.188,0.105c0.065,0,0.121-0.031,0.168-0.092
			c0.062-0.083,0.148-0.372,0.26-0.865c0.112-0.493,0.25-0.837,0.412-1.033c0.165-0.193,0.395-0.29,0.689-0.29
			c0.32,0,0.596,0.134,0.827,0.402c0.23,0.268,0.346,0.665,0.346,1.189c0,0.477-0.097,0.854-0.29,1.132
			S266.341,83.169,266.009,83.255z"/>
		<path d="M267.09,79.669l-4.996-1.196v-0.695l4.996,1.209V79.669z"/>
		<path d="M267.008,77.267h-4.792v-0.976h3.978v-2.426h0.814V77.267z"/>
		<path d="M267.008,73.216h-4.832V72.29h1.74c-0.325-0.286-0.487-0.624-0.487-1.015c0-0.426,0.154-0.779,0.463-1.058
			c0.309-0.279,0.752-0.418,1.33-0.418c0.598,0,1.058,0.142,1.381,0.427s0.484,0.63,0.484,1.037c0,0.2-0.05,0.397-0.15,0.592
			c-0.1,0.194-0.247,0.362-0.442,0.502h0.514V73.216z M265.182,72.297c0.363,0,0.631-0.057,0.805-0.172
			c0.246-0.16,0.369-0.373,0.369-0.639c0-0.205-0.088-0.378-0.263-0.522c-0.174-0.144-0.449-0.216-0.825-0.216
			c-0.399,0-0.688,0.073-0.865,0.217c-0.177,0.146-0.266,0.331-0.266,0.557c0,0.222,0.087,0.407,0.259,0.554
			C264.568,72.223,264.83,72.297,265.182,72.297z"/>
	</g>
	<g>
		<path d="M262.176,43.179v-1.783c0-0.402,0.031-0.708,0.093-0.919c0.083-0.283,0.231-0.526,0.444-0.729
			c0.214-0.202,0.475-0.356,0.783-0.461s0.689-0.158,1.142-0.158c0.398,0,0.741,0.049,1.028,0.148
			c0.352,0.121,0.637,0.293,0.854,0.518c0.165,0.169,0.294,0.397,0.386,0.686c0.068,0.215,0.103,0.503,0.103,0.863v1.836H262.176z
			 M262.993,42.204h3.2v-0.729c0-0.272-0.015-0.469-0.046-0.59c-0.039-0.158-0.106-0.29-0.201-0.394
			c-0.094-0.104-0.25-0.189-0.466-0.255c-0.217-0.066-0.512-0.099-0.885-0.099c-0.374,0-0.661,0.033-0.86,0.099
			c-0.2,0.066-0.356,0.158-0.469,0.277c-0.111,0.119-0.188,0.27-0.228,0.452c-0.03,0.136-0.046,0.403-0.046,0.801V42.204z"/>
		<path d="M267.008,37.421v0.926h-3.5v-0.86h0.497c-0.234-0.147-0.39-0.28-0.464-0.397c-0.075-0.118-0.112-0.251-0.112-0.4
			c0-0.211,0.058-0.415,0.175-0.61l0.807,0.287c-0.101,0.156-0.151,0.301-0.151,0.435c0,0.13,0.036,0.24,0.107,0.33
			c0.071,0.09,0.2,0.161,0.388,0.212c0.187,0.052,0.577,0.078,1.173,0.078H267.008z"/>
		<path d="M263.508,36.12v-0.986l2.484-0.837l-2.484-0.817V32.52l3.368,1.236l0.609,0.221c0.205,0.082,0.36,0.159,0.469,0.232
			c0.107,0.074,0.194,0.158,0.262,0.254c0.067,0.095,0.119,0.213,0.156,0.353s0.057,0.297,0.057,0.473
			c0,0.178-0.02,0.353-0.057,0.524l-0.725,0.082c0.028-0.145,0.043-0.275,0.043-0.392c0-0.215-0.063-0.375-0.189-0.478
			c-0.127-0.103-0.288-0.182-0.483-0.237L263.508,36.12z"/>
		<path d="M267.008,25.938V27l-1.098,0.422v1.932l1.098,0.398v1.035l-4.832-1.882v-1.032L267.008,25.938z M265.096,27.735
			l-1.793,0.666l1.793,0.653V27.735z"/>
		<path d="M263.033,25.428h-0.857v-0.926h0.857V25.428z M267.008,25.428h-3.5v-0.926h3.5V25.428z"/>
		<path d="M267.008,22.666v0.926h-3.5v-0.86h0.497c-0.234-0.147-0.39-0.28-0.464-0.397c-0.075-0.118-0.112-0.251-0.112-0.4
			c0-0.211,0.058-0.415,0.175-0.61l0.807,0.287c-0.101,0.156-0.151,0.301-0.151,0.435c0,0.13,0.036,0.24,0.107,0.33
			c0.071,0.09,0.2,0.161,0.388,0.212c0.187,0.052,0.577,0.078,1.173,0.078H267.008z"/>
		<path d="M262.176,19.643h6.193v1.642h-0.729v-0.762h-4.743v0.762h-0.722V19.643z"/>
	</g>
	<g>
		<path d="M229.022,172.292h-0.593v-3.78c-0.144,0.136-0.33,0.272-0.563,0.408c-0.231,0.137-0.439,0.239-0.624,0.307v-0.573
			c0.331-0.156,0.621-0.345,0.87-0.566c0.248-0.223,0.424-0.438,0.527-0.646h0.382V172.292z"/>
		<path d="M232.275,172.292h-0.593v-3.78c-0.144,0.136-0.33,0.272-0.563,0.408c-0.231,0.137-0.439,0.239-0.624,0.307v-0.573
			c0.331-0.156,0.621-0.345,0.87-0.566c0.248-0.223,0.424-0.438,0.527-0.646h0.382V172.292z"/>
		<path d="M233.795,169.91c0-0.571,0.059-1.031,0.176-1.38c0.118-0.348,0.293-0.616,0.524-0.806
			c0.231-0.188,0.523-0.283,0.875-0.283c0.26,0,0.486,0.052,0.683,0.156c0.195,0.104,0.356,0.255,0.484,0.452
			c0.127,0.196,0.228,0.436,0.3,0.718c0.072,0.283,0.108,0.663,0.108,1.143c0,0.566-0.058,1.024-0.175,1.373
			c-0.116,0.348-0.29,0.617-0.521,0.807c-0.232,0.19-0.525,0.285-0.879,0.285c-0.466,0-0.832-0.167-1.098-0.501
			C233.954,171.472,233.795,170.817,233.795,169.91z M234.404,169.91c0,0.793,0.093,1.321,0.278,1.584
			c0.187,0.262,0.415,0.394,0.688,0.394s0.502-0.132,0.688-0.396s0.278-0.791,0.278-1.582c0-0.796-0.093-1.324-0.278-1.586
			c-0.186-0.261-0.417-0.392-0.694-0.392c-0.272,0-0.489,0.115-0.652,0.346C234.507,168.573,234.404,169.117,234.404,169.91z"/>
	</g>
	<g>
		<path d="M201.272,172.292h-0.593v-3.78c-0.144,0.136-0.33,0.272-0.563,0.408c-0.231,0.137-0.439,0.239-0.624,0.307v-0.573
			c0.331-0.156,0.621-0.345,0.87-0.566c0.248-0.223,0.424-0.438,0.527-0.646h0.382V172.292z"/>
		<path d="M202.792,169.91c0-0.571,0.059-1.031,0.176-1.38c0.118-0.348,0.293-0.616,0.524-0.806
			c0.231-0.188,0.523-0.283,0.875-0.283c0.26,0,0.486,0.052,0.683,0.156c0.195,0.104,0.356,0.255,0.484,0.452
			c0.127,0.196,0.228,0.436,0.3,0.718c0.072,0.283,0.108,0.663,0.108,1.143c0,0.566-0.058,1.024-0.175,1.373
			c-0.116,0.348-0.29,0.617-0.521,0.807c-0.232,0.19-0.525,0.285-0.879,0.285c-0.466,0-0.832-0.167-1.098-0.501
			C202.951,171.472,202.792,170.817,202.792,169.91z M203.401,169.91c0,0.793,0.093,1.321,0.278,1.584
			c0.187,0.262,0.415,0.394,0.688,0.394s0.502-0.132,0.688-0.396s0.278-0.791,0.278-1.582c0-0.796-0.093-1.324-0.278-1.586
			c-0.186-0.261-0.417-0.392-0.694-0.392c-0.272,0-0.489,0.115-0.652,0.346C203.504,168.573,203.401,169.117,203.401,169.91z"/>
		<path d="M206.546,169.91c0-0.571,0.059-1.031,0.176-1.38c0.118-0.348,0.293-0.616,0.524-0.806
			c0.231-0.188,0.523-0.283,0.875-0.283c0.26,0,0.486,0.052,0.683,0.156c0.195,0.104,0.356,0.255,0.484,0.452
			c0.127,0.196,0.228,0.436,0.3,0.718c0.072,0.283,0.108,0.663,0.108,1.143c0,0.566-0.058,1.024-0.175,1.373
			c-0.116,0.348-0.29,0.617-0.521,0.807c-0.232,0.19-0.525,0.285-0.879,0.285c-0.466,0-0.832-0.167-1.098-0.501
			C206.705,171.472,206.546,170.817,206.546,169.91z M207.155,169.91c0,0.793,0.093,1.321,0.278,1.584
			c0.187,0.262,0.415,0.394,0.688,0.394s0.502-0.132,0.688-0.396s0.278-0.791,0.278-1.582c0-0.796-0.093-1.324-0.278-1.586
			c-0.186-0.261-0.417-0.392-0.694-0.392c-0.272,0-0.489,0.115-0.652,0.346C207.258,168.573,207.155,169.117,207.155,169.91z"/>
	</g>
	<g>
		<path d="M173.627,171.175l0.57-0.053c0.048,0.268,0.141,0.463,0.276,0.583c0.137,0.121,0.312,0.182,0.524,0.182
			c0.183,0,0.342-0.042,0.479-0.125c0.138-0.084,0.25-0.195,0.338-0.335s0.161-0.328,0.221-0.565s0.089-0.479,0.089-0.725
			c0-0.026-0.001-0.066-0.003-0.119c-0.119,0.189-0.281,0.343-0.486,0.46s-0.428,0.177-0.667,0.177c-0.4,0-0.738-0.146-1.016-0.436
			c-0.276-0.29-0.415-0.672-0.415-1.146c0-0.49,0.145-0.885,0.434-1.184s0.65-0.448,1.086-0.448c0.313,0,0.602,0.085,0.861,0.254
			c0.261,0.169,0.458,0.41,0.594,0.724c0.135,0.313,0.202,0.766,0.202,1.359c0,0.617-0.066,1.109-0.201,1.475
			c-0.134,0.366-0.333,0.645-0.598,0.836c-0.265,0.19-0.575,0.286-0.932,0.286c-0.378,0-0.687-0.104-0.926-0.314
			S173.675,171.555,173.627,171.175z M176.056,169.042c0-0.34-0.09-0.61-0.271-0.811s-0.399-0.3-0.654-0.3
			c-0.264,0-0.493,0.107-0.688,0.323c-0.196,0.215-0.294,0.494-0.294,0.837c0,0.308,0.093,0.558,0.278,0.75
			c0.187,0.192,0.415,0.288,0.688,0.288c0.274,0,0.501-0.096,0.678-0.288S176.056,169.383,176.056,169.042z"/>
		<path d="M177.292,169.91c0-0.571,0.059-1.031,0.176-1.38c0.118-0.348,0.293-0.616,0.524-0.806
			c0.231-0.188,0.523-0.283,0.875-0.283c0.26,0,0.486,0.052,0.683,0.156c0.195,0.104,0.356,0.255,0.484,0.452
			c0.127,0.196,0.228,0.436,0.3,0.718c0.072,0.283,0.108,0.663,0.108,1.143c0,0.566-0.058,1.024-0.175,1.373
			c-0.116,0.348-0.29,0.617-0.521,0.807c-0.232,0.19-0.525,0.285-0.879,0.285c-0.466,0-0.832-0.167-1.098-0.501
			C177.451,171.472,177.292,170.817,177.292,169.91z M177.901,169.91c0,0.793,0.093,1.321,0.278,1.584
			c0.187,0.262,0.415,0.394,0.688,0.394s0.502-0.132,0.688-0.396s0.278-0.791,0.278-1.582c0-0.796-0.093-1.324-0.278-1.586
			c-0.186-0.261-0.417-0.392-0.694-0.392c-0.272,0-0.489,0.115-0.652,0.346C178.004,168.573,177.901,169.117,177.901,169.91z"/>
	</g>
	<g>
		<path d="M146.701,169.672c-0.246-0.09-0.429-0.219-0.547-0.386c-0.119-0.167-0.179-0.367-0.179-0.6
			c0-0.352,0.127-0.647,0.379-0.887c0.253-0.239,0.589-0.359,1.009-0.359c0.422,0,0.762,0.122,1.019,0.367s0.386,0.544,0.386,0.896
			c0,0.224-0.059,0.419-0.177,0.585c-0.117,0.166-0.296,0.294-0.535,0.384c0.297,0.097,0.522,0.253,0.677,0.468
			c0.155,0.216,0.232,0.473,0.232,0.771c0,0.413-0.146,0.76-0.438,1.041c-0.293,0.281-0.678,0.422-1.154,0.422
			s-0.861-0.141-1.153-0.423s-0.438-0.635-0.438-1.057c0-0.314,0.08-0.577,0.239-0.789S146.406,169.75,146.701,169.672z
			 M146.391,170.898c0,0.17,0.041,0.333,0.121,0.491s0.199,0.281,0.357,0.368c0.158,0.086,0.328,0.13,0.511,0.13
			c0.283,0,0.518-0.091,0.702-0.273s0.276-0.414,0.276-0.695c0-0.286-0.095-0.522-0.285-0.709c-0.189-0.187-0.428-0.28-0.713-0.28
			c-0.279,0-0.511,0.093-0.694,0.277S146.391,170.622,146.391,170.898z M146.582,168.667c0,0.229,0.074,0.415,0.221,0.56
			c0.147,0.146,0.339,0.218,0.574,0.218c0.229,0,0.415-0.072,0.562-0.216s0.22-0.32,0.22-0.529c0-0.218-0.076-0.4-0.227-0.549
			s-0.338-0.222-0.562-0.222c-0.227,0-0.414,0.072-0.563,0.217C146.657,168.292,146.582,168.465,146.582,168.667z"/>
		<path d="M149.542,169.91c0-0.571,0.059-1.031,0.176-1.38c0.118-0.348,0.293-0.616,0.524-0.806
			c0.231-0.188,0.523-0.283,0.875-0.283c0.26,0,0.486,0.052,0.683,0.156c0.195,0.104,0.356,0.255,0.484,0.452
			c0.127,0.196,0.228,0.436,0.3,0.718c0.072,0.283,0.108,0.663,0.108,1.143c0,0.566-0.058,1.024-0.175,1.373
			c-0.116,0.348-0.29,0.617-0.521,0.807c-0.232,0.19-0.525,0.285-0.879,0.285c-0.466,0-0.832-0.167-1.098-0.501
			C149.701,171.472,149.542,170.817,149.542,169.91z M150.151,169.91c0,0.793,0.093,1.321,0.278,1.584
			c0.187,0.262,0.415,0.394,0.688,0.394s0.502-0.132,0.688-0.396s0.278-0.791,0.278-1.582c0-0.796-0.093-1.324-0.278-1.586
			c-0.186-0.261-0.417-0.392-0.694-0.392c-0.272,0-0.489,0.115-0.652,0.346C150.254,168.573,150.151,169.117,150.151,169.91z"/>
	</g>
	<g>
		<path d="M118.82,168.093v-0.57h3.127v0.462c-0.308,0.327-0.612,0.763-0.915,1.305c-0.302,0.543-0.536,1.102-0.7,1.675
			c-0.119,0.404-0.194,0.847-0.228,1.328h-0.61c0.007-0.38,0.082-0.839,0.225-1.378c0.143-0.538,0.348-1.058,0.614-1.557
			c0.267-0.5,0.551-0.922,0.852-1.265H118.82z"/>
		<path d="M122.534,169.91c0-0.571,0.059-1.031,0.176-1.38c0.118-0.348,0.292-0.616,0.524-0.806
			c0.232-0.188,0.523-0.283,0.875-0.283c0.259,0,0.487,0.052,0.683,0.156c0.195,0.104,0.357,0.255,0.484,0.452
			c0.127,0.196,0.228,0.436,0.3,0.718c0.072,0.283,0.109,0.663,0.109,1.143c0,0.566-0.059,1.024-0.175,1.373
			c-0.117,0.348-0.291,0.617-0.522,0.807c-0.232,0.19-0.524,0.285-0.878,0.285c-0.466,0-0.832-0.167-1.098-0.501
			C122.693,171.472,122.534,170.817,122.534,169.91z M123.144,169.91c0,0.793,0.093,1.321,0.279,1.584
			c0.186,0.262,0.415,0.394,0.687,0.394s0.501-0.132,0.688-0.396c0.186-0.264,0.278-0.791,0.278-1.582
			c0-0.796-0.093-1.324-0.278-1.586c-0.186-0.261-0.417-0.392-0.694-0.392c-0.272,0-0.49,0.115-0.653,0.346
			C123.246,168.573,123.144,169.117,123.144,169.91z"/>
	</g>
	<g>
		<path d="M94.116,168.644l-0.59,0.046c-0.053-0.232-0.127-0.402-0.224-0.508c-0.161-0.169-0.358-0.253-0.593-0.253
			c-0.189,0-0.355,0.053-0.498,0.158c-0.187,0.136-0.334,0.335-0.442,0.596c-0.107,0.262-0.164,0.635-0.168,1.117
			c0.143-0.217,0.317-0.379,0.524-0.484s0.423-0.158,0.649-0.158c0.396,0,0.732,0.146,1.01,0.438
			c0.278,0.291,0.417,0.667,0.417,1.129c0,0.303-0.065,0.585-0.196,0.845c-0.131,0.261-0.311,0.46-0.539,0.599
			s-0.487,0.207-0.777,0.207c-0.495,0-0.898-0.182-1.21-0.545c-0.312-0.364-0.468-0.963-0.468-1.798
			c0-0.934,0.172-1.613,0.518-2.037c0.301-0.369,0.706-0.554,1.216-0.554c0.38,0,0.692,0.106,0.935,0.319
			C93.922,167.974,94.068,168.268,94.116,168.644z M91.694,170.727c0,0.204,0.043,0.399,0.13,0.587
			c0.086,0.187,0.208,0.329,0.364,0.427c0.156,0.098,0.319,0.146,0.491,0.146c0.25,0,0.466-0.102,0.646-0.304
			s0.271-0.477,0.271-0.823c0-0.334-0.089-0.598-0.267-0.79s-0.402-0.288-0.672-0.288c-0.268,0-0.496,0.096-0.682,0.288
			C91.787,170.163,91.694,170.415,91.694,170.727z"/>
		<path d="M94.792,169.91c0-0.571,0.059-1.031,0.176-1.38c0.118-0.348,0.292-0.616,0.524-0.806c0.232-0.188,0.523-0.283,0.875-0.283
			c0.259,0,0.487,0.052,0.683,0.156c0.195,0.104,0.357,0.255,0.484,0.452c0.127,0.196,0.228,0.436,0.3,0.718
			c0.072,0.283,0.109,0.663,0.109,1.143c0,0.566-0.059,1.024-0.175,1.373c-0.117,0.348-0.291,0.617-0.522,0.807
			c-0.232,0.19-0.524,0.285-0.878,0.285c-0.466,0-0.832-0.167-1.098-0.501C94.951,171.472,94.792,170.817,94.792,169.91z
			 M95.401,169.91c0,0.793,0.093,1.321,0.279,1.584c0.186,0.262,0.415,0.394,0.687,0.394s0.501-0.132,0.688-0.396
			c0.186-0.264,0.278-0.791,0.278-1.582c0-0.796-0.093-1.324-0.278-1.586c-0.186-0.261-0.417-0.392-0.694-0.392
			c-0.272,0-0.49,0.115-0.653,0.346C95.504,168.573,95.401,169.117,95.401,169.91z"/>
	</g>
	<g>
		<path d="M63.288,171.027l0.623-0.053c0.046,0.303,0.153,0.531,0.321,0.684c0.168,0.153,0.371,0.229,0.608,0.229
			c0.286,0,0.527-0.107,0.725-0.323c0.198-0.215,0.297-0.501,0.297-0.856c0-0.339-0.095-0.605-0.285-0.802
			c-0.19-0.195-0.439-0.293-0.747-0.293c-0.191,0-0.364,0.044-0.518,0.13c-0.154,0.087-0.275,0.2-0.363,0.338l-0.557-0.072
			l0.468-2.481h2.403v0.566h-1.928l-0.26,1.299c0.29-0.202,0.594-0.303,0.913-0.303c0.422,0,0.778,0.146,1.068,0.438
			c0.29,0.293,0.435,0.668,0.435,1.128c0,0.437-0.127,0.814-0.382,1.134c-0.31,0.391-0.733,0.586-1.269,0.586
			c-0.439,0-0.798-0.123-1.076-0.369S63.328,171.433,63.288,171.027z"/>
		<path d="M67.042,169.91c0-0.571,0.059-1.031,0.176-1.38c0.118-0.348,0.292-0.616,0.524-0.806c0.232-0.188,0.523-0.283,0.875-0.283
			c0.259,0,0.487,0.052,0.683,0.156c0.195,0.104,0.357,0.255,0.484,0.452c0.127,0.196,0.228,0.436,0.3,0.718
			c0.072,0.283,0.109,0.663,0.109,1.143c0,0.566-0.059,1.024-0.175,1.373c-0.117,0.348-0.291,0.617-0.522,0.807
			c-0.232,0.19-0.524,0.285-0.878,0.285c-0.466,0-0.832-0.167-1.098-0.501C67.201,171.472,67.042,170.817,67.042,169.91z
			 M67.651,169.91c0,0.793,0.093,1.321,0.279,1.584c0.186,0.262,0.415,0.394,0.687,0.394s0.501-0.132,0.688-0.396
			c0.186-0.264,0.278-0.791,0.278-1.582c0-0.796-0.093-1.324-0.278-1.586c-0.186-0.261-0.417-0.392-0.694-0.392
			c-0.272,0-0.49,0.115-0.653,0.346C67.754,168.573,67.651,169.117,67.651,169.91z"/>
	</g>
	<g>
		<path d="M37.439,172.292v-1.157h-2.096v-0.544l2.205-3.131h0.485v3.131h0.652v0.544h-0.652v1.157H37.439z M37.439,170.591v-2.178
			l-1.513,2.178H37.439z"/>
		<path d="M39.292,169.91c0-0.571,0.059-1.031,0.176-1.38c0.118-0.348,0.292-0.616,0.524-0.806c0.232-0.188,0.523-0.283,0.875-0.283
			c0.259,0,0.487,0.052,0.683,0.156c0.195,0.104,0.357,0.255,0.484,0.452c0.127,0.196,0.228,0.436,0.3,0.718
			c0.072,0.283,0.109,0.663,0.109,1.143c0,0.566-0.059,1.024-0.175,1.373c-0.117,0.348-0.291,0.617-0.522,0.807
			c-0.232,0.19-0.524,0.285-0.878,0.285c-0.466,0-0.832-0.167-1.098-0.501C39.451,171.472,39.292,170.817,39.292,169.91z
			 M39.901,169.91c0,0.793,0.093,1.321,0.279,1.584c0.186,0.262,0.415,0.394,0.687,0.394s0.501-0.132,0.688-0.396
			c0.186-0.264,0.278-0.791,0.278-1.582c0-0.796-0.093-1.324-0.278-1.586c-0.186-0.261-0.417-0.392-0.694-0.392
			c-0.272,0-0.49,0.115-0.653,0.346C40.004,168.573,39.901,169.117,39.901,169.91z"/>
	</g>
	<g>
		<path d="M7.791,171.017l0.594-0.079c0.068,0.336,0.184,0.578,0.348,0.727c0.164,0.148,0.363,0.223,0.598,0.223
			c0.279,0,0.515-0.097,0.707-0.29c0.192-0.193,0.288-0.433,0.288-0.719c0-0.272-0.089-0.497-0.267-0.674
			c-0.178-0.177-0.404-0.266-0.679-0.266c-0.112,0-0.251,0.022-0.418,0.066l0.066-0.521c0.04,0.005,0.071,0.007,0.096,0.007
			c0.252,0,0.48-0.065,0.682-0.197s0.303-0.335,0.303-0.61c0-0.217-0.074-0.397-0.221-0.54c-0.147-0.143-0.337-0.214-0.57-0.214
			c-0.231,0-0.423,0.072-0.577,0.217c-0.154,0.146-0.252,0.363-0.296,0.652l-0.593-0.105c0.072-0.397,0.237-0.705,0.494-0.924
			c0.257-0.219,0.577-0.328,0.959-0.328c0.264,0,0.506,0.057,0.728,0.17c0.222,0.113,0.392,0.268,0.509,0.463
			c0.118,0.195,0.176,0.403,0.176,0.623c0,0.209-0.056,0.398-0.168,0.57c-0.112,0.171-0.278,0.308-0.498,0.408
			c0.286,0.066,0.507,0.203,0.666,0.41c0.158,0.208,0.237,0.468,0.237,0.78c0,0.422-0.154,0.779-0.461,1.072
			c-0.308,0.294-0.697,0.44-1.167,0.44c-0.424,0-0.776-0.127-1.056-0.379C7.991,171.747,7.831,171.419,7.791,171.017z"/>
		<path d="M11.542,169.91c0-0.571,0.059-1.031,0.176-1.38c0.118-0.348,0.292-0.616,0.524-0.806c0.232-0.188,0.523-0.283,0.875-0.283
			c0.259,0,0.487,0.052,0.683,0.156c0.195,0.104,0.357,0.255,0.484,0.452c0.127,0.196,0.228,0.436,0.3,0.718
			c0.072,0.283,0.109,0.663,0.109,1.143c0,0.566-0.059,1.024-0.175,1.373c-0.117,0.348-0.291,0.617-0.522,0.807
			c-0.232,0.19-0.524,0.285-0.878,0.285c-0.466,0-0.832-0.167-1.098-0.501C11.701,171.472,11.542,170.817,11.542,169.91z
			 M12.151,169.91c0,0.793,0.093,1.321,0.279,1.584c0.186,0.262,0.415,0.394,0.687,0.394s0.501-0.132,0.688-0.396
			c0.186-0.264,0.278-0.791,0.278-1.582c0-0.796-0.093-1.324-0.278-1.586c-0.186-0.261-0.417-0.392-0.694-0.392
			c-0.272,0-0.49,0.115-0.653,0.346C12.254,168.573,12.151,169.117,12.151,169.91z"/>
	</g>
	
		<line fill="none" stroke="#000000" stroke-width="0.75" stroke-linecap="square" stroke-miterlimit="10" x1="12.758" y1="161.042" x2="12.758" y2="157.292"/>
	
		<line fill="none" stroke="#000000" stroke-width="0.75" stroke-linecap="square" stroke-miterlimit="10" x1="26.258" y1="159.542" x2="26.258" y2="157.292"/>
	
		<line fill="none" stroke="#000000" stroke-width="0.75" stroke-linecap="square" stroke-miterlimit="10" x1="39.758" y1="161.042" x2="39.758" y2="157.292"/>
	<path fill="none" stroke="#000000" stroke-width="0.75" stroke-linecap="square" stroke-miterlimit="10" d="M39.758,157.292
		L39.758,157.292z"/>
	
		<line fill="none" stroke="#7F7F7F" stroke-width="0.75" stroke-linecap="square" stroke-miterlimit="10" x1="39.758" y1="157.292" x2="39.758" y2="128.042"/>
	
		<line fill="none" stroke="#000000" stroke-width="0.75" stroke-linecap="square" stroke-miterlimit="10" x1="53.258" y1="159.542" x2="53.258" y2="157.292"/>
	
		<line fill="none" stroke="#000000" stroke-width="0.75" stroke-linecap="square" stroke-miterlimit="10" x1="67.508" y1="161.042" x2="67.508" y2="157.292"/>
	<path fill="none" stroke="#000000" stroke-width="0.75" stroke-linecap="square" stroke-miterlimit="10" d="M67.508,157.292
		L67.508,157.292z"/>
	
		<line fill="none" stroke="#7F7F7F" stroke-width="0.75" stroke-linecap="square" stroke-miterlimit="10" x1="67.508" y1="157.292" x2="67.508" y2="111.542"/>
	
		<line fill="none" stroke="#000000" stroke-width="0.75" stroke-linecap="square" stroke-miterlimit="10" x1="81.008" y1="159.542" x2="81.008" y2="157.292"/>
	
		<line fill="none" stroke="#000000" stroke-width="0.75" stroke-linecap="square" stroke-miterlimit="10" x1="95.258" y1="161.042" x2="95.258" y2="157.292"/>
	<path fill="none" stroke="#000000" stroke-width="0.75" stroke-linecap="square" stroke-miterlimit="10" d="M95.258,157.292
		L95.258,157.292z"/>
	
		<line fill="none" stroke="#7F7F7F" stroke-width="0.75" stroke-linecap="square" stroke-miterlimit="10" x1="95.258" y1="157.292" x2="95.258" y2="93.542"/>
	
		<line fill="none" stroke="#000000" stroke-width="0.75" stroke-linecap="square" stroke-miterlimit="10" x1="109.508" y1="159.542" x2="109.508" y2="157.292"/>
	
		<line fill="none" stroke="#000000" stroke-width="0.75" stroke-linecap="square" stroke-miterlimit="10" x1="123.008" y1="161.042" x2="123.008" y2="157.292"/>
	<path fill="none" stroke="#000000" stroke-width="0.75" stroke-linecap="square" stroke-miterlimit="10" d="M123.008,157.292
		L123.008,157.292z"/>
	
		<line fill="none" stroke="#7F7F7F" stroke-width="0.75" stroke-linecap="square" stroke-miterlimit="10" x1="123.008" y1="157.292" x2="123.008" y2="65.792"/>
	
		<line fill="none" stroke="#000000" stroke-width="0.75" stroke-linecap="square" stroke-miterlimit="10" x1="136.508" y1="159.542" x2="136.508" y2="157.292"/>
	
		<line fill="none" stroke="#000000" stroke-width="0.75" stroke-linecap="square" stroke-miterlimit="10" x1="150.758" y1="161.042" x2="150.758" y2="157.292"/>
	<path fill="none" stroke="#000000" stroke-width="0.75" stroke-linecap="square" stroke-miterlimit="10" d="M150.758,157.292
		L150.758,157.292z"/>
	
		<line fill="none" stroke="#7F7F7F" stroke-width="0.75" stroke-linecap="square" stroke-miterlimit="10" x1="150.758" y1="157.292" x2="150.758" y2="20.042"/>
	
		<line fill="none" stroke="#000000" stroke-width="0.75" stroke-linecap="square" stroke-miterlimit="10" x1="165.008" y1="159.542" x2="165.008" y2="157.292"/>
	
		<line fill="none" stroke="#000000" stroke-width="0.75" stroke-linecap="square" stroke-miterlimit="10" x1="177.758" y1="161.042" x2="177.758" y2="157.292"/>
	<path fill="none" stroke="#000000" stroke-width="0.75" stroke-linecap="square" stroke-miterlimit="10" d="M177.758,157.292
		L177.758,157.292z"/>
	
		<line fill="none" stroke="#7F7F7F" stroke-width="0.75" stroke-linecap="square" stroke-miterlimit="10" x1="177.758" y1="157.292" x2="177.758" y2="2.792"/>
	
		<line fill="none" stroke="#000000" stroke-width="0.75" stroke-linecap="square" stroke-miterlimit="10" x1="192.008" y1="159.542" x2="192.008" y2="157.292"/>
	
		<line fill="none" stroke="#000000" stroke-width="0.75" stroke-linecap="square" stroke-miterlimit="10" x1="205.508" y1="161.042" x2="205.508" y2="157.292"/>
	<path fill="none" stroke="#000000" stroke-width="0.75" stroke-linecap="square" stroke-miterlimit="10" d="M205.508,157.292
		L205.508,157.292z"/>
	
		<line fill="none" stroke="#7F7F7F" stroke-width="0.75" stroke-linecap="square" stroke-miterlimit="10" x1="205.508" y1="157.292" x2="205.508" y2="2.792"/>
	
		<line fill="none" stroke="#000000" stroke-width="0.75" stroke-linecap="square" stroke-miterlimit="10" x1="219.008" y1="159.542" x2="219.008" y2="157.292"/>
	
		<line fill="none" stroke="#000000" stroke-width="0.75" stroke-linecap="square" stroke-miterlimit="10" x1="232.508" y1="161.042" x2="232.508" y2="157.292"/>
	
		<line fill="none" stroke="#000000" stroke-width="0.75" stroke-linecap="square" stroke-miterlimit="10" x1="12.758" y1="157.292" x2="233.258" y2="157.292"/>
	<g>
		<path d="M242.538,157.91c0-0.571,0.059-1.031,0.176-1.38c0.118-0.348,0.293-0.616,0.524-0.806
			c0.231-0.188,0.523-0.283,0.875-0.283c0.26,0,0.486,0.052,0.683,0.156c0.195,0.104,0.356,0.255,0.484,0.452
			c0.127,0.196,0.228,0.436,0.3,0.718c0.072,0.283,0.108,0.663,0.108,1.143c0,0.566-0.058,1.024-0.175,1.373
			c-0.116,0.348-0.29,0.617-0.521,0.807c-0.232,0.19-0.525,0.285-0.879,0.285c-0.466,0-0.832-0.167-1.098-0.501
			C242.697,159.472,242.538,158.817,242.538,157.91z M243.147,157.91c0,0.793,0.093,1.321,0.278,1.584
			c0.187,0.262,0.415,0.394,0.688,0.394s0.502-0.132,0.688-0.396s0.278-0.791,0.278-1.582c0-0.796-0.093-1.324-0.278-1.586
			c-0.186-0.261-0.417-0.392-0.694-0.392c-0.272,0-0.489,0.115-0.652,0.346C243.25,156.573,243.147,157.117,243.147,157.91z"/>
	</g>
	<g>
		<path d="M246.406,142.472v0.57h-3.194c-0.004-0.143,0.019-0.28,0.069-0.412c0.081-0.218,0.212-0.432,0.391-0.643
			s0.438-0.455,0.776-0.731c0.525-0.431,0.88-0.772,1.064-1.023c0.185-0.252,0.276-0.489,0.276-0.714
			c0-0.235-0.084-0.434-0.252-0.595s-0.387-0.242-0.657-0.242c-0.286,0-0.515,0.086-0.686,0.257
			c-0.171,0.172-0.258,0.409-0.261,0.712l-0.609-0.063c0.042-0.455,0.199-0.802,0.472-1.04s0.638-0.357,1.097-0.357
			c0.464,0,0.831,0.129,1.102,0.386c0.27,0.257,0.405,0.575,0.405,0.956c0,0.193-0.04,0.383-0.119,0.57
			c-0.079,0.187-0.21,0.383-0.394,0.59c-0.184,0.206-0.488,0.489-0.914,0.85c-0.356,0.299-0.585,0.502-0.686,0.608
			c-0.102,0.106-0.186,0.214-0.251,0.321H246.406z"/>
		<path d="M247.042,140.66c0-0.571,0.059-1.031,0.176-1.38c0.118-0.348,0.293-0.616,0.524-0.806
			c0.231-0.188,0.523-0.283,0.875-0.283c0.26,0,0.486,0.052,0.683,0.156c0.195,0.104,0.356,0.255,0.484,0.452
			c0.127,0.196,0.228,0.436,0.3,0.718c0.072,0.283,0.108,0.663,0.108,1.143c0,0.566-0.058,1.024-0.175,1.373
			c-0.116,0.348-0.29,0.617-0.521,0.807c-0.232,0.19-0.525,0.285-0.879,0.285c-0.466,0-0.832-0.167-1.098-0.501
			C247.201,142.222,247.042,141.567,247.042,140.66z M247.651,140.66c0,0.793,0.093,1.321,0.278,1.584
			c0.187,0.262,0.415,0.394,0.688,0.394s0.502-0.132,0.688-0.396s0.278-0.791,0.278-1.582c0-0.796-0.093-1.324-0.278-1.586
			c-0.186-0.261-0.417-0.392-0.694-0.392c-0.272,0-0.489,0.115-0.652,0.346C247.754,139.323,247.651,139.867,247.651,140.66z"/>
	</g>
	<g>
		<path d="M245.189,125.792v-1.157h-2.096v-0.544l2.205-3.131h0.484v3.131h0.652v0.544h-0.652v1.157H245.189z M245.189,124.091
			v-2.178l-1.513,2.178H245.189z"/>
		<path d="M247.042,123.41c0-0.571,0.059-1.031,0.176-1.38c0.118-0.348,0.293-0.616,0.524-0.806
			c0.231-0.188,0.523-0.283,0.875-0.283c0.26,0,0.486,0.052,0.683,0.156c0.195,0.104,0.356,0.255,0.484,0.452
			c0.127,0.196,0.228,0.436,0.3,0.718c0.072,0.283,0.108,0.663,0.108,1.143c0,0.566-0.058,1.024-0.175,1.373
			c-0.116,0.348-0.29,0.617-0.521,0.807c-0.232,0.19-0.525,0.285-0.879,0.285c-0.466,0-0.832-0.167-1.098-0.501
			C247.201,124.972,247.042,124.317,247.042,123.41z M247.651,123.41c0,0.793,0.093,1.321,0.278,1.584
			c0.187,0.262,0.415,0.394,0.688,0.394s0.502-0.132,0.688-0.396s0.278-0.791,0.278-1.582c0-0.796-0.093-1.324-0.278-1.586
			c-0.186-0.261-0.417-0.392-0.694-0.392c-0.272,0-0.489,0.115-0.652,0.346C247.754,122.073,247.651,122.617,247.651,123.41z"/>
	</g>
	<g>
		<path d="M246.366,104.894l-0.59,0.046c-0.053-0.232-0.128-0.402-0.224-0.508c-0.161-0.169-0.358-0.253-0.594-0.253
			c-0.189,0-0.354,0.053-0.498,0.158c-0.187,0.136-0.334,0.335-0.441,0.596c-0.107,0.262-0.164,0.635-0.168,1.117
			c0.143-0.217,0.317-0.379,0.524-0.484c0.206-0.105,0.423-0.158,0.649-0.158c0.395,0,0.731,0.146,1.01,0.438
			c0.278,0.291,0.417,0.667,0.417,1.129c0,0.303-0.065,0.585-0.196,0.845c-0.131,0.261-0.311,0.46-0.539,0.599
			s-0.487,0.207-0.777,0.207c-0.494,0-0.897-0.182-1.21-0.545c-0.312-0.364-0.468-0.963-0.468-1.798
			c0-0.934,0.172-1.613,0.518-2.037c0.301-0.369,0.706-0.554,1.216-0.554c0.38,0,0.691,0.106,0.935,0.319
			C246.173,104.224,246.318,104.518,246.366,104.894z M243.943,106.977c0,0.204,0.044,0.399,0.131,0.587
			c0.087,0.187,0.208,0.329,0.364,0.427c0.155,0.098,0.319,0.146,0.491,0.146c0.25,0,0.466-0.102,0.646-0.304
			c0.181-0.202,0.271-0.477,0.271-0.823c0-0.334-0.089-0.598-0.268-0.79c-0.178-0.192-0.401-0.288-0.672-0.288
			c-0.269,0-0.495,0.096-0.683,0.288C244.037,106.413,243.943,106.665,243.943,106.977z"/>
		<path d="M247.042,106.16c0-0.571,0.059-1.031,0.176-1.38c0.118-0.348,0.293-0.616,0.524-0.806
			c0.231-0.188,0.523-0.283,0.875-0.283c0.26,0,0.486,0.052,0.683,0.156c0.195,0.104,0.356,0.255,0.484,0.452
			c0.127,0.196,0.228,0.436,0.3,0.718c0.072,0.283,0.108,0.663,0.108,1.143c0,0.566-0.058,1.024-0.175,1.373
			c-0.116,0.348-0.29,0.617-0.521,0.807c-0.232,0.19-0.525,0.285-0.879,0.285c-0.466,0-0.832-0.167-1.098-0.501
			C247.201,107.722,247.042,107.067,247.042,106.16z M247.651,106.16c0,0.793,0.093,1.321,0.278,1.584
			c0.187,0.262,0.415,0.394,0.688,0.394s0.502-0.132,0.688-0.396s0.278-0.791,0.278-1.582c0-0.796-0.093-1.324-0.278-1.586
			c-0.186-0.261-0.417-0.392-0.694-0.392c-0.272,0-0.489,0.115-0.652,0.346C247.754,104.823,247.651,105.367,247.651,106.16z"/>
	</g>
	<g>
		<path d="M244.201,88.665c-0.246-0.09-0.429-0.219-0.547-0.386c-0.119-0.167-0.179-0.367-0.179-0.6
			c0-0.352,0.127-0.647,0.379-0.887c0.253-0.24,0.589-0.359,1.009-0.359c0.422,0,0.762,0.123,1.019,0.368
			c0.257,0.245,0.386,0.543,0.386,0.895c0,0.224-0.059,0.419-0.177,0.585c-0.117,0.166-0.296,0.294-0.535,0.384
			c0.297,0.097,0.522,0.252,0.677,0.468c0.155,0.215,0.232,0.473,0.232,0.771c0,0.413-0.146,0.76-0.438,1.042
			c-0.293,0.281-0.678,0.422-1.154,0.422s-0.861-0.141-1.153-0.424c-0.292-0.282-0.438-0.634-0.438-1.056
			c0-0.314,0.08-0.577,0.239-0.79C243.68,88.886,243.906,88.741,244.201,88.665z M243.891,89.891c0,0.169,0.041,0.333,0.121,0.491
			s0.199,0.281,0.357,0.368s0.328,0.13,0.511,0.13c0.283,0,0.518-0.091,0.702-0.273c0.185-0.183,0.276-0.415,0.276-0.696
			c0-0.286-0.095-0.521-0.285-0.708c-0.189-0.187-0.428-0.28-0.713-0.28c-0.279,0-0.511,0.092-0.694,0.277
			S243.891,89.614,243.891,89.891z M244.082,87.659c0,0.229,0.074,0.416,0.221,0.56c0.147,0.146,0.339,0.218,0.574,0.218
			c0.229,0,0.415-0.072,0.562-0.216s0.22-0.32,0.22-0.529c0-0.217-0.076-0.4-0.227-0.548c-0.15-0.148-0.338-0.223-0.562-0.223
			c-0.227,0-0.414,0.073-0.563,0.217C244.157,87.284,244.082,87.457,244.082,87.659z"/>
		<path d="M247.042,88.902c0-0.571,0.059-1.031,0.176-1.379c0.118-0.348,0.293-0.617,0.524-0.806
			c0.231-0.188,0.523-0.283,0.875-0.283c0.26,0,0.486,0.052,0.683,0.157c0.195,0.104,0.356,0.255,0.484,0.451
			c0.127,0.197,0.228,0.437,0.3,0.719s0.108,0.663,0.108,1.142c0,0.567-0.058,1.024-0.175,1.373
			c-0.116,0.348-0.29,0.618-0.521,0.808c-0.232,0.19-0.525,0.285-0.879,0.285c-0.466,0-0.832-0.167-1.098-0.501
			C247.201,90.464,247.042,89.809,247.042,88.902z M247.651,88.902c0,0.793,0.093,1.321,0.278,1.583
			c0.187,0.263,0.415,0.394,0.688,0.394s0.502-0.132,0.688-0.396s0.278-0.791,0.278-1.582c0-0.795-0.093-1.324-0.278-1.585
			c-0.186-0.261-0.417-0.392-0.694-0.392c-0.272,0-0.489,0.115-0.652,0.346C247.754,87.565,247.651,88.108,247.651,88.902z"/>
	</g>
	<g>
		<path d="M246.272,74.042h-0.593v-3.78c-0.144,0.136-0.33,0.272-0.563,0.409c-0.231,0.136-0.439,0.238-0.624,0.306v-0.573
			c0.331-0.156,0.621-0.345,0.87-0.567c0.248-0.222,0.424-0.437,0.527-0.646h0.382V74.042z"/>
		<path d="M247.792,71.66c0-0.571,0.059-1.031,0.176-1.379c0.118-0.348,0.293-0.617,0.524-0.806
			c0.231-0.188,0.523-0.283,0.875-0.283c0.26,0,0.486,0.052,0.683,0.157c0.195,0.104,0.356,0.255,0.484,0.451
			c0.127,0.197,0.228,0.437,0.3,0.719s0.108,0.663,0.108,1.142c0,0.567-0.058,1.024-0.175,1.373
			c-0.116,0.348-0.29,0.618-0.521,0.808c-0.232,0.19-0.525,0.285-0.879,0.285c-0.466,0-0.832-0.167-1.098-0.501
			C247.951,73.222,247.792,72.567,247.792,71.66z M248.401,71.66c0,0.793,0.093,1.321,0.278,1.583
			c0.187,0.263,0.415,0.394,0.688,0.394s0.502-0.132,0.688-0.396s0.278-0.791,0.278-1.582c0-0.795-0.093-1.324-0.278-1.585
			c-0.186-0.261-0.417-0.392-0.694-0.392c-0.272,0-0.489,0.115-0.652,0.346C248.504,70.323,248.401,70.866,248.401,71.66z"/>
		<path d="M251.546,71.66c0-0.571,0.059-1.031,0.176-1.379c0.118-0.348,0.293-0.617,0.524-0.806
			c0.231-0.188,0.523-0.283,0.875-0.283c0.26,0,0.486,0.052,0.683,0.157c0.195,0.104,0.356,0.255,0.484,0.451
			c0.127,0.197,0.228,0.437,0.3,0.719s0.108,0.663,0.108,1.142c0,0.567-0.058,1.024-0.175,1.373
			c-0.116,0.348-0.29,0.618-0.521,0.808c-0.232,0.19-0.525,0.285-0.879,0.285c-0.466,0-0.832-0.167-1.098-0.501
			C251.705,73.222,251.546,72.567,251.546,71.66z M252.155,71.66c0,0.793,0.093,1.321,0.278,1.583
			c0.187,0.263,0.415,0.394,0.688,0.394s0.502-0.132,0.688-0.396s0.278-0.791,0.278-1.582c0-0.795-0.093-1.324-0.278-1.585
			c-0.186-0.261-0.417-0.392-0.694-0.392c-0.272,0-0.489,0.115-0.652,0.346C252.258,70.323,252.155,70.866,252.155,71.66z"/>
	</g>
	<g>
		<path d="M246.272,57.535h-0.593v-3.78c-0.144,0.136-0.33,0.272-0.563,0.409c-0.231,0.136-0.439,0.238-0.624,0.306v-0.573
			c0.331-0.156,0.621-0.345,0.87-0.567c0.248-0.222,0.424-0.437,0.527-0.646h0.382V57.535z"/>
		<path d="M250.91,56.964v0.57h-3.194c-0.004-0.143,0.019-0.28,0.069-0.412c0.081-0.217,0.212-0.432,0.391-0.643
			s0.438-0.455,0.776-0.731c0.525-0.431,0.88-0.772,1.064-1.023c0.185-0.252,0.276-0.49,0.276-0.714
			c0-0.235-0.084-0.433-0.252-0.595s-0.387-0.242-0.657-0.242c-0.286,0-0.515,0.085-0.686,0.257s-0.258,0.409-0.261,0.712
			l-0.609-0.063c0.042-0.455,0.199-0.801,0.472-1.04c0.272-0.238,0.638-0.357,1.097-0.357c0.464,0,0.831,0.128,1.102,0.386
			c0.27,0.257,0.405,0.576,0.405,0.956c0,0.193-0.04,0.384-0.119,0.57c-0.079,0.187-0.21,0.383-0.394,0.59s-0.488,0.49-0.914,0.851
			c-0.356,0.299-0.585,0.501-0.686,0.608c-0.102,0.106-0.186,0.214-0.251,0.321H250.91z"/>
		<path d="M251.546,55.152c0-0.571,0.059-1.031,0.176-1.379c0.118-0.348,0.293-0.617,0.524-0.806
			c0.231-0.188,0.523-0.283,0.875-0.283c0.26,0,0.486,0.052,0.683,0.157c0.195,0.104,0.356,0.255,0.484,0.451
			c0.127,0.197,0.228,0.437,0.3,0.719s0.108,0.663,0.108,1.142c0,0.567-0.058,1.024-0.175,1.373
			c-0.116,0.348-0.29,0.618-0.521,0.808c-0.232,0.19-0.525,0.285-0.879,0.285c-0.466,0-0.832-0.167-1.098-0.501
			C251.705,56.714,251.546,56.059,251.546,55.152z M252.155,55.152c0,0.793,0.093,1.321,0.278,1.583
			c0.187,0.263,0.415,0.394,0.688,0.394s0.502-0.132,0.688-0.396s0.278-0.791,0.278-1.582c0-0.795-0.093-1.324-0.278-1.585
			c-0.186-0.261-0.417-0.392-0.694-0.392c-0.272,0-0.489,0.115-0.652,0.346C252.258,53.815,252.155,54.358,252.155,55.152z"/>
	</g>
	<g>
		<path d="M246.272,40.292h-0.593v-3.78c-0.144,0.136-0.33,0.272-0.563,0.409c-0.231,0.136-0.439,0.238-0.624,0.306v-0.573
			c0.331-0.156,0.621-0.345,0.87-0.567c0.248-0.222,0.424-0.437,0.527-0.646h0.382V40.292z"/>
		<path d="M249.693,40.292v-1.157h-2.096v-0.544l2.205-3.131h0.484v3.131h0.652v0.544h-0.652v1.157H249.693z M249.693,38.592v-2.179
			l-1.513,2.179H249.693z"/>
		<path d="M251.546,37.91c0-0.571,0.059-1.031,0.176-1.379c0.118-0.348,0.293-0.617,0.524-0.806
			c0.231-0.188,0.523-0.283,0.875-0.283c0.26,0,0.486,0.052,0.683,0.157c0.195,0.104,0.356,0.255,0.484,0.451
			c0.127,0.197,0.228,0.437,0.3,0.719s0.108,0.663,0.108,1.142c0,0.567-0.058,1.024-0.175,1.373
			c-0.116,0.348-0.29,0.618-0.521,0.808c-0.232,0.19-0.525,0.285-0.879,0.285c-0.466,0-0.832-0.167-1.098-0.501
			C251.705,39.472,251.546,38.817,251.546,37.91z M252.155,37.91c0,0.793,0.093,1.321,0.278,1.583
			c0.187,0.263,0.415,0.394,0.688,0.394s0.502-0.132,0.688-0.396s0.278-0.791,0.278-1.582c0-0.795-0.093-1.324-0.278-1.585
			c-0.186-0.261-0.417-0.392-0.694-0.392c-0.272,0-0.489,0.115-0.652,0.346C252.258,36.573,252.155,37.116,252.155,37.91z"/>
	</g>
	<g>
		<path d="M246.272,23.042h-0.593v-3.78c-0.144,0.136-0.33,0.272-0.563,0.409c-0.231,0.136-0.439,0.238-0.624,0.306v-0.573
			c0.331-0.156,0.621-0.345,0.87-0.567c0.248-0.222,0.424-0.437,0.527-0.646h0.382V23.042z"/>
		<path d="M250.87,19.394l-0.59,0.046c-0.053-0.233-0.128-0.402-0.224-0.507c-0.161-0.169-0.358-0.254-0.594-0.254
			c-0.189,0-0.354,0.053-0.498,0.158c-0.187,0.136-0.334,0.335-0.441,0.597c-0.107,0.261-0.164,0.634-0.168,1.117
			c0.143-0.217,0.317-0.379,0.524-0.484c0.206-0.105,0.423-0.158,0.649-0.158c0.395,0,0.731,0.146,1.01,0.437
			s0.417,0.667,0.417,1.129c0,0.303-0.065,0.585-0.196,0.845c-0.131,0.261-0.311,0.46-0.539,0.599
			c-0.229,0.138-0.487,0.208-0.777,0.208c-0.494,0-0.897-0.182-1.21-0.545c-0.312-0.364-0.468-0.963-0.468-1.798
			c0-0.934,0.172-1.613,0.518-2.037c0.301-0.369,0.706-0.554,1.216-0.554c0.38,0,0.691,0.106,0.935,0.32
			C250.677,18.724,250.822,19.018,250.87,19.394z M248.447,21.477c0,0.204,0.044,0.4,0.131,0.586
			c0.087,0.187,0.208,0.329,0.364,0.427c0.155,0.098,0.319,0.147,0.491,0.147c0.25,0,0.466-0.101,0.646-0.303
			c0.181-0.202,0.271-0.477,0.271-0.824c0-0.334-0.089-0.597-0.268-0.789c-0.178-0.192-0.401-0.289-0.672-0.289
			c-0.269,0-0.495,0.096-0.683,0.289C248.541,20.913,248.447,21.165,248.447,21.477z"/>
		<path d="M251.546,20.66c0-0.571,0.059-1.031,0.176-1.379c0.118-0.348,0.293-0.617,0.524-0.806
			c0.231-0.188,0.523-0.283,0.875-0.283c0.26,0,0.486,0.052,0.683,0.157c0.195,0.104,0.356,0.255,0.484,0.451
			c0.127,0.197,0.228,0.437,0.3,0.719s0.108,0.663,0.108,1.142c0,0.567-0.058,1.024-0.175,1.373
			c-0.116,0.348-0.29,0.618-0.521,0.808c-0.232,0.19-0.525,0.285-0.879,0.285c-0.466,0-0.832-0.167-1.098-0.501
			C251.705,22.222,251.546,21.567,251.546,20.66z M252.155,20.66c0,0.793,0.093,1.321,0.278,1.583
			c0.187,0.263,0.415,0.394,0.688,0.394s0.502-0.132,0.688-0.396s0.278-0.791,0.278-1.582c0-0.795-0.093-1.324-0.278-1.585
			c-0.186-0.261-0.417-0.392-0.694-0.392c-0.272,0-0.489,0.115-0.652,0.346C252.258,19.323,252.155,19.866,252.155,20.66z"/>
	</g>
	<g>
		<path d="M246.272,5.792h-0.593v-3.78c-0.144,0.136-0.33,0.272-0.563,0.409c-0.231,0.136-0.439,0.238-0.624,0.306V2.154
			c0.331-0.156,0.621-0.345,0.87-0.567c0.248-0.222,0.424-0.437,0.527-0.646h0.382V5.792z"/>
		<path d="M248.705,3.172c-0.246-0.09-0.429-0.219-0.547-0.386c-0.119-0.167-0.179-0.367-0.179-0.6c0-0.352,0.127-0.647,0.379-0.887
			c0.253-0.24,0.589-0.359,1.009-0.359c0.422,0,0.762,0.123,1.019,0.368c0.257,0.245,0.386,0.543,0.386,0.895
			c0,0.224-0.059,0.419-0.177,0.585c-0.117,0.166-0.296,0.294-0.535,0.384c0.297,0.097,0.522,0.252,0.677,0.468
			c0.155,0.215,0.232,0.473,0.232,0.771c0,0.413-0.146,0.76-0.438,1.042c-0.293,0.281-0.678,0.422-1.154,0.422
			s-0.861-0.141-1.153-0.424c-0.292-0.282-0.438-0.634-0.438-1.056c0-0.314,0.08-0.577,0.239-0.79
			C248.184,3.394,248.41,3.249,248.705,3.172z M248.395,4.398c0,0.169,0.041,0.333,0.121,0.491s0.199,0.281,0.357,0.368
			s0.328,0.13,0.511,0.13c0.283,0,0.518-0.091,0.702-0.273c0.185-0.183,0.276-0.415,0.276-0.696c0-0.286-0.095-0.521-0.285-0.708
			c-0.189-0.187-0.428-0.28-0.713-0.28c-0.279,0-0.511,0.092-0.694,0.277S248.395,4.122,248.395,4.398z M248.586,2.167
			c0,0.229,0.074,0.416,0.221,0.56c0.147,0.146,0.339,0.218,0.574,0.218c0.229,0,0.415-0.072,0.562-0.216s0.22-0.32,0.22-0.529
			c0-0.217-0.076-0.4-0.227-0.548c-0.15-0.148-0.338-0.223-0.562-0.223c-0.227,0-0.414,0.073-0.563,0.217
			C248.661,1.792,248.586,1.965,248.586,2.167z"/>
		<path d="M251.546,3.41c0-0.571,0.059-1.031,0.176-1.379c0.118-0.348,0.293-0.617,0.524-0.806c0.231-0.188,0.523-0.283,0.875-0.283
			c0.26,0,0.486,0.052,0.683,0.157c0.195,0.104,0.356,0.255,0.484,0.451c0.127,0.197,0.228,0.437,0.3,0.719s0.108,0.663,0.108,1.142
			c0,0.567-0.058,1.024-0.175,1.373C254.405,5.13,254.231,5.4,254,5.59c-0.232,0.19-0.525,0.285-0.879,0.285
			c-0.466,0-0.832-0.167-1.098-0.501C251.705,4.972,251.546,4.317,251.546,3.41z M252.155,3.41c0,0.793,0.093,1.321,0.278,1.583
			c0.187,0.263,0.415,0.394,0.688,0.394s0.502-0.132,0.688-0.396s0.278-0.791,0.278-1.582c0-0.795-0.093-1.324-0.278-1.585
			c-0.186-0.261-0.417-0.392-0.694-0.392c-0.272,0-0.489,0.115-0.652,0.346C252.258,2.073,252.155,2.616,252.155,3.41z"/>
	</g>
	
		<line fill="none" stroke="#000000" stroke-width="0.75" stroke-linecap="square" stroke-miterlimit="10" x1="232.508" y1="157.292" x2="237.008" y2="157.292"/>
	
		<line fill="none" stroke="#000000" stroke-width="0.75" stroke-linecap="square" stroke-miterlimit="10" x1="232.508" y1="149.042" x2="234.758" y2="149.042"/>
	
		<line fill="none" stroke="#000000" stroke-width="0.75" stroke-linecap="square" stroke-miterlimit="10" x1="232.508" y1="140.042" x2="237.008" y2="140.042"/>
	<path fill="none" stroke="#000000" stroke-width="0.75" stroke-linecap="square" stroke-miterlimit="10" d="M12.758,140.042
		L12.758,140.042z"/>
	
		<line fill="none" stroke="#7F7F7F" stroke-width="0.75" stroke-linecap="square" stroke-miterlimit="10" x1="12.758" y1="140.042" x2="233.258" y2="140.042"/>
	
		<line fill="none" stroke="#000000" stroke-width="0.75" stroke-linecap="square" stroke-miterlimit="10" x1="232.508" y1="131.042" x2="234.758" y2="131.042"/>
	
		<line fill="none" stroke="#000000" stroke-width="0.75" stroke-linecap="square" stroke-miterlimit="10" x1="232.508" y1="122.792" x2="237.008" y2="122.792"/>
	
		<line fill="none" stroke="#7F7F7F" stroke-width="0.75" stroke-linecap="square" stroke-miterlimit="10" x1="49.508" y1="122.792" x2="233.258" y2="122.792"/>
	
		<line fill="none" stroke="#000000" stroke-width="0.75" stroke-linecap="square" stroke-miterlimit="10" x1="232.508" y1="114.542" x2="234.758" y2="114.542"/>
	
		<line fill="none" stroke="#000000" stroke-width="0.75" stroke-linecap="square" stroke-miterlimit="10" x1="232.508" y1="105.542" x2="237.008" y2="105.542"/>
	
		<line fill="none" stroke="#7F7F7F" stroke-width="0.75" stroke-linecap="square" stroke-miterlimit="10" x1="77.258" y1="105.542" x2="233.258" y2="105.542"/>
	
		<line fill="none" stroke="#000000" stroke-width="0.75" stroke-linecap="square" stroke-miterlimit="10" x1="232.508" y1="96.542" x2="234.758" y2="96.542"/>
	
		<line fill="none" stroke="#000000" stroke-width="0.75" stroke-linecap="square" stroke-miterlimit="10" x1="232.508" y1="88.292" x2="237.008" y2="88.292"/>
	
		<line fill="none" stroke="#7F7F7F" stroke-width="0.75" stroke-linecap="square" stroke-miterlimit="10" x1="99.758" y1="88.292" x2="233.258" y2="88.292"/>
	
		<line fill="none" stroke="#000000" stroke-width="0.75" stroke-linecap="square" stroke-miterlimit="10" x1="232.508" y1="80.042" x2="234.758" y2="80.042"/>
	
		<line fill="none" stroke="#000000" stroke-width="0.75" stroke-linecap="square" stroke-miterlimit="10" x1="232.508" y1="71.042" x2="237.008" y2="71.042"/>
	
		<line fill="none" stroke="#7F7F7F" stroke-width="0.75" stroke-linecap="square" stroke-miterlimit="10" x1="117.008" y1="71.042" x2="233.258" y2="71.042"/>
	
		<line fill="none" stroke="#000000" stroke-width="0.75" stroke-linecap="square" stroke-miterlimit="10" x1="232.508" y1="62.042" x2="234.758" y2="62.042"/>
	
		<line fill="none" stroke="#000000" stroke-width="0.75" stroke-linecap="square" stroke-miterlimit="10" x1="232.508" y1="53.792" x2="237.008" y2="53.792"/>
	
		<line fill="none" stroke="#7F7F7F" stroke-width="0.75" stroke-linecap="square" stroke-miterlimit="10" x1="130.508" y1="53.792" x2="233.258" y2="53.792"/>
	
		<line fill="none" stroke="#000000" stroke-width="0.75" stroke-linecap="square" stroke-miterlimit="10" x1="232.508" y1="46.292" x2="234.758" y2="46.292"/>
	
		<line fill="none" stroke="#000000" stroke-width="0.75" stroke-linecap="square" stroke-miterlimit="10" x1="232.508" y1="37.292" x2="237.008" y2="37.292"/>
	
		<line fill="none" stroke="#7F7F7F" stroke-width="0.75" stroke-linecap="square" stroke-miterlimit="10" x1="141.008" y1="37.292" x2="233.258" y2="37.292"/>
	
		<line fill="none" stroke="#000000" stroke-width="0.75" stroke-linecap="square" stroke-miterlimit="10" x1="232.508" y1="28.292" x2="234.758" y2="28.292"/>
	
		<line fill="none" stroke="#000000" stroke-width="0.75" stroke-linecap="square" stroke-miterlimit="10" x1="232.508" y1="20.042" x2="237.008" y2="20.042"/>
	
		<line fill="none" stroke="#7F7F7F" stroke-width="0.75" stroke-linecap="square" stroke-miterlimit="10" x1="150.758" y1="20.042" x2="233.258" y2="20.042"/>
	
		<line fill="none" stroke="#000000" stroke-width="0.75" stroke-linecap="square" stroke-miterlimit="10" x1="232.508" y1="11.792" x2="234.758" y2="11.792"/>
	
		<line fill="none" stroke="#000000" stroke-width="0.75" stroke-linecap="square" stroke-miterlimit="10" x1="232.508" y1="2.792" x2="237.008" y2="2.792"/>
	<path fill="none" stroke="#000000" stroke-width="0.75" stroke-linecap="square" stroke-miterlimit="10" d="M232.508,157.292
		L232.508,157.292z"/>
	
		<line fill="none" stroke="#000000" stroke-width="0.75" stroke-linecap="square" stroke-miterlimit="10" x1="232.508" y1="157.292" x2="232.508" y2="2.792"/>
	
		<line fill="none" stroke="#000000" stroke-width="0.75" stroke-linecap="square" stroke-miterlimit="10" x1="12.008" y1="138.542" x2="39.008" y2="128.042"/>
	
		<line fill="none" stroke="#000000" stroke-width="0.75" stroke-linecap="square" stroke-miterlimit="10" x1="39.008" y1="128.042" x2="66.758" y2="111.542"/>
	
		<line fill="none" stroke="#000000" stroke-width="0.75" stroke-linecap="square" stroke-miterlimit="10" x1="67.508" y1="111.542" x2="94.508" y2="92.792"/>
	
		<line fill="none" stroke="#000000" stroke-width="0.75" stroke-linecap="square" stroke-miterlimit="10" x1="94.508" y1="92.792" x2="123.008" y2="65.042"/>
	
		<line fill="none" stroke="#000000" stroke-width="0.75" stroke-linecap="square" stroke-miterlimit="10" x1="123.008" y1="65.042" x2="150.008" y2="20.042"/>
	
		<line fill="none" stroke="#000000" stroke-width="0.75" stroke-linecap="square" stroke-miterlimit="10" x1="150.008" y1="20.042" x2="155.258" y2="2.792"/>
	
		<line fill="none" stroke="#000000" stroke-width="0.75" stroke-linecap="square" stroke-miterlimit="10" x1="12.008" y1="138.542" x2="12.008" y2="156.542"/>
	
		<line fill="none" stroke="#000000" stroke-width="0.75" stroke-linecap="square" stroke-miterlimit="10" x1="12.758" y1="138.542" x2="45.758" y2="157.292"/>
	
		<line fill="none" stroke="#000000" stroke-width="0.75" stroke-linecap="square" stroke-miterlimit="10" x1="39.008" y1="128.042" x2="93.008" y2="157.292"/>
	
		<line fill="none" stroke="#000000" stroke-width="0.75" stroke-linecap="square" stroke-miterlimit="10" x1="155.258" y1="2.792" x2="233.258" y2="2.792"/>
	
		<line fill="none" stroke="#000000" stroke-width="0.75" stroke-linecap="square" stroke-miterlimit="10" x1="67.508" y1="111.542" x2="152.258" y2="157.292"/>
	
		<line fill="none" stroke="#000000" stroke-width="0.75" stroke-linecap="square" stroke-miterlimit="10" x1="95.258" y1="92.042" x2="219.758" y2="157.292"/>
	
		<line fill="none" stroke="#000000" stroke-width="0.75" stroke-linecap="square" stroke-miterlimit="10" x1="123.008" y1="65.792" x2="232.508" y2="119.792"/>
	
		<line fill="none" stroke="#000000" stroke-width="0.75" stroke-linecap="square" stroke-miterlimit="10" x1="150.008" y1="19.292" x2="232.508" y2="58.292"/>
	<g>
		<path d="M137.076,17.124c-0.274-0.1-0.477-0.243-0.608-0.429s-0.198-0.408-0.198-0.667c0-0.391,0.141-0.719,0.422-0.985
			c0.28-0.266,0.654-0.399,1.12-0.399c0.469,0,0.847,0.136,1.132,0.408c0.285,0.272,0.429,0.604,0.429,0.994
			c0,0.249-0.065,0.466-0.196,0.65c-0.131,0.184-0.329,0.327-0.595,0.427c0.329,0.107,0.58,0.281,0.752,0.52
			c0.173,0.24,0.259,0.525,0.259,0.857c0,0.459-0.163,0.845-0.487,1.157c-0.325,0.313-0.752,0.469-1.282,0.469
			c-0.529,0-0.957-0.157-1.281-0.471c-0.325-0.314-0.487-0.705-0.487-1.174c0-0.349,0.089-0.642,0.266-0.877
			C136.496,17.369,136.748,17.209,137.076,17.124z M136.731,18.486c0,0.188,0.045,0.37,0.134,0.545s0.222,0.312,0.397,0.408
			c0.176,0.097,0.364,0.145,0.567,0.145c0.314,0,0.575-0.102,0.78-0.304s0.308-0.46,0.308-0.773c0-0.317-0.105-0.58-0.317-0.787
			c-0.211-0.208-0.476-0.312-0.792-0.312c-0.311,0-0.567,0.103-0.771,0.308S136.731,18.178,136.731,18.486z M136.943,16.006
			c0,0.254,0.082,0.461,0.246,0.623c0.163,0.161,0.376,0.242,0.637,0.242c0.254,0,0.462-0.08,0.625-0.24
			c0.162-0.16,0.243-0.356,0.243-0.588c0-0.242-0.084-0.445-0.251-0.61c-0.167-0.165-0.375-0.247-0.624-0.247
			c-0.252,0-0.461,0.081-0.626,0.242C137.026,15.589,136.943,15.782,136.943,16.006z"/>
		<path d="M140.232,17.387c0-0.635,0.065-1.146,0.195-1.533c0.131-0.387,0.325-0.686,0.583-0.896
			c0.257-0.21,0.581-0.315,0.972-0.315c0.288,0,0.541,0.058,0.759,0.174c0.217,0.116,0.396,0.283,0.538,0.502
			c0.142,0.218,0.253,0.484,0.333,0.798c0.08,0.313,0.121,0.737,0.121,1.269c0,0.63-0.065,1.138-0.194,1.525
			c-0.13,0.387-0.323,0.686-0.58,0.897c-0.258,0.211-0.583,0.317-0.977,0.317c-0.518,0-0.924-0.186-1.22-0.557
			C140.409,19.123,140.232,18.396,140.232,17.387z M140.909,17.387c0,0.881,0.104,1.468,0.31,1.759
			c0.207,0.292,0.461,0.438,0.764,0.438s0.558-0.146,0.764-0.439s0.31-0.879,0.31-1.758c0-0.884-0.104-1.471-0.31-1.762
			s-0.463-0.436-0.771-0.436c-0.303,0-0.545,0.128-0.726,0.384C141.023,15.901,140.909,16.506,140.909,17.387z"/>
	</g>
	<g>
		<path d="M109.105,59.619v-0.633h3.475v0.513c-0.342,0.364-0.681,0.847-1.016,1.45c-0.336,0.603-0.595,1.223-0.778,1.86
			c-0.132,0.449-0.216,0.941-0.253,1.476h-0.677c0.007-0.422,0.09-0.933,0.249-1.531s0.386-1.175,0.683-1.73
			c0.296-0.555,0.612-1.023,0.946-1.404H109.105z"/>
		<path d="M113.232,61.637c0-0.635,0.065-1.146,0.196-1.533c0.13-0.387,0.325-0.686,0.582-0.896c0.258-0.21,0.582-0.315,0.972-0.315
			c0.288,0,0.541,0.058,0.758,0.174c0.217,0.116,0.396,0.283,0.539,0.502c0.141,0.218,0.252,0.484,0.333,0.798
			c0.081,0.313,0.121,0.737,0.121,1.269c0,0.63-0.065,1.138-0.194,1.525c-0.129,0.387-0.323,0.686-0.581,0.897
			c-0.257,0.211-0.583,0.317-0.976,0.317c-0.518,0-0.924-0.186-1.219-0.557C113.409,63.373,113.232,62.646,113.232,61.637z
			 M113.91,61.637c0,0.881,0.103,1.468,0.31,1.759c0.206,0.292,0.46,0.438,0.763,0.438s0.558-0.146,0.764-0.439
			c0.207-0.293,0.31-0.879,0.31-1.758c0-0.884-0.103-1.471-0.31-1.762c-0.206-0.291-0.463-0.436-0.771-0.436
			c-0.303,0-0.545,0.128-0.726,0.384C114.023,60.151,113.91,60.756,113.91,61.637z"/>
	</g>
	<g>
		<path d="M83.981,86.481l-0.655,0.051c-0.059-0.258-0.142-0.446-0.249-0.563c-0.178-0.188-0.398-0.282-0.659-0.282
			c-0.21,0-0.395,0.059-0.553,0.176c-0.208,0.151-0.372,0.373-0.491,0.663s-0.182,0.704-0.187,1.241
			c0.159-0.242,0.353-0.421,0.582-0.538s0.47-0.176,0.722-0.176c0.439,0,0.813,0.162,1.123,0.485
			c0.309,0.324,0.463,0.742,0.463,1.254c0,0.337-0.073,0.65-0.218,0.939c-0.145,0.289-0.345,0.511-0.599,0.665
			s-0.542,0.231-0.864,0.231c-0.549,0-0.998-0.202-1.344-0.606c-0.347-0.404-0.52-1.07-0.52-1.998c0-1.038,0.191-1.792,0.575-2.263
			c0.334-0.41,0.785-0.615,1.351-0.615c0.422,0,0.769,0.119,1.039,0.355C83.766,85.736,83.928,86.063,83.981,86.481z M81.29,88.795
			c0,0.227,0.048,0.444,0.145,0.651c0.097,0.208,0.231,0.366,0.405,0.475c0.173,0.108,0.355,0.163,0.545,0.163
			c0.278,0,0.518-0.112,0.718-0.337s0.301-0.53,0.301-0.916c0-0.371-0.099-0.663-0.297-0.877c-0.198-0.213-0.447-0.32-0.747-0.32
			c-0.298,0-0.551,0.107-0.758,0.32C81.394,88.168,81.29,88.449,81.29,88.795z"/>
		<path d="M84.732,87.887c0-0.635,0.065-1.146,0.196-1.533c0.13-0.387,0.325-0.686,0.582-0.896c0.258-0.21,0.582-0.315,0.972-0.315
			c0.288,0,0.541,0.058,0.758,0.174c0.217,0.116,0.396,0.283,0.539,0.502c0.141,0.218,0.252,0.484,0.333,0.798
			c0.081,0.313,0.121,0.737,0.121,1.269c0,0.63-0.065,1.138-0.194,1.525c-0.129,0.387-0.323,0.686-0.581,0.897
			c-0.257,0.211-0.583,0.317-0.976,0.317c-0.518,0-0.924-0.186-1.219-0.557C84.909,89.623,84.732,88.896,84.732,87.887z
			 M85.41,87.887c0,0.881,0.103,1.468,0.31,1.759c0.206,0.292,0.46,0.438,0.763,0.438s0.558-0.146,0.764-0.439
			c0.207-0.293,0.31-0.879,0.31-1.758c0-0.884-0.103-1.471-0.31-1.762c-0.206-0.291-0.463-0.436-0.771-0.436
			c-0.303,0-0.545,0.128-0.726,0.384C85.523,86.401,85.41,87.006,85.41,87.887z"/>
	</g>
	<g>
		<path d="M52.812,108.628l0.692-0.059c0.051,0.337,0.17,0.59,0.357,0.76c0.187,0.17,0.412,0.255,0.676,0.255
			c0.317,0,0.586-0.12,0.806-0.359s0.33-0.557,0.33-0.952c0-0.376-0.105-0.672-0.317-0.89c-0.211-0.217-0.488-0.326-0.829-0.326
			c-0.213,0-0.404,0.049-0.575,0.145c-0.171,0.097-0.305,0.222-0.403,0.376l-0.619-0.081l0.52-2.757h2.67v0.629h-2.143l-0.289,1.443
			c0.322-0.225,0.66-0.337,1.015-0.337c0.469,0,0.864,0.162,1.187,0.487c0.322,0.324,0.483,0.742,0.483,1.252
			c0,0.486-0.142,0.906-0.425,1.26c-0.345,0.435-0.814,0.652-1.41,0.652c-0.488,0-0.887-0.137-1.196-0.41
			C53.032,109.443,52.855,109.081,52.812,108.628z"/>
		<path d="M56.982,107.387c0-0.635,0.065-1.146,0.196-1.533c0.13-0.387,0.325-0.685,0.582-0.896
			c0.258-0.209,0.582-0.314,0.972-0.314c0.288,0,0.541,0.058,0.758,0.174s0.396,0.283,0.539,0.502
			c0.141,0.219,0.252,0.484,0.333,0.798c0.081,0.314,0.121,0.737,0.121,1.27c0,0.63-0.065,1.138-0.194,1.525
			c-0.129,0.387-0.323,0.686-0.581,0.896c-0.257,0.212-0.583,0.317-0.976,0.317c-0.518,0-0.924-0.186-1.219-0.557
			C57.159,109.123,56.982,108.395,56.982,107.387z M57.66,107.387c0,0.881,0.103,1.468,0.31,1.76
			c0.206,0.291,0.46,0.438,0.763,0.438s0.558-0.146,0.764-0.439c0.207-0.293,0.31-0.879,0.31-1.758c0-0.884-0.103-1.471-0.31-1.762
			c-0.206-0.29-0.463-0.436-0.771-0.436c-0.303,0-0.545,0.128-0.726,0.384C57.773,105.902,57.66,106.505,57.66,107.387z"/>
	</g>
	<g>
		<path d="M28.674,124.285V123h-2.329v-0.604l2.45-3.479h0.539v3.479h0.725V123h-0.725v1.285H28.674z M28.674,122.395v-2.421
			l-1.681,2.421H28.674z"/>
		<path d="M30.732,121.637c0-0.635,0.065-1.146,0.196-1.533c0.13-0.387,0.325-0.685,0.582-0.896
			c0.258-0.209,0.582-0.314,0.972-0.314c0.288,0,0.541,0.058,0.758,0.174s0.396,0.283,0.539,0.502
			c0.141,0.219,0.252,0.484,0.333,0.798c0.081,0.314,0.121,0.737,0.121,1.27c0,0.63-0.065,1.138-0.194,1.525
			c-0.129,0.387-0.323,0.686-0.581,0.896c-0.257,0.212-0.583,0.317-0.976,0.317c-0.518,0-0.924-0.186-1.219-0.557
			C30.909,123.373,30.732,122.645,30.732,121.637z M31.41,121.637c0,0.881,0.103,1.468,0.31,1.76
			c0.206,0.291,0.46,0.438,0.763,0.438s0.558-0.146,0.764-0.439c0.207-0.293,0.31-0.879,0.31-1.758c0-0.884-0.103-1.471-0.31-1.762
			c-0.206-0.29-0.463-0.436-0.771-0.436c-0.303,0-0.545,0.128-0.726,0.384C31.523,120.152,31.41,120.755,31.41,121.637z"/>
	</g>
	<g>
		<path d="M0.315,134.868l0.659-0.088c0.076,0.373,0.205,0.643,0.386,0.808c0.182,0.164,0.403,0.247,0.665,0.247
			c0.31,0,0.572-0.107,0.785-0.322c0.214-0.215,0.32-0.481,0.32-0.799c0-0.303-0.099-0.552-0.296-0.749
			c-0.198-0.196-0.449-0.295-0.754-0.295c-0.125,0-0.28,0.025-0.465,0.074l0.073-0.579c0.044,0.005,0.079,0.007,0.106,0.007
			c0.281,0,0.533-0.072,0.758-0.219c0.224-0.146,0.337-0.373,0.337-0.678c0-0.242-0.082-0.442-0.246-0.601
			c-0.164-0.159-0.375-0.238-0.633-0.238c-0.257,0-0.47,0.081-0.641,0.241c-0.171,0.162-0.281,0.403-0.33,0.726l-0.659-0.117
			c0.081-0.441,0.264-0.784,0.549-1.027s0.641-0.364,1.066-0.364c0.293,0,0.563,0.063,0.809,0.188s0.435,0.298,0.566,0.515
			c0.13,0.218,0.196,0.448,0.196,0.692c0,0.231-0.062,0.442-0.187,0.634c-0.124,0.189-0.309,0.342-0.553,0.453
			c0.317,0.074,0.564,0.226,0.74,0.456c0.176,0.231,0.264,0.52,0.264,0.866c0,0.469-0.171,0.866-0.513,1.192
			s-0.774,0.489-1.296,0.489c-0.471,0-0.862-0.141-1.174-0.422C0.537,135.678,0.359,135.314,0.315,134.868z"/>
		<path d="M4.482,133.637c0-0.635,0.065-1.146,0.196-1.533c0.13-0.387,0.325-0.685,0.582-0.896c0.258-0.209,0.582-0.314,0.972-0.314
			c0.288,0,0.541,0.058,0.758,0.174s0.396,0.283,0.539,0.502c0.141,0.219,0.252,0.484,0.333,0.798
			c0.081,0.314,0.121,0.737,0.121,1.27c0,0.63-0.065,1.138-0.194,1.525c-0.129,0.387-0.323,0.686-0.581,0.896
			c-0.257,0.212-0.583,0.317-0.976,0.317c-0.518,0-0.924-0.186-1.219-0.557C4.659,135.373,4.482,134.645,4.482,133.637z
			 M5.16,133.637c0,0.881,0.103,1.468,0.31,1.76c0.206,0.291,0.46,0.438,0.763,0.438s0.558-0.146,0.764-0.439
			c0.207-0.293,0.31-0.879,0.31-1.758c0-0.884-0.103-1.471-0.31-1.762c-0.206-0.29-0.463-0.436-0.771-0.436
			c-0.303,0-0.545,0.128-0.726,0.384C5.273,132.152,5.16,132.755,5.16,133.637z"/>
	</g>
	<g>
		<path d="M31.185,77.042l-1.154-4.832h0.999l0.729,3.319l0.883-3.319h1.16l0.847,3.375l0.742-3.375h0.982l-1.173,4.832h-1.035
			l-0.962-3.612l-0.959,3.612H31.185z"/>
		<path d="M38.769,75.928l0.923,0.155c-0.119,0.338-0.306,0.596-0.562,0.773c-0.256,0.177-0.577,0.265-0.961,0.265
			c-0.609,0-1.059-0.199-1.351-0.597c-0.231-0.318-0.346-0.721-0.346-1.206c0-0.58,0.151-1.035,0.455-1.363
			c0.303-0.329,0.687-0.493,1.15-0.493c0.521,0,0.932,0.172,1.232,0.516c0.301,0.344,0.445,0.871,0.432,1.58h-2.32
			c0.006,0.275,0.081,0.489,0.224,0.641c0.143,0.153,0.321,0.229,0.534,0.229c0.145,0,0.267-0.039,0.366-0.118
			C38.643,76.232,38.718,76.104,38.769,75.928z M38.821,74.993c-0.007-0.268-0.076-0.472-0.208-0.612
			c-0.132-0.139-0.292-0.209-0.481-0.209c-0.202,0-0.369,0.074-0.501,0.221c-0.132,0.147-0.197,0.347-0.195,0.6H38.821z"/>
		<path d="M42.101,73.542v0.738h-0.633v1.41c0,0.286,0.006,0.452,0.018,0.5c0.012,0.047,0.04,0.086,0.082,0.117
			c0.043,0.031,0.095,0.046,0.157,0.046c0.086,0,0.21-0.03,0.373-0.089l0.079,0.718c-0.215,0.093-0.459,0.139-0.732,0.139
			c-0.167,0-0.317-0.028-0.451-0.084c-0.134-0.056-0.232-0.128-0.295-0.218c-0.063-0.089-0.106-0.209-0.13-0.361
			c-0.02-0.107-0.03-0.325-0.03-0.652v-1.526h-0.425v-0.738h0.425v-0.696l0.93-0.541v1.236H42.101z"/>
		<path d="M42.638,75.754v-0.926h1.819v0.926H42.638z"/>
		<path d="M45,72.21h1.932c0.382,0,0.667,0.016,0.855,0.048c0.188,0.032,0.356,0.099,0.504,0.2c0.148,0.101,0.272,0.235,0.371,0.404
			c0.099,0.168,0.148,0.356,0.148,0.565c0,0.227-0.061,0.434-0.183,0.623s-0.288,0.331-0.496,0.425
			c0.294,0.085,0.521,0.232,0.679,0.438s0.237,0.449,0.237,0.728c0,0.22-0.051,0.434-0.153,0.641
			c-0.103,0.208-0.242,0.374-0.419,0.498c-0.177,0.125-0.395,0.201-0.654,0.229c-0.163,0.018-0.555,0.029-1.176,0.033H45V72.21z
			 M45.976,73.015v1.117h0.64c0.38,0,0.616-0.005,0.708-0.017c0.167-0.02,0.298-0.078,0.394-0.173
			c0.096-0.096,0.144-0.222,0.144-0.377c0-0.149-0.042-0.271-0.124-0.364c-0.082-0.093-0.205-0.15-0.367-0.17
			c-0.097-0.011-0.375-0.016-0.834-0.016H45.976z M45.976,74.937v1.292h0.903c0.352,0,0.575-0.01,0.669-0.03
			c0.145-0.026,0.263-0.091,0.354-0.193s0.137-0.239,0.137-0.41c0-0.145-0.035-0.268-0.105-0.369s-0.172-0.175-0.305-0.221
			c-0.133-0.046-0.421-0.069-0.865-0.069H45.976z"/>
		<path d="M52.169,77.042v-0.524c-0.127,0.187-0.295,0.334-0.502,0.441c-0.208,0.108-0.427,0.162-0.658,0.162
			c-0.235,0-0.446-0.052-0.633-0.155c-0.187-0.104-0.322-0.249-0.405-0.435c-0.083-0.187-0.125-0.445-0.125-0.774v-2.215h0.926
			v1.608c0,0.492,0.017,0.793,0.051,0.904c0.034,0.111,0.096,0.199,0.186,0.264c0.09,0.065,0.205,0.098,0.343,0.098
			c0.158,0,0.3-0.043,0.425-0.13c0.125-0.087,0.211-0.194,0.257-0.323c0.046-0.128,0.069-0.443,0.069-0.944v-1.477h0.926v3.5H52.169
			z"/>
		<path d="M53.989,77.042V72.21h0.926v4.832H53.989z"/>
		<path d="M55.825,77.042V72.21h0.926v1.74c0.286-0.325,0.624-0.487,1.015-0.487c0.426,0,0.779,0.154,1.058,0.463
			c0.279,0.309,0.418,0.752,0.418,1.33c0,0.598-0.142,1.058-0.427,1.381c-0.285,0.323-0.63,0.484-1.037,0.484
			c-0.2,0-0.397-0.05-0.592-0.15c-0.194-0.1-0.362-0.248-0.502-0.443v0.514H55.825z M56.744,75.216c0,0.363,0.057,0.631,0.172,0.805
			c0.16,0.246,0.373,0.369,0.639,0.369c0.205,0,0.378-0.087,0.522-0.262s0.216-0.45,0.216-0.826c0-0.4-0.073-0.688-0.217-0.865
			c-0.146-0.177-0.331-0.265-0.557-0.265c-0.222,0-0.407,0.086-0.554,0.259C56.818,74.603,56.744,74.865,56.744,75.216z"/>
		<path d="M62.957,77.042v-4.015h-1.434V72.21h3.84v0.817h-1.431v4.015H62.957z"/>
		<path d="M67.512,75.928l0.923,0.155c-0.119,0.338-0.306,0.596-0.562,0.773c-0.256,0.177-0.577,0.265-0.961,0.265
			c-0.609,0-1.059-0.199-1.351-0.597c-0.231-0.318-0.346-0.721-0.346-1.206c0-0.58,0.151-1.035,0.455-1.363
			c0.303-0.329,0.687-0.493,1.15-0.493c0.521,0,0.932,0.172,1.232,0.516c0.301,0.344,0.445,0.871,0.432,1.58h-2.32
			c0.006,0.275,0.081,0.489,0.224,0.641c0.143,0.153,0.321,0.229,0.534,0.229c0.145,0,0.267-0.039,0.366-0.118
			C67.387,76.232,67.461,76.104,67.512,75.928z M67.565,74.993c-0.007-0.268-0.076-0.472-0.208-0.612
			c-0.132-0.139-0.292-0.209-0.481-0.209c-0.202,0-0.369,0.074-0.501,0.221c-0.132,0.147-0.197,0.347-0.195,0.6H67.565z"/>
		<path d="M69.169,73.542h0.854v0.478c0.305-0.371,0.669-0.557,1.091-0.557c0.224,0,0.418,0.046,0.583,0.138
			c0.165,0.092,0.3,0.232,0.405,0.418c0.154-0.187,0.32-0.326,0.498-0.418c0.178-0.092,0.368-0.138,0.57-0.138
			c0.257,0,0.475,0.052,0.653,0.156c0.178,0.104,0.311,0.258,0.398,0.46c0.064,0.149,0.096,0.391,0.096,0.725v2.238h-0.926v-2
			c0-0.347-0.032-0.571-0.095-0.672c-0.086-0.132-0.218-0.198-0.396-0.198c-0.13,0-0.252,0.04-0.366,0.119s-0.197,0.195-0.247,0.348
			c-0.051,0.153-0.076,0.394-0.076,0.724v1.681h-0.926v-1.918c0-0.341-0.017-0.561-0.049-0.659
			c-0.033-0.099-0.084-0.173-0.153-0.221s-0.163-0.072-0.282-0.072c-0.143,0-0.271,0.039-0.386,0.115
			c-0.114,0.077-0.196,0.188-0.246,0.333s-0.074,0.385-0.074,0.722v1.701h-0.926V73.542z"/>
		<path d="M75.214,73.542h0.864v0.514c0.112-0.175,0.264-0.318,0.455-0.428c0.191-0.11,0.403-0.165,0.636-0.165
			c0.406,0,0.751,0.159,1.035,0.478c0.284,0.319,0.425,0.763,0.425,1.332c0,0.584-0.143,1.039-0.428,1.363
			c-0.286,0.324-0.632,0.486-1.038,0.486c-0.194,0-0.369-0.039-0.526-0.115c-0.157-0.077-0.323-0.209-0.496-0.396v1.763h-0.926
			V73.542z M76.131,75.233c0,0.394,0.078,0.684,0.234,0.872c0.156,0.188,0.346,0.282,0.57,0.282c0.215,0,0.394-0.086,0.537-0.259
			c0.143-0.172,0.214-0.456,0.214-0.849c0-0.367-0.074-0.64-0.221-0.817c-0.147-0.178-0.329-0.267-0.547-0.267
			c-0.227,0-0.414,0.087-0.563,0.262C76.206,74.631,76.131,74.89,76.131,75.233z"/>
		<path d="M81.236,78.404V72.21h1.641v0.729h-0.761v4.736h0.761v0.729H81.236z"/>
		<path d="M83.5,77.042V72.21h3.313v0.817h-2.337v1.144h2.017v0.817h-2.017v2.053H83.5z"/>
		<path d="M88.893,72.21v6.193h-1.642v-0.729h0.762v-4.743h-0.762V72.21H88.893z"/>
	</g>
	
		<line fill="none" stroke="#000000" stroke-width="1.5" stroke-linecap="square" stroke-miterlimit="10" x1="177.758" y1="93.542" x2="126.008" y2="68.042"/>
	<polygon fill-rule="evenodd" clip-rule="evenodd" fill="#FFFFFF" points="180.008,81.542 186.758,81.542 186.758,92.792 
		180.008,92.792 180.008,81.542 	"/>
	<g>
		<path d="M186.137,89.042h-1.179l-0.469-1.22h-2.146l-0.442,1.22h-1.15l2.091-5.369h1.146L186.137,89.042z M184.141,86.918
			l-0.739-1.992l-0.726,1.992H184.141z"/>
	</g>
	<polygon fill-rule="evenodd" clip-rule="evenodd" fill="#FFFFFF" points="131.258,58.292 138.008,58.292 138.008,68.792 
		131.258,68.792 131.258,58.292 	"/>
	<g>
		<path d="M132.502,60.96h1.932c0.383,0,0.667,0.016,0.855,0.048c0.188,0.032,0.355,0.099,0.504,0.2s0.272,0.235,0.371,0.404
			c0.099,0.168,0.148,0.356,0.148,0.565c0,0.227-0.062,0.434-0.184,0.623c-0.121,0.189-0.287,0.331-0.496,0.425
			c0.295,0.085,0.521,0.232,0.68,0.438s0.237,0.449,0.237,0.728c0,0.22-0.052,0.434-0.153,0.641
			c-0.103,0.208-0.242,0.374-0.419,0.498c-0.177,0.125-0.395,0.201-0.654,0.229c-0.162,0.018-0.555,0.029-1.176,0.033h-1.645V60.96z
			 M133.478,61.765v1.117h0.64c0.38,0,0.616-0.005,0.709-0.017c0.166-0.02,0.298-0.078,0.394-0.173
			c0.096-0.096,0.144-0.222,0.144-0.377c0-0.149-0.041-0.271-0.124-0.364c-0.082-0.093-0.205-0.15-0.367-0.17
			c-0.097-0.011-0.375-0.016-0.834-0.016H133.478z M133.478,63.687v1.292h0.903c0.352,0,0.574-0.01,0.669-0.03
			c0.146-0.026,0.264-0.091,0.354-0.193s0.137-0.239,0.137-0.41c0-0.145-0.035-0.268-0.105-0.369s-0.172-0.175-0.305-0.221
			c-0.133-0.046-0.422-0.069-0.865-0.069H133.478z"/>
	</g>
	
		<path fill-rule="evenodd" clip-rule="evenodd" stroke="#000000" stroke-width="1.5" stroke-linecap="square" stroke-miterlimit="10" d="
		M124.508,67.667c0-1.042,0.833-1.875,1.875-1.875s1.875,0.833,1.875,1.875s-0.833,1.875-1.875,1.875S124.508,68.708,124.508,67.667
		L124.508,67.667z"/>
	
		<path fill-rule="evenodd" clip-rule="evenodd" stroke="#000000" stroke-width="1.5" stroke-linecap="square" stroke-miterlimit="10" d="
		M177.008,93.917c0-1.043,0.833-1.875,1.875-1.875s1.875,0.832,1.875,1.875c0,1.041-0.833,1.875-1.875,1.875
		S177.008,94.958,177.008,93.917L177.008,93.917z"/>
</g>
</svg>
