<?xml version="1.0" encoding="utf-8"?>
<!-- Generator: Adobe Illustrator 16.0.0, SVG Export Plug-In . SVG Version: 6.00 Build 0)  -->
<!DOCTYPE svg PUBLIC "-//W3C//DTD SVG 1.1//EN" "http://www.w3.org/Graphics/SVG/1.1/DTD/svg11.dtd">
<svg version="1.1" id="Layer_1" xmlns="http://www.w3.org/2000/svg" xmlns:xlink="http://www.w3.org/1999/xlink" x="0px" y="0px"
	 width="342.957px" height="211.333px" viewBox="0 0 342.957 211.333" enable-background="new 0 0 342.957 211.333"
	 xml:space="preserve">
<g>
	<polygon fill="#131516" points="342.7,174.123 342.957,173.865 342.957,72.974 342.442,72.974 342.442,173.865 342.7,174.123 
		342.7,174.123 342.957,174.123 342.957,173.865 	"/>
	<polygon fill="#131516" points="255.938,173.865 256.194,174.123 342.7,174.123 342.7,173.608 256.194,173.608 255.938,173.865 
		255.938,173.865 255.938,174.123 256.194,174.123 	"/>
	<polygon fill="#131516" points="256.194,72.716 255.938,72.974 255.938,173.865 256.452,173.865 256.452,72.974 256.194,72.716 
		256.194,72.716 255.938,72.716 255.938,72.974 	"/>
	<polygon fill="#131516" points="342.957,72.974 342.7,72.716 256.194,72.716 256.194,73.23 342.7,73.23 342.957,72.974 
		342.957,72.974 342.957,72.716 342.7,72.716 	"/>
	<polygon fill="#1F1A17" points="326.732,167.242 326.625,166.771 248.671,166.771 248.671,167.264 326.625,167.264 
		326.732,167.242 326.625,167.264 326.689,167.264 326.732,167.242 	"/>
	<polygon fill="#1F1A17" points="330.933,165.463 330.633,165.077 326.539,166.771 326.732,167.242 330.826,165.549 
		330.933,165.463 330.826,165.549 330.891,165.527 330.933,165.463 	"/>
	<polygon fill="#1F1A17" points="333.376,162.462 332.927,162.248 330.525,165.142 330.933,165.463 333.334,162.569 
		333.376,162.462 333.334,162.569 333.355,162.526 333.376,162.462 	"/>
	<polygon fill="#1F1A17" points="334.405,158.239 333.912,158.239 332.884,162.334 333.376,162.462 334.405,158.368 
		334.405,158.239 334.405,158.368 334.427,158.304 334.405,158.239 	"/>
	<polygon fill="#1F1A17" points="333.334,154.21 332.884,154.425 333.912,158.368 334.405,158.239 333.376,154.296 333.334,154.21 
		333.376,154.296 333.355,154.253 333.334,154.21 	"/>
	<polygon fill="#1F1A17" points="330.826,151.23 330.525,151.616 332.927,154.531 333.334,154.21 330.933,151.295 330.826,151.23 
		330.933,151.295 330.891,151.252 330.826,151.23 	"/>
	<polygon fill="#1F1A17" points="326.625,149.494 326.539,149.987 330.633,151.702 330.826,151.23 326.732,149.516 326.625,149.494 
		326.732,149.516 326.689,149.494 326.625,149.494 	"/>
	<polygon fill="#1F1A17" points="270.619,149.987 270.727,150.009 326.625,150.009 326.625,149.494 270.727,149.494 
		270.619,149.987 270.619,149.987 270.684,150.009 270.727,150.009 	"/>
	<polygon fill="#1F1A17" points="266.418,148.187 266.525,148.272 270.619,149.987 270.813,149.516 266.718,147.801 
		266.418,148.187 266.418,148.187 266.461,148.251 266.525,148.272 	"/>
	<polygon fill="#1F1A17" points="264.146,145.208 264.189,145.293 266.418,148.187 266.825,147.887 264.597,144.972 
		264.146,145.208 264.146,145.208 264.168,145.25 264.189,145.293 	"/>
	<polygon fill="#1F1A17" points="262.946,141.135 262.968,141.264 264.146,145.208 264.64,145.058 263.438,141.135 262.946,141.135 
		262.946,141.135 262.946,141.199 262.968,141.264 	"/>
	<polygon fill="#1F1A17" points="264.211,136.763 264.146,136.848 262.946,141.135 263.438,141.264 264.64,136.998 264.211,136.763 
		264.211,136.763 264.168,136.806 264.146,136.848 	"/>
	<polygon fill="#1F1A17" points="266.525,133.954 266.418,134.019 264.211,136.763 264.597,137.084 266.825,134.34 266.525,133.954 
		266.525,133.954 266.461,133.976 266.418,134.019 	"/>
	<polygon fill="#1F1A17" points="270.727,132.219 270.619,132.24 266.525,133.954 266.718,134.426 270.813,132.711 270.727,132.219 
		270.727,132.219 270.684,132.219 270.619,132.24 	"/>
	<polygon fill="#1F1A17" points="326.732,132.711 326.625,132.219 270.727,132.219 270.727,132.732 326.625,132.732 
		326.732,132.711 326.625,132.732 326.689,132.732 326.732,132.711 	"/>
	<polygon fill="#1F1A17" points="330.933,130.933 330.633,130.525 326.539,132.24 326.732,132.711 330.826,130.996 330.933,130.933 
		330.826,130.996 330.891,130.975 330.933,130.933 	"/>
	<polygon fill="#1F1A17" points="333.376,127.932 332.927,127.695 330.525,130.61 330.933,130.933 333.334,128.018 333.376,127.932 
		333.334,128.018 333.355,127.975 333.376,127.932 	"/>
	<polygon fill="#1F1A17" points="334.405,123.688 333.912,123.688 332.884,127.803 333.376,127.932 334.405,123.816 
		334.405,123.688 334.405,123.816 334.427,123.752 334.405,123.688 	"/>
	<polygon fill="#1F1A17" points="333.334,119.658 332.884,119.894 333.912,123.816 334.405,123.688 333.376,119.765 
		333.334,119.658 333.376,119.765 333.355,119.7 333.334,119.658 	"/>
	<polygon fill="#1F1A17" points="330.826,116.679 330.525,117.086 332.927,119.979 333.334,119.658 330.933,116.764 
		330.826,116.679 330.933,116.764 330.891,116.7 330.826,116.679 	"/>
	<polygon fill="#1F1A17" points="326.625,114.964 326.539,115.457 330.633,117.15 330.826,116.679 326.732,114.985 326.625,114.964 
		326.732,114.985 326.689,114.964 326.625,114.964 	"/>
	<polygon fill="#1F1A17" points="270.619,115.457 270.727,115.479 326.625,115.479 326.625,114.964 270.727,114.964 
		270.619,115.457 270.619,115.457 270.684,115.479 270.727,115.479 	"/>
	<polygon fill="#1F1A17" points="266.418,113.656 266.525,113.742 270.619,115.457 270.813,114.985 266.718,113.271 
		266.418,113.656 266.418,113.656 266.461,113.699 266.525,113.742 	"/>
	<polygon fill="#1F1A17" points="264.146,110.505 264.189,110.569 266.418,113.656 266.825,113.356 264.597,110.27 264.146,110.505 
		264.146,110.505 264.168,110.548 264.189,110.569 	"/>
	<polygon fill="#1F1A17" points="262.968,106.411 262.968,106.562 264.146,110.505 264.64,110.355 263.438,106.411 262.968,106.411 
		262.968,106.411 262.925,106.497 262.968,106.562 	"/>
	<polygon fill="#1F1A17" points="264.189,102.403 264.146,102.489 262.968,106.411 263.438,106.562 264.64,102.639 264.189,102.403 
		264.189,102.403 264.168,102.446 264.146,102.489 	"/>
	<polygon fill="#1F1A17" points="266.525,99.424 266.418,99.488 264.189,102.403 264.597,102.725 266.825,99.81 266.525,99.424 
		266.525,99.424 266.461,99.445 266.418,99.488 	"/>
	<polygon fill="#1F1A17" points="270.727,97.516 270.619,97.537 266.525,99.424 266.718,99.895 270.833,98.009 270.727,97.516 
		270.727,97.516 270.662,97.516 270.619,97.537 	"/>
	<polygon fill="#1F1A17" points="326.732,98.009 326.625,97.516 270.727,97.516 270.727,98.03 326.625,98.03 326.732,98.009 
		326.625,98.03 326.689,98.03 326.732,98.009 	"/>
	<polygon fill="#1F1A17" points="330.933,96.23 330.633,95.823 326.539,97.537 326.732,98.009 330.826,96.294 330.933,96.23 
		330.826,96.294 330.891,96.273 330.933,96.23 	"/>
	<polygon fill="#1F1A17" points="333.376,93.379 332.927,93.165 330.547,95.887 330.933,96.23 333.313,93.486 333.376,93.379 
		333.313,93.486 333.355,93.443 333.376,93.379 	"/>
	<polygon fill="#1F1A17" points="334.405,89.156 333.912,89.156 332.884,93.272 333.376,93.379 334.405,89.285 334.405,89.156 
		334.405,89.285 334.427,89.221 334.405,89.156 	"/>
	<polygon fill="#1F1A17" points="333.334,85.127 332.884,85.363 333.912,89.285 334.405,89.156 333.376,85.234 333.334,85.127 
		333.376,85.234 333.355,85.17 333.334,85.127 	"/>
	<polygon fill="#1F1A17" points="330.826,81.976 330.525,82.362 332.927,85.448 333.334,85.127 330.933,82.062 330.826,81.976 
		330.933,82.062 330.891,81.998 330.826,81.976 	"/>
	<polygon fill="#1F1A17" points="326.625,80.24 326.539,80.733 330.633,82.447 330.826,81.976 326.732,80.261 326.625,80.24 
		326.732,80.261 326.689,80.24 326.625,80.24 	"/>
	<rect x="248.671" y="80.24" fill="#1F1A17" width="77.954" height="0.515"/>
	<polygon fill="#1F1A17" points="248.093,166.771 248.093,167.264 248.671,167.264 248.671,166.771 248.093,166.771 
		248.093,166.771 248.093,167.264 248.093,167.264 248.093,167.264 	"/>
	<rect x="247.535" y="166.771" fill="#1F1A17" width="0.558" height="0.493"/>
	<polygon fill="#1F1A17" points="246.571,80.24 246.571,80.754 248.671,80.754 248.671,80.24 246.571,80.24 246.571,80.24 
		246.571,80.754 246.571,80.754 246.571,80.754 	"/>
	<rect x="244.492" y="80.24" fill="#1F1A17" width="2.079" height="0.515"/>
	<polygon fill-rule="evenodd" clip-rule="evenodd" fill="#FFFFFF" points="245.092,81.119 243.892,84.012 241.17,86.413 
		238.083,86.413 235.361,84.012 234.161,81.119 235.361,77.689 238.083,75.975 241.17,75.975 243.892,77.689 245.092,81.119 	"/>
	<polygon fill="#1F1A17" points="244.063,84.205 244.127,84.12 245.327,81.204 244.856,81.011 243.656,83.927 244.063,84.205 
		244.063,84.205 244.106,84.162 244.127,84.12 	"/>
	<polygon fill="#1F1A17" points="241.17,86.67 241.341,86.606 244.063,84.205 243.741,83.819 240.998,86.22 241.17,86.67 
		241.17,86.67 241.255,86.67 241.341,86.606 	"/>
	<polygon fill="#1F1A17" points="237.912,86.606 238.083,86.67 241.17,86.67 241.17,86.156 238.083,86.156 237.912,86.606 
		237.912,86.606 237.997,86.67 238.083,86.67 	"/>
	<polygon fill="#1F1A17" points="235.125,84.12 235.189,84.205 237.912,86.606 238.255,86.22 235.511,83.819 235.125,84.12 
		235.125,84.12 235.146,84.162 235.189,84.205 	"/>
	<polygon fill="#1F1A17" points="233.903,81.033 233.925,81.204 235.125,84.12 235.597,83.927 234.396,81.011 233.903,81.033 
		233.903,81.033 233.882,81.119 233.925,81.204 	"/>
	<polygon fill="#1F1A17" points="235.211,77.475 235.104,77.604 233.903,81.033 234.396,81.183 235.597,77.775 235.211,77.475 
		235.211,77.475 235.146,77.518 235.104,77.604 	"/>
	<polygon fill="#1F1A17" points="238.083,75.717 237.954,75.76 235.211,77.475 235.489,77.903 238.233,76.188 238.083,75.717 
		238.083,75.717 238.019,75.717 237.954,75.76 	"/>
	<polygon fill="#1F1A17" points="241.298,75.76 241.17,75.717 238.083,75.717 238.083,76.231 241.17,76.231 241.298,75.76 
		241.298,75.76 241.233,75.717 241.17,75.717 	"/>
	<polygon fill="#1F1A17" points="244.148,77.604 244.042,77.475 241.298,75.76 241.02,76.188 243.763,77.903 244.148,77.604 
		244.148,77.604 244.106,77.518 244.042,77.475 	"/>
	<polygon fill="#1F1A17" points="245.327,81.204 245.349,81.033 244.148,77.604 243.656,77.775 244.856,81.183 245.327,81.204 
		245.327,81.204 245.37,81.119 245.349,81.033 	"/>
	<polygon fill-rule="evenodd" clip-rule="evenodd" fill="#FFFFFF" points="246.914,167.628 245.714,170.521 242.991,172.751 
		239.905,172.751 237.161,170.521 235.982,167.628 237.161,164.027 239.905,162.313 242.991,162.313 245.714,164.027 
		246.914,167.628 	"/>
	<polygon fill="#1F1A17" points="245.885,170.736 245.949,170.629 247.149,167.714 246.678,167.521 245.478,170.436 
		245.885,170.736 245.885,170.736 245.928,170.693 245.949,170.629 	"/>
	<polygon fill="#1F1A17" points="242.991,173.008 243.142,172.943 245.885,170.736 245.563,170.329 242.82,172.558 242.991,173.008 
		242.991,173.008 243.077,173.008 243.142,172.943 	"/>
	<polygon fill="#1F1A17" points="239.733,172.943 239.905,173.008 242.991,173.008 242.991,172.493 239.905,172.493 
		239.733,172.943 239.733,172.943 239.819,173.008 239.905,173.008 	"/>
	<polygon fill="#1F1A17" points="236.926,170.629 237.012,170.736 239.733,172.943 240.055,172.558 237.333,170.329 
		236.926,170.629 236.926,170.629 236.947,170.693 237.012,170.736 	"/>
	<polygon fill="#1F1A17" points="235.726,167.542 235.726,167.714 236.926,170.629 237.397,170.436 236.219,167.521 
		235.726,167.542 235.726,167.542 235.704,167.628 235.726,167.714 	"/>
	<polygon fill="#1F1A17" points="237.033,163.813 236.926,163.941 235.726,167.542 236.219,167.692 237.419,164.112 
		237.033,163.813 237.033,163.813 236.947,163.855 236.926,163.941 	"/>
	<polygon fill="#1F1A17" points="239.905,162.055 239.776,162.098 237.033,163.813 237.312,164.241 240.033,162.548 
		239.905,162.055 239.905,162.055 239.841,162.055 239.776,162.098 	"/>
	<polygon fill="#1F1A17" points="243.12,162.098 242.991,162.055 239.905,162.055 239.905,162.569 242.991,162.569 243.12,162.098 
		243.12,162.098 243.056,162.055 242.991,162.055 	"/>
	<polygon fill="#1F1A17" points="245.949,163.941 245.842,163.813 243.12,162.098 242.842,162.548 245.585,164.241 245.949,163.941 
		245.949,163.941 245.928,163.855 245.842,163.813 	"/>
	<polygon fill="#1F1A17" points="247.149,167.714 247.149,167.542 245.949,163.941 245.478,164.112 246.678,167.692 
		247.149,167.714 247.149,167.714 247.192,167.628 247.149,167.542 	"/>
	<g>
		<path fill="#1F1A17" d="M278.125,112.389l1-0.085c0.047,0.394,0.157,0.716,0.33,0.969c0.173,0.252,0.441,0.456,0.806,0.612
			c0.364,0.155,0.774,0.233,1.229,0.233c0.404,0,0.762-0.06,1.071-0.178s0.54-0.279,0.691-0.485c0.15-0.206,0.227-0.431,0.227-0.674
			c0-0.247-0.073-0.463-0.219-0.647c-0.146-0.184-0.386-0.339-0.722-0.464c-0.215-0.083-0.689-0.211-1.426-0.384
			c-0.735-0.174-1.251-0.338-1.546-0.491c-0.383-0.197-0.668-0.441-0.855-0.733s-0.281-0.618-0.281-0.979
			c0-0.397,0.115-0.769,0.345-1.114s0.564-0.607,1.005-0.787c0.44-0.179,0.931-0.269,1.47-0.269c0.594,0,1.117,0.095,1.571,0.282
			c0.453,0.188,0.802,0.465,1.046,0.83s0.375,0.778,0.394,1.24l-1.017,0.075c-0.055-0.498-0.239-0.874-0.555-1.128
			c-0.314-0.254-0.78-0.381-1.396-0.381c-0.642,0-1.108,0.115-1.401,0.346c-0.294,0.231-0.44,0.51-0.44,0.835
			c0,0.283,0.104,0.516,0.312,0.698c0.204,0.183,0.737,0.37,1.599,0.562s1.452,0.358,1.772,0.502
			c0.467,0.211,0.811,0.479,1.033,0.803c0.222,0.323,0.333,0.696,0.333,1.119c0,0.419-0.122,0.813-0.366,1.184
			c-0.244,0.371-0.595,0.659-1.052,0.864c-0.457,0.206-0.972,0.309-1.543,0.309c-0.726,0-1.333-0.104-1.822-0.311
			c-0.49-0.208-0.875-0.521-1.153-0.938S278.14,112.915,278.125,112.389z"/>
		<path fill="#1F1A17" d="M287.265,114.918v-0.838c-0.451,0.645-1.065,0.967-1.841,0.967c-0.343,0-0.662-0.064-0.959-0.193
			s-0.518-0.291-0.661-0.486c-0.144-0.194-0.245-0.434-0.304-0.717c-0.04-0.189-0.06-0.49-0.06-0.901v-3.533h0.983v3.162
			c0,0.505,0.021,0.846,0.061,1.021c0.062,0.254,0.192,0.454,0.393,0.599c0.201,0.146,0.448,0.218,0.743,0.218
			s0.572-0.074,0.831-0.223s0.441-0.352,0.549-0.607s0.161-0.627,0.161-1.113v-3.056h0.983v5.702H287.265z"/>
		<path fill="#1F1A17" d="M289.607,114.918v-5.702h0.886v0.864c0.226-0.404,0.434-0.671,0.625-0.8s0.401-0.193,0.631-0.193
			c0.332,0,0.669,0.104,1.011,0.312l-0.338,0.896c-0.241-0.14-0.481-0.209-0.722-0.209c-0.215,0-0.408,0.063-0.579,0.19
			s-0.293,0.304-0.366,0.529c-0.109,0.343-0.164,0.719-0.164,1.127v2.985H289.607z"/>
		<path fill="#1F1A17" d="M293.009,114.918v-4.95h-0.869v-0.752h0.869v-0.606c0-0.383,0.034-0.668,0.104-0.854
			c0.095-0.251,0.262-0.454,0.5-0.609c0.238-0.156,0.573-0.234,1.003-0.234c0.276,0,0.583,0.033,0.918,0.098l-0.147,0.843
			c-0.204-0.036-0.397-0.054-0.579-0.054c-0.299,0-0.511,0.063-0.634,0.188c-0.124,0.126-0.187,0.36-0.187,0.703v0.526h1.132v0.752
			h-1.132v4.95H293.009z"/>
		<path fill="#1F1A17" d="M299.592,114.215c-0.364,0.304-0.715,0.519-1.052,0.645c-0.337,0.125-0.699,0.188-1.085,0.188
			c-0.638,0-1.127-0.153-1.47-0.459c-0.343-0.307-0.514-0.697-0.514-1.173c0-0.279,0.064-0.534,0.194-0.766
			c0.129-0.23,0.298-0.416,0.508-0.556c0.209-0.14,0.445-0.245,0.708-0.316c0.192-0.051,0.484-0.099,0.874-0.146
			c0.794-0.093,1.379-0.204,1.754-0.333c0.003-0.132,0.005-0.216,0.005-0.252c0-0.394-0.093-0.671-0.278-0.832
			c-0.251-0.219-0.625-0.328-1.12-0.328c-0.463,0-0.804,0.08-1.024,0.239s-0.384,0.441-0.489,0.846l-0.962-0.129
			c0.088-0.404,0.231-0.731,0.432-0.979c0.201-0.249,0.49-0.44,0.869-0.575c0.379-0.134,0.817-0.201,1.316-0.201
			c0.496,0,0.898,0.058,1.208,0.172c0.31,0.115,0.537,0.259,0.683,0.433s0.248,0.393,0.307,0.657
			c0.032,0.165,0.049,0.462,0.049,0.892v1.288c0,0.898,0.021,1.467,0.063,1.705s0.125,0.466,0.249,0.685h-1.027
			C299.687,114.718,299.62,114.483,299.592,114.215z M299.51,112.057c-0.357,0.143-0.893,0.265-1.606,0.364
			c-0.404,0.058-0.69,0.122-0.858,0.193c-0.167,0.072-0.297,0.177-0.388,0.314s-0.137,0.291-0.137,0.459
			c0,0.258,0.1,0.473,0.298,0.645s0.489,0.258,0.872,0.258c0.378,0,0.716-0.082,1.011-0.244c0.295-0.163,0.512-0.386,0.649-0.669
			c0.106-0.218,0.159-0.54,0.159-0.967V112.057z"/>
		<path fill="#1F1A17" d="M306.509,112.829l0.967,0.124c-0.105,0.655-0.376,1.168-0.812,1.538s-0.97,0.556-1.604,0.556
			c-0.794,0-1.433-0.255-1.915-0.766c-0.482-0.51-0.724-1.24-0.724-2.192c0-0.616,0.104-1.154,0.312-1.616
			c0.207-0.462,0.523-0.809,0.947-1.039c0.425-0.231,0.887-0.347,1.386-0.347c0.63,0,1.146,0.157,1.546,0.47
			c0.4,0.313,0.657,0.758,0.771,1.335l-0.956,0.145c-0.092-0.383-0.253-0.671-0.483-0.864c-0.231-0.193-0.512-0.29-0.839-0.29
			c-0.496,0-0.898,0.175-1.208,0.523s-0.464,0.901-0.464,1.656c0,0.766,0.149,1.322,0.447,1.67c0.299,0.348,0.688,0.521,1.17,0.521
			c0.386,0,0.708-0.116,0.967-0.349S306.439,113.313,306.509,112.829z"/>
		<path fill="#1F1A17" d="M313.353,113.082l1.017,0.123c-0.161,0.584-0.458,1.036-0.891,1.358c-0.434,0.322-0.987,0.483-1.661,0.483
			c-0.849,0-1.522-0.257-2.02-0.771s-0.745-1.234-0.745-2.161c0-0.959,0.251-1.704,0.754-2.233c0.502-0.529,1.154-0.795,1.956-0.795
			c0.775,0,1.409,0.26,1.901,0.778c0.491,0.52,0.737,1.25,0.737,2.191c0,0.057-0.002,0.143-0.005,0.258h-4.328
			c0.037,0.626,0.217,1.105,0.541,1.438s0.729,0.499,1.213,0.499c0.361,0,0.669-0.093,0.924-0.279
			C313.001,113.787,313.203,113.49,313.353,113.082z M310.123,111.52h3.24c-0.044-0.479-0.168-0.84-0.371-1.079
			c-0.313-0.372-0.72-0.559-1.219-0.559c-0.452,0-0.831,0.148-1.14,0.445C310.326,110.625,310.156,111.021,310.123,111.52z"/>
	</g>
	<g>
		<path fill="#1F1A17" d="M278.519,128.105v-7.871h1.06v3.232h4.163v-3.232h1.061v7.871h-1.061v-3.71h-4.163v3.71H278.519z"/>
		<path fill="#1F1A17" d="M289.048,126.27l1.017,0.123c-0.161,0.584-0.458,1.036-0.891,1.358c-0.434,0.322-0.987,0.483-1.661,0.483
			c-0.849,0-1.522-0.257-2.02-0.771s-0.745-1.234-0.745-2.161c0-0.959,0.251-1.704,0.754-2.233c0.502-0.529,1.154-0.795,1.956-0.795
			c0.775,0,1.409,0.26,1.901,0.778c0.491,0.52,0.737,1.25,0.737,2.191c0,0.057-0.002,0.143-0.005,0.258h-4.328
			c0.037,0.626,0.217,1.105,0.541,1.438s0.729,0.499,1.213,0.499c0.361,0,0.669-0.093,0.924-0.279
			C288.696,126.975,288.898,126.678,289.048,126.27z M285.818,124.707h3.24c-0.044-0.479-0.168-0.84-0.371-1.079
			c-0.313-0.372-0.72-0.559-1.219-0.559c-0.452,0-0.831,0.148-1.14,0.445C286.021,123.813,285.852,124.209,285.818,124.707z"/>
		<path fill="#1F1A17" d="M295.522,127.402c-0.364,0.304-0.715,0.519-1.052,0.645c-0.337,0.125-0.699,0.188-1.085,0.188
			c-0.638,0-1.127-0.153-1.47-0.459c-0.343-0.307-0.514-0.697-0.514-1.173c0-0.279,0.064-0.534,0.194-0.766
			c0.129-0.23,0.298-0.416,0.508-0.556c0.209-0.14,0.445-0.245,0.708-0.316c0.192-0.051,0.484-0.099,0.874-0.146
			c0.794-0.093,1.379-0.204,1.754-0.333c0.003-0.132,0.005-0.216,0.005-0.252c0-0.394-0.093-0.671-0.278-0.832
			c-0.251-0.219-0.625-0.328-1.12-0.328c-0.463,0-0.804,0.08-1.024,0.239s-0.384,0.441-0.489,0.846l-0.962-0.129
			c0.088-0.404,0.231-0.731,0.432-0.979c0.201-0.249,0.49-0.44,0.869-0.575c0.379-0.134,0.817-0.201,1.316-0.201
			c0.496,0,0.898,0.058,1.208,0.172c0.31,0.115,0.537,0.259,0.683,0.433s0.248,0.393,0.307,0.657
			c0.032,0.165,0.049,0.462,0.049,0.892v1.288c0,0.898,0.021,1.467,0.063,1.705s0.125,0.466,0.249,0.685h-1.027
			C295.617,127.905,295.551,127.671,295.522,127.402z M295.44,125.244c-0.357,0.143-0.893,0.265-1.606,0.364
			c-0.404,0.058-0.69,0.122-0.858,0.193c-0.167,0.072-0.297,0.177-0.388,0.314s-0.137,0.291-0.137,0.459
			c0,0.258,0.1,0.473,0.298,0.645s0.489,0.258,0.872,0.258c0.378,0,0.716-0.082,1.011-0.244c0.295-0.163,0.512-0.386,0.649-0.669
			c0.106-0.218,0.159-0.54,0.159-0.967V125.244z"/>
		<path fill="#1F1A17" d="M300.8,127.241l0.143,0.854c-0.277,0.058-0.524,0.086-0.743,0.086c-0.357,0-0.634-0.056-0.831-0.166
			c-0.196-0.111-0.335-0.257-0.415-0.438c-0.08-0.181-0.12-0.561-0.12-1.141v-3.28h-0.722v-0.752h0.722v-1.412l0.978-0.58v1.992
			h0.989v0.752h-0.989v3.334c0,0.275,0.018,0.453,0.053,0.531c0.034,0.079,0.091,0.142,0.169,0.188s0.19,0.069,0.336,0.069
			C300.478,127.278,300.621,127.267,300.8,127.241z"/>
	</g>
	<g>
		<path fill="#1F1A17" d="M278.507,141.285v-7.871h5.792v0.929h-4.731v2.411h4.431v0.923h-4.431v2.68h4.917v0.929H278.507z"/>
		<path fill="#1F1A17" d="M283.243,141.285l2.12-2.964l-1.962-2.738h1.229l0.891,1.337c0.168,0.254,0.303,0.467,0.404,0.639
			c0.16-0.235,0.308-0.445,0.442-0.628l0.979-1.348h1.175l-2.006,2.685l2.158,3.018h-1.207l-1.191-1.771l-0.316-0.479l-1.524,2.25
			H283.243z"/>
		<path fill="#1F1A17" d="M292.24,139.196l0.967,0.124c-0.105,0.655-0.376,1.168-0.812,1.538s-0.97,0.556-1.604,0.556
			c-0.794,0-1.433-0.255-1.915-0.766c-0.482-0.51-0.724-1.24-0.724-2.192c0-0.616,0.104-1.154,0.312-1.616
			c0.207-0.462,0.523-0.809,0.947-1.039c0.425-0.231,0.887-0.347,1.386-0.347c0.63,0,1.146,0.157,1.546,0.47
			c0.4,0.313,0.657,0.758,0.771,1.335l-0.956,0.145c-0.092-0.383-0.253-0.671-0.483-0.864c-0.231-0.193-0.512-0.29-0.839-0.29
			c-0.496,0-0.898,0.175-1.208,0.523s-0.464,0.901-0.464,1.656c0,0.766,0.149,1.322,0.447,1.67c0.299,0.348,0.688,0.521,1.17,0.521
			c0.386,0,0.708-0.116,0.967-0.349S292.171,139.68,292.24,139.196z"/>
		<path fill="#1F1A17" d="M295.11,141.285v-7.871h0.983v2.824c0.459-0.522,1.038-0.784,1.738-0.784c0.43,0,0.803,0.083,1.12,0.25
			c0.316,0.166,0.543,0.396,0.68,0.689c0.137,0.294,0.205,0.72,0.205,1.278v3.613h-0.983v-3.613c0-0.483-0.106-0.835-0.319-1.055
			c-0.214-0.221-0.515-0.331-0.904-0.331c-0.292,0-0.565,0.075-0.822,0.224s-0.44,0.35-0.55,0.604s-0.164,0.605-0.164,1.053v3.119
			H295.11z"/>
		<path fill="#1F1A17" d="M305.031,140.582c-0.364,0.304-0.715,0.519-1.052,0.645c-0.337,0.125-0.699,0.188-1.085,0.188
			c-0.638,0-1.127-0.153-1.47-0.459c-0.343-0.307-0.514-0.697-0.514-1.173c0-0.279,0.064-0.534,0.194-0.766
			c0.129-0.23,0.298-0.416,0.508-0.556c0.209-0.14,0.445-0.245,0.708-0.316c0.192-0.051,0.484-0.099,0.874-0.146
			c0.794-0.093,1.379-0.204,1.754-0.333c0.003-0.132,0.005-0.216,0.005-0.252c0-0.394-0.093-0.671-0.278-0.832
			c-0.251-0.219-0.625-0.328-1.12-0.328c-0.463,0-0.804,0.08-1.024,0.239s-0.384,0.441-0.489,0.846l-0.962-0.129
			c0.088-0.404,0.231-0.731,0.432-0.979c0.201-0.249,0.49-0.44,0.869-0.575c0.379-0.134,0.817-0.201,1.316-0.201
			c0.496,0,0.898,0.058,1.208,0.172c0.31,0.115,0.537,0.259,0.683,0.433s0.248,0.393,0.307,0.657
			c0.032,0.165,0.049,0.462,0.049,0.892v1.288c0,0.898,0.021,1.467,0.063,1.705s0.125,0.466,0.249,0.685h-1.027
			C305.126,141.085,305.06,140.851,305.031,140.582z M304.949,138.424c-0.357,0.143-0.893,0.265-1.606,0.364
			c-0.404,0.058-0.69,0.122-0.858,0.193c-0.167,0.072-0.297,0.177-0.388,0.314s-0.137,0.291-0.137,0.459
			c0,0.258,0.1,0.473,0.298,0.645s0.489,0.258,0.872,0.258c0.378,0,0.716-0.082,1.011-0.244c0.295-0.163,0.512-0.386,0.649-0.669
			c0.106-0.218,0.159-0.54,0.159-0.967V138.424z"/>
		<path fill="#1F1A17" d="M308.162,141.285v-5.702h0.886v0.811c0.426-0.626,1.041-0.939,1.847-0.939c0.35,0,0.671,0.062,0.964,0.186
			c0.294,0.123,0.513,0.285,0.659,0.485c0.146,0.201,0.247,0.439,0.306,0.715c0.036,0.179,0.055,0.492,0.055,0.939v3.506h-0.983
			v-3.469c0-0.394-0.038-0.688-0.115-0.883c-0.076-0.195-0.212-0.351-0.407-0.467c-0.194-0.116-0.423-0.175-0.686-0.175
			c-0.419,0-0.78,0.131-1.084,0.392c-0.305,0.262-0.457,0.757-0.457,1.487v3.114H308.162z"/>
		<path fill="#1F1A17" d="M314.138,141.758l0.956,0.14c0.04,0.29,0.151,0.501,0.333,0.634c0.244,0.179,0.577,0.268,1,0.268
			c0.455,0,0.807-0.089,1.055-0.268c0.247-0.18,0.415-0.43,0.503-0.752c0.051-0.197,0.074-0.61,0.07-1.24
			c-0.43,0.497-0.965,0.746-1.606,0.746c-0.797,0-1.415-0.283-1.852-0.849c-0.438-0.565-0.656-1.243-0.656-2.034
			c0-0.544,0.101-1.047,0.301-1.507c0.2-0.459,0.491-0.814,0.871-1.065c0.381-0.25,0.828-0.376,1.342-0.376
			c0.685,0,1.249,0.272,1.693,0.816v-0.688h0.907v4.929c0,0.888-0.092,1.517-0.275,1.888c-0.185,0.37-0.476,0.663-0.875,0.878
			c-0.398,0.215-0.89,0.322-1.472,0.322c-0.692,0-1.252-0.153-1.678-0.459C314.329,142.834,314.123,142.373,314.138,141.758z
			 M314.951,138.332c0,0.748,0.151,1.294,0.454,1.638c0.302,0.344,0.681,0.516,1.136,0.516c0.452,0,0.831-0.171,1.137-0.513
			c0.307-0.342,0.459-0.878,0.459-1.608c0-0.698-0.157-1.224-0.473-1.578c-0.314-0.354-0.694-0.532-1.139-0.532
			c-0.438,0-0.809,0.175-1.115,0.523C315.104,137.127,314.951,137.645,314.951,138.332z"/>
		<path fill="#1F1A17" d="M325.141,139.449l1.017,0.123c-0.161,0.584-0.458,1.036-0.891,1.358c-0.434,0.322-0.987,0.483-1.661,0.483
			c-0.849,0-1.522-0.257-2.02-0.771s-0.745-1.234-0.745-2.161c0-0.959,0.251-1.704,0.754-2.233c0.502-0.529,1.154-0.795,1.956-0.795
			c0.775,0,1.409,0.26,1.901,0.778c0.491,0.52,0.737,1.25,0.737,2.191c0,0.057-0.002,0.143-0.005,0.258h-4.328
			c0.037,0.626,0.217,1.105,0.541,1.438s0.729,0.499,1.213,0.499c0.361,0,0.669-0.093,0.924-0.279
			C324.789,140.154,324.991,139.857,325.141,139.449z M321.911,137.887h3.24c-0.044-0.479-0.168-0.84-0.371-1.079
			c-0.313-0.372-0.72-0.559-1.219-0.559c-0.452,0-0.831,0.148-1.14,0.445C322.114,136.992,321.944,137.389,321.911,137.887z"/>
		<path fill="#1F1A17" d="M327.816,141.285v-5.702h0.886v0.864c0.226-0.404,0.434-0.671,0.625-0.8s0.401-0.193,0.631-0.193
			c0.332,0,0.669,0.104,1.011,0.312l-0.338,0.896c-0.241-0.14-0.481-0.209-0.722-0.209c-0.215,0-0.408,0.063-0.579,0.19
			s-0.293,0.304-0.366,0.529c-0.109,0.343-0.164,0.719-0.164,1.127v2.985H327.816z"/>
	</g>
	<polygon fill-rule="evenodd" clip-rule="evenodd" fill="#FFFFFF" points="159.765,36.213 160.279,42.022 163.366,46.652 
		167.974,50.06 173.118,52.289 178.927,52.289 184.05,50.06 188.144,46.652 191.058,42.022 192.087,36.213 191.058,30.405 
		188.144,25.796 184.05,22.367 178.927,20.138 173.118,20.138 167.974,22.367 163.366,25.796 160.279,30.405 159.765,36.213 	"/>
	<polygon fill="#131516" points="160.065,42.172 160.537,42.001 160.022,36.192 159.508,36.235 160.022,42.043 160.065,42.172 
		160.022,42.043 160.044,42.108 160.065,42.172 	"/>
	<polygon fill="#131516" points="163.216,46.845 163.58,46.502 160.494,41.894 160.065,42.172 163.151,46.781 163.216,46.845 
		163.151,46.781 163.173,46.823 163.216,46.845 	"/>
	<polygon fill="#131516" points="167.867,50.296 168.124,49.867 163.516,46.438 163.216,46.845 167.824,50.274 167.867,50.296 
		167.824,50.274 167.846,50.296 167.867,50.296 	"/>
	<polygon fill="#131516" points="173.118,52.546 173.204,52.054 168.082,49.824 167.867,50.296 173.011,52.525 173.118,52.546 
		173.011,52.525 173.054,52.546 173.118,52.546 	"/>
	<polygon fill="#131516" points="179.013,52.525 178.927,52.032 173.118,52.032 173.118,52.546 178.927,52.546 179.013,52.525 
		178.927,52.546 178.97,52.546 179.013,52.525 	"/>
	<polygon fill="#131516" points="184.221,50.253 183.942,49.824 178.819,52.054 179.013,52.525 184.156,50.296 184.221,50.253 
		184.156,50.296 184.178,50.296 184.221,50.253 	"/>
	<polygon fill="#131516" points="188.379,46.781 187.993,46.459 183.878,49.867 184.221,50.253 188.314,46.845 188.379,46.781 
		188.314,46.845 188.357,46.823 188.379,46.781 	"/>
	<polygon fill="#131516" points="191.315,42.065 190.844,41.894 187.929,46.502 188.379,46.781 191.272,42.172 191.315,42.065 
		191.272,42.172 191.294,42.129 191.315,42.065 	"/>
	<polygon fill="#131516" points="192.344,36.17 191.83,36.17 190.801,41.979 191.315,42.065 192.344,36.256 192.344,36.17 
		192.344,36.256 192.344,36.213 192.344,36.17 	"/>
	<polygon fill="#131516" points="191.272,30.276 190.801,30.448 191.83,36.256 192.344,36.17 191.315,30.362 191.272,30.276 
		191.315,30.362 191.294,30.319 191.272,30.276 	"/>
	<polygon fill="#131516" points="188.314,25.582 187.929,25.925 190.844,30.533 191.272,30.276 188.379,25.646 188.314,25.582 
		188.379,25.646 188.357,25.625 188.314,25.582 	"/>
	<polygon fill="#131516" points="184.156,22.131 183.878,22.56 187.993,25.989 188.314,25.582 184.221,22.174 184.156,22.131 
		184.221,22.174 184.178,22.152 184.156,22.131 	"/>
	<polygon fill="#131516" points="178.927,19.88 178.819,20.374 183.942,22.603 184.156,22.131 179.013,19.902 178.927,19.88 
		179.013,19.902 178.97,19.88 178.927,19.88 	"/>
	<polygon fill="#131516" points="173.011,19.902 173.118,20.395 178.927,20.395 178.927,19.88 173.118,19.88 173.011,19.902 
		173.118,19.88 173.054,19.88 173.011,19.902 	"/>
	<polygon fill="#131516" points="167.824,22.174 168.082,22.603 173.204,20.374 173.011,19.902 167.867,22.131 167.824,22.174 
		167.867,22.131 167.846,22.152 167.824,22.174 	"/>
	<polygon fill="#131516" points="163.151,25.646 163.516,25.989 168.124,22.581 167.824,22.174 163.216,25.582 163.151,25.646 
		163.216,25.582 163.173,25.604 163.151,25.646 	"/>
	<polygon fill="#131516" points="160.022,30.383 160.494,30.555 163.58,25.925 163.151,25.646 160.065,30.255 160.022,30.383 
		160.065,30.255 160.044,30.319 160.022,30.383 	"/>
	<polygon fill="#131516" points="159.508,36.235 160.022,36.235 160.537,30.426 160.022,30.383 159.508,36.192 159.508,36.235 
		159.508,36.192 159.508,36.213 159.508,36.235 	"/>
	<polygon fill="#131516" points="168.103,22.152 167.717,22.367 167.717,50.06 168.231,50.06 168.231,22.367 168.103,22.152 
		168.103,22.152 167.717,21.938 167.717,22.367 	"/>
	<polygon fill="#131516" points="192.216,36.449 192.216,35.999 168.103,22.152 167.846,22.581 191.958,36.449 192.216,36.449 
		192.216,36.449 192.602,36.213 192.216,35.999 	"/>
	
		<rect x="166.127" y="42.888" transform="matrix(-0.8672 0.498 -0.498 -0.8672 357.6375 -9.0854)" fill="#131516" width="27.806" height="0.519"/>
	<polygon fill-rule="evenodd" clip-rule="evenodd" fill="#FFFFFF" points="222.93,36.599 224.13,39.514 226.852,41.722 
		229.938,41.722 232.66,39.514 233.86,36.599 232.66,33.02 229.938,31.305 226.852,31.305 224.13,33.02 222.93,36.599 	"/>
	<polygon fill="#1F1A17" points="224.28,39.3 223.895,39.6 222.694,36.707 223.165,36.514 224.366,39.407 224.28,39.3 
		223.958,39.707 223.916,39.665 223.895,39.6 	"/>
	<polygon fill="#1F1A17" points="226.852,41.465 226.702,41.937 223.958,39.707 224.28,39.3 227.023,41.529 226.852,41.465 
		226.852,41.979 226.767,41.979 226.702,41.937 	"/>
	<polygon fill="#1F1A17" points="229.767,41.529 229.938,41.979 226.852,41.979 226.852,41.465 229.938,41.465 229.767,41.529 
		230.089,41.937 230.024,41.979 229.938,41.979 	"/>
	<polygon fill="#1F1A17" points="232.425,39.407 232.832,39.707 230.089,41.937 229.767,41.529 232.511,39.3 232.425,39.407 
		232.896,39.6 232.875,39.665 232.832,39.707 	"/>
	<polygon fill="#1F1A17" points="233.625,36.685 234.097,36.707 232.896,39.6 232.425,39.407 233.625,36.514 233.625,36.685 
		234.118,36.514 234.14,36.621 234.097,36.707 	"/>
	<polygon fill="#1F1A17" points="232.532,33.234 232.918,32.934 234.118,36.514 233.625,36.685 232.425,33.084 232.532,33.234 
		232.811,32.784 232.875,32.848 232.918,32.934 	"/>
	<polygon fill="#1F1A17" points="229.938,31.562 230.067,31.091 232.811,32.784 232.532,33.234 229.788,31.52 229.938,31.562 
		229.938,31.048 230.003,31.048 230.067,31.091 	"/>
	<polygon fill="#1F1A17" points="226.98,31.52 226.852,31.048 229.938,31.048 229.938,31.562 226.852,31.562 226.98,31.52 
		226.724,31.091 226.788,31.048 226.852,31.048 	"/>
	<polygon fill="#1F1A17" points="224.366,33.084 223.979,32.784 226.724,31.091 226.98,31.52 224.259,33.234 224.366,33.084 
		223.873,32.934 223.916,32.848 223.979,32.784 	"/>
	<polygon fill="#1F1A17" points="223.165,36.514 222.673,36.514 223.873,32.934 224.366,33.084 223.165,36.685 223.165,36.514 
		222.694,36.707 222.651,36.621 222.673,36.514 	"/>
	<polygon fill-rule="evenodd" clip-rule="evenodd" fill="#FFFFFF" points="234.118,205.738 232.918,208.632 230.195,210.861 
		227.109,210.861 224.387,208.632 223.187,205.738 224.387,202.138 227.109,200.423 230.195,200.423 232.918,202.138 
		234.118,205.738 	"/>
	<polygon fill="#1F1A17" points="233.089,208.847 233.153,208.739 234.354,205.824 233.882,205.631 232.682,208.546 
		233.089,208.847 233.089,208.847 233.132,208.804 233.153,208.739 	"/>
	<polygon fill="#1F1A17" points="230.195,211.118 230.346,211.054 233.089,208.847 232.768,208.439 230.024,210.668 
		230.195,211.118 230.195,211.118 230.281,211.118 230.346,211.054 	"/>
	<polygon fill="#1F1A17" points="226.959,211.054 227.109,211.118 230.195,211.118 230.195,210.604 227.109,210.604 
		226.959,211.054 226.959,211.054 227.023,211.118 227.109,211.118 	"/>
	<polygon fill="#1F1A17" points="224.151,208.739 224.216,208.847 226.959,211.054 227.28,210.668 224.537,208.439 224.151,208.739 
		224.151,208.739 224.173,208.804 224.216,208.847 	"/>
	<polygon fill="#1F1A17" points="222.93,205.652 222.951,205.824 224.151,208.739 224.623,208.546 223.423,205.631 222.93,205.652 
		222.93,205.652 222.908,205.738 222.951,205.824 	"/>
	<polygon fill="#1F1A17" points="224.237,201.923 224.13,202.052 222.93,205.652 223.423,205.803 224.623,202.224 224.237,201.923 
		224.237,201.923 224.173,201.966 224.13,202.052 	"/>
	<polygon fill="#1F1A17" points="227.109,200.165 226.98,200.208 224.237,201.923 224.516,202.352 227.259,200.658 227.109,200.165 
		227.109,200.165 227.045,200.165 226.98,200.208 	"/>
	<polygon fill="#1F1A17" points="230.324,200.208 230.195,200.165 227.109,200.165 227.109,200.68 230.195,200.68 230.324,200.208 
		230.324,200.208 230.26,200.165 230.195,200.165 	"/>
	<polygon fill="#1F1A17" points="233.175,202.052 233.067,201.923 230.324,200.208 230.067,200.658 232.789,202.352 
		233.175,202.052 233.175,202.052 233.132,201.966 233.067,201.923 	"/>
	<polygon fill="#1F1A17" points="234.354,205.824 234.375,205.652 233.175,202.052 232.682,202.224 233.882,205.803 
		234.354,205.824 234.354,205.824 234.396,205.738 234.375,205.652 	"/>
	<polygon fill-rule="evenodd" clip-rule="evenodd" fill="#FFFFFF" points="118.827,36.299 120.006,39.214 122.75,41.422 
		125.836,41.422 128.558,39.214 129.758,36.299 128.558,32.72 125.836,31.005 122.75,31.005 120.006,32.72 118.827,36.299 	"/>
	<polygon fill="#1F1A17" points="120.177,39 119.77,39.3 118.591,36.406 119.063,36.192 120.242,39.107 120.177,39 119.856,39.407 
		119.813,39.364 119.77,39.3 	"/>
	<polygon fill="#1F1A17" points="122.75,41.165 122.6,41.636 119.856,39.407 120.177,39 122.921,41.229 122.75,41.165 
		122.75,41.679 122.664,41.679 122.6,41.636 	"/>
	<polygon fill="#1F1A17" points="125.665,41.229 125.836,41.679 122.75,41.679 122.75,41.165 125.836,41.165 125.665,41.229 
		125.986,41.636 125.922,41.679 125.836,41.679 	"/>
	<polygon fill="#1F1A17" points="128.322,39.107 128.729,39.407 125.986,41.636 125.665,41.229 128.408,39 128.322,39.107 
		128.794,39.3 128.772,39.364 128.729,39.407 	"/>
	<polygon fill="#1F1A17" points="129.522,36.385 129.994,36.406 128.794,39.3 128.322,39.107 129.522,36.192 129.522,36.385 
		129.994,36.213 130.037,36.299 129.994,36.406 	"/>
	<polygon fill="#1F1A17" points="128.429,32.934 128.815,32.634 129.994,36.213 129.522,36.385 128.322,32.784 128.429,32.934 
		128.708,32.484 128.772,32.548 128.815,32.634 	"/>
	<polygon fill="#1F1A17" points="125.836,31.262 125.964,30.791 128.708,32.484 128.429,32.934 125.686,31.219 125.836,31.262 
		125.836,30.748 125.9,30.748 125.964,30.791 	"/>
	<polygon fill="#1F1A17" points="122.878,31.219 122.75,30.748 125.836,30.748 125.836,31.262 122.75,31.262 122.878,31.219 
		122.621,30.791 122.685,30.748 122.75,30.748 	"/>
	<polygon fill="#1F1A17" points="120.263,32.784 119.877,32.484 122.621,30.791 122.878,31.219 120.156,32.934 120.263,32.784 
		119.77,32.634 119.792,32.548 119.877,32.484 	"/>
	<polygon fill="#1F1A17" points="119.063,36.192 118.57,36.213 119.77,32.634 120.263,32.784 119.063,36.385 119.063,36.192 
		118.591,36.406 118.548,36.299 118.57,36.213 	"/>
	
		<line fill="none" stroke="#25221E" stroke-width="0" stroke-linecap="square" stroke-miterlimit="10" x1="129.694" y1="36.063" x2="159.958" y2="36.063"/>
	<polygon fill-rule="evenodd" clip-rule="evenodd" fill="#1F1A17" points="159.958,36.063 153.807,32.977 153.807,39.15 
		159.958,36.063 159.958,36.063 	"/>
	
		<line fill="none" stroke="#25221E" stroke-width="0" stroke-linecap="square" stroke-miterlimit="10" x1="192.473" y1="36.235" x2="222.758" y2="36.235"/>
	<polygon fill-rule="evenodd" clip-rule="evenodd" fill="#1F1A17" points="222.758,36.235 216.585,33.148 216.585,39.321 
		222.758,36.235 222.758,36.235 	"/>
	<polygon fill-rule="evenodd" clip-rule="evenodd" fill="#FFFFFF" points="131.344,205.567 130.166,208.461 127.422,210.689 
		124.335,210.689 121.613,208.461 120.413,205.567 121.613,201.966 124.335,200.251 127.422,200.251 130.166,201.966 
		131.344,205.567 	"/>
	<polygon fill="#1F1A17" points="130.315,208.653 130.401,208.567 131.58,205.652 131.108,205.46 129.93,208.375 130.315,208.653 
		130.315,208.653 130.38,208.632 130.401,208.567 	"/>
	<polygon fill="#1F1A17" points="127.422,210.947 127.593,210.883 130.315,208.653 129.994,208.268 127.25,210.497 127.422,210.947 
		127.422,210.947 127.508,210.947 127.593,210.883 	"/>
	<polygon fill="#1F1A17" points="124.186,210.883 124.335,210.947 127.422,210.947 127.422,210.433 124.335,210.433 
		124.186,210.883 124.186,210.883 124.25,210.947 124.335,210.947 	"/>
	<polygon fill="#1F1A17" points="121.378,208.567 121.442,208.653 124.186,210.883 124.507,210.497 121.764,208.268 
		121.378,208.567 121.378,208.567 121.399,208.632 121.442,208.653 	"/>
	<polygon fill="#1F1A17" points="120.177,205.481 120.177,205.652 121.378,208.567 121.849,208.375 120.649,205.46 120.177,205.481 
		120.177,205.481 120.135,205.567 120.177,205.652 	"/>
	<polygon fill="#1F1A17" points="121.463,201.752 121.356,201.88 120.177,205.481 120.649,205.631 121.849,202.052 121.463,201.752 
		121.463,201.752 121.399,201.795 121.356,201.88 	"/>
	<polygon fill="#1F1A17" points="124.335,199.994 124.207,200.037 121.463,201.752 121.742,202.181 124.485,200.466 
		124.335,199.994 124.335,199.994 124.271,199.994 124.207,200.037 	"/>
	<polygon fill="#1F1A17" points="127.551,200.037 127.422,199.994 124.335,199.994 124.335,200.509 127.422,200.509 
		127.551,200.037 127.551,200.037 127.486,199.994 127.422,199.994 	"/>
	<polygon fill="#1F1A17" points="130.401,201.88 130.294,201.752 127.551,200.037 127.293,200.466 130.016,202.181 130.401,201.88 
		130.401,201.88 130.38,201.795 130.294,201.752 	"/>
	<polygon fill="#1F1A17" points="131.58,205.652 131.602,205.481 130.401,201.88 129.908,202.052 131.108,205.631 131.58,205.652 
		131.58,205.652 131.623,205.567 131.602,205.481 	"/>
	
		<line fill="none" stroke="#25221E" stroke-width="0" stroke-linecap="square" stroke-miterlimit="10" x1="223.444" y1="205.781" x2="131.537" y2="205.781"/>
	<polygon fill-rule="evenodd" clip-rule="evenodd" fill="#1F1A17" points="131.537,205.781 137.688,208.868 137.688,202.694 
		131.537,205.781 131.537,205.781 	"/>
	
		<line fill="none" stroke="#25221E" stroke-width="0" stroke-linecap="square" stroke-miterlimit="10" x1="228.545" y1="42.001" x2="228.545" y2="65.472"/>
	<polygon fill-rule="evenodd" clip-rule="evenodd" fill="#1F1A17" points="228.545,65.472 231.632,59.298 225.459,59.298 
		228.545,65.472 228.545,65.472 	"/>
	
		<line fill="none" stroke="#25221E" stroke-width="0" stroke-linecap="square" stroke-miterlimit="10" x1="239.884" y1="66.672" x2="239.884" y2="75.867"/>
	<polygon fill-rule="evenodd" clip-rule="evenodd" fill="#1F1A17" points="239.884,75.867 242.948,69.694 236.797,69.694 
		239.884,75.867 239.884,75.867 	"/>
	
		<line fill="none" stroke="#25221E" stroke-width="0" stroke-linecap="square" stroke-miterlimit="10" x1="218.192" y1="65.879" x2="218.192" y2="75.117"/>
	<polygon fill-rule="evenodd" clip-rule="evenodd" fill="#1F1A17" points="218.192,75.117 221.279,68.965 215.128,68.965 
		218.192,75.117 218.192,75.117 	"/>
	<polygon fill-rule="evenodd" clip-rule="evenodd" fill="#FFFFFF" points="91.714,36.771 92.914,39.665 95.658,41.894 
		98.723,41.894 101.466,39.665 102.667,36.771 101.466,33.17 98.723,31.477 95.658,31.477 92.914,33.17 91.714,36.771 	"/>
	<polygon fill="#1F1A17" points="93.085,39.472 92.678,39.771 91.478,36.856 91.95,36.664 93.15,39.579 93.085,39.472 
		92.764,39.879 92.7,39.836 92.678,39.771 	"/>
	<polygon fill="#1F1A17" points="95.658,41.636 95.486,42.086 92.764,39.879 93.085,39.472 95.808,41.701 95.658,41.636 
		95.658,42.151 95.572,42.151 95.486,42.086 	"/>
	<polygon fill="#1F1A17" points="98.572,41.701 98.723,42.151 95.658,42.151 95.658,41.636 98.723,41.636 98.572,41.701 
		98.894,42.086 98.83,42.151 98.723,42.151 	"/>
	<polygon fill="#1F1A17" points="101.23,39.579 101.616,39.879 98.894,42.086 98.572,41.701 101.294,39.472 101.23,39.579 
		101.702,39.771 101.68,39.836 101.616,39.879 	"/>
	<polygon fill="#1F1A17" points="102.409,36.856 102.902,36.856 101.702,39.771 101.23,39.579 102.431,36.664 102.409,36.856 
		102.902,36.685 102.945,36.771 102.902,36.856 	"/>
	<polygon fill="#1F1A17" points="101.337,33.384 101.702,33.105 102.902,36.685 102.409,36.856 101.23,33.255 101.337,33.384 
		101.595,32.956 101.68,32.998 101.702,33.105 	"/>
	<polygon fill="#1F1A17" points="98.723,31.712 98.873,31.241 101.595,32.956 101.337,33.384 98.594,31.691 98.723,31.712 
		98.723,31.219 98.808,31.219 98.873,31.241 	"/>
	<polygon fill="#1F1A17" points="95.786,31.691 95.658,31.219 98.723,31.219 98.723,31.712 95.658,31.712 95.786,31.691 
		95.507,31.241 95.572,31.219 95.658,31.219 	"/>
	<polygon fill="#1F1A17" points="93.15,33.255 92.786,32.956 95.507,31.241 95.786,31.691 93.042,33.384 93.15,33.255 
		92.678,33.105 92.7,32.998 92.786,32.956 	"/>
	<polygon fill="#1F1A17" points="91.95,36.664 91.478,36.685 92.678,33.105 93.15,33.255 91.971,36.856 91.95,36.664 91.478,36.856 
		91.457,36.771 91.478,36.685 	"/>
	<polygon fill-rule="evenodd" clip-rule="evenodd" fill="#FFFFFF" points="60.721,36.149 59.521,33.255 56.777,31.026 
		53.712,31.026 50.969,33.255 49.769,36.149 50.969,39.75 53.712,41.465 56.777,41.465 59.521,39.75 60.721,36.149 	"/>
	<polygon fill="#1F1A17" points="59.349,33.448 59.756,33.148 60.957,36.063 60.485,36.256 59.285,33.341 59.349,33.448 
		59.692,33.041 59.735,33.084 59.756,33.148 	"/>
	<polygon fill="#1F1A17" points="56.777,31.284 56.949,30.833 59.692,33.041 59.349,33.448 56.627,31.219 56.777,31.284 
		56.777,30.769 56.884,30.769 56.949,30.833 	"/>
	<polygon fill="#1F1A17" points="53.862,31.219 53.712,30.769 56.777,30.769 56.777,31.284 53.712,31.284 53.862,31.219 
		53.541,30.833 53.626,30.769 53.712,30.769 	"/>
	<polygon fill="#1F1A17" points="51.205,33.341 50.819,33.041 53.541,30.833 53.862,31.219 51.14,33.448 51.205,33.341 
		50.733,33.148 50.754,33.084 50.819,33.041 	"/>
	<polygon fill="#1F1A17" points="50.025,36.085 49.533,36.063 50.733,33.148 51.205,33.341 50.004,36.256 50.025,36.085 
		49.533,36.235 49.511,36.149 49.533,36.063 	"/>
	<polygon fill="#1F1A17" points="51.097,39.536 50.733,39.836 49.533,36.235 50.025,36.085 51.205,39.665 51.097,39.536 
		50.84,39.964 50.754,39.922 50.733,39.836 	"/>
	<polygon fill="#1F1A17" points="53.712,41.208 53.562,41.679 50.84,39.964 51.097,39.536 53.841,41.229 53.712,41.208 
		53.712,41.722 53.626,41.722 53.562,41.679 	"/>
	<polygon fill="#1F1A17" points="56.648,41.229 56.777,41.722 53.712,41.722 53.712,41.208 56.777,41.208 56.648,41.229 
		56.927,41.679 56.863,41.722 56.777,41.722 	"/>
	<polygon fill="#1F1A17" points="59.285,39.665 59.649,39.964 56.927,41.679 56.648,41.229 59.392,39.536 59.285,39.665 
		59.756,39.836 59.735,39.922 59.649,39.964 	"/>
	<polygon fill="#1F1A17" points="60.485,36.256 60.957,36.235 59.756,39.836 59.285,39.665 60.464,36.085 60.485,36.256 
		60.957,36.063 61,36.149 60.957,36.235 	"/>
	
		<line fill="none" stroke="#25221E" stroke-width="0" stroke-linecap="square" stroke-miterlimit="10" x1="61.278" y1="36.385" x2="91.542" y2="36.385"/>
	<polygon fill-rule="evenodd" clip-rule="evenodd" fill="#1F1A17" points="91.542,36.385 85.37,33.32 85.37,39.472 91.542,36.385 
		91.542,36.385 	"/>
	<polygon fill-rule="evenodd" clip-rule="evenodd" fill="#FFFFFF" points="103.695,205.953 102.495,208.847 99.751,211.075 
		96.665,211.075 93.943,208.847 92.743,205.953 93.943,202.352 96.665,200.637 99.751,200.637 102.495,202.352 103.695,205.953 	"/>
	<polygon fill="#1F1A17" points="102.645,209.061 102.73,208.953 103.931,206.038 103.459,205.846 102.259,208.761 102.645,209.061 
		102.645,209.061 102.709,209.018 102.73,208.953 	"/>
	<polygon fill="#1F1A17" points="99.751,211.333 99.923,211.269 102.645,209.061 102.323,208.653 99.602,210.883 99.751,211.333 
		99.751,211.333 99.837,211.333 99.923,211.269 	"/>
	<polygon fill="#1F1A17" points="96.515,211.269 96.665,211.333 99.751,211.333 99.751,210.818 96.665,210.818 96.515,211.269 
		96.515,211.269 96.579,211.333 96.665,211.333 	"/>
	<polygon fill="#1F1A17" points="93.707,208.953 93.771,209.061 96.515,211.269 96.836,210.883 94.093,208.653 93.707,208.953 
		93.707,208.953 93.729,209.018 93.771,209.061 	"/>
	<polygon fill="#1F1A17" points="92.507,205.867 92.507,206.038 93.707,208.953 94.179,208.761 92.979,205.846 92.507,205.867 
		92.507,205.867 92.464,205.953 92.507,206.038 	"/>
	<polygon fill="#1F1A17" points="93.814,202.138 93.707,202.266 92.507,205.867 92.979,206.018 94.179,202.438 93.814,202.138 
		93.814,202.138 93.729,202.181 93.707,202.266 	"/>
	<polygon fill="#1F1A17" points="96.665,200.38 96.536,200.423 93.814,202.138 94.071,202.566 96.815,200.873 96.665,200.38 
		96.665,200.38 96.601,200.38 96.536,200.423 	"/>
	<polygon fill="#1F1A17" points="99.88,200.423 99.751,200.38 96.665,200.38 96.665,200.895 99.751,200.895 99.88,200.423 
		99.88,200.423 99.815,200.38 99.751,200.38 	"/>
	<polygon fill="#1F1A17" points="102.73,202.266 102.624,202.138 99.88,200.423 99.623,200.873 102.345,202.566 102.73,202.266 
		102.73,202.266 102.709,202.181 102.624,202.138 	"/>
	<polygon fill="#1F1A17" points="103.931,206.038 103.931,205.867 102.73,202.266 102.238,202.438 103.438,206.018 103.931,206.038 
		103.931,206.038 103.952,205.953 103.931,205.867 	"/>
	
		<line fill="none" stroke="#25221E" stroke-width="0" stroke-linecap="square" stroke-miterlimit="10" x1="92.979" y1="205.867" x2="62.693" y2="205.867"/>
	<polygon fill-rule="evenodd" clip-rule="evenodd" fill="#1F1A17" points="62.693,205.867 68.866,208.953 68.866,202.78 
		62.693,205.867 62.693,205.867 	"/>
	<polygon fill-rule="evenodd" clip-rule="evenodd" fill="#FFFFFF" points="52.147,162.377 53.348,165.271 56.091,167.499 
		59.156,167.499 61.9,165.271 63.1,162.377 61.9,158.775 59.156,157.082 56.091,157.082 53.348,158.775 52.147,162.377 	"/>
	<polygon fill="#1F1A17" points="53.52,165.077 53.112,165.377 51.912,162.462 52.383,162.27 53.583,165.185 53.52,165.077 
		53.198,165.484 53.133,165.441 53.112,165.377 	"/>
	<polygon fill="#1F1A17" points="56.091,167.242 55.92,167.692 53.198,165.484 53.52,165.077 56.241,167.307 56.091,167.242 
		56.091,167.757 55.984,167.757 55.92,167.692 	"/>
	<polygon fill="#1F1A17" points="59.006,167.307 59.156,167.757 56.091,167.757 56.091,167.242 59.156,167.242 59.006,167.307 
		59.328,167.692 59.242,167.757 59.156,167.757 	"/>
	<polygon fill="#1F1A17" points="61.664,165.185 62.05,165.484 59.328,167.692 59.006,167.307 61.729,165.077 61.664,165.185 
		62.136,165.377 62.114,165.441 62.05,165.484 	"/>
	<polygon fill="#1F1A17" points="62.843,162.462 63.336,162.462 62.136,165.377 61.664,165.185 62.864,162.27 62.843,162.462 
		63.336,162.291 63.357,162.377 63.336,162.462 	"/>
	<polygon fill="#1F1A17" points="61.771,158.99 62.136,158.711 63.336,162.291 62.843,162.462 61.664,158.861 61.771,158.99 
		62.028,158.562 62.114,158.604 62.136,158.711 	"/>
	<polygon fill="#1F1A17" points="59.156,157.34 59.306,156.847 62.028,158.562 61.771,158.99 59.028,157.297 59.156,157.34 
		59.156,156.825 59.242,156.825 59.306,156.847 	"/>
	<polygon fill="#1F1A17" points="56.22,157.297 56.091,156.825 59.156,156.825 59.156,157.34 56.091,157.34 56.22,157.297 
		55.941,156.847 56.005,156.825 56.091,156.825 	"/>
	<polygon fill="#1F1A17" points="53.583,158.861 53.219,158.562 55.941,156.847 56.22,157.297 53.477,158.99 53.583,158.861 
		53.112,158.711 53.133,158.604 53.219,158.562 	"/>
	<polygon fill="#1F1A17" points="52.383,162.27 51.912,162.291 53.112,158.711 53.583,158.861 52.405,162.462 52.383,162.27 
		51.912,162.462 51.869,162.377 51.912,162.291 	"/>
	<polyline fill="none" stroke="#242729" stroke-width="0" stroke-linecap="square" stroke-miterlimit="10" points="65.308,140.213 
		65.308,101.91 0.257,101.91 0.257,140.213 65.308,140.213 	"/>
	<g>
		<path fill="#1F1A17" d="M25.841,122.924l1.06,0.263c-0.223,0.856-0.622,1.509-1.2,1.957c-0.577,0.449-1.283,0.674-2.117,0.674
			c-0.863,0-1.565-0.172-2.106-0.518c-0.541-0.346-0.953-0.846-1.235-1.501c-0.283-0.655-0.424-1.358-0.424-2.109
			c0-0.82,0.16-1.535,0.479-2.146c0.318-0.61,0.772-1.073,1.36-1.391c0.588-0.316,1.236-0.475,1.942-0.475
			c0.801,0,1.475,0.2,2.021,0.601c0.546,0.401,0.927,0.965,1.142,1.691l-1.043,0.242c-0.186-0.573-0.456-0.99-0.809-1.251
			c-0.353-0.262-0.797-0.393-1.333-0.393c-0.616,0-1.13,0.146-1.543,0.436c-0.414,0.289-0.704,0.679-0.872,1.167
			c-0.167,0.489-0.251,0.993-0.251,1.512c0,0.669,0.1,1.254,0.298,1.753c0.199,0.499,0.507,0.873,0.926,1.119
			c0.419,0.247,0.872,0.371,1.36,0.371c0.594,0,1.097-0.168,1.508-0.505C25.417,124.086,25.695,123.586,25.841,122.924z"/>
		<path fill="#1F1A17" d="M28.272,125.684v-7.871h0.983v2.824c0.459-0.522,1.038-0.784,1.737-0.784c0.43,0,0.803,0.083,1.12,0.25
			c0.317,0.166,0.544,0.396,0.68,0.689c0.137,0.294,0.205,0.72,0.205,1.278v3.613h-0.983v-3.613c0-0.483-0.106-0.835-0.32-1.055
			c-0.213-0.221-0.515-0.331-0.904-0.331c-0.292,0-0.565,0.075-0.822,0.224s-0.44,0.35-0.549,0.604
			c-0.109,0.254-0.164,0.605-0.164,1.053v3.119H28.272z"/>
		<path fill="#1F1A17" d="M34.411,118.924v-1.111h0.983v1.111H34.411z M34.411,125.684v-5.702h0.983v5.702H34.411z"/>
		<path fill="#1F1A17" d="M36.377,125.684v-7.871h0.983v7.871H36.377z"/>
		<path fill="#1F1A17" d="M38.371,125.684v-7.871h0.983v7.871H38.371z"/>
		<path fill="#1F1A17" d="M44.359,123.848l1.016,0.123c-0.16,0.584-0.457,1.036-0.891,1.358s-0.987,0.483-1.661,0.483
			c-0.849,0-1.521-0.257-2.019-0.771c-0.498-0.514-0.746-1.234-0.746-2.161c0-0.959,0.251-1.704,0.754-2.233
			c0.503-0.529,1.155-0.795,1.956-0.795c0.776,0,1.41,0.26,1.902,0.778c0.492,0.52,0.737,1.25,0.737,2.191
			c0,0.057-0.002,0.143-0.005,0.258h-4.327c0.036,0.626,0.216,1.105,0.541,1.438s0.729,0.499,1.213,0.499
			c0.36,0,0.668-0.093,0.923-0.279C44.007,124.553,44.209,124.256,44.359,123.848z M41.129,122.285h3.24
			c-0.043-0.479-0.167-0.84-0.372-1.079c-0.313-0.372-0.719-0.559-1.218-0.559c-0.452,0-0.832,0.148-1.139,0.445
			C41.333,121.391,41.163,121.787,41.129,122.285z"/>
		<path fill="#1F1A17" d="M47.035,125.684v-5.702h0.885v0.864c0.226-0.404,0.435-0.671,0.625-0.8
			c0.191-0.129,0.402-0.193,0.631-0.193c0.331,0,0.668,0.104,1.011,0.312l-0.339,0.896c-0.24-0.14-0.481-0.209-0.721-0.209
			c-0.215,0-0.408,0.063-0.579,0.19c-0.171,0.127-0.293,0.304-0.366,0.529c-0.109,0.343-0.164,0.719-0.164,1.127v2.985H47.035z"/>
	</g>
	<polygon fill-rule="evenodd" clip-rule="evenodd" fill="#FFFFFF" points="0.257,176.438 1.458,179.353 4.201,181.561 
		7.266,181.561 10.009,179.353 11.209,176.438 10.009,172.858 7.266,171.144 4.201,171.144 1.458,172.858 0.257,176.438 	"/>
	<polygon fill="#1F1A17" points="1.629,179.139 1.222,179.438 0.021,176.545 0.493,176.352 1.693,179.245 1.629,179.139 
		1.307,179.546 1.243,179.503 1.222,179.438 	"/>
	<polygon fill="#1F1A17" points="4.201,181.303 4.029,181.774 1.307,179.546 1.629,179.139 4.351,181.367 4.201,181.303 
		4.201,181.817 4.115,181.817 4.029,181.774 	"/>
	<polygon fill="#1F1A17" points="7.116,181.367 7.266,181.817 4.201,181.817 4.201,181.303 7.266,181.303 7.116,181.367 
		7.438,181.774 7.373,181.817 7.266,181.817 	"/>
	<polygon fill="#1F1A17" points="9.773,179.245 10.181,179.546 7.438,181.774 7.116,181.367 9.838,179.139 9.773,179.245 
		10.245,179.438 10.224,179.503 10.181,179.546 	"/>
	<polygon fill="#1F1A17" points="10.952,176.523 11.445,176.545 10.245,179.438 9.773,179.245 10.974,176.352 10.952,176.523 
		11.445,176.352 11.488,176.459 11.445,176.545 	"/>
	<polygon fill="#1F1A17" points="9.881,173.072 10.245,172.772 11.445,176.352 10.952,176.523 9.773,172.922 9.881,173.072 
		10.138,172.622 10.224,172.687 10.245,172.772 	"/>
	<polygon fill="#1F1A17" points="7.266,171.4 7.416,170.929 10.138,172.622 9.881,173.072 7.137,171.357 7.266,171.4 7.266,170.886 
		7.352,170.886 7.416,170.929 	"/>
	<polygon fill="#1F1A17" points="4.33,171.357 4.201,170.886 7.266,170.886 7.266,171.4 4.201,171.4 4.33,171.357 4.051,170.929 
		4.115,170.886 4.201,170.886 	"/>
	<polygon fill="#1F1A17" points="1.693,172.922 1.329,172.622 4.051,170.929 4.33,171.357 1.586,173.072 1.693,172.922 
		1.222,172.772 1.243,172.687 1.329,172.622 	"/>
	<polygon fill="#1F1A17" points="0.493,176.352 0.021,176.352 1.222,172.772 1.693,172.922 0.514,176.523 0.493,176.352 
		0.021,176.545 0,176.459 0.021,176.352 	"/>
	<polygon fill-rule="evenodd" clip-rule="evenodd" fill="#FFFFFF" points="1.907,66.136 3.108,69.051 5.851,71.259 8.916,71.259 
		11.66,69.051 12.86,66.136 11.66,62.557 8.916,60.842 5.851,60.842 3.108,62.557 1.907,66.136 	"/>
	<polygon fill="#1F1A17" points="3.279,68.837 2.872,69.137 1.672,66.243 2.143,66.05 3.343,68.944 3.279,68.837 2.958,69.244 
		2.894,69.201 2.872,69.137 	"/>
	<polygon fill="#1F1A17" points="5.851,71.001 5.68,71.473 2.958,69.244 3.279,68.837 6.001,71.066 5.851,71.001 5.851,71.516 
		5.766,71.516 5.68,71.473 	"/>
	<polygon fill="#1F1A17" points="8.766,71.066 8.916,71.516 5.851,71.516 5.851,71.001 8.916,71.001 8.766,71.066 9.088,71.473 
		9.023,71.516 8.916,71.516 	"/>
	<polygon fill="#1F1A17" points="11.424,68.944 11.831,69.244 9.088,71.473 8.766,71.066 11.51,68.837 11.424,68.944 11.896,69.137 
		11.874,69.201 11.831,69.244 	"/>
	<polygon fill="#1F1A17" points="12.624,66.222 13.096,66.243 11.896,69.137 11.424,68.944 12.624,66.05 12.624,66.222 
		13.096,66.05 13.139,66.136 13.096,66.243 	"/>
	<polygon fill="#1F1A17" points="11.531,62.771 11.896,62.471 13.096,66.05 12.624,66.222 11.424,62.621 11.531,62.771 
		11.788,62.321 11.874,62.385 11.896,62.471 	"/>
	<polygon fill="#1F1A17" points="8.916,61.099 9.066,60.627 11.788,62.321 11.531,62.771 8.788,61.056 8.916,61.099 8.916,60.584 
		9.002,60.584 9.066,60.627 	"/>
	<polygon fill="#1F1A17" points="5.98,61.056 5.851,60.584 8.916,60.584 8.916,61.099 5.851,61.099 5.98,61.056 5.723,60.627 
		5.766,60.584 5.851,60.584 	"/>
	<polygon fill="#1F1A17" points="3.365,62.621 2.979,62.321 5.723,60.627 5.98,61.056 3.258,62.771 3.365,62.621 2.872,62.471 
		2.894,62.385 2.979,62.321 	"/>
	<polygon fill="#1F1A17" points="2.143,66.05 1.672,66.05 2.872,62.471 3.365,62.621 2.165,66.222 2.143,66.05 1.672,66.243 
		1.65,66.136 1.672,66.05 	"/>
	<polygon fill-rule="evenodd" clip-rule="evenodd" fill="#FFFFFF" points="49.254,77.196 50.454,80.111 53.198,82.34 56.263,82.34 
		59.006,80.111 60.207,77.196 59.006,73.617 56.263,71.902 53.198,71.902 50.454,73.617 49.254,77.196 	"/>
	<polygon fill="#1F1A17" points="50.626,79.918 50.219,80.197 49.018,77.303 49.49,77.11 50.69,80.004 50.626,79.918 50.304,80.304 
		50.24,80.261 50.219,80.197 	"/>
	<polygon fill="#1F1A17" points="53.198,82.083 53.026,82.533 50.304,80.304 50.626,79.918 53.348,82.126 53.198,82.083 
		53.198,82.598 53.112,82.598 53.026,82.533 	"/>
	<polygon fill="#1F1A17" points="56.113,82.126 56.263,82.598 53.198,82.598 53.198,82.083 56.263,82.083 56.113,82.126 
		56.434,82.533 56.37,82.598 56.263,82.598 	"/>
	<polygon fill="#1F1A17" points="58.771,80.004 59.178,80.304 56.434,82.533 56.113,82.126 58.856,79.918 58.771,80.004 
		59.242,80.197 59.221,80.261 59.178,80.304 	"/>
	<polygon fill="#1F1A17" points="59.971,77.282 60.442,77.303 59.242,80.197 58.771,80.004 59.971,77.11 59.971,77.282 
		60.442,77.132 60.485,77.218 60.442,77.303 	"/>
	<polygon fill="#1F1A17" points="58.877,73.831 59.242,73.531 60.442,77.132 59.971,77.282 58.771,73.702 58.877,73.831 
		59.135,73.402 59.221,73.445 59.242,73.531 	"/>
	<polygon fill="#1F1A17" points="56.263,72.159 56.413,71.688 59.135,73.402 58.877,73.831 56.134,72.116 56.263,72.159 
		56.263,71.645 56.349,71.645 56.413,71.688 	"/>
	<polygon fill="#1F1A17" points="53.326,72.116 53.198,71.645 56.263,71.645 56.263,72.159 53.198,72.159 53.326,72.116 
		53.069,71.688 53.133,71.645 53.198,71.645 	"/>
	<polygon fill="#1F1A17" points="50.711,73.702 50.326,73.402 53.069,71.688 53.326,72.116 50.604,73.831 50.711,73.702 
		50.219,73.531 50.24,73.445 50.326,73.402 	"/>
	<polygon fill="#1F1A17" points="49.49,77.11 49.018,77.132 50.219,73.531 50.711,73.702 49.511,77.282 49.49,77.11 49.018,77.303 
		48.997,77.218 49.018,77.132 	"/>
	
		<line fill="none" stroke="#25221E" stroke-width="0" stroke-linecap="square" stroke-miterlimit="10" x1="7.48" y1="71.495" x2="7.48" y2="101.76"/>
	<polygon fill-rule="evenodd" clip-rule="evenodd" fill="#1F1A17" points="7.48,101.76 10.545,95.587 4.394,95.587 7.48,101.76 
		7.48,101.76 	"/>
	
		<line fill="none" stroke="#25221E" stroke-width="0" stroke-linecap="square" stroke-miterlimit="10" x1="57.87" y1="157.146" x2="57.87" y2="140.385"/>
	<polygon fill-rule="evenodd" clip-rule="evenodd" fill="#1F1A17" points="57.87,140.385 54.784,146.558 60.935,146.558 
		57.87,140.385 57.87,140.385 	"/>
	
		<line fill="none" stroke="#25221E" stroke-width="0" stroke-linecap="square" stroke-miterlimit="10" x1="54.227" y1="102.06" x2="54.227" y2="83.005"/>
	<polygon fill-rule="evenodd" clip-rule="evenodd" fill="#1F1A17" points="54.227,83.005 51.14,89.178 57.313,89.178 54.227,83.005 
		54.227,83.005 	"/>
	
		<line fill="none" stroke="#25221E" stroke-width="0" stroke-linecap="square" stroke-miterlimit="10" x1="5.787" y1="140.685" x2="5.787" y2="170.972"/>
	<polygon fill-rule="evenodd" clip-rule="evenodd" fill="#1F1A17" points="5.787,170.972 8.873,164.799 2.701,164.799 
		5.787,170.972 5.787,170.972 	"/>
	<polygon fill-rule="evenodd" clip-rule="evenodd" fill="#FFFFFF" points="51.633,205.288 52.833,202.373 55.577,200.145 
		58.642,200.145 61.385,202.373 62.585,205.288 61.385,208.868 58.642,210.583 55.577,210.583 52.833,208.868 51.633,205.288 	"/>
	<polygon fill="#1F1A17" points="52.662,202.181 52.598,202.287 51.397,205.182 51.869,205.374 53.069,202.48 52.662,202.181 
		52.662,202.181 52.619,202.224 52.598,202.287 	"/>
	<polygon fill="#1F1A17" points="55.577,199.887 55.405,199.951 52.662,202.181 52.983,202.566 55.727,200.358 55.577,199.887 
		55.577,199.887 55.47,199.887 55.405,199.951 	"/>
	<polygon fill="#1F1A17" points="58.813,199.951 58.642,199.887 55.577,199.887 55.577,200.401 58.642,200.401 58.813,199.951 
		58.813,199.951 58.728,199.887 58.642,199.887 	"/>
	<polygon fill="#1F1A17" points="61.621,202.287 61.535,202.181 58.813,199.951 58.492,200.358 61.214,202.566 61.621,202.287 
		61.621,202.287 61.6,202.224 61.535,202.181 	"/>
	<polygon fill="#1F1A17" points="62.821,205.353 62.821,205.182 61.621,202.287 61.149,202.48 62.35,205.374 62.821,205.353 
		62.821,205.353 62.843,205.267 62.821,205.182 	"/>
	<polygon fill="#1F1A17" points="61.514,209.082 61.621,208.953 62.821,205.353 62.329,205.202 61.128,208.782 61.514,209.082 
		61.514,209.082 61.6,209.039 61.621,208.953 	"/>
	<polygon fill="#1F1A17" points="58.642,210.84 58.771,210.797 61.514,209.082 61.235,208.653 58.513,210.368 58.642,210.84 
		58.642,210.84 58.728,210.84 58.771,210.797 	"/>
	<polygon fill="#1F1A17" points="55.427,210.797 55.577,210.84 58.642,210.84 58.642,210.325 55.577,210.325 55.427,210.797 
		55.427,210.797 55.491,210.84 55.577,210.84 	"/>
	<polygon fill="#1F1A17" points="52.598,208.953 52.705,209.082 55.427,210.797 55.706,210.368 52.962,208.653 52.598,208.953 
		52.598,208.953 52.619,209.039 52.705,209.082 	"/>
	<polygon fill="#1F1A17" points="51.397,205.182 51.397,205.353 52.598,208.953 53.069,208.782 51.869,205.202 51.397,205.182 
		51.397,205.182 51.354,205.267 51.397,205.353 	"/>
	
		<line fill="none" stroke="#25221E" stroke-width="0" stroke-linecap="square" stroke-miterlimit="10" x1="57.249" y1="199.887" x2="57.249" y2="168.485"/>
	<polygon fill-rule="evenodd" clip-rule="evenodd" fill="#1F1A17" points="57.249,168.485 54.162,174.658 60.335,174.658 
		57.249,168.485 57.249,168.485 	"/>
	
		<line fill="none" stroke="#25221E" stroke-width="0" stroke-linecap="square" stroke-miterlimit="10" x1="54.955" y1="71.645" x2="54.955" y2="41.358"/>
	<polygon fill-rule="evenodd" clip-rule="evenodd" fill="#1F1A17" points="54.955,41.358 51.869,47.531 58.042,47.531 
		54.955,41.358 54.955,41.358 	"/>
	<g>
		<path fill="#1F1A17" d="M163.134,62.84v-7.871h3.021c0.532,0,0.938,0.025,1.218,0.075c0.394,0.064,0.723,0.187,0.989,0.368
			c0.266,0.181,0.48,0.434,0.642,0.76s0.243,0.684,0.243,1.074c0,0.669-0.217,1.236-0.65,1.699c-0.434,0.464-1.217,0.695-2.35,0.695
			h-2.054v3.2H163.134z M164.194,58.711h2.071c0.685,0,1.171-0.125,1.459-0.376c0.288-0.25,0.432-0.603,0.432-1.058
			c0-0.329-0.085-0.611-0.254-0.846c-0.169-0.234-0.393-0.389-0.669-0.464c-0.179-0.046-0.508-0.07-0.989-0.07h-2.049V58.711z"/>
		<path fill="#1F1A17" d="M172.171,62.84v-0.837c-0.451,0.644-1.065,0.966-1.841,0.966c-0.342,0-0.662-0.064-0.959-0.193
			s-0.517-0.291-0.661-0.486s-0.245-0.434-0.303-0.717c-0.04-0.189-0.06-0.49-0.06-0.902v-3.533h0.983V60.3
			c0,0.505,0.02,0.845,0.06,1.02c0.062,0.254,0.193,0.454,0.394,0.599c0.2,0.145,0.448,0.218,0.743,0.218
			c0.295,0,0.572-0.075,0.831-0.223c0.258-0.148,0.441-0.351,0.548-0.606s0.162-0.627,0.162-1.114v-3.055h0.982v5.702H172.171z"/>
		<path fill="#1F1A17" d="M174.502,62.84v-5.702h0.88v0.8c0.183-0.279,0.425-0.504,0.727-0.674c0.303-0.17,0.646-0.255,1.033-0.255
			c0.43,0,0.782,0.088,1.057,0.263c0.275,0.176,0.47,0.421,0.582,0.736c0.459-0.666,1.057-0.999,1.792-0.999
			c0.576,0,1.019,0.157,1.328,0.47c0.31,0.313,0.465,0.795,0.465,1.447v3.914h-0.979v-3.592c0-0.387-0.032-0.665-0.096-0.835
			s-0.18-0.307-0.347-0.411c-0.168-0.104-0.364-0.156-0.59-0.156c-0.408,0-0.747,0.133-1.017,0.4s-0.404,0.693-0.404,1.281v3.313
			h-0.983v-3.705c0-0.43-0.08-0.752-0.24-0.966c-0.161-0.215-0.423-0.322-0.787-0.322c-0.277,0-0.533,0.072-0.768,0.215
			c-0.235,0.143-0.405,0.353-0.511,0.628c-0.106,0.276-0.159,0.673-0.159,1.192v2.958H174.502z"/>
		<path fill="#1F1A17" d="M184.74,65.025v-7.887h0.896v0.741c0.211-0.29,0.45-0.507,0.716-0.652s0.588-0.218,0.967-0.218
			c0.495,0,0.933,0.125,1.312,0.376s0.665,0.604,0.857,1.061c0.193,0.457,0.29,0.957,0.29,1.5c0,0.583-0.106,1.109-0.319,1.576
			c-0.214,0.467-0.523,0.825-0.93,1.074c-0.405,0.249-0.833,0.373-1.281,0.373c-0.327,0-0.622-0.068-0.882-0.204
			c-0.261-0.136-0.475-0.308-0.643-0.516v2.776H184.74z M185.631,60.021c0,0.734,0.151,1.276,0.454,1.627
			c0.302,0.351,0.668,0.526,1.098,0.526c0.438,0,0.812-0.182,1.123-0.545c0.312-0.363,0.467-0.926,0.467-1.688
			c0-0.727-0.151-1.271-0.456-1.632c-0.304-0.361-0.667-0.542-1.09-0.542c-0.419,0-0.789,0.192-1.112,0.577
			C185.792,58.728,185.631,59.288,185.631,60.021z"/>
	</g>
	<g>
		<path fill="#1F1A17" d="M214.297,52.139l1-0.086c0.047,0.394,0.157,0.717,0.33,0.969s0.441,0.456,0.806,0.612
			s0.774,0.234,1.229,0.234c0.404,0,0.762-0.059,1.071-0.177s0.54-0.28,0.691-0.486c0.15-0.206,0.227-0.431,0.227-0.674
			c0-0.247-0.073-0.463-0.219-0.647c-0.146-0.185-0.386-0.339-0.722-0.465c-0.215-0.082-0.689-0.21-1.426-0.384
			c-0.735-0.173-1.251-0.337-1.546-0.491c-0.383-0.197-0.668-0.441-0.855-0.733c-0.188-0.292-0.281-0.618-0.281-0.98
			c0-0.397,0.115-0.769,0.345-1.114s0.564-0.607,1.005-0.787s0.931-0.269,1.47-0.269c0.594,0,1.117,0.094,1.571,0.282
			c0.453,0.188,0.802,0.465,1.046,0.83c0.244,0.365,0.375,0.779,0.394,1.24l-1.017,0.075c-0.055-0.498-0.239-0.873-0.555-1.127
			c-0.314-0.254-0.78-0.381-1.396-0.381c-0.642,0-1.108,0.116-1.401,0.347c-0.294,0.231-0.44,0.509-0.44,0.835
			c0,0.283,0.104,0.515,0.312,0.698c0.204,0.183,0.737,0.37,1.599,0.561s1.452,0.359,1.772,0.502
			c0.467,0.211,0.811,0.479,1.033,0.803c0.222,0.324,0.333,0.697,0.333,1.12c0,0.418-0.122,0.813-0.366,1.184
			c-0.244,0.371-0.595,0.659-1.052,0.865c-0.457,0.206-0.972,0.309-1.543,0.309c-0.726,0-1.333-0.104-1.822-0.312
			c-0.49-0.208-0.875-0.52-1.153-0.937S214.312,52.666,214.297,52.139z"/>
		<path fill="#1F1A17" d="M219.634,56.853v-7.887h0.896v0.741c0.211-0.29,0.45-0.507,0.716-0.652s0.588-0.218,0.967-0.218
			c0.495,0,0.933,0.125,1.312,0.376s0.665,0.604,0.857,1.061c0.193,0.457,0.29,0.957,0.29,1.5c0,0.583-0.106,1.109-0.319,1.576
			c-0.214,0.467-0.523,0.825-0.93,1.074c-0.405,0.249-0.833,0.373-1.281,0.373c-0.327,0-0.622-0.068-0.882-0.204
			c-0.261-0.136-0.475-0.308-0.643-0.516v2.776H219.634z M220.524,51.849c0,0.734,0.151,1.276,0.454,1.627
			c0.302,0.351,0.668,0.526,1.098,0.526c0.438,0,0.812-0.182,1.123-0.545c0.312-0.363,0.467-0.926,0.467-1.688
			c0-0.727-0.151-1.271-0.456-1.632c-0.304-0.361-0.667-0.542-1.09-0.542c-0.419,0-0.789,0.192-1.112,0.577
			C220.686,50.556,220.524,51.116,220.524,51.849z"/>
		<path fill="#1F1A17" d="M226.552,54.668v-7.871h0.983v7.871H226.552z"/>
		<path fill="#1F1A17" d="M228.573,47.908v-1.111h0.983v1.111H228.573z M228.573,54.668v-5.702h0.983v5.702H228.573z"/>
		<path fill="#1F1A17" d="M232.697,53.804l0.143,0.854c-0.277,0.057-0.524,0.086-0.743,0.086c-0.357,0-0.634-0.056-0.831-0.167
			c-0.196-0.111-0.335-0.257-0.415-0.438s-0.12-0.561-0.12-1.141v-3.28h-0.722v-0.752h0.722v-1.412l0.978-0.58v1.992h0.989v0.752
			h-0.989v3.334c0,0.276,0.018,0.453,0.053,0.532c0.034,0.079,0.091,0.142,0.169,0.188s0.19,0.07,0.336,0.07
			C232.375,53.841,232.519,53.829,232.697,53.804z"/>
		<path fill="#1F1A17" d="M235.728,53.804l0.143,0.854c-0.277,0.057-0.524,0.086-0.743,0.086c-0.357,0-0.634-0.056-0.831-0.167
			c-0.196-0.111-0.335-0.257-0.415-0.438s-0.12-0.561-0.12-1.141v-3.28h-0.722v-0.752h0.722v-1.412l0.978-0.58v1.992h0.989v0.752
			h-0.989v3.334c0,0.276,0.018,0.453,0.053,0.532c0.034,0.079,0.091,0.142,0.169,0.188s0.19,0.07,0.336,0.07
			C235.405,53.841,235.549,53.829,235.728,53.804z"/>
		<path fill="#1F1A17" d="M240.561,52.832l1.017,0.124c-0.161,0.583-0.458,1.037-0.891,1.358c-0.434,0.322-0.987,0.483-1.661,0.483
			c-0.849,0-1.522-0.257-2.02-0.771s-0.745-1.234-0.745-2.161c0-0.959,0.251-1.704,0.754-2.233c0.502-0.53,1.154-0.795,1.956-0.795
			c0.775,0,1.409,0.26,1.901,0.779c0.491,0.519,0.737,1.249,0.737,2.19c0,0.058-0.002,0.143-0.005,0.258h-4.328
			c0.037,0.626,0.217,1.106,0.541,1.439s0.729,0.5,1.213,0.5c0.361,0,0.669-0.093,0.924-0.279S240.411,53.24,240.561,52.832z
			 M237.331,51.27h3.24c-0.044-0.48-0.168-0.839-0.371-1.08c-0.313-0.372-0.72-0.558-1.219-0.558c-0.452,0-0.831,0.148-1.14,0.446
			C237.534,50.375,237.364,50.772,237.331,51.27z"/>
		<path fill="#1F1A17" d="M243.215,54.668v-5.702h0.886v0.865c0.226-0.405,0.434-0.671,0.625-0.8s0.401-0.193,0.631-0.193
			c0.332,0,0.669,0.104,1.011,0.312l-0.338,0.897c-0.241-0.14-0.481-0.209-0.722-0.209c-0.215,0-0.408,0.063-0.579,0.19
			s-0.293,0.303-0.366,0.529c-0.109,0.344-0.164,0.72-0.164,1.127v2.985H243.215z"/>
	</g>
	<g>
		<path fill="#1F1A17" d="M43.007,188.201l1-0.085c0.047,0.394,0.158,0.716,0.331,0.969c0.173,0.252,0.442,0.456,0.806,0.612
			c0.364,0.155,0.774,0.233,1.229,0.233c0.404,0,0.761-0.06,1.071-0.178s0.54-0.279,0.691-0.485
			c0.151-0.206,0.227-0.431,0.227-0.674c0-0.247-0.073-0.463-0.219-0.647c-0.146-0.184-0.386-0.339-0.721-0.464
			c-0.215-0.083-0.69-0.211-1.426-0.384c-0.736-0.174-1.251-0.338-1.546-0.491c-0.383-0.197-0.667-0.441-0.855-0.733
			c-0.188-0.292-0.281-0.618-0.281-0.979c0-0.397,0.115-0.769,0.344-1.114s0.564-0.607,1.005-0.787
			c0.441-0.179,0.931-0.268,1.47-0.268c0.594,0,1.118,0.094,1.571,0.281c0.454,0.188,0.802,0.465,1.046,0.83s0.375,0.778,0.394,1.24
			l-1.016,0.075c-0.055-0.498-0.24-0.874-0.555-1.128c-0.315-0.254-0.781-0.381-1.396-0.381c-0.641,0-1.108,0.115-1.402,0.346
			c-0.293,0.231-0.439,0.51-0.439,0.835c0,0.283,0.104,0.516,0.311,0.698c0.204,0.183,0.737,0.37,1.599,0.562
			c0.861,0.191,1.452,0.358,1.773,0.502c0.466,0.211,0.81,0.479,1.033,0.803c0.222,0.323,0.333,0.696,0.333,1.119
			c0,0.419-0.122,0.813-0.366,1.184c-0.244,0.371-0.594,0.659-1.052,0.864c-0.457,0.206-0.972,0.309-1.543,0.309
			c-0.725,0-1.332-0.104-1.822-0.311c-0.49-0.208-0.874-0.521-1.153-0.938C43.169,189.199,43.022,188.728,43.007,188.201z"/>
		<path fill="#1F1A17" d="M48.345,192.916v-7.888h0.896v0.741c0.211-0.29,0.45-0.508,0.716-0.652
			c0.266-0.146,0.588-0.218,0.967-0.218c0.496,0,0.933,0.126,1.312,0.376c0.379,0.251,0.665,0.604,0.858,1.061
			c0.193,0.456,0.29,0.957,0.29,1.501c0,0.583-0.106,1.108-0.32,1.575c-0.213,0.468-0.522,0.825-0.929,1.074
			s-0.833,0.373-1.281,0.373c-0.328,0-0.622-0.068-0.882-0.204c-0.261-0.136-0.475-0.308-0.642-0.516v2.776H48.345z M49.236,187.912
			c0,0.733,0.151,1.275,0.453,1.626c0.303,0.352,0.668,0.526,1.099,0.526c0.437,0,0.811-0.182,1.123-0.545s0.467-0.926,0.467-1.688
			c0-0.727-0.152-1.271-0.456-1.632c-0.304-0.361-0.668-0.543-1.09-0.543c-0.419,0-0.79,0.193-1.112,0.577
			C49.397,186.619,49.236,187.178,49.236,187.912z"/>
		<path fill="#1F1A17" d="M55.263,190.73v-7.871h0.983v7.871H55.263z"/>
		<path fill="#1F1A17" d="M57.284,183.971v-1.111h0.983v1.111H57.284z M57.284,190.73v-5.702h0.983v5.702H57.284z"/>
		<path fill="#1F1A17" d="M61.408,189.866l0.142,0.854c-0.277,0.058-0.524,0.086-0.743,0.086c-0.357,0-0.634-0.056-0.83-0.166
			c-0.197-0.111-0.335-0.257-0.416-0.438c-0.08-0.181-0.12-0.561-0.12-1.141v-3.28H58.72v-0.752h0.721v-1.412l0.978-0.58v1.992
			h0.989v0.752h-0.989v3.334c0,0.275,0.017,0.453,0.052,0.531c0.035,0.079,0.091,0.142,0.169,0.188s0.19,0.069,0.336,0.069
			C61.085,189.903,61.229,189.892,61.408,189.866z"/>
		<path fill="#1F1A17" d="M64.438,189.866l0.142,0.854c-0.277,0.058-0.524,0.086-0.743,0.086c-0.357,0-0.634-0.056-0.83-0.166
			c-0.197-0.111-0.335-0.257-0.416-0.438c-0.08-0.181-0.12-0.561-0.12-1.141v-3.28H61.75v-0.752h0.721v-1.412l0.978-0.58v1.992
			h0.989v0.752H63.45v3.334c0,0.275,0.017,0.453,0.052,0.531c0.035,0.079,0.091,0.142,0.169,0.188s0.19,0.069,0.336,0.069
			C64.116,189.903,64.26,189.892,64.438,189.866z"/>
		<path fill="#1F1A17" d="M69.272,188.895l1.016,0.123c-0.16,0.584-0.457,1.036-0.891,1.358s-0.987,0.483-1.661,0.483
			c-0.849,0-1.521-0.257-2.019-0.771c-0.498-0.514-0.746-1.234-0.746-2.161c0-0.959,0.251-1.704,0.754-2.233
			c0.503-0.529,1.155-0.795,1.956-0.795c0.776,0,1.41,0.26,1.902,0.778c0.492,0.52,0.737,1.25,0.737,2.191
			c0,0.057-0.002,0.143-0.005,0.258h-4.327c0.036,0.626,0.216,1.105,0.541,1.438s0.729,0.499,1.213,0.499
			c0.36,0,0.668-0.093,0.923-0.279C68.92,189.6,69.123,189.303,69.272,188.895z M66.042,187.332h3.24
			c-0.043-0.479-0.167-0.84-0.372-1.079c-0.313-0.372-0.719-0.559-1.218-0.559c-0.452,0-0.832,0.148-1.139,0.445
			C66.246,186.438,66.076,186.834,66.042,187.332z"/>
		<path fill="#1F1A17" d="M71.926,190.73v-5.702h0.885v0.864c0.226-0.404,0.435-0.671,0.625-0.8
			c0.191-0.129,0.402-0.193,0.631-0.193c0.331,0,0.668,0.104,1.011,0.312l-0.339,0.896c-0.24-0.14-0.481-0.209-0.721-0.209
			c-0.215,0-0.408,0.063-0.579,0.19c-0.171,0.127-0.293,0.304-0.366,0.529c-0.109,0.343-0.164,0.719-0.164,1.127v2.985H71.926z"/>
	</g>
	<g>
		<path fill="#1F1A17" d="M220.327,192.215v-7.871h1.596l1.896,5.573c0.175,0.519,0.302,0.907,0.382,1.165
			c0.091-0.286,0.233-0.707,0.427-1.262l1.918-5.477h1.426v7.871h-1.021v-6.588l-2.328,6.588h-0.956l-2.316-6.7v6.7H220.327z"/>
		<path fill="#1F1A17" d="M229.338,185.455v-1.111h0.983v1.111H229.338z M229.338,192.215v-5.702h0.983v5.702H229.338z"/>
		<path fill="#1F1A17" d="M230.67,192.215l2.12-2.964l-1.962-2.738h1.229l0.891,1.337c0.168,0.254,0.303,0.467,0.404,0.639
			c0.16-0.235,0.308-0.445,0.442-0.628l0.979-1.348h1.175l-2.006,2.685l2.158,3.018h-1.207l-1.191-1.771l-0.316-0.479l-1.524,2.25
			H230.67z"/>
		<path fill="#1F1A17" d="M239.853,190.379l1.017,0.123c-0.161,0.584-0.458,1.036-0.891,1.358c-0.434,0.322-0.987,0.483-1.661,0.483
			c-0.849,0-1.522-0.257-2.02-0.771s-0.745-1.234-0.745-2.161c0-0.959,0.251-1.704,0.754-2.233c0.502-0.529,1.154-0.795,1.956-0.795
			c0.775,0,1.409,0.26,1.901,0.778c0.491,0.52,0.737,1.25,0.737,2.191c0,0.057-0.002,0.143-0.005,0.258h-4.328
			c0.037,0.626,0.217,1.105,0.541,1.438s0.729,0.499,1.213,0.499c0.361,0,0.669-0.093,0.924-0.279
			C239.501,191.084,239.703,190.787,239.853,190.379z M236.623,188.816h3.24c-0.044-0.479-0.168-0.84-0.371-1.079
			c-0.313-0.372-0.72-0.559-1.219-0.559c-0.452,0-0.831,0.148-1.14,0.445C236.826,187.922,236.656,188.318,236.623,188.816z"/>
		<path fill="#1F1A17" d="M242.529,192.215v-5.702h0.886v0.864c0.226-0.404,0.434-0.671,0.625-0.8s0.401-0.193,0.631-0.193
			c0.332,0,0.669,0.104,1.011,0.312l-0.338,0.896c-0.241-0.14-0.481-0.209-0.722-0.209c-0.215,0-0.408,0.063-0.579,0.19
			s-0.293,0.304-0.366,0.529c-0.109,0.343-0.164,0.719-0.164,1.127v2.985H242.529z"/>
	</g>
	<g>
		<path fill="#1F1A17" d="M45.867,65.191V57.32h1.595l1.896,5.573c0.175,0.519,0.302,0.907,0.383,1.165
			c0.091-0.287,0.233-0.707,0.426-1.262l1.918-5.477h1.426v7.871h-1.022v-6.588l-2.328,6.588h-0.956l-2.317-6.701v6.701H45.867z"/>
		<path fill="#1F1A17" d="M54.877,58.432V57.32h0.983v1.111H54.877z M54.877,65.191v-5.702h0.983v5.702H54.877z"/>
		<path fill="#1F1A17" d="M56.209,65.191l2.12-2.964l-1.962-2.738h1.229l0.891,1.337c0.167,0.254,0.302,0.467,0.404,0.639
			c0.16-0.236,0.308-0.446,0.443-0.628l0.978-1.348h1.174l-2.005,2.685l2.158,3.018h-1.208l-1.191-1.772l-0.317-0.478l-1.524,2.25
			H56.209z"/>
		<path fill="#1F1A17" d="M65.392,63.355l1.016,0.124c-0.16,0.583-0.457,1.037-0.891,1.358c-0.434,0.322-0.987,0.483-1.661,0.483
			c-0.849,0-1.521-0.257-2.019-0.771c-0.498-0.514-0.746-1.234-0.746-2.161c0-0.959,0.251-1.704,0.754-2.233
			c0.503-0.53,1.155-0.795,1.956-0.795c0.776,0,1.41,0.26,1.902,0.779s0.737,1.249,0.737,2.19c0,0.058-0.002,0.143-0.005,0.258
			h-4.327c0.036,0.626,0.216,1.106,0.541,1.439s0.729,0.5,1.213,0.5c0.36,0,0.668-0.093,0.923-0.279
			C65.04,64.061,65.242,63.763,65.392,63.355z M62.162,61.793h3.24c-0.043-0.48-0.167-0.839-0.372-1.08
			c-0.313-0.372-0.719-0.558-1.218-0.558c-0.452,0-0.832,0.148-1.139,0.446C62.365,60.898,62.195,61.295,62.162,61.793z"/>
		<path fill="#1F1A17" d="M68.068,65.191v-5.702h0.885v0.865c0.226-0.405,0.435-0.671,0.625-0.8
			c0.191-0.129,0.402-0.193,0.631-0.193c0.331,0,0.668,0.104,1.011,0.312l-0.339,0.897c-0.24-0.14-0.481-0.209-0.721-0.209
			c-0.215,0-0.408,0.063-0.579,0.19c-0.171,0.127-0.293,0.303-0.366,0.529c-0.109,0.344-0.164,0.72-0.164,1.127v2.985H68.068z"/>
	</g>
	<g>
		<path fill="#1F1A17" d="M136.199,7.288l1.156,0.287c-0.242,0.934-0.678,1.646-1.308,2.137s-1.398,0.735-2.308,0.735
			c-0.941,0-1.707-0.188-2.296-0.565c-0.59-0.377-1.039-0.923-1.346-1.638c-0.308-0.715-0.461-1.483-0.461-2.303
			c0-0.895,0.174-1.675,0.521-2.342c0.348-0.666,0.842-1.172,1.483-1.518c0.642-0.346,1.347-0.519,2.118-0.519
			c0.873,0,1.608,0.219,2.203,0.656c0.596,0.438,1.011,1.053,1.245,1.847l-1.138,0.264c-0.203-0.625-0.497-1.081-0.881-1.366
			c-0.385-0.285-0.87-0.428-1.453-0.428c-0.671,0-1.232,0.158-1.683,0.475s-0.767,0.741-0.95,1.275
			c-0.183,0.533-0.274,1.083-0.274,1.65c0,0.73,0.108,1.368,0.324,1.914c0.216,0.545,0.553,0.952,1.01,1.222
			s0.951,0.405,1.483,0.405c0.647,0,1.195-0.184,1.644-0.551S136.04,8.011,136.199,7.288z"/>
		<path fill="#1F1A17" d="M138.634,6.116c0-1.426,0.389-2.543,1.167-3.35c0.778-0.807,1.783-1.21,3.014-1.21
			c0.806,0,1.533,0.189,2.18,0.568c0.647,0.379,1.141,0.908,1.48,1.585c0.339,0.678,0.509,1.447,0.509,2.307
			c0,0.871-0.179,1.651-0.536,2.338s-0.863,1.208-1.519,1.562s-1.362,0.53-2.12,0.53c-0.822,0-1.557-0.195-2.204-0.586
			c-0.647-0.391-1.138-0.924-1.471-1.6S138.634,6.87,138.634,6.116z M139.825,6.134c0,1.035,0.283,1.851,0.849,2.447
			s1.275,0.894,2.129,0.894c0.869,0,1.585-0.301,2.147-0.903c0.562-0.602,0.842-1.456,0.842-2.561c0-0.7-0.12-1.31-0.36-1.832
			c-0.241-0.522-0.592-0.926-1.054-1.213c-0.463-0.287-0.982-0.431-1.558-0.431c-0.818,0-1.521,0.276-2.111,0.829
			C140.12,3.917,139.825,4.84,139.825,6.134z"/>
		<path fill="#1F1A17" d="M148.412,10.301V1.708h1.185l4.586,6.746V1.708h1.107v8.592h-1.185l-4.586-6.752v6.752H148.412z"/>
		<path fill="#1F1A17" d="M156.451,10.301V1.708h3.008c0.679,0,1.197,0.041,1.554,0.123c0.5,0.113,0.927,0.319,1.281,0.616
			c0.46,0.383,0.805,0.872,1.033,1.468c0.228,0.596,0.342,1.277,0.342,2.043c0,0.652-0.077,1.23-0.232,1.735
			c-0.155,0.504-0.353,0.921-0.595,1.251c-0.242,0.331-0.507,0.59-0.795,0.78c-0.288,0.189-0.635,0.333-1.042,0.431
			c-0.407,0.098-0.875,0.146-1.403,0.146H156.451z M157.606,9.287h1.864c0.576,0,1.027-0.053,1.355-0.158s0.588-0.254,0.783-0.445
			c0.274-0.27,0.487-0.632,0.64-1.087c0.153-0.455,0.229-1.007,0.229-1.655c0-0.899-0.15-1.589-0.45-2.072
			c-0.3-0.482-0.664-0.806-1.093-0.97c-0.31-0.117-0.808-0.176-1.495-0.176h-1.834V9.287z"/>
		<path fill="#1F1A17" d="M164.479,10.301V1.708h6.313v1.014h-5.158v2.631h4.83v1.008h-4.83v2.924h5.36v1.014H164.479z"/>
		<path fill="#1F1A17" d="M170.468,10.301V1.708h1.185l4.586,6.746V1.708h1.107v8.592h-1.185l-4.586-6.752v6.752H170.468z"/>
		<path fill="#1F1A17" d="M178.09,7.54l1.09-0.094c0.052,0.43,0.172,0.783,0.36,1.058s0.481,0.498,0.879,0.668
			c0.396,0.17,0.844,0.255,1.34,0.255c0.44,0,0.829-0.065,1.167-0.194s0.589-0.306,0.754-0.53c0.164-0.225,0.247-0.47,0.247-0.735
			c0-0.27-0.08-0.505-0.238-0.707c-0.159-0.201-0.421-0.37-0.786-0.507c-0.234-0.09-0.753-0.229-1.555-0.419
			s-1.364-0.368-1.686-0.537c-0.417-0.215-0.728-0.481-0.932-0.8c-0.205-0.318-0.307-0.675-0.307-1.07
			c0-0.434,0.125-0.839,0.375-1.216s0.615-0.664,1.096-0.859s1.015-0.293,1.602-0.293c0.647,0,1.219,0.103,1.713,0.308
			s0.874,0.507,1.141,0.906c0.266,0.398,0.408,0.85,0.429,1.354l-1.108,0.082c-0.06-0.543-0.261-0.954-0.604-1.231
			c-0.343-0.277-0.851-0.416-1.521-0.416c-0.698,0-1.208,0.126-1.527,0.378s-0.479,0.556-0.479,0.911
			c0,0.309,0.113,0.563,0.34,0.762c0.222,0.199,0.803,0.403,1.741,0.612c0.939,0.209,1.584,0.392,1.933,0.548
			c0.509,0.231,0.884,0.523,1.126,0.876s0.363,0.761,0.363,1.222c0,0.457-0.133,0.888-0.399,1.292
			c-0.266,0.405-0.647,0.719-1.146,0.944c-0.499,0.225-1.06,0.337-1.683,0.337c-0.79,0-1.452-0.113-1.986-0.34
			s-0.953-0.567-1.257-1.023C178.266,8.629,178.105,8.115,178.09,7.54z"/>
		<path fill="#1F1A17" d="M184.081,10.301V1.708h6.313v1.014h-5.157v2.631h4.83v1.008h-4.83v2.924h5.36v1.014H184.081z"/>
		<path fill="#1F1A17" d="M190.101,10.301V1.708h3.871c0.778,0,1.37,0.077,1.774,0.231c0.405,0.155,0.729,0.427,0.971,0.818
			s0.363,0.822,0.363,1.295c0,0.61-0.2,1.124-0.602,1.542c-0.4,0.418-1.021,0.684-1.857,0.797c0.306,0.145,0.538,0.287,0.696,0.428
			c0.338,0.305,0.657,0.686,0.959,1.143l1.519,2.338h-1.453l-1.155-1.788c-0.338-0.516-0.615-0.91-0.834-1.184
			c-0.218-0.273-0.414-0.465-0.586-0.574c-0.173-0.109-0.349-0.186-0.527-0.229c-0.131-0.027-0.346-0.041-0.644-0.041h-1.34v3.815
			H190.101z M191.256,5.5h2.483c0.528,0,0.941-0.054,1.239-0.161s0.523-0.279,0.679-0.516c0.154-0.236,0.232-0.493,0.232-0.771
			c0-0.406-0.15-0.74-0.45-1.002s-0.773-0.393-1.42-0.393h-2.764V5.5z"/>
		<path fill="#1F1A17" d="M200.122,10.301V1.708h1.155v7.578h4.3v1.014H200.122z"/>
		<path fill="#1F1A17" d="M204.321,6.116c0-1.426,0.389-2.543,1.167-3.35c0.778-0.807,1.783-1.21,3.014-1.21
			c0.806,0,1.532,0.189,2.18,0.568c0.647,0.379,1.141,0.908,1.48,1.585c0.339,0.678,0.509,1.447,0.509,2.307
			c0,0.871-0.179,1.651-0.536,2.338s-0.863,1.208-1.519,1.562s-1.362,0.53-2.12,0.53c-0.822,0-1.557-0.195-2.204-0.586
			c-0.646-0.391-1.137-0.924-1.471-1.6C204.488,7.585,204.321,6.87,204.321,6.116z M205.512,6.134c0,1.035,0.283,1.851,0.85,2.447
			c0.565,0.596,1.275,0.894,2.129,0.894c0.869,0,1.585-0.301,2.146-0.903c0.563-0.602,0.843-1.456,0.843-2.561
			c0-0.7-0.12-1.31-0.36-1.832c-0.24-0.522-0.592-0.926-1.054-1.213c-0.463-0.287-0.981-0.431-1.558-0.431
			c-0.818,0-1.521,0.276-2.111,0.829C205.807,3.917,205.512,4.84,205.512,6.134z"/>
		<path fill="#1F1A17" d="M213.784,6.116c0-1.426,0.389-2.543,1.167-3.35c0.778-0.807,1.783-1.21,3.014-1.21
			c0.806,0,1.532,0.189,2.18,0.568c0.647,0.379,1.141,0.908,1.48,1.585c0.339,0.678,0.509,1.447,0.509,2.307
			c0,0.871-0.179,1.651-0.536,2.338s-0.863,1.208-1.519,1.562s-1.362,0.53-2.12,0.53c-0.822,0-1.557-0.195-2.204-0.586
			c-0.646-0.391-1.137-0.924-1.471-1.6C213.951,7.585,213.784,6.87,213.784,6.116z M214.975,6.134c0,1.035,0.283,1.851,0.85,2.447
			c0.565,0.596,1.275,0.894,2.129,0.894c0.869,0,1.585-0.301,2.146-0.903c0.563-0.602,0.843-1.456,0.843-2.561
			c0-0.7-0.12-1.31-0.36-1.832c-0.24-0.522-0.592-0.926-1.054-1.213c-0.463-0.287-0.981-0.431-1.558-0.431
			c-0.818,0-1.521,0.276-2.111,0.829C215.27,3.917,214.975,4.84,214.975,6.134z"/>
		<path fill="#1F1A17" d="M223.574,10.301V1.708h3.293c0.58,0,1.022,0.027,1.328,0.082c0.429,0.07,0.788,0.204,1.078,0.401
			c0.29,0.198,0.523,0.474,0.699,0.83c0.177,0.355,0.266,0.746,0.266,1.172c0,0.73-0.236,1.349-0.709,1.855
			c-0.473,0.506-1.326,0.759-2.561,0.759h-2.239v3.493H223.574z M224.729,5.793h2.257c0.746,0,1.276-0.137,1.59-0.41
			s0.471-0.658,0.471-1.154c0-0.36-0.092-0.667-0.276-0.923s-0.429-0.425-0.729-0.507c-0.195-0.051-0.555-0.076-1.078-0.076h-2.233
			V5.793z"/>
	</g>
	<polygon fill="#131516" points="118.634,173.158 118.377,173.415 118.377,72.545 118.892,72.545 118.892,173.415 118.634,173.158 
		118.634,173.673 118.377,173.673 118.377,173.415 	"/>
	<polygon fill="#131516" points="204.883,173.415 205.14,173.673 118.634,173.673 118.634,173.158 205.14,173.158 204.883,173.415 
		205.397,173.415 205.397,173.673 205.14,173.673 	"/>
	<polygon fill="#131516" points="205.14,72.802 205.397,72.545 205.397,173.415 204.883,173.415 204.883,72.545 205.14,72.802 
		205.14,72.288 205.397,72.288 205.397,72.545 	"/>
	<polygon fill="#131516" points="118.892,72.545 118.634,72.288 205.14,72.288 205.14,72.802 118.634,72.802 118.892,72.545 
		118.377,72.545 118.377,72.288 118.634,72.288 	"/>
	<polygon fill="#1F1A17" points="134.795,166.342 134.688,166.32 212.663,166.32 212.663,166.835 134.688,166.835 134.795,166.342 
		134.688,166.835 134.645,166.835 134.602,166.813 	"/>
	<polygon fill="#1F1A17" points="130.787,164.713 130.701,164.648 134.795,166.342 134.602,166.813 130.487,165.12 130.787,164.713 
		130.487,165.12 130.444,165.077 130.401,165.034 	"/>
	<polygon fill="#1F1A17" points="128.451,161.905 128.408,161.798 130.787,164.713 130.401,165.034 128,162.141 128.451,161.905 
		128,162.141 127.958,162.076 127.958,162.033 	"/>
	<polygon fill="#1F1A17" points="127.422,157.918 127.422,157.811 128.451,161.905 127.958,162.033 126.929,157.918 
		127.422,157.918 126.929,157.918 126.908,157.854 126.929,157.811 	"/>
	<polygon fill="#1F1A17" points="128.408,154.103 128.451,153.996 127.422,157.918 126.929,157.811 127.958,153.867 
		128.408,154.103 127.958,153.867 127.958,153.824 128,153.76 	"/>
	<polygon fill="#1F1A17" points="130.701,151.252 130.787,151.188 128.408,154.103 128,153.76 130.401,150.866 130.701,151.252 
		130.401,150.866 130.444,150.823 130.487,150.78 	"/>
	<polygon fill="#1F1A17" points="134.688,149.58 134.795,149.559 130.701,151.252 130.487,150.78 134.602,149.087 134.688,149.58 
		134.602,149.087 134.645,149.065 134.688,149.065 	"/>
	<polygon fill="#1F1A17" points="190.501,149.087 190.608,149.58 134.688,149.58 134.688,149.065 190.608,149.065 190.501,149.087 
		190.693,149.559 190.65,149.58 190.608,149.58 	"/>
	<polygon fill="#1F1A17" points="194.509,147.458 194.809,147.844 190.693,149.559 190.501,149.087 194.616,147.372 
		194.509,147.458 194.916,147.758 194.873,147.822 194.809,147.844 	"/>
	<polygon fill="#1F1A17" points="196.674,144.629 197.124,144.864 194.916,147.758 194.509,147.458 196.717,144.543 
		196.674,144.629 197.167,144.779 197.167,144.822 197.124,144.864 	"/>
	<polygon fill="#1F1A17" points="197.874,140.835 198.367,140.835 197.167,144.779 196.674,144.629 197.874,140.685 
		197.874,140.835 198.367,140.706 198.389,140.771 198.367,140.835 	"/>
	<polygon fill="#1F1A17" points="196.738,136.655 197.167,136.42 198.367,140.706 197.874,140.835 196.674,136.569 196.738,136.655 
		197.124,136.334 197.167,136.377 197.167,136.42 	"/>
	<polygon fill="#1F1A17" points="194.616,133.997 194.895,133.59 197.124,136.334 196.738,136.655 194.509,133.912 194.616,133.997 
		194.809,133.525 194.852,133.547 194.895,133.59 	"/>
	<polygon fill="#1F1A17" points="190.608,132.304 190.693,131.811 194.809,133.525 194.616,133.997 190.501,132.282 
		190.608,132.304 190.608,131.79 190.65,131.79 190.693,131.811 	"/>
	<polygon fill="#1F1A17" points="134.795,131.811 134.688,131.79 190.608,131.79 190.608,132.304 134.688,132.304 134.795,131.811 
		134.688,132.304 134.645,132.304 134.602,132.282 	"/>
	<polygon fill="#1F1A17" points="130.787,130.182 130.701,130.097 134.795,131.811 134.602,132.282 130.487,130.568 
		130.787,130.182 130.487,130.568 130.444,130.547 130.401,130.504 	"/>
	<polygon fill="#1F1A17" points="128.451,127.374 128.408,127.267 130.787,130.182 130.401,130.504 128,127.589 128.451,127.374 
		128,127.589 127.958,127.546 127.958,127.503 	"/>
	<polygon fill="#1F1A17" points="127.422,123.388 127.422,123.259 128.451,127.374 127.958,127.503 126.929,123.388 
		127.422,123.388 126.929,123.388 126.908,123.323 126.929,123.259 	"/>
	<polygon fill="#1F1A17" points="128.408,119.551 128.451,119.465 127.422,123.388 126.929,123.259 127.958,119.336 
		128.408,119.551 127.958,119.336 127.958,119.271 128,119.229 	"/>
	<polygon fill="#1F1A17" points="130.701,116.721 130.787,116.657 128.408,119.551 128,119.229 130.401,116.335 130.701,116.721 
		130.401,116.335 130.444,116.271 130.487,116.25 	"/>
	<polygon fill="#1F1A17" points="134.688,115.028 134.795,115.007 130.701,116.721 130.487,116.25 134.602,114.535 134.688,115.028 
		134.602,114.535 134.645,114.514 134.688,114.514 	"/>
	<polygon fill="#1F1A17" points="190.501,114.535 190.608,115.028 134.688,115.028 134.688,114.514 190.608,114.514 
		190.501,114.535 190.693,115.007 190.65,115.028 190.608,115.028 	"/>
	<polygon fill="#1F1A17" points="194.487,112.928 194.809,113.313 190.693,115.007 190.501,114.535 194.616,112.842 
		194.487,112.928 194.916,113.228 194.873,113.271 194.809,113.313 	"/>
	<polygon fill="#1F1A17" points="196.674,109.927 197.146,110.141 194.916,113.228 194.487,112.928 196.717,109.841 
		196.674,109.927 197.167,110.076 197.167,110.098 197.146,110.141 	"/>
	<polygon fill="#1F1A17" points="197.874,106.133 198.367,106.133 197.167,110.076 196.674,109.927 197.874,105.982 
		197.874,106.133 198.367,105.982 198.389,106.068 198.367,106.133 	"/>
	<polygon fill="#1F1A17" points="196.717,102.274 197.167,102.06 198.367,105.982 197.874,106.133 196.674,102.21 196.717,102.274 
		197.124,101.974 197.167,102.017 197.167,102.06 	"/>
	<polygon fill="#1F1A17" points="194.595,99.445 194.916,99.059 197.124,101.974 196.717,102.274 194.509,99.381 194.595,99.445 
		194.809,98.995 194.873,99.017 194.916,99.059 	"/>
	<polygon fill="#1F1A17" points="190.608,97.602 190.715,97.109 194.809,98.995 194.595,99.445 190.501,97.58 190.608,97.602 
		190.608,97.087 190.65,97.087 190.715,97.109 	"/>
	<polygon fill="#1F1A17" points="134.795,97.109 134.688,97.087 190.608,97.087 190.608,97.602 134.688,97.602 134.795,97.109 
		134.688,97.602 134.645,97.602 134.602,97.58 	"/>
	<polygon fill="#1F1A17" points="130.787,95.458 130.701,95.394 134.795,97.109 134.602,97.58 130.487,95.865 130.787,95.458 
		130.487,95.865 130.444,95.844 130.401,95.801 	"/>
	<polygon fill="#1F1A17" points="128.451,92.822 128.387,92.736 130.787,95.458 130.401,95.801 128,93.058 128.451,92.822 
		128,93.058 127.958,93.015 127.958,92.95 	"/>
	<polygon fill="#1F1A17" points="127.422,88.856 127.422,88.728 128.451,92.822 127.958,92.95 126.929,88.856 127.422,88.856 
		126.929,88.856 126.908,88.792 126.929,88.728 	"/>
	<polygon fill="#1F1A17" points="128.408,85.02 128.451,84.913 127.422,88.856 126.929,88.728 127.958,84.784 128.408,85.02 
		127.958,84.784 127.958,84.741 128,84.698 	"/>
	<polygon fill="#1F1A17" points="130.701,82.019 130.787,81.933 128.408,85.02 128,84.698 130.401,81.633 130.701,82.019 
		130.401,81.633 130.423,81.569 130.487,81.547 	"/>
	<polygon fill="#1F1A17" points="134.688,80.326 134.795,80.304 130.701,82.019 130.487,81.547 134.602,79.833 134.688,80.326 
		134.602,79.833 134.645,79.811 134.688,79.811 	"/>
	<rect x="134.688" y="79.811" fill="#1F1A17" width="77.975" height="0.515"/>
	<polygon fill="#1F1A17" points="208.869,166.32 208.869,166.835 212.663,166.835 212.663,166.32 208.869,166.32 208.869,166.32 
		208.869,166.835 208.869,166.835 208.869,166.835 	"/>
	<rect x="205.14" y="166.32" fill="#1F1A17" width="3.729" height="0.515"/>
	<polygon fill="#1F1A17" points="208.869,79.811 208.869,80.326 212.663,80.326 212.663,79.811 208.869,79.811 208.869,79.811 
		208.869,80.326 208.869,80.326 208.869,80.326 	"/>
	<rect x="205.14" y="79.811" fill="#1F1A17" width="3.729" height="0.515"/>
	<polygon fill-rule="evenodd" clip-rule="evenodd" fill="#FFFFFF" points="212.599,80.068 213.799,82.983 216.521,85.363 
		219.607,85.363 222.351,82.983 223.53,80.068 222.351,76.66 219.607,74.945 216.521,74.945 213.799,76.66 212.599,80.068 	"/>
	<polygon fill="#1F1A17" points="213.971,82.791 213.563,83.069 212.363,80.175 212.835,79.982 214.035,82.876 213.971,82.791 
		213.628,83.176 213.585,83.133 213.563,83.069 	"/>
	<polygon fill="#1F1A17" points="216.521,85.105 216.35,85.556 213.628,83.176 213.971,82.791 216.692,85.17 216.521,85.105 
		216.521,85.62 216.436,85.62 216.35,85.556 	"/>
	<polygon fill="#1F1A17" points="219.437,85.17 219.607,85.62 216.521,85.62 216.521,85.105 219.607,85.105 219.437,85.17 
		219.779,85.556 219.693,85.62 219.607,85.62 	"/>
	<polygon fill="#1F1A17" points="222.115,82.876 222.501,83.176 219.779,85.556 219.437,85.17 222.18,82.791 222.115,82.876 
		222.587,83.069 222.565,83.133 222.501,83.176 	"/>
	<polygon fill="#1F1A17" points="223.294,80.154 223.766,80.175 222.587,83.069 222.115,82.876 223.294,79.982 223.294,80.154 
		223.787,79.982 223.809,80.068 223.766,80.175 	"/>
	<polygon fill="#1F1A17" points="222.201,76.875 222.587,76.574 223.787,79.982 223.294,80.154 222.094,76.746 222.201,76.875 
		222.479,76.424 222.544,76.489 222.587,76.574 	"/>
	<polygon fill="#1F1A17" points="219.607,75.203 219.736,74.731 222.479,76.424 222.201,76.875 219.479,75.16 219.607,75.203 
		219.607,74.688 219.672,74.688 219.736,74.731 	"/>
	<polygon fill="#1F1A17" points="216.671,75.16 216.521,74.688 219.607,74.688 219.607,75.203 216.521,75.203 216.671,75.16 
		216.393,74.731 216.457,74.688 216.521,74.688 	"/>
	<polygon fill="#1F1A17" points="214.035,76.746 213.649,76.424 216.393,74.731 216.671,75.16 213.928,76.875 214.035,76.746 
		213.542,76.574 213.585,76.489 213.649,76.424 	"/>
	<polygon fill="#1F1A17" points="212.835,79.982 212.363,79.982 213.542,76.574 214.035,76.746 212.835,80.154 212.835,79.982 
		212.363,80.175 212.32,80.068 212.363,79.982 	"/>
	<polygon fill-rule="evenodd" clip-rule="evenodd" fill="#FFFFFF" points="213.199,167.199 214.399,170.093 217.143,172.322 
		220.208,172.322 222.951,170.093 224.151,167.199 222.951,163.599 220.208,161.884 217.143,161.884 214.399,163.599 
		213.199,167.199 	"/>
	<polygon fill="#1F1A17" points="214.549,169.9 214.163,170.2 212.963,167.285 213.435,167.092 214.635,170.007 214.549,169.9 
		214.228,170.286 214.185,170.265 214.163,170.2 	"/>
	<polygon fill="#1F1A17" points="217.143,172.064 216.971,172.515 214.228,170.286 214.549,169.9 217.293,172.129 217.143,172.064 
		217.143,172.579 217.035,172.579 216.971,172.515 	"/>
	<polygon fill="#1F1A17" points="220.058,172.129 220.208,172.579 217.143,172.579 217.143,172.064 220.208,172.064 
		220.058,172.129 220.379,172.515 220.293,172.579 220.208,172.579 	"/>
	<polygon fill="#1F1A17" points="222.716,170.007 223.102,170.286 220.379,172.515 220.058,172.129 222.779,169.9 222.716,170.007 
		223.187,170.2 223.165,170.265 223.102,170.286 	"/>
	<polygon fill="#1F1A17" points="223.895,167.264 224.387,167.285 223.187,170.2 222.716,170.007 223.916,167.092 223.895,167.264 
		224.387,167.113 224.408,167.199 224.387,167.285 	"/>
	<polygon fill="#1F1A17" points="222.822,163.813 223.187,163.513 224.387,167.113 223.895,167.264 222.694,163.684 
		222.822,163.813 223.08,163.384 223.165,163.427 223.187,163.513 	"/>
	<polygon fill="#1F1A17" points="220.208,162.141 220.336,161.669 223.08,163.384 222.822,163.813 220.079,162.098 220.208,162.141 
		220.208,161.626 220.293,161.626 220.336,161.669 	"/>
	<polygon fill="#1F1A17" points="217.271,162.098 217.143,161.626 220.208,161.626 220.208,162.141 217.143,162.141 
		217.271,162.098 216.992,161.669 217.057,161.626 217.143,161.626 	"/>
	<polygon fill="#1F1A17" points="214.635,163.684 214.271,163.384 216.992,161.669 217.271,162.098 214.527,163.813 
		214.635,163.684 214.163,163.513 214.185,163.427 214.271,163.384 	"/>
	<polygon fill="#1F1A17" points="213.435,167.092 212.963,167.113 214.163,163.513 214.635,163.684 213.435,167.264 
		213.435,167.092 212.963,167.285 212.92,167.199 212.963,167.113 	"/>
	<g>
		<path fill="#1F1A17" d="M150.595,127.051v-7.871h3.021c0.532,0,0.938,0.025,1.218,0.075c0.394,0.064,0.723,0.188,0.989,0.368
			c0.266,0.181,0.48,0.434,0.642,0.76c0.162,0.325,0.243,0.684,0.243,1.073c0,0.67-0.217,1.236-0.65,1.699
			c-0.434,0.464-1.217,0.695-2.35,0.695h-2.054v3.2H150.595z M151.655,122.922h2.071c0.685,0,1.171-0.125,1.459-0.376
			c0.288-0.25,0.432-0.603,0.432-1.058c0-0.329-0.085-0.611-0.254-0.846s-0.393-0.389-0.669-0.464
			c-0.179-0.047-0.508-0.07-0.989-0.07h-2.049V122.922z"/>
		<path fill="#1F1A17" d="M155.172,124.2c0-1.057,0.299-1.839,0.896-2.347c0.499-0.422,1.107-0.634,1.825-0.634
			c0.797,0,1.45,0.257,1.956,0.771c0.506,0.514,0.759,1.224,0.759,2.129c0,0.734-0.112,1.312-0.336,1.731
			c-0.224,0.421-0.55,0.747-0.978,0.98c-0.428,0.232-0.896,0.349-1.401,0.349c-0.813,0-1.469-0.256-1.97-0.768
			C155.422,125.9,155.172,125.163,155.172,124.2z M156.183,124.2c0,0.729,0.162,1.276,0.486,1.64s0.732,0.545,1.224,0.545
			c0.488,0,0.894-0.183,1.218-0.548c0.324-0.364,0.486-0.921,0.486-1.669c0-0.705-0.163-1.239-0.489-1.604
			c-0.326-0.362-0.731-0.545-1.215-0.545c-0.492,0-0.9,0.182-1.224,0.543S156.183,123.47,156.183,124.2z"/>
		<path fill="#1F1A17" d="M162.198,127.051v-5.702h0.885v0.811c0.426-0.626,1.042-0.939,1.847-0.939c0.35,0,0.671,0.062,0.964,0.186
			c0.293,0.123,0.513,0.285,0.658,0.485c0.146,0.201,0.248,0.439,0.306,0.715c0.036,0.179,0.055,0.492,0.055,0.939v3.506h-0.984
			v-3.469c0-0.394-0.038-0.688-0.115-0.883c-0.076-0.195-0.212-0.351-0.407-0.467s-0.423-0.175-0.686-0.175
			c-0.419,0-0.78,0.131-1.084,0.392c-0.304,0.262-0.456,0.757-0.456,1.487v3.114H162.198z"/>
		<path fill="#1F1A17" d="M172.097,127.051v-0.72c-0.369,0.565-0.909,0.849-1.623,0.849c-0.462,0-0.888-0.125-1.276-0.376
			c-0.388-0.25-0.688-0.601-0.901-1.05s-0.32-0.965-0.32-1.549c0-0.569,0.097-1.085,0.29-1.549c0.193-0.464,0.483-0.818,0.869-1.065
			c0.386-0.247,0.817-0.371,1.295-0.371c0.35,0,0.661,0.072,0.934,0.218c0.273,0.145,0.496,0.334,0.666,0.566v-2.824h0.979v7.871
			H172.097z M168.987,124.205c0,0.73,0.157,1.276,0.47,1.638c0.313,0.361,0.683,0.542,1.109,0.542c0.43,0,0.795-0.173,1.095-0.518
			c0.301-0.346,0.451-0.873,0.451-1.581c0-0.78-0.152-1.354-0.459-1.719c-0.305-0.365-0.683-0.548-1.13-0.548
			c-0.437,0-0.802,0.176-1.096,0.526C169.134,122.896,168.987,123.45,168.987,124.205z"/>
	</g>
	
		<line fill="none" stroke="#25221E" stroke-width="0" stroke-linecap="square" stroke-miterlimit="10" x1="218.343" y1="172.322" x2="218.343" y2="181.582"/>
	<polygon fill-rule="evenodd" clip-rule="evenodd" fill="#1F1A17" points="218.343,181.582 221.408,175.408 215.257,175.408 
		218.343,181.582 218.343,181.582 	"/>
	
		<line fill="none" stroke="#25221E" stroke-width="0" stroke-linecap="square" stroke-miterlimit="10" x1="241.17" y1="172.493" x2="241.17" y2="181.753"/>
	<polygon fill-rule="evenodd" clip-rule="evenodd" fill="#1F1A17" points="241.17,181.753 244.256,175.58 238.083,175.58 
		241.17,181.753 241.17,181.753 	"/>
	
		<line fill="none" stroke="#25221E" stroke-width="0" stroke-linecap="square" stroke-miterlimit="10" x1="229.274" y1="181.753" x2="229.274" y2="200.615"/>
	<polygon fill-rule="evenodd" clip-rule="evenodd" fill="#1F1A17" points="229.274,200.615 232.36,194.442 226.188,194.442 
		229.274,200.615 229.274,200.615 	"/>
	
		<line fill="none" stroke="#1F1A17" stroke-width="0.2143" stroke-linecap="square" stroke-miterlimit="10" x1="218.15" y1="181.689" x2="241.17" y2="181.689"/>
	
		<line fill="none" stroke="#1F1A17" stroke-width="0.2143" stroke-linecap="square" stroke-miterlimit="10" x1="218.15" y1="66.072" x2="239.948" y2="66.072"/>
</g>
</svg>
